<?xml version="1.0" encoding="UTF-8" standalone="no"?>
<!-- Generator: Adobe Illustrator 13.0.0, SVG Export Plug-In . SVG Version: 6.00 Build 14948)  -->

<svg
   xmlns:dc="http://purl.org/dc/elements/1.1/"
   xmlns:cc="http://creativecommons.org/ns#"
   xmlns:rdf="http://www.w3.org/1999/02/22-rdf-syntax-ns#"
   xmlns:svg="http://www.w3.org/2000/svg"
   xmlns="http://www.w3.org/2000/svg"
   xmlns:sodipodi="http://sodipodi.sourceforge.net/DTD/sodipodi-0.dtd"
   xmlns:inkscape="http://www.inkscape.org/namespaces/inkscape"
   version="1.1"
   id="Layer_2"
   x="0px"
   y="0px"
   width="550"
   height="550"
   viewBox="0 0 549.99995 549.99999"
   enable-background="new 0 0 598.189 350.26"
   xml:space="preserve"
   inkscape:version="0.91 r13725"
   sodipodi:docname="controller_gg.svg"><metadata
     id="metadata3083"><rdf:RDF><cc:Work
         rdf:about=""><dc:format>image/svg+xml</dc:format><dc:type
           rdf:resource="http://purl.org/dc/dcmitype/StillImage" /><dc:title></dc:title></cc:Work></rdf:RDF></metadata><defs
     id="defs3081" /><sodipodi:namedview
     pagecolor="#ffffff"
     bordercolor="#666666"
     borderopacity="1"
     objecttolerance="10"
     gridtolerance="10"
     guidetolerance="10"
     inkscape:pageopacity="0"
     inkscape:pageshadow="2"
     inkscape:window-width="1920"
     inkscape:window-height="1001"
     id="namedview3079"
     showgrid="false"
     inkscape:zoom="1.0799262"
     inkscape:cx="286.73678"
     inkscape:cy="382.70167"
     inkscape:window-x="-9"
     inkscape:window-y="-9"
     inkscape:window-maximized="1"
     inkscape:current-layer="layer4"
     showguides="true"
     inkscape:guide-bbox="true" /><g
     inkscape:groupmode="layer"
     id="layer2"
     inkscape:label="Screen_Rect"
     style="display:none"
     transform="translate(0,199.73999)"
     sodipodi:insensitive="true"><path
       style="fill:#ffffff;stroke:#000000;stroke-width:1px;stroke-linecap:butt;stroke-linejoin:miter;stroke-opacity:1"
       d="M 5.0135033,547.22203 136.4109,114.39023 653.54628,-189.09358 406.482,260.92121 Z"
       id="path3021"
       inkscape:connector-curvature="0"
       transform="translate(-2e-5,-199.73999)"
       sodipodi:nodetypes="ccccc" /><rect
       style="opacity:0.60100002;fill:#d8201f;fill-opacity:1;stroke:#ff8080;stroke-width:2.45114732;stroke-linecap:round;stroke-linejoin:round;stroke-miterlimit:4;stroke-dasharray:none;stroke-opacity:1"
       id="rect4230"
       width="444.2457"
       height="9.9567661"
       x="145.95099"
       y="-211.30678" /></g><g
     inkscape:groupmode="layer"
     id="layer1"
     inkscape:label="Controller_Vorlage"
     style="display:none"
     sodipodi:insensitive="true"><g
       id="g4929"
       transform="translate(-0.929149,0.5695451)"><g
         transform="translate(0,199.73999)"
         style="display:none"
         inkscape:label="Layer2"
         id="layer2-9"><path
           sodipodi:nodetypes="ccccc"
           transform="translate(-2e-5,-199.73999)"
           inkscape:connector-curvature="0"
           id="path3021-0"
           d="M 5.0135033,547.22203 136.4109,114.39023 653.54628,-189.09358 406.482,260.92121 Z"
           style="fill:#ffffff;stroke:#000000;stroke-width:1px;stroke-linecap:butt;stroke-linejoin:miter;stroke-opacity:1" /></g><g
         inkscape:label="Layer"
         id="layer1-2"><g
           transform="matrix(0.55322035,-0.3970343,-0.34863416,0.85569517,173.63773,166.52161)"
           id="g3100"><path
             style="fill:#f4f4f4"
             inkscape:connector-curvature="0"
             id="path3"
             d="m 148.05,114.447 c -23.656,0 -42.861,19.204 -42.861,42.861 l 0,37.414 c 0,23.658 19.205,42.86 42.861,42.86 l 38.694,0 c 23.656,0 42.861,-19.202 42.861,-42.86 l 0,-37.414 c 0,-23.657 -19.205,-42.861 -42.861,-42.861 l -38.694,0 z m 0,1.905 38.694,0 c 22.627,0 40.956,18.328 40.956,40.956 l 0,37.414 c 0,22.629 -18.329,40.956 -40.956,40.956 l -38.694,0 c -22.628,0 -40.956,-18.327 -40.956,-40.956 l 0,-37.414 c 0,-22.629 18.328,-40.956 40.956,-40.956 z" /><path
             style="fill:#f4f4f4"
             inkscape:connector-curvature="0"
             id="path5"
             d="m 167.395,123.168 c -3.23,0 -5.863,2.633 -5.863,5.864 l 0,13.037 c 0,3.23 2.632,5.863 5.863,5.863 3.23,0 5.863,-2.633 5.863,-5.863 l 0,-13.037 c 0,-3.23 -2.633,-5.864 -5.863,-5.864 z m 0,1.906 c 2.201,0 3.958,1.758 3.958,3.958 l 0,13.037 c 0,2.2 -1.758,3.958 -3.958,3.958 -2.202,0 -3.958,-1.758 -3.958,-3.958 l 0,-13.037 c -0.001,-2.2 1.757,-3.958 3.958,-3.958 z" /><path
             style="fill:#f4f4f4"
             inkscape:connector-curvature="0"
             id="path7"
             d="m 120.425,170.135 c -3.23,0 -5.864,2.633 -5.864,5.864 0,3.231 2.632,5.894 5.864,5.894 l 13.037,0 c 3.229,0 5.864,-2.662 5.864,-5.894 0,-3.229 -2.633,-5.864 -5.864,-5.864 l -13.037,0 z m 0,1.905 13.037,0 c 2.201,0 3.959,1.759 3.959,3.959 0,2.201 -1.759,3.988 -3.959,3.988 l -13.037,0 c -2.198,-0.01 -3.955,-1.791 -3.955,-3.99 0,-2.201 1.758,-3.959 3.958,-3.959 l -0.003,0.002 z" /><path
             style="fill:#f4f4f4"
             inkscape:connector-curvature="0"
             id="path9"
             d="m 167.395,204.071 c -3.23,0 -5.863,2.663 -5.863,5.894 l 0,13.038 c 0,3.229 2.632,5.863 5.863,5.863 3.23,0 5.863,-2.633 5.863,-5.863 l 0,-13.038 c 0,-3.23 -2.633,-5.894 -5.863,-5.894 z m 0,1.906 c 2.201,0 3.958,1.789 3.958,3.988 l 0,13.038 c 0,2.2 -1.757,3.958 -3.958,3.958 -2.202,0 -3.958,-1.759 -3.958,-3.958 l 0,-13.038 c -0.001,-2.2 1.757,-3.988 3.958,-3.988 z" /><path
             style="fill:#f4f4f4"
             inkscape:connector-curvature="0"
             id="path11"
             d="m 201.321,170.135 c -3.229,0 -5.863,2.633 -5.863,5.864 0,3.231 2.633,5.894 5.863,5.894 l 13.067,0 c 3.229,0 5.863,-2.662 5.863,-5.894 0,-3.229 -2.633,-5.864 -5.863,-5.864 l -13.067,0 z m 0,1.905 13.067,0 c 2.2,0 3.958,1.76 3.958,3.959 0,2.201 -1.758,3.988 -3.958,3.988 l -13.067,0 c -2.2,0 -3.958,-1.788 -3.958,-3.988 0,-2.2 1.759,-3.959 3.958,-3.959 z" /><path
             style="fill:#f4f4f4"
             inkscape:connector-curvature="0"
             id="polygon13"
             d="m 133.878,141.176 -1.31,1.31 8.155,12.025 0.655,0.952 0.804,-0.803 3.869,-3.87 0.804,-0.804 -0.953,-0.655 -12.024,-8.155 z" /><path
             style="fill:#f4f4f4"
             inkscape:connector-curvature="0"
             id="polygon15"
             d="m 141.383,196.566 -0.654,0.952 -8.156,12.024 1.31,1.31 12.025,-8.155 0.953,-0.654 -0.804,-0.804 -3.87,-3.869 -0.804,-0.804 z" /><path
             style="fill:#f4f4f4"
             inkscape:connector-curvature="0"
             id="polygon17"
             d="m 193.435,196.566 -0.804,0.804 -3.869,3.869 -0.833,0.804 0.953,0.654 12.025,8.155 1.339,-1.31 -8.156,-12.024 -0.655,-0.952 0,0 z" /><path
             style="fill:#f4f4f4"
             inkscape:connector-curvature="0"
             id="polygon19"
             d="m 200.912,141.176 -12.025,8.155 -0.953,0.655 0.833,0.804 3.87,3.87 0.804,0.803 0.655,-0.952 8.155,-12.025 -1.339,-1.31 z" /><path
             style="fill:#f4f4f4"
             inkscape:connector-curvature="0"
             id="path21"
             d="m 146.354,104.833 c -27.67,0 -50.123,22.453 -50.123,50.124 l 0,42.117 c 0,27.671 22.453,50.123 50.123,50.123 l 42.117,0 c 27.671,0 50.124,-22.452 50.124,-50.123 l 0,-42.117 c 0,-27.67 -22.452,-50.124 -50.124,-50.124 l -42.117,0 z m 0,1.906 42.117,0 c 26.644,0 48.219,21.577 48.219,48.218 l 0,42.117 c 0,26.644 -21.577,48.218 -48.219,48.218 l -42.117,0 c -26.642,0 -48.218,-21.574 -48.218,-48.218 l 0,-42.117 c 0,-26.642 21.577,-48.218 48.218,-48.218 z" /><path
             style="fill:#f4f4f4"
             inkscape:connector-curvature="0"
             id="polygon23"
             d="m 69.499,75.694 0,0.952 0,202.961 0,0.952 0.953,0 196.122,0 0.952,0 0,-0.952 0,-26.401 289.521,0 0.952,0 0,-0.952 0,-113.458 0,-0.953 -0.952,0 -289.522,0 0,-61.196 0,-0.952 -0.952,0 -196.122,0 -0.952,-10e-4 0,0 z m 1.904,1.905 194.217,0 0,61.196 0,0.953 0.953,0 0.714,0 288.807,0 0,111.552 -289.226,0 -0.297,0 -0.953,0 0,0.953 0,26.4 -194.217,0 0,-201.055 0.002,0.001 z" /><path
             style="fill:#f4f4f4"
             inkscape:connector-curvature="0"
             id="circle25"
             d="m 400.692,169.126 c -19.762,0 -35.777,16.046 -35.777,35.807 0,19.761 16.018,35.807 35.777,35.807 19.759,0 35.807,-16.046 35.807,-35.807 0,-19.761 -16.047,-35.807 -35.807,-35.807 l 0,0 z m 0,1.905 c 18.73,0 33.901,15.17 33.901,33.902 0,18.732 -15.171,33.902 -33.901,33.902 -18.731,0 -33.872,-15.171 -33.872,-33.902 0,-18.731 15.141,-33.902 33.872,-33.902 l 0,0 z" /><path
             style="fill:#f4f4f4"
             inkscape:connector-curvature="0"
             id="circle27"
             d="m 400.692,177.669 c -15.039,0 -27.234,12.227 -27.234,27.265 0,15.038 12.195,27.234 27.234,27.234 15.036,0 27.264,-12.196 27.264,-27.234 0,-15.038 -12.227,-27.265 -27.264,-27.265 z m 0,1.905 c 14.008,0 25.359,11.351 25.359,25.359 0,14.008 -11.352,25.33 -25.359,25.33 -14.01,0 -25.33,-11.321 -25.33,-25.33 0,-14.009 11.321,-25.359 25.33,-25.359 z" /><path
             style="fill:#f4f4f4"
             inkscape:connector-curvature="0"
             id="circle29"
             d="m 489.919,169.126 c -19.762,0 -35.807,16.046 -35.807,35.807 0,19.761 16.045,35.807 35.807,35.807 19.76,0 35.807,-16.046 35.807,-35.807 0,-19.761 -16.047,-35.807 -35.807,-35.807 l 0,0 z m 0,1.905 c 18.73,0 33.901,15.17 33.901,33.902 0,18.732 -15.171,33.902 -33.901,33.902 -18.731,0 -33.902,-15.171 -33.902,-33.902 0,-18.731 15.171,-33.902 33.902,-33.902 l 0,0 z" /><path
             style="fill:#f4f4f4"
             inkscape:connector-curvature="0"
             id="circle31"
             d="m 489.919,177.669 c -15.039,0 -27.234,12.227 -27.234,27.265 0,15.038 12.195,27.234 27.234,27.234 15.036,0 27.234,-12.196 27.234,-27.234 0,-15.038 -12.196,-27.265 -27.234,-27.265 z m 0,1.905 c 14.008,0 25.329,11.351 25.329,25.359 0,14.008 -11.321,25.33 -25.329,25.33 -14.01,0 -25.33,-11.321 -25.33,-25.33 0,-14.009 11.32,-25.359 25.33,-25.359 z" /><path
             style="fill:#f4f4f4"
             inkscape:connector-curvature="0"
             id="path33"
             d="m 39.406,68.432 c -4.766,0 -8.662,3.896 -8.662,8.662 l 0,203.084 c 0,4.766 3.897,8.661 8.662,8.661 l 518.646,0 c 4.429,0 7.956,-3.411 8.453,-7.709 l 0.179,0 0,-0.952 0,-203.085 c 0,-4.762 -3.868,-8.658 -8.64,-8.658 l -518.645,0 0.007,-0.003 z m 0,1.904 518.646,0 c 3.737,0 6.727,3.021 6.727,6.757 l 0,202.131 0,0.953 c 0,3.736 -2.989,6.756 -6.727,6.756 l -518.646,0 c -3.732,0.01 -6.753,-3.019 -6.753,-6.753 l 0,-203.083 c 0,-3.736 3.02,-6.756 6.756,-6.756 l -0.003,-0.005 z" /><path
             style="fill:#f4f4f4"
             inkscape:connector-curvature="0"
             id="rect35"
             d="m 359.021,163.559 0,0.953 0,81.465 0,0.952 0.953,0 81.465,0 0.953,0 0,-0.952 0,-81.465 0,-0.953 -0.953,0 -81.465,0 -0.953,0 z m 1.906,1.905 79.561,0 0,79.56 -79.561,0 0,-79.56 z" /><path
             style="fill:#f4f4f4"
             inkscape:connector-curvature="0"
             id="rect37"
             d="m 448.248,163.559 0,0.953 0,81.465 0,0.952 0.953,0 81.436,0 0.952,0 0,-0.952 0,-81.465 0,-0.953 -0.952,0 -81.436,0 -0.953,0 z m 1.905,1.905 79.531,0 0,79.56 -79.531,0 0,-79.56 z" /><path
             style="fill:#f4f4f4"
             inkscape:connector-curvature="0"
             id="polyline39"
             d="m 83.934,94.177 0,2.292 0,159.061 0,2.322 1.607,-1.638 25.33,-25.299 -1.369,-1.369 -23.663,23.692 0,-154.45 23.663,23.658 1.369,-1.34 -25.33,-25.299 -1.607,-1.637 0,0.007 z" /><path
             style="fill:#f4f4f4"
             inkscape:connector-curvature="0"
             id="polyline41"
             d="m 222.305,232.551 -1.37,1.339 23.693,23.692 -154.452,0 23.574,-23.573 -1.369,-1.339 -25.181,25.182 -1.637,1.637 2.292,0 159.062,0 2.292,0 -1.607,-1.637 -25.299,-25.3 0.002,-0.001 z" /><path
             style="fill:#f4f4f4"
             inkscape:connector-curvature="0"
             id="polyline43"
             d="m 250.878,94.177 -1.637,1.637 -25.211,25.182 1.369,1.369 23.574,-23.603 0,154.509 -23.633,-23.663 -1.339,1.34 25.24,25.27 1.637,1.638 0,-2.322 0,-159.063 0,-2.292 0,-0.002 z" /><path
             style="fill:#f4f4f4"
             inkscape:connector-curvature="0"
             id="polyline45"
             d="m 85.57,92.54 1.638,1.608 25.21,25.24 1.339,-1.34 -23.572,-23.602 154.452,0 -23.669,23.662 1.333,1.339 25.307,-25.3 1.607,-1.607 -2.292,0 -159.062,0 -2.291,0 0,0 z" /><path
             style="fill:#f4f4f4"
             inkscape:connector-curvature="0"
             id="line47"
             d="m 58.961,69.533 0,218.057 1.905,0 0,-218.057 -1.905,0 z" /><path
             style="fill:#f4f4f4"
             inkscape:connector-curvature="0"
             id="rect49"
             d="m 359.021,145.819 0,0.953 0,13.244 0,0.953 0.953,0 81.465,0 0.953,0 0,-0.953 0,-13.244 0,-0.953 -0.953,0 -81.465,0 -0.953,0 z m 1.906,1.905 79.561,0 0,11.339 -79.561,0 0,-11.339 z" /><path
             style="fill:#f4f4f4"
             inkscape:connector-curvature="0"
             id="rect51"
             d="m 448.248,145.819 0,0.953 0,13.244 0,0.953 0.953,0 81.436,0 0.952,0 0,-0.953 0,-13.244 0,-0.953 -0.952,0 -81.436,0 -0.953,0 z m 1.905,1.905 79.531,0 0,11.339 -79.531,0 0,-11.339 z" /><path
             style="fill:#f4f4f4"
             inkscape:connector-curvature="0"
             id="path53"
             d="m 276.804,73.134 c -0.987,0 -1.815,0.828 -1.815,1.816 l 0,53.01 c 0,0.988 0.829,1.815 1.815,1.815 l 282.855,0 c 0.985,0 1.785,-0.831 1.785,-1.815 l 0,-50.033 c 0,-2.641 -2.152,-4.792 -4.792,-4.792 l -279.844,0 -0.004,0 z m 0.09,1.906 279.756,0 c 1.613,0 2.888,1.275 2.888,2.887 l 0,49.945 -282.643,0 0,-52.832 -10e-4,0 z" /><path
             style="fill:#f4f4f4"
             inkscape:connector-curvature="0"
             id="path55"
             d="m 276.804,260.41 c -0.987,0 -1.815,0.829 -1.815,1.815 l 0,20.091 c 0,0.987 0.829,1.816 1.815,1.816 l 279.844,0 c 2.64,0 4.792,-2.183 4.792,-4.822 l 0,-17.085 c 0,-0.985 -0.8,-1.815 -1.785,-1.815 l -282.855,0 0.004,0 z m 0.09,1.905 282.645,0 0,16.995 c 0,1.611 -1.276,2.917 -2.888,2.917 l -279.758,0 0.001,-19.912 0,0 z" /><path
             style="fill:#f4f4f4"
             inkscape:connector-curvature="0"
             id="line57"
             d="m 274.461,129.271 -6.28,6.28 1.369,1.339 6.251,-6.25 -1.34,-1.369 z" /><path
             style="fill:#f4f4f4"
             inkscape:connector-curvature="0"
             id="line59"
             d="m 269.546,253.866 -1.369,1.34 6.281,6.28 1.339,-1.369 -6.251,-6.251 z" /></g></g></g></g><g
     inkscape:groupmode="layer"
     id="layer4"
     inkscape:label="Controller"><g
       id="g6419"
       transform="matrix(0.54199894,-0.37751765,-0.29129834,0.74489648,203.78009,150.45955)"><path
         d="m 208.38202,342.85419 c 0,2.56269 2.09408,4.65618 4.65558,4.65618 l 140.19121,0 c 2.5627,0 4.63823,-2.09349 4.63823,-4.65618 l 0,-334.6945841 c 0,-2.5626962 -2.07553,-4.6388272 -4.63823,-4.6388272 l -140.19121,0 c -2.5621,0 -4.65558,2.0767295 -4.65558,4.6400241 l 0,334.6933872 0,0 z m 1.12873,0 0,-334.6945841 c 0,-1.9534424 1.57461,-3.5100918 3.52685,-3.5100918 l 140.19121,0 c 1.95285,0 3.50949,1.5572479 3.50949,3.5100918 l 0,334.6945841 c 0,1.95344 -1.55844,3.52745 -3.51009,3.52745 l -140.19121,0 c -1.95224,-6e-4 -3.52685,-1.57461 -3.52625,-3.52745 l 0,0 z"
         id="path3-0"
         inkscape:connector-curvature="0"
         style="fill:#f4f4f4" /><path
         sodipodi:nodetypes="ccccccccccccc"
         id="path3358"
         d="m 210.80901,140.30641 7.20632,0 0.56436,0 0,-1.17449 0,-38.33521 0,-1.17449 -0.56436,0 -7.20632,0 0,2.34898 5.91114,-0.0777 0,35.98747 -5.91114,0.0777 z"
         inkscape:connector-curvature="0"
         style="fill:#f4f4f4" /><path
         inkscape:connector-curvature="0"
         id="rect4179-31"
         d="m 219.14893,329.28863 c 0,4.97828 4.03635,9.01462 9.01462,9.01462 l 21.38636,0 c 4.97827,0 9.01462,-4.03634 9.01462,-9.01462 l 0,-20.11224 c 0,-4.97828 -4.03635,-9.01463 -9.01462,-9.01463 l -21.38636,0 c -4.97827,0 -9.01462,4.03635 -9.01462,9.01463 l 0,20.11224 z m 1.83986,0 0,-20.11224 c 0,-3.99088 3.18389,-7.17476 7.17476,-7.17476 l 21.38636,0 c 3.99087,0 7.17475,3.18388 7.17475,7.17476 l 0,20.11224 c 0,3.99087 -3.18388,7.17476 -7.17475,7.17476 l -21.38636,0 c -3.99087,0 -7.17476,-3.18389 -7.17476,-7.17476 z"
         style="color:#000000;font-style:normal;font-variant:normal;font-weight:normal;font-stretch:normal;font-size:medium;line-height:normal;font-family:sans-serif;text-indent:0;text-align:start;text-decoration:none;text-decoration-line:none;text-decoration-style:solid;text-decoration-color:#000000;letter-spacing:normal;word-spacing:normal;text-transform:none;direction:ltr;block-progression:tb;writing-mode:lr-tb;baseline-shift:baseline;text-anchor:start;white-space:normal;clip-rule:nonzero;display:inline;overflow:visible;visibility:visible;opacity:1;isolation:auto;mix-blend-mode:normal;color-interpolation:sRGB;color-interpolation-filters:linearRGB;solid-color:#000000;solid-opacity:1;fill:#f4f4f4;fill-opacity:1;fill-rule:nonzero;stroke:none;stroke-width:3.0740335;stroke-linecap:butt;stroke-linejoin:miter;stroke-miterlimit:4;stroke-dasharray:none;stroke-dashoffset:0;stroke-opacity:1;color-rendering:auto;image-rendering:auto;shape-rendering:auto;text-rendering:auto;enable-background:accumulate" /><path
         sodipodi:nodetypes="ccccccccccccc"
         id="path3358-3"
         d="m 355.59107,140.22685 -7.20631,0 -0.56437,0 0,-1.17449 0,-38.3352 0,-1.174501 0.56437,0 7.20631,0 0,2.348981 -5.91113,-0.0777 0,35.98748 5.91113,0.0777 z"
         inkscape:connector-curvature="0"
         style="fill:#f4f4f4" /><path
         inkscape:connector-curvature="0"
         id="rect4179-31-1"
         d="m 308.51411,330.39613 c 0,4.97828 4.03635,9.01462 9.01462,9.01462 l 21.38635,0 c 4.97828,0 9.01462,-4.03634 9.01462,-9.01462 l 0,-20.11224 c 0,-4.97827 -4.03634,-9.01462 -9.01462,-9.01462 l -21.38635,0 c -4.97827,0 -9.01462,4.03635 -9.01462,9.01462 l 0,20.11224 z m 1.83986,0 0,-20.11224 c 0,-3.99088 3.18388,-7.17476 7.17476,-7.17476 l 21.38635,0 c 3.99088,0 7.17476,3.18388 7.17476,7.17476 l 0,20.11224 c 0,3.99087 -3.18388,7.17476 -7.17476,7.17476 l -21.38635,0 c -3.99088,0 -7.17476,-3.18389 -7.17476,-7.17476 z"
         style="color:#000000;font-style:normal;font-variant:normal;font-weight:normal;font-stretch:normal;font-size:medium;line-height:normal;font-family:sans-serif;text-indent:0;text-align:start;text-decoration:none;text-decoration-line:none;text-decoration-style:solid;text-decoration-color:#000000;letter-spacing:normal;word-spacing:normal;text-transform:none;direction:ltr;block-progression:tb;writing-mode:lr-tb;baseline-shift:baseline;text-anchor:start;white-space:normal;clip-rule:nonzero;display:inline;overflow:visible;visibility:visible;opacity:1;isolation:auto;mix-blend-mode:normal;color-interpolation:sRGB;color-interpolation-filters:linearRGB;solid-color:#000000;solid-opacity:1;fill:#f4f4f4;fill-opacity:1;fill-rule:nonzero;stroke:none;stroke-width:3.0740335;stroke-linecap:butt;stroke-linejoin:miter;stroke-miterlimit:4;stroke-dasharray:none;stroke-dashoffset:0;stroke-opacity:1;color-rendering:auto;image-rendering:auto;shape-rendering:auto;text-rendering:auto;enable-background:accumulate" /><path
         inkscape:connector-curvature="0"
         id="rect4179-31-1-5"
         d="m 308.76131,286.72012 c 0,4.97828 4.03634,9.01462 9.01462,9.01462 l 21.38635,0 c 4.97827,0 9.01462,-4.03634 9.01462,-9.01462 l 0,-20.11224 c 0,-4.97827 -4.03635,-9.01462 -9.01462,-9.01462 l -21.38635,0 c -4.97828,0 -9.01462,4.03635 -9.01462,9.01462 l 0,20.11224 z m 1.83986,0 0,-20.11224 c 0,-3.99087 3.18388,-7.17476 7.17476,-7.17476 l 21.38635,0 c 3.99087,0 7.17476,3.18389 7.17476,7.17476 l 0,20.11224 c 0,3.99087 -3.18389,7.17476 -7.17476,7.17476 l -21.38635,0 c -3.99088,0 -7.17476,-3.18389 -7.17476,-7.17476 z"
         style="color:#000000;font-style:normal;font-variant:normal;font-weight:normal;font-stretch:normal;font-size:medium;line-height:normal;font-family:sans-serif;text-indent:0;text-align:start;text-decoration:none;text-decoration-line:none;text-decoration-style:solid;text-decoration-color:#000000;letter-spacing:normal;word-spacing:normal;text-transform:none;direction:ltr;block-progression:tb;writing-mode:lr-tb;baseline-shift:baseline;text-anchor:start;white-space:normal;clip-rule:nonzero;display:inline;overflow:visible;visibility:visible;opacity:1;isolation:auto;mix-blend-mode:normal;color-interpolation:sRGB;color-interpolation-filters:linearRGB;solid-color:#000000;solid-opacity:1;fill:#f4f4f4;fill-opacity:1;fill-rule:nonzero;stroke:none;stroke-width:3.0740335;stroke-linecap:butt;stroke-linejoin:miter;stroke-miterlimit:4;stroke-dasharray:none;stroke-dashoffset:0;stroke-opacity:1;color-rendering:auto;image-rendering:auto;shape-rendering:auto;text-rendering:auto;enable-background:accumulate" /><path
         inkscape:connector-curvature="0"
         id="rect4179-31-1-57"
         d="m 309.00851,242.64079 c 0,4.97829 4.03635,9.01463 9.01462,9.01463 l 21.38635,0 c 4.97828,0 9.01462,-4.03634 9.01462,-9.01463 l 0,-20.11224 c 0,-4.97827 -4.03634,-9.01462 -9.01462,-9.01462 l -21.38635,0 c -4.97827,0 -9.01462,4.03635 -9.01462,9.01462 l 0,20.11224 z m 1.83986,0 0,-20.11224 c 0,-3.99087 3.18388,-7.17476 7.17476,-7.17476 l 21.38635,0 c 3.99088,0 7.17476,3.18389 7.17476,7.17476 l 0,20.11224 c 0,3.99088 -3.18388,7.17477 -7.17476,7.17477 l -21.38635,0 c -3.99088,0 -7.17476,-3.18389 -7.17476,-7.17477 z"
         style="color:#000000;font-style:normal;font-variant:normal;font-weight:normal;font-stretch:normal;font-size:medium;line-height:normal;font-family:sans-serif;text-indent:0;text-align:start;text-decoration:none;text-decoration-line:none;text-decoration-style:solid;text-decoration-color:#000000;letter-spacing:normal;word-spacing:normal;text-transform:none;direction:ltr;block-progression:tb;writing-mode:lr-tb;baseline-shift:baseline;text-anchor:start;white-space:normal;clip-rule:nonzero;display:inline;overflow:visible;visibility:visible;opacity:1;isolation:auto;mix-blend-mode:normal;color-interpolation:sRGB;color-interpolation-filters:linearRGB;solid-color:#000000;solid-opacity:1;fill:#f4f4f4;fill-opacity:1;fill-rule:nonzero;stroke:none;stroke-width:3.0740335;stroke-linecap:butt;stroke-linejoin:miter;stroke-miterlimit:4;stroke-dasharray:none;stroke-dashoffset:0;stroke-opacity:1;color-rendering:auto;image-rendering:auto;shape-rendering:auto;text-rendering:auto;enable-background:accumulate" /><path
         inkscape:connector-curvature="0"
         id="rect4179-31-1-6"
         d="m 309.00851,200.12272 c 0,4.97828 4.03635,9.01463 9.01462,9.01463 l 21.38635,0 c 4.97828,0 9.01462,-4.03635 9.01462,-9.01463 l 0,-20.11223 c 0,-4.97828 -4.03634,-9.01463 -9.01462,-9.01463 l -21.38635,0 c -4.97827,0 -9.01462,4.03635 -9.01462,9.01463 l 0,20.11223 z m 1.83986,0 0,-20.11223 c 0,-3.99088 3.18388,-7.17476 7.17476,-7.17476 l 21.38635,0 c 3.99088,0 7.17476,3.18388 7.17476,7.17476 l 0,20.11223 c 0,3.99088 -3.18388,7.17476 -7.17476,7.17476 l -21.38635,0 c -3.99088,0 -7.17476,-3.18388 -7.17476,-7.17476 z"
         style="color:#000000;font-style:normal;font-variant:normal;font-weight:normal;font-stretch:normal;font-size:medium;line-height:normal;font-family:sans-serif;text-indent:0;text-align:start;text-decoration:none;text-decoration-line:none;text-decoration-style:solid;text-decoration-color:#000000;letter-spacing:normal;word-spacing:normal;text-transform:none;direction:ltr;block-progression:tb;writing-mode:lr-tb;baseline-shift:baseline;text-anchor:start;white-space:normal;clip-rule:nonzero;display:inline;overflow:visible;visibility:visible;opacity:1;isolation:auto;mix-blend-mode:normal;color-interpolation:sRGB;color-interpolation-filters:linearRGB;solid-color:#000000;solid-opacity:1;fill:#f4f4f4;fill-opacity:1;fill-rule:nonzero;stroke:none;stroke-width:3.0740335;stroke-linecap:butt;stroke-linejoin:miter;stroke-miterlimit:4;stroke-dasharray:none;stroke-dashoffset:0;stroke-opacity:1;color-rendering:auto;image-rendering:auto;shape-rendering:auto;text-rendering:auto;enable-background:accumulate" /><path
         inkscape:connector-curvature="0"
         id="rect4179-31-1-3"
         d="m 264.51285,200.12272 c 0,4.97828 4.03635,9.01463 9.01462,9.01463 l 21.38635,0 c 4.97828,0 9.01462,-4.03635 9.01462,-9.01463 l 0,-20.11223 c 0,-4.97828 -4.03634,-9.01463 -9.01462,-9.01463 l -21.38635,0 c -4.97827,0 -9.01462,4.03635 -9.01462,9.01463 l 0,20.11223 z m 1.83986,0 0,-20.11223 c 0,-3.99088 3.18389,-7.17476 7.17476,-7.17476 l 21.38635,0 c 3.99088,0 7.17476,3.18388 7.17476,7.17476 l 0,20.11223 c 0,3.99088 -3.18388,7.17476 -7.17476,7.17476 l -21.38635,0 c -3.99087,0 -7.17476,-3.18388 -7.17476,-7.17476 z"
         style="color:#000000;font-style:normal;font-variant:normal;font-weight:normal;font-stretch:normal;font-size:medium;line-height:normal;font-family:sans-serif;text-indent:0;text-align:start;text-decoration:none;text-decoration-line:none;text-decoration-style:solid;text-decoration-color:#000000;letter-spacing:normal;word-spacing:normal;text-transform:none;direction:ltr;block-progression:tb;writing-mode:lr-tb;baseline-shift:baseline;text-anchor:start;white-space:normal;clip-rule:nonzero;display:inline;overflow:visible;visibility:visible;opacity:1;isolation:auto;mix-blend-mode:normal;color-interpolation:sRGB;color-interpolation-filters:linearRGB;solid-color:#000000;solid-opacity:1;fill:#f4f4f4;fill-opacity:1;fill-rule:nonzero;stroke:none;stroke-width:3.0740335;stroke-linecap:butt;stroke-linejoin:miter;stroke-miterlimit:4;stroke-dasharray:none;stroke-dashoffset:0;stroke-opacity:1;color-rendering:auto;image-rendering:auto;shape-rendering:auto;text-rendering:auto;enable-background:accumulate" /><path
         inkscape:connector-curvature="0"
         id="rect4179-31-1-4"
         d="m 264.76005,242.3936 c 0,4.97828 4.03634,9.01462 9.01462,9.01462 l 21.38635,0 c 4.97827,0 9.01462,-4.03634 9.01462,-9.01462 l 0,-20.11224 c 0,-4.97827 -4.03635,-9.01462 -9.01462,-9.01462 l -21.38635,0 c -4.97828,0 -9.01462,4.03635 -9.01462,9.01462 l 0,20.11224 z m 1.83986,0 0,-20.11224 c 0,-3.99087 3.18388,-7.17476 7.17476,-7.17476 l 21.38635,0 c 3.99087,0 7.17476,3.18389 7.17476,7.17476 l 0,20.11224 c 0,3.99088 -3.18389,7.17476 -7.17476,7.17476 l -21.38635,0 c -3.99088,0 -7.17476,-3.18388 -7.17476,-7.17476 z"
         style="color:#000000;font-style:normal;font-variant:normal;font-weight:normal;font-stretch:normal;font-size:medium;line-height:normal;font-family:sans-serif;text-indent:0;text-align:start;text-decoration:none;text-decoration-line:none;text-decoration-style:solid;text-decoration-color:#000000;letter-spacing:normal;word-spacing:normal;text-transform:none;direction:ltr;block-progression:tb;writing-mode:lr-tb;baseline-shift:baseline;text-anchor:start;white-space:normal;clip-rule:nonzero;display:inline;overflow:visible;visibility:visible;opacity:1;isolation:auto;mix-blend-mode:normal;color-interpolation:sRGB;color-interpolation-filters:linearRGB;solid-color:#000000;solid-opacity:1;fill:#f4f4f4;fill-opacity:1;fill-rule:nonzero;stroke:none;stroke-width:3.0740335;stroke-linecap:butt;stroke-linejoin:miter;stroke-miterlimit:4;stroke-dasharray:none;stroke-dashoffset:0;stroke-opacity:1;color-rendering:auto;image-rendering:auto;shape-rendering:auto;text-rendering:auto;enable-background:accumulate" /><path
         inkscape:connector-curvature="0"
         id="rect4179-31-1-8"
         d="m 264.76005,286.47292 c 0,4.97829 4.03634,9.01462 9.01462,9.01462 l 21.38635,0 c 4.97827,0 9.01462,-4.03633 9.01462,-9.01462 l 0,-20.11224 c 0,-4.97827 -4.03635,-9.01462 -9.01462,-9.01462 l -21.38635,0 c -4.97828,0 -9.01462,4.03635 -9.01462,9.01462 l 0,20.11224 z m 1.83986,0 0,-20.11224 c 0,-3.99087 3.18388,-7.17476 7.17476,-7.17476 l 21.38635,0 c 3.99087,0 7.17476,3.18389 7.17476,7.17476 l 0,20.11224 c 0,3.99088 -3.18389,7.17476 -7.17476,7.17476 l -21.38635,0 c -3.99088,0 -7.17476,-3.18388 -7.17476,-7.17476 z"
         style="color:#000000;font-style:normal;font-variant:normal;font-weight:normal;font-stretch:normal;font-size:medium;line-height:normal;font-family:sans-serif;text-indent:0;text-align:start;text-decoration:none;text-decoration-line:none;text-decoration-style:solid;text-decoration-color:#000000;letter-spacing:normal;word-spacing:normal;text-transform:none;direction:ltr;block-progression:tb;writing-mode:lr-tb;baseline-shift:baseline;text-anchor:start;white-space:normal;clip-rule:nonzero;display:inline;overflow:visible;visibility:visible;opacity:1;isolation:auto;mix-blend-mode:normal;color-interpolation:sRGB;color-interpolation-filters:linearRGB;solid-color:#000000;solid-opacity:1;fill:#f4f4f4;fill-opacity:1;fill-rule:nonzero;stroke:none;stroke-width:3.0740335;stroke-linecap:butt;stroke-linejoin:miter;stroke-miterlimit:4;stroke-dasharray:none;stroke-dashoffset:0;stroke-opacity:1;color-rendering:auto;image-rendering:auto;shape-rendering:auto;text-rendering:auto;enable-background:accumulate" /><path
         inkscape:connector-curvature="0"
         id="rect4179-31-1-2"
         d="m 264.51285,330.14893 c 0,4.97828 4.03635,9.01462 9.01462,9.01462 l 21.38635,0 c 4.97828,0 9.01462,-4.03634 9.01462,-9.01462 l 0,-20.11224 c 0,-4.97827 -4.03634,-9.01462 -9.01462,-9.01462 l -21.38635,0 c -4.97827,0 -9.01462,4.03635 -9.01462,9.01462 l 0,20.11224 z m 1.83986,0 0,-20.11224 c 0,-3.99087 3.18389,-7.17476 7.17476,-7.17476 l 21.38635,0 c 3.99088,0 7.17476,3.18389 7.17476,7.17476 l 0,20.11224 c 0,3.99088 -3.18388,7.17476 -7.17476,7.17476 l -21.38635,0 c -3.99087,0 -7.17476,-3.18388 -7.17476,-7.17476 z"
         style="color:#000000;font-style:normal;font-variant:normal;font-weight:normal;font-stretch:normal;font-size:medium;line-height:normal;font-family:sans-serif;text-indent:0;text-align:start;text-decoration:none;text-decoration-line:none;text-decoration-style:solid;text-decoration-color:#000000;letter-spacing:normal;word-spacing:normal;text-transform:none;direction:ltr;block-progression:tb;writing-mode:lr-tb;baseline-shift:baseline;text-anchor:start;white-space:normal;clip-rule:nonzero;display:inline;overflow:visible;visibility:visible;opacity:1;isolation:auto;mix-blend-mode:normal;color-interpolation:sRGB;color-interpolation-filters:linearRGB;solid-color:#000000;solid-opacity:1;fill:#f4f4f4;fill-opacity:1;fill-rule:nonzero;stroke:none;stroke-width:3.0740335;stroke-linecap:butt;stroke-linejoin:miter;stroke-miterlimit:4;stroke-dasharray:none;stroke-dashoffset:0;stroke-opacity:1;color-rendering:auto;image-rendering:auto;shape-rendering:auto;text-rendering:auto;enable-background:accumulate" /><path
         inkscape:connector-curvature="0"
         id="rect4179-31-1-64"
         d="m 220.01718,286.22572 c 0,4.97828 4.03635,9.01463 9.01463,9.01463 l 21.38635,0 c 4.97827,0 9.01462,-4.03635 9.01462,-9.01463 l 0,-20.11224 c 0,-4.97827 -4.03635,-9.01462 -9.01462,-9.01462 l -21.38635,0 c -4.97828,0 -9.01463,4.03635 -9.01463,9.01462 l 0,20.11224 z m 1.83987,0 0,-20.11224 c 0,-3.99087 3.18388,-7.17475 7.17476,-7.17475 l 21.38635,0 c 3.99087,0 7.17476,3.18388 7.17476,7.17475 l 0,20.11224 c 0,3.99088 -3.18389,7.17476 -7.17476,7.17476 l -21.38635,0 c -3.99088,0 -7.17476,-3.18388 -7.17476,-7.17476 z"
         style="color:#000000;font-style:normal;font-variant:normal;font-weight:normal;font-stretch:normal;font-size:medium;line-height:normal;font-family:sans-serif;text-indent:0;text-align:start;text-decoration:none;text-decoration-line:none;text-decoration-style:solid;text-decoration-color:#000000;letter-spacing:normal;word-spacing:normal;text-transform:none;direction:ltr;block-progression:tb;writing-mode:lr-tb;baseline-shift:baseline;text-anchor:start;white-space:normal;clip-rule:nonzero;display:inline;overflow:visible;visibility:visible;opacity:1;isolation:auto;mix-blend-mode:normal;color-interpolation:sRGB;color-interpolation-filters:linearRGB;solid-color:#000000;solid-opacity:1;fill:#f4f4f4;fill-opacity:1;fill-rule:nonzero;stroke:none;stroke-width:3.0740335;stroke-linecap:butt;stroke-linejoin:miter;stroke-miterlimit:4;stroke-dasharray:none;stroke-dashoffset:0;stroke-opacity:1;color-rendering:auto;image-rendering:auto;shape-rendering:auto;text-rendering:auto;enable-background:accumulate" /><path
         inkscape:connector-curvature="0"
         id="rect4179-31-1-84"
         d="m 220.01719,242.3936 c 0,4.97828 4.03634,9.01462 9.01462,9.01462 l 21.38635,0 c 4.97827,0 9.01462,-4.03634 9.01462,-9.01462 l 0,-20.11224 c 0,-4.97828 -4.03635,-9.01463 -9.01462,-9.01463 l -21.38635,0 c -4.97828,0 -9.01462,4.03635 -9.01462,9.01463 l 0,20.11224 z m 1.83986,0 0,-20.11224 c 0,-3.99088 3.18388,-7.17476 7.17476,-7.17476 l 21.38635,0 c 3.99087,0 7.17476,3.18388 7.17476,7.17476 l 0,20.11224 c 0,3.99087 -3.18389,7.17475 -7.17476,7.17475 l -21.38635,0 c -3.99088,0 -7.17476,-3.18388 -7.17476,-7.17475 z"
         style="color:#000000;font-style:normal;font-variant:normal;font-weight:normal;font-stretch:normal;font-size:medium;line-height:normal;font-family:sans-serif;text-indent:0;text-align:start;text-decoration:none;text-decoration-line:none;text-decoration-style:solid;text-decoration-color:#000000;letter-spacing:normal;word-spacing:normal;text-transform:none;direction:ltr;block-progression:tb;writing-mode:lr-tb;baseline-shift:baseline;text-anchor:start;white-space:normal;clip-rule:nonzero;display:inline;overflow:visible;visibility:visible;opacity:1;isolation:auto;mix-blend-mode:normal;color-interpolation:sRGB;color-interpolation-filters:linearRGB;solid-color:#000000;solid-opacity:1;fill:#f4f4f4;fill-opacity:1;fill-rule:nonzero;stroke:none;stroke-width:3.0740335;stroke-linecap:butt;stroke-linejoin:miter;stroke-miterlimit:4;stroke-dasharray:none;stroke-dashoffset:0;stroke-opacity:1;color-rendering:auto;image-rendering:auto;shape-rendering:auto;text-rendering:auto;enable-background:accumulate" /><path
         inkscape:connector-curvature="0"
         id="rect4179-31-1-50"
         d="m 219.52279,200.12272 c 0,4.97828 4.03635,9.01463 9.01462,9.01463 l 21.38635,0 c 4.97828,0 9.01463,-4.03635 9.01463,-9.01463 l 0,-20.11224 c 0,-4.97827 -4.03635,-9.01462 -9.01463,-9.01462 l -21.38635,0 c -4.97827,0 -9.01462,4.03635 -9.01462,9.01462 l 0,20.11224 z m 1.83986,0 0,-20.11224 c 0,-3.99088 3.18389,-7.17476 7.17476,-7.17476 l 21.38635,0 c 3.99088,0 7.17476,3.18388 7.17476,7.17476 l 0,20.11224 c 0,3.99088 -3.18388,7.17476 -7.17476,7.17476 l -21.38635,0 c -3.99087,0 -7.17476,-3.18388 -7.17476,-7.17476 z"
         style="color:#000000;font-style:normal;font-variant:normal;font-weight:normal;font-stretch:normal;font-size:medium;line-height:normal;font-family:sans-serif;text-indent:0;text-align:start;text-decoration:none;text-decoration-line:none;text-decoration-style:solid;text-decoration-color:#000000;letter-spacing:normal;word-spacing:normal;text-transform:none;direction:ltr;block-progression:tb;writing-mode:lr-tb;baseline-shift:baseline;text-anchor:start;white-space:normal;clip-rule:nonzero;display:inline;overflow:visible;visibility:visible;opacity:1;isolation:auto;mix-blend-mode:normal;color-interpolation:sRGB;color-interpolation-filters:linearRGB;solid-color:#000000;solid-opacity:1;fill:#f4f4f4;fill-opacity:1;fill-rule:nonzero;stroke:none;stroke-width:3.0740335;stroke-linecap:butt;stroke-linejoin:miter;stroke-miterlimit:4;stroke-dasharray:none;stroke-dashoffset:0;stroke-opacity:1;color-rendering:auto;image-rendering:auto;shape-rendering:auto;text-rendering:auto;enable-background:accumulate" /><path
         inkscape:connector-curvature="0"
         id="path4165"
         d="m 283.97852,9.3261719 c -22.21257,0 -40.24024,18.0257191 -40.24024,40.2382811 0,22.212562 18.02767,40.240235 40.24024,40.240235 22.21256,0 40.23828,-18.027673 40.23828,-40.240235 0,-22.212562 -18.02572,-40.2382811 -40.23828,-40.2382811 z m 0,1.8300781 c 21.22309,0 38.4082,17.185111 38.4082,38.408203 0,21.223092 -17.18511,38.408203 -38.4082,38.408203 -21.2231,0 -38.40821,-17.185111 -38.40821,-38.408203 0,-21.223092 17.18511,-38.408203 38.40821,-38.408203 z"
         style="color:#000000;font-style:normal;font-variant:normal;font-weight:normal;font-stretch:normal;font-size:medium;line-height:normal;font-family:sans-serif;text-indent:0;text-align:start;text-decoration:none;text-decoration-line:none;text-decoration-style:solid;text-decoration-color:#000000;letter-spacing:normal;word-spacing:normal;text-transform:none;direction:ltr;block-progression:tb;writing-mode:lr-tb;baseline-shift:baseline;text-anchor:start;white-space:normal;clip-rule:nonzero;display:inline;overflow:visible;visibility:visible;opacity:1;isolation:auto;mix-blend-mode:normal;color-interpolation:sRGB;color-interpolation-filters:linearRGB;solid-color:#000000;solid-opacity:1;fill:#f3f3f3;fill-opacity:0.86666667;fill-rule:nonzero;stroke:none;stroke-width:1.8308605;stroke-linecap:butt;stroke-linejoin:miter;stroke-miterlimit:4;stroke-dasharray:none;stroke-dashoffset:0;stroke-opacity:1;color-rendering:auto;image-rendering:auto;shape-rendering:auto;text-rendering:auto;enable-background:accumulate" /><path
         inkscape:connector-curvature="0"
         id="path4165-7"
         d="m 284.35547,14.998047 c -18.87299,0 -34.18945,15.316463 -34.18945,34.189453 0,18.87299 15.31646,34.189453 34.18945,34.189453 18.87299,0 34.18945,-15.316463 34.18945,-34.189453 0,-18.87299 -15.31646,-34.189453 -34.18945,-34.189453 z m 0,1.554687 c 18.03228,0 32.63476,14.602484 32.63476,32.634766 0,18.032282 -14.60248,32.632812 -32.63476,32.632812 -18.03228,0 -32.63281,-14.60053 -32.63281,-32.632812 0,-18.032282 14.60053,-32.634766 32.63281,-32.634766 z"
         style="color:#000000;font-style:normal;font-variant:normal;font-weight:normal;font-stretch:normal;font-size:medium;line-height:normal;font-family:sans-serif;text-indent:0;text-align:start;text-decoration:none;text-decoration-line:none;text-decoration-style:solid;text-decoration-color:#000000;letter-spacing:normal;word-spacing:normal;text-transform:none;direction:ltr;block-progression:tb;writing-mode:lr-tb;baseline-shift:baseline;text-anchor:start;white-space:normal;clip-rule:nonzero;display:inline;overflow:visible;visibility:visible;opacity:1;isolation:auto;mix-blend-mode:normal;color-interpolation:sRGB;color-interpolation-filters:linearRGB;solid-color:#000000;solid-opacity:1;fill:#f3f3f3;fill-opacity:0.86666667;fill-rule:nonzero;stroke:none;stroke-width:1.55559766;stroke-linecap:butt;stroke-linejoin:miter;stroke-miterlimit:4;stroke-dasharray:none;stroke-dashoffset:0;stroke-opacity:1;color-rendering:auto;image-rendering:auto;shape-rendering:auto;text-rendering:auto;enable-background:accumulate" /><path
         inkscape:connector-curvature="0"
         id="path4184"
         d="m 221.39062,99.207031 0,1.499999 121.09766,0 0,44.95508 9.08984,0 0.41016,112.07227 -0.41211,33.45507 0,51.63672 1.5,0 0,-51.62695 0.41211,-33.45703 -0.41601,-113.58008 -9.08399,0 0,-44.955079 -122.59766,0 z"
         style="color:#000000;font-style:normal;font-variant:normal;font-weight:normal;font-stretch:normal;font-size:medium;line-height:normal;font-family:sans-serif;text-indent:0;text-align:start;text-decoration:none;text-decoration-line:none;text-decoration-style:solid;text-decoration-color:#000000;letter-spacing:normal;word-spacing:normal;text-transform:none;direction:ltr;block-progression:tb;writing-mode:lr-tb;baseline-shift:baseline;text-anchor:start;white-space:normal;clip-rule:nonzero;display:inline;overflow:visible;visibility:visible;opacity:1;isolation:auto;mix-blend-mode:normal;color-interpolation:sRGB;color-interpolation-filters:linearRGB;solid-color:#000000;solid-opacity:1;fill:#f3f3f3;fill-opacity:0.86666667;fill-rule:evenodd;stroke:none;stroke-width:1.5;stroke-linecap:butt;stroke-linejoin:miter;stroke-miterlimit:4;stroke-dasharray:none;stroke-dashoffset:0;stroke-opacity:1;color-rendering:auto;image-rendering:auto;shape-rendering:auto;text-rendering:auto;enable-background:accumulate" /></g></g></svg>