<?xml version="1.0" encoding="UTF-8" standalone="no"?>
<!-- Generator: Adobe Illustrator 13.0.0, SVG Export Plug-In . SVG Version: 6.00 Build 14948)  -->

<svg
   xmlns:dc="http://purl.org/dc/elements/1.1/"
   xmlns:cc="http://creativecommons.org/ns#"
   xmlns:rdf="http://www.w3.org/1999/02/22-rdf-syntax-ns#"
   xmlns:svg="http://www.w3.org/2000/svg"
   xmlns="http://www.w3.org/2000/svg"
   xmlns:sodipodi="http://sodipodi.sourceforge.net/DTD/sodipodi-0.dtd"
   xmlns:inkscape="http://www.inkscape.org/namespaces/inkscape"
   version="1.1"
   id="Layer_2"
   x="0px"
   y="0px"
   width="550"
   height="550"
   viewBox="0 0 549.99995 549.99999"
   enable-background="new 0 0 598.189 350.26"
   xml:space="preserve"
   inkscape:version="0.91 r13725"
   sodipodi:docname="controller_gg.svg"><metadata
     id="metadata3083"><rdf:RDF><cc:Work
         rdf:about=""><dc:format>image/svg+xml</dc:format><dc:type
           rdf:resource="http://purl.org/dc/dcmitype/StillImage" /><dc:title /></cc:Work></rdf:RDF></metadata><defs
     id="defs3081" /><sodipodi:namedview
     pagecolor="#ffffff"
     bordercolor="#666666"
     borderopacity="1"
     objecttolerance="10"
     gridtolerance="10"
     guidetolerance="10"
     inkscape:pageopacity="0"
     inkscape:pageshadow="2"
     inkscape:window-width="1920"
     inkscape:window-height="1001"
     id="namedview3079"
     showgrid="false"
     inkscape:zoom="1.0799262"
     inkscape:cx="69.732879"
     inkscape:cy="317.24155"
     inkscape:window-x="-9"
     inkscape:window-y="759"
     inkscape:window-maximized="1"
     inkscape:current-layer="layer4"
     showguides="true"
     inkscape:guide-bbox="true" /><g
     inkscape:groupmode="layer"
     id="layer4"
     inkscape:label="Controller"
     sodipodi:insensitive="true"><g
       id="g4726"
       transform="matrix(0.4901408,-0.35667714,-0.41169551,0.78973307,195.34377,190.05822)"><path
         d="m 107.527,100.097 c -49.126,0 -88.963,39.837 -88.963,88.959 0,49.126 39.837,88.963 88.963,88.963 49.125,0 88.963,-39.836 88.963,-88.963 0,-49.125 -39.836,-88.963 -88.963,-88.963 l 0,0.004 z m 0,1.845 c 48.128,0 87.118,38.989 87.118,87.118 0,48.129 -38.989,87.119 -87.118,87.119 -48.133,0 -87.122,-38.984 -87.122,-87.12 0,-48.126 38.989,-87.115 87.118,-87.115 l 0.004,-0.002 z"
         id="circle3"
         inkscape:connector-curvature="0"
         style="fill:#f4f4f4" /><path
         d="m 107.527,151.53 c -20.715,0 -37.534,16.817 -37.534,37.534 0,20.715 16.818,37.533 37.534,37.533 20.716,0 37.534,-16.817 37.534,-37.533 0,-20.716 -16.817,-37.534 -37.534,-37.534 z m 0,1.845 c 19.718,0 35.689,15.97 35.689,35.689 0,19.718 -15.97,35.688 -35.689,35.688 -19.718,0 -35.689,-15.97 -35.689,-35.688 0,-19.718 15.971,-35.689 35.689,-35.689 z"
         id="circle5"
         inkscape:connector-curvature="0"
         style="fill:#f4f4f4" /><path
         d="m 107.527,129.934 0,0 4.526,17.182 -9.052,0 4.526,-17.182 z"
         id="polygon7"
         inkscape:connector-curvature="0"
         style="fill:#f4f4f4" /><path
         d="m 65.698,147.231 15.365,8.965 -6.371,6.4 -8.994,-15.365 0,0 z"
         id="polygon9"
         inkscape:connector-curvature="0"
         style="fill:#f4f4f4" /><path
         d="m 65.583,184.537 0,9.053 -17.21,-4.526 17.21,-4.527 0,0 z"
         id="polygon11"
         inkscape:connector-curvature="0"
         style="fill:#f4f4f4" /><path
         d="m 74.692,215.528 6.371,6.398 -15.365,8.966 8.994,-15.364 0,0 z"
         id="polygon13-5"
         inkscape:connector-curvature="0"
         style="fill:#f4f4f4" /><path
         d="m 103.001,231.002 9.052,0 -4.526,17.182 -4.526,-17.182 0,0 z"
         id="polygon15-7"
         inkscape:connector-curvature="0"
         style="fill:#f4f4f4" /><path
         d="m 140.39,215.528 8.937,15.335 -15.336,-8.937 6.399,-6.398 z"
         id="polygon17-9"
         inkscape:connector-curvature="0"
         style="fill:#f4f4f4" /><path
         d="m 149.475,184.537 17.239,4.526 -17.239,4.526 0,-9.052 0,0 z"
         id="polygon19-8"
         inkscape:connector-curvature="0"
         style="fill:#f4f4f4" /><path
         d="m 149.326,147.26 -8.937,15.337 -6.4,-6.4 15.337,-8.937 z"
         id="polygon21"
         inkscape:connector-curvature="0"
         style="fill:#f4f4f4" /><g
         id="g23"><path
           d="m 299.868,115.579 c -18.162,0 -32.892,14.73 -32.892,32.892 0,18.162 14.73,32.922 32.892,32.922 18.161,0 32.922,-14.759 32.922,-32.922 0,-18.162 -14.759,-32.892 -32.922,-32.892 l 0,0 z m 0,1.845 c 17.165,0 31.076,13.882 31.076,31.047 0,17.165 -13.911,31.077 -31.076,31.077 -17.164,0 -31.047,-13.912 -31.047,-31.077 0,-17.165 13.883,-31.047 31.047,-31.047 z"
           id="circle25-3"
           inkscape:connector-curvature="0"
           style="fill:#f4f4f4" /><path
           d="m 299.868,126.101 c -12.345,0 -22.37,10.025 -22.37,22.37 0,12.345 10.025,22.371 22.37,22.371 12.346,0 22.37,-10.026 22.37,-22.371 0,-12.345 -10.024,-22.37 -22.37,-22.37 z m 0,1.844 c 11.347,0 20.525,9.178 20.525,20.525 0,11.347 -9.179,20.525 -20.525,20.525 -11.348,0 -20.525,-9.178 -20.525,-20.525 0,-11.347 9.178,-20.525 20.525,-20.525 z"
           id="circle27-6"
           inkscape:connector-curvature="0"
           style="fill:#f4f4f4" /></g><g
         id="g29"><path
           d="m 383.354,115.579 c -18.164,0 -32.894,14.731 -32.894,32.892 0,18.162 14.731,32.893 32.894,32.893 18.161,0 32.922,-14.731 32.922,-32.893 0,-18.162 -14.76,-32.892 -32.922,-32.892 z m 0,1.845 c 17.163,0 31.076,13.883 31.076,31.047 0,17.165 -13.913,31.047 -31.076,31.047 -17.166,0 -31.048,-13.883 -31.048,-31.047 0.001,-17.165 13.882,-31.047 31.048,-31.047 z"
           id="circle31-5"
           inkscape:connector-curvature="0"
           style="fill:#f4f4f4" /><path
           d="m 383.354,126.101 c -12.346,0 -22.371,10.025 -22.371,22.37 0,12.345 10.025,22.371 22.371,22.371 12.344,0 22.369,-10.026 22.369,-22.371 0,-12.345 -10.025,-22.37 -22.369,-22.37 z m 0,1.844 c 11.348,0 20.523,9.178 20.523,20.525 0,11.347 -9.178,20.525 -20.523,20.525 -11.348,0 -20.526,-9.178 -20.526,-20.525 0,-11.347 9.179,-20.525 20.526,-20.525 z"
           id="circle33"
           inkscape:connector-curvature="0"
           style="fill:#f4f4f4" /></g><g
         id="g35"><path
           d="m 466.839,115.579 c -18.162,0 -32.893,14.731 -32.893,32.892 0,18.162 14.73,32.893 32.893,32.893 18.163,0 32.922,-14.731 32.922,-32.893 0,-18.162 -14.76,-32.892 -32.922,-32.892 z m 0,1.845 c 17.165,0 31.077,13.883 31.077,31.047 0,17.165 -13.912,31.047 -31.077,31.047 -17.165,0 -31.048,-13.883 -31.048,-31.047 0,-17.165 13.884,-31.047 31.048,-31.047 z"
           id="circle37"
           inkscape:connector-curvature="0"
           style="fill:#f4f4f4" /><path
           d="m 466.839,126.101 c -12.346,0 -22.371,10.025 -22.371,22.37 0,12.345 10.025,22.371 22.371,22.371 12.344,0 22.371,-10.026 22.371,-22.371 0,-12.345 -10.027,-22.37 -22.371,-22.37 z m 0,1.844 c 11.348,0 20.525,9.178 20.525,20.525 0,11.347 -9.178,20.525 -20.525,20.525 -11.347,0 -20.525,-9.178 -20.525,-20.525 0,-11.347 9.177,-20.525 20.525,-20.525 z"
           id="circle39"
           inkscape:connector-curvature="0"
           style="fill:#f4f4f4" /></g><g
         id="g41"><path
           d="m 547.962,34.457 c -18.162,0 -32.892,14.731 -32.892,32.892 0,18.162 14.731,32.922 32.892,32.922 18.163,0 32.893,-14.76 32.893,-32.922 -0.009,-18.161 -14.742,-32.892 -32.896,-32.892 l 0.003,0 z m 0,1.845 c 17.165,0 31.048,13.884 31.048,31.047 0,17.165 -13.883,31.077 -31.048,31.077 -17.164,0 -31.047,-13.912 -31.047,-31.077 0,-17.164 13.883,-31.047 31.052,-31.047 l -0.005,0 z"
           id="circle43"
           inkscape:connector-curvature="0"
           style="fill:#f4f4f4" /><path
           d="m 547.962,44.979 c -12.345,0 -22.369,10.026 -22.369,22.371 0,12.345 10.024,22.398 22.369,22.398 12.346,0 22.37,-10.054 22.37,-22.398 0,-12.344 -10.024,-22.371 -22.37,-22.371 z m 0,1.844 c 11.349,0 20.525,9.178 20.525,20.526 0,11.348 -9.177,20.554 -20.525,20.554 -11.348,0 -20.524,-9.206 -20.524,-20.554 0,-11.348 9.176,-20.526 20.524,-20.526 z"
           id="circle45"
           inkscape:connector-curvature="0"
           style="fill:#f4f4f4" /></g><g
         id="g47"><path
           d="m 299.868,197.507 c -18.162,0 -32.892,14.759 -32.892,32.922 0,18.161 14.73,32.892 32.892,32.892 18.161,0 32.922,-14.73 32.922,-32.892 0,-18.162 -14.759,-32.922 -32.922,-32.922 l 0,0 z m 0,1.845 c 17.165,0 31.076,13.911 31.076,31.077 0,17.164 -13.911,31.047 -31.076,31.047 -17.164,0 -31.047,-13.883 -31.047,-31.047 0,-17.165 13.883,-31.077 31.047,-31.077 z"
           id="circle49"
           inkscape:connector-curvature="0"
           style="fill:#f4f4f4" /><path
           d="m 299.868,208.06 c -12.345,0 -22.37,10.026 -22.37,22.371 0,12.345 10.025,22.37 22.37,22.37 12.346,0 22.37,-10.025 22.37,-22.37 0,-12.345 -10.024,-22.371 -22.37,-22.371 z m 0,1.844 c 11.347,0 20.525,9.179 20.525,20.526 0,11.347 -9.179,20.525 -20.525,20.525 -11.348,0 -20.525,-9.179 -20.525,-20.525 0,-11.347 9.178,-20.526 20.525,-20.526 z"
           id="circle51"
           inkscape:connector-curvature="0"
           style="fill:#f4f4f4" /></g><g
         id="g53"><path
           d="m 383.354,197.507 c -18.164,0 -32.894,14.76 -32.894,32.922 0,18.161 14.731,32.892 32.894,32.892 18.161,0 32.922,-14.731 32.922,-32.892 0,-18.162 -14.76,-32.922 -32.922,-32.922 l 0,0 z m 0,1.845 c 17.163,0 31.076,13.912 31.076,31.077 0,17.164 -13.913,31.047 -31.076,31.047 -17.166,0 -31.048,-13.884 -31.048,-31.047 0.001,-17.165 13.882,-31.077 31.048,-31.077 z"
           id="circle55"
           inkscape:connector-curvature="0"
           style="fill:#f4f4f4" /><path
           d="m 383.354,208.06 c -12.346,0 -22.371,10.026 -22.371,22.371 0,12.345 10.025,22.37 22.371,22.37 12.344,0 22.369,-10.025 22.369,-22.37 0,-12.345 -10.025,-22.371 -22.369,-22.371 z m 0,1.844 c 11.348,0 20.523,9.179 20.523,20.526 0,11.347 -9.178,20.525 -20.523,20.525 -11.348,0 -20.526,-9.179 -20.526,-20.525 0,-11.347 9.179,-20.526 20.526,-20.526 z"
           id="circle57"
           inkscape:connector-curvature="0"
           style="fill:#f4f4f4" /></g><path
         d="m 466.839,197.507 c -18.162,0 -32.893,14.76 -32.893,32.922 0,18.161 14.73,32.892 32.893,32.892 18.163,0 32.922,-14.731 32.922,-32.892 0,-18.162 -14.76,-32.922 -32.922,-32.922 l 0,0 z m 0,1.845 c 17.165,0 31.077,13.912 31.077,31.077 0,17.164 -13.912,31.047 -31.077,31.047 -17.165,0 -31.048,-13.884 -31.048,-31.047 0,-17.165 13.884,-31.077 31.048,-31.077 z"
         id="circle59"
         inkscape:connector-curvature="0"
         style="fill:#f4f4f4" /><path
         d="m 466.839,208.06 c -12.346,0 -22.371,10.026 -22.371,22.371 0,12.345 10.025,22.37 22.371,22.37 12.344,0 22.371,-10.025 22.371,-22.37 0,-12.345 -10.027,-22.371 -22.371,-22.371 z m 0,1.844 c 11.348,0 20.525,9.179 20.525,20.526 0,11.347 -9.178,20.525 -20.525,20.525 -11.347,0 -20.525,-9.179 -20.525,-20.525 -0.001,-11.347 9.177,-20.526 20.525,-20.526 z"
         id="circle61"
         inkscape:connector-curvature="0"
         style="fill:#f4f4f4" /><g
         id="g63"><path
           d="m 415.382,229.877 0,1.845 19.604,0 0,-1.845 -19.604,0 z"
           id="line65"
           inkscape:connector-curvature="0"
           style="fill:#f4f4f4" /><path
           d="m 331.952,229.877 0,1.845 19.517,0 0,-1.845 -19.517,0 z"
           id="line67"
           inkscape:connector-curvature="0"
           style="fill:#f4f4f4" /><path
           d="m 256.742,229.877 0,0.923 0,48.747 0,0.923 0.922,0 251.406,0 0.923,0 0,-0.923 0,-48.747 0,-0.923 -0.923,0 -10.177,0 0,1.845 9.254,0 0,46.903 -249.561,0 0,-46.903 9.399,0 0,-1.845 -10.321,0 -0.922,0 z"
           id="polyline69"
           inkscape:connector-curvature="0"
           style="fill:#f4f4f4" /></g><g
         id="g71"><path
           d="m 415.382,148.384 0,1.846 19.604,0 0,-1.846 -19.604,0 z"
           id="line73"
           inkscape:connector-curvature="0"
           style="fill:#f4f4f4" /><path
           d="m 331.952,148.384 0,1.846 19.517,0 0,-1.846 -19.517,0 z"
           id="line75"
           inkscape:connector-curvature="0"
           style="fill:#f4f4f4" /><path
           d="m 256.742,99.636 0,0.922 0,48.749 0,0.923 0.922,0 10.321,0 0,-1.846 -9.399,0 0,-46.903 249.561,0 0,46.903 -9.254,0 0,1.846 10.177,0 0.923,0 0,-0.923 0,-48.749 0,-0.922 -0.923,0 -251.406,0 -0.922,0 z"
           id="polyline77"
           inkscape:connector-curvature="0"
           style="fill:#f4f4f4" /></g></g></g></svg>