<?xml version="1.0" encoding="UTF-8" standalone="no"?>
<!-- Generator: Adobe Illustrator 13.0.0, SVG Export Plug-In . SVG Version: 6.00 Build 14948)  -->

<svg
   xmlns:dc="http://purl.org/dc/elements/1.1/"
   xmlns:cc="http://creativecommons.org/ns#"
   xmlns:rdf="http://www.w3.org/1999/02/22-rdf-syntax-ns#"
   xmlns:svg="http://www.w3.org/2000/svg"
   xmlns="http://www.w3.org/2000/svg"
   xmlns:sodipodi="http://sodipodi.sourceforge.net/DTD/sodipodi-0.dtd"
   xmlns:inkscape="http://www.inkscape.org/namespaces/inkscape"
   version="1.1"
   id="Layer_2"
   x="0px"
   y="0px"
   width="550"
   height="550"
   viewBox="0 0 549.99995 549.99999"
   enable-background="new 0 0 598.189 350.26"
   xml:space="preserve"
   inkscape:version="0.91 r13725"
   sodipodi:docname="controller_gg.svg"><metadata
     id="metadata3083"><rdf:RDF><cc:Work
         rdf:about=""><dc:format>image/svg+xml</dc:format><dc:type
           rdf:resource="http://purl.org/dc/dcmitype/StillImage" /><dc:title></dc:title></cc:Work></rdf:RDF></metadata><defs
     id="defs3081" /><sodipodi:namedview
     pagecolor="#ffffff"
     bordercolor="#666666"
     borderopacity="1"
     objecttolerance="10"
     gridtolerance="10"
     guidetolerance="10"
     inkscape:pageopacity="0"
     inkscape:pageshadow="2"
     inkscape:window-width="1920"
     inkscape:window-height="1001"
     id="namedview3079"
     showgrid="false"
     inkscape:zoom="1.0799262"
     inkscape:cx="115.89177"
     inkscape:cy="360.47793"
     inkscape:window-x="-9"
     inkscape:window-y="-9"
     inkscape:window-maximized="1"
     inkscape:current-layer="layer4"
     showguides="true"
     inkscape:guide-bbox="true" /><g
     inkscape:groupmode="layer"
     id="layer2"
     inkscape:label="Screen_Rect"
     style="display:none"
     transform="translate(0,199.73999)"
     sodipodi:insensitive="true"><path
       style="fill:#ffffff;stroke:#000000;stroke-width:1px;stroke-linecap:butt;stroke-linejoin:miter;stroke-opacity:1"
       d="M 5.0135033,547.22203 136.4109,114.39023 653.54628,-189.09358 406.482,260.92121 Z"
       id="path3021"
       inkscape:connector-curvature="0"
       transform="translate(-2e-5,-199.73999)"
       sodipodi:nodetypes="ccccc" /><rect
       style="opacity:0.60100002;fill:#d8201f;fill-opacity:1;stroke:#ff8080;stroke-width:2.45114732;stroke-linecap:round;stroke-linejoin:round;stroke-miterlimit:4;stroke-dasharray:none;stroke-opacity:1"
       id="rect4230"
       width="444.2457"
       height="9.9567661"
       x="145.95099"
       y="-211.30678" /></g><g
     inkscape:groupmode="layer"
     id="layer1"
     inkscape:label="Controller_Vorlage"
     style="display:none"
     sodipodi:insensitive="true"><g
       id="g4929"
       transform="translate(-0.929149,0.5695451)"><g
         transform="translate(0,199.73999)"
         style="display:none"
         inkscape:label="Layer2"
         id="layer2-9"><path
           sodipodi:nodetypes="ccccc"
           transform="translate(-2e-5,-199.73999)"
           inkscape:connector-curvature="0"
           id="path3021-0"
           d="M 5.0135033,547.22203 136.4109,114.39023 653.54628,-189.09358 406.482,260.92121 Z"
           style="fill:#ffffff;stroke:#000000;stroke-width:1px;stroke-linecap:butt;stroke-linejoin:miter;stroke-opacity:1" /></g><g
         inkscape:label="Layer"
         id="layer1-2"><g
           transform="matrix(0.55322035,-0.3970343,-0.34863416,0.85569517,173.63773,166.52161)"
           id="g3100"><path
             style="fill:#f4f4f4"
             inkscape:connector-curvature="0"
             id="path3"
             d="m 148.05,114.447 c -23.656,0 -42.861,19.204 -42.861,42.861 l 0,37.414 c 0,23.658 19.205,42.86 42.861,42.86 l 38.694,0 c 23.656,0 42.861,-19.202 42.861,-42.86 l 0,-37.414 c 0,-23.657 -19.205,-42.861 -42.861,-42.861 l -38.694,0 z m 0,1.905 38.694,0 c 22.627,0 40.956,18.328 40.956,40.956 l 0,37.414 c 0,22.629 -18.329,40.956 -40.956,40.956 l -38.694,0 c -22.628,0 -40.956,-18.327 -40.956,-40.956 l 0,-37.414 c 0,-22.629 18.328,-40.956 40.956,-40.956 z" /><path
             style="fill:#f4f4f4"
             inkscape:connector-curvature="0"
             id="path5"
             d="m 167.395,123.168 c -3.23,0 -5.863,2.633 -5.863,5.864 l 0,13.037 c 0,3.23 2.632,5.863 5.863,5.863 3.23,0 5.863,-2.633 5.863,-5.863 l 0,-13.037 c 0,-3.23 -2.633,-5.864 -5.863,-5.864 z m 0,1.906 c 2.201,0 3.958,1.758 3.958,3.958 l 0,13.037 c 0,2.2 -1.758,3.958 -3.958,3.958 -2.202,0 -3.958,-1.758 -3.958,-3.958 l 0,-13.037 c -0.001,-2.2 1.757,-3.958 3.958,-3.958 z" /><path
             style="fill:#f4f4f4"
             inkscape:connector-curvature="0"
             id="path7"
             d="m 120.425,170.135 c -3.23,0 -5.864,2.633 -5.864,5.864 0,3.231 2.632,5.894 5.864,5.894 l 13.037,0 c 3.229,0 5.864,-2.662 5.864,-5.894 0,-3.229 -2.633,-5.864 -5.864,-5.864 l -13.037,0 z m 0,1.905 13.037,0 c 2.201,0 3.959,1.759 3.959,3.959 0,2.201 -1.759,3.988 -3.959,3.988 l -13.037,0 c -2.198,-0.01 -3.955,-1.791 -3.955,-3.99 0,-2.201 1.758,-3.959 3.958,-3.959 l -0.003,0.002 z" /><path
             style="fill:#f4f4f4"
             inkscape:connector-curvature="0"
             id="path9"
             d="m 167.395,204.071 c -3.23,0 -5.863,2.663 -5.863,5.894 l 0,13.038 c 0,3.229 2.632,5.863 5.863,5.863 3.23,0 5.863,-2.633 5.863,-5.863 l 0,-13.038 c 0,-3.23 -2.633,-5.894 -5.863,-5.894 z m 0,1.906 c 2.201,0 3.958,1.789 3.958,3.988 l 0,13.038 c 0,2.2 -1.757,3.958 -3.958,3.958 -2.202,0 -3.958,-1.759 -3.958,-3.958 l 0,-13.038 c -0.001,-2.2 1.757,-3.988 3.958,-3.988 z" /><path
             style="fill:#f4f4f4"
             inkscape:connector-curvature="0"
             id="path11"
             d="m 201.321,170.135 c -3.229,0 -5.863,2.633 -5.863,5.864 0,3.231 2.633,5.894 5.863,5.894 l 13.067,0 c 3.229,0 5.863,-2.662 5.863,-5.894 0,-3.229 -2.633,-5.864 -5.863,-5.864 l -13.067,0 z m 0,1.905 13.067,0 c 2.2,0 3.958,1.76 3.958,3.959 0,2.201 -1.758,3.988 -3.958,3.988 l -13.067,0 c -2.2,0 -3.958,-1.788 -3.958,-3.988 0,-2.2 1.759,-3.959 3.958,-3.959 z" /><path
             style="fill:#f4f4f4"
             inkscape:connector-curvature="0"
             id="polygon13"
             d="m 133.878,141.176 -1.31,1.31 8.155,12.025 0.655,0.952 0.804,-0.803 3.869,-3.87 0.804,-0.804 -0.953,-0.655 -12.024,-8.155 z" /><path
             style="fill:#f4f4f4"
             inkscape:connector-curvature="0"
             id="polygon15"
             d="m 141.383,196.566 -0.654,0.952 -8.156,12.024 1.31,1.31 12.025,-8.155 0.953,-0.654 -0.804,-0.804 -3.87,-3.869 -0.804,-0.804 z" /><path
             style="fill:#f4f4f4"
             inkscape:connector-curvature="0"
             id="polygon17"
             d="m 193.435,196.566 -0.804,0.804 -3.869,3.869 -0.833,0.804 0.953,0.654 12.025,8.155 1.339,-1.31 -8.156,-12.024 -0.655,-0.952 0,0 z" /><path
             style="fill:#f4f4f4"
             inkscape:connector-curvature="0"
             id="polygon19"
             d="m 200.912,141.176 -12.025,8.155 -0.953,0.655 0.833,0.804 3.87,3.87 0.804,0.803 0.655,-0.952 8.155,-12.025 -1.339,-1.31 z" /><path
             style="fill:#f4f4f4"
             inkscape:connector-curvature="0"
             id="path21"
             d="m 146.354,104.833 c -27.67,0 -50.123,22.453 -50.123,50.124 l 0,42.117 c 0,27.671 22.453,50.123 50.123,50.123 l 42.117,0 c 27.671,0 50.124,-22.452 50.124,-50.123 l 0,-42.117 c 0,-27.67 -22.452,-50.124 -50.124,-50.124 l -42.117,0 z m 0,1.906 42.117,0 c 26.644,0 48.219,21.577 48.219,48.218 l 0,42.117 c 0,26.644 -21.577,48.218 -48.219,48.218 l -42.117,0 c -26.642,0 -48.218,-21.574 -48.218,-48.218 l 0,-42.117 c 0,-26.642 21.577,-48.218 48.218,-48.218 z" /><path
             style="fill:#f4f4f4"
             inkscape:connector-curvature="0"
             id="polygon23"
             d="m 69.499,75.694 0,0.952 0,202.961 0,0.952 0.953,0 196.122,0 0.952,0 0,-0.952 0,-26.401 289.521,0 0.952,0 0,-0.952 0,-113.458 0,-0.953 -0.952,0 -289.522,0 0,-61.196 0,-0.952 -0.952,0 -196.122,0 -0.952,-10e-4 0,0 z m 1.904,1.905 194.217,0 0,61.196 0,0.953 0.953,0 0.714,0 288.807,0 0,111.552 -289.226,0 -0.297,0 -0.953,0 0,0.953 0,26.4 -194.217,0 0,-201.055 0.002,0.001 z" /><path
             style="fill:#f4f4f4"
             inkscape:connector-curvature="0"
             id="circle25"
             d="m 400.692,169.126 c -19.762,0 -35.777,16.046 -35.777,35.807 0,19.761 16.018,35.807 35.777,35.807 19.759,0 35.807,-16.046 35.807,-35.807 0,-19.761 -16.047,-35.807 -35.807,-35.807 l 0,0 z m 0,1.905 c 18.73,0 33.901,15.17 33.901,33.902 0,18.732 -15.171,33.902 -33.901,33.902 -18.731,0 -33.872,-15.171 -33.872,-33.902 0,-18.731 15.141,-33.902 33.872,-33.902 l 0,0 z" /><path
             style="fill:#f4f4f4"
             inkscape:connector-curvature="0"
             id="circle27"
             d="m 400.692,177.669 c -15.039,0 -27.234,12.227 -27.234,27.265 0,15.038 12.195,27.234 27.234,27.234 15.036,0 27.264,-12.196 27.264,-27.234 0,-15.038 -12.227,-27.265 -27.264,-27.265 z m 0,1.905 c 14.008,0 25.359,11.351 25.359,25.359 0,14.008 -11.352,25.33 -25.359,25.33 -14.01,0 -25.33,-11.321 -25.33,-25.33 0,-14.009 11.321,-25.359 25.33,-25.359 z" /><path
             style="fill:#f4f4f4"
             inkscape:connector-curvature="0"
             id="circle29"
             d="m 489.919,169.126 c -19.762,0 -35.807,16.046 -35.807,35.807 0,19.761 16.045,35.807 35.807,35.807 19.76,0 35.807,-16.046 35.807,-35.807 0,-19.761 -16.047,-35.807 -35.807,-35.807 l 0,0 z m 0,1.905 c 18.73,0 33.901,15.17 33.901,33.902 0,18.732 -15.171,33.902 -33.901,33.902 -18.731,0 -33.902,-15.171 -33.902,-33.902 0,-18.731 15.171,-33.902 33.902,-33.902 l 0,0 z" /><path
             style="fill:#f4f4f4"
             inkscape:connector-curvature="0"
             id="circle31"
             d="m 489.919,177.669 c -15.039,0 -27.234,12.227 -27.234,27.265 0,15.038 12.195,27.234 27.234,27.234 15.036,0 27.234,-12.196 27.234,-27.234 0,-15.038 -12.196,-27.265 -27.234,-27.265 z m 0,1.905 c 14.008,0 25.329,11.351 25.329,25.359 0,14.008 -11.321,25.33 -25.329,25.33 -14.01,0 -25.33,-11.321 -25.33,-25.33 0,-14.009 11.32,-25.359 25.33,-25.359 z" /><path
             style="fill:#f4f4f4"
             inkscape:connector-curvature="0"
             id="path33"
             d="m 39.406,68.432 c -4.766,0 -8.662,3.896 -8.662,8.662 l 0,203.084 c 0,4.766 3.897,8.661 8.662,8.661 l 518.646,0 c 4.429,0 7.956,-3.411 8.453,-7.709 l 0.179,0 0,-0.952 0,-203.085 c 0,-4.762 -3.868,-8.658 -8.64,-8.658 l -518.645,0 0.007,-0.003 z m 0,1.904 518.646,0 c 3.737,0 6.727,3.021 6.727,6.757 l 0,202.131 0,0.953 c 0,3.736 -2.989,6.756 -6.727,6.756 l -518.646,0 c -3.732,0.01 -6.753,-3.019 -6.753,-6.753 l 0,-203.083 c 0,-3.736 3.02,-6.756 6.756,-6.756 l -0.003,-0.005 z" /><path
             style="fill:#f4f4f4"
             inkscape:connector-curvature="0"
             id="rect35"
             d="m 359.021,163.559 0,0.953 0,81.465 0,0.952 0.953,0 81.465,0 0.953,0 0,-0.952 0,-81.465 0,-0.953 -0.953,0 -81.465,0 -0.953,0 z m 1.906,1.905 79.561,0 0,79.56 -79.561,0 0,-79.56 z" /><path
             style="fill:#f4f4f4"
             inkscape:connector-curvature="0"
             id="rect37"
             d="m 448.248,163.559 0,0.953 0,81.465 0,0.952 0.953,0 81.436,0 0.952,0 0,-0.952 0,-81.465 0,-0.953 -0.952,0 -81.436,0 -0.953,0 z m 1.905,1.905 79.531,0 0,79.56 -79.531,0 0,-79.56 z" /><path
             style="fill:#f4f4f4"
             inkscape:connector-curvature="0"
             id="polyline39"
             d="m 83.934,94.177 0,2.292 0,159.061 0,2.322 1.607,-1.638 25.33,-25.299 -1.369,-1.369 -23.663,23.692 0,-154.45 23.663,23.658 1.369,-1.34 -25.33,-25.299 -1.607,-1.637 0,0.007 z" /><path
             style="fill:#f4f4f4"
             inkscape:connector-curvature="0"
             id="polyline41"
             d="m 222.305,232.551 -1.37,1.339 23.693,23.692 -154.452,0 23.574,-23.573 -1.369,-1.339 -25.181,25.182 -1.637,1.637 2.292,0 159.062,0 2.292,0 -1.607,-1.637 -25.299,-25.3 0.002,-0.001 z" /><path
             style="fill:#f4f4f4"
             inkscape:connector-curvature="0"
             id="polyline43"
             d="m 250.878,94.177 -1.637,1.637 -25.211,25.182 1.369,1.369 23.574,-23.603 0,154.509 -23.633,-23.663 -1.339,1.34 25.24,25.27 1.637,1.638 0,-2.322 0,-159.063 0,-2.292 0,-0.002 z" /><path
             style="fill:#f4f4f4"
             inkscape:connector-curvature="0"
             id="polyline45"
             d="m 85.57,92.54 1.638,1.608 25.21,25.24 1.339,-1.34 -23.572,-23.602 154.452,0 -23.669,23.662 1.333,1.339 25.307,-25.3 1.607,-1.607 -2.292,0 -159.062,0 -2.291,0 0,0 z" /><path
             style="fill:#f4f4f4"
             inkscape:connector-curvature="0"
             id="line47"
             d="m 58.961,69.533 0,218.057 1.905,0 0,-218.057 -1.905,0 z" /><path
             style="fill:#f4f4f4"
             inkscape:connector-curvature="0"
             id="rect49"
             d="m 359.021,145.819 0,0.953 0,13.244 0,0.953 0.953,0 81.465,0 0.953,0 0,-0.953 0,-13.244 0,-0.953 -0.953,0 -81.465,0 -0.953,0 z m 1.906,1.905 79.561,0 0,11.339 -79.561,0 0,-11.339 z" /><path
             style="fill:#f4f4f4"
             inkscape:connector-curvature="0"
             id="rect51"
             d="m 448.248,145.819 0,0.953 0,13.244 0,0.953 0.953,0 81.436,0 0.952,0 0,-0.953 0,-13.244 0,-0.953 -0.952,0 -81.436,0 -0.953,0 z m 1.905,1.905 79.531,0 0,11.339 -79.531,0 0,-11.339 z" /><path
             style="fill:#f4f4f4"
             inkscape:connector-curvature="0"
             id="path53"
             d="m 276.804,73.134 c -0.987,0 -1.815,0.828 -1.815,1.816 l 0,53.01 c 0,0.988 0.829,1.815 1.815,1.815 l 282.855,0 c 0.985,0 1.785,-0.831 1.785,-1.815 l 0,-50.033 c 0,-2.641 -2.152,-4.792 -4.792,-4.792 l -279.844,0 -0.004,0 z m 0.09,1.906 279.756,0 c 1.613,0 2.888,1.275 2.888,2.887 l 0,49.945 -282.643,0 0,-52.832 -10e-4,0 z" /><path
             style="fill:#f4f4f4"
             inkscape:connector-curvature="0"
             id="path55"
             d="m 276.804,260.41 c -0.987,0 -1.815,0.829 -1.815,1.815 l 0,20.091 c 0,0.987 0.829,1.816 1.815,1.816 l 279.844,0 c 2.64,0 4.792,-2.183 4.792,-4.822 l 0,-17.085 c 0,-0.985 -0.8,-1.815 -1.785,-1.815 l -282.855,0 0.004,0 z m 0.09,1.905 282.645,0 0,16.995 c 0,1.611 -1.276,2.917 -2.888,2.917 l -279.758,0 0.001,-19.912 0,0 z" /><path
             style="fill:#f4f4f4"
             inkscape:connector-curvature="0"
             id="line57"
             d="m 274.461,129.271 -6.28,6.28 1.369,1.339 6.251,-6.25 -1.34,-1.369 z" /><path
             style="fill:#f4f4f4"
             inkscape:connector-curvature="0"
             id="line59"
             d="m 269.546,253.866 -1.369,1.34 6.281,6.28 1.339,-1.369 -6.251,-6.251 z" /></g></g></g></g><g
     inkscape:groupmode="layer"
     id="layer4"
     inkscape:label="Controller"><g
       id="g4205"
       transform="matrix(0.65635273,-0.46078044,-0.35799915,0.98434508,156.12548,154.63247)"><path
         d="m 243.026,35.035 0,1.544 109.522,0 0,-1.544 -109.522,0 z"
         id="line3"
         inkscape:connector-curvature="0"
         style="fill:#f4f4f4" /><path
         d="m 184.994,91.859 0,206.096 c 0,22.536 18.268,40.828 40.804,40.828 l 143.837,0 c 22.533,0 40.827,-18.292 40.827,-40.828 l 0,-205.972 -1.545,0 0,205.972 c 0,21.703 -17.583,39.284 -39.282,39.284 l -143.837,0 c -21.703,0 -39.261,-17.581 -39.261,-39.28 l 0,-206.096 -1.544,0 0.001,-0.004 z"
         id="path5-8"
         inkscape:connector-curvature="0"
         style="fill:#f4f4f4" /><path
         d="m 221.309,128.537 c -10.8,0 -19.569,8.769 -19.569,19.569 l 0,154.478 c 0,10.801 8.769,19.569 19.569,19.569 l 152.841,0 c 10.536,0 19.081,-8.361 19.497,-18.797 l 0.072,0 0,-0.772 0,-154.478 c 0,-10.8 -8.771,-19.569 -19.57,-19.569 l -152.84,0 0,0 z m 0,1.544 152.841,0 c 9.966,0 18.024,8.06 18.024,18.025 l 0,153.706 0,0.772 c 0,9.967 -8.058,18.025 -18.024,18.025 l -152.841,0 c -9.965,0 -18.025,-8.059 -18.025,-18.025 l 0,-154.478 c -0.001,-9.965 8.06,-18.025 18.025,-18.025 z"
         id="path7-1"
         inkscape:connector-curvature="0"
         style="fill:#f4f4f4" /><path
         d="m 225.29,31.367 c -24.114,0 -43.675,19.561 -43.675,43.675 0,24.115 19.561,43.675 43.676,43.675 24.115,0 43.675,-19.56 43.675,-43.675 0,-24.115 -19.56,-43.675 -43.676,-43.675 l 0,0 z m 0,1.545 c 23.279,0 42.13,18.851 42.13,42.13 0,23.28 -18.851,42.131 -42.13,42.131 -23.28,0 -42.13,-18.851 -42.13,-42.131 0,-23.28 18.85,-42.13 42.13,-42.13 z"
         id="circle9"
         inkscape:connector-curvature="0"
         style="fill:#f4f4f4" /><path
         d="m 370.169,31.367 c -24.114,0 -43.675,19.561 -43.675,43.675 0,24.115 19.561,43.675 43.675,43.675 24.112,0 43.674,-19.56 43.674,-43.675 0,-24.115 -19.562,-43.675 -43.674,-43.675 z m 0,1.545 c 23.279,0 42.13,18.851 42.13,42.13 0,23.28 -18.851,42.131 -42.13,42.131 -23.28,0 -42.131,-18.851 -42.131,-42.131 0,-23.28 18.851,-42.13 42.131,-42.13 z"
         id="circle11"
         inkscape:connector-curvature="0"
         style="fill:#f4f4f4" /><path
         d="m 181.615,75.621 0,223.778 c 0,24.114 19.561,43.674 43.675,43.674 l 144.874,0 c 24.111,0 43.673,-19.56 43.673,-43.674 l 0,-222.574 -1.543,0 0,222.574 c 0,23.28 -18.854,42.131 -42.13,42.131 l -144.874,0 c -23.277,0 -42.129,-18.849 -42.129,-42.128 l 0,-223.78 -1.544,0 -0.002,-0.001 z"
         id="path13"
         inkscape:connector-curvature="0"
         style="fill:#f4f4f4" /><path
         d="m 297.727,181.669 c -32.917,0 -59.627,26.709 -59.627,59.625 0,32.916 26.709,59.625 59.627,59.625 32.915,0 59.6,-26.709 59.6,-59.625 0,-32.916 -26.685,-59.625 -59.6,-59.625 z m 0,1.544 c 32.08,0 58.055,25.999 58.055,58.081 0,32.082 -25.975,58.08 -58.055,58.08 -32.084,0 -58.083,-25.998 -58.083,-58.08 0,-32.082 25.999,-58.081 58.083,-58.081 z"
         id="circle15"
         inkscape:connector-curvature="0"
         style="fill:#f4f4f4" /><path
         d="m 297.727,198.54 c -23.608,0 -42.76,19.151 -42.76,42.76 0,23.605 19.152,42.757 42.76,42.757 23.605,0 42.757,-19.151 42.757,-42.757 -10e-4,-23.609 -19.152,-42.76 -42.757,-42.76 z m 0,1.544 c 22.771,0 41.213,18.443 41.213,41.216 0,22.771 -18.442,41.213 -41.213,41.213 -22.774,0 -41.215,-18.441 -41.215,-41.213 -10e-4,-22.773 18.44,-41.216 41.215,-41.216 z"
         id="circle17"
         inkscape:connector-curvature="0"
         style="fill:#f4f4f4" /><g
         transform="translate(-5.3936733e-6,0)"
         id="g19"><path
           id="path4181"
           d="m 220.186,198.782 c -3.588,0 -6.495,-2.908 -6.495,-6.494 l 0,0 -0.001,-42.093 c 0.001,-3.586 2.908,-6.492 6.496,-6.494 l 0,0 42.09,0 c 3.585,0.002 6.492,2.909 6.494,6.494 l 0,0 c -0.019,3.645 -2.441,5.818 -2.475,5.861 l 0,0 -39.495,39.495 0.28,0 -1.652,1.368 c -1.083,0.938 -2.217,1.866 -5.018,1.866 l 0,0 c -0.074,0 -0.15,-0.002 -0.224,-0.003 l 0,0 z m -4.952,-48.587 0,42.093 c 0.004,2.734 2.216,4.945 4.951,4.951 l 0,0 c 2.732,-0.052 3.012,-0.524 4.228,-1.487 l 0,0 40.817,-40.815 c -0.003,-0.002 0.1,-0.089 0.288,-0.305 l 0,0 c 0.188,-0.216 0.442,-0.541 0.696,-0.956 l 0,0 c 0.509,-0.834 1.013,-2.025 1.011,-3.481 l 0,0 c -0.005,-2.731 -2.217,-4.943 -4.949,-4.949 l 0,0 -42.09,0 c -2.735,0.006 -4.947,2.216 -4.952,4.949 l 0,0 z m 10.246,46.675 -0.545,-0.547 0.545,0.547 0,0 z"
           inkscape:connector-curvature="0"
           style="fill:#f4f4f4" /><path
           id="path4183"
           d="m 370.031,196.919 0.493,-0.596 0.545,-0.547 -0.545,0.547 -0.493,0.596 L 370,196.892 329.189,156.08 c -0.06,-0.065 -2.482,-2.239 -2.501,-5.882 l 0,0 c 0,-3.587 2.906,-6.494 6.495,-6.496 l 0,0 42.093,0 c 3.584,0.002 6.49,2.907 6.49,6.496 l 0,0 0.002,42.093 c -0.002,3.585 -2.908,6.492 -6.492,6.492 l 0,0 c -0.078,0.001 -0.15,0.003 -0.222,0.003 l 0,0 c -2.803,-0.001 -3.942,-0.928 -5.023,-1.867 l 0,0 z m 5.245,0.318 c 2.73,-0.004 4.941,-2.215 4.948,-4.947 l 0,0 -0.003,-42.093 c -0.004,-2.735 -2.213,-4.946 -4.945,-4.951 l 0,0 -42.093,0 c -2.736,0.005 -4.945,2.216 -4.949,4.951 l 0,0 c -0.008,2.174 1.138,3.783 1.706,4.434 l 0,0 c 0.187,0.216 0.286,0.306 0.315,0.331 l 0,0 40.789,40.791 c 1.217,0.962 1.496,1.435 4.232,1.484 l 0,0 z"
           inkscape:connector-curvature="0"
           style="fill:#f4f4f4" /></g><path
         d="m 225.29,42.998 c -17.683,0 -32.021,14.361 -32.021,32.044 0,17.684 14.337,32.044 32.021,32.044 17.684,0 32.044,-14.36 32.044,-32.044 0,-17.684 -14.36,-32.044 -32.044,-32.044 z m 0,1.544 c 16.848,0 30.5,13.652 30.5,30.5 0,16.848 -13.652,30.5 -30.5,30.5 -16.849,0 -30.475,-13.652 -30.475,-30.5 0,-16.848 13.625,-30.5 30.475,-30.5 z"
         id="circle25-2"
         inkscape:connector-curvature="0"
         style="fill:#f4f4f4" /><path
         d="m 370.169,42.998 c -17.684,0 -32.046,14.361 -32.046,32.044 0,17.684 14.362,32.044 32.046,32.044 17.684,0 32.021,-14.36 32.021,-32.044 0,-17.684 -14.336,-32.044 -32.021,-32.044 z m 0,1.544 c 16.849,0 30.475,13.652 30.475,30.5 0,16.848 -13.626,30.5 -30.475,30.5 -16.85,0 -30.5,-13.652 -30.5,-30.5 0,-16.848 13.65,-30.5 30.5,-30.5 z"
         id="circle27-0"
         inkscape:connector-curvature="0"
         style="fill:#f4f4f4" /><path
         d="m 226.618,31.392 0,1.544 139.351,0 0,-1.544 -139.351,0 z"
         id="line29"
         inkscape:connector-curvature="0"
         style="fill:#f4f4f4" /><path
         d="m 289.332,5.162 0,0.772 0,5.454 0,0.771 0.772,0 15.395,0 0.772,0 0,-0.771 0,-5.454 0,-0.772 -0.772,0 -15.395,0 -0.772,0 z m 1.543,1.544 13.851,0 0,3.909 -13.851,0 0,-3.909 z"
         id="rect31"
         inkscape:connector-curvature="0"
         style="fill:#f4f4f4" /><path
         d="m 288.922,15.345 0,0.772 0,5.454 0,0.771 0.772,0 16.215,0 0.772,0 0,-0.771 0,-5.454 0,-0.772 -0.772,0 -16.215,0 -0.772,0 z m 1.545,1.544 14.671,0 0,3.91 -14.671,0 0,-3.91 z"
         id="rect33"
         inkscape:connector-curvature="0"
         style="fill:#f4f4f4" /><path
         d="m 288.513,25.527 0,0.773 0,5.453 1.545,0 0,-4.681 15.467,0 0,4.681 1.545,0 0,-5.453 0,-0.772 -0.772,0 -17.012,0 -0.773,0 z"
         id="polyline35"
         inkscape:connector-curvature="0"
         style="fill:#f4f4f4" /><g
         transform="translate(-5.3936733e-6,0)"
         id="g37"><polygon
           id="polygon4192"
           points="291.881,11.4 293.425,11.4 293.425,16.031 291.881,16.031 291.881,16.031 "
           style="fill:#f4f4f4" /><polygon
           id="polygon4194"
           points="302.164,11.4 303.71,11.4 303.71,15.895 302.164,15.895 302.164,15.895 "
           style="fill:#f4f4f4" /></g><g
         transform="translate(-5.3936733e-6,0)"
         id="g43"><polygon
           id="polygon4197"
           points="291.881,21.719 293.425,21.719 293.425,26.35 291.881,26.35 291.881,26.35 "
           style="fill:#f4f4f4" /><polygon
           id="polygon4199"
           points="302.164,21.718 303.71,21.718 303.71,26.215 302.164,26.215 302.164,26.215 "
           style="fill:#f4f4f4" /></g></g></g></svg>