<?xml version="1.0" encoding="UTF-8" standalone="no"?>
<!-- Generator: Adobe Illustrator 13.0.0, SVG Export Plug-In . SVG Version: 6.00 Build 14948)  -->

<svg
   xmlns:dc="http://purl.org/dc/elements/1.1/"
   xmlns:cc="http://creativecommons.org/ns#"
   xmlns:rdf="http://www.w3.org/1999/02/22-rdf-syntax-ns#"
   xmlns:svg="http://www.w3.org/2000/svg"
   xmlns="http://www.w3.org/2000/svg"
   xmlns:sodipodi="http://sodipodi.sourceforge.net/DTD/sodipodi-0.dtd"
   xmlns:inkscape="http://www.inkscape.org/namespaces/inkscape"
   version="1.1"
   id="Layer_2"
   x="0px"
   y="0px"
   width="550"
   height="550"
   viewBox="0 0 549.99995 549.99999"
   enable-background="new 0 0 598.189 350.26"
   xml:space="preserve"
   inkscape:version="0.91 r13725"
   sodipodi:docname="controller_gg.svg"><metadata
     id="metadata3083"><rdf:RDF><cc:Work
         rdf:about=""><dc:format>image/svg+xml</dc:format><dc:type
           rdf:resource="http://purl.org/dc/dcmitype/StillImage" /><dc:title></dc:title></cc:Work></rdf:RDF></metadata><defs
     id="defs3081" /><sodipodi:namedview
     pagecolor="#ffffff"
     bordercolor="#666666"
     borderopacity="1"
     objecttolerance="10"
     gridtolerance="10"
     guidetolerance="10"
     inkscape:pageopacity="0"
     inkscape:pageshadow="2"
     inkscape:window-width="1920"
     inkscape:window-height="1001"
     id="namedview3079"
     showgrid="false"
     inkscape:zoom="1.0799262"
     inkscape:cx="286.73678"
     inkscape:cy="382.70167"
     inkscape:window-x="-9"
     inkscape:window-y="-9"
     inkscape:window-maximized="1"
     inkscape:current-layer="layer4"
     showguides="true"
     inkscape:guide-bbox="true" /><g
     inkscape:groupmode="layer"
     id="layer2"
     inkscape:label="Screen_Rect"
     style="display:none"
     transform="translate(0,199.73999)"
     sodipodi:insensitive="true"><path
       style="fill:#ffffff;stroke:#000000;stroke-width:1px;stroke-linecap:butt;stroke-linejoin:miter;stroke-opacity:1"
       d="M 5.0135033,547.22203 136.4109,114.39023 653.54628,-189.09358 406.482,260.92121 Z"
       id="path3021"
       inkscape:connector-curvature="0"
       transform="translate(-2e-5,-199.73999)"
       sodipodi:nodetypes="ccccc" /><rect
       style="opacity:0.60100002;fill:#d8201f;fill-opacity:1;stroke:#ff8080;stroke-width:2.45114732;stroke-linecap:round;stroke-linejoin:round;stroke-miterlimit:4;stroke-dasharray:none;stroke-opacity:1"
       id="rect4230"
       width="444.2457"
       height="9.9567661"
       x="145.95099"
       y="-211.30678" /></g><g
     inkscape:groupmode="layer"
     id="layer1"
     inkscape:label="Controller_Vorlage"
     style="display:none"
     sodipodi:insensitive="true"><g
       id="g4929"
       transform="translate(-0.929149,0.5695451)"><g
         transform="translate(0,199.73999)"
         style="display:none"
         inkscape:label="Layer2"
         id="layer2-9"><path
           sodipodi:nodetypes="ccccc"
           transform="translate(-2e-5,-199.73999)"
           inkscape:connector-curvature="0"
           id="path3021-0"
           d="M 5.0135033,547.22203 136.4109,114.39023 653.54628,-189.09358 406.482,260.92121 Z"
           style="fill:#ffffff;stroke:#000000;stroke-width:1px;stroke-linecap:butt;stroke-linejoin:miter;stroke-opacity:1" /></g><g
         inkscape:label="Layer"
         id="layer1-2"><g
           transform="matrix(0.55322035,-0.3970343,-0.34863416,0.85569517,173.63773,166.52161)"
           id="g3100"><path
             style="fill:#f4f4f4"
             inkscape:connector-curvature="0"
             id="path3"
             d="m 148.05,114.447 c -23.656,0 -42.861,19.204 -42.861,42.861 l 0,37.414 c 0,23.658 19.205,42.86 42.861,42.86 l 38.694,0 c 23.656,0 42.861,-19.202 42.861,-42.86 l 0,-37.414 c 0,-23.657 -19.205,-42.861 -42.861,-42.861 l -38.694,0 z m 0,1.905 38.694,0 c 22.627,0 40.956,18.328 40.956,40.956 l 0,37.414 c 0,22.629 -18.329,40.956 -40.956,40.956 l -38.694,0 c -22.628,0 -40.956,-18.327 -40.956,-40.956 l 0,-37.414 c 0,-22.629 18.328,-40.956 40.956,-40.956 z" /><path
             style="fill:#f4f4f4"
             inkscape:connector-curvature="0"
             id="path5"
             d="m 167.395,123.168 c -3.23,0 -5.863,2.633 -5.863,5.864 l 0,13.037 c 0,3.23 2.632,5.863 5.863,5.863 3.23,0 5.863,-2.633 5.863,-5.863 l 0,-13.037 c 0,-3.23 -2.633,-5.864 -5.863,-5.864 z m 0,1.906 c 2.201,0 3.958,1.758 3.958,3.958 l 0,13.037 c 0,2.2 -1.758,3.958 -3.958,3.958 -2.202,0 -3.958,-1.758 -3.958,-3.958 l 0,-13.037 c -0.001,-2.2 1.757,-3.958 3.958,-3.958 z" /><path
             style="fill:#f4f4f4"
             inkscape:connector-curvature="0"
             id="path7"
             d="m 120.425,170.135 c -3.23,0 -5.864,2.633 -5.864,5.864 0,3.231 2.632,5.894 5.864,5.894 l 13.037,0 c 3.229,0 5.864,-2.662 5.864,-5.894 0,-3.229 -2.633,-5.864 -5.864,-5.864 l -13.037,0 z m 0,1.905 13.037,0 c 2.201,0 3.959,1.759 3.959,3.959 0,2.201 -1.759,3.988 -3.959,3.988 l -13.037,0 c -2.198,-0.01 -3.955,-1.791 -3.955,-3.99 0,-2.201 1.758,-3.959 3.958,-3.959 l -0.003,0.002 z" /><path
             style="fill:#f4f4f4"
             inkscape:connector-curvature="0"
             id="path9"
             d="m 167.395,204.071 c -3.23,0 -5.863,2.663 -5.863,5.894 l 0,13.038 c 0,3.229 2.632,5.863 5.863,5.863 3.23,0 5.863,-2.633 5.863,-5.863 l 0,-13.038 c 0,-3.23 -2.633,-5.894 -5.863,-5.894 z m 0,1.906 c 2.201,0 3.958,1.789 3.958,3.988 l 0,13.038 c 0,2.2 -1.757,3.958 -3.958,3.958 -2.202,0 -3.958,-1.759 -3.958,-3.958 l 0,-13.038 c -0.001,-2.2 1.757,-3.988 3.958,-3.988 z" /><path
             style="fill:#f4f4f4"
             inkscape:connector-curvature="0"
             id="path11"
             d="m 201.321,170.135 c -3.229,0 -5.863,2.633 -5.863,5.864 0,3.231 2.633,5.894 5.863,5.894 l 13.067,0 c 3.229,0 5.863,-2.662 5.863,-5.894 0,-3.229 -2.633,-5.864 -5.863,-5.864 l -13.067,0 z m 0,1.905 13.067,0 c 2.2,0 3.958,1.76 3.958,3.959 0,2.201 -1.758,3.988 -3.958,3.988 l -13.067,0 c -2.2,0 -3.958,-1.788 -3.958,-3.988 0,-2.2 1.759,-3.959 3.958,-3.959 z" /><path
             style="fill:#f4f4f4"
             inkscape:connector-curvature="0"
             id="polygon13"
             d="m 133.878,141.176 -1.31,1.31 8.155,12.025 0.655,0.952 0.804,-0.803 3.869,-3.87 0.804,-0.804 -0.953,-0.655 -12.024,-8.155 z" /><path
             style="fill:#f4f4f4"
             inkscape:connector-curvature="0"
             id="polygon15"
             d="m 141.383,196.566 -0.654,0.952 -8.156,12.024 1.31,1.31 12.025,-8.155 0.953,-0.654 -0.804,-0.804 -3.87,-3.869 -0.804,-0.804 z" /><path
             style="fill:#f4f4f4"
             inkscape:connector-curvature="0"
             id="polygon17"
             d="m 193.435,196.566 -0.804,0.804 -3.869,3.869 -0.833,0.804 0.953,0.654 12.025,8.155 1.339,-1.31 -8.156,-12.024 -0.655,-0.952 0,0 z" /><path
             style="fill:#f4f4f4"
             inkscape:connector-curvature="0"
             id="polygon19"
             d="m 200.912,141.176 -12.025,8.155 -0.953,0.655 0.833,0.804 3.87,3.87 0.804,0.803 0.655,-0.952 8.155,-12.025 -1.339,-1.31 z" /><path
             style="fill:#f4f4f4"
             inkscape:connector-curvature="0"
             id="path21"
             d="m 146.354,104.833 c -27.67,0 -50.123,22.453 -50.123,50.124 l 0,42.117 c 0,27.671 22.453,50.123 50.123,50.123 l 42.117,0 c 27.671,0 50.124,-22.452 50.124,-50.123 l 0,-42.117 c 0,-27.67 -22.452,-50.124 -50.124,-50.124 l -42.117,0 z m 0,1.906 42.117,0 c 26.644,0 48.219,21.577 48.219,48.218 l 0,42.117 c 0,26.644 -21.577,48.218 -48.219,48.218 l -42.117,0 c -26.642,0 -48.218,-21.574 -48.218,-48.218 l 0,-42.117 c 0,-26.642 21.577,-48.218 48.218,-48.218 z" /><path
             style="fill:#f4f4f4"
             inkscape:connector-curvature="0"
             id="polygon23"
             d="m 69.499,75.694 0,0.952 0,202.961 0,0.952 0.953,0 196.122,0 0.952,0 0,-0.952 0,-26.401 289.521,0 0.952,0 0,-0.952 0,-113.458 0,-0.953 -0.952,0 -289.522,0 0,-61.196 0,-0.952 -0.952,0 -196.122,0 -0.952,-10e-4 0,0 z m 1.904,1.905 194.217,0 0,61.196 0,0.953 0.953,0 0.714,0 288.807,0 0,111.552 -289.226,0 -0.297,0 -0.953,0 0,0.953 0,26.4 -194.217,0 0,-201.055 0.002,0.001 z" /><path
             style="fill:#f4f4f4"
             inkscape:connector-curvature="0"
             id="circle25"
             d="m 400.692,169.126 c -19.762,0 -35.777,16.046 -35.777,35.807 0,19.761 16.018,35.807 35.777,35.807 19.759,0 35.807,-16.046 35.807,-35.807 0,-19.761 -16.047,-35.807 -35.807,-35.807 l 0,0 z m 0,1.905 c 18.73,0 33.901,15.17 33.901,33.902 0,18.732 -15.171,33.902 -33.901,33.902 -18.731,0 -33.872,-15.171 -33.872,-33.902 0,-18.731 15.141,-33.902 33.872,-33.902 l 0,0 z" /><path
             style="fill:#f4f4f4"
             inkscape:connector-curvature="0"
             id="circle27"
             d="m 400.692,177.669 c -15.039,0 -27.234,12.227 -27.234,27.265 0,15.038 12.195,27.234 27.234,27.234 15.036,0 27.264,-12.196 27.264,-27.234 0,-15.038 -12.227,-27.265 -27.264,-27.265 z m 0,1.905 c 14.008,0 25.359,11.351 25.359,25.359 0,14.008 -11.352,25.33 -25.359,25.33 -14.01,0 -25.33,-11.321 -25.33,-25.33 0,-14.009 11.321,-25.359 25.33,-25.359 z" /><path
             style="fill:#f4f4f4"
             inkscape:connector-curvature="0"
             id="circle29"
             d="m 489.919,169.126 c -19.762,0 -35.807,16.046 -35.807,35.807 0,19.761 16.045,35.807 35.807,35.807 19.76,0 35.807,-16.046 35.807,-35.807 0,-19.761 -16.047,-35.807 -35.807,-35.807 l 0,0 z m 0,1.905 c 18.73,0 33.901,15.17 33.901,33.902 0,18.732 -15.171,33.902 -33.901,33.902 -18.731,0 -33.902,-15.171 -33.902,-33.902 0,-18.731 15.171,-33.902 33.902,-33.902 l 0,0 z" /><path
             style="fill:#f4f4f4"
             inkscape:connector-curvature="0"
             id="circle31"
             d="m 489.919,177.669 c -15.039,0 -27.234,12.227 -27.234,27.265 0,15.038 12.195,27.234 27.234,27.234 15.036,0 27.234,-12.196 27.234,-27.234 0,-15.038 -12.196,-27.265 -27.234,-27.265 z m 0,1.905 c 14.008,0 25.329,11.351 25.329,25.359 0,14.008 -11.321,25.33 -25.329,25.33 -14.01,0 -25.33,-11.321 -25.33,-25.33 0,-14.009 11.32,-25.359 25.33,-25.359 z" /><path
             style="fill:#f4f4f4"
             inkscape:connector-curvature="0"
             id="path33"
             d="m 39.406,68.432 c -4.766,0 -8.662,3.896 -8.662,8.662 l 0,203.084 c 0,4.766 3.897,8.661 8.662,8.661 l 518.646,0 c 4.429,0 7.956,-3.411 8.453,-7.709 l 0.179,0 0,-0.952 0,-203.085 c 0,-4.762 -3.868,-8.658 -8.64,-8.658 l -518.645,0 0.007,-0.003 z m 0,1.904 518.646,0 c 3.737,0 6.727,3.021 6.727,6.757 l 0,202.131 0,0.953 c 0,3.736 -2.989,6.756 -6.727,6.756 l -518.646,0 c -3.732,0.01 -6.753,-3.019 -6.753,-6.753 l 0,-203.083 c 0,-3.736 3.02,-6.756 6.756,-6.756 l -0.003,-0.005 z" /><path
             style="fill:#f4f4f4"
             inkscape:connector-curvature="0"
             id="rect35"
             d="m 359.021,163.559 0,0.953 0,81.465 0,0.952 0.953,0 81.465,0 0.953,0 0,-0.952 0,-81.465 0,-0.953 -0.953,0 -81.465,0 -0.953,0 z m 1.906,1.905 79.561,0 0,79.56 -79.561,0 0,-79.56 z" /><path
             style="fill:#f4f4f4"
             inkscape:connector-curvature="0"
             id="rect37"
             d="m 448.248,163.559 0,0.953 0,81.465 0,0.952 0.953,0 81.436,0 0.952,0 0,-0.952 0,-81.465 0,-0.953 -0.952,0 -81.436,0 -0.953,0 z m 1.905,1.905 79.531,0 0,79.56 -79.531,0 0,-79.56 z" /><path
             style="fill:#f4f4f4"
             inkscape:connector-curvature="0"
             id="polyline39"
             d="m 83.934,94.177 0,2.292 0,159.061 0,2.322 1.607,-1.638 25.33,-25.299 -1.369,-1.369 -23.663,23.692 0,-154.45 23.663,23.658 1.369,-1.34 -25.33,-25.299 -1.607,-1.637 0,0.007 z" /><path
             style="fill:#f4f4f4"
             inkscape:connector-curvature="0"
             id="polyline41"
             d="m 222.305,232.551 -1.37,1.339 23.693,23.692 -154.452,0 23.574,-23.573 -1.369,-1.339 -25.181,25.182 -1.637,1.637 2.292,0 159.062,0 2.292,0 -1.607,-1.637 -25.299,-25.3 0.002,-0.001 z" /><path
             style="fill:#f4f4f4"
             inkscape:connector-curvature="0"
             id="polyline43"
             d="m 250.878,94.177 -1.637,1.637 -25.211,25.182 1.369,1.369 23.574,-23.603 0,154.509 -23.633,-23.663 -1.339,1.34 25.24,25.27 1.637,1.638 0,-2.322 0,-159.063 0,-2.292 0,-0.002 z" /><path
             style="fill:#f4f4f4"
             inkscape:connector-curvature="0"
             id="polyline45"
             d="m 85.57,92.54 1.638,1.608 25.21,25.24 1.339,-1.34 -23.572,-23.602 154.452,0 -23.669,23.662 1.333,1.339 25.307,-25.3 1.607,-1.607 -2.292,0 -159.062,0 -2.291,0 0,0 z" /><path
             style="fill:#f4f4f4"
             inkscape:connector-curvature="0"
             id="line47"
             d="m 58.961,69.533 0,218.057 1.905,0 0,-218.057 -1.905,0 z" /><path
             style="fill:#f4f4f4"
             inkscape:connector-curvature="0"
             id="rect49"
             d="m 359.021,145.819 0,0.953 0,13.244 0,0.953 0.953,0 81.465,0 0.953,0 0,-0.953 0,-13.244 0,-0.953 -0.953,0 -81.465,0 -0.953,0 z m 1.906,1.905 79.561,0 0,11.339 -79.561,0 0,-11.339 z" /><path
             style="fill:#f4f4f4"
             inkscape:connector-curvature="0"
             id="rect51"
             d="m 448.248,145.819 0,0.953 0,13.244 0,0.953 0.953,0 81.436,0 0.952,0 0,-0.953 0,-13.244 0,-0.953 -0.952,0 -81.436,0 -0.953,0 z m 1.905,1.905 79.531,0 0,11.339 -79.531,0 0,-11.339 z" /><path
             style="fill:#f4f4f4"
             inkscape:connector-curvature="0"
             id="path53"
             d="m 276.804,73.134 c -0.987,0 -1.815,0.828 -1.815,1.816 l 0,53.01 c 0,0.988 0.829,1.815 1.815,1.815 l 282.855,0 c 0.985,0 1.785,-0.831 1.785,-1.815 l 0,-50.033 c 0,-2.641 -2.152,-4.792 -4.792,-4.792 l -279.844,0 -0.004,0 z m 0.09,1.906 279.756,0 c 1.613,0 2.888,1.275 2.888,2.887 l 0,49.945 -282.643,0 0,-52.832 -10e-4,0 z" /><path
             style="fill:#f4f4f4"
             inkscape:connector-curvature="0"
             id="path55"
             d="m 276.804,260.41 c -0.987,0 -1.815,0.829 -1.815,1.815 l 0,20.091 c 0,0.987 0.829,1.816 1.815,1.816 l 279.844,0 c 2.64,0 4.792,-2.183 4.792,-4.822 l 0,-17.085 c 0,-0.985 -0.8,-1.815 -1.785,-1.815 l -282.855,0 0.004,0 z m 0.09,1.905 282.645,0 0,16.995 c 0,1.611 -1.276,2.917 -2.888,2.917 l -279.758,0 0.001,-19.912 0,0 z" /><path
             style="fill:#f4f4f4"
             inkscape:connector-curvature="0"
             id="line57"
             d="m 274.461,129.271 -6.28,6.28 1.369,1.339 6.251,-6.25 -1.34,-1.369 z" /><path
             style="fill:#f4f4f4"
             inkscape:connector-curvature="0"
             id="line59"
             d="m 269.546,253.866 -1.369,1.34 6.281,6.28 1.339,-1.369 -6.251,-6.251 z" /></g></g></g></g><g
     inkscape:groupmode="layer"
     id="layer4"
     inkscape:label="Controller"><g
       id="g8101"
       transform="matrix(0.57507121,-0.42025129,-0.41284018,0.87676709,203.03816,144.29831)"><path
         id="path8051"
         d="m 214.511,219.38 0.833,-1.75 c 19.309,19.472 44.469,31.342 73.396,33.873 l 0,0 -0.174,1.992 c -29.413,-2.574 -55.822,-15.646 -75.446,-35.439 l 1.391,1.324 z"
         inkscape:connector-curvature="0"
         style="fill:#f4f4f4" /><path
         id="path8053"
         d="m 310.822,251.413 c 40.524,-3.889 74.924,-27.606 93.354,-61.783 l 0,0 0.002,0 1.972,0.506 c -18.737,34.746 -53.925,59.312 -95.136,63.27 l 0,0 -0.192,-1.993 0,0 z"
         inkscape:connector-curvature="0"
         style="fill:#f4f4f4" /><path
         id="path8055"
         d="m 415.845,158.213 c 1.931,-8.52 2.771,-16.479 2.771,-25.584 l 0,0 c 0,-0.912 0.085,-0.842 0.063,-1.75 l 0,0 0.003,0 1.901,-1.023 c 0.021,0.92 0.031,1.846 0.031,2.772 l 0,0 c 0.002,9.254 -1.035,18.268 -2.998,26.931 l 0,0 -1.771,-1.346 0,0 z"
         inkscape:connector-curvature="0"
         style="fill:#f4f4f4" /><path
         id="path8057"
         d="m 299.283,13.296 c -47.264,0 -88.025,27.066 -107.355,66.915 l 0,0 0,0.002 -1.879,-0.467 C 209.7,39.23 251.23,11.296 299.283,11.296 l 0,0 c 57.373,0.002 105.446,39.819 118.086,93.337 l 0,0 -2.358,-0.837 C 402.58,51.169 355.709,13.293 299.283,13.296 l 0,0 z"
         inkscape:connector-curvature="0"
         style="fill:#f4f4f4" /><path
         id="path8059"
         d="m 180.491,157.456 1.937,0.09 c 1.335,6.422 2.511,10.918 4.833,16.917 l 0,0 -1.168,1.961 c -2.362,-6.099 -4.244,-12.438 -5.602,-18.968 l 0,0 z"
         inkscape:connector-curvature="0"
         style="fill:#f4f4f4" /><path
         id="path8061"
         d="m 241.282,126.963 c 0,-21.668 0,-99.667 0,-99.667 l 0,0 2,0 c 0,0 0,19.5 0,41.709 l 0,0 c 0,22.206 0,47.125 0,57.958 l 0,0 c 0,15.468 6.267,29.46 16.402,39.598 l 0,0 c 10.138,10.135 24.132,16.4 39.598,16.4 l 0,0 c 15.466,0 29.46,-6.267 39.598,-16.4 l 0,0 c 10.136,-10.138 16.402,-24.132 16.402,-39.598 l 0,0 c 0,-23.167 0,-100.166 0,-100.166 l 0,0 2.001,0 c -0.002,0.013 -0.002,4.811 0,12.392 l 0,0 c -0.002,7.581 -0.002,17.929 0,29.002 l 0,0 c -0.002,22.146 -0.002,47.187 0,58.771 l 0,0 c -0.002,32.034 -25.97,58 -58.001,58 l 0,0 c -32.034,0 -58,-25.964 -58,-57.999 l 0,0 z"
         inkscape:connector-curvature="0"
         style="fill:#f4f4f4" /><path
         id="path8063"
         d="m 267.533,140.504 c -2.763,0 -5.001,-2.238 -5.001,-5.001 l 0,0 0,-56.665 c 0,-2.763 2.238,-5.001 5.001,-5.001 l 0,0 63.499,0 c 2.763,0 4.999,2.238 5.001,5.001 l 0,0 0,56.665 -0.002,0 c 0,2.763 -2.236,5.001 -4.999,5.001 l 0,0 -63.499,0 0,0 z m -3,-61.666 0,56.665 c 0.002,1.656 1.344,2.999 3,3 l 0,0 63.499,0 c 1.656,-0.002 2.996,-1.344 3.001,-3 l 0,0 -0.002,0 0.002,-56.665 c -0.005,-1.658 -1.345,-2.998 -3.001,-3.002 l 0,0 -63.499,0 c -1.657,0.004 -2.998,1.345 -3,3.002 l 0,0 z"
         inkscape:connector-curvature="0"
         style="fill:#f4f4f4" /><path
         id="path8065"
         d="m 264.973,144.439 c -2.33,-0.82 -3.748,-1.38 -4.555,-2.029 l 0,0 c -1.626,-1.626 -2.636,-3.882 -2.636,-6.363 l 0,0 0,-58.293 c 0,-2.483 1.01,-4.739 2.694,-6.417 l 0,0 c 0.75,-0.595 2.167,-1.157 4.498,-1.977 l 0,0 c 2.298,-0.787 5.359,-1.694 8.913,-2.554 l 0,0 c 7.109,-1.721 16.175,-3.26 24.959,-3.26 l 0,0 c 11.596,0.004 25.542,2.857 32.835,4.884 l 0,0 c 2.455,0.692 4.07,1.225 4.903,1.71 l 0,0 c 2.521,1.593 4.195,4.409 4.198,7.613 l 0,0 0,58.292 c -0.003,3.202 -1.679,6.021 -4.215,7.622 l 0,0 c -0.816,0.477 -2.433,1.008 -4.888,1.702 l 0,0 c -2.432,0.676 -5.603,1.442 -9.179,2.165 l 0,0 c -7.155,1.444 -15.927,2.717 -23.658,2.719 l 0,0 c -13.172,-0.003 -26.985,-3.457 -33.869,-5.814 l 0,0 z m 0.649,-73.186 c -2.192,0.731 -3.75,1.475 -3.789,1.551 l 0,0 c -1.269,1.271 -2.049,3.014 -2.051,4.95 l 0,0 0,58.292 c 0.002,1.936 0.783,3.677 1.994,4.895 l 0,0 c 0.097,0.13 1.655,0.876 3.847,1.607 l 0,0 c 2.227,0.763 5.237,1.655 8.735,2.502 l 0,0 c 6.993,1.692 15.937,3.205 24.488,3.205 l 0,0 c 11.276,0.004 25.169,-2.824 32.3,-4.812 l 0,0 c 2.354,-0.645 4.056,-1.267 4.369,-1.476 l 0,0 c 1.965,-1.244 3.268,-3.427 3.268,-5.921 l 0,0 0,-58.292 c 0,-2.496 -1.303,-4.68 -3.25,-5.913 l 0,0 C 335.202,71.622 333.5,71 331.146,70.356 l 0,0 c -2.377,-0.661 -5.507,-1.417 -9.038,-2.132 l 0,0 c -7.063,-1.428 -15.745,-2.68 -23.261,-2.678 l 0,0 c -0.012,0 -0.023,0 -0.035,0 l 0,0 c -12.817,0 -26.511,3.412 -33.19,5.707 l 0,0 z"
         inkscape:connector-curvature="0"
         style="fill:#f4f4f4" /><path
         id="path8067"
         d="m 394.843,119.004 c 0.002,-7.387 5.989,-13.375 13.377,-13.375 l 0,0 c 7.387,0 13.373,5.988 13.375,13.375 l 0,0 c -0.002,7.386 -5.988,13.374 -13.375,13.375 l 0,0 c -7.388,-0.001 -13.375,-5.988 -13.377,-13.375 l 0,0 z m 2.002,0 c 0.012,6.282 5.094,11.362 11.375,11.375 l 0,0 c 6.281,-0.012 11.361,-5.092 11.374,-11.375 l 0,0 c -0.013,-6.282 -5.093,-11.364 -11.374,-11.374 l 0,0 c -6.283,0.012 -11.366,5.094 -11.375,11.374 l 0,0 z"
         inkscape:connector-curvature="0"
         style="fill:#f4f4f4" /><path
         id="path8069"
         d="m 394.843,173.255 c 0.002,-7.388 5.989,-13.375 13.377,-13.375 l 0,0 c 7.387,0 13.373,5.987 13.375,13.375 l 0,0 c -0.002,7.385 -5.988,13.373 -13.375,13.375 l 0,0 c -7.388,-0.002 -13.375,-5.99 -13.377,-13.375 l 0,0 z m 2.002,0 c 0.012,6.279 5.094,11.363 11.375,11.373 l 0,0 c 6.279,-0.01 11.361,-5.094 11.374,-11.373 l 0,0 c -0.013,-6.282 -5.093,-11.364 -11.374,-11.375 l 0,0 c -6.283,0.011 -11.366,5.094 -11.375,11.375 l 0,0 z"
         inkscape:connector-curvature="0"
         style="fill:#f4f4f4" /><path
         id="path8071"
         d="m 366.343,145.505 c 0.002,-7.389 5.99,-13.375 13.377,-13.377 l 0,0 c 7.387,0.002 13.373,5.99 13.375,13.377 l 0,0 c -0.002,7.385 -5.988,13.373 -13.375,13.375 l 0,0 c -7.389,-0.002 -13.375,-5.989 -13.377,-13.375 l 0,0 z m 2.002,0 c 0.012,6.281 5.094,11.362 11.375,11.373 l 0,0 c 6.279,-0.01 11.362,-5.092 11.373,-11.373 l 0,0 c -0.011,-6.283 -5.092,-11.365 -11.373,-11.375 l 0,0 c -6.283,0.011 -11.366,5.093 -11.375,11.375 l 0,0 z"
         inkscape:connector-curvature="0"
         style="fill:#f4f4f4" /><path
         id="path8073"
         d="m 421.343,145.504 c 0,-7.388 5.99,-13.374 13.376,-13.376 l 0,0 c 7.388,0.002 13.374,5.988 13.376,13.376 l 0,0 c -0.002,7.386 -5.988,13.374 -13.376,13.376 l 0,0 c -7.388,-0.002 -13.376,-5.989 -13.376,-13.376 l 0,0 z m 2.001,0 c 0.011,6.281 5.095,11.363 11.375,11.375 l 0,0 c 6.281,-0.013 11.363,-5.094 11.373,-11.375 l 0,0 c -0.01,-6.283 -5.092,-11.365 -11.373,-11.375 l 0,0 c -6.282,0.011 -11.365,5.092 -11.375,11.375 l 0,0 z"
         inkscape:connector-curvature="0"
         style="fill:#f4f4f4" /><g
         id="g8075"><path
           id="path8077"
           d="m 192.721,338.768 c -2.901,-0.075 -5.144,-2.524 -6.707,-4.33 l 0,0 c -13.808,-16.521 -25.661,-42.856 -30.04,-61.243 l 0,0 c -3.166,-13.334 -16.86,-66.77 -16.86,-132.398 l 0,0 c 0,-18.782 3.224,-34.483 6.684,-45.828 l 0,0 c 3.439,-11.247 7.036,-18.132 8.122,-19.737 l 0,0 c 0.627,-1.135 1.617,-2.036 2.818,-2.55 l 0,0 c 0.727,-0.348 2.667,-1.014 5.65,-1.958 l 0,0 c 3.015,-0.95 6.999,-2.136 11.411,-3.34 l 0,0 c 8.83,-2.411 19.353,-4.901 27.293,-5.748 l 0,0 0.002,0 0.209,1.989 c -11.597,1.229 -29.36,6.18 -38.314,9.006 l 0,0 c -2.96,0.93 -5.058,1.679 -5.383,1.854 l 0,0 -0.04,0.019 -0.025,0.011 c -0.806,0.34 -1.473,0.95 -1.886,1.716 l 0,0 -0.027,0.05 -0.034,0.048 c -0.797,1.123 -4.489,8.062 -7.882,19.223 l 0,0 c -3.411,11.186 -6.596,26.693 -6.596,45.245 l 0,0 c 0,65.371 13.638,118.603 16.806,131.935 l 0,0 c 4.271,18.033 16.104,44.277 29.626,60.423 l 0,0 c 1.408,1.741 3.613,3.69 5.173,3.614 l 0,0 c 0.657,-0.012 1.278,-0.23 2.035,-1.049 l 0,0 c 0.743,-0.818 1.54,-2.27 2.236,-4.551 l 0,0 c 3.147,-10.256 8.152,-32.625 14.01,-49.861 l 0,0 c 5.886,-17.318 21.102,-43.045 23.045,-47.11 l 0,0 1.802,0.866 c -2.056,4.268 -17.175,29.872 -22.955,46.889 l 0,0 c -5.809,17.098 -10.802,39.396 -13.991,49.805 l 0,0 c -0.753,2.451 -1.63,4.154 -2.664,5.305 l 0,0 c -1.013,1.139 -2.262,1.707 -3.479,1.707 l 0,0 c -0.012,-0.002 -0.026,-0.002 -0.039,-0.002 l 0,0 z"
           inkscape:connector-curvature="0"
           style="fill:#f4f4f4" /><path
           id="path8079"
           d="m 402.321,337.061 c -1.036,-1.149 -1.911,-2.854 -2.664,-5.306 l 0,0 c -3.186,-10.408 -8.178,-32.707 -13.989,-49.805 l 0,0 c -5.777,-17.016 -20.897,-42.619 -22.955,-46.888 l 0,0 1.803,-0.866 c 1.942,4.064 17.158,29.792 23.046,47.11 l 0,0 c 5.856,17.237 10.864,39.604 14.01,49.864 l 0,0 c 0.695,2.279 1.49,3.729 2.233,4.547 l 0,0 c 0.755,0.818 1.378,1.039 2.036,1.05 l 0,0 c 1.563,0.075 3.768,-1.873 5.174,-3.614 l 0,0 c 13.525,-16.146 25.354,-42.39 29.627,-60.423 l 0,0 c 3.168,-13.332 16.807,-66.565 16.807,-131.935 l 0,0 c 0.002,-18.552 -3.186,-34.059 -6.596,-45.245 l 0,0 c -3.394,-11.161 -7.084,-18.1 -7.883,-19.223 l 0,0 -0.035,-0.05 -0.025,-0.048 c -0.411,-0.766 -1.08,-1.376 -1.948,-1.746 l 0,0 c -0.327,-0.176 -2.424,-0.925 -5.386,-1.854 l 0,0 c -2.987,-0.942 -6.95,-2.121 -11.337,-3.319 l 0,0 c -8.77,-2.396 -19.252,-4.867 -26.979,-5.687 l 0,0 0.212,-1.989 c 11.901,1.271 29.655,6.239 38.706,9.088 l 0,0 c 3.039,0.963 4.999,1.636 5.626,1.949 l 0,0 c 1.212,0.513 2.212,1.418 2.841,2.561 l 0,0 c 1.087,1.606 4.686,8.491 8.121,19.736 l 0,0 c 3.459,11.345 6.685,27.046 6.685,45.828 l 0,0 c 0,65.628 -13.695,119.064 -16.86,132.398 l 0,0 c -4.377,18.387 -16.23,44.723 -30.04,61.243 l 0,0 c -1.563,1.806 -3.806,4.255 -6.707,4.33 l 0,0 c -0.013,0 -0.025,0 -0.04,0 l 0,0 c -1.222,10e-4 -2.47,-0.567 -3.483,-1.706 l 0,0 z"
           inkscape:connector-curvature="0"
           style="fill:#f4f4f4" /></g><path
         id="path8081"
         d="m 299.281,279.962 c -34.572,0 -66.163,5.211 -90.265,13.783 l 0,0 0,0.002 -0.67,-1.887 c 24.378,-8.668 56.161,-13.896 90.935,-13.896 l 0,0 c 34.808,0 66.621,5.24 91.01,13.924 l 0,0 -0.672,1.883 c -24.114,-8.587 -55.732,-13.809 -90.338,-13.809 l 0,0 z"
         inkscape:connector-curvature="0"
         style="fill:#f4f4f4" /><path
         id="path8083"
         d="m 315.614,252.208 0.003,0 1.646,-1.131 c 3.55,5.176 5.942,11.854 6.665,19.272 l 0,0 -1.99,0.192 c -0.689,-7.105 -2.988,-13.475 -6.324,-18.333 l 0,0 z"
         inkscape:connector-curvature="0"
         style="fill:#f4f4f4" /><path
         id="path8085"
         d="m 274.632,270.37 c 0.72,-7.416 3.109,-14.095 6.654,-19.272 l 0,0 1.65,1.128 c -3.331,4.861 -5.626,11.23 -6.313,18.337 l 0,0 0,0.002 -1.991,-0.195 0,0 z"
         inkscape:connector-curvature="0"
         style="fill:#f4f4f4" /><path
         id="path8087"
         d="m 299.197,266.394 c -7.576,-0.014 -13.408,-0.84 -14.466,-1.129 l 0,0 c -1.079,-0.338 -1.862,-1.338 -1.886,-2.523 l 0,0 c 0,-0.01 0,-0.02 0,-0.027 l 0,0 c 0,-0.029 0,-0.029 0,-0.029 l 0,0 c 0,-0.299 0.05,-0.592 0.133,-0.828 l 0,0 c 0.258,-0.807 2.616,-6.659 6.147,-12.854 l 0,0 c 2.296,-4.012 5.376,-8.459 7.044,-10.66 l 0,0 c 0.591,-0.762 0.877,-1.159 1.2,-1.432 l 0,0 c 0.45,-0.408 1.046,-0.668 1.692,-0.695 l 0,0 c 0.066,-0.008 0.112,-0.006 0.14,-0.004 l 0,0 c 10e-4,0 0.002,0 0.003,0 l 0,0 c 0.672,0.008 1.293,0.267 1.773,0.699 l 0,0 c 0.428,0.416 1.655,1.939 3.31,4.154 l 0,0 c 1.624,2.189 3.557,4.953 5.075,7.545 l 0,0 c 1.514,2.587 2.983,5.553 4.104,7.996 l 0,0 c 1.058,2.327 1.771,4.029 1.997,4.82 l 0,0 c 0.16,0.345 0.253,0.73 0.251,1.136 l 0,0 0,0.999 -0.188,0 c -0.369,0.934 -1.244,1.609 -2.291,1.691 l 0,0 0,0 c -0.635,0.049 -6.979,1.141 -14.021,1.141 l 0,0 c -0.003,0 -0.01,0 -0.017,0 l 0,0 z m -14.352,-3.696 c 0,0.311 0.206,0.569 0.464,0.65 l 0,0 c 0.522,0.167 6.553,1.057 13.888,1.044 l 0,0 c 6.915,-0.002 12.973,-1.054 13.876,-1.134 l 0,0 0.083,0.998 -0.075,-0.998 c 0.351,-0.024 0.636,-0.324 0.637,-0.687 l 0,0 c -0.002,-0.015 -0.003,-0.032 -0.002,-0.06 l 0,0 c -0.007,-0.094 -0.032,-0.182 -0.075,-0.264 l 0,0 -0.063,-0.123 -0.029,-0.137 c -0.021,-0.177 -0.807,-2.193 -1.896,-4.551 l 0,0 c -1.101,-2.396 -2.55,-5.322 -4.013,-7.818 l 0,0 c -1.459,-2.492 -3.357,-5.215 -4.955,-7.363 l 0,0 c -1.57,-2.125 -2.955,-3.795 -3.051,-3.875 l 0,0 c -0.117,-0.1 -0.255,-0.162 -0.416,-0.172 l 0,0 -0.044,0 c -0.171,0.002 -0.324,0.063 -0.5,0.211 l 0,0 0,0.002 c 0,0 0.001,0 -0.007,0.008 l 0,0 c -0.009,0.01 -0.023,0.025 -0.041,0.044 l 0,0 c -0.048,0.052 -0.119,0.133 -0.202,0.233 l 0,0 c -0.168,0.203 -0.395,0.49 -0.662,0.842 l 0,0 c -0.534,0.705 -1.233,1.67 -2.009,2.783 l 0,0 c -1.549,2.229 -3.407,5.064 -4.892,7.662 l 0,0 c -3.434,5.994 -5.829,11.961 -5.983,12.482 l 0,0 c -0.019,0.053 -0.029,0.104 -0.034,0.164 l 0,0 0.001,0.059 0,0 z"
         inkscape:connector-curvature="0"
         style="fill:#f4f4f4" /><path
         id="path8089"
         d="m 200.838,222.261 c -4.125,0 -8.065,-0.817 -11.659,-2.301 l 0,0 -0.499,-0.207 -0.102,-0.529 -0.076,-0.391 0.002,-14.795 -14.813,0 -0.879,-0.057 -0.24,-0.574 c -1.494,-3.605 -2.319,-7.563 -2.319,-11.701 l 0,0 c 0,-4.123 0.817,-8.058 2.298,-11.647 l 0,0 0.126,-0.31 0.288,-0.17 0.345,-0.205 15.194,0 0,-15.19 0.188,-0.261 0.331,-0.457 0.263,-0.11 c 3.614,-1.506 7.406,-2.263 11.551,-2.261 l 0,0 c 4.123,0 8.06,0.817 11.65,2.298 l 0,0 0.443,0.182 0.137,0.459 0.104,0.346 0,14.993 15.262,0 0.296,0.312 0.308,0.321 0.072,0.174 c 1.512,3.615 2.313,7.363 2.311,11.527 l 0,0 c 0,4.109 -0.813,8.035 -2.286,11.621 l 0,0 -0.085,0.209 -0.174,0.154 -0.387,0.348 -15.318,-0.002 0,15.063 -0.145,0.238 -0.294,0.488 -0.302,0.125 c -3.611,1.508 -7.423,2.309 -11.577,2.309 l 0,0 c -0.003,0.001 -0.008,0.001 -0.014,0.001 l 0,0 z m 0,-2 c 3.719,0 7.094,-0.672 10.333,-1.955 l 0,0 0,-14.639 c -0.013,-0.437 0.149,-0.981 0.569,-1.306 l 0,0 c 0.412,-0.313 0.803,-0.317 1.03,-0.323 l 0,0 14.727,0 c 1.242,-3.203 1.924,-6.687 1.924,-10.332 l 0,0 c -0.002,-3.748 -0.679,-7.072 -1.984,-10.334 l 0,0 -14.619,0 0,-1 0,-0.556 0,0.556 0,1 c -0.405,0.014 -0.97,-0.142 -1.301,-0.582 l 0,0 c -0.318,-0.429 -0.339,-0.84 -0.345,-1.17 l 0,0 0,-14.599 c -3.206,-1.243 -6.687,-1.925 -10.333,-1.925 l 0,0 c -3.733,0 -7.093,0.641 -10.335,1.924 l 0,0 0,14.585 c -0.006,0.333 -0.021,0.735 -0.333,1.173 l 0,0 c -0.329,0.449 -0.904,0.61 -1.307,0.594 l 0,0 -14.685,0 c -1.242,3.205 -1.924,6.688 -1.924,10.336 l 0,0 c 0,3.646 0.681,7.127 1.925,10.332 l 0,0 14.698,0 c 0.491,-0.022 1.082,0.219 1.357,0.655 l 0,0 c 0.273,0.418 0.263,0.776 0.269,0.956 l 0,0 0,14.684 c 3.204,1.244 6.686,1.926 10.334,1.926 l 0,0 z m 11.98,-40.74 0,-0.146 0,0.146 0,0 z"
         inkscape:connector-curvature="0"
         style="fill:#f4f4f4" /><path
         id="path8091"
         d="m 192.461,191.677 c 0.002,-4.625 3.75,-8.373 8.376,-8.375 l 0,0 c 4.625,0.002 8.374,3.75 8.376,8.375 l 0,0 c -0.002,4.627 -3.75,8.375 -8.376,8.377 l 0,0 c -4.625,-0.002 -8.374,-3.75 -8.376,-8.377 l 0,0 z m 2.002,0 c 0.006,3.521 2.853,6.369 6.375,6.375 l 0,0 c 3.522,-0.006 6.369,-2.854 6.375,-6.375 l 0,0 c -0.006,-3.52 -2.853,-6.367 -6.375,-6.373 l 0,0 c -3.522,0.006 -6.369,2.853 -6.375,6.373 l 0,0 z"
         inkscape:connector-curvature="0"
         style="fill:#f4f4f4" /><path
         id="path8093"
         d="m 143.47,117.691 c 0,-20.332 16.481,-36.813 36.813,-36.813 l 0,0 c 20.332,0 36.812,16.481 36.812,36.813 l 0,0 c 0,20.332 -16.48,36.813 -36.812,36.813 l 0,0 C 159.951,154.503 143.47,138.022 143.47,117.691 l 0,0 z m 12.196,-24.614 c -6.302,6.302 -10.196,15 -10.196,24.615 l 0,0 c 0,9.616 3.894,18.313 10.196,24.618 l 0,0 c 6.303,6.3 15,10.194 24.616,10.194 l 0,0 c 9.616,0 18.313,-3.894 24.615,-10.194 l 0,0 c 6.303,-6.305 10.197,-15.001 10.197,-24.618 l 0,0 c 0,-9.616 -3.894,-18.313 -10.197,-24.615 l 0,0 c -6.303,-6.303 -15,-10.197 -24.615,-10.197 l 0,0 c -9.616,-10e-4 -18.313,3.893 -24.616,10.197 l 0,0 z"
         inkscape:connector-curvature="0"
         style="fill:#f4f4f4" /><path
         id="path8095"
         d="m 154.595,117.691 c 0,-14.188 11.5,-25.686 25.688,-25.688 l 0,0 c 14.186,0.002 25.686,11.5 25.686,25.688 l 0,0 c 0,14.187 -11.5,25.687 -25.686,25.688 l 0,0 c -14.188,-0.001 -25.688,-11.501 -25.688,-25.688 l 0,0 z m 1.999,0 c 0.022,13.082 10.605,23.664 23.689,23.687 l 0,0 c 13.082,-0.022 23.662,-10.604 23.687,-23.687 l 0,0 C 203.945,104.609 193.365,94.027 180.283,94.004 l 0,0 c -13.084,0.024 -23.666,10.606 -23.689,23.687 l 0,0 z"
         inkscape:connector-curvature="0"
         style="fill:#f4f4f4" /></g></g></svg>