<?xml version="1.0" encoding="UTF-8" standalone="no"?>
<!-- Generator: Adobe Illustrator 13.0.0, SVG Export Plug-In . SVG Version: 6.00 Build 14948)  -->

<svg
   xmlns:dc="http://purl.org/dc/elements/1.1/"
   xmlns:cc="http://creativecommons.org/ns#"
   xmlns:rdf="http://www.w3.org/1999/02/22-rdf-syntax-ns#"
   xmlns:svg="http://www.w3.org/2000/svg"
   xmlns="http://www.w3.org/2000/svg"
   xmlns:sodipodi="http://sodipodi.sourceforge.net/DTD/sodipodi-0.dtd"
   xmlns:inkscape="http://www.inkscape.org/namespaces/inkscape"
   version="1.1"
   id="Layer_2"
   x="0px"
   y="0px"
   width="550"
   height="550"
   viewBox="0 0 549.99995 549.99999"
   enable-background="new 0 0 598.189 350.26"
   xml:space="preserve"
   inkscape:version="0.91 r13725"
   sodipodi:docname="controller_gg.svg"><metadata
     id="metadata3083"><rdf:RDF><cc:Work
         rdf:about=""><dc:format>image/svg+xml</dc:format><dc:type
           rdf:resource="http://purl.org/dc/dcmitype/StillImage" /><dc:title></dc:title></cc:Work></rdf:RDF></metadata><defs
     id="defs3081" /><sodipodi:namedview
     pagecolor="#ffffff"
     bordercolor="#666666"
     borderopacity="1"
     objecttolerance="10"
     gridtolerance="10"
     guidetolerance="10"
     inkscape:pageopacity="0"
     inkscape:pageshadow="2"
     inkscape:window-width="1920"
     inkscape:window-height="1001"
     id="namedview3079"
     showgrid="false"
     inkscape:zoom="1.0799262"
     inkscape:cx="248.77122"
     inkscape:cy="298.43665"
     inkscape:window-x="-9"
     inkscape:window-y="-9"
     inkscape:window-maximized="1"
     inkscape:current-layer="layer4"
     showguides="true"
     inkscape:guide-bbox="true" /><g
     inkscape:groupmode="layer"
     id="layer2"
     inkscape:label="Screen_Rect"
     style="display:none"
     transform="translate(0,199.73999)"
     sodipodi:insensitive="true"><path
       style="fill:#0000ff;stroke:#000000;stroke-width:1px;stroke-linecap:butt;stroke-linejoin:miter;stroke-opacity:1"
       d="M 5.0135033,547.22203 136.4109,114.39023 653.54628,-189.09358 406.482,260.92121 Z"
       id="path3021"
       inkscape:connector-curvature="0"
       transform="translate(-2e-5,-199.73999)"
       sodipodi:nodetypes="ccccc" /><rect
       style="opacity:0.60100002;fill:#d8201f;fill-opacity:1;stroke:#ff8080;stroke-width:2.45114732;stroke-linecap:round;stroke-linejoin:round;stroke-miterlimit:4;stroke-dasharray:none;stroke-opacity:1"
       id="rect4230"
       width="444.2457"
       height="9.9567661"
       x="145.95099"
       y="-211.30678" /></g><g
     inkscape:groupmode="layer"
     id="layer1"
     inkscape:label="Controller_Vorlage"
     style="display:none"
     sodipodi:insensitive="true"><g
       id="g4929"
       transform="translate(-0.929149,0.5695451)"><g
         transform="translate(0,199.73999)"
         style="display:none"
         inkscape:label="Layer2"
         id="layer2-9"><path
           sodipodi:nodetypes="ccccc"
           transform="translate(-2e-5,-199.73999)"
           inkscape:connector-curvature="0"
           id="path3021-0"
           d="M 5.0135033,547.22203 136.4109,114.39023 653.54628,-189.09358 406.482,260.92121 Z"
           style="fill:#ffffff;stroke:#000000;stroke-width:1px;stroke-linecap:butt;stroke-linejoin:miter;stroke-opacity:1" /></g><g
         inkscape:label="Layer"
         id="layer1-2"><g
           transform="matrix(0.55322035,-0.3970343,-0.34863416,0.85569517,173.63773,166.52161)"
           id="g3100"><path
             style="fill:#f4f4f4"
             inkscape:connector-curvature="0"
             id="path3"
             d="m 148.05,114.447 c -23.656,0 -42.861,19.204 -42.861,42.861 l 0,37.414 c 0,23.658 19.205,42.86 42.861,42.86 l 38.694,0 c 23.656,0 42.861,-19.202 42.861,-42.86 l 0,-37.414 c 0,-23.657 -19.205,-42.861 -42.861,-42.861 l -38.694,0 z m 0,1.905 38.694,0 c 22.627,0 40.956,18.328 40.956,40.956 l 0,37.414 c 0,22.629 -18.329,40.956 -40.956,40.956 l -38.694,0 c -22.628,0 -40.956,-18.327 -40.956,-40.956 l 0,-37.414 c 0,-22.629 18.328,-40.956 40.956,-40.956 z" /><path
             style="fill:#f4f4f4"
             inkscape:connector-curvature="0"
             id="path5"
             d="m 167.395,123.168 c -3.23,0 -5.863,2.633 -5.863,5.864 l 0,13.037 c 0,3.23 2.632,5.863 5.863,5.863 3.23,0 5.863,-2.633 5.863,-5.863 l 0,-13.037 c 0,-3.23 -2.633,-5.864 -5.863,-5.864 z m 0,1.906 c 2.201,0 3.958,1.758 3.958,3.958 l 0,13.037 c 0,2.2 -1.758,3.958 -3.958,3.958 -2.202,0 -3.958,-1.758 -3.958,-3.958 l 0,-13.037 c -0.001,-2.2 1.757,-3.958 3.958,-3.958 z" /><path
             style="fill:#f4f4f4"
             inkscape:connector-curvature="0"
             id="path7"
             d="m 120.425,170.135 c -3.23,0 -5.864,2.633 -5.864,5.864 0,3.231 2.632,5.894 5.864,5.894 l 13.037,0 c 3.229,0 5.864,-2.662 5.864,-5.894 0,-3.229 -2.633,-5.864 -5.864,-5.864 l -13.037,0 z m 0,1.905 13.037,0 c 2.201,0 3.959,1.759 3.959,3.959 0,2.201 -1.759,3.988 -3.959,3.988 l -13.037,0 c -2.198,-0.01 -3.955,-1.791 -3.955,-3.99 0,-2.201 1.758,-3.959 3.958,-3.959 l -0.003,0.002 z" /><path
             style="fill:#f4f4f4"
             inkscape:connector-curvature="0"
             id="path9"
             d="m 167.395,204.071 c -3.23,0 -5.863,2.663 -5.863,5.894 l 0,13.038 c 0,3.229 2.632,5.863 5.863,5.863 3.23,0 5.863,-2.633 5.863,-5.863 l 0,-13.038 c 0,-3.23 -2.633,-5.894 -5.863,-5.894 z m 0,1.906 c 2.201,0 3.958,1.789 3.958,3.988 l 0,13.038 c 0,2.2 -1.757,3.958 -3.958,3.958 -2.202,0 -3.958,-1.759 -3.958,-3.958 l 0,-13.038 c -0.001,-2.2 1.757,-3.988 3.958,-3.988 z" /><path
             style="fill:#f4f4f4"
             inkscape:connector-curvature="0"
             id="path11"
             d="m 201.321,170.135 c -3.229,0 -5.863,2.633 -5.863,5.864 0,3.231 2.633,5.894 5.863,5.894 l 13.067,0 c 3.229,0 5.863,-2.662 5.863,-5.894 0,-3.229 -2.633,-5.864 -5.863,-5.864 l -13.067,0 z m 0,1.905 13.067,0 c 2.2,0 3.958,1.76 3.958,3.959 0,2.201 -1.758,3.988 -3.958,3.988 l -13.067,0 c -2.2,0 -3.958,-1.788 -3.958,-3.988 0,-2.2 1.759,-3.959 3.958,-3.959 z" /><path
             style="fill:#f4f4f4"
             inkscape:connector-curvature="0"
             id="polygon13"
             d="m 133.878,141.176 -1.31,1.31 8.155,12.025 0.655,0.952 0.804,-0.803 3.869,-3.87 0.804,-0.804 -0.953,-0.655 -12.024,-8.155 z" /><path
             style="fill:#f4f4f4"
             inkscape:connector-curvature="0"
             id="polygon15"
             d="m 141.383,196.566 -0.654,0.952 -8.156,12.024 1.31,1.31 12.025,-8.155 0.953,-0.654 -0.804,-0.804 -3.87,-3.869 -0.804,-0.804 z" /><path
             style="fill:#f4f4f4"
             inkscape:connector-curvature="0"
             id="polygon17"
             d="m 193.435,196.566 -0.804,0.804 -3.869,3.869 -0.833,0.804 0.953,0.654 12.025,8.155 1.339,-1.31 -8.156,-12.024 -0.655,-0.952 0,0 z" /><path
             style="fill:#f4f4f4"
             inkscape:connector-curvature="0"
             id="polygon19"
             d="m 200.912,141.176 -12.025,8.155 -0.953,0.655 0.833,0.804 3.87,3.87 0.804,0.803 0.655,-0.952 8.155,-12.025 -1.339,-1.31 z" /><path
             style="fill:#f4f4f4"
             inkscape:connector-curvature="0"
             id="path21"
             d="m 146.354,104.833 c -27.67,0 -50.123,22.453 -50.123,50.124 l 0,42.117 c 0,27.671 22.453,50.123 50.123,50.123 l 42.117,0 c 27.671,0 50.124,-22.452 50.124,-50.123 l 0,-42.117 c 0,-27.67 -22.452,-50.124 -50.124,-50.124 l -42.117,0 z m 0,1.906 42.117,0 c 26.644,0 48.219,21.577 48.219,48.218 l 0,42.117 c 0,26.644 -21.577,48.218 -48.219,48.218 l -42.117,0 c -26.642,0 -48.218,-21.574 -48.218,-48.218 l 0,-42.117 c 0,-26.642 21.577,-48.218 48.218,-48.218 z" /><path
             style="fill:#f4f4f4"
             inkscape:connector-curvature="0"
             id="polygon23"
             d="m 69.499,75.694 0,0.952 0,202.961 0,0.952 0.953,0 196.122,0 0.952,0 0,-0.952 0,-26.401 289.521,0 0.952,0 0,-0.952 0,-113.458 0,-0.953 -0.952,0 -289.522,0 0,-61.196 0,-0.952 -0.952,0 -196.122,0 -0.952,-10e-4 0,0 z m 1.904,1.905 194.217,0 0,61.196 0,0.953 0.953,0 0.714,0 288.807,0 0,111.552 -289.226,0 -0.297,0 -0.953,0 0,0.953 0,26.4 -194.217,0 0,-201.055 0.002,0.001 z" /><path
             style="fill:#f4f4f4"
             inkscape:connector-curvature="0"
             id="circle25"
             d="m 400.692,169.126 c -19.762,0 -35.777,16.046 -35.777,35.807 0,19.761 16.018,35.807 35.777,35.807 19.759,0 35.807,-16.046 35.807,-35.807 0,-19.761 -16.047,-35.807 -35.807,-35.807 l 0,0 z m 0,1.905 c 18.73,0 33.901,15.17 33.901,33.902 0,18.732 -15.171,33.902 -33.901,33.902 -18.731,0 -33.872,-15.171 -33.872,-33.902 0,-18.731 15.141,-33.902 33.872,-33.902 l 0,0 z" /><path
             style="fill:#f4f4f4"
             inkscape:connector-curvature="0"
             id="circle27"
             d="m 400.692,177.669 c -15.039,0 -27.234,12.227 -27.234,27.265 0,15.038 12.195,27.234 27.234,27.234 15.036,0 27.264,-12.196 27.264,-27.234 0,-15.038 -12.227,-27.265 -27.264,-27.265 z m 0,1.905 c 14.008,0 25.359,11.351 25.359,25.359 0,14.008 -11.352,25.33 -25.359,25.33 -14.01,0 -25.33,-11.321 -25.33,-25.33 0,-14.009 11.321,-25.359 25.33,-25.359 z" /><path
             style="fill:#f4f4f4"
             inkscape:connector-curvature="0"
             id="circle29"
             d="m 489.919,169.126 c -19.762,0 -35.807,16.046 -35.807,35.807 0,19.761 16.045,35.807 35.807,35.807 19.76,0 35.807,-16.046 35.807,-35.807 0,-19.761 -16.047,-35.807 -35.807,-35.807 l 0,0 z m 0,1.905 c 18.73,0 33.901,15.17 33.901,33.902 0,18.732 -15.171,33.902 -33.901,33.902 -18.731,0 -33.902,-15.171 -33.902,-33.902 0,-18.731 15.171,-33.902 33.902,-33.902 l 0,0 z" /><path
             style="fill:#f4f4f4"
             inkscape:connector-curvature="0"
             id="circle31"
             d="m 489.919,177.669 c -15.039,0 -27.234,12.227 -27.234,27.265 0,15.038 12.195,27.234 27.234,27.234 15.036,0 27.234,-12.196 27.234,-27.234 0,-15.038 -12.196,-27.265 -27.234,-27.265 z m 0,1.905 c 14.008,0 25.329,11.351 25.329,25.359 0,14.008 -11.321,25.33 -25.329,25.33 -14.01,0 -25.33,-11.321 -25.33,-25.33 0,-14.009 11.32,-25.359 25.33,-25.359 z" /><path
             style="fill:#f4f4f4"
             inkscape:connector-curvature="0"
             id="path33"
             d="m 39.406,68.432 c -4.766,0 -8.662,3.896 -8.662,8.662 l 0,203.084 c 0,4.766 3.897,8.661 8.662,8.661 l 518.646,0 c 4.429,0 7.956,-3.411 8.453,-7.709 l 0.179,0 0,-0.952 0,-203.085 c 0,-4.762 -3.868,-8.658 -8.64,-8.658 l -518.645,0 0.007,-0.003 z m 0,1.904 518.646,0 c 3.737,0 6.727,3.021 6.727,6.757 l 0,202.131 0,0.953 c 0,3.736 -2.989,6.756 -6.727,6.756 l -518.646,0 c -3.732,0.01 -6.753,-3.019 -6.753,-6.753 l 0,-203.083 c 0,-3.736 3.02,-6.756 6.756,-6.756 l -0.003,-0.005 z" /><path
             style="fill:#f4f4f4"
             inkscape:connector-curvature="0"
             id="rect35"
             d="m 359.021,163.559 0,0.953 0,81.465 0,0.952 0.953,0 81.465,0 0.953,0 0,-0.952 0,-81.465 0,-0.953 -0.953,0 -81.465,0 -0.953,0 z m 1.906,1.905 79.561,0 0,79.56 -79.561,0 0,-79.56 z" /><path
             style="fill:#f4f4f4"
             inkscape:connector-curvature="0"
             id="rect37"
             d="m 448.248,163.559 0,0.953 0,81.465 0,0.952 0.953,0 81.436,0 0.952,0 0,-0.952 0,-81.465 0,-0.953 -0.952,0 -81.436,0 -0.953,0 z m 1.905,1.905 79.531,0 0,79.56 -79.531,0 0,-79.56 z" /><path
             style="fill:#f4f4f4"
             inkscape:connector-curvature="0"
             id="polyline39"
             d="m 83.934,94.177 0,2.292 0,159.061 0,2.322 1.607,-1.638 25.33,-25.299 -1.369,-1.369 -23.663,23.692 0,-154.45 23.663,23.658 1.369,-1.34 -25.33,-25.299 -1.607,-1.637 0,0.007 z" /><path
             style="fill:#f4f4f4"
             inkscape:connector-curvature="0"
             id="polyline41"
             d="m 222.305,232.551 -1.37,1.339 23.693,23.692 -154.452,0 23.574,-23.573 -1.369,-1.339 -25.181,25.182 -1.637,1.637 2.292,0 159.062,0 2.292,0 -1.607,-1.637 -25.299,-25.3 0.002,-0.001 z" /><path
             style="fill:#f4f4f4"
             inkscape:connector-curvature="0"
             id="polyline43"
             d="m 250.878,94.177 -1.637,1.637 -25.211,25.182 1.369,1.369 23.574,-23.603 0,154.509 -23.633,-23.663 -1.339,1.34 25.24,25.27 1.637,1.638 0,-2.322 0,-159.063 0,-2.292 0,-0.002 z" /><path
             style="fill:#f4f4f4"
             inkscape:connector-curvature="0"
             id="polyline45"
             d="m 85.57,92.54 1.638,1.608 25.21,25.24 1.339,-1.34 -23.572,-23.602 154.452,0 -23.669,23.662 1.333,1.339 25.307,-25.3 1.607,-1.607 -2.292,0 -159.062,0 -2.291,0 0,0 z" /><path
             style="fill:#f4f4f4"
             inkscape:connector-curvature="0"
             id="line47"
             d="m 58.961,69.533 0,218.057 1.905,0 0,-218.057 -1.905,0 z" /><path
             style="fill:#f4f4f4"
             inkscape:connector-curvature="0"
             id="rect49"
             d="m 359.021,145.819 0,0.953 0,13.244 0,0.953 0.953,0 81.465,0 0.953,0 0,-0.953 0,-13.244 0,-0.953 -0.953,0 -81.465,0 -0.953,0 z m 1.906,1.905 79.561,0 0,11.339 -79.561,0 0,-11.339 z" /><path
             style="fill:#f4f4f4"
             inkscape:connector-curvature="0"
             id="rect51"
             d="m 448.248,145.819 0,0.953 0,13.244 0,0.953 0.953,0 81.436,0 0.952,0 0,-0.953 0,-13.244 0,-0.953 -0.952,0 -81.436,0 -0.953,0 z m 1.905,1.905 79.531,0 0,11.339 -79.531,0 0,-11.339 z" /><path
             style="fill:#f4f4f4"
             inkscape:connector-curvature="0"
             id="path53"
             d="m 276.804,73.134 c -0.987,0 -1.815,0.828 -1.815,1.816 l 0,53.01 c 0,0.988 0.829,1.815 1.815,1.815 l 282.855,0 c 0.985,0 1.785,-0.831 1.785,-1.815 l 0,-50.033 c 0,-2.641 -2.152,-4.792 -4.792,-4.792 l -279.844,0 -0.004,0 z m 0.09,1.906 279.756,0 c 1.613,0 2.888,1.275 2.888,2.887 l 0,49.945 -282.643,0 0,-52.832 -10e-4,0 z" /><path
             style="fill:#f4f4f4"
             inkscape:connector-curvature="0"
             id="path55"
             d="m 276.804,260.41 c -0.987,0 -1.815,0.829 -1.815,1.815 l 0,20.091 c 0,0.987 0.829,1.816 1.815,1.816 l 279.844,0 c 2.64,0 4.792,-2.183 4.792,-4.822 l 0,-17.085 c 0,-0.985 -0.8,-1.815 -1.785,-1.815 l -282.855,0 0.004,0 z m 0.09,1.905 282.645,0 0,16.995 c 0,1.611 -1.276,2.917 -2.888,2.917 l -279.758,0 0.001,-19.912 0,0 z" /><path
             style="fill:#f4f4f4"
             inkscape:connector-curvature="0"
             id="line57"
             d="m 274.461,129.271 -6.28,6.28 1.369,1.339 6.251,-6.25 -1.34,-1.369 z" /><path
             style="fill:#f4f4f4"
             inkscape:connector-curvature="0"
             id="line59"
             d="m 269.546,253.866 -1.369,1.34 6.281,6.28 1.339,-1.369 -6.251,-6.251 z" /></g></g></g></g><g
     inkscape:groupmode="layer"
     id="layer4"
     inkscape:label="Controller"><g
       id="g10470"
       transform="matrix(0.39838089,-0.28552199,-0.33280876,0.63690692,223.61901,168.56864)"><path
         d="M 294.78,0.002 C 202.85,0.002 122.4,31.983 89.81,48.533 72.931,57.107 48.762,73.39 29.717,96.908 10.672,120.422 -3.241,151.232 0.654,188.622 c 5,47.998 27.068,87.064 50.562,114.66 11.747,13.795 23.846,24.715 34.375,32.469 10.529,7.754 19.426,12.371 25.094,13.469 8.126,1.572 18.219,1.686 28.031,-1.938 9.813,-3.622 19.294,-11.037 26.094,-24.375 13.446,-26.375 21.082,-52.288 48,-66 27.04,-13.775 62.088,-16.375 69.594,-16.375 l 33.375,0 c 7.508,0 42.555,2.601 69.594,16.375 l 0.189,0.1 c 26.762,13.738 34.399,39.596 47.813,65.906 6.801,13.338 16.281,20.753 26.094,24.375 9.813,3.622 19.906,3.511 28.031,1.938 5.668,-1.097 14.566,-5.715 25.094,-13.469 10.529,-7.754 22.629,-18.673 34.375,-32.469 23.496,-27.592 45.563,-66.658 50.563,-114.66 3.895,-37.392 -10.019,-68.2 -29.063,-91.719 C 549.43,73.396 525.26,57.113 508.389,48.539 475.798,31.99 395.349,0.008 303.419,0.008 l -8.625,0 -0.014,-0.006 z m 0,2 8.625,0 c 91.467,0 171.737,31.894 204.059,48.312 16.654,8.459 40.662,24.618 59.469,47.844 18.81,23.225 32.429,53.457 28.597,90.25 -4.949,47.506 -26.804,86.241 -50.097,113.59 -11.645,13.677 -23.635,24.502 -34.028,32.155 -10.396,7.656 -19.279,12.128 -24.281,13.095 -7.844,1.519 -17.592,1.619 -26.969,-1.845 -9.379,-3.461 -18.406,-10.469 -25,-23.404 -13.345,-26.171 -21.188,-52.77 -48.875,-66.875 -27.568,-14.043 -62.551,-16.596 -70.5,-16.596 l -33.376,0 c -7.947,0 -42.907,2.537 -70.469,16.563 l -0.031,0.031 c -27.69,14.104 -35.533,40.704 -48.875,66.875 -6.595,12.938 -15.622,19.944 -25,23.405 -9.378,3.462 -19.125,3.361 -26.969,1.845 -4.99,-0.972 -13.873,-5.438 -24.269,-13.09 C 76.396,326.497 64.406,315.677 52.76,301.997 29.469,274.646 7.615,235.907 2.666,188.407 -1.167,151.607 12.452,121.377 31.26,98.153 50.067,74.929 74.074,58.77 90.728,50.31 123.059,33.891 203.318,1.998 294.788,1.998 l -0.008,0.004 z"
         id="path3-4"
         inkscape:connector-curvature="0"
         style="fill:#f4f4f4" /><path
         d="m 139.53,59.752 c -51.186,0 -92.688,41.502 -92.688,92.688 0,51.186 41.502,92.719 92.688,92.719 51.186,0 92.719,-41.533 92.719,-92.719 0,-51.186 -41.533,-92.688 -92.719,-92.688 z m 0,2 c 50.105,0 90.719,40.583 90.719,90.688 0,50.105 -40.614,90.719 -90.719,90.719 -50.105,0 -90.688,-40.614 -90.688,-90.719 0,-50.105 40.583,-90.688 90.688,-90.688 z"
         id="circle5"
         inkscape:connector-curvature="0"
         style="fill:#f4f4f4" /><path
         d="m 139.53,79.346 c -40.373,0 -73.094,32.72 -73.094,73.094 0,40.374 32.72,73.125 73.094,73.125 40.373,0 73.125,-32.754 73.125,-73.125 0,-40.373 -32.752,-73.094 -73.125,-73.094 z m 0,2 c 39.293,0 71.125,31.801 71.125,71.094 0,39.293 -31.832,71.125 -71.125,71.125 -39.293,0 -71.094,-31.832 -71.094,-71.125 0,-39.293 31.801,-71.094 71.094,-71.094 z"
         id="circle7"
         inkscape:connector-curvature="0"
         style="fill:#f4f4f4" /><path
         d="m 139.53,97.627 c -30.273,0 -54.812,24.54 -54.812,54.812 0,30.273 24.54,54.843 54.812,54.843 30.273,0 54.844,-24.57 54.844,-54.843 0,-30.273 -24.571,-54.812 -54.844,-54.812 z m 0,2 c 29.192,0 52.844,23.621 52.844,52.812 0,29.192 -23.652,52.843 -52.844,52.843 -29.192,0 -52.812,-23.651 -52.812,-52.843 0,-29.192 23.621,-52.812 52.812,-52.812 z"
         id="circle9"
         inkscape:connector-curvature="0"
         style="fill:#f4f4f4" /><path
         d="m 129.59,101.752 c -1.82,0 -3.313,1.491 -3.313,3.313 l 0,27.875 c 0,2.118 -0.623,3.606 -1.688,4.625 -1.064,1.019 -2.667,1.625 -4.844,1.625 l -27.593,0 c -1.821,0 -3.313,1.492 -3.313,3.313 l 0,19.906 c 0,1.821 1.492,3.313 3.313,3.313 l 27.594,0 c 2.021,0 3.638,0.628 4.75,1.719 1.112,1.091 1.781,2.69 1.781,4.813 l 0,27.595 c 0,1.82 1.492,3.313 3.313,3.313 l 19.906,0 c 1.82,0 3.313,-1.492 3.313,-3.313 l 0,-27.5 c 0,-2.115 0.527,-3.75 1.531,-4.844 1.003,-1.094 2.577,-1.781 5.094,-1.781 l 27.5,0 c 1.821,0 3.313,-1.492 3.313,-3.313 l 0,-19.906 c 0,-1.82 -1.492,-3.313 -3.313,-3.313 l -27.469,0 c -2.622,0 -4.209,-0.671 -5.188,-1.688 -0.979,-1.016 -1.469,-2.507 -1.469,-4.563 l 0,-27.875 c 0,-1.821 -1.492,-3.313 -3.313,-3.313 l -19.905,0 0,-0.001 z m 0,2 19.906,0 c 0.74,0 1.313,0.571 1.313,1.313 l 0,27.875 c 0,2.366 0.584,4.466 2.031,5.969 1.447,1.502 3.666,2.281 6.625,2.281 l 27.469,0 c 0.741,0 1.313,0.573 1.313,1.313 l 0,19.906 c 0,0.739 -0.572,1.313 -1.313,1.313 l -27.5,0 c -2.893,0 -5.15,0.865 -6.594,2.438 -1.444,1.573 -2.031,3.751 -2.031,6.188 l 0,27.5 c 0,0.741 -0.571,1.313 -1.313,1.313 l -19.906,0 c -0.74,0 -1.313,-0.571 -1.313,-1.313 l 0,-27.594 c 0,-2.557 -0.878,-4.72 -2.406,-6.219 -1.528,-1.499 -3.68,-2.313 -6.125,-2.313 l -27.594,0 c -0.738,0 -1.313,-0.573 -1.313,-1.313 l 0,-19.906 c 0,-0.739 0.573,-1.313 1.313,-1.313 l 27.594,0 c 2.545,0 4.707,-0.741 6.219,-2.188 1.511,-1.446 2.313,-3.543 2.313,-6.063 l 0,-27.875 c 0,-0.741 0.573,-1.313 1.312,-1.312 l 0,0 z"
         id="path11-7"
         inkscape:connector-curvature="0"
         style="fill:#f4f4f4" /><path
         d="m 150.78,117.092 c 0,12.554 10.781,24.125 24.156,24.125 l 0,-2 c -12.212,0 -22.156,-10.723 -22.156,-22.125 l -2,0 0,0 z"
         id="path13"
         inkscape:connector-curvature="0"
         style="fill:#f4f4f4" /><path
         d="m 174.22,116.312 -1.125,0.469 -8.75,3.719 -0.719,0.281 0.563,0.531 5.156,4.844 0.531,0.5 0.281,-0.656 3.594,-8.563 0.469,-1.125 0,0 z m -1.844,1.875 -2.875,6.75 -4.063,-3.844 6.938,-2.906 z"
         id="polygon15-7"
         inkscape:connector-curvature="0"
         style="fill:#f4f4f4" /><path
         d="m 139.53,140.562 c -6.563,0 -11.875,5.312 -11.875,11.875 0,6.563 5.312,11.906 11.875,11.906 6.563,0 11.906,-5.343 11.906,-11.906 0,-6.563 -5.343,-11.875 -11.906,-11.875 z m 0,2 c 5.482,0 9.906,4.393 9.906,9.875 0,5.482 -4.424,9.906 -9.906,9.906 -5.482,0 -9.875,-4.424 -9.875,-9.906 0,-5.482 4.393,-9.875 9.875,-9.875 z"
         id="circle17"
         inkscape:connector-curvature="0"
         style="fill:#f4f4f4" /><path
         d="m 126.31,117.062 c 0,12.212 -10.723,22.156 -22.125,22.156 l 0,2 c 12.554,0 24.125,-10.781 24.125,-24.156 l -2,0 z"
         id="path19"
         inkscape:connector-curvature="0"
         style="fill:#f4f4f4" /><path
         d="m 103.41,117.782 0.469,1.125 3.719,8.75 0.281,0.719 0.531,-0.563 4.844,-5.156 0.5,-0.531 -0.656,-0.281 -8.563,-3.594 -1.125,-0.469 0,0 z m 1.875,1.843 6.75,2.875 -3.844,4.063 -2.906,-6.938 z"
         id="polygon21"
         inkscape:connector-curvature="0"
         style="fill:#f4f4f4" /><path
         d="m 104.16,163.692 0,2 c 12.211,0 22.156,10.721 22.156,22.125 l 2,0 c 0,-12.555 -10.782,-24.125 -24.156,-24.125 z"
         id="path23"
         inkscape:connector-curvature="0"
         style="fill:#f4f4f4" /><path
         d="m 109.22,178.252 -0.281,0.656 -3.594,8.563 -0.469,1.125 1.125,-0.47 8.75,-3.719 0.719,-0.281 -0.563,-0.53 -5.156,-4.845 -0.531,-0.499 0,0 z m 0.375,1.72 4.063,3.813 -6.938,2.938 2.875,-6.751 z"
         id="polygon25"
         inkscape:connector-curvature="0"
         style="fill:#f4f4f4" /><path
         d="m 174.91,163.692 c -12.554,0 -24.125,10.782 -24.125,24.157 l 2,0 c 0,-12.211 10.723,-22.157 22.125,-22.157 l 0,-2 z"
         id="path27"
         inkscape:connector-curvature="0"
         style="fill:#f4f4f4" /><path
         d="m 171.22,176.532 -0.531,0.563 -4.844,5.156 -0.5,0.531 0.656,0.281 8.563,3.594 1.125,0.469 -0.469,-1.125 -3.719,-8.75 -0.281,-0.719 0,0 z m -0.344,1.813 2.938,6.938 -6.75,-2.875 3.812,-4.063 z"
         id="polygon29"
         inkscape:connector-curvature="0"
         style="fill:#f4f4f4" /><path
         d="m 503.531,81.908 c -4.07,0.077 -8.398,0.299 -12.906,0.688 -18.037,1.553 -39,5.863 -58.375,15.031 -14.463,6.843 -30.896,17.178 -45,27.969 -14.105,10.79 -25.869,21.996 -31,30.844 -5.152,8.884 -5.805,20.51 -3.844,31.53 1.959,11.021 6.521,21.449 12.188,28 11.238,12.996 30.594,20.326 55.281,13.721 12.328,-3.299 20.221,-8.209 28.406,-13.938 8.184,-5.729 16.672,-12.296 30.5,-19.125 27.705,-13.683 51.271,-18.778 64.094,-22.938 6.48,-2.103 13.213,-5.741 18.344,-12.375 5.131,-6.635 8.64,-16.227 8.813,-30.125 0.176,-14.02 -5.656,-24.874 -13.406,-32.625 -7.75,-7.751 -17.39,-12.442 -25.126,-14.376 -5.821,-1.457 -15.762,-2.513 -27.969,-2.281 l 0,0 z m 0.062,2.031 c 12.095,-0.219 21.894,0.809 27.404,2.188 7.375,1.843 16.772,6.397 24.221,13.844 7.445,7.447 12.98,17.729 12.812,31.188 -0.168,13.577 -3.545,22.693 -8.375,28.938 -4.828,6.245 -11.146,9.667 -17.375,11.688 -12.568,4.075 -36.357,9.235 -64.22,22.968 l -0.155,0.094 c -13.99,6.91 -22.652,13.561 -30.781,19.25 -8.129,5.691 -15.691,10.432 -27.75,13.656 -24.082,6.445 -42.508,-0.673 -53.25,-13.094 -5.322,-6.155 -9.846,-16.329 -11.75,-27.031 -1.902,-10.701 -1.213,-21.9 3.594,-30.188 4.828,-8.324 16.502,-19.541 30.5,-30.25 13.998,-10.709 30.338,-20.989 44.625,-27.75 19.09,-9.034 39.867,-13.306 57.719,-14.844 4.464,-0.384 8.751,-0.583 12.781,-0.657 l 0,0 z"
         id="path31"
         inkscape:connector-curvature="0"
         style="fill:#f4f4f4" /><path
         d="m 518.621,94.502 c -8.469,-0.256 -17.479,1.42 -26.219,4.813 -23.015,8.93 -51.828,20.256 -65.347,27.188 -10.75,5.514 -25.024,11.353 -37.153,19.094 -12.131,7.741 -22.207,17.45 -24.156,30.75 -3.871,26.396 19.443,45.891 44.094,41.313 12.195,-2.266 20.463,-7.176 29,-13.125 8.535,-5.949 17.387,-12.911 31.031,-19.563 13.656,-6.658 28.184,-11.455 40.875,-15.313 12.688,-3.858 23.488,-6.779 29.844,-9.781 6.484,-3.063 12.375,-9.775 15.25,-18.219 2.873,-8.443 2.689,-18.633 -3.125,-28.5 -5.815,-9.871 -15.141,-15.644 -25.844,-17.75 -2.676,-0.526 -5.428,-0.821 -8.25,-0.907 l 0,0 z m -0.063,2 c 2.722,0.081 5.375,0.371 7.938,0.875 10.246,2.016 18.981,7.418 24.5,16.781 5.518,9.366 5.676,18.919 2.969,26.875 -2.709,7.956 -8.342,14.286 -14.219,17.062 -6.008,2.837 -16.838,5.756 -29.563,9.625 -12.725,3.869 -27.368,8.701 -41.188,15.438 -13.834,6.743 -22.851,13.851 -31.313,19.75 -8.465,5.899 -16.373,10.582 -28.219,12.78 -23.432,4.353 -45.434,-13.91 -41.75,-39.03 1.826,-12.458 11.336,-21.771 23.25,-29.375 11.914,-7.603 26.121,-13.421 37,-19 13.271,-6.807 42.18,-18.166 65.188,-27.094 8.518,-3.305 17.245,-4.931 25.407,-4.687 l 0,0 z"
         id="path33-9"
         inkscape:connector-curvature="0"
         style="fill:#f4f4f4" /><path
         d="m 403.089,149.782 c -16.897,0 -30.625,13.725 -30.625,30.625 0,16.898 13.728,30.625 30.625,30.625 16.9,0 30.625,-13.727 30.625,-30.625 0,-16.9 -13.724,-30.625 -30.625,-30.625 z m 0,2 c 15.82,0 28.625,12.806 28.625,28.625 0,15.818 -12.805,28.625 -28.625,28.625 -15.817,0 -28.625,-12.807 -28.625,-28.625 0,-15.819 12.807,-28.625 28.625,-28.625 z"
         id="circle35"
         inkscape:connector-curvature="0"
         style="fill:#f4f4f4" /><path
         d="m 403.089,155.442 c -13.77,0 -24.938,11.198 -24.938,24.969 0,13.77 11.168,24.969 24.938,24.969 13.771,0 24.969,-11.197 24.969,-24.969 0,-13.771 -11.197,-24.969 -24.969,-24.969 z m 0,2 c 12.691,0 22.969,10.279 22.969,22.969 0,12.689 -10.276,22.969 -22.969,22.969 -12.688,0 -22.938,-10.279 -22.938,-22.969 10e-4,-12.69 10.249,-22.969 22.938,-22.969 z"
         id="circle37"
         inkscape:connector-curvature="0"
         style="fill:#f4f4f4" /><path
         d="m 459.781,120.442 c -16.9,0 -30.625,13.694 -30.625,30.594 0,16.9 13.725,30.625 30.625,30.625 16.897,0 30.594,-13.726 30.594,-30.625 0,-16.899 -13.696,-30.594 -30.594,-30.594 z m 0,2 c 15.817,0 28.594,12.774 28.594,28.594 0,15.819 -12.775,28.625 -28.594,28.625 -15.82,0 -28.625,-12.807 -28.625,-28.625 0,-15.818 12.804,-28.594 28.625,-28.594 z"
         id="circle39"
         inkscape:connector-curvature="0"
         style="fill:#f4f4f4" /><path
         d="m 459.781,126.092 c -13.771,0 -24.972,11.167 -24.972,24.938 0,13.771 11.199,24.969 24.972,24.969 13.77,0 24.938,-11.198 24.938,-24.969 0,-13.771 -11.169,-24.938 -24.938,-24.938 z m 0,2 c 12.688,0 22.938,10.247 22.938,22.938 0,12.689 -10.248,22.969 -22.938,22.969 -12.691,0 -22.972,-10.279 -22.972,-22.969 10e-4,-12.69 10.28,-22.938 22.972,-22.938 z"
         id="circle41"
         inkscape:connector-curvature="0"
         style="fill:#f4f4f4" /><path
         d="m 519.781,98.783 c -16.902,0 -30.625,13.724 -30.625,30.625 0,16.901 13.723,30.625 30.625,30.625 16.899,0 30.625,-13.724 30.625,-30.625 0,-16.901 -13.725,-30.625 -30.625,-30.625 z m 0,2 c 15.817,0 28.625,12.805 28.625,28.625 0,15.82 -12.808,28.625 -28.625,28.625 -15.82,0 -28.625,-12.805 -28.625,-28.625 0,-15.82 12.804,-28.625 28.625,-28.625 z"
         id="circle43"
         inkscape:connector-curvature="0"
         style="fill:#f4f4f4" /><path
         d="m 519.781,104.442 c -13.771,0 -24.939,11.198 -24.939,24.969 0,13.771 11.168,24.969 24.939,24.969 13.77,0 24.969,-11.198 24.969,-24.969 0,-13.771 -11.2,-24.969 -24.969,-24.969 z m 0,2 c 12.688,0 22.969,10.279 22.969,22.969 0,12.69 -10.279,22.969 -22.969,22.969 -12.691,0 -22.939,-10.279 -22.939,-22.969 0,-12.69 10.247,-22.969 22.939,-22.969 z"
         id="circle45"
         inkscape:connector-curvature="0"
         style="fill:#f4f4f4" /><path
         d="m 442.91,50.346 c -1.877,-0.129 -3.799,0.131 -5.688,0.781 l -41.1,14.125 c -7.549,2.6 -11.57,10.855 -8.969,18.406 2.602,7.551 10.854,11.602 18.405,9 l 41.101,-14.156 c 7.551,-2.601 11.569,-10.855 8.969,-18.406 -1.951,-5.662 -7.089,-9.362 -12.718,-9.75 l 0,0 z m -0.125,2 c 4.854,0.329 9.252,3.51 10.938,8.406 2.25,6.529 -1.188,13.595 -7.719,15.844 l -41.09,14.156 c -6.529,2.25 -13.594,-1.189 -15.844,-7.719 -2.248,-6.529 1.19,-13.627 7.719,-15.875 l 41.09,-14.156 c 1.632,-0.562 3.288,-0.766 4.906,-0.656 l 0,0 z"
         id="path47"
         inkscape:connector-curvature="0"
         style="fill:#f4f4f4" /><path
         d="m 441.839,56.846 c -1.063,-0.074 -2.18,0.038 -3.25,0.406 L 398.81,70.971 c -4.276,1.473 -6.536,6.16 -5.063,10.438 1.473,4.278 6.16,6.568 10.438,5.094 l 39.75,-13.719 c 4.277,-1.473 6.566,-6.16 5.095,-10.438 -1.105,-3.208 -3.996,-5.278 -7.188,-5.5 l -0.003,0 z m -0.156,1.968 c 2.416,0.163 4.628,1.746 5.47,4.188 1.121,3.256 -0.588,6.785 -3.845,7.906 l -39.78,13.688 c -3.254,1.122 -6.785,-0.587 -7.906,-3.844 -1.121,-3.255 0.59,-6.785 3.844,-7.906 l 39.791,-13.688 c 0.814,-0.28 1.633,-0.398 2.438,-0.344 l -0.012,0 0,0 z"
         id="path49"
         inkscape:connector-curvature="0"
         style="fill:#f4f4f4" /></g></g></svg>