<?xml version="1.0" encoding="UTF-8" standalone="no"?>
<!-- Generator: Adobe Illustrator 13.0.0, SVG Export Plug-In . SVG Version: 6.00 Build 14948)  -->

<svg
   xmlns:dc="http://purl.org/dc/elements/1.1/"
   xmlns:cc="http://creativecommons.org/ns#"
   xmlns:rdf="http://www.w3.org/1999/02/22-rdf-syntax-ns#"
   xmlns:svg="http://www.w3.org/2000/svg"
   xmlns="http://www.w3.org/2000/svg"
   xmlns:sodipodi="http://sodipodi.sourceforge.net/DTD/sodipodi-0.dtd"
   xmlns:inkscape="http://www.inkscape.org/namespaces/inkscape"
   version="1.1"
   id="Layer_2"
   x="0px"
   y="0px"
   width="550"
   height="550"
   viewBox="0 0 549.99995 549.99999"
   enable-background="new 0 0 598.189 350.26"
   xml:space="preserve"
   inkscape:version="0.91 r13725"
   sodipodi:docname="controller_gg.svg"><metadata
     id="metadata3083"><rdf:RDF><cc:Work
         rdf:about=""><dc:format>image/svg+xml</dc:format><dc:type
           rdf:resource="http://purl.org/dc/dcmitype/StillImage" /><dc:title></dc:title></cc:Work></rdf:RDF></metadata><defs
     id="defs3081" /><sodipodi:namedview
     pagecolor="#ffffff"
     bordercolor="#666666"
     borderopacity="1"
     objecttolerance="10"
     gridtolerance="10"
     guidetolerance="10"
     inkscape:pageopacity="0"
     inkscape:pageshadow="2"
     inkscape:window-width="1920"
     inkscape:window-height="1001"
     id="namedview3079"
     showgrid="false"
     inkscape:zoom="1.0799262"
     inkscape:cx="286.73678"
     inkscape:cy="382.70167"
     inkscape:window-x="-9"
     inkscape:window-y="-9"
     inkscape:window-maximized="1"
     inkscape:current-layer="layer4"
     showguides="true"
     inkscape:guide-bbox="true" /><g
     inkscape:groupmode="layer"
     id="layer2"
     inkscape:label="Screen_Rect"
     style="display:none"
     transform="translate(0,199.73999)"
     sodipodi:insensitive="true"><path
       style="fill:#ffffff;stroke:#000000;stroke-width:1px;stroke-linecap:butt;stroke-linejoin:miter;stroke-opacity:1"
       d="M 5.0135033,547.22203 136.4109,114.39023 653.54628,-189.09358 406.482,260.92121 Z"
       id="path3021"
       inkscape:connector-curvature="0"
       transform="translate(-2e-5,-199.73999)"
       sodipodi:nodetypes="ccccc" /><rect
       style="opacity:0.60100002;fill:#d8201f;fill-opacity:1;stroke:#ff8080;stroke-width:2.45114732;stroke-linecap:round;stroke-linejoin:round;stroke-miterlimit:4;stroke-dasharray:none;stroke-opacity:1"
       id="rect4230"
       width="444.2457"
       height="9.9567661"
       x="145.95099"
       y="-211.30678" /></g><g
     inkscape:groupmode="layer"
     id="layer1"
     inkscape:label="Controller_Vorlage"
     style="display:none"
     sodipodi:insensitive="true"><g
       id="g4929"
       transform="translate(-0.929149,0.5695451)"><g
         transform="translate(0,199.73999)"
         style="display:none"
         inkscape:label="Layer2"
         id="layer2-9"><path
           sodipodi:nodetypes="ccccc"
           transform="translate(-2e-5,-199.73999)"
           inkscape:connector-curvature="0"
           id="path3021-0"
           d="M 5.0135033,547.22203 136.4109,114.39023 653.54628,-189.09358 406.482,260.92121 Z"
           style="fill:#ffffff;stroke:#000000;stroke-width:1px;stroke-linecap:butt;stroke-linejoin:miter;stroke-opacity:1" /></g><g
         inkscape:label="Layer"
         id="layer1-2"><g
           transform="matrix(0.55322035,-0.3970343,-0.34863416,0.85569517,173.63773,166.52161)"
           id="g3100"><path
             style="fill:#f4f4f4"
             inkscape:connector-curvature="0"
             id="path3"
             d="m 148.05,114.447 c -23.656,0 -42.861,19.204 -42.861,42.861 l 0,37.414 c 0,23.658 19.205,42.86 42.861,42.86 l 38.694,0 c 23.656,0 42.861,-19.202 42.861,-42.86 l 0,-37.414 c 0,-23.657 -19.205,-42.861 -42.861,-42.861 l -38.694,0 z m 0,1.905 38.694,0 c 22.627,0 40.956,18.328 40.956,40.956 l 0,37.414 c 0,22.629 -18.329,40.956 -40.956,40.956 l -38.694,0 c -22.628,0 -40.956,-18.327 -40.956,-40.956 l 0,-37.414 c 0,-22.629 18.328,-40.956 40.956,-40.956 z" /><path
             style="fill:#f4f4f4"
             inkscape:connector-curvature="0"
             id="path5"
             d="m 167.395,123.168 c -3.23,0 -5.863,2.633 -5.863,5.864 l 0,13.037 c 0,3.23 2.632,5.863 5.863,5.863 3.23,0 5.863,-2.633 5.863,-5.863 l 0,-13.037 c 0,-3.23 -2.633,-5.864 -5.863,-5.864 z m 0,1.906 c 2.201,0 3.958,1.758 3.958,3.958 l 0,13.037 c 0,2.2 -1.758,3.958 -3.958,3.958 -2.202,0 -3.958,-1.758 -3.958,-3.958 l 0,-13.037 c -0.001,-2.2 1.757,-3.958 3.958,-3.958 z" /><path
             style="fill:#f4f4f4"
             inkscape:connector-curvature="0"
             id="path7"
             d="m 120.425,170.135 c -3.23,0 -5.864,2.633 -5.864,5.864 0,3.231 2.632,5.894 5.864,5.894 l 13.037,0 c 3.229,0 5.864,-2.662 5.864,-5.894 0,-3.229 -2.633,-5.864 -5.864,-5.864 l -13.037,0 z m 0,1.905 13.037,0 c 2.201,0 3.959,1.759 3.959,3.959 0,2.201 -1.759,3.988 -3.959,3.988 l -13.037,0 c -2.198,-0.01 -3.955,-1.791 -3.955,-3.99 0,-2.201 1.758,-3.959 3.958,-3.959 l -0.003,0.002 z" /><path
             style="fill:#f4f4f4"
             inkscape:connector-curvature="0"
             id="path9"
             d="m 167.395,204.071 c -3.23,0 -5.863,2.663 -5.863,5.894 l 0,13.038 c 0,3.229 2.632,5.863 5.863,5.863 3.23,0 5.863,-2.633 5.863,-5.863 l 0,-13.038 c 0,-3.23 -2.633,-5.894 -5.863,-5.894 z m 0,1.906 c 2.201,0 3.958,1.789 3.958,3.988 l 0,13.038 c 0,2.2 -1.757,3.958 -3.958,3.958 -2.202,0 -3.958,-1.759 -3.958,-3.958 l 0,-13.038 c -0.001,-2.2 1.757,-3.988 3.958,-3.988 z" /><path
             style="fill:#f4f4f4"
             inkscape:connector-curvature="0"
             id="path11"
             d="m 201.321,170.135 c -3.229,0 -5.863,2.633 -5.863,5.864 0,3.231 2.633,5.894 5.863,5.894 l 13.067,0 c 3.229,0 5.863,-2.662 5.863,-5.894 0,-3.229 -2.633,-5.864 -5.863,-5.864 l -13.067,0 z m 0,1.905 13.067,0 c 2.2,0 3.958,1.76 3.958,3.959 0,2.201 -1.758,3.988 -3.958,3.988 l -13.067,0 c -2.2,0 -3.958,-1.788 -3.958,-3.988 0,-2.2 1.759,-3.959 3.958,-3.959 z" /><path
             style="fill:#f4f4f4"
             inkscape:connector-curvature="0"
             id="polygon13"
             d="m 133.878,141.176 -1.31,1.31 8.155,12.025 0.655,0.952 0.804,-0.803 3.869,-3.87 0.804,-0.804 -0.953,-0.655 -12.024,-8.155 z" /><path
             style="fill:#f4f4f4"
             inkscape:connector-curvature="0"
             id="polygon15"
             d="m 141.383,196.566 -0.654,0.952 -8.156,12.024 1.31,1.31 12.025,-8.155 0.953,-0.654 -0.804,-0.804 -3.87,-3.869 -0.804,-0.804 z" /><path
             style="fill:#f4f4f4"
             inkscape:connector-curvature="0"
             id="polygon17"
             d="m 193.435,196.566 -0.804,0.804 -3.869,3.869 -0.833,0.804 0.953,0.654 12.025,8.155 1.339,-1.31 -8.156,-12.024 -0.655,-0.952 0,0 z" /><path
             style="fill:#f4f4f4"
             inkscape:connector-curvature="0"
             id="polygon19"
             d="m 200.912,141.176 -12.025,8.155 -0.953,0.655 0.833,0.804 3.87,3.87 0.804,0.803 0.655,-0.952 8.155,-12.025 -1.339,-1.31 z" /><path
             style="fill:#f4f4f4"
             inkscape:connector-curvature="0"
             id="path21"
             d="m 146.354,104.833 c -27.67,0 -50.123,22.453 -50.123,50.124 l 0,42.117 c 0,27.671 22.453,50.123 50.123,50.123 l 42.117,0 c 27.671,0 50.124,-22.452 50.124,-50.123 l 0,-42.117 c 0,-27.67 -22.452,-50.124 -50.124,-50.124 l -42.117,0 z m 0,1.906 42.117,0 c 26.644,0 48.219,21.577 48.219,48.218 l 0,42.117 c 0,26.644 -21.577,48.218 -48.219,48.218 l -42.117,0 c -26.642,0 -48.218,-21.574 -48.218,-48.218 l 0,-42.117 c 0,-26.642 21.577,-48.218 48.218,-48.218 z" /><path
             style="fill:#f4f4f4"
             inkscape:connector-curvature="0"
             id="polygon23"
             d="m 69.499,75.694 0,0.952 0,202.961 0,0.952 0.953,0 196.122,0 0.952,0 0,-0.952 0,-26.401 289.521,0 0.952,0 0,-0.952 0,-113.458 0,-0.953 -0.952,0 -289.522,0 0,-61.196 0,-0.952 -0.952,0 -196.122,0 -0.952,-10e-4 0,0 z m 1.904,1.905 194.217,0 0,61.196 0,0.953 0.953,0 0.714,0 288.807,0 0,111.552 -289.226,0 -0.297,0 -0.953,0 0,0.953 0,26.4 -194.217,0 0,-201.055 0.002,0.001 z" /><path
             style="fill:#f4f4f4"
             inkscape:connector-curvature="0"
             id="circle25"
             d="m 400.692,169.126 c -19.762,0 -35.777,16.046 -35.777,35.807 0,19.761 16.018,35.807 35.777,35.807 19.759,0 35.807,-16.046 35.807,-35.807 0,-19.761 -16.047,-35.807 -35.807,-35.807 l 0,0 z m 0,1.905 c 18.73,0 33.901,15.17 33.901,33.902 0,18.732 -15.171,33.902 -33.901,33.902 -18.731,0 -33.872,-15.171 -33.872,-33.902 0,-18.731 15.141,-33.902 33.872,-33.902 l 0,0 z" /><path
             style="fill:#f4f4f4"
             inkscape:connector-curvature="0"
             id="circle27"
             d="m 400.692,177.669 c -15.039,0 -27.234,12.227 -27.234,27.265 0,15.038 12.195,27.234 27.234,27.234 15.036,0 27.264,-12.196 27.264,-27.234 0,-15.038 -12.227,-27.265 -27.264,-27.265 z m 0,1.905 c 14.008,0 25.359,11.351 25.359,25.359 0,14.008 -11.352,25.33 -25.359,25.33 -14.01,0 -25.33,-11.321 -25.33,-25.33 0,-14.009 11.321,-25.359 25.33,-25.359 z" /><path
             style="fill:#f4f4f4"
             inkscape:connector-curvature="0"
             id="circle29"
             d="m 489.919,169.126 c -19.762,0 -35.807,16.046 -35.807,35.807 0,19.761 16.045,35.807 35.807,35.807 19.76,0 35.807,-16.046 35.807,-35.807 0,-19.761 -16.047,-35.807 -35.807,-35.807 l 0,0 z m 0,1.905 c 18.73,0 33.901,15.17 33.901,33.902 0,18.732 -15.171,33.902 -33.901,33.902 -18.731,0 -33.902,-15.171 -33.902,-33.902 0,-18.731 15.171,-33.902 33.902,-33.902 l 0,0 z" /><path
             style="fill:#f4f4f4"
             inkscape:connector-curvature="0"
             id="circle31"
             d="m 489.919,177.669 c -15.039,0 -27.234,12.227 -27.234,27.265 0,15.038 12.195,27.234 27.234,27.234 15.036,0 27.234,-12.196 27.234,-27.234 0,-15.038 -12.196,-27.265 -27.234,-27.265 z m 0,1.905 c 14.008,0 25.329,11.351 25.329,25.359 0,14.008 -11.321,25.33 -25.329,25.33 -14.01,0 -25.33,-11.321 -25.33,-25.33 0,-14.009 11.32,-25.359 25.33,-25.359 z" /><path
             style="fill:#f4f4f4"
             inkscape:connector-curvature="0"
             id="path33"
             d="m 39.406,68.432 c -4.766,0 -8.662,3.896 -8.662,8.662 l 0,203.084 c 0,4.766 3.897,8.661 8.662,8.661 l 518.646,0 c 4.429,0 7.956,-3.411 8.453,-7.709 l 0.179,0 0,-0.952 0,-203.085 c 0,-4.762 -3.868,-8.658 -8.64,-8.658 l -518.645,0 0.007,-0.003 z m 0,1.904 518.646,0 c 3.737,0 6.727,3.021 6.727,6.757 l 0,202.131 0,0.953 c 0,3.736 -2.989,6.756 -6.727,6.756 l -518.646,0 c -3.732,0.01 -6.753,-3.019 -6.753,-6.753 l 0,-203.083 c 0,-3.736 3.02,-6.756 6.756,-6.756 l -0.003,-0.005 z" /><path
             style="fill:#f4f4f4"
             inkscape:connector-curvature="0"
             id="rect35"
             d="m 359.021,163.559 0,0.953 0,81.465 0,0.952 0.953,0 81.465,0 0.953,0 0,-0.952 0,-81.465 0,-0.953 -0.953,0 -81.465,0 -0.953,0 z m 1.906,1.905 79.561,0 0,79.56 -79.561,0 0,-79.56 z" /><path
             style="fill:#f4f4f4"
             inkscape:connector-curvature="0"
             id="rect37"
             d="m 448.248,163.559 0,0.953 0,81.465 0,0.952 0.953,0 81.436,0 0.952,0 0,-0.952 0,-81.465 0,-0.953 -0.952,0 -81.436,0 -0.953,0 z m 1.905,1.905 79.531,0 0,79.56 -79.531,0 0,-79.56 z" /><path
             style="fill:#f4f4f4"
             inkscape:connector-curvature="0"
             id="polyline39"
             d="m 83.934,94.177 0,2.292 0,159.061 0,2.322 1.607,-1.638 25.33,-25.299 -1.369,-1.369 -23.663,23.692 0,-154.45 23.663,23.658 1.369,-1.34 -25.33,-25.299 -1.607,-1.637 0,0.007 z" /><path
             style="fill:#f4f4f4"
             inkscape:connector-curvature="0"
             id="polyline41"
             d="m 222.305,232.551 -1.37,1.339 23.693,23.692 -154.452,0 23.574,-23.573 -1.369,-1.339 -25.181,25.182 -1.637,1.637 2.292,0 159.062,0 2.292,0 -1.607,-1.637 -25.299,-25.3 0.002,-0.001 z" /><path
             style="fill:#f4f4f4"
             inkscape:connector-curvature="0"
             id="polyline43"
             d="m 250.878,94.177 -1.637,1.637 -25.211,25.182 1.369,1.369 23.574,-23.603 0,154.509 -23.633,-23.663 -1.339,1.34 25.24,25.27 1.637,1.638 0,-2.322 0,-159.063 0,-2.292 0,-0.002 z" /><path
             style="fill:#f4f4f4"
             inkscape:connector-curvature="0"
             id="polyline45"
             d="m 85.57,92.54 1.638,1.608 25.21,25.24 1.339,-1.34 -23.572,-23.602 154.452,0 -23.669,23.662 1.333,1.339 25.307,-25.3 1.607,-1.607 -2.292,0 -159.062,0 -2.291,0 0,0 z" /><path
             style="fill:#f4f4f4"
             inkscape:connector-curvature="0"
             id="line47"
             d="m 58.961,69.533 0,218.057 1.905,0 0,-218.057 -1.905,0 z" /><path
             style="fill:#f4f4f4"
             inkscape:connector-curvature="0"
             id="rect49"
             d="m 359.021,145.819 0,0.953 0,13.244 0,0.953 0.953,0 81.465,0 0.953,0 0,-0.953 0,-13.244 0,-0.953 -0.953,0 -81.465,0 -0.953,0 z m 1.906,1.905 79.561,0 0,11.339 -79.561,0 0,-11.339 z" /><path
             style="fill:#f4f4f4"
             inkscape:connector-curvature="0"
             id="rect51"
             d="m 448.248,145.819 0,0.953 0,13.244 0,0.953 0.953,0 81.436,0 0.952,0 0,-0.953 0,-13.244 0,-0.953 -0.952,0 -81.436,0 -0.953,0 z m 1.905,1.905 79.531,0 0,11.339 -79.531,0 0,-11.339 z" /><path
             style="fill:#f4f4f4"
             inkscape:connector-curvature="0"
             id="path53"
             d="m 276.804,73.134 c -0.987,0 -1.815,0.828 -1.815,1.816 l 0,53.01 c 0,0.988 0.829,1.815 1.815,1.815 l 282.855,0 c 0.985,0 1.785,-0.831 1.785,-1.815 l 0,-50.033 c 0,-2.641 -2.152,-4.792 -4.792,-4.792 l -279.844,0 -0.004,0 z m 0.09,1.906 279.756,0 c 1.613,0 2.888,1.275 2.888,2.887 l 0,49.945 -282.643,0 0,-52.832 -10e-4,0 z" /><path
             style="fill:#f4f4f4"
             inkscape:connector-curvature="0"
             id="path55"
             d="m 276.804,260.41 c -0.987,0 -1.815,0.829 -1.815,1.815 l 0,20.091 c 0,0.987 0.829,1.816 1.815,1.816 l 279.844,0 c 2.64,0 4.792,-2.183 4.792,-4.822 l 0,-17.085 c 0,-0.985 -0.8,-1.815 -1.785,-1.815 l -282.855,0 0.004,0 z m 0.09,1.905 282.645,0 0,16.995 c 0,1.611 -1.276,2.917 -2.888,2.917 l -279.758,0 0.001,-19.912 0,0 z" /><path
             style="fill:#f4f4f4"
             inkscape:connector-curvature="0"
             id="line57"
             d="m 274.461,129.271 -6.28,6.28 1.369,1.339 6.251,-6.25 -1.34,-1.369 z" /><path
             style="fill:#f4f4f4"
             inkscape:connector-curvature="0"
             id="line59"
             d="m 269.546,253.866 -1.369,1.34 6.281,6.28 1.339,-1.369 -6.251,-6.251 z" /></g></g></g></g><g
     inkscape:groupmode="layer"
     id="layer4"
     inkscape:label="Controller"><g
       id="g8029"
       transform="matrix(0.65156246,-0.45765598,-0.33588273,0.88748572,153.45116,175.94032)"><path
         id="path7989"
         d="m 283.098,196.692 0,-39.636 39.637,-0.002 0,38.638 0,1 -39.637,0 0,0 z m 38.636,-1 0,-1.002 0,1.002 0,0 z m -36.636,-36.633 0,35.632 35.637,0 0,-35.634 -35.637,0.002 0,0 z"
         inkscape:connector-curvature="0"
         style="fill:#f4f4f4" /><path
         id="path7991"
         d="m 289.577,190.216 0,-26.682 26.678,0 0,25.68 0,1.002 -26.678,0 0,0 z m 25.679,-1.002 0,-1 0,1 0,0 z m -23.679,-1 22.678,0 0,-22.68 -22.678,0 0,22.68 0,0 z"
         inkscape:connector-curvature="0"
         style="fill:#f4f4f4" /><path
         id="path7993"
         d="m 340.903,342.966 c -0.051,0 -0.107,0 -0.17,-0.004 l 0,0 0,0 -75.713,-0.002 c 0,0 -0.004,0 -0.057,0.002 l 0,0 c -1.528,0.025 -2.554,-1.356 -2.589,-2.783 l 0,0 -8.566,-190.533 c -0.153,-1.471 -0.894,-2.08 -2.778,-2.167 l 0,0 0,-0.997 0.707,0.705 -1.414,-1.415 c 0.031,0.031 0.017,-0.208 0.707,-0.294 l 0,0 c 2.499,-0.088 4.677,1.494 4.776,4.061 l 0,0 8.564,190.524 c 0.12,0.813 0.302,0.873 0.594,0.899 l 0,0 c 0.004,0 0.048,-0.002 0.088,-0.002 l 0,0 75.703,0 0.046,0.004 c 0.025,0 0.061,0.004 0.104,0.004 l 0,0 c 0.335,-0.027 0.271,-0.047 0.359,-0.133 l 0,0 c 0.076,-0.1 0.172,-0.41 0.197,-0.754 l 0,0 8.563,-190.56 c 0.095,-2.55 2.278,-4.13 4.775,-4.042 l 0,0 0,1.998 c -1.884,0.088 -2.627,0.699 -2.778,2.151 l 0,0 -8.566,190.585 c -0.053,0.533 -0.145,1.144 -0.529,1.734 l 0,0 c -0.363,0.586 -1.129,1.02 -1.947,1.02 l 0,0 c -0.026,0.001 -0.051,0.001 -0.076,-10e-4 l 0,0 z"
         inkscape:connector-curvature="0"
         style="fill:#f4f4f4" /><path
         id="path7995"
         d="m 232.491,147.479 0,-140.851 140.848,0 0.002,139.849 0,1.002 -140.85,0 0,0 z m 139.849,-1.001 0,-1 0,1 0,0 z m -137.85,-1 136.85,0 -0.002,-136.849 -136.846,0 -0.002,136.849 0,0 z"
         inkscape:connector-curvature="0"
         style="fill:#f4f4f4" /><path
         id="path7997"
         d="m 256.879,127.381 c -2.371,-0.002 -4.289,-1.922 -4.291,-4.289 l 0,0 0,-92.077 c 0.002,-2.369 1.92,-4.289 4.291,-4.289 l 0,0 92.076,0 c 2.368,0.002 4.288,1.92 4.29,4.289 l 0,0 0,92.078 c -0.002,2.369 -1.922,4.287 -4.29,4.289 l 0,0 -92.076,0 0,-0.001 z m -2.29,-96.366 0,92.078 c 0.002,1.262 1.024,2.286 2.291,2.289 l 0,0 92.076,0 c 1.262,-0.002 2.286,-1.026 2.288,-2.289 l 0,0 0,-92.078 c 0,-1.262 -1.026,-2.286 -2.288,-2.288 l 0,0 -92.077,0 c -1.266,0.002 -2.288,1.025 -2.29,2.288 l 0,0 z"
         inkscape:connector-curvature="0"
         style="fill:#f4f4f4" /><path
         id="path7999"
         d="m 324.608,103.537 c 0.012,0 0.021,0 0.033,0 l 0,0 c -0.008,0 -0.014,0 -0.021,0 l 0,0 c -0.003,0 -0.008,0 -0.012,0 l 0,0 z m -0.004,0 -43.531,0 c -2.54,-0.002 -4.596,-2.057 -4.596,-4.594 l 0,0 0,-43.538 0,0 c 0,-10e-4 0,-10e-4 0,-0.002 l 0,0 c 0,-2.539 2.059,-4.592 4.596,-4.594 l 0,0 43.534,0.002 c 2.536,0 4.594,2.057 4.594,4.592 l 0,0 0.002,43.539 -0.002,0 c 0,2.525 -2.036,4.574 -4.56,4.594 l 0,0 c 0.056,-0.002 0.144,-0.015 0.3,-0.06 l 0,0 c 0.149,-0.016 0.659,-0.361 0.661,-0.918 l 0,0 c -0.025,-0.522 -0.225,-0.629 -0.275,-0.713 l 0,0 c -0.078,-0.081 -0.117,-0.104 -0.148,-0.128 l 0,0 -0.216,0.308 -0.359,1.512 c 0.002,0 0.003,0 0.004,0 l 0,0 c -10e-4,0 -0.002,0 -0.004,0 l 0,0 0,0 0,0 z m 0,-2.001 c 1.437,-0.002 2.596,-1.162 2.598,-2.593 l 0,0 0,-43.538 c -0.004,-1.434 -1.161,-2.593 -2.595,-2.595 l 0,0 -43.534,0 c -1.402,0.002 -2.543,1.11 -2.595,2.498 l 0,0 -0.002,43.634 c 0.004,1.432 1.164,2.591 2.597,2.593 l 0,0 43.529,0 0.002,0 0,0.001 z"
         inkscape:connector-curvature="0"
         style="fill:#f4f4f4" /><polygon
         id="polygon8001"
         points="268.867,53.882 261.175,62.085 261.175,35.904 287.357,35.904 279.065,43.685 286.45,51.068 285.036,52.482 276.192,43.637 282.302,37.905 263.176,37.903 263.176,57.028 268.82,51.009 278.037,60.227 278.039,60.227 276.623,61.641 "
         style="fill:#f4f4f4" /><polygon
         id="polygon8003"
         points="342.653,37.904 323.527,37.904 329.641,43.64 320.795,52.483 319.382,51.067 326.766,43.686 318.478,35.905 344.655,35.901 344.655,62.089 336.965,53.884 329.209,61.641 327.793,60.228 337.011,51.007 342.653,57.027 "
         style="fill:#f4f4f4" /><polygon
         id="polygon8005"
         points="323.528,116.204 342.654,116.204 342.652,97.079 337.012,103.099 327.794,93.88 329.208,92.464 336.966,100.219 344.652,92.017 344.656,118.205 318.474,118.205 326.767,110.42 319.383,103.041 320.794,101.625 329.64,110.466 "
         style="fill:#f4f4f4" /><polygon
         id="polygon8007"
         points="279.064,110.419 287.358,118.203 261.178,118.203 261.178,92.022 268.866,100.221 276.624,92.465 276.626,92.465 278.038,93.879 268.821,103.095 263.179,97.078 263.179,116.204 282.303,116.204 276.191,110.467 285.037,101.625 286.449,103.04 "
         style="fill:#f4f4f4" /><path
         id="path8009"
         d="m 288.118,96.142 c -2.37,-0.002 -4.289,-1.921 -4.289,-4.287 l 0,0 0,-29.6 c 0,-2.368 1.919,-4.287 4.289,-4.287 l 0,0 29.596,-0.002 c 2.368,0.002 4.289,1.919 4.291,4.289 l 0,0 -0.002,29.597 c 0,2.368 -1.921,4.287 -4.291,4.289 l 0,0 -29.594,0 0,10e-4 z m -2.29,-33.887 0,29.599 c 0.002,1.261 1.026,2.284 2.29,2.286 l 0,0 29.596,0 c 1.264,-0.002 2.286,-1.024 2.288,-2.288 l 0,0 0.002,-29.597 c -0.002,-1.263 -1.026,-2.286 -2.29,-2.288 l 0,0 -29.596,0 c -1.265,0.002 -2.288,1.026 -2.29,2.288 l 0,0 z"
         inkscape:connector-curvature="0"
         style="fill:#f4f4f4" /><path
         id="path8011"
         d="m 291.092,77.125 c -0.003,-0.033 -0.004,-0.076 0,-0.13 l 0,0 c 0.034,-6.503 5.313,-11.763 11.823,-11.766 l 0,0 c 6.532,0.002 11.824,5.294 11.824,11.824 l 0,0 0.002,0 c -0.002,6.532 -5.294,11.824 -11.826,11.826 l 0,0 C 296.408,88.877 291.13,83.624 291.092,77.125 l 0,0 z m 11.823,9.752 c 5.426,-0.008 9.816,-4.398 9.825,-9.825 l 0,0 c -0.011,-5.424 -4.399,-9.814 -9.825,-9.822 l 0,0 c -5.426,0.008 -9.814,4.398 -9.824,9.822 l 0,0 c 0.01,5.429 4.398,9.818 9.824,9.825 l 0,0 z m -9.825,-9.874 c -0.003,-0.078 -0.01,-0.1 -0.013,-0.106 l 0,0 c 0.003,0.02 0.01,0.055 0.013,0.106 l 0,0 z"
         inkscape:connector-curvature="0"
         style="fill:#f4f4f4" /><polygon
         id="polygon8013"
         points="344.234,291.442 261.107,291.442 261.107,289.442 344.234,289.442 "
         style="fill:#f4f4f4" /><path
         id="path8015"
         d="m 269.195,339.724 c -1.175,-0.049 -1.921,-0.068 -2.651,-0.633 l 0,0 c -0.726,-0.664 -0.68,-1.441 -0.715,-2.022 l 0,0 -2.175,-44.071 78.523,0 -2.173,44.055 c -0.036,0.599 0.01,1.379 -0.718,2.041 l 0,0 c -0.73,0.563 -1.478,0.584 -2.649,0.629 l 0,0 -0.021,-0.997 0,1 -67.421,-0.002 0,0 z m -1.11,-2.09 c 0.23,0.045 0.614,0.078 1.128,0.089 l 0,0 67.383,0 c 0.771,-0.005 1.227,-0.095 1.361,-0.144 l 0,0 c 0.021,-0.088 0.038,-0.3 0.047,-0.609 l 0,0 2.072,-41.973 -74.324,0 2.072,41.984 c 0.006,0.296 0.03,0.505 0.047,0.596 l 0,0 c 0.042,0.016 0.112,0.039 0.214,0.057 l 0,0 z"
         inkscape:connector-curvature="0"
         style="fill:#f4f4f4" /><path
         id="path8017"
         d="m 272.666,77.053 c 0,-5.197 1.314,-10.095 3.625,-14.367 l 0,0 1.759,0.951 c -2.159,3.992 -3.383,8.557 -3.383,13.416 l 0,0 c 0,5.306 1.46,10.265 4.002,14.505 l 0,0 -1.716,1.029 c -2.721,-4.541 -4.287,-9.858 -4.287,-15.534 l 0,0 z"
         inkscape:connector-curvature="0"
         style="fill:#f4f4f4" /><path
         id="path8019"
         d="m 288.008,103.38 0.987,-1.739 c 4.11,2.333 8.855,3.663 13.922,3.663 l 0,0 c 5.303,0 10.258,-1.46 14.495,-3.999 l 0,0 0.002,0 1.026,1.714 c -4.537,2.719 -9.853,4.285 -15.523,4.285 l 0,0 c -5.418,0.002 -10.511,-1.427 -14.909,-3.924 l 0,0 z"
         inkscape:connector-curvature="0"
         style="fill:#f4f4f4" /><path
         id="path8021"
         d="m 327.016,91.802 c 2.634,-4.295 4.15,-9.341 4.15,-14.748 l 0,0 c 0,-5.238 -1.423,-10.136 -3.905,-14.34 l 0,0 0.002,0 1.721,-1.018 c 2.657,4.501 4.185,9.754 4.185,15.357 l 0,0 c 0,5.785 -1.628,11.196 -4.447,15.792 l 0,0 -1.706,-1.043 0,0 z"
         inkscape:connector-curvature="0"
         style="fill:#f4f4f4" /><path
         id="path8023"
         d="m 288.457,52.779 c 0,0 0.001,0 0,0 l 0,0 0,0 0,0 0,0 z m -1.024,-1.717 c 4.528,-2.703 9.83,-4.258 15.483,-4.258 l 0,0 c 5.536,0 10.731,1.489 15.197,4.089 l 0,0 -1.011,1.728 c -4.169,-2.427 -9.013,-3.817 -14.188,-3.817 l 0,0 c -5.287,0 -10.227,1.45 -14.458,3.975 l 0,0 -1.023,-1.717 0,0 z"
         inkscape:connector-curvature="0"
         style="fill:#f4f4f4" /></g></g></svg>