<?xml version="1.0" encoding="UTF-8" standalone="no"?>
<!-- Generator: Adobe Illustrator 13.0.0, SVG Export Plug-In . SVG Version: 6.00 Build 14948)  -->

<svg
   xmlns:dc="http://purl.org/dc/elements/1.1/"
   xmlns:cc="http://creativecommons.org/ns#"
   xmlns:rdf="http://www.w3.org/1999/02/22-rdf-syntax-ns#"
   xmlns:svg="http://www.w3.org/2000/svg"
   xmlns="http://www.w3.org/2000/svg"
   xmlns:sodipodi="http://sodipodi.sourceforge.net/DTD/sodipodi-0.dtd"
   xmlns:inkscape="http://www.inkscape.org/namespaces/inkscape"
   version="1.1"
   id="Layer_2"
   x="0px"
   y="0px"
   width="550"
   height="550"
   viewBox="0 0 549.99995 549.99999"
   enable-background="new 0 0 598.189 350.26"
   xml:space="preserve"
   inkscape:version="0.91 r13725"
   sodipodi:docname="controller_gg.svg"><metadata
     id="metadata3083"><rdf:RDF><cc:Work
         rdf:about=""><dc:format>image/svg+xml</dc:format><dc:type
           rdf:resource="http://purl.org/dc/dcmitype/StillImage" /><dc:title></dc:title></cc:Work></rdf:RDF></metadata><defs
     id="defs3081" /><sodipodi:namedview
     pagecolor="#ffffff"
     bordercolor="#666666"
     borderopacity="1"
     objecttolerance="10"
     gridtolerance="10"
     guidetolerance="10"
     inkscape:pageopacity="0"
     inkscape:pageshadow="2"
     inkscape:window-width="1920"
     inkscape:window-height="1001"
     id="namedview3079"
     showgrid="false"
     inkscape:zoom="1.0799262"
     inkscape:cx="286.73678"
     inkscape:cy="382.70167"
     inkscape:window-x="-9"
     inkscape:window-y="-9"
     inkscape:window-maximized="1"
     inkscape:current-layer="layer4"
     showguides="true"
     inkscape:guide-bbox="true" /><g
     inkscape:groupmode="layer"
     id="layer2"
     inkscape:label="Screen_Rect"
     style="display:none"
     transform="translate(0,199.73999)"
     sodipodi:insensitive="true"><path
       style="fill:#ffffff;stroke:#000000;stroke-width:1px;stroke-linecap:butt;stroke-linejoin:miter;stroke-opacity:1"
       d="M 5.0135033,547.22203 136.4109,114.39023 653.54628,-189.09358 406.482,260.92121 Z"
       id="path3021"
       inkscape:connector-curvature="0"
       transform="translate(-2e-5,-199.73999)"
       sodipodi:nodetypes="ccccc" /><rect
       style="opacity:0.60100002;fill:#d8201f;fill-opacity:1;stroke:#ff8080;stroke-width:2.45114732;stroke-linecap:round;stroke-linejoin:round;stroke-miterlimit:4;stroke-dasharray:none;stroke-opacity:1"
       id="rect4230"
       width="444.2457"
       height="9.9567661"
       x="145.95099"
       y="-211.30678" /></g><g
     inkscape:groupmode="layer"
     id="layer1"
     inkscape:label="Controller_Vorlage"
     style="display:none"
     sodipodi:insensitive="true"><g
       id="g4929"
       transform="translate(-0.929149,0.5695451)"><g
         transform="translate(0,199.73999)"
         style="display:none"
         inkscape:label="Layer2"
         id="layer2-9"><path
           sodipodi:nodetypes="ccccc"
           transform="translate(-2e-5,-199.73999)"
           inkscape:connector-curvature="0"
           id="path3021-0"
           d="M 5.0135033,547.22203 136.4109,114.39023 653.54628,-189.09358 406.482,260.92121 Z"
           style="fill:#ffffff;stroke:#000000;stroke-width:1px;stroke-linecap:butt;stroke-linejoin:miter;stroke-opacity:1" /></g><g
         inkscape:label="Layer"
         id="layer1-2"><g
           transform="matrix(0.55322035,-0.3970343,-0.34863416,0.85569517,173.63773,166.52161)"
           id="g3100"><path
             style="fill:#f4f4f4"
             inkscape:connector-curvature="0"
             id="path3"
             d="m 148.05,114.447 c -23.656,0 -42.861,19.204 -42.861,42.861 l 0,37.414 c 0,23.658 19.205,42.86 42.861,42.86 l 38.694,0 c 23.656,0 42.861,-19.202 42.861,-42.86 l 0,-37.414 c 0,-23.657 -19.205,-42.861 -42.861,-42.861 l -38.694,0 z m 0,1.905 38.694,0 c 22.627,0 40.956,18.328 40.956,40.956 l 0,37.414 c 0,22.629 -18.329,40.956 -40.956,40.956 l -38.694,0 c -22.628,0 -40.956,-18.327 -40.956,-40.956 l 0,-37.414 c 0,-22.629 18.328,-40.956 40.956,-40.956 z" /><path
             style="fill:#f4f4f4"
             inkscape:connector-curvature="0"
             id="path5"
             d="m 167.395,123.168 c -3.23,0 -5.863,2.633 -5.863,5.864 l 0,13.037 c 0,3.23 2.632,5.863 5.863,5.863 3.23,0 5.863,-2.633 5.863,-5.863 l 0,-13.037 c 0,-3.23 -2.633,-5.864 -5.863,-5.864 z m 0,1.906 c 2.201,0 3.958,1.758 3.958,3.958 l 0,13.037 c 0,2.2 -1.758,3.958 -3.958,3.958 -2.202,0 -3.958,-1.758 -3.958,-3.958 l 0,-13.037 c -0.001,-2.2 1.757,-3.958 3.958,-3.958 z" /><path
             style="fill:#f4f4f4"
             inkscape:connector-curvature="0"
             id="path7"
             d="m 120.425,170.135 c -3.23,0 -5.864,2.633 -5.864,5.864 0,3.231 2.632,5.894 5.864,5.894 l 13.037,0 c 3.229,0 5.864,-2.662 5.864,-5.894 0,-3.229 -2.633,-5.864 -5.864,-5.864 l -13.037,0 z m 0,1.905 13.037,0 c 2.201,0 3.959,1.759 3.959,3.959 0,2.201 -1.759,3.988 -3.959,3.988 l -13.037,0 c -2.198,-0.01 -3.955,-1.791 -3.955,-3.99 0,-2.201 1.758,-3.959 3.958,-3.959 l -0.003,0.002 z" /><path
             style="fill:#f4f4f4"
             inkscape:connector-curvature="0"
             id="path9"
             d="m 167.395,204.071 c -3.23,0 -5.863,2.663 -5.863,5.894 l 0,13.038 c 0,3.229 2.632,5.863 5.863,5.863 3.23,0 5.863,-2.633 5.863,-5.863 l 0,-13.038 c 0,-3.23 -2.633,-5.894 -5.863,-5.894 z m 0,1.906 c 2.201,0 3.958,1.789 3.958,3.988 l 0,13.038 c 0,2.2 -1.757,3.958 -3.958,3.958 -2.202,0 -3.958,-1.759 -3.958,-3.958 l 0,-13.038 c -0.001,-2.2 1.757,-3.988 3.958,-3.988 z" /><path
             style="fill:#f4f4f4"
             inkscape:connector-curvature="0"
             id="path11"
             d="m 201.321,170.135 c -3.229,0 -5.863,2.633 -5.863,5.864 0,3.231 2.633,5.894 5.863,5.894 l 13.067,0 c 3.229,0 5.863,-2.662 5.863,-5.894 0,-3.229 -2.633,-5.864 -5.863,-5.864 l -13.067,0 z m 0,1.905 13.067,0 c 2.2,0 3.958,1.76 3.958,3.959 0,2.201 -1.758,3.988 -3.958,3.988 l -13.067,0 c -2.2,0 -3.958,-1.788 -3.958,-3.988 0,-2.2 1.759,-3.959 3.958,-3.959 z" /><path
             style="fill:#f4f4f4"
             inkscape:connector-curvature="0"
             id="polygon13"
             d="m 133.878,141.176 -1.31,1.31 8.155,12.025 0.655,0.952 0.804,-0.803 3.869,-3.87 0.804,-0.804 -0.953,-0.655 -12.024,-8.155 z" /><path
             style="fill:#f4f4f4"
             inkscape:connector-curvature="0"
             id="polygon15"
             d="m 141.383,196.566 -0.654,0.952 -8.156,12.024 1.31,1.31 12.025,-8.155 0.953,-0.654 -0.804,-0.804 -3.87,-3.869 -0.804,-0.804 z" /><path
             style="fill:#f4f4f4"
             inkscape:connector-curvature="0"
             id="polygon17"
             d="m 193.435,196.566 -0.804,0.804 -3.869,3.869 -0.833,0.804 0.953,0.654 12.025,8.155 1.339,-1.31 -8.156,-12.024 -0.655,-0.952 0,0 z" /><path
             style="fill:#f4f4f4"
             inkscape:connector-curvature="0"
             id="polygon19"
             d="m 200.912,141.176 -12.025,8.155 -0.953,0.655 0.833,0.804 3.87,3.87 0.804,0.803 0.655,-0.952 8.155,-12.025 -1.339,-1.31 z" /><path
             style="fill:#f4f4f4"
             inkscape:connector-curvature="0"
             id="path21"
             d="m 146.354,104.833 c -27.67,0 -50.123,22.453 -50.123,50.124 l 0,42.117 c 0,27.671 22.453,50.123 50.123,50.123 l 42.117,0 c 27.671,0 50.124,-22.452 50.124,-50.123 l 0,-42.117 c 0,-27.67 -22.452,-50.124 -50.124,-50.124 l -42.117,0 z m 0,1.906 42.117,0 c 26.644,0 48.219,21.577 48.219,48.218 l 0,42.117 c 0,26.644 -21.577,48.218 -48.219,48.218 l -42.117,0 c -26.642,0 -48.218,-21.574 -48.218,-48.218 l 0,-42.117 c 0,-26.642 21.577,-48.218 48.218,-48.218 z" /><path
             style="fill:#f4f4f4"
             inkscape:connector-curvature="0"
             id="polygon23"
             d="m 69.499,75.694 0,0.952 0,202.961 0,0.952 0.953,0 196.122,0 0.952,0 0,-0.952 0,-26.401 289.521,0 0.952,0 0,-0.952 0,-113.458 0,-0.953 -0.952,0 -289.522,0 0,-61.196 0,-0.952 -0.952,0 -196.122,0 -0.952,-10e-4 0,0 z m 1.904,1.905 194.217,0 0,61.196 0,0.953 0.953,0 0.714,0 288.807,0 0,111.552 -289.226,0 -0.297,0 -0.953,0 0,0.953 0,26.4 -194.217,0 0,-201.055 0.002,0.001 z" /><path
             style="fill:#f4f4f4"
             inkscape:connector-curvature="0"
             id="circle25"
             d="m 400.692,169.126 c -19.762,0 -35.777,16.046 -35.777,35.807 0,19.761 16.018,35.807 35.777,35.807 19.759,0 35.807,-16.046 35.807,-35.807 0,-19.761 -16.047,-35.807 -35.807,-35.807 l 0,0 z m 0,1.905 c 18.73,0 33.901,15.17 33.901,33.902 0,18.732 -15.171,33.902 -33.901,33.902 -18.731,0 -33.872,-15.171 -33.872,-33.902 0,-18.731 15.141,-33.902 33.872,-33.902 l 0,0 z" /><path
             style="fill:#f4f4f4"
             inkscape:connector-curvature="0"
             id="circle27"
             d="m 400.692,177.669 c -15.039,0 -27.234,12.227 -27.234,27.265 0,15.038 12.195,27.234 27.234,27.234 15.036,0 27.264,-12.196 27.264,-27.234 0,-15.038 -12.227,-27.265 -27.264,-27.265 z m 0,1.905 c 14.008,0 25.359,11.351 25.359,25.359 0,14.008 -11.352,25.33 -25.359,25.33 -14.01,0 -25.33,-11.321 -25.33,-25.33 0,-14.009 11.321,-25.359 25.33,-25.359 z" /><path
             style="fill:#f4f4f4"
             inkscape:connector-curvature="0"
             id="circle29"
             d="m 489.919,169.126 c -19.762,0 -35.807,16.046 -35.807,35.807 0,19.761 16.045,35.807 35.807,35.807 19.76,0 35.807,-16.046 35.807,-35.807 0,-19.761 -16.047,-35.807 -35.807,-35.807 l 0,0 z m 0,1.905 c 18.73,0 33.901,15.17 33.901,33.902 0,18.732 -15.171,33.902 -33.901,33.902 -18.731,0 -33.902,-15.171 -33.902,-33.902 0,-18.731 15.171,-33.902 33.902,-33.902 l 0,0 z" /><path
             style="fill:#f4f4f4"
             inkscape:connector-curvature="0"
             id="circle31"
             d="m 489.919,177.669 c -15.039,0 -27.234,12.227 -27.234,27.265 0,15.038 12.195,27.234 27.234,27.234 15.036,0 27.234,-12.196 27.234,-27.234 0,-15.038 -12.196,-27.265 -27.234,-27.265 z m 0,1.905 c 14.008,0 25.329,11.351 25.329,25.359 0,14.008 -11.321,25.33 -25.329,25.33 -14.01,0 -25.33,-11.321 -25.33,-25.33 0,-14.009 11.32,-25.359 25.33,-25.359 z" /><path
             style="fill:#f4f4f4"
             inkscape:connector-curvature="0"
             id="path33"
             d="m 39.406,68.432 c -4.766,0 -8.662,3.896 -8.662,8.662 l 0,203.084 c 0,4.766 3.897,8.661 8.662,8.661 l 518.646,0 c 4.429,0 7.956,-3.411 8.453,-7.709 l 0.179,0 0,-0.952 0,-203.085 c 0,-4.762 -3.868,-8.658 -8.64,-8.658 l -518.645,0 0.007,-0.003 z m 0,1.904 518.646,0 c 3.737,0 6.727,3.021 6.727,6.757 l 0,202.131 0,0.953 c 0,3.736 -2.989,6.756 -6.727,6.756 l -518.646,0 c -3.732,0.01 -6.753,-3.019 -6.753,-6.753 l 0,-203.083 c 0,-3.736 3.02,-6.756 6.756,-6.756 l -0.003,-0.005 z" /><path
             style="fill:#f4f4f4"
             inkscape:connector-curvature="0"
             id="rect35"
             d="m 359.021,163.559 0,0.953 0,81.465 0,0.952 0.953,0 81.465,0 0.953,0 0,-0.952 0,-81.465 0,-0.953 -0.953,0 -81.465,0 -0.953,0 z m 1.906,1.905 79.561,0 0,79.56 -79.561,0 0,-79.56 z" /><path
             style="fill:#f4f4f4"
             inkscape:connector-curvature="0"
             id="rect37"
             d="m 448.248,163.559 0,0.953 0,81.465 0,0.952 0.953,0 81.436,0 0.952,0 0,-0.952 0,-81.465 0,-0.953 -0.952,0 -81.436,0 -0.953,0 z m 1.905,1.905 79.531,0 0,79.56 -79.531,0 0,-79.56 z" /><path
             style="fill:#f4f4f4"
             inkscape:connector-curvature="0"
             id="polyline39"
             d="m 83.934,94.177 0,2.292 0,159.061 0,2.322 1.607,-1.638 25.33,-25.299 -1.369,-1.369 -23.663,23.692 0,-154.45 23.663,23.658 1.369,-1.34 -25.33,-25.299 -1.607,-1.637 0,0.007 z" /><path
             style="fill:#f4f4f4"
             inkscape:connector-curvature="0"
             id="polyline41"
             d="m 222.305,232.551 -1.37,1.339 23.693,23.692 -154.452,0 23.574,-23.573 -1.369,-1.339 -25.181,25.182 -1.637,1.637 2.292,0 159.062,0 2.292,0 -1.607,-1.637 -25.299,-25.3 0.002,-0.001 z" /><path
             style="fill:#f4f4f4"
             inkscape:connector-curvature="0"
             id="polyline43"
             d="m 250.878,94.177 -1.637,1.637 -25.211,25.182 1.369,1.369 23.574,-23.603 0,154.509 -23.633,-23.663 -1.339,1.34 25.24,25.27 1.637,1.638 0,-2.322 0,-159.063 0,-2.292 0,-0.002 z" /><path
             style="fill:#f4f4f4"
             inkscape:connector-curvature="0"
             id="polyline45"
             d="m 85.57,92.54 1.638,1.608 25.21,25.24 1.339,-1.34 -23.572,-23.602 154.452,0 -23.669,23.662 1.333,1.339 25.307,-25.3 1.607,-1.607 -2.292,0 -159.062,0 -2.291,0 0,0 z" /><path
             style="fill:#f4f4f4"
             inkscape:connector-curvature="0"
             id="line47"
             d="m 58.961,69.533 0,218.057 1.905,0 0,-218.057 -1.905,0 z" /><path
             style="fill:#f4f4f4"
             inkscape:connector-curvature="0"
             id="rect49"
             d="m 359.021,145.819 0,0.953 0,13.244 0,0.953 0.953,0 81.465,0 0.953,0 0,-0.953 0,-13.244 0,-0.953 -0.953,0 -81.465,0 -0.953,0 z m 1.906,1.905 79.561,0 0,11.339 -79.561,0 0,-11.339 z" /><path
             style="fill:#f4f4f4"
             inkscape:connector-curvature="0"
             id="rect51"
             d="m 448.248,145.819 0,0.953 0,13.244 0,0.953 0.953,0 81.436,0 0.952,0 0,-0.953 0,-13.244 0,-0.953 -0.952,0 -81.436,0 -0.953,0 z m 1.905,1.905 79.531,0 0,11.339 -79.531,0 0,-11.339 z" /><path
             style="fill:#f4f4f4"
             inkscape:connector-curvature="0"
             id="path53"
             d="m 276.804,73.134 c -0.987,0 -1.815,0.828 -1.815,1.816 l 0,53.01 c 0,0.988 0.829,1.815 1.815,1.815 l 282.855,0 c 0.985,0 1.785,-0.831 1.785,-1.815 l 0,-50.033 c 0,-2.641 -2.152,-4.792 -4.792,-4.792 l -279.844,0 -0.004,0 z m 0.09,1.906 279.756,0 c 1.613,0 2.888,1.275 2.888,2.887 l 0,49.945 -282.643,0 0,-52.832 -10e-4,0 z" /><path
             style="fill:#f4f4f4"
             inkscape:connector-curvature="0"
             id="path55"
             d="m 276.804,260.41 c -0.987,0 -1.815,0.829 -1.815,1.815 l 0,20.091 c 0,0.987 0.829,1.816 1.815,1.816 l 279.844,0 c 2.64,0 4.792,-2.183 4.792,-4.822 l 0,-17.085 c 0,-0.985 -0.8,-1.815 -1.785,-1.815 l -282.855,0 0.004,0 z m 0.09,1.905 282.645,0 0,16.995 c 0,1.611 -1.276,2.917 -2.888,2.917 l -279.758,0 0.001,-19.912 0,0 z" /><path
             style="fill:#f4f4f4"
             inkscape:connector-curvature="0"
             id="line57"
             d="m 274.461,129.271 -6.28,6.28 1.369,1.339 6.251,-6.25 -1.34,-1.369 z" /><path
             style="fill:#f4f4f4"
             inkscape:connector-curvature="0"
             id="line59"
             d="m 269.546,253.866 -1.369,1.34 6.281,6.28 1.339,-1.369 -6.251,-6.251 z" /></g></g></g></g><g
     inkscape:groupmode="layer"
     id="layer4"
     inkscape:label="Controller"><g
       id="g6079"
       transform="matrix(0.51797377,-0.35573679,-0.27412028,0.70623555,162.1357,187.71091)"><g
         id="g5447"><path
           id="path5449"
           d="m 143.577,201.482 c -0.644,0 -1.169,-0.522 -1.169,-1.168 l 0,0 0,-22.213 c 0.002,-0.646 0.523,-1.165 1.169,-1.168 l 0,0 22.212,0 c 0.648,0.002 1.167,0.522 1.169,1.168 l 0,0 0,22.213 c -0.002,0.645 -0.525,1.168 -1.169,1.169 l 0,0 -22.212,-0.001 0,0 z m 21.771,-1.609 0,-21.328 -21.328,0 0,21.326 21.328,0.002 0,0 z"
           inkscape:connector-curvature="0"
           style="fill:#f4f4f4" /><path
           id="path5451"
           d="m 150.967,197.539 c -2.85,-10e-4 -5.156,-2.311 -5.159,-5.156 l 0,0 0,-6.348 c 0.001,-2.85 2.309,-5.156 5.159,-5.156 l 0,0 7.434,0 c 2.848,0 5.157,2.307 5.157,5.156 l 0,0 0,6.348 c 0,2.847 -2.309,5.155 -5.157,5.156 l 0,0 -7.434,0 0,0 z m -3.547,-11.504 0,6.348 c 0.003,1.956 1.588,3.542 3.546,3.544 l 0,0 7.434,0 c 1.957,-0.002 3.542,-1.588 3.545,-3.544 l 0,0 0.001,0 -0.001,-6.348 c -0.003,-1.96 -1.586,-3.544 -3.545,-3.546 l 0,0 -7.434,0 c -1.959,0.002 -3.542,1.587 -3.546,3.546 l 0,0 z"
           inkscape:connector-curvature="0"
           style="fill:#f4f4f4" /></g><g
         id="g5453"><path
           id="path5455"
           d="m 167.574,201.483 c -0.646,-0.002 -1.168,-0.524 -1.169,-1.17 l 0,0 0.001,-22.211 c 0,-0.646 0.52,-1.168 1.168,-1.168 l 0,0 22.213,0 c 0.646,0 1.167,0.522 1.167,1.168 l 0,0 0,22.211 c -0.001,0.646 -0.523,1.168 -1.167,1.17 l 0,0 -22.213,0 0,0 z m 21.769,-1.611 0,-21.328 -21.327,0 0,21.328 21.327,0 0,0 z"
           inkscape:connector-curvature="0"
           style="fill:#f4f4f4" /><path
           id="path5457"
           d="m 174.962,197.538 c -2.85,0 -5.157,-2.308 -5.157,-5.154 l 0,0 -0.002,-6.348 c 0.002,-2.85 2.309,-5.156 5.159,-5.156 l 0,0 7.435,0 c 2.848,0 5.156,2.307 5.156,5.156 l 0,0 0,6.348 c 0,2.847 -2.309,5.154 -5.156,5.155 l 0,0 -7.435,-10e-4 0,0 z m -3.546,-11.503 0,6.348 c 0.003,1.956 1.588,3.542 3.546,3.544 l 0,0 7.435,0 c 1.958,-0.002 3.542,-1.588 3.544,-3.544 l 0,0 0.002,0 -0.002,-6.348 c -0.003,-1.96 -1.587,-3.544 -3.544,-3.546 l 0,0 -7.435,0 c -1.958,0.002 -3.543,1.587 -3.546,3.546 l 0,0 z"
           inkscape:connector-curvature="0"
           style="fill:#f4f4f4" /></g><g
         id="g5459"><path
           id="path5461"
           d="m 191.569,201.482 c -0.644,0 -1.167,-0.522 -1.169,-1.168 l 0,0 0.002,-22.213 c 0,-0.646 0.521,-1.165 1.167,-1.168 l 0,0 22.214,0 c 0.645,0.002 1.166,0.522 1.167,1.168 l 0,0 0,22.213 c 0,0.646 -0.523,1.168 -1.167,1.169 l 0,0 -22.214,-0.001 0,0 z m 21.769,-1.609 0,-21.328 -21.327,0 0,21.326 21.327,0.002 0,0 z"
           inkscape:connector-curvature="0"
           style="fill:#f4f4f4" /><path
           id="path5463"
           d="m 198.958,197.538 c -2.848,0 -5.156,-2.308 -5.156,-5.154 l 0,0 0,-6.348 c 0,-2.85 2.309,-5.156 5.156,-5.156 l 0,0 7.434,0 c 2.849,0 5.158,2.307 5.158,5.156 l 0,0 0,6.348 c 0,2.845 -2.309,5.154 -5.158,5.155 l 0,0 -7.434,-10e-4 0,0 z m -3.547,-11.503 0,6.348 c 0.003,1.956 1.588,3.542 3.546,3.544 l 0,0 7.434,0 c 1.958,-0.002 3.542,-1.588 3.547,-3.544 l 0,0 0,-6.348 c -0.005,-1.96 -1.588,-3.544 -3.547,-3.546 l 0,0 -7.434,0 c -1.957,0.002 -3.543,1.587 -3.546,3.546 l 0,0 z"
           inkscape:connector-curvature="0"
           style="fill:#f4f4f4" /></g><g
         id="g5465"><path
           id="path5467"
           d="m 215.565,201.483 c -0.644,-0.002 -1.167,-0.524 -1.169,-1.17 l 0,0 0.002,-22.211 c 0,-0.644 0.52,-1.168 1.167,-1.168 l 0,0 22.213,0 c 0.646,0 1.166,0.522 1.168,1.168 l 0,0 0,22.211 c -0.002,0.646 -0.523,1.168 -1.168,1.17 l 0,0 -22.213,0 0,0 z m 21.77,-1.611 0,-21.328 -21.326,0 -10e-4,21.328 21.327,0 0,0 z"
           inkscape:connector-curvature="0"
           style="fill:#f4f4f4" /><path
           id="path5469"
           d="m 222.954,197.539 c -2.849,-10e-4 -5.157,-2.31 -5.157,-5.156 l 0,0 0,-6.348 c 0,-2.85 2.309,-5.156 5.157,-5.156 l 0,0 7.434,0 c 2.848,0 5.156,2.307 5.156,5.156 l 0,0 0,6.348 c 0,2.847 -2.308,5.155 -5.156,5.156 l 0,0 -7.434,0 0,0 z m -3.547,-11.504 0,6.348 c 0.004,1.956 1.588,3.542 3.547,3.544 l 0,0 7.433,0 c 1.959,-0.002 3.544,-1.588 3.547,-3.544 l 0,0 0,-6.348 c -0.003,-1.96 -1.588,-3.544 -3.547,-3.546 l 0,0 -7.433,0 c -1.958,0.002 -3.542,1.587 -3.547,3.546 l 0,0 z"
           inkscape:connector-curvature="0"
           style="fill:#f4f4f4" /></g><g
         id="g5471"><path
           id="path5473"
           d="m 239.561,201.482 c -0.644,0 -1.167,-0.524 -1.167,-1.168 l 0,0 0,-22.213 c 0,-0.644 0.521,-1.165 1.167,-1.168 l 0,0 22.213,0 c 0.646,0.002 1.168,0.524 1.168,1.168 l 0,0 0,22.213 c -0.001,0.644 -0.522,1.168 -1.168,1.169 l 0,0 -22.213,-0.001 0,0 z m 21.769,-1.609 0,-21.328 -21.326,0 0,21.326 21.326,0.002 0,0 z"
           inkscape:connector-curvature="0"
           style="fill:#f4f4f4" /><path
           id="path5475"
           d="m 246.949,197.539 c -2.848,-10e-4 -5.157,-2.31 -5.157,-5.156 l 0,0 0,-6.348 c 0,-2.85 2.309,-5.156 5.157,-5.156 l 0,0 7.434,0 c 2.85,0 5.157,2.307 5.157,5.156 l 0,0 0,6.348 10e-4,0 c -10e-4,2.846 -2.309,5.155 -5.159,5.156 l 0,0 -7.433,0 0,0 z m -3.547,-11.504 0,6.348 c 0.005,1.956 1.59,3.542 3.547,3.544 l 0,0 7.434,0 c 1.959,-0.002 3.543,-1.588 3.547,-3.544 l 0,0 0,-6.348 c -0.003,-1.96 -1.587,-3.544 -3.547,-3.546 l 0,0 -7.434,0 c -1.958,0.002 -3.542,1.587 -3.547,3.546 l 0,0 z"
           inkscape:connector-curvature="0"
           style="fill:#f4f4f4" /></g><g
         id="g5477"><path
           id="path5479"
           d="m 263.558,201.482 c -0.645,0 -1.168,-0.524 -1.169,-1.168 l 0,0 10e-4,-22.213 c 0,-0.644 0.521,-1.165 1.168,-1.168 l 0,0 22.213,0 c 0.646,0.002 1.167,0.524 1.167,1.168 l 0,0 0,22.213 c 0,0.644 -0.522,1.168 -1.167,1.169 l 0,0 -22.213,-0.001 0,0 z m 21.769,-1.609 0,-21.328 -21.327,0 0,21.326 21.327,0.002 0,0 z"
           inkscape:connector-curvature="0"
           style="fill:#f4f4f4" /><path
           id="path5481"
           d="m 270.946,197.538 c -2.85,0 -5.159,-2.308 -5.159,-5.154 l 0,0 0,-6.348 c 0,-2.85 2.309,-5.156 5.159,-5.156 l 0,0 7.434,0 c 2.848,0 5.157,2.307 5.157,5.156 l 0,0 0,6.348 c -10e-4,2.845 -2.309,5.154 -5.157,5.155 l 0,0 -7.434,-10e-4 0,0 z m -3.548,-11.503 0.002,6.348 c 0.003,1.956 1.589,3.542 3.547,3.544 l 0,0 7.434,0 c 1.958,-0.002 3.542,-1.588 3.544,-3.544 l 0,0 0.002,0 -0.002,-6.348 c -0.002,-1.96 -1.586,-3.544 -3.544,-3.546 l 0,0 -7.435,0 c -1.96,0.002 -3.543,1.587 -3.548,3.546 l 0,0 z"
           inkscape:connector-curvature="0"
           style="fill:#f4f4f4" /></g><g
         id="g5483"><path
           id="path5485"
           d="m 287.553,201.482 c -0.645,0 -1.168,-0.524 -1.168,-1.168 l 0,0 0,-22.213 c 0,-0.644 0.521,-1.165 1.168,-1.168 l 0,0 22.212,0 c 0.648,0.002 1.166,0.522 1.167,1.168 l 0,0 0,22.213 c 0,0.646 -0.521,1.168 -1.167,1.169 l 0,0 -22.212,-0.001 0,0 z m 21.768,-1.609 0.002,-21.328 -21.328,0 -10e-4,21.326 21.327,0.002 0,0 z"
           inkscape:connector-curvature="0"
           style="fill:#f4f4f4" /><path
           id="path5487"
           d="m 294.942,197.538 c -2.851,0 -5.157,-2.308 -5.159,-5.154 l 0,0 0,-6.348 c 10e-4,-2.85 2.311,-5.156 5.159,-5.156 l 0,0 7.434,0 c 2.848,0 5.156,2.307 5.156,5.156 l 0,0 0,6.348 c 0,2.847 -2.309,5.154 -5.156,5.155 l 0,0 -7.434,-10e-4 0,0 z m -3.547,-11.503 0,6.348 c 0.003,1.956 1.588,3.542 3.547,3.544 l 0,0 7.434,0 c 1.957,-0.002 3.542,-1.588 3.545,-3.544 l 0,0 0.002,0 -0.002,-6.348 c -0.003,-1.96 -1.586,-3.544 -3.545,-3.546 l 0,0 -7.434,0 c -1.959,0.002 -3.544,1.587 -3.547,3.546 l 0,0 z"
           inkscape:connector-curvature="0"
           style="fill:#f4f4f4" /></g><g
         id="g5489"><path
           id="path5491"
           d="m 311.549,201.483 c -0.645,-0.002 -1.167,-0.524 -1.169,-1.17 l 0,0 0.002,-22.212 c 0,-0.644 0.521,-1.166 1.167,-1.168 l 0,0 22.213,0 c 0.646,0.002 1.166,0.521 1.168,1.168 l 0,0 0,22.212 -0.002,0 c 0,0.646 -0.522,1.168 -1.166,1.17 l 0,0 -22.213,0 0,0 z m 21.77,-1.61 0,-21.329 -21.327,0 0,21.327 21.327,0.002 0,0 z"
           inkscape:connector-curvature="0"
           style="fill:#f4f4f4" /><path
           id="path5493"
           d="m 318.938,197.538 c -2.85,0 -5.159,-2.309 -5.159,-5.155 l 0,0 0,-6.347 c 0,-2.85 2.31,-5.157 5.159,-5.157 l 0,0 7.435,0 c 2.846,0 5.153,2.308 5.153,5.157 l 0,0 0,6.347 0.002,0 c -0.002,2.847 -2.31,5.155 -5.155,5.155 l 0,0 -7.435,0 0,0 z m -3.548,-11.502 0.002,6.347 c 0.003,1.956 1.588,3.541 3.547,3.544 l 0,0 7.435,0 c 1.955,-0.003 3.541,-1.588 3.544,-3.544 l 0,0 0,-6.347 c -0.003,-1.961 -1.589,-3.544 -3.544,-3.547 l 0,0 -7.435,-0.001 c -1.96,0.004 -3.544,1.588 -3.549,3.548 l 0,0 z"
           inkscape:connector-curvature="0"
           style="fill:#f4f4f4" /></g><g
         id="g5495"><path
           id="path5497"
           d="m 335.544,201.483 c -0.646,-0.002 -1.168,-0.524 -1.17,-1.169 l 0,0 0.002,-22.213 c 0,-0.645 0.521,-1.167 1.168,-1.169 l 0,0 22.213,0 c 0.646,0.002 1.166,0.523 1.169,1.169 l 0,0 0,22.213 -0.003,0 c 0,0.645 -0.521,1.167 -1.166,1.169 l 0,0 -22.213,0 0,0 z m 21.769,-1.611 0.002,-21.328 -21.329,0 -10e-4,21.328 21.328,0 0,0 z"
           inkscape:connector-curvature="0"
           style="fill:#f4f4f4" /><path
           id="path5499"
           d="m 342.933,197.538 c -2.849,0 -5.155,-2.309 -5.155,-5.154 l 0,0 -0.002,-6.348 c 0.002,-2.85 2.309,-5.156 5.157,-5.158 l 0,0 7.434,0.002 c 2.849,0 5.157,2.307 5.157,5.156 l 0,0 0,6.348 0.002,0 c -0.002,2.846 -2.311,5.154 -5.159,5.155 l 0,0 -7.434,-10e-4 0,0 z m -3.547,-11.503 0.002,6.348 c 0.003,1.956 1.587,3.541 3.545,3.544 l 0,0 7.434,0 c 1.958,-0.003 3.543,-1.588 3.547,-3.544 l 0,0 0.002,0 -0.002,-6.348 c -0.004,-1.959 -1.591,-3.543 -3.547,-3.546 l 0,0 -7.434,-0.001 c -1.958,0.004 -3.542,1.588 -3.547,3.547 l 0,0 z"
           inkscape:connector-curvature="0"
           style="fill:#f4f4f4" /></g><g
         id="g5501"><path
           id="path5503"
           d="m 359.539,201.482 c -0.645,0 -1.167,-0.522 -1.168,-1.168 l 0,0 0.001,-22.212 c 0.002,-0.647 0.521,-1.166 1.167,-1.17 l 0,0 22.213,0.002 c 0.647,0 1.167,0.524 1.169,1.168 l 0,0 0,22.212 -0.002,0 c 0,0.644 -0.522,1.168 -1.167,1.169 l 0,0 -22.213,-0.001 0,0 z m 21.772,-1.61 0,-21.327 -21.327,0 -0.002,21.327 21.329,0 0,0 z"
           inkscape:connector-curvature="0"
           style="fill:#f4f4f4" /><path
           id="path5505"
           d="m 366.929,197.538 c -2.85,0 -5.157,-2.309 -5.157,-5.156 l 0,0 0,-6.347 c 0,-2.849 2.311,-5.156 5.157,-5.156 l 0,0 7.434,0 c 2.849,0 5.157,2.308 5.157,5.156 l 0,0 0,6.347 0.002,0 c -0.002,2.848 -2.311,5.156 -5.159,5.156 l 0,0 -7.434,0 0,0 z m -3.547,-11.503 0,6.347 c 0.005,1.957 1.591,3.542 3.547,3.545 l 0,0 7.434,0 c 1.958,-0.003 3.544,-1.588 3.547,-3.545 l 0,0 0,-6.347 c -0.003,-1.96 -1.589,-3.543 -3.547,-3.546 l 0,0 -7.434,-0.001 c -1.96,0.004 -3.542,1.588 -3.547,3.547 l 0,0 z"
           inkscape:connector-curvature="0"
           style="fill:#f4f4f4" /></g><g
         id="g5507"><path
           id="path5509"
           d="m 383.535,201.483 c -0.645,-0.002 -1.165,-0.524 -1.168,-1.169 l 0,0 0,-22.213 c 0,-0.644 0.521,-1.166 1.168,-1.168 l 0,0 22.213,0 c 0.648,0.004 1.166,0.522 1.169,1.168 l 0,0 0,22.213 -0.002,0 c 0,0.646 -0.522,1.169 -1.167,1.169 l 0,0 -22.213,0 0,0 z m 21.772,-1.611 0,-21.328 -21.327,0 0,21.328 21.327,0 0,0 z"
           inkscape:connector-curvature="0"
           style="fill:#f4f4f4" /><path
           id="path5511"
           d="m 390.925,197.538 c -2.849,0 -5.156,-2.309 -5.156,-5.156 l 0,0 -0.002,-6.347 c 0.002,-2.849 2.31,-5.156 5.158,-5.157 l 0,0 7.434,0.001 c 2.85,0 5.158,2.308 5.158,5.156 l 0,0 0,6.347 10e-4,0 c -10e-4,2.848 -2.31,5.156 -5.159,5.156 l 0,0 -7.434,0 0,0 z m -3.546,-11.503 0,6.347 c 0.002,1.957 1.588,3.543 3.546,3.544 l 0,0 7.434,0.002 c 1.96,-0.003 3.544,-1.589 3.547,-3.546 l 0,0 0,-6.347 c -0.003,-1.96 -1.588,-3.543 -3.547,-3.546 l 0,0 -7.434,-0.001 c -1.959,0.004 -3.544,1.588 -3.546,3.547 l 0,0 z"
           inkscape:connector-curvature="0"
           style="fill:#f4f4f4" /></g><g
         id="g5513"><path
           id="path5515"
           d="m 407.531,201.483 c -0.645,-0.002 -1.165,-0.525 -1.168,-1.168 l 0,0 0.003,-22.213 c 0,-0.646 0.519,-1.168 1.165,-1.17 l 0,0 22.213,0.002 c 0.646,0 1.167,0.522 1.168,1.168 l 0,0 0,22.213 -10e-4,0 c 0,0.643 -0.521,1.166 -1.167,1.168 l 0,0 -22.213,0 0,0 z m 21.769,-1.61 0,-21.329 -21.324,0 -0.002,21.327 21.326,0.002 0,0 z"
           inkscape:connector-curvature="0"
           style="fill:#f4f4f4" /><path
           id="path5517"
           d="m 414.921,197.538 c -2.848,0 -5.157,-2.309 -5.157,-5.154 l 0,0 0,-6.348 c 0,-2.848 2.31,-5.156 5.157,-5.158 l 0,0 7.434,0 c 2.849,0 5.156,2.311 5.156,5.158 l 0,0 0,6.348 0.002,0 c -0.002,2.846 -2.31,5.154 -5.158,5.155 l 0,0 -7.434,-10e-4 0,0 z m -3.547,-11.502 0,6.347 c 0.003,1.956 1.587,3.542 3.545,3.544 l 0,0 7.435,0 c 1.96,-0.002 3.543,-1.588 3.547,-3.544 l 0,0 10e-4,0 -10e-4,-6.347 c -0.004,-1.961 -1.589,-3.545 -3.547,-3.547 l 0,0 -7.435,0 c -1.958,0.002 -3.542,1.587 -3.545,3.547 l 0,0 z"
           inkscape:connector-curvature="0"
           style="fill:#f4f4f4" /></g><g
         id="g5519"><path
           id="path5521"
           d="m 431.526,201.482 c -0.646,0 -1.166,-0.523 -1.167,-1.169 l 0,0 0.001,-22.212 c 0,-0.644 0.52,-1.167 1.168,-1.169 l 0,0 22.213,0.002 c 0.645,0 1.166,0.522 1.168,1.167 l 0,0 0,22.212 -0.002,0 c 0,0.646 -0.521,1.169 -1.166,1.17 l 0,0 -22.215,-0.001 0,0 z m 21.771,-1.609 10e-4,-21.328 -21.327,-10e-4 -10e-4,21.327 21.327,0.002 0,0 z"
           inkscape:connector-curvature="0"
           style="fill:#f4f4f4" /><path
           id="path5523"
           d="m 438.917,197.538 c -2.85,0 -5.155,-2.308 -5.155,-5.155 l 0,0 -0.002,-6.347 c 0.002,-2.848 2.31,-5.156 5.157,-5.157 l 0,0 7.434,0 c 2.849,0.001 5.156,2.31 5.156,5.157 l 0,0 0,6.347 10e-4,0 c -10e-4,2.848 -2.309,5.155 -5.157,5.156 l 0,0 -7.434,-10e-4 0,0 z m -3.547,-11.503 0,6.347 c 0.004,1.958 1.587,3.543 3.547,3.545 l 0,0 7.433,0 c 1.957,-0.002 3.544,-1.588 3.547,-3.545 l 0,0 0,-6.347 c -0.003,-1.96 -1.588,-3.543 -3.547,-3.546 l 0,0 -7.433,-0.001 c -1.96,0.004 -3.543,1.588 -3.547,3.547 l 0,0 z"
           inkscape:connector-curvature="0"
           style="fill:#f4f4f4" /></g><g
         id="g5525"><path
           id="path5527"
           d="m 131.248,225.698 c -0.646,0 -1.169,-0.521 -1.169,-1.166 l 0,0 0,-22.213 c 0,-0.646 0.523,-1.167 1.169,-1.169 l 0,0 22.212,0.002 c 0.645,0 1.167,0.521 1.168,1.167 l 0,0 0,22.213 -10e-4,0 c 0,0.646 -0.523,1.166 -1.167,1.168 l 0,0 -22.212,-0.002 0,0 z m 21.768,-1.609 0,-21.327 -21.327,0 0,21.327 21.327,0 0,0 z"
           inkscape:connector-curvature="0"
           style="fill:#f4f4f4" /><path
           id="path5529"
           d="m 138.636,221.755 c -2.849,0 -5.157,-2.307 -5.157,-5.155 l 0,0 0,-6.348 c 0,-2.848 2.309,-5.157 5.157,-5.157 l 0,0 7.435,0 c 2.85,0 5.156,2.31 5.157,5.157 l 0,0 0,6.348 c -0.001,2.849 -2.309,5.155 -5.157,5.157 l 0,0 -7.435,-0.002 0,0 z m -3.547,-11.503 0,6.348 c 0.003,1.96 1.587,3.543 3.547,3.545 l 0,0 7.435,0 c 1.96,-0.002 3.542,-1.586 3.545,-3.545 l 0,0 0.002,-6.348 c -0.005,-1.959 -1.59,-3.542 -3.547,-3.547 l 0,0 -7.435,0 c -1.958,0.003 -3.544,1.59 -3.547,3.547 l 0,0 z"
           inkscape:connector-curvature="0"
           style="fill:#f4f4f4" /></g><g
         id="g5531"><path
           id="path5533"
           d="m 155.243,225.698 c -0.645,0 -1.168,-0.522 -1.168,-1.166 l 0,0 0,-22.213 c 0,-0.643 0.523,-1.167 1.168,-1.169 l 0,0 22.211,0.002 c 0.645,0 1.168,0.521 1.168,1.167 l 0,0 0,22.213 c 0,0.646 -0.523,1.166 -1.168,1.168 l 0,0 -22.211,-0.002 0,0 z m 21.77,-1.609 0,-21.327 -21.327,0 0,21.327 21.327,0 0,0 z"
           inkscape:connector-curvature="0"
           style="fill:#f4f4f4" /><path
           id="path5535"
           d="m 162.631,221.755 c -2.849,0 -5.155,-2.307 -5.157,-5.155 l 0,0 0.001,-6.348 c 0,-2.848 2.307,-5.157 5.155,-5.157 l 0,0 7.435,0 c 2.849,0 5.158,2.31 5.158,5.157 l 0,0 0,6.348 c 0,2.849 -2.309,5.155 -5.158,5.157 l 0,0 -7.434,-0.002 0,0 z m -3.545,-11.503 0,6.348 c 0.004,1.96 1.587,3.543 3.545,3.545 l 0,0 7.435,0.002 c 1.959,-0.004 3.543,-1.588 3.547,-3.547 l 0,0 0,-6.348 c -0.004,-1.959 -1.587,-3.542 -3.547,-3.547 l 0,0 -7.435,0 c -1.958,0.003 -3.541,1.588 -3.545,3.547 l 0,0 z"
           inkscape:connector-curvature="0"
           style="fill:#f4f4f4" /></g><g
         id="g5537"><path
           id="path5539"
           d="m 179.238,225.699 c -0.643,-0.001 -1.168,-0.521 -1.168,-1.165 l 0,0 0,-22.214 c 0.001,-0.646 0.523,-1.167 1.168,-1.169 l 0,0 22.213,0 c 0.645,0.002 1.167,0.523 1.168,1.169 l 0,0 0,22.214 c 0,0.643 -0.523,1.165 -1.168,1.165 l 0,0 -22.213,0 0,0 z m 21.77,-1.61 10e-4,-21.328 -21.329,0 0,21.328 21.328,0 0,0 z"
           inkscape:connector-curvature="0"
           style="fill:#f4f4f4" /><path
           id="path5541"
           d="m 186.627,221.757 c -2.849,-0.002 -5.157,-2.309 -5.157,-5.157 l 0,0 0,-6.348 c 0,-2.848 2.309,-5.157 5.157,-5.157 l 0,0 7.435,0 c 2.849,0 5.156,2.31 5.156,5.157 l 0,0 0,6.348 c 0,2.849 -2.307,5.155 -5.156,5.157 l 0,0 -7.435,0 0,0 z m -3.545,-11.505 0,6.348 c 0.003,1.96 1.587,3.543 3.546,3.545 l 0,0 7.435,0 c 1.957,-0.002 3.541,-1.586 3.545,-3.545 l 0,0 0.001,-6.348 c -0.004,-1.959 -1.59,-3.542 -3.546,-3.547 l 0,0 -7.435,0 c -1.959,0.003 -3.544,1.588 -3.546,3.547 l 0,0 z"
           inkscape:connector-curvature="0"
           style="fill:#f4f4f4" /></g><g
         id="g5543"><path
           id="path5545"
           d="m 203.234,225.698 c -0.645,0 -1.168,-0.521 -1.168,-1.166 l 0,0 0,-22.213 c 0.001,-0.646 0.523,-1.167 1.168,-1.169 l 0,0 22.214,0.002 c 0.644,0 1.167,0.52 1.167,1.167 l 0,0 0,22.213 c 0,0.647 -0.524,1.166 -1.167,1.168 l 0,0 -22.214,-0.002 0,0 z m 21.771,-1.609 0,-21.327 -21.328,0 0,21.327 21.328,0 0,0 z"
           inkscape:connector-curvature="0"
           style="fill:#f4f4f4" /><path
           id="path5547"
           d="m 210.623,221.755 c -2.848,0 -5.156,-2.307 -5.157,-5.155 l 0,0 0.001,-6.348 c 0,-2.848 2.308,-5.157 5.156,-5.157 l 0,0 7.435,0 c 2.849,0 5.157,2.31 5.157,5.157 l 0,0 0,6.348 c 0,2.849 -2.309,5.155 -5.157,5.157 l 0,0 -7.435,-0.002 0,0 z m -3.547,-11.503 0,6.348 c 0.005,1.96 1.589,3.543 3.546,3.545 l 0,0 7.435,0 c 1.959,-0.002 3.543,-1.586 3.546,-3.545 l 0,0 0,-6.348 c -0.003,-1.959 -1.588,-3.542 -3.546,-3.547 l 0,0 -7.435,0 c -1.956,0.003 -3.541,1.588 -3.546,3.547 l 0,0 z"
           inkscape:connector-curvature="0"
           style="fill:#f4f4f4" /></g><g
         id="g5549"><path
           id="path5551"
           d="m 227.23,225.698 c -0.643,0 -1.167,-0.521 -1.168,-1.166 l 0,0 10e-4,-22.213 c 0,-0.646 0.521,-1.167 1.167,-1.169 l 0,0 22.212,0.002 c 0.646,0 1.167,0.524 1.169,1.167 l 0,0 0,22.213 c -0.002,0.644 -0.525,1.166 -1.169,1.168 l 0,0 -22.212,-0.002 0,0 z m 21.77,-1.609 0.002,-21.327 -21.327,0 0,21.327 21.325,0 0,0 z"
           inkscape:connector-curvature="0"
           style="fill:#f4f4f4" /><path
           id="path5553"
           d="m 234.62,221.755 c -2.849,0 -5.158,-2.307 -5.158,-5.155 l 0,0 0,-6.348 c 0,-2.848 2.309,-5.157 5.158,-5.157 l 0,0 7.435,0 c 2.849,0 5.155,2.31 5.155,5.157 l 0,0 0,6.348 c 0,2.849 -2.309,5.155 -5.155,5.157 l 0,0 -7.435,-0.002 0,0 z m -3.547,-11.503 0,6.348 c 0.003,1.96 1.588,3.543 3.547,3.545 l 0,0 7.435,0.002 c 1.958,-0.004 3.542,-1.588 3.545,-3.547 l 0,0 0,-6.348 c -0.003,-1.959 -1.587,-3.542 -3.545,-3.547 l 0,0 -7.435,0 c -1.96,0.003 -3.543,1.588 -3.547,3.547 l 0,0 z"
           inkscape:connector-curvature="0"
           style="fill:#f4f4f4" /></g><g
         id="g5555"><path
           id="path5557"
           d="m 251.227,225.698 c -0.644,0 -1.169,-0.521 -1.169,-1.166 l 0,0 0,-22.213 c 0.002,-0.646 0.525,-1.167 1.169,-1.169 l 0,0 22.212,0.002 c 0.646,0 1.167,0.524 1.169,1.167 l 0,0 0,22.213 c -0.002,0.644 -0.523,1.166 -1.169,1.168 l 0,0 -22.212,-0.002 0,0 z m 21.768,-1.609 0,-21.327 -21.326,0 -0.001,21.327 21.327,0 0,0 z"
           inkscape:connector-curvature="0"
           style="fill:#f4f4f4" /><path
           id="path5559"
           d="m 258.615,221.755 c -2.848,0 -5.156,-2.307 -5.157,-5.155 l 0,0 0.001,-6.348 c 0,-2.848 2.308,-5.157 5.156,-5.157 l 0,0 7.435,0 c 2.849,0 5.158,2.31 5.158,5.157 l 0,0 0,6.348 c 0,2.849 -2.309,5.155 -5.158,5.157 l 0,0 -7.435,-0.002 0,0 z m -3.546,-11.503 0,6.348 c 0.003,1.96 1.587,3.543 3.546,3.545 l 0,0 7.435,0.002 c 1.959,-0.004 3.543,-1.588 3.547,-3.547 l 0,0 0,-6.348 c -0.003,-1.957 -1.587,-3.542 -3.547,-3.547 l 0,0 -7.435,0 c -1.958,0.003 -3.543,1.588 -3.546,3.547 l 0,0 z"
           inkscape:connector-curvature="0"
           style="fill:#f4f4f4" /></g><g
         id="g5561"><path
           id="path5563"
           d="m 275.223,225.698 c -0.644,0 -1.168,-0.52 -1.168,-1.166 l 0,0 0,-22.213 c 10e-4,-0.647 0.525,-1.167 1.168,-1.169 l 0,0 22.213,0.002 c 0.645,0 1.167,0.524 1.168,1.167 l 0,0 0,22.213 -10e-4,0 c 0,0.644 -0.522,1.166 -1.167,1.168 l 0,0 -22.213,-0.002 0,0 z m 21.767,-1.609 10e-4,-21.327 -21.327,0 0,21.327 21.326,0 0,0 z"
           inkscape:connector-curvature="0"
           style="fill:#f4f4f4" /><path
           id="path5565"
           d="m 282.611,221.757 c -2.848,-0.002 -5.157,-2.309 -5.157,-5.157 l 0,0 0,-6.348 c 0,-2.848 2.309,-5.157 5.157,-5.157 l 0,0 7.433,0 c 2.849,0 5.158,2.31 5.158,5.157 l 0,0 0,6.348 c 0,2.849 -2.309,5.155 -5.158,5.157 l 0,0 -7.433,0 0,0 z m -3.545,-11.505 0,6.348 c 0.002,1.96 1.587,3.543 3.546,3.545 l 0,0 7.433,0.002 c 1.959,-0.004 3.543,-1.588 3.547,-3.547 l 0,0 0,-6.348 c -0.003,-1.957 -1.588,-3.542 -3.547,-3.547 l 0,0 -7.433,0 c -1.957,0.003 -3.544,1.59 -3.546,3.547 l 0,0 z"
           inkscape:connector-curvature="0"
           style="fill:#f4f4f4" /></g><g
         id="g5567"><path
           id="path5569"
           d="m 299.218,225.698 c -0.645,0 -1.167,-0.52 -1.168,-1.166 l 0,0 0,-22.213 c 0,-0.647 0.523,-1.167 1.168,-1.169 l 0,0 22.211,0.002 c 0.646,0 1.167,0.524 1.169,1.167 l 0,0 0,22.213 -0.002,0 c 0,0.644 -0.521,1.166 -1.167,1.168 l 0,0 -22.211,-0.002 0,0 z m 21.768,-1.609 0.001,-21.327 -21.326,0 0,21.327 21.325,0 0,0 z"
           inkscape:connector-curvature="0"
           style="fill:#f4f4f4" /><path
           id="path5571"
           d="m 306.606,221.755 c -2.848,0 -5.157,-2.307 -5.157,-5.155 l 0,0 0,-6.348 c 0,-2.848 2.31,-5.157 5.157,-5.157 l 0,0 7.436,0 c 2.849,0 5.155,2.31 5.157,5.157 l 0,0 0,6.348 c -0.002,2.849 -2.311,5.155 -5.157,5.157 l 0,0 -7.436,-0.002 0,0 z m -3.546,-11.503 0,6.348 c 0.004,1.96 1.588,3.543 3.547,3.545 l 0,0 7.434,0.002 c 1.958,-0.004 3.544,-1.588 3.547,-3.547 l 0,0 0,-6.348 c -0.003,-1.957 -1.589,-3.542 -3.547,-3.547 l 0,0 -7.434,0 c -1.958,0.003 -3.544,1.59 -3.547,3.547 l 0,0 z"
           inkscape:connector-curvature="0"
           style="fill:#f4f4f4" /></g><g
         id="g5573"><path
           id="path5575"
           d="m 323.214,225.699 c -0.646,-0.001 -1.166,-0.523 -1.168,-1.167 l 0,0 0,-22.212 c 0.002,-0.644 0.522,-1.167 1.168,-1.169 l 0,0 22.212,0 c 0.645,0.002 1.167,0.525 1.169,1.169 l 0,0 0,22.212 -0.002,0 c 0,0.644 -0.522,1.166 -1.167,1.167 l 0,0 -22.212,0 0,0 z m 21.768,-1.61 0,-21.326 -21.325,-0.002 -0.002,21.327 21.327,0.001 0,0 z"
           inkscape:connector-curvature="0"
           style="fill:#f4f4f4" /><path
           id="path5577"
           d="m 330.603,221.755 c -2.849,0 -5.155,-2.307 -5.157,-5.156 l 0,0 0.002,-6.347 c 0,-2.847 2.307,-5.156 5.155,-5.156 l 0,0 7.436,0 c 2.847,0 5.154,2.308 5.155,5.156 l 0,0 0,6.347 c -0.001,2.85 -2.31,5.156 -5.155,5.158 l 0,0 -7.436,-0.002 0,0 z m -3.547,-11.503 0,6.347 c 0.004,1.96 1.587,3.542 3.547,3.546 l 0,0 7.434,0 c 1.958,-0.004 3.543,-1.587 3.545,-3.546 l 0,0 0.002,-6.347 c -0.004,-1.957 -1.589,-3.541 -3.547,-3.546 l 0,0 -7.434,0 c -1.96,0.004 -3.543,1.587 -3.547,3.546 l 0,0 z"
           inkscape:connector-curvature="0"
           style="fill:#f4f4f4" /></g><g
         id="g5579"><path
           id="path5581"
           d="m 347.211,225.699 c -0.646,-0.001 -1.167,-0.523 -1.168,-1.166 l 0,0 0,-22.214 c 10e-4,-0.645 0.522,-1.166 1.168,-1.168 l 0,0 22.211,0 c 0.645,0.002 1.167,0.523 1.169,1.168 l 0,0 0,22.214 -0.002,0 c 0,0.643 -0.522,1.165 -1.167,1.166 l 0,0 -22.211,0 0,0 z m 21.768,-1.61 0.002,-21.327 -21.327,0 0,21.327 21.325,0 0,0 z"
           inkscape:connector-curvature="0"
           style="fill:#f4f4f4" /><path
           id="path5583"
           d="m 354.6,221.754 c -2.848,0 -5.158,-2.307 -5.158,-5.154 l 0,0 0,-6.346 c 0,-2.85 2.308,-5.159 5.158,-5.159 l 0,0 7.433,0 c 2.85,0 5.156,2.31 5.158,5.159 l 0,0 0,6.346 c -0.002,2.848 -2.311,5.154 -5.158,5.157 l 0,0 -7.433,-0.003 0,0 z m -3.547,-11.5 0,6.346 c 0.004,1.961 1.587,3.541 3.547,3.546 l 0,0 7.433,0 c 1.959,-0.005 3.542,-1.586 3.546,-3.546 l 0,0 0,-6.346 c -0.004,-1.96 -1.589,-3.543 -3.546,-3.548 l 0,0 -7.433,-0.002 c -1.959,0.006 -3.543,1.59 -3.547,3.55 l 0,0 z"
           inkscape:connector-curvature="0"
           style="fill:#f4f4f4" /></g><g
         id="g5585"><path
           id="path5587"
           d="m 371.207,225.699 c -0.645,-0.001 -1.168,-0.522 -1.17,-1.167 l 0,0 0.002,-22.213 c 0,-0.643 0.523,-1.167 1.168,-1.169 l 0,0 22.213,0.002 c 0.644,0 1.165,0.524 1.166,1.167 l 0,0 0,22.213 -0.001,0 c 0,0.645 -0.521,1.166 -1.165,1.167 l 0,0 -22.213,0 0,0 z m 21.769,-1.61 0,-21.327 -21.326,0 0,21.326 21.326,0.001 0,0 z"
           inkscape:connector-curvature="0"
           style="fill:#f4f4f4" /><path
           id="path5589"
           d="m 378.596,221.757 c -2.851,0 -5.158,-2.31 -5.159,-5.157 l 0,0 10e-4,-6.348 c 0,-2.848 2.308,-5.157 5.158,-5.157 l 0,0 7.433,0 c 2.849,0 5.156,2.31 5.156,5.157 l 0,0 0,6.348 c 0,2.848 -2.308,5.157 -5.157,5.157 l 0,0 -7.432,0 0,0 z m -3.547,-11.505 0,6.348 c 0.002,1.959 1.587,3.542 3.547,3.545 l 0,0 7.433,0 c 1.961,-0.003 3.542,-1.587 3.546,-3.545 l 0,0 0,-6.348 c -0.004,-1.958 -1.587,-3.542 -3.546,-3.547 l 0,0 -7.433,0 c -1.958,0.003 -3.545,1.589 -3.547,3.547 l 0,0 z"
           inkscape:connector-curvature="0"
           style="fill:#f4f4f4" /></g><g
         id="g5591"><path
           id="path5593"
           d="m 395.202,225.698 c -0.646,0 -1.168,-0.522 -1.169,-1.166 l 0,0 10e-4,-22.213 c 0,-0.645 0.522,-1.166 1.168,-1.168 l 0,0 22.214,0 c 0.645,0.002 1.165,0.525 1.167,1.168 l 0,0 0,22.213 -0.002,0 c 0,0.644 -0.521,1.166 -1.165,1.168 l 0,0 -22.214,-0.002 0,0 z m 21.769,-1.609 10e-4,-21.328 -21.327,0 0,21.328 21.326,0 0,0 z"
           inkscape:connector-curvature="0"
           style="fill:#f4f4f4" /><path
           id="path5595"
           d="m 402.589,221.757 c -2.848,-0.002 -5.157,-2.309 -5.157,-5.157 l 0,0 0,-6.347 c 0,-2.849 2.31,-5.158 5.157,-5.158 l 0,0 7.437,0 c 2.846,0 5.155,2.31 5.155,5.158 l 0,0 0,6.347 c 0,2.849 -2.31,5.155 -5.155,5.157 l 0,0 -7.437,0 0,0 z m -3.545,-11.504 0,6.347 c 0.004,1.959 1.588,3.542 3.545,3.546 l 0,0 7.437,0 c 1.958,-0.004 3.543,-1.588 3.545,-3.546 l 0,0 0.002,-6.347 c -0.004,-1.958 -1.591,-3.542 -3.547,-3.548 l 0,0 -7.437,0 c -1.957,0.005 -3.541,1.59 -3.545,3.548 l 0,0 z"
           inkscape:connector-curvature="0"
           style="fill:#f4f4f4" /></g><g
         id="g5597"><path
           id="path5599"
           d="m 419.196,225.699 c -0.645,-0.002 -1.166,-0.522 -1.167,-1.167 l 0,0 0,-22.214 c 10e-4,-0.642 0.522,-1.166 1.167,-1.168 l 0,0 22.213,0.002 c 0.643,0 1.168,0.52 1.17,1.166 l 0,0 0,22.214 -0.002,0 c 0,0.646 -0.525,1.165 -1.168,1.167 l 0,0 -22.213,0 0,0 z m 21.771,-1.61 0.002,-21.326 -21.327,-0.002 -0.002,21.327 21.327,0.001 0,0 z"
           inkscape:connector-curvature="0"
           style="fill:#f4f4f4" /><path
           id="path5601"
           d="m 426.586,221.757 c -2.849,-0.002 -5.156,-2.309 -5.156,-5.157 l 0,0 0,-6.347 c 0,-2.85 2.308,-5.157 5.156,-5.159 l 0,0 7.435,0 c 2.848,0.002 5.155,2.31 5.156,5.159 l 0,0 0,6.347 c -0.001,2.849 -2.309,5.155 -5.156,5.157 l 0,0 -7.435,0 0,0 z m -3.546,-11.504 0,6.347 c 0.004,1.96 1.587,3.541 3.546,3.545 l 0,0 7.435,0 c 1.957,-0.004 3.541,-1.586 3.546,-3.545 l 0,0 0,-6.347 c -0.005,-1.959 -1.589,-3.542 -3.546,-3.547 l 0,0 -7.435,0 c -1.957,0.004 -3.542,1.588 -3.546,3.547 l 0,0 z"
           inkscape:connector-curvature="0"
           style="fill:#f4f4f4" /></g><g
         id="g5603"><path
           id="path5605"
           d="m 444.099,225.698 c -0.646,0 -1.166,-0.52 -1.169,-1.165 l 0,0 0,-22.215 c 0,-0.646 0.523,-1.167 1.169,-1.167 l 0,0 22.214,0 c 0.644,0.002 1.167,0.523 1.169,1.167 l 0,0 0,22.215 -0.002,0 c 0,0.643 -0.523,1.165 -1.167,1.167 l 0,0 -22.214,-0.002 0,0 z m 21.769,-1.609 0,-21.326 -21.326,-0.002 -10e-4,21.328 21.327,0 0,0 z"
           inkscape:connector-curvature="0"
           style="fill:#f4f4f4" /><path
           id="path5607"
           d="m 451.487,221.755 c -2.848,0 -5.155,-2.308 -5.155,-5.155 l 0,0 0,-6.347 c 0,-2.85 2.308,-5.157 5.155,-5.159 l 0,0 7.437,0 c 2.848,0.002 5.155,2.31 5.155,5.159 l 0,0 0,6.347 c 0,2.848 -2.308,5.155 -5.155,5.157 l 0,0 -7.437,-0.002 0,0 z m -3.545,-11.502 0,6.347 c 0.004,1.961 1.587,3.541 3.545,3.545 l 0,0 7.437,0 c 1.957,-0.004 3.541,-1.585 3.545,-3.545 l 0,0 0.001,-6.347 c -0.005,-1.959 -1.589,-3.543 -3.546,-3.548 l 0,0 -7.437,0 c -1.956,0.003 -3.541,1.589 -3.545,3.548 l 0,0 z"
           inkscape:connector-curvature="0"
           style="fill:#f4f4f4" /></g><g
         id="g5609"><path
           id="path5611"
           d="m 137.533,249.917 c -0.647,0 -1.168,-0.521 -1.169,-1.167 l 0,0 0,-22.212 c 0.001,-0.644 0.525,-1.167 1.169,-1.169 l 0,0 22.212,0 c 0.644,0.002 1.168,0.525 1.169,1.169 l 0,0 0,22.212 -10e-4,0 c 0,0.646 -0.521,1.166 -1.168,1.168 l 0,0 -22.212,-0.001 0,0 z m 21.771,-1.609 0,-21.328 -21.329,0 0,21.326 21.329,0.002 0,0 z"
           inkscape:connector-curvature="0"
           style="fill:#f4f4f4" /><path
           id="path5613"
           d="m 144.923,245.974 c -2.849,0 -5.158,-2.309 -5.158,-5.157 l 0,0 0,-6.347 c 0,-2.849 2.309,-5.155 5.158,-5.157 l 0,0 7.433,0.002 c 2.85,0 5.157,2.307 5.158,5.155 l 0,0 0,6.347 c -0.001,2.848 -2.309,5.157 -5.158,5.158 l 0,0 -7.433,-0.001 0,0 z m -3.548,-11.504 0,6.347 c 0.003,1.959 1.588,3.543 3.547,3.547 l 0,0 7.434,0 c 1.957,-0.004 3.542,-1.589 3.547,-3.547 l 0,0 -0.002,-6.347 c -0.003,-1.958 -1.588,-3.542 -3.545,-3.546 l 0,0 -7.434,0 c -1.958,0.003 -3.544,1.588 -3.547,3.546 l 0,0 z"
           inkscape:connector-curvature="0"
           style="fill:#f4f4f4" /></g><g
         id="g5615"><path
           id="path5617"
           d="m 161.529,249.918 c -0.647,-0.002 -1.167,-0.521 -1.169,-1.168 l 0,0 0,-22.211 c 0,-0.647 0.525,-1.169 1.169,-1.169 l 0,0 22.213,0 c 0.645,0 1.167,0.522 1.168,1.169 l 0,0 0,22.211 -0.001,0 c 0,0.647 -0.521,1.166 -1.167,1.168 l 0,0 -22.213,0 0,0 z m 21.77,-1.61 0,-21.328 -21.328,0 0,21.328 21.328,0 0,0 z"
           inkscape:connector-curvature="0"
           style="fill:#f4f4f4" /><path
           id="path5619"
           d="m 168.918,245.974 c -2.849,0 -5.159,-2.31 -5.159,-5.157 l 0,0 0,-6.347 c 0,-2.849 2.31,-5.155 5.159,-5.157 l 0,0 7.433,0.002 c 2.849,0 5.156,2.307 5.158,5.155 l 0,0 0,6.347 c -0.002,2.848 -2.309,5.157 -5.158,5.158 l 0,0 -7.433,-0.001 0,0 z m -3.547,-11.504 0,6.347 c 0.005,1.959 1.588,3.543 3.548,3.547 l 0,0 7.433,0 c 1.958,-0.004 3.543,-1.589 3.547,-3.547 l 0,0 -0.001,-6.347 c -0.003,-1.958 -1.588,-3.542 -3.546,-3.546 l 0,0 -7.433,0 c -1.96,0.003 -3.544,1.588 -3.548,3.546 l 0,0 z"
           inkscape:connector-curvature="0"
           style="fill:#f4f4f4" /></g><g
         id="g5621"><path
           id="path5623"
           d="m 185.525,249.917 c -0.647,0 -1.168,-0.521 -1.169,-1.167 l 0,0 0.001,-22.212 c 0,-0.644 0.522,-1.167 1.168,-1.169 l 0,0 22.213,0 c 0.644,0.002 1.167,0.522 1.167,1.169 l 0,0 0,22.212 c -0.001,0.647 -0.522,1.164 -1.167,1.168 l 0,0 -22.213,-0.001 0,0 z m 21.769,-1.609 0,-21.328 -21.328,0 0,21.326 21.328,0.002 0,0 z"
           inkscape:connector-curvature="0"
           style="fill:#f4f4f4" /><path
           id="path5625"
           d="m 192.914,245.975 c -2.85,-0.001 -5.158,-2.31 -5.158,-5.158 l 0,0 0,-6.347 c 0,-2.849 2.309,-5.155 5.158,-5.157 l 0,0 7.434,0 c 2.848,0.002 5.157,2.309 5.157,5.157 l 0,0 0,6.347 c 0,2.849 -2.309,5.157 -5.157,5.158 l 0,0 -7.434,0 0,0 z m -3.548,-11.505 0,6.347 c 0.005,1.959 1.59,3.543 3.548,3.547 l 0,0 7.434,0 c 1.957,-0.004 3.541,-1.589 3.547,-3.547 l 0,0 0,-6.347 c -0.005,-1.958 -1.59,-3.542 -3.547,-3.546 l 0,0 -7.434,0 c -1.958,0.003 -3.543,1.588 -3.548,3.546 l 0,0 z"
           inkscape:connector-curvature="0"
           style="fill:#f4f4f4" /></g><g
         id="g5627"><path
           id="path5629"
           d="m 209.522,249.917 c -0.648,-0.002 -1.167,-0.52 -1.169,-1.167 l 0,0 0,-22.212 c 0,-0.646 0.523,-1.167 1.169,-1.169 l 0,0 22.211,0 c 0.644,0.002 1.168,0.525 1.168,1.169 l 0,0 0,22.212 c 0,0.646 -0.522,1.166 -1.168,1.168 l 0,0 -22.211,-0.001 0,0 z m 21.768,-1.609 0.001,-21.328 -21.328,0 0,21.326 21.327,0.002 0,0 z"
           inkscape:connector-curvature="0"
           style="fill:#f4f4f4" /><path
           id="path5631"
           d="m 216.91,245.974 c -2.85,0 -5.157,-2.31 -5.158,-5.157 l 0,0 0,-6.347 c 10e-4,-2.849 2.309,-5.155 5.158,-5.157 l 0,0 7.435,0.002 c 2.848,0 5.155,2.309 5.156,5.155 l 0,0 0,6.347 c -0.001,2.848 -2.309,5.157 -5.156,5.158 l 0,0 -7.435,-0.001 0,0 z m -3.547,-11.504 0,6.347 c 0.004,1.959 1.589,3.543 3.547,3.547 l 0,0 7.435,0 c 1.958,-0.004 3.542,-1.589 3.544,-3.547 l 0,0 0,-6.347 c -0.003,-1.958 -1.586,-3.542 -3.544,-3.546 l 0,0 -7.435,0 c -1.958,0.003 -3.543,1.588 -3.547,3.546 l 0,0 z"
           inkscape:connector-curvature="0"
           style="fill:#f4f4f4" /></g><g
         id="g5633"><path
           id="path5635"
           d="m 233.516,249.918 c -0.646,-0.002 -1.166,-0.521 -1.167,-1.168 l 0,0 0,-22.211 c 0.001,-0.646 0.523,-1.169 1.167,-1.169 l 0,0 22.213,0 c 0.646,0 1.167,0.522 1.167,1.169 l 0,0 0,22.211 c -0.001,0.647 -0.52,1.166 -1.167,1.168 l 0,0 -22.213,0 0,0 z m 21.769,-1.61 0.002,-21.328 -21.329,0 0,21.328 21.327,0 0,0 z"
           inkscape:connector-curvature="0"
           style="fill:#f4f4f4" /><path
           id="path5637"
           d="m 240.906,245.975 c -2.85,-0.001 -5.156,-2.311 -5.159,-5.158 l 0,0 0,-6.347 c 0.002,-2.849 2.309,-5.155 5.159,-5.157 l 0,0 7.435,0.002 c 2.847,0 5.156,2.307 5.156,5.155 l 0,0 0,6.347 c 0,2.848 -2.309,5.157 -5.156,5.158 l 0,0 -7.435,0 0,0 z m -3.548,-11.505 0,6.347 c 0.005,1.959 1.59,3.543 3.548,3.547 l 0,0 7.435,0 c 1.958,-0.004 3.541,-1.589 3.546,-3.547 l 0,0 -0.001,-6.347 c -0.003,-1.958 -1.586,-3.542 -3.544,-3.546 l 0,0 -7.435,0 c -1.961,0.003 -3.544,1.588 -3.549,3.546 l 0,0 z"
           inkscape:connector-curvature="0"
           style="fill:#f4f4f4" /></g><g
         id="g5639"><path
           id="path5641"
           d="m 257.513,249.917 c -0.647,0 -1.167,-0.521 -1.169,-1.167 l 0,0 0.002,-22.212 c 0,-0.644 0.521,-1.167 1.167,-1.169 l 0,0 22.212,0 c 0.644,0.002 1.167,0.525 1.167,1.169 l 0,0 0,22.212 c 0,0.646 -0.52,1.166 -1.167,1.168 l 0,0 -22.212,-0.001 0,0 z m 21.768,-1.609 10e-4,-21.328 -21.328,0 0,21.326 21.327,0.002 0,0 z"
           inkscape:connector-curvature="0"
           style="fill:#f4f4f4" /><path
           id="path5643"
           d="m 264.902,245.975 c -2.849,-0.001 -5.156,-2.311 -5.156,-5.158 l 0,0 -10e-4,-6.347 c 10e-4,-2.847 2.309,-5.155 5.159,-5.157 l 0,0 7.435,0.002 c 2.848,0 5.155,2.309 5.155,5.155 l 0,0 0,6.347 c 0,2.848 -2.309,5.157 -5.155,5.158 l 0,0 -7.437,0 0,0 z m -3.547,-11.505 0,6.347 c 0.003,1.959 1.586,3.543 3.546,3.547 l 0,0 7.436,0 c 1.958,-0.004 3.541,-1.589 3.545,-3.547 l 0,0 -0.001,-6.347 c -0.003,-1.958 -1.586,-3.542 -3.544,-3.546 l 0,0 -7.436,0 c -1.959,0.003 -3.542,1.588 -3.546,3.546 l 0,0 z"
           inkscape:connector-curvature="0"
           style="fill:#f4f4f4" /></g><g
         id="g5645"><path
           id="path5647"
           d="m 281.508,249.917 c -0.646,0 -1.166,-0.521 -1.167,-1.167 l 0,0 0,-22.212 c 10e-4,-0.644 0.523,-1.167 1.167,-1.169 l 0,0 22.214,0 c 0.646,0.002 1.164,0.525 1.166,1.169 l 0,0 0,22.212 c -0.002,0.644 -0.52,1.164 -1.166,1.168 l 0,0 -22.214,-0.001 0,0 z m 21.769,-1.609 0,-21.328 -21.326,0 0,21.326 21.326,0.002 0,0 z"
           inkscape:connector-curvature="0"
           style="fill:#f4f4f4" /><path
           id="path5649"
           d="m 288.897,245.975 c -2.847,-0.001 -5.156,-2.31 -5.156,-5.158 l 0,0 -10e-4,-6.347 c 10e-4,-2.849 2.311,-5.155 5.158,-5.157 l 0,0 7.434,0 c 2.849,0.002 5.158,2.309 5.158,5.157 l 0,0 0,6.347 c 0,2.849 -2.309,5.157 -5.158,5.158 l 0,0 -7.435,0 0,0 z m -3.546,-11.505 0,6.347 c 0.003,1.959 1.589,3.543 3.546,3.547 l 0,0 7.433,0 c 1.958,-0.004 3.544,-1.589 3.547,-3.547 l 0,0 0,-6.347 c -0.003,-1.958 -1.589,-3.542 -3.547,-3.546 l 0,0 -7.433,0 c -1.958,0.003 -3.543,1.588 -3.546,3.546 l 0,0 z"
           inkscape:connector-curvature="0"
           style="fill:#f4f4f4" /></g><g
         id="g5651"><path
           id="path5653"
           d="m 305.505,249.917 c -0.648,0 -1.168,-0.521 -1.17,-1.167 l 0,0 0.002,-22.212 c 0,-0.644 0.521,-1.167 1.168,-1.169 l 0,0 22.213,0 c 0.645,0 1.166,0.522 1.167,1.169 l 0,0 0,22.212 -10e-4,0 c -0.002,0.647 -0.521,1.164 -1.166,1.168 l 0,0 -22.213,-0.001 0,0 z m 21.769,-1.609 0,-21.328 -21.328,0 0,21.326 21.328,0.002 0,0 z"
           inkscape:connector-curvature="0"
           style="fill:#f4f4f4" /><path
           id="path5655"
           d="m 312.892,245.974 c -2.848,0 -5.154,-2.31 -5.154,-5.157 l 0,0 -0.003,-6.347 c 0.003,-2.847 2.31,-5.155 5.157,-5.157 l 0,0 7.436,0.002 c 2.847,0 5.156,2.307 5.156,5.155 l 0,0 0,6.347 c 0,2.849 -2.31,5.157 -5.156,5.158 l 0,0 -7.436,-0.001 0,0 z m -3.545,-11.504 0,6.347 c 0.004,1.959 1.589,3.543 3.545,3.547 l 0,0 7.436,0 c 1.956,-0.004 3.542,-1.589 3.545,-3.547 l 0,0 0,-6.347 c -0.003,-1.958 -1.59,-3.542 -3.545,-3.546 l 0,0 -7.436,0 c -1.956,0.003 -3.541,1.588 -3.545,3.546 l 0,0 z"
           inkscape:connector-curvature="0"
           style="fill:#f4f4f4" /></g><g
         id="g5657"><path
           id="path5659"
           d="m 329.501,249.917 c -0.646,0 -1.17,-0.52 -1.171,-1.167 l 0,0 0.001,-22.212 c 0,-0.646 0.524,-1.167 1.17,-1.169 l 0,0 22.211,0 c 0.646,0.002 1.166,0.525 1.168,1.169 l 0,0 0,22.212 c 0,0.646 -0.521,1.166 -1.168,1.168 l 0,0 -22.211,-0.001 0,0 z m 21.769,-1.609 0,-21.328 -21.327,0 -0.002,21.326 21.329,0.002 0,0 z"
           inkscape:connector-curvature="0"
           style="fill:#f4f4f4" /><path
           id="path5661"
           d="m 336.888,245.975 c -2.849,-0.001 -5.155,-2.31 -5.155,-5.158 l 0,0 -0.002,-6.347 c 0.002,-2.849 2.309,-5.155 5.157,-5.157 l 0,0 7.434,0 c 2.849,0.002 5.157,2.311 5.157,5.157 l 0,0 0,6.347 c 0,2.848 -2.309,5.157 -5.157,5.158 l 0,0 -7.434,0 0,0 z m -3.547,-11.505 0,6.347 c 0.006,1.959 1.591,3.543 3.547,3.547 l 0,0 7.434,0 c 1.96,-0.004 3.544,-1.589 3.547,-3.547 l 0,0 -0.002,-6.347 c -0.001,-1.958 -1.587,-3.542 -3.545,-3.546 l 0,0 -7.434,0 c -1.956,0.003 -3.541,1.588 -3.547,3.546 l 0,0 z"
           inkscape:connector-curvature="0"
           style="fill:#f4f4f4" /></g><g
         id="g5663"><path
           id="path5665"
           d="m 353.495,249.917 c -0.646,0 -1.167,-0.521 -1.169,-1.167 l 0,0 0.002,-22.212 c 0,-0.643 0.523,-1.167 1.167,-1.17 l 0,0 22.212,0 c 0.644,0.003 1.169,0.527 1.171,1.17 l 0,0 0,22.212 -0.002,0 c 0,0.645 -0.522,1.166 -1.169,1.168 l 0,0 -22.212,-0.001 0,0 z m 21.771,-1.609 10e-4,-21.327 -21.326,-0.002 -0.002,21.327 21.327,0.002 0,0 z"
           inkscape:connector-curvature="0"
           style="fill:#f4f4f4" /><path
           id="path5667"
           d="m 360.886,245.975 c -2.85,0 -5.155,-2.311 -5.155,-5.157 l 0,0 -0.004,-6.347 c 0.004,-2.85 2.31,-5.156 5.159,-5.158 l 0,0 7.434,0.002 c 2.848,0 5.156,2.307 5.156,5.156 l 0,0 0,6.347 c 0,2.847 -2.309,5.157 -5.156,5.157 l 0,0 -7.434,0 0,0 z m -3.547,-11.504 0,6.347 c 0.003,1.958 1.587,3.542 3.547,3.545 l 0,0 7.434,0.002 c 1.957,-0.005 3.54,-1.59 3.544,-3.547 l 0,0 0,-6.347 c -0.004,-1.959 -1.587,-3.544 -3.544,-3.546 l 0,0 -7.434,0 c -1.96,0.002 -3.544,1.587 -3.547,3.546 l 0,0 z"
           inkscape:connector-curvature="0"
           style="fill:#f4f4f4" /></g><g
         id="g5669"><path
           id="path5671"
           d="m 377.49,249.918 c -0.647,-0.002 -1.165,-0.521 -1.168,-1.168 l 0,0 0.002,-22.212 c 0,-0.646 0.521,-1.169 1.166,-1.169 l 0,0 22.213,0 c 0.646,0.002 1.169,0.524 1.169,1.169 l 0,0 0,22.212 c 0,0.646 -0.522,1.165 -1.169,1.167 l 0,0 -22.213,0.001 0,0 z m 21.771,-1.61 0.002,-21.327 -21.33,0 0,21.327 21.328,0 0,0 z"
           inkscape:connector-curvature="0"
           style="fill:#f4f4f4" /><path
           id="path5673"
           d="m 384.881,245.975 c -2.851,0 -5.157,-2.31 -5.157,-5.158 l 0,0 0,-6.347 c 0,-2.848 2.307,-5.155 5.157,-5.157 l 0,0 7.435,0.002 c 2.847,0 5.156,2.308 5.156,5.155 l 0,0 0,6.347 c 0,2.849 -2.31,5.158 -5.156,5.158 l 0,0 -7.435,0 0,0 z m -3.547,-11.505 0,6.347 c 0.003,1.959 1.589,3.544 3.547,3.547 l 0,0 7.435,0 c 1.957,-0.003 3.542,-1.589 3.547,-3.547 l 0,0 -10e-4,-6.347 c -0.004,-1.957 -1.591,-3.542 -3.546,-3.545 l 0,0 -7.435,-0.002 c -1.958,0.004 -3.544,1.59 -3.547,3.547 l 0,0 z"
           inkscape:connector-curvature="0"
           style="fill:#f4f4f4" /></g><g
         id="g5675"><path
           id="path5677"
           d="m 401.487,249.917 c -0.647,0 -1.169,-0.521 -1.169,-1.167 l 0,0 0,-22.212 c 0.003,-0.643 0.523,-1.167 1.169,-1.169 l 0,0 36.719,0 c 0.646,0 1.167,0.522 1.169,1.169 l 0,0 0,22.212 -0.002,0 c -10e-4,0.647 -0.521,1.165 -1.167,1.169 l 0,0 -36.719,-0.002 0,0 z m 36.276,-1.609 0,-21.328 -35.834,-0.002 0,21.327 35.834,0.003 0,0 z"
           inkscape:connector-curvature="0"
           style="fill:#f4f4f4" /><path
           id="path5679"
           d="m 408.876,245.975 c -2.848,0 -5.157,-2.311 -5.157,-5.157 l 0,0 0,-6.347 c 0,-2.849 2.31,-5.156 5.157,-5.156 l 0,0 21.943,0 c 2.846,0 5.155,2.308 5.155,5.156 l 0,0 0,6.347 c 0,2.848 -2.31,5.157 -5.155,5.157 l 0,0 -21.943,0 0,0 z m -3.547,-11.504 0,6.347 c 0.005,1.958 1.589,3.542 3.549,3.546 l 0,0 21.941,0 c 1.956,-0.004 3.54,-1.589 3.543,-3.546 l 0,0 0,-6.347 c -0.003,-1.958 -1.589,-3.544 -3.543,-3.547 l 0,0 -21.941,0 c -1.961,0.003 -3.544,1.587 -3.549,3.547 l 0,0 z"
           inkscape:connector-curvature="0"
           style="fill:#f4f4f4" /></g><g
         id="g5681"><path
           id="path5683"
           d="m 439.99,249.918 c -0.646,-0.002 -1.168,-0.522 -1.168,-1.168 l 0,0 0,-22.212 c 0,-0.646 0.522,-1.167 1.168,-1.169 l 0,0 22.213,0 c 0.645,0.002 1.166,0.523 1.166,1.169 l 0,0 0,22.212 c 0,0.646 -0.52,1.166 -1.166,1.168 l 0,0 -22.213,0 0,0 z m 21.769,-1.61 0.002,-21.328 -21.327,0 -0.001,21.326 21.326,0.002 0,0 z"
           inkscape:connector-curvature="0"
           style="fill:#f4f4f4" /><path
           id="path5685"
           d="m 447.38,245.975 c -2.851,0 -5.158,-2.31 -5.158,-5.156 l 0,0 -0.002,-6.348 c 0.002,-2.849 2.31,-5.157 5.16,-5.157 l 0,0 7.434,0 c 2.847,0 5.156,2.309 5.156,5.157 l 0,0 0,6.348 c 0,2.847 -2.31,5.156 -5.156,5.156 l 0,0 -7.434,0 0,0 z m -3.549,-11.504 0,6.348 c 0.005,1.956 1.59,3.542 3.549,3.545 l 0,0 7.434,0 c 1.957,-0.003 3.542,-1.59 3.546,-3.545 l 0,0 -0.003,-6.348 c -0.001,-1.959 -1.586,-3.543 -3.542,-3.546 l 0,0 -7.435,-0.002 c -1.959,0.004 -3.544,1.589 -3.549,3.548 l 0,0 z"
           inkscape:connector-curvature="0"
           style="fill:#f4f4f4" /></g><g
         id="g5687"><path
           id="path5689"
           d="m 137.472,274.136 c -0.644,0 -1.168,-0.523 -1.168,-1.17 l 0,0 0,-22.212 c 0.002,-0.645 0.521,-1.167 1.168,-1.167 l 0,0 34.905,0 c 0.646,0 1.169,0.522 1.169,1.167 l 0,0 0,22.212 c 0,0.646 -0.524,1.168 -1.169,1.17 l 0,0 -34.905,0 0,0 z m 34.464,-1.611 0,-21.329 -34.02,0 -0.002,21.329 34.022,0 0,0 z"
           inkscape:connector-curvature="0"
           style="fill:#f4f4f4" /><path
           id="path5691"
           d="m 144.861,270.19 c -2.849,0 -5.156,-2.309 -5.156,-5.155 l 0,0 0,-6.347 c 0,-2.85 2.307,-5.158 5.156,-5.158 l 0,0 20.128,0 c 2.849,0 5.156,2.309 5.156,5.158 l 0,0 0,6.347 c 0,2.847 -2.307,5.155 -5.156,5.155 l 0,0 -20.128,0 0,0 z m -3.545,-11.502 0,6.347 c 0.003,1.956 1.587,3.542 3.545,3.544 l 0,0 20.128,0 c 1.958,-0.002 3.542,-1.589 3.546,-3.544 l 0,0 0.001,0 0,-6.347 c -0.005,-1.96 -1.589,-3.544 -3.547,-3.547 l 0,0 -20.128,0 c -1.959,0.004 -3.542,1.588 -3.545,3.547 l 0,0 z"
           inkscape:connector-curvature="0"
           style="fill:#f4f4f4" /></g><g
         id="g5693"><path
           id="path5695"
           d="m 203.114,298.132 c -0.646,-0.002 -1.168,-0.526 -1.17,-1.169 l 0,0 0.002,-22.213 c 0,-0.645 0.521,-1.166 1.168,-1.168 l 0,0 194.837,0 c 0.643,0.002 1.167,0.523 1.169,1.168 l 0,0 0,22.213 c -0.002,0.643 -0.526,1.167 -1.169,1.169 l 0,0 -194.837,0 0,0 z m 194.394,-1.611 0,-21.327 -193.951,0 -10e-4,21.327 193.952,0 0,0 z"
           inkscape:connector-curvature="0"
           style="fill:#f4f4f4" /><path
           id="path5697"
           d="m 210.502,294.187 c -2.848,0 -5.157,-2.309 -5.157,-5.156 l 0,0 0,-6.346 c 0,-2.849 2.309,-5.158 5.157,-5.158 l 0,0 180.06,0 c 2.849,0 5.156,2.31 5.157,5.158 l 0,0 0,6.346 -10e-4,0 c 0,2.848 -2.308,5.157 -5.156,5.157 l 0,0 -180.06,-10e-4 0,0 z m -3.545,-11.502 0,6.346 c 0.003,1.957 1.589,3.542 3.546,3.546 l 0,0 180.059,0 c 1.96,-0.004 3.544,-1.588 3.547,-3.546 l 0,0 0,-6.346 c -0.003,-1.961 -1.589,-3.545 -3.547,-3.548 l 0,0 -180.06,0 c -1.959,0.003 -3.544,1.587 -3.545,3.548 l 0,0 z"
           inkscape:connector-curvature="0"
           style="fill:#f4f4f4" /></g><g
         id="g5699"><path
           id="path5701"
           d="m 174.162,274.136 c -0.644,0 -1.168,-0.523 -1.168,-1.17 l 0,0 0,-22.212 c 0.002,-0.645 0.521,-1.167 1.168,-1.167 l 0,0 22.212,0 c 0.647,0 1.167,0.522 1.168,1.167 l 0,0 0,22.212 c 0,0.646 -0.523,1.17 -1.168,1.17 l 0,0 -22.212,0 0,0 z m 21.769,-1.611 10e-4,-21.329 -21.328,0 0,21.329 21.327,0 0,0 z"
           inkscape:connector-curvature="0"
           style="fill:#f4f4f4" /><path
           id="path5703"
           d="m 181.551,270.19 c -2.848,-10e-4 -5.157,-2.307 -5.157,-5.156 l 0,0 0,-6.347 c 0,-2.848 2.308,-5.157 5.157,-5.158 l 0,0 7.435,0.001 c 2.848,0 5.157,2.31 5.157,5.157 l 0,0 0,6.347 c 0,2.85 -2.309,5.155 -5.157,5.156 l 0,0 -7.435,0 0,0 z m -3.548,-11.502 0.002,6.347 c 0.003,1.958 1.587,3.542 3.546,3.544 l 0,0 7.435,0.002 c 1.959,-0.004 3.543,-1.589 3.546,-3.546 l 0,0 0,-6.347 c -0.003,-1.959 -1.587,-3.544 -3.546,-3.546 l 0,0 -7.435,0 c -1.959,0.002 -3.543,1.587 -3.548,3.546 l 0,0 z"
           inkscape:connector-curvature="0"
           style="fill:#f4f4f4" /></g><g
         id="g5705"><path
           id="path5707"
           d="m 198.158,274.135 c -0.646,0 -1.168,-0.521 -1.168,-1.167 l 0,0 0,-22.214 c 0.001,-0.646 0.521,-1.166 1.168,-1.169 l 0,0 22.212,0 c 0.646,0.003 1.167,0.522 1.168,1.169 l 0,0 0,22.214 c 0,0.646 -0.523,1.167 -1.168,1.168 l 0,0 -22.212,-0.001 0,0 z m 21.769,-1.611 0,-21.327 -21.328,-0.001 0,21.328 21.328,0 0,0 z"
           inkscape:connector-curvature="0"
           style="fill:#f4f4f4" /><path
           id="path5709"
           d="m 205.546,270.19 c -2.849,-10e-4 -5.157,-2.31 -5.157,-5.156 l 0,0 0,-6.347 c 0,-2.848 2.308,-5.157 5.157,-5.158 l 0,0 7.435,0 c 2.849,0.001 5.156,2.311 5.156,5.158 l 0,0 0,6.347 c 0,2.847 -2.307,5.155 -5.156,5.156 l 0,0 -7.435,0 0,0 z M 202,258.688 l 0,6.347 c 0.003,1.958 1.587,3.542 3.546,3.544 l 0,0 7.435,0 c 1.958,-0.002 3.542,-1.587 3.545,-3.544 l 0,0 0,-6.347 c -0.003,-1.959 -1.587,-3.544 -3.545,-3.546 l 0,0 -7.435,0 c -1.959,0.002 -3.543,1.587 -3.546,3.546 l 0,0 z"
           inkscape:connector-curvature="0"
           style="fill:#f4f4f4" /></g><g
         id="g5711"><path
           id="path5713"
           d="m 222.154,274.136 c -0.646,-0.002 -1.167,-0.524 -1.169,-1.17 l 0,0 0,-22.212 c 10e-4,-0.645 0.522,-1.167 1.169,-1.167 l 0,0 22.213,0 c 0.647,0 1.166,0.522 1.167,1.167 l 0,0 0,22.212 c 0,0.646 -0.524,1.17 -1.167,1.17 l 0,0 -22.213,0 0,0 z m 21.77,-1.611 0,-21.329 -21.327,0 -0.001,21.329 21.328,0 0,0 z"
           inkscape:connector-curvature="0"
           style="fill:#f4f4f4" /><path
           id="path5715"
           d="m 229.542,270.19 c -2.848,-10e-4 -5.156,-2.307 -5.156,-5.156 l 0,0 0,-6.347 c 0,-2.849 2.309,-5.157 5.156,-5.158 l 0,0 7.435,0.001 c 2.85,0 5.157,2.31 5.157,5.157 l 0,0 0,6.347 c 0,2.85 -2.307,5.155 -5.157,5.156 l 0,0 -7.435,0 0,0 z m -3.547,-11.502 0.002,6.347 c 0.003,1.958 1.587,3.542 3.545,3.544 l 0,0 7.435,0.002 c 1.958,-0.004 3.542,-1.589 3.546,-3.546 l 0,0 0.001,0 0,-6.347 c -0.005,-1.959 -1.589,-3.544 -3.547,-3.546 l 0,0 -7.435,0 c -1.958,0.002 -3.542,1.587 -3.547,3.546 l 0,0 z"
           inkscape:connector-curvature="0"
           style="fill:#f4f4f4" /></g><g
         id="g5717"><path
           id="path5719"
           d="m 246.149,274.136 c -0.645,-0.002 -1.168,-0.523 -1.168,-1.17 l 0,0 0,-22.212 c 0,-0.645 0.522,-1.167 1.168,-1.167 l 0,0 22.212,0 c 0.648,0.002 1.167,0.523 1.169,1.167 l 0,0 0,22.212 -0.002,0 c 0,0.646 -0.521,1.17 -1.167,1.17 l 0,0 -22.212,0 0,0 z m 21.77,-1.611 0,-21.329 -21.328,0 0,21.329 21.328,0 0,0 z"
           inkscape:connector-curvature="0"
           style="fill:#f4f4f4" /><path
           id="path5721"
           d="m 253.539,270.189 c -2.849,0 -5.158,-2.306 -5.158,-5.155 l 0,0 0,-6.347 c 0,-2.849 2.309,-5.157 5.158,-5.158 l 0,0 7.434,0.001 c 2.849,0 5.156,2.309 5.156,5.157 l 0,0 0,6.347 10e-4,0 c -10e-4,2.85 -2.309,5.155 -5.158,5.156 l 0,0 -7.433,-10e-4 0,0 z m -3.547,-11.501 0,6.347 c 0.003,1.958 1.589,3.542 3.547,3.544 l 0,0 7.434,0.002 c 1.958,-0.004 3.542,-1.589 3.547,-3.546 l 0,0 0,-6.347 c -0.005,-1.959 -1.59,-3.544 -3.547,-3.546 l 0,0 -7.434,-0.001 c -1.958,0.003 -3.544,1.588 -3.547,3.547 l 0,0 z"
           inkscape:connector-curvature="0"
           style="fill:#f4f4f4" /></g><g
         id="g5723"><path
           id="path5725"
           d="m 270.145,274.135 c -0.644,0 -1.167,-0.522 -1.168,-1.167 l 0,0 0,-22.214 c 0,-0.645 0.522,-1.166 1.168,-1.169 l 0,0 22.211,0 c 0.647,0 1.169,0.524 1.169,1.169 l 0,0 0,22.214 c 0,0.645 -0.526,1.167 -1.169,1.168 l 0,0 -22.211,-0.001 0,0 z m 21.771,-1.611 0,-21.327 -21.327,-0.001 -0.002,21.328 21.329,0 0,0 z"
           inkscape:connector-curvature="0"
           style="fill:#f4f4f4" /><path
           id="path5727"
           d="m 277.535,270.189 c -2.849,0 -5.157,-2.306 -5.158,-5.155 l 0,0 0,-6.347 c 10e-4,-2.849 2.309,-5.157 5.158,-5.158 l 0,0 7.433,0.001 c 2.85,0 5.157,2.31 5.157,5.157 l 0,0 0,6.347 c 0,2.847 -2.307,5.155 -5.157,5.156 l 0,0 -7.433,-10e-4 0,0 z m -3.548,-11.501 0,6.347 c 0.004,1.958 1.589,3.542 3.548,3.544 l 0,0 7.433,0.002 c 1.958,-0.004 3.543,-1.589 3.546,-3.546 l 0,0 0,0 0,-6.347 c -0.004,-1.959 -1.589,-3.544 -3.547,-3.546 l 0,0 -7.433,-0.001 c -1.957,0.003 -3.543,1.588 -3.547,3.547 l 0,0 z"
           inkscape:connector-curvature="0"
           style="fill:#f4f4f4" /></g><g
         id="g5729"><path
           id="path5731"
           d="m 294.14,274.135 c -0.645,0 -1.167,-0.521 -1.168,-1.167 l 0,0 0.002,-22.214 c 0.001,-0.646 0.521,-1.166 1.167,-1.169 l 0,0 22.213,0 c 0.646,0.003 1.167,0.524 1.169,1.169 l 0,0 0,22.214 -0.002,0 c 0,0.645 -0.522,1.167 -1.167,1.168 l 0,0 -22.214,-0.001 0,0 z m 21.77,-1.611 0,-21.327 -21.327,-0.001 0,21.328 21.327,0 0,0 z"
           inkscape:connector-curvature="0"
           style="fill:#f4f4f4" /><path
           id="path5733"
           d="m 301.53,270.189 c -2.85,0 -5.158,-2.306 -5.158,-5.155 l 0,0 0,-6.347 c 0,-2.849 2.309,-5.157 5.158,-5.158 l 0,0 7.436,0 c 2.848,0.001 5.154,2.31 5.154,5.158 l 0,0 0,6.347 0.002,0 c -0.002,2.85 -2.309,5.155 -5.156,5.156 l 0,0 -7.436,-10e-4 0,0 z m -3.548,-11.501 0.002,6.347 c 0.003,1.958 1.588,3.542 3.546,3.544 l 0,0 7.436,0 c 1.955,-0.002 3.541,-1.587 3.544,-3.544 l 0,0 0.001,0 0,-6.347 c -0.004,-1.959 -1.59,-3.544 -3.545,-3.546 l 0,0 -7.436,-0.001 c -1.959,0.003 -3.543,1.588 -3.548,3.547 l 0,0 z"
           inkscape:connector-curvature="0"
           style="fill:#f4f4f4" /></g><g
         id="g5735"><path
           id="path5737"
           d="m 318.137,274.135 c -0.646,0 -1.166,-0.522 -1.17,-1.167 l 0,0 0,-22.214 c 0,-0.645 0.521,-1.166 1.17,-1.169 l 0,0 22.213,0 c 0.646,0.003 1.168,0.524 1.168,1.169 l 0,0 0,22.214 c 0,0.645 -0.522,1.167 -1.168,1.168 l 0,0 -22.213,-0.001 0,0 z m 21.77,-1.611 0,-21.327 -21.328,-0.001 -0.001,21.328 21.329,0 0,0 z"
           inkscape:connector-curvature="0"
           style="fill:#f4f4f4" /><path
           id="path5739"
           d="m 325.527,270.19 c -2.851,-10e-4 -5.159,-2.31 -5.159,-5.156 l 0,0 0,-6.347 c 0,-2.848 2.309,-5.157 5.159,-5.158 l 0,0 7.432,0.001 c 2.851,0 5.157,2.31 5.157,5.157 l 0,0 0,6.347 c 0,2.847 -2.307,5.155 -5.157,5.156 l 0,0 -7.432,0 0,0 z m -3.548,-11.502 0,6.347 c 0.004,1.958 1.589,3.542 3.549,3.544 l 0,0 7.432,0.002 c 1.958,-0.004 3.543,-1.589 3.545,-3.546 l 0,0 0.004,0 0,-6.347 c -0.006,-1.959 -1.591,-3.544 -3.549,-3.546 l 0,0 -7.432,0 c -1.963,0.002 -3.546,1.587 -3.549,3.546 l 0,0 z"
           inkscape:connector-curvature="0"
           style="fill:#f4f4f4" /></g><g
         id="g5741"><path
           id="path5743"
           d="m 342.132,274.135 c -0.644,0 -1.165,-0.522 -1.167,-1.167 l 0,0 0,-22.214 c 0,-0.645 0.521,-1.169 1.167,-1.169 l 0,0 22.215,0 c 0.646,0.003 1.165,0.522 1.167,1.169 l 0,0 0,22.214 c -0.002,0.646 -0.524,1.167 -1.167,1.168 l 0,0 -22.215,-0.001 0,0 z m 21.771,-1.611 0,-21.327 -21.327,-0.001 0,21.328 21.327,0 0,0 z"
           inkscape:connector-curvature="0"
           style="fill:#f4f4f4" /><path
           id="path5745"
           d="m 349.522,270.189 c -2.85,0 -5.157,-2.306 -5.157,-5.155 l 0,0 0,-6.347 c 0,-2.849 2.308,-5.157 5.157,-5.158 l 0,0 7.435,0.001 c 2.847,0 5.155,2.309 5.155,5.157 l 0,0 0,6.347 c 0,2.85 -2.309,5.155 -5.155,5.156 l 0,0 -7.435,-10e-4 0,0 z m -3.547,-11.501 0,6.347 c 0.003,1.958 1.589,3.542 3.548,3.544 l 0,0 7.435,0.002 c 1.956,-0.004 3.542,-1.589 3.545,-3.546 l 0,0 0,-6.347 c -0.003,-1.959 -1.59,-3.544 -3.545,-3.546 l 0,0 -7.435,-0.001 c -1.96,0.003 -3.545,1.588 -3.548,3.547 l 0,0 z"
           inkscape:connector-curvature="0"
           style="fill:#f4f4f4" /></g><g
         id="g5747"><path
           id="path5749"
           d="m 366.13,274.135 c -0.646,0 -1.168,-0.522 -1.168,-1.167 l 0,0 0,-22.214 c 0,-0.645 0.52,-1.166 1.168,-1.169 l 0,0 22.211,0 c 0.646,0.003 1.167,0.524 1.169,1.169 l 0,0 0,22.214 -0.002,0 c 0,0.645 -0.522,1.167 -1.167,1.168 l 0,0 -22.211,-0.001 0,0 z m 21.767,-1.611 0,-21.327 -21.325,-0.001 0,21.328 21.325,0 0,0 z"
           inkscape:connector-curvature="0"
           style="fill:#f4f4f4" /><path
           id="path5751"
           d="m 373.518,270.19 c -2.85,0 -5.156,-2.309 -5.156,-5.156 l 0,0 0,-6.347 c 0,-2.849 2.307,-5.157 5.156,-5.158 l 0,0 7.434,0 c 2.849,0.001 5.156,2.311 5.156,5.158 l 0,0 0,6.347 0.002,0 c -0.002,2.848 -2.31,5.156 -5.158,5.156 l 0,0 -7.434,0 0,0 z m -3.548,-11.502 10e-4,6.347 c 0.003,1.957 1.589,3.542 3.547,3.544 l 0,0 7.433,0 c 1.961,-0.002 3.543,-1.587 3.547,-3.544 l 0,0 0.001,0 0,-6.347 c -0.005,-1.959 -1.588,-3.543 -3.548,-3.546 l 0,0 -7.433,0 c -1.958,0.003 -3.544,1.587 -3.548,3.546 l 0,0 z"
           inkscape:connector-curvature="0"
           style="fill:#f4f4f4" /></g><g
         id="g5753"><path
           id="path5755"
           d="m 390.124,274.135 c -0.645,0 -1.166,-0.522 -1.168,-1.167 l 0,0 0,-22.214 c 0,-0.645 0.52,-1.166 1.168,-1.168 l 0,0 22.213,0 c 0.646,0.002 1.166,0.521 1.167,1.168 l 0,0 0,22.214 c 0,0.646 -0.522,1.167 -1.167,1.168 l 0,0 -22.213,-0.001 0,0 z m 21.77,-1.61 10e-4,-21.329 -21.328,0 0,21.327 21.327,0.002 0,0 z"
           inkscape:connector-curvature="0"
           style="fill:#f4f4f4" /><path
           id="path5757"
           d="m 397.514,270.189 c -2.848,0 -5.157,-2.307 -5.157,-5.154 l 0,0 0,-6.348 c 0,-2.849 2.31,-5.157 5.157,-5.158 l 0,0 7.435,0.001 c 2.848,0 5.155,2.309 5.155,5.157 l 0,0 0,6.348 0.002,0 c -0.002,2.848 -2.31,5.154 -5.157,5.155 l 0,0 -7.435,-10e-4 0,0 z m -3.549,-11.501 0.002,6.348 c 0.003,1.956 1.587,3.542 3.547,3.544 l 0,0 7.433,0 c 1.958,-0.002 3.543,-1.589 3.547,-3.544 l 0,0 0,-6.348 c -0.004,-1.959 -1.589,-3.543 -3.547,-3.546 l 0,0 -7.433,0 c -1.96,0.003 -3.544,1.587 -3.549,3.546 l 0,0 z"
           inkscape:connector-curvature="0"
           style="fill:#f4f4f4" /></g><g
         id="g5759"><path
           id="path5761"
           d="m 414.12,274.136 c -0.645,0 -1.167,-0.521 -1.169,-1.169 l 0,0 0,-22.213 c 0.002,-0.647 0.521,-1.166 1.169,-1.168 l 0,0 36.719,0 c 0.647,0.002 1.168,0.523 1.17,1.168 l 0,0 0,22.213 -0.002,0 c 0,0.645 -0.521,1.169 -1.168,1.169 l 0,0 -36.719,0 0,0 z m 36.276,-1.611 0,-21.328 -35.833,-0.001 0,21.329 35.833,0 0,0 z"
           inkscape:connector-curvature="0"
           style="fill:#f4f4f4" /><path
           id="path5763"
           d="m 421.509,270.189 c -2.849,0 -5.158,-2.308 -5.158,-5.155 l 0,0 0,-6.347 c 0,-2.849 2.31,-5.157 5.158,-5.157 l 0,0 21.941,0 c 2.849,0 5.154,2.309 5.154,5.157 l 0,0 0,6.347 0.003,0 c -0.003,2.848 -2.309,5.155 -5.157,5.157 l 0,0 -21.941,-0.002 0,0 z m -3.548,-11.501 0,6.347 c 0.006,1.957 1.591,3.542 3.548,3.544 l 0,0 21.941,0.002 c 1.958,-0.004 3.541,-1.589 3.544,-3.546 l 0,0 0.003,0 0,-6.347 c -0.006,-1.959 -1.591,-3.543 -3.547,-3.546 l 0,0 -21.941,0 c -1.957,0.003 -3.542,1.587 -3.548,3.546 l 0,0 z"
           inkscape:connector-curvature="0"
           style="fill:#f4f4f4" /></g><path
         id="path5765"
         d="m 119.897,299.371 0,-127.286 c 10e-4,-2.85 2.31,-5.157 5.158,-5.157 l 0,0 349.765,0 c 2.849,0 5.156,2.31 5.157,5.157 l 0,0 0,127.286 -10e-4,0 c 0,2.848 -2.308,5.155 -5.156,5.155 l 0,0 -349.767,0.003 c -2.847,-0.003 -5.155,-2.31 -5.156,-5.158 l 0,0 z m 1.611,-127.286 0,127.286 c 0.003,1.957 1.588,3.542 3.546,3.547 l 0,0 349.766,0 c 1.958,-0.005 3.542,-1.589 3.546,-3.547 l 0,0 0,-127.286 c -0.004,-1.959 -1.588,-3.542 -3.546,-3.546 l 0,0 -349.766,0 c -1.958,0.003 -3.543,1.587 -3.546,3.546 l 0,0 z"
         inkscape:connector-curvature="0"
         style="fill:#f4f4f4" /><path
         id="path5767"
         d="m 69.027,313.774 c -2.248,0 -4.07,-1.821 -4.07,-4.068 l 0,0 0,-149.044 c 0,-2.248 1.822,-4.07 4.07,-4.07 l 0,0 461.822,0 c 2.246,0 4.068,1.822 4.068,4.07 l 0,0 0,149.045 c 0,2.247 -1.822,4.068 -4.068,4.068 l 0,0 -461.822,-10e-4 0,0 z M 66.568,160.662 66.566,309.707 c 0.003,1.356 1.102,2.454 2.46,2.458 l 0,0 461.822,0 c 1.358,-0.004 2.457,-1.102 2.46,-2.458 l 0,0 -0.002,0 0.002,-149.045 c -0.003,-1.359 -1.102,-2.457 -2.46,-2.458 l 0,0 -461.822,-0.003 c -1.358,0.004 -2.456,1.102 -2.458,2.461 l 0,0 z"
         inkscape:connector-curvature="0"
         style="fill:#f4f4f4" /><path
         id="path5769"
         d="m 66.034,334.991 c -2.246,-0.003 -4.069,-1.823 -4.069,-4.069 l 0,0 0,-306.248 c 0,-2.249 1.823,-4.07 4.069,-4.072 l 0,0 467.807,0 c 2.247,0.001 4.068,1.823 4.07,4.072 l 0,0 0,306.248 -0.002,0 c 0,2.246 -1.821,4.066 -4.068,4.069 l 0,0 -467.807,0 0,0 z m -2.458,-310.317 0,306.248 c 0.002,1.358 1.101,2.454 2.458,2.457 l 0,0 467.807,0 c 1.358,-0.003 2.454,-1.099 2.458,-2.457 l 0,0 0,-306.248 c -0.004,-1.36 -1.1,-2.458 -2.458,-2.46 l 0,0 -467.807,0 c -1.357,0.001 -2.456,1.1 -2.458,2.46 l 0,0 z"
         inkscape:connector-curvature="0"
         style="fill:#f4f4f4" /><path
         id="path5771"
         d="m 222.569,112.109 c -0.646,0 -1.167,-0.522 -1.169,-1.168 l 0,0 0.001,-13.599 c 0,-0.645 0.52,-1.168 1.167,-1.169 l 0,0 152.862,0 c 0.646,0.001 1.165,0.524 1.167,1.169 l 0,0 0,13.599 -0.002,0 c 0,0.646 -0.521,1.168 -1.165,1.168 l 0,0 -152.861,0 0,0 z m 152.416,-1.609 0.002,-12.714 -151.975,-0.001 0,12.715 151.973,0 0,0 z"
         inkscape:connector-curvature="0"
         style="fill:#f4f4f4" /><path
         id="path5773"
         d="m 69.117,82.046 c -2.449,0 -4.431,-1.983 -4.431,-4.431 l 0,0 0,-43.879 c 0,-2.448 1.983,-4.431 4.431,-4.431 l 0,0 461.64,0 c 2.449,0 4.433,1.983 4.433,4.431 l 0,0 0,43.879 0.002,0 c -0.002,2.448 -1.985,4.431 -4.435,4.431 l 0,0 -461.64,0 0,0 z m -2.822,-48.31 0.002,43.879 c 0.001,1.558 1.263,2.819 2.82,2.82 l 0,0 461.64,0 c 1.56,-0.001 2.818,-1.262 2.82,-2.82 l 0,0 0.003,0 -0.003,-43.879 c -0.002,-1.558 -1.261,-2.818 -2.82,-2.82 l 0,0 -461.64,0 c -1.557,0.002 -2.819,1.263 -2.822,2.82 l 0,0 z"
         inkscape:connector-curvature="0"
         style="fill:#f4f4f4" /><g
         id="g5775"><path
           id="path5777"
           d="m 101.258,39.396 c -0.845,0 -1.53,-0.685 -1.53,-1.529 l 0,0 0,-2.721 c 0,-0.846 0.686,-1.529 1.53,-1.53 l 0,0 190.033,0 c 0.846,10e-4 1.529,0.685 1.529,1.53 l 0,0 0,2.721 c 0,0.845 -0.684,1.529 -1.529,1.529 l 0,0 -190.033,0 0,0 z m 189.952,-1.609 0,-2.56 -189.873,0 0,2.56 189.873,0 0,0 z"
           inkscape:connector-curvature="0"
           style="fill:#f4f4f4" /><g
           id="g5779"><polygon
             id="polygon5781"
             points="159.997,38.502 158.386,38.502 158.386,34.513 159.997,34.513 "
             style="fill:#f4f4f4" /><polygon
             id="polygon5783"
             points="162.445,38.502 160.834,38.502 160.834,34.511 162.445,34.511 "
             style="fill:#f4f4f4" /></g><g
           id="g5785"><polygon
             id="polygon5787"
             points="192.729,38.502 191.116,38.502 191.116,34.513 192.729,34.513 "
             style="fill:#f4f4f4" /><polygon
             id="polygon5789"
             points="195.176,38.502 193.565,38.502 193.565,34.513 195.176,34.513 "
             style="fill:#f4f4f4" /></g><g
           id="g5791"><polygon
             id="polygon5793"
             points="242.05,38.502 240.439,38.502 240.439,34.512 242.05,34.512 "
             style="fill:#f4f4f4" /><polygon
             id="polygon5795"
             points="244.498,38.502 242.887,38.502 242.887,34.513 244.498,34.513 "
             style="fill:#f4f4f4" /></g><polygon
           id="polygon5797"
           points="156.914,38.591 155.303,38.591 155.303,34.33 156.914,34.33 "
           style="fill:#f4f4f4" /><polygon
           id="polygon5799"
           points="105.69,38.592 104.079,38.592 104.079,34.33 105.69,34.33 "
           style="fill:#f4f4f4" /><g
           id="g5801"><path
             id="path5803"
             d="m 101.258,46.832 c -0.845,0 -1.53,-0.686 -1.53,-1.531 l 0,0 0,-2.72 c 0,-0.846 0.686,-1.529 1.53,-1.53 l 0,0 190.033,0 c 0.846,10e-4 1.529,0.685 1.529,1.53 l 0,0 0,2.72 c 0,0.846 -0.684,1.531 -1.529,1.531 l 0,0 -190.033,0 0,0 z m 189.952,-1.61 0,-2.56 -189.873,-0.002 0,2.562 189.873,0 0,0 z"
             inkscape:connector-curvature="0"
             style="fill:#f4f4f4" /><g
             id="g5805"><polygon
               id="polygon5807"
               points="159.998,45.936 158.387,45.936 158.387,41.947 159.998,41.947 "
               style="fill:#f4f4f4" /><polygon
               id="polygon5809"
               points="162.445,45.936 160.834,45.936 160.834,41.946 162.445,41.946 "
               style="fill:#f4f4f4" /></g><g
             id="g5811"><polygon
               id="polygon5813"
               points="192.729,45.936 191.116,45.936 191.116,41.946 192.729,41.946 "
               style="fill:#f4f4f4" /><polygon
               id="polygon5815"
               points="195.176,45.935 193.565,45.935 193.565,41.945 195.176,41.945 "
               style="fill:#f4f4f4" /></g><g
             id="g5817"><polygon
               id="polygon5819"
               points="242.05,45.936 240.439,45.936 240.439,41.946 242.05,41.946 "
               style="fill:#f4f4f4" /><polygon
               id="polygon5821"
               points="244.498,45.936 242.887,45.936 242.887,41.946 244.498,41.946 "
               style="fill:#f4f4f4" /></g><polygon
             id="polygon5823"
             points="156.916,46.026 155.305,46.026 155.305,41.767 156.916,41.767 "
             style="fill:#f4f4f4" /><polygon
             id="polygon5825"
             points="105.69,46.026 104.079,46.026 104.079,41.767 105.69,41.767 "
             style="fill:#f4f4f4" /></g><g
           id="g5827"><path
             id="path5829"
             d="m 101.258,54.266 c -0.845,0 -1.53,-0.685 -1.53,-1.531 l 0,0 0,-2.719 c 0,-0.847 0.686,-1.53 1.53,-1.532 l 0,0 190.033,0 c 0.846,10e-4 1.529,0.686 1.529,1.532 l 0,0 0,2.719 c 0,0.846 -0.684,1.531 -1.529,1.531 l 0,0 -190.033,0 0,0 z m 189.952,-1.611 0,-2.56 -189.873,0 0,2.56 189.873,0 0,0 z"
             inkscape:connector-curvature="0"
             style="fill:#f4f4f4" /><g
             id="g5831"><polygon
               id="polygon5833"
               points="159.998,53.371 158.387,53.371 158.387,49.38 159.998,49.38 "
               style="fill:#f4f4f4" /><polygon
               id="polygon5835"
               points="162.446,53.371 160.835,53.371 160.835,49.38 162.446,49.38 "
               style="fill:#f4f4f4" /></g><g
             id="g5837"><polygon
               id="polygon5839"
               points="192.729,53.37 191.116,53.37 191.116,49.381 192.729,49.381 "
               style="fill:#f4f4f4" /><polygon
               id="polygon5841"
               points="195.176,53.37 193.565,53.37 193.565,49.381 195.176,49.381 "
               style="fill:#f4f4f4" /></g><g
             id="g5843"><polygon
               id="polygon5845"
               points="242.05,53.371 240.439,53.371 240.439,49.381 242.05,49.381 "
               style="fill:#f4f4f4" /><polygon
               id="polygon5847"
               points="244.498,53.371 242.887,53.371 242.887,49.381 244.498,49.381 "
               style="fill:#f4f4f4" /></g><polygon
             id="polygon5849"
             points="156.916,53.461 155.305,53.461 155.305,49.2 156.916,49.2 "
             style="fill:#f4f4f4" /><polygon
             id="polygon5851"
             points="105.69,53.461 104.079,53.461 104.079,49.2 105.69,49.2 "
             style="fill:#f4f4f4" /></g><g
           id="g5853"><path
             id="path5855"
             d="m 101.258,61.7 c -0.845,0 -1.53,-0.685 -1.53,-1.53 l 0,0 0,-2.721 c 0,-0.845 0.686,-1.527 1.53,-1.53 l 0,0 190.033,0 c 0.846,0.002 1.529,0.685 1.529,1.53 l 0,0 0,2.721 c 0,0.846 -0.684,1.53 -1.529,1.53 l 0,0 -190.033,0 0,0 z m 189.952,-1.609 0,-2.561 -189.873,0 0,2.56 189.873,10e-4 0,0 z"
             inkscape:connector-curvature="0"
             style="fill:#f4f4f4" /><g
             id="g5857"><polygon
               id="polygon5859"
               points="159.997,60.804 158.386,60.804 158.386,56.814 159.997,56.814 "
               style="fill:#f4f4f4" /><polygon
               id="polygon5861"
               points="162.446,60.804 160.835,60.804 160.835,56.814 162.446,56.814 "
               style="fill:#f4f4f4" /></g><g
             id="g5863"><polygon
               id="polygon5865"
               points="192.729,60.804 191.116,60.804 191.116,56.814 192.729,56.814 "
               style="fill:#f4f4f4" /><polygon
               id="polygon5867"
               points="195.176,60.804 193.565,60.804 193.565,56.814 195.176,56.814 "
               style="fill:#f4f4f4" /></g><g
             id="g5869"><polygon
               id="polygon5871"
               points="242.05,60.804 240.439,60.804 240.439,56.815 242.05,56.815 "
               style="fill:#f4f4f4" /><polygon
               id="polygon5873"
               points="244.498,60.804 242.887,60.804 242.887,56.814 244.498,56.814 "
               style="fill:#f4f4f4" /></g><polygon
             id="polygon5875"
             points="156.915,60.895 155.303,60.895 155.303,56.635 156.915,56.635 "
             style="fill:#f4f4f4" /><polygon
             id="polygon5877"
             points="105.69,60.895 104.079,60.895 104.079,56.635 105.69,56.635 "
             style="fill:#f4f4f4" /></g><g
           id="g5879"><path
             id="path5881"
             d="m 101.258,69.135 c -0.845,0 -1.53,-0.686 -1.53,-1.531 l 0,0 0,-2.718 c 0,-0.847 0.686,-1.531 1.53,-1.533 l 0,0 190.033,0 c 0.846,10e-4 1.529,0.686 1.529,1.533 l 0,0 0,2.718 c 0,0.845 -0.684,1.531 -1.529,1.531 l 0,0 -190.033,0 0,0 z m 189.952,-1.61 0,-2.56 -189.873,0 0,2.56 189.873,0 0,0 z"
             inkscape:connector-curvature="0"
             style="fill:#f4f4f4" /><g
             id="g5883"><polygon
               id="polygon5885"
               points="159.997,68.239 158.387,68.239 158.387,64.25 159.997,64.25 "
               style="fill:#f4f4f4" /><polygon
               id="polygon5887"
               points="162.446,68.239 160.835,68.239 160.835,64.25 162.446,64.25 "
               style="fill:#f4f4f4" /></g><g
             id="g5889"><polygon
               id="polygon5891"
               points="192.729,68.241 191.116,68.241 191.116,64.251 192.729,64.251 "
               style="fill:#f4f4f4" /><polygon
               id="polygon5893"
               points="195.176,68.24 193.565,68.24 193.565,64.25 195.176,64.25 "
               style="fill:#f4f4f4" /></g><g
             id="g5895"><polygon
               id="polygon5897"
               points="242.05,68.239 240.439,68.239 240.439,64.251 242.05,64.251 "
               style="fill:#f4f4f4" /><polygon
               id="polygon5899"
               points="244.498,68.24 242.887,68.24 242.887,64.249 244.498,64.249 "
               style="fill:#f4f4f4" /></g><polygon
             id="polygon5901"
             points="156.915,68.331 155.304,68.331 155.304,64.069 156.915,64.069 "
             style="fill:#f4f4f4" /><polygon
             id="polygon5903"
             points="105.689,68.331 104.079,68.331 104.079,64.069 105.689,64.069 "
             style="fill:#f4f4f4" /></g><g
           id="g5905"><path
             id="path5907"
             d="m 101.258,76.57 c -0.845,0 -1.53,-0.685 -1.53,-1.53 l 0,0 0,-2.721 c 0,-0.845 0.686,-1.528 1.53,-1.53 l 0,0 190.033,0 c 0.846,0.002 1.529,0.685 1.529,1.53 l 0,0 0,2.721 c 0,0.846 -0.684,1.53 -1.529,1.53 l 0,0 -190.033,0 0,0 z m 189.952,-1.611 0,-2.559 -189.873,0 0,2.56 189.873,0 0,-10e-4 z"
             inkscape:connector-curvature="0"
             style="fill:#f4f4f4" /><g
             id="g5909"><polygon
               id="polygon5911"
               points="159.997,75.674 158.386,75.674 158.386,71.685 159.997,71.685 "
               style="fill:#f4f4f4" /><polygon
               id="polygon5913"
               points="162.446,75.674 160.835,75.674 160.835,71.685 162.446,71.685 "
               style="fill:#f4f4f4" /></g><g
             id="g5915"><polygon
               id="polygon5917"
               points="192.729,75.674 191.116,75.674 191.116,71.685 192.729,71.685 "
               style="fill:#f4f4f4" /><polygon
               id="polygon5919"
               points="195.176,75.674 193.565,75.674 193.565,71.685 195.176,71.685 "
               style="fill:#f4f4f4" /></g><g
             id="g5921"><polygon
               id="polygon5923"
               points="242.05,75.673 240.439,75.673 240.439,71.686 242.05,71.686 "
               style="fill:#f4f4f4" /><polygon
               id="polygon5925"
               points="244.498,75.673 242.887,75.673 242.887,71.686 244.498,71.686 "
               style="fill:#f4f4f4" /></g><polygon
             id="polygon5927"
             points="156.916,75.765 155.304,75.765 155.304,71.503 156.916,71.503 "
             style="fill:#f4f4f4" /><polygon
             id="polygon5929"
             points="105.689,75.765 104.079,75.765 104.079,71.503 105.689,71.503 "
             style="fill:#f4f4f4" /></g><g
           id="g5931"><path
             id="path5933"
             d="m 308.517,39.396 c -0.846,0 -1.529,-0.684 -1.529,-1.53 l 0,0 0,-2.719 c 0,-0.847 0.685,-1.531 1.529,-1.531 l 0,0 190.032,0 c 0.846,0 1.53,0.687 1.53,1.531 l 0,0 0,2.719 c -0.001,0.845 -0.685,1.53 -1.53,1.53 l 0,0 -190.032,0 0,0 z m 189.952,-1.608 0,-2.56 -189.874,-0.001 0,2.56 189.874,10e-4 0,0 z"
             inkscape:connector-curvature="0"
             style="fill:#f4f4f4" /><g
             id="g5935"><g
               id="g5937"><polygon
                 id="polygon5939"
                 points="353.446,38.472 351.834,38.472 351.834,34.36 353.446,34.36 "
                 style="fill:#f4f4f4" /><polygon
                 id="polygon5941"
                 points="355.984,38.471 354.372,38.471 354.372,34.361 355.984,34.361 "
                 style="fill:#f4f4f4" /></g><g
               id="g5943"><polygon
                 id="polygon5945"
                 points="403.069,38.472 401.457,38.472 401.457,34.362 403.069,34.362 "
                 style="fill:#f4f4f4" /><polygon
                 id="polygon5947"
                 points="405.607,38.471 403.997,38.471 403.997,34.361 405.607,34.361 "
                 style="fill:#f4f4f4" /></g><g
               id="g5949"><polygon
                 id="polygon5951"
                 points="452.691,38.471 451.082,38.471 451.082,34.361 452.691,34.361 "
                 style="fill:#f4f4f4" /><polygon
                 id="polygon5953"
                 points="455.231,38.471 453.622,38.471 453.622,34.361 455.231,34.361 "
                 style="fill:#f4f4f4" /></g></g></g><g
           id="g5955"><path
             id="path5957"
             d="m 308.517,46.836 c -0.846,-10e-4 -1.529,-0.686 -1.529,-1.531 l 0,0 0,-2.719 c 0,-0.846 0.685,-1.53 1.529,-1.532 l 0,0 190.032,0.002 c 0.846,0 1.529,0.686 1.53,1.53 l 0,0 0,2.719 c -0.001,0.846 -0.685,1.531 -1.53,1.531 l 0,0 -190.032,0 0,0 z m 189.952,-1.611 0,-2.56 -189.874,0 0,2.56 189.874,0 0,0 z"
             inkscape:connector-curvature="0"
             style="fill:#f4f4f4" /><g
             id="g5959"><g
               id="g5961"><polygon
                 id="polygon5963"
                 points="353.446,45.909 351.834,45.909 351.834,41.8 353.446,41.8 "
                 style="fill:#f4f4f4" /><polygon
                 id="polygon5965"
                 points="355.984,45.909 354.372,45.909 354.372,41.8 355.984,41.8 "
                 style="fill:#f4f4f4" /></g><g
               id="g5967"><polygon
                 id="polygon5969"
                 points="403.069,45.909 401.457,45.909 401.457,41.799 403.069,41.799 "
                 style="fill:#f4f4f4" /><polygon
                 id="polygon5971"
                 points="405.607,45.909 403.997,45.909 403.997,41.8 405.607,41.8 "
                 style="fill:#f4f4f4" /></g><g
               id="g5973"><polygon
                 id="polygon5975"
                 points="452.691,45.911 451.082,45.911 451.082,41.799 452.691,41.799 "
                 style="fill:#f4f4f4" /><polygon
                 id="polygon5977"
                 points="455.231,45.911 453.622,45.911 453.622,41.801 455.231,41.801 "
                 style="fill:#f4f4f4" /></g></g></g><g
           id="g5979"><path
             id="path5981"
             d="m 308.517,54.275 c -0.846,0 -1.529,-0.685 -1.529,-1.53 l 0,0 0,-2.72 c 0,-0.846 0.685,-1.53 1.529,-1.531 l 0,0 190.032,0 c 0.846,0 1.53,0.687 1.53,1.531 l 0,0 0,2.72 c -0.001,0.843 -0.685,1.53 -1.53,1.531 l 0,0 -190.032,-0.001 0,0 z m 189.952,-1.61 0,-2.561 -189.874,0 0,2.561 189.874,0 0,0 z"
             inkscape:connector-curvature="0"
             style="fill:#f4f4f4" /><g
             id="g5983"><g
               id="g5985"><polygon
                 id="polygon5987"
                 points="353.446,53.349 351.834,53.349 351.834,49.24 353.446,49.24 "
                 style="fill:#f4f4f4" /><polygon
                 id="polygon5989"
                 points="355.984,53.35 354.372,53.35 354.372,49.239 355.984,49.239 "
                 style="fill:#f4f4f4" /></g><g
               id="g5991"><polygon
                 id="polygon5993"
                 points="403.069,53.349 401.457,53.349 401.457,49.239 403.069,49.239 "
                 style="fill:#f4f4f4" /><polygon
                 id="polygon5995"
                 points="405.607,53.349 403.997,53.349 403.997,49.239 405.607,49.239 "
                 style="fill:#f4f4f4" /></g><g
               id="g5997"><polygon
                 id="polygon5999"
                 points="452.691,53.35 451.082,53.35 451.082,49.241 452.691,49.241 "
                 style="fill:#f4f4f4" /><polygon
                 id="polygon6001"
                 points="455.231,53.349 453.622,53.349 453.622,49.239 455.231,49.239 "
                 style="fill:#f4f4f4" /></g></g></g><g
           id="g6003"><path
             id="path6005"
             d="m 308.517,61.714 c -0.846,0 -1.529,-0.685 -1.529,-1.529 l 0,0 0,-2.72 c 0,-0.846 0.685,-1.531 1.529,-1.531 l 0,0 190.032,0 c 0.846,0 1.529,0.686 1.53,1.531 l 0,0 0,2.72 c -0.001,0.845 -0.685,1.528 -1.53,1.529 l 0,0 -190.032,0 0,0 z m 189.952,-1.61 0,-2.56 -189.874,0 0,2.558 189.874,0.002 0,0 z"
             inkscape:connector-curvature="0"
             style="fill:#f4f4f4" /><g
             id="g6007"><g
               id="g6009"><polygon
                 id="polygon6011"
                 points="353.446,60.789 351.834,60.789 351.834,56.677 353.446,56.677 "
                 style="fill:#f4f4f4" /><polygon
                 id="polygon6013"
                 points="355.984,60.789 354.372,60.789 354.372,56.677 355.984,56.677 "
                 style="fill:#f4f4f4" /></g><g
               id="g6015"><polygon
                 id="polygon6017"
                 points="403.069,60.788 401.457,60.788 401.457,56.678 403.069,56.678 "
                 style="fill:#f4f4f4" /><polygon
                 id="polygon6019"
                 points="405.607,60.789 403.997,60.789 403.997,56.677 405.607,56.677 "
                 style="fill:#f4f4f4" /></g><g
               id="g6021"><polygon
                 id="polygon6023"
                 points="452.691,60.788 451.082,60.788 451.082,56.678 452.691,56.678 "
                 style="fill:#f4f4f4" /><polygon
                 id="polygon6025"
                 points="455.231,60.788 453.622,60.788 453.622,56.678 455.231,56.678 "
                 style="fill:#f4f4f4" /></g></g></g><g
           id="g6027"><path
             id="path6029"
             d="m 308.517,69.153 c -0.846,0 -1.529,-0.686 -1.529,-1.53 l 0,0 0,-2.721 c 0,-0.845 0.685,-1.529 1.529,-1.531 l 0,0 190.032,10e-4 c 0.846,0 1.53,0.686 1.53,1.529 l 0,0 0,2.72 c -0.001,0.846 -0.685,1.531 -1.53,1.531 l 0,0 -190.032,0 0,0.001 z m 189.952,-1.611 0,-2.56 -189.874,0 0,2.56 189.874,0 0,0 z"
             inkscape:connector-curvature="0"
             style="fill:#f4f4f4" /><g
             id="g6031"><g
               id="g6033"><polygon
                 id="polygon6035"
                 points="353.446,68.229 351.834,68.229 351.834,64.117 353.446,64.117 "
                 style="fill:#f4f4f4" /><polygon
                 id="polygon6037"
                 points="355.984,68.229 354.372,68.229 354.372,64.117 355.984,64.117 "
                 style="fill:#f4f4f4" /></g><g
               id="g6039"><polygon
                 id="polygon6041"
                 points="403.069,68.228 401.457,68.228 401.457,64.118 403.069,64.118 "
                 style="fill:#f4f4f4" /><polygon
                 id="polygon6043"
                 points="405.607,68.229 403.997,68.229 403.997,64.116 405.607,64.116 "
                 style="fill:#f4f4f4" /></g><g
               id="g6045"><polygon
                 id="polygon6047"
                 points="452.691,68.227 451.082,68.227 451.082,64.117 452.691,64.117 "
                 style="fill:#f4f4f4" /><polygon
                 id="polygon6049"
                 points="455.231,68.229 453.622,68.229 453.622,64.116 455.231,64.116 "
                 style="fill:#f4f4f4" /></g></g></g><g
           id="g6051"><path
             id="path6053"
             d="m 308.583,76.592 c -0.844,0 -1.528,-0.685 -1.528,-1.53 l 0,0 0,-2.72 c 0,-0.846 0.685,-1.53 1.528,-1.53 l 0,0 190.035,0 c 0.845,0.001 1.527,0.686 1.53,1.53 l 0,0 0,2.72 c -0.003,0.845 -0.687,1.528 -1.53,1.53 l 0,0 -190.035,0 0,0 z m 189.953,-1.61 0,-2.56 -189.873,0 0,2.558 189.873,0.002 0,0 z"
             inkscape:connector-curvature="0"
             style="fill:#f4f4f4" /><g
             id="g6055"><g
               id="g6057"><polygon
                 id="polygon6059"
                 points="353.514,75.667 351.903,75.667 351.903,71.556 353.514,71.556 "
                 style="fill:#f4f4f4" /><polygon
                 id="polygon6061"
                 points="356.051,75.666 354.441,75.666 354.441,71.556 356.051,71.556 "
                 style="fill:#f4f4f4" /></g><g
               id="g6063"><polygon
                 id="polygon6065"
                 points="403.137,75.667 401.524,75.667 401.524,71.557 403.137,71.557 "
                 style="fill:#f4f4f4" /><polygon
                 id="polygon6067"
                 points="405.676,75.666 404.064,75.666 404.064,71.557 405.676,71.557 "
                 style="fill:#f4f4f4" /></g><g
               id="g6069"><polygon
                 id="polygon6071"
                 points="452.761,75.667 451.15,75.667 451.15,71.556 452.761,71.556 "
                 style="fill:#f4f4f4" /><polygon
                 id="polygon6073"
                 points="455.299,75.666 453.688,75.666 453.688,71.556 455.299,71.556 "
                 style="fill:#f4f4f4" /></g></g></g></g></g></g></svg>