<?xml version="1.0" encoding="UTF-8" standalone="no"?>
<!-- Generator: Adobe Illustrator 13.0.0, SVG Export Plug-In . SVG Version: 6.00 Build 14948)  -->

<svg
   xmlns:dc="http://purl.org/dc/elements/1.1/"
   xmlns:cc="http://creativecommons.org/ns#"
   xmlns:rdf="http://www.w3.org/1999/02/22-rdf-syntax-ns#"
   xmlns:svg="http://www.w3.org/2000/svg"
   xmlns="http://www.w3.org/2000/svg"
   xmlns:sodipodi="http://sodipodi.sourceforge.net/DTD/sodipodi-0.dtd"
   xmlns:inkscape="http://www.inkscape.org/namespaces/inkscape"
   version="1.1"
   id="Layer_2"
   x="0px"
   y="0px"
   width="550"
   height="550"
   viewBox="0 0 549.99995 549.99999"
   enable-background="new 0 0 598.189 350.26"
   xml:space="preserve"
   inkscape:version="0.91 r13725"
   sodipodi:docname="controller_gg.svg"><metadata
     id="metadata3083"><rdf:RDF><cc:Work
         rdf:about=""><dc:format>image/svg+xml</dc:format><dc:type
           rdf:resource="http://purl.org/dc/dcmitype/StillImage" /><dc:title></dc:title></cc:Work></rdf:RDF></metadata><defs
     id="defs3081" /><sodipodi:namedview
     pagecolor="#ffffff"
     bordercolor="#666666"
     borderopacity="1"
     objecttolerance="10"
     gridtolerance="10"
     guidetolerance="10"
     inkscape:pageopacity="0"
     inkscape:pageshadow="2"
     inkscape:window-width="1920"
     inkscape:window-height="1001"
     id="namedview3079"
     showgrid="false"
     inkscape:zoom="1.0799262"
     inkscape:cx="248.77122"
     inkscape:cy="298.43665"
     inkscape:window-x="-9"
     inkscape:window-y="-9"
     inkscape:window-maximized="1"
     inkscape:current-layer="g12192"
     showguides="true"
     inkscape:guide-bbox="true" /><g
     inkscape:groupmode="layer"
     id="layer2"
     inkscape:label="Screen_Rect"
     style="display:none"
     transform="translate(0,199.73999)"
     sodipodi:insensitive="true"><path
       style="fill:#0000ff;stroke:#000000;stroke-width:1px;stroke-linecap:butt;stroke-linejoin:miter;stroke-opacity:1"
       d="M 5.0135033,547.22203 136.4109,114.39023 653.54628,-189.09358 406.482,260.92121 Z"
       id="path3021"
       inkscape:connector-curvature="0"
       transform="translate(-2e-5,-199.73999)"
       sodipodi:nodetypes="ccccc" /><rect
       style="opacity:0.60100002;fill:#d8201f;fill-opacity:1;stroke:#ff8080;stroke-width:2.45114732;stroke-linecap:round;stroke-linejoin:round;stroke-miterlimit:4;stroke-dasharray:none;stroke-opacity:1"
       id="rect4230"
       width="444.2457"
       height="9.9567661"
       x="145.95099"
       y="-211.30678" /></g><g
     inkscape:groupmode="layer"
     id="layer1"
     inkscape:label="Controller_Vorlage"
     style="display:none"
     sodipodi:insensitive="true"><g
       id="g4929"
       transform="translate(-0.929149,0.5695451)"><g
         transform="translate(0,199.73999)"
         style="display:none"
         inkscape:label="Layer2"
         id="layer2-9"><path
           sodipodi:nodetypes="ccccc"
           transform="translate(-2e-5,-199.73999)"
           inkscape:connector-curvature="0"
           id="path3021-0"
           d="M 5.0135033,547.22203 136.4109,114.39023 653.54628,-189.09358 406.482,260.92121 Z"
           style="fill:#ffffff;stroke:#000000;stroke-width:1px;stroke-linecap:butt;stroke-linejoin:miter;stroke-opacity:1" /></g><g
         inkscape:label="Layer"
         id="layer1-2"><g
           transform="matrix(0.55322035,-0.3970343,-0.34863416,0.85569517,173.63773,166.52161)"
           id="g3100"><path
             style="fill:#f4f4f4"
             inkscape:connector-curvature="0"
             id="path3"
             d="m 148.05,114.447 c -23.656,0 -42.861,19.204 -42.861,42.861 l 0,37.414 c 0,23.658 19.205,42.86 42.861,42.86 l 38.694,0 c 23.656,0 42.861,-19.202 42.861,-42.86 l 0,-37.414 c 0,-23.657 -19.205,-42.861 -42.861,-42.861 l -38.694,0 z m 0,1.905 38.694,0 c 22.627,0 40.956,18.328 40.956,40.956 l 0,37.414 c 0,22.629 -18.329,40.956 -40.956,40.956 l -38.694,0 c -22.628,0 -40.956,-18.327 -40.956,-40.956 l 0,-37.414 c 0,-22.629 18.328,-40.956 40.956,-40.956 z" /><path
             style="fill:#f4f4f4"
             inkscape:connector-curvature="0"
             id="path5"
             d="m 167.395,123.168 c -3.23,0 -5.863,2.633 -5.863,5.864 l 0,13.037 c 0,3.23 2.632,5.863 5.863,5.863 3.23,0 5.863,-2.633 5.863,-5.863 l 0,-13.037 c 0,-3.23 -2.633,-5.864 -5.863,-5.864 z m 0,1.906 c 2.201,0 3.958,1.758 3.958,3.958 l 0,13.037 c 0,2.2 -1.758,3.958 -3.958,3.958 -2.202,0 -3.958,-1.758 -3.958,-3.958 l 0,-13.037 c -0.001,-2.2 1.757,-3.958 3.958,-3.958 z" /><path
             style="fill:#f4f4f4"
             inkscape:connector-curvature="0"
             id="path7"
             d="m 120.425,170.135 c -3.23,0 -5.864,2.633 -5.864,5.864 0,3.231 2.632,5.894 5.864,5.894 l 13.037,0 c 3.229,0 5.864,-2.662 5.864,-5.894 0,-3.229 -2.633,-5.864 -5.864,-5.864 l -13.037,0 z m 0,1.905 13.037,0 c 2.201,0 3.959,1.759 3.959,3.959 0,2.201 -1.759,3.988 -3.959,3.988 l -13.037,0 c -2.198,-0.01 -3.955,-1.791 -3.955,-3.99 0,-2.201 1.758,-3.959 3.958,-3.959 l -0.003,0.002 z" /><path
             style="fill:#f4f4f4"
             inkscape:connector-curvature="0"
             id="path9"
             d="m 167.395,204.071 c -3.23,0 -5.863,2.663 -5.863,5.894 l 0,13.038 c 0,3.229 2.632,5.863 5.863,5.863 3.23,0 5.863,-2.633 5.863,-5.863 l 0,-13.038 c 0,-3.23 -2.633,-5.894 -5.863,-5.894 z m 0,1.906 c 2.201,0 3.958,1.789 3.958,3.988 l 0,13.038 c 0,2.2 -1.757,3.958 -3.958,3.958 -2.202,0 -3.958,-1.759 -3.958,-3.958 l 0,-13.038 c -0.001,-2.2 1.757,-3.988 3.958,-3.988 z" /><path
             style="fill:#f4f4f4"
             inkscape:connector-curvature="0"
             id="path11"
             d="m 201.321,170.135 c -3.229,0 -5.863,2.633 -5.863,5.864 0,3.231 2.633,5.894 5.863,5.894 l 13.067,0 c 3.229,0 5.863,-2.662 5.863,-5.894 0,-3.229 -2.633,-5.864 -5.863,-5.864 l -13.067,0 z m 0,1.905 13.067,0 c 2.2,0 3.958,1.76 3.958,3.959 0,2.201 -1.758,3.988 -3.958,3.988 l -13.067,0 c -2.2,0 -3.958,-1.788 -3.958,-3.988 0,-2.2 1.759,-3.959 3.958,-3.959 z" /><path
             style="fill:#f4f4f4"
             inkscape:connector-curvature="0"
             id="polygon13"
             d="m 133.878,141.176 -1.31,1.31 8.155,12.025 0.655,0.952 0.804,-0.803 3.869,-3.87 0.804,-0.804 -0.953,-0.655 -12.024,-8.155 z" /><path
             style="fill:#f4f4f4"
             inkscape:connector-curvature="0"
             id="polygon15"
             d="m 141.383,196.566 -0.654,0.952 -8.156,12.024 1.31,1.31 12.025,-8.155 0.953,-0.654 -0.804,-0.804 -3.87,-3.869 -0.804,-0.804 z" /><path
             style="fill:#f4f4f4"
             inkscape:connector-curvature="0"
             id="polygon17"
             d="m 193.435,196.566 -0.804,0.804 -3.869,3.869 -0.833,0.804 0.953,0.654 12.025,8.155 1.339,-1.31 -8.156,-12.024 -0.655,-0.952 0,0 z" /><path
             style="fill:#f4f4f4"
             inkscape:connector-curvature="0"
             id="polygon19"
             d="m 200.912,141.176 -12.025,8.155 -0.953,0.655 0.833,0.804 3.87,3.87 0.804,0.803 0.655,-0.952 8.155,-12.025 -1.339,-1.31 z" /><path
             style="fill:#f4f4f4"
             inkscape:connector-curvature="0"
             id="path21"
             d="m 146.354,104.833 c -27.67,0 -50.123,22.453 -50.123,50.124 l 0,42.117 c 0,27.671 22.453,50.123 50.123,50.123 l 42.117,0 c 27.671,0 50.124,-22.452 50.124,-50.123 l 0,-42.117 c 0,-27.67 -22.452,-50.124 -50.124,-50.124 l -42.117,0 z m 0,1.906 42.117,0 c 26.644,0 48.219,21.577 48.219,48.218 l 0,42.117 c 0,26.644 -21.577,48.218 -48.219,48.218 l -42.117,0 c -26.642,0 -48.218,-21.574 -48.218,-48.218 l 0,-42.117 c 0,-26.642 21.577,-48.218 48.218,-48.218 z" /><path
             style="fill:#f4f4f4"
             inkscape:connector-curvature="0"
             id="polygon23"
             d="m 69.499,75.694 0,0.952 0,202.961 0,0.952 0.953,0 196.122,0 0.952,0 0,-0.952 0,-26.401 289.521,0 0.952,0 0,-0.952 0,-113.458 0,-0.953 -0.952,0 -289.522,0 0,-61.196 0,-0.952 -0.952,0 -196.122,0 -0.952,-10e-4 0,0 z m 1.904,1.905 194.217,0 0,61.196 0,0.953 0.953,0 0.714,0 288.807,0 0,111.552 -289.226,0 -0.297,0 -0.953,0 0,0.953 0,26.4 -194.217,0 0,-201.055 0.002,0.001 z" /><path
             style="fill:#f4f4f4"
             inkscape:connector-curvature="0"
             id="circle25"
             d="m 400.692,169.126 c -19.762,0 -35.777,16.046 -35.777,35.807 0,19.761 16.018,35.807 35.777,35.807 19.759,0 35.807,-16.046 35.807,-35.807 0,-19.761 -16.047,-35.807 -35.807,-35.807 l 0,0 z m 0,1.905 c 18.73,0 33.901,15.17 33.901,33.902 0,18.732 -15.171,33.902 -33.901,33.902 -18.731,0 -33.872,-15.171 -33.872,-33.902 0,-18.731 15.141,-33.902 33.872,-33.902 l 0,0 z" /><path
             style="fill:#f4f4f4"
             inkscape:connector-curvature="0"
             id="circle27"
             d="m 400.692,177.669 c -15.039,0 -27.234,12.227 -27.234,27.265 0,15.038 12.195,27.234 27.234,27.234 15.036,0 27.264,-12.196 27.264,-27.234 0,-15.038 -12.227,-27.265 -27.264,-27.265 z m 0,1.905 c 14.008,0 25.359,11.351 25.359,25.359 0,14.008 -11.352,25.33 -25.359,25.33 -14.01,0 -25.33,-11.321 -25.33,-25.33 0,-14.009 11.321,-25.359 25.33,-25.359 z" /><path
             style="fill:#f4f4f4"
             inkscape:connector-curvature="0"
             id="circle29"
             d="m 489.919,169.126 c -19.762,0 -35.807,16.046 -35.807,35.807 0,19.761 16.045,35.807 35.807,35.807 19.76,0 35.807,-16.046 35.807,-35.807 0,-19.761 -16.047,-35.807 -35.807,-35.807 l 0,0 z m 0,1.905 c 18.73,0 33.901,15.17 33.901,33.902 0,18.732 -15.171,33.902 -33.901,33.902 -18.731,0 -33.902,-15.171 -33.902,-33.902 0,-18.731 15.171,-33.902 33.902,-33.902 l 0,0 z" /><path
             style="fill:#f4f4f4"
             inkscape:connector-curvature="0"
             id="circle31"
             d="m 489.919,177.669 c -15.039,0 -27.234,12.227 -27.234,27.265 0,15.038 12.195,27.234 27.234,27.234 15.036,0 27.234,-12.196 27.234,-27.234 0,-15.038 -12.196,-27.265 -27.234,-27.265 z m 0,1.905 c 14.008,0 25.329,11.351 25.329,25.359 0,14.008 -11.321,25.33 -25.329,25.33 -14.01,0 -25.33,-11.321 -25.33,-25.33 0,-14.009 11.32,-25.359 25.33,-25.359 z" /><path
             style="fill:#f4f4f4"
             inkscape:connector-curvature="0"
             id="path33"
             d="m 39.406,68.432 c -4.766,0 -8.662,3.896 -8.662,8.662 l 0,203.084 c 0,4.766 3.897,8.661 8.662,8.661 l 518.646,0 c 4.429,0 7.956,-3.411 8.453,-7.709 l 0.179,0 0,-0.952 0,-203.085 c 0,-4.762 -3.868,-8.658 -8.64,-8.658 l -518.645,0 0.007,-0.003 z m 0,1.904 518.646,0 c 3.737,0 6.727,3.021 6.727,6.757 l 0,202.131 0,0.953 c 0,3.736 -2.989,6.756 -6.727,6.756 l -518.646,0 c -3.732,0.01 -6.753,-3.019 -6.753,-6.753 l 0,-203.083 c 0,-3.736 3.02,-6.756 6.756,-6.756 l -0.003,-0.005 z" /><path
             style="fill:#f4f4f4"
             inkscape:connector-curvature="0"
             id="rect35"
             d="m 359.021,163.559 0,0.953 0,81.465 0,0.952 0.953,0 81.465,0 0.953,0 0,-0.952 0,-81.465 0,-0.953 -0.953,0 -81.465,0 -0.953,0 z m 1.906,1.905 79.561,0 0,79.56 -79.561,0 0,-79.56 z" /><path
             style="fill:#f4f4f4"
             inkscape:connector-curvature="0"
             id="rect37"
             d="m 448.248,163.559 0,0.953 0,81.465 0,0.952 0.953,0 81.436,0 0.952,0 0,-0.952 0,-81.465 0,-0.953 -0.952,0 -81.436,0 -0.953,0 z m 1.905,1.905 79.531,0 0,79.56 -79.531,0 0,-79.56 z" /><path
             style="fill:#f4f4f4"
             inkscape:connector-curvature="0"
             id="polyline39"
             d="m 83.934,94.177 0,2.292 0,159.061 0,2.322 1.607,-1.638 25.33,-25.299 -1.369,-1.369 -23.663,23.692 0,-154.45 23.663,23.658 1.369,-1.34 -25.33,-25.299 -1.607,-1.637 0,0.007 z" /><path
             style="fill:#f4f4f4"
             inkscape:connector-curvature="0"
             id="polyline41"
             d="m 222.305,232.551 -1.37,1.339 23.693,23.692 -154.452,0 23.574,-23.573 -1.369,-1.339 -25.181,25.182 -1.637,1.637 2.292,0 159.062,0 2.292,0 -1.607,-1.637 -25.299,-25.3 0.002,-0.001 z" /><path
             style="fill:#f4f4f4"
             inkscape:connector-curvature="0"
             id="polyline43"
             d="m 250.878,94.177 -1.637,1.637 -25.211,25.182 1.369,1.369 23.574,-23.603 0,154.509 -23.633,-23.663 -1.339,1.34 25.24,25.27 1.637,1.638 0,-2.322 0,-159.063 0,-2.292 0,-0.002 z" /><path
             style="fill:#f4f4f4"
             inkscape:connector-curvature="0"
             id="polyline45"
             d="m 85.57,92.54 1.638,1.608 25.21,25.24 1.339,-1.34 -23.572,-23.602 154.452,0 -23.669,23.662 1.333,1.339 25.307,-25.3 1.607,-1.607 -2.292,0 -159.062,0 -2.291,0 0,0 z" /><path
             style="fill:#f4f4f4"
             inkscape:connector-curvature="0"
             id="line47"
             d="m 58.961,69.533 0,218.057 1.905,0 0,-218.057 -1.905,0 z" /><path
             style="fill:#f4f4f4"
             inkscape:connector-curvature="0"
             id="rect49"
             d="m 359.021,145.819 0,0.953 0,13.244 0,0.953 0.953,0 81.465,0 0.953,0 0,-0.953 0,-13.244 0,-0.953 -0.953,0 -81.465,0 -0.953,0 z m 1.906,1.905 79.561,0 0,11.339 -79.561,0 0,-11.339 z" /><path
             style="fill:#f4f4f4"
             inkscape:connector-curvature="0"
             id="rect51"
             d="m 448.248,145.819 0,0.953 0,13.244 0,0.953 0.953,0 81.436,0 0.952,0 0,-0.953 0,-13.244 0,-0.953 -0.952,0 -81.436,0 -0.953,0 z m 1.905,1.905 79.531,0 0,11.339 -79.531,0 0,-11.339 z" /><path
             style="fill:#f4f4f4"
             inkscape:connector-curvature="0"
             id="path53"
             d="m 276.804,73.134 c -0.987,0 -1.815,0.828 -1.815,1.816 l 0,53.01 c 0,0.988 0.829,1.815 1.815,1.815 l 282.855,0 c 0.985,0 1.785,-0.831 1.785,-1.815 l 0,-50.033 c 0,-2.641 -2.152,-4.792 -4.792,-4.792 l -279.844,0 -0.004,0 z m 0.09,1.906 279.756,0 c 1.613,0 2.888,1.275 2.888,2.887 l 0,49.945 -282.643,0 0,-52.832 -10e-4,0 z" /><path
             style="fill:#f4f4f4"
             inkscape:connector-curvature="0"
             id="path55"
             d="m 276.804,260.41 c -0.987,0 -1.815,0.829 -1.815,1.815 l 0,20.091 c 0,0.987 0.829,1.816 1.815,1.816 l 279.844,0 c 2.64,0 4.792,-2.183 4.792,-4.822 l 0,-17.085 c 0,-0.985 -0.8,-1.815 -1.785,-1.815 l -282.855,0 0.004,0 z m 0.09,1.905 282.645,0 0,16.995 c 0,1.611 -1.276,2.917 -2.888,2.917 l -279.758,0 0.001,-19.912 0,0 z" /><path
             style="fill:#f4f4f4"
             inkscape:connector-curvature="0"
             id="line57"
             d="m 274.461,129.271 -6.28,6.28 1.369,1.339 6.251,-6.25 -1.34,-1.369 z" /><path
             style="fill:#f4f4f4"
             inkscape:connector-curvature="0"
             id="line59"
             d="m 269.546,253.866 -1.369,1.34 6.281,6.28 1.339,-1.369 -6.251,-6.251 z" /></g></g></g></g><g
     inkscape:groupmode="layer"
     id="layer4"
     inkscape:label="Controller"><g
       id="g12192"
       transform="matrix(0.52634968,-0.38371487,-0.36199415,0.79024751,151.0404,222.06172)"><g
         id="g12232"
         transform="matrix(0.95650126,0.01519048,0.05094893,0.99322744,77.032123,-48.114945)"><path
           style="fill:#f4f4f4"
           inkscape:connector-curvature="0"
           d="m 415.095,188.464 0,-25.334 37.499,0 0,-138 c -0.009,-4.418 -3.582,-7.992 -8,-8 l 0,0 -289.999,0 c -4.42,0.008 -7.994,3.582 -8,8 l 0,0 -0.002,138 37.501,0 0,24.75 -2,0 0,-22.75 -37.5,0 0,-140.002 c 0,-5.522 4.478,-9.999 10.001,-9.999 l 0,0 289.999,0 c 5.523,0 10.001,4.477 10.001,9.999 l 0,0 0,140.002 -37.5,-0.002 0,23.336 -2,0 0,0 z"
           id="path12112" /><path
           style="fill:#f4f4f4"
           inkscape:connector-curvature="0"
           d="m 154.595,337.128 c -5.525,0 -10,-4.478 -10,-10 l 0,0 0,-149 1.999,0 0,149 c 0.008,4.42 3.583,7.992 8.001,8.002 l 0,0 289.999,0 c 4.419,-0.01 7.991,-3.582 8.001,-8.002 l 0,0 0,-149 1.999,0 0,149 c 0,5.522 -4.478,10 -10,10 l 0,0 -289.999,0 0,0 z"
           id="path12114" /><path
           style="fill:#f4f4f4"
           inkscape:connector-curvature="0"
           d="m 156.259,189.464 0,-0.002 0,-1 0,-1 286.67,0.002 c 5.337,-0.012 9.654,-4.328 9.663,-9.668 l 0,0 c -0.009,-5.336 -4.326,-9.656 -9.663,-9.666 l 0,0 -286.67,0 c -5.337,0.009 -9.655,4.328 -9.666,9.666 l 0,0 c 0.011,5.34 4.328,9.658 9.666,9.668 l 0,0 0,0.998 0,1 c -6.441,0 -11.664,-5.223 -11.666,-11.666 l 0,0 c 0.002,-6.444 5.225,-11.666 11.666,-11.666 l 0,0 286.67,0 c 6.441,0 11.663,5.222 11.663,11.666 l 0,0 c 0,6.443 -5.222,11.666 -11.663,11.666 l 0,0 -286.67,0 0,0.002 z"
           id="path12116" /><path
           style="fill:#f4f4f4"
           inkscape:connector-curvature="0"
           d="m 223.763,156.796 c -2.765,0 -5,-2.238 -5.003,-5 l 0,0 0,-115.334 c 0.003,-2.761 2.238,-5 5.003,-5 l 0,0 151.666,0 c 2.763,0 4.997,2.238 4.997,5 l 0,0 0,115.333 c 0,2.761 -2.234,5 -4.997,5 l 0,0 -151.666,0 0,0.001 z m -3.003,-120.334 0,115.333 c 0.005,1.656 1.345,2.996 3.003,3 l 0,0 151.666,0 c 1.655,-0.004 2.996,-1.344 3,-3 l 0,0 0,-115.333 c -0.004,-1.657 -1.345,-2.996 -3,-3 l 0,0 -151.666,0 c -1.659,0.004 -2.998,1.345 -3.003,3 l 0,0 z"
           id="path12118" /><path
           style="fill:#f4f4f4"
           inkscape:connector-curvature="0"
           d="m 229.095,149.796 c -1.658,-0.002 -3,-1.342 -3.002,-3 l 0,0 0.002,-105.333 c 0,-1.657 1.342,-3 3,-3 l 0,0 140.999,0 c 1.657,0 2.999,1.344 2.999,3 l 0,0 0,105.333 c 0,1.656 -1.342,3 -2.999,3 l 0,0 -140.999,0 0,0 z m -1,-108.334 -0.002,105.333 c 0.002,0.549 0.45,0.998 1.002,1 l 0,0 140.999,0 c 0.554,-0.002 0.998,-0.447 1,-1 l 0,0 0,-105.333 c -0.002,-0.552 -0.446,-0.998 -1,-1 l 0,0 -140.999,0 c -0.552,0.002 -1,0.449 -1,1 l 0,0 z"
           id="path12120" /><path
           style="fill:#f4f4f4"
           inkscape:connector-curvature="0"
           d="m 218.345,317.255 0,-119.752 c 0,-2.209 1.79,-3.998 4,-3.998 l 0,0 154.499,-0.002 c 2.21,0.002 4,1.791 4,4 l 0,0 0,119.752 c 0,2.207 -1.79,3.998 -4,3.998 l 0,0 -154.499,0.002 c -2.21,-0.002 -4,-1.793 -4,-4 l 0,0 z m 1.999,-119.752 0,119.752 c 0.003,1.104 0.897,1.996 2.001,1.998 l 0,0 154.499,0 c 1.104,-0.002 1.997,-0.896 1.999,-1.998 l 0,0 0.002,0 -0.002,-119.752 c -0.002,-1.104 -0.895,-1.998 -1.999,-2 l 0,0 -154.499,0 c -1.104,0.002 -1.998,0.896 -2.001,2 l 0,0 z"
           id="path12122" /><path
           style="fill:#f4f4f4"
           inkscape:connector-curvature="0"
           d="m 227.969,312.753 c -1.104,0 -1.999,-0.896 -1.999,-1.998 l 0,0 0,-106.75 c 0,-1.107 0.895,-2.002 1.999,-2.002 l 0,0 143.25,0 c 1.104,0 1.999,0.895 1.999,2.002 l 0,0 0,106.75 c 0,1.104 -0.895,1.998 -1.999,1.998 l 0,0 -143.25,0 0,0 z m 0,-108.748 0,106.75 143.25,0 0,-106.75 0,-0.002 -143.25,0 0,0.002 0,0 z"
           id="path12124" /><path
           style="fill:#f4f4f4"
           inkscape:connector-curvature="0"
           d="m 173.845,267.003 c -1.105,0 -2.001,-0.895 -2.001,-2 l 0,0 0,-12.062 -12.063,0 c -1.105,0 -1.999,-0.896 -1.999,-1.999 l 0,0 0,-13.251 c 0,-1.104 0.894,-2 1.999,-2 l 0,0 12.063,0 0,-12.063 c 0,-1.104 0.896,-1.998 2.001,-1.998 l 0,0 13.249,0 c 1.105,0 2,0.895 2,1.998 l 0,0 0,12.063 12.063,0 c 1.105,0 1.999,0.896 1.999,2 l 0,0 0,13.251 c 0,1.104 -0.893,1.999 -1.999,1.999 l 0,0 -12.063,0 0,12.063 c 0,1.104 -0.896,1.998 -2,1.998 l 0,0 -13.249,0 0,10e-4 z m 0,-2 13.249,0 0,-12.188 c 0.006,-0.307 0.025,-0.742 0.354,-1.199 l 0,0 c 0.334,-0.469 0.956,-0.693 1.502,-0.675 l 0,0 12.208,0 0,-13.25 -12.146,0 c -0.395,0 -0.891,-0.083 -1.317,-0.455 l 0,0 c -0.43,-0.376 -0.608,-0.954 -0.6,-1.481 l 0,0 0,-12.127 -13.249,0 0,12.168 c -0.002,0.375 -0.075,0.842 -0.417,1.266 l 0,0 c -0.343,0.428 -0.929,0.645 -1.458,0.631 l 0,0 -12.188,0 0,13.249 12.085,0 c 0.391,0.015 0.823,-0.008 1.34,0.345 l 0,0 c 0.53,0.393 0.648,1.022 0.638,1.469 l 0,0 0,12.247 -0.001,0 z"
           id="path12126" /><path
           style="fill:#f4f4f4"
           inkscape:connector-curvature="0"
           d="m 407.763,219.794 c 0,-5.246 4.253,-9.5 9.499,-9.5 l 0,0 c 5.247,0 9.5,4.254 9.5,9.5 l 0,0 c 0,5.246 -4.253,9.5 -9.5,9.5 l 0,0 c -5.246,0 -9.499,-4.252 -9.499,-9.5 l 0,0 z m 1.998,0 c 0.008,4.143 3.359,7.494 7.501,7.502 l 0,0 c 4.144,-0.008 7.493,-3.359 7.5,-7.502 l 0,0 c -0.007,-4.143 -3.356,-7.492 -7.5,-7.5 l 0,0 c -4.142,0.008 -7.493,3.358 -7.501,7.5 l 0,0 z"
           id="path12128" /><path
           style="fill:#f4f4f4"
           inkscape:connector-curvature="0"
           d="m 407.763,255.296 c 0,-5.25 4.253,-9.502 9.499,-9.502 l 0,0 c 5.247,0 9.5,4.252 9.5,9.502 l 0,0 c 0,5.244 -4.253,9.498 -9.5,9.498 l 0,0 c -5.246,0 -9.499,-4.252 -9.499,-9.498 l 0,0 z m 1.998,0 c 0.008,4.141 3.359,7.49 7.501,7.5 l 0,0 c 4.144,-0.01 7.493,-3.359 7.5,-7.5 l 0,0 c -0.007,-4.146 -3.356,-7.494 -7.5,-7.502 l 0,0 c -4.142,0.008 -7.493,3.357 -7.501,7.502 l 0,0 z"
           id="path12130" /><path
           style="fill:#f4f4f4"
           inkscape:connector-curvature="0"
           d="m 390.095,237.628 c 0,-5.246 4.256,-9.5 9.501,-9.5 l 0,0 c 5.246,0 9.5,4.254 9.5,9.5 l 0,0 c 0,5.246 -4.254,9.5 -9.5,9.5 l 0,0 c -5.245,0 -9.501,-4.252 -9.501,-9.5 l 0,0 z m 2.001,0 c 0.009,4.144 3.358,7.492 7.5,7.502 l 0,0 c 4.143,-0.01 7.492,-3.358 7.5,-7.502 l 0,0 c -0.008,-4.142 -3.357,-7.494 -7.5,-7.5 l 0,0 c -4.142,0.006 -7.493,3.359 -7.5,7.5 l 0,0 z"
           id="path12132" /><path
           style="fill:#f4f4f4"
           inkscape:connector-curvature="0"
           d="m 425.931,237.628 c 0,-5.246 4.252,-9.5 9.5,-9.5 l 0,0 c 5.245,0 9.499,4.254 9.499,9.5 l 0,0 c 0,5.248 -4.254,9.5 -9.499,9.5 l 0,0 c -5.248,0 -9.5,-4.252 -9.5,-9.5 l 0,0 z m 1.999,0 c 0.009,4.144 3.357,7.492 7.501,7.502 l 0,0 c 4.142,-0.01 7.493,-3.358 7.499,-7.502 l 0,0 c -0.006,-4.142 -3.357,-7.492 -7.499,-7.5 l 0,0 c -4.144,0.008 -7.494,3.359 -7.501,7.5 l 0,0 z"
           id="path12134" /><path
           style="fill:#f4f4f4"
           inkscape:connector-curvature="0"
           d="m 390.429,295.128 c 0,-2.946 2.387,-5.334 5.334,-5.334 l 0,0 c 2.943,0 5.331,2.388 5.331,5.334 l 0,0 c 0,2.945 -2.388,5.332 -5.331,5.332 l 0,0 c -2.95,0 -5.334,-2.385 -5.334,-5.332 l 0,0 z m 1.998,0 c 0.004,1.84 1.493,3.33 3.336,3.332 l 0,0 c 1.84,-0.002 3.327,-1.492 3.331,-3.332 l 0,0 c -0.004,-1.842 -1.491,-3.33 -3.331,-3.334 l 0,0 c -1.843,0.004 -3.332,1.494 -3.336,3.334 l 0,0 z"
           id="path12136" /><path
           style="fill:#f4f4f4"
           inkscape:connector-curvature="0"
           d="m 390.429,312.796 c 0,-2.947 2.388,-5.334 5.333,-5.334 l 0,0 c 2.945,0 5.332,2.387 5.332,5.334 l 0,0 c 0,2.945 -2.387,5.332 -5.332,5.332 l 0,0 c -2.947,0 -5.333,-2.387 -5.333,-5.332 l 0,0 z m 1.998,0 c 0.005,1.84 1.493,3.328 3.335,3.332 l 0,0 c 1.841,-0.004 3.33,-1.492 3.332,-3.332 l 0,0 c -0.002,-1.842 -1.491,-3.33 -3.332,-3.334 l 0,0 c -1.842,0.004 -3.33,1.492 -3.335,3.334 l 0,0 z"
           id="path12138" /><g
           id="g12140"><path
             style="fill:#f4f4f4"
             inkscape:connector-curvature="0"
             d="m 185.135,162.63 c -1.657,0 -2.999,-1.344 -2.999,-3 l 0,0 0,-5.25 c 0,-1.658 1.342,-3 2.999,-3 l 0,0 5.251,0 c 1.656,0 2.998,1.342 3,3 l 0,0 0,5.25 c -0.002,1.656 -1.344,3 -3,3 l 0,0 -5.251,0 0,0 z m -0.999,-8.252 0,5.252 c 0,0.549 0.447,0.996 0.999,0.998 l 0,0 5.251,0 c 0.55,-0.002 0.997,-0.449 1,-0.998 l 0,0 0,-5.252 c -0.002,-0.551 -0.45,-0.998 -1,-0.998 l 0,0 -5.251,0 c -0.552,0 -0.999,0.447 -0.999,0.998 l 0,0 z"
             id="path12142" /><path
             style="fill:#f4f4f4"
             inkscape:connector-curvature="0"
             d="m 408.803,162.628 c -1.657,0 -2.999,-1.342 -2.999,-2.998 l 0,0 0,-5.252 c 0,-1.655 1.342,-2.998 2.999,-2.998 l 0,0 5.251,0 c 1.656,0 2.997,1.34 2.999,2.998 l 0,0 0,5.252 c -0.002,1.658 -1.343,2.998 -2.999,2.998 l 0,0 -5.251,0 0,0 z m -1.001,-8.25 0,5.252 c 0.002,0.552 0.448,0.998 1.001,0.998 l 0,0 5.251,0 c 0.549,0 0.997,-0.447 0.999,-0.998 l 0,0 0,-5.252 c -0.002,-0.549 -0.45,-0.998 -0.999,-1 l 0,0 -5.251,0 c -0.553,0.002 -0.999,0.449 -1.001,1 l 0,0 z"
             id="path12144" /></g><g
           id="g12146"><path
             style="fill:#f4f4f4"
             inkscape:connector-curvature="0"
             d="m 185.136,38.629 c -1.658,0 -3,-1.344 -3,-3 l 0,0 0,-5.251 c 0,-1.656 1.342,-3 3,-3 l 0,0 5.25,0 c 1.658,0 3,1.343 3,3 l 0,0 0,5.251 c 0,1.656 -1.341,3 -3,3 l 0,0 -5.25,0 0,0 z m -1.001,-8.251 0,5.251 c 0.002,0.55 0.449,0.999 1,0.999 l 0,0 5.25,0 c 0.552,0 0.999,-0.449 1,-0.999 l 0,0 0,-5.251 c -0.002,-0.55 -0.448,-0.999 -1,-1 l 0,0 -5.25,0 c -0.551,0.002 -0.998,0.451 -1,1 l 0,0 z"
             id="path12148" /><path
             style="fill:#f4f4f4"
             inkscape:connector-curvature="0"
             d="m 408.803,38.628 c -1.657,0 -2.999,-1.343 -2.999,-2.999 l 0,0 0,-5.251 c 0,-1.656 1.342,-2.999 2.999,-2.999 l 0,0 5.251,0 c 1.656,0 2.997,1.341 2.999,2.999 l 0,0 0,5.251 c -0.002,1.658 -1.343,2.999 -2.999,2.999 l 0,0 -5.251,0 0,0 z m -1.001,-8.249 0,5.251 c 0.002,0.553 0.448,0.999 1.001,0.999 l 0,0 5.251,0 c 0.549,0 0.997,-0.448 0.999,-0.999 l 0,0 0,-5.251 c -0.002,-0.551 -0.45,-0.999 -0.999,-1.001 l 0,0 -5.251,0 c -0.553,0.002 -0.999,0.449 -1.001,1.001 l 0,0 z"
             id="path12150" /></g><path
           style="fill:#f4f4f4"
           inkscape:connector-curvature="0"
           d="m 434.262,183.798 c 0,0.553 -0.448,1 -1,1 l -0.332,0 c -0.552,0 -1,-0.447 -1,-1 l 0,-12 c 0,-0.553 0.448,-1 1,-1 l 0.332,0 c 0.552,0 1,0.447 1,1 l 0,12 z"
           id="path12152" /><path
           style="fill:#f4f4f4"
           inkscape:connector-curvature="0"
           d="m 439.596,183.798 c 0,0.553 -0.448,1 -1,1 l -0.332,0 c -0.552,0 -1,-0.447 -1,-1 l 0,-12 c 0,-0.553 0.448,-1 1,-1 l 0.332,0 c 0.552,0 1,0.447 1,1 l 0,12 z"
           id="path12154" /><path
           style="fill:#f4f4f4"
           inkscape:connector-curvature="0"
           d="m 301.345,179.38 c 0,0.828 -0.672,1.5 -1.5,1.5 l 0,0 c -0.828,0 -1.5,-0.672 -1.5,-1.5 l 0,-5.25 c 0,-0.83 0.672,-1.5 1.5,-1.5 l 0,0 c 0.828,0 1.5,0.67 1.5,1.5 l 0,5.25 z"
           id="path12156" /><g
           id="g12158"><g
             id="g12160"><circle
               style="fill:#f4f4f4"
               cx="405.56299"
               cy="90.942001"
               r="1.563"
               id="circle12162" /><circle
               style="fill:#f4f4f4"
               cx="417.18799"
               cy="90.942001"
               r="1.563"
               id="circle12164" /><circle
               style="fill:#f4f4f4"
               cx="428.81299"
               cy="90.942001"
               r="1.563"
               id="circle12166" /><circle
               style="fill:#f4f4f4"
               cx="405.56299"
               cy="102.317"
               r="1.563"
               id="circle12168" /><circle
               style="fill:#f4f4f4"
               cx="417.18799"
               cy="102.317"
               r="1.563"
               id="circle12170" /><circle
               style="fill:#f4f4f4"
               cx="428.81299"
               cy="102.317"
               r="1.563"
               id="circle12172" /></g><g
             id="g12174"><circle
               style="fill:#f4f4f4"
               cx="170.37601"
               cy="90.942001"
               r="1.563"
               id="circle12176" /><circle
               style="fill:#f4f4f4"
               cx="182.00101"
               cy="90.942001"
               r="1.563"
               id="circle12178" /><circle
               style="fill:#f4f4f4"
               cx="193.62601"
               cy="90.942001"
               r="1.563"
               id="circle12180" /><circle
               style="fill:#f4f4f4"
               cx="170.37601"
               cy="102.317"
               r="1.563"
               id="circle12182" /><circle
               style="fill:#f4f4f4"
               cx="182.00101"
               cy="102.317"
               r="1.563"
               id="circle12184" /><circle
               style="fill:#f4f4f4"
               cx="193.62601"
               cy="102.317"
               r="1.563"
               id="circle12186" /></g></g></g></g></g></svg>