<?xml version="1.0" encoding="UTF-8" standalone="no"?>
<!-- Generator: Adobe Illustrator 13.0.0, SVG Export Plug-In . SVG Version: 6.00 Build 14948)  -->

<svg
   xmlns:dc="http://purl.org/dc/elements/1.1/"
   xmlns:cc="http://creativecommons.org/ns#"
   xmlns:rdf="http://www.w3.org/1999/02/22-rdf-syntax-ns#"
   xmlns:svg="http://www.w3.org/2000/svg"
   xmlns="http://www.w3.org/2000/svg"
   xmlns:sodipodi="http://sodipodi.sourceforge.net/DTD/sodipodi-0.dtd"
   xmlns:inkscape="http://www.inkscape.org/namespaces/inkscape"
   version="1.1"
   id="Layer_2"
   x="0px"
   y="0px"
   width="550"
   height="550"
   viewBox="0 0 549.99995 549.99999"
   enable-background="new 0 0 598.189 350.26"
   xml:space="preserve"
   inkscape:version="0.91 r13725"
   sodipodi:docname="controller_gg.svg"><metadata
     id="metadata3083"><rdf:RDF><cc:Work
         rdf:about=""><dc:format>image/svg+xml</dc:format><dc:type
           rdf:resource="http://purl.org/dc/dcmitype/StillImage" /><dc:title></dc:title></cc:Work></rdf:RDF></metadata><defs
     id="defs3081" /><sodipodi:namedview
     pagecolor="#ffffff"
     bordercolor="#666666"
     borderopacity="1"
     objecttolerance="10"
     gridtolerance="10"
     guidetolerance="10"
     inkscape:pageopacity="0"
     inkscape:pageshadow="2"
     inkscape:window-width="1366"
     inkscape:window-height="689"
     id="namedview3079"
     showgrid="false"
     inkscape:zoom="1.0799262"
     inkscape:cx="69.732879"
     inkscape:cy="317.24155"
     inkscape:window-x="1911"
     inkscape:window-y="295"
     inkscape:window-maximized="1"
     inkscape:current-layer="layer4"
     showguides="true"
     inkscape:guide-bbox="true" /><g
     inkscape:groupmode="layer"
     id="layer2"
     inkscape:label="Screen_Rect"
     style="display:none"
     transform="translate(0,199.73999)"
     sodipodi:insensitive="true"><path
       style="fill:#ffffff;stroke:#000000;stroke-width:1px;stroke-linecap:butt;stroke-linejoin:miter;stroke-opacity:1"
       d="M 5.0135033,547.22203 136.4109,114.39023 653.54628,-189.09358 406.482,260.92121 Z"
       id="path3021"
       inkscape:connector-curvature="0"
       transform="translate(-2e-5,-199.73999)"
       sodipodi:nodetypes="ccccc" /><rect
       style="opacity:0.60100002;fill:#d8201f;fill-opacity:1;stroke:#ff8080;stroke-width:2.45114732;stroke-linecap:round;stroke-linejoin:round;stroke-miterlimit:4;stroke-dasharray:none;stroke-opacity:1"
       id="rect4230"
       width="444.2457"
       height="9.9567661"
       x="145.95099"
       y="-211.30678" /></g><g
     inkscape:groupmode="layer"
     id="layer1"
     inkscape:label="Controller_Vorlage"
     style="display:none"
     sodipodi:insensitive="true"><g
       id="g4929"
       transform="translate(-0.929149,0.5695451)"><g
         transform="translate(0,199.73999)"
         style="display:none"
         inkscape:label="Layer2"
         id="layer2-9"><path
           sodipodi:nodetypes="ccccc"
           transform="translate(-2e-5,-199.73999)"
           inkscape:connector-curvature="0"
           id="path3021-0"
           d="M 5.0135033,547.22203 136.4109,114.39023 653.54628,-189.09358 406.482,260.92121 Z"
           style="fill:#ffffff;stroke:#000000;stroke-width:1px;stroke-linecap:butt;stroke-linejoin:miter;stroke-opacity:1" /></g><g
         inkscape:label="Layer"
         id="layer1-2"><g
           transform="matrix(0.55322035,-0.3970343,-0.34863416,0.85569517,173.63773,166.52161)"
           id="g3100"><path
             style="fill:#f4f4f4"
             inkscape:connector-curvature="0"
             id="path3"
             d="m 148.05,114.447 c -23.656,0 -42.861,19.204 -42.861,42.861 l 0,37.414 c 0,23.658 19.205,42.86 42.861,42.86 l 38.694,0 c 23.656,0 42.861,-19.202 42.861,-42.86 l 0,-37.414 c 0,-23.657 -19.205,-42.861 -42.861,-42.861 l -38.694,0 z m 0,1.905 38.694,0 c 22.627,0 40.956,18.328 40.956,40.956 l 0,37.414 c 0,22.629 -18.329,40.956 -40.956,40.956 l -38.694,0 c -22.628,0 -40.956,-18.327 -40.956,-40.956 l 0,-37.414 c 0,-22.629 18.328,-40.956 40.956,-40.956 z" /><path
             style="fill:#f4f4f4"
             inkscape:connector-curvature="0"
             id="path5"
             d="m 167.395,123.168 c -3.23,0 -5.863,2.633 -5.863,5.864 l 0,13.037 c 0,3.23 2.632,5.863 5.863,5.863 3.23,0 5.863,-2.633 5.863,-5.863 l 0,-13.037 c 0,-3.23 -2.633,-5.864 -5.863,-5.864 z m 0,1.906 c 2.201,0 3.958,1.758 3.958,3.958 l 0,13.037 c 0,2.2 -1.758,3.958 -3.958,3.958 -2.202,0 -3.958,-1.758 -3.958,-3.958 l 0,-13.037 c -0.001,-2.2 1.757,-3.958 3.958,-3.958 z" /><path
             style="fill:#f4f4f4"
             inkscape:connector-curvature="0"
             id="path7"
             d="m 120.425,170.135 c -3.23,0 -5.864,2.633 -5.864,5.864 0,3.231 2.632,5.894 5.864,5.894 l 13.037,0 c 3.229,0 5.864,-2.662 5.864,-5.894 0,-3.229 -2.633,-5.864 -5.864,-5.864 l -13.037,0 z m 0,1.905 13.037,0 c 2.201,0 3.959,1.759 3.959,3.959 0,2.201 -1.759,3.988 -3.959,3.988 l -13.037,0 c -2.198,-0.01 -3.955,-1.791 -3.955,-3.99 0,-2.201 1.758,-3.959 3.958,-3.959 l -0.003,0.002 z" /><path
             style="fill:#f4f4f4"
             inkscape:connector-curvature="0"
             id="path9"
             d="m 167.395,204.071 c -3.23,0 -5.863,2.663 -5.863,5.894 l 0,13.038 c 0,3.229 2.632,5.863 5.863,5.863 3.23,0 5.863,-2.633 5.863,-5.863 l 0,-13.038 c 0,-3.23 -2.633,-5.894 -5.863,-5.894 z m 0,1.906 c 2.201,0 3.958,1.789 3.958,3.988 l 0,13.038 c 0,2.2 -1.757,3.958 -3.958,3.958 -2.202,0 -3.958,-1.759 -3.958,-3.958 l 0,-13.038 c -0.001,-2.2 1.757,-3.988 3.958,-3.988 z" /><path
             style="fill:#f4f4f4"
             inkscape:connector-curvature="0"
             id="path11"
             d="m 201.321,170.135 c -3.229,0 -5.863,2.633 -5.863,5.864 0,3.231 2.633,5.894 5.863,5.894 l 13.067,0 c 3.229,0 5.863,-2.662 5.863,-5.894 0,-3.229 -2.633,-5.864 -5.863,-5.864 l -13.067,0 z m 0,1.905 13.067,0 c 2.2,0 3.958,1.76 3.958,3.959 0,2.201 -1.758,3.988 -3.958,3.988 l -13.067,0 c -2.2,0 -3.958,-1.788 -3.958,-3.988 0,-2.2 1.759,-3.959 3.958,-3.959 z" /><path
             style="fill:#f4f4f4"
             inkscape:connector-curvature="0"
             id="polygon13"
             d="m 133.878,141.176 -1.31,1.31 8.155,12.025 0.655,0.952 0.804,-0.803 3.869,-3.87 0.804,-0.804 -0.953,-0.655 -12.024,-8.155 z" /><path
             style="fill:#f4f4f4"
             inkscape:connector-curvature="0"
             id="polygon15"
             d="m 141.383,196.566 -0.654,0.952 -8.156,12.024 1.31,1.31 12.025,-8.155 0.953,-0.654 -0.804,-0.804 -3.87,-3.869 -0.804,-0.804 z" /><path
             style="fill:#f4f4f4"
             inkscape:connector-curvature="0"
             id="polygon17"
             d="m 193.435,196.566 -0.804,0.804 -3.869,3.869 -0.833,0.804 0.953,0.654 12.025,8.155 1.339,-1.31 -8.156,-12.024 -0.655,-0.952 0,0 z" /><path
             style="fill:#f4f4f4"
             inkscape:connector-curvature="0"
             id="polygon19"
             d="m 200.912,141.176 -12.025,8.155 -0.953,0.655 0.833,0.804 3.87,3.87 0.804,0.803 0.655,-0.952 8.155,-12.025 -1.339,-1.31 z" /><path
             style="fill:#f4f4f4"
             inkscape:connector-curvature="0"
             id="path21"
             d="m 146.354,104.833 c -27.67,0 -50.123,22.453 -50.123,50.124 l 0,42.117 c 0,27.671 22.453,50.123 50.123,50.123 l 42.117,0 c 27.671,0 50.124,-22.452 50.124,-50.123 l 0,-42.117 c 0,-27.67 -22.452,-50.124 -50.124,-50.124 l -42.117,0 z m 0,1.906 42.117,0 c 26.644,0 48.219,21.577 48.219,48.218 l 0,42.117 c 0,26.644 -21.577,48.218 -48.219,48.218 l -42.117,0 c -26.642,0 -48.218,-21.574 -48.218,-48.218 l 0,-42.117 c 0,-26.642 21.577,-48.218 48.218,-48.218 z" /><path
             style="fill:#f4f4f4"
             inkscape:connector-curvature="0"
             id="polygon23"
             d="m 69.499,75.694 0,0.952 0,202.961 0,0.952 0.953,0 196.122,0 0.952,0 0,-0.952 0,-26.401 289.521,0 0.952,0 0,-0.952 0,-113.458 0,-0.953 -0.952,0 -289.522,0 0,-61.196 0,-0.952 -0.952,0 -196.122,0 -0.952,-10e-4 0,0 z m 1.904,1.905 194.217,0 0,61.196 0,0.953 0.953,0 0.714,0 288.807,0 0,111.552 -289.226,0 -0.297,0 -0.953,0 0,0.953 0,26.4 -194.217,0 0,-201.055 0.002,0.001 z" /><path
             style="fill:#f4f4f4"
             inkscape:connector-curvature="0"
             id="circle25"
             d="m 400.692,169.126 c -19.762,0 -35.777,16.046 -35.777,35.807 0,19.761 16.018,35.807 35.777,35.807 19.759,0 35.807,-16.046 35.807,-35.807 0,-19.761 -16.047,-35.807 -35.807,-35.807 l 0,0 z m 0,1.905 c 18.73,0 33.901,15.17 33.901,33.902 0,18.732 -15.171,33.902 -33.901,33.902 -18.731,0 -33.872,-15.171 -33.872,-33.902 0,-18.731 15.141,-33.902 33.872,-33.902 l 0,0 z" /><path
             style="fill:#f4f4f4"
             inkscape:connector-curvature="0"
             id="circle27"
             d="m 400.692,177.669 c -15.039,0 -27.234,12.227 -27.234,27.265 0,15.038 12.195,27.234 27.234,27.234 15.036,0 27.264,-12.196 27.264,-27.234 0,-15.038 -12.227,-27.265 -27.264,-27.265 z m 0,1.905 c 14.008,0 25.359,11.351 25.359,25.359 0,14.008 -11.352,25.33 -25.359,25.33 -14.01,0 -25.33,-11.321 -25.33,-25.33 0,-14.009 11.321,-25.359 25.33,-25.359 z" /><path
             style="fill:#f4f4f4"
             inkscape:connector-curvature="0"
             id="circle29"
             d="m 489.919,169.126 c -19.762,0 -35.807,16.046 -35.807,35.807 0,19.761 16.045,35.807 35.807,35.807 19.76,0 35.807,-16.046 35.807,-35.807 0,-19.761 -16.047,-35.807 -35.807,-35.807 l 0,0 z m 0,1.905 c 18.73,0 33.901,15.17 33.901,33.902 0,18.732 -15.171,33.902 -33.901,33.902 -18.731,0 -33.902,-15.171 -33.902,-33.902 0,-18.731 15.171,-33.902 33.902,-33.902 l 0,0 z" /><path
             style="fill:#f4f4f4"
             inkscape:connector-curvature="0"
             id="circle31"
             d="m 489.919,177.669 c -15.039,0 -27.234,12.227 -27.234,27.265 0,15.038 12.195,27.234 27.234,27.234 15.036,0 27.234,-12.196 27.234,-27.234 0,-15.038 -12.196,-27.265 -27.234,-27.265 z m 0,1.905 c 14.008,0 25.329,11.351 25.329,25.359 0,14.008 -11.321,25.33 -25.329,25.33 -14.01,0 -25.33,-11.321 -25.33,-25.33 0,-14.009 11.32,-25.359 25.33,-25.359 z" /><path
             style="fill:#f4f4f4"
             inkscape:connector-curvature="0"
             id="path33"
             d="m 39.406,68.432 c -4.766,0 -8.662,3.896 -8.662,8.662 l 0,203.084 c 0,4.766 3.897,8.661 8.662,8.661 l 518.646,0 c 4.429,0 7.956,-3.411 8.453,-7.709 l 0.179,0 0,-0.952 0,-203.085 c 0,-4.762 -3.868,-8.658 -8.64,-8.658 l -518.645,0 0.007,-0.003 z m 0,1.904 518.646,0 c 3.737,0 6.727,3.021 6.727,6.757 l 0,202.131 0,0.953 c 0,3.736 -2.989,6.756 -6.727,6.756 l -518.646,0 c -3.732,0.01 -6.753,-3.019 -6.753,-6.753 l 0,-203.083 c 0,-3.736 3.02,-6.756 6.756,-6.756 l -0.003,-0.005 z" /><path
             style="fill:#f4f4f4"
             inkscape:connector-curvature="0"
             id="rect35"
             d="m 359.021,163.559 0,0.953 0,81.465 0,0.952 0.953,0 81.465,0 0.953,0 0,-0.952 0,-81.465 0,-0.953 -0.953,0 -81.465,0 -0.953,0 z m 1.906,1.905 79.561,0 0,79.56 -79.561,0 0,-79.56 z" /><path
             style="fill:#f4f4f4"
             inkscape:connector-curvature="0"
             id="rect37"
             d="m 448.248,163.559 0,0.953 0,81.465 0,0.952 0.953,0 81.436,0 0.952,0 0,-0.952 0,-81.465 0,-0.953 -0.952,0 -81.436,0 -0.953,0 z m 1.905,1.905 79.531,0 0,79.56 -79.531,0 0,-79.56 z" /><path
             style="fill:#f4f4f4"
             inkscape:connector-curvature="0"
             id="polyline39"
             d="m 83.934,94.177 0,2.292 0,159.061 0,2.322 1.607,-1.638 25.33,-25.299 -1.369,-1.369 -23.663,23.692 0,-154.45 23.663,23.658 1.369,-1.34 -25.33,-25.299 -1.607,-1.637 0,0.007 z" /><path
             style="fill:#f4f4f4"
             inkscape:connector-curvature="0"
             id="polyline41"
             d="m 222.305,232.551 -1.37,1.339 23.693,23.692 -154.452,0 23.574,-23.573 -1.369,-1.339 -25.181,25.182 -1.637,1.637 2.292,0 159.062,0 2.292,0 -1.607,-1.637 -25.299,-25.3 0.002,-0.001 z" /><path
             style="fill:#f4f4f4"
             inkscape:connector-curvature="0"
             id="polyline43"
             d="m 250.878,94.177 -1.637,1.637 -25.211,25.182 1.369,1.369 23.574,-23.603 0,154.509 -23.633,-23.663 -1.339,1.34 25.24,25.27 1.637,1.638 0,-2.322 0,-159.063 0,-2.292 0,-0.002 z" /><path
             style="fill:#f4f4f4"
             inkscape:connector-curvature="0"
             id="polyline45"
             d="m 85.57,92.54 1.638,1.608 25.21,25.24 1.339,-1.34 -23.572,-23.602 154.452,0 -23.669,23.662 1.333,1.339 25.307,-25.3 1.607,-1.607 -2.292,0 -159.062,0 -2.291,0 0,0 z" /><path
             style="fill:#f4f4f4"
             inkscape:connector-curvature="0"
             id="line47"
             d="m 58.961,69.533 0,218.057 1.905,0 0,-218.057 -1.905,0 z" /><path
             style="fill:#f4f4f4"
             inkscape:connector-curvature="0"
             id="rect49"
             d="m 359.021,145.819 0,0.953 0,13.244 0,0.953 0.953,0 81.465,0 0.953,0 0,-0.953 0,-13.244 0,-0.953 -0.953,0 -81.465,0 -0.953,0 z m 1.906,1.905 79.561,0 0,11.339 -79.561,0 0,-11.339 z" /><path
             style="fill:#f4f4f4"
             inkscape:connector-curvature="0"
             id="rect51"
             d="m 448.248,145.819 0,0.953 0,13.244 0,0.953 0.953,0 81.436,0 0.952,0 0,-0.953 0,-13.244 0,-0.953 -0.952,0 -81.436,0 -0.953,0 z m 1.905,1.905 79.531,0 0,11.339 -79.531,0 0,-11.339 z" /><path
             style="fill:#f4f4f4"
             inkscape:connector-curvature="0"
             id="path53"
             d="m 276.804,73.134 c -0.987,0 -1.815,0.828 -1.815,1.816 l 0,53.01 c 0,0.988 0.829,1.815 1.815,1.815 l 282.855,0 c 0.985,0 1.785,-0.831 1.785,-1.815 l 0,-50.033 c 0,-2.641 -2.152,-4.792 -4.792,-4.792 l -279.844,0 -0.004,0 z m 0.09,1.906 279.756,0 c 1.613,0 2.888,1.275 2.888,2.887 l 0,49.945 -282.643,0 0,-52.832 -10e-4,0 z" /><path
             style="fill:#f4f4f4"
             inkscape:connector-curvature="0"
             id="path55"
             d="m 276.804,260.41 c -0.987,0 -1.815,0.829 -1.815,1.815 l 0,20.091 c 0,0.987 0.829,1.816 1.815,1.816 l 279.844,0 c 2.64,0 4.792,-2.183 4.792,-4.822 l 0,-17.085 c 0,-0.985 -0.8,-1.815 -1.785,-1.815 l -282.855,0 0.004,0 z m 0.09,1.905 282.645,0 0,16.995 c 0,1.611 -1.276,2.917 -2.888,2.917 l -279.758,0 0.001,-19.912 0,0 z" /><path
             style="fill:#f4f4f4"
             inkscape:connector-curvature="0"
             id="line57"
             d="m 274.461,129.271 -6.28,6.28 1.369,1.339 6.251,-6.25 -1.34,-1.369 z" /><path
             style="fill:#f4f4f4"
             inkscape:connector-curvature="0"
             id="line59"
             d="m 269.546,253.866 -1.369,1.34 6.281,6.28 1.339,-1.369 -6.251,-6.251 z" /></g></g></g></g><g
     inkscape:groupmode="layer"
     id="layer4"
     inkscape:label="Controller"><g
       id="g4726"
       transform="matrix(0.4901408,-0.35667714,-0.41169551,0.78973307,195.34377,190.05822)"><path
         d="m 107.527,100.097 c -49.126,0 -88.963,39.837 -88.963,88.959 0,49.126 39.837,88.963 88.963,88.963 49.125,0 88.963,-39.836 88.963,-88.963 0,-49.125 -39.836,-88.963 -88.963,-88.963 l 0,0.004 z m 0,1.845 c 48.128,0 87.118,38.989 87.118,87.118 0,48.129 -38.989,87.119 -87.118,87.119 -48.133,0 -87.122,-38.984 -87.122,-87.12 0,-48.126 38.989,-87.115 87.118,-87.115 l 0.004,-0.002 z"
         id="circle3"
         inkscape:connector-curvature="0"
         style="fill:#f4f4f4" /><path
         d="m 107.527,151.53 c -20.715,0 -37.534,16.817 -37.534,37.534 0,20.715 16.818,37.533 37.534,37.533 20.716,0 37.534,-16.817 37.534,-37.533 0,-20.716 -16.817,-37.534 -37.534,-37.534 z m 0,1.845 c 19.718,0 35.689,15.97 35.689,35.689 0,19.718 -15.97,35.688 -35.689,35.688 -19.718,0 -35.689,-15.97 -35.689,-35.688 0,-19.718 15.971,-35.689 35.689,-35.689 z"
         id="circle5"
         inkscape:connector-curvature="0"
         style="fill:#f4f4f4" /><path
         d="m 107.527,129.934 0,0 4.526,17.182 -9.052,0 4.526,-17.182 z"
         id="polygon7"
         inkscape:connector-curvature="0"
         style="fill:#f4f4f4" /><path
         d="m 65.698,147.231 15.365,8.965 -6.371,6.4 -8.994,-15.365 0,0 z"
         id="polygon9"
         inkscape:connector-curvature="0"
         style="fill:#f4f4f4" /><path
         d="m 65.583,184.537 0,9.053 -17.21,-4.526 17.21,-4.527 0,0 z"
         id="polygon11"
         inkscape:connector-curvature="0"
         style="fill:#f4f4f4" /><path
         d="m 74.692,215.528 6.371,6.398 -15.365,8.966 8.994,-15.364 0,0 z"
         id="polygon13-5"
         inkscape:connector-curvature="0"
         style="fill:#f4f4f4" /><path
         d="m 103.001,231.002 9.052,0 -4.526,17.182 -4.526,-17.182 0,0 z"
         id="polygon15-7"
         inkscape:connector-curvature="0"
         style="fill:#f4f4f4" /><path
         d="m 140.39,215.528 8.937,15.335 -15.336,-8.937 6.399,-6.398 z"
         id="polygon17-9"
         inkscape:connector-curvature="0"
         style="fill:#f4f4f4" /><path
         d="m 149.475,184.537 17.239,4.526 -17.239,4.526 0,-9.052 0,0 z"
         id="polygon19-8"
         inkscape:connector-curvature="0"
         style="fill:#f4f4f4" /><path
         d="m 149.326,147.26 -8.937,15.337 -6.4,-6.4 15.337,-8.937 z"
         id="polygon21"
         inkscape:connector-curvature="0"
         style="fill:#f4f4f4" /><g
         id="g23"><path
           d="m 299.868,115.579 c -18.162,0 -32.892,14.73 -32.892,32.892 0,18.162 14.73,32.922 32.892,32.922 18.161,0 32.922,-14.759 32.922,-32.922 0,-18.162 -14.759,-32.892 -32.922,-32.892 l 0,0 z m 0,1.845 c 17.165,0 31.076,13.882 31.076,31.047 0,17.165 -13.911,31.077 -31.076,31.077 -17.164,0 -31.047,-13.912 -31.047,-31.077 0,-17.165 13.883,-31.047 31.047,-31.047 z"
           id="circle25-3"
           inkscape:connector-curvature="0"
           style="fill:#f4f4f4" /><path
           d="m 299.868,126.101 c -12.345,0 -22.37,10.025 -22.37,22.37 0,12.345 10.025,22.371 22.37,22.371 12.346,0 22.37,-10.026 22.37,-22.371 0,-12.345 -10.024,-22.37 -22.37,-22.37 z m 0,1.844 c 11.347,0 20.525,9.178 20.525,20.525 0,11.347 -9.179,20.525 -20.525,20.525 -11.348,0 -20.525,-9.178 -20.525,-20.525 0,-11.347 9.178,-20.525 20.525,-20.525 z"
           id="circle27-6"
           inkscape:connector-curvature="0"
           style="fill:#f4f4f4" /></g><g
         id="g29"><path
           d="m 383.354,115.579 c -18.164,0 -32.894,14.731 -32.894,32.892 0,18.162 14.731,32.893 32.894,32.893 18.161,0 32.922,-14.731 32.922,-32.893 0,-18.162 -14.76,-32.892 -32.922,-32.892 z m 0,1.845 c 17.163,0 31.076,13.883 31.076,31.047 0,17.165 -13.913,31.047 -31.076,31.047 -17.166,0 -31.048,-13.883 -31.048,-31.047 0.001,-17.165 13.882,-31.047 31.048,-31.047 z"
           id="circle31-5"
           inkscape:connector-curvature="0"
           style="fill:#f4f4f4" /><path
           d="m 383.354,126.101 c -12.346,0 -22.371,10.025 -22.371,22.37 0,12.345 10.025,22.371 22.371,22.371 12.344,0 22.369,-10.026 22.369,-22.371 0,-12.345 -10.025,-22.37 -22.369,-22.37 z m 0,1.844 c 11.348,0 20.523,9.178 20.523,20.525 0,11.347 -9.178,20.525 -20.523,20.525 -11.348,0 -20.526,-9.178 -20.526,-20.525 0,-11.347 9.179,-20.525 20.526,-20.525 z"
           id="circle33"
           inkscape:connector-curvature="0"
           style="fill:#f4f4f4" /></g><g
         id="g35"><path
           d="m 466.839,115.579 c -18.162,0 -32.893,14.731 -32.893,32.892 0,18.162 14.73,32.893 32.893,32.893 18.163,0 32.922,-14.731 32.922,-32.893 0,-18.162 -14.76,-32.892 -32.922,-32.892 z m 0,1.845 c 17.165,0 31.077,13.883 31.077,31.047 0,17.165 -13.912,31.047 -31.077,31.047 -17.165,0 -31.048,-13.883 -31.048,-31.047 0,-17.165 13.884,-31.047 31.048,-31.047 z"
           id="circle37"
           inkscape:connector-curvature="0"
           style="fill:#f4f4f4" /><path
           d="m 466.839,126.101 c -12.346,0 -22.371,10.025 -22.371,22.37 0,12.345 10.025,22.371 22.371,22.371 12.344,0 22.371,-10.026 22.371,-22.371 0,-12.345 -10.027,-22.37 -22.371,-22.37 z m 0,1.844 c 11.348,0 20.525,9.178 20.525,20.525 0,11.347 -9.178,20.525 -20.525,20.525 -11.347,0 -20.525,-9.178 -20.525,-20.525 0,-11.347 9.177,-20.525 20.525,-20.525 z"
           id="circle39"
           inkscape:connector-curvature="0"
           style="fill:#f4f4f4" /></g><g
         id="g41"><path
           d="m 547.962,34.457 c -18.162,0 -32.892,14.731 -32.892,32.892 0,18.162 14.731,32.922 32.892,32.922 18.163,0 32.893,-14.76 32.893,-32.922 -0.009,-18.161 -14.742,-32.892 -32.896,-32.892 l 0.003,0 z m 0,1.845 c 17.165,0 31.048,13.884 31.048,31.047 0,17.165 -13.883,31.077 -31.048,31.077 -17.164,0 -31.047,-13.912 -31.047,-31.077 0,-17.164 13.883,-31.047 31.052,-31.047 l -0.005,0 z"
           id="circle43"
           inkscape:connector-curvature="0"
           style="fill:#f4f4f4" /><path
           d="m 547.962,44.979 c -12.345,0 -22.369,10.026 -22.369,22.371 0,12.345 10.024,22.398 22.369,22.398 12.346,0 22.37,-10.054 22.37,-22.398 0,-12.344 -10.024,-22.371 -22.37,-22.371 z m 0,1.844 c 11.349,0 20.525,9.178 20.525,20.526 0,11.348 -9.177,20.554 -20.525,20.554 -11.348,0 -20.524,-9.206 -20.524,-20.554 0,-11.348 9.176,-20.526 20.524,-20.526 z"
           id="circle45"
           inkscape:connector-curvature="0"
           style="fill:#f4f4f4" /></g><g
         id="g47"><path
           d="m 299.868,197.507 c -18.162,0 -32.892,14.759 -32.892,32.922 0,18.161 14.73,32.892 32.892,32.892 18.161,0 32.922,-14.73 32.922,-32.892 0,-18.162 -14.759,-32.922 -32.922,-32.922 l 0,0 z m 0,1.845 c 17.165,0 31.076,13.911 31.076,31.077 0,17.164 -13.911,31.047 -31.076,31.047 -17.164,0 -31.047,-13.883 -31.047,-31.047 0,-17.165 13.883,-31.077 31.047,-31.077 z"
           id="circle49"
           inkscape:connector-curvature="0"
           style="fill:#f4f4f4" /><path
           d="m 299.868,208.06 c -12.345,0 -22.37,10.026 -22.37,22.371 0,12.345 10.025,22.37 22.37,22.37 12.346,0 22.37,-10.025 22.37,-22.37 0,-12.345 -10.024,-22.371 -22.37,-22.371 z m 0,1.844 c 11.347,0 20.525,9.179 20.525,20.526 0,11.347 -9.179,20.525 -20.525,20.525 -11.348,0 -20.525,-9.179 -20.525,-20.525 0,-11.347 9.178,-20.526 20.525,-20.526 z"
           id="circle51"
           inkscape:connector-curvature="0"
           style="fill:#f4f4f4" /></g><g
         id="g53"><path
           d="m 383.354,197.507 c -18.164,0 -32.894,14.76 -32.894,32.922 0,18.161 14.731,32.892 32.894,32.892 18.161,0 32.922,-14.731 32.922,-32.892 0,-18.162 -14.76,-32.922 -32.922,-32.922 l 0,0 z m 0,1.845 c 17.163,0 31.076,13.912 31.076,31.077 0,17.164 -13.913,31.047 -31.076,31.047 -17.166,0 -31.048,-13.884 -31.048,-31.047 0.001,-17.165 13.882,-31.077 31.048,-31.077 z"
           id="circle55"
           inkscape:connector-curvature="0"
           style="fill:#f4f4f4" /><path
           d="m 383.354,208.06 c -12.346,0 -22.371,10.026 -22.371,22.371 0,12.345 10.025,22.37 22.371,22.37 12.344,0 22.369,-10.025 22.369,-22.37 0,-12.345 -10.025,-22.371 -22.369,-22.371 z m 0,1.844 c 11.348,0 20.523,9.179 20.523,20.526 0,11.347 -9.178,20.525 -20.523,20.525 -11.348,0 -20.526,-9.179 -20.526,-20.525 0,-11.347 9.179,-20.526 20.526,-20.526 z"
           id="circle57"
           inkscape:connector-curvature="0"
           style="fill:#f4f4f4" /></g><path
         d="m 466.839,197.507 c -18.162,0 -32.893,14.76 -32.893,32.922 0,18.161 14.73,32.892 32.893,32.892 18.163,0 32.922,-14.731 32.922,-32.892 0,-18.162 -14.76,-32.922 -32.922,-32.922 l 0,0 z m 0,1.845 c 17.165,0 31.077,13.912 31.077,31.077 0,17.164 -13.912,31.047 -31.077,31.047 -17.165,0 -31.048,-13.884 -31.048,-31.047 0,-17.165 13.884,-31.077 31.048,-31.077 z"
         id="circle59"
         inkscape:connector-curvature="0"
         style="fill:#f4f4f4" /><path
         d="m 466.839,208.06 c -12.346,0 -22.371,10.026 -22.371,22.371 0,12.345 10.025,22.37 22.371,22.37 12.344,0 22.371,-10.025 22.371,-22.37 0,-12.345 -10.027,-22.371 -22.371,-22.371 z m 0,1.844 c 11.348,0 20.525,9.179 20.525,20.526 0,11.347 -9.178,20.525 -20.525,20.525 -11.347,0 -20.525,-9.179 -20.525,-20.525 -0.001,-11.347 9.177,-20.526 20.525,-20.526 z"
         id="circle61"
         inkscape:connector-curvature="0"
         style="fill:#f4f4f4" /><g
         id="g63"><path
           d="m 415.382,229.877 0,1.845 19.604,0 0,-1.845 -19.604,0 z"
           id="line65"
           inkscape:connector-curvature="0"
           style="fill:#f4f4f4" /><path
           d="m 331.952,229.877 0,1.845 19.517,0 0,-1.845 -19.517,0 z"
           id="line67"
           inkscape:connector-curvature="0"
           style="fill:#f4f4f4" /><path
           d="m 256.742,229.877 0,0.923 0,48.747 0,0.923 0.922,0 251.406,0 0.923,0 0,-0.923 0,-48.747 0,-0.923 -0.923,0 -10.177,0 0,1.845 9.254,0 0,46.903 -249.561,0 0,-46.903 9.399,0 0,-1.845 -10.321,0 -0.922,0 z"
           id="polyline69"
           inkscape:connector-curvature="0"
           style="fill:#f4f4f4" /></g><g
         id="g71"><path
           d="m 415.382,148.384 0,1.846 19.604,0 0,-1.846 -19.604,0 z"
           id="line73"
           inkscape:connector-curvature="0"
           style="fill:#f4f4f4" /><path
           d="m 331.952,148.384 0,1.846 19.517,0 0,-1.846 -19.517,0 z"
           id="line75"
           inkscape:connector-curvature="0"
           style="fill:#f4f4f4" /><path
           d="m 256.742,99.636 0,0.922 0,48.749 0,0.923 0.922,0 10.321,0 0,-1.846 -9.399,0 0,-46.903 249.561,0 0,46.903 -9.254,0 0,1.846 10.177,0 0.923,0 0,-0.923 0,-48.749 0,-0.922 -0.923,0 -251.406,0 -0.922,0 z"
           id="polyline77"
           inkscape:connector-curvature="0"
           style="fill:#f4f4f4" /></g></g></g></svg>