<?xml version="1.0" encoding="UTF-8" standalone="no"?>
<!-- Generator: Adobe Illustrator 13.0.0, SVG Export Plug-In . SVG Version: 6.00 Build 14948)  -->

<svg
   xmlns:dc="http://purl.org/dc/elements/1.1/"
   xmlns:cc="http://creativecommons.org/ns#"
   xmlns:rdf="http://www.w3.org/1999/02/22-rdf-syntax-ns#"
   xmlns:svg="http://www.w3.org/2000/svg"
   xmlns="http://www.w3.org/2000/svg"
   xmlns:sodipodi="http://sodipodi.sourceforge.net/DTD/sodipodi-0.dtd"
   xmlns:inkscape="http://www.inkscape.org/namespaces/inkscape"
   version="1.1"
   id="Layer_2"
   x="0px"
   y="0px"
   width="550"
   height="550"
   viewBox="0 0 549.99995 549.99999"
   enable-background="new 0 0 598.189 350.26"
   xml:space="preserve"
   inkscape:version="0.91 r13725"
   sodipodi:docname="controller_gg.svg"><metadata
     id="metadata3083"><rdf:RDF><cc:Work
         rdf:about=""><dc:format>image/svg+xml</dc:format><dc:type
           rdf:resource="http://purl.org/dc/dcmitype/StillImage" /><dc:title></dc:title></cc:Work></rdf:RDF></metadata><defs
     id="defs3081" /><sodipodi:namedview
     pagecolor="#ffffff"
     bordercolor="#666666"
     borderopacity="1"
     objecttolerance="10"
     gridtolerance="10"
     guidetolerance="10"
     inkscape:pageopacity="0"
     inkscape:pageshadow="2"
     inkscape:window-width="1920"
     inkscape:window-height="1001"
     id="namedview3079"
     showgrid="false"
     inkscape:zoom="1.0799262"
     inkscape:cx="286.73678"
     inkscape:cy="382.70167"
     inkscape:window-x="-9"
     inkscape:window-y="-9"
     inkscape:window-maximized="1"
     inkscape:current-layer="layer4"
     showguides="true"
     inkscape:guide-bbox="true" /><g
     inkscape:groupmode="layer"
     id="layer2"
     inkscape:label="Screen_Rect"
     style="display:none"
     transform="translate(0,199.73999)"
     sodipodi:insensitive="true"><path
       style="fill:#0000ff;stroke:#000000;stroke-width:1px;stroke-linecap:butt;stroke-linejoin:miter;stroke-opacity:1"
       d="M 5.0135033,547.22203 136.4109,114.39023 653.54628,-189.09358 406.482,260.92121 Z"
       id="path3021"
       inkscape:connector-curvature="0"
       transform="translate(-2e-5,-199.73999)"
       sodipodi:nodetypes="ccccc" /><rect
       style="opacity:0.60100002;fill:#d8201f;fill-opacity:1;stroke:#ff8080;stroke-width:2.45114732;stroke-linecap:round;stroke-linejoin:round;stroke-miterlimit:4;stroke-dasharray:none;stroke-opacity:1"
       id="rect4230"
       width="444.2457"
       height="9.9567661"
       x="145.95099"
       y="-211.30678" /></g><g
     inkscape:groupmode="layer"
     id="layer1"
     inkscape:label="Controller_Vorlage"
     style="display:none"
     sodipodi:insensitive="true"><g
       id="g4929"
       transform="translate(-0.929149,0.5695451)"><g
         transform="translate(0,199.73999)"
         style="display:none"
         inkscape:label="Layer2"
         id="layer2-9"><path
           sodipodi:nodetypes="ccccc"
           transform="translate(-2e-5,-199.73999)"
           inkscape:connector-curvature="0"
           id="path3021-0"
           d="M 5.0135033,547.22203 136.4109,114.39023 653.54628,-189.09358 406.482,260.92121 Z"
           style="fill:#ffffff;stroke:#000000;stroke-width:1px;stroke-linecap:butt;stroke-linejoin:miter;stroke-opacity:1" /></g><g
         inkscape:label="Layer"
         id="layer1-2"><g
           transform="matrix(0.55322035,-0.3970343,-0.34863416,0.85569517,173.63773,166.52161)"
           id="g3100"><path
             style="fill:#f4f4f4"
             inkscape:connector-curvature="0"
             id="path3"
             d="m 148.05,114.447 c -23.656,0 -42.861,19.204 -42.861,42.861 l 0,37.414 c 0,23.658 19.205,42.86 42.861,42.86 l 38.694,0 c 23.656,0 42.861,-19.202 42.861,-42.86 l 0,-37.414 c 0,-23.657 -19.205,-42.861 -42.861,-42.861 l -38.694,0 z m 0,1.905 38.694,0 c 22.627,0 40.956,18.328 40.956,40.956 l 0,37.414 c 0,22.629 -18.329,40.956 -40.956,40.956 l -38.694,0 c -22.628,0 -40.956,-18.327 -40.956,-40.956 l 0,-37.414 c 0,-22.629 18.328,-40.956 40.956,-40.956 z" /><path
             style="fill:#f4f4f4"
             inkscape:connector-curvature="0"
             id="path5"
             d="m 167.395,123.168 c -3.23,0 -5.863,2.633 -5.863,5.864 l 0,13.037 c 0,3.23 2.632,5.863 5.863,5.863 3.23,0 5.863,-2.633 5.863,-5.863 l 0,-13.037 c 0,-3.23 -2.633,-5.864 -5.863,-5.864 z m 0,1.906 c 2.201,0 3.958,1.758 3.958,3.958 l 0,13.037 c 0,2.2 -1.758,3.958 -3.958,3.958 -2.202,0 -3.958,-1.758 -3.958,-3.958 l 0,-13.037 c -0.001,-2.2 1.757,-3.958 3.958,-3.958 z" /><path
             style="fill:#f4f4f4"
             inkscape:connector-curvature="0"
             id="path7"
             d="m 120.425,170.135 c -3.23,0 -5.864,2.633 -5.864,5.864 0,3.231 2.632,5.894 5.864,5.894 l 13.037,0 c 3.229,0 5.864,-2.662 5.864,-5.894 0,-3.229 -2.633,-5.864 -5.864,-5.864 l -13.037,0 z m 0,1.905 13.037,0 c 2.201,0 3.959,1.759 3.959,3.959 0,2.201 -1.759,3.988 -3.959,3.988 l -13.037,0 c -2.198,-0.01 -3.955,-1.791 -3.955,-3.99 0,-2.201 1.758,-3.959 3.958,-3.959 l -0.003,0.002 z" /><path
             style="fill:#f4f4f4"
             inkscape:connector-curvature="0"
             id="path9"
             d="m 167.395,204.071 c -3.23,0 -5.863,2.663 -5.863,5.894 l 0,13.038 c 0,3.229 2.632,5.863 5.863,5.863 3.23,0 5.863,-2.633 5.863,-5.863 l 0,-13.038 c 0,-3.23 -2.633,-5.894 -5.863,-5.894 z m 0,1.906 c 2.201,0 3.958,1.789 3.958,3.988 l 0,13.038 c 0,2.2 -1.757,3.958 -3.958,3.958 -2.202,0 -3.958,-1.759 -3.958,-3.958 l 0,-13.038 c -0.001,-2.2 1.757,-3.988 3.958,-3.988 z" /><path
             style="fill:#f4f4f4"
             inkscape:connector-curvature="0"
             id="path11"
             d="m 201.321,170.135 c -3.229,0 -5.863,2.633 -5.863,5.864 0,3.231 2.633,5.894 5.863,5.894 l 13.067,0 c 3.229,0 5.863,-2.662 5.863,-5.894 0,-3.229 -2.633,-5.864 -5.863,-5.864 l -13.067,0 z m 0,1.905 13.067,0 c 2.2,0 3.958,1.76 3.958,3.959 0,2.201 -1.758,3.988 -3.958,3.988 l -13.067,0 c -2.2,0 -3.958,-1.788 -3.958,-3.988 0,-2.2 1.759,-3.959 3.958,-3.959 z" /><path
             style="fill:#f4f4f4"
             inkscape:connector-curvature="0"
             id="polygon13"
             d="m 133.878,141.176 -1.31,1.31 8.155,12.025 0.655,0.952 0.804,-0.803 3.869,-3.87 0.804,-0.804 -0.953,-0.655 -12.024,-8.155 z" /><path
             style="fill:#f4f4f4"
             inkscape:connector-curvature="0"
             id="polygon15"
             d="m 141.383,196.566 -0.654,0.952 -8.156,12.024 1.31,1.31 12.025,-8.155 0.953,-0.654 -0.804,-0.804 -3.87,-3.869 -0.804,-0.804 z" /><path
             style="fill:#f4f4f4"
             inkscape:connector-curvature="0"
             id="polygon17"
             d="m 193.435,196.566 -0.804,0.804 -3.869,3.869 -0.833,0.804 0.953,0.654 12.025,8.155 1.339,-1.31 -8.156,-12.024 -0.655,-0.952 0,0 z" /><path
             style="fill:#f4f4f4"
             inkscape:connector-curvature="0"
             id="polygon19"
             d="m 200.912,141.176 -12.025,8.155 -0.953,0.655 0.833,0.804 3.87,3.87 0.804,0.803 0.655,-0.952 8.155,-12.025 -1.339,-1.31 z" /><path
             style="fill:#f4f4f4"
             inkscape:connector-curvature="0"
             id="path21"
             d="m 146.354,104.833 c -27.67,0 -50.123,22.453 -50.123,50.124 l 0,42.117 c 0,27.671 22.453,50.123 50.123,50.123 l 42.117,0 c 27.671,0 50.124,-22.452 50.124,-50.123 l 0,-42.117 c 0,-27.67 -22.452,-50.124 -50.124,-50.124 l -42.117,0 z m 0,1.906 42.117,0 c 26.644,0 48.219,21.577 48.219,48.218 l 0,42.117 c 0,26.644 -21.577,48.218 -48.219,48.218 l -42.117,0 c -26.642,0 -48.218,-21.574 -48.218,-48.218 l 0,-42.117 c 0,-26.642 21.577,-48.218 48.218,-48.218 z" /><path
             style="fill:#f4f4f4"
             inkscape:connector-curvature="0"
             id="polygon23"
             d="m 69.499,75.694 0,0.952 0,202.961 0,0.952 0.953,0 196.122,0 0.952,0 0,-0.952 0,-26.401 289.521,0 0.952,0 0,-0.952 0,-113.458 0,-0.953 -0.952,0 -289.522,0 0,-61.196 0,-0.952 -0.952,0 -196.122,0 -0.952,-10e-4 0,0 z m 1.904,1.905 194.217,0 0,61.196 0,0.953 0.953,0 0.714,0 288.807,0 0,111.552 -289.226,0 -0.297,0 -0.953,0 0,0.953 0,26.4 -194.217,0 0,-201.055 0.002,0.001 z" /><path
             style="fill:#f4f4f4"
             inkscape:connector-curvature="0"
             id="circle25"
             d="m 400.692,169.126 c -19.762,0 -35.777,16.046 -35.777,35.807 0,19.761 16.018,35.807 35.777,35.807 19.759,0 35.807,-16.046 35.807,-35.807 0,-19.761 -16.047,-35.807 -35.807,-35.807 l 0,0 z m 0,1.905 c 18.73,0 33.901,15.17 33.901,33.902 0,18.732 -15.171,33.902 -33.901,33.902 -18.731,0 -33.872,-15.171 -33.872,-33.902 0,-18.731 15.141,-33.902 33.872,-33.902 l 0,0 z" /><path
             style="fill:#f4f4f4"
             inkscape:connector-curvature="0"
             id="circle27"
             d="m 400.692,177.669 c -15.039,0 -27.234,12.227 -27.234,27.265 0,15.038 12.195,27.234 27.234,27.234 15.036,0 27.264,-12.196 27.264,-27.234 0,-15.038 -12.227,-27.265 -27.264,-27.265 z m 0,1.905 c 14.008,0 25.359,11.351 25.359,25.359 0,14.008 -11.352,25.33 -25.359,25.33 -14.01,0 -25.33,-11.321 -25.33,-25.33 0,-14.009 11.321,-25.359 25.33,-25.359 z" /><path
             style="fill:#f4f4f4"
             inkscape:connector-curvature="0"
             id="circle29"
             d="m 489.919,169.126 c -19.762,0 -35.807,16.046 -35.807,35.807 0,19.761 16.045,35.807 35.807,35.807 19.76,0 35.807,-16.046 35.807,-35.807 0,-19.761 -16.047,-35.807 -35.807,-35.807 l 0,0 z m 0,1.905 c 18.73,0 33.901,15.17 33.901,33.902 0,18.732 -15.171,33.902 -33.901,33.902 -18.731,0 -33.902,-15.171 -33.902,-33.902 0,-18.731 15.171,-33.902 33.902,-33.902 l 0,0 z" /><path
             style="fill:#f4f4f4"
             inkscape:connector-curvature="0"
             id="circle31"
             d="m 489.919,177.669 c -15.039,0 -27.234,12.227 -27.234,27.265 0,15.038 12.195,27.234 27.234,27.234 15.036,0 27.234,-12.196 27.234,-27.234 0,-15.038 -12.196,-27.265 -27.234,-27.265 z m 0,1.905 c 14.008,0 25.329,11.351 25.329,25.359 0,14.008 -11.321,25.33 -25.329,25.33 -14.01,0 -25.33,-11.321 -25.33,-25.33 0,-14.009 11.32,-25.359 25.33,-25.359 z" /><path
             style="fill:#f4f4f4"
             inkscape:connector-curvature="0"
             id="path33"
             d="m 39.406,68.432 c -4.766,0 -8.662,3.896 -8.662,8.662 l 0,203.084 c 0,4.766 3.897,8.661 8.662,8.661 l 518.646,0 c 4.429,0 7.956,-3.411 8.453,-7.709 l 0.179,0 0,-0.952 0,-203.085 c 0,-4.762 -3.868,-8.658 -8.64,-8.658 l -518.645,0 0.007,-0.003 z m 0,1.904 518.646,0 c 3.737,0 6.727,3.021 6.727,6.757 l 0,202.131 0,0.953 c 0,3.736 -2.989,6.756 -6.727,6.756 l -518.646,0 c -3.732,0.01 -6.753,-3.019 -6.753,-6.753 l 0,-203.083 c 0,-3.736 3.02,-6.756 6.756,-6.756 l -0.003,-0.005 z" /><path
             style="fill:#f4f4f4"
             inkscape:connector-curvature="0"
             id="rect35"
             d="m 359.021,163.559 0,0.953 0,81.465 0,0.952 0.953,0 81.465,0 0.953,0 0,-0.952 0,-81.465 0,-0.953 -0.953,0 -81.465,0 -0.953,0 z m 1.906,1.905 79.561,0 0,79.56 -79.561,0 0,-79.56 z" /><path
             style="fill:#f4f4f4"
             inkscape:connector-curvature="0"
             id="rect37"
             d="m 448.248,163.559 0,0.953 0,81.465 0,0.952 0.953,0 81.436,0 0.952,0 0,-0.952 0,-81.465 0,-0.953 -0.952,0 -81.436,0 -0.953,0 z m 1.905,1.905 79.531,0 0,79.56 -79.531,0 0,-79.56 z" /><path
             style="fill:#f4f4f4"
             inkscape:connector-curvature="0"
             id="polyline39"
             d="m 83.934,94.177 0,2.292 0,159.061 0,2.322 1.607,-1.638 25.33,-25.299 -1.369,-1.369 -23.663,23.692 0,-154.45 23.663,23.658 1.369,-1.34 -25.33,-25.299 -1.607,-1.637 0,0.007 z" /><path
             style="fill:#f4f4f4"
             inkscape:connector-curvature="0"
             id="polyline41"
             d="m 222.305,232.551 -1.37,1.339 23.693,23.692 -154.452,0 23.574,-23.573 -1.369,-1.339 -25.181,25.182 -1.637,1.637 2.292,0 159.062,0 2.292,0 -1.607,-1.637 -25.299,-25.3 0.002,-0.001 z" /><path
             style="fill:#f4f4f4"
             inkscape:connector-curvature="0"
             id="polyline43"
             d="m 250.878,94.177 -1.637,1.637 -25.211,25.182 1.369,1.369 23.574,-23.603 0,154.509 -23.633,-23.663 -1.339,1.34 25.24,25.27 1.637,1.638 0,-2.322 0,-159.063 0,-2.292 0,-0.002 z" /><path
             style="fill:#f4f4f4"
             inkscape:connector-curvature="0"
             id="polyline45"
             d="m 85.57,92.54 1.638,1.608 25.21,25.24 1.339,-1.34 -23.572,-23.602 154.452,0 -23.669,23.662 1.333,1.339 25.307,-25.3 1.607,-1.607 -2.292,0 -159.062,0 -2.291,0 0,0 z" /><path
             style="fill:#f4f4f4"
             inkscape:connector-curvature="0"
             id="line47"
             d="m 58.961,69.533 0,218.057 1.905,0 0,-218.057 -1.905,0 z" /><path
             style="fill:#f4f4f4"
             inkscape:connector-curvature="0"
             id="rect49"
             d="m 359.021,145.819 0,0.953 0,13.244 0,0.953 0.953,0 81.465,0 0.953,0 0,-0.953 0,-13.244 0,-0.953 -0.953,0 -81.465,0 -0.953,0 z m 1.906,1.905 79.561,0 0,11.339 -79.561,0 0,-11.339 z" /><path
             style="fill:#f4f4f4"
             inkscape:connector-curvature="0"
             id="rect51"
             d="m 448.248,145.819 0,0.953 0,13.244 0,0.953 0.953,0 81.436,0 0.952,0 0,-0.953 0,-13.244 0,-0.953 -0.952,0 -81.436,0 -0.953,0 z m 1.905,1.905 79.531,0 0,11.339 -79.531,0 0,-11.339 z" /><path
             style="fill:#f4f4f4"
             inkscape:connector-curvature="0"
             id="path53"
             d="m 276.804,73.134 c -0.987,0 -1.815,0.828 -1.815,1.816 l 0,53.01 c 0,0.988 0.829,1.815 1.815,1.815 l 282.855,0 c 0.985,0 1.785,-0.831 1.785,-1.815 l 0,-50.033 c 0,-2.641 -2.152,-4.792 -4.792,-4.792 l -279.844,0 -0.004,0 z m 0.09,1.906 279.756,0 c 1.613,0 2.888,1.275 2.888,2.887 l 0,49.945 -282.643,0 0,-52.832 -10e-4,0 z" /><path
             style="fill:#f4f4f4"
             inkscape:connector-curvature="0"
             id="path55"
             d="m 276.804,260.41 c -0.987,0 -1.815,0.829 -1.815,1.815 l 0,20.091 c 0,0.987 0.829,1.816 1.815,1.816 l 279.844,0 c 2.64,0 4.792,-2.183 4.792,-4.822 l 0,-17.085 c 0,-0.985 -0.8,-1.815 -1.785,-1.815 l -282.855,0 0.004,0 z m 0.09,1.905 282.645,0 0,16.995 c 0,1.611 -1.276,2.917 -2.888,2.917 l -279.758,0 0.001,-19.912 0,0 z" /><path
             style="fill:#f4f4f4"
             inkscape:connector-curvature="0"
             id="line57"
             d="m 274.461,129.271 -6.28,6.28 1.369,1.339 6.251,-6.25 -1.34,-1.369 z" /><path
             style="fill:#f4f4f4"
             inkscape:connector-curvature="0"
             id="line59"
             d="m 269.546,253.866 -1.369,1.34 6.281,6.28 1.339,-1.369 -6.251,-6.251 z" /></g></g></g></g><g
     inkscape:groupmode="layer"
     id="layer4"
     inkscape:label="Controller"><g
       id="g9529"
       transform="matrix(0.63581845,-0.45133498,-0.43332994,0.9434172,166.92716,172.83365)"><path
         d="m 77.009,88.543 c -4.303,0 -7.798,3.495 -7.798,7.798 l 0,27.028 0,125.116 c 0,4.303 3.496,7.822 7.798,7.822 l 433.85,0 c 4.304,0 7.799,-3.52 7.799,-7.822 l 0,-82.173 c 0,-4.303 -3.495,-7.798 -7.799,-7.798 l -258.872,0 c -2.768,0 -4.417,-0.694 -5.425,-1.792 -1.006,-1.099 -1.452,-2.73 -1.453,-4.844 l 0,-55.534 c 0,-4.303 -3.495,-7.798 -7.798,-7.798 l -35.165,0 c -4.303,0 -7.823,3.495 -7.823,7.798 l 0,14.628 c 0,1.271 -0.199,2.375 -0.678,3.076 -0.479,0.701 -1.221,1.139 -2.81,1.139 l -67.545,0 c -1.134,0 -1.88,-0.216 -2.398,-0.775 -0.517,-0.56 -0.896,-1.6 -0.896,-3.439 l 0,-14.628 c -0.006,-4.313 -3.525,-7.809 -7.829,-7.809 l -35.165,0 0.007,0.007 z m 0,1.55 35.166,0 c 3.465,0 6.272,2.783 6.272,6.249 l 0,14.628 c 0,2.048 0.414,3.513 1.308,4.48 0.894,0.968 2.171,1.284 3.536,1.284 l 67.545,0 c 1.929,0 3.323,-0.69 4.093,-1.816 0.77,-1.127 0.945,-2.535 0.945,-3.948 l 0,-14.629 c 0,-3.466 2.807,-6.249 6.273,-6.249 l 35.165,0 c 3.465,0 6.248,2.783 6.248,6.249 l 0,55.532 c 0.001,2.329 0.497,4.393 1.865,5.886 1.368,1.492 3.531,2.301 6.563,2.301 l 258.87,0 c 3.467,0 6.249,2.784 6.249,6.248 l 0,82.173 c 0,3.466 -2.782,6.271 -6.249,6.271 l -433.848,0 c -3.466,0 -6.249,-2.806 -6.249,-6.271 l 0,-125.115 0,-27.028 c 0,-3.465 2.783,-6.248 6.249,-6.248 l -0.001,0.003 z"
         id="path3-4"
         inkscape:connector-curvature="0"
         style="fill:#f4f4f4" /><path
         d="M 195.104,167.793"
         id="path5-6"
         inkscape:connector-curvature="0"
         style="fill:none;stroke:#f4f4f4;stroke-width:1.54999995" /><path
         d="m 253.027,92.805 c -4.304,0 -7.798,3.496 -7.798,7.798 l 0,48.873 c 0,4.303 3.495,7.797 7.798,7.797 l 80.894,0 c 4.304,0 7.799,-3.494 7.799,-7.797 l 0,-48.873 c 0,-4.306 -3.495,-7.801 -7.797,-7.801 l -80.894,0 -0.002,0.003 z m 0,1.55 80.894,0 c 3.466,0 6.249,2.783 6.249,6.248 l 0,48.873 c 0,3.466 -2.783,6.249 -6.249,6.249 l -80.894,0 c -3.466,0 -6.249,-2.783 -6.249,-6.249 l 0,-48.873 c 0.001,-3.465 2.783,-6.248 6.249,-6.248 z"
         id="path7-2"
         inkscape:connector-curvature="0"
         style="fill:#f4f4f4" /><path
         d="m 254.507,97.601 c -2.667,0 -4.843,2.2 -4.843,4.868 0,2.668 2.176,4.844 4.843,4.844 2.668,0 4.868,-2.176 4.868,-4.844 0,-2.668 -2.2,-4.868 -4.868,-4.868 z m 0,1.55 c 1.831,0 3.318,1.488 3.318,3.318 0,1.83 -1.488,3.293 -3.318,3.293 -1.829,0 -3.293,-1.463 -3.293,-3.293 0,-1.83 1.464,-3.318 3.293,-3.318 z"
         id="circle9"
         inkscape:connector-curvature="0"
         style="fill:#f4f4f4" /><path
         d="m 273.394,97.601 c -2.667,0 -4.844,2.2 -4.844,4.868 0,2.668 2.177,4.844 4.844,4.844 2.667,0 4.843,-2.176 4.843,-4.844 0,-2.668 -2.175,-4.868 -4.843,-4.868 z m 0,1.55 c 1.83,0 3.293,1.488 3.293,3.318 0,1.83 -1.464,3.293 -3.293,3.293 -1.83,0 -3.293,-1.463 -3.293,-3.293 0,-1.83 1.463,-3.318 3.293,-3.318 z"
         id="circle11"
         inkscape:connector-curvature="0"
         style="fill:#f4f4f4" /><path
         d="m 292.265,97.601 c -2.667,0 -4.843,2.2 -4.843,4.868 0,2.668 2.176,4.844 4.843,4.844 2.667,0 4.868,-2.176 4.868,-4.844 0,-2.668 -2.201,-4.868 -4.868,-4.868 z m 0,1.55 c 1.83,0 3.318,1.488 3.318,3.318 0,1.83 -1.488,3.293 -3.318,3.293 -1.83,0 -3.293,-1.463 -3.293,-3.293 0,-1.83 1.463,-3.318 3.293,-3.318 z"
         id="circle13"
         inkscape:connector-curvature="0"
         style="fill:#f4f4f4" /><path
         d="m 311.151,97.601 c -2.668,0 -4.844,2.2 -4.844,4.868 0,2.668 2.176,4.844 4.844,4.844 2.668,0 4.843,-2.176 4.843,-4.844 0,-2.668 -2.175,-4.868 -4.843,-4.868 z m 0,1.55 c 1.829,0 3.293,1.488 3.293,3.318 0,1.83 -1.464,3.293 -3.293,3.293 -1.828,0 -3.294,-1.463 -3.294,-3.293 0,-1.83 1.466,-3.318 3.294,-3.318 z"
         id="circle15"
         inkscape:connector-curvature="0"
         style="fill:#f4f4f4" /><path
         d="m 263.784,108.353 c -2.667,0 -4.868,2.176 -4.868,4.844 0,2.667 2.2,4.843 4.868,4.843 2.668,0 4.844,-2.176 4.844,-4.843 -10e-4,-2.668 -2.177,-4.844 -4.844,-4.844 z m 0,1.55 c 1.831,0 3.294,1.463 3.294,3.294 0,1.83 -1.463,3.293 -3.294,3.293 -1.83,0 -3.317,-1.463 -3.317,-3.293 -10e-4,-1.83 1.487,-3.294 3.317,-3.294 z"
         id="circle17"
         inkscape:connector-curvature="0"
         style="fill:#f4f4f4" /><path
         d="m 282.647,108.353 c -2.667,0 -4.843,2.176 -4.843,4.844 0,2.667 2.176,4.843 4.843,4.843 2.667,0 4.844,-2.176 4.844,-4.843 0.001,-2.668 -2.176,-4.844 -4.844,-4.844 z m 0,1.55 c 1.83,0 3.293,1.463 3.293,3.294 0,1.83 -1.463,3.293 -3.293,3.293 -1.83,0 -3.293,-1.463 -3.293,-3.293 0,-1.83 1.463,-3.294 3.293,-3.294 z"
         id="circle19"
         inkscape:connector-curvature="0"
         style="fill:#f4f4f4" /><path
         d="m 301.542,108.353 c -2.668,0 -4.868,2.176 -4.868,4.844 0,2.667 2.2,4.843 4.868,4.843 2.668,0 4.845,-2.176 4.845,-4.843 0,-2.668 -2.177,-4.844 -4.845,-4.844 z m 0,1.55 c 1.83,0 3.295,1.463 3.295,3.294 0,1.83 -1.465,3.293 -3.295,3.293 -1.83,0 -3.318,-1.463 -3.318,-3.293 0,-1.83 1.488,-3.294 3.318,-3.294 z"
         id="circle21"
         inkscape:connector-curvature="0"
         style="fill:#f4f4f4" /><path
         d="m 320.405,108.353 c -2.668,0 -4.844,2.176 -4.844,4.844 0,2.667 2.176,4.843 4.844,4.843 2.668,0 4.844,-2.176 4.844,-4.843 0,-2.668 -2.176,-4.844 -4.844,-4.844 z m 0,1.55 c 1.83,0 3.294,1.463 3.294,3.294 0,1.83 -1.464,3.293 -3.294,3.293 -1.83,0 -3.293,-1.463 -3.293,-3.293 0,-1.83 1.463,-3.294 3.293,-3.294 z"
         id="circle23"
         inkscape:connector-curvature="0"
         style="fill:#f4f4f4" /><path
         d="m 263.784,129.811 c -2.667,0 -4.868,2.176 -4.868,4.844 0,2.668 2.2,4.844 4.868,4.844 2.668,0 4.844,-2.176 4.844,-4.844 -10e-4,-2.668 -2.177,-4.844 -4.844,-4.844 z m 0,1.55 c 1.831,0 3.294,1.463 3.294,3.293 0,1.83 -1.463,3.293 -3.294,3.293 -1.83,0 -3.317,-1.463 -3.317,-3.293 0,-1.83 1.487,-3.293 3.317,-3.293 z"
         id="circle25-8"
         inkscape:connector-curvature="0"
         style="fill:#f4f4f4" /><path
         d="m 282.647,129.811 c -2.667,0 -4.843,2.176 -4.843,4.844 0,2.668 2.176,4.844 4.843,4.844 2.667,0 4.844,-2.176 4.844,-4.844 0.001,-2.668 -2.176,-4.844 -4.844,-4.844 z m 0,1.55 c 1.83,0 3.293,1.463 3.293,3.293 0,1.83 -1.463,3.293 -3.293,3.293 -1.83,0 -3.293,-1.463 -3.293,-3.293 0,-1.83 1.463,-3.293 3.293,-3.293 z"
         id="circle27-9"
         inkscape:connector-curvature="0"
         style="fill:#f4f4f4" /><path
         d="m 301.542,129.811 c -2.668,0 -4.868,2.176 -4.868,4.844 0,2.668 2.2,4.844 4.868,4.844 2.668,0 4.845,-2.176 4.845,-4.844 0,-2.668 -2.177,-4.844 -4.845,-4.844 z m 0,1.55 c 1.83,0 3.295,1.463 3.295,3.293 0,1.83 -1.465,3.293 -3.295,3.293 -1.83,0 -3.318,-1.463 -3.318,-3.293 0,-1.83 1.488,-3.293 3.318,-3.293 z"
         id="circle29-1"
         inkscape:connector-curvature="0"
         style="fill:#f4f4f4" /><path
         d="m 320.405,129.811 c -2.668,0 -4.844,2.176 -4.844,4.844 0,2.668 2.176,4.844 4.844,4.844 2.668,0 4.844,-2.176 4.844,-4.844 0,-2.668 -2.176,-4.844 -4.844,-4.844 z m 0,1.55 c 1.83,0 3.294,1.463 3.294,3.293 0,1.83 -1.464,3.293 -3.294,3.293 -1.83,0 -3.293,-1.463 -3.293,-3.293 0,-1.83 1.463,-3.293 3.293,-3.293 z"
         id="circle31-6"
         inkscape:connector-curvature="0"
         style="fill:#f4f4f4" /><path
         d="m 330.023,97.601 c -2.669,0 -4.844,2.2 -4.844,4.868 0,2.668 2.175,4.844 4.844,4.844 2.667,0 4.868,-2.176 4.868,-4.844 10e-4,-2.668 -2.201,-4.868 -4.868,-4.868 z m 0,1.55 c 1.83,0 3.318,1.488 3.318,3.318 0,1.83 -1.488,3.293 -3.318,3.293 -1.831,0 -3.294,-1.463 -3.294,-3.293 0,-1.83 1.463,-3.318 3.294,-3.318 z"
         id="circle33"
         inkscape:connector-curvature="0"
         style="fill:#f4f4f4" /><path
         d="m 254.507,118.792 c -2.667,0 -4.843,2.2 -4.843,4.868 0,2.667 2.176,4.844 4.843,4.844 2.668,0 4.868,-2.176 4.868,-4.844 0,-2.668 -2.2,-4.868 -4.868,-4.868 z m 0,1.549 c 1.831,0 3.318,1.488 3.318,3.318 0,1.83 -1.488,3.294 -3.318,3.294 -1.829,0 -3.293,-1.464 -3.293,-3.294 -0.001,-1.829 1.464,-3.318 3.293,-3.318 z"
         id="circle35"
         inkscape:connector-curvature="0"
         style="fill:#f4f4f4" /><path
         d="m 273.394,118.792 c -2.667,0 -4.844,2.2 -4.844,4.868 0,2.667 2.177,4.844 4.844,4.844 2.667,0 4.843,-2.176 4.843,-4.844 0,-2.668 -2.175,-4.868 -4.843,-4.868 z m 0,1.549 c 1.83,0 3.293,1.488 3.293,3.318 0,1.83 -1.464,3.294 -3.293,3.294 -1.83,0 -3.293,-1.464 -3.293,-3.294 0,-1.829 1.463,-3.318 3.293,-3.318 z"
         id="circle37"
         inkscape:connector-curvature="0"
         style="fill:#f4f4f4" /><path
         d="m 292.265,118.792 c -2.667,0 -4.843,2.2 -4.843,4.868 0,2.667 2.176,4.844 4.843,4.844 2.667,0 4.868,-2.176 4.868,-4.844 0,-2.668 -2.201,-4.868 -4.868,-4.868 z m 0,1.549 c 1.83,0 3.318,1.488 3.318,3.318 0,1.83 -1.488,3.294 -3.318,3.294 -1.83,0 -3.293,-1.464 -3.293,-3.294 -10e-4,-1.829 1.463,-3.318 3.293,-3.318 z"
         id="circle39"
         inkscape:connector-curvature="0"
         style="fill:#f4f4f4" /><path
         d="m 311.151,118.792 c -2.668,0 -4.844,2.2 -4.844,4.868 0,2.667 2.176,4.844 4.844,4.844 2.668,0 4.843,-2.176 4.843,-4.844 0,-2.668 -2.175,-4.868 -4.843,-4.868 z m 0,1.549 c 1.829,0 3.293,1.488 3.293,3.318 0,1.83 -1.464,3.294 -3.293,3.294 -1.828,0 -3.294,-1.464 -3.294,-3.294 0,-1.829 1.466,-3.318 3.294,-3.318 z"
         id="circle41"
         inkscape:connector-curvature="0"
         style="fill:#f4f4f4" /><path
         d="m 330.023,118.792 c -2.669,0 -4.844,2.2 -4.844,4.868 0,2.667 2.175,4.844 4.844,4.844 2.667,0 4.868,-2.176 4.868,-4.844 10e-4,-2.668 -2.201,-4.868 -4.868,-4.868 z m 0,1.549 c 1.83,0 3.318,1.488 3.318,3.318 0,1.83 -1.488,3.294 -3.318,3.294 -1.831,0 -3.294,-1.464 -3.294,-3.294 0,-1.829 1.463,-3.318 3.294,-3.318 z"
         id="circle43"
         inkscape:connector-curvature="0"
         style="fill:#f4f4f4" /><path
         d="m 254.507,140.007 c -2.667,0 -4.843,2.176 -4.843,4.844 0,2.667 2.176,4.843 4.843,4.843 2.668,0 4.868,-2.176 4.868,-4.843 0,-2.668 -2.2,-4.844 -4.868,-4.844 z m 0,1.55 c 1.831,0 3.318,1.464 3.318,3.294 0,1.83 -1.488,3.293 -3.318,3.293 -1.829,0 -3.293,-1.464 -3.293,-3.293 -0.001,-1.83 1.464,-3.294 3.293,-3.294 z"
         id="circle45"
         inkscape:connector-curvature="0"
         style="fill:#f4f4f4" /><path
         d="m 273.394,140.007 c -2.667,0 -4.844,2.176 -4.844,4.844 0,2.667 2.177,4.843 4.844,4.843 2.667,0 4.843,-2.176 4.843,-4.843 0,-2.668 -2.175,-4.844 -4.843,-4.844 z m 0,1.55 c 1.83,0 3.293,1.464 3.293,3.294 0,1.83 -1.464,3.293 -3.293,3.293 -1.83,0 -3.293,-1.464 -3.293,-3.293 0,-1.83 1.463,-3.294 3.293,-3.294 z"
         id="circle47"
         inkscape:connector-curvature="0"
         style="fill:#f4f4f4" /><path
         d="m 292.265,140.007 c -2.667,0 -4.843,2.176 -4.843,4.844 0,2.667 2.176,4.843 4.843,4.843 2.667,0 4.868,-2.176 4.868,-4.843 0,-2.668 -2.201,-4.844 -4.868,-4.844 z m 0,1.55 c 1.83,0 3.318,1.464 3.318,3.294 0,1.83 -1.488,3.293 -3.318,3.293 -1.83,0 -3.293,-1.464 -3.293,-3.293 -10e-4,-1.83 1.463,-3.294 3.293,-3.294 z"
         id="circle49"
         inkscape:connector-curvature="0"
         style="fill:#f4f4f4" /><path
         d="m 311.151,140.007 c -2.668,0 -4.844,2.176 -4.844,4.844 0,2.667 2.176,4.843 4.844,4.843 2.668,0 4.843,-2.176 4.843,-4.843 0,-2.668 -2.175,-4.844 -4.843,-4.844 z m 0,1.55 c 1.829,0 3.293,1.464 3.293,3.294 0,1.83 -1.464,3.293 -3.293,3.293 -1.828,0 -3.294,-1.464 -3.294,-3.293 0,-1.83 1.466,-3.294 3.294,-3.294 z"
         id="circle51"
         inkscape:connector-curvature="0"
         style="fill:#f4f4f4" /><path
         d="m 330.023,140.007 c -2.669,0 -4.844,2.176 -4.844,4.844 0,2.667 2.175,4.843 4.844,4.843 2.667,0 4.868,-2.176 4.868,-4.843 10e-4,-2.668 -2.201,-4.844 -4.868,-4.844 z m 0,1.55 c 1.83,0 3.318,1.464 3.318,3.294 0,1.83 -1.488,3.293 -3.318,3.293 -1.831,0 -3.294,-1.464 -3.294,-3.293 0,-1.83 1.463,-3.294 3.294,-3.294 z"
         id="circle53"
         inkscape:connector-curvature="0"
         style="fill:#f4f4f4" /><path
         d="m 125.881,99.828 c -1.645,0 -3.003,1.358 -3.003,3.003 l 0,6.466 c 0,1.646 1.358,3.003 3.003,3.003 l 62.75,0 c 1.646,0 2.979,-1.357 2.979,-3.003 l 0,-6.466 c 0,-1.646 -1.333,-3.003 -2.979,-3.003 l -62.75,0 z m 0,1.55 62.75,0 c 0.809,0 1.429,0.645 1.429,1.453 l 0,6.466 c 0,0.808 -0.621,1.453 -1.429,1.453 l -62.75,0 c -0.808,0 -1.453,-0.646 -1.453,-1.453 l 0,-6.466 c 0.001,-0.808 0.646,-1.453 1.453,-1.453 z"
         id="path55-5"
         inkscape:connector-curvature="0"
         style="fill:#f4f4f4" /><path
         d="m 135.135,99.828 c -1.645,0 -3.003,1.358 -3.003,3.003 l 0,6.103 c 0,1.646 1.358,3.003 3.003,3.003 l 24.243,0 c 1.646,0 3.003,-1.357 3.003,-3.003 l 0,-6.103 c 0,-1.646 -1.358,-3.003 -3.003,-3.003 l -24.243,0 z m 0,1.55 24.243,0 c 0.808,0 1.454,0.645 1.454,1.453 l 0,6.103 c 0,0.808 -0.646,1.453 -1.454,1.453 l -24.243,0 c -0.808,0 -1.453,-0.645 -1.453,-1.453 l 0,-6.103 c 0,-0.808 0.645,-1.453 1.453,-1.453 z"
         id="path57"
         inkscape:connector-curvature="0"
         style="fill:#f4f4f4" /><path
         d="m 394.394,187.138 c -15.292,0 -27.706,12.414 -27.706,27.706 0,15.292 12.414,27.706 27.706,27.706 15.292,0 27.705,-12.414 27.705,-27.706 0,-15.292 -12.413,-27.706 -27.705,-27.706 z m 0,1.55 c 14.455,0 26.155,11.702 26.155,26.156 0,14.454 -11.7,26.156 -26.155,26.156 -14.454,0 -26.156,-11.702 -26.156,-26.156 0,-14.454 11.701,-26.156 26.156,-26.156 z"
         id="circle59"
         inkscape:connector-curvature="0"
         style="fill:#f4f4f4" /><path
         d="m 394.394,192.245 c -12.48,0 -22.621,10.114 -22.621,22.596 0,12.48 10.141,22.621 22.621,22.621 12.481,0 22.621,-10.141 22.621,-22.621 0,-12.482 -10.14,-22.596 -22.621,-22.596 z m 0,1.55 c 11.645,0 21.071,9.403 21.071,21.046 0,11.644 -9.427,21.071 -21.071,21.071 -11.644,0 -21.07,-9.428 -21.07,-21.071 0,-11.643 9.426,-21.046 21.07,-21.046 z"
         id="circle61"
         inkscape:connector-curvature="0"
         style="fill:#f4f4f4" /><path
         d="m 458.261,187.138 c -15.291,0 -27.706,12.414 -27.706,27.706 0,15.292 12.415,27.706 27.706,27.706 15.292,0 27.706,-12.414 27.706,-27.706 0,-15.292 -12.414,-27.706 -27.706,-27.706 z m 0,1.55 c 14.455,0 26.156,11.702 26.156,26.156 0,14.454 -11.701,26.156 -26.156,26.156 -14.454,0 -26.156,-11.702 -26.156,-26.156 0,-14.454 11.702,-26.156 26.156,-26.156 z"
         id="circle63"
         inkscape:connector-curvature="0"
         style="fill:#f4f4f4" /><path
         d="m 458.261,192.245 c -12.48,0 -22.62,10.114 -22.62,22.596 0,12.48 10.14,22.621 22.62,22.621 12.481,0 22.596,-10.141 22.596,-22.621 -0.001,-12.482 -10.115,-22.596 -22.596,-22.596 z m 0,1.55 c 11.645,0 21.046,9.403 21.046,21.046 0,11.644 -9.403,21.071 -21.046,21.071 -11.643,0 -21.07,-9.428 -21.07,-21.071 0,-11.643 9.427,-21.046 21.07,-21.046 z"
         id="circle65"
         inkscape:connector-curvature="0"
         style="fill:#f4f4f4" /><path
         d="m 117.647,141.727 c -3.69,0 -6.709,2.995 -6.709,6.685 l 0,19.205 c 0,1.251 -0.127,1.826 -0.194,1.914 -0.033,0.043 -0.041,0.074 -0.242,0.121 -0.201,0.047 -0.569,0.073 -1.065,0.073 l -19.811,0 c -3.69,0 -6.684,3.019 -6.684,6.709 l 0,30.854 c 0,3.689 2.994,6.684 6.684,6.684 l 19.617,0 c 0.632,0 1.097,0.015 1.38,0.049 0.283,0.034 0.352,0.105 0.314,0.071 -0.036,-0.031 -0.02,-0.098 0,0.073 0.021,0.173 0,0.502 0,0.945 l 0,20.173 c 0,3.69 3.019,6.709 6.709,6.709 l 30.854,0 c 3.69,0 6.684,-3.019 6.684,-6.709 l 0,-20.101 c 0,-0.35 0.02,-0.638 0.048,-0.8 0.029,-0.161 0.051,-0.171 0.073,-0.193 0.044,-0.045 0.418,-0.236 1.501,-0.218 l 0.024,0 19.666,0 c 3.69,0 6.708,-2.994 6.708,-6.685 l 0,-30.854 c 0,-3.689 -3.018,-6.708 -6.708,-6.708 l -19.736,0 c -0.475,0 -0.813,-0.02 -1.018,-0.073 -0.205,-0.053 -0.265,-0.107 -0.314,-0.169 -0.1,-0.124 -0.243,-0.668 -0.243,-1.816 l 0,-19.256 c 0,-3.689 -2.994,-6.685 -6.684,-6.685 l -30.854,0.002 0,0 z m 0,1.549 30.854,0 c 2.852,0 5.134,2.283 5.134,5.135 l 0,19.254 c 0,1.219 0.014,2.082 0.581,2.785 0.284,0.352 0.714,0.593 1.139,0.702 0.424,0.11 0.87,0.122 1.405,0.122 l 19.738,0 c 2.852,0 5.159,2.306 5.159,5.159 l 0,30.854 c 0,2.852 -2.307,5.134 -5.159,5.134 l -19.666,0 c -1.215,-0.021 -2.056,0.084 -2.64,0.679 -0.292,0.296 -0.422,0.667 -0.485,1.017 -0.063,0.348 -0.072,0.696 -0.072,1.065 l 0,20.102 c 0,2.853 -2.282,5.159 -5.134,5.159 l -30.854,0 c -2.853,0 -5.159,-2.307 -5.159,-5.159 l 0,-20.174 c 0,-0.431 0.018,-0.763 -0.024,-1.114 -0.042,-0.351 -0.175,-0.773 -0.509,-1.065 -0.334,-0.292 -0.718,-0.384 -1.138,-0.436 -0.419,-0.051 -0.926,-0.073 -1.574,-0.073 l -19.616,0 c -2.853,0 -5.134,-2.281 -5.134,-5.134 l 0,-30.854 c 0,-2.853 2.281,-5.159 5.134,-5.159 l 19.81,0 c 0.541,0 0.983,0.003 1.405,-0.097 0.421,-0.098 0.86,-0.338 1.138,-0.702 0.556,-0.726 0.509,-1.564 0.509,-2.858 l 0,-19.205 c 0,-2.852 2.306,-5.134 5.159,-5.134 l -10e-4,-0.003 z"
         id="path67"
         inkscape:connector-curvature="0"
         style="fill:#f4f4f4" /><path
         d="m 117.502,146.353 c -1.01,0 -1.841,0.831 -1.841,1.841 l 0,25.938 c 0,0.171 -0.034,0.217 -0.097,0.217 l -26.06,0 c -1.009,0 -1.84,0.855 -1.84,1.865 l 0,31.098 c 0,1.009 0.831,1.84 1.84,1.84 l 26.01,0 0.025,0 c 0.094,0.008 0.157,0.034 0.145,0.024 -0.014,-0.012 -0.024,-0.053 -0.024,0.024 l 0,26.495 c 0,1.01 0.831,1.84 1.841,1.84 l 31.121,0 c 1.009,0 1.84,-0.83 1.84,-1.84 l 0,-26.495 c 0,-0.03 -0.078,-0.049 0.146,-0.049 l 26.035,0 c 1.01,0 1.841,-0.831 1.841,-1.84 l 0,-31.098 c 0,-1.009 -0.831,-1.865 -1.841,-1.865 l -26.059,0 c -0.054,0 -0.121,-0.042 -0.121,-0.193 l 0,-25.962 c 0,-1.01 -0.831,-1.841 -1.84,-1.841 l -31.121,0 0,0.001 z m 0,1.55 31.121,0 c 0.171,0 0.291,0.119 0.291,0.291 l 0,25.962 c 0,0.897 0.699,1.744 1.671,1.744 l 26.059,0 c 0.173,0 0.291,0.142 0.291,0.314 l 0,31.098 c 0,0.171 -0.118,0.29 -0.291,0.29 l -26.035,0 c -0.937,0 -1.695,0.78 -1.695,1.599 l 0,26.495 c 0,0.173 -0.12,0.29 -0.291,0.29 l -31.121,0 c -0.171,0 -0.291,-0.117 -0.291,-0.29 l 0,-26.496 c 0,-0.437 -0.177,-0.896 -0.509,-1.187 -0.331,-0.292 -0.744,-0.412 -1.162,-0.412 l -26.035,0 c -0.173,0 -0.291,-0.119 -0.291,-0.29 l 0,-31.098 c 0,-0.173 0.118,-0.314 0.291,-0.314 l 26.06,0 c 0.985,0 1.647,-0.893 1.647,-1.768 l 0,-25.938 c -0.001,-0.171 0.119,-0.291 0.29,-0.29 l 0,0 z"
         id="path69"
         inkscape:connector-curvature="0"
         style="fill:#f4f4f4" /><path
         d="m 133.075,179.821 c -6.629,0 -12.037,5.408 -12.037,12.037 0,6.629 5.408,12.012 12.037,12.012 6.628,0 12.012,-5.383 12.012,-12.012 0,-6.629 -5.384,-12.037 -12.012,-12.037 z m 0,1.55 c 5.791,0 10.462,4.695 10.462,10.487 0,5.791 -4.671,10.462 -10.462,10.462 -5.792,0 -10.487,-4.671 -10.487,-10.462 0,-5.792 4.695,-10.487 10.487,-10.487 z"
         id="circle71"
         inkscape:connector-curvature="0"
         style="fill:#f4f4f4" /><path
         d="M 114.776,189.749"
         id="path73"
         inkscape:connector-curvature="0"
         style="fill:none;stroke:#f4f4f4;stroke-width:1.54999995" /><path
         d="m 104.594,180.644 -1.308,1.332 -9.324,9.324 -0.557,0.557 0.557,0.533 9.324,9.348 1.308,1.308 0,-1.864 0,-1.89 8.234,0 0.775,0 0,-0.774 0,-13.321 0,-0.775 -0.775,0 -8.234,0 0,-1.889 0,-1.89 0,0.001 z m -1.551,3.753 0,0.799 0,0.775 0.775,0 8.234,0 0,11.77 -8.234,0 -0.775,0 0,0.775 0,0.775 -7.435,-7.436 7.435,-7.458 0,0 z"
         id="polygon75"
         inkscape:connector-curvature="0"
         style="fill:#f4f4f4" /><path
         d="m 125.64,211.311 0,0.774 0,8.234 -1.889,0 -1.889,0 1.332,1.332 9.324,9.324 0.557,0.557 0.532,-0.557 9.349,-9.324 1.307,-1.332 -1.864,0 -1.889,0 0,-8.234 0,-0.774 -0.775,0 -13.321,0 -0.774,0 0,0 z m 1.55,1.549 11.77,0 0,8.234 0,0.774 0.775,0 0.775,0 -7.46,7.459 -7.435,-7.459 0.799,0 0.775,0 0,-0.774 0.001,-8.234 0,0 z"
         id="polygon77"
         inkscape:connector-curvature="0"
         style="fill:#f4f4f4" /><path
         d="m 161.531,180.644 0,1.889 0,1.889 -8.234,0 -0.775,0 0,0.775 0,13.32 0,0.775 0.775,0 8.234,0 0,1.889 0,1.865 1.332,-1.309 9.324,-9.354 0.557,-0.535 -0.557,-0.559 -9.324,-9.322 -1.333,-1.334 0.001,0.011 z m 1.551,3.753 7.459,7.459 -7.459,7.436 0,-0.775 0,-0.775 -0.775,0 -8.235,0 0,-11.77 8.235,0 0.775,0 0,-0.775 0,-0.8 0,0 z"
         id="polygon79"
         inkscape:connector-curvature="0"
         style="fill:#f4f4f4" /><path
         d="m 133.075,152.193 -0.557,0.557 -9.324,9.324 -1.332,1.308 1.889,0 1.889,0 0,8.234 0,0.775 0.775,0 13.321,0 0.775,0 0,-0.775 0,-8.234 1.889,0 1.864,0 -1.308,-1.308 -9.348,-9.324 -0.533,-0.557 0,0 z m -0.025,2.18 7.46,7.459 -0.775,0 -0.775,0 0,0.775 0,8.234 -11.771,0 0,-8.234 0,-0.775 -0.775,0 -0.798,0 7.434,-7.459 0,0 z"
         id="polygon81"
         inkscape:connector-curvature="0"
         style="fill:#f4f4f4" /><path
         d="m 72.165,72.849 c -9.068,0 -16.42,7.566 -16.42,16.856 l 0,167.159 c 0,9.291 7.352,16.855 16.42,16.855 l 445.109,0 c 9.068,0 16.396,-7.564 16.396,-16.855 l 0,-167.159 c 0,-9.29 -7.332,-16.856 -16.398,-16.856 l -445.11,0 0.003,0 z m 0,1.55 445.109,0 c 8.207,0 14.847,6.831 14.847,15.306 l 0,167.159 c 0,8.476 -6.64,15.306 -14.847,15.306 l -445.109,0 c -8.208,0 -14.872,-6.828 -14.872,-15.306 l 0,-167.159 c 0,-8.476 6.664,-15.306 14.872,-15.306 l 0,0 z"
         id="path83"
         inkscape:connector-curvature="0"
         style="fill:#f4f4f4" /><path
         d="m 294.923,169.677 c -5.3,0 -9.614,4.315 -9.614,9.615 l 0,0.774 0.775,0 17.679,0 0.775,0 0,-0.774 c 0,-5.3 -4.315,-9.615 -9.615,-9.615 z m 0,1.55 c 4.188,0 7.516,3.211 7.92,7.29 l -15.839,0 c 0.405,-4.079 3.73,-7.29 7.919,-7.29 z"
         id="path85"
         inkscape:connector-curvature="0"
         style="fill:#f4f4f4" /><path
         d="m 294.923,166.941 c -6.807,0 -12.327,5.544 -12.327,12.352 l 1.55,0 c 0,-5.97 4.809,-10.802 10.777,-10.802 5.971,0 10.802,4.833 10.802,10.802 l 1.55,0 c -10e-4,-6.808 -5.544,-12.352 -12.352,-12.352 z"
         id="path87"
         inkscape:connector-curvature="0"
         style="fill:#f4f4f4" /></g></g></svg>