<?xml version="1.0" encoding="UTF-8" standalone="no"?>
<!-- Generator: Adobe Illustrator 13.0.0, SVG Export Plug-In . SVG Version: 6.00 Build 14948)  -->

<svg
   xmlns:dc="http://purl.org/dc/elements/1.1/"
   xmlns:cc="http://creativecommons.org/ns#"
   xmlns:rdf="http://www.w3.org/1999/02/22-rdf-syntax-ns#"
   xmlns:svg="http://www.w3.org/2000/svg"
   xmlns="http://www.w3.org/2000/svg"
   xmlns:sodipodi="http://sodipodi.sourceforge.net/DTD/sodipodi-0.dtd"
   xmlns:inkscape="http://www.inkscape.org/namespaces/inkscape"
   version="1.1"
   id="Layer_2"
   x="0px"
   y="0px"
   width="550"
   height="550"
   viewBox="0 0 549.99995 549.99999"
   enable-background="new 0 0 598.189 350.26"
   xml:space="preserve"
   inkscape:version="0.91 r13725"
   sodipodi:docname="controller_gg.svg"><metadata
     id="metadata3083"><rdf:RDF><cc:Work
         rdf:about=""><dc:format>image/svg+xml</dc:format><dc:type
           rdf:resource="http://purl.org/dc/dcmitype/StillImage" /><dc:title></dc:title></cc:Work></rdf:RDF></metadata><defs
     id="defs3081" /><sodipodi:namedview
     pagecolor="#ffffff"
     bordercolor="#666666"
     borderopacity="1"
     objecttolerance="10"
     gridtolerance="10"
     guidetolerance="10"
     inkscape:pageopacity="0"
     inkscape:pageshadow="2"
     inkscape:window-width="1920"
     inkscape:window-height="1001"
     id="namedview3079"
     showgrid="false"
     inkscape:zoom="0.76362314"
     inkscape:cx="446.61011"
     inkscape:cy="491.14099"
     inkscape:window-x="-9"
     inkscape:window-y="759"
     inkscape:window-maximized="1"
     inkscape:current-layer="layer4"
     showguides="true"
     inkscape:guide-bbox="true" /><g
     inkscape:groupmode="layer"
     id="layer2"
     inkscape:label="Screen_Rect"
     style="display:none"
     transform="translate(0,199.73999)"
     sodipodi:insensitive="true"><path
       style="fill:#0000ff;stroke:#000000;stroke-width:1px;stroke-linecap:butt;stroke-linejoin:miter;stroke-opacity:1"
       d="M 5.0135033,547.22203 136.4109,114.39023 653.54628,-189.09358 406.482,260.92121 Z"
       id="path3021"
       inkscape:connector-curvature="0"
       transform="translate(-2e-5,-199.73999)"
       sodipodi:nodetypes="ccccc" /><rect
       style="opacity:0.60100002;fill:#d8201f;fill-opacity:1;stroke:#ff8080;stroke-width:2.45114732;stroke-linecap:round;stroke-linejoin:round;stroke-miterlimit:4;stroke-dasharray:none;stroke-opacity:1"
       id="rect4230"
       width="444.2457"
       height="9.9567661"
       x="145.95099"
       y="-211.30678" /></g><g
     inkscape:groupmode="layer"
     id="layer1"
     inkscape:label="Controller_Vorlage"
     style="display:none"
     sodipodi:insensitive="true"><g
       id="g4929"
       transform="translate(-0.929149,0.5695451)"><g
         transform="translate(0,199.73999)"
         style="display:none"
         inkscape:label="Layer2"
         id="layer2-9"><path
           sodipodi:nodetypes="ccccc"
           transform="translate(-2e-5,-199.73999)"
           inkscape:connector-curvature="0"
           id="path3021-0"
           d="M 5.0135033,547.22203 136.4109,114.39023 653.54628,-189.09358 406.482,260.92121 Z"
           style="fill:#ffffff;stroke:#000000;stroke-width:1px;stroke-linecap:butt;stroke-linejoin:miter;stroke-opacity:1" /></g><g
         inkscape:label="Layer"
         id="layer1-2"><g
           transform="matrix(0.55322035,-0.3970343,-0.34863416,0.85569517,173.63773,166.52161)"
           id="g3100"><path
             style="fill:#f4f4f4"
             inkscape:connector-curvature="0"
             id="path3"
             d="m 148.05,114.447 c -23.656,0 -42.861,19.204 -42.861,42.861 l 0,37.414 c 0,23.658 19.205,42.86 42.861,42.86 l 38.694,0 c 23.656,0 42.861,-19.202 42.861,-42.86 l 0,-37.414 c 0,-23.657 -19.205,-42.861 -42.861,-42.861 l -38.694,0 z m 0,1.905 38.694,0 c 22.627,0 40.956,18.328 40.956,40.956 l 0,37.414 c 0,22.629 -18.329,40.956 -40.956,40.956 l -38.694,0 c -22.628,0 -40.956,-18.327 -40.956,-40.956 l 0,-37.414 c 0,-22.629 18.328,-40.956 40.956,-40.956 z" /><path
             style="fill:#f4f4f4"
             inkscape:connector-curvature="0"
             id="path5"
             d="m 167.395,123.168 c -3.23,0 -5.863,2.633 -5.863,5.864 l 0,13.037 c 0,3.23 2.632,5.863 5.863,5.863 3.23,0 5.863,-2.633 5.863,-5.863 l 0,-13.037 c 0,-3.23 -2.633,-5.864 -5.863,-5.864 z m 0,1.906 c 2.201,0 3.958,1.758 3.958,3.958 l 0,13.037 c 0,2.2 -1.758,3.958 -3.958,3.958 -2.202,0 -3.958,-1.758 -3.958,-3.958 l 0,-13.037 c -0.001,-2.2 1.757,-3.958 3.958,-3.958 z" /><path
             style="fill:#f4f4f4"
             inkscape:connector-curvature="0"
             id="path7"
             d="m 120.425,170.135 c -3.23,0 -5.864,2.633 -5.864,5.864 0,3.231 2.632,5.894 5.864,5.894 l 13.037,0 c 3.229,0 5.864,-2.662 5.864,-5.894 0,-3.229 -2.633,-5.864 -5.864,-5.864 l -13.037,0 z m 0,1.905 13.037,0 c 2.201,0 3.959,1.759 3.959,3.959 0,2.201 -1.759,3.988 -3.959,3.988 l -13.037,0 c -2.198,-0.01 -3.955,-1.791 -3.955,-3.99 0,-2.201 1.758,-3.959 3.958,-3.959 l -0.003,0.002 z" /><path
             style="fill:#f4f4f4"
             inkscape:connector-curvature="0"
             id="path9"
             d="m 167.395,204.071 c -3.23,0 -5.863,2.663 -5.863,5.894 l 0,13.038 c 0,3.229 2.632,5.863 5.863,5.863 3.23,0 5.863,-2.633 5.863,-5.863 l 0,-13.038 c 0,-3.23 -2.633,-5.894 -5.863,-5.894 z m 0,1.906 c 2.201,0 3.958,1.789 3.958,3.988 l 0,13.038 c 0,2.2 -1.757,3.958 -3.958,3.958 -2.202,0 -3.958,-1.759 -3.958,-3.958 l 0,-13.038 c -0.001,-2.2 1.757,-3.988 3.958,-3.988 z" /><path
             style="fill:#f4f4f4"
             inkscape:connector-curvature="0"
             id="path11"
             d="m 201.321,170.135 c -3.229,0 -5.863,2.633 -5.863,5.864 0,3.231 2.633,5.894 5.863,5.894 l 13.067,0 c 3.229,0 5.863,-2.662 5.863,-5.894 0,-3.229 -2.633,-5.864 -5.863,-5.864 l -13.067,0 z m 0,1.905 13.067,0 c 2.2,0 3.958,1.76 3.958,3.959 0,2.201 -1.758,3.988 -3.958,3.988 l -13.067,0 c -2.2,0 -3.958,-1.788 -3.958,-3.988 0,-2.2 1.759,-3.959 3.958,-3.959 z" /><path
             style="fill:#f4f4f4"
             inkscape:connector-curvature="0"
             id="polygon13"
             d="m 133.878,141.176 -1.31,1.31 8.155,12.025 0.655,0.952 0.804,-0.803 3.869,-3.87 0.804,-0.804 -0.953,-0.655 -12.024,-8.155 z" /><path
             style="fill:#f4f4f4"
             inkscape:connector-curvature="0"
             id="polygon15"
             d="m 141.383,196.566 -0.654,0.952 -8.156,12.024 1.31,1.31 12.025,-8.155 0.953,-0.654 -0.804,-0.804 -3.87,-3.869 -0.804,-0.804 z" /><path
             style="fill:#f4f4f4"
             inkscape:connector-curvature="0"
             id="polygon17"
             d="m 193.435,196.566 -0.804,0.804 -3.869,3.869 -0.833,0.804 0.953,0.654 12.025,8.155 1.339,-1.31 -8.156,-12.024 -0.655,-0.952 0,0 z" /><path
             style="fill:#f4f4f4"
             inkscape:connector-curvature="0"
             id="polygon19"
             d="m 200.912,141.176 -12.025,8.155 -0.953,0.655 0.833,0.804 3.87,3.87 0.804,0.803 0.655,-0.952 8.155,-12.025 -1.339,-1.31 z" /><path
             style="fill:#f4f4f4"
             inkscape:connector-curvature="0"
             id="path21"
             d="m 146.354,104.833 c -27.67,0 -50.123,22.453 -50.123,50.124 l 0,42.117 c 0,27.671 22.453,50.123 50.123,50.123 l 42.117,0 c 27.671,0 50.124,-22.452 50.124,-50.123 l 0,-42.117 c 0,-27.67 -22.452,-50.124 -50.124,-50.124 l -42.117,0 z m 0,1.906 42.117,0 c 26.644,0 48.219,21.577 48.219,48.218 l 0,42.117 c 0,26.644 -21.577,48.218 -48.219,48.218 l -42.117,0 c -26.642,0 -48.218,-21.574 -48.218,-48.218 l 0,-42.117 c 0,-26.642 21.577,-48.218 48.218,-48.218 z" /><path
             style="fill:#f4f4f4"
             inkscape:connector-curvature="0"
             id="polygon23"
             d="m 69.499,75.694 0,0.952 0,202.961 0,0.952 0.953,0 196.122,0 0.952,0 0,-0.952 0,-26.401 289.521,0 0.952,0 0,-0.952 0,-113.458 0,-0.953 -0.952,0 -289.522,0 0,-61.196 0,-0.952 -0.952,0 -196.122,0 -0.952,-10e-4 0,0 z m 1.904,1.905 194.217,0 0,61.196 0,0.953 0.953,0 0.714,0 288.807,0 0,111.552 -289.226,0 -0.297,0 -0.953,0 0,0.953 0,26.4 -194.217,0 0,-201.055 0.002,0.001 z" /><path
             style="fill:#f4f4f4"
             inkscape:connector-curvature="0"
             id="circle25"
             d="m 400.692,169.126 c -19.762,0 -35.777,16.046 -35.777,35.807 0,19.761 16.018,35.807 35.777,35.807 19.759,0 35.807,-16.046 35.807,-35.807 0,-19.761 -16.047,-35.807 -35.807,-35.807 l 0,0 z m 0,1.905 c 18.73,0 33.901,15.17 33.901,33.902 0,18.732 -15.171,33.902 -33.901,33.902 -18.731,0 -33.872,-15.171 -33.872,-33.902 0,-18.731 15.141,-33.902 33.872,-33.902 l 0,0 z" /><path
             style="fill:#f4f4f4"
             inkscape:connector-curvature="0"
             id="circle27"
             d="m 400.692,177.669 c -15.039,0 -27.234,12.227 -27.234,27.265 0,15.038 12.195,27.234 27.234,27.234 15.036,0 27.264,-12.196 27.264,-27.234 0,-15.038 -12.227,-27.265 -27.264,-27.265 z m 0,1.905 c 14.008,0 25.359,11.351 25.359,25.359 0,14.008 -11.352,25.33 -25.359,25.33 -14.01,0 -25.33,-11.321 -25.33,-25.33 0,-14.009 11.321,-25.359 25.33,-25.359 z" /><path
             style="fill:#f4f4f4"
             inkscape:connector-curvature="0"
             id="circle29"
             d="m 489.919,169.126 c -19.762,0 -35.807,16.046 -35.807,35.807 0,19.761 16.045,35.807 35.807,35.807 19.76,0 35.807,-16.046 35.807,-35.807 0,-19.761 -16.047,-35.807 -35.807,-35.807 l 0,0 z m 0,1.905 c 18.73,0 33.901,15.17 33.901,33.902 0,18.732 -15.171,33.902 -33.901,33.902 -18.731,0 -33.902,-15.171 -33.902,-33.902 0,-18.731 15.171,-33.902 33.902,-33.902 l 0,0 z" /><path
             style="fill:#f4f4f4"
             inkscape:connector-curvature="0"
             id="circle31"
             d="m 489.919,177.669 c -15.039,0 -27.234,12.227 -27.234,27.265 0,15.038 12.195,27.234 27.234,27.234 15.036,0 27.234,-12.196 27.234,-27.234 0,-15.038 -12.196,-27.265 -27.234,-27.265 z m 0,1.905 c 14.008,0 25.329,11.351 25.329,25.359 0,14.008 -11.321,25.33 -25.329,25.33 -14.01,0 -25.33,-11.321 -25.33,-25.33 0,-14.009 11.32,-25.359 25.33,-25.359 z" /><path
             style="fill:#f4f4f4"
             inkscape:connector-curvature="0"
             id="path33"
             d="m 39.406,68.432 c -4.766,0 -8.662,3.896 -8.662,8.662 l 0,203.084 c 0,4.766 3.897,8.661 8.662,8.661 l 518.646,0 c 4.429,0 7.956,-3.411 8.453,-7.709 l 0.179,0 0,-0.952 0,-203.085 c 0,-4.762 -3.868,-8.658 -8.64,-8.658 l -518.645,0 0.007,-0.003 z m 0,1.904 518.646,0 c 3.737,0 6.727,3.021 6.727,6.757 l 0,202.131 0,0.953 c 0,3.736 -2.989,6.756 -6.727,6.756 l -518.646,0 c -3.732,0.01 -6.753,-3.019 -6.753,-6.753 l 0,-203.083 c 0,-3.736 3.02,-6.756 6.756,-6.756 l -0.003,-0.005 z" /><path
             style="fill:#f4f4f4"
             inkscape:connector-curvature="0"
             id="rect35"
             d="m 359.021,163.559 0,0.953 0,81.465 0,0.952 0.953,0 81.465,0 0.953,0 0,-0.952 0,-81.465 0,-0.953 -0.953,0 -81.465,0 -0.953,0 z m 1.906,1.905 79.561,0 0,79.56 -79.561,0 0,-79.56 z" /><path
             style="fill:#f4f4f4"
             inkscape:connector-curvature="0"
             id="rect37"
             d="m 448.248,163.559 0,0.953 0,81.465 0,0.952 0.953,0 81.436,0 0.952,0 0,-0.952 0,-81.465 0,-0.953 -0.952,0 -81.436,0 -0.953,0 z m 1.905,1.905 79.531,0 0,79.56 -79.531,0 0,-79.56 z" /><path
             style="fill:#f4f4f4"
             inkscape:connector-curvature="0"
             id="polyline39"
             d="m 83.934,94.177 0,2.292 0,159.061 0,2.322 1.607,-1.638 25.33,-25.299 -1.369,-1.369 -23.663,23.692 0,-154.45 23.663,23.658 1.369,-1.34 -25.33,-25.299 -1.607,-1.637 0,0.007 z" /><path
             style="fill:#f4f4f4"
             inkscape:connector-curvature="0"
             id="polyline41"
             d="m 222.305,232.551 -1.37,1.339 23.693,23.692 -154.452,0 23.574,-23.573 -1.369,-1.339 -25.181,25.182 -1.637,1.637 2.292,0 159.062,0 2.292,0 -1.607,-1.637 -25.299,-25.3 0.002,-0.001 z" /><path
             style="fill:#f4f4f4"
             inkscape:connector-curvature="0"
             id="polyline43"
             d="m 250.878,94.177 -1.637,1.637 -25.211,25.182 1.369,1.369 23.574,-23.603 0,154.509 -23.633,-23.663 -1.339,1.34 25.24,25.27 1.637,1.638 0,-2.322 0,-159.063 0,-2.292 0,-0.002 z" /><path
             style="fill:#f4f4f4"
             inkscape:connector-curvature="0"
             id="polyline45"
             d="m 85.57,92.54 1.638,1.608 25.21,25.24 1.339,-1.34 -23.572,-23.602 154.452,0 -23.669,23.662 1.333,1.339 25.307,-25.3 1.607,-1.607 -2.292,0 -159.062,0 -2.291,0 0,0 z" /><path
             style="fill:#f4f4f4"
             inkscape:connector-curvature="0"
             id="line47"
             d="m 58.961,69.533 0,218.057 1.905,0 0,-218.057 -1.905,0 z" /><path
             style="fill:#f4f4f4"
             inkscape:connector-curvature="0"
             id="rect49"
             d="m 359.021,145.819 0,0.953 0,13.244 0,0.953 0.953,0 81.465,0 0.953,0 0,-0.953 0,-13.244 0,-0.953 -0.953,0 -81.465,0 -0.953,0 z m 1.906,1.905 79.561,0 0,11.339 -79.561,0 0,-11.339 z" /><path
             style="fill:#f4f4f4"
             inkscape:connector-curvature="0"
             id="rect51"
             d="m 448.248,145.819 0,0.953 0,13.244 0,0.953 0.953,0 81.436,0 0.952,0 0,-0.953 0,-13.244 0,-0.953 -0.952,0 -81.436,0 -0.953,0 z m 1.905,1.905 79.531,0 0,11.339 -79.531,0 0,-11.339 z" /><path
             style="fill:#f4f4f4"
             inkscape:connector-curvature="0"
             id="path53"
             d="m 276.804,73.134 c -0.987,0 -1.815,0.828 -1.815,1.816 l 0,53.01 c 0,0.988 0.829,1.815 1.815,1.815 l 282.855,0 c 0.985,0 1.785,-0.831 1.785,-1.815 l 0,-50.033 c 0,-2.641 -2.152,-4.792 -4.792,-4.792 l -279.844,0 -0.004,0 z m 0.09,1.906 279.756,0 c 1.613,0 2.888,1.275 2.888,2.887 l 0,49.945 -282.643,0 0,-52.832 -10e-4,0 z" /><path
             style="fill:#f4f4f4"
             inkscape:connector-curvature="0"
             id="path55"
             d="m 276.804,260.41 c -0.987,0 -1.815,0.829 -1.815,1.815 l 0,20.091 c 0,0.987 0.829,1.816 1.815,1.816 l 279.844,0 c 2.64,0 4.792,-2.183 4.792,-4.822 l 0,-17.085 c 0,-0.985 -0.8,-1.815 -1.785,-1.815 l -282.855,0 0.004,0 z m 0.09,1.905 282.645,0 0,16.995 c 0,1.611 -1.276,2.917 -2.888,2.917 l -279.758,0 0.001,-19.912 0,0 z" /><path
             style="fill:#f4f4f4"
             inkscape:connector-curvature="0"
             id="line57"
             d="m 274.461,129.271 -6.28,6.28 1.369,1.339 6.251,-6.25 -1.34,-1.369 z" /><path
             style="fill:#f4f4f4"
             inkscape:connector-curvature="0"
             id="line59"
             d="m 269.546,253.866 -1.369,1.34 6.281,6.28 1.339,-1.369 -6.251,-6.251 z" /></g></g></g></g><g
     inkscape:groupmode="layer"
     id="layer4"
     inkscape:label="Controller"><g
       id="g6714"
       transform="matrix(0.49769408,-0.32390412,-0.34303819,0.72094665,186.73639,175.7788)"><path
         id="path6630"
         d="M 32.841,289.71 C 28.742,273.626 16.255,238.747 16.261,178.962 l 0,0 0.002,-10.332 C 16.252,103.22 33.569,61.797 39.095,45.338 l 0,0 C 44.634,28.454 60.186,16.117 78.754,15.334 l 0,0 c 18.504,-0.295 98.828,-2.039 184.507,-2.039 l 0,0 79.334,0 c 11.516,0 22.771,-0.004 33.686,-0.002 l 0,0 c 74.392,0.002 132.889,0.145 151.438,2.58 l 0,0 c 16.291,2.678 29.537,14.357 34.472,29.765 l 0,0 c 0.702,2.2 1.237,4.479 1.587,6.807 l 0,0 c 0.744,4.688 2.092,18.341 3.701,36.737 l 0,0 c 4.657,53.359 11.444,146.229 11.448,172.113 l 0,0 c -0.002,15.287 -8.725,28.541 -21.403,35.014 l 0,0 c -12.142,7.273 -65.34,29.635 -128.932,29.654 l 0,0 c -42.695,-0.004 -86.715,-1.664 -115.826,-6.348 l 0,0 c -0.004,0 -0.009,0 -0.013,-0.002 l 0,0 c -0.643,-0.01 -1.306,-0.015 -1.983,-0.015 l 0,0 c -33.201,-0.005 -109.069,10.721 -133.124,12.028 l 0,0 c -24.687,1.334 -57.696,2.334 -85.386,2.336 l 0,0 c -28.057,0 -51.763,-18.635 -59.419,-44.252 l 0,0 z M 78.814,17.333 C 61.123,18.077 46.28,29.857 40.994,45.968 l 0,0 C 35.428,62.546 18.269,103.539 18.261,168.631 l 0,0 0,10.332 c 0.008,59.549 12.377,94.006 16.506,110.215 l 0,0 c 7.399,24.746 30.34,42.787 57.495,42.787 l 0,0 c 27.643,0 60.634,-1 85.278,-2.33 l 0,0 c 21.894,-1.184 87.544,-10.316 124.1,-11.823 l 0,0 c -23.591,-3.823 -58.608,-9.257 -82.385,-9.254 l 0,0 c -8.482,-0.007 -15.537,0.704 -19.98,2.348 l 0,0 -0.692,-1.88 c 4.889,-1.786 12.074,-2.462 20.673,-2.468 l 0,0 c 28.139,0.004 71.391,7.476 93.669,11.063 l 0,0 c 0.233,0.004 0.464,0.008 0.691,0.012 l 0,0 0.002,0 -0.002,0.099 c 28.896,4.584 72.604,6.235 114.979,6.233 l 0,0 c 63.076,0.021 116.206,-22.328 127.961,-29.399 l 0,0 c 12.097,-6.181 20.374,-18.755 20.372,-33.267 l 0,0 c 0.005,-25.68 -6.784,-118.641 -11.44,-171.94 l 0,0 c -1.603,-18.366 -2.96,-32.071 -3.686,-36.607 l 0,0 c -0.333,-2.23 -0.843,-4.4 -1.515,-6.5 l 0,0 C 555.583,31.555 542.933,20.401 527.431,17.857 l 0,0 c -18.171,-2.4 -76.806,-2.563 -151.147,-2.561 l 0,0 c -10.914,0 -22.168,0.004 -33.686,0.004 l 0,0 -79.334,0 c -85.659,-0.005 -165.96,1.738 -184.45,2.033 l 0,0 z"
         inkscape:connector-curvature="0"
         style="fill:#f4f4f4" /><path
         id="path6632"
         d="m 164.008,285.376 c -1.671,-4.94 -19.072,-63.811 -19.08,-129.412 l 0,0 C 144.915,87.828 162.919,42.739 164.618,36.667 l 0,0 c 1.381,-6.297 6.621,-11.137 13.178,-11.93 l 0,0 c 6.572,-0.397 32.784,-1.106 90.049,-1.106 l 0,0 c 120.614,0.009 194.821,14.465 197.77,15.274 l 0,0 0.04,0.011 0.035,0.013 c 2.936,1.07 5.252,3.404 6.301,6.349 l 0,0 c 0.621,1.383 2.167,6.683 4.307,14.833 l 0,0 c 2.161,8.263 4.856,19.303 7.493,31.443 l 0,0 c 5.269,24.284 10.3,52.919 10.304,72.577 l 0,0 c -0.008,26.371 -4.346,86.813 -6.383,96.746 l 0,0 c -0.135,0.596 -0.204,0.976 -0.393,1.367 l 0,0 c -0.889,4.113 -3.713,7.922 -7.919,9.002 l 0,0 0,0 0,0 0,0 c -1.366,0.409 -7.601,1.575 -17.063,3.201 l 0,0 c -9.6,1.643 -22.379,3.709 -36.089,5.736 l 0,0 c -27.429,4.051 -58.545,7.941 -75.527,7.945 l 0,0 c -2.853,0 -5.172,-2.271 -5.248,-5.104 l 0,0 -0.269,-0.991 c -1.482,-4.861 -6.007,-8.404 -11.359,-8.402 l 0,0 -22.249,0 c -4.231,0 -7.938,2.209 -10.046,5.541 l 0,0 c -0.428,0.881 -0.664,2.063 -1.527,3.154 l 0,0 -0.028,0.035 -0.029,0.031 c -1.041,1.07 -2.506,1.736 -4.119,1.736 l 0,0 c -1.453,0 -2.79,-0.543 -3.801,-1.437 l 0,0 -0.073,-0.063 -2.639,-3.354 -0.025,-0.042 c -2.098,-3.365 -5.828,-5.604 -10.085,-5.604 l 0,0 -72.624,0 c -6.56,0.013 -11.864,5.316 -11.877,11.875 l 0,0 0,2.418 c 0,3.521 -2.853,6.373 -6.375,6.373 l 0,0 -11.749,0.002 c -5.817,0 -10.764,-3.719 -12.591,-8.92 l 0,0 z M 177.977,26.728 c -5.643,0.679 -10.209,4.899 -11.42,10.422 l 0,0 c -1.787,6.373 -19.616,50.949 -19.629,118.814 l 0,0 c -0.008,65.229 17.371,124.056 18.973,128.759 l 0,0 c 1.55,4.411 5.752,7.577 10.695,7.575 l 0,0 11.749,0 c 2.416,-0.004 4.371,-1.957 4.375,-4.375 l 0,0 0,-2.418 c 0,-7.662 6.21,-13.875 13.876,-13.875 l 0,0 72.624,0 c 4.953,0 9.307,2.601 11.759,6.504 l 0,0 2.453,3.117 c 0.655,0.549 1.492,0.879 2.413,0.879 l 0,0 c 1.042,0 1.974,-0.42 2.657,-1.104 l 0,0 c 0.482,-0.591 0.735,-1.619 1.277,-2.787 l 0,0 0.024,-0.055 0.03,-0.044 c 2.449,-3.908 6.806,-6.511 11.763,-6.511 l 0,0 22.249,0 c 6.252,0 11.54,4.133 13.281,9.85 l 0,0 0.343,1.264 0,0.137 c 0.004,1.797 1.454,3.246 3.252,3.25 l 0,0 c 25.105,0.006 82.541,-8.732 111.278,-13.654 l 0,0 c 9.543,-1.63 16.081,-2.883 16.843,-3.148 l 0,0 0.044,-0.018 0.027,-0.005 c 3.282,-0.808 5.744,-4.009 6.472,-7.593 l 0,0 0.038,-0.187 0.103,-0.155 -0.003,0 c 0.013,-0.035 0.034,-0.1 0.061,-0.182 l 0,0 c 0.049,-0.166 0.107,-0.41 0.171,-0.717 l 0,0 c 0.126,-0.612 0.27,-1.473 0.42,-2.533 l 0,0 c 0.301,-2.126 0.641,-5.068 0.994,-8.613 l 0,0 c 0.715,-7.093 1.499,-16.598 2.229,-26.894 l 0,0 c 1.461,-20.591 2.698,-44.354 2.698,-58.302 l 0,0 C 492.106,135.098 480.828,85.31 474.365,60.614 l 0,0 c -2.136,-8.193 -3.816,-13.786 -4.203,-14.535 l 0,0 -0.024,-0.05 -0.02,-0.057 c -0.837,-2.382 -2.714,-4.282 -5.077,-5.154 l 0,0 C 461.821,39.975 387.648,25.62 267.848,25.628 l 0,0 c -57.239,0.001 -83.474,0.712 -89.871,1.1 l 0,0 z"
         inkscape:connector-curvature="0"
         style="fill:#f4f4f4" /><path
         id="path6634"
         d="m 185.261,246.298 c -2.525,-0.002 -4.742,-1.34 -5.969,-3.344 l 0,0 -0.029,-0.049 -0.023,-0.048 c -0.365,-0.799 -1.185,-3.481 -2.34,-8.013 l 0,0 c -1.141,-4.5 -2.555,-10.713 -3.932,-18.188 l 0,0 c -2.756,-14.951 -5.374,-34.947 -5.374,-56.363 l 0,0 0,-12.998 c 0.002,-32.125 5.885,-61.059 9.306,-74.553 l 0,0 c 1.156,-4.53 1.976,-7.212 2.34,-8.011 l 0,0 0.023,-0.051 0.029,-0.046 c 1.227,-2.003 3.443,-3.341 5.969,-3.341 l 0,0 270.333,0 c 2.523,0 4.74,1.338 5.97,3.341 l 0,0 0.026,0.048 0.023,0.048 c 0.364,0.799 1.187,3.481 2.34,8.011 l 0,0 c 1.142,4.501 2.555,10.713 3.935,18.189 l 0,0 c 2.756,14.949 5.371,34.949 5.371,56.363 l 0,0 0,13 0.002,0 c -0.002,32.121 -5.887,61.055 -9.308,74.549 l 0,0 c -1.153,4.531 -1.976,7.214 -2.34,8.013 l 0,0 -0.023,0.048 -0.026,0.049 c -1.229,2.004 -3.445,3.342 -5.97,3.344 l 0,0 -270.333,0 0,0.002 z m 0,-2.002 270.333,0 c 1.786,0 3.347,-0.933 4.234,-2.34 l 0,0 c 0.233,-0.535 1.11,-3.33 2.188,-7.603 l 0,0 c 1.132,-4.455 2.536,-10.629 3.905,-18.058 l 0,0 c 2.739,-14.859 5.34,-34.75 5.338,-56 l 0,0 0.002,0 -0.002,-13 c 0.002,-31.879 -5.852,-60.689 -9.243,-74.061 l 0,0 c -1.077,-4.271 -1.954,-7.067 -2.188,-7.602 l 0,0 c -0.89,-1.408 -2.448,-2.339 -4.234,-2.339 l 0,0 -270.333,0 c -1.786,0 -3.348,0.932 -4.236,2.339 l 0,0 c -0.233,0.535 -1.111,3.331 -2.188,7.602 l 0,0 c -1.13,4.455 -2.534,10.629 -3.903,18.058 l 0,0 c -2.741,14.861 -5.339,34.749 -5.339,56.002 l 0,0 0,13 c -0.002,31.877 5.851,60.688 9.243,74.058 l 0,0 c 1.077,4.271 1.955,7.065 2.188,7.603 l 0,0 c 0.888,1.409 2.45,2.341 4.235,2.341 l 0,0 z"
         inkscape:connector-curvature="0"
         style="fill:#f4f4f4" /><path
         id="path6636"
         d="m 186.594,236.96 c -1.104,0 -1.999,-0.894 -2.001,-1.996 l 0,0 0.002,-162.334 c 0,-1.105 0.894,-1.999 1.999,-2.001 l 0,0 269,0 c 1.105,0 1.999,0.896 2.001,2.001 l 0,0 0,162.334 -0.002,0 c 0,1.104 -0.894,1.996 -1.999,1.996 l 0,0 -269,0 0,0 z m 0,-1.996 269,0 0,-162.335 -269,0 0,162.335 0,0 z"
         inkscape:connector-curvature="0"
         style="fill:#f4f4f4" /><path
         id="path6638"
         d="M 75.675,296.001 C 59.878,294.72 46.761,283.973 42.01,269.445 l 0,0 C 36.985,254.767 29.599,218.06 29.593,161.964 l 0,0 c 0.015,-49.541 14.26,-98.24 19.365,-110.23 l 0,0 c 5.08,-12.43 16.423,-21.63 30.11,-23.675 l 0,0 C 92.721,25.97 155.033,16.631 252.593,16.631 l 0,0 c 123.073,0 216.363,14.994 233.998,17.501 l 0,0 -0.141,0.99 0.161,-0.986 c 18.424,2.997 32.479,18.979 32.479,38.247 l 0,0 c -0.005,19.166 1.859,41.099 3.03,46.796 l 0,0 c 1.146,5.479 4.094,10.3 8.226,13.835 l 0,0 c 8.683,8.016 18.976,17.685 24.489,23.573 l 0,0 c 5.653,5.906 9.365,13.601 10.478,22.117 l 0,0 c 1.405,10.774 2.65,37.231 2.779,46.678 l 0,0 c -0.002,16.943 -10.874,31.347 -26.044,36.617 l 0,0 c -14.984,4.957 -96.754,25.611 -182.875,32.629 l 0,0 c -9.318,0.762 -13.107,1.986 -15.484,3.049 l 0,0 c -2.336,1.047 -3.718,2.203 -7.528,2.451 l 0,0 c -3.141,0.213 -49.291,1 -148.067,1.002 l 0,0 c -43.305,-0.002 -97.01,-4.254 -112.419,-5.129 l 0,0 z M 79.368,30.035 C 66.391,31.972 55.625,40.703 50.804,52.505 l 0,0 C 45.828,64.132 31.581,112.838 31.596,161.963 l 0,0 c -0.006,55.902 7.39,92.502 12.313,106.849 l 0,0 c 4.507,13.784 16.952,23.985 31.905,25.194 l 0,0 c 15.433,0.877 69.087,5.123 112.282,5.123 l 0,0 c 98.722,0.002 145.002,-0.793 147.93,-0.996 l 0,0 c 3.438,-0.252 4.186,-1.082 6.85,-2.28 l 0,0 c 2.623,-1.181 6.711,-2.454 16.139,-3.22 l 0,0 c 85.879,-6.984 167.685,-27.651 182.396,-32.528 l 0,0 c 14.367,-4.993 24.687,-18.653 24.687,-34.711 l 0,0 c -0.122,-9.319 -1.379,-35.86 -2.764,-46.433 l 0,0 c -1.059,-8.101 -4.581,-15.397 -9.945,-21 l 0,0 c -5.433,-5.803 -15.728,-15.479 -24.364,-23.453 l 0,0 c -4.43,-3.791 -7.616,-8.998 -8.857,-14.926 l 0,0 C 518.939,113.537 517.104,91.713 517.1,72.38 l 0,0 C 517.102,54.107 503.76,38.948 486.295,36.108 l 0,0 0,0 C 468.597,33.59 375.48,18.628 252.598,18.628 l 0,0 c -97.443,0 -159.628,9.328 -173.23,11.407 l 0,0 z"
         inkscape:connector-curvature="0"
         style="fill:#f4f4f4" /><polygon
         id="polygon6640"
         points="563.803,59.253 563.803,61.255 559.428,61.255 559.428,59.253 "
         style="fill:#f4f4f4" /><polygon
         id="polygon6642"
         points="563.22,53.879 563.22,55.878 554.095,55.878 554.095,53.879 "
         style="fill:#f4f4f4" /><polygon
         id="polygon6644"
         points="564.553,67.171 564.553,69.17 562.387,69.17 562.387,67.171 "
         style="fill:#f4f4f4" /><polygon
         id="polygon6646"
         points="564.053,61.795 564.053,63.796 560.761,63.796 560.761,61.795 "
         style="fill:#f4f4f4" /><polygon
         id="polygon6648"
         points="565.303,75.088 565.303,77.087 561.47,77.087 561.47,75.088 "
         style="fill:#f4f4f4" /><polygon
         id="polygon6650"
         points="564.928,69.712 564.928,71.713 562.469,71.713 562.469,69.712 "
         style="fill:#f4f4f4" /><polygon
         id="polygon6652"
         points="566.011,83.003 566.011,85.003 556.301,85.003 556.301,83.003 "
         style="fill:#f4f4f4" /><polygon
         id="polygon6654"
         points="565.636,77.629 565.636,79.628 560.428,79.628 560.428,77.629 "
         style="fill:#f4f4f4" /><path
         id="path6656"
         d="m 524.22,70.255 c 0,-10.709 8.767,-19.356 19.563,-19.375 l 0,0 c 10.796,0.02 19.56,8.666 19.562,19.375 l 0,0 c -0.002,10.708 -8.766,19.354 -19.562,19.374 l 0,0 C 532.985,89.609 524.22,80.962 524.22,70.255 l 0,0 z m 1.999,0 c 0.019,9.586 7.854,17.375 17.563,17.375 l 0,0 c 9.707,0 17.544,-7.788 17.563,-17.375 l 0,0 c -0.019,-9.59 -7.854,-17.376 -17.563,-17.376 l 0,0 c -9.709,-10e-4 -17.546,7.787 -17.563,17.376 l 0,0 z"
         inkscape:connector-curvature="0"
         style="fill:#f4f4f4" /><path
         id="path6658"
         d="m 564.334,88.346 c -0.813,-0.392 -2.118,-0.587 -3.662,-0.583 l 0,0 c -4.612,-0.011 -11.118,1.611 -15.035,1.781 l 0,0 -0.083,-1.998 c 3.542,-0.129 10.133,-1.775 15.118,-1.784 l 0,0 c 1.696,0.004 3.238,0.18 4.517,0.774 l 0,0 c 1.277,0.568 2.278,1.765 2.403,3.33 l 0,0 -1.993,0.191 c -0.113,-0.89 -0.453,-1.292 -1.265,-1.711 l 0,0 z m -18.7,1.199 c 10e-4,0 0.002,0 0.003,0 l 0,0 0,0 -0.003,0 0,0 z"
         inkscape:connector-curvature="0"
         style="fill:#f4f4f4" /><path
         id="path6660"
         d="m 562.292,54.315 c -0.907,-0.046 -1.552,-0.475 -2.568,-1.094 l 0,0 C 558.953,52.7 556.606,52.064 552.65,52.08 l 0,0 c -3.514,0 -8.32,0.454 -14.608,1.696 l 0,0 -0.389,-1.96 c 6.388,-1.264 11.313,-1.734 14.997,-1.734 l 0,0 c 4.17,0.015 6.705,0.558 8.15,1.455 l 0,0 c 0.354,0.229 0.667,0.411 0.916,0.54 l 0,0 c -0.005,-0.025 -0.01,-0.05 -0.015,-0.076 l 0,0 1.956,-0.409 c 0.076,0.377 0.127,0.708 0.127,1.043 l 0,0 c -0.002,0.341 -0.04,0.716 -0.313,1.104 l 0,0 c -0.262,0.383 -0.764,0.578 -1.129,0.578 l 0,0 c -0.017,-10e-4 -0.032,-10e-4 -0.05,-0.002 l 0,0 z m -24.254,-0.538 c 0,0 10e-4,0 0.002,0 l 0,0 0,0 -0.002,0 0,0 z"
         inkscape:connector-curvature="0"
         style="fill:#f4f4f4" /><path
         id="path6662"
         d="m 542.427,237.452 -0.051,-0.039 -13.964,-14.431 c -1.11,-0.929 -1.818,-2.333 -1.818,-3.896 l 0,0 c 0,-1.401 0.569,-2.678 1.478,-3.584 l 0,0 14.117,-14.582 0.047,-0.041 c 1.801,-1.533 4.143,-2.459 6.691,-2.459 l 0,0 c 4.255,0.002 7.91,2.57 9.482,6.22 l 0,0 c 1.663,3.649 1.795,9.024 1.81,15.552 l 0,0 c 0.013,8.198 -0.683,11.197 -2.373,14.449 l 0,0 c -1.791,3.057 -5.118,5.111 -8.919,5.111 l 0,0 c -2.459,10e-4 -4.729,-0.861 -6.5,-2.3 l 0,0 z m 6.5,0.301 c 3.068,0 5.744,-1.655 7.166,-4.078 l 0,0 c 1.488,-2.908 2.113,-5.309 2.126,-13.482 l 0,0 c 0.016,-6.475 -0.227,-11.744 -1.636,-14.734 l 0,0 c -1.278,-2.965 -4.227,-5.039 -7.656,-5.037 l 0,0 c -2.046,0 -3.91,0.734 -5.361,1.955 l 0,0 -14.067,14.529 c -0.56,0.563 -0.903,1.327 -0.903,2.184 l 0,0 c 0,0.967 0.44,1.82 1.137,2.391 l 0,0 -0.632,0.775 -0.719,0.695 0.719,-0.695 0.632,-0.775 0.047,0.036 13.959,14.424 c 1.423,1.134 3.22,1.812 5.188,1.812 l 0,0 z"
         inkscape:connector-curvature="0"
         style="fill:#f4f4f4" /><g
         id="g6664"><g
           id="g6666"><path
             id="path6668"
             d="M 91.567,222.712 C 90.166,222.7 88.894,222.116 88,221.2 l 0,0 -14.456,-14.271 -0.029,-0.035 c -1.494,-1.792 -2.396,-4.104 -2.394,-6.615 l 0,0 c 0,-0.021 -0.002,-0.066 0,-0.102 l 0,0 c 0.043,-4.252 2.648,-7.883 6.313,-9.42 l 0,0 c 3.226,-1.438 7.77,-1.658 13.264,-1.672 l 0,0 c 0.75,0 1.519,0.006 2.305,0.018 l 0,0 c 8.199,0.066 11.19,0.793 14.425,2.514 l 0,0 c 3.013,1.805 5.024,5.105 5.024,8.867 l 0,0 c 0,0.041 0,0.059 0,0.104 l 0,0 c -0.025,2.459 -0.909,4.719 -2.368,6.478 l 0,0 -0.033,0.041 -14.561,13.814 c -0.921,1.088 -2.3,1.781 -3.829,1.791 l 0,0 -0.017,0.002 -0.077,0 0,-0.002 z m -2.151,-2.92 c 0.544,0.551 1.281,0.896 2.112,0.922 l 0,0 c 0.048,-0.004 0.073,-0.004 0.083,-0.004 l 0,0 c 0.006,0.002 0.011,0.002 0.011,0.002 l 0,0 c 0.954,0 1.798,-0.43 2.367,-1.109 l 0,0 0.037,-0.046 14.551,-13.808 c 1.157,-1.414 1.856,-3.209 1.877,-5.144 l 0,0 c -0.002,-0.06 -0.002,-0.104 -0.002,-0.122 l 0,0 c 0,-3.035 -1.621,-5.691 -4.004,-7.124 l 0,0 c -2.895,-1.515 -5.289,-2.165 -13.468,-2.258 l 0,0 c -0.778,-0.011 -1.54,-0.015 -2.281,-0.015 l 0,0 c -5.421,-0.012 -9.822,0.291 -12.465,1.504 l 0,0 c -2.976,1.252 -5.078,4.176 -5.113,7.647 l 0,0 c 0,0 0,0 0,0.039 l 0,0 c 0.002,2.021 0.716,3.863 1.911,5.308 l 0,0 14.384,14.208 0,0 z"
             inkscape:connector-curvature="0"
             style="fill:#f4f4f4" /><path
             id="path6670"
             d="m 77.459,276.929 c -3.689,-1.545 -6.295,-5.176 -6.337,-9.398 l 0,0 c -0.002,-0.068 -0.002,-0.117 -0.002,-0.136 l 0,0 c 0,-2.509 0.9,-4.823 2.396,-6.612 l 0,0 0.023,-0.027 14.45,-14.268 c 0.894,-0.914 2.142,-1.494 3.519,-1.521 l 0,0 c 0.058,-0.006 0.084,-0.004 0.096,-0.004 l 0,0 c 0.008,0 0.01,0 0.013,0 l 0,0 c 1.542,0 2.936,0.692 3.867,1.787 l 0,0 14.57,13.824 0.034,0.04 c 1.458,1.759 2.343,4.019 2.366,6.522 l 0,0 c 0,0 0,0.015 0,0.057 l 0,0 c 0,3.758 -2.012,7.063 -5.073,8.896 l 0,0 c -3.187,1.695 -6.179,2.42 -14.38,2.486 l 0,0 c -0.779,0.004 -1.542,0.012 -2.29,0.014 l 0,0 c -5.502,-0.014 -10.047,-0.233 -13.252,-1.66 l 0,0 z m -4.339,-9.534 c 0,0.039 0,0.052 0.002,0.083 l 0,0 c 0.031,3.434 2.135,6.357 5.135,7.619 l 0,0 c 2.621,1.199 7.024,1.502 12.452,1.49 l 0,0 c 0.737,0 1.496,-0.006 2.272,-0.01 l 0,0 c 8.177,-0.095 10.571,-0.744 13.417,-2.232 l 0,0 c 2.433,-1.461 4.054,-4.119 4.054,-7.152 l 0,0 c 0,-0.021 0,-0.061 0,-0.081 l 0,0 c -0.021,-1.968 -0.716,-3.761 -1.868,-5.175 l 0,0 -14.515,-13.773 0.687,-0.725 0.769,-0.641 -0.769,0.641 -0.687,0.725 -0.048,-0.045 -0.033,-0.041 c -0.571,-0.685 -1.418,-1.115 -2.373,-1.115 l 0,0 -0.021,0 -0.008,0 c -0.854,0.012 -1.615,0.361 -2.183,0.938 l 0,0 -14.374,14.192 c -1.193,1.441 -1.909,3.287 -1.909,5.302 l 0,0 z"
             inkscape:connector-curvature="0"
             style="fill:#f4f4f4" /></g><g
           id="g6672"><path
             id="path6674"
             d="m 125.04,254.503 c -2.459,-0.021 -4.719,-0.908 -6.479,-2.364 l 0,0 -0.046,-0.04 -13.811,-14.557 c -1.098,-0.932 -1.795,-2.326 -1.793,-3.873 l 0,0 c 0.001,-0.002 -0.004,-0.015 0,-0.09 l 0,0 c 0.024,-1.386 0.604,-2.642 1.512,-3.531 l 0,0 14.26,-14.443 0.048,-0.038 c 1.788,-1.495 4.098,-2.396 6.607,-2.396 l 0,0 c 0.009,0 0.052,-0.002 0.124,0.002 l 0,0 c 4.247,0.051 7.869,2.654 9.404,6.313 l 0,0 c 1.438,3.231 1.658,7.783 1.668,13.288 l 0,0 c 0,0.741 -0.004,1.5 -0.01,2.277 l 0,0 c -0.069,8.199 -0.794,11.193 -2.516,14.428 l 0,0 c -1.807,3.01 -5.108,5.021 -8.87,5.021 l 0,0 c -0.025,-0.002 -0.025,0 -0.025,0 l 0,0 -0.038,0.002 -0.035,0 0,10e-4 z m -0.011,-2 c 0.036,-0.002 0.063,-0.002 0.082,-0.002 l 0,0 c 0.017,0 0.025,0 0.029,0 l 0,0 c 3.037,0.002 5.693,-1.619 7.127,-4.002 l 0,0 c 1.514,-2.896 2.167,-5.289 2.258,-13.465 l 0,0 c 0.006,-0.775 0.012,-1.527 0.012,-2.261 l 0,0 c 0.011,-5.435 -0.291,-9.842 -1.504,-12.487 l 0,0 c -1.25,-2.978 -4.175,-5.082 -7.606,-5.113 l 0,0 -0.052,-0.002 -0.035,-0.004 0,0.002 0,0.002 c -2.01,0 -3.848,0.711 -5.288,1.898 l 0,0 -14.215,14.396 c -0.565,0.557 -0.916,1.315 -0.924,2.172 l 0,0 -0.002,0.058 c 0.008,0.94 0.438,1.78 1.115,2.345 l 0,0 -0.64,0.77 -0.725,0.688 0.725,-0.688 0.64,-0.77 0.042,0.035 13.808,14.553 c 1.408,1.151 3.192,1.848 5.153,1.875 l 0,0 z"
             inkscape:connector-curvature="0"
             style="fill:#f4f4f4" /><path
             id="path6676"
             d="m 58.492,254.503 -0.027,-0.002 c -0.002,0.002 0,0 -0.033,0.002 l 0,0 c -3.76,-0.002 -7.061,-2.015 -8.895,-5.071 l 0,0 c -1.695,-3.187 -2.42,-6.181 -2.488,-14.378 l 0,0 c -0.008,-0.781 -0.013,-1.545 -0.013,-2.285 l 0,0 c 0.011,-5.503 0.231,-10.053 1.66,-13.258 l 0,0 c 1.541,-3.678 5.155,-6.278 9.393,-6.338 l 0,0 c 0.087,-0.006 0.132,-0.002 0.144,-0.002 l 0,0 c 2.509,-0.002 4.821,0.899 6.612,2.396 l 0,0 0.033,0.028 14.26,14.443 c 0.926,0.907 1.51,2.18 1.522,3.582 l 0,0 0.002,0.067 -0.002,0.019 c -0.01,1.525 -0.699,2.905 -1.783,3.828 l 0,0 -13.817,14.561 -0.05,0.044 c -1.757,1.456 -4.018,2.343 -6.477,2.364 l 0,0 -0.041,0 0,0 z m -0.295,-39.332 -0.052,0.002 c -3.432,0.031 -6.356,2.137 -7.615,5.138 l 0,0 c -1.203,2.62 -1.506,7.03 -1.494,12.458 l 0,0 c 0,0.734 0.002,1.488 0.013,2.264 l 0,0 c 0.091,8.178 0.741,10.571 2.231,13.418 l 0,0 c 1.46,2.432 4.117,4.055 7.152,4.055 l 0,0 c 0.007,0 0.044,-0.004 0.107,0 l 0,0 c 1.961,-0.026 3.749,-0.725 5.158,-1.877 l 0,0 13.766,-14.506 0.042,-0.047 0.044,-0.035 c 0.683,-0.568 1.111,-1.414 1.111,-2.367 l 0,0 c 0.001,0 -10e-4,-0.014 0.001,-0.067 l 0,0 c -0.017,-0.843 -0.366,-1.59 -0.934,-2.149 l 0,0 -14.213,-14.395 c -1.44,-1.184 -3.276,-1.891 -5.281,-1.893 l 0,0 c -0.005,0 -0.01,0 -0.014,0 l 0,0 -0.022,0.001 0,0 z"
             inkscape:connector-curvature="0"
             style="fill:#f4f4f4" /></g></g><path
         id="path6678"
         d="m 503.327,261.187 c -3.131,-1.654 -5.329,-4.891 -5.494,-8.68 l 0,0 c -0.006,-0.152 -0.011,-0.307 -0.011,-0.463 l 0,0 c -0.002,-2.287 0.748,-4.42 2.026,-6.14 l 0,0 0.043,-0.058 13.8,-14.565 c 0.879,-1.153 2.255,-1.924 3.813,-1.991 l 0,0 c 0.06,-0.004 0.135,-0.008 0.229,-0.008 l 0,0 c 1.313,0 2.524,0.506 3.42,1.327 l 0,0 15.188,13.478 0.036,0.039 c 1.608,1.73 2.639,4.03 2.748,6.58 l 0,0 c 0.006,0.153 0.008,0.307 0.011,0.451 l 0,0 c -0.003,4.063 -2.366,7.62 -5.813,9.288 l 0,0 c -3.574,1.822 -8.939,2.188 -15.458,2.485 l 0,0 c -1.632,0.07 -3.053,0.105 -4.307,0.105 l 0,0 c -0.043,0 -0.084,0 -0.127,0 l 0,0 c -4.982,10e-4 -7.474,-0.62 -10.104,-1.848 l 0,0 z m -3.507,-9.143 c 0,0.117 0.004,0.238 0.01,0.369 l 0,0 c 0.134,3.064 1.903,5.666 4.383,6.981 l 0,0 c 2.4,1.097 4.388,1.63 9.347,1.642 l 0,0 c 1.219,0 2.61,-0.031 4.22,-0.105 l 0,0 c 6.469,-0.266 11.724,-0.734 14.647,-2.273 l 0,0 c 2.799,-1.355 4.71,-4.229 4.708,-7.5 l 0,0 c 0,-0.127 -0.002,-0.248 -0.007,-0.367 l 0,0 c -0.088,-2.043 -0.905,-3.877 -2.188,-5.274 l 0,0 -15.127,-13.423 c -0.556,-0.506 -1.281,-0.809 -2.08,-0.812 l 0,0 c -0.027,0 -0.07,0.003 -0.137,0.007 l 0,0 c -0.968,0.043 -1.801,0.519 -2.34,1.238 l 0,0 -0.036,0.049 -13.802,14.568 c -1.007,1.379 -1.596,3.074 -1.598,4.9 l 0,0 z"
         inkscape:connector-curvature="0"
         style="fill:#f4f4f4" /><path
         id="path6680"
         d="M 84.296,115.622"
         inkscape:connector-curvature="0"
         style="fill:#f4f4f4" /><path
         id="path6682"
         d="m 62.19,262.208 20.165,-26.272 0.044,-0.045 c 0.27,-0.235 0.582,-1.077 0.567,-1.986 l 0,0 c 0.004,-0.836 -0.229,-1.707 -0.565,-2.175 l 0,0 -20.379,-26.08 1.397,-1.407 26.192,20.104 c 0.752,0.494 1.51,0.72 2.243,0.72 l 0,0 c 0.707,0 1.404,-0.204 2.081,-0.64 l 0,0 26.042,-20.354 1.408,1.396 -20.163,26.269 c -0.389,0.438 -0.709,1.283 -0.703,2.154 l 0,0 c 0,0.729 0.204,1.462 0.653,2.058 l 0,0 20.379,26.078 -1.396,1.41 -26.2,-20.111 c -0.38,-0.299 -1.373,-0.549 -2.31,-0.533 l 0,0 c -0.925,-0.026 -1.84,0.271 -1.969,0.433 l 0,0 -26.079,20.379 -1.407,-1.398 0,0 z m 6.376,-5.024 19.845,-15.505 c 0.877,-0.701 2.011,-0.861 3.236,-0.889 l 0,0 c 1.218,0.014 2.485,0.219 3.504,0.933 l 0,0 19.982,15.338 -15.546,-19.894 c -0.755,-1.004 -1.067,-2.176 -1.067,-3.274 l 0,0 c 0.006,-1.317 0.42,-2.558 1.152,-3.416 l 0,0 15.336,-19.981 -19.905,15.557 -0.04,0.027 c -0.979,0.645 -2.086,0.989 -3.208,0.986 l 0,0 c -1.163,0.003 -2.327,-0.367 -3.377,-1.072 l 0,0 0.555,-0.83 -0.607,0.793 -19.984,-15.338 15.565,19.918 c 0.686,0.99 0.955,2.203 0.958,3.367 l 0,0 c -0.014,1.229 -0.282,2.438 -1.076,3.32 l 0,0 -15.323,19.96 0,0 z"
         inkscape:connector-curvature="0"
         style="fill:#f4f4f4" /><path
         id="path6684"
         d="m 37.912,233.839 c 0.002,-29.756 24.122,-53.875 53.876,-53.877 l 0,0 c 29.755,0.002 53.875,24.121 53.875,53.877 l 0,0 c 0,29.754 -24.12,53.873 -53.875,53.875 l 0,0 C 62.033,287.712 37.914,263.593 37.912,233.839 l 0,0 z m 17.193,-36.68 c -9.387,9.389 -15.191,22.352 -15.193,36.68 l 0,0 c 0,14.328 5.806,27.291 15.193,36.682 l 0,0 c 9.391,9.391 22.355,15.193 36.683,15.193 l 0,0 c 14.328,0 27.29,-5.805 36.681,-15.193 l 0,0 c 9.389,-9.391 15.193,-22.354 15.193,-36.682 l 0,0 c 0,-14.328 -5.804,-27.291 -15.193,-36.68 l 0,0 c -9.392,-9.39 -22.353,-15.193 -36.681,-15.193 l 0,0 c -14.33,-0.002 -27.292,5.804 -36.683,15.193 l 0,0 z"
         inkscape:connector-curvature="0"
         style="fill:#f4f4f4" /><g
         id="g6686"><g
           id="g6688"><path
             id="path6690"
             d="m 94.825,74.864 c -1.364,-0.01 -2.603,-0.579 -3.473,-1.469 l 0,0 L 77.373,59.592 77.345,59.557 C 75.896,57.82 75.02,55.576 75.022,53.142 l 0,0 c 0,-0.021 -0.002,-0.067 0,-0.102 l 0,0 c 0.042,-4.125 2.571,-7.646 6.125,-9.136 l 0,0 c 3.129,-1.394 7.521,-1.607 12.833,-1.618 l 0,0 c 0.728,0 1.471,0.004 2.233,0.012 l 0,0 c 7.928,0.065 10.83,0.768 13.965,2.437 l 0,0 c 2.922,1.75 4.873,4.955 4.873,8.602 l 0,0 c 0,0.041 0,0.057 0,0.1 l 0,0 c -0.021,2.386 -0.882,4.579 -2.294,6.283 l 0,0 -0.041,0.049 -14.072,13.352 c -0.905,1.068 -2.263,1.744 -3.768,1.744 l 0,0 c 0,-10e-4 -0.006,-10e-4 -0.051,-10e-4 l 0,0 z m 0.051,-2 c 0.913,0 1.719,-0.411 2.264,-1.063 l 0,0 0.039,-0.046 14.076,-13.356 c 1.109,-1.361 1.777,-3.086 1.799,-4.939 l 0,0 c -0.002,-0.063 -0.002,-0.104 -0.002,-0.122 l 0,0 c 0,-2.922 -1.561,-5.48 -3.854,-6.858 l 0,0 c -2.794,-1.463 -5.099,-2.091 -13.005,-2.181 l 0,0 c -0.754,-0.008 -1.492,-0.012 -2.211,-0.012 l 0,0 c -5.239,-0.01 -9.488,0.285 -12.035,1.451 l 0,0 c -2.865,1.205 -4.891,4.02 -4.924,7.362 l 0,0 c 0,0 0,0.002 0,0.043 l 0,0 c 0,1.933 0.682,3.698 1.82,5.087 l 0,0 13.925,13.753 c 0.532,0.541 1.26,0.874 2.03,0.882 l 0,0 c 0.021,0 0.037,-10e-4 0.048,-10e-4 l 0,0 c 0.023,-0.001 0.03,0 0.03,0 l 0,0 z"
             inkscape:connector-curvature="0"
             style="fill:#f4f4f4" /><path
             id="path6692"
             d="m 81.171,127.284 c -3.58,-1.5 -6.106,-5.021 -6.147,-9.113 l 0,0 c -0.004,-0.071 -0.002,-0.119 -0.002,-0.137 l 0,0 c 0,-2.436 0.874,-4.68 2.324,-6.414 l 0,0 0.029,-0.035 13.966,-13.791 c 0.87,-0.89 2.085,-1.455 3.426,-1.482 l 0,0 c 0.053,-0.004 0.081,-0.004 0.093,-0.002 l 0,0 c 0.006,0 0.01,0 0.01,0 l 0,0 c 1.507,0 2.868,0.678 3.774,1.747 l 0,0 14.072,13.354 0.041,0.047 c 1.414,1.705 2.271,3.898 2.295,6.328 l 0,0 c 0,0 0,0.014 0,0.055 l 0,0 c 0,3.646 -1.954,6.849 -4.922,8.627 l 0,0 c -3.087,1.644 -5.99,2.346 -13.919,2.41 l 0,0 c -0.757,0.006 -1.497,0.013 -2.221,0.013 l 0,0 c -5.315,-0.011 -9.711,-0.224 -12.819,-1.607 l 0,0 z m -4.151,-9.25 c 0,0.041 0,0.045 0.002,0.082 l 0,0 c 0.031,3.305 2.058,6.121 4.947,7.336 l 0,0 c 2.524,1.156 6.777,1.451 12.021,1.438 l 0,0 c 0.714,0 1.45,-0.005 2.203,-0.011 l 0,0 c 7.904,-0.09 10.21,-0.717 12.955,-2.151 l 0,0 c 2.342,-1.407 3.903,-3.968 3.903,-6.888 l 0,0 c 0,-0.021 0,-0.061 0,-0.078 l 0,0 c -0.02,-1.9 -0.691,-3.629 -1.805,-4.992 l 0,0 -14.025,-13.307 0.688,-0.724 0.769,-0.641 -0.769,0.641 -0.688,0.724 -0.047,-0.045 -0.035,-0.041 c -0.546,-0.655 -1.356,-1.066 -2.271,-1.066 l 0,0 -0.024,0 c -0.818,0.01 -1.544,0.344 -2.089,0.896 l 0,0 -13.906,13.732 c -1.143,1.388 -1.827,3.16 -1.829,5.095 l 0,0 z"
             inkscape:connector-curvature="0"
             style="fill:#f4f4f4" /></g><g
           id="g6694"><path
             id="path6696"
             d="m 120.905,103.308 -0.049,-0.041 -13.351,-14.071 c -1.067,-0.906 -1.746,-2.265 -1.746,-3.77 l 0,0 c 0.001,0 -0.004,-0.023 0.003,-0.108 l 0,0 c 0.027,-1.34 0.591,-2.556 1.47,-3.417 l 0,0 13.806,-13.979 0.031,-0.026 c 1.736,-1.448 3.978,-2.321 6.409,-2.321 l 0,0 c 0.021,0 0.069,-0.002 0.106,0.002 l 0,0 c 4.126,0.039 7.647,2.568 9.139,6.124 l 0,0 c 1.395,3.133 1.605,7.535 1.615,12.857 l 0,0 c 0,0.72 -0.004,1.454 -0.01,2.205 l 0,0 c -0.065,7.929 -0.769,10.833 -2.438,13.967 l 0,0 c -1.752,2.921 -4.955,4.873 -8.602,4.873 l 0,0 c -0.041,0 -0.055,0 -0.1,0.002 l 0,0 c -2.385,-0.022 -4.578,-0.884 -6.283,-2.297 l 0,0 z m 6.258,0.297 c 0.065,-0.002 0.104,-0.002 0.125,-0.002 l 0,0 c 2.921,0 5.481,-1.561 6.86,-3.855 l 0,0 c 1.462,-2.795 2.091,-5.1 2.18,-13.002 l 0,0 c 0.006,-0.749 0.01,-1.479 0.01,-2.188 l 0,0 c 0.012,-5.25 -0.281,-9.51 -1.45,-12.06 l 0,0 c -1.204,-2.864 -4.021,-4.892 -7.36,-4.924 l 0,0 c 0,0.002 -0.008,0 -0.051,0.002 l 0,0 c -1.94,0 -3.712,0.687 -5.1,1.834 l 0,0 -13.734,13.907 c -0.541,0.534 -0.875,1.261 -0.883,2.081 l 0,0 0,0.057 -0.001,0.011 c 0.014,0.894 0.421,1.69 1.064,2.227 l 0,0 -0.638,0.769 -0.724,0.688 0.724,-0.688 0.638,-0.769 0.045,0.035 13.358,14.078 c 1.363,1.109 3.087,1.778 4.937,1.799 l 0,0 z"
             inkscape:connector-curvature="0"
             style="fill:#f4f4f4" /><path
             id="path6698"
             d="M 54.157,100.683 C 52.515,97.597 51.813,94.692 51.748,86.765 l 0,0 c -0.01,-0.755 -0.015,-1.493 -0.015,-2.213 l 0,0 c 0.013,-5.32 0.223,-9.72 1.61,-12.827 l 0,0 c 1.499,-3.58 5.021,-6.109 9.108,-6.148 l 0,0 c 0.075,-0.004 0.12,-0.002 0.143,-0.002 l 0,0 c 2.434,0 4.675,0.873 6.414,2.321 l 0,0 0.039,0.033 13.784,13.963 c 0.902,0.883 1.469,2.121 1.481,3.533 l 0,0 c 0,0 0,0.004 0.002,0.004 l 0,0 c 0,1.504 -0.68,2.861 -1.746,3.767 l 0,0 -13.349,14.071 -0.051,0.041 c -1.706,1.414 -3.898,2.274 -6.324,2.294 l 0,0 c 0,0 -0.019,0 -0.059,0.002 l 0,0 c -3.647,-0.001 -6.849,-1.955 -8.628,-4.921 l 0,0 z M 62.51,67.576 c -3.305,0.031 -6.122,2.058 -7.335,4.947 l 0,0 c -1.159,2.523 -1.452,6.782 -1.44,12.029 l 0,0 c 0,0.714 0.004,1.442 0.012,2.193 l 0,0 c 0.09,7.905 0.716,10.209 2.152,12.957 l 0,0 c 1.406,2.342 3.965,3.902 6.887,3.902 l 0,0 c 0.018,0 0.061,0 0.082,0 l 0,0 c 1.892,-0.018 3.618,-0.688 4.98,-1.798 l 0,0 13.315,-14.033 0.035,-0.037 0.051,-0.043 c 0.655,-0.545 1.065,-1.354 1.065,-2.264 l 0,0 c 0,0 -0.002,-0.015 0,-0.033 l 0,0 c -0.008,-0.818 -0.343,-1.544 -0.896,-2.089 l 0,0 L 67.689,69.4 c -1.39,-1.142 -3.158,-1.826 -5.095,-1.828 l 0,0 c -0.041,0.002 -0.045,0.002 -0.084,0.004 l 0,0 z"
             inkscape:connector-curvature="0"
             style="fill:#f4f4f4" /></g></g><path
         id="path6700"
         d="m 66.393,112.999 19.501,-25.407 0.043,-0.043 c 0.251,-0.216 0.553,-1.023 0.537,-1.897 l 0,0 c 0.006,-0.804 -0.219,-1.64 -0.537,-2.083 l 0,0 -19.706,-25.215 1.397,-1.409 25.339,19.447 c 0.719,0.472 1.438,0.681 2.137,0.681 l 0,0 c 0.675,0 1.344,-0.197 1.995,-0.616 l 0,0 25.174,-19.674 1.409,1.395 -19.498,25.402 c -0.369,0.421 -0.678,1.229 -0.671,2.063 l 0,0 c 0,0.699 0.196,1.399 0.625,1.967 l 0,0 19.706,25.218 -1.396,1.408 -25.33,-19.445 c -0.357,-0.28 -1.315,-0.522 -2.216,-0.51 l 0,0 c -0.89,-0.027 -1.772,0.263 -1.882,0.41 l 0,0 -25.218,19.706 -1.409,-1.398 0,0 z m 6.379,-5.024 18.979,-14.829 c 0.864,-0.688 1.962,-0.837 3.151,-0.864 l 0,0 c 1.183,0.012 2.41,0.21 3.408,0.906 l 0,0 19.114,14.67 -14.872,-19.03 c -0.735,-0.977 -1.04,-2.118 -1.04,-3.186 l 0,0 c 0.008,-1.282 0.411,-2.485 1.123,-3.322 l 0,0 14.674,-19.12 -19.048,14.886 -0.039,0.027 c -0.952,0.627 -2.028,0.962 -3.118,0.962 l 0,0 c -1.131,0 -2.265,-0.359 -3.286,-1.043 l 0,0 0.558,-0.832 -0.61,0.792 -19.114,-14.67 14.891,19.056 c 0.668,0.964 0.927,2.142 0.933,3.273 l 0,0 c -0.016,1.207 -0.28,2.389 -1.071,3.255 l 0,0 -14.633,19.069 0,0 z"
         inkscape:connector-curvature="0"
         style="fill:#f4f4f4" /><path
         id="path6702"
         d="M 42.912,85.59 C 42.914,56.8 66.25,33.465 95.037,33.465 l 0,0 c 28.788,0 52.124,23.336 52.125,52.125 l 0,0 c -0.002,28.788 -23.338,52.124 -52.125,52.124 l 0,0 c -28.788,0 -52.123,-23.336 -52.125,-52.124 l 0,0 z M 59.594,50.146 c -9.072,9.075 -14.681,21.6 -14.681,35.445 l 0,0 c 0,13.844 5.609,26.37 14.681,35.444 l 0,0 c 9.075,9.071 21.598,14.68 35.443,14.68 l 0,0 c 13.844,0 26.369,-5.607 35.443,-14.68 l 0,0 c 9.072,-9.074 14.682,-21.6 14.682,-35.444 l 0,0 c 0,-13.846 -5.609,-26.371 -14.682,-35.445 l 0,0 C 121.406,41.074 108.88,35.467 95.037,35.465 l 0,0 c -13.846,0 -26.369,5.607 -35.443,14.681 l 0,0 z"
         inkscape:connector-curvature="0"
         style="fill:#f4f4f4" /><path
         id="path6704"
         d="m 313.596,297.394 0,-0.934 0,-0.932 17.869,0 c 5.19,-0.011 9.39,-4.209 9.399,-9.4 l 0,0 c -0.01,-5.191 -4.209,-9.392 -9.399,-9.401 l 0,0 -17.869,0 c -5.191,0.011 -9.392,4.21 -9.401,9.401 l 0,0 c 0.011,5.191 4.209,9.391 9.401,9.4 l 0,0 0,0.932 0,0.934 c -6.222,0 -11.267,-5.044 -11.267,-11.266 l 0,0 c 0,-6.224 5.045,-11.267 11.267,-11.267 l 0,0 17.869,0 c 6.222,0 11.265,5.043 11.265,11.267 l 0,0 c 0,6.222 -5.043,11.266 -11.265,11.266 l 0,0 -17.869,0 0,0 z"
         inkscape:connector-curvature="0"
         style="fill:#f4f4f4" /><path
         id="path6706"
         d="m 258.844,295.462 0,-1.002 0,-1 17.667,0 c 3.636,-0.006 6.578,-2.945 6.584,-6.582 l 0,0 c -0.006,-3.637 -2.948,-6.578 -6.584,-6.584 l 0,0 -17.667,0 c -3.634,0.006 -6.576,2.947 -6.582,6.584 l 0,0 c 0.006,3.637 2.948,6.576 6.582,6.582 l 0,0 0,1 0,1.002 c -4.741,-0.002 -8.582,-3.844 -8.582,-8.584 l 0,0 c 0,-4.74 3.841,-8.584 8.582,-8.584 l 0,0 17.667,0 c 4.741,0 8.583,3.844 8.583,8.584 l 0,0 c 0,4.74 -3.843,8.582 -8.583,8.584 l 0,0 -17.667,0 0,0 z"
         inkscape:connector-curvature="0"
         style="fill:#f4f4f4" /><path
         id="path6708"
         d="m 208.679,295.462 0,-1.002 0,-1 17.667,0 c 3.634,-0.006 6.576,-2.945 6.582,-6.582 l 0,0 c -0.006,-3.637 -2.948,-6.578 -6.582,-6.584 l 0,0 -17.667,0 c -3.636,0.006 -6.578,2.947 -6.584,6.584 l 0,0 c 0.006,3.637 2.948,6.576 6.584,6.582 l 0,0 0,1 0,1.002 c -4.741,-0.002 -8.583,-3.844 -8.583,-8.584 l 0,0 c 0,-4.74 3.841,-8.584 8.583,-8.584 l 0,0 17.667,0 c 4.741,0 8.582,3.844 8.582,8.584 l 0,0 c 0,4.74 -3.841,8.582 -8.582,8.584 l 0,0 -17.667,0 0,0 z"
         inkscape:connector-curvature="0"
         style="fill:#f4f4f4" /></g></g></svg>