<?xml version="1.0" encoding="UTF-8" standalone="no"?>
<!-- Generator: Adobe Illustrator 13.0.0, SVG Export Plug-In . SVG Version: 6.00 Build 14948)  -->

<svg
   xmlns:dc="http://purl.org/dc/elements/1.1/"
   xmlns:cc="http://creativecommons.org/ns#"
   xmlns:rdf="http://www.w3.org/1999/02/22-rdf-syntax-ns#"
   xmlns:svg="http://www.w3.org/2000/svg"
   xmlns="http://www.w3.org/2000/svg"
   xmlns:sodipodi="http://sodipodi.sourceforge.net/DTD/sodipodi-0.dtd"
   xmlns:inkscape="http://www.inkscape.org/namespaces/inkscape"
   version="1.1"
   id="Layer_2"
   x="0px"
   y="0px"
   width="550"
   height="550"
   viewBox="0 0 549.99995 549.99999"
   enable-background="new 0 0 598.189 350.26"
   xml:space="preserve"
   inkscape:version="0.91 r13725"
   sodipodi:docname="controller_gg.svg"><metadata
     id="metadata3083"><rdf:RDF><cc:Work
         rdf:about=""><dc:format>image/svg+xml</dc:format><dc:type
           rdf:resource="http://purl.org/dc/dcmitype/StillImage" /><dc:title></dc:title></cc:Work></rdf:RDF></metadata><defs
     id="defs3081" /><sodipodi:namedview
     pagecolor="#ffffff"
     bordercolor="#666666"
     borderopacity="1"
     objecttolerance="10"
     gridtolerance="10"
     guidetolerance="10"
     inkscape:pageopacity="0"
     inkscape:pageshadow="2"
     inkscape:window-width="1920"
     inkscape:window-height="1001"
     id="namedview3079"
     showgrid="false"
     inkscape:zoom="1.0799262"
     inkscape:cx="248.77122"
     inkscape:cy="298.43665"
     inkscape:window-x="-9"
     inkscape:window-y="-9"
     inkscape:window-maximized="1"
     inkscape:current-layer="g12192"
     showguides="true"
     inkscape:guide-bbox="true" /><g
     inkscape:groupmode="layer"
     id="layer2"
     inkscape:label="Screen_Rect"
     style="display:none"
     transform="translate(0,199.73999)"
     sodipodi:insensitive="true"><path
       style="fill:#0000ff;stroke:#000000;stroke-width:1px;stroke-linecap:butt;stroke-linejoin:miter;stroke-opacity:1"
       d="M 5.0135033,547.22203 136.4109,114.39023 653.54628,-189.09358 406.482,260.92121 Z"
       id="path3021"
       inkscape:connector-curvature="0"
       transform="translate(-2e-5,-199.73999)"
       sodipodi:nodetypes="ccccc" /><rect
       style="opacity:0.60100002;fill:#d8201f;fill-opacity:1;stroke:#ff8080;stroke-width:2.45114732;stroke-linecap:round;stroke-linejoin:round;stroke-miterlimit:4;stroke-dasharray:none;stroke-opacity:1"
       id="rect4230"
       width="444.2457"
       height="9.9567661"
       x="145.95099"
       y="-211.30678" /></g><g
     inkscape:groupmode="layer"
     id="layer1"
     inkscape:label="Controller_Vorlage"
     style="display:none"
     sodipodi:insensitive="true"><g
       id="g4929"
       transform="translate(-0.929149,0.5695451)"><g
         transform="translate(0,199.73999)"
         style="display:none"
         inkscape:label="Layer2"
         id="layer2-9"><path
           sodipodi:nodetypes="ccccc"
           transform="translate(-2e-5,-199.73999)"
           inkscape:connector-curvature="0"
           id="path3021-0"
           d="M 5.0135033,547.22203 136.4109,114.39023 653.54628,-189.09358 406.482,260.92121 Z"
           style="fill:#ffffff;stroke:#000000;stroke-width:1px;stroke-linecap:butt;stroke-linejoin:miter;stroke-opacity:1" /></g><g
         inkscape:label="Layer"
         id="layer1-2"><g
           transform="matrix(0.55322035,-0.3970343,-0.34863416,0.85569517,173.63773,166.52161)"
           id="g3100"><path
             style="fill:#f4f4f4"
             inkscape:connector-curvature="0"
             id="path3"
             d="m 148.05,114.447 c -23.656,0 -42.861,19.204 -42.861,42.861 l 0,37.414 c 0,23.658 19.205,42.86 42.861,42.86 l 38.694,0 c 23.656,0 42.861,-19.202 42.861,-42.86 l 0,-37.414 c 0,-23.657 -19.205,-42.861 -42.861,-42.861 l -38.694,0 z m 0,1.905 38.694,0 c 22.627,0 40.956,18.328 40.956,40.956 l 0,37.414 c 0,22.629 -18.329,40.956 -40.956,40.956 l -38.694,0 c -22.628,0 -40.956,-18.327 -40.956,-40.956 l 0,-37.414 c 0,-22.629 18.328,-40.956 40.956,-40.956 z" /><path
             style="fill:#f4f4f4"
             inkscape:connector-curvature="0"
             id="path5"
             d="m 167.395,123.168 c -3.23,0 -5.863,2.633 -5.863,5.864 l 0,13.037 c 0,3.23 2.632,5.863 5.863,5.863 3.23,0 5.863,-2.633 5.863,-5.863 l 0,-13.037 c 0,-3.23 -2.633,-5.864 -5.863,-5.864 z m 0,1.906 c 2.201,0 3.958,1.758 3.958,3.958 l 0,13.037 c 0,2.2 -1.758,3.958 -3.958,3.958 -2.202,0 -3.958,-1.758 -3.958,-3.958 l 0,-13.037 c -0.001,-2.2 1.757,-3.958 3.958,-3.958 z" /><path
             style="fill:#f4f4f4"
             inkscape:connector-curvature="0"
             id="path7"
             d="m 120.425,170.135 c -3.23,0 -5.864,2.633 -5.864,5.864 0,3.231 2.632,5.894 5.864,5.894 l 13.037,0 c 3.229,0 5.864,-2.662 5.864,-5.894 0,-3.229 -2.633,-5.864 -5.864,-5.864 l -13.037,0 z m 0,1.905 13.037,0 c 2.201,0 3.959,1.759 3.959,3.959 0,2.201 -1.759,3.988 -3.959,3.988 l -13.037,0 c -2.198,-0.01 -3.955,-1.791 -3.955,-3.99 0,-2.201 1.758,-3.959 3.958,-3.959 l -0.003,0.002 z" /><path
             style="fill:#f4f4f4"
             inkscape:connector-curvature="0"
             id="path9"
             d="m 167.395,204.071 c -3.23,0 -5.863,2.663 -5.863,5.894 l 0,13.038 c 0,3.229 2.632,5.863 5.863,5.863 3.23,0 5.863,-2.633 5.863,-5.863 l 0,-13.038 c 0,-3.23 -2.633,-5.894 -5.863,-5.894 z m 0,1.906 c 2.201,0 3.958,1.789 3.958,3.988 l 0,13.038 c 0,2.2 -1.757,3.958 -3.958,3.958 -2.202,0 -3.958,-1.759 -3.958,-3.958 l 0,-13.038 c -0.001,-2.2 1.757,-3.988 3.958,-3.988 z" /><path
             style="fill:#f4f4f4"
             inkscape:connector-curvature="0"
             id="path11"
             d="m 201.321,170.135 c -3.229,0 -5.863,2.633 -5.863,5.864 0,3.231 2.633,5.894 5.863,5.894 l 13.067,0 c 3.229,0 5.863,-2.662 5.863,-5.894 0,-3.229 -2.633,-5.864 -5.863,-5.864 l -13.067,0 z m 0,1.905 13.067,0 c 2.2,0 3.958,1.76 3.958,3.959 0,2.201 -1.758,3.988 -3.958,3.988 l -13.067,0 c -2.2,0 -3.958,-1.788 -3.958,-3.988 0,-2.2 1.759,-3.959 3.958,-3.959 z" /><path
             style="fill:#f4f4f4"
             inkscape:connector-curvature="0"
             id="polygon13"
             d="m 133.878,141.176 -1.31,1.31 8.155,12.025 0.655,0.952 0.804,-0.803 3.869,-3.87 0.804,-0.804 -0.953,-0.655 -12.024,-8.155 z" /><path
             style="fill:#f4f4f4"
             inkscape:connector-curvature="0"
             id="polygon15"
             d="m 141.383,196.566 -0.654,0.952 -8.156,12.024 1.31,1.31 12.025,-8.155 0.953,-0.654 -0.804,-0.804 -3.87,-3.869 -0.804,-0.804 z" /><path
             style="fill:#f4f4f4"
             inkscape:connector-curvature="0"
             id="polygon17"
             d="m 193.435,196.566 -0.804,0.804 -3.869,3.869 -0.833,0.804 0.953,0.654 12.025,8.155 1.339,-1.31 -8.156,-12.024 -0.655,-0.952 0,0 z" /><path
             style="fill:#f4f4f4"
             inkscape:connector-curvature="0"
             id="polygon19"
             d="m 200.912,141.176 -12.025,8.155 -0.953,0.655 0.833,0.804 3.87,3.87 0.804,0.803 0.655,-0.952 8.155,-12.025 -1.339,-1.31 z" /><path
             style="fill:#f4f4f4"
             inkscape:connector-curvature="0"
             id="path21"
             d="m 146.354,104.833 c -27.67,0 -50.123,22.453 -50.123,50.124 l 0,42.117 c 0,27.671 22.453,50.123 50.123,50.123 l 42.117,0 c 27.671,0 50.124,-22.452 50.124,-50.123 l 0,-42.117 c 0,-27.67 -22.452,-50.124 -50.124,-50.124 l -42.117,0 z m 0,1.906 42.117,0 c 26.644,0 48.219,21.577 48.219,48.218 l 0,42.117 c 0,26.644 -21.577,48.218 -48.219,48.218 l -42.117,0 c -26.642,0 -48.218,-21.574 -48.218,-48.218 l 0,-42.117 c 0,-26.642 21.577,-48.218 48.218,-48.218 z" /><path
             style="fill:#f4f4f4"
             inkscape:connector-curvature="0"
             id="polygon23"
             d="m 69.499,75.694 0,0.952 0,202.961 0,0.952 0.953,0 196.122,0 0.952,0 0,-0.952 0,-26.401 289.521,0 0.952,0 0,-0.952 0,-113.458 0,-0.953 -0.952,0 -289.522,0 0,-61.196 0,-0.952 -0.952,0 -196.122,0 -0.952,-10e-4 0,0 z m 1.904,1.905 194.217,0 0,61.196 0,0.953 0.953,0 0.714,0 288.807,0 0,111.552 -289.226,0 -0.297,0 -0.953,0 0,0.953 0,26.4 -194.217,0 0,-201.055 0.002,0.001 z" /><path
             style="fill:#f4f4f4"
             inkscape:connector-curvature="0"
             id="circle25"
             d="m 400.692,169.126 c -19.762,0 -35.777,16.046 -35.777,35.807 0,19.761 16.018,35.807 35.777,35.807 19.759,0 35.807,-16.046 35.807,-35.807 0,-19.761 -16.047,-35.807 -35.807,-35.807 l 0,0 z m 0,1.905 c 18.73,0 33.901,15.17 33.901,33.902 0,18.732 -15.171,33.902 -33.901,33.902 -18.731,0 -33.872,-15.171 -33.872,-33.902 0,-18.731 15.141,-33.902 33.872,-33.902 l 0,0 z" /><path
             style="fill:#f4f4f4"
             inkscape:connector-curvature="0"
             id="circle27"
             d="m 400.692,177.669 c -15.039,0 -27.234,12.227 -27.234,27.265 0,15.038 12.195,27.234 27.234,27.234 15.036,0 27.264,-12.196 27.264,-27.234 0,-15.038 -12.227,-27.265 -27.264,-27.265 z m 0,1.905 c 14.008,0 25.359,11.351 25.359,25.359 0,14.008 -11.352,25.33 -25.359,25.33 -14.01,0 -25.33,-11.321 -25.33,-25.33 0,-14.009 11.321,-25.359 25.33,-25.359 z" /><path
             style="fill:#f4f4f4"
             inkscape:connector-curvature="0"
             id="circle29"
             d="m 489.919,169.126 c -19.762,0 -35.807,16.046 -35.807,35.807 0,19.761 16.045,35.807 35.807,35.807 19.76,0 35.807,-16.046 35.807,-35.807 0,-19.761 -16.047,-35.807 -35.807,-35.807 l 0,0 z m 0,1.905 c 18.73,0 33.901,15.17 33.901,33.902 0,18.732 -15.171,33.902 -33.901,33.902 -18.731,0 -33.902,-15.171 -33.902,-33.902 0,-18.731 15.171,-33.902 33.902,-33.902 l 0,0 z" /><path
             style="fill:#f4f4f4"
             inkscape:connector-curvature="0"
             id="circle31"
             d="m 489.919,177.669 c -15.039,0 -27.234,12.227 -27.234,27.265 0,15.038 12.195,27.234 27.234,27.234 15.036,0 27.234,-12.196 27.234,-27.234 0,-15.038 -12.196,-27.265 -27.234,-27.265 z m 0,1.905 c 14.008,0 25.329,11.351 25.329,25.359 0,14.008 -11.321,25.33 -25.329,25.33 -14.01,0 -25.33,-11.321 -25.33,-25.33 0,-14.009 11.32,-25.359 25.33,-25.359 z" /><path
             style="fill:#f4f4f4"
             inkscape:connector-curvature="0"
             id="path33"
             d="m 39.406,68.432 c -4.766,0 -8.662,3.896 -8.662,8.662 l 0,203.084 c 0,4.766 3.897,8.661 8.662,8.661 l 518.646,0 c 4.429,0 7.956,-3.411 8.453,-7.709 l 0.179,0 0,-0.952 0,-203.085 c 0,-4.762 -3.868,-8.658 -8.64,-8.658 l -518.645,0 0.007,-0.003 z m 0,1.904 518.646,0 c 3.737,0 6.727,3.021 6.727,6.757 l 0,202.131 0,0.953 c 0,3.736 -2.989,6.756 -6.727,6.756 l -518.646,0 c -3.732,0.01 -6.753,-3.019 -6.753,-6.753 l 0,-203.083 c 0,-3.736 3.02,-6.756 6.756,-6.756 l -0.003,-0.005 z" /><path
             style="fill:#f4f4f4"
             inkscape:connector-curvature="0"
             id="rect35"
             d="m 359.021,163.559 0,0.953 0,81.465 0,0.952 0.953,0 81.465,0 0.953,0 0,-0.952 0,-81.465 0,-0.953 -0.953,0 -81.465,0 -0.953,0 z m 1.906,1.905 79.561,0 0,79.56 -79.561,0 0,-79.56 z" /><path
             style="fill:#f4f4f4"
             inkscape:connector-curvature="0"
             id="rect37"
             d="m 448.248,163.559 0,0.953 0,81.465 0,0.952 0.953,0 81.436,0 0.952,0 0,-0.952 0,-81.465 0,-0.953 -0.952,0 -81.436,0 -0.953,0 z m 1.905,1.905 79.531,0 0,79.56 -79.531,0 0,-79.56 z" /><path
             style="fill:#f4f4f4"
             inkscape:connector-curvature="0"
             id="polyline39"
             d="m 83.934,94.177 0,2.292 0,159.061 0,2.322 1.607,-1.638 25.33,-25.299 -1.369,-1.369 -23.663,23.692 0,-154.45 23.663,23.658 1.369,-1.34 -25.33,-25.299 -1.607,-1.637 0,0.007 z" /><path
             style="fill:#f4f4f4"
             inkscape:connector-curvature="0"
             id="polyline41"
             d="m 222.305,232.551 -1.37,1.339 23.693,23.692 -154.452,0 23.574,-23.573 -1.369,-1.339 -25.181,25.182 -1.637,1.637 2.292,0 159.062,0 2.292,0 -1.607,-1.637 -25.299,-25.3 0.002,-0.001 z" /><path
             style="fill:#f4f4f4"
             inkscape:connector-curvature="0"
             id="polyline43"
             d="m 250.878,94.177 -1.637,1.637 -25.211,25.182 1.369,1.369 23.574,-23.603 0,154.509 -23.633,-23.663 -1.339,1.34 25.24,25.27 1.637,1.638 0,-2.322 0,-159.063 0,-2.292 0,-0.002 z" /><path
             style="fill:#f4f4f4"
             inkscape:connector-curvature="0"
             id="polyline45"
             d="m 85.57,92.54 1.638,1.608 25.21,25.24 1.339,-1.34 -23.572,-23.602 154.452,0 -23.669,23.662 1.333,1.339 25.307,-25.3 1.607,-1.607 -2.292,0 -159.062,0 -2.291,0 0,0 z" /><path
             style="fill:#f4f4f4"
             inkscape:connector-curvature="0"
             id="line47"
             d="m 58.961,69.533 0,218.057 1.905,0 0,-218.057 -1.905,0 z" /><path
             style="fill:#f4f4f4"
             inkscape:connector-curvature="0"
             id="rect49"
             d="m 359.021,145.819 0,0.953 0,13.244 0,0.953 0.953,0 81.465,0 0.953,0 0,-0.953 0,-13.244 0,-0.953 -0.953,0 -81.465,0 -0.953,0 z m 1.906,1.905 79.561,0 0,11.339 -79.561,0 0,-11.339 z" /><path
             style="fill:#f4f4f4"
             inkscape:connector-curvature="0"
             id="rect51"
             d="m 448.248,145.819 0,0.953 0,13.244 0,0.953 0.953,0 81.436,0 0.952,0 0,-0.953 0,-13.244 0,-0.953 -0.952,0 -81.436,0 -0.953,0 z m 1.905,1.905 79.531,0 0,11.339 -79.531,0 0,-11.339 z" /><path
             style="fill:#f4f4f4"
             inkscape:connector-curvature="0"
             id="path53"
             d="m 276.804,73.134 c -0.987,0 -1.815,0.828 -1.815,1.816 l 0,53.01 c 0,0.988 0.829,1.815 1.815,1.815 l 282.855,0 c 0.985,0 1.785,-0.831 1.785,-1.815 l 0,-50.033 c 0,-2.641 -2.152,-4.792 -4.792,-4.792 l -279.844,0 -0.004,0 z m 0.09,1.906 279.756,0 c 1.613,0 2.888,1.275 2.888,2.887 l 0,49.945 -282.643,0 0,-52.832 -10e-4,0 z" /><path
             style="fill:#f4f4f4"
             inkscape:connector-curvature="0"
             id="path55"
             d="m 276.804,260.41 c -0.987,0 -1.815,0.829 -1.815,1.815 l 0,20.091 c 0,0.987 0.829,1.816 1.815,1.816 l 279.844,0 c 2.64,0 4.792,-2.183 4.792,-4.822 l 0,-17.085 c 0,-0.985 -0.8,-1.815 -1.785,-1.815 l -282.855,0 0.004,0 z m 0.09,1.905 282.645,0 0,16.995 c 0,1.611 -1.276,2.917 -2.888,2.917 l -279.758,0 0.001,-19.912 0,0 z" /><path
             style="fill:#f4f4f4"
             inkscape:connector-curvature="0"
             id="line57"
             d="m 274.461,129.271 -6.28,6.28 1.369,1.339 6.251,-6.25 -1.34,-1.369 z" /><path
             style="fill:#f4f4f4"
             inkscape:connector-curvature="0"
             id="line59"
             d="m 269.546,253.866 -1.369,1.34 6.281,6.28 1.339,-1.369 -6.251,-6.251 z" /></g></g></g></g><g
     inkscape:groupmode="layer"
     id="layer4"
     inkscape:label="Controller"><g
       id="g12192"
       transform="matrix(0.52634968,-0.38371487,-0.36199415,0.79024751,151.0404,222.06172)"><g
         id="g16991"
         transform="matrix(0.82662691,-0.00431498,0.03447037,0.83239288,95.203068,-34.846647)"><path
           d="M 220.665,89.864 C 184.009,55.981 120.547,65.323 78.906,110.384 37.256,155.446 32.908,219.46 69.566,253.34 c 36.658,33.89 100.156,24.539 141.807,-20.521 41.651,-45.058 45.958,-109.075 9.294,-142.964 l -0.002,0.009 z m -1.3,1.406 c 35.728,33.014 31.679,95.811 -9.398,140.256 -41.086,44.445 -103.382,53.432 -139.099,20.413 -35.719,-33.008 -31.636,-95.8 9.446,-140.255 41.082,-44.447 103.343,-53.428 139.06,-20.414 l -0.009,0 z"
           id="ellipse3"
           inkscape:connector-curvature="0"
           style="fill:#f4f4f4" /><path
           d="M 205.572,101.549 C 175.473,73.725 123.208,81.601 88.831,118.791 c -34.378,37.191 -38.132,89.906 -8.033,117.737 30.099,27.822 82.364,19.945 116.742,-17.246 34.377,-37.191 38.128,-89.906 8.029,-117.737 l 0.003,0.004 z m -1.3,1.406 c 29.154,26.95 25.675,78.45 -8.138,115.028 C 162.32,254.562 111.251,262.069 82.101,235.119 52.945,208.178 56.424,156.679 90.237,120.1 124.049,83.517 175.117,76.011 204.27,102.961 l 0.002,-0.006 z"
           id="ellipse5"
           inkscape:connector-curvature="0"
           style="fill:#f4f4f4" /><path
           d="m 289.994,19.325 c -33.468,0 -69.873,4.176 -105.276,14.057 -0.688,0.2 -1.309,0.72 -1.436,1.406 -0.127,0.686 0.168,1.258 0.538,1.674 0,0 5.863,6.771 9.362,10.02 1.587,1.474 3.045,3.654 5.772,5.084 2.727,1.43 6.623,1.968 12.831,0.479 11.909,-2.858 57.564,-8.942 74.83,-8.942 l 22.79,0 c 17.265,0 62.918,6.084 74.83,8.942 6.207,1.489 10.074,0.951 12.801,-0.479 2.727,-1.43 4.217,-3.611 5.802,-5.084 3.492,-3.242 9.093,-9.661 9.093,-9.661 l -1.466,-1.256 c 0,0 -5.603,6.438 -8.913,9.511 -1.812,1.684 -3.131,3.634 -5.383,4.815 -2.253,1.181 -5.549,1.723 -11.484,0.299 -12.378,-2.97 -57.571,-9.003 -75.278,-9.003 l -22.79,0 c -17.708,0 -62.902,6.033 -75.278,9.003 -5.937,1.424 -9.232,0.882 -11.485,-0.299 -2.252,-1.182 -3.57,-3.132 -5.383,-4.815 -3.292,-3.057 -9.14,-9.787 -9.188,-9.842 35.19,-9.816 71.415,-13.997 104.711,-13.997 l 15.992,0 c 34.192,0 71.468,4.468 107.554,14.864 -0.27,0.313 -7.83,9.078 -11.036,12.053 -1.78,1.652 -3.319,3.584 -5.831,4.785 -2.512,1.201 -6.063,1.752 -11.994,0.329 -12.383,-2.971 -57.575,-9.003 -75.281,-9.003 l -22.789,0 c -17.708,0 -62.901,6.032 -75.278,9.002 -5.931,1.424 -9.48,0.872 -11.993,-0.329 -2.512,-1.2 -4.051,-3.132 -5.832,-4.785 C 190.222,45.104 182.261,36.16 182.261,36.16 181.218,34.974 179.62,34.838 178.337,35.234 137.219,47.56 97.786,67.749 66.359,98.28 36.462,127.326 15.665,165.934 8.786,203.346 c -6.879,37.415 0.198,73.74 26.26,97.916 28.719,26.641 53.625,28.939 76.056,22.281 22.432,-6.658 42.46,-22.075 61.969,-30.626 18.913,-8.288 63.788,-28.323 106.234,-28.323 l 37.384,0 c 42.446,0 87.32,20.035 106.233,28.323 19.509,8.551 39.509,23.969 61.938,30.626 22.432,6.658 47.37,4.358 76.087,-22.281 26.063,-24.178 33.139,-60.504 26.261,-97.916 C 580.325,165.934 559.528,127.326 529.63,98.28 469.623,39.984 380.484,19.323 305.977,19.323 l -16.001,0 0.018,0.002 z m 124.053,16.897 c 41.978,12.164 82.317,32.418 114.253,63.435 29.607,28.762 50.237,67.05 57.035,104.023 6.798,36.969 -0.202,72.538 -25.691,96.184 -28.357,26.306 -52.246,28.379 -74.201,21.863 -21.954,-6.518 -41.894,-21.841 -61.729,-30.536 -18.892,-8.279 -63.965,-28.502 -107.009,-28.502 l -37.385,0 c -43.046,0 -88.12,20.223 -107.008,28.502 -19.837,8.695 -39.777,24.02 -61.73,30.536 -21.965,6.518 -45.855,4.44 -74.214,-21.869 C 10.88,276.218 3.88,240.645 10.677,203.673 17.474,166.713 38.104,128.421 67.711,99.661 98.868,69.393 138.002,49.32 178.873,37.063 c 0.767,-0.236 1.52,-0.136 1.944,0.359 0,0 7.848,8.877 11.366,12.143 1.62,1.504 3.358,3.704 6.31,5.114 2.953,1.41 7.066,1.94 13.279,0.449 11.911,-2.858 57.564,-8.943 74.83,-8.943 l 22.79,0 c 17.265,0 62.918,6.084 74.829,8.943 6.214,1.491 10.328,0.961 13.279,-0.449 2.953,-1.41 4.691,-3.61 6.311,-5.114 3.538,-3.284 11.306,-12.382 11.306,-12.382 l -1.076,-0.958 0.006,-0.003 z"
           id="path7-0"
           inkscape:connector-curvature="0"
           style="fill:#f4f4f4" /><path
           d="m 419.167,66.489 c -23.602,0.603 -45.641,9.221 -61.76,26.229 -36.844,38.876 -28.561,106.501 18.155,151.061 46.713,44.563 114.464,49.433 151.301,10.558 36.843,-38.876 28.59,-106.501 -18.126,-151.061 -26.28,-25.068 -59.231,-37.563 -89.57,-36.789 l 0,0.002 z m 0.149,1.914 c 29.785,-0.746 62.181,11.514 88.109,36.249 46.096,43.972 54.016,110.405 18.034,148.373 C 489.477,290.991 422.968,286.379 376.876,242.408 330.78,198.435 322.828,132.002 358.812,94.035 374.556,77.424 396.15,68.983 419.316,68.403 Z"
           id="path9-8"
           inkscape:connector-curvature="0"
           style="fill:#f4f4f4" /><path
           d="m 426.575,89.249 c -18.995,0.519 -36.874,7.615 -50.007,21.534 -25.401,26.924 -24.646,70.421 -0.718,104.165 l 1.561,-1.099 c -23.492,-33.134 -24.143,-75.587 0.539,-101.745 22.683,-24.043 60.07,-27.231 92.385,-10.528 l 0.87,-1.707 C 456.792,92.42 441.355,88.848 426.578,89.251 l -0.003,-0.002 z"
           id="path11-3"
           inkscape:connector-curvature="0"
           style="fill:#f4f4f4" /><path
           d="m 497.675,119.423 -1.35,1.35 c 8.043,8.122 14.432,17.2 19.141,26.708 l 1.732,-0.871 c -4.801,-9.692 -11.342,-18.919 -19.529,-27.186 l 0.006,0 z"
           id="path13-2"
           inkscape:connector-curvature="0"
           style="fill:#f4f4f4" /><path
           d="m 525.036,191.863 c -0.902,16.388 -6.89,31.783 -18.214,43.785 -22.895,24.266 -60.765,27.285 -93.283,10.049 l -0.896,1.704 c 33.144,17.569 72.021,14.537 95.585,-10.438 11.657,-12.346 17.792,-28.224 18.721,-45.001 l -1.914,-0.09 10e-4,-0.009 z"
           id="path15-5"
           inkscape:connector-curvature="0"
           style="fill:#f4f4f4" /><path
           d="m 142.004,108.958 c -31.77,0 -57.542,25.772 -57.542,57.542 0,31.771 25.772,57.543 57.542,57.543 31.771,0 57.543,-25.772 57.543,-57.543 0,-31.769 -25.773,-57.542 -57.543,-57.542 z m 0,1.915 c 30.737,0 55.629,24.892 55.629,55.628 0,30.737 -24.892,55.629 -55.629,55.629 -30.736,0 -55.628,-24.892 -55.628,-55.629 -0.001,-30.736 24.892,-55.628 55.628,-55.628 z"
           id="circle17"
           inkscape:connector-curvature="0"
           style="fill:#f4f4f4" /><path
           d="m 144.311,116.792 c -4.056,-0.187 -8.025,0.124 -11.843,0.867 -0.01,0.002 -0.02,-0.002 -0.03,0 l 0,0.03 c -0.575,0.104 -1.19,0.401 -1.555,0.927 -0.372,0.539 -0.502,1.207 -0.538,1.974 l -0.748,15.761 c -0.243,5.26 -1.778,9.063 -4.486,11.544 -2.708,2.482 -6.679,3.714 -11.993,3.47 l -15.462,-0.718 c -0.775,-0.035 -1.378,-0.049 -2.003,0.209 -0.626,0.258 -1.108,0.842 -1.346,1.465 l 0,0.06 0,0.029 c -1.106,3.758 -1.786,7.699 -1.974,11.784 -0.179,3.901 0.094,7.711 0.778,11.395 l 0,0.03 c 0.298,1.385 1.644,2.486 3.499,2.572 l 15.313,0.688 c 5.126,0.234 8.929,1.867 11.425,4.695 2.497,2.827 3.75,6.948 3.499,12.381 l -0.658,14.565 c -0.043,0.931 0.011,1.653 0.299,2.303 0.288,0.651 0.848,1.129 1.436,1.376 l 0.06,0.029 0.06,0 c 3.726,1.087 7.616,1.76 11.664,1.945 3.958,0.183 7.841,-0.102 11.575,-0.809 l 0.03,0 0.03,-0.029 c 0.64,-0.161 1.282,-0.525 1.705,-1.137 0.422,-0.61 0.614,-1.392 0.658,-2.333 l 0.688,-14.505 c 0.246,-5.325 1.882,-9.339 4.606,-11.993 2.724,-2.652 6.568,-3.993 11.455,-3.769 l 15.672,0.718 c 0.858,0.041 1.581,0.045 2.273,-0.299 0.692,-0.342 1.157,-1.013 1.436,-1.794 l 0,-0.03 0,-0.03 c 1.035,-3.632 1.673,-7.46 1.854,-11.394 0.182,-3.951 -0.104,-7.817 -0.808,-11.544 l 0,-0.029 -0.047,-0.058 c -0.163,-0.536 -0.411,-1.129 -0.928,-1.585 -0.516,-0.456 -1.244,-0.709 -2.093,-0.748 l -16.174,-0.746 c -4.832,-0.223 -8.54,-1.816 -11.007,-4.546 -2.467,-2.73 -3.76,-6.664 -3.529,-11.694 l 0.717,-15.433 c 0.034,-0.73 0.122,-1.362 -0.06,-2.034 -0.181,-0.672 -0.807,-1.309 -1.555,-1.556 l -0.03,0 c -3.782,-1.122 -7.757,-1.814 -11.873,-2.004 l 0.008,0 z m -0.09,1.914 c 3.961,0.182 7.789,0.866 11.426,1.944 0.233,0.074 0.227,0.055 0.27,0.209 0.046,0.173 0.034,0.694 0,1.435 l -0.718,15.433 c -0.249,5.405 1.18,9.908 4.038,13.07 2.857,3.162 7.106,4.933 12.322,5.174 l 16.18,0.748 c 0.548,0.025 0.784,0.143 0.927,0.27 0.136,0.12 0.223,0.355 0.329,0.688 0.005,0.018 0.024,0.012 0.03,0.03 0.659,3.546 0.921,7.217 0.748,10.976 -0.173,3.767 -0.779,7.412 -1.765,10.886 -0.196,0.551 -0.287,0.64 -0.449,0.719 -0.161,0.08 -0.585,0.155 -1.346,0.119 l -15.672,-0.718 c -5.29,-0.242 -9.749,1.247 -12.891,4.307 -3.141,3.062 -4.913,7.603 -5.173,13.279 l -0.689,14.5 c -0.033,0.715 -0.184,1.137 -0.329,1.346 -0.146,0.211 -0.287,0.28 -0.598,0.359 -3.57,0.671 -7.278,0.952 -11.065,0.777 -3.862,-0.177 -7.57,-0.795 -11.125,-1.825 -0.01,-10e-4 -0.021,0.004 -0.03,0 -0.289,-0.123 -0.339,-0.178 -0.419,-0.358 -0.084,-0.188 -0.157,-0.665 -0.12,-1.466 l 0.658,-14.565 c 0.267,-5.773 -1.081,-10.445 -3.978,-13.728 -2.896,-3.28 -7.279,-5.071 -12.771,-5.323 l -15.313,-0.718 c -1.217,-0.056 -1.59,-0.529 -1.705,-1.017 -0.002,-0.009 0.002,-0.021 0,-0.03 -0.653,-3.531 -0.919,-7.202 -0.748,-10.947 0.18,-3.908 0.802,-7.681 1.854,-11.274 0.012,-0.031 0.02,-0.003 0.03,-0.03 0.002,-0.01 -0.003,-0.021 0,-0.03 0.091,-0.223 0.137,-0.287 0.239,-0.329 0.119,-0.049 0.53,-0.092 1.226,-0.06 l 15.433,0.718 c 5.654,0.26 10.204,-1.078 13.369,-3.978 3.165,-2.899 4.856,-7.295 5.115,-12.891 l 0.748,-15.732 c 0.026,-0.558 0.134,-0.849 0.209,-0.957 0.075,-0.108 0.085,-0.145 0.299,-0.18 l 0.03,0 c 3.678,-0.718 7.513,-1.018 11.425,-0.837 l 0,0.006 z"
           id="path19-0"
           inkscape:connector-curvature="0"
           style="fill:#f4f4f4" /><path
           d="m 142.004,154.987 c -6.336,0 -11.484,5.178 -11.484,11.514 0,6.336 5.148,11.484 11.484,11.484 6.337,0 11.485,-5.148 11.485,-11.484 0,-6.336 -5.148,-11.514 -11.485,-11.514 z m 0,1.914 c 5.303,0 9.571,4.298 9.571,9.6 0,5.303 -4.268,9.57 -9.571,9.57 -5.302,0 -9.57,-4.268 -9.57,-9.57 0,-5.302 4.268,-9.6 9.57,-9.6 z"
           id="circle21"
           inkscape:connector-curvature="0"
           style="fill:#f4f4f4" /><path
           d="m 109.857,131.214 0.568,1.914 1.884,6.34 0.449,1.466 1.106,-1.047 4.247,-3.858 1.137,-1.017 -1.406,-0.568 -6.161,-2.482 -1.824,-0.748 0,0 z m 2.961,3.26 2.901,1.167 -2.034,1.824 -0.867,-2.991 z"
           id="polygon23-1"
           inkscape:connector-curvature="0"
           style="fill:#f4f4f4" /><path
           d="m 110.518,189.259 -0.568,1.406 -2.483,6.131 -0.717,1.854 1.884,-0.568 6.341,-1.885 1.465,-0.448 -1.017,-1.137 -3.888,-4.217 -1.017,-1.136 0,0 z m 0.627,3.529 1.825,2.004 -2.991,0.897 1.166,-2.901 0,0 z"
           id="polygon25"
           inkscape:connector-curvature="0"
           style="fill:#f4f4f4" /><path
           d="m 171.252,192.072 -1.107,1.017 -4.247,3.858 -1.137,1.017 1.436,0.599 6.131,2.452 1.854,0.748 -0.598,-1.914 -1.885,-6.341 -0.447,-1.436 0,0 z m -0.958,3.44 0.898,2.991 -2.9,-1.167 2.002,-1.824 0,0 z"
           id="polygon27"
           inkscape:connector-curvature="0"
           style="fill:#f4f4f4" /><path
           d="m 177.3,134.324 -1.914,0.568 -6.34,1.914 -1.466,0.419 1.017,1.136 3.888,4.247 1.017,1.107 0.568,-1.406 2.482,-6.131 0.748,-1.854 0,0 z m -3.29,2.991 -1.136,2.871 -1.825,-2.003 2.961,-0.868 0,0 z"
           id="polygon29"
           inkscape:connector-curvature="0"
           style="fill:#f4f4f4" /><path
           d="m 402.055,195.001 c -15.183,0 -27.516,12.333 -27.516,27.516 0,15.183 12.333,27.515 27.516,27.515 15.183,0 27.485,-12.332 27.485,-27.515 0,-15.183 -12.303,-27.516 -27.485,-27.516 z m 0,1.915 c 14.148,0 25.571,11.452 25.571,25.601 0,14.149 -11.423,25.601 -25.571,25.601 -14.148,0 -25.602,-11.452 -25.602,-25.601 0,-14.149 11.453,-25.601 25.602,-25.601 z"
           id="circle31-8"
           inkscape:connector-curvature="0"
           style="fill:#f4f4f4" /><path
           d="m 452.894,164.232 c -15.182,0 -27.516,12.332 -27.516,27.515 0,15.184 12.334,27.515 27.516,27.515 15.184,0 27.486,-12.331 27.486,-27.515 0,-15.183 -12.303,-27.515 -27.486,-27.515 z m 0,1.914 c 14.147,0 25.572,11.453 25.572,25.601 0,14.148 -11.425,25.601 -25.572,25.601 -14.147,0 -25.602,-11.452 -25.602,-25.601 0,-14.149 11.454,-25.601 25.602,-25.601 z"
           id="circle33"
           inkscape:connector-curvature="0"
           style="fill:#f4f4f4" /><path
           d="m 507.925,144.814 c -15.184,0 -27.516,12.333 -27.516,27.515 0,15.182 12.332,27.486 27.516,27.486 15.183,0 27.515,-12.304 27.515,-27.486 0,-15.182 -12.333,-27.515 -27.515,-27.515 z m 0,1.914 c 14.147,0 25.601,11.453 25.601,25.601 0,14.148 -11.454,25.571 -25.601,25.571 -14.148,0 -25.602,-11.423 -25.602,-25.571 0,-14.148 11.453,-25.601 25.602,-25.601 z"
           id="circle35"
           inkscape:connector-curvature="0"
           style="fill:#f4f4f4" /><path
           d="m 382.282,136.057 c -11.069,0 -20.068,8.999 -20.068,20.068 0,11.07 8.999,20.068 20.068,20.068 11.069,0 20.068,-8.999 20.068,-20.068 10e-4,-11.069 -8.998,-20.068 -20.068,-20.068 z m 0,1.914 c 10.035,0 18.154,8.12 18.154,18.154 0,10.034 -8.119,18.154 -18.154,18.154 -10.036,0 -18.154,-8.12 -18.154,-18.154 0,-10.035 8.118,-18.154 18.154,-18.154 z"
           id="circle37"
           inkscape:connector-curvature="0"
           style="fill:#f4f4f4" /><path
           d="m 428.91,111.771 c -11.07,0 -20.039,8.999 -20.039,20.068 0,11.069 8.969,20.068 20.039,20.068 11.069,0 20.067,-8.999 20.067,-20.068 0,-11.069 -8.998,-20.068 -20.067,-20.068 z m 0,1.914 c 10.035,0 18.153,8.119 18.153,18.154 0,10.035 -8.118,18.154 -18.153,18.154 -10.035,0 -18.126,-8.12 -18.126,-18.154 0,-10.035 8.091,-18.154 18.126,-18.154 z"
           id="circle39"
           inkscape:connector-curvature="0"
           style="fill:#f4f4f4" /><path
           d="m 478.141,98.491 c -11.069,0 -20.068,8.999 -20.068,20.068 0,11.069 8.999,20.069 20.068,20.069 11.069,0 20.068,-9 20.068,-20.069 0,-11.069 -8.999,-20.068 -20.068,-20.068 z m 0,1.914 c 10.034,0 18.154,8.12 18.154,18.154 0,10.035 -8.118,18.155 -18.154,18.155 -10.034,0 -18.153,-8.12 -18.153,-18.155 -10e-4,-10.034 8.118,-18.154 18.153,-18.154 z"
           id="circle41"
           inkscape:connector-curvature="0"
           style="fill:#f4f4f4" /><path
           d="m 272.432,147.005 c -4.586,0 -8.314,3.729 -8.314,8.315 0,4.586 3.729,8.314 8.314,8.314 l 34.155,0 c 4.587,0 8.345,-3.729 8.345,-8.314 0,-4.585 -3.758,-8.315 -8.345,-8.315 l -34.155,0 z m 0,1.914 34.155,0 c 3.553,0 6.431,2.849 6.431,6.4 0,3.551 -2.878,6.4 -6.431,6.4 l -34.155,0 c -3.551,0 -6.4,-2.849 -6.4,-6.4 -10e-4,-3.551 2.849,-6.4 6.4,-6.4 z"
           id="path43"
           inkscape:connector-curvature="0"
           style="fill:#f4f4f4" /><path
           d="m 272.432,143.11 c -6.732,0 -12.202,5.47 -12.202,12.202 0,6.733 5.47,12.202 12.202,12.202 l 34.155,0 c 6.732,0 12.203,-5.469 12.203,-12.202 0,-6.732 -5.471,-12.202 -12.203,-12.202 l -34.155,0 z m 0,1.914 34.155,0 c 5.697,0 10.288,4.59 10.288,10.288 0,5.698 -4.591,10.288 -10.288,10.288 l -34.155,0 c -5.698,0 -10.288,-4.59 -10.288,-10.288 0,-5.698 4.59,-10.288 10.288,-10.288 z"
           id="path45"
           inkscape:connector-curvature="0"
           style="fill:#f4f4f4" /><path
           d="m 183.282,35.116 c -0.093,0.077 -0.288,0.203 -0.538,0.299 -0.5,0.193 -1.209,0.285 -1.465,0.269 l -0.12,1.914 c 0.715,0.044 1.514,-0.096 2.273,-0.389 0.38,-0.146 0.748,-0.33 1.078,-0.598 0.329,-0.269 0.677,-0.678 0.718,-1.256 l -1.915,-0.149 c 0.01,-0.153 0.063,-0.167 -0.031,-0.09 l 0,0 z"
           id="path47"
           inkscape:connector-curvature="0"
           style="fill:#f4f4f4" /></g></g></g></svg>