<?xml version="1.0" encoding="UTF-8" standalone="no"?>
<!-- Generator: Adobe Illustrator 13.0.0, SVG Export Plug-In . SVG Version: 6.00 Build 14948)  -->

<svg
   xmlns:dc="http://purl.org/dc/elements/1.1/"
   xmlns:cc="http://creativecommons.org/ns#"
   xmlns:rdf="http://www.w3.org/1999/02/22-rdf-syntax-ns#"
   xmlns:svg="http://www.w3.org/2000/svg"
   xmlns="http://www.w3.org/2000/svg"
   xmlns:sodipodi="http://sodipodi.sourceforge.net/DTD/sodipodi-0.dtd"
   xmlns:inkscape="http://www.inkscape.org/namespaces/inkscape"
   version="1.1"
   id="Layer_2"
   x="0px"
   y="0px"
   width="550"
   height="550"
   viewBox="0 0 549.99995 549.99999"
   enable-background="new 0 0 598.189 350.26"
   xml:space="preserve"
   inkscape:version="0.91 r13725"
   sodipodi:docname="controller_gg.svg"><metadata
     id="metadata3083"><rdf:RDF><cc:Work
         rdf:about=""><dc:format>image/svg+xml</dc:format><dc:type
           rdf:resource="http://purl.org/dc/dcmitype/StillImage" /><dc:title></dc:title></cc:Work></rdf:RDF></metadata><defs
     id="defs3081" /><sodipodi:namedview
     pagecolor="#ffffff"
     bordercolor="#666666"
     borderopacity="1"
     objecttolerance="10"
     gridtolerance="10"
     guidetolerance="10"
     inkscape:pageopacity="0"
     inkscape:pageshadow="2"
     inkscape:window-width="1920"
     inkscape:window-height="1001"
     id="namedview3079"
     showgrid="false"
     inkscape:zoom="0.76362314"
     inkscape:cx="-12.385931"
     inkscape:cy="379.82954"
     inkscape:window-x="-9"
     inkscape:window-y="-9"
     inkscape:window-maximized="1"
     inkscape:current-layer="g12192"
     showguides="true"
     inkscape:guide-bbox="true" /><g
     inkscape:groupmode="layer"
     id="layer2"
     inkscape:label="Screen_Rect"
     style="display:none"
     transform="translate(0,199.73999)"
     sodipodi:insensitive="true"><path
       style="fill:#0000ff;stroke:#000000;stroke-width:1px;stroke-linecap:butt;stroke-linejoin:miter;stroke-opacity:1"
       d="M 5.0135033,547.22203 136.4109,114.39023 653.54628,-189.09358 406.482,260.92121 Z"
       id="path3021"
       inkscape:connector-curvature="0"
       transform="translate(-2e-5,-199.73999)"
       sodipodi:nodetypes="ccccc" /><rect
       style="opacity:0.60100002;fill:#d8201f;fill-opacity:1;stroke:#ff8080;stroke-width:2.45114732;stroke-linecap:round;stroke-linejoin:round;stroke-miterlimit:4;stroke-dasharray:none;stroke-opacity:1"
       id="rect4230"
       width="444.2457"
       height="9.9567661"
       x="145.95099"
       y="-211.30678" /></g><g
     inkscape:groupmode="layer"
     id="layer1"
     inkscape:label="Controller_Vorlage"
     style="display:none"
     sodipodi:insensitive="true"><g
       id="g4929"
       transform="translate(-0.929149,0.5695451)"><g
         transform="translate(0,199.73999)"
         style="display:none"
         inkscape:label="Layer2"
         id="layer2-9"><path
           sodipodi:nodetypes="ccccc"
           transform="translate(-2e-5,-199.73999)"
           inkscape:connector-curvature="0"
           id="path3021-0"
           d="M 5.0135033,547.22203 136.4109,114.39023 653.54628,-189.09358 406.482,260.92121 Z"
           style="fill:#ffffff;stroke:#000000;stroke-width:1px;stroke-linecap:butt;stroke-linejoin:miter;stroke-opacity:1" /></g><g
         inkscape:label="Layer"
         id="layer1-2"><g
           transform="matrix(0.55322035,-0.3970343,-0.34863416,0.85569517,173.63773,166.52161)"
           id="g3100"><path
             style="fill:#f4f4f4"
             inkscape:connector-curvature="0"
             id="path3"
             d="m 148.05,114.447 c -23.656,0 -42.861,19.204 -42.861,42.861 l 0,37.414 c 0,23.658 19.205,42.86 42.861,42.86 l 38.694,0 c 23.656,0 42.861,-19.202 42.861,-42.86 l 0,-37.414 c 0,-23.657 -19.205,-42.861 -42.861,-42.861 l -38.694,0 z m 0,1.905 38.694,0 c 22.627,0 40.956,18.328 40.956,40.956 l 0,37.414 c 0,22.629 -18.329,40.956 -40.956,40.956 l -38.694,0 c -22.628,0 -40.956,-18.327 -40.956,-40.956 l 0,-37.414 c 0,-22.629 18.328,-40.956 40.956,-40.956 z" /><path
             style="fill:#f4f4f4"
             inkscape:connector-curvature="0"
             id="path5"
             d="m 167.395,123.168 c -3.23,0 -5.863,2.633 -5.863,5.864 l 0,13.037 c 0,3.23 2.632,5.863 5.863,5.863 3.23,0 5.863,-2.633 5.863,-5.863 l 0,-13.037 c 0,-3.23 -2.633,-5.864 -5.863,-5.864 z m 0,1.906 c 2.201,0 3.958,1.758 3.958,3.958 l 0,13.037 c 0,2.2 -1.758,3.958 -3.958,3.958 -2.202,0 -3.958,-1.758 -3.958,-3.958 l 0,-13.037 c -0.001,-2.2 1.757,-3.958 3.958,-3.958 z" /><path
             style="fill:#f4f4f4"
             inkscape:connector-curvature="0"
             id="path7"
             d="m 120.425,170.135 c -3.23,0 -5.864,2.633 -5.864,5.864 0,3.231 2.632,5.894 5.864,5.894 l 13.037,0 c 3.229,0 5.864,-2.662 5.864,-5.894 0,-3.229 -2.633,-5.864 -5.864,-5.864 l -13.037,0 z m 0,1.905 13.037,0 c 2.201,0 3.959,1.759 3.959,3.959 0,2.201 -1.759,3.988 -3.959,3.988 l -13.037,0 c -2.198,-0.01 -3.955,-1.791 -3.955,-3.99 0,-2.201 1.758,-3.959 3.958,-3.959 l -0.003,0.002 z" /><path
             style="fill:#f4f4f4"
             inkscape:connector-curvature="0"
             id="path9"
             d="m 167.395,204.071 c -3.23,0 -5.863,2.663 -5.863,5.894 l 0,13.038 c 0,3.229 2.632,5.863 5.863,5.863 3.23,0 5.863,-2.633 5.863,-5.863 l 0,-13.038 c 0,-3.23 -2.633,-5.894 -5.863,-5.894 z m 0,1.906 c 2.201,0 3.958,1.789 3.958,3.988 l 0,13.038 c 0,2.2 -1.757,3.958 -3.958,3.958 -2.202,0 -3.958,-1.759 -3.958,-3.958 l 0,-13.038 c -0.001,-2.2 1.757,-3.988 3.958,-3.988 z" /><path
             style="fill:#f4f4f4"
             inkscape:connector-curvature="0"
             id="path11"
             d="m 201.321,170.135 c -3.229,0 -5.863,2.633 -5.863,5.864 0,3.231 2.633,5.894 5.863,5.894 l 13.067,0 c 3.229,0 5.863,-2.662 5.863,-5.894 0,-3.229 -2.633,-5.864 -5.863,-5.864 l -13.067,0 z m 0,1.905 13.067,0 c 2.2,0 3.958,1.76 3.958,3.959 0,2.201 -1.758,3.988 -3.958,3.988 l -13.067,0 c -2.2,0 -3.958,-1.788 -3.958,-3.988 0,-2.2 1.759,-3.959 3.958,-3.959 z" /><path
             style="fill:#f4f4f4"
             inkscape:connector-curvature="0"
             id="polygon13"
             d="m 133.878,141.176 -1.31,1.31 8.155,12.025 0.655,0.952 0.804,-0.803 3.869,-3.87 0.804,-0.804 -0.953,-0.655 -12.024,-8.155 z" /><path
             style="fill:#f4f4f4"
             inkscape:connector-curvature="0"
             id="polygon15"
             d="m 141.383,196.566 -0.654,0.952 -8.156,12.024 1.31,1.31 12.025,-8.155 0.953,-0.654 -0.804,-0.804 -3.87,-3.869 -0.804,-0.804 z" /><path
             style="fill:#f4f4f4"
             inkscape:connector-curvature="0"
             id="polygon17"
             d="m 193.435,196.566 -0.804,0.804 -3.869,3.869 -0.833,0.804 0.953,0.654 12.025,8.155 1.339,-1.31 -8.156,-12.024 -0.655,-0.952 0,0 z" /><path
             style="fill:#f4f4f4"
             inkscape:connector-curvature="0"
             id="polygon19"
             d="m 200.912,141.176 -12.025,8.155 -0.953,0.655 0.833,0.804 3.87,3.87 0.804,0.803 0.655,-0.952 8.155,-12.025 -1.339,-1.31 z" /><path
             style="fill:#f4f4f4"
             inkscape:connector-curvature="0"
             id="path21"
             d="m 146.354,104.833 c -27.67,0 -50.123,22.453 -50.123,50.124 l 0,42.117 c 0,27.671 22.453,50.123 50.123,50.123 l 42.117,0 c 27.671,0 50.124,-22.452 50.124,-50.123 l 0,-42.117 c 0,-27.67 -22.452,-50.124 -50.124,-50.124 l -42.117,0 z m 0,1.906 42.117,0 c 26.644,0 48.219,21.577 48.219,48.218 l 0,42.117 c 0,26.644 -21.577,48.218 -48.219,48.218 l -42.117,0 c -26.642,0 -48.218,-21.574 -48.218,-48.218 l 0,-42.117 c 0,-26.642 21.577,-48.218 48.218,-48.218 z" /><path
             style="fill:#f4f4f4"
             inkscape:connector-curvature="0"
             id="polygon23"
             d="m 69.499,75.694 0,0.952 0,202.961 0,0.952 0.953,0 196.122,0 0.952,0 0,-0.952 0,-26.401 289.521,0 0.952,0 0,-0.952 0,-113.458 0,-0.953 -0.952,0 -289.522,0 0,-61.196 0,-0.952 -0.952,0 -196.122,0 -0.952,-10e-4 0,0 z m 1.904,1.905 194.217,0 0,61.196 0,0.953 0.953,0 0.714,0 288.807,0 0,111.552 -289.226,0 -0.297,0 -0.953,0 0,0.953 0,26.4 -194.217,0 0,-201.055 0.002,0.001 z" /><path
             style="fill:#f4f4f4"
             inkscape:connector-curvature="0"
             id="circle25"
             d="m 400.692,169.126 c -19.762,0 -35.777,16.046 -35.777,35.807 0,19.761 16.018,35.807 35.777,35.807 19.759,0 35.807,-16.046 35.807,-35.807 0,-19.761 -16.047,-35.807 -35.807,-35.807 l 0,0 z m 0,1.905 c 18.73,0 33.901,15.17 33.901,33.902 0,18.732 -15.171,33.902 -33.901,33.902 -18.731,0 -33.872,-15.171 -33.872,-33.902 0,-18.731 15.141,-33.902 33.872,-33.902 l 0,0 z" /><path
             style="fill:#f4f4f4"
             inkscape:connector-curvature="0"
             id="circle27"
             d="m 400.692,177.669 c -15.039,0 -27.234,12.227 -27.234,27.265 0,15.038 12.195,27.234 27.234,27.234 15.036,0 27.264,-12.196 27.264,-27.234 0,-15.038 -12.227,-27.265 -27.264,-27.265 z m 0,1.905 c 14.008,0 25.359,11.351 25.359,25.359 0,14.008 -11.352,25.33 -25.359,25.33 -14.01,0 -25.33,-11.321 -25.33,-25.33 0,-14.009 11.321,-25.359 25.33,-25.359 z" /><path
             style="fill:#f4f4f4"
             inkscape:connector-curvature="0"
             id="circle29"
             d="m 489.919,169.126 c -19.762,0 -35.807,16.046 -35.807,35.807 0,19.761 16.045,35.807 35.807,35.807 19.76,0 35.807,-16.046 35.807,-35.807 0,-19.761 -16.047,-35.807 -35.807,-35.807 l 0,0 z m 0,1.905 c 18.73,0 33.901,15.17 33.901,33.902 0,18.732 -15.171,33.902 -33.901,33.902 -18.731,0 -33.902,-15.171 -33.902,-33.902 0,-18.731 15.171,-33.902 33.902,-33.902 l 0,0 z" /><path
             style="fill:#f4f4f4"
             inkscape:connector-curvature="0"
             id="circle31"
             d="m 489.919,177.669 c -15.039,0 -27.234,12.227 -27.234,27.265 0,15.038 12.195,27.234 27.234,27.234 15.036,0 27.234,-12.196 27.234,-27.234 0,-15.038 -12.196,-27.265 -27.234,-27.265 z m 0,1.905 c 14.008,0 25.329,11.351 25.329,25.359 0,14.008 -11.321,25.33 -25.329,25.33 -14.01,0 -25.33,-11.321 -25.33,-25.33 0,-14.009 11.32,-25.359 25.33,-25.359 z" /><path
             style="fill:#f4f4f4"
             inkscape:connector-curvature="0"
             id="path33"
             d="m 39.406,68.432 c -4.766,0 -8.662,3.896 -8.662,8.662 l 0,203.084 c 0,4.766 3.897,8.661 8.662,8.661 l 518.646,0 c 4.429,0 7.956,-3.411 8.453,-7.709 l 0.179,0 0,-0.952 0,-203.085 c 0,-4.762 -3.868,-8.658 -8.64,-8.658 l -518.645,0 0.007,-0.003 z m 0,1.904 518.646,0 c 3.737,0 6.727,3.021 6.727,6.757 l 0,202.131 0,0.953 c 0,3.736 -2.989,6.756 -6.727,6.756 l -518.646,0 c -3.732,0.01 -6.753,-3.019 -6.753,-6.753 l 0,-203.083 c 0,-3.736 3.02,-6.756 6.756,-6.756 l -0.003,-0.005 z" /><path
             style="fill:#f4f4f4"
             inkscape:connector-curvature="0"
             id="rect35"
             d="m 359.021,163.559 0,0.953 0,81.465 0,0.952 0.953,0 81.465,0 0.953,0 0,-0.952 0,-81.465 0,-0.953 -0.953,0 -81.465,0 -0.953,0 z m 1.906,1.905 79.561,0 0,79.56 -79.561,0 0,-79.56 z" /><path
             style="fill:#f4f4f4"
             inkscape:connector-curvature="0"
             id="rect37"
             d="m 448.248,163.559 0,0.953 0,81.465 0,0.952 0.953,0 81.436,0 0.952,0 0,-0.952 0,-81.465 0,-0.953 -0.952,0 -81.436,0 -0.953,0 z m 1.905,1.905 79.531,0 0,79.56 -79.531,0 0,-79.56 z" /><path
             style="fill:#f4f4f4"
             inkscape:connector-curvature="0"
             id="polyline39"
             d="m 83.934,94.177 0,2.292 0,159.061 0,2.322 1.607,-1.638 25.33,-25.299 -1.369,-1.369 -23.663,23.692 0,-154.45 23.663,23.658 1.369,-1.34 -25.33,-25.299 -1.607,-1.637 0,0.007 z" /><path
             style="fill:#f4f4f4"
             inkscape:connector-curvature="0"
             id="polyline41"
             d="m 222.305,232.551 -1.37,1.339 23.693,23.692 -154.452,0 23.574,-23.573 -1.369,-1.339 -25.181,25.182 -1.637,1.637 2.292,0 159.062,0 2.292,0 -1.607,-1.637 -25.299,-25.3 0.002,-0.001 z" /><path
             style="fill:#f4f4f4"
             inkscape:connector-curvature="0"
             id="polyline43"
             d="m 250.878,94.177 -1.637,1.637 -25.211,25.182 1.369,1.369 23.574,-23.603 0,154.509 -23.633,-23.663 -1.339,1.34 25.24,25.27 1.637,1.638 0,-2.322 0,-159.063 0,-2.292 0,-0.002 z" /><path
             style="fill:#f4f4f4"
             inkscape:connector-curvature="0"
             id="polyline45"
             d="m 85.57,92.54 1.638,1.608 25.21,25.24 1.339,-1.34 -23.572,-23.602 154.452,0 -23.669,23.662 1.333,1.339 25.307,-25.3 1.607,-1.607 -2.292,0 -159.062,0 -2.291,0 0,0 z" /><path
             style="fill:#f4f4f4"
             inkscape:connector-curvature="0"
             id="line47"
             d="m 58.961,69.533 0,218.057 1.905,0 0,-218.057 -1.905,0 z" /><path
             style="fill:#f4f4f4"
             inkscape:connector-curvature="0"
             id="rect49"
             d="m 359.021,145.819 0,0.953 0,13.244 0,0.953 0.953,0 81.465,0 0.953,0 0,-0.953 0,-13.244 0,-0.953 -0.953,0 -81.465,0 -0.953,0 z m 1.906,1.905 79.561,0 0,11.339 -79.561,0 0,-11.339 z" /><path
             style="fill:#f4f4f4"
             inkscape:connector-curvature="0"
             id="rect51"
             d="m 448.248,145.819 0,0.953 0,13.244 0,0.953 0.953,0 81.436,0 0.952,0 0,-0.953 0,-13.244 0,-0.953 -0.952,0 -81.436,0 -0.953,0 z m 1.905,1.905 79.531,0 0,11.339 -79.531,0 0,-11.339 z" /><path
             style="fill:#f4f4f4"
             inkscape:connector-curvature="0"
             id="path53"
             d="m 276.804,73.134 c -0.987,0 -1.815,0.828 -1.815,1.816 l 0,53.01 c 0,0.988 0.829,1.815 1.815,1.815 l 282.855,0 c 0.985,0 1.785,-0.831 1.785,-1.815 l 0,-50.033 c 0,-2.641 -2.152,-4.792 -4.792,-4.792 l -279.844,0 -0.004,0 z m 0.09,1.906 279.756,0 c 1.613,0 2.888,1.275 2.888,2.887 l 0,49.945 -282.643,0 0,-52.832 -10e-4,0 z" /><path
             style="fill:#f4f4f4"
             inkscape:connector-curvature="0"
             id="path55"
             d="m 276.804,260.41 c -0.987,0 -1.815,0.829 -1.815,1.815 l 0,20.091 c 0,0.987 0.829,1.816 1.815,1.816 l 279.844,0 c 2.64,0 4.792,-2.183 4.792,-4.822 l 0,-17.085 c 0,-0.985 -0.8,-1.815 -1.785,-1.815 l -282.855,0 0.004,0 z m 0.09,1.905 282.645,0 0,16.995 c 0,1.611 -1.276,2.917 -2.888,2.917 l -279.758,0 0.001,-19.912 0,0 z" /><path
             style="fill:#f4f4f4"
             inkscape:connector-curvature="0"
             id="line57"
             d="m 274.461,129.271 -6.28,6.28 1.369,1.339 6.251,-6.25 -1.34,-1.369 z" /><path
             style="fill:#f4f4f4"
             inkscape:connector-curvature="0"
             id="line59"
             d="m 269.546,253.866 -1.369,1.34 6.281,6.28 1.339,-1.369 -6.251,-6.251 z" /></g></g></g></g><g
     inkscape:groupmode="layer"
     id="layer4"
     inkscape:label="Controller"><g
       id="g12192"
       transform="matrix(0.52634968,-0.38371487,-0.36199415,0.79024751,151.0404,222.06172)"><g
         id="g17378"
         transform="matrix(0.98983361,0.0204996,0.13119382,0.9645545,9.2638224,-31.030714)"><path
           d="m 213.29,37.7 c -0.172,0 -0.176,0.019 -0.302,0.031 -0.125,0.013 -0.303,0.037 -0.513,0.061 -0.42,0.047 -1.022,0.091 -1.78,0.181 -1.515,0.181 -3.666,0.447 -6.397,0.785 -5.463,0.674 -13.18,1.647 -22.391,2.806 -18.42,2.318 -42.853,5.423 -67.261,8.54 -24.409,3.117 -48.809,6.233 -67.202,8.63 -9.196,1.199 -16.887,2.224 -22.33,2.958 -2.722,0.367 -4.894,0.66 -6.397,0.875 -0.756,0.108 -1.335,0.206 -1.754,0.272 -0.209,0.034 -0.383,0.067 -0.513,0.091 -0.064,0.012 -0.096,0.018 -0.15,0.03 -0.054,0.012 -0.076,-0.011 -0.242,0.06 -4.717,2.012 -8.027,6.72 -8.027,12.161 l 0,211.529 c 0,7.279 5.913,13.189 13.187,13.189 l 554.386,0 c 7.274,0 13.219,-5.914 13.219,-13.187 l 0,-211.529 c 0,-5.224 -3.064,-9.757 -7.484,-11.889 -0.169,-0.082 -0.181,-0.075 -0.241,-0.09 -0.06,-0.015 -0.144,-0.046 -0.211,-0.061 -0.136,-0.027 -0.3,-0.055 -0.514,-0.09 -0.426,-0.071 -1.021,-0.16 -1.78,-0.271 -1.525,-0.224 -3.698,-0.529 -6.431,-0.905 -5.477,-0.75 -13.191,-1.775 -22.423,-2.988 -18.463,-2.426 -42.94,-5.583 -67.438,-8.721 -24.5,-3.138 -49.007,-6.241 -67.508,-8.57 -9.251,-1.164 -17.014,-2.159 -22.512,-2.836 -2.748,-0.339 -4.928,-0.604 -6.457,-0.785 -0.766,-0.091 -1.354,-0.133 -1.78,-0.181 -0.214,-0.024 -0.384,-0.048 -0.514,-0.061 -0.129,-0.013 -0.172,-0.03 -0.332,-0.03 l 0,1.931 c -0.102,0 0.006,-0.011 0.121,0 0.114,0.011 0.304,0.037 0.513,0.061 0.419,0.047 0.988,0.122 1.751,0.211 1.523,0.181 3.711,0.446 6.457,0.785 5.494,0.677 13.261,1.642 22.512,2.807 18.499,2.328 43.006,5.433 67.504,8.57 24.495,3.136 48.98,6.295 67.441,8.721 9.23,1.213 16.957,2.269 22.42,3.018 2.732,0.375 4.896,0.653 6.398,0.875 0.752,0.111 1.349,0.205 1.75,0.272 0.2,0.033 0.354,0.07 0.452,0.09 0.009,0.004 0.021,-0.003 0.029,0 0.03,0.006 0.053,0.028 0.062,0.031 3.703,1.842 6.275,5.682 6.275,10.109 l 0,211.53 c 0,6.229 -5.055,11.257 -11.285,11.257 l -554.387,0 c -6.235,0 -11.259,-5.021 -11.259,-11.261 l 0,-211.532 c 0,-4.636 2.801,-8.62 6.79,-10.35 0.02,-0.004 0.027,0.006 0.06,0 0.101,-0.019 0.252,-0.06 0.453,-0.091 0.401,-0.063 1.003,-0.134 1.75,-0.242 1.495,-0.213 3.648,-0.539 6.367,-0.905 5.437,-0.732 13.104,-1.729 22.3,-2.927 18.391,-2.396 42.794,-5.543 67.203,-8.66 24.408,-3.118 48.842,-6.192 67.261,-8.51 9.21,-1.159 16.901,-2.132 22.36,-2.807 2.73,-0.337 4.918,-0.604 6.427,-0.785 0.755,-0.09 1.338,-0.165 1.75,-0.211 0.206,-0.023 0.372,-0.049 0.483,-0.061 0.112,-0.011 0.24,0 0.121,0 l 0,-1.932 0.013,0.001 z"
           id="path3-8"
           inkscape:connector-curvature="0"
           style="fill:#f4f4f4" /><path
           d="m 216.398,26.625 c -1.261,0 -2.336,0.589 -2.957,1.448 -0.621,0.86 -0.845,1.931 -0.845,2.988 l 0,76.344 c 0,47.394 38.426,85.851 85.82,85.851 47.395,0 85.851,-38.457 85.851,-85.851 l 0,-76.343 c 0,-1.106 -0.23,-2.189 -0.874,-3.048 -0.647,-0.857 -1.729,-1.386 -3.023,-1.386 l -163.974,0 0.002,-0.003 z m 0,1.932 163.975,0 c 0.836,0 1.191,0.222 1.479,0.604 0.285,0.381 0.483,1.058 0.483,1.901 l 0,76.344 c 0,46.351 -37.571,83.919 -83.92,83.919 -46.352,0 -83.889,-37.569 -83.889,-83.919 l 0,-76.344 c 0,-0.759 0.184,-1.457 0.483,-1.871 0.299,-0.413 0.656,-0.632 1.391,-0.632 l -0.002,-0.002 z"
           id="path5-0"
           inkscape:connector-curvature="0"
           style="fill:#f4f4f4" /><path
           d="m 92.498,161.002 c -4.331,0 -8.55,0.531 -12.583,1.509 -19.22,4.655 -34.366,19.741 -39.107,38.926 -1.014,4.105 -1.54,8.379 -1.54,12.795 0,4.242 0.479,8.385 1.418,12.343 4.597,19.377 19.782,34.651 39.108,39.378 4.069,0.996 8.332,1.509 12.704,1.509 4.318,0 8.532,-0.509 12.554,-1.479 19.579,-4.728 34.928,-20.266 39.379,-39.951 0.858,-3.793 1.298,-7.749 1.298,-11.799 0,-4.39 -0.537,-8.652 -1.539,-12.735 -4.708,-19.173 -19.782,-34.252 -38.958,-38.957 -4.079,-1 -8.35,-1.539 -12.735,-1.54 l 0.001,0.001 z m 0,1.932 c 4.229,0.001 8.322,0.515 12.252,1.478 18.474,4.533 33.032,19.067 37.568,37.54 0.966,3.932 1.479,8.049 1.479,12.281 0,3.906 -0.441,7.723 -1.268,11.377 -4.288,18.967 -19.066,33.947 -37.93,38.504 -3.876,0.934 -7.937,1.419 -12.101,1.419 -4.217,0 -8.301,-0.49 -12.221,-1.449 -18.62,-4.555 -33.262,-19.292 -37.689,-37.961 -0.905,-3.813 -1.389,-7.798 -1.389,-11.89 0,-4.26 0.502,-8.385 1.479,-12.34 4.568,-18.486 19.171,-33.024 37.689,-37.51 3.888,-0.942 7.954,-1.448 12.131,-1.449 l 0,0 z"
           id="path7-2"
           inkscape:connector-curvature="0"
           style="fill:#f4f4f4" /><path
           d="m 92.498,161.002 c -4.331,0 -8.55,0.531 -12.583,1.509 l -0.03,0 -0.061,0 c -0.87,0.296 -1.643,0.832 -2.142,1.629 -0.5,0.798 -0.695,1.781 -0.695,2.988 l 0,29.24 c 0,0.939 -0.162,1.525 -0.393,1.811 -0.229,0.285 -0.636,0.543 -1.811,0.543 l -29.39,0 c -1.049,0 -1.952,0.06 -2.776,0.452 -0.824,0.396 -1.426,1.173 -1.78,2.175 l 0,0.028 -0.03,0.062 c -1.014,4.104 -1.539,8.377 -1.539,12.795 0,4.242 0.479,8.384 1.418,12.343 l 0.03,0 c 0.261,1.012 0.713,1.923 1.54,2.474 0.827,0.549 1.859,0.693 3.138,0.693 l 29.361,0 c 0.937,0 1.441,0.18 1.72,0.453 0.279,0.273 0.513,0.816 0.513,1.932 l 0,29.21 c 0,1.397 0.254,2.44 0.785,3.198 0.531,0.757 1.294,1.15 1.931,1.388 l 0.061,0 0.03,0.03 c 4.069,0.995 8.332,1.509 12.704,1.509 4.318,0 8.531,-0.508 12.553,-1.479 l 0.03,0 c 0.789,-0.219 1.57,-0.688 2.112,-1.479 0.542,-0.789 0.815,-1.854 0.815,-3.167 l 0,-29.239 c 0,-0.899 0.223,-1.449 0.543,-1.781 0.32,-0.332 0.851,-0.573 1.871,-0.573 l 29.18,0 c 1.509,0 2.656,-0.388 3.44,-1.115 0.784,-0.729 1.158,-1.668 1.388,-2.565 l 0,-0.029 c 0.858,-3.793 1.297,-7.749 1.297,-11.799 0,-4.389 -0.536,-8.653 -1.539,-12.735 l 0,-0.03 c -0.271,-0.988 -0.768,-1.824 -1.6,-2.263 -0.831,-0.438 -1.761,-0.483 -2.987,-0.483 l -29.15,0 c -1.145,0 -1.681,-0.248 -1.961,-0.543 -0.281,-0.295 -0.483,-0.834 -0.483,-1.811 l 0,-29.239 c 0,-1.164 -0.073,-2.105 -0.513,-2.928 -0.441,-0.823 -1.271,-1.381 -2.233,-1.659 l -0.03,0 c -4.079,-1.001 -8.35,-1.54 -12.735,-1.54 l 0.001,-0.005 z m 0,1.932 c 4.219,0 8.301,0.518 12.222,1.478 0.009,0.002 0.021,-0.002 0.03,0 0.628,0.187 0.848,0.362 1.026,0.694 0.182,0.34 0.302,0.987 0.302,2.022 l 0,29.24 c 0,1.217 0.225,2.357 0.996,3.169 0.771,0.81 1.956,1.116 3.38,1.116 l 29.15,0 c 1.144,0 1.797,0.121 2.082,0.271 0.279,0.146 0.436,0.316 0.634,1.026 0.002,0.009 -0.002,0.02 0,0.029 0.961,3.925 1.479,8.028 1.479,12.252 0,3.906 -0.442,7.723 -1.268,11.377 -0.19,0.726 -0.421,1.261 -0.784,1.599 -0.372,0.346 -0.949,0.604 -2.143,0.604 l -29.18,0 c -1.349,0 -2.489,0.377 -3.259,1.177 -0.771,0.799 -1.086,1.903 -1.086,3.108 l 0,29.24 c 0,1.038 -0.216,1.693 -0.482,2.08 -0.268,0.389 -0.607,0.57 -1.057,0.693 -3.858,0.928 -7.896,1.42 -12.041,1.42 -4.184,0 -8.237,-0.475 -12.13,-1.42 -0.016,-0.006 -0.013,-0.022 -0.03,-0.028 -0.448,-0.172 -0.739,-0.342 -0.965,-0.664 -0.234,-0.334 -0.453,-0.929 -0.453,-2.081 l 0,-29.211 c 0,-1.389 -0.302,-2.52 -1.086,-3.29 -0.785,-0.769 -1.889,-1.024 -3.078,-1.024 l -29.363,0 c -1.101,0 -1.712,-0.168 -2.052,-0.393 -0.338,-0.229 -0.556,-0.529 -0.754,-1.298 -0.905,-3.813 -1.389,-7.798 -1.389,-11.89 0,-4.228 0.486,-8.322 1.449,-12.252 l 0.03,0 c 0.251,-0.711 0.445,-0.924 0.785,-1.086 0.339,-0.162 0.964,-0.242 1.931,-0.242 l 29.392,0 c 1.482,0 2.629,-0.379 3.32,-1.236 0.689,-0.857 0.814,-1.948 0.814,-3.048 l 0,-29.24 c 0,-0.992 0.158,-1.586 0.393,-1.962 0.227,-0.362 0.557,-0.586 1.116,-0.785 0.018,-0.005 0.012,-0.023 0.03,-0.03 3.858,-0.925 7.895,-1.415 12.039,-1.415 l 0,0 z"
           id="path9-7"
           inkscape:connector-curvature="0"
           style="fill:#f4f4f4" /><path
           d="m 92.498,199.841 c -7.934,0 -14.393,6.459 -14.393,14.393 0,7.936 6.459,14.395 14.393,14.395 7.935,0 14.394,-6.46 14.394,-14.395 0,-7.935 -6.46,-14.393 -14.394,-14.393 z m 0,1.93 c 6.891,0 12.463,5.571 12.463,12.463 0,6.891 -5.572,12.461 -12.463,12.461 -6.89,0 -12.462,-5.57 -12.462,-12.461 0,-6.892 5.572,-12.463 12.462,-12.463 z"
           id="circle11"
           inkscape:connector-curvature="0"
           style="fill:#f4f4f4" /><path
           d="m 61.658,82.873 c -7.274,0 -13.188,5.913 -13.188,13.187 l 0,56.188 c 0,3.152 0.652,5.452 1.75,7.091 1.099,1.638 2.657,2.532 4.255,2.897 3.186,0.727 6.448,-0.42 8.178,-1.479 0.008,-0.005 0.022,0.005 0.03,0 8.826,-4.934 18.98,-7.755 29.814,-7.755 33.825,0 61.227,27.401 61.227,61.226 0,20.45 -10.012,38.551 -25.408,49.67 l -0.091,0.061 -0.06,0.092 -1.811,2.021 -0.061,0.061 c -1.822,1.854 -2.957,4.413 -2.957,7.212 0,5.66 4.601,10.261 10.259,10.261 l 7.967,0 335.854,0 0.966,0 28.004,0 c 25.572,0 46.319,-20.748 46.319,-46.32 0,-9.213 -2.69,-17.801 -7.332,-25.016 -0.006,-0.011 0.006,-0.021 0,-0.029 -0.447,-0.754 -0.634,-0.952 -0.634,-2.958 l 0,-113.222 c 0,-7.274 -5.914,-13.187 -13.188,-13.187 l -111.438,0 c -4.325,0 -7.789,1.727 -10.081,4.497 -2.289,2.77 -3.439,6.53 -3.439,10.651 l 0,8.872 c 0,59.757 -48.423,108.15 -108.18,108.15 -59.756,0 -108.179,-48.394 -108.179,-108.15 l 0,-8.872 c 0,-4.372 -0.792,-8.106 -2.776,-10.833 -1.989,-2.721 -5.185,-4.31 -9.482,-4.31 l -116.33,0 0.012,-0.006 z m 0,1.931 116.329,0 c 3.852,0 6.311,1.266 7.937,3.5 1.626,2.235 2.384,5.583 2.384,9.716 l 0,8.872 c 0,60.8 49.312,110.082 110.11,110.082 60.8,0 110.111,-49.282 110.111,-110.082 l 0,-8.872 c 0,-3.764 1.047,-7.098 2.986,-9.445 1.941,-2.342 4.779,-3.767 8.604,-3.767 l 111.442,0 c 6.229,0 11.256,5.025 11.256,11.255 l 0,113.22 c 0,2.224 0.438,3.192 0.904,3.983 l 0.03,0 0,0.029 c 4.456,6.92 7.031,15.143 7.031,23.989 0,24.528 -19.859,44.39 -44.39,44.39 l -27.038,0 -0.966,0 -336.817,0 -7.967,0 c -4.615,0 -8.329,-3.714 -8.329,-8.328 0,-2.308 0.935,-4.373 2.444,-5.885 l 0.03,-0.029 0,-0.031 1.69,-1.932 c 0.022,-0.016 0.037,-0.044 0.06,-0.06 15.841,-11.474 26.163,-30.128 26.163,-51.179 0,-34.869 -28.29,-63.158 -63.158,-63.158 -11.178,0 -21.7,2.929 -30.809,8.027 l -0.03,0 c -1.27,0.781 -4.339,1.82 -6.76,1.268 -1.21,-0.276 -2.257,-0.888 -3.078,-2.112 -0.821,-1.225 -1.418,-3.111 -1.418,-6.005 l 0,-56.185 c -0.006,-6.227 5.019,-11.252 11.25,-11.252 l -10e-4,-0.009 z"
           id="path13"
           inkscape:connector-curvature="0"
           style="fill:#f4f4f4" /><path
           d="m 442.028,209.824 c -16.033,0 -29.061,13.026 -29.061,29.061 0,16.031 13.026,29.06 29.061,29.06 16.03,0 29.026,-13.027 29.026,-29.06 0.002,-16.032 -12.993,-29.061 -29.026,-29.061 z m 0,1.932 c 14.987,0 27.097,12.14 27.097,27.129 0,14.987 -12.11,27.128 -27.097,27.128 -14.99,0 -27.128,-12.141 -27.128,-27.128 0,-14.989 12.138,-27.129 27.128,-27.129 z"
           id="circle15"
           inkscape:connector-curvature="0"
           style="fill:#f4f4f4" /><path
           d="m 442.028,214.257 c -13.587,0 -24.623,11.038 -24.623,24.624 0,13.585 11.036,24.622 24.623,24.622 13.585,0 24.622,-11.037 24.622,-24.622 0,-13.586 -11.037,-24.624 -24.622,-24.624 z m 0,1.931 c 12.54,0 22.689,10.149 22.689,22.691 0,12.541 -10.149,22.691 -22.689,22.691 -12.542,0 -22.692,-10.15 -22.692,-22.691 0,-12.541 10.15,-22.691 22.692,-22.691 z"
           id="circle17"
           inkscape:connector-curvature="0"
           style="fill:#f4f4f4" /><path
           d="m 442.028,202.312 c -20.189,0 -36.574,16.385 -36.574,36.573 0,20.19 16.385,36.573 36.574,36.573 l 67.684,0 c 20.189,0 36.573,-16.383 36.573,-36.573 0,-20.188 -16.384,-36.573 -36.573,-36.573 l -67.684,0 z m 0,1.931 67.684,0 c 19.146,0 34.642,15.494 34.642,34.642 0,19.148 -15.494,34.642 -34.642,34.642 l -67.684,0 c -19.146,0 -34.643,-15.493 -34.643,-34.642 0.002,-19.147 15.497,-34.642 34.643,-34.642 z"
           id="path19"
           inkscape:connector-curvature="0"
           style="fill:#f4f4f4" /><path
           d="m 509.708,209.824 c -16.031,0 -29.06,13.026 -29.06,29.061 0,16.031 13.027,29.06 29.06,29.06 16.033,0 29.029,-13.027 29.029,-29.06 0,-16.033 -12.997,-29.061 -29.029,-29.061 z m 0,1.932 c 14.989,0 27.098,12.14 27.098,27.129 0,14.987 -12.109,27.128 -27.098,27.128 -14.989,0 -27.129,-12.141 -27.129,-27.128 0,-14.989 12.141,-27.129 27.129,-27.129 z"
           id="circle21"
           inkscape:connector-curvature="0"
           style="fill:#f4f4f4" /><path
           d="m 509.708,214.257 c -13.586,0 -24.624,11.038 -24.624,24.624 0,13.585 11.038,24.622 24.624,24.622 13.586,0 24.624,-11.037 24.624,-24.622 0,-13.586 -11.038,-24.624 -24.624,-24.624 z m 0,1.931 c 12.541,0 22.692,10.149 22.692,22.691 0,12.541 -10.151,22.691 -22.692,22.691 -12.541,0 -22.693,-10.15 -22.693,-22.691 0,-12.541 10.152,-22.691 22.693,-22.691 z"
           id="circle23"
           inkscape:connector-curvature="0"
           style="fill:#f4f4f4" /><path
           d="m 251.287,229.522 c -4.974,0 -9.022,4.078 -9.022,9.054 0,4.975 4.049,9.022 9.022,9.022 l 25.167,0 c 4.974,0 9.022,-4.05 9.022,-9.022 0,-4.976 -4.048,-9.054 -9.022,-9.054 l -25.167,0 z m 0,1.932 25.167,0 c 3.93,0 7.091,3.189 7.091,7.122 0,3.93 -3.161,7.091 -7.091,7.091 l -25.167,0 c -3.93,0 -7.092,-3.16 -7.092,-7.091 0,-3.931 3.161,-7.122 7.092,-7.122 z"
           id="path29"
           inkscape:connector-curvature="0"
           style="fill:#f4f4f4" /><path
           d="m 251.287,224.492 c -7.763,0 -14.061,6.33 -14.061,14.093 0,7.762 6.298,14.063 14.061,14.063 l 25.167,0 c 7.763,0 14.092,-6.301 14.092,-14.063 0,-7.763 -6.329,-14.093 -14.092,-14.093 l -25.167,0 z m 0,1.932 25.167,0 c 6.719,0 12.161,5.441 12.161,12.161 0,6.719 -5.442,12.13 -12.161,12.13 l -25.167,0 c -6.72,0 -12.13,-5.412 -12.13,-12.13 0,-6.72 5.411,-12.161 12.13,-12.161 z"
           id="path31"
           inkscape:connector-curvature="0"
           style="fill:#f4f4f4" /><path
           d="m 320.928,229.522 c -4.974,0 -9.021,4.078 -9.021,9.054 0,4.975 4.049,9.022 9.021,9.022 l 25.167,0 c 4.976,0 9.023,-4.05 9.023,-9.022 0,-4.976 -4.049,-9.054 -9.023,-9.054 l -25.167,0 z m 0,1.932 25.167,0 c 3.929,0 7.093,3.191 7.093,7.122 0,3.93 -3.161,7.091 -7.093,7.091 l -25.167,0 c -3.929,0 -7.091,-3.16 -7.091,-7.091 0,-3.931 3.162,-7.122 7.091,-7.122 z"
           id="path33-5"
           inkscape:connector-curvature="0"
           style="fill:#f4f4f4" /><path
           d="m 320.928,224.492 c -7.763,0 -14.092,6.33 -14.092,14.093 0,7.762 6.329,14.063 14.092,14.063 l 25.167,0 c 7.765,0 14.062,-6.301 14.062,-14.063 0,-7.763 -6.297,-14.093 -14.062,-14.093 l -25.167,0 z m 0,1.932 25.167,0 c 6.722,0 12.13,5.441 12.13,12.161 0,6.719 -5.408,12.13 -12.13,12.13 l -25.167,0 c -6.72,0 -12.16,-5.412 -12.16,-12.13 0,-6.72 5.44,-12.161 12.16,-12.161 z"
           id="path35"
           inkscape:connector-curvature="0"
           style="fill:#f4f4f4" /><path
           d="m 92.498,137.248 c -13.553,0 -26.318,3.524 -37.388,9.687 l -2.776,1.539 -0.845,0.483 0.453,0.845 3.108,5.552 0.483,0.845 0.845,-0.453 2.776,-1.569 c 9.876,-5.495 21.229,-8.6 33.344,-8.6 18.979,0.001 36.115,7.664 48.553,20.097 12.434,12.437 20.126,29.573 20.127,48.552 -0.002,21.893 -10.248,41.368 -26.192,53.955 l -2.505,1.963 -0.754,0.604 0.604,0.754 3.953,5.01 0.604,0.754 0.754,-0.604 2.505,-1.961 c 17.857,-14.087 29.332,-35.967 29.331,-60.475 -0.003,-42.502 -34.477,-76.977 -76.98,-76.978 l 0,0 z m 0,1.931 c 41.461,0.002 75.046,33.587 75.048,75.046 0.001,23.904 -11.197,45.229 -28.607,58.965 l -1.75,1.356 -2.746,-3.5 1.75,-1.358 c 16.389,-12.938 26.915,-32.972 26.917,-55.463 -0.001,-19.502 -7.921,-37.129 -20.702,-49.913 -12.785,-12.778 -30.412,-20.668 -49.911,-20.669 -12.449,0 -24.126,3.223 -34.28,8.872 l -1.931,1.086 -2.173,-3.893 1.932,-1.086 c 10.791,-6.006 23.233,-9.444 36.453,-9.443 l 0,0 z"
           id="path37"
           inkscape:connector-curvature="0"
           style="fill:#f4f4f4" /><path
           id="path17364"
           d="m 433.089,144.588 0,-27.375 c 0,-4.936 4.001,-8.937 8.938,-8.937 l 0,0 c 4.938,0 8.937,4.001 8.937,8.937 l 0,0 0,27.375 0.002,0 c -0.002,4.938 -4.003,8.937 -8.938,8.939 l 0,0 c -4.938,-0.002 -8.939,-4.001 -8.939,-8.939 l 0,0 z m 1.999,-27.375 0.002,27.375 c 0.007,3.832 3.105,6.931 6.938,6.937 l 0,0 c 3.832,-0.006 6.931,-3.105 6.938,-6.937 l 0,0 0,-27.375 c -0.007,-3.83 -3.107,-6.931 -6.938,-6.938 l 0,0 c -3.833,0.007 -6.931,3.108 -6.94,6.938 l 0,0 z"
           inkscape:connector-curvature="0"
           style="fill:#f4f4f4" /><path
           id="path17366"
           d="m 436.026,130.902 c 0.002,-3.313 2.688,-5.999 6.001,-6.001 l 0,0 c 3.313,0.002 5.999,2.688 6.001,6.001 l 0,0 c -0.002,3.313 -2.688,5.999 -6.001,5.999 l 0,0 c -3.313,0 -5.999,-2.686 -6.001,-5.999 l 0,0 z m 2.001,0 c 0.004,2.208 1.79,3.996 4,4 l 0,0 c 2.21,-0.004 3.996,-1.792 4,-4 l 0,0 c -0.004,-2.21 -1.79,-3.996 -4,-4 l 0,0 c -2.21,0.004 -3.996,1.789 -4,4 l 0,0 z"
           inkscape:connector-curvature="0"
           style="fill:#f4f4f4" /><path
           id="path17368"
           d="m 500.771,144.588 -0.002,-27.374 c 0.002,-4.938 4.002,-8.938 8.939,-8.94 l 0,0 c 4.936,0.002 8.936,4.002 8.936,8.94 l 0,0 0,27.374 0.002,0 c -0.002,4.938 -4.002,8.938 -8.938,8.938 l 0,0 c -4.937,0 -8.937,-4 -8.937,-8.938 l 0,0 z m 1.999,-27.374 0,27.374 c 0.007,3.831 3.105,6.93 6.938,6.938 l 0,0 c 3.831,-0.008 6.93,-3.107 6.937,-6.938 l 0,0 0,-27.374 c -0.007,-3.832 -3.105,-6.932 -6.937,-6.938 l 0,0 c -3.833,0.006 -6.932,3.107 -6.938,6.938 l 0,0 z"
           inkscape:connector-curvature="0"
           style="fill:#f4f4f4" /><path
           id="path17370"
           d="m 503.706,130.9 c 0.002,-3.313 2.688,-5.999 6.001,-5.999 l 0,0 c 3.315,0 5.999,2.687 6.001,5.999 l 0,0 c -0.002,3.313 -2.686,6 -6.001,6 l 0,0 c -3.313,0 -5.999,-2.687 -6.001,-6 l 0,0 z m 2.002,0 c 0.005,2.209 1.79,3.997 3.999,4.001 l 0,0 c 2.209,-0.004 3.997,-1.792 3.999,-4.001 l 0,0 c -0.002,-2.209 -1.79,-3.994 -3.999,-4 l 0,0 c -2.209,0.006 -3.994,1.791 -3.999,4 l 0,0 z"
           inkscape:connector-curvature="0"
           style="fill:#f4f4f4" /></g></g></g></svg>