<?xml version="1.0" encoding="UTF-8" standalone="no"?>
<!-- Generator: Adobe Illustrator 13.0.0, SVG Export Plug-In . SVG Version: 6.00 Build 14948)  -->

<svg
   xmlns:dc="http://purl.org/dc/elements/1.1/"
   xmlns:cc="http://creativecommons.org/ns#"
   xmlns:rdf="http://www.w3.org/1999/02/22-rdf-syntax-ns#"
   xmlns:svg="http://www.w3.org/2000/svg"
   xmlns="http://www.w3.org/2000/svg"
   xmlns:sodipodi="http://sodipodi.sourceforge.net/DTD/sodipodi-0.dtd"
   xmlns:inkscape="http://www.inkscape.org/namespaces/inkscape"
   version="1.1"
   id="Layer_2"
   x="0px"
   y="0px"
   width="550"
   height="550"
   viewBox="0 0 549.99995 549.99999"
   enable-background="new 0 0 598.189 350.26"
   xml:space="preserve"
   inkscape:version="0.91 r13725"
   sodipodi:docname="controller_gg.svg"><metadata
     id="metadata3083"><rdf:RDF><cc:Work
         rdf:about=""><dc:format>image/svg+xml</dc:format><dc:type
           rdf:resource="http://purl.org/dc/dcmitype/StillImage" /><dc:title></dc:title></cc:Work></rdf:RDF></metadata><defs
     id="defs3081" /><sodipodi:namedview
     pagecolor="#ffffff"
     bordercolor="#666666"
     borderopacity="1"
     objecttolerance="10"
     gridtolerance="10"
     guidetolerance="10"
     inkscape:pageopacity="0"
     inkscape:pageshadow="2"
     inkscape:window-width="1920"
     inkscape:window-height="1001"
     id="namedview3079"
     showgrid="false"
     inkscape:zoom="1.0799262"
     inkscape:cx="248.77122"
     inkscape:cy="298.43665"
     inkscape:window-x="-9"
     inkscape:window-y="-9"
     inkscape:window-maximized="1"
     inkscape:current-layer="g12192"
     showguides="true"
     inkscape:guide-bbox="true" /><g
     inkscape:groupmode="layer"
     id="layer2"
     inkscape:label="Screen_Rect"
     style="display:none"
     transform="translate(0,199.73999)"
     sodipodi:insensitive="true"><path
       style="fill:#0000ff;stroke:#000000;stroke-width:1px;stroke-linecap:butt;stroke-linejoin:miter;stroke-opacity:1"
       d="M 5.0135033,547.22203 136.4109,114.39023 653.54628,-189.09358 406.482,260.92121 Z"
       id="path3021"
       inkscape:connector-curvature="0"
       transform="translate(-2e-5,-199.73999)"
       sodipodi:nodetypes="ccccc" /><rect
       style="opacity:0.60100002;fill:#d8201f;fill-opacity:1;stroke:#ff8080;stroke-width:2.45114732;stroke-linecap:round;stroke-linejoin:round;stroke-miterlimit:4;stroke-dasharray:none;stroke-opacity:1"
       id="rect4230"
       width="444.2457"
       height="9.9567661"
       x="145.95099"
       y="-211.30678" /></g><g
     inkscape:groupmode="layer"
     id="layer1"
     inkscape:label="Controller_Vorlage"
     style="display:none"
     sodipodi:insensitive="true"><g
       id="g4929"
       transform="translate(-0.929149,0.5695451)"><g
         transform="translate(0,199.73999)"
         style="display:none"
         inkscape:label="Layer2"
         id="layer2-9"><path
           sodipodi:nodetypes="ccccc"
           transform="translate(-2e-5,-199.73999)"
           inkscape:connector-curvature="0"
           id="path3021-0"
           d="M 5.0135033,547.22203 136.4109,114.39023 653.54628,-189.09358 406.482,260.92121 Z"
           style="fill:#ffffff;stroke:#000000;stroke-width:1px;stroke-linecap:butt;stroke-linejoin:miter;stroke-opacity:1" /></g><g
         inkscape:label="Layer"
         id="layer1-2"><g
           transform="matrix(0.55322035,-0.3970343,-0.34863416,0.85569517,173.63773,166.52161)"
           id="g3100"><path
             style="fill:#f4f4f4"
             inkscape:connector-curvature="0"
             id="path3"
             d="m 148.05,114.447 c -23.656,0 -42.861,19.204 -42.861,42.861 l 0,37.414 c 0,23.658 19.205,42.86 42.861,42.86 l 38.694,0 c 23.656,0 42.861,-19.202 42.861,-42.86 l 0,-37.414 c 0,-23.657 -19.205,-42.861 -42.861,-42.861 l -38.694,0 z m 0,1.905 38.694,0 c 22.627,0 40.956,18.328 40.956,40.956 l 0,37.414 c 0,22.629 -18.329,40.956 -40.956,40.956 l -38.694,0 c -22.628,0 -40.956,-18.327 -40.956,-40.956 l 0,-37.414 c 0,-22.629 18.328,-40.956 40.956,-40.956 z" /><path
             style="fill:#f4f4f4"
             inkscape:connector-curvature="0"
             id="path5"
             d="m 167.395,123.168 c -3.23,0 -5.863,2.633 -5.863,5.864 l 0,13.037 c 0,3.23 2.632,5.863 5.863,5.863 3.23,0 5.863,-2.633 5.863,-5.863 l 0,-13.037 c 0,-3.23 -2.633,-5.864 -5.863,-5.864 z m 0,1.906 c 2.201,0 3.958,1.758 3.958,3.958 l 0,13.037 c 0,2.2 -1.758,3.958 -3.958,3.958 -2.202,0 -3.958,-1.758 -3.958,-3.958 l 0,-13.037 c -0.001,-2.2 1.757,-3.958 3.958,-3.958 z" /><path
             style="fill:#f4f4f4"
             inkscape:connector-curvature="0"
             id="path7"
             d="m 120.425,170.135 c -3.23,0 -5.864,2.633 -5.864,5.864 0,3.231 2.632,5.894 5.864,5.894 l 13.037,0 c 3.229,0 5.864,-2.662 5.864,-5.894 0,-3.229 -2.633,-5.864 -5.864,-5.864 l -13.037,0 z m 0,1.905 13.037,0 c 2.201,0 3.959,1.759 3.959,3.959 0,2.201 -1.759,3.988 -3.959,3.988 l -13.037,0 c -2.198,-0.01 -3.955,-1.791 -3.955,-3.99 0,-2.201 1.758,-3.959 3.958,-3.959 l -0.003,0.002 z" /><path
             style="fill:#f4f4f4"
             inkscape:connector-curvature="0"
             id="path9"
             d="m 167.395,204.071 c -3.23,0 -5.863,2.663 -5.863,5.894 l 0,13.038 c 0,3.229 2.632,5.863 5.863,5.863 3.23,0 5.863,-2.633 5.863,-5.863 l 0,-13.038 c 0,-3.23 -2.633,-5.894 -5.863,-5.894 z m 0,1.906 c 2.201,0 3.958,1.789 3.958,3.988 l 0,13.038 c 0,2.2 -1.757,3.958 -3.958,3.958 -2.202,0 -3.958,-1.759 -3.958,-3.958 l 0,-13.038 c -0.001,-2.2 1.757,-3.988 3.958,-3.988 z" /><path
             style="fill:#f4f4f4"
             inkscape:connector-curvature="0"
             id="path11"
             d="m 201.321,170.135 c -3.229,0 -5.863,2.633 -5.863,5.864 0,3.231 2.633,5.894 5.863,5.894 l 13.067,0 c 3.229,0 5.863,-2.662 5.863,-5.894 0,-3.229 -2.633,-5.864 -5.863,-5.864 l -13.067,0 z m 0,1.905 13.067,0 c 2.2,0 3.958,1.76 3.958,3.959 0,2.201 -1.758,3.988 -3.958,3.988 l -13.067,0 c -2.2,0 -3.958,-1.788 -3.958,-3.988 0,-2.2 1.759,-3.959 3.958,-3.959 z" /><path
             style="fill:#f4f4f4"
             inkscape:connector-curvature="0"
             id="polygon13"
             d="m 133.878,141.176 -1.31,1.31 8.155,12.025 0.655,0.952 0.804,-0.803 3.869,-3.87 0.804,-0.804 -0.953,-0.655 -12.024,-8.155 z" /><path
             style="fill:#f4f4f4"
             inkscape:connector-curvature="0"
             id="polygon15"
             d="m 141.383,196.566 -0.654,0.952 -8.156,12.024 1.31,1.31 12.025,-8.155 0.953,-0.654 -0.804,-0.804 -3.87,-3.869 -0.804,-0.804 z" /><path
             style="fill:#f4f4f4"
             inkscape:connector-curvature="0"
             id="polygon17"
             d="m 193.435,196.566 -0.804,0.804 -3.869,3.869 -0.833,0.804 0.953,0.654 12.025,8.155 1.339,-1.31 -8.156,-12.024 -0.655,-0.952 0,0 z" /><path
             style="fill:#f4f4f4"
             inkscape:connector-curvature="0"
             id="polygon19"
             d="m 200.912,141.176 -12.025,8.155 -0.953,0.655 0.833,0.804 3.87,3.87 0.804,0.803 0.655,-0.952 8.155,-12.025 -1.339,-1.31 z" /><path
             style="fill:#f4f4f4"
             inkscape:connector-curvature="0"
             id="path21"
             d="m 146.354,104.833 c -27.67,0 -50.123,22.453 -50.123,50.124 l 0,42.117 c 0,27.671 22.453,50.123 50.123,50.123 l 42.117,0 c 27.671,0 50.124,-22.452 50.124,-50.123 l 0,-42.117 c 0,-27.67 -22.452,-50.124 -50.124,-50.124 l -42.117,0 z m 0,1.906 42.117,0 c 26.644,0 48.219,21.577 48.219,48.218 l 0,42.117 c 0,26.644 -21.577,48.218 -48.219,48.218 l -42.117,0 c -26.642,0 -48.218,-21.574 -48.218,-48.218 l 0,-42.117 c 0,-26.642 21.577,-48.218 48.218,-48.218 z" /><path
             style="fill:#f4f4f4"
             inkscape:connector-curvature="0"
             id="polygon23"
             d="m 69.499,75.694 0,0.952 0,202.961 0,0.952 0.953,0 196.122,0 0.952,0 0,-0.952 0,-26.401 289.521,0 0.952,0 0,-0.952 0,-113.458 0,-0.953 -0.952,0 -289.522,0 0,-61.196 0,-0.952 -0.952,0 -196.122,0 -0.952,-10e-4 0,0 z m 1.904,1.905 194.217,0 0,61.196 0,0.953 0.953,0 0.714,0 288.807,0 0,111.552 -289.226,0 -0.297,0 -0.953,0 0,0.953 0,26.4 -194.217,0 0,-201.055 0.002,0.001 z" /><path
             style="fill:#f4f4f4"
             inkscape:connector-curvature="0"
             id="circle25"
             d="m 400.692,169.126 c -19.762,0 -35.777,16.046 -35.777,35.807 0,19.761 16.018,35.807 35.777,35.807 19.759,0 35.807,-16.046 35.807,-35.807 0,-19.761 -16.047,-35.807 -35.807,-35.807 l 0,0 z m 0,1.905 c 18.73,0 33.901,15.17 33.901,33.902 0,18.732 -15.171,33.902 -33.901,33.902 -18.731,0 -33.872,-15.171 -33.872,-33.902 0,-18.731 15.141,-33.902 33.872,-33.902 l 0,0 z" /><path
             style="fill:#f4f4f4"
             inkscape:connector-curvature="0"
             id="circle27"
             d="m 400.692,177.669 c -15.039,0 -27.234,12.227 -27.234,27.265 0,15.038 12.195,27.234 27.234,27.234 15.036,0 27.264,-12.196 27.264,-27.234 0,-15.038 -12.227,-27.265 -27.264,-27.265 z m 0,1.905 c 14.008,0 25.359,11.351 25.359,25.359 0,14.008 -11.352,25.33 -25.359,25.33 -14.01,0 -25.33,-11.321 -25.33,-25.33 0,-14.009 11.321,-25.359 25.33,-25.359 z" /><path
             style="fill:#f4f4f4"
             inkscape:connector-curvature="0"
             id="circle29"
             d="m 489.919,169.126 c -19.762,0 -35.807,16.046 -35.807,35.807 0,19.761 16.045,35.807 35.807,35.807 19.76,0 35.807,-16.046 35.807,-35.807 0,-19.761 -16.047,-35.807 -35.807,-35.807 l 0,0 z m 0,1.905 c 18.73,0 33.901,15.17 33.901,33.902 0,18.732 -15.171,33.902 -33.901,33.902 -18.731,0 -33.902,-15.171 -33.902,-33.902 0,-18.731 15.171,-33.902 33.902,-33.902 l 0,0 z" /><path
             style="fill:#f4f4f4"
             inkscape:connector-curvature="0"
             id="circle31"
             d="m 489.919,177.669 c -15.039,0 -27.234,12.227 -27.234,27.265 0,15.038 12.195,27.234 27.234,27.234 15.036,0 27.234,-12.196 27.234,-27.234 0,-15.038 -12.196,-27.265 -27.234,-27.265 z m 0,1.905 c 14.008,0 25.329,11.351 25.329,25.359 0,14.008 -11.321,25.33 -25.329,25.33 -14.01,0 -25.33,-11.321 -25.33,-25.33 0,-14.009 11.32,-25.359 25.33,-25.359 z" /><path
             style="fill:#f4f4f4"
             inkscape:connector-curvature="0"
             id="path33"
             d="m 39.406,68.432 c -4.766,0 -8.662,3.896 -8.662,8.662 l 0,203.084 c 0,4.766 3.897,8.661 8.662,8.661 l 518.646,0 c 4.429,0 7.956,-3.411 8.453,-7.709 l 0.179,0 0,-0.952 0,-203.085 c 0,-4.762 -3.868,-8.658 -8.64,-8.658 l -518.645,0 0.007,-0.003 z m 0,1.904 518.646,0 c 3.737,0 6.727,3.021 6.727,6.757 l 0,202.131 0,0.953 c 0,3.736 -2.989,6.756 -6.727,6.756 l -518.646,0 c -3.732,0.01 -6.753,-3.019 -6.753,-6.753 l 0,-203.083 c 0,-3.736 3.02,-6.756 6.756,-6.756 l -0.003,-0.005 z" /><path
             style="fill:#f4f4f4"
             inkscape:connector-curvature="0"
             id="rect35"
             d="m 359.021,163.559 0,0.953 0,81.465 0,0.952 0.953,0 81.465,0 0.953,0 0,-0.952 0,-81.465 0,-0.953 -0.953,0 -81.465,0 -0.953,0 z m 1.906,1.905 79.561,0 0,79.56 -79.561,0 0,-79.56 z" /><path
             style="fill:#f4f4f4"
             inkscape:connector-curvature="0"
             id="rect37"
             d="m 448.248,163.559 0,0.953 0,81.465 0,0.952 0.953,0 81.436,0 0.952,0 0,-0.952 0,-81.465 0,-0.953 -0.952,0 -81.436,0 -0.953,0 z m 1.905,1.905 79.531,0 0,79.56 -79.531,0 0,-79.56 z" /><path
             style="fill:#f4f4f4"
             inkscape:connector-curvature="0"
             id="polyline39"
             d="m 83.934,94.177 0,2.292 0,159.061 0,2.322 1.607,-1.638 25.33,-25.299 -1.369,-1.369 -23.663,23.692 0,-154.45 23.663,23.658 1.369,-1.34 -25.33,-25.299 -1.607,-1.637 0,0.007 z" /><path
             style="fill:#f4f4f4"
             inkscape:connector-curvature="0"
             id="polyline41"
             d="m 222.305,232.551 -1.37,1.339 23.693,23.692 -154.452,0 23.574,-23.573 -1.369,-1.339 -25.181,25.182 -1.637,1.637 2.292,0 159.062,0 2.292,0 -1.607,-1.637 -25.299,-25.3 0.002,-0.001 z" /><path
             style="fill:#f4f4f4"
             inkscape:connector-curvature="0"
             id="polyline43"
             d="m 250.878,94.177 -1.637,1.637 -25.211,25.182 1.369,1.369 23.574,-23.603 0,154.509 -23.633,-23.663 -1.339,1.34 25.24,25.27 1.637,1.638 0,-2.322 0,-159.063 0,-2.292 0,-0.002 z" /><path
             style="fill:#f4f4f4"
             inkscape:connector-curvature="0"
             id="polyline45"
             d="m 85.57,92.54 1.638,1.608 25.21,25.24 1.339,-1.34 -23.572,-23.602 154.452,0 -23.669,23.662 1.333,1.339 25.307,-25.3 1.607,-1.607 -2.292,0 -159.062,0 -2.291,0 0,0 z" /><path
             style="fill:#f4f4f4"
             inkscape:connector-curvature="0"
             id="line47"
             d="m 58.961,69.533 0,218.057 1.905,0 0,-218.057 -1.905,0 z" /><path
             style="fill:#f4f4f4"
             inkscape:connector-curvature="0"
             id="rect49"
             d="m 359.021,145.819 0,0.953 0,13.244 0,0.953 0.953,0 81.465,0 0.953,0 0,-0.953 0,-13.244 0,-0.953 -0.953,0 -81.465,0 -0.953,0 z m 1.906,1.905 79.561,0 0,11.339 -79.561,0 0,-11.339 z" /><path
             style="fill:#f4f4f4"
             inkscape:connector-curvature="0"
             id="rect51"
             d="m 448.248,145.819 0,0.953 0,13.244 0,0.953 0.953,0 81.436,0 0.952,0 0,-0.953 0,-13.244 0,-0.953 -0.952,0 -81.436,0 -0.953,0 z m 1.905,1.905 79.531,0 0,11.339 -79.531,0 0,-11.339 z" /><path
             style="fill:#f4f4f4"
             inkscape:connector-curvature="0"
             id="path53"
             d="m 276.804,73.134 c -0.987,0 -1.815,0.828 -1.815,1.816 l 0,53.01 c 0,0.988 0.829,1.815 1.815,1.815 l 282.855,0 c 0.985,0 1.785,-0.831 1.785,-1.815 l 0,-50.033 c 0,-2.641 -2.152,-4.792 -4.792,-4.792 l -279.844,0 -0.004,0 z m 0.09,1.906 279.756,0 c 1.613,0 2.888,1.275 2.888,2.887 l 0,49.945 -282.643,0 0,-52.832 -10e-4,0 z" /><path
             style="fill:#f4f4f4"
             inkscape:connector-curvature="0"
             id="path55"
             d="m 276.804,260.41 c -0.987,0 -1.815,0.829 -1.815,1.815 l 0,20.091 c 0,0.987 0.829,1.816 1.815,1.816 l 279.844,0 c 2.64,0 4.792,-2.183 4.792,-4.822 l 0,-17.085 c 0,-0.985 -0.8,-1.815 -1.785,-1.815 l -282.855,0 0.004,0 z m 0.09,1.905 282.645,0 0,16.995 c 0,1.611 -1.276,2.917 -2.888,2.917 l -279.758,0 0.001,-19.912 0,0 z" /><path
             style="fill:#f4f4f4"
             inkscape:connector-curvature="0"
             id="line57"
             d="m 274.461,129.271 -6.28,6.28 1.369,1.339 6.251,-6.25 -1.34,-1.369 z" /><path
             style="fill:#f4f4f4"
             inkscape:connector-curvature="0"
             id="line59"
             d="m 269.546,253.866 -1.369,1.34 6.281,6.28 1.339,-1.369 -6.251,-6.251 z" /></g></g></g></g><g
     inkscape:groupmode="layer"
     id="layer4"
     inkscape:label="Controller"><g
       id="g12192"
       transform="matrix(0.52634968,-0.38371487,-0.36199415,0.79024751,151.0404,222.06172)"><g
         id="g16351"
         transform="matrix(0.45203409,-0.34623835,-0.23678241,0.72954671,232.88347,102.96841)"><g
           transform="matrix(2.8524262,1.3850323,1.3066306,1.8998777,-874.61854,-721.70861)"
           id="g16147"><path
             style="fill:#f4f4f4"
             inkscape:connector-curvature="0"
             d="m 268.936,295.11 c -0.332,0 -0.595,0.007 -0.776,0.017 l 0,0 c -1.768,0.065 -3.141,0.522 -4.697,0.547 l 0,0 c -0.747,0.007 -1.625,-0.158 -2.375,-0.696 l 0,0 c -0.751,-0.534 -1.273,-1.319 -1.678,-2.285 l 0,0 c -0.801,-1.94 -1.3,-4.824 -1.809,-9.659 l 0,0 c -1.502,-14.521 -4.002,-42.518 -5.252,-57.277 l 0,0 c -1.244,-14.679 -3.23,-25.06 -5.932,-33.416 l 0,0 c -2.024,-6.223 -4.296,-9.246 -4.258,-23.563 l 0,0 c 0,-4.518 0.208,-10.183 0.688,-17.496 l 0,0 c 1.329,-20.258 1.552,-48.583 1.552,-68.679 l 0,0 c 0,-10.053 -0.056,-18.046 -0.056,-21.971 l 0,0 c 0,-11.768 0.25,-32.016 0.25,-32.02 l 0,0 0.014,-1.056 1,-0.344 c 17.573,-6.024 49.376,-14.537 52.544,-15.514 l 0,0 c 1.254,-0.388 2.647,-0.695 4.325,-0.692 l 0,0 c 2.974,0.004 6.717,0.908 12.712,3.499 l 0,0 c 9.118,3.946 32.197,11.977 37.086,13.439 l 0,0 c 5.338,1.517 7.44,4.423 8.909,7.516 l 0,0 c 1.173,2.415 3.969,4.816 3.925,11.036 l 0,0 c 0,0.305 -0.006,0.615 -0.017,0.943 l 0,0 c -0.254,6.558 -9.493,214.174 -11.006,228.846 l 0,0 c -0.558,5.373 -0.585,9.428 -1.05,12.63 l 0,0 c -0.42,3.147 -1.517,5.834 -4.281,7.249 l 0,0 c -1.795,0.929 -4.057,1.331 -7.099,1.465 l 0,0 c -0.874,0.037 -1.96,0.052 -3.234,0.052 l 0,0 c -15.77,-0.002 -61.269,-2.573 -69.485,-2.571 l 0,0 z m 69.486,-0.429 c 1.248,0 2.302,-0.017 3.109,-0.05 l 0,0 c 2.833,-0.115 4.696,-0.526 5.831,-1.129 l 0,0 c 1.127,-0.611 1.678,-1.309 2.16,-2.619 l 0,0 c 0.96,-2.62 0.841,-7.58 1.579,-14.908 l 0,0 c 1.486,-14.328 10.748,-222.211 10.992,-228.642 l 0,0 c 0.011,-0.296 0.017,-0.576 0.015,-0.838 l 0,0 c -0.042,-5.346 -1.92,-6.389 -3.605,-9.694 l 0,0 c -1.531,-2.907 -2.427,-4.5 -7.09,-5.984 l 0,0 c -5.11,-1.536 -28.031,-9.506 -37.414,-13.561 l 0,0 c -5.819,-2.518 -9.198,-3.257 -11.522,-3.25 l 0,0 c -1.325,0.002 -2.345,0.223 -3.44,0.559 l 0,0 c -3.269,1.003 -33.843,9.193 -51.454,15.144 l 0,0 c -0.051,4.31 -0.238,20.785 -0.238,30.923 l 0,0 c 0,3.904 0.054,11.91 0.056,21.971 l 0,0 c -0.002,20.125 -0.221,48.469 -1.559,68.875 l 0,0 c -0.478,7.27 -0.682,12.876 -0.682,17.3 l 0,0 c 0.037,14.121 1.951,15.929 4.112,22.641 l 0,0 c 2.796,8.645 4.812,19.264 6.068,34.086 l 0,0 c 1.248,14.739 3.75,42.743 5.246,57.222 l 0,0 c 0.365,3.547 0.751,5.982 1.172,7.541 l 0,0 c 0.416,1.582 0.878,2.157 1.066,2.266 l 0,0 c 0.129,0.086 0.246,0.138 0.639,0.145 l 0,0 c 0.803,0.024 2.418,-0.44 4.542,-0.545 l 0,0 c 0.267,-0.015 0.57,-0.019 0.931,-0.021 l 0,0 c 8.452,10e-4 53.877,2.568 69.486,2.568 l 0,0 z"
             id="path16111" /><path
             style="fill:#f4f4f4"
             inkscape:connector-curvature="0"
             d="m 334.866,203.677 0.604,-0.797 -0.637,0.772 c -9.141,-7.481 -14.709,-13.213 -16.725,-25.229 l 0,0 c -0.281,-1.644 -0.418,-3.383 -0.418,-5.169 l 0,0 c 0.004,-5.742 1.405,-11.969 4.184,-16.95 l 0,0 c 2.763,-4.964 7.014,-8.759 12.646,-9.171 l 0,0 c 0.426,-0.031 0.844,-0.045 1.256,-0.047 l 0,0 c 5.744,-0.017 10.208,3.032 13.06,7.731 l 0,0 c 2.872,4.7 4.279,11.04 4.284,17.981 l 0,0 c 0,0.575 -0.009,1.154 -0.027,1.757 l 0,0 c -0.482,9.887 -2.541,17.36 -5.252,22.433 l 0,0 c -2.715,5.041 -6.088,7.835 -9.507,7.876 l 0,0 c -1.241,0 -2.443,-0.411 -3.468,-1.187 l 0,0 z m 3.468,-0.816 c 2.186,0.042 5.217,-2.069 7.743,-6.82 l 0,0 c 2.529,-4.721 4.549,-11.926 5.017,-21.566 l 0,0 c 0.019,-0.563 0.024,-1.122 0.024,-1.678 l 0,0 c 0.005,-6.67 -1.378,-12.686 -3.987,-16.938 l 0,0 c -2.63,-4.254 -6.336,-6.756 -11.354,-6.773 l 0,0 c -0.362,0 -0.732,0.015 -1.109,0.042 l 0,0 c -4.753,0.346 -8.455,3.532 -11.048,8.151 l 0,0 c -2.576,4.604 -3.932,10.56 -3.928,15.975 l 0,0 c -0.002,1.683 0.13,3.313 0.389,4.833 l 0,0 c 1.984,11.479 6.914,16.499 16.017,24.014 l 0,0 c 0.705,0.518 1.435,0.758 2.236,0.76 l 0,0 z"
             id="path16113" /><path
             style="fill:#f4f4f4"
             inkscape:connector-curvature="0"
             d="m 276.02,197.344 c -5.593,-5.503 -7.749,-14.204 -7.754,-24.167 l 0,0 c 0,-1.792 0.072,-3.625 0.206,-5.494 l 0,0 c 0.448,-6.144 1.574,-11.566 3.692,-15.582 l 0,0 c 2.087,-4.009 5.376,-6.672 9.784,-6.721 l 0,0 c 0.219,-0.004 0.431,-0.004 0.637,-0.004 l 0,0 c 7.773,-0.068 11.346,2.62 16.648,8.984 l 0,0 c 4.174,4.956 5.279,11.929 5.288,17.987 l 0,0 c 0,2.419 -0.182,4.7 -0.436,6.662 l 0,0 c -0.887,7.012 -4.142,12.725 -13.467,20.633 l 0,0 -0.058,0.049 -0.058,0.037 c -1.244,0.78 -3.203,1.886 -5.761,1.888 l 0,0 c -0.007,0 -0.014,0 -0.021,0 l 0,0 c -2.515,-0.003 -5.49,-1.115 -8.7,-4.272 l 0,0 z m 5.964,-49.965 c -3.586,0.076 -6.109,2.038 -8.054,5.655 l 0,0 c -1.912,3.607 -3.036,8.811 -3.465,14.792 l 0,0 c -0.13,1.826 -0.2,3.611 -0.2,5.35 l 0,0 c -0.006,9.702 2.147,17.852 7.154,22.739 l 0,0 c 2.979,2.907 5.394,3.691 7.322,3.697 l 0,0 c 1.928,0.002 3.484,-0.821 4.631,-1.54 l 0,0 c 9.132,-7.816 11.867,-12.845 12.729,-19.321 l 0,0 c 0.245,-1.888 0.42,-4.085 0.418,-6.406 l 0,0 c 0.009,-5.824 -1.128,-12.362 -4.813,-16.695 l 0,0 c -5.412,-6.297 -7.811,-8.208 -15.122,-8.277 l 0,0 c -0.2,0 -0.397,0.002 -0.6,0.006 l 0,0 z"
             id="path16115" /><path
             style="fill:#f4f4f4"
             inkscape:connector-curvature="0"
             d="m 324.375,219.575 c -3.207,-3.309 -7.431,-4.434 -11.548,-4.438 l 0,0 c -5.119,-0.021 -10.036,1.828 -11.789,3.064 l 0,0 -2.4,1.66 0.876,-2.783 c 5.012,-15.923 9.693,-25.041 10.539,-26.976 l 0,0 c 0.378,-0.892 1.071,-1.712 2.154,-1.73 l 0,0 c 1.735,0.159 2.576,1.653 3.453,3.92 l 0,0 c 1.214,3.42 8.967,20.513 10.404,26.348 l 0,0 0.883,3.592 -2.572,-2.657 0,0 z m -22.952,-1.896 -0.953,-0.3 0.953,0.3 0,0 z m 21.719,-1.706 c -2.511,-7.111 -8.271,-19.966 -9.365,-23.008 l 0,0 c -0.533,-1.545 -1.197,-2.396 -1.484,-2.547 l 0,0 c -0.034,-0.022 -0.055,-0.033 -0.066,-0.039 l 0,0 c -0.006,0.005 -0.014,0.011 -0.022,0.02 l 0,0 c -0.066,0.057 -0.194,0.22 -0.318,0.507 l 0,0 c -0.858,1.96 -5.021,10.064 -9.71,24.429 l 0,0 c 2.639,-1.159 6.494,-2.184 10.652,-2.197 l 0,0 c 0.008,0 0.015,0 0.022,0 l 0,0 c 3.441,-0.001 7.106,0.746 10.291,2.835 l 0,0 z"
             id="path16117" /><path
             style="fill:#f4f4f4"
             inkscape:connector-curvature="0"
             d="m 277.618,119.694 0.726,-0.689 0.864,0.506 -0.864,-0.506 -0.726,0.689 -0.519,-0.547 0.383,-0.65 c 1.495,-2.449 4.723,-4.789 6.921,-5.566 l 0,0 0.798,-0.267 0.399,0.742 c 4.499,8.371 14.857,27.47 14.874,27.497 l 0,0 -1.605,1.166 -21.251,-22.375 0,0 z m 17.493,15.514 c -3.265,-6.026 -7.99,-14.752 -10.846,-20.061 l 0,0 c -1.463,0.73 -3.562,2.329 -4.647,3.747 l 0,0 15.493,16.314 0,0 z"
             id="path16119" /><path
             style="fill:#f4f4f4"
             inkscape:connector-curvature="0"
             d="m 307.283,115.097 c -1.389,-7.364 -2.413,-11.988 -2.415,-12 l 0,0 0.977,-0.217 0.707,0.707 -0.707,-0.707 -0.977,0.217 -0.12,-0.536 0.388,-0.387 c 1.661,-1.612 4.564,-2.447 7.469,-2.471 l 0,0 c 2.601,0.008 5.303,0.721 6.812,2.86 l 0,0 0.225,0.324 -0.058,0.392 c -2.999,19.948 -5.756,37.998 -5.74,39.976 l 0,0 -1.99,0.132 c -1.436,-10.852 -3.182,-20.929 -4.571,-28.29 l 0,0 z m 5.483,20.426 c 1.045,-7.446 2.854,-19.284 4.776,-32.125 l 0,0 c -0.966,-1.112 -2.858,-1.705 -4.938,-1.697 l 0,0 c -2.188,-0.022 -4.49,0.678 -5.658,1.542 l 0,0 c 0.619,2.87 3.405,16.063 5.82,32.28 l 0,0 z"
             id="path16121" /><path
             style="fill:#f4f4f4"
             inkscape:connector-curvature="0"
             d="m 320.476,142.509 c 3.984,-6.971 7.788,-14.456 10.596,-20.193 l 0,0 c 2.806,-5.739 4.606,-9.715 4.612,-9.725 l 0,0 0.327,-0.722 0.779,0.155 c 2.38,0.519 4.29,2.611 5.828,4.784 l 0,0 c 1.52,2.216 2.58,4.482 2.836,5.907 l 0,0 0.105,0.624 -0.521,0.362 c -5.985,4.144 -20.664,17.805 -23.007,20.03 l 0,0 -1.555,-1.222 0,0 z m 4.799,-4.523 c 5.27,-4.841 13.461,-12.197 18.059,-15.526 l 0,0 c -0.347,-1.064 -1.225,-2.896 -2.359,-4.51 l 0,0 c -1.134,-1.67 -2.594,-3.139 -3.84,-3.723 l 0,0 c -1.342,2.91 -6.161,13.235 -11.86,23.759 l 0,0 z"
             id="path16123" /><path
             style="fill:#f4f4f4"
             inkscape:connector-curvature="0"
             d="m 251.595,53.63 c 6,15 8.25,32.75 8.75,54 0.5,21.25 -1,39.25 -1.75,52.75 -0.75,13.5 -1,25 0.5,36.75 1.5,11.75 4.75,45 -3,54.5 -1,-6 -1,-6 -1,-6 0,0 3,-9 3.5,-16.25 0.5,-7.25 -1,-24.75 -2.25,-31.5 -1.25,-6.75 -2,-34.5 -0.25,-47.25 1.75,-12.75 3.5,-36.5 1.5,-54.5 -2,-18 -4.5,-30.75 -6.5,-34.5 -2,-3.75 -0.5,-9.5 0.5,-8 z"
             id="path16125" /><polygon
             style="fill:#f4f4f4"
             points="283.346,312.545 284.347,294.794 287.343,294.964 286.341,312.713 283.346,312.545 "
             id="polygon16127" /><polygon
             style="fill:#f4f4f4"
             points="302.866,295.882 305.822,295.375 308.822,312.875 305.866,313.383 302.866,295.882 "
             id="polygon16129" /><path
             style="fill:#f4f4f4"
             inkscape:connector-curvature="0"
             d="m 283.624,273.999 c -5.456,-0.495 -13.376,-5.908 -13.364,-17.953 l 0,0 c 0,-0.725 0.027,-1.474 0.087,-2.245 l 0,0 0,0 c 0.422,-5.477 1.226,-10.977 3.279,-15.283 l 0,0 c 2.019,-4.306 5.542,-7.465 10.93,-7.638 l 0,0 c 3.122,-0.118 8.053,-0.173 13.595,-0.175 l 0,0 c 12.372,0.002 27.679,0.277 32.551,0.806 l 0,0 c 6.906,0.687 12.091,2.466 14.939,9.485 l 0,0 c 1.527,3.712 1.881,8.865 1.89,13.622 l 0,0 c 0,4.354 -0.325,8.368 -0.439,10.442 l 0,0 c -0.129,2.318 -0.778,4.82 -2.724,6.801 l 0,0 c -1.943,1.979 -5.063,3.321 -9.833,3.64 l 0,0 c -1.5,0.101 -3.64,0.142 -6.223,0.144 l 0,0 c -13.806,-0.002 -40.18,-1.222 -44.688,-1.646 l 0,0 z m -11.283,-20.043 c -0.056,0.719 -0.081,1.415 -0.081,2.09 l 0,0 c 0.013,11.09 7.109,15.516 11.554,15.964 l 0,0 c 4.335,0.411 30.815,1.635 44.5,1.635 l 0,0 c 2.561,0 4.675,-0.043 6.088,-0.139 l 0,0 c 4.479,-0.307 7.048,-1.525 8.542,-3.047 l 0,0 c 1.492,-1.52 2.031,-3.457 2.152,-5.511 l 0,0 c 0.118,-2.118 0.437,-6.066 0.437,-10.33 l 0,0 c 0.009,-4.637 -0.397,-9.658 -1.737,-12.856 l 0,0 c -2.651,-6.23 -6.468,-7.452 -13.311,-8.264 l 0,0 c -4.624,-0.508 -20.021,-0.793 -32.333,-0.791 l 0,0 c -5.525,-0.002 -10.451,0.057 -13.521,0.171 l 0,0 c -4.611,0.202 -7.3,2.615 -9.2,6.503 l 0,0 c -1.865,3.884 -2.685,9.196 -3.09,14.573 l 0,0 -0.997,-0.074 0.997,0.076 0,0 z"
             id="path16131" /><polygon
             style="fill:#f4f4f4"
             points="289.471,273.366 289.97,231.992 291.969,232.016 291.47,273.392 289.471,273.366 "
             id="polygon16133" /><polygon
             style="fill:#f4f4f4"
             points="309.095,274.229 310.094,232.23 312.094,232.278 311.093,274.277 309.095,274.229 "
             id="polygon16135" /><polygon
             style="fill:#f4f4f4"
             points="330.721,274.333 332.596,233.208 334.593,233.3 332.718,274.425 330.721,274.333 "
             id="polygon16137" /><polygon
             style="fill:#f4f4f4"
             points="271.698,253.379 271.742,251.38 346.366,253.005 346.322,255.005 271.698,253.379 "
             id="polygon16139" /></g><g
           id="g4522"
           transform="matrix(3.0089431,1.4610311,1.3783274,2.0041268,-430.89291,-127.83323)"
           style="fill:none;stroke:#f4f4f4;stroke-width:2.23249936;stroke-miterlimit:4;stroke-dasharray:none;stroke-opacity:1"><path
             inkscape:connector-curvature="0"
             style="font-style:normal;font-variant:normal;font-weight:bold;font-stretch:normal;font-size:205.44360352px;line-height:125%;font-family:'Comic Sans MS';-inkscape-font-specification:'Comic Sans MS Bold';text-align:start;writing-mode:lr-tb;text-anchor:start;display:inline;fill:none;fill-opacity:1;stroke:#f4f4f4;stroke-width:2.35500002;stroke-miterlimit:4;stroke-dasharray:none;stroke-opacity:1"
             d="m 564.63672,11.431641 c -4.1491,0.150156 -7.3877,1.241866 -10.58984,2.740234 -3.20215,1.498368 -6.26046,3.166105 -9.1836,7.044922 -3.27965,4.351933 -4.68756,8.666 -6.30859,14.1875 -1.02822,3.502301 -1.96155,7.446206 -2.8125,11.697265 -3.47969,-4.98706 -6.84051,-9.535124 -9.40039,-12.46875 -4.59939,-5.270813 -9.18998,-9.299868 -14.82618,-10.912109 -3.42713,-0.980335 -6.49096,-1.131252 -9.58203,-0.933594 -2.16211,0.138257 -4.23737,0.31793 -6.61718,1.175782 -0.41233,-3.366518 -0.40155,-6.211746 -3.86914,-9.347657 -2.18022,-1.97157 -3.01372,-1.755796 -3.83594,-1.96289 -0.82222,-0.207095 -1.51796,-0.312249 -2.25977,-0.400391 -1.48362,-0.176284 -3.10221,-0.25 -4.88867,-0.25 -3.78388,0 -7.28421,0.484972 -10.49609,1.644531 -3.21189,1.15956 -6.46087,3.01086 -8.4375,6.759766 -1.43558,2.72274 -1.08535,3.355053 -1.25,4.835938 -0.16466,1.480883 -0.28613,3.288448 -0.40235,5.683593 -0.23242,4.790293 -0.4234,11.886784 -0.625,22.296875 -0.1914,9.88289 -0.35493,17.254276 -0.56836,23.052735 -3.80572,-6.22828 -8.1859,-14.925408 -15.46289,-30.63086 -2.55171,-5.507199 -4.62879,-9.795609 -6.28711,-12.957031 -0.82915,-1.580711 -1.54561,-2.873017 -2.23632,-3.984375 -0.69072,-1.111357 -0.84449,-1.858959 -2.87305,-3.486328 -2.51482,-2.017465 -6.43576,-3.003906 -9.58008,-3.003906 -2.39269,0 -5.27021,0.04646 -8.38281,0.791015 -1.5563,0.372279 -3.2536,0.807945 -5.25781,2.414063 -2.00422,1.606117 -3.93328,5.717534 -3.26954,8.921875 l 0.21875,1.068359 0.20508,1.839844 c -2.11011,-0.553186 -4.24916,-0.817282 -6.40625,-0.884766 -4.02417,-0.12589 -8.11971,0.403171 -12.16211,2.431641 -4.0424,2.028463 -8.38808,6.737784 -8.75586,12.615234 a 8.9099783,8.9099783 0 0 0 0.0195,1.345703 c 0.27467,3.092393 0.51122,6.122298 0.72852,9.113282 -4.99568,-2.367078 -9.97588,-3.361339 -14.25391,-3.900391 a 10.516431,10.516431 0 0 0 -1.31445,-0.08398 c -8.90261,7.5e-5 -17.44481,3.20283 -24.38672,8.791015 -1.70634,-3.096251 -4.36314,-5.412579 -6.75976,-6.716797 -3.70407,-2.01573 -7.37451,-2.719801 -11.07618,-2.898437 -3.70164,-0.178636 -7.43245,0.224765 -11.20312,1.603515 -1.00905,0.368963 -2.05163,0.842642 -3.08789,1.40625 -0.76844,-0.483304 -1.54404,-0.983469 -2.27734,-1.298828 -4.09636,-1.761626 -8.09826,-2.154101 -12.15625,-1.939453 -1.67112,0.08839 -3.35163,0.297406 -5.0293,0.652344 -0.13502,-6.852254 -0.7591,-14.313861 -7.16602,-19.748047 -3.60238,-3.566603 -8.15262,-5.292011 -12.74609,-5.572266 -4.7155,-0.287698 -9.77712,1.008245 -13.95313,4.361329 a 9.7489938,9.7489938 0 0 0 -0.6621,0.583984 c 0.051,-0.04919 -3.83462,3.244055 -4.92383,7.753906 -0.99054,4.101283 -0.44405,7.700815 0.61133,12.691407 0.004,0.319944 -0.0215,0.369671 -0.0293,0.65039 -0.32426,2.07e-4 -0.22471,0.03714 -0.59766,0.02539 a 9.7489938,9.7489938 0 0 0 -0.54101,-0.002 c -7.40455,0.176879 -14.1041,2.31992 -19.67188,5.78125 0.15166,-0.717275 0.28502,-1.433688 0.39063,-2.144532 a 4.3134751,4.3134751 0 0 0 0.004,-0.01563 c 0.12449,-0.859034 0.13677,-1.731335 0.0391,-2.59375 -0.53025,-4.740525 -2.39534,-9.547587 -6.08789,-13.226562 -3.73032,-3.716609 -8.79886,-5.679106 -14.05078,-6.005859 a 4.3134751,4.3134751 0 0 0 -0.0449,-0.002 c -0.34374,-0.01785 -0.68749,-0.01723 -1.03125,0 -5.45837,0.232247 -10.84064,1.853187 -14.95898,5.607422 -4.19394,3.823143 -6.16528,9.172458 -6.35938,14.367188 -0.0277,0.603373 -0.002,1.207968 0.0781,1.80664 a 4.3134751,4.3134751 0 0 0 0.006,0.05078 c 0.10574,0.725009 0.24772,1.444633 0.41601,2.158203 -2.7703,-1.077369 -5.43929,-1.775491 -7.77344,-2.544922 a 10.152499,10.152499 0 0 0 -0.90429,-0.251953 c -1.84962,-0.425338 -3.7521,-0.686257 -5.74805,-0.810547 -1.99595,-0.124283 -4.08348,-0.111407 -6.30078,0.0098 -6.6534,0.363611 -14.22503,1.720602 -21.26367,5.697266 -0.87862,0.4964 -1.75198,1.059129 -2.60742,1.681641 -1.08052,-1.339344 -2.30125,-2.55197 -3.67579,-3.597657 -5.95106,-4.527294 -13.18031,-5.763437 -20.67187,-5.976562 -2.05963,-0.0586 -4.24577,-0.04744 -6.52539,0.05078 -7.96051,0.177202 -15.016121,2.382247 -20.771486,6.119141 -1.481435,-8.13002 -4.826305,-14.640762 -9.80688,-19.277281 -6.329868,-5.892598 -13.820802,-8.341099 -20.855469,-10.738281 -0.03715,-0.0077 -0.07406,-0.01628 -0.111328,-0.02344 -0.306992,-0.101968 -0.61994,-0.184495 -0.9375,-0.246093 C 47.722451,30.795525 36.024523,30.679048 26.294922,30.375 c -0.410348,-0.02639 -0.593559,-0.02639 -1.003906,0 -0.06708,0.0065 -0.134289,0.01509 -0.201172,0.02344 -5.772461,0.530376 -12.400017,1.55754 -17.9082034,6.339843 -5.5746114,4.839965 -7.24774959,12.982317 -5.2910156,20.855469 -1.07e-5,0.0074 -1.07e-5,0.01404 0,0.02148 2.5967466,20.692697 2.5550452,44.770318 -0.4023438,65.691408 0.046637,-0.32988 0.035379,-0.27943 -0.023437,0.13477 -0.046808,0.34782 -0.068612,0.69788 -0.066406,1.04882 -0.2577133,2.84134 0.2552015,5.74297 1.8320313,8.35157 1.7069702,2.8239 4.1207127,4.57841 6.2519531,5.69336 4.1939374,2.19403 8.5224644,2.77546 12.5468754,2.94726 4.068213,0.17368 8.058904,-0.14902 11.701172,-1.0039 1.817473,-0.42659 3.676591,-1.02149 5.537109,-2.00977 1.525533,-0.81034 4.702282,-3.03222 6.029297,-6.76563 0.487872,1.02569 1.105123,2.05799 1.875,3.08008 0.01019,0.0128 0.01317,0.0322 0.02344,0.0449 0.02201,0.0374 0.04376,0.0743 0.06641,0.11133 -1.00684,-1.30723 -0.967377,-1.19303 0.134765,0.20117 0.488601,0.60699 1.068076,1.13575 1.71875,1.56446 1.242459,1.06217 2.488894,1.90153 3.326172,2.27734 1.452713,0.65205 2.941617,1.10658 4.44336,1.45117 2.89142,0.66348 5.993103,1.00959 9.199218,1.13868 3.205315,0.12905 6.503813,0.0407 9.669922,-0.42383 2.90624,-0.42641 6.751897,-1.06604 10.226563,-4.06446 0.762957,-0.65838 1.429485,-1.37007 2.027343,-2.11328 0.876771,0.65308 1.769456,1.28666 2.697266,1.87696 0.18606,0.12649 0.373954,0.25204 0.56836,0.36328 a 6.5348884,6.6930288 0 0 0 0.357421,0.1914 c 4.798946,2.36032 9.363364,3.95014 14.138674,4.37696 6.1514,0.54981 11.92002,-0.96262 18.0293,-3.38477 5.16407,-2.02768 10.25245,-4.31743 14.52734,-7.67383 0.42236,0.33832 0.84599,0.66873 1.26563,0.97657 5.32495,3.90627 11.1594,6.17358 16.04687,7.82226 a 10.152499,10.152499 0 0 0 0.66992,0.19922 c 12.43152,3.25733 23.31763,0.0502 30.30469,-3.29102 0.75941,-0.30538 1.48242,-0.65289 2.17188,-1.03515 0.86118,0.90936 1.81814,1.7165 2.86132,2.38867 4.47291,2.88207 9.40288,3.64887 13.84766,3.58984 4.44371,-0.059 9.32441,-0.95208 13.6875,-3.91601 1.59516,-1.08363 3.19642,-2.56276 4.4707,-4.47461 6.11813,4.80373 13.70431,7.86385 22.01954,8.5293 4.74906,0.53998 9.21701,-0.45409 13.10546,-2.03516 1.71557,1.01719 3.80815,2.01756 7.14844,2.01758 a 9.7489938,9.7489938 0 0 0 0.32813,-0.006 c 5.06234,-0.17032 10.45799,-1.68951 14.35937,-5.76367 0.57992,-0.6056 1.09602,-1.25061 1.5625,-1.91993 5.17491,4.06476 11.95934,6.61933 19.5625,7.18165 a 10.325046,10.325046 0 0 0 0.76172,0.0293 c 3.68303,1e-5 6.59318,-0.69849 8.93359,-1.48047 3.06076,1.6098 6.76471,2.16634 10.29688,1.97461 4.00499,0.0153 7.96836,-0.66318 11.5332,-2.84961 1.49946,-0.91966 2.79222,-2.10475 3.88281,-3.40039 5.51261,3.84834 12.41602,6.09948 19.98047,6.88281 a 10.516431,10.516431 0 0 0 1.38086,0.0508 c 3.87746,-0.10972 7.11722,-1.00523 9.98438,-2.09375 2.14464,1.26148 4.63435,2.31248 7.64258,2.58984 a 10.516431,10.516431 0 0 0 1.38281,0.0352 c 3.98994,-0.15833 7.84654,-1.60283 10.94922,-3.81055 3.73815,1.95106 7.58689,2.62699 11.37109,2.64844 3.81248,0.0216 7.58325,-0.5981 11.26758,-2.47071 3.68432,-1.8726 7.82902,-5.91886 8.37695,-11.54882 a 8.9099783,8.9099783 0 0 0 -0.006,-1.78321 c -0.92613,-8.92638 -2.09436,-30.345466 -1.59375,-51.533203 3.18136,7.45259 6.84082,15.394442 10.72266,22.240235 4.36601,7.699638 9.91761,16.937388 14.69922,24.595708 2.3908,3.82915 4.5836,7.25549 6.36328,9.92578 1.77967,2.67029 2.29255,3.8822 4.5,6.05273 0.98486,0.96838 3.1427,2.90396 5.86523,3.50586 2.72254,0.60189 4.20633,0.26796 6.64453,0.0918 3.24474,-0.23446 6.62112,-0.85822 9.66602,-1.6543 1.52245,-0.39804 2.94316,-0.83391 4.28516,-1.35742 1.342,-0.52351 2.48089,-0.81696 4.33984,-2.49805 2.21305,-2.00138 1.92222,-2.61708 2.16602,-3.24609 0.2438,-0.62901 0.39089,-1.13293 0.54101,-1.68359 0.30025,-1.10132 0.5722,-2.34321 0.87305,-3.86329 0.60168,-3.04013 1.2869,-7.13353 2.04101,-12.17382 1.16719,-7.80107 2.1504,-15.121085 2.96094,-22.05274 1.63643,8.33834 3.2068,16.09492 4.30664,21.1836 2.07966,9.62193 2.79314,13.9787 4.53711,18.48242 0.87197,2.25187 2.63001,5.61708 6.16992,7.74609 3.53991,2.12901 6.14181,1.95477 6.88282,2.01953 2.91028,0.25437 3.56824,-0.0414 5.05273,-0.23828 1.48448,-0.19687 3.05772,-0.4689 4.65039,-0.81445 3.5625,-0.77297 7.10977,-1.14025 11.28711,-4.98242 4.17724,-3.84209 5.00329,-9.7242 4.99609,-12.88477 -0.002,-1.02326 -0.0564,-2.05711 -0.13476,-3.09961 2.96043,0.72441 5.5217,0.43354 8.10547,-0.041 2.42601,-0.44559 4.92653,-1.21596 7.35547,-2.7168 0.42949,1.44905 0.91517,2.84783 1.5332,4.24219 0.98041,2.2119 1.68746,4.73489 6.03515,7.5039 5.82026,3.70676 11.43655,2.99535 16.76563,2.02735 3.28285,-0.59634 6.23157,-1.30604 9.45703,-3.1836 3.22546,-1.87754 7.3167,-6.38878 7.6543,-11.82226 0.19042,-3.06553 -0.0622,-2.19123 -0.11133,-2.5625 -0.0491,-0.37129 -0.10128,-0.70738 -0.16406,-1.10157 -0.12557,-0.78838 -0.2939,-1.77415 -0.50977,-3 -0.43171,-2.4517 -1.05003,-5.83117 -1.81445,-9.933591 -1.52883,-8.204843 -3.64256,-19.284954 -5.98047,-31.300782 -4.64085,-23.851819 -6.80012,-35.222526 -8.47656,-41.794921 -0.83823,-3.286198 -1.06956,-5.50096 -3.80469,-9.048829 -1.36757,-1.773934 -3.92881,-3.632263 -5.90625,-4.359375 -1.97744,-0.727112 -2.88261,-0.732029 -2.88477,-0.732422 -1.46739,-0.267224 -2.74395,-0.306089 -3.91601,-0.263671 z M 421.4043,45.345703 c 0.0143,0.129292 0.10096,0.29785 0.0117,1.148438 a 7.3287215,7.3287215 0 0 0 -0.0117,-1.148438 z m -0.0723,1.892578 c -0.042,0.417023 -0.11555,0.969212 -0.50781,1.742188 a 7.3287215,7.3287215 0 0 0 0.50781,-1.742188 z m 126.22852,17.363281 c 0.92865,0.597066 0.53959,0.551247 0,0 z m -15.13477,14.576172 c -0.004,0.08015 0.18051,0.399755 0.10547,1.044922 -0.0501,-0.567266 -0.0991,-1.178877 -0.10547,-1.044922 z M 174.1445,83.412109 c 0.0516,0.02587 0.20809,0.268919 0.3457,0.472657 -0.29065,-0.283821 -0.44557,-0.522716 -0.3457,-0.472657 z m -63.61328,4.53711 c 0.0145,0.05009 0.0334,0.09857 0.0488,0.148437 -4.9e-4,-0.0015 -0.005,-0.0044 -0.006,-0.0059 l -0.043,-0.142578 z m 0.28906,0.21289 c 0.20103,0.339305 0.3864,0.623309 0.42188,0.728516 4.5e-4,0.0043 -0.002,0.01511 -0.002,0.01953 -0.19083,-0.238202 -0.33074,-0.358418 -0.4414,-0.542968 0.005,-0.0461 0.0131,-0.136608 0.0215,-0.205079 z m 346.87891,0.740235 c -0.0196,0.09957 -0.0489,0.310966 -0.0625,0.357422 -0.029,0.09852 -0.0621,-0.05434 0.0625,-0.357422 z"
             transform="matrix(0.94798276,0,0,0.94798276,-0.71100125,3.0318458)"
             id="path4715" /><g
             style="display:inline;fill:none;stroke:#f4f4f4;stroke-width:19.77560616;stroke-miterlimit:4;stroke-dasharray:none;stroke-opacity:1"
             transform="matrix(0.11289158,0,0,0.11289158,339.71236,-34.084938)"
             id="g4778"><g
               id="layer2-2"
               inkscape:label="green"
               style="display:inline;fill:none;stroke:#f4f4f4;stroke-width:19.77560616;stroke-miterlimit:4;stroke-dasharray:none;stroke-opacity:1" /></g><path
             inkscape:connector-curvature="0"
             sodipodi:nodetypes="cccccccscccccccccc"
             id="path4525"
             d="m 23.915738,40.489671 c -9.553732,0.877811 -17.420375,4.10959 -13.788056,15.608741 2.575483,20.523334 2.510756,44.011248 -0.4420688,64.805998 -1.8500229,9.1274 22.8030458,7.68424 24.0179338,3.55001 -0.449183,-7.03527 -2.226039,-11.12477 3.283017,-15.13203 5.229921,-2.25473 7.226067,0.1327 9.489145,2.03973 4.35478,5.7247 1.58672,9.55835 4.867713,13.70931 1.832865,2.89878 19.594173,3.97898 23.504303,0.60478 4.381006,-3.78052 1.797991,-9.66495 -0.737038,-14.01456 C 70.695148,105.20043 63.318422,99.97546 63.164137,94.27755 64.174033,85.978688 75.853367,84.305482 76.414916,71.192734 75.647328,52.11602 65.932964,48.355433 52.707085,43.848488 44.363778,41.100344 33.465912,40.788119 23.915738,40.489671 Z M 40.326356,63.38181 c 7.051416,0.118444 8.625722,6.275896 8.583523,9.31419 0.25591,3.247557 -0.539997,11.071634 -8.320151,11.111618 -7.040745,-0.421826 -8.290716,-7.874132 -8.246566,-11.04119 0.160214,-3.341549 1.501069,-9.167338 7.983194,-9.384618 z"
             style="font-style:normal;font-variant:normal;font-weight:bold;font-stretch:normal;font-size:205.44360352px;line-height:125%;font-family:'Comic Sans MS';-inkscape-font-specification:'Comic Sans MS Bold';text-align:start;writing-mode:lr-tb;text-anchor:start;display:inline;fill:none;fill-opacity:1;stroke:#f4f4f4;stroke-width:2.23249936;stroke-miterlimit:4;stroke-dasharray:none;stroke-opacity:1" /><path
             transform="matrix(0.67734952,0,0,0.67734952,-25.59016,-24.499086)"
             d="m 198.90625,137.46875 c -2.57828,-0.0716 -5.30651,-0.0292 -8.15625,0.0937 -28.32836,0.58421 -40.21928,21.05446 -41.75,47.28125 1.22617,18.55111 7.99972,27.55273 20.34375,35.15625 5.76058,2.76636 10.47802,4.28469 15.09375,4.6875 5.91641,0.51633 11.66514,-0.82377 19.21875,-3.75 18.66254,-7.15474 32.78406,-17.65977 18.71875,-31.40625 -6.21999,-2.801 -13.81854,1.65359 -32.03125,7.0625 -4.97085,1.50653 -8.84189,-3.41916 -1.25,-5.5625 27.38,-7.44887 38.79034,-10.42806 39.28125,-29.1875 -0.32361,-18.11709 -11.42077,-23.87368 -29.46875,-24.375 z m -6.8125,19.0625 c 4.11735,-0.21806 7.93126,1.28502 9.15625,5.09375 4.71827,11.89036 -19.22889,20.01897 -21.84375,7.4375 -1.91509,-7.04922 5.82525,-12.16781 12.6875,-12.53125 z"
             id="path4701"
             style="font-style:normal;font-variant:normal;font-weight:bold;font-stretch:normal;font-size:176.14732361px;line-height:125%;font-family:'Comic Sans MS';-inkscape-font-specification:'Comic Sans MS Bold';text-align:start;writing-mode:lr-tb;text-anchor:start;display:inline;fill:none;fill-opacity:1;stroke:#f4f4f4;stroke-width:3.2959342;stroke-miterlimit:4;stroke-dasharray:none;stroke-opacity:1"
             inkscape:original="M 198.90625 137.46875 C 196.32797 137.39713 193.59974 137.43951 190.75 137.5625 C 162.42164 138.14671 150.53072 158.61696 149 184.84375 C 150.22617 203.39486 156.99972 212.39648 169.34375 220 C 175.10433 222.76636 179.82177 224.28469 184.4375 224.6875 C 190.35391 225.20383 196.10264 223.86373 203.65625 220.9375 C 222.31879 213.78276 236.44031 203.27773 222.375 189.53125 C 216.15501 186.73025 208.55646 191.18484 190.34375 196.59375 C 185.3729 198.10028 181.50186 193.17459 189.09375 191.03125 C 216.47375 183.58238 227.88409 180.60319 228.375 161.84375 C 228.05139 143.72666 216.95423 137.97007 198.90625 137.46875 z M 192.09375 156.53125 C 196.2111 156.31319 200.02501 157.81627 201.25 161.625 C 205.96827 173.51536 182.02111 181.64397 179.40625 169.0625 C 177.49116 162.01328 185.2315 156.89469 192.09375 156.53125 z "
             inkscape:radius="0"
             sodipodi:type="inkscape:offset" /><path
             transform="matrix(0.67734952,0,0,0.67734952,-24.235426,-24.499086)"
             d="m 267.3125,140.3125 c -15.3985,0.84151 -35.51152,7.23846 -35.625,25.15625 1.55896,21.88225 34.93809,25.78667 36.5625,31.125 -0.50006,9.00788 -25.67939,-11.10555 -31.375,-6.125 -10.20439,10.14289 -6.38833,18.12153 1.625,24 5.32351,3.90524 12.48694,6.8775 18.59375,8.9375 13.35766,3.49999 25.8886,-0.25389 33.40625,-3.96875 8.39372,-3.27294 11.41308,-14.17094 11.0625,-23.28125 -3.86056,-18.00193 -31.83682,-22.03465 -34.3125,-28.71875 0.31085,-10.60897 25.03514,12.83593 31.59375,5.5 12.30826,-22.39115 -3.55602,-26.8764 -18.625,-31.84375 -3.16983,-0.72894 -7.77342,-1.06175 -12.90625,-0.78125 z"
             id="path4705"
             style="font-style:normal;font-variant:normal;font-weight:bold;font-stretch:normal;font-size:182.18806458px;line-height:125%;font-family:'Comic Sans MS';-inkscape-font-specification:'Comic Sans MS Bold';text-align:start;writing-mode:lr-tb;text-anchor:start;display:inline;fill:none;fill-opacity:1;stroke:#f4f4f4;stroke-width:3.2959342;stroke-miterlimit:4;stroke-dasharray:none;stroke-opacity:1"
             inkscape:original="M 267.3125 140.3125 C 251.914 141.15401 231.80098 147.55096 231.6875 165.46875 C 233.24646 187.351 266.62559 191.25542 268.25 196.59375 C 267.74994 205.60163 242.57061 185.4882 236.875 190.46875 C 226.67061 200.61164 230.48667 208.59028 238.5 214.46875 C 243.82351 218.37399 250.98694 221.34625 257.09375 223.40625 C 270.45141 226.90624 282.98235 223.15236 290.5 219.4375 C 298.89372 216.16456 301.91308 205.26656 301.5625 196.15625 C 297.70194 178.15432 269.72568 174.1216 267.25 167.4375 C 267.56085 156.82853 292.28514 180.27343 298.84375 172.9375 C 311.15201 150.54635 295.28773 146.0611 280.21875 141.09375 C 277.04892 140.36481 272.44533 140.032 267.3125 140.3125 z "
             inkscape:radius="0"
             sodipodi:type="inkscape:offset" /><path
             transform="matrix(0.67734952,0,0,0.67734952,-22.880761,-24.499086)"
             d="m 323.3125,111.28125 c -10.6165,0.44334 -16.0078,5.91577 -16.3125,14.375 1.42163,9.74741 6.52451,13.74902 16.3125,14.3125 9.5651,-0.69978 13.42442,-3.91783 14.96875,-14.3125 -0.91728,-8.20423 -5.94378,-13.8135 -14.96875,-14.375 z M 320.5,144.75 c -7.8403,0.40004 -15.59749,4.61781 -14.5,11.4375 2.66429,16.49494 2.57594,38.25787 -0.96875,57.03125 -4.10992,15.87299 34.56217,14.96683 29.5625,0 -4.26239,-17.03914 -3.11196,-36.01129 0.96875,-57.03125 0.69224,-8.41985 -7.2222,-11.83754 -15.0625,-11.4375 z"
             id="path4707"
             style="font-style:normal;font-variant:normal;font-weight:bold;font-stretch:normal;font-size:179.68840027px;line-height:125%;font-family:'Comic Sans MS';-inkscape-font-specification:'Comic Sans MS Bold';text-align:start;writing-mode:lr-tb;text-anchor:start;display:inline;fill:none;fill-opacity:1;stroke:#f4f4f4;stroke-width:3.2959342;stroke-miterlimit:4;stroke-dasharray:none;stroke-opacity:1"
             inkscape:original="M 323.3125 111.28125 C 312.696 111.72459 307.3047 117.19702 307 125.65625 C 308.42163 135.40366 313.52451 139.40527 323.3125 139.96875 C 332.8776 139.26897 336.73692 136.05092 338.28125 125.65625 C 337.36397 117.45202 332.33747 111.84275 323.3125 111.28125 z M 320.5 144.75 C 312.6597 145.15004 304.90251 149.36781 306 156.1875 C 308.66429 172.68244 308.57594 194.44537 305.03125 213.21875 C 300.92133 229.09174 339.59342 228.18558 334.59375 213.21875 C 330.33136 196.17961 331.48179 177.20746 335.5625 156.1875 C 336.25474 147.76765 328.3403 144.34996 320.5 144.75 z "
             inkscape:radius="0"
             sodipodi:type="inkscape:offset" /><path
             transform="matrix(0.67734952,0,0,0.67734952,-21.526025,-24.499086)"
             d="m 404.59375,98.65625 c -3.52981,-0.215362 -7.2086,0.758205 -10.15625,3.125 -2.54267,2.45128 -5.10381,2.90832 -1.84375,17.78125 0.3944,11.13369 1.58844,16.11525 -14.96875,15.59375 -27.36095,0.65359 -39.97091,22.87856 -41.375,47.6875 0.3256,23.83872 16.3794,40.0078 39.6875,41.71875 8.15442,0.99936 12.23628,-1.05413 18.125,-5.25 2.37595,2.04009 5.79344,5.09373 8.84375,5.09375 9.68547,-0.32586 14.28138,-5.26412 13.71875,-14.1875 -11.2245,-25.90766 13.72332,-95.16678 -2.78125,-107.5625 -2.33479,-2.39228 -5.72019,-3.784638 -9.25,-4 z m -28.78125,65.8125 c 16.58914,-0.51274 14.88096,28.84785 0.375,29.6875 -15.29117,0.2982 -15.97506,-29.22887 -0.375,-29.6875 z"
             id="path4709"
             style="font-style:normal;font-variant:normal;font-weight:bold;font-stretch:normal;font-size:167.25732422px;line-height:125%;font-family:'Comic Sans MS';-inkscape-font-specification:'Comic Sans MS Bold';text-align:start;writing-mode:lr-tb;text-anchor:start;display:inline;fill:none;fill-opacity:1;stroke:#f4f4f4;stroke-width:3.2959342;stroke-miterlimit:4;stroke-dasharray:none;stroke-opacity:1"
             inkscape:original="M 404.59375 98.65625 C 401.06394 98.440888 397.38515 99.414455 394.4375 101.78125 C 391.89483 104.23253 389.33369 104.68957 392.59375 119.5625 C 392.98815 130.69619 394.18219 135.67775 377.625 135.15625 C 350.26405 135.80984 337.65409 158.03481 336.25 182.84375 C 336.5756 206.68247 352.6294 222.85155 375.9375 224.5625 C 384.09192 225.56186 388.17378 223.50837 394.0625 219.3125 C 396.43845 221.35259 399.85594 224.40623 402.90625 224.40625 C 412.59172 224.08039 417.18763 219.14213 416.625 210.21875 C 405.4005 184.31109 430.34832 115.05197 413.84375 102.65625 C 411.50896 100.26397 408.12356 98.871612 404.59375 98.65625 z M 375.8125 164.46875 C 392.40164 163.95601 390.69346 193.3166 376.1875 194.15625 C 360.89633 194.45445 360.21244 164.92738 375.8125 164.46875 z "
             inkscape:radius="0"
             sodipodi:type="inkscape:offset" /><path
             inkscape:connector-curvature="0"
             sodipodi:nodetypes="cccccccccc"
             id="path4518"
             d="m 265.1732,73.975759 c -2.03723,20.035161 -6.3072,51.249391 20.87232,53.259531 3.51633,0 6.96367,-1.72462 10.31741,-2.74373 1.86858,1.74816 2.21293,3.57407 7.53262,3.2354 11.1952,0.24963 9.49291,-8.04969 9.30096,-15.87368 -2.91293,-11.41709 -1.83761,-26.366161 -0.43865,-39.119221 -0.52075,-6.792354 -17.37441,-7.582461 -20.53335,-1.018018 -2.16487,6.876603 2.84304,31.080179 -3.30366,32.611729 -5.61814,-1.67245 0.14592,-28.248252 -1.08083,-32.331394 -0.65013,-7.129805 -20.01064,-6.886105 -22.66682,1.979383 z"
             style="font-style:normal;font-variant:normal;font-weight:bold;font-stretch:normal;font-size:166.08294678px;line-height:125%;font-family:'Comic Sans MS';-inkscape-font-specification:'Comic Sans MS Bold';text-align:start;writing-mode:lr-tb;text-anchor:start;display:inline;fill:none;fill-opacity:1;stroke:#f4f4f4;stroke-width:2.23249936;stroke-miterlimit:4;stroke-dasharray:none;stroke-opacity:1" /><path
             transform="matrix(0.67734952,0,0,0.67734952,-18.816624,-24.499086)"
             d="m 535.625,135.46875 c -11.38768,8e-5 -21.65912,4.71388 -29.84375,13.6875 -8.1991,8.93737 -12.53127,20.35466 -12.53125,33.03125 0.265,25.07963 9.29772,39.23274 34.8125,41.875 5.89792,-0.16689 11.3655,-2.7404 16.5625,-5.3125 2.71497,3.02362 5.67923,5.67565 9.875,6.0625 8.06066,-0.31988 12.70786,-6.75693 13.3125,-14.3125 -2.44983,-11.16272 -4.32272,-20.87144 -4.9375,-32.53125 -0.2751,-7.67394 0.31392,-15.32132 0.75,-22.40625 -0.88518,-13.71358 -16.47312,-18.64131 -28,-20.09375 z m -5.5625,29.4375 c 15.98839,0.91287 14.81779,29.85985 0.15625,29.5625 -14.69914,-0.24871 -14.13421,-28.90571 -0.15625,-29.5625 z"
             id="path4711"
             style="font-style:normal;font-variant:normal;font-weight:bold;font-stretch:normal;font-size:162.06369019px;line-height:125%;font-family:'Comic Sans MS';-inkscape-font-specification:'Comic Sans MS Bold';text-align:start;writing-mode:lr-tb;text-anchor:start;display:inline;fill:none;fill-opacity:1;stroke:#f4f4f4;stroke-width:3.2959342;stroke-miterlimit:4;stroke-dasharray:none;stroke-opacity:1"
             inkscape:original="M 535.625 135.46875 C 524.23732 135.46883 513.96588 140.18263 505.78125 149.15625 C 497.58215 158.09362 493.24998 169.51091 493.25 182.1875 C 493.515 207.26713 502.54772 221.42024 528.0625 224.0625 C 533.96042 223.89561 539.428 221.3221 544.625 218.75 C 547.33997 221.77362 550.30423 224.42565 554.5 224.8125 C 562.56066 224.49262 567.20786 218.05557 567.8125 210.5 C 565.36267 199.33728 563.48978 189.62856 562.875 177.96875 C 562.5999 170.29481 563.18892 162.64743 563.625 155.5625 C 562.73982 141.84892 547.15188 136.92119 535.625 135.46875 z M 530.0625 164.90625 C 546.05089 165.81912 544.88029 194.7661 530.21875 194.46875 C 515.51961 194.22004 516.08454 165.56304 530.0625 164.90625 z "
             inkscape:radius="0"
             sodipodi:type="inkscape:offset" /><path
             transform="matrix(0.67734952,0,0,0.67734952,-18.816624,-24.499086)"
             d="m 585.25,102.5 c -7.93215,-0.24815 -16.01875,2.68299 -16.4375,9.375 3.40499,38.33592 3.71089,71.51778 1.59375,94.4375 l 0.0312,9.125 c 2.32226,12.64669 29.90028,11.97858 30.96875,1 -1.8631,-17.95716 -4.2532,-66.03963 -0.59375,-104.25 0.15499,-6.0126 -7.63035,-9.43935 -15.5625,-9.6875 z"
             id="path4713"
             style="font-style:normal;font-variant:normal;font-weight:bold;font-stretch:normal;font-size:167.99964905px;line-height:125%;font-family:'Comic Sans MS';-inkscape-font-specification:'Comic Sans MS Bold';text-align:start;writing-mode:lr-tb;text-anchor:start;display:inline;fill:none;fill-opacity:1;stroke:#f4f4f4;stroke-width:3.2959342;stroke-miterlimit:4;stroke-dasharray:none;stroke-opacity:1"
             inkscape:original="M 585.25 102.5 C 577.31785 102.25185 569.23125 105.18299 568.8125 111.875 C 572.21749 150.21092 572.52339 183.39278 570.40625 206.3125 L 570.4375 215.4375 C 572.75976 228.08419 600.33778 227.41608 601.40625 216.4375 C 599.54315 198.48034 597.15305 150.39787 600.8125 112.1875 C 600.96749 106.1749 593.18215 102.74815 585.25 102.5 z "
             inkscape:radius="0"
             sodipodi:type="inkscape:offset" /><path
             sodipodi:nodetypes="cccssssssssssssssssscc"
             inkscape:connector-curvature="0"
             id="path5747"
             d="m 482.03796,118.83321 c -2.41569,-10.0144 -12.47378,-67.641306 -13.60547,-76.601266 -1.81898,-7.970108 7.20815,-12.392331 12.95199,-9.596537 4.40227,2.314662 11.22016,10.590538 23.18923,28.148315 6.11908,8.976248 7.73057,10.551865 8.88373,8.686019 0.27243,-0.440802 1.57263,-6.712735 2.88935,-13.937627 2.70159,-14.824032 5.40436,-24.104578 8.40372,-28.855846 2.81841,-4.464629 9.11278,-6.836567 12.79503,-4.585691 1.42497,0.870998 4.02202,3.891713 7.85855,23.839105 7.34591,38.193891 14.42215,60.405458 12.21529,67.907818 -1.40467,4.77528 -13.62477,5.43828 -16.06445,2.9632 -4.16235,-4.22273 -3.16696,-6.15709 -4.73136,-19.814 -1.30661,-11.406755 -3.96021,-25.216758 -5.34563,-27.819744 -2.16237,-4.062928 -4.18404,3.487885 -6.66417,24.890194 -0.73962,6.38231 -1.64824,10.89108 -2.33283,11.57566 -1.58351,1.58354 -7.50577,2.25367 -8.99483,1.01783 -0.66156,-0.54905 -4.53222,-6.99654 -8.60152,-14.32777 -8.10966,-14.610512 -10.60269,-18.10203 -11.96823,-16.761564 -1.10483,1.084582 0.15267,11.589423 2.37746,19.860784 4.90887,18.25037 8.18003,22.44453 7.47919,26.73597 -0.68543,4.19716 -1.31498,5.6135 -8.78071,7.89667 -7.31206,1.21304 -10.13257,-4.40421 -11.95434,-11.22152 z"
             style="display:inline;fill:none;fill-opacity:1;stroke:#f4f4f4;stroke-width:2.23249936;stroke-miterlimit:4;stroke-dasharray:none;stroke-opacity:1" /><path
             sodipodi:nodetypes="csssssssssssscc"
             inkscape:connector-curvature="0"
             id="path5745"
             d="m 432.74158,123.95987 c -8.1402,-11.28251 -11.4721,-18.75445 -19.67941,-33.268913 -10.83439,-19.160451 -22.7683,-49.821678 -22.7683,-55.873517 0,-3.802246 2.30499,-5.301566 8.15058,-5.301566 7.5587,0 6.57482,-1.354125 20.50454,28.220348 10.20345,21.6631 13.07522,26.869543 17.57794,31.868425 2.36728,2.628133 3.16556,3.098073 3.75564,2.210991 0.94586,-1.422007 1.6688,-13.838885 2.45118,-42.10031 0.5649,-20.405665 0.75573,-22.492424 2.33778,-25.564128 1.89418,-3.677889 4.71538,-5.139042 9.92249,-5.139042 2.36066,0 3.45558,0.503697 4.83013,2.221944 1.76339,2.204403 1.77364,2.40048 1.29984,24.845325 -0.26261,12.442867 -0.33131,29.545753 -0.86524,37.334327 -1.4482,21.125986 0.47192,25.274876 -4.19115,39.689336 -5.56764,7.23008 -18.84596,8.80322 -23.32602,0.85678 z"
             style="display:inline;fill:none;fill-opacity:1;stroke:#f4f4f4;stroke-width:2.23249936;stroke-miterlimit:4;stroke-dasharray:none;stroke-opacity:1" /></g></g></g></g></svg>