<?xml version="1.0" encoding="UTF-8" standalone="no"?>
<!-- Generator: Adobe Illustrator 13.0.0, SVG Export Plug-In . SVG Version: 6.00 Build 14948)  -->

<svg
   xmlns:dc="http://purl.org/dc/elements/1.1/"
   xmlns:cc="http://creativecommons.org/ns#"
   xmlns:rdf="http://www.w3.org/1999/02/22-rdf-syntax-ns#"
   xmlns:svg="http://www.w3.org/2000/svg"
   xmlns="http://www.w3.org/2000/svg"
   xmlns:sodipodi="http://sodipodi.sourceforge.net/DTD/sodipodi-0.dtd"
   xmlns:inkscape="http://www.inkscape.org/namespaces/inkscape"
   version="1.1"
   id="Layer_2"
   x="0px"
   y="0px"
   width="550"
   height="550"
   viewBox="0 0 549.99995 549.99999"
   enable-background="new 0 0 598.189 350.26"
   xml:space="preserve"
   inkscape:version="0.48.5 r10040"
   sodipodi:docname="controller_gg_vorlage.svg"><metadata
     id="metadata3083"><rdf:RDF><cc:Work
         rdf:about=""><dc:format>image/svg+xml</dc:format><dc:type
           rdf:resource="http://purl.org/dc/dcmitype/StillImage" /><dc:title></dc:title></cc:Work></rdf:RDF></metadata><defs
     id="defs3081" /><sodipodi:namedview
     pagecolor="#ffffff"
     bordercolor="#666666"
     borderopacity="1"
     objecttolerance="10"
     gridtolerance="10"
     guidetolerance="10"
     inkscape:pageopacity="0"
     inkscape:pageshadow="2"
     inkscape:window-width="1824"
     inkscape:window-height="920"
     id="namedview3079"
     showgrid="false"
     inkscape:zoom="1.0799262"
     inkscape:cx="165.68022"
     inkscape:cy="419.07678"
     inkscape:window-x="0"
     inkscape:window-y="0"
     inkscape:window-maximized="1"
     inkscape:current-layer="layer1"
     showguides="true"
     inkscape:guide-bbox="true" /><g
     inkscape:groupmode="layer"
     id="layer2"
     inkscape:label="Layer2"
     style="display:none"
     transform="translate(0,199.73999)"
     sodipodi:insensitive="true"><path
       style="fill:#ffffff;stroke:#000000;stroke-width:1px;stroke-linecap:butt;stroke-linejoin:miter;stroke-opacity:1"
       d="M 5.0135033,547.22203 136.4109,114.39023 653.54628,-189.09358 406.482,260.92121 z"
       id="path3021"
       inkscape:connector-curvature="0"
       transform="translate(-2e-5,-199.73999)"
       sodipodi:nodetypes="ccccc" /></g><g
     inkscape:groupmode="layer"
     id="layer1"
     inkscape:label="Layer"><g
       id="g3100"
       transform="matrix(0.55322035,-0.3970343,-0.34863416,0.85569517,173.63773,166.52161)"><path
         d="m 148.05,114.447 c -23.656,0 -42.861,19.204 -42.861,42.861 v 37.414 c 0,23.658 19.205,42.86 42.861,42.86 h 38.694 c 23.656,0 42.861,-19.202 42.861,-42.86 v -37.414 c 0,-23.657 -19.205,-42.861 -42.861,-42.861 H 148.05 z m 0,1.905 h 38.694 c 22.627,0 40.956,18.328 40.956,40.956 v 37.414 c 0,22.629 -18.329,40.956 -40.956,40.956 H 148.05 c -22.628,0 -40.956,-18.327 -40.956,-40.956 v -37.414 c 0,-22.629 18.328,-40.956 40.956,-40.956 z"
         id="path3"
         inkscape:connector-curvature="0"
         style="fill:#f4f4f4" /><path
         d="m 167.395,123.168 c -3.23,0 -5.863,2.633 -5.863,5.864 v 13.037 c 0,3.23 2.632,5.863 5.863,5.863 3.23,0 5.863,-2.633 5.863,-5.863 v -13.037 c 0,-3.23 -2.633,-5.864 -5.863,-5.864 z m 0,1.906 c 2.201,0 3.958,1.758 3.958,3.958 v 13.037 c 0,2.2 -1.758,3.958 -3.958,3.958 -2.202,0 -3.958,-1.758 -3.958,-3.958 v -13.037 c -0.001,-2.2 1.757,-3.958 3.958,-3.958 z"
         id="path5"
         inkscape:connector-curvature="0"
         style="fill:#f4f4f4" /><path
         d="m 120.425,170.135 c -3.23,0 -5.864,2.633 -5.864,5.864 0,3.231 2.632,5.894 5.864,5.894 h 13.037 c 3.229,0 5.864,-2.662 5.864,-5.894 0,-3.229 -2.633,-5.864 -5.864,-5.864 h -13.037 z m 0,1.905 h 13.037 c 2.201,0 3.959,1.759 3.959,3.959 0,2.201 -1.759,3.988 -3.959,3.988 h -13.037 c -2.198,-0.01 -3.955,-1.791 -3.955,-3.99 0,-2.201 1.758,-3.959 3.958,-3.959 l -0.003,0.002 z"
         id="path7"
         inkscape:connector-curvature="0"
         style="fill:#f4f4f4" /><path
         d="m 167.395,204.071 c -3.23,0 -5.863,2.663 -5.863,5.894 v 13.038 c 0,3.229 2.632,5.863 5.863,5.863 3.23,0 5.863,-2.633 5.863,-5.863 v -13.038 c 0,-3.23 -2.633,-5.894 -5.863,-5.894 z m 0,1.906 c 2.201,0 3.958,1.789 3.958,3.988 v 13.038 c 0,2.2 -1.757,3.958 -3.958,3.958 -2.202,0 -3.958,-1.759 -3.958,-3.958 v -13.038 c -0.001,-2.2 1.757,-3.988 3.958,-3.988 z"
         id="path9"
         inkscape:connector-curvature="0"
         style="fill:#f4f4f4" /><path
         d="m 201.321,170.135 c -3.229,0 -5.863,2.633 -5.863,5.864 0,3.231 2.633,5.894 5.863,5.894 h 13.067 c 3.229,0 5.863,-2.662 5.863,-5.894 0,-3.229 -2.633,-5.864 -5.863,-5.864 h -13.067 z m 0,1.905 h 13.067 c 2.2,0 3.958,1.76 3.958,3.959 0,2.201 -1.758,3.988 -3.958,3.988 h -13.067 c -2.2,0 -3.958,-1.788 -3.958,-3.988 0,-2.2 1.759,-3.959 3.958,-3.959 z"
         id="path11"
         inkscape:connector-curvature="0"
         style="fill:#f4f4f4" /><path
         d="m 133.878,141.176 -1.31,1.31 8.155,12.025 0.655,0.952 0.804,-0.803 3.869,-3.87 0.804,-0.804 -0.953,-0.655 -12.024,-8.155 z"
         id="polygon13"
         inkscape:connector-curvature="0"
         style="fill:#f4f4f4" /><path
         d="m 141.383,196.566 -0.654,0.952 -8.156,12.024 1.31,1.31 12.025,-8.155 0.953,-0.654 -0.804,-0.804 -3.87,-3.869 -0.804,-0.804 z"
         id="polygon15"
         inkscape:connector-curvature="0"
         style="fill:#f4f4f4" /><path
         d="m 193.435,196.566 -0.804,0.804 -3.869,3.869 -0.833,0.804 0.953,0.654 12.025,8.155 1.339,-1.31 -8.156,-12.024 -0.655,-0.952 0,0 z"
         id="polygon17"
         inkscape:connector-curvature="0"
         style="fill:#f4f4f4" /><path
         d="m 200.912,141.176 -12.025,8.155 -0.953,0.655 0.833,0.804 3.87,3.87 0.804,0.803 0.655,-0.952 8.155,-12.025 -1.339,-1.31 z"
         id="polygon19"
         inkscape:connector-curvature="0"
         style="fill:#f4f4f4" /><path
         d="m 146.354,104.833 c -27.67,0 -50.123,22.453 -50.123,50.124 v 42.117 c 0,27.671 22.453,50.123 50.123,50.123 h 42.117 c 27.671,0 50.124,-22.452 50.124,-50.123 v -42.117 c 0,-27.67 -22.452,-50.124 -50.124,-50.124 h -42.117 z m 0,1.906 h 42.117 c 26.644,0 48.219,21.577 48.219,48.218 v 42.117 c 0,26.644 -21.577,48.218 -48.219,48.218 h -42.117 c -26.642,0 -48.218,-21.574 -48.218,-48.218 v -42.117 c 0,-26.642 21.577,-48.218 48.218,-48.218 z"
         id="path21"
         inkscape:connector-curvature="0"
         style="fill:#f4f4f4" /><path
         d="m 69.499,75.694 v 0.952 202.961 0.952 h 0.953 196.122 0.952 v -0.952 -26.401 h 289.521 0.952 v -0.952 -113.458 -0.953 H 557.047 267.525 V 76.647 75.695 H 266.573 70.451 l -0.952,-10e-4 0,0 z m 1.904,1.905 H 265.62 v 61.196 0.953 h 0.953 0.714 288.807 V 251.3 h -289.226 -0.297 -0.953 v 0.953 26.4 H 71.401 V 77.598 l 0.002,0.001 z"
         id="polygon23"
         inkscape:connector-curvature="0"
         style="fill:#f4f4f4" /><path
         d="m 400.692,169.126 c -19.762,0 -35.777,16.046 -35.777,35.807 0,19.761 16.018,35.807 35.777,35.807 19.759,0 35.807,-16.046 35.807,-35.807 0,-19.761 -16.047,-35.807 -35.807,-35.807 l 0,0 z m 0,1.905 c 18.73,0 33.901,15.17 33.901,33.902 0,18.732 -15.171,33.902 -33.901,33.902 -18.731,0 -33.872,-15.171 -33.872,-33.902 0,-18.731 15.141,-33.902 33.872,-33.902 l 0,0 z"
         id="circle25"
         inkscape:connector-curvature="0"
         style="fill:#f4f4f4" /><path
         d="m 400.692,177.669 c -15.039,0 -27.234,12.227 -27.234,27.265 0,15.038 12.195,27.234 27.234,27.234 15.036,0 27.264,-12.196 27.264,-27.234 0,-15.038 -12.227,-27.265 -27.264,-27.265 z m 0,1.905 c 14.008,0 25.359,11.351 25.359,25.359 0,14.008 -11.352,25.33 -25.359,25.33 -14.01,0 -25.33,-11.321 -25.33,-25.33 0,-14.009 11.321,-25.359 25.33,-25.359 z"
         id="circle27"
         inkscape:connector-curvature="0"
         style="fill:#f4f4f4" /><path
         d="m 489.919,169.126 c -19.762,0 -35.807,16.046 -35.807,35.807 0,19.761 16.045,35.807 35.807,35.807 19.76,0 35.807,-16.046 35.807,-35.807 0,-19.761 -16.047,-35.807 -35.807,-35.807 l 0,0 z m 0,1.905 c 18.73,0 33.901,15.17 33.901,33.902 0,18.732 -15.171,33.902 -33.901,33.902 -18.731,0 -33.902,-15.171 -33.902,-33.902 0,-18.731 15.171,-33.902 33.902,-33.902 l 0,0 z"
         id="circle29"
         inkscape:connector-curvature="0"
         style="fill:#f4f4f4" /><path
         d="m 489.919,177.669 c -15.039,0 -27.234,12.227 -27.234,27.265 0,15.038 12.195,27.234 27.234,27.234 15.036,0 27.234,-12.196 27.234,-27.234 0,-15.038 -12.196,-27.265 -27.234,-27.265 z m 0,1.905 c 14.008,0 25.329,11.351 25.329,25.359 0,14.008 -11.321,25.33 -25.329,25.33 -14.01,0 -25.33,-11.321 -25.33,-25.33 0,-14.009 11.32,-25.359 25.33,-25.359 z"
         id="circle31"
         inkscape:connector-curvature="0"
         style="fill:#f4f4f4" /><path
         d="m 39.406,68.432 c -4.766,0 -8.662,3.896 -8.662,8.662 v 203.084 c 0,4.766 3.897,8.661 8.662,8.661 h 518.646 c 4.429,0 7.956,-3.411 8.453,-7.709 h 0.179 V 280.178 77.093 c 0,-4.762 -3.868,-8.658 -8.64,-8.658 H 39.399 l 0.007,-0.003 z m 0,1.904 h 518.646 c 3.737,0 6.727,3.021 6.727,6.757 v 202.131 0.953 c 0,3.736 -2.989,6.756 -6.727,6.756 H 39.406 c -3.732,0.01 -6.753,-3.019 -6.753,-6.753 V 77.097 c 0,-3.736 3.02,-6.756 6.756,-6.756 l -0.003,-0.005 z"
         id="path33"
         inkscape:connector-curvature="0"
         style="fill:#f4f4f4" /><path
         d="m 359.021,163.559 v 0.953 81.465 0.952 h 0.953 81.465 0.953 v -0.952 -81.465 -0.953 h -0.953 -81.465 -0.953 z m 1.906,1.905 h 79.561 v 79.56 h -79.561 v -79.56 z"
         id="rect35"
         inkscape:connector-curvature="0"
         style="fill:#f4f4f4" /><path
         d="m 448.248,163.559 v 0.953 81.465 0.952 h 0.953 81.436 0.952 v -0.952 -81.465 -0.953 h -0.952 -81.436 -0.953 z m 1.905,1.905 h 79.531 v 79.56 h -79.531 v -79.56 z"
         id="rect37"
         inkscape:connector-curvature="0"
         style="fill:#f4f4f4" /><path
         d="m 83.934,94.177 v 2.292 159.061 2.322 l 1.607,-1.638 25.33,-25.299 -1.369,-1.369 -23.663,23.692 V 98.788 l 23.663,23.658 1.369,-1.34 -25.33,-25.299 -1.607,-1.637 v 0.007 z"
         id="polyline39"
         inkscape:connector-curvature="0"
         style="fill:#f4f4f4" /><path
         d="m 222.305,232.551 -1.37,1.339 23.693,23.692 H 90.176 l 23.574,-23.573 -1.369,-1.339 -25.181,25.182 -1.637,1.637 h 2.292 159.062 2.292 l -1.607,-1.637 -25.299,-25.3 0.002,-0.001 z"
         id="polyline41"
         inkscape:connector-curvature="0"
         style="fill:#f4f4f4" /><path
         d="m 250.878,94.177 -1.637,1.637 -25.211,25.182 1.369,1.369 23.574,-23.603 v 154.509 l -23.633,-23.663 -1.339,1.34 25.24,25.27 1.637,1.638 V 255.534 96.471 94.179 94.177 z"
         id="polyline43"
         inkscape:connector-curvature="0"
         style="fill:#f4f4f4" /><path
         d="m 85.57,92.54 1.638,1.608 25.21,25.24 1.339,-1.34 -23.572,-23.602 h 154.452 l -23.669,23.662 1.333,1.339 25.307,-25.3 1.607,-1.607 H 246.923 87.861 85.57 l 0,0 z"
         id="polyline45"
         inkscape:connector-curvature="0"
         style="fill:#f4f4f4" /><path
         d="M 58.961,69.533 V 287.59 h 1.905 V 69.533 h -1.905 z"
         id="line47"
         inkscape:connector-curvature="0"
         style="fill:#f4f4f4" /><path
         d="m 359.021,145.819 v 0.953 13.244 0.953 h 0.953 81.465 0.953 v -0.953 -13.244 -0.953 h -0.953 -81.465 -0.953 z m 1.906,1.905 h 79.561 v 11.339 h -79.561 v -11.339 z"
         id="rect49"
         inkscape:connector-curvature="0"
         style="fill:#f4f4f4" /><path
         d="m 448.248,145.819 v 0.953 13.244 0.953 h 0.953 81.436 0.952 v -0.953 -13.244 -0.953 h -0.952 -81.436 -0.953 z m 1.905,1.905 h 79.531 v 11.339 h -79.531 v -11.339 z"
         id="rect51"
         inkscape:connector-curvature="0"
         style="fill:#f4f4f4" /><path
         d="m 276.804,73.134 c -0.987,0 -1.815,0.828 -1.815,1.816 v 53.01 c 0,0.988 0.829,1.815 1.815,1.815 h 282.855 c 0.985,0 1.785,-0.831 1.785,-1.815 V 77.927 c 0,-2.641 -2.152,-4.792 -4.792,-4.792 h -279.844 -0.004 z m 0.09,1.906 H 556.65 c 1.613,0 2.888,1.275 2.888,2.887 v 49.945 H 276.895 V 75.04 h -10e-4 z"
         id="path53"
         inkscape:connector-curvature="0"
         style="fill:#f4f4f4" /><path
         d="m 276.804,260.41 c -0.987,0 -1.815,0.829 -1.815,1.815 v 20.091 c 0,0.987 0.829,1.816 1.815,1.816 h 279.844 c 2.64,0 4.792,-2.183 4.792,-4.822 v -17.085 c 0,-0.985 -0.8,-1.815 -1.785,-1.815 H 276.8 h 0.004 z m 0.09,1.905 h 282.645 v 16.995 c 0,1.611 -1.276,2.917 -2.888,2.917 H 276.893 l 0.001,-19.912 0,0 z"
         id="path55"
         inkscape:connector-curvature="0"
         style="fill:#f4f4f4" /><path
         d="m 274.461,129.271 -6.28,6.28 1.369,1.339 6.251,-6.25 -1.34,-1.369 z"
         id="line57"
         inkscape:connector-curvature="0"
         style="fill:#f4f4f4" /><path
         d="m 269.546,253.866 -1.369,1.34 6.281,6.28 1.339,-1.369 -6.251,-6.251 z"
         id="line59"
         inkscape:connector-curvature="0"
         style="fill:#f4f4f4" /></g></g></svg>