<?xml version="1.0" encoding="UTF-8" standalone="no"?>
<!-- Generator: Adobe Illustrator 13.0.0, SVG Export Plug-In . SVG Version: 6.00 Build 14948)  -->

<svg
   xmlns:dc="http://purl.org/dc/elements/1.1/"
   xmlns:cc="http://creativecommons.org/ns#"
   xmlns:rdf="http://www.w3.org/1999/02/22-rdf-syntax-ns#"
   xmlns:svg="http://www.w3.org/2000/svg"
   xmlns="http://www.w3.org/2000/svg"
   xmlns:sodipodi="http://sodipodi.sourceforge.net/DTD/sodipodi-0.dtd"
   xmlns:inkscape="http://www.inkscape.org/namespaces/inkscape"
   version="1.1"
   id="Layer_2"
   x="0px"
   y="0px"
   width="550"
   height="550"
   viewBox="0 0 549.99995 549.99999"
   enable-background="new 0 0 598.189 350.26"
   xml:space="preserve"
   inkscape:version="0.91 r13725"
   sodipodi:docname="controller_gg.svg"><metadata
     id="metadata3083"><rdf:RDF><cc:Work
         rdf:about=""><dc:format>image/svg+xml</dc:format><dc:type
           rdf:resource="http://purl.org/dc/dcmitype/StillImage" /><dc:title></dc:title></cc:Work></rdf:RDF></metadata><defs
     id="defs3081" /><sodipodi:namedview
     pagecolor="#ffffff"
     bordercolor="#666666"
     borderopacity="1"
     objecttolerance="10"
     gridtolerance="10"
     guidetolerance="10"
     inkscape:pageopacity="0"
     inkscape:pageshadow="2"
     inkscape:window-width="1920"
     inkscape:window-height="1001"
     id="namedview3079"
     showgrid="false"
     inkscape:zoom="1.0799262"
     inkscape:cx="318.36098"
     inkscape:cy="317.24155"
     inkscape:window-x="-9"
     inkscape:window-y="-9"
     inkscape:window-maximized="1"
     inkscape:current-layer="layer4"
     showguides="true"
     inkscape:guide-bbox="true" /><g
     inkscape:groupmode="layer"
     id="layer2"
     inkscape:label="Screen_Rect"
     style="display:none"
     transform="translate(0,199.73999)"
     sodipodi:insensitive="true"><path
       style="fill:#ffffff;stroke:#000000;stroke-width:1px;stroke-linecap:butt;stroke-linejoin:miter;stroke-opacity:1"
       d="M 5.0135033,547.22203 136.4109,114.39023 653.54628,-189.09358 406.482,260.92121 Z"
       id="path3021"
       inkscape:connector-curvature="0"
       transform="translate(-2e-5,-199.73999)"
       sodipodi:nodetypes="ccccc" /><rect
       style="opacity:0.60100002;fill:#d8201f;fill-opacity:1;stroke:#ff8080;stroke-width:2.45114732;stroke-linecap:round;stroke-linejoin:round;stroke-miterlimit:4;stroke-dasharray:none;stroke-opacity:1"
       id="rect4230"
       width="444.2457"
       height="9.9567661"
       x="145.95099"
       y="-211.30678" /></g><g
     inkscape:groupmode="layer"
     id="layer1"
     inkscape:label="Controller_Vorlage"
     style="display:none"
     sodipodi:insensitive="true"><g
       id="g4929"
       transform="translate(-0.929149,0.5695451)"><g
         transform="translate(0,199.73999)"
         style="display:none"
         inkscape:label="Layer2"
         id="layer2-9"><path
           sodipodi:nodetypes="ccccc"
           transform="translate(-2e-5,-199.73999)"
           inkscape:connector-curvature="0"
           id="path3021-0"
           d="M 5.0135033,547.22203 136.4109,114.39023 653.54628,-189.09358 406.482,260.92121 Z"
           style="fill:#ffffff;stroke:#000000;stroke-width:1px;stroke-linecap:butt;stroke-linejoin:miter;stroke-opacity:1" /></g><g
         inkscape:label="Layer"
         id="layer1-2"><g
           transform="matrix(0.55322035,-0.3970343,-0.34863416,0.85569517,173.63773,166.52161)"
           id="g3100"><path
             style="fill:#f4f4f4"
             inkscape:connector-curvature="0"
             id="path3"
             d="m 148.05,114.447 c -23.656,0 -42.861,19.204 -42.861,42.861 l 0,37.414 c 0,23.658 19.205,42.86 42.861,42.86 l 38.694,0 c 23.656,0 42.861,-19.202 42.861,-42.86 l 0,-37.414 c 0,-23.657 -19.205,-42.861 -42.861,-42.861 l -38.694,0 z m 0,1.905 38.694,0 c 22.627,0 40.956,18.328 40.956,40.956 l 0,37.414 c 0,22.629 -18.329,40.956 -40.956,40.956 l -38.694,0 c -22.628,0 -40.956,-18.327 -40.956,-40.956 l 0,-37.414 c 0,-22.629 18.328,-40.956 40.956,-40.956 z" /><path
             style="fill:#f4f4f4"
             inkscape:connector-curvature="0"
             id="path5"
             d="m 167.395,123.168 c -3.23,0 -5.863,2.633 -5.863,5.864 l 0,13.037 c 0,3.23 2.632,5.863 5.863,5.863 3.23,0 5.863,-2.633 5.863,-5.863 l 0,-13.037 c 0,-3.23 -2.633,-5.864 -5.863,-5.864 z m 0,1.906 c 2.201,0 3.958,1.758 3.958,3.958 l 0,13.037 c 0,2.2 -1.758,3.958 -3.958,3.958 -2.202,0 -3.958,-1.758 -3.958,-3.958 l 0,-13.037 c -0.001,-2.2 1.757,-3.958 3.958,-3.958 z" /><path
             style="fill:#f4f4f4"
             inkscape:connector-curvature="0"
             id="path7"
             d="m 120.425,170.135 c -3.23,0 -5.864,2.633 -5.864,5.864 0,3.231 2.632,5.894 5.864,5.894 l 13.037,0 c 3.229,0 5.864,-2.662 5.864,-5.894 0,-3.229 -2.633,-5.864 -5.864,-5.864 l -13.037,0 z m 0,1.905 13.037,0 c 2.201,0 3.959,1.759 3.959,3.959 0,2.201 -1.759,3.988 -3.959,3.988 l -13.037,0 c -2.198,-0.01 -3.955,-1.791 -3.955,-3.99 0,-2.201 1.758,-3.959 3.958,-3.959 l -0.003,0.002 z" /><path
             style="fill:#f4f4f4"
             inkscape:connector-curvature="0"
             id="path9"
             d="m 167.395,204.071 c -3.23,0 -5.863,2.663 -5.863,5.894 l 0,13.038 c 0,3.229 2.632,5.863 5.863,5.863 3.23,0 5.863,-2.633 5.863,-5.863 l 0,-13.038 c 0,-3.23 -2.633,-5.894 -5.863,-5.894 z m 0,1.906 c 2.201,0 3.958,1.789 3.958,3.988 l 0,13.038 c 0,2.2 -1.757,3.958 -3.958,3.958 -2.202,0 -3.958,-1.759 -3.958,-3.958 l 0,-13.038 c -0.001,-2.2 1.757,-3.988 3.958,-3.988 z" /><path
             style="fill:#f4f4f4"
             inkscape:connector-curvature="0"
             id="path11"
             d="m 201.321,170.135 c -3.229,0 -5.863,2.633 -5.863,5.864 0,3.231 2.633,5.894 5.863,5.894 l 13.067,0 c 3.229,0 5.863,-2.662 5.863,-5.894 0,-3.229 -2.633,-5.864 -5.863,-5.864 l -13.067,0 z m 0,1.905 13.067,0 c 2.2,0 3.958,1.76 3.958,3.959 0,2.201 -1.758,3.988 -3.958,3.988 l -13.067,0 c -2.2,0 -3.958,-1.788 -3.958,-3.988 0,-2.2 1.759,-3.959 3.958,-3.959 z" /><path
             style="fill:#f4f4f4"
             inkscape:connector-curvature="0"
             id="polygon13"
             d="m 133.878,141.176 -1.31,1.31 8.155,12.025 0.655,0.952 0.804,-0.803 3.869,-3.87 0.804,-0.804 -0.953,-0.655 -12.024,-8.155 z" /><path
             style="fill:#f4f4f4"
             inkscape:connector-curvature="0"
             id="polygon15"
             d="m 141.383,196.566 -0.654,0.952 -8.156,12.024 1.31,1.31 12.025,-8.155 0.953,-0.654 -0.804,-0.804 -3.87,-3.869 -0.804,-0.804 z" /><path
             style="fill:#f4f4f4"
             inkscape:connector-curvature="0"
             id="polygon17"
             d="m 193.435,196.566 -0.804,0.804 -3.869,3.869 -0.833,0.804 0.953,0.654 12.025,8.155 1.339,-1.31 -8.156,-12.024 -0.655,-0.952 0,0 z" /><path
             style="fill:#f4f4f4"
             inkscape:connector-curvature="0"
             id="polygon19"
             d="m 200.912,141.176 -12.025,8.155 -0.953,0.655 0.833,0.804 3.87,3.87 0.804,0.803 0.655,-0.952 8.155,-12.025 -1.339,-1.31 z" /><path
             style="fill:#f4f4f4"
             inkscape:connector-curvature="0"
             id="path21"
             d="m 146.354,104.833 c -27.67,0 -50.123,22.453 -50.123,50.124 l 0,42.117 c 0,27.671 22.453,50.123 50.123,50.123 l 42.117,0 c 27.671,0 50.124,-22.452 50.124,-50.123 l 0,-42.117 c 0,-27.67 -22.452,-50.124 -50.124,-50.124 l -42.117,0 z m 0,1.906 42.117,0 c 26.644,0 48.219,21.577 48.219,48.218 l 0,42.117 c 0,26.644 -21.577,48.218 -48.219,48.218 l -42.117,0 c -26.642,0 -48.218,-21.574 -48.218,-48.218 l 0,-42.117 c 0,-26.642 21.577,-48.218 48.218,-48.218 z" /><path
             style="fill:#f4f4f4"
             inkscape:connector-curvature="0"
             id="polygon23"
             d="m 69.499,75.694 0,0.952 0,202.961 0,0.952 0.953,0 196.122,0 0.952,0 0,-0.952 0,-26.401 289.521,0 0.952,0 0,-0.952 0,-113.458 0,-0.953 -0.952,0 -289.522,0 0,-61.196 0,-0.952 -0.952,0 -196.122,0 -0.952,-10e-4 0,0 z m 1.904,1.905 194.217,0 0,61.196 0,0.953 0.953,0 0.714,0 288.807,0 0,111.552 -289.226,0 -0.297,0 -0.953,0 0,0.953 0,26.4 -194.217,0 0,-201.055 0.002,0.001 z" /><path
             style="fill:#f4f4f4"
             inkscape:connector-curvature="0"
             id="circle25"
             d="m 400.692,169.126 c -19.762,0 -35.777,16.046 -35.777,35.807 0,19.761 16.018,35.807 35.777,35.807 19.759,0 35.807,-16.046 35.807,-35.807 0,-19.761 -16.047,-35.807 -35.807,-35.807 l 0,0 z m 0,1.905 c 18.73,0 33.901,15.17 33.901,33.902 0,18.732 -15.171,33.902 -33.901,33.902 -18.731,0 -33.872,-15.171 -33.872,-33.902 0,-18.731 15.141,-33.902 33.872,-33.902 l 0,0 z" /><path
             style="fill:#f4f4f4"
             inkscape:connector-curvature="0"
             id="circle27"
             d="m 400.692,177.669 c -15.039,0 -27.234,12.227 -27.234,27.265 0,15.038 12.195,27.234 27.234,27.234 15.036,0 27.264,-12.196 27.264,-27.234 0,-15.038 -12.227,-27.265 -27.264,-27.265 z m 0,1.905 c 14.008,0 25.359,11.351 25.359,25.359 0,14.008 -11.352,25.33 -25.359,25.33 -14.01,0 -25.33,-11.321 -25.33,-25.33 0,-14.009 11.321,-25.359 25.33,-25.359 z" /><path
             style="fill:#f4f4f4"
             inkscape:connector-curvature="0"
             id="circle29"
             d="m 489.919,169.126 c -19.762,0 -35.807,16.046 -35.807,35.807 0,19.761 16.045,35.807 35.807,35.807 19.76,0 35.807,-16.046 35.807,-35.807 0,-19.761 -16.047,-35.807 -35.807,-35.807 l 0,0 z m 0,1.905 c 18.73,0 33.901,15.17 33.901,33.902 0,18.732 -15.171,33.902 -33.901,33.902 -18.731,0 -33.902,-15.171 -33.902,-33.902 0,-18.731 15.171,-33.902 33.902,-33.902 l 0,0 z" /><path
             style="fill:#f4f4f4"
             inkscape:connector-curvature="0"
             id="circle31"
             d="m 489.919,177.669 c -15.039,0 -27.234,12.227 -27.234,27.265 0,15.038 12.195,27.234 27.234,27.234 15.036,0 27.234,-12.196 27.234,-27.234 0,-15.038 -12.196,-27.265 -27.234,-27.265 z m 0,1.905 c 14.008,0 25.329,11.351 25.329,25.359 0,14.008 -11.321,25.33 -25.329,25.33 -14.01,0 -25.33,-11.321 -25.33,-25.33 0,-14.009 11.32,-25.359 25.33,-25.359 z" /><path
             style="fill:#f4f4f4"
             inkscape:connector-curvature="0"
             id="path33"
             d="m 39.406,68.432 c -4.766,0 -8.662,3.896 -8.662,8.662 l 0,203.084 c 0,4.766 3.897,8.661 8.662,8.661 l 518.646,0 c 4.429,0 7.956,-3.411 8.453,-7.709 l 0.179,0 0,-0.952 0,-203.085 c 0,-4.762 -3.868,-8.658 -8.64,-8.658 l -518.645,0 0.007,-0.003 z m 0,1.904 518.646,0 c 3.737,0 6.727,3.021 6.727,6.757 l 0,202.131 0,0.953 c 0,3.736 -2.989,6.756 -6.727,6.756 l -518.646,0 c -3.732,0.01 -6.753,-3.019 -6.753,-6.753 l 0,-203.083 c 0,-3.736 3.02,-6.756 6.756,-6.756 l -0.003,-0.005 z" /><path
             style="fill:#f4f4f4"
             inkscape:connector-curvature="0"
             id="rect35"
             d="m 359.021,163.559 0,0.953 0,81.465 0,0.952 0.953,0 81.465,0 0.953,0 0,-0.952 0,-81.465 0,-0.953 -0.953,0 -81.465,0 -0.953,0 z m 1.906,1.905 79.561,0 0,79.56 -79.561,0 0,-79.56 z" /><path
             style="fill:#f4f4f4"
             inkscape:connector-curvature="0"
             id="rect37"
             d="m 448.248,163.559 0,0.953 0,81.465 0,0.952 0.953,0 81.436,0 0.952,0 0,-0.952 0,-81.465 0,-0.953 -0.952,0 -81.436,0 -0.953,0 z m 1.905,1.905 79.531,0 0,79.56 -79.531,0 0,-79.56 z" /><path
             style="fill:#f4f4f4"
             inkscape:connector-curvature="0"
             id="polyline39"
             d="m 83.934,94.177 0,2.292 0,159.061 0,2.322 1.607,-1.638 25.33,-25.299 -1.369,-1.369 -23.663,23.692 0,-154.45 23.663,23.658 1.369,-1.34 -25.33,-25.299 -1.607,-1.637 0,0.007 z" /><path
             style="fill:#f4f4f4"
             inkscape:connector-curvature="0"
             id="polyline41"
             d="m 222.305,232.551 -1.37,1.339 23.693,23.692 -154.452,0 23.574,-23.573 -1.369,-1.339 -25.181,25.182 -1.637,1.637 2.292,0 159.062,0 2.292,0 -1.607,-1.637 -25.299,-25.3 0.002,-0.001 z" /><path
             style="fill:#f4f4f4"
             inkscape:connector-curvature="0"
             id="polyline43"
             d="m 250.878,94.177 -1.637,1.637 -25.211,25.182 1.369,1.369 23.574,-23.603 0,154.509 -23.633,-23.663 -1.339,1.34 25.24,25.27 1.637,1.638 0,-2.322 0,-159.063 0,-2.292 0,-0.002 z" /><path
             style="fill:#f4f4f4"
             inkscape:connector-curvature="0"
             id="polyline45"
             d="m 85.57,92.54 1.638,1.608 25.21,25.24 1.339,-1.34 -23.572,-23.602 154.452,0 -23.669,23.662 1.333,1.339 25.307,-25.3 1.607,-1.607 -2.292,0 -159.062,0 -2.291,0 0,0 z" /><path
             style="fill:#f4f4f4"
             inkscape:connector-curvature="0"
             id="line47"
             d="m 58.961,69.533 0,218.057 1.905,0 0,-218.057 -1.905,0 z" /><path
             style="fill:#f4f4f4"
             inkscape:connector-curvature="0"
             id="rect49"
             d="m 359.021,145.819 0,0.953 0,13.244 0,0.953 0.953,0 81.465,0 0.953,0 0,-0.953 0,-13.244 0,-0.953 -0.953,0 -81.465,0 -0.953,0 z m 1.906,1.905 79.561,0 0,11.339 -79.561,0 0,-11.339 z" /><path
             style="fill:#f4f4f4"
             inkscape:connector-curvature="0"
             id="rect51"
             d="m 448.248,145.819 0,0.953 0,13.244 0,0.953 0.953,0 81.436,0 0.952,0 0,-0.953 0,-13.244 0,-0.953 -0.952,0 -81.436,0 -0.953,0 z m 1.905,1.905 79.531,0 0,11.339 -79.531,0 0,-11.339 z" /><path
             style="fill:#f4f4f4"
             inkscape:connector-curvature="0"
             id="path53"
             d="m 276.804,73.134 c -0.987,0 -1.815,0.828 -1.815,1.816 l 0,53.01 c 0,0.988 0.829,1.815 1.815,1.815 l 282.855,0 c 0.985,0 1.785,-0.831 1.785,-1.815 l 0,-50.033 c 0,-2.641 -2.152,-4.792 -4.792,-4.792 l -279.844,0 -0.004,0 z m 0.09,1.906 279.756,0 c 1.613,0 2.888,1.275 2.888,2.887 l 0,49.945 -282.643,0 0,-52.832 -10e-4,0 z" /><path
             style="fill:#f4f4f4"
             inkscape:connector-curvature="0"
             id="path55"
             d="m 276.804,260.41 c -0.987,0 -1.815,0.829 -1.815,1.815 l 0,20.091 c 0,0.987 0.829,1.816 1.815,1.816 l 279.844,0 c 2.64,0 4.792,-2.183 4.792,-4.822 l 0,-17.085 c 0,-0.985 -0.8,-1.815 -1.785,-1.815 l -282.855,0 0.004,0 z m 0.09,1.905 282.645,0 0,16.995 c 0,1.611 -1.276,2.917 -2.888,2.917 l -279.758,0 0.001,-19.912 0,0 z" /><path
             style="fill:#f4f4f4"
             inkscape:connector-curvature="0"
             id="line57"
             d="m 274.461,129.271 -6.28,6.28 1.369,1.339 6.251,-6.25 -1.34,-1.369 z" /><path
             style="fill:#f4f4f4"
             inkscape:connector-curvature="0"
             id="line59"
             d="m 269.546,253.866 -1.369,1.34 6.281,6.28 1.339,-1.369 -6.251,-6.251 z" /></g></g></g></g><g
     inkscape:groupmode="layer"
     id="layer4"
     inkscape:label="Controller"><g
       id="g4625"
       transform="matrix(0.55554158,-0.39336462,-0.37357188,0.82005819,176.3746,174.54972)"><path
         d="m 44.422,69.395 c -9.927,0 -19.207,9.291 -19.207,19.207 l 0,177.707 c 0,11.615 9.539,19.236 19.207,19.235 l 513.928,0 c 5.957,0 10.788,-1.469 14.13,-4.671 3.342,-3.202 5.077,-8.073 5.077,-14.564 l 0,-177.708 c 0,-9.591 -7.604,-19.208 -19.208,-19.208 l -513.929,0 0.002,0.002 z m 0,1.856 513.928,0 c 10.586,0 17.351,8.739 17.351,17.35 l 0,177.707 c 0,6.165 -1.599,10.452 -4.497,13.229 -2.898,2.777 -7.195,4.149 -12.854,4.149 l -513.928,0 c -8.711,-0.01 -17.361,-6.787 -17.361,-17.389 l 0,-177.697 c 0,-8.726 8.613,-17.35 17.35,-17.35 l 0.011,0.001 z"
         id="path3-4"
         inkscape:connector-curvature="0"
         style="fill:#f4f4f4" /><path
         d="m 62.729,102.556 c -1.368,0 -2.612,0.754 -3.598,1.741 -0.986,0.985 -1.77,2.229 -1.77,3.598 l 0,135.575 c 0,1.368 0.785,2.641 1.77,3.627 0.986,0.985 2.229,1.74 3.598,1.74 l 480.396,0 c 1.368,0 2.611,-0.755 3.597,-1.74 0.986,-0.986 1.741,-2.259 1.741,-3.627 l 0,-135.575 c 0,-1.369 -0.755,-2.612 -1.741,-3.598 -0.985,-0.985 -2.229,-1.741 -3.597,-1.741 l -480.396,0 z m 0,1.857 480.396,0 c 0.586,0 1.554,0.451 2.292,1.189 0.737,0.738 1.188,1.705 1.188,2.292 l 0,135.576 c 0,0.586 -0.451,1.554 -1.188,2.292 -0.738,0.738 -1.706,1.219 -2.292,1.219 l -480.396,0 c -0.586,0 -1.555,-0.48 -2.292,-1.219 -0.741,-0.742 -1.222,-1.708 -1.222,-2.293 l 0,-135.575 c 0,-0.586 0.481,-1.555 1.218,-2.292 0.738,-0.738 1.706,-1.189 2.292,-1.189 l 0.004,0 z"
         id="path5-8"
         inkscape:connector-curvature="0"
         style="fill:#f4f4f4" /><path
         d="m 135.083,105.806 c -1.088,0 -2.053,0.167 -2.728,0.841 -0.674,0.674 -0.841,1.639 -0.841,2.727 l 0,21.324 c 0,1.088 0.167,2.053 0.841,2.728 0.674,0.675 1.639,0.87 2.728,0.87 l 21.324,0 c 1.088,0 2.053,-0.195 2.728,-0.87 0.675,-0.675 0.87,-1.64 0.87,-2.728 l 0,-21.324 c 0,-1.089 -0.196,-2.053 -0.87,-2.727 -0.674,-0.675 -1.64,-0.841 -2.728,-0.841 l -21.324,0 z m 0,1.856 21.324,0 c 0.867,0 1.258,0.155 1.422,0.319 0.164,0.164 0.319,0.526 0.319,1.393 l 0,21.324 c 0,0.867 -0.154,1.258 -0.319,1.422 -0.164,0.164 -0.556,0.319 -1.422,0.319 l -21.324,0 c -0.867,0 -1.229,-0.155 -1.393,-0.319 -0.158,-0.164 -0.315,-0.555 -0.315,-1.423 l 0,-21.324 c 0,-0.867 0.155,-1.229 0.319,-1.393 0.164,-0.164 0.525,-0.319 1.393,-0.319 l -0.004,0.001 z"
         id="path7-9"
         inkscape:connector-curvature="0"
         style="fill:#f4f4f4" /><path
         d="m 162.796,105.806 c -1.088,0 -2.024,0.167 -2.698,0.841 -0.674,0.674 -0.87,1.638 -0.87,2.727 l 0,21.324 c 0,1.088 0.196,2.053 0.87,2.728 0.674,0.675 1.61,0.87 2.698,0.87 l 21.353,0 c 1.088,0 2.024,-0.195 2.698,-0.87 0.675,-0.675 0.871,-1.64 0.871,-2.728 l 0,-21.324 c 0,-1.089 -0.196,-2.053 -0.871,-2.727 -0.674,-0.675 -1.61,-0.841 -2.698,-0.841 l -21.353,0 z m 0,1.856 21.353,0 c 0.867,0 1.229,0.155 1.393,0.319 0.165,0.164 0.319,0.526 0.319,1.393 l 0,21.324 c 0,0.867 -0.155,1.258 -0.319,1.422 -0.164,0.164 -0.526,0.319 -1.393,0.319 l -21.353,0 c -0.866,0 -1.229,-0.155 -1.393,-0.319 -0.165,-0.164 -0.319,-0.556 -0.319,-1.422 l 0,-21.324 c 0,-0.867 0.155,-1.229 0.319,-1.393 0.164,-0.164 0.526,-0.319 1.393,-0.319 z"
         id="path9-5"
         inkscape:connector-curvature="0"
         style="fill:#f4f4f4" /><path
         d="m 190.527,105.806 c -1.088,0 -2.053,0.167 -2.727,0.841 -0.675,0.674 -0.871,1.638 -0.871,2.727 l 0,21.324 c 0,1.088 0.196,2.053 0.871,2.728 0.674,0.675 1.639,0.87 2.727,0.87 l 21.324,0 c 1.089,0 2.053,-0.195 2.728,-0.87 0.674,-0.675 0.841,-1.64 0.841,-2.728 l 0,-21.324 c 0,-1.088 -0.167,-2.053 -0.841,-2.727 -0.674,-0.675 -1.639,-0.841 -2.728,-0.841 l -21.324,0 z m 0,1.856 21.324,0 c 0.868,0 1.229,0.155 1.393,0.319 0.164,0.164 0.319,0.526 0.319,1.393 l 0,21.324 c 0,0.867 -0.155,1.258 -0.319,1.422 -0.165,0.164 -0.526,0.319 -1.393,0.319 l -21.324,0 c -0.866,0 -1.257,-0.155 -1.422,-0.319 -0.164,-0.164 -0.319,-0.556 -0.319,-1.422 l 0,-21.324 c 0,-0.867 0.155,-1.229 0.319,-1.393 0.165,-0.164 0.556,-0.319 1.422,-0.319 z"
         id="path11-6"
         inkscape:connector-curvature="0"
         style="fill:#f4f4f4" /><path
         d="m 218.241,105.806 c -1.088,0 -2.053,0.167 -2.728,0.841 -0.674,0.674 -0.87,1.638 -0.87,2.727 l 0,21.324 c 0,1.088 0.196,2.053 0.87,2.728 0.674,0.675 1.639,0.87 2.728,0.87 l 21.324,0 c 1.088,0 2.053,-0.195 2.727,-0.87 0.674,-0.675 0.871,-1.64 0.871,-2.728 l 0,-21.324 c 0,-1.089 -0.196,-2.053 -0.871,-2.727 -0.674,-0.675 -1.639,-0.841 -2.727,-0.841 l -21.324,0 z m 0,1.856 21.324,0 c 0.866,0 1.257,0.155 1.422,0.319 0.164,0.164 0.319,0.526 0.319,1.393 l 0,21.324 c 0,0.867 -0.155,1.258 -0.319,1.422 -0.165,0.164 -0.556,0.319 -1.422,0.319 l -21.324,0 c -0.867,0 -1.258,-0.155 -1.422,-0.319 -0.165,-0.164 -0.319,-0.556 -0.319,-1.422 l 0,-21.324 c 0,-0.867 0.155,-1.229 0.319,-1.393 0.164,-0.164 0.555,-0.319 1.422,-0.319 z"
         id="path13"
         inkscape:connector-curvature="0"
         style="fill:#f4f4f4" /><path
         d="m 245.944,105.806 c -1.088,0 -2.053,0.167 -2.728,0.841 -0.674,0.674 -0.87,1.639 -0.87,2.727 l 0,21.324 c 0,1.088 0.196,2.053 0.87,2.728 0.674,0.675 1.639,0.87 2.728,0.87 l 21.324,0 c 1.088,0 2.053,-0.195 2.728,-0.87 0.674,-0.675 0.87,-1.64 0.87,-2.728 l 0,-21.324 c 0,-1.088 -0.196,-2.053 -0.87,-2.727 -0.675,-0.675 -1.64,-0.841 -2.728,-0.841 l -21.324,0 z m 0,1.856 21.324,0 c 0.867,0 1.258,0.155 1.422,0.319 0.164,0.164 0.319,0.526 0.319,1.393 l 0,21.324 c 0,0.867 -0.155,1.258 -0.319,1.422 -0.164,0.164 -0.555,0.319 -1.422,0.319 l -21.324,0 c -0.867,0 -1.229,-0.155 -1.393,-0.319 -0.164,-0.164 -0.348,-0.555 -0.348,-1.422 l 0,-21.324 c 0,-0.867 0.184,-1.229 0.348,-1.393 0.164,-0.164 0.526,-0.319 1.393,-0.319 z"
         id="path15"
         inkscape:connector-curvature="0"
         style="fill:#f4f4f4" /><path
         d="m 273.647,105.806 c -1.088,0 -2.023,0.167 -2.698,0.841 -0.674,0.674 -0.87,1.638 -0.87,2.727 l 0,21.324 c 0,1.088 0.196,2.053 0.87,2.728 0.675,0.675 1.61,0.87 2.698,0.87 l 21.354,0 c 1.088,0 2.024,-0.195 2.698,-0.87 0.674,-0.675 0.871,-1.64 0.871,-2.728 l 0,-21.324 c 0,-1.089 -0.196,-2.053 -0.871,-2.727 -0.674,-0.675 -1.61,-0.841 -2.698,-0.841 l -21.354,0 z m 0,1.856 21.354,0 c 0.867,0 1.228,0.155 1.393,0.319 0.164,0.164 0.319,0.526 0.319,1.393 l 0,21.324 c 0,0.867 -0.155,1.258 -0.319,1.422 -0.165,0.164 -0.526,0.319 -1.393,0.319 l -21.354,0 c -0.866,0 -1.229,-0.155 -1.393,-0.319 -0.158,-0.164 -0.315,-0.556 -0.315,-1.423 l 0,-21.324 c 0,-0.867 0.155,-1.229 0.319,-1.393 0.164,-0.164 0.526,-0.319 1.393,-0.319 l -0.004,0.001 z"
         id="path17"
         inkscape:connector-curvature="0"
         style="fill:#f4f4f4" /><path
         d="m 301.36,105.806 c -1.088,0 -2.023,0.167 -2.698,0.841 -0.674,0.674 -0.87,1.639 -0.87,2.727 l 0,21.324 c 0,1.088 0.196,2.053 0.87,2.728 0.675,0.675 1.61,0.87 2.698,0.87 l 21.354,0 c 1.088,0 2.023,-0.195 2.698,-0.87 0.674,-0.675 0.87,-1.64 0.87,-2.728 l 0,-21.324 c 0,-1.089 -0.195,-2.053 -0.87,-2.727 -0.675,-0.675 -1.61,-0.841 -2.698,-0.841 l -21.354,0 z m 0,1.856 21.354,0 c 0.867,0 1.229,0.155 1.393,0.319 0.164,0.164 0.319,0.526 0.319,1.393 l 0,21.324 c 0,0.867 -0.155,1.258 -0.319,1.422 -0.164,0.164 -0.526,0.319 -1.393,0.319 l -21.354,0 c -0.866,0 -1.229,-0.155 -1.393,-0.319 -0.164,-0.164 -0.319,-0.555 -0.319,-1.422 l 0,-21.324 c 0,-0.867 0.155,-1.229 0.319,-1.393 0.164,-0.164 0.527,-0.319 1.393,-0.319 z"
         id="path19"
         inkscape:connector-curvature="0"
         style="fill:#f4f4f4" /><path
         d="m 329.093,105.806 c -1.088,0 -2.053,0.167 -2.728,0.841 -0.675,0.674 -0.87,1.638 -0.87,2.727 l 0,21.324 c 0,1.088 0.195,2.053 0.87,2.728 0.674,0.675 1.64,0.87 2.728,0.87 l 21.324,0 c 1.088,0 2.053,-0.195 2.727,-0.87 0.675,-0.675 0.871,-1.64 0.871,-2.728 l 0,-21.324 c 0,-1.089 -0.196,-2.053 -0.871,-2.727 -0.674,-0.675 -1.639,-0.841 -2.727,-0.841 l -21.324,0 z m 0,1.856 21.324,0 c 0.866,0 1.229,0.155 1.393,0.319 0.164,0.164 0.348,0.526 0.348,1.393 l 0,21.324 c 0,0.867 -0.184,1.258 -0.348,1.422 -0.164,0.164 -0.527,0.319 -1.393,0.319 l -21.324,0 c -0.867,0 -1.258,-0.155 -1.422,-0.319 -0.164,-0.164 -0.319,-0.556 -0.319,-1.422 l 0,-21.324 c 0,-0.867 0.155,-1.229 0.319,-1.393 0.164,-0.164 0.555,-0.319 1.422,-0.319 z"
         id="path21-0"
         inkscape:connector-curvature="0"
         style="fill:#f4f4f4" /><path
         d="m 356.805,105.806 c -1.088,0 -2.052,0.167 -2.727,0.841 -0.675,0.674 -0.87,1.638 -0.87,2.727 l 0,21.324 c 0,1.088 0.195,2.053 0.87,2.728 0.675,0.675 1.639,0.87 2.727,0.87 l 21.325,0 c 1.088,0 2.053,-0.195 2.727,-0.87 0.668,-0.674 0.863,-1.639 0.863,-2.727 l 0,-21.325 c 0,-1.088 -0.195,-2.053 -0.87,-2.727 -0.674,-0.674 -1.64,-0.841 -2.728,-0.841 l -21.324,0 0.007,0 z m 0,1.856 21.325,0 c 0.866,0 1.257,0.155 1.421,0.319 0.165,0.164 0.319,0.526 0.319,1.393 l 0,21.324 c 0,0.867 -0.154,1.258 -0.319,1.422 -0.164,0.164 -0.555,0.319 -1.421,0.319 l -21.325,0 c -0.866,0 -1.257,-0.155 -1.421,-0.319 -0.164,-0.164 -0.319,-0.556 -0.319,-1.422 l 0,-21.324 c 0,-0.867 0.155,-1.229 0.319,-1.393 0.164,-0.164 0.554,-0.319 1.421,-0.319 z"
         id="path23"
         inkscape:connector-curvature="0"
         style="fill:#f4f4f4" /><path
         d="m 384.509,105.806 c -1.088,0 -2.053,0.167 -2.728,0.841 -0.675,0.674 -0.841,1.638 -0.841,2.727 l 0,21.324 c 0,1.088 0.166,2.053 0.841,2.728 0.675,0.675 1.64,0.87 2.728,0.87 l 21.324,0 c 1.088,0 2.053,-0.195 2.728,-0.87 0.675,-0.675 0.87,-1.64 0.87,-2.728 l 0,-21.324 c 0,-1.089 -0.195,-2.053 -0.87,-2.727 -0.675,-0.675 -1.64,-0.841 -2.728,-0.841 l -21.324,0 z m 0,1.856 21.324,0 c 0.867,0 1.258,0.155 1.422,0.319 0.164,0.164 0.319,0.526 0.319,1.393 l 0,21.324 c 0,0.867 -0.155,1.258 -0.319,1.422 -0.164,0.164 -0.555,0.319 -1.422,0.319 l -21.324,0 c -0.867,0 -1.229,-0.155 -1.393,-0.319 -0.164,-0.164 -0.319,-0.556 -0.319,-1.422 l 0,-21.324 c 0,-0.867 0.155,-1.229 0.319,-1.393 0.164,-0.164 0.526,-0.319 1.393,-0.319 z"
         id="path25"
         inkscape:connector-curvature="0"
         style="fill:#f4f4f4" /><path
         d="m 412.212,105.806 c -1.087,0 -2.023,0.167 -2.697,0.841 -0.669,0.673 -0.863,1.638 -0.863,2.726 l 0,21.325 c 0,1.088 0.195,2.053 0.87,2.727 0.675,0.675 1.61,0.87 2.698,0.87 l 21.354,0 c 1.087,0 2.023,-0.195 2.698,-0.87 0.674,-0.674 0.87,-1.639 0.87,-2.727 l 0,-21.325 c 0,-1.088 -0.196,-2.053 -0.87,-2.727 -0.675,-0.674 -1.611,-0.841 -2.698,-0.841 l -21.354,0 -0.008,10e-4 z m 0,1.856 21.354,0 c 0.866,0 1.229,0.155 1.393,0.319 0.164,0.164 0.319,0.526 0.319,1.393 l 0,21.324 c 0,0.867 -0.155,1.258 -0.319,1.422 -0.164,0.164 -0.526,0.319 -1.393,0.319 l -21.354,0 c -0.865,0 -1.227,-0.155 -1.393,-0.319 -0.157,-0.165 -0.315,-0.556 -0.315,-1.423 l 0,-21.324 c 0,-0.867 0.155,-1.229 0.319,-1.393 0.164,-0.164 0.527,-0.319 1.393,-0.319 l -0.004,0.001 z"
         id="path27"
         inkscape:connector-curvature="0"
         style="fill:#f4f4f4" /><path
         d="m 439.953,105.806 c -1.088,0 -2.053,0.167 -2.728,0.841 -0.674,0.674 -0.87,1.638 -0.87,2.727 l 0,21.324 c 0,1.088 0.196,2.053 0.87,2.728 0.675,0.675 1.64,0.87 2.728,0.87 l 21.324,0 c 1.089,0 2.053,-0.195 2.728,-0.87 0.675,-0.675 0.842,-1.64 0.842,-2.728 l 0,-21.324 c 0,-1.089 -0.167,-2.053 -0.842,-2.727 -0.675,-0.675 -1.639,-0.841 -2.728,-0.841 l -21.324,0 z m 0,1.856 21.324,0 c 0.867,0 1.229,0.155 1.393,0.319 0.165,0.164 0.319,0.526 0.319,1.393 l 0,21.324 c 0,0.867 -0.154,1.258 -0.319,1.422 -0.164,0.164 -0.525,0.319 -1.393,0.319 l -21.324,0 c -0.866,0 -1.258,-0.155 -1.422,-0.319 -0.164,-0.164 -0.318,-0.556 -0.318,-1.422 l 0,-21.324 c 0,-0.867 0.154,-1.229 0.318,-1.393 0.164,-0.164 0.556,-0.319 1.422,-0.319 z"
         id="path29"
         inkscape:connector-curvature="0"
         style="fill:#f4f4f4" /><path
         d="m 121.129,133.31 c -1.088,0 -2.053,0.196 -2.727,0.87 -0.674,0.674 -0.871,1.64 -0.871,2.728 l 0,21.324 c 0,1.088 0.196,2.053 0.871,2.728 0.674,0.674 1.639,0.87 2.727,0.87 l 21.325,0 c 1.088,0 2.053,-0.196 2.727,-0.87 0.675,-0.675 0.871,-1.64 0.871,-2.728 l 0,-21.324 c 0,-1.088 -0.196,-2.054 -0.871,-2.728 -0.674,-0.674 -1.639,-0.87 -2.727,-0.87 l -21.325,0 0,0 z m 0,1.857 21.325,0 c 0.866,0 1.257,0.184 1.421,0.348 0.164,0.164 0.319,0.526 0.319,1.393 l 0,21.324 c 0,0.867 -0.155,1.258 -0.319,1.422 -0.164,0.164 -0.555,0.319 -1.421,0.319 l -21.325,0 c -0.867,0 -1.229,-0.155 -1.393,-0.319 -0.164,-0.164 -0.348,-0.555 -0.348,-1.422 l 0,-21.324 c 0,-0.866 0.184,-1.229 0.348,-1.393 0.164,-0.164 0.527,-0.348 1.393,-0.348 z"
         id="path31"
         inkscape:connector-curvature="0"
         style="fill:#f4f4f4" /><path
         d="m 148.842,133.31 c -1.088,0 -2.053,0.196 -2.727,0.87 -0.674,0.674 -0.841,1.64 -0.841,2.728 l 0,21.324 c 0,1.088 0.167,2.053 0.841,2.728 0.674,0.674 1.64,0.87 2.727,0.87 l 21.325,0 c 1.088,0 2.053,-0.196 2.727,-0.87 0.668,-0.676 0.863,-1.64 0.863,-2.729 l 0,-21.324 c 0,-1.088 -0.196,-2.053 -0.87,-2.728 -0.674,-0.673 -1.639,-0.87 -2.728,-0.87 l -21.324,0 0.007,0.001 z m 0,1.857 21.325,0 c 0.867,0 1.257,0.184 1.421,0.348 0.165,0.164 0.319,0.526 0.319,1.393 l 0,21.324 c 0,0.867 -0.155,1.258 -0.319,1.422 -0.164,0.164 -0.555,0.319 -1.421,0.319 l -21.325,0 c -0.866,0 -1.229,-0.155 -1.393,-0.319 -0.164,-0.164 -0.319,-0.555 -0.319,-1.422 l 0,-21.324 c 0,-0.866 0.155,-1.229 0.319,-1.393 0.165,-0.164 0.527,-0.348 1.393,-0.348 z"
         id="path33-2"
         inkscape:connector-curvature="0"
         style="fill:#f4f4f4" /><path
         d="m 176.545,133.31 c -1.088,0 -2.023,0.196 -2.698,0.87 -0.674,0.675 -0.87,1.64 -0.87,2.728 l 0,21.324 c 0,1.088 0.196,2.053 0.87,2.728 0.675,0.675 1.61,0.87 2.698,0.87 l 21.354,0 c 1.088,0 2.023,-0.196 2.698,-0.87 0.674,-0.675 0.87,-1.64 0.87,-2.728 l 0,-21.324 c 0,-1.088 -0.196,-2.054 -0.87,-2.728 -0.674,-0.674 -1.61,-0.87 -2.698,-0.87 l -21.354,0 z m 0,1.857 21.354,0 c 0.866,0 1.229,0.184 1.393,0.348 0.164,0.164 0.319,0.526 0.319,1.393 l 0,21.324 c 0,0.867 -0.155,1.258 -0.319,1.422 -0.164,0.164 -0.526,0.319 -1.393,0.319 l -21.354,0 c -0.867,0 -1.229,-0.155 -1.393,-0.319 -0.164,-0.164 -0.319,-0.555 -0.319,-1.422 l 0,-21.324 c 0,-0.866 0.155,-1.229 0.319,-1.393 0.164,-0.164 0.527,-0.348 1.393,-0.348 z"
         id="path35"
         inkscape:connector-curvature="0"
         style="fill:#f4f4f4" /><path
         d="m 204.286,133.31 c -1.088,0 -2.053,0.196 -2.727,0.87 -0.678,0.674 -0.873,1.639 -0.873,2.727 l 0,21.324 c 0,1.089 0.196,2.054 0.87,2.728 0.675,0.675 1.64,0.87 2.728,0.87 l 21.324,0 c 1.088,0 2.053,-0.195 2.728,-0.87 0.674,-0.674 0.841,-1.639 0.841,-2.728 l 0,-21.324 c 0,-1.088 -0.167,-2.053 -0.841,-2.728 -0.674,-0.673 -1.639,-0.87 -2.728,-0.87 l -21.324,0 0.002,0.001 z m 0,1.857 21.325,0 c 0.867,0 1.229,0.184 1.393,0.348 0.165,0.164 0.319,0.526 0.319,1.393 l 0,21.324 c 0,0.867 -0.154,1.258 -0.319,1.422 -0.164,0.164 -0.526,0.319 -1.393,0.319 l -21.325,0 c -0.866,0 -1.257,-0.155 -1.421,-0.319 -0.167,-0.164 -0.325,-0.556 -0.325,-1.422 l 0,-21.324 c 0,-0.866 0.155,-1.229 0.319,-1.393 0.164,-0.164 0.555,-0.348 1.421,-0.348 l 0.006,0 z"
         id="path37"
         inkscape:connector-curvature="0"
         style="fill:#f4f4f4" /><path
         d="m 231.99,133.31 c -1.088,0 -2.052,0.196 -2.727,0.87 -0.674,0.675 -0.87,1.64 -0.87,2.728 l 0,21.324 c 0,1.088 0.196,2.053 0.87,2.728 0.675,0.675 1.639,0.87 2.727,0.87 l 21.325,0 c 1.088,0 2.053,-0.195 2.727,-0.87 0.675,-0.675 0.871,-1.64 0.871,-2.728 l 0,-21.324 c 0,-1.088 -0.196,-2.053 -0.871,-2.728 -0.674,-0.674 -1.639,-0.87 -2.727,-0.87 l -21.325,0 z m 0,1.857 21.325,0 c 0.867,0 1.257,0.184 1.421,0.348 0.165,0.164 0.319,0.526 0.319,1.393 l 0,21.324 c 0,0.867 -0.155,1.258 -0.319,1.422 -0.164,0.164 -0.554,0.319 -1.421,0.319 l -21.325,0 c -0.867,0 -1.257,-0.155 -1.421,-0.319 -0.164,-0.164 -0.319,-0.555 -0.319,-1.422 l 0,-21.324 c 0,-0.866 0.155,-1.229 0.319,-1.393 0.164,-0.164 0.554,-0.348 1.421,-0.348 z"
         id="path39"
         inkscape:connector-curvature="0"
         style="fill:#f4f4f4" /><path
         d="m 259.693,133.31 c -1.088,0 -2.052,0.196 -2.727,0.87 -0.674,0.674 -0.87,1.64 -0.87,2.728 l 0,21.324 c 0,1.088 0.196,2.053 0.87,2.728 0.675,0.674 1.64,0.87 2.727,0.87 l 21.325,0 c 1.088,0 2.053,-0.196 2.727,-0.87 0.675,-0.675 0.87,-1.64 0.87,-2.728 l 0,-21.324 c 0,-1.088 -0.195,-2.054 -0.87,-2.728 -0.674,-0.674 -1.639,-0.87 -2.727,-0.87 l -21.325,0 z m 0,1.857 21.325,0 c 0.866,0 1.257,0.184 1.421,0.348 0.165,0.164 0.319,0.526 0.319,1.393 l 0,21.324 c 0,0.867 -0.155,1.258 -0.319,1.422 -0.164,0.164 -0.555,0.319 -1.421,0.319 l -21.325,0 c -0.866,0 -1.229,-0.155 -1.393,-0.319 -0.164,-0.164 -0.348,-0.555 -0.348,-1.422 l 0,-21.324 c 0,-0.866 0.184,-1.229 0.348,-1.393 0.165,-0.164 0.527,-0.348 1.393,-0.348 z"
         id="path41"
         inkscape:connector-curvature="0"
         style="fill:#f4f4f4" /><path
         d="m 287.407,133.31 c -1.089,0 -2.024,0.196 -2.698,0.87 -0.675,0.675 -0.871,1.64 -0.871,2.728 l 0,21.324 c 0,1.088 0.196,2.053 0.871,2.728 0.674,0.674 1.609,0.87 2.698,0.87 l 21.353,0 c 1.088,0 2.023,-0.196 2.698,-0.87 0.675,-0.675 0.87,-1.64 0.87,-2.728 l 0,-21.324 c 0,-1.088 -0.195,-2.054 -0.87,-2.728 -0.675,-0.674 -1.61,-0.87 -2.698,-0.87 l -21.353,0 z m 0,1.857 21.353,0 c 0.867,0 1.229,0.184 1.393,0.348 0.165,0.164 0.319,0.526 0.319,1.393 l 0,21.324 c 0,0.867 -0.155,1.258 -0.319,1.422 -0.164,0.164 -0.525,0.319 -1.393,0.319 l -21.353,0 c -0.867,0 -1.229,-0.155 -1.393,-0.319 -0.165,-0.164 -0.319,-0.555 -0.319,-1.422 l 0,-21.324 c 0,-0.866 0.154,-1.229 0.319,-1.393 0.165,-0.164 0.526,-0.348 1.393,-0.348 z"
         id="path43"
         inkscape:connector-curvature="0"
         style="fill:#f4f4f4" /><path
         d="m 315.11,133.31 c -1.088,0 -2.024,0.196 -2.698,0.87 -0.674,0.674 -0.871,1.64 -0.871,2.728 l 0,21.324 c 0,1.088 0.197,2.053 0.871,2.728 0.674,0.674 1.61,0.87 2.698,0.87 l 21.354,0 c 1.088,0 2.023,-0.196 2.697,-0.87 0.675,-0.675 0.871,-1.64 0.871,-2.728 l 0,-21.324 c 0,-1.088 -0.196,-2.054 -0.871,-2.728 -0.674,-0.674 -1.609,-0.87 -2.697,-0.87 l -21.354,0 z m 0,1.857 21.354,0 c 0.866,0 1.229,0.184 1.393,0.348 0.165,0.164 0.318,0.526 0.318,1.393 l 0,21.324 c 0,0.867 -0.154,1.258 -0.318,1.422 -0.164,0.164 -0.526,0.319 -1.393,0.319 l -21.354,0 c -0.866,0 -1.229,-0.155 -1.393,-0.319 -0.164,-0.164 -0.319,-0.555 -0.319,-1.422 l 0,-21.324 c 0,-0.866 0.155,-1.229 0.319,-1.393 0.166,-0.164 0.527,-0.348 1.393,-0.348 z"
         id="path45"
         inkscape:connector-curvature="0"
         style="fill:#f4f4f4" /><path
         d="m 342.842,133.31 c -1.088,0 -2.053,0.196 -2.728,0.87 -0.674,0.674 -0.87,1.64 -0.87,2.728 l 0,21.324 c 0,1.088 0.196,2.053 0.87,2.728 0.675,0.674 1.64,0.87 2.728,0.87 l 21.324,0 c 1.088,0 2.053,-0.196 2.728,-0.87 0.675,-0.675 0.841,-1.64 0.841,-2.728 l 0,-21.324 c 0,-1.088 -0.166,-2.054 -0.841,-2.728 -0.674,-0.674 -1.64,-0.87 -2.728,-0.87 l -21.324,0 z m 0,1.857 21.324,0 c 0.867,0 1.229,0.184 1.393,0.348 0.164,0.164 0.319,0.526 0.319,1.393 l 0,21.324 c 0,0.867 -0.155,1.258 -0.319,1.422 -0.164,0.164 -0.525,0.319 -1.393,0.319 l -21.324,0 c -0.866,0 -1.258,-0.155 -1.422,-0.319 -0.157,-0.164 -0.315,-0.556 -0.315,-1.422 l 0,-21.324 c 0,-0.866 0.155,-1.229 0.319,-1.393 0.164,-0.164 0.556,-0.348 1.422,-0.348 l -0.004,0 z"
         id="path47"
         inkscape:connector-curvature="0"
         style="fill:#f4f4f4" /><path
         d="m 370.555,133.31 c -1.088,0 -2.053,0.196 -2.728,0.87 -0.674,0.674 -0.87,1.64 -0.87,2.728 l 0,21.324 c 0,1.088 0.196,2.053 0.87,2.728 0.675,0.674 1.641,0.87 2.728,0.87 l 21.325,0 c 1.087,0 2.053,-0.196 2.728,-0.87 0.673,-0.675 0.87,-1.64 0.87,-2.728 l 0,-21.324 c 0,-1.088 -0.197,-2.054 -0.87,-2.728 -0.675,-0.674 -1.64,-0.87 -2.728,-0.87 l -21.325,0 z m 0,1.857 21.325,0 c 0.866,0 1.257,0.184 1.421,0.348 0.165,0.164 0.319,0.526 0.319,1.393 l 0,21.324 c 0,0.867 -0.155,1.258 -0.319,1.422 -0.164,0.164 -0.555,0.319 -1.421,0.319 l -21.325,0 c -0.866,0 -1.229,-0.155 -1.393,-0.319 -0.164,-0.164 -0.349,-0.555 -0.349,-1.422 l 0,-21.324 c 0,-0.866 0.185,-1.229 0.349,-1.393 0.165,-0.164 0.526,-0.348 1.393,-0.348 z"
         id="path49"
         inkscape:connector-curvature="0"
         style="fill:#f4f4f4" /><path
         d="m 398.258,133.31 c -1.088,0 -2.053,0.196 -2.727,0.87 -0.674,0.674 -0.842,1.64 -0.842,2.728 l 0,21.324 c 0,1.088 0.168,2.053 0.842,2.728 0.674,0.674 1.64,0.87 2.727,0.87 l 21.325,0 c 1.088,0 2.053,-0.196 2.728,-0.87 0.674,-0.675 0.87,-1.64 0.87,-2.728 l 0,-21.324 c 0,-1.088 -0.196,-2.054 -0.87,-2.728 -0.675,-0.674 -1.639,-0.87 -2.728,-0.87 l -21.325,0 z m 0,1.857 21.325,0 c 0.866,0 1.257,0.184 1.422,0.348 0.164,0.164 0.319,0.526 0.319,1.393 l 0,21.324 c 0,0.867 -0.156,1.258 -0.319,1.422 -0.165,0.164 -0.556,0.319 -1.422,0.319 l -21.325,0 c -0.865,0 -1.229,-0.155 -1.393,-0.319 -0.164,-0.164 -0.319,-0.555 -0.319,-1.422 l 0,-21.324 c 0,-0.866 0.155,-1.229 0.319,-1.393 0.165,-0.164 0.528,-0.348 1.393,-0.348 z"
         id="path51"
         inkscape:connector-curvature="0"
         style="fill:#f4f4f4" /><path
         d="m 425.972,133.31 c -1.088,0 -2.024,0.196 -2.698,0.87 -0.675,0.674 -0.87,1.64 -0.87,2.728 l 0,21.324 c 0,1.088 0.195,2.053 0.87,2.728 0.675,0.674 1.61,0.87 2.698,0.87 l 21.354,0 c 1.087,0 2.023,-0.196 2.697,-0.87 0.675,-0.675 0.87,-1.64 0.87,-2.728 l 0,-21.324 c 0,-1.088 -0.195,-2.054 -0.87,-2.728 -0.674,-0.674 -1.61,-0.87 -2.697,-0.87 l -21.354,0 z m 0,1.857 21.354,0 c 0.866,0 1.228,0.184 1.393,0.348 0.164,0.164 0.319,0.526 0.319,1.393 l 0,21.324 c 0,0.867 -0.155,1.258 -0.319,1.422 -0.165,0.164 -0.526,0.319 -1.393,0.319 l -21.354,0 c -0.867,0 -1.229,-0.155 -1.393,-0.319 -0.164,-0.164 -0.319,-0.555 -0.319,-1.422 l 0,-21.324 c 0,-0.866 0.154,-1.229 0.319,-1.393 0.164,-0.164 0.525,-0.348 1.393,-0.348 z"
         id="path53-8"
         inkscape:connector-curvature="0"
         style="fill:#f4f4f4" /><path
         d="m 453.619,133.31 c -1.087,0 -2.053,0.196 -2.728,0.87 -0.674,0.674 -0.87,1.64 -0.87,2.728 l 0,21.324 c 0,1.089 0.196,2.053 0.87,2.728 0.675,0.674 1.641,0.87 2.728,0.87 l 35.192,0 c 1.088,0 2.023,-0.196 2.698,-0.87 0.675,-0.675 0.87,-1.64 0.87,-2.728 l 0,-21.324 c 0,-1.088 -0.196,-2.054 -0.87,-2.728 -0.675,-0.674 -1.61,-0.87 -2.698,-0.87 l -35.192,0 z m 0,1.857 35.192,0 c 0.866,0 1.228,0.184 1.393,0.348 0.164,0.164 0.319,0.526 0.319,1.393 l 0,21.324 c 0,0.867 -0.155,1.258 -0.319,1.422 -0.164,0.164 -0.526,0.319 -1.393,0.319 l -35.192,0 c -0.866,0 -1.257,-0.155 -1.422,-0.319 -0.164,-0.164 -0.319,-0.555 -0.319,-1.422 l 0,-21.324 c 0,-0.866 0.155,-1.229 0.319,-1.393 0.165,-0.165 0.556,-0.348 1.422,-0.348 z"
         id="path55-6"
         inkscape:connector-curvature="0"
         style="fill:#f4f4f4" /><path
         d="m 467.657,105.806 c -1.088,0 -2.053,0.167 -2.728,0.841 -0.675,0.674 -0.87,1.638 -0.87,2.727 l 0,21.324 c 0,1.088 0.195,2.053 0.87,2.728 0.675,0.675 1.64,0.87 2.728,0.87 l 21.324,0 c 1.088,0 2.053,-0.195 2.728,-0.87 0.674,-0.675 0.87,-1.64 0.87,-2.728 l 0,-21.324 c 0,-1.089 -0.196,-2.053 -0.87,-2.727 -0.675,-0.675 -1.64,-0.841 -2.728,-0.841 l -21.324,0 z m 0,1.856 21.324,0 c 0.867,0 1.229,0.155 1.393,0.319 0.164,0.164 0.348,0.526 0.348,1.393 l 0,21.324 c 0,0.867 -0.184,1.258 -0.348,1.422 -0.164,0.164 -0.525,0.319 -1.393,0.319 l -21.324,0 c -0.866,0 -1.258,-0.155 -1.422,-0.319 -0.164,-0.164 -0.319,-0.556 -0.319,-1.422 l 0,-21.324 c 0,-0.867 0.155,-1.229 0.319,-1.393 0.164,-0.164 0.555,-0.319 1.422,-0.319 z"
         id="path57"
         inkscape:connector-curvature="0"
         style="fill:#f4f4f4" /><path
         d="m 127.136,161.249 c -1.088,0 -2.053,0.196 -2.728,0.87 -0.674,0.675 -0.87,1.61 -0.87,2.698 l 0,21.354 c 0,1.088 0.196,2.023 0.87,2.698 0.675,0.674 1.64,0.87 2.728,0.87 l 21.325,0 c 1.088,0 2.053,-0.196 2.727,-0.87 0.674,-0.675 0.841,-1.611 0.841,-2.698 l 0,-21.354 c 0,-1.088 -0.167,-2.024 -0.841,-2.698 -0.674,-0.674 -1.639,-0.87 -2.727,-0.87 l -21.325,0 z m 0,1.857 21.325,0 c 0.866,0 1.228,0.154 1.392,0.318 0.165,0.164 0.319,0.526 0.319,1.393 l 0,21.354 c 0,0.866 -0.155,1.229 -0.319,1.393 -0.164,0.164 -0.525,0.319 -1.392,0.319 l -21.325,0 c -0.866,0 -1.257,-0.155 -1.422,-0.319 -0.164,-0.165 -0.319,-0.526 -0.319,-1.393 l 0,-21.354 c 0,-0.866 0.155,-1.229 0.319,-1.393 0.164,-0.163 0.556,-0.318 1.422,-0.318 z"
         id="path59"
         inkscape:connector-curvature="0"
         style="fill:#f4f4f4" /><path
         d="m 154.839,161.249 c -1.088,0 -2.053,0.196 -2.727,0.87 -0.674,0.675 -0.871,1.61 -0.871,2.698 l 0,21.354 c 0,1.088 0.196,2.023 0.871,2.698 0.674,0.674 1.639,0.87 2.727,0.87 l 21.325,0 c 1.088,0 2.053,-0.196 2.727,-0.87 0.674,-0.675 0.87,-1.61 0.87,-2.698 l 0,-21.354 c 0,-1.088 -0.196,-2.024 -0.87,-2.698 -0.674,-0.674 -1.639,-0.87 -2.727,-0.87 l -21.325,0 z m 0,1.857 21.325,0 c 0.866,0 1.257,0.154 1.421,0.318 0.165,0.164 0.319,0.526 0.319,1.393 l 0,21.354 c 0,0.866 -0.154,1.228 -0.319,1.393 -0.164,0.164 -0.555,0.319 -1.421,0.319 l -21.325,0 c -0.866,0 -1.257,-0.155 -1.422,-0.319 -0.164,-0.165 -0.319,-0.526 -0.319,-1.393 l 0,-21.354 c 0,-0.866 0.155,-1.229 0.319,-1.393 0.165,-0.163 0.556,-0.318 1.422,-0.318 z"
         id="path61"
         inkscape:connector-curvature="0"
         style="fill:#f4f4f4" /><path
         d="m 182.552,161.249 c -1.088,0 -2.053,0.196 -2.727,0.87 -0.674,0.675 -0.841,1.61 -0.841,2.698 l 0,21.354 c 0,1.088 0.167,2.023 0.841,2.698 0.674,0.674 1.639,0.87 2.727,0.87 l 21.325,0 c 1.088,0 2.053,-0.196 2.727,-0.87 0.674,-0.675 0.871,-1.61 0.871,-2.698 l 0,-21.354 c 0,-1.088 -0.196,-2.024 -0.871,-2.698 -0.674,-0.674 -1.639,-0.87 -2.727,-0.87 l -21.325,0 z m 0,1.857 21.325,0 c 0.866,0 1.257,0.154 1.421,0.318 0.165,0.164 0.319,0.526 0.319,1.393 l 0,21.354 c 0,0.866 -0.155,1.228 -0.319,1.393 -0.165,0.164 -0.555,0.319 -1.421,0.319 l -21.325,0 c -0.866,0 -1.229,-0.155 -1.393,-0.319 -0.165,-0.165 -0.319,-0.526 -0.319,-1.393 l 0,-21.354 c 0,-0.866 0.154,-1.229 0.319,-1.393 0.165,-0.163 0.527,-0.318 1.393,-0.318 z"
         id="path63"
         inkscape:connector-curvature="0"
         style="fill:#f4f4f4" /><path
         d="m 210.256,161.249 c -1.088,0 -2.024,0.196 -2.698,0.87 -0.674,0.675 -0.871,1.61 -0.871,2.698 l 0,21.354 c 0,1.088 0.196,2.023 0.871,2.698 0.674,0.674 1.61,0.87 2.698,0.87 l 21.354,0 c 1.088,0 2.024,-0.196 2.698,-0.87 0.675,-0.675 0.871,-1.61 0.871,-2.698 l 0,-21.354 c 0,-1.088 -0.196,-2.024 -0.871,-2.698 -0.674,-0.674 -1.61,-0.87 -2.698,-0.87 l -21.354,0 z m 0,1.857 21.354,0 c 0.867,0 1.229,0.154 1.393,0.318 0.165,0.164 0.319,0.526 0.319,1.393 l 0,21.354 c 0,0.866 -0.155,1.228 -0.319,1.393 -0.164,0.164 -0.526,0.319 -1.393,0.319 l -21.354,0 c -0.866,0 -1.229,-0.155 -1.393,-0.319 -0.165,-0.165 -0.319,-0.526 -0.319,-1.393 l 0,-21.354 c 0,-0.866 0.154,-1.229 0.319,-1.393 0.164,-0.163 0.527,-0.318 1.393,-0.318 z"
         id="path65"
         inkscape:connector-curvature="0"
         style="fill:#f4f4f4" /><path
         d="m 237.997,161.249 c -1.088,0 -2.053,0.196 -2.728,0.87 -0.674,0.675 -0.87,1.61 -0.87,2.698 l 0,21.354 c 0,1.088 0.196,2.023 0.87,2.698 0.674,0.674 1.64,0.87 2.728,0.87 l 21.324,0 c 1.088,0 2.024,-0.196 2.698,-0.87 0.674,-0.675 0.871,-1.61 0.871,-2.698 l 0,-21.354 c 0,-1.088 -0.196,-2.024 -0.871,-2.698 -0.674,-0.674 -1.61,-0.87 -2.698,-0.87 l -21.324,0 z m 0,1.857 21.324,0 c 0.866,0 1.228,0.154 1.393,0.318 0.165,0.164 0.319,0.526 0.319,1.393 l 0,21.354 c 0,0.866 -0.155,1.228 -0.319,1.393 -0.165,0.164 -0.526,0.319 -1.393,0.319 l -21.324,0 c -0.866,0 -1.258,-0.155 -1.422,-0.319 -0.165,-0.165 -0.319,-0.526 -0.319,-1.393 l 0,-21.354 c 0,-0.866 0.154,-1.229 0.319,-1.393 0.164,-0.163 0.556,-0.318 1.422,-0.318 z"
         id="path67"
         inkscape:connector-curvature="0"
         style="fill:#f4f4f4" /><path
         d="m 265.701,161.249 c -1.088,0 -2.053,0.196 -2.727,0.87 -0.675,0.675 -0.871,1.61 -0.871,2.698 l 0,21.354 c 0,1.088 0.196,2.023 0.871,2.698 0.674,0.674 1.639,0.87 2.727,0.87 l 21.325,0 c 1.088,0 2.053,-0.196 2.727,-0.87 0.675,-0.675 0.871,-1.61 0.871,-2.698 l 0,-21.354 c 0,-1.088 -0.196,-2.024 -0.871,-2.698 -0.674,-0.674 -1.639,-0.87 -2.727,-0.87 l -21.325,0 z m 0,1.857 21.325,0 c 0.866,0 1.228,0.154 1.393,0.318 0.164,0.164 0.348,0.526 0.348,1.393 l 0,21.354 c 0,0.866 -0.184,1.228 -0.348,1.393 -0.164,0.164 -0.526,0.319 -1.393,0.319 l -21.325,0 c -0.866,0 -1.257,-0.155 -1.422,-0.319 -0.165,-0.165 -0.319,-0.526 -0.319,-1.393 l 0,-21.354 c 0,-0.866 0.154,-1.229 0.319,-1.393 0.165,-0.164 0.555,-0.318 1.422,-0.318 z"
         id="path69"
         inkscape:connector-curvature="0"
         style="fill:#f4f4f4" /><path
         d="m 293.413,161.249 c -1.088,0 -2.053,0.196 -2.727,0.87 -0.675,0.675 -0.871,1.61 -0.871,2.698 l 0,21.354 c 0,1.088 0.196,2.023 0.871,2.698 0.674,0.674 1.639,0.87 2.727,0.87 l 21.325,0 c 1.088,0 2.053,-0.196 2.728,-0.87 0.673,-0.675 0.87,-1.61 0.87,-2.698 l 0,-21.354 c 0,-1.088 -0.197,-2.024 -0.87,-2.698 -0.675,-0.674 -1.64,-0.87 -2.728,-0.87 l -21.325,0 z m 0,1.857 21.325,0 c 0.866,0 1.258,0.154 1.422,0.318 0.164,0.164 0.319,0.526 0.319,1.393 l 0,21.354 c 0,0.866 -0.155,1.228 -0.319,1.393 -0.165,0.164 -0.556,0.319 -1.422,0.319 l -21.325,0 c -0.866,0 -1.228,-0.155 -1.393,-0.319 -0.163,-0.165 -0.349,-0.526 -0.349,-1.393 l 0,-21.354 c 0,-0.866 0.186,-1.229 0.349,-1.393 0.166,-0.163 0.527,-0.318 1.393,-0.318 z"
         id="path71"
         inkscape:connector-curvature="0"
         style="fill:#f4f4f4" /><path
         d="m 321.117,161.249 c -1.088,0 -2.024,0.196 -2.698,0.87 -0.674,0.675 -0.87,1.61 -0.87,2.698 l 0,21.354 c 0,1.088 0.196,2.023 0.87,2.698 0.674,0.674 1.61,0.87 2.698,0.87 l 21.354,0 c 1.088,0 2.024,-0.196 2.697,-0.87 0.675,-0.675 0.87,-1.61 0.87,-2.698 l 0,-21.354 c 0,-1.088 -0.195,-2.024 -0.87,-2.698 -0.673,-0.674 -1.61,-0.87 -2.697,-0.87 l -21.354,0 z m 0,1.857 21.354,0 c 0.866,0 1.228,0.154 1.393,0.318 0.164,0.164 0.319,0.526 0.319,1.393 l 0,21.354 c 0,0.866 -0.155,1.228 -0.319,1.393 -0.165,0.164 -0.526,0.319 -1.393,0.319 l -21.354,0 c -0.866,0 -1.229,-0.155 -1.393,-0.319 -0.165,-0.165 -0.319,-0.526 -0.319,-1.393 l 0,-21.354 c 0,-0.866 0.154,-1.229 0.319,-1.393 0.165,-0.163 0.527,-0.318 1.393,-0.318 z"
         id="path73"
         inkscape:connector-curvature="0"
         style="fill:#f4f4f4" /><path
         d="m 348.821,161.249 c -1.088,0 -2.024,0.196 -2.698,0.87 -0.675,0.675 -0.87,1.61 -0.87,2.698 l 0,21.354 c 0,1.088 0.195,2.023 0.87,2.698 0.674,0.674 1.61,0.87 2.698,0.87 l 21.354,0 c 1.088,0 2.023,-0.196 2.698,-0.87 0.673,-0.675 0.87,-1.61 0.87,-2.698 l 0,-21.354 c 0,-1.088 -0.197,-2.024 -0.87,-2.698 -0.675,-0.674 -1.611,-0.87 -2.698,-0.87 l -21.354,0 z m 0,1.857 21.354,0 c 0.865,0 1.228,0.154 1.393,0.318 0.164,0.164 0.319,0.526 0.319,1.393 l 0,21.354 c 0,0.866 -0.155,1.228 -0.319,1.393 -0.165,0.164 -0.527,0.319 -1.393,0.319 l -21.354,0 c -0.867,0 -1.229,-0.155 -1.393,-0.319 -0.165,-0.165 -0.319,-0.526 -0.319,-1.393 l 0,-21.354 c 0,-0.866 0.154,-1.229 0.319,-1.393 0.165,-0.163 0.526,-0.318 1.393,-0.318 z"
         id="path75"
         inkscape:connector-curvature="0"
         style="fill:#f4f4f4" /><path
         d="m 376.562,161.249 c -1.088,0 -2.053,0.196 -2.727,0.87 -0.675,0.675 -0.871,1.61 -0.871,2.698 l 0,21.354 c 0,1.088 0.196,2.023 0.871,2.698 0.674,0.674 1.639,0.87 2.727,0.87 l 21.325,0 c 1.088,0 2.053,-0.196 2.727,-0.87 0.674,-0.675 0.842,-1.61 0.842,-2.698 l 0,-21.354 c 0,-1.088 -0.168,-2.024 -0.842,-2.698 -0.674,-0.674 -1.639,-0.87 -2.727,-0.87 l -21.325,0 z m 0,1.857 21.325,0 c 0.865,0 1.229,0.154 1.393,0.318 0.164,0.164 0.319,0.526 0.319,1.393 l 0,21.354 c 0,0.866 -0.155,1.228 -0.319,1.393 -0.164,0.164 -0.527,0.319 -1.393,0.319 l -21.325,0 c -0.866,0 -1.257,-0.155 -1.421,-0.319 -0.164,-0.165 -0.319,-0.526 -0.319,-1.393 l 0,-21.354 c 0,-0.866 0.155,-1.229 0.319,-1.393 0.164,-0.164 0.554,-0.318 1.421,-0.318 z"
         id="path77"
         inkscape:connector-curvature="0"
         style="fill:#f4f4f4" /><path
         d="m 404.266,161.249 c -1.088,0 -2.054,0.196 -2.728,0.87 -0.674,0.675 -0.87,1.61 -0.87,2.698 l 0,21.354 c 0,1.088 0.196,2.023 0.87,2.698 0.674,0.674 1.64,0.87 2.728,0.87 l 21.324,0 c 1.088,0 2.053,-0.196 2.728,-0.87 0.674,-0.675 0.87,-1.61 0.87,-2.698 l 0,-21.354 c 0,-1.088 -0.196,-2.024 -0.87,-2.698 -0.675,-0.674 -1.64,-0.87 -2.728,-0.87 l -21.324,0 z m 0,1.857 21.324,0 c 0.866,0 1.258,0.154 1.422,0.318 0.164,0.164 0.319,0.526 0.319,1.393 l 0,21.354 c 0,0.866 -0.155,1.228 -0.319,1.393 -0.164,0.164 -0.556,0.319 -1.422,0.319 l -21.324,0 c -0.867,0 -1.258,-0.155 -1.422,-0.319 -0.164,-0.165 -0.319,-0.526 -0.319,-1.393 l 0,-21.354 c 0,-0.866 0.155,-1.229 0.319,-1.393 0.164,-0.164 0.554,-0.318 1.422,-0.318 z"
         id="path79"
         inkscape:connector-curvature="0"
         style="fill:#f4f4f4" /><path
         d="m 431.97,161.249 c -1.089,0 -2.054,0.196 -2.728,0.87 -0.675,0.675 -0.842,1.61 -0.842,2.698 l 0,21.354 c 0,1.088 0.167,2.023 0.842,2.698 0.674,0.674 1.639,0.87 2.728,0.87 l 21.324,0 c 1.088,0 2.053,-0.196 2.727,-0.87 0.674,-0.675 0.871,-1.61 0.871,-2.698 l 0,-21.354 c 0,-1.088 -0.197,-2.024 -0.871,-2.698 -0.674,-0.674 -1.639,-0.87 -2.727,-0.87 l -21.324,0 z m 0,1.857 21.324,0 c 0.865,0 1.258,0.154 1.422,0.318 0.164,0.164 0.318,0.526 0.318,1.393 l 0,21.354 c 0,0.866 -0.154,1.228 -0.318,1.393 -0.164,0.164 -0.557,0.319 -1.422,0.319 l -21.324,0 c -0.867,0 -1.229,-0.155 -1.393,-0.319 -0.166,-0.165 -0.319,-0.526 -0.319,-1.393 l 0,-21.354 c 0,-0.866 0.153,-1.229 0.319,-1.393 0.164,-0.163 0.526,-0.318 1.393,-0.318 z"
         id="path81"
         inkscape:connector-curvature="0"
         style="fill:#f4f4f4" /><path
         d="m 459.682,161.249 c -1.088,0 -2.023,0.196 -2.698,0.87 -0.674,0.675 -0.87,1.61 -0.87,2.698 l 0,21.354 c 0,1.088 0.196,2.023 0.87,2.698 0.675,0.674 1.61,0.87 2.698,0.87 l 21.354,0 c 1.088,0 2.024,-0.196 2.698,-0.87 0.674,-0.675 0.871,-1.61 0.871,-2.698 l 0,-21.354 c 0,-1.088 -0.197,-2.024 -0.871,-2.698 -0.674,-0.674 -1.61,-0.87 -2.698,-0.87 l -21.354,0 z m 0,1.857 21.354,0 c 0.866,0 1.229,0.154 1.393,0.318 0.164,0.164 0.319,0.526 0.319,1.393 l 0,21.354 c 0,0.866 -0.155,1.228 -0.319,1.393 -0.164,0.164 -0.526,0.319 -1.393,0.319 l -21.354,0 c -0.866,0 -1.229,-0.155 -1.393,-0.319 -0.164,-0.165 -0.319,-0.526 -0.319,-1.393 l 0,-21.354 c 0,-0.866 0.155,-1.229 0.319,-1.393 0.164,-0.164 0.526,-0.318 1.393,-0.318 z"
         id="path83"
         inkscape:connector-curvature="0"
         style="fill:#f4f4f4" /><path
         d="m 127.136,188.982 c -1.088,0 -2.053,0.167 -2.728,0.842 -0.674,0.674 -0.87,1.638 -0.87,2.728 l 0,21.324 c 0,1.088 0.196,2.053 0.87,2.727 0.675,0.674 1.64,0.871 2.728,0.871 l 37.833,0 c 1.088,0 2.053,-0.197 2.728,-0.871 0.674,-0.674 0.87,-1.639 0.87,-2.727 l 0,-21.324 c 0,-1.09 -0.196,-2.054 -0.87,-2.728 -0.675,-0.675 -1.639,-0.842 -2.728,-0.842 l -37.833,0 z m 0,1.858 37.833,0 c 0.867,0 1.258,0.154 1.422,0.318 0.164,0.165 0.319,0.526 0.319,1.394 l 0,21.324 c 0,0.866 -0.155,1.257 -0.319,1.422 -0.164,0.164 -0.555,0.318 -1.422,0.318 l -37.833,0 c -0.866,0 -1.258,-0.154 -1.422,-0.318 -0.164,-0.165 -0.319,-0.556 -0.319,-1.422 l 0,-21.324 c 0,-0.867 0.155,-1.229 0.319,-1.394 0.164,-0.164 0.556,-0.318 1.422,-0.318 z"
         id="path85"
         inkscape:connector-curvature="0"
         style="fill:#f4f4f4" /><path
         d="m 171.356,188.982 c -1.088,0 -2.053,0.167 -2.728,0.842 -0.674,0.674 -0.841,1.638 -0.841,2.728 l 0,21.324 c 0,1.088 0.167,2.053 0.841,2.727 0.675,0.674 1.639,0.871 2.728,0.871 l 21.353,0 c 1.088,0 2.024,-0.197 2.698,-0.871 0.674,-0.674 0.871,-1.639 0.871,-2.727 l 0,-21.324 c 0,-1.09 -0.196,-2.054 -0.871,-2.728 -0.674,-0.675 -1.61,-0.842 -2.698,-0.842 l -21.353,0 z m 0,1.858 21.353,0 c 0.867,0 1.229,0.154 1.393,0.318 0.164,0.165 0.319,0.526 0.319,1.394 l 0,21.324 c 0,0.866 -0.155,1.257 -0.319,1.422 -0.165,0.164 -0.526,0.318 -1.393,0.318 l -21.353,0 c -0.867,0 -1.229,-0.154 -1.393,-0.318 -0.164,-0.165 -0.319,-0.556 -0.319,-1.422 l 0,-21.324 c 0,-0.867 0.155,-1.229 0.319,-1.394 0.164,-0.164 0.526,-0.318 1.393,-0.318 z"
         id="path87"
         inkscape:connector-curvature="0"
         style="fill:#f4f4f4" /><path
         d="m 127.229,216.491 c -1.088,0 -2.053,0.196 -2.727,0.871 -0.674,0.673 -0.871,1.639 -0.871,2.727 l 0,21.324 c 0,1.088 0.196,2.053 0.871,2.728 0.674,0.674 1.639,0.87 2.727,0.87 l 21.324,0 c 1.089,0 2.053,-0.196 2.728,-0.87 0.674,-0.675 0.841,-1.64 0.841,-2.728 l 0,-21.324 c 0,-1.088 -0.167,-2.054 -0.841,-2.727 -0.674,-0.675 -1.639,-0.871 -2.728,-0.871 l -21.324,0 z m 0,1.858 21.324,0 c 0.867,0 1.229,0.153 1.393,0.318 0.165,0.164 0.319,0.556 0.319,1.422 l 0,21.324 c 0,0.866 -0.154,1.257 -0.319,1.422 -0.165,0.164 -0.526,0.319 -1.393,0.319 l -21.324,0 c -0.866,0 -1.257,-0.155 -1.421,-0.319 -0.167,-0.157 -0.325,-0.558 -0.325,-1.421 l 0,-21.324 c 0,-0.866 0.155,-1.258 0.319,-1.422 0.165,-0.164 0.556,-0.318 1.422,-0.318 l 0.005,-0.001 z"
         id="path89"
         inkscape:connector-curvature="0"
         style="fill:#f4f4f4" /><path
         d="m 196.125,216.491 c -1.088,0 -2.023,0.196 -2.698,0.871 -0.674,0.673 -0.871,1.639 -0.871,2.727 l 0,21.324 c 0,1.088 0.196,2.053 0.871,2.728 0.675,0.674 1.611,0.87 2.698,0.87 l 216.003,0 c 1.088,0 2.053,-0.196 2.728,-0.87 0.674,-0.675 0.87,-1.64 0.87,-2.728 l 0,-21.324 c 0,-1.088 -0.196,-2.054 -0.87,-2.727 -0.675,-0.675 -1.64,-0.871 -2.728,-0.871 l -216.003,0 z m 0,1.858 216.003,0 c 0.866,0 1.258,0.153 1.422,0.318 0.164,0.164 0.319,0.556 0.319,1.422 l 0,21.324 c 0,0.866 -0.155,1.257 -0.319,1.422 -0.164,0.164 -0.556,0.319 -1.422,0.319 l -216.003,0 c -0.866,0 -1.228,-0.155 -1.393,-0.319 -0.164,-0.165 -0.319,-0.556 -0.319,-1.422 l 0,-21.324 c 0,-0.866 0.155,-1.258 0.319,-1.422 0.165,-0.165 0.527,-0.318 1.393,-0.318 z"
         id="path91"
         inkscape:connector-curvature="0"
         style="fill:#f4f4f4" /><path
         d="m 199.06,188.982 c -1.088,0 -2.024,0.167 -2.698,0.842 -0.674,0.674 -0.871,1.638 -0.871,2.728 l 0,21.324 c 0,1.088 0.196,2.053 0.871,2.727 0.674,0.675 1.61,0.871 2.698,0.871 l 21.354,0 c 1.088,0 2.023,-0.197 2.698,-0.871 0.674,-0.674 0.87,-1.639 0.87,-2.727 l 0,-21.324 c 0,-1.09 -0.196,-2.054 -0.87,-2.728 -0.675,-0.675 -1.61,-0.842 -2.698,-0.842 l -21.354,0 z m 0,1.858 21.354,0 c 0.866,0 1.229,0.154 1.393,0.318 0.164,0.165 0.319,0.526 0.319,1.394 l 0,21.324 c 0,0.866 -0.155,1.257 -0.319,1.422 -0.164,0.164 -0.526,0.318 -1.393,0.318 l -21.354,0 c -0.867,0 -1.229,-0.154 -1.393,-0.318 -0.164,-0.165 -0.319,-0.556 -0.319,-1.422 l 0,-21.324 c 0,-0.868 0.155,-1.229 0.319,-1.394 0.164,-0.165 0.526,-0.318 1.393,-0.318 z"
         id="path93"
         inkscape:connector-curvature="0"
         style="fill:#f4f4f4" /><path
         d="m 226.791,188.982 c -1.088,0 -2.053,0.167 -2.727,0.842 -0.674,0.674 -0.871,1.638 -0.871,2.728 l 0,21.324 c 0,1.088 0.196,2.053 0.871,2.727 0.675,0.674 1.639,0.871 2.727,0.871 l 21.325,0 c 1.087,0 2.053,-0.197 2.727,-0.871 0.675,-0.674 0.841,-1.639 0.841,-2.727 l 0,-21.324 c 0,-1.09 -0.167,-2.054 -0.841,-2.728 -0.674,-0.675 -1.64,-0.842 -2.727,-0.842 l -21.325,0 z m 0,1.858 21.325,0 c 0.866,0 1.229,0.154 1.393,0.318 0.164,0.165 0.319,0.526 0.319,1.394 l 0,21.324 c 0,0.866 -0.155,1.257 -0.319,1.422 -0.164,0.164 -0.526,0.318 -1.393,0.318 l -21.325,0 c -0.867,0 -1.257,-0.154 -1.421,-0.318 -0.164,-0.165 -0.319,-0.556 -0.319,-1.422 l 0,-21.324 c 0,-0.867 0.155,-1.229 0.319,-1.394 0.164,-0.164 0.554,-0.318 1.421,-0.318 z"
         id="path95"
         inkscape:connector-curvature="0"
         style="fill:#f4f4f4" /><path
         d="m 254.504,188.982 c -1.088,0 -2.053,0.167 -2.727,0.842 -0.675,0.674 -0.871,1.638 -0.871,2.728 l 0,21.324 c 0,1.088 0.196,2.053 0.871,2.727 0.674,0.675 1.639,0.871 2.727,0.871 l 21.324,0 c 1.089,0 2.054,-0.196 2.728,-0.871 0.675,-0.674 0.87,-1.639 0.87,-2.727 l 0,-21.324 c 0,-1.09 -0.195,-2.054 -0.87,-2.728 -0.674,-0.675 -1.639,-0.842 -2.728,-0.842 l -21.324,0 z m 0,1.858 21.324,0 c 0.867,0 1.258,0.154 1.422,0.318 0.164,0.164 0.319,0.525 0.319,1.394 l 0,21.324 c 0,0.866 -0.155,1.257 -0.319,1.422 -0.164,0.164 -0.555,0.318 -1.422,0.318 l -21.324,0 c -0.867,0 -1.257,-0.154 -1.422,-0.318 -0.164,-0.165 -0.319,-0.556 -0.319,-1.422 l 0,-21.324 c 0,-0.868 0.155,-1.229 0.319,-1.394 0.165,-0.164 0.555,-0.318 1.422,-0.318 z"
         id="path97"
         inkscape:connector-curvature="0"
         style="fill:#f4f4f4" /><path
         d="m 282.208,188.982 c -1.089,0 -2.053,0.167 -2.728,0.842 -0.675,0.674 -0.842,1.638 -0.842,2.728 l 0,21.324 c 0,1.088 0.167,2.053 0.842,2.727 0.675,0.674 1.639,0.871 2.728,0.871 l 21.324,0 c 1.088,0 2.054,-0.197 2.727,-0.871 0.675,-0.674 0.871,-1.639 0.871,-2.727 l 0,-21.324 c 0,-1.09 -0.196,-2.054 -0.871,-2.728 -0.673,-0.675 -1.639,-0.842 -2.727,-0.842 l -21.324,0 z m 0,1.858 21.324,0 c 0.866,0 1.258,0.154 1.422,0.318 0.164,0.165 0.318,0.526 0.318,1.394 l 0,21.324 c 0,0.866 -0.154,1.257 -0.318,1.422 -0.164,0.164 -0.556,0.318 -1.422,0.318 l -21.324,0 c -0.867,0 -1.229,-0.154 -1.393,-0.318 -0.164,-0.165 -0.319,-0.556 -0.319,-1.422 l 0,-21.324 c 0,-0.867 0.155,-1.229 0.319,-1.394 0.164,-0.164 0.526,-0.318 1.393,-0.318 z"
         id="path99"
         inkscape:connector-curvature="0"
         style="fill:#f4f4f4" /><path
         d="m 309.92,188.982 c -1.087,0 -2.023,0.167 -2.697,0.842 -0.674,0.674 -0.87,1.638 -0.87,2.728 l 0,21.324 c 0,1.088 0.196,2.053 0.87,2.727 0.674,0.674 1.61,0.871 2.697,0.871 l 21.354,0 c 1.088,0 2.024,-0.197 2.698,-0.871 0.675,-0.674 0.871,-1.639 0.871,-2.727 l 0,-21.324 c 0,-1.09 -0.196,-2.054 -0.871,-2.728 -0.674,-0.675 -1.61,-0.842 -2.698,-0.842 l -21.354,0 z m 0,1.858 21.354,0 c 0.867,0 1.229,0.154 1.393,0.318 0.164,0.165 0.319,0.526 0.319,1.394 l 0,21.324 c 0,0.866 -0.155,1.257 -0.319,1.422 -0.164,0.164 -0.525,0.318 -1.393,0.318 l -21.354,0 c -0.865,0 -1.229,-0.154 -1.393,-0.318 -0.164,-0.165 -0.318,-0.556 -0.318,-1.422 l 0,-21.324 c 0,-0.867 0.154,-1.229 0.318,-1.394 0.164,-0.164 0.528,-0.318 1.393,-0.318 z"
         id="path101"
         inkscape:connector-curvature="0"
         style="fill:#f4f4f4" /><path
         d="m 337.624,188.982 c -1.088,0 -2.023,0.167 -2.698,0.842 -0.675,0.674 -0.87,1.638 -0.87,2.728 l 0,21.324 c 0,1.088 0.195,2.053 0.87,2.727 0.675,0.674 1.61,0.871 2.698,0.871 l 21.354,0 c 1.088,0 2.023,-0.197 2.698,-0.871 0.675,-0.674 0.87,-1.639 0.87,-2.727 l 0,-21.324 c 0,-1.09 -0.195,-2.054 -0.87,-2.728 -0.675,-0.675 -1.61,-0.842 -2.698,-0.842 l -21.354,0 z m 0,1.858 21.354,0 c 0.867,0 1.229,0.154 1.393,0.318 0.164,0.165 0.319,0.526 0.319,1.394 l 0,21.324 c 0,0.866 -0.155,1.257 -0.319,1.422 -0.164,0.164 -0.525,0.318 -1.393,0.318 l -21.354,0 c -0.866,0 -1.229,-0.154 -1.393,-0.318 -0.164,-0.165 -0.319,-0.556 -0.319,-1.422 l 0,-21.324 c 0,-0.867 0.155,-1.229 0.319,-1.394 0.165,-0.164 0.527,-0.318 1.393,-0.318 z"
         id="path103"
         inkscape:connector-curvature="0"
         style="fill:#f4f4f4" /><path
         d="m 365.364,188.982 c -1.088,0 -2.052,0.167 -2.727,0.842 -0.674,0.674 -0.87,1.638 -0.87,2.728 l 0,21.324 c 0,1.088 0.196,2.053 0.87,2.727 0.675,0.675 1.639,0.871 2.727,0.871 l 21.325,0 c 1.088,0 2.054,-0.197 2.728,-0.871 0.674,-0.674 0.87,-1.639 0.87,-2.727 l 0,-21.324 c 0,-1.09 -0.196,-2.054 -0.87,-2.728 -0.674,-0.675 -1.64,-0.842 -2.728,-0.842 l -21.325,0 z m 0,1.858 21.325,0 c 0.866,0 1.229,0.154 1.393,0.318 0.164,0.165 0.348,0.526 0.348,1.394 l 0,21.324 c 0,0.866 -0.184,1.257 -0.348,1.422 -0.164,0.164 -0.526,0.318 -1.393,0.318 l -21.325,0 c -0.866,0 -1.257,-0.154 -1.421,-0.318 -0.158,-0.158 -0.315,-0.548 -0.315,-1.421 l 0,-21.325 c 0,-0.866 0.154,-1.229 0.318,-1.393 0.164,-0.164 0.556,-0.318 1.422,-0.318 l -0.004,-0.001 z"
         id="path105"
         inkscape:connector-curvature="0"
         style="fill:#f4f4f4" /><path
         d="m 393.068,188.982 c -1.087,0 -2.053,0.167 -2.728,0.842 -0.674,0.674 -0.87,1.638 -0.87,2.728 l 0,21.324 c 0,1.088 0.196,2.053 0.87,2.727 0.675,0.674 1.641,0.871 2.728,0.871 l 21.324,0 c 1.088,0 2.054,-0.197 2.728,-0.871 0.675,-0.674 0.87,-1.639 0.87,-2.727 l 0,-21.324 c 0,-1.09 -0.195,-2.054 -0.87,-2.728 -0.674,-0.675 -1.64,-0.842 -2.728,-0.842 l -21.324,0 z m 0,1.858 21.324,0 c 0.867,0 1.258,0.154 1.422,0.318 0.164,0.165 0.319,0.526 0.319,1.394 l 0,21.324 c 0,0.866 -0.155,1.257 -0.319,1.422 -0.164,0.164 -0.555,0.318 -1.422,0.318 l -21.324,0 c -0.866,0 -1.229,-0.154 -1.393,-0.318 -0.164,-0.165 -0.349,-0.556 -0.349,-1.422 l 0,-21.324 c 0,-0.867 0.185,-1.229 0.349,-1.394 0.165,-0.164 0.527,-0.318 1.393,-0.318 z"
         id="path107"
         inkscape:connector-curvature="0"
         style="fill:#f4f4f4" /><path
         d="m 420.772,188.982 c -1.088,0 -2.053,0.167 -2.728,0.842 -0.675,0.674 -0.842,1.638 -0.842,2.728 l 0,21.324 c 0,1.088 0.167,2.053 0.842,2.727 0.675,0.674 1.64,0.871 2.728,0.871 l 21.324,0 c 1.088,0 2.054,-0.197 2.727,-0.871 0.675,-0.674 0.871,-1.639 0.871,-2.727 l 0,-21.324 c 0,-1.09 -0.196,-2.054 -0.871,-2.728 -0.673,-0.675 -1.639,-0.842 -2.727,-0.842 l -21.324,0 z m 0,1.858 21.324,0 c 0.867,0 1.258,0.154 1.422,0.318 0.164,0.165 0.318,0.526 0.318,1.394 l 0,21.324 c 0,0.866 -0.154,1.257 -0.318,1.422 -0.164,0.164 -0.555,0.318 -1.422,0.318 l -21.324,0 c -0.866,0 -1.229,-0.154 -1.393,-0.318 -0.164,-0.165 -0.319,-0.556 -0.319,-1.422 l 0,-21.324 c 0,-0.867 0.155,-1.229 0.319,-1.394 0.165,-0.164 0.527,-0.318 1.393,-0.318 z"
         id="path109"
         inkscape:connector-curvature="0"
         style="fill:#f4f4f4" /><path
         d="m 448.485,188.982 c -1.088,0 -2.024,0.167 -2.697,0.842 -0.675,0.674 -0.871,1.638 -0.871,2.728 l 0,21.324 c 0,1.088 0.196,2.053 0.871,2.727 0.673,0.674 1.609,0.871 2.697,0.871 l 32.552,0 c 1.087,0 2.053,-0.197 2.728,-0.871 0.674,-0.674 0.841,-1.639 0.841,-2.727 l 0,-21.324 c 0,-1.09 -0.167,-2.054 -0.841,-2.728 -0.675,-0.675 -1.641,-0.842 -2.728,-0.842 l -32.552,0 z m 0,1.858 32.552,0 c 0.866,0 1.229,0.154 1.393,0.318 0.164,0.165 0.319,0.526 0.319,1.394 l 0,21.324 c 0,0.866 -0.155,1.257 -0.319,1.422 -0.164,0.164 -0.526,0.318 -1.393,0.318 l -32.552,0 c -0.866,0 -1.229,-0.154 -1.393,-0.318 -0.165,-0.165 -0.318,-0.556 -0.318,-1.422 l 0,-21.324 c 0,-0.867 0.153,-1.229 0.318,-1.394 0.165,-0.164 0.527,-0.318 1.393,-0.318 z"
         id="path111"
         inkscape:connector-curvature="0"
         style="fill:#f4f4f4" /></g></g></svg>