<?xml version="1.0" encoding="UTF-8" standalone="no"?>
<!-- Generator: Adobe Illustrator 13.0.0, SVG Export Plug-In . SVG Version: 6.00 Build 14948)  -->

<svg
   xmlns:dc="http://purl.org/dc/elements/1.1/"
   xmlns:cc="http://creativecommons.org/ns#"
   xmlns:rdf="http://www.w3.org/1999/02/22-rdf-syntax-ns#"
   xmlns:svg="http://www.w3.org/2000/svg"
   xmlns="http://www.w3.org/2000/svg"
   xmlns:sodipodi="http://sodipodi.sourceforge.net/DTD/sodipodi-0.dtd"
   xmlns:inkscape="http://www.inkscape.org/namespaces/inkscape"
   version="1.1"
   id="Layer_2"
   x="0px"
   y="0px"
   width="550"
   height="550"
   viewBox="0 0 549.99995 549.99999"
   enable-background="new 0 0 598.189 350.26"
   xml:space="preserve"
   inkscape:version="0.91 r13725"
   sodipodi:docname="controller_gg.svg"><metadata
     id="metadata3083"><rdf:RDF><cc:Work
         rdf:about=""><dc:format>image/svg+xml</dc:format><dc:type
           rdf:resource="http://purl.org/dc/dcmitype/StillImage" /><dc:title /></cc:Work></rdf:RDF></metadata><defs
     id="defs3081" /><sodipodi:namedview
     pagecolor="#ffffff"
     bordercolor="#666666"
     borderopacity="1"
     objecttolerance="10"
     gridtolerance="10"
     guidetolerance="10"
     inkscape:pageopacity="0"
     inkscape:pageshadow="2"
     inkscape:window-width="1920"
     inkscape:window-height="1001"
     id="namedview3079"
     showgrid="false"
     inkscape:zoom="1.0799262"
     inkscape:cx="69.732879"
     inkscape:cy="317.24155"
     inkscape:window-x="-9"
     inkscape:window-y="759"
     inkscape:window-maximized="1"
     inkscape:current-layer="layer4"
     showguides="true"
     inkscape:guide-bbox="true" /><g
     inkscape:groupmode="layer"
     id="layer4"
     inkscape:label="Controller"
     sodipodi:insensitive="true"><g
       id="g4625"
       transform="matrix(0.55554158,-0.39336462,-0.37357188,0.82005819,176.3746,174.54972)"><path
         d="m 44.422,69.395 c -9.927,0 -19.207,9.291 -19.207,19.207 l 0,177.707 c 0,11.615 9.539,19.236 19.207,19.235 l 513.928,0 c 5.957,0 10.788,-1.469 14.13,-4.671 3.342,-3.202 5.077,-8.073 5.077,-14.564 l 0,-177.708 c 0,-9.591 -7.604,-19.208 -19.208,-19.208 l -513.929,0 0.002,0.002 z m 0,1.856 513.928,0 c 10.586,0 17.351,8.739 17.351,17.35 l 0,177.707 c 0,6.165 -1.599,10.452 -4.497,13.229 -2.898,2.777 -7.195,4.149 -12.854,4.149 l -513.928,0 c -8.711,-0.01 -17.361,-6.787 -17.361,-17.389 l 0,-177.697 c 0,-8.726 8.613,-17.35 17.35,-17.35 l 0.011,0.001 z"
         id="path3-4"
         inkscape:connector-curvature="0"
         style="fill:#f4f4f4" /><path
         d="m 62.729,102.556 c -1.368,0 -2.612,0.754 -3.598,1.741 -0.986,0.985 -1.77,2.229 -1.77,3.598 l 0,135.575 c 0,1.368 0.785,2.641 1.77,3.627 0.986,0.985 2.229,1.74 3.598,1.74 l 480.396,0 c 1.368,0 2.611,-0.755 3.597,-1.74 0.986,-0.986 1.741,-2.259 1.741,-3.627 l 0,-135.575 c 0,-1.369 -0.755,-2.612 -1.741,-3.598 -0.985,-0.985 -2.229,-1.741 -3.597,-1.741 l -480.396,0 z m 0,1.857 480.396,0 c 0.586,0 1.554,0.451 2.292,1.189 0.737,0.738 1.188,1.705 1.188,2.292 l 0,135.576 c 0,0.586 -0.451,1.554 -1.188,2.292 -0.738,0.738 -1.706,1.219 -2.292,1.219 l -480.396,0 c -0.586,0 -1.555,-0.48 -2.292,-1.219 -0.741,-0.742 -1.222,-1.708 -1.222,-2.293 l 0,-135.575 c 0,-0.586 0.481,-1.555 1.218,-2.292 0.738,-0.738 1.706,-1.189 2.292,-1.189 l 0.004,0 z"
         id="path5-8"
         inkscape:connector-curvature="0"
         style="fill:#f4f4f4" /><path
         d="m 135.083,105.806 c -1.088,0 -2.053,0.167 -2.728,0.841 -0.674,0.674 -0.841,1.639 -0.841,2.727 l 0,21.324 c 0,1.088 0.167,2.053 0.841,2.728 0.674,0.675 1.639,0.87 2.728,0.87 l 21.324,0 c 1.088,0 2.053,-0.195 2.728,-0.87 0.675,-0.675 0.87,-1.64 0.87,-2.728 l 0,-21.324 c 0,-1.089 -0.196,-2.053 -0.87,-2.727 -0.674,-0.675 -1.64,-0.841 -2.728,-0.841 l -21.324,0 z m 0,1.856 21.324,0 c 0.867,0 1.258,0.155 1.422,0.319 0.164,0.164 0.319,0.526 0.319,1.393 l 0,21.324 c 0,0.867 -0.154,1.258 -0.319,1.422 -0.164,0.164 -0.556,0.319 -1.422,0.319 l -21.324,0 c -0.867,0 -1.229,-0.155 -1.393,-0.319 -0.158,-0.164 -0.315,-0.555 -0.315,-1.423 l 0,-21.324 c 0,-0.867 0.155,-1.229 0.319,-1.393 0.164,-0.164 0.525,-0.319 1.393,-0.319 l -0.004,0.001 z"
         id="path7-9"
         inkscape:connector-curvature="0"
         style="fill:#f4f4f4" /><path
         d="m 162.796,105.806 c -1.088,0 -2.024,0.167 -2.698,0.841 -0.674,0.674 -0.87,1.638 -0.87,2.727 l 0,21.324 c 0,1.088 0.196,2.053 0.87,2.728 0.674,0.675 1.61,0.87 2.698,0.87 l 21.353,0 c 1.088,0 2.024,-0.195 2.698,-0.87 0.675,-0.675 0.871,-1.64 0.871,-2.728 l 0,-21.324 c 0,-1.089 -0.196,-2.053 -0.871,-2.727 -0.674,-0.675 -1.61,-0.841 -2.698,-0.841 l -21.353,0 z m 0,1.856 21.353,0 c 0.867,0 1.229,0.155 1.393,0.319 0.165,0.164 0.319,0.526 0.319,1.393 l 0,21.324 c 0,0.867 -0.155,1.258 -0.319,1.422 -0.164,0.164 -0.526,0.319 -1.393,0.319 l -21.353,0 c -0.866,0 -1.229,-0.155 -1.393,-0.319 -0.165,-0.164 -0.319,-0.556 -0.319,-1.422 l 0,-21.324 c 0,-0.867 0.155,-1.229 0.319,-1.393 0.164,-0.164 0.526,-0.319 1.393,-0.319 z"
         id="path9-5"
         inkscape:connector-curvature="0"
         style="fill:#f4f4f4" /><path
         d="m 190.527,105.806 c -1.088,0 -2.053,0.167 -2.727,0.841 -0.675,0.674 -0.871,1.638 -0.871,2.727 l 0,21.324 c 0,1.088 0.196,2.053 0.871,2.728 0.674,0.675 1.639,0.87 2.727,0.87 l 21.324,0 c 1.089,0 2.053,-0.195 2.728,-0.87 0.674,-0.675 0.841,-1.64 0.841,-2.728 l 0,-21.324 c 0,-1.088 -0.167,-2.053 -0.841,-2.727 -0.674,-0.675 -1.639,-0.841 -2.728,-0.841 l -21.324,0 z m 0,1.856 21.324,0 c 0.868,0 1.229,0.155 1.393,0.319 0.164,0.164 0.319,0.526 0.319,1.393 l 0,21.324 c 0,0.867 -0.155,1.258 -0.319,1.422 -0.165,0.164 -0.526,0.319 -1.393,0.319 l -21.324,0 c -0.866,0 -1.257,-0.155 -1.422,-0.319 -0.164,-0.164 -0.319,-0.556 -0.319,-1.422 l 0,-21.324 c 0,-0.867 0.155,-1.229 0.319,-1.393 0.165,-0.164 0.556,-0.319 1.422,-0.319 z"
         id="path11-6"
         inkscape:connector-curvature="0"
         style="fill:#f4f4f4" /><path
         d="m 218.241,105.806 c -1.088,0 -2.053,0.167 -2.728,0.841 -0.674,0.674 -0.87,1.638 -0.87,2.727 l 0,21.324 c 0,1.088 0.196,2.053 0.87,2.728 0.674,0.675 1.639,0.87 2.728,0.87 l 21.324,0 c 1.088,0 2.053,-0.195 2.727,-0.87 0.674,-0.675 0.871,-1.64 0.871,-2.728 l 0,-21.324 c 0,-1.089 -0.196,-2.053 -0.871,-2.727 -0.674,-0.675 -1.639,-0.841 -2.727,-0.841 l -21.324,0 z m 0,1.856 21.324,0 c 0.866,0 1.257,0.155 1.422,0.319 0.164,0.164 0.319,0.526 0.319,1.393 l 0,21.324 c 0,0.867 -0.155,1.258 -0.319,1.422 -0.165,0.164 -0.556,0.319 -1.422,0.319 l -21.324,0 c -0.867,0 -1.258,-0.155 -1.422,-0.319 -0.165,-0.164 -0.319,-0.556 -0.319,-1.422 l 0,-21.324 c 0,-0.867 0.155,-1.229 0.319,-1.393 0.164,-0.164 0.555,-0.319 1.422,-0.319 z"
         id="path13"
         inkscape:connector-curvature="0"
         style="fill:#f4f4f4" /><path
         d="m 245.944,105.806 c -1.088,0 -2.053,0.167 -2.728,0.841 -0.674,0.674 -0.87,1.639 -0.87,2.727 l 0,21.324 c 0,1.088 0.196,2.053 0.87,2.728 0.674,0.675 1.639,0.87 2.728,0.87 l 21.324,0 c 1.088,0 2.053,-0.195 2.728,-0.87 0.674,-0.675 0.87,-1.64 0.87,-2.728 l 0,-21.324 c 0,-1.088 -0.196,-2.053 -0.87,-2.727 -0.675,-0.675 -1.64,-0.841 -2.728,-0.841 l -21.324,0 z m 0,1.856 21.324,0 c 0.867,0 1.258,0.155 1.422,0.319 0.164,0.164 0.319,0.526 0.319,1.393 l 0,21.324 c 0,0.867 -0.155,1.258 -0.319,1.422 -0.164,0.164 -0.555,0.319 -1.422,0.319 l -21.324,0 c -0.867,0 -1.229,-0.155 -1.393,-0.319 -0.164,-0.164 -0.348,-0.555 -0.348,-1.422 l 0,-21.324 c 0,-0.867 0.184,-1.229 0.348,-1.393 0.164,-0.164 0.526,-0.319 1.393,-0.319 z"
         id="path15"
         inkscape:connector-curvature="0"
         style="fill:#f4f4f4" /><path
         d="m 273.647,105.806 c -1.088,0 -2.023,0.167 -2.698,0.841 -0.674,0.674 -0.87,1.638 -0.87,2.727 l 0,21.324 c 0,1.088 0.196,2.053 0.87,2.728 0.675,0.675 1.61,0.87 2.698,0.87 l 21.354,0 c 1.088,0 2.024,-0.195 2.698,-0.87 0.674,-0.675 0.871,-1.64 0.871,-2.728 l 0,-21.324 c 0,-1.089 -0.196,-2.053 -0.871,-2.727 -0.674,-0.675 -1.61,-0.841 -2.698,-0.841 l -21.354,0 z m 0,1.856 21.354,0 c 0.867,0 1.228,0.155 1.393,0.319 0.164,0.164 0.319,0.526 0.319,1.393 l 0,21.324 c 0,0.867 -0.155,1.258 -0.319,1.422 -0.165,0.164 -0.526,0.319 -1.393,0.319 l -21.354,0 c -0.866,0 -1.229,-0.155 -1.393,-0.319 -0.158,-0.164 -0.315,-0.556 -0.315,-1.423 l 0,-21.324 c 0,-0.867 0.155,-1.229 0.319,-1.393 0.164,-0.164 0.526,-0.319 1.393,-0.319 l -0.004,0.001 z"
         id="path17"
         inkscape:connector-curvature="0"
         style="fill:#f4f4f4" /><path
         d="m 301.36,105.806 c -1.088,0 -2.023,0.167 -2.698,0.841 -0.674,0.674 -0.87,1.639 -0.87,2.727 l 0,21.324 c 0,1.088 0.196,2.053 0.87,2.728 0.675,0.675 1.61,0.87 2.698,0.87 l 21.354,0 c 1.088,0 2.023,-0.195 2.698,-0.87 0.674,-0.675 0.87,-1.64 0.87,-2.728 l 0,-21.324 c 0,-1.089 -0.195,-2.053 -0.87,-2.727 -0.675,-0.675 -1.61,-0.841 -2.698,-0.841 l -21.354,0 z m 0,1.856 21.354,0 c 0.867,0 1.229,0.155 1.393,0.319 0.164,0.164 0.319,0.526 0.319,1.393 l 0,21.324 c 0,0.867 -0.155,1.258 -0.319,1.422 -0.164,0.164 -0.526,0.319 -1.393,0.319 l -21.354,0 c -0.866,0 -1.229,-0.155 -1.393,-0.319 -0.164,-0.164 -0.319,-0.555 -0.319,-1.422 l 0,-21.324 c 0,-0.867 0.155,-1.229 0.319,-1.393 0.164,-0.164 0.527,-0.319 1.393,-0.319 z"
         id="path19"
         inkscape:connector-curvature="0"
         style="fill:#f4f4f4" /><path
         d="m 329.093,105.806 c -1.088,0 -2.053,0.167 -2.728,0.841 -0.675,0.674 -0.87,1.638 -0.87,2.727 l 0,21.324 c 0,1.088 0.195,2.053 0.87,2.728 0.674,0.675 1.64,0.87 2.728,0.87 l 21.324,0 c 1.088,0 2.053,-0.195 2.727,-0.87 0.675,-0.675 0.871,-1.64 0.871,-2.728 l 0,-21.324 c 0,-1.089 -0.196,-2.053 -0.871,-2.727 -0.674,-0.675 -1.639,-0.841 -2.727,-0.841 l -21.324,0 z m 0,1.856 21.324,0 c 0.866,0 1.229,0.155 1.393,0.319 0.164,0.164 0.348,0.526 0.348,1.393 l 0,21.324 c 0,0.867 -0.184,1.258 -0.348,1.422 -0.164,0.164 -0.527,0.319 -1.393,0.319 l -21.324,0 c -0.867,0 -1.258,-0.155 -1.422,-0.319 -0.164,-0.164 -0.319,-0.556 -0.319,-1.422 l 0,-21.324 c 0,-0.867 0.155,-1.229 0.319,-1.393 0.164,-0.164 0.555,-0.319 1.422,-0.319 z"
         id="path21-0"
         inkscape:connector-curvature="0"
         style="fill:#f4f4f4" /><path
         d="m 356.805,105.806 c -1.088,0 -2.052,0.167 -2.727,0.841 -0.675,0.674 -0.87,1.638 -0.87,2.727 l 0,21.324 c 0,1.088 0.195,2.053 0.87,2.728 0.675,0.675 1.639,0.87 2.727,0.87 l 21.325,0 c 1.088,0 2.053,-0.195 2.727,-0.87 0.668,-0.674 0.863,-1.639 0.863,-2.727 l 0,-21.325 c 0,-1.088 -0.195,-2.053 -0.87,-2.727 -0.674,-0.674 -1.64,-0.841 -2.728,-0.841 l -21.324,0 0.007,0 z m 0,1.856 21.325,0 c 0.866,0 1.257,0.155 1.421,0.319 0.165,0.164 0.319,0.526 0.319,1.393 l 0,21.324 c 0,0.867 -0.154,1.258 -0.319,1.422 -0.164,0.164 -0.555,0.319 -1.421,0.319 l -21.325,0 c -0.866,0 -1.257,-0.155 -1.421,-0.319 -0.164,-0.164 -0.319,-0.556 -0.319,-1.422 l 0,-21.324 c 0,-0.867 0.155,-1.229 0.319,-1.393 0.164,-0.164 0.554,-0.319 1.421,-0.319 z"
         id="path23"
         inkscape:connector-curvature="0"
         style="fill:#f4f4f4" /><path
         d="m 384.509,105.806 c -1.088,0 -2.053,0.167 -2.728,0.841 -0.675,0.674 -0.841,1.638 -0.841,2.727 l 0,21.324 c 0,1.088 0.166,2.053 0.841,2.728 0.675,0.675 1.64,0.87 2.728,0.87 l 21.324,0 c 1.088,0 2.053,-0.195 2.728,-0.87 0.675,-0.675 0.87,-1.64 0.87,-2.728 l 0,-21.324 c 0,-1.089 -0.195,-2.053 -0.87,-2.727 -0.675,-0.675 -1.64,-0.841 -2.728,-0.841 l -21.324,0 z m 0,1.856 21.324,0 c 0.867,0 1.258,0.155 1.422,0.319 0.164,0.164 0.319,0.526 0.319,1.393 l 0,21.324 c 0,0.867 -0.155,1.258 -0.319,1.422 -0.164,0.164 -0.555,0.319 -1.422,0.319 l -21.324,0 c -0.867,0 -1.229,-0.155 -1.393,-0.319 -0.164,-0.164 -0.319,-0.556 -0.319,-1.422 l 0,-21.324 c 0,-0.867 0.155,-1.229 0.319,-1.393 0.164,-0.164 0.526,-0.319 1.393,-0.319 z"
         id="path25"
         inkscape:connector-curvature="0"
         style="fill:#f4f4f4" /><path
         d="m 412.212,105.806 c -1.087,0 -2.023,0.167 -2.697,0.841 -0.669,0.673 -0.863,1.638 -0.863,2.726 l 0,21.325 c 0,1.088 0.195,2.053 0.87,2.727 0.675,0.675 1.61,0.87 2.698,0.87 l 21.354,0 c 1.087,0 2.023,-0.195 2.698,-0.87 0.674,-0.674 0.87,-1.639 0.87,-2.727 l 0,-21.325 c 0,-1.088 -0.196,-2.053 -0.87,-2.727 -0.675,-0.674 -1.611,-0.841 -2.698,-0.841 l -21.354,0 -0.008,10e-4 z m 0,1.856 21.354,0 c 0.866,0 1.229,0.155 1.393,0.319 0.164,0.164 0.319,0.526 0.319,1.393 l 0,21.324 c 0,0.867 -0.155,1.258 -0.319,1.422 -0.164,0.164 -0.526,0.319 -1.393,0.319 l -21.354,0 c -0.865,0 -1.227,-0.155 -1.393,-0.319 -0.157,-0.165 -0.315,-0.556 -0.315,-1.423 l 0,-21.324 c 0,-0.867 0.155,-1.229 0.319,-1.393 0.164,-0.164 0.527,-0.319 1.393,-0.319 l -0.004,0.001 z"
         id="path27"
         inkscape:connector-curvature="0"
         style="fill:#f4f4f4" /><path
         d="m 439.953,105.806 c -1.088,0 -2.053,0.167 -2.728,0.841 -0.674,0.674 -0.87,1.638 -0.87,2.727 l 0,21.324 c 0,1.088 0.196,2.053 0.87,2.728 0.675,0.675 1.64,0.87 2.728,0.87 l 21.324,0 c 1.089,0 2.053,-0.195 2.728,-0.87 0.675,-0.675 0.842,-1.64 0.842,-2.728 l 0,-21.324 c 0,-1.089 -0.167,-2.053 -0.842,-2.727 -0.675,-0.675 -1.639,-0.841 -2.728,-0.841 l -21.324,0 z m 0,1.856 21.324,0 c 0.867,0 1.229,0.155 1.393,0.319 0.165,0.164 0.319,0.526 0.319,1.393 l 0,21.324 c 0,0.867 -0.154,1.258 -0.319,1.422 -0.164,0.164 -0.525,0.319 -1.393,0.319 l -21.324,0 c -0.866,0 -1.258,-0.155 -1.422,-0.319 -0.164,-0.164 -0.318,-0.556 -0.318,-1.422 l 0,-21.324 c 0,-0.867 0.154,-1.229 0.318,-1.393 0.164,-0.164 0.556,-0.319 1.422,-0.319 z"
         id="path29"
         inkscape:connector-curvature="0"
         style="fill:#f4f4f4" /><path
         d="m 121.129,133.31 c -1.088,0 -2.053,0.196 -2.727,0.87 -0.674,0.674 -0.871,1.64 -0.871,2.728 l 0,21.324 c 0,1.088 0.196,2.053 0.871,2.728 0.674,0.674 1.639,0.87 2.727,0.87 l 21.325,0 c 1.088,0 2.053,-0.196 2.727,-0.87 0.675,-0.675 0.871,-1.64 0.871,-2.728 l 0,-21.324 c 0,-1.088 -0.196,-2.054 -0.871,-2.728 -0.674,-0.674 -1.639,-0.87 -2.727,-0.87 l -21.325,0 0,0 z m 0,1.857 21.325,0 c 0.866,0 1.257,0.184 1.421,0.348 0.164,0.164 0.319,0.526 0.319,1.393 l 0,21.324 c 0,0.867 -0.155,1.258 -0.319,1.422 -0.164,0.164 -0.555,0.319 -1.421,0.319 l -21.325,0 c -0.867,0 -1.229,-0.155 -1.393,-0.319 -0.164,-0.164 -0.348,-0.555 -0.348,-1.422 l 0,-21.324 c 0,-0.866 0.184,-1.229 0.348,-1.393 0.164,-0.164 0.527,-0.348 1.393,-0.348 z"
         id="path31"
         inkscape:connector-curvature="0"
         style="fill:#f4f4f4" /><path
         d="m 148.842,133.31 c -1.088,0 -2.053,0.196 -2.727,0.87 -0.674,0.674 -0.841,1.64 -0.841,2.728 l 0,21.324 c 0,1.088 0.167,2.053 0.841,2.728 0.674,0.674 1.64,0.87 2.727,0.87 l 21.325,0 c 1.088,0 2.053,-0.196 2.727,-0.87 0.668,-0.676 0.863,-1.64 0.863,-2.729 l 0,-21.324 c 0,-1.088 -0.196,-2.053 -0.87,-2.728 -0.674,-0.673 -1.639,-0.87 -2.728,-0.87 l -21.324,0 0.007,0.001 z m 0,1.857 21.325,0 c 0.867,0 1.257,0.184 1.421,0.348 0.165,0.164 0.319,0.526 0.319,1.393 l 0,21.324 c 0,0.867 -0.155,1.258 -0.319,1.422 -0.164,0.164 -0.555,0.319 -1.421,0.319 l -21.325,0 c -0.866,0 -1.229,-0.155 -1.393,-0.319 -0.164,-0.164 -0.319,-0.555 -0.319,-1.422 l 0,-21.324 c 0,-0.866 0.155,-1.229 0.319,-1.393 0.165,-0.164 0.527,-0.348 1.393,-0.348 z"
         id="path33-2"
         inkscape:connector-curvature="0"
         style="fill:#f4f4f4" /><path
         d="m 176.545,133.31 c -1.088,0 -2.023,0.196 -2.698,0.87 -0.674,0.675 -0.87,1.64 -0.87,2.728 l 0,21.324 c 0,1.088 0.196,2.053 0.87,2.728 0.675,0.675 1.61,0.87 2.698,0.87 l 21.354,0 c 1.088,0 2.023,-0.196 2.698,-0.87 0.674,-0.675 0.87,-1.64 0.87,-2.728 l 0,-21.324 c 0,-1.088 -0.196,-2.054 -0.87,-2.728 -0.674,-0.674 -1.61,-0.87 -2.698,-0.87 l -21.354,0 z m 0,1.857 21.354,0 c 0.866,0 1.229,0.184 1.393,0.348 0.164,0.164 0.319,0.526 0.319,1.393 l 0,21.324 c 0,0.867 -0.155,1.258 -0.319,1.422 -0.164,0.164 -0.526,0.319 -1.393,0.319 l -21.354,0 c -0.867,0 -1.229,-0.155 -1.393,-0.319 -0.164,-0.164 -0.319,-0.555 -0.319,-1.422 l 0,-21.324 c 0,-0.866 0.155,-1.229 0.319,-1.393 0.164,-0.164 0.527,-0.348 1.393,-0.348 z"
         id="path35"
         inkscape:connector-curvature="0"
         style="fill:#f4f4f4" /><path
         d="m 204.286,133.31 c -1.088,0 -2.053,0.196 -2.727,0.87 -0.678,0.674 -0.873,1.639 -0.873,2.727 l 0,21.324 c 0,1.089 0.196,2.054 0.87,2.728 0.675,0.675 1.64,0.87 2.728,0.87 l 21.324,0 c 1.088,0 2.053,-0.195 2.728,-0.87 0.674,-0.674 0.841,-1.639 0.841,-2.728 l 0,-21.324 c 0,-1.088 -0.167,-2.053 -0.841,-2.728 -0.674,-0.673 -1.639,-0.87 -2.728,-0.87 l -21.324,0 0.002,0.001 z m 0,1.857 21.325,0 c 0.867,0 1.229,0.184 1.393,0.348 0.165,0.164 0.319,0.526 0.319,1.393 l 0,21.324 c 0,0.867 -0.154,1.258 -0.319,1.422 -0.164,0.164 -0.526,0.319 -1.393,0.319 l -21.325,0 c -0.866,0 -1.257,-0.155 -1.421,-0.319 -0.167,-0.164 -0.325,-0.556 -0.325,-1.422 l 0,-21.324 c 0,-0.866 0.155,-1.229 0.319,-1.393 0.164,-0.164 0.555,-0.348 1.421,-0.348 l 0.006,0 z"
         id="path37"
         inkscape:connector-curvature="0"
         style="fill:#f4f4f4" /><path
         d="m 231.99,133.31 c -1.088,0 -2.052,0.196 -2.727,0.87 -0.674,0.675 -0.87,1.64 -0.87,2.728 l 0,21.324 c 0,1.088 0.196,2.053 0.87,2.728 0.675,0.675 1.639,0.87 2.727,0.87 l 21.325,0 c 1.088,0 2.053,-0.195 2.727,-0.87 0.675,-0.675 0.871,-1.64 0.871,-2.728 l 0,-21.324 c 0,-1.088 -0.196,-2.053 -0.871,-2.728 -0.674,-0.674 -1.639,-0.87 -2.727,-0.87 l -21.325,0 z m 0,1.857 21.325,0 c 0.867,0 1.257,0.184 1.421,0.348 0.165,0.164 0.319,0.526 0.319,1.393 l 0,21.324 c 0,0.867 -0.155,1.258 -0.319,1.422 -0.164,0.164 -0.554,0.319 -1.421,0.319 l -21.325,0 c -0.867,0 -1.257,-0.155 -1.421,-0.319 -0.164,-0.164 -0.319,-0.555 -0.319,-1.422 l 0,-21.324 c 0,-0.866 0.155,-1.229 0.319,-1.393 0.164,-0.164 0.554,-0.348 1.421,-0.348 z"
         id="path39"
         inkscape:connector-curvature="0"
         style="fill:#f4f4f4" /><path
         d="m 259.693,133.31 c -1.088,0 -2.052,0.196 -2.727,0.87 -0.674,0.674 -0.87,1.64 -0.87,2.728 l 0,21.324 c 0,1.088 0.196,2.053 0.87,2.728 0.675,0.674 1.64,0.87 2.727,0.87 l 21.325,0 c 1.088,0 2.053,-0.196 2.727,-0.87 0.675,-0.675 0.87,-1.64 0.87,-2.728 l 0,-21.324 c 0,-1.088 -0.195,-2.054 -0.87,-2.728 -0.674,-0.674 -1.639,-0.87 -2.727,-0.87 l -21.325,0 z m 0,1.857 21.325,0 c 0.866,0 1.257,0.184 1.421,0.348 0.165,0.164 0.319,0.526 0.319,1.393 l 0,21.324 c 0,0.867 -0.155,1.258 -0.319,1.422 -0.164,0.164 -0.555,0.319 -1.421,0.319 l -21.325,0 c -0.866,0 -1.229,-0.155 -1.393,-0.319 -0.164,-0.164 -0.348,-0.555 -0.348,-1.422 l 0,-21.324 c 0,-0.866 0.184,-1.229 0.348,-1.393 0.165,-0.164 0.527,-0.348 1.393,-0.348 z"
         id="path41"
         inkscape:connector-curvature="0"
         style="fill:#f4f4f4" /><path
         d="m 287.407,133.31 c -1.089,0 -2.024,0.196 -2.698,0.87 -0.675,0.675 -0.871,1.64 -0.871,2.728 l 0,21.324 c 0,1.088 0.196,2.053 0.871,2.728 0.674,0.674 1.609,0.87 2.698,0.87 l 21.353,0 c 1.088,0 2.023,-0.196 2.698,-0.87 0.675,-0.675 0.87,-1.64 0.87,-2.728 l 0,-21.324 c 0,-1.088 -0.195,-2.054 -0.87,-2.728 -0.675,-0.674 -1.61,-0.87 -2.698,-0.87 l -21.353,0 z m 0,1.857 21.353,0 c 0.867,0 1.229,0.184 1.393,0.348 0.165,0.164 0.319,0.526 0.319,1.393 l 0,21.324 c 0,0.867 -0.155,1.258 -0.319,1.422 -0.164,0.164 -0.525,0.319 -1.393,0.319 l -21.353,0 c -0.867,0 -1.229,-0.155 -1.393,-0.319 -0.165,-0.164 -0.319,-0.555 -0.319,-1.422 l 0,-21.324 c 0,-0.866 0.154,-1.229 0.319,-1.393 0.165,-0.164 0.526,-0.348 1.393,-0.348 z"
         id="path43"
         inkscape:connector-curvature="0"
         style="fill:#f4f4f4" /><path
         d="m 315.11,133.31 c -1.088,0 -2.024,0.196 -2.698,0.87 -0.674,0.674 -0.871,1.64 -0.871,2.728 l 0,21.324 c 0,1.088 0.197,2.053 0.871,2.728 0.674,0.674 1.61,0.87 2.698,0.87 l 21.354,0 c 1.088,0 2.023,-0.196 2.697,-0.87 0.675,-0.675 0.871,-1.64 0.871,-2.728 l 0,-21.324 c 0,-1.088 -0.196,-2.054 -0.871,-2.728 -0.674,-0.674 -1.609,-0.87 -2.697,-0.87 l -21.354,0 z m 0,1.857 21.354,0 c 0.866,0 1.229,0.184 1.393,0.348 0.165,0.164 0.318,0.526 0.318,1.393 l 0,21.324 c 0,0.867 -0.154,1.258 -0.318,1.422 -0.164,0.164 -0.526,0.319 -1.393,0.319 l -21.354,0 c -0.866,0 -1.229,-0.155 -1.393,-0.319 -0.164,-0.164 -0.319,-0.555 -0.319,-1.422 l 0,-21.324 c 0,-0.866 0.155,-1.229 0.319,-1.393 0.166,-0.164 0.527,-0.348 1.393,-0.348 z"
         id="path45"
         inkscape:connector-curvature="0"
         style="fill:#f4f4f4" /><path
         d="m 342.842,133.31 c -1.088,0 -2.053,0.196 -2.728,0.87 -0.674,0.674 -0.87,1.64 -0.87,2.728 l 0,21.324 c 0,1.088 0.196,2.053 0.87,2.728 0.675,0.674 1.64,0.87 2.728,0.87 l 21.324,0 c 1.088,0 2.053,-0.196 2.728,-0.87 0.675,-0.675 0.841,-1.64 0.841,-2.728 l 0,-21.324 c 0,-1.088 -0.166,-2.054 -0.841,-2.728 -0.674,-0.674 -1.64,-0.87 -2.728,-0.87 l -21.324,0 z m 0,1.857 21.324,0 c 0.867,0 1.229,0.184 1.393,0.348 0.164,0.164 0.319,0.526 0.319,1.393 l 0,21.324 c 0,0.867 -0.155,1.258 -0.319,1.422 -0.164,0.164 -0.525,0.319 -1.393,0.319 l -21.324,0 c -0.866,0 -1.258,-0.155 -1.422,-0.319 -0.157,-0.164 -0.315,-0.556 -0.315,-1.422 l 0,-21.324 c 0,-0.866 0.155,-1.229 0.319,-1.393 0.164,-0.164 0.556,-0.348 1.422,-0.348 l -0.004,0 z"
         id="path47"
         inkscape:connector-curvature="0"
         style="fill:#f4f4f4" /><path
         d="m 370.555,133.31 c -1.088,0 -2.053,0.196 -2.728,0.87 -0.674,0.674 -0.87,1.64 -0.87,2.728 l 0,21.324 c 0,1.088 0.196,2.053 0.87,2.728 0.675,0.674 1.641,0.87 2.728,0.87 l 21.325,0 c 1.087,0 2.053,-0.196 2.728,-0.87 0.673,-0.675 0.87,-1.64 0.87,-2.728 l 0,-21.324 c 0,-1.088 -0.197,-2.054 -0.87,-2.728 -0.675,-0.674 -1.64,-0.87 -2.728,-0.87 l -21.325,0 z m 0,1.857 21.325,0 c 0.866,0 1.257,0.184 1.421,0.348 0.165,0.164 0.319,0.526 0.319,1.393 l 0,21.324 c 0,0.867 -0.155,1.258 -0.319,1.422 -0.164,0.164 -0.555,0.319 -1.421,0.319 l -21.325,0 c -0.866,0 -1.229,-0.155 -1.393,-0.319 -0.164,-0.164 -0.349,-0.555 -0.349,-1.422 l 0,-21.324 c 0,-0.866 0.185,-1.229 0.349,-1.393 0.165,-0.164 0.526,-0.348 1.393,-0.348 z"
         id="path49"
         inkscape:connector-curvature="0"
         style="fill:#f4f4f4" /><path
         d="m 398.258,133.31 c -1.088,0 -2.053,0.196 -2.727,0.87 -0.674,0.674 -0.842,1.64 -0.842,2.728 l 0,21.324 c 0,1.088 0.168,2.053 0.842,2.728 0.674,0.674 1.64,0.87 2.727,0.87 l 21.325,0 c 1.088,0 2.053,-0.196 2.728,-0.87 0.674,-0.675 0.87,-1.64 0.87,-2.728 l 0,-21.324 c 0,-1.088 -0.196,-2.054 -0.87,-2.728 -0.675,-0.674 -1.639,-0.87 -2.728,-0.87 l -21.325,0 z m 0,1.857 21.325,0 c 0.866,0 1.257,0.184 1.422,0.348 0.164,0.164 0.319,0.526 0.319,1.393 l 0,21.324 c 0,0.867 -0.156,1.258 -0.319,1.422 -0.165,0.164 -0.556,0.319 -1.422,0.319 l -21.325,0 c -0.865,0 -1.229,-0.155 -1.393,-0.319 -0.164,-0.164 -0.319,-0.555 -0.319,-1.422 l 0,-21.324 c 0,-0.866 0.155,-1.229 0.319,-1.393 0.165,-0.164 0.528,-0.348 1.393,-0.348 z"
         id="path51"
         inkscape:connector-curvature="0"
         style="fill:#f4f4f4" /><path
         d="m 425.972,133.31 c -1.088,0 -2.024,0.196 -2.698,0.87 -0.675,0.674 -0.87,1.64 -0.87,2.728 l 0,21.324 c 0,1.088 0.195,2.053 0.87,2.728 0.675,0.674 1.61,0.87 2.698,0.87 l 21.354,0 c 1.087,0 2.023,-0.196 2.697,-0.87 0.675,-0.675 0.87,-1.64 0.87,-2.728 l 0,-21.324 c 0,-1.088 -0.195,-2.054 -0.87,-2.728 -0.674,-0.674 -1.61,-0.87 -2.697,-0.87 l -21.354,0 z m 0,1.857 21.354,0 c 0.866,0 1.228,0.184 1.393,0.348 0.164,0.164 0.319,0.526 0.319,1.393 l 0,21.324 c 0,0.867 -0.155,1.258 -0.319,1.422 -0.165,0.164 -0.526,0.319 -1.393,0.319 l -21.354,0 c -0.867,0 -1.229,-0.155 -1.393,-0.319 -0.164,-0.164 -0.319,-0.555 -0.319,-1.422 l 0,-21.324 c 0,-0.866 0.154,-1.229 0.319,-1.393 0.164,-0.164 0.525,-0.348 1.393,-0.348 z"
         id="path53-8"
         inkscape:connector-curvature="0"
         style="fill:#f4f4f4" /><path
         d="m 453.619,133.31 c -1.087,0 -2.053,0.196 -2.728,0.87 -0.674,0.674 -0.87,1.64 -0.87,2.728 l 0,21.324 c 0,1.089 0.196,2.053 0.87,2.728 0.675,0.674 1.641,0.87 2.728,0.87 l 35.192,0 c 1.088,0 2.023,-0.196 2.698,-0.87 0.675,-0.675 0.87,-1.64 0.87,-2.728 l 0,-21.324 c 0,-1.088 -0.196,-2.054 -0.87,-2.728 -0.675,-0.674 -1.61,-0.87 -2.698,-0.87 l -35.192,0 z m 0,1.857 35.192,0 c 0.866,0 1.228,0.184 1.393,0.348 0.164,0.164 0.319,0.526 0.319,1.393 l 0,21.324 c 0,0.867 -0.155,1.258 -0.319,1.422 -0.164,0.164 -0.526,0.319 -1.393,0.319 l -35.192,0 c -0.866,0 -1.257,-0.155 -1.422,-0.319 -0.164,-0.164 -0.319,-0.555 -0.319,-1.422 l 0,-21.324 c 0,-0.866 0.155,-1.229 0.319,-1.393 0.165,-0.165 0.556,-0.348 1.422,-0.348 z"
         id="path55-6"
         inkscape:connector-curvature="0"
         style="fill:#f4f4f4" /><path
         d="m 467.657,105.806 c -1.088,0 -2.053,0.167 -2.728,0.841 -0.675,0.674 -0.87,1.638 -0.87,2.727 l 0,21.324 c 0,1.088 0.195,2.053 0.87,2.728 0.675,0.675 1.64,0.87 2.728,0.87 l 21.324,0 c 1.088,0 2.053,-0.195 2.728,-0.87 0.674,-0.675 0.87,-1.64 0.87,-2.728 l 0,-21.324 c 0,-1.089 -0.196,-2.053 -0.87,-2.727 -0.675,-0.675 -1.64,-0.841 -2.728,-0.841 l -21.324,0 z m 0,1.856 21.324,0 c 0.867,0 1.229,0.155 1.393,0.319 0.164,0.164 0.348,0.526 0.348,1.393 l 0,21.324 c 0,0.867 -0.184,1.258 -0.348,1.422 -0.164,0.164 -0.525,0.319 -1.393,0.319 l -21.324,0 c -0.866,0 -1.258,-0.155 -1.422,-0.319 -0.164,-0.164 -0.319,-0.556 -0.319,-1.422 l 0,-21.324 c 0,-0.867 0.155,-1.229 0.319,-1.393 0.164,-0.164 0.555,-0.319 1.422,-0.319 z"
         id="path57"
         inkscape:connector-curvature="0"
         style="fill:#f4f4f4" /><path
         d="m 127.136,161.249 c -1.088,0 -2.053,0.196 -2.728,0.87 -0.674,0.675 -0.87,1.61 -0.87,2.698 l 0,21.354 c 0,1.088 0.196,2.023 0.87,2.698 0.675,0.674 1.64,0.87 2.728,0.87 l 21.325,0 c 1.088,0 2.053,-0.196 2.727,-0.87 0.674,-0.675 0.841,-1.611 0.841,-2.698 l 0,-21.354 c 0,-1.088 -0.167,-2.024 -0.841,-2.698 -0.674,-0.674 -1.639,-0.87 -2.727,-0.87 l -21.325,0 z m 0,1.857 21.325,0 c 0.866,0 1.228,0.154 1.392,0.318 0.165,0.164 0.319,0.526 0.319,1.393 l 0,21.354 c 0,0.866 -0.155,1.229 -0.319,1.393 -0.164,0.164 -0.525,0.319 -1.392,0.319 l -21.325,0 c -0.866,0 -1.257,-0.155 -1.422,-0.319 -0.164,-0.165 -0.319,-0.526 -0.319,-1.393 l 0,-21.354 c 0,-0.866 0.155,-1.229 0.319,-1.393 0.164,-0.163 0.556,-0.318 1.422,-0.318 z"
         id="path59"
         inkscape:connector-curvature="0"
         style="fill:#f4f4f4" /><path
         d="m 154.839,161.249 c -1.088,0 -2.053,0.196 -2.727,0.87 -0.674,0.675 -0.871,1.61 -0.871,2.698 l 0,21.354 c 0,1.088 0.196,2.023 0.871,2.698 0.674,0.674 1.639,0.87 2.727,0.87 l 21.325,0 c 1.088,0 2.053,-0.196 2.727,-0.87 0.674,-0.675 0.87,-1.61 0.87,-2.698 l 0,-21.354 c 0,-1.088 -0.196,-2.024 -0.87,-2.698 -0.674,-0.674 -1.639,-0.87 -2.727,-0.87 l -21.325,0 z m 0,1.857 21.325,0 c 0.866,0 1.257,0.154 1.421,0.318 0.165,0.164 0.319,0.526 0.319,1.393 l 0,21.354 c 0,0.866 -0.154,1.228 -0.319,1.393 -0.164,0.164 -0.555,0.319 -1.421,0.319 l -21.325,0 c -0.866,0 -1.257,-0.155 -1.422,-0.319 -0.164,-0.165 -0.319,-0.526 -0.319,-1.393 l 0,-21.354 c 0,-0.866 0.155,-1.229 0.319,-1.393 0.165,-0.163 0.556,-0.318 1.422,-0.318 z"
         id="path61"
         inkscape:connector-curvature="0"
         style="fill:#f4f4f4" /><path
         d="m 182.552,161.249 c -1.088,0 -2.053,0.196 -2.727,0.87 -0.674,0.675 -0.841,1.61 -0.841,2.698 l 0,21.354 c 0,1.088 0.167,2.023 0.841,2.698 0.674,0.674 1.639,0.87 2.727,0.87 l 21.325,0 c 1.088,0 2.053,-0.196 2.727,-0.87 0.674,-0.675 0.871,-1.61 0.871,-2.698 l 0,-21.354 c 0,-1.088 -0.196,-2.024 -0.871,-2.698 -0.674,-0.674 -1.639,-0.87 -2.727,-0.87 l -21.325,0 z m 0,1.857 21.325,0 c 0.866,0 1.257,0.154 1.421,0.318 0.165,0.164 0.319,0.526 0.319,1.393 l 0,21.354 c 0,0.866 -0.155,1.228 -0.319,1.393 -0.165,0.164 -0.555,0.319 -1.421,0.319 l -21.325,0 c -0.866,0 -1.229,-0.155 -1.393,-0.319 -0.165,-0.165 -0.319,-0.526 -0.319,-1.393 l 0,-21.354 c 0,-0.866 0.154,-1.229 0.319,-1.393 0.165,-0.163 0.527,-0.318 1.393,-0.318 z"
         id="path63"
         inkscape:connector-curvature="0"
         style="fill:#f4f4f4" /><path
         d="m 210.256,161.249 c -1.088,0 -2.024,0.196 -2.698,0.87 -0.674,0.675 -0.871,1.61 -0.871,2.698 l 0,21.354 c 0,1.088 0.196,2.023 0.871,2.698 0.674,0.674 1.61,0.87 2.698,0.87 l 21.354,0 c 1.088,0 2.024,-0.196 2.698,-0.87 0.675,-0.675 0.871,-1.61 0.871,-2.698 l 0,-21.354 c 0,-1.088 -0.196,-2.024 -0.871,-2.698 -0.674,-0.674 -1.61,-0.87 -2.698,-0.87 l -21.354,0 z m 0,1.857 21.354,0 c 0.867,0 1.229,0.154 1.393,0.318 0.165,0.164 0.319,0.526 0.319,1.393 l 0,21.354 c 0,0.866 -0.155,1.228 -0.319,1.393 -0.164,0.164 -0.526,0.319 -1.393,0.319 l -21.354,0 c -0.866,0 -1.229,-0.155 -1.393,-0.319 -0.165,-0.165 -0.319,-0.526 -0.319,-1.393 l 0,-21.354 c 0,-0.866 0.154,-1.229 0.319,-1.393 0.164,-0.163 0.527,-0.318 1.393,-0.318 z"
         id="path65"
         inkscape:connector-curvature="0"
         style="fill:#f4f4f4" /><path
         d="m 237.997,161.249 c -1.088,0 -2.053,0.196 -2.728,0.87 -0.674,0.675 -0.87,1.61 -0.87,2.698 l 0,21.354 c 0,1.088 0.196,2.023 0.87,2.698 0.674,0.674 1.64,0.87 2.728,0.87 l 21.324,0 c 1.088,0 2.024,-0.196 2.698,-0.87 0.674,-0.675 0.871,-1.61 0.871,-2.698 l 0,-21.354 c 0,-1.088 -0.196,-2.024 -0.871,-2.698 -0.674,-0.674 -1.61,-0.87 -2.698,-0.87 l -21.324,0 z m 0,1.857 21.324,0 c 0.866,0 1.228,0.154 1.393,0.318 0.165,0.164 0.319,0.526 0.319,1.393 l 0,21.354 c 0,0.866 -0.155,1.228 -0.319,1.393 -0.165,0.164 -0.526,0.319 -1.393,0.319 l -21.324,0 c -0.866,0 -1.258,-0.155 -1.422,-0.319 -0.165,-0.165 -0.319,-0.526 -0.319,-1.393 l 0,-21.354 c 0,-0.866 0.154,-1.229 0.319,-1.393 0.164,-0.163 0.556,-0.318 1.422,-0.318 z"
         id="path67"
         inkscape:connector-curvature="0"
         style="fill:#f4f4f4" /><path
         d="m 265.701,161.249 c -1.088,0 -2.053,0.196 -2.727,0.87 -0.675,0.675 -0.871,1.61 -0.871,2.698 l 0,21.354 c 0,1.088 0.196,2.023 0.871,2.698 0.674,0.674 1.639,0.87 2.727,0.87 l 21.325,0 c 1.088,0 2.053,-0.196 2.727,-0.87 0.675,-0.675 0.871,-1.61 0.871,-2.698 l 0,-21.354 c 0,-1.088 -0.196,-2.024 -0.871,-2.698 -0.674,-0.674 -1.639,-0.87 -2.727,-0.87 l -21.325,0 z m 0,1.857 21.325,0 c 0.866,0 1.228,0.154 1.393,0.318 0.164,0.164 0.348,0.526 0.348,1.393 l 0,21.354 c 0,0.866 -0.184,1.228 -0.348,1.393 -0.164,0.164 -0.526,0.319 -1.393,0.319 l -21.325,0 c -0.866,0 -1.257,-0.155 -1.422,-0.319 -0.165,-0.165 -0.319,-0.526 -0.319,-1.393 l 0,-21.354 c 0,-0.866 0.154,-1.229 0.319,-1.393 0.165,-0.164 0.555,-0.318 1.422,-0.318 z"
         id="path69"
         inkscape:connector-curvature="0"
         style="fill:#f4f4f4" /><path
         d="m 293.413,161.249 c -1.088,0 -2.053,0.196 -2.727,0.87 -0.675,0.675 -0.871,1.61 -0.871,2.698 l 0,21.354 c 0,1.088 0.196,2.023 0.871,2.698 0.674,0.674 1.639,0.87 2.727,0.87 l 21.325,0 c 1.088,0 2.053,-0.196 2.728,-0.87 0.673,-0.675 0.87,-1.61 0.87,-2.698 l 0,-21.354 c 0,-1.088 -0.197,-2.024 -0.87,-2.698 -0.675,-0.674 -1.64,-0.87 -2.728,-0.87 l -21.325,0 z m 0,1.857 21.325,0 c 0.866,0 1.258,0.154 1.422,0.318 0.164,0.164 0.319,0.526 0.319,1.393 l 0,21.354 c 0,0.866 -0.155,1.228 -0.319,1.393 -0.165,0.164 -0.556,0.319 -1.422,0.319 l -21.325,0 c -0.866,0 -1.228,-0.155 -1.393,-0.319 -0.163,-0.165 -0.349,-0.526 -0.349,-1.393 l 0,-21.354 c 0,-0.866 0.186,-1.229 0.349,-1.393 0.166,-0.163 0.527,-0.318 1.393,-0.318 z"
         id="path71"
         inkscape:connector-curvature="0"
         style="fill:#f4f4f4" /><path
         d="m 321.117,161.249 c -1.088,0 -2.024,0.196 -2.698,0.87 -0.674,0.675 -0.87,1.61 -0.87,2.698 l 0,21.354 c 0,1.088 0.196,2.023 0.87,2.698 0.674,0.674 1.61,0.87 2.698,0.87 l 21.354,0 c 1.088,0 2.024,-0.196 2.697,-0.87 0.675,-0.675 0.87,-1.61 0.87,-2.698 l 0,-21.354 c 0,-1.088 -0.195,-2.024 -0.87,-2.698 -0.673,-0.674 -1.61,-0.87 -2.697,-0.87 l -21.354,0 z m 0,1.857 21.354,0 c 0.866,0 1.228,0.154 1.393,0.318 0.164,0.164 0.319,0.526 0.319,1.393 l 0,21.354 c 0,0.866 -0.155,1.228 -0.319,1.393 -0.165,0.164 -0.526,0.319 -1.393,0.319 l -21.354,0 c -0.866,0 -1.229,-0.155 -1.393,-0.319 -0.165,-0.165 -0.319,-0.526 -0.319,-1.393 l 0,-21.354 c 0,-0.866 0.154,-1.229 0.319,-1.393 0.165,-0.163 0.527,-0.318 1.393,-0.318 z"
         id="path73"
         inkscape:connector-curvature="0"
         style="fill:#f4f4f4" /><path
         d="m 348.821,161.249 c -1.088,0 -2.024,0.196 -2.698,0.87 -0.675,0.675 -0.87,1.61 -0.87,2.698 l 0,21.354 c 0,1.088 0.195,2.023 0.87,2.698 0.674,0.674 1.61,0.87 2.698,0.87 l 21.354,0 c 1.088,0 2.023,-0.196 2.698,-0.87 0.673,-0.675 0.87,-1.61 0.87,-2.698 l 0,-21.354 c 0,-1.088 -0.197,-2.024 -0.87,-2.698 -0.675,-0.674 -1.611,-0.87 -2.698,-0.87 l -21.354,0 z m 0,1.857 21.354,0 c 0.865,0 1.228,0.154 1.393,0.318 0.164,0.164 0.319,0.526 0.319,1.393 l 0,21.354 c 0,0.866 -0.155,1.228 -0.319,1.393 -0.165,0.164 -0.527,0.319 -1.393,0.319 l -21.354,0 c -0.867,0 -1.229,-0.155 -1.393,-0.319 -0.165,-0.165 -0.319,-0.526 -0.319,-1.393 l 0,-21.354 c 0,-0.866 0.154,-1.229 0.319,-1.393 0.165,-0.163 0.526,-0.318 1.393,-0.318 z"
         id="path75"
         inkscape:connector-curvature="0"
         style="fill:#f4f4f4" /><path
         d="m 376.562,161.249 c -1.088,0 -2.053,0.196 -2.727,0.87 -0.675,0.675 -0.871,1.61 -0.871,2.698 l 0,21.354 c 0,1.088 0.196,2.023 0.871,2.698 0.674,0.674 1.639,0.87 2.727,0.87 l 21.325,0 c 1.088,0 2.053,-0.196 2.727,-0.87 0.674,-0.675 0.842,-1.61 0.842,-2.698 l 0,-21.354 c 0,-1.088 -0.168,-2.024 -0.842,-2.698 -0.674,-0.674 -1.639,-0.87 -2.727,-0.87 l -21.325,0 z m 0,1.857 21.325,0 c 0.865,0 1.229,0.154 1.393,0.318 0.164,0.164 0.319,0.526 0.319,1.393 l 0,21.354 c 0,0.866 -0.155,1.228 -0.319,1.393 -0.164,0.164 -0.527,0.319 -1.393,0.319 l -21.325,0 c -0.866,0 -1.257,-0.155 -1.421,-0.319 -0.164,-0.165 -0.319,-0.526 -0.319,-1.393 l 0,-21.354 c 0,-0.866 0.155,-1.229 0.319,-1.393 0.164,-0.164 0.554,-0.318 1.421,-0.318 z"
         id="path77"
         inkscape:connector-curvature="0"
         style="fill:#f4f4f4" /><path
         d="m 404.266,161.249 c -1.088,0 -2.054,0.196 -2.728,0.87 -0.674,0.675 -0.87,1.61 -0.87,2.698 l 0,21.354 c 0,1.088 0.196,2.023 0.87,2.698 0.674,0.674 1.64,0.87 2.728,0.87 l 21.324,0 c 1.088,0 2.053,-0.196 2.728,-0.87 0.674,-0.675 0.87,-1.61 0.87,-2.698 l 0,-21.354 c 0,-1.088 -0.196,-2.024 -0.87,-2.698 -0.675,-0.674 -1.64,-0.87 -2.728,-0.87 l -21.324,0 z m 0,1.857 21.324,0 c 0.866,0 1.258,0.154 1.422,0.318 0.164,0.164 0.319,0.526 0.319,1.393 l 0,21.354 c 0,0.866 -0.155,1.228 -0.319,1.393 -0.164,0.164 -0.556,0.319 -1.422,0.319 l -21.324,0 c -0.867,0 -1.258,-0.155 -1.422,-0.319 -0.164,-0.165 -0.319,-0.526 -0.319,-1.393 l 0,-21.354 c 0,-0.866 0.155,-1.229 0.319,-1.393 0.164,-0.164 0.554,-0.318 1.422,-0.318 z"
         id="path79"
         inkscape:connector-curvature="0"
         style="fill:#f4f4f4" /><path
         d="m 431.97,161.249 c -1.089,0 -2.054,0.196 -2.728,0.87 -0.675,0.675 -0.842,1.61 -0.842,2.698 l 0,21.354 c 0,1.088 0.167,2.023 0.842,2.698 0.674,0.674 1.639,0.87 2.728,0.87 l 21.324,0 c 1.088,0 2.053,-0.196 2.727,-0.87 0.674,-0.675 0.871,-1.61 0.871,-2.698 l 0,-21.354 c 0,-1.088 -0.197,-2.024 -0.871,-2.698 -0.674,-0.674 -1.639,-0.87 -2.727,-0.87 l -21.324,0 z m 0,1.857 21.324,0 c 0.865,0 1.258,0.154 1.422,0.318 0.164,0.164 0.318,0.526 0.318,1.393 l 0,21.354 c 0,0.866 -0.154,1.228 -0.318,1.393 -0.164,0.164 -0.557,0.319 -1.422,0.319 l -21.324,0 c -0.867,0 -1.229,-0.155 -1.393,-0.319 -0.166,-0.165 -0.319,-0.526 -0.319,-1.393 l 0,-21.354 c 0,-0.866 0.153,-1.229 0.319,-1.393 0.164,-0.163 0.526,-0.318 1.393,-0.318 z"
         id="path81"
         inkscape:connector-curvature="0"
         style="fill:#f4f4f4" /><path
         d="m 459.682,161.249 c -1.088,0 -2.023,0.196 -2.698,0.87 -0.674,0.675 -0.87,1.61 -0.87,2.698 l 0,21.354 c 0,1.088 0.196,2.023 0.87,2.698 0.675,0.674 1.61,0.87 2.698,0.87 l 21.354,0 c 1.088,0 2.024,-0.196 2.698,-0.87 0.674,-0.675 0.871,-1.61 0.871,-2.698 l 0,-21.354 c 0,-1.088 -0.197,-2.024 -0.871,-2.698 -0.674,-0.674 -1.61,-0.87 -2.698,-0.87 l -21.354,0 z m 0,1.857 21.354,0 c 0.866,0 1.229,0.154 1.393,0.318 0.164,0.164 0.319,0.526 0.319,1.393 l 0,21.354 c 0,0.866 -0.155,1.228 -0.319,1.393 -0.164,0.164 -0.526,0.319 -1.393,0.319 l -21.354,0 c -0.866,0 -1.229,-0.155 -1.393,-0.319 -0.164,-0.165 -0.319,-0.526 -0.319,-1.393 l 0,-21.354 c 0,-0.866 0.155,-1.229 0.319,-1.393 0.164,-0.164 0.526,-0.318 1.393,-0.318 z"
         id="path83"
         inkscape:connector-curvature="0"
         style="fill:#f4f4f4" /><path
         d="m 127.136,188.982 c -1.088,0 -2.053,0.167 -2.728,0.842 -0.674,0.674 -0.87,1.638 -0.87,2.728 l 0,21.324 c 0,1.088 0.196,2.053 0.87,2.727 0.675,0.674 1.64,0.871 2.728,0.871 l 37.833,0 c 1.088,0 2.053,-0.197 2.728,-0.871 0.674,-0.674 0.87,-1.639 0.87,-2.727 l 0,-21.324 c 0,-1.09 -0.196,-2.054 -0.87,-2.728 -0.675,-0.675 -1.639,-0.842 -2.728,-0.842 l -37.833,0 z m 0,1.858 37.833,0 c 0.867,0 1.258,0.154 1.422,0.318 0.164,0.165 0.319,0.526 0.319,1.394 l 0,21.324 c 0,0.866 -0.155,1.257 -0.319,1.422 -0.164,0.164 -0.555,0.318 -1.422,0.318 l -37.833,0 c -0.866,0 -1.258,-0.154 -1.422,-0.318 -0.164,-0.165 -0.319,-0.556 -0.319,-1.422 l 0,-21.324 c 0,-0.867 0.155,-1.229 0.319,-1.394 0.164,-0.164 0.556,-0.318 1.422,-0.318 z"
         id="path85"
         inkscape:connector-curvature="0"
         style="fill:#f4f4f4" /><path
         d="m 171.356,188.982 c -1.088,0 -2.053,0.167 -2.728,0.842 -0.674,0.674 -0.841,1.638 -0.841,2.728 l 0,21.324 c 0,1.088 0.167,2.053 0.841,2.727 0.675,0.674 1.639,0.871 2.728,0.871 l 21.353,0 c 1.088,0 2.024,-0.197 2.698,-0.871 0.674,-0.674 0.871,-1.639 0.871,-2.727 l 0,-21.324 c 0,-1.09 -0.196,-2.054 -0.871,-2.728 -0.674,-0.675 -1.61,-0.842 -2.698,-0.842 l -21.353,0 z m 0,1.858 21.353,0 c 0.867,0 1.229,0.154 1.393,0.318 0.164,0.165 0.319,0.526 0.319,1.394 l 0,21.324 c 0,0.866 -0.155,1.257 -0.319,1.422 -0.165,0.164 -0.526,0.318 -1.393,0.318 l -21.353,0 c -0.867,0 -1.229,-0.154 -1.393,-0.318 -0.164,-0.165 -0.319,-0.556 -0.319,-1.422 l 0,-21.324 c 0,-0.867 0.155,-1.229 0.319,-1.394 0.164,-0.164 0.526,-0.318 1.393,-0.318 z"
         id="path87"
         inkscape:connector-curvature="0"
         style="fill:#f4f4f4" /><path
         d="m 127.229,216.491 c -1.088,0 -2.053,0.196 -2.727,0.871 -0.674,0.673 -0.871,1.639 -0.871,2.727 l 0,21.324 c 0,1.088 0.196,2.053 0.871,2.728 0.674,0.674 1.639,0.87 2.727,0.87 l 21.324,0 c 1.089,0 2.053,-0.196 2.728,-0.87 0.674,-0.675 0.841,-1.64 0.841,-2.728 l 0,-21.324 c 0,-1.088 -0.167,-2.054 -0.841,-2.727 -0.674,-0.675 -1.639,-0.871 -2.728,-0.871 l -21.324,0 z m 0,1.858 21.324,0 c 0.867,0 1.229,0.153 1.393,0.318 0.165,0.164 0.319,0.556 0.319,1.422 l 0,21.324 c 0,0.866 -0.154,1.257 -0.319,1.422 -0.165,0.164 -0.526,0.319 -1.393,0.319 l -21.324,0 c -0.866,0 -1.257,-0.155 -1.421,-0.319 -0.167,-0.157 -0.325,-0.558 -0.325,-1.421 l 0,-21.324 c 0,-0.866 0.155,-1.258 0.319,-1.422 0.165,-0.164 0.556,-0.318 1.422,-0.318 l 0.005,-0.001 z"
         id="path89"
         inkscape:connector-curvature="0"
         style="fill:#f4f4f4" /><path
         d="m 196.125,216.491 c -1.088,0 -2.023,0.196 -2.698,0.871 -0.674,0.673 -0.871,1.639 -0.871,2.727 l 0,21.324 c 0,1.088 0.196,2.053 0.871,2.728 0.675,0.674 1.611,0.87 2.698,0.87 l 216.003,0 c 1.088,0 2.053,-0.196 2.728,-0.87 0.674,-0.675 0.87,-1.64 0.87,-2.728 l 0,-21.324 c 0,-1.088 -0.196,-2.054 -0.87,-2.727 -0.675,-0.675 -1.64,-0.871 -2.728,-0.871 l -216.003,0 z m 0,1.858 216.003,0 c 0.866,0 1.258,0.153 1.422,0.318 0.164,0.164 0.319,0.556 0.319,1.422 l 0,21.324 c 0,0.866 -0.155,1.257 -0.319,1.422 -0.164,0.164 -0.556,0.319 -1.422,0.319 l -216.003,0 c -0.866,0 -1.228,-0.155 -1.393,-0.319 -0.164,-0.165 -0.319,-0.556 -0.319,-1.422 l 0,-21.324 c 0,-0.866 0.155,-1.258 0.319,-1.422 0.165,-0.165 0.527,-0.318 1.393,-0.318 z"
         id="path91"
         inkscape:connector-curvature="0"
         style="fill:#f4f4f4" /><path
         d="m 199.06,188.982 c -1.088,0 -2.024,0.167 -2.698,0.842 -0.674,0.674 -0.871,1.638 -0.871,2.728 l 0,21.324 c 0,1.088 0.196,2.053 0.871,2.727 0.674,0.675 1.61,0.871 2.698,0.871 l 21.354,0 c 1.088,0 2.023,-0.197 2.698,-0.871 0.674,-0.674 0.87,-1.639 0.87,-2.727 l 0,-21.324 c 0,-1.09 -0.196,-2.054 -0.87,-2.728 -0.675,-0.675 -1.61,-0.842 -2.698,-0.842 l -21.354,0 z m 0,1.858 21.354,0 c 0.866,0 1.229,0.154 1.393,0.318 0.164,0.165 0.319,0.526 0.319,1.394 l 0,21.324 c 0,0.866 -0.155,1.257 -0.319,1.422 -0.164,0.164 -0.526,0.318 -1.393,0.318 l -21.354,0 c -0.867,0 -1.229,-0.154 -1.393,-0.318 -0.164,-0.165 -0.319,-0.556 -0.319,-1.422 l 0,-21.324 c 0,-0.868 0.155,-1.229 0.319,-1.394 0.164,-0.165 0.526,-0.318 1.393,-0.318 z"
         id="path93"
         inkscape:connector-curvature="0"
         style="fill:#f4f4f4" /><path
         d="m 226.791,188.982 c -1.088,0 -2.053,0.167 -2.727,0.842 -0.674,0.674 -0.871,1.638 -0.871,2.728 l 0,21.324 c 0,1.088 0.196,2.053 0.871,2.727 0.675,0.674 1.639,0.871 2.727,0.871 l 21.325,0 c 1.087,0 2.053,-0.197 2.727,-0.871 0.675,-0.674 0.841,-1.639 0.841,-2.727 l 0,-21.324 c 0,-1.09 -0.167,-2.054 -0.841,-2.728 -0.674,-0.675 -1.64,-0.842 -2.727,-0.842 l -21.325,0 z m 0,1.858 21.325,0 c 0.866,0 1.229,0.154 1.393,0.318 0.164,0.165 0.319,0.526 0.319,1.394 l 0,21.324 c 0,0.866 -0.155,1.257 -0.319,1.422 -0.164,0.164 -0.526,0.318 -1.393,0.318 l -21.325,0 c -0.867,0 -1.257,-0.154 -1.421,-0.318 -0.164,-0.165 -0.319,-0.556 -0.319,-1.422 l 0,-21.324 c 0,-0.867 0.155,-1.229 0.319,-1.394 0.164,-0.164 0.554,-0.318 1.421,-0.318 z"
         id="path95"
         inkscape:connector-curvature="0"
         style="fill:#f4f4f4" /><path
         d="m 254.504,188.982 c -1.088,0 -2.053,0.167 -2.727,0.842 -0.675,0.674 -0.871,1.638 -0.871,2.728 l 0,21.324 c 0,1.088 0.196,2.053 0.871,2.727 0.674,0.675 1.639,0.871 2.727,0.871 l 21.324,0 c 1.089,0 2.054,-0.196 2.728,-0.871 0.675,-0.674 0.87,-1.639 0.87,-2.727 l 0,-21.324 c 0,-1.09 -0.195,-2.054 -0.87,-2.728 -0.674,-0.675 -1.639,-0.842 -2.728,-0.842 l -21.324,0 z m 0,1.858 21.324,0 c 0.867,0 1.258,0.154 1.422,0.318 0.164,0.164 0.319,0.525 0.319,1.394 l 0,21.324 c 0,0.866 -0.155,1.257 -0.319,1.422 -0.164,0.164 -0.555,0.318 -1.422,0.318 l -21.324,0 c -0.867,0 -1.257,-0.154 -1.422,-0.318 -0.164,-0.165 -0.319,-0.556 -0.319,-1.422 l 0,-21.324 c 0,-0.868 0.155,-1.229 0.319,-1.394 0.165,-0.164 0.555,-0.318 1.422,-0.318 z"
         id="path97"
         inkscape:connector-curvature="0"
         style="fill:#f4f4f4" /><path
         d="m 282.208,188.982 c -1.089,0 -2.053,0.167 -2.728,0.842 -0.675,0.674 -0.842,1.638 -0.842,2.728 l 0,21.324 c 0,1.088 0.167,2.053 0.842,2.727 0.675,0.674 1.639,0.871 2.728,0.871 l 21.324,0 c 1.088,0 2.054,-0.197 2.727,-0.871 0.675,-0.674 0.871,-1.639 0.871,-2.727 l 0,-21.324 c 0,-1.09 -0.196,-2.054 -0.871,-2.728 -0.673,-0.675 -1.639,-0.842 -2.727,-0.842 l -21.324,0 z m 0,1.858 21.324,0 c 0.866,0 1.258,0.154 1.422,0.318 0.164,0.165 0.318,0.526 0.318,1.394 l 0,21.324 c 0,0.866 -0.154,1.257 -0.318,1.422 -0.164,0.164 -0.556,0.318 -1.422,0.318 l -21.324,0 c -0.867,0 -1.229,-0.154 -1.393,-0.318 -0.164,-0.165 -0.319,-0.556 -0.319,-1.422 l 0,-21.324 c 0,-0.867 0.155,-1.229 0.319,-1.394 0.164,-0.164 0.526,-0.318 1.393,-0.318 z"
         id="path99"
         inkscape:connector-curvature="0"
         style="fill:#f4f4f4" /><path
         d="m 309.92,188.982 c -1.087,0 -2.023,0.167 -2.697,0.842 -0.674,0.674 -0.87,1.638 -0.87,2.728 l 0,21.324 c 0,1.088 0.196,2.053 0.87,2.727 0.674,0.674 1.61,0.871 2.697,0.871 l 21.354,0 c 1.088,0 2.024,-0.197 2.698,-0.871 0.675,-0.674 0.871,-1.639 0.871,-2.727 l 0,-21.324 c 0,-1.09 -0.196,-2.054 -0.871,-2.728 -0.674,-0.675 -1.61,-0.842 -2.698,-0.842 l -21.354,0 z m 0,1.858 21.354,0 c 0.867,0 1.229,0.154 1.393,0.318 0.164,0.165 0.319,0.526 0.319,1.394 l 0,21.324 c 0,0.866 -0.155,1.257 -0.319,1.422 -0.164,0.164 -0.525,0.318 -1.393,0.318 l -21.354,0 c -0.865,0 -1.229,-0.154 -1.393,-0.318 -0.164,-0.165 -0.318,-0.556 -0.318,-1.422 l 0,-21.324 c 0,-0.867 0.154,-1.229 0.318,-1.394 0.164,-0.164 0.528,-0.318 1.393,-0.318 z"
         id="path101"
         inkscape:connector-curvature="0"
         style="fill:#f4f4f4" /><path
         d="m 337.624,188.982 c -1.088,0 -2.023,0.167 -2.698,0.842 -0.675,0.674 -0.87,1.638 -0.87,2.728 l 0,21.324 c 0,1.088 0.195,2.053 0.87,2.727 0.675,0.674 1.61,0.871 2.698,0.871 l 21.354,0 c 1.088,0 2.023,-0.197 2.698,-0.871 0.675,-0.674 0.87,-1.639 0.87,-2.727 l 0,-21.324 c 0,-1.09 -0.195,-2.054 -0.87,-2.728 -0.675,-0.675 -1.61,-0.842 -2.698,-0.842 l -21.354,0 z m 0,1.858 21.354,0 c 0.867,0 1.229,0.154 1.393,0.318 0.164,0.165 0.319,0.526 0.319,1.394 l 0,21.324 c 0,0.866 -0.155,1.257 -0.319,1.422 -0.164,0.164 -0.525,0.318 -1.393,0.318 l -21.354,0 c -0.866,0 -1.229,-0.154 -1.393,-0.318 -0.164,-0.165 -0.319,-0.556 -0.319,-1.422 l 0,-21.324 c 0,-0.867 0.155,-1.229 0.319,-1.394 0.165,-0.164 0.527,-0.318 1.393,-0.318 z"
         id="path103"
         inkscape:connector-curvature="0"
         style="fill:#f4f4f4" /><path
         d="m 365.364,188.982 c -1.088,0 -2.052,0.167 -2.727,0.842 -0.674,0.674 -0.87,1.638 -0.87,2.728 l 0,21.324 c 0,1.088 0.196,2.053 0.87,2.727 0.675,0.675 1.639,0.871 2.727,0.871 l 21.325,0 c 1.088,0 2.054,-0.197 2.728,-0.871 0.674,-0.674 0.87,-1.639 0.87,-2.727 l 0,-21.324 c 0,-1.09 -0.196,-2.054 -0.87,-2.728 -0.674,-0.675 -1.64,-0.842 -2.728,-0.842 l -21.325,0 z m 0,1.858 21.325,0 c 0.866,0 1.229,0.154 1.393,0.318 0.164,0.165 0.348,0.526 0.348,1.394 l 0,21.324 c 0,0.866 -0.184,1.257 -0.348,1.422 -0.164,0.164 -0.526,0.318 -1.393,0.318 l -21.325,0 c -0.866,0 -1.257,-0.154 -1.421,-0.318 -0.158,-0.158 -0.315,-0.548 -0.315,-1.421 l 0,-21.325 c 0,-0.866 0.154,-1.229 0.318,-1.393 0.164,-0.164 0.556,-0.318 1.422,-0.318 l -0.004,-0.001 z"
         id="path105"
         inkscape:connector-curvature="0"
         style="fill:#f4f4f4" /><path
         d="m 393.068,188.982 c -1.087,0 -2.053,0.167 -2.728,0.842 -0.674,0.674 -0.87,1.638 -0.87,2.728 l 0,21.324 c 0,1.088 0.196,2.053 0.87,2.727 0.675,0.674 1.641,0.871 2.728,0.871 l 21.324,0 c 1.088,0 2.054,-0.197 2.728,-0.871 0.675,-0.674 0.87,-1.639 0.87,-2.727 l 0,-21.324 c 0,-1.09 -0.195,-2.054 -0.87,-2.728 -0.674,-0.675 -1.64,-0.842 -2.728,-0.842 l -21.324,0 z m 0,1.858 21.324,0 c 0.867,0 1.258,0.154 1.422,0.318 0.164,0.165 0.319,0.526 0.319,1.394 l 0,21.324 c 0,0.866 -0.155,1.257 -0.319,1.422 -0.164,0.164 -0.555,0.318 -1.422,0.318 l -21.324,0 c -0.866,0 -1.229,-0.154 -1.393,-0.318 -0.164,-0.165 -0.349,-0.556 -0.349,-1.422 l 0,-21.324 c 0,-0.867 0.185,-1.229 0.349,-1.394 0.165,-0.164 0.527,-0.318 1.393,-0.318 z"
         id="path107"
         inkscape:connector-curvature="0"
         style="fill:#f4f4f4" /><path
         d="m 420.772,188.982 c -1.088,0 -2.053,0.167 -2.728,0.842 -0.675,0.674 -0.842,1.638 -0.842,2.728 l 0,21.324 c 0,1.088 0.167,2.053 0.842,2.727 0.675,0.674 1.64,0.871 2.728,0.871 l 21.324,0 c 1.088,0 2.054,-0.197 2.727,-0.871 0.675,-0.674 0.871,-1.639 0.871,-2.727 l 0,-21.324 c 0,-1.09 -0.196,-2.054 -0.871,-2.728 -0.673,-0.675 -1.639,-0.842 -2.727,-0.842 l -21.324,0 z m 0,1.858 21.324,0 c 0.867,0 1.258,0.154 1.422,0.318 0.164,0.165 0.318,0.526 0.318,1.394 l 0,21.324 c 0,0.866 -0.154,1.257 -0.318,1.422 -0.164,0.164 -0.555,0.318 -1.422,0.318 l -21.324,0 c -0.866,0 -1.229,-0.154 -1.393,-0.318 -0.164,-0.165 -0.319,-0.556 -0.319,-1.422 l 0,-21.324 c 0,-0.867 0.155,-1.229 0.319,-1.394 0.165,-0.164 0.527,-0.318 1.393,-0.318 z"
         id="path109"
         inkscape:connector-curvature="0"
         style="fill:#f4f4f4" /><path
         d="m 448.485,188.982 c -1.088,0 -2.024,0.167 -2.697,0.842 -0.675,0.674 -0.871,1.638 -0.871,2.728 l 0,21.324 c 0,1.088 0.196,2.053 0.871,2.727 0.673,0.674 1.609,0.871 2.697,0.871 l 32.552,0 c 1.087,0 2.053,-0.197 2.728,-0.871 0.674,-0.674 0.841,-1.639 0.841,-2.727 l 0,-21.324 c 0,-1.09 -0.167,-2.054 -0.841,-2.728 -0.675,-0.675 -1.641,-0.842 -2.728,-0.842 l -32.552,0 z m 0,1.858 32.552,0 c 0.866,0 1.229,0.154 1.393,0.318 0.164,0.165 0.319,0.526 0.319,1.394 l 0,21.324 c 0,0.866 -0.155,1.257 -0.319,1.422 -0.164,0.164 -0.526,0.318 -1.393,0.318 l -32.552,0 c -0.866,0 -1.229,-0.154 -1.393,-0.318 -0.165,-0.165 -0.318,-0.556 -0.318,-1.422 l 0,-21.324 c 0,-0.867 0.153,-1.229 0.318,-1.394 0.165,-0.164 0.527,-0.318 1.393,-0.318 z"
         id="path111"
         inkscape:connector-curvature="0"
         style="fill:#f4f4f4" /></g></g></svg>