<?xml version="1.0" encoding="UTF-8" standalone="no"?>
<!-- Generator: Adobe Illustrator 13.0.0, SVG Export Plug-In . SVG Version: 6.00 Build 14948)  -->

<svg
   xmlns:dc="http://purl.org/dc/elements/1.1/"
   xmlns:cc="http://creativecommons.org/ns#"
   xmlns:rdf="http://www.w3.org/1999/02/22-rdf-syntax-ns#"
   xmlns:svg="http://www.w3.org/2000/svg"
   xmlns="http://www.w3.org/2000/svg"
   xmlns:sodipodi="http://sodipodi.sourceforge.net/DTD/sodipodi-0.dtd"
   xmlns:inkscape="http://www.inkscape.org/namespaces/inkscape"
   version="1.1"
   id="Layer_2"
   x="0px"
   y="0px"
   width="550"
   height="550"
   viewBox="0 0 549.99995 549.99999"
   enable-background="new 0 0 598.189 350.26"
   xml:space="preserve"
   inkscape:version="0.91 r13725"
   sodipodi:docname="controller_gg.svg"><metadata
     id="metadata3083"><rdf:RDF><cc:Work
         rdf:about=""><dc:format>image/svg+xml</dc:format><dc:type
           rdf:resource="http://purl.org/dc/dcmitype/StillImage" /><dc:title></dc:title></cc:Work></rdf:RDF></metadata><defs
     id="defs3081" /><sodipodi:namedview
     pagecolor="#ffffff"
     bordercolor="#666666"
     borderopacity="1"
     objecttolerance="10"
     gridtolerance="10"
     guidetolerance="10"
     inkscape:pageopacity="0"
     inkscape:pageshadow="2"
     inkscape:window-width="1920"
     inkscape:window-height="1001"
     id="namedview3079"
     showgrid="false"
     inkscape:zoom="1.0799262"
     inkscape:cx="248.77122"
     inkscape:cy="298.43665"
     inkscape:window-x="-9"
     inkscape:window-y="-9"
     inkscape:window-maximized="1"
     inkscape:current-layer="layer4"
     showguides="true"
     inkscape:guide-bbox="true" /><g
     inkscape:groupmode="layer"
     id="layer2"
     inkscape:label="Screen_Rect"
     style="display:none"
     transform="translate(0,199.73999)"
     sodipodi:insensitive="true"><path
       style="fill:#0000ff;stroke:#000000;stroke-width:1px;stroke-linecap:butt;stroke-linejoin:miter;stroke-opacity:1"
       d="M 5.0135033,547.22203 136.4109,114.39023 653.54628,-189.09358 406.482,260.92121 Z"
       id="path3021"
       inkscape:connector-curvature="0"
       transform="translate(-2e-5,-199.73999)"
       sodipodi:nodetypes="ccccc" /><rect
       style="opacity:0.60100002;fill:#d8201f;fill-opacity:1;stroke:#ff8080;stroke-width:2.45114732;stroke-linecap:round;stroke-linejoin:round;stroke-miterlimit:4;stroke-dasharray:none;stroke-opacity:1"
       id="rect4230"
       width="444.2457"
       height="9.9567661"
       x="145.95099"
       y="-211.30678" /></g><g
     inkscape:groupmode="layer"
     id="layer1"
     inkscape:label="Controller_Vorlage"
     style="display:none"
     sodipodi:insensitive="true"><g
       id="g4929"
       transform="translate(-0.929149,0.5695451)"><g
         transform="translate(0,199.73999)"
         style="display:none"
         inkscape:label="Layer2"
         id="layer2-9"><path
           sodipodi:nodetypes="ccccc"
           transform="translate(-2e-5,-199.73999)"
           inkscape:connector-curvature="0"
           id="path3021-0"
           d="M 5.0135033,547.22203 136.4109,114.39023 653.54628,-189.09358 406.482,260.92121 Z"
           style="fill:#ffffff;stroke:#000000;stroke-width:1px;stroke-linecap:butt;stroke-linejoin:miter;stroke-opacity:1" /></g><g
         inkscape:label="Layer"
         id="layer1-2"><g
           transform="matrix(0.55322035,-0.3970343,-0.34863416,0.85569517,173.63773,166.52161)"
           id="g3100"><path
             style="fill:#f4f4f4"
             inkscape:connector-curvature="0"
             id="path3"
             d="m 148.05,114.447 c -23.656,0 -42.861,19.204 -42.861,42.861 l 0,37.414 c 0,23.658 19.205,42.86 42.861,42.86 l 38.694,0 c 23.656,0 42.861,-19.202 42.861,-42.86 l 0,-37.414 c 0,-23.657 -19.205,-42.861 -42.861,-42.861 l -38.694,0 z m 0,1.905 38.694,0 c 22.627,0 40.956,18.328 40.956,40.956 l 0,37.414 c 0,22.629 -18.329,40.956 -40.956,40.956 l -38.694,0 c -22.628,0 -40.956,-18.327 -40.956,-40.956 l 0,-37.414 c 0,-22.629 18.328,-40.956 40.956,-40.956 z" /><path
             style="fill:#f4f4f4"
             inkscape:connector-curvature="0"
             id="path5"
             d="m 167.395,123.168 c -3.23,0 -5.863,2.633 -5.863,5.864 l 0,13.037 c 0,3.23 2.632,5.863 5.863,5.863 3.23,0 5.863,-2.633 5.863,-5.863 l 0,-13.037 c 0,-3.23 -2.633,-5.864 -5.863,-5.864 z m 0,1.906 c 2.201,0 3.958,1.758 3.958,3.958 l 0,13.037 c 0,2.2 -1.758,3.958 -3.958,3.958 -2.202,0 -3.958,-1.758 -3.958,-3.958 l 0,-13.037 c -0.001,-2.2 1.757,-3.958 3.958,-3.958 z" /><path
             style="fill:#f4f4f4"
             inkscape:connector-curvature="0"
             id="path7"
             d="m 120.425,170.135 c -3.23,0 -5.864,2.633 -5.864,5.864 0,3.231 2.632,5.894 5.864,5.894 l 13.037,0 c 3.229,0 5.864,-2.662 5.864,-5.894 0,-3.229 -2.633,-5.864 -5.864,-5.864 l -13.037,0 z m 0,1.905 13.037,0 c 2.201,0 3.959,1.759 3.959,3.959 0,2.201 -1.759,3.988 -3.959,3.988 l -13.037,0 c -2.198,-0.01 -3.955,-1.791 -3.955,-3.99 0,-2.201 1.758,-3.959 3.958,-3.959 l -0.003,0.002 z" /><path
             style="fill:#f4f4f4"
             inkscape:connector-curvature="0"
             id="path9"
             d="m 167.395,204.071 c -3.23,0 -5.863,2.663 -5.863,5.894 l 0,13.038 c 0,3.229 2.632,5.863 5.863,5.863 3.23,0 5.863,-2.633 5.863,-5.863 l 0,-13.038 c 0,-3.23 -2.633,-5.894 -5.863,-5.894 z m 0,1.906 c 2.201,0 3.958,1.789 3.958,3.988 l 0,13.038 c 0,2.2 -1.757,3.958 -3.958,3.958 -2.202,0 -3.958,-1.759 -3.958,-3.958 l 0,-13.038 c -0.001,-2.2 1.757,-3.988 3.958,-3.988 z" /><path
             style="fill:#f4f4f4"
             inkscape:connector-curvature="0"
             id="path11"
             d="m 201.321,170.135 c -3.229,0 -5.863,2.633 -5.863,5.864 0,3.231 2.633,5.894 5.863,5.894 l 13.067,0 c 3.229,0 5.863,-2.662 5.863,-5.894 0,-3.229 -2.633,-5.864 -5.863,-5.864 l -13.067,0 z m 0,1.905 13.067,0 c 2.2,0 3.958,1.76 3.958,3.959 0,2.201 -1.758,3.988 -3.958,3.988 l -13.067,0 c -2.2,0 -3.958,-1.788 -3.958,-3.988 0,-2.2 1.759,-3.959 3.958,-3.959 z" /><path
             style="fill:#f4f4f4"
             inkscape:connector-curvature="0"
             id="polygon13"
             d="m 133.878,141.176 -1.31,1.31 8.155,12.025 0.655,0.952 0.804,-0.803 3.869,-3.87 0.804,-0.804 -0.953,-0.655 -12.024,-8.155 z" /><path
             style="fill:#f4f4f4"
             inkscape:connector-curvature="0"
             id="polygon15"
             d="m 141.383,196.566 -0.654,0.952 -8.156,12.024 1.31,1.31 12.025,-8.155 0.953,-0.654 -0.804,-0.804 -3.87,-3.869 -0.804,-0.804 z" /><path
             style="fill:#f4f4f4"
             inkscape:connector-curvature="0"
             id="polygon17"
             d="m 193.435,196.566 -0.804,0.804 -3.869,3.869 -0.833,0.804 0.953,0.654 12.025,8.155 1.339,-1.31 -8.156,-12.024 -0.655,-0.952 0,0 z" /><path
             style="fill:#f4f4f4"
             inkscape:connector-curvature="0"
             id="polygon19"
             d="m 200.912,141.176 -12.025,8.155 -0.953,0.655 0.833,0.804 3.87,3.87 0.804,0.803 0.655,-0.952 8.155,-12.025 -1.339,-1.31 z" /><path
             style="fill:#f4f4f4"
             inkscape:connector-curvature="0"
             id="path21"
             d="m 146.354,104.833 c -27.67,0 -50.123,22.453 -50.123,50.124 l 0,42.117 c 0,27.671 22.453,50.123 50.123,50.123 l 42.117,0 c 27.671,0 50.124,-22.452 50.124,-50.123 l 0,-42.117 c 0,-27.67 -22.452,-50.124 -50.124,-50.124 l -42.117,0 z m 0,1.906 42.117,0 c 26.644,0 48.219,21.577 48.219,48.218 l 0,42.117 c 0,26.644 -21.577,48.218 -48.219,48.218 l -42.117,0 c -26.642,0 -48.218,-21.574 -48.218,-48.218 l 0,-42.117 c 0,-26.642 21.577,-48.218 48.218,-48.218 z" /><path
             style="fill:#f4f4f4"
             inkscape:connector-curvature="0"
             id="polygon23"
             d="m 69.499,75.694 0,0.952 0,202.961 0,0.952 0.953,0 196.122,0 0.952,0 0,-0.952 0,-26.401 289.521,0 0.952,0 0,-0.952 0,-113.458 0,-0.953 -0.952,0 -289.522,0 0,-61.196 0,-0.952 -0.952,0 -196.122,0 -0.952,-10e-4 0,0 z m 1.904,1.905 194.217,0 0,61.196 0,0.953 0.953,0 0.714,0 288.807,0 0,111.552 -289.226,0 -0.297,0 -0.953,0 0,0.953 0,26.4 -194.217,0 0,-201.055 0.002,0.001 z" /><path
             style="fill:#f4f4f4"
             inkscape:connector-curvature="0"
             id="circle25"
             d="m 400.692,169.126 c -19.762,0 -35.777,16.046 -35.777,35.807 0,19.761 16.018,35.807 35.777,35.807 19.759,0 35.807,-16.046 35.807,-35.807 0,-19.761 -16.047,-35.807 -35.807,-35.807 l 0,0 z m 0,1.905 c 18.73,0 33.901,15.17 33.901,33.902 0,18.732 -15.171,33.902 -33.901,33.902 -18.731,0 -33.872,-15.171 -33.872,-33.902 0,-18.731 15.141,-33.902 33.872,-33.902 l 0,0 z" /><path
             style="fill:#f4f4f4"
             inkscape:connector-curvature="0"
             id="circle27"
             d="m 400.692,177.669 c -15.039,0 -27.234,12.227 -27.234,27.265 0,15.038 12.195,27.234 27.234,27.234 15.036,0 27.264,-12.196 27.264,-27.234 0,-15.038 -12.227,-27.265 -27.264,-27.265 z m 0,1.905 c 14.008,0 25.359,11.351 25.359,25.359 0,14.008 -11.352,25.33 -25.359,25.33 -14.01,0 -25.33,-11.321 -25.33,-25.33 0,-14.009 11.321,-25.359 25.33,-25.359 z" /><path
             style="fill:#f4f4f4"
             inkscape:connector-curvature="0"
             id="circle29"
             d="m 489.919,169.126 c -19.762,0 -35.807,16.046 -35.807,35.807 0,19.761 16.045,35.807 35.807,35.807 19.76,0 35.807,-16.046 35.807,-35.807 0,-19.761 -16.047,-35.807 -35.807,-35.807 l 0,0 z m 0,1.905 c 18.73,0 33.901,15.17 33.901,33.902 0,18.732 -15.171,33.902 -33.901,33.902 -18.731,0 -33.902,-15.171 -33.902,-33.902 0,-18.731 15.171,-33.902 33.902,-33.902 l 0,0 z" /><path
             style="fill:#f4f4f4"
             inkscape:connector-curvature="0"
             id="circle31"
             d="m 489.919,177.669 c -15.039,0 -27.234,12.227 -27.234,27.265 0,15.038 12.195,27.234 27.234,27.234 15.036,0 27.234,-12.196 27.234,-27.234 0,-15.038 -12.196,-27.265 -27.234,-27.265 z m 0,1.905 c 14.008,0 25.329,11.351 25.329,25.359 0,14.008 -11.321,25.33 -25.329,25.33 -14.01,0 -25.33,-11.321 -25.33,-25.33 0,-14.009 11.32,-25.359 25.33,-25.359 z" /><path
             style="fill:#f4f4f4"
             inkscape:connector-curvature="0"
             id="path33"
             d="m 39.406,68.432 c -4.766,0 -8.662,3.896 -8.662,8.662 l 0,203.084 c 0,4.766 3.897,8.661 8.662,8.661 l 518.646,0 c 4.429,0 7.956,-3.411 8.453,-7.709 l 0.179,0 0,-0.952 0,-203.085 c 0,-4.762 -3.868,-8.658 -8.64,-8.658 l -518.645,0 0.007,-0.003 z m 0,1.904 518.646,0 c 3.737,0 6.727,3.021 6.727,6.757 l 0,202.131 0,0.953 c 0,3.736 -2.989,6.756 -6.727,6.756 l -518.646,0 c -3.732,0.01 -6.753,-3.019 -6.753,-6.753 l 0,-203.083 c 0,-3.736 3.02,-6.756 6.756,-6.756 l -0.003,-0.005 z" /><path
             style="fill:#f4f4f4"
             inkscape:connector-curvature="0"
             id="rect35"
             d="m 359.021,163.559 0,0.953 0,81.465 0,0.952 0.953,0 81.465,0 0.953,0 0,-0.952 0,-81.465 0,-0.953 -0.953,0 -81.465,0 -0.953,0 z m 1.906,1.905 79.561,0 0,79.56 -79.561,0 0,-79.56 z" /><path
             style="fill:#f4f4f4"
             inkscape:connector-curvature="0"
             id="rect37"
             d="m 448.248,163.559 0,0.953 0,81.465 0,0.952 0.953,0 81.436,0 0.952,0 0,-0.952 0,-81.465 0,-0.953 -0.952,0 -81.436,0 -0.953,0 z m 1.905,1.905 79.531,0 0,79.56 -79.531,0 0,-79.56 z" /><path
             style="fill:#f4f4f4"
             inkscape:connector-curvature="0"
             id="polyline39"
             d="m 83.934,94.177 0,2.292 0,159.061 0,2.322 1.607,-1.638 25.33,-25.299 -1.369,-1.369 -23.663,23.692 0,-154.45 23.663,23.658 1.369,-1.34 -25.33,-25.299 -1.607,-1.637 0,0.007 z" /><path
             style="fill:#f4f4f4"
             inkscape:connector-curvature="0"
             id="polyline41"
             d="m 222.305,232.551 -1.37,1.339 23.693,23.692 -154.452,0 23.574,-23.573 -1.369,-1.339 -25.181,25.182 -1.637,1.637 2.292,0 159.062,0 2.292,0 -1.607,-1.637 -25.299,-25.3 0.002,-0.001 z" /><path
             style="fill:#f4f4f4"
             inkscape:connector-curvature="0"
             id="polyline43"
             d="m 250.878,94.177 -1.637,1.637 -25.211,25.182 1.369,1.369 23.574,-23.603 0,154.509 -23.633,-23.663 -1.339,1.34 25.24,25.27 1.637,1.638 0,-2.322 0,-159.063 0,-2.292 0,-0.002 z" /><path
             style="fill:#f4f4f4"
             inkscape:connector-curvature="0"
             id="polyline45"
             d="m 85.57,92.54 1.638,1.608 25.21,25.24 1.339,-1.34 -23.572,-23.602 154.452,0 -23.669,23.662 1.333,1.339 25.307,-25.3 1.607,-1.607 -2.292,0 -159.062,0 -2.291,0 0,0 z" /><path
             style="fill:#f4f4f4"
             inkscape:connector-curvature="0"
             id="line47"
             d="m 58.961,69.533 0,218.057 1.905,0 0,-218.057 -1.905,0 z" /><path
             style="fill:#f4f4f4"
             inkscape:connector-curvature="0"
             id="rect49"
             d="m 359.021,145.819 0,0.953 0,13.244 0,0.953 0.953,0 81.465,0 0.953,0 0,-0.953 0,-13.244 0,-0.953 -0.953,0 -81.465,0 -0.953,0 z m 1.906,1.905 79.561,0 0,11.339 -79.561,0 0,-11.339 z" /><path
             style="fill:#f4f4f4"
             inkscape:connector-curvature="0"
             id="rect51"
             d="m 448.248,145.819 0,0.953 0,13.244 0,0.953 0.953,0 81.436,0 0.952,0 0,-0.953 0,-13.244 0,-0.953 -0.952,0 -81.436,0 -0.953,0 z m 1.905,1.905 79.531,0 0,11.339 -79.531,0 0,-11.339 z" /><path
             style="fill:#f4f4f4"
             inkscape:connector-curvature="0"
             id="path53"
             d="m 276.804,73.134 c -0.987,0 -1.815,0.828 -1.815,1.816 l 0,53.01 c 0,0.988 0.829,1.815 1.815,1.815 l 282.855,0 c 0.985,0 1.785,-0.831 1.785,-1.815 l 0,-50.033 c 0,-2.641 -2.152,-4.792 -4.792,-4.792 l -279.844,0 -0.004,0 z m 0.09,1.906 279.756,0 c 1.613,0 2.888,1.275 2.888,2.887 l 0,49.945 -282.643,0 0,-52.832 -10e-4,0 z" /><path
             style="fill:#f4f4f4"
             inkscape:connector-curvature="0"
             id="path55"
             d="m 276.804,260.41 c -0.987,0 -1.815,0.829 -1.815,1.815 l 0,20.091 c 0,0.987 0.829,1.816 1.815,1.816 l 279.844,0 c 2.64,0 4.792,-2.183 4.792,-4.822 l 0,-17.085 c 0,-0.985 -0.8,-1.815 -1.785,-1.815 l -282.855,0 0.004,0 z m 0.09,1.905 282.645,0 0,16.995 c 0,1.611 -1.276,2.917 -2.888,2.917 l -279.758,0 0.001,-19.912 0,0 z" /><path
             style="fill:#f4f4f4"
             inkscape:connector-curvature="0"
             id="line57"
             d="m 274.461,129.271 -6.28,6.28 1.369,1.339 6.251,-6.25 -1.34,-1.369 z" /><path
             style="fill:#f4f4f4"
             inkscape:connector-curvature="0"
             id="line59"
             d="m 269.546,253.866 -1.369,1.34 6.281,6.28 1.339,-1.369 -6.251,-6.251 z" /></g></g></g></g><g
     inkscape:groupmode="layer"
     id="layer4"
     inkscape:label="Controller"><g
       id="g11911"
       transform="matrix(0.37574753,-0.25697164,-0.24005523,0.65743114,216.65318,154.5497)"><g
         id="g3"><path
           d="m 82.189,26.116 0,83.276 -3.15,0 0,1.708 4.005,0 0.854,0 0,-0.854 0,-84.13 -1.709,0 z"
           id="polyline5"
           inkscape:connector-curvature="0"
           style="fill:#f4f4f4" /><path
           d="m 47.081,25.262 0,0.854 0,84.129 0,0.854 0.854,0 27.768,0 0.854,0 0,-0.854 0,-84.129 0,-0.854 -0.854,0 -27.768,0 -0.854,0 z m 1.708,1.709 26.058,0 0,82.42 -26.058,0 0,-82.42 z"
           id="rect7"
           inkscape:connector-curvature="0"
           style="fill:#f4f4f4" /><path
           d="m 269.116,25.262 0,0.854 0,84.129 0,0.854 0.854,0 280.184,0 0.854,0 0,-0.854 0,-84.129 0,-0.854 -0.854,0 -280.184,0 -0.854,0 z m 1.708,1.709 278.476,0 0,82.42 -278.476,0 0,-82.42 z"
           id="rect9"
           inkscape:connector-curvature="0"
           style="fill:#f4f4f4" /><path
           d="m 89.532,26.116 0,83.276 -3.15,0 0,1.708 4.004,0 0.854,0 0,-0.854 0,-84.13 -1.708,0 z"
           id="polyline11"
           inkscape:connector-curvature="0"
           style="fill:#f4f4f4" /><path
           d="m 96.874,26.116 0,83.276 -3.15,0 0,1.708 4.005,0 0.854,0 0,-0.854 0,-84.13 -1.709,0 z"
           id="polyline13"
           inkscape:connector-curvature="0"
           style="fill:#f4f4f4" /><path
           d="m 104.243,26.116 0,83.276 -3.177,0 0,1.708 4.032,0 0.854,0 0,-0.854 0,-84.13 -1.709,0 z"
           id="polyline15"
           inkscape:connector-curvature="0"
           style="fill:#f4f4f4" /><path
           d="m 111.585,26.116 0,83.276 -3.177,0 0,1.708 4.032,0 0.854,0 0,-0.854 0,-84.13 -1.709,0 z"
           id="polyline17"
           inkscape:connector-curvature="0"
           style="fill:#f4f4f4" /><path
           d="m 118.928,26.116 0,83.276 -3.177,0 0,1.708 4.032,0 0.854,0 0,-0.854 0,-84.13 -1.709,0 z"
           id="polyline19"
           inkscape:connector-curvature="0"
           style="fill:#f4f4f4" /><path
           d="m 126.271,26.116 0,83.276 -3.177,0 0,1.708 4.031,0 0.855,0 0,-0.854 0,-84.13 -1.709,0 z"
           id="polyline21"
           inkscape:connector-curvature="0"
           style="fill:#f4f4f4" /><path
           d="m 133.611,26.116 0,83.276 -3.177,0 0,1.708 4.032,0 0.854,0 0,-0.854 0,-84.13 -1.709,0 z"
           id="polyline23"
           inkscape:connector-curvature="0"
           style="fill:#f4f4f4" /><path
           d="m 140.959,26.116 0,83.276 -3.177,0 0,1.708 4.032,0 0.854,0 0,-0.854 0,-84.13 -1.709,0 z"
           id="polyline25"
           inkscape:connector-curvature="0"
           style="fill:#f4f4f4" /><path
           d="m 148.298,26.116 0,83.276 -3.177,0 0,1.708 4.031,0 0.854,0 0,-0.854 0,-84.13 -1.708,0 z"
           id="polyline27"
           inkscape:connector-curvature="0"
           style="fill:#f4f4f4" /><path
           d="m 155.638,26.116 0,83.276 -3.177,0 0,1.708 4.032,0 0.854,0 0,-0.854 0,-84.13 -1.709,0 z"
           id="polyline29"
           inkscape:connector-curvature="0"
           style="fill:#f4f4f4" /><path
           d="m 162.985,26.116 0,83.276 -3.177,0 0,1.708 4.032,0 0.854,0 0,-0.854 0,-84.13 -1.709,0 z"
           id="polyline31"
           inkscape:connector-curvature="0"
           style="fill:#f4f4f4" /><path
           d="m 170.324,26.116 0,83.276 -3.178,0 0,1.708 4.032,0 0.854,0 0,-0.854 0,-84.13 -1.708,0 z"
           id="polyline33"
           inkscape:connector-curvature="0"
           style="fill:#f4f4f4" /><path
           d="m 177.663,26.116 0,83.276 -3.177,0 0,1.708 4.032,0 0.854,0 0,-0.854 0,-84.13 -1.709,0 z"
           id="polyline35"
           inkscape:connector-curvature="0"
           style="fill:#f4f4f4" /><path
           d="m 185.011,26.116 0,83.276 -3.177,0 0,1.708 4.032,0 0.854,0 0,-0.854 0,-84.13 -1.709,0 z"
           id="polyline37"
           inkscape:connector-curvature="0"
           style="fill:#f4f4f4" /><path
           d="m 192.35,26.116 0,83.276 -3.178,0 0,1.708 4.032,0 0.854,0 0,-0.854 0,-84.13 -1.708,0 z"
           id="polyline39-9"
           inkscape:connector-curvature="0"
           style="fill:#f4f4f4" /><path
           d="m 199.689,26.116 0,83.276 -3.177,0 0,1.708 4.032,0 0.854,0 0,-0.854 0,-84.13 -1.709,0 z"
           id="polyline41-2"
           inkscape:connector-curvature="0"
           style="fill:#f4f4f4" /><path
           d="m 207.037,26.116 0,83.276 -3.177,0 0,1.708 4.032,0 0.854,0 0,-0.854 0,-84.13 -1.709,0 z"
           id="polyline43-8"
           inkscape:connector-curvature="0"
           style="fill:#f4f4f4" /><path
           d="m 214.376,26.116 0,83.276 -3.178,0 0,1.708 4.032,0 0.855,0 0,-0.854 0,-84.13 -1.709,0 z"
           id="polyline45-5"
           inkscape:connector-curvature="0"
           style="fill:#f4f4f4" /><path
           d="m 221.724,26.116 0,83.276 -3.178,0 0,1.708 4.032,0 0.854,0 0,-0.854 0,-84.13 -1.708,0 z"
           id="polyline47"
           inkscape:connector-curvature="0"
           style="fill:#f4f4f4" /><path
           d="m 229.063,26.116 0,83.276 -3.177,0 0,1.708 4.032,0 0.854,0 0,-0.854 0,-84.13 -1.709,0 z"
           id="polyline49"
           inkscape:connector-curvature="0"
           style="fill:#f4f4f4" /><path
           d="m 236.402,26.116 0,83.276 -3.178,0 0,1.708 4.032,0 0.855,0 0,-0.854 0,-84.13 -1.709,0 z"
           id="polyline51"
           inkscape:connector-curvature="0"
           style="fill:#f4f4f4" /><path
           d="m 243.749,26.116 0,83.276 -3.177,0 0,1.708 4.032,0 0.854,0 0,-0.854 0,-84.13 -1.709,0 z"
           id="polyline53"
           inkscape:connector-curvature="0"
           style="fill:#f4f4f4" /><path
           d="m 251.088,26.116 0,83.276 -3.177,0 0,1.708 4.032,0 0.854,0 0,-0.854 0,-84.13 -1.709,0 z"
           id="polyline55"
           inkscape:connector-curvature="0"
           style="fill:#f4f4f4" /><path
           d="m 258.436,26.116 0,83.276 -3.177,0 0,1.708 4.032,0 0.854,0 0,-0.854 0,-84.13 -1.709,0 z"
           id="polyline57"
           inkscape:connector-curvature="0"
           style="fill:#f4f4f4" /><path
           d="m 265.775,26.116 0,83.276 -3.178,0 0,1.708 4.032,0 0.854,0 0,-0.854 0,-84.13 -1.708,0 z"
           id="polyline59"
           inkscape:connector-curvature="0"
           style="fill:#f4f4f4" /><path
           d="m 341.737,35.461 c -0.906,0 -1.656,0.749 -1.656,1.655 l 0,32.893 c 0,0.905 0.75,1.656 1.656,1.656 l 196.883,0 c 0.906,0 1.655,-0.75 1.655,-1.656 l 0,-32.893 c 0,-0.905 -0.749,-1.655 -1.655,-1.655 l -196.883,0 z m 0.054,1.708 196.772,0 0,32.787 -196.772,0 0,-32.787 z"
           id="path61"
           inkscape:connector-curvature="0"
           style="fill:#f4f4f4" /><path
           d="m 347.53,40.24 c -1.128,0 -2.082,0.928 -2.082,2.056 l 0,22.534 c 0,1.128 0.954,2.056 2.082,2.056 l 148.261,0 c 0.799,0 1.368,-0.527 1.708,-1.201 l 0.348,0 0,-0.855 0,-22.534 c 0,-1.128 -0.926,-2.056 -2.056,-2.056 l -148.261,0 0,0 z m 0,1.709 148.261,0 c 0.205,0 0.347,0.142 0.347,0.347 l 0,21.68 0,0.854 c 0,0.205 -0.142,0.347 -0.347,0.347 l -148.261,0 c -0.204,0 -0.373,-0.143 -0.373,-0.347 l 0,-22.534 c 0,-0.205 0.169,-0.347 0.373,-0.347 z"
           id="path63"
           inkscape:connector-curvature="0"
           style="fill:#f4f4f4" /><path
           d="m 349.794,43.043 c -0.684,0 -1.255,0.568 -1.255,1.255 l 0,18.529 c 0,0.687 0.571,1.255 1.255,1.255 l 143.988,0 c 0.686,0 1.256,-0.571 1.256,-1.255 l 0,-18.529 c 0,-0.685 -0.57,-1.255 -1.256,-1.255 l -143.988,0 0,0 z m 0.454,1.709 143.082,0 0,17.622 -143.082,0 0,-17.622 z"
           id="path65"
           inkscape:connector-curvature="0"
           style="fill:#f4f4f4" /><path
           d="m 520.482,41.842 c -6.465,0 -11.721,5.257 -11.721,11.722 0,6.464 5.255,11.721 11.721,11.721 6.465,0 11.722,-5.257 11.722,-11.721 0,-6.465 -5.257,-11.722 -11.722,-11.722 z m 0,1.709 c 5.54,0 10.013,4.471 10.013,10.013 0,5.541 -4.473,10.012 -10.013,10.012 -5.541,0 -10.012,-4.471 -10.012,-10.012 10e-4,-5.542 4.471,-10.013 10.012,-10.013 z"
           id="circle67"
           inkscape:connector-curvature="0"
           style="fill:#f4f4f4" /></g><path
         d="m 52.287,114.276 c -0.906,0 -1.682,0.748 -1.682,1.655 l 0,208.519 c 0,0.906 0.774,1.656 1.682,1.656 l 493.505,0 c 0.906,0 1.656,-0.751 1.656,-1.656 l 0,-208.518 c 0,-0.905 -0.752,-1.655 -1.656,-1.655 l -493.505,0 z m 0.026,1.709 493.429,0 0,208.415 -493.429,0 0,-208.415 z"
         id="path69"
         inkscape:connector-curvature="0"
         style="fill:#f4f4f4" /><path
         d="m 52.287,16.852 c -0.907,0 -1.682,0.749 -1.682,1.655 l 0,7.716 1.708,0 0,-7.663 493.429,0 0,7.45 1.708,0 0,-7.503 c 0,-0.906 -0.752,-1.656 -1.658,-1.656 l -493.513,0 0.008,0.001 z"
         id="path71"
         inkscape:connector-curvature="0"
         style="fill:#f4f4f4" /><path
         d="m 75.354,167.06 c -1.795,0 -3.284,1.487 -3.284,3.284 l 0,15.993 c 0,1.796 1.487,3.284 3.284,3.284 l 15.993,0 c 1.796,0 3.258,-1.487 3.258,-3.284 l 0,-0.854 0,-15.139 c 0,-1.795 -1.462,-3.284 -3.258,-3.284 l -15.993,0 z m 0,1.708 15.993,0 c 0.874,0 1.549,0.704 1.549,1.576 l 0,15.993 c 0,0.872 -0.677,1.575 -1.549,1.575 l -15.993,0 c -0.872,0 -1.575,-0.704 -1.575,-1.575 l 0,-15.993 c 0,-0.874 0.702,-1.576 1.575,-1.576 z"
         id="path73"
         inkscape:connector-curvature="0"
         style="fill:#f4f4f4" /><path
         d="m 99.224,167.06 c -1.795,0 -3.284,1.487 -3.284,3.284 l 0,15.993 c 0,1.796 1.487,3.284 3.284,3.284 l 15.993,0 c 1.796,0 3.284,-1.487 3.284,-3.284 l 0,-15.993 c 0,-1.796 -1.489,-3.284 -3.284,-3.284 l -15.993,0 z m 0,1.708 15.993,0 c 0.874,0 1.575,0.704 1.575,1.576 l 0,15.993 c 0,0.872 -0.702,1.575 -1.575,1.575 l -15.993,0 c -0.873,0 -1.575,-0.704 -1.575,-1.575 l 0,-15.993 c -0.001,-0.874 0.701,-1.576 1.575,-1.576 z"
         id="path75"
         inkscape:connector-curvature="0"
         style="fill:#f4f4f4" /><path
         d="m 123.093,167.06 c -1.794,0 -3.284,1.487 -3.284,3.284 l 0,15.993 c 0,1.795 1.487,3.284 3.284,3.284 l 15.993,0 c 1.795,0 3.284,-1.487 3.284,-3.284 l 0,-15.993 c 0,-1.795 -1.488,-3.284 -3.284,-3.284 l -15.993,0 z m 0,1.708 15.993,0 c 0.873,0 1.575,0.704 1.575,1.576 l 0,15.993 c 0,0.872 -0.703,1.575 -1.575,1.575 l -15.993,0 c -0.873,0 -1.575,-0.704 -1.575,-1.575 l 0,-15.993 c 0,-0.874 0.703,-1.576 1.575,-1.576 z"
         id="path77"
         inkscape:connector-curvature="0"
         style="fill:#f4f4f4" /><path
         d="m 146.965,167.06 c -1.794,0 -3.256,1.487 -3.256,3.284 l 0,15.993 c 0,1.796 1.46,3.284 3.256,3.284 l 15.994,0 c 1.796,0 3.284,-1.487 3.284,-3.284 l 0,-15.993 c 0,-1.796 -1.489,-3.284 -3.284,-3.284 l -15.994,0 z m 0,1.708 15.994,0 c 0.874,0 1.575,0.704 1.575,1.576 l 0,15.993 c 0,0.872 -0.702,1.575 -1.575,1.575 l -15.994,0 c -0.872,0 -1.548,-0.704 -1.548,-1.575 l 0,-15.993 c 0,-0.874 0.674,-1.576 1.548,-1.576 z"
         id="path79"
         inkscape:connector-curvature="0"
         style="fill:#f4f4f4" /><path
         d="m 170.828,167.06 c -1.794,0 -3.257,1.487 -3.257,3.284 l 0,15.993 c 0,1.795 1.46,3.284 3.257,3.284 l 16.02,0 c 1.795,0 3.257,-1.487 3.257,-3.284 l 0,-15.993 c 0,-1.795 -1.462,-3.284 -3.257,-3.284 l -16.02,0 z m 0,1.708 16.02,0 c 0.874,0 1.548,0.704 1.548,1.576 l 0,15.993 c 0,0.872 -0.676,1.575 -1.548,1.575 l -16.02,0 c -0.873,0 -1.548,-0.704 -1.548,-1.575 l 0,-15.993 c 0,-0.874 0.675,-1.576 1.548,-1.576 z"
         id="path81"
         inkscape:connector-curvature="0"
         style="fill:#f4f4f4" /><path
         d="m 194.699,167.06 c -1.795,0 -3.257,1.487 -3.257,3.284 l 0,15.993 c 0,1.796 1.461,3.284 3.257,3.284 l 16.02,0 c 1.796,0 3.257,-1.487 3.257,-3.284 l 0,-15.993 c 0,-1.796 -1.462,-3.284 -3.257,-3.284 l -16.02,0 z m 0,1.708 16.02,0 c 0.874,0 1.549,0.704 1.549,1.576 l 0,15.993 c 0,0.872 -0.676,1.575 -1.549,1.575 l -16.02,0 c -0.872,0 -1.548,-0.704 -1.548,-1.575 l 0,-15.993 c 0,-0.874 0.675,-1.576 1.548,-1.576 z"
         id="path83"
         inkscape:connector-curvature="0"
         style="fill:#f4f4f4" /><path
         d="m 218.597,167.06 c -1.794,0 -3.284,1.487 -3.284,3.284 l 0,15.993 c 0,1.796 1.488,3.284 3.284,3.284 l 15.993,0 c 1.795,0 3.257,-1.487 3.257,-3.284 l 0,-15.993 c 0,-1.796 -1.463,-3.284 -3.257,-3.284 l -15.993,0 z m 0,1.708 15.993,0 c 0.872,0 1.548,0.704 1.548,1.576 l 0,15.993 c 0,0.872 -0.678,1.575 -1.548,1.575 l -15.993,0 c -0.871,0 -1.575,-0.704 -1.575,-1.575 l 0,-15.993 c -0.001,-0.874 0.703,-1.576 1.575,-1.576 z"
         id="path85"
         inkscape:connector-curvature="0"
         style="fill:#f4f4f4" /><path
         d="m 242.468,167.06 c -1.794,0 -3.284,1.487 -3.284,3.284 l 0,15.993 c 0,1.796 1.489,3.284 3.284,3.284 l 15.993,0 c 1.795,0 3.284,-1.487 3.284,-3.284 l 0,-15.993 c 0,-1.796 -1.49,-3.284 -3.284,-3.284 l -15.993,0 z m 0,1.708 15.993,0 c 0.871,0 1.576,0.704 1.576,1.576 l 0,15.993 c 0,0.872 -0.705,1.575 -1.576,1.575 l -15.993,0 c -0.871,0 -1.576,-0.704 -1.576,-1.575 l 0,-15.993 c 0,-0.874 0.704,-1.576 1.576,-1.576 z"
         id="path87"
         inkscape:connector-curvature="0"
         style="fill:#f4f4f4" /><path
         d="m 266.331,167.06 c -1.794,0 -3.257,1.487 -3.257,3.284 l 0,15.993 c 0,1.795 1.46,3.284 3.257,3.284 l 15.993,0 c 1.797,0 3.284,-1.487 3.284,-3.284 l 0,-15.993 c 0,-1.796 -1.488,-3.284 -3.284,-3.284 l -15.993,0 z m 0,1.708 15.993,0 c 0.874,0 1.575,0.704 1.575,1.576 l 0,15.993 c 0,0.872 -0.702,1.575 -1.575,1.575 l -15.993,0 c -0.873,0 -1.548,-0.704 -1.548,-1.575 l 0,-15.993 c -0.001,-0.874 0.675,-1.576 1.548,-1.576 z"
         id="path89"
         inkscape:connector-curvature="0"
         style="fill:#f4f4f4" /><path
         d="m 290.202,167.06 c -1.795,0 -3.258,1.487 -3.258,3.284 l 0,15.993 c 0,1.795 1.461,3.284 3.258,3.284 l 15.993,0 c 1.796,0 3.284,-1.487 3.284,-3.284 l 0,-15.993 c 0,-1.795 -1.488,-3.284 -3.284,-3.284 l -15.993,0 z m 0,1.708 15.993,0 c 0.872,0 1.575,0.704 1.575,1.576 l 0,15.993 c 0,0.872 -0.704,1.575 -1.575,1.575 l -15.993,0 c -0.873,0 -1.549,-0.704 -1.549,-1.575 l 0,-15.993 c 0,-0.874 0.676,-1.576 1.549,-1.576 z"
         id="path91"
         inkscape:connector-curvature="0"
         style="fill:#f4f4f4" /><path
         d="m 454.755,132.723 c -1.795,0 -3.283,1.462 -3.283,3.257 l 0,16.018 c 0,1.796 1.488,3.257 3.283,3.257 l 15.993,0 c 1.794,0 3.284,-1.46 3.284,-3.257 l 0,-16.018 c 0,-1.796 -1.489,-3.257 -3.284,-3.257 l -15.993,0 z m 0,1.708 15.993,0 c 0.871,0 1.575,0.677 1.575,1.549 l 0,16.018 c 0,0.874 -0.704,1.549 -1.575,1.549 l -15.993,0 c -0.875,0 -1.575,-0.675 -1.575,-1.549 l 0,-16.018 c 0,-0.874 0.702,-1.549 1.575,-1.549 z"
         id="path93"
         inkscape:connector-curvature="0"
         style="fill:#f4f4f4" /><path
         d="m 478.618,132.723 c -1.796,0 -3.258,1.461 -3.258,3.257 l 0,16.018 c 0,1.796 1.462,3.257 3.258,3.257 l 15.992,0 c 1.796,0 3.284,-1.461 3.284,-3.257 l 0,-16.018 c 0,-1.795 -1.486,-3.257 -3.284,-3.257 l -15.992,0 z m 0,1.708 15.992,0 c 0.874,0 1.576,0.676 1.576,1.549 l 0,16.018 c 0,0.874 -0.702,1.549 -1.576,1.549 l -15.992,0 c -0.873,0 -1.549,-0.675 -1.549,-1.549 l 0,-16.018 c 0,-0.873 0.678,-1.549 1.549,-1.549 z"
         id="path95"
         inkscape:connector-curvature="0"
         style="fill:#f4f4f4" /><path
         d="m 502.489,132.723 c -1.794,0 -3.258,1.461 -3.258,3.257 l 0,16.018 c 0,1.796 1.464,3.257 3.258,3.257 l 16.02,0 c 1.794,0 3.258,-1.46 3.258,-3.257 l 0,-16.018 c 0,-1.796 -1.463,-3.257 -3.258,-3.257 l -16.02,0 z m 0,1.708 16.02,0 c 0.871,0 1.549,0.677 1.549,1.549 l 0,16.018 c 0,0.874 -0.678,1.549 -1.549,1.549 l -16.02,0 c -0.872,0 -1.549,-0.675 -1.549,-1.549 l 0,-16.018 c 0,-0.873 0.679,-1.549 1.549,-1.549 z"
         id="path97"
         inkscape:connector-curvature="0"
         style="fill:#f4f4f4" /><path
         d="m 314.073,167.06 c -1.796,0 -3.257,1.487 -3.257,3.284 l 0,15.993 c 0,1.796 1.46,3.284 3.257,3.284 l 16.021,0 c 1.793,0 3.256,-1.487 3.256,-3.284 l 0,-15.993 c 0,-1.796 -1.463,-3.284 -3.256,-3.284 l -16.021,0 z m 0,1.708 16.021,0 c 0.872,0 1.548,0.704 1.548,1.576 l 0,15.993 c 0,0.871 -0.68,1.575 -1.548,1.575 l -16.021,0 c -0.872,0 -1.549,-0.704 -1.549,-1.575 l 0,-15.993 c 0,-0.872 0.677,-1.576 1.549,-1.576 z"
         id="path99"
         inkscape:connector-curvature="0"
         style="fill:#f4f4f4" /><path
         d="m 337.944,167.06 c -1.794,0 -3.258,1.487 -3.258,3.284 l 0,15.993 c 0,1.795 1.46,3.284 3.258,3.284 l 16.02,0 c 1.796,0 3.258,-1.487 3.258,-3.284 l 0,-15.993 c 0,-1.795 -1.462,-3.284 -3.258,-3.284 l -16.02,0 z m 0,1.708 16.02,0 c 0.873,0 1.549,0.704 1.549,1.576 l 0,15.993 c 0,0.872 -0.678,1.575 -1.549,1.575 l -16.02,0 c -0.873,0 -1.548,-0.704 -1.548,-1.575 l 0,-15.993 c 0,-0.874 0.675,-1.576 1.548,-1.576 z"
         id="path101"
         inkscape:connector-curvature="0"
         style="fill:#f4f4f4" /><path
         d="m 361.841,167.06 c -1.794,0 -3.284,1.487 -3.284,3.284 l 0,15.993 c 0,1.796 1.488,3.284 3.284,3.284 l 15.992,0 c 1.798,0 3.258,-1.487 3.258,-3.284 l 0,-15.993 c 0,-1.795 -1.462,-3.284 -3.258,-3.284 l -15.992,0 z m 0,1.708 15.992,0 c 0.875,0 1.549,0.704 1.549,1.576 l 0,15.993 c 0,0.872 -0.675,1.575 -1.549,1.575 l -15.992,0 c -0.871,0 -1.576,-0.704 -1.576,-1.575 l 0,-15.993 c 0,-0.872 0.703,-1.576 1.576,-1.576 z"
         id="path103"
         inkscape:connector-curvature="0"
         style="fill:#f4f4f4" /><path
         d="m 385.703,167.06 c -1.794,0 -3.284,1.487 -3.284,3.284 l 0,15.993 c 0,1.795 1.489,3.284 3.284,3.284 l 15.993,0 c 1.797,0 3.284,-1.487 3.284,-3.284 l 0,-15.993 c 0,-1.795 -1.488,-3.284 -3.284,-3.284 l -15.993,0 z m 0,1.708 15.993,0 c 0.874,0 1.575,0.704 1.575,1.576 l 0,15.993 c 0,0.872 -0.703,1.575 -1.575,1.575 l -15.993,0 c -0.871,0 -1.575,-0.704 -1.575,-1.575 l 0,-15.993 c 0,-0.874 0.702,-1.576 1.575,-1.576 z"
         id="path105"
         inkscape:connector-curvature="0"
         style="fill:#f4f4f4" /><path
         d="m 409.576,167.06 c -1.796,0 -3.258,1.487 -3.258,3.284 l 0,15.993 c 0,1.796 1.461,3.284 3.258,3.284 l 15.993,0 c 1.793,0 3.283,-1.487 3.283,-3.284 l 0,-15.993 c 0,-1.796 -1.49,-3.284 -3.283,-3.284 l -15.993,0 z m 0,1.708 15.993,0 c 0.871,0 1.575,0.704 1.575,1.576 l 0,15.993 c 0,0.871 -0.706,1.575 -1.575,1.575 l -15.993,0 c -0.873,0 -1.549,-0.704 -1.549,-1.575 l 0,-15.993 c 0,-0.872 0.676,-1.576 1.549,-1.576 z"
         id="path107"
         inkscape:connector-curvature="0"
         style="fill:#f4f4f4" /><path
         d="m 87.556,214.854 c -1.795,0 -3.284,1.463 -3.284,3.258 l 0,15.992 c 0,1.797 1.489,3.284 3.284,3.284 l 21.227,0 c 1.795,0 3.284,-1.487 3.284,-3.284 l 0,-0.854 0,-15.138 c 0,-1.795 -1.487,-3.258 -3.284,-3.258 l -21.227,0 z m 0,1.709 21.227,0 c 0.873,0 1.575,0.678 1.575,1.549 l 0,15.992 c 0,0.874 -0.702,1.576 -1.575,1.576 l -21.227,0 c -0.873,0 -1.575,-0.701 -1.575,-1.576 l 0,-15.992 c -10e-4,-0.873 0.704,-1.549 1.575,-1.549 z"
         id="path109"
         inkscape:connector-curvature="0"
         style="fill:#f4f4f4" /><path
         d="m 116.659,214.854 c -1.796,0 -3.257,1.461 -3.257,3.258 l 0,15.992 c 0,1.796 1.46,3.284 3.257,3.284 l 15.993,0 c 1.795,0 3.285,-1.487 3.285,-3.284 l 0,-15.992 c 0,-1.797 -1.489,-3.258 -3.285,-3.258 l -15.993,0 z m 0,1.709 15.993,0 c 0.874,0 1.576,0.676 1.576,1.549 l 0,15.992 c 0,0.873 -0.702,1.576 -1.576,1.576 l -15.993,0 c -0.873,0 -1.549,-0.704 -1.549,-1.576 l 0,-15.992 c 0,-0.875 0.676,-1.549 1.549,-1.549 z"
         id="path111"
         inkscape:connector-curvature="0"
         style="fill:#f4f4f4" /><path
         d="m 140.532,214.854 c -1.795,0 -3.258,1.461 -3.258,3.258 l 0,15.992 c 0,1.795 1.461,3.284 3.258,3.284 l 16.02,0 c 1.795,0 3.257,-1.487 3.257,-3.284 l 0,-15.992 c 0,-1.795 -1.461,-3.258 -3.257,-3.258 l -16.02,0 z m 0,1.709 16.02,0 c 0.873,0 1.548,0.676 1.548,1.549 l 0,15.992 c 0,0.873 -0.676,1.576 -1.548,1.576 l -16.02,0 c -0.873,0 -1.549,-0.704 -1.549,-1.576 l 0,-15.992 c 0,-0.875 0.677,-1.549 1.549,-1.549 z"
         id="path113"
         inkscape:connector-curvature="0"
         style="fill:#f4f4f4" /><path
         d="m 164.395,214.854 c -1.795,0 -3.257,1.461 -3.257,3.258 l 0,15.992 c 0,1.796 1.461,3.284 3.257,3.284 l 16.02,0 c 1.796,0 3.258,-1.487 3.258,-3.284 l 0,-15.992 c 0,-1.797 -1.462,-3.258 -3.258,-3.258 l -16.02,0 z m 0,1.709 16.02,0 c 0.874,0 1.549,0.676 1.549,1.549 l 0,15.992 c 0,0.873 -0.675,1.576 -1.549,1.576 l -16.02,0 c -0.873,0 -1.549,-0.704 -1.549,-1.576 l 0,-15.992 c 0,-0.875 0.675,-1.549 1.549,-1.549 z"
         id="path115"
         inkscape:connector-curvature="0"
         style="fill:#f4f4f4" /><path
         d="m 188.292,214.854 c -1.794,0 -3.284,1.461 -3.284,3.258 l 0,15.992 c 0,1.795 1.488,3.284 3.284,3.284 l 15.993,0 c 1.795,0 3.257,-1.487 3.257,-3.284 l 0,-15.992 c 0,-1.795 -1.461,-3.258 -3.257,-3.258 l -15.993,0 z m 0,1.709 15.993,0 c 0.873,0 1.548,0.676 1.548,1.549 l 0,15.992 c 0,0.873 -0.676,1.576 -1.548,1.576 l -15.993,0 c -0.873,0 -1.575,-0.704 -1.575,-1.576 l 0,-15.992 c -0.001,-0.875 0.702,-1.549 1.575,-1.549 z"
         id="path117"
         inkscape:connector-curvature="0"
         style="fill:#f4f4f4" /><path
         d="m 212.163,214.854 c -1.796,0 -3.284,1.461 -3.284,3.258 l 0,15.992 c 0,1.796 1.487,3.284 3.284,3.284 l 15.993,0 c 1.796,0 3.285,-1.487 3.285,-3.284 l 0,-15.992 c 0,-1.797 -1.488,-3.258 -3.285,-3.258 l -15.993,0 z m 0,1.709 15.993,0 c 0.874,0 1.576,0.676 1.576,1.549 l 0,15.992 c 0,0.873 -0.702,1.576 -1.576,1.576 l -15.993,0 c -0.873,0 -1.575,-0.704 -1.575,-1.576 l 0,-15.992 c 0,-0.875 0.702,-1.549 1.575,-1.549 z"
         id="path119"
         inkscape:connector-curvature="0"
         style="fill:#f4f4f4" /><path
         d="m 236.034,214.854 c -1.794,0 -3.284,1.461 -3.284,3.258 l 0,15.992 c 0,1.797 1.489,3.284 3.284,3.284 l 15.993,0 c 1.796,0 3.284,-1.487 3.284,-3.284 l 0,-15.992 c 0,-1.797 -1.488,-3.258 -3.284,-3.258 l -15.993,0 z m 0,1.709 15.993,0 c 0.874,0 1.575,0.676 1.575,1.549 l 0,15.992 c 0,0.873 -0.702,1.576 -1.575,1.576 l -15.993,0 c -0.871,0 -1.575,-0.704 -1.575,-1.576 l 0,-15.992 c 0,-0.875 0.704,-1.549 1.575,-1.549 z"
         id="path121"
         inkscape:connector-curvature="0"
         style="fill:#f4f4f4" /><path
         d="m 259.897,214.854 c -1.794,0 -3.257,1.461 -3.257,3.258 l 0,15.992 c 0,1.796 1.462,3.284 3.257,3.284 l 15.993,0 c 1.794,0 3.284,-1.487 3.284,-3.284 l 0,-15.992 c 0,-1.797 -1.489,-3.258 -3.284,-3.258 l -15.993,0 z m 0,1.709 15.993,0 c 0.871,0 1.576,0.676 1.576,1.549 l 0,15.992 c 0,0.873 -0.705,1.576 -1.576,1.576 l -15.993,0 c -0.871,0 -1.549,-0.704 -1.549,-1.576 l 0,-15.992 c 0,-0.875 0.677,-1.549 1.549,-1.549 z"
         id="path123"
         inkscape:connector-curvature="0"
         style="fill:#f4f4f4" /><path
         d="m 283.769,214.854 c -1.795,0 -3.258,1.461 -3.258,3.258 l 0,15.992 c 0,1.795 1.461,3.284 3.258,3.284 l 16.019,0 c 1.796,0 3.258,-1.487 3.258,-3.284 l 0,-15.992 c 0,-1.795 -1.461,-3.258 -3.258,-3.258 l -16.019,0 z m 0,1.709 16.019,0 c 0.875,0 1.549,0.676 1.549,1.549 l 0,15.992 c 0,0.873 -0.676,1.576 -1.549,1.576 l -16.019,0 c -0.873,0 -1.549,-0.704 -1.549,-1.576 l 0,-15.992 c 0,-0.875 0.676,-1.549 1.549,-1.549 z"
         id="path125"
         inkscape:connector-curvature="0"
         style="fill:#f4f4f4" /><path
         d="m 307.64,214.854 c -1.796,0 -3.257,1.461 -3.257,3.258 l 0,15.992 c 0,1.795 1.461,3.284 3.257,3.284 l 16.02,0 c 1.795,0 3.256,-1.487 3.256,-3.284 l 0,-15.992 c 0,-1.795 -1.46,-3.258 -3.256,-3.258 l -16.02,0 z m 0,1.709 16.02,0 c 0.874,0 1.548,0.676 1.548,1.549 l 0,15.992 c 0,0.873 -0.676,1.576 -1.548,1.576 l -16.02,0 c -0.871,0 -1.549,-0.704 -1.549,-1.576 l 0,-15.992 c 0,-0.875 0.678,-1.549 1.549,-1.549 z"
         id="path127"
         inkscape:connector-curvature="0"
         style="fill:#f4f4f4" /><path
         d="m 331.536,214.854 c -1.795,0 -3.283,1.461 -3.283,3.258 l 0,15.992 c 0,1.796 1.488,3.284 3.283,3.284 l 15.994,0 c 1.795,0 3.257,-1.487 3.257,-3.284 l 0,-15.992 c 0,-1.797 -1.462,-3.258 -3.257,-3.258 l -15.994,0 z m 0,1.709 15.994,0 c 0.872,0 1.548,0.676 1.548,1.549 l 0,15.992 c 0,0.872 -0.678,1.576 -1.548,1.576 l -15.994,0 c -0.873,0 -1.574,-0.704 -1.574,-1.576 l 0,-15.992 c 0,-0.875 0.701,-1.549 1.574,-1.549 z"
         id="path129"
         inkscape:connector-curvature="0"
         style="fill:#f4f4f4" /><path
         d="m 355.407,214.854 c -1.794,0 -3.284,1.461 -3.284,3.258 l 0,15.992 c 0,1.795 1.489,3.284 3.284,3.284 l 15.993,0 c 1.796,0 3.284,-1.487 3.284,-3.284 l 0,-15.992 c 0,-1.795 -1.488,-3.258 -3.284,-3.258 l -15.993,0 z m 0,1.709 15.993,0 c 0.873,0 1.575,0.676 1.575,1.549 l 0,15.992 c 0,0.873 -0.702,1.576 -1.575,1.576 l -15.993,0 c -0.872,0 -1.574,-0.704 -1.574,-1.576 l 0,-15.992 c 0,-0.875 0.702,-1.549 1.574,-1.549 z"
         id="path131"
         inkscape:connector-curvature="0"
         style="fill:#f4f4f4" /><path
         d="m 379.271,214.854 c -1.794,0 -3.258,1.461 -3.258,3.258 l 0,15.992 c 0,1.796 1.462,3.284 3.258,3.284 l 15.993,0 c 1.796,0 3.284,-1.487 3.284,-3.284 l 0,-15.992 c 0,-1.795 -1.488,-3.258 -3.284,-3.258 l -15.993,0 z m 0,1.709 15.993,0 c 0.872,0 1.575,0.676 1.575,1.549 l 0,15.992 c 0,0.873 -0.703,1.576 -1.575,1.576 l -15.993,0 c -0.873,0 -1.549,-0.704 -1.549,-1.576 l 0,-15.992 c 0,-0.875 0.675,-1.549 1.549,-1.549 z"
         id="path133"
         inkscape:connector-curvature="0"
         style="fill:#f4f4f4" /><path
         d="m 403.141,214.854 c -1.793,0 -3.257,1.461 -3.257,3.258 l 0,15.992 c 0,1.795 1.462,3.284 3.257,3.284 l 16.021,0 c 1.796,0 3.258,-1.487 3.258,-3.284 l 0,-15.992 c 0,-1.795 -1.462,-3.258 -3.258,-3.258 l -16.021,0 z m 0,1.709 16.021,0 c 0.872,0 1.548,0.676 1.548,1.549 l 0,15.992 c 0,0.873 -0.676,1.576 -1.548,1.576 l -16.021,0 c -0.872,0 -1.548,-0.704 -1.548,-1.576 l 0,-15.992 c 0,-0.875 0.676,-1.549 1.548,-1.549 z"
         id="path135"
         inkscape:connector-curvature="0"
         style="fill:#f4f4f4" /><path
         d="m 92.79,238.725 c -1.796,0 -3.284,1.487 -3.284,3.284 l 0,15.992 c 0,1.796 1.488,3.285 3.284,3.285 l 27.26,0 c 1.795,0 3.284,-1.488 3.284,-3.285 l 0,-15.992 c 0,-1.796 -1.487,-3.284 -3.284,-3.284 l -27.26,0 z m 0,1.708 27.26,0 c 0.872,0 1.575,0.704 1.575,1.576 l 0,15.992 c 0,0.874 -0.703,1.577 -1.575,1.577 l -27.26,0 c -0.873,0 -1.576,-0.704 -1.576,-1.577 l 0,-15.992 c 0,-0.872 0.704,-1.576 1.576,-1.576 z"
         id="path137"
         inkscape:connector-curvature="0"
         style="fill:#f4f4f4" /><path
         d="m 127.925,238.725 c -1.795,0 -3.257,1.487 -3.257,3.284 l 0,15.992 c 0,1.796 1.461,3.285 3.257,3.285 l 16.02,0 c 1.796,0 3.257,-1.488 3.257,-3.285 l 0,-15.992 c 0,-1.796 -1.46,-3.284 -3.257,-3.284 l -16.02,0 z m 0,1.708 16.02,0 c 0.872,0 1.548,0.704 1.548,1.576 l 0,15.992 c 0,0.874 -0.675,1.577 -1.548,1.577 l -16.02,0 c -0.873,0 -1.548,-0.704 -1.548,-1.577 l 0,-15.992 c 0,-0.872 0.677,-1.576 1.548,-1.576 z"
         id="path139"
         inkscape:connector-curvature="0"
         style="fill:#f4f4f4" /><path
         d="m 151.793,238.725 c -1.796,0 -3.257,1.487 -3.257,3.284 l 0,15.992 c 0,1.796 1.46,3.285 3.257,3.285 l 16.019,0 c 1.796,0 3.258,-1.488 3.258,-3.285 l 0,-15.992 c 0,-1.796 -1.461,-3.284 -3.258,-3.284 l -16.019,0 z m 0,1.708 16.019,0 c 0.873,0 1.548,0.704 1.548,1.576 l 0,15.992 c 0,0.874 -0.675,1.577 -1.548,1.577 l -16.019,0 c -0.873,0 -1.549,-0.704 -1.549,-1.577 l 0,-15.992 c 0,-0.872 0.677,-1.576 1.549,-1.576 z"
         id="path141"
         inkscape:connector-curvature="0"
         style="fill:#f4f4f4" /><path
         d="m 175.69,238.725 c -1.796,0 -3.284,1.489 -3.284,3.284 l 0,15.992 c 0,1.796 1.488,3.285 3.284,3.285 l 15.993,0 c 1.796,0 3.257,-1.488 3.257,-3.285 l 0,-15.992 c 0,-1.796 -1.46,-3.284 -3.257,-3.284 l -15.993,0 z m 0,1.708 15.993,0 c 0.873,0 1.549,0.704 1.549,1.576 l 0,15.992 c 0,0.874 -0.675,1.577 -1.549,1.577 l -15.993,0 c -0.874,0 -1.575,-0.704 -1.575,-1.577 l 0,-15.992 c 0,-0.873 0.701,-1.576 1.575,-1.576 z"
         id="path143"
         inkscape:connector-curvature="0"
         style="fill:#f4f4f4" /><path
         d="m 199.561,238.725 c -1.796,0 -3.284,1.489 -3.284,3.284 l 0,15.992 c 0,1.796 1.487,3.285 3.284,3.285 l 15.993,0 c 1.796,0 3.284,-1.488 3.284,-3.285 l 0,-15.992 c 0,-1.796 -1.487,-3.284 -3.284,-3.284 l -15.993,0 z m 0,1.708 15.993,0 c 0.873,0 1.575,0.704 1.575,1.576 l 0,15.992 c 0,0.874 -0.702,1.577 -1.575,1.577 l -15.993,0 c -0.872,0 -1.575,-0.704 -1.575,-1.577 l 0,-15.992 c -10e-4,-0.873 0.702,-1.576 1.575,-1.576 z"
         id="path145"
         inkscape:connector-curvature="0"
         style="fill:#f4f4f4" /><path
         d="m 223.432,238.725 c -1.796,0 -3.284,1.489 -3.284,3.284 l 0,15.992 c 0,1.796 1.488,3.285 3.284,3.285 l 15.993,0 c 1.796,0 3.284,-1.488 3.284,-3.285 l 0,-15.992 c 0,-1.796 -1.488,-3.284 -3.284,-3.284 l -15.993,0 z m 0,1.708 15.993,0 c 0.873,0 1.575,0.704 1.575,1.576 l 0,15.992 c 0,0.874 -0.702,1.577 -1.575,1.577 l -15.993,0 c -0.873,0 -1.575,-0.704 -1.575,-1.577 l 0,-15.992 c 0,-0.873 0.702,-1.576 1.575,-1.576 z"
         id="path147"
         inkscape:connector-curvature="0"
         style="fill:#f4f4f4" /><path
         d="m 247.294,238.725 c -1.795,0 -3.257,1.487 -3.257,3.284 l 0,15.992 c 0,1.796 1.461,3.285 3.257,3.285 l 15.994,0 c 1.795,0 3.284,-1.488 3.284,-3.285 l 0,-15.992 c 0,-1.795 -1.488,-3.284 -3.284,-3.284 l -15.994,0 z m 0,1.708 15.994,0 c 0.872,0 1.576,0.704 1.576,1.576 l 0,15.992 c 0,0.874 -0.704,1.577 -1.576,1.577 l -15.994,0 c -0.873,0 -1.548,-0.704 -1.548,-1.577 l 0,-15.992 c 0,-0.872 0.677,-1.576 1.548,-1.576 z"
         id="path149"
         inkscape:connector-curvature="0"
         style="fill:#f4f4f4" /><path
         d="m 271.166,238.725 c -1.795,0 -3.257,1.487 -3.257,3.284 l 0,15.992 c 0,1.797 1.461,3.285 3.257,3.285 l 16.02,0 c 1.796,0 3.257,-1.488 3.257,-3.285 l 0,-15.992 c 0,-1.795 -1.46,-3.284 -3.257,-3.284 l -16.02,0 z m 0,1.708 16.02,0 c 0.873,0 1.549,0.704 1.549,1.576 l 0,15.992 c 0,0.874 -0.677,1.577 -1.549,1.577 l -16.02,0 c -0.871,0 -1.548,-0.704 -1.548,-1.577 l 0,-15.992 c 0,-0.872 0.676,-1.576 1.548,-1.576 z"
         id="path151"
         inkscape:connector-curvature="0"
         style="fill:#f4f4f4" /><path
         d="m 295.063,238.725 c -1.796,0 -3.284,1.487 -3.284,3.284 l 0,15.992 c 0,1.796 1.487,3.285 3.284,3.285 l 15.993,0 c 1.795,0 3.257,-1.488 3.257,-3.285 l 0,-15.992 c 0,-1.795 -1.46,-3.284 -3.257,-3.284 l -15.993,0 z m 0,1.708 15.993,0 c 0.872,0 1.548,0.704 1.548,1.576 l 0,15.992 c 0,0.874 -0.676,1.577 -1.548,1.577 l -15.993,0 c -0.873,0 -1.575,-0.704 -1.575,-1.577 l 0,-15.992 c 0,-0.872 0.703,-1.576 1.575,-1.576 z"
         id="path153"
         inkscape:connector-curvature="0"
         style="fill:#f4f4f4" /><path
         d="m 318.934,238.725 c -1.795,0 -3.283,1.487 -3.283,3.284 l 0,15.992 c 0,1.797 1.488,3.285 3.283,3.285 l 15.993,0 c 1.796,0 3.258,-1.488 3.258,-3.285 l 0,-15.992 c 0,-1.795 -1.46,-3.284 -3.258,-3.284 l -15.993,0 z m 0,1.708 15.993,0 c 0.873,0 1.55,0.704 1.55,1.576 l 0,15.992 c 0,0.874 -0.677,1.577 -1.55,1.577 l -15.993,0 c -0.872,0 -1.574,-0.704 -1.574,-1.577 l 0,-15.992 c -0.001,-0.872 0.703,-1.576 1.574,-1.576 z"
         id="path155"
         inkscape:connector-curvature="0"
         style="fill:#f4f4f4" /><path
         d="m 342.797,238.725 c -1.795,0 -3.283,1.487 -3.283,3.284 l 0,15.992 c 0,1.796 1.488,3.285 3.283,3.285 l 15.993,0 c 1.796,0 3.284,-1.488 3.284,-3.285 l 0,-0.854 0,-15.139 c 0,-1.795 -1.487,-3.284 -3.284,-3.284 l -15.993,0 z m 0,1.708 15.993,0 c 0.872,0 1.576,0.704 1.576,1.576 l 0,15.992 c 0,0.874 -0.704,1.577 -1.576,1.577 l -15.993,0 c -0.873,0 -1.575,-0.704 -1.575,-1.577 l 0,-15.992 c 0,-0.872 0.704,-1.576 1.575,-1.576 z"
         id="path157"
         inkscape:connector-curvature="0"
         style="fill:#f4f4f4" /><path
         d="m 366.669,238.725 c -1.796,0 -3.258,1.487 -3.258,3.284 l 0,15.992 c 0,1.797 1.462,3.285 3.258,3.285 l 15.992,0 c 1.795,0 3.284,-1.488 3.284,-3.285 l 0,-15.992 c 0,-1.795 -1.487,-3.284 -3.284,-3.284 l -15.992,0 z m 0,1.708 15.992,0 c 0.873,0 1.575,0.704 1.575,1.576 l 0,15.992 c 0,0.874 -0.702,1.577 -1.575,1.577 l -15.992,0 c -0.874,0 -1.55,-0.704 -1.55,-1.577 l 0,-15.992 c 0,-0.872 0.678,-1.576 1.55,-1.576 z"
         id="path159"
         inkscape:connector-curvature="0"
         style="fill:#f4f4f4" /><path
         d="m 390.539,238.725 c -1.795,0 -3.257,1.487 -3.257,3.284 l 0,15.992 c 0,1.796 1.462,3.285 3.257,3.285 l 28.89,0 c 1.795,0 3.283,-1.488 3.283,-3.285 l 0,-15.992 c 0,-1.795 -1.486,-3.284 -3.283,-3.284 l -28.89,0 z m 0,1.708 28.89,0 c 0.872,0 1.574,0.704 1.574,1.576 l 0,15.992 c 0,0.874 -0.702,1.577 -1.574,1.577 l -28.89,0 c -0.873,0 -1.549,-0.704 -1.549,-1.577 l 0,-15.992 c 0,-0.872 0.678,-1.576 1.549,-1.576 z"
         id="path161"
         inkscape:connector-curvature="0"
         style="fill:#f4f4f4" /><path
         d="m 127.952,262.621 c -1.795,0 -3.284,1.462 -3.284,3.258 l 0,16.02 c 0,1.796 1.488,3.258 3.284,3.258 l 15.993,0 c 1.796,0 3.284,-1.462 3.284,-3.258 l 0,-0.854 0,-15.165 c 0,-1.796 -1.487,-3.258 -3.284,-3.258 l -15.993,0 z m 0,1.71 15.993,0 c 0.872,0 1.575,0.677 1.575,1.548 l 0,16.02 c 0,0.873 -0.703,1.549 -1.575,1.549 l -15.993,0 c -0.872,0 -1.575,-0.678 -1.575,-1.549 l 0,-16.02 c 0,-0.871 0.703,-1.548 1.575,-1.548 z"
         id="path163"
         inkscape:connector-curvature="0"
         style="fill:#f4f4f4" /><path
         d="m 151.818,262.621 c -1.795,0 -3.284,1.462 -3.284,3.258 l 0,16.02 c 0,1.796 1.488,3.258 3.284,3.258 l 15.994,0 c 1.795,0 3.284,-1.462 3.284,-3.258 l 0,-16.02 c 0,-1.796 -1.489,-3.258 -3.284,-3.258 l -15.994,0 z m 0,1.71 15.994,0 c 0.872,0 1.575,0.677 1.575,1.548 l 0,16.02 c 0,0.873 -0.704,1.549 -1.575,1.549 l -15.994,0 c -0.872,0 -1.575,-0.678 -1.575,-1.549 l 0,-16.02 c 0,-0.871 0.703,-1.548 1.575,-1.548 z"
         id="path165"
         inkscape:connector-curvature="0"
         style="fill:#f4f4f4" /><path
         d="m 175.69,262.621 c -1.796,0 -3.257,1.462 -3.257,3.258 l 0,16.02 c 0,1.796 1.461,3.258 3.257,3.258 l 186.279,0 c 1.796,0 3.284,-1.462 3.284,-3.258 l 0,-16.02 c 0,-1.795 -1.486,-3.258 -3.284,-3.258 l -186.279,0 z m 0,1.71 186.279,0 c 0.873,0 1.575,0.677 1.575,1.548 l 0,16.02 c 0,0.873 -0.702,1.549 -1.575,1.549 l -186.279,0 c -0.872,0 -1.549,-0.678 -1.549,-1.549 l 0,-16.02 c 0,-0.871 0.677,-1.548 1.549,-1.548 z"
         id="path167"
         inkscape:connector-curvature="0"
         style="fill:#f4f4f4" /><path
         d="m 80.588,190.956 c -1.795,0 -3.284,1.461 -3.284,3.258 l 0,16.02 c 0,1.796 1.489,3.258 3.284,3.258 l 22.027,0 c 1.49,0 2.708,-1.032 3.097,-2.403 l 0.187,0 0,-0.854 0,-16.02 c 0,-1.796 -1.487,-3.258 -3.284,-3.258 l -22.027,0 0,-0.001 z m 0,1.709 22.027,0 c 0.873,0 1.575,0.677 1.575,1.549 l 0,15.165 0,0.854 c 0,0.873 -0.702,1.549 -1.575,1.549 l -22.027,0 c -0.871,0 -1.575,-0.678 -1.575,-1.549 l 0,-16.02 c 0,-0.872 0.704,-1.548 1.575,-1.548 z"
         id="path169"
         inkscape:connector-curvature="0"
         style="fill:#f4f4f4" /><path
         d="m 110.491,190.956 c -1.795,0 -3.284,1.461 -3.284,3.258 l 0,16.02 c 0,1.796 1.488,3.258 3.284,3.258 l 15.993,0 c 1.796,0 3.284,-1.462 3.284,-3.258 l 0,-16.02 c 0,-1.796 -1.487,-3.258 -3.284,-3.258 l -15.993,0 z m 0,1.709 15.993,0 c 0.873,0 1.575,0.677 1.575,1.549 l 0,16.02 c 0,0.873 -0.702,1.549 -1.575,1.549 l -15.993,0 c -0.873,0 -1.575,-0.677 -1.575,-1.549 l 0,-16.02 c 0,-0.873 0.703,-1.549 1.575,-1.549 z"
         id="path171"
         inkscape:connector-curvature="0"
         style="fill:#f4f4f4" /><path
         d="m 134.363,190.956 c -1.795,0 -3.257,1.461 -3.257,3.258 l 0,16.02 c 0,1.796 1.461,3.258 3.257,3.258 l 15.993,0 c 1.796,0 3.284,-1.462 3.284,-3.258 l 0,-16.02 c 0,-1.796 -1.487,-3.258 -3.284,-3.258 l -15.993,0 z m 0,1.709 15.993,0 c 0.873,0 1.575,0.677 1.575,1.549 l 0,16.02 c 0,0.873 -0.702,1.549 -1.575,1.549 l -15.993,0 c -0.873,0 -1.548,-0.677 -1.548,-1.549 l 0,-16.02 c 0,-0.873 0.676,-1.549 1.548,-1.549 z"
         id="path173"
         inkscape:connector-curvature="0"
         style="fill:#f4f4f4" /><path
         d="m 158.226,190.956 c -1.796,0 -3.257,1.462 -3.257,3.258 l 0,16.02 c 0,1.795 1.461,3.258 3.257,3.258 l 16.02,0 c 1.796,0 3.257,-1.462 3.257,-3.258 l 0,-16.02 c 0,-1.796 -1.461,-3.258 -3.257,-3.258 l -16.02,0 z m 0,1.709 16.02,0 c 0.873,0 1.548,0.677 1.548,1.549 l 0,16.02 c 0,0.873 -0.675,1.549 -1.548,1.549 l -16.02,0 c -0.873,0 -1.548,-0.676 -1.548,-1.549 l 0,-16.02 c 0,-0.874 0.675,-1.549 1.548,-1.549 z"
         id="path175"
         inkscape:connector-curvature="0"
         style="fill:#f4f4f4" /><path
         d="m 182.097,190.956 c -1.795,0 -3.257,1.461 -3.257,3.258 l 0,16.02 c 0,1.796 1.461,3.258 3.257,3.258 l 16.02,0 c 1.796,0 3.258,-1.462 3.258,-3.258 l 0,-16.02 c 0,-1.796 -1.461,-3.258 -3.258,-3.258 l -16.02,0 z m 0,1.709 16.02,0 c 0.875,0 1.549,0.676 1.549,1.549 l 0,16.02 c 0,0.873 -0.675,1.549 -1.549,1.549 l -16.02,0 c -0.873,0 -1.548,-0.677 -1.548,-1.549 l 0,-16.02 c 0,-0.873 0.676,-1.549 1.548,-1.549 z"
         id="path177"
         inkscape:connector-curvature="0"
         style="fill:#f4f4f4" /><path
         d="m 205.994,190.956 c -1.796,0 -3.284,1.462 -3.284,3.258 l 0,16.02 c 0,1.795 1.487,3.258 3.284,3.258 l 15.993,0 c 1.796,0 3.257,-1.462 3.257,-3.258 l 0,-16.02 c 0,-1.796 -1.461,-3.258 -3.257,-3.258 l -15.993,0 z m 0,1.709 15.993,0 c 0.873,0 1.548,0.677 1.548,1.549 l 0,16.02 c 0,0.873 -0.675,1.549 -1.548,1.549 l -15.993,0 c -0.874,0 -1.575,-0.676 -1.575,-1.549 l 0,-16.02 c 0,-0.874 0.701,-1.549 1.575,-1.549 z"
         id="path179"
         inkscape:connector-curvature="0"
         style="fill:#f4f4f4" /><path
         d="m 229.866,190.956 c -1.795,0 -3.284,1.461 -3.284,3.258 l 0,16.02 c 0,1.796 1.488,3.258 3.284,3.258 l 15.993,0 c 1.796,0 3.285,-1.462 3.285,-3.258 l 0,-16.02 c 0,-1.796 -1.488,-3.258 -3.285,-3.258 l -15.993,0 z m 0,1.709 15.993,0 c 0.873,0 1.576,0.676 1.576,1.549 l 0,16.02 c 0,0.873 -0.704,1.549 -1.576,1.549 l -15.993,0 c -0.873,0 -1.575,-0.677 -1.575,-1.549 l 0,-16.02 c 0,-0.873 0.703,-1.549 1.575,-1.549 z"
         id="path181"
         inkscape:connector-curvature="0"
         style="fill:#f4f4f4" /><path
         d="m 253.737,190.956 c -1.795,0 -3.257,1.461 -3.257,3.258 l 0,16.02 c 0,1.796 1.462,3.258 3.257,3.258 l 15.993,0 c 1.796,0 3.284,-1.462 3.284,-3.258 l 0,-16.02 c 0,-1.796 -1.487,-3.258 -3.284,-3.258 l -15.993,0 z m 0,1.709 15.993,0 c 0.873,0 1.575,0.677 1.575,1.549 l 0,16.02 c 0,0.873 -0.702,1.549 -1.575,1.549 l -15.993,0 c -0.872,0 -1.548,-0.678 -1.548,-1.549 l 0,-16.02 c -0.001,-0.873 0.676,-1.549 1.548,-1.549 z"
         id="path183"
         inkscape:connector-curvature="0"
         style="fill:#f4f4f4" /><path
         d="m 277.6,190.956 c -1.795,0 -3.258,1.461 -3.258,3.258 l 0,16.02 c 0,1.796 1.462,3.258 3.258,3.258 l 15.993,0 c 1.796,0 3.284,-1.462 3.284,-3.258 l 0,-16.02 c 0,-1.796 -1.487,-3.258 -3.284,-3.258 l -15.993,0 z m 0,1.709 15.993,0 c 0.873,0 1.575,0.676 1.575,1.549 l 0,16.02 c 0,0.873 -0.703,1.549 -1.575,1.549 l -15.993,0 c -0.873,0 -1.549,-0.677 -1.549,-1.549 l 0,-16.02 c 0,-0.873 0.677,-1.549 1.549,-1.549 z"
         id="path185"
         inkscape:connector-curvature="0"
         style="fill:#f4f4f4" /><path
         d="m 301.472,190.956 c -1.796,0 -3.258,1.461 -3.258,3.258 l 0,16.02 c 0,1.796 1.461,3.258 3.258,3.258 l 16.02,0 c 1.795,0 3.257,-1.462 3.257,-3.258 l 0,-16.02 c 0,-1.796 -1.462,-3.258 -3.257,-3.258 l -16.02,0 z m 0,1.709 16.02,0 c 0.873,0 1.548,0.676 1.548,1.549 l 0,16.02 c 0,0.873 -0.677,1.549 -1.548,1.549 l -16.02,0 c -0.873,0 -1.549,-0.678 -1.549,-1.549 l 0,-16.02 c 0,-0.873 0.676,-1.549 1.549,-1.549 z"
         id="path187"
         inkscape:connector-curvature="0"
         style="fill:#f4f4f4" /><path
         d="m 325.343,190.956 c -1.796,0 -3.258,1.461 -3.258,3.258 l 0,16.02 c 0,1.796 1.462,3.258 3.258,3.258 l 16.019,0 c 1.797,0 3.259,-1.462 3.259,-3.258 l 0,-16.02 c 0,-1.796 -1.462,-3.258 -3.259,-3.258 l -16.019,0 z m 0,1.709 16.019,0 c 0.873,0 1.55,0.676 1.55,1.549 l 0,16.02 c 0,0.873 -0.677,1.549 -1.55,1.549 l -16.019,0 c -0.874,0 -1.55,-0.677 -1.55,-1.549 l 0,-16.02 c 0,-0.873 0.676,-1.549 1.55,-1.549 z"
         id="path189"
         inkscape:connector-curvature="0"
         style="fill:#f4f4f4" /><path
         d="m 349.24,190.956 c -1.796,0 -3.284,1.461 -3.284,3.258 l 0,16.02 c 0,1.796 1.486,3.258 3.284,3.258 l 15.993,0 c 1.794,0 3.258,-1.462 3.258,-3.258 l 0,-16.02 c 0,-1.796 -1.462,-3.258 -3.258,-3.258 l -15.993,0 z m 0,1.709 15.993,0 c 0.872,0 1.548,0.676 1.548,1.549 l 0,16.02 c 0,0.873 -0.677,1.549 -1.548,1.549 l -15.993,0 c -0.874,0 -1.576,-0.678 -1.576,-1.549 l 0,-16.02 c 0,-0.873 0.703,-1.549 1.576,-1.549 z"
         id="path191"
         inkscape:connector-curvature="0"
         style="fill:#f4f4f4" /><path
         d="m 373.103,190.956 c -1.795,0 -3.283,1.461 -3.283,3.258 l 0,16.02 c 0,1.796 1.486,3.258 3.283,3.258 l 15.993,0 c 1.794,0 3.284,-1.461 3.284,-3.258 l 0,-16.02 c 0,-1.796 -1.489,-3.258 -3.284,-3.258 l -15.993,0 z m 0,1.709 15.993,0 c 0.873,0 1.575,0.677 1.575,1.549 l 0,16.02 c 0,0.873 -0.704,1.549 -1.575,1.549 l -15.993,0 c -0.874,0 -1.577,-0.677 -1.577,-1.549 l 0,-16.02 c -0.001,-0.873 0.704,-1.549 1.577,-1.549 z"
         id="path193"
         inkscape:connector-curvature="0"
         style="fill:#f4f4f4" /><path
         d="m 396.974,190.956 c -1.796,0 -3.257,1.461 -3.257,3.258 l 0,16.02 c 0,1.796 1.46,3.258 3.257,3.258 l 28.488,0 c 1.794,0 3.258,-1.462 3.258,-3.258 l 0,-16.02 c 0,-1.796 -1.462,-3.258 -3.258,-3.258 l -28.488,0 z m 0,1.709 28.488,0 c 0.873,0 1.549,0.676 1.549,1.549 l 0,16.02 c 0,0.873 -0.677,1.549 -1.549,1.549 l -28.488,0 c -0.872,0 -1.548,-0.677 -1.548,-1.549 l 0,-16.02 c 0,-0.873 0.676,-1.549 1.548,-1.549 z"
         id="path195"
         inkscape:connector-curvature="0"
         style="fill:#f4f4f4" /><path
         d="m 96.767,131.953 c -1.796,0 -3.257,1.461 -3.257,3.257 l 0,16.02 c 0,1.795 1.461,3.257 3.257,3.257 l 25.685,0 c 1.794,0 3.257,-1.461 3.257,-3.257 l 0,-16.02 c 0,-1.796 -1.462,-3.257 -3.257,-3.257 l -25.685,0 z m 0,1.71 25.685,0 c 0.871,0 1.548,0.675 1.548,1.548 l 0,16.02 c 0,0.873 -0.677,1.549 -1.548,1.549 l -25.685,0 c -0.873,0 -1.548,-0.676 -1.548,-1.549 l 0,-16.02 c 0,-0.874 0.676,-1.548 1.548,-1.548 z"
         id="path197"
         inkscape:connector-curvature="0"
         style="fill:#f4f4f4" /><path
         d="m 131.93,131.953 c -1.796,0 -3.284,1.461 -3.284,3.257 l 0,16.02 c 0,1.794 1.488,3.257 3.284,3.257 l 25.658,0 c 1.795,0 3.284,-1.461 3.284,-3.257 l 0,-16.02 c 0,-1.796 -1.489,-3.257 -3.284,-3.257 l -25.658,0 z m 0,1.71 25.658,0 c 0.871,0 1.575,0.675 1.575,1.548 l 0,16.02 c 0,0.873 -0.704,1.549 -1.575,1.549 l -25.658,0 c -0.873,0 -1.576,-0.676 -1.576,-1.549 l 0,-16.02 c 0,-0.874 0.704,-1.548 1.576,-1.548 z"
         id="path199"
         inkscape:connector-curvature="0"
         style="fill:#f4f4f4" /><path
         d="m 167.069,131.953 c -1.796,0 -3.257,1.462 -3.257,3.257 l 0,16.02 c 0,1.794 1.46,3.257 3.257,3.257 l 25.684,0 c 1.795,0 3.257,-1.461 3.257,-3.257 l 0,-16.02 c 0,-1.796 -1.462,-3.257 -3.257,-3.257 l -25.684,0 z m 0,1.71 25.684,0 c 0.872,0 1.548,0.675 1.548,1.548 l 0,16.02 c 0,0.873 -0.677,1.549 -1.548,1.549 l -25.684,0 c -0.874,0 -1.549,-0.676 -1.549,-1.549 l 0,-16.02 c 10e-4,-0.875 0.677,-1.548 1.549,-1.548 z"
         id="path201"
         inkscape:connector-curvature="0"
         style="fill:#f4f4f4" /><path
         d="m 202.227,131.953 c -1.796,0 -3.285,1.462 -3.285,3.257 l 0,16.02 c 0,1.794 1.488,3.257 3.285,3.257 l 25.657,0 c 1.796,0 3.285,-1.461 3.285,-3.257 l 0,-0.854 0,-15.166 c 0,-1.796 -1.489,-3.257 -3.285,-3.257 l -25.657,0 z m 0,1.71 25.657,0 c 0.872,0 1.576,0.675 1.576,1.548 l 0,16.02 c 0,0.873 -0.703,1.549 -1.576,1.549 l -25.657,0 c -0.874,0 -1.576,-0.676 -1.576,-1.549 l 0,-16.02 c 0,-0.875 0.703,-1.548 1.576,-1.548 z"
         id="path203"
         inkscape:connector-curvature="0"
         style="fill:#f4f4f4" /><path
         d="m 237.367,131.953 c -1.795,0 -3.257,1.461 -3.257,3.257 l 0,16.02 c 0,1.794 1.461,3.257 3.257,3.257 l 25.685,0 c 1.795,0 3.257,-1.461 3.257,-3.257 l 0,-16.02 c 0,-1.795 -1.461,-3.257 -3.257,-3.257 l -25.685,0 z m 0,1.71 25.685,0 c 0.873,0 1.548,0.674 1.548,1.548 l 0,16.02 c 0,0.873 -0.676,1.549 -1.548,1.549 l -25.685,0 c -0.872,0 -1.548,-0.676 -1.548,-1.549 l 0,-16.02 c -10e-4,-0.874 0.676,-1.548 1.548,-1.548 z"
         id="path205"
         inkscape:connector-curvature="0"
         style="fill:#f4f4f4" /><path
         d="m 361.919,131.953 c -1.795,0 -3.283,1.461 -3.283,3.257 l 0,16.02 c 0,1.796 1.488,3.257 3.283,3.257 l 25.657,0 c 1.797,0 3.257,-1.461 3.257,-3.257 l 0,-16.02 c 0,-1.795 -1.46,-3.257 -3.257,-3.257 l -25.657,0 z m 0,1.71 25.657,0 c 0.874,0 1.548,0.674 1.548,1.548 l 0,16.02 c 0,0.873 -0.674,1.549 -1.548,1.549 l -25.657,0 c -0.871,0 -1.575,-0.676 -1.575,-1.549 l 0,-16.02 c 0,-0.873 0.704,-1.548 1.575,-1.548 z"
         id="path207"
         inkscape:connector-curvature="0"
         style="fill:#f4f4f4" /><path
         d="m 397.05,131.953 c -1.795,0 -3.257,1.461 -3.257,3.257 l 0,16.02 c 0,1.796 1.462,3.257 3.257,3.257 l 25.684,0 c 1.796,0 3.258,-1.461 3.258,-3.257 l 0,-16.02 c 0,-1.794 -1.46,-3.257 -3.258,-3.257 l -25.684,0 z m 0,1.71 25.684,0 c 0.873,0 1.549,0.674 1.549,1.548 l 0,16.02 c 0,0.873 -0.676,1.549 -1.549,1.549 l -25.684,0 c -0.872,0 -1.548,-0.676 -1.548,-1.549 l 0,-16.02 c 0,-0.873 0.678,-1.548 1.548,-1.548 z"
         id="path209"
         inkscape:connector-curvature="0"
         style="fill:#f4f4f4" /><path
         d="m 486.845,184.549 c -3.623,0 -7.254,1.384 -10.013,4.135 l -24.675,24.675 c -5.514,5.513 -5.514,14.481 0,19.997 l 24.296,24.271 c 5.516,5.516 14.484,5.513 19.998,0 l 24.671,-24.671 c 5.507,-5.506 5.515,-14.453 0.026,-19.972 l -0.026,-0.026 -24.297,-24.269 c -2.757,-2.758 -6.365,-4.139 -9.986,-4.139 l 0.006,-0.001 z m 0,1.682 c 3.181,0 6.354,1.228 8.784,3.657 l 24.297,24.297 c 4.862,4.862 4.862,12.706 0,17.568 l -24.671,24.669 c -4.861,4.862 -12.707,4.864 -17.567,0 l -24.296,-24.296 c -4.862,-4.862 -4.86,-12.709 0,-17.567 l 24.669,-24.671 c 2.431,-2.431 5.604,-3.657 8.784,-3.657 z"
         id="path211"
         inkscape:connector-curvature="0"
         style="fill:#f4f4f4" /><g
         id="g213"><path
           d="m 486.657,185.882 c -3.104,0 -6.207,1.187 -8.569,3.551 l -12.202,12.201 -0.16,0.16 -0.454,0.427 0.026,0.027 -0.16,0.133 -12.201,12.201 c -4.728,4.729 -4.728,12.413 0,17.142 l 12.201,12.201 0.16,0.134 -0.026,0.026 0.454,0.427 0.16,0.16 12.202,12.201 c 4.727,4.729 12.413,4.729 17.141,0 l 12.199,-12.201 0.16,-0.16 0.428,-0.427 0.16,-0.16 12.202,-12.201 c 4.728,-4.728 4.728,-12.412 0,-17.14 l -12.202,-12.202 -0.16,-0.16 -0.428,-0.427 -0.16,-0.161 -12.199,-12.199 c -2.364,-2.364 -5.467,-3.551 -8.571,-3.551 l 0,-0.002 z m 0,1.709 c 2.664,0 5.332,1.007 7.369,3.044 l 11.586,11.585 -18.957,18.958 -18.955,-18.958 11.586,-11.585 c 2.038,-2.037 4.705,-3.044 7.369,-3.044 l 0.002,0 z m -20.931,16.607 18.957,18.956 -18.957,18.957 -11.588,-11.587 c -4.073,-4.075 -4.073,-10.662 0,-14.738 l 11.586,-11.594 0.002,0.006 z m 41.864,0 11.586,11.587 c 4.075,4.074 4.075,10.662 0,14.738 l -11.584,11.593 -18.96,-18.959 18.96,-18.957 -0.002,-0.002 z m -20.933,20.906 18.957,18.983 -11.588,11.586 c -4.073,4.077 -10.662,4.077 -14.738,0 l -11.594,-11.61 18.96,-18.959 0.003,0 z"
           id="path215"
           inkscape:connector-curvature="0"
           style="fill:#f4f4f4" /></g><path
         d="m 451.628,182.438 c -3.129,0 -5.687,2.558 -5.687,5.687 l 0,70.061 c 0,3.129 2.558,5.687 5.687,5.687 l 70.059,0 c 3.132,0 5.687,-2.558 5.687,-5.687 l 0,-70.061 c 0,-3.129 -2.555,-5.687 -5.687,-5.687 l -70.059,0 z m 0,1.708 70.059,0 c 2.207,0 3.979,1.772 3.979,3.978 l 0,70.061 c 0,2.206 -1.771,3.979 -3.979,3.979 l -70.059,0 c -2.204,0 -3.979,-1.773 -3.979,-3.979 l 0,-70.061 c 0,-2.205 1.775,-3.978 3.979,-3.978 l 0,0 z"
         id="path217"
         inkscape:connector-curvature="0"
         style="fill:#f4f4f4" /><path
         d="m 77.25,137.584 c -0.908,0 -1.655,0.75 -1.655,1.656 l 0,6.968 c 0,0.905 0.749,1.682 1.655,1.682 l 9.131,0 c 0.907,0 1.655,-0.776 1.655,-1.682 l 0,-6.968 c 0,-0.906 -0.748,-1.656 -1.655,-1.656 l -9.131,0 z m 0.053,1.709 9.024,0 0,6.889 -9.024,0 0,-6.889 z"
         id="path219"
         inkscape:connector-curvature="0"
         style="fill:#f4f4f4" /><path
         d="m 68.119,222.653 c -0.906,0 -1.655,0.776 -1.655,1.683 l 0,2.67 c 0,0.905 0.75,1.655 1.655,1.655 l 7.796,0 c 0.905,0 1.655,-0.747 1.655,-1.655 l 0,-2.67 c 0,-0.907 -0.748,-1.683 -1.655,-1.683 l -7.796,0 z"
         id="path221"
         inkscape:connector-curvature="0"
         style="fill:#f4f4f4" /><path
         d="m 431.789,222.653 c -0.906,0 -1.656,0.776 -1.656,1.683 l 0,2.67 c 0,0.905 0.751,1.655 1.656,1.655 l 7.769,0 c 0.906,0 1.656,-0.747 1.656,-1.655 l 0,-2.67 c 0,-0.906 -0.748,-1.683 -1.656,-1.683 l -7.769,0 z"
         id="path223"
         inkscape:connector-curvature="0"
         style="fill:#f4f4f4" /><path
         d="m 51.779,110.594 0,4.486 1.709,0 0,-4.486 -1.709,0 z"
         id="line233"
         inkscape:connector-curvature="0"
         style="fill:#f4f4f4" /><path
         d="m 543.927,110.329 0,4.699 1.709,0 0,-4.699 -1.709,0 z"
         id="line235"
         inkscape:connector-curvature="0"
         style="fill:#f4f4f4" /><path
         d="m 369.42,44.779 c -0.906,0 -1.655,0.775 -1.655,1.682 l 0,14.178 c 0,0.906 0.749,1.655 1.655,1.655 l 0.508,0 c 0.905,0 1.654,-0.75 1.654,-1.655 l 0,-14.178 c 0,-0.905 -0.749,-1.682 -1.654,-1.682 l -0.508,0 z m 0.054,1.709 0.4,0 0,14.098 -0.4,0 0,-14.098 z"
         id="path237"
         inkscape:connector-curvature="0"
         style="fill:#f4f4f4" /><path
         d="m 474.294,44.779 c -0.906,0 -1.655,0.777 -1.655,1.682 l 0,14.178 c 0,0.905 0.749,1.655 1.655,1.655 l 0.508,0 c 0.906,0 1.655,-0.749 1.655,-1.655 l 0,-14.178 c 0,-0.906 -0.749,-1.682 -1.655,-1.682 l -0.508,0 z m 0.054,1.709 0.4,0 0,14.098 -0.4,0 0,-14.098 z"
         id="path239"
         inkscape:connector-curvature="0"
         style="fill:#f4f4f4" /></g></g></svg>