<?xml version="1.0" encoding="UTF-8" standalone="no"?>
<!-- Generator: Adobe Illustrator 13.0.0, SVG Export Plug-In . SVG Version: 6.00 Build 14948)  -->

<svg
   xmlns:ns="&amp;ns_sfw;"
   xmlns:dc="http://purl.org/dc/elements/1.1/"
   xmlns:cc="http://creativecommons.org/ns#"
   xmlns:rdf="http://www.w3.org/1999/02/22-rdf-syntax-ns#"
   xmlns:svg="http://www.w3.org/2000/svg"
   xmlns="http://www.w3.org/2000/svg"
   xmlns:sodipodi="http://sodipodi.sourceforge.net/DTD/sodipodi-0.dtd"
   xmlns:inkscape="http://www.inkscape.org/namespaces/inkscape"
   version="1.2"
   id="Ebene_2"
   x="0px"
   y="0px"
   width="566.928px"
   height="234.744px"
   viewBox="-0.463 -70.905 566.928 234.744"
   xml:space="preserve"
   inkscape:version="0.91 r13725"
   sodipodi:docname="system.svg"><defs
     id="defs9" /><sodipodi:namedview
     pagecolor="#ffffff"
     bordercolor="#666666"
     borderopacity="1"
     objecttolerance="10"
     gridtolerance="10"
     guidetolerance="10"
     inkscape:pageopacity="0"
     inkscape:pageshadow="2"
     inkscape:window-width="1366"
     inkscape:window-height="689"
     id="namedview7"
     showgrid="false"
     inkscape:zoom="0.77787659"
     inkscape:cx="283.46399"
     inkscape:cy="271.63812"
     inkscape:window-x="1911"
     inkscape:window-y="1063"
     inkscape:window-maximized="1"
     inkscape:current-layer="Ebene_2" /><metadata
     id="metadata3"><ns:sfw><ns:slices /><ns:sliceSourceBounds
         x="676.572"
         y="422.128"
         width="566.928"
         height="234.744"
         bottomLeftOrigin="true" /></ns:sfw><rdf:RDF><cc:Work
         rdf:about=""><dc:format>image/svg+xml</dc:format><dc:type
           rdf:resource="http://purl.org/dc/dcmitype/StillImage" /></cc:Work></rdf:RDF></metadata><rect
     id="rect3604"
     x="-0.463"
     y="-70.905"
     fill="#003E99"
     width="566.928"
     height="234.744" /><path
     id="path2830"
     sodipodi:nodetypes="cccccccccccccccccccccccccccccccccccc"
     d="m 34.727,130.562 43.064,-169.511 39.932,0 20.749,73.991 21.531,-73.991 37.583,0 35.233,124.883 85.965,-0.162 c 9.022,-0.088 9.577,-18.748 -0.669,-18.744 L 268.052,66.36 c -21.497,0.207 -44.167,-23.05 -43.063,-54.023 0.229,-28.412 25.004,-50.786 56.698,-50.778 l 127.689,-0.114 32.494,44.238 31.709,-44.629 52.85,0.392 -57.938,81.428 62.637,88.292 -52.572,-0.16 L 442.1,80.342 407.419,131.004 353.786,130.955 414.858,43.656 388.236,4.899 277.237,5.061 c -12.114,0.111 -11.669,19.169 0.095,18.812 l 46.769,0.716 c 19.767,0.127 47.604,20.668 46.91,52.735 0.301,37.279 -33.274,54.313 -49.44,53.401 l -122.419,0.163 -20.357,-76.271 -20.357,76.108 -38.644,0 L 98.539,55.007 79.862,130.84 34.727,130.562 Z"
     inkscape:connector-curvature="0"
     style="fill:#ffffff" /></svg>