<?xml version="1.0" encoding="UTF-8" standalone="no"?>
<!-- Generator: Adobe Illustrator 13.0.0, SVG Export Plug-In . SVG Version: 6.00 Build 14948)  -->

<svg
   xmlns:dc="http://purl.org/dc/elements/1.1/"
   xmlns:cc="http://creativecommons.org/ns#"
   xmlns:rdf="http://www.w3.org/1999/02/22-rdf-syntax-ns#"
   xmlns:svg="http://www.w3.org/2000/svg"
   xmlns="http://www.w3.org/2000/svg"
   xmlns:sodipodi="http://sodipodi.sourceforge.net/DTD/sodipodi-0.dtd"
   xmlns:inkscape="http://www.inkscape.org/namespaces/inkscape"
   version="1.1"
   id="Layer_2"
   x="0px"
   y="0px"
   width="550"
   height="550"
   viewBox="0 0 549.99995 549.99999"
   enable-background="new 0 0 598.189 350.26"
   xml:space="preserve"
   inkscape:version="0.91 r13725"
   sodipodi:docname="controller_gg.svg"><metadata
     id="metadata3083"><rdf:RDF><cc:Work
         rdf:about=""><dc:format>image/svg+xml</dc:format><dc:type
           rdf:resource="http://purl.org/dc/dcmitype/StillImage" /><dc:title></dc:title></cc:Work></rdf:RDF></metadata><defs
     id="defs3081" /><sodipodi:namedview
     pagecolor="#ffffff"
     bordercolor="#666666"
     borderopacity="1"
     objecttolerance="10"
     gridtolerance="10"
     guidetolerance="10"
     inkscape:pageopacity="0"
     inkscape:pageshadow="2"
     inkscape:window-width="1920"
     inkscape:window-height="1001"
     id="namedview3079"
     showgrid="false"
     inkscape:zoom="1.0799262"
     inkscape:cx="286.73678"
     inkscape:cy="382.70167"
     inkscape:window-x="-9"
     inkscape:window-y="-9"
     inkscape:window-maximized="1"
     inkscape:current-layer="layer4"
     showguides="true"
     inkscape:guide-bbox="true" /><g
     inkscape:groupmode="layer"
     id="layer2"
     inkscape:label="Screen_Rect"
     style="display:none"
     transform="translate(0,199.73999)"
     sodipodi:insensitive="true"><path
       style="fill:#0000ff;stroke:#000000;stroke-width:1px;stroke-linecap:butt;stroke-linejoin:miter;stroke-opacity:1"
       d="M 5.0135033,547.22203 136.4109,114.39023 653.54628,-189.09358 406.482,260.92121 Z"
       id="path3021"
       inkscape:connector-curvature="0"
       transform="translate(-2e-5,-199.73999)"
       sodipodi:nodetypes="ccccc" /><rect
       style="opacity:0.60100002;fill:#d8201f;fill-opacity:1;stroke:#ff8080;stroke-width:2.45114732;stroke-linecap:round;stroke-linejoin:round;stroke-miterlimit:4;stroke-dasharray:none;stroke-opacity:1"
       id="rect4230"
       width="444.2457"
       height="9.9567661"
       x="145.95099"
       y="-211.30678" /></g><g
     inkscape:groupmode="layer"
     id="layer1"
     inkscape:label="Controller_Vorlage"
     style="display:none"
     sodipodi:insensitive="true"><g
       id="g4929"
       transform="translate(-0.929149,0.5695451)"><g
         transform="translate(0,199.73999)"
         style="display:none"
         inkscape:label="Layer2"
         id="layer2-9"><path
           sodipodi:nodetypes="ccccc"
           transform="translate(-2e-5,-199.73999)"
           inkscape:connector-curvature="0"
           id="path3021-0"
           d="M 5.0135033,547.22203 136.4109,114.39023 653.54628,-189.09358 406.482,260.92121 Z"
           style="fill:#ffffff;stroke:#000000;stroke-width:1px;stroke-linecap:butt;stroke-linejoin:miter;stroke-opacity:1" /></g><g
         inkscape:label="Layer"
         id="layer1-2"><g
           transform="matrix(0.55322035,-0.3970343,-0.34863416,0.85569517,173.63773,166.52161)"
           id="g3100"><path
             style="fill:#f4f4f4"
             inkscape:connector-curvature="0"
             id="path3"
             d="m 148.05,114.447 c -23.656,0 -42.861,19.204 -42.861,42.861 l 0,37.414 c 0,23.658 19.205,42.86 42.861,42.86 l 38.694,0 c 23.656,0 42.861,-19.202 42.861,-42.86 l 0,-37.414 c 0,-23.657 -19.205,-42.861 -42.861,-42.861 l -38.694,0 z m 0,1.905 38.694,0 c 22.627,0 40.956,18.328 40.956,40.956 l 0,37.414 c 0,22.629 -18.329,40.956 -40.956,40.956 l -38.694,0 c -22.628,0 -40.956,-18.327 -40.956,-40.956 l 0,-37.414 c 0,-22.629 18.328,-40.956 40.956,-40.956 z" /><path
             style="fill:#f4f4f4"
             inkscape:connector-curvature="0"
             id="path5"
             d="m 167.395,123.168 c -3.23,0 -5.863,2.633 -5.863,5.864 l 0,13.037 c 0,3.23 2.632,5.863 5.863,5.863 3.23,0 5.863,-2.633 5.863,-5.863 l 0,-13.037 c 0,-3.23 -2.633,-5.864 -5.863,-5.864 z m 0,1.906 c 2.201,0 3.958,1.758 3.958,3.958 l 0,13.037 c 0,2.2 -1.758,3.958 -3.958,3.958 -2.202,0 -3.958,-1.758 -3.958,-3.958 l 0,-13.037 c -0.001,-2.2 1.757,-3.958 3.958,-3.958 z" /><path
             style="fill:#f4f4f4"
             inkscape:connector-curvature="0"
             id="path7"
             d="m 120.425,170.135 c -3.23,0 -5.864,2.633 -5.864,5.864 0,3.231 2.632,5.894 5.864,5.894 l 13.037,0 c 3.229,0 5.864,-2.662 5.864,-5.894 0,-3.229 -2.633,-5.864 -5.864,-5.864 l -13.037,0 z m 0,1.905 13.037,0 c 2.201,0 3.959,1.759 3.959,3.959 0,2.201 -1.759,3.988 -3.959,3.988 l -13.037,0 c -2.198,-0.01 -3.955,-1.791 -3.955,-3.99 0,-2.201 1.758,-3.959 3.958,-3.959 l -0.003,0.002 z" /><path
             style="fill:#f4f4f4"
             inkscape:connector-curvature="0"
             id="path9"
             d="m 167.395,204.071 c -3.23,0 -5.863,2.663 -5.863,5.894 l 0,13.038 c 0,3.229 2.632,5.863 5.863,5.863 3.23,0 5.863,-2.633 5.863,-5.863 l 0,-13.038 c 0,-3.23 -2.633,-5.894 -5.863,-5.894 z m 0,1.906 c 2.201,0 3.958,1.789 3.958,3.988 l 0,13.038 c 0,2.2 -1.757,3.958 -3.958,3.958 -2.202,0 -3.958,-1.759 -3.958,-3.958 l 0,-13.038 c -0.001,-2.2 1.757,-3.988 3.958,-3.988 z" /><path
             style="fill:#f4f4f4"
             inkscape:connector-curvature="0"
             id="path11"
             d="m 201.321,170.135 c -3.229,0 -5.863,2.633 -5.863,5.864 0,3.231 2.633,5.894 5.863,5.894 l 13.067,0 c 3.229,0 5.863,-2.662 5.863,-5.894 0,-3.229 -2.633,-5.864 -5.863,-5.864 l -13.067,0 z m 0,1.905 13.067,0 c 2.2,0 3.958,1.76 3.958,3.959 0,2.201 -1.758,3.988 -3.958,3.988 l -13.067,0 c -2.2,0 -3.958,-1.788 -3.958,-3.988 0,-2.2 1.759,-3.959 3.958,-3.959 z" /><path
             style="fill:#f4f4f4"
             inkscape:connector-curvature="0"
             id="polygon13"
             d="m 133.878,141.176 -1.31,1.31 8.155,12.025 0.655,0.952 0.804,-0.803 3.869,-3.87 0.804,-0.804 -0.953,-0.655 -12.024,-8.155 z" /><path
             style="fill:#f4f4f4"
             inkscape:connector-curvature="0"
             id="polygon15"
             d="m 141.383,196.566 -0.654,0.952 -8.156,12.024 1.31,1.31 12.025,-8.155 0.953,-0.654 -0.804,-0.804 -3.87,-3.869 -0.804,-0.804 z" /><path
             style="fill:#f4f4f4"
             inkscape:connector-curvature="0"
             id="polygon17"
             d="m 193.435,196.566 -0.804,0.804 -3.869,3.869 -0.833,0.804 0.953,0.654 12.025,8.155 1.339,-1.31 -8.156,-12.024 -0.655,-0.952 0,0 z" /><path
             style="fill:#f4f4f4"
             inkscape:connector-curvature="0"
             id="polygon19"
             d="m 200.912,141.176 -12.025,8.155 -0.953,0.655 0.833,0.804 3.87,3.87 0.804,0.803 0.655,-0.952 8.155,-12.025 -1.339,-1.31 z" /><path
             style="fill:#f4f4f4"
             inkscape:connector-curvature="0"
             id="path21"
             d="m 146.354,104.833 c -27.67,0 -50.123,22.453 -50.123,50.124 l 0,42.117 c 0,27.671 22.453,50.123 50.123,50.123 l 42.117,0 c 27.671,0 50.124,-22.452 50.124,-50.123 l 0,-42.117 c 0,-27.67 -22.452,-50.124 -50.124,-50.124 l -42.117,0 z m 0,1.906 42.117,0 c 26.644,0 48.219,21.577 48.219,48.218 l 0,42.117 c 0,26.644 -21.577,48.218 -48.219,48.218 l -42.117,0 c -26.642,0 -48.218,-21.574 -48.218,-48.218 l 0,-42.117 c 0,-26.642 21.577,-48.218 48.218,-48.218 z" /><path
             style="fill:#f4f4f4"
             inkscape:connector-curvature="0"
             id="polygon23"
             d="m 69.499,75.694 0,0.952 0,202.961 0,0.952 0.953,0 196.122,0 0.952,0 0,-0.952 0,-26.401 289.521,0 0.952,0 0,-0.952 0,-113.458 0,-0.953 -0.952,0 -289.522,0 0,-61.196 0,-0.952 -0.952,0 -196.122,0 -0.952,-10e-4 0,0 z m 1.904,1.905 194.217,0 0,61.196 0,0.953 0.953,0 0.714,0 288.807,0 0,111.552 -289.226,0 -0.297,0 -0.953,0 0,0.953 0,26.4 -194.217,0 0,-201.055 0.002,0.001 z" /><path
             style="fill:#f4f4f4"
             inkscape:connector-curvature="0"
             id="circle25"
             d="m 400.692,169.126 c -19.762,0 -35.777,16.046 -35.777,35.807 0,19.761 16.018,35.807 35.777,35.807 19.759,0 35.807,-16.046 35.807,-35.807 0,-19.761 -16.047,-35.807 -35.807,-35.807 l 0,0 z m 0,1.905 c 18.73,0 33.901,15.17 33.901,33.902 0,18.732 -15.171,33.902 -33.901,33.902 -18.731,0 -33.872,-15.171 -33.872,-33.902 0,-18.731 15.141,-33.902 33.872,-33.902 l 0,0 z" /><path
             style="fill:#f4f4f4"
             inkscape:connector-curvature="0"
             id="circle27"
             d="m 400.692,177.669 c -15.039,0 -27.234,12.227 -27.234,27.265 0,15.038 12.195,27.234 27.234,27.234 15.036,0 27.264,-12.196 27.264,-27.234 0,-15.038 -12.227,-27.265 -27.264,-27.265 z m 0,1.905 c 14.008,0 25.359,11.351 25.359,25.359 0,14.008 -11.352,25.33 -25.359,25.33 -14.01,0 -25.33,-11.321 -25.33,-25.33 0,-14.009 11.321,-25.359 25.33,-25.359 z" /><path
             style="fill:#f4f4f4"
             inkscape:connector-curvature="0"
             id="circle29"
             d="m 489.919,169.126 c -19.762,0 -35.807,16.046 -35.807,35.807 0,19.761 16.045,35.807 35.807,35.807 19.76,0 35.807,-16.046 35.807,-35.807 0,-19.761 -16.047,-35.807 -35.807,-35.807 l 0,0 z m 0,1.905 c 18.73,0 33.901,15.17 33.901,33.902 0,18.732 -15.171,33.902 -33.901,33.902 -18.731,0 -33.902,-15.171 -33.902,-33.902 0,-18.731 15.171,-33.902 33.902,-33.902 l 0,0 z" /><path
             style="fill:#f4f4f4"
             inkscape:connector-curvature="0"
             id="circle31"
             d="m 489.919,177.669 c -15.039,0 -27.234,12.227 -27.234,27.265 0,15.038 12.195,27.234 27.234,27.234 15.036,0 27.234,-12.196 27.234,-27.234 0,-15.038 -12.196,-27.265 -27.234,-27.265 z m 0,1.905 c 14.008,0 25.329,11.351 25.329,25.359 0,14.008 -11.321,25.33 -25.329,25.33 -14.01,0 -25.33,-11.321 -25.33,-25.33 0,-14.009 11.32,-25.359 25.33,-25.359 z" /><path
             style="fill:#f4f4f4"
             inkscape:connector-curvature="0"
             id="path33"
             d="m 39.406,68.432 c -4.766,0 -8.662,3.896 -8.662,8.662 l 0,203.084 c 0,4.766 3.897,8.661 8.662,8.661 l 518.646,0 c 4.429,0 7.956,-3.411 8.453,-7.709 l 0.179,0 0,-0.952 0,-203.085 c 0,-4.762 -3.868,-8.658 -8.64,-8.658 l -518.645,0 0.007,-0.003 z m 0,1.904 518.646,0 c 3.737,0 6.727,3.021 6.727,6.757 l 0,202.131 0,0.953 c 0,3.736 -2.989,6.756 -6.727,6.756 l -518.646,0 c -3.732,0.01 -6.753,-3.019 -6.753,-6.753 l 0,-203.083 c 0,-3.736 3.02,-6.756 6.756,-6.756 l -0.003,-0.005 z" /><path
             style="fill:#f4f4f4"
             inkscape:connector-curvature="0"
             id="rect35"
             d="m 359.021,163.559 0,0.953 0,81.465 0,0.952 0.953,0 81.465,0 0.953,0 0,-0.952 0,-81.465 0,-0.953 -0.953,0 -81.465,0 -0.953,0 z m 1.906,1.905 79.561,0 0,79.56 -79.561,0 0,-79.56 z" /><path
             style="fill:#f4f4f4"
             inkscape:connector-curvature="0"
             id="rect37"
             d="m 448.248,163.559 0,0.953 0,81.465 0,0.952 0.953,0 81.436,0 0.952,0 0,-0.952 0,-81.465 0,-0.953 -0.952,0 -81.436,0 -0.953,0 z m 1.905,1.905 79.531,0 0,79.56 -79.531,0 0,-79.56 z" /><path
             style="fill:#f4f4f4"
             inkscape:connector-curvature="0"
             id="polyline39"
             d="m 83.934,94.177 0,2.292 0,159.061 0,2.322 1.607,-1.638 25.33,-25.299 -1.369,-1.369 -23.663,23.692 0,-154.45 23.663,23.658 1.369,-1.34 -25.33,-25.299 -1.607,-1.637 0,0.007 z" /><path
             style="fill:#f4f4f4"
             inkscape:connector-curvature="0"
             id="polyline41"
             d="m 222.305,232.551 -1.37,1.339 23.693,23.692 -154.452,0 23.574,-23.573 -1.369,-1.339 -25.181,25.182 -1.637,1.637 2.292,0 159.062,0 2.292,0 -1.607,-1.637 -25.299,-25.3 0.002,-0.001 z" /><path
             style="fill:#f4f4f4"
             inkscape:connector-curvature="0"
             id="polyline43"
             d="m 250.878,94.177 -1.637,1.637 -25.211,25.182 1.369,1.369 23.574,-23.603 0,154.509 -23.633,-23.663 -1.339,1.34 25.24,25.27 1.637,1.638 0,-2.322 0,-159.063 0,-2.292 0,-0.002 z" /><path
             style="fill:#f4f4f4"
             inkscape:connector-curvature="0"
             id="polyline45"
             d="m 85.57,92.54 1.638,1.608 25.21,25.24 1.339,-1.34 -23.572,-23.602 154.452,0 -23.669,23.662 1.333,1.339 25.307,-25.3 1.607,-1.607 -2.292,0 -159.062,0 -2.291,0 0,0 z" /><path
             style="fill:#f4f4f4"
             inkscape:connector-curvature="0"
             id="line47"
             d="m 58.961,69.533 0,218.057 1.905,0 0,-218.057 -1.905,0 z" /><path
             style="fill:#f4f4f4"
             inkscape:connector-curvature="0"
             id="rect49"
             d="m 359.021,145.819 0,0.953 0,13.244 0,0.953 0.953,0 81.465,0 0.953,0 0,-0.953 0,-13.244 0,-0.953 -0.953,0 -81.465,0 -0.953,0 z m 1.906,1.905 79.561,0 0,11.339 -79.561,0 0,-11.339 z" /><path
             style="fill:#f4f4f4"
             inkscape:connector-curvature="0"
             id="rect51"
             d="m 448.248,145.819 0,0.953 0,13.244 0,0.953 0.953,0 81.436,0 0.952,0 0,-0.953 0,-13.244 0,-0.953 -0.952,0 -81.436,0 -0.953,0 z m 1.905,1.905 79.531,0 0,11.339 -79.531,0 0,-11.339 z" /><path
             style="fill:#f4f4f4"
             inkscape:connector-curvature="0"
             id="path53"
             d="m 276.804,73.134 c -0.987,0 -1.815,0.828 -1.815,1.816 l 0,53.01 c 0,0.988 0.829,1.815 1.815,1.815 l 282.855,0 c 0.985,0 1.785,-0.831 1.785,-1.815 l 0,-50.033 c 0,-2.641 -2.152,-4.792 -4.792,-4.792 l -279.844,0 -0.004,0 z m 0.09,1.906 279.756,0 c 1.613,0 2.888,1.275 2.888,2.887 l 0,49.945 -282.643,0 0,-52.832 -10e-4,0 z" /><path
             style="fill:#f4f4f4"
             inkscape:connector-curvature="0"
             id="path55"
             d="m 276.804,260.41 c -0.987,0 -1.815,0.829 -1.815,1.815 l 0,20.091 c 0,0.987 0.829,1.816 1.815,1.816 l 279.844,0 c 2.64,0 4.792,-2.183 4.792,-4.822 l 0,-17.085 c 0,-0.985 -0.8,-1.815 -1.785,-1.815 l -282.855,0 0.004,0 z m 0.09,1.905 282.645,0 0,16.995 c 0,1.611 -1.276,2.917 -2.888,2.917 l -279.758,0 0.001,-19.912 0,0 z" /><path
             style="fill:#f4f4f4"
             inkscape:connector-curvature="0"
             id="line57"
             d="m 274.461,129.271 -6.28,6.28 1.369,1.339 6.251,-6.25 -1.34,-1.369 z" /><path
             style="fill:#f4f4f4"
             inkscape:connector-curvature="0"
             id="line59"
             d="m 269.546,253.866 -1.369,1.34 6.281,6.28 1.339,-1.369 -6.251,-6.251 z" /></g></g></g></g><g
     inkscape:groupmode="layer"
     id="layer4"
     inkscape:label="Controller"><g
       id="g9943"
       transform="matrix(0.73131803,-0.53569042,-0.3998622,0.92444699,138.43933,191.5265)"><path
         d="m 237.668,208.918 c -1.735,0 -3.158,1.424 -3.158,3.158 l 0,11.21 c 0,0.039 0.002,-0.002 0,0.021 l -11.23,0 c -1.735,0 -3.158,1.423 -3.158,3.158 l 0,12.066 c 0,1.735 1.423,3.158 3.158,3.158 l 11.23,0 c 0.004,0.031 0,-0.012 0,0.042 l 0,11.189 c 0,1.735 1.423,3.158 3.158,3.158 l 12.066,0 c 1.734,0 3.159,-1.423 3.159,-3.158 l 0,-11.189 c 0,-0.076 -0.005,-0.016 0,-0.042 l 11.229,0 c 1.736,0 3.159,-1.423 3.159,-3.158 l 0,-12.066 c 0,-1.735 -1.423,-3.158 -3.159,-3.158 l -11.209,0 c -0.032,0 0,0.003 -0.021,0 l 0,-11.23 c 0,-1.734 -1.424,-3.158 -3.158,-3.158 l -12.066,0 0,-0.001 z m 0,1.339 12.066,0 c 1.011,0 1.82,0.809 1.82,1.819 l 0,11.272 c 0,0.391 0.163,0.813 0.48,1.046 0.318,0.231 0.634,0.251 0.879,0.251 l 11.209,0 c 1.013,0 1.82,0.808 1.82,1.819 l 0,12.067 c 0,1.012 -0.808,1.819 -1.82,1.819 l -11.229,0 c -0.354,-0.001 -0.774,0.074 -1.046,0.397 -0.272,0.323 -0.293,0.679 -0.293,0.983 l 0,11.188 c 0,1.013 -0.809,1.819 -1.82,1.819 l -12.066,0 c -1.011,0 -1.82,-0.807 -1.82,-1.819 l 0,-11.188 c 0,-0.252 0.029,-0.558 -0.209,-0.9 -0.236,-0.341 -0.678,-0.481 -1.065,-0.481 l -11.294,0 c -1.012,0 -1.819,-0.808 -1.819,-1.819 l 0,-12.067 c 0,-1.012 0.807,-1.819 1.819,-1.819 l 11.293,0 c 0.297,0 0.656,-0.06 0.941,-0.355 0.285,-0.295 0.335,-0.663 0.335,-1.004 l 0,-11.209 c 0.001,-1.012 0.809,-1.82 1.819,-1.819 l 0,0 z"
         id="path3-8"
         inkscape:connector-curvature="0"
         style="fill:#f4f4f4" /><path
         d="m 239.09,210.344 c -1.735,0 -3.158,1.423 -3.158,3.158 l 0,11.209 c 0,0.038 0.002,-0.001 0,0.021 l -11.23,0 c -1.734,0 -3.158,1.424 -3.158,3.158 l 0,9.223 c 0,1.734 1.424,3.158 3.158,3.158 l 11.23,0 c 0.004,0.031 0,-0.012 0,0.042 l 0,11.188 c 0,1.734 1.423,3.158 3.158,3.158 l 9.243,0 c 1.734,0 3.137,-1.424 3.137,-3.158 l 0,-11.188 c 0,-0.077 -0.004,-0.018 0,-0.042 l 11.23,0 c 1.735,0 3.159,-1.424 3.159,-3.158 l 0,-9.223 c 0,-1.735 -1.424,-3.158 -3.159,-3.158 l -11.209,0 c -0.033,0 -0.001,0.003 -0.021,0 l 0,-11.23 c 0,-1.735 -1.402,-3.158 -3.137,-3.158 l -9.243,0 0,0 z m 0,1.338 9.243,0 c 1.011,0 1.799,0.808 1.799,1.82 l 0,11.272 c 0,0.39 0.162,0.813 0.48,1.045 0.319,0.232 0.636,0.252 0.879,0.252 l 11.209,0 c 1.012,0 1.82,0.808 1.82,1.819 l 0,9.223 c 0,1.011 -0.809,1.819 -1.82,1.819 l -11.229,0 c -0.354,0 -0.774,0.074 -1.045,0.397 -0.271,0.323 -0.294,0.678 -0.294,0.983 l 0,11.188 c 0,1.011 -0.788,1.819 -1.799,1.819 l -9.243,0 c -1.011,0 -1.82,-0.809 -1.82,-1.819 l 0,-11.188 c 0,-0.252 0.029,-0.558 -0.209,-0.899 -0.238,-0.342 -0.7,-0.481 -1.087,-0.481 l -11.272,0 c -1.012,0 -1.819,-0.808 -1.819,-1.819 l 0,-9.223 c 0,-1.012 0.808,-1.819 1.819,-1.819 l 11.272,0 c 0.297,0 0.676,-0.06 0.962,-0.355 0.285,-0.297 0.334,-0.663 0.334,-1.005 l 0,-11.209 c 0,-1.013 0.809,-1.82 1.82,-1.82 l 0,0 z"
         id="path5-0"
         inkscape:connector-curvature="0"
         style="fill:#f4f4f4" /><path
         d="m 280.331,269.858 c -0.468,0.021 -0.933,0.122 -1.381,0.335 l -15.309,7.302 c -1.787,0.852 -2.547,3.021 -1.694,4.811 0.853,1.785 3.002,2.545 4.789,1.693 l 15.309,-7.299 c 1.786,-0.852 2.566,-3.001 1.716,-4.789 -0.64,-1.34 -2.029,-2.11 -3.431,-2.05 l 0.001,-0.003 z m 0.063,1.339 c 0.88,-0.041 1.749,0.426 2.154,1.275 0.54,1.135 0.067,2.472 -1.066,3.013 l -15.309,7.298 c -1.135,0.541 -2.471,0.067 -3.013,-1.066 -0.541,-1.135 -0.067,-2.47 1.067,-3.011 l 15.309,-7.3 c 0.283,-0.135 0.565,-0.195 0.858,-0.209 l 0,0 z"
         id="path7-8"
         inkscape:connector-curvature="0"
         style="fill:#f4f4f4" /><path
         d="m 280.23,267.416 c -0.823,0.017 -1.649,0.188 -2.447,0.544 l -15.037,6.713 c -3.188,1.425 -4.624,5.177 -3.2,8.364 1.425,3.188 5.198,4.626 8.387,3.2 l 15.016,-6.712 c 3.188,-1.426 4.625,-5.178 3.2,-8.366 -1.069,-2.391 -3.45,-3.791 -5.919,-3.743 l 0,0 z m 0.041,1.339 c 1.948,-0.041 3.818,1.054 4.664,2.949 1.13,2.527 -0.002,5.479 -2.53,6.608 l -15.019,6.705 c -2.529,1.13 -5.479,-0.004 -6.608,-2.53 -1.129,-2.528 0.003,-5.479 2.53,-6.608 l 15.016,-6.713 c 0.633,-0.282 1.297,-0.405 1.945,-0.419 l 0.002,0.008 z"
         id="path9-6"
         inkscape:connector-curvature="0"
         style="fill:#f4f4f4" /><path
         d="m 312.12,269.858 c -0.468,0.021 -0.934,0.122 -1.38,0.335 l -15.31,7.299 c -1.786,0.853 -2.546,3.022 -1.693,4.811 0.852,1.785 3.002,2.545 4.788,1.694 l 15.31,-7.299 c 1.787,-0.854 2.545,-3.003 1.694,-4.79 -0.639,-1.34 -2.008,-2.109 -3.409,-2.05 l 0,0 z m 0.063,1.339 c 0.88,-0.041 1.749,0.426 2.154,1.275 0.54,1.134 0.067,2.472 -1.066,3.013 l -15.31,7.298 c -1.134,0.541 -2.471,0.067 -3.011,-1.066 -0.542,-1.135 -0.068,-2.47 1.066,-3.011 l 15.309,-7.3 c 0.283,-0.135 0.565,-0.195 0.858,-0.209 l 0,0 z"
         id="path11-1"
         inkscape:connector-curvature="0"
         style="fill:#f4f4f4" /><path
         d="m 312.02,267.416 c -0.823,0.017 -1.649,0.188 -2.447,0.544 l -15.038,6.713 c -3.188,1.425 -4.623,5.177 -3.199,8.364 1.425,3.188 5.178,4.626 8.366,3.2 l 15.036,-6.712 c 3.188,-1.426 4.624,-5.178 3.2,-8.366 -1.069,-2.391 -3.45,-3.791 -5.918,-3.743 l 0,0 z m 0.021,1.339 c 1.947,-0.041 3.816,1.054 4.663,2.949 1.13,2.527 0.018,5.479 -2.511,6.608 l -15.037,6.705 c -2.526,1.13 -5.458,-0.004 -6.587,-2.53 -1.13,-2.528 -0.02,-5.479 2.51,-6.608 l 15.036,-6.713 c 0.633,-0.282 1.275,-0.405 1.925,-0.419 l 10e-4,0.008 z"
         id="path13"
         inkscape:connector-curvature="0"
         style="fill:#f4f4f4" /><path
         d="m 321.911,295.959 c -0.362,0.036 -0.729,0.149 -1.067,0.335 -1.349,0.738 -1.849,2.457 -1.107,3.806 l 12.695,23.11 c 0.739,1.349 2.436,1.848 3.785,1.107 1.349,-0.739 1.849,-2.437 1.107,-3.785 l -12.682,-23.129 c -0.554,-1.013 -1.653,-1.551 -2.74,-1.442 l 0.009,-0.002 z m 0.691,1.381 c 0.356,0.104 0.683,0.354 0.877,0.711 l 12.676,23.115 c 0.393,0.715 0.148,1.596 -0.564,1.987 -0.715,0.393 -1.595,0.149 -1.986,-0.565 l -12.674,-23.13 c -0.393,-0.713 -0.15,-1.596 0.564,-1.986 0.356,-0.196 0.751,-0.229 1.107,-0.126 l 0,-0.006 z"
         id="path15"
         inkscape:connector-curvature="0"
         style="fill:#f4f4f4" /><path
         d="m 331.025,290.967 c -0.361,0.036 -0.729,0.149 -1.066,0.335 -1.35,0.738 -1.85,2.457 -1.108,3.806 l 12.674,23.109 c 0.74,1.35 2.458,1.87 3.807,1.13 1.35,-0.739 1.849,-2.457 1.108,-3.806 L 333.766,292.41 c -0.555,-1.012 -1.655,-1.552 -2.741,-1.443 l 0,0 z m 0.692,1.38 c 0.356,0.104 0.682,0.354 0.877,0.711 l 12.674,23.131 c 0.393,0.714 0.129,1.575 -0.585,1.967 -0.715,0.392 -1.596,0.149 -1.987,-0.565 L 330.023,294.46 c -0.393,-0.713 -0.129,-1.596 0.585,-1.986 0.357,-0.198 0.75,-0.232 1.109,-0.127 l 0,0 z"
         id="path17"
         inkscape:connector-curvature="0"
         style="fill:#f4f4f4" /><path
         d="m 340.127,285.987 c -0.361,0.036 -0.729,0.129 -1.066,0.314 -1.349,0.738 -1.849,2.456 -1.108,3.806 l 12.694,23.131 c 0.737,1.343 2.439,1.835 3.785,1.107 0.01,-0.004 0.013,-0.016 0.021,-0.021 1.33,-0.747 1.845,-2.444 1.108,-3.785 l -12.694,-23.131 c -0.554,-1.01 -1.653,-1.529 -2.74,-1.421 l 0,0 z m 0.69,1.36 c 0.358,0.104 0.683,0.354 0.879,0.711 l 12.674,23.131 c 0.393,0.715 0.15,1.596 -0.565,1.986 -0.713,0.393 -1.596,0.128 -1.986,-0.585 l -12.674,-23.131 c -0.393,-0.714 -0.149,-1.596 0.564,-1.986 0.358,-0.198 0.752,-0.23 1.108,-0.126 l 0,0 z"
         id="path19"
         inkscape:connector-curvature="0"
         style="fill:#f4f4f4" /><path
         d="m 349.242,280.988 c -0.361,0.036 -0.729,0.129 -1.066,0.313 -1.349,0.74 -1.849,2.459 -1.108,3.807 l 12.674,23.131 c 0.739,1.348 2.458,1.849 3.807,1.108 1.351,-0.739 1.849,-2.457 1.109,-3.807 l -12.683,-23.115 c -0.556,-1.013 -1.654,-1.552 -2.74,-1.443 l 0.007,0.006 z m 0.691,1.381 c 0.357,0.104 0.683,0.333 0.879,0.689 l 12.674,23.131 c 0.393,0.715 0.129,1.595 -0.585,1.986 -0.715,0.392 -1.596,0.129 -1.987,-0.586 l -12.669,-23.128 c -0.392,-0.714 -0.128,-1.574 0.585,-1.966 0.358,-0.196 0.751,-0.23 1.109,-0.126 l -0.006,0 z"
         id="path21-6"
         inkscape:connector-curvature="0"
         style="fill:#f4f4f4" /><path
         d="m 358.338,275.989 c -0.356,0.035 -0.715,0.155 -1.046,0.335 -0.006,0.003 -0.016,-0.004 -0.021,0 l 0,0.021 c -1.329,0.746 -1.844,2.424 -1.108,3.765 l 12.695,23.13 c 0.739,1.35 2.457,1.849 3.807,1.108 1.348,-0.74 1.848,-2.457 1.108,-3.807 l -12.696,-23.108 c -0.556,-1.012 -1.655,-1.552 -2.739,-1.444 l 0,0 z m 0.711,1.38 c 0.357,0.104 0.661,0.333 0.857,0.69 l 12.674,23.131 c 0.393,0.715 0.15,1.594 -0.564,1.987 -0.715,0.391 -1.596,0.128 -1.987,-0.586 l -12.675,-23.103 c -0.393,-0.715 -0.15,-1.596 0.564,-1.987 0.356,-0.195 0.771,-0.229 1.129,-0.125 l 0.002,-0.007 z"
         id="path23"
         inkscape:connector-curvature="0"
         style="fill:#f4f4f4" /><path
         d="m 367.459,270.99 c -0.361,0.036 -0.729,0.149 -1.066,0.334 -1.349,0.74 -1.85,2.458 -1.108,3.807 l 12.675,23.109 c 0.738,1.349 2.456,1.849 3.806,1.108 1.349,-0.738 1.85,-2.457 1.108,-3.807 l -12.683,-23.107 c -0.554,-1.014 -1.653,-1.552 -2.739,-1.443 l 0.007,-10e-4 z m 0.689,1.38 c 0.359,0.104 0.684,0.354 0.879,0.712 l 12.676,23.115 c 0.393,0.714 0.129,1.595 -0.585,1.987 -0.716,0.392 -1.597,0.129 -1.987,-0.586 l -12.669,-23.109 c -0.393,-0.713 -0.129,-1.595 0.585,-1.986 0.358,-0.197 0.751,-0.23 1.109,-0.126 l -0.008,-0.007 z"
         id="path25"
         inkscape:connector-curvature="0"
         style="fill:#f4f4f4" /><path
         d="m 291.227,324.047 c -0.232,0 -0.479,0.077 -0.69,0.251 -0.213,0.175 -0.355,0.471 -0.355,0.753 l 0,4.058 c 0,0.263 -0.042,0.478 0.063,0.795 0.053,0.159 0.186,0.354 0.377,0.48 0.19,0.127 0.398,0.168 0.564,0.168 l 1.213,0 c 0.183,0 0.439,-0.073 0.606,-0.23 0.167,-0.156 0.217,-0.344 0.251,-0.481 0.069,-0.274 0.063,-0.477 0.063,-0.731 l 0,-4.058 c 0,-0.183 -0.033,-0.441 -0.229,-0.669 -0.198,-0.228 -0.513,-0.335 -0.773,-0.335 l -1.09,0 0,-10e-4 z m 0.293,1.339 0.46,0 0,3.723 c -0.001,0.065 0.002,0.052 0,0.104 l -0.46,0 c -0.004,-0.056 0,-0.031 0,-0.104 l 0,-3.723 z"
         id="path27"
         inkscape:connector-curvature="0"
         style="fill:#f4f4f4" /><path
         d="m 295.349,324.047 c -0.572,0 -1.024,0.439 -1.024,1.004 l 0,4.058 c 0,0.295 -0.009,0.516 0.083,0.795 0.046,0.139 0.127,0.304 0.293,0.438 0.167,0.137 0.398,0.21 0.565,0.21 l 1.337,0 c 0.214,0 0.473,-0.13 0.607,-0.293 0.136,-0.164 0.183,-0.317 0.209,-0.439 0.052,-0.244 0.042,-0.449 0.042,-0.711 l 0,-4.058 c 0,-0.24 -0.087,-0.495 -0.272,-0.689 -0.184,-0.195 -0.452,-0.313 -0.711,-0.313 l -1.129,-0.002 0,0 z m 0.313,1.339 0.46,0 0,3.723 c 0,0.057 0.002,0.057 0,0.104 l -0.46,0 c -0.003,-0.053 0,-0.035 0,-0.104 l 0,-3.723 z"
         id="path29"
         inkscape:connector-curvature="0"
         style="fill:#f4f4f4" /><path
         d="m 207.656,41.776 c -0.438,0 -0.877,0.272 -1.066,0.607 -0.189,0.333 -0.23,0.681 -0.23,1.004 l 0,279.863 c 0,4.022 3.276,7.299 7.299,7.299 l 74.225,0 c 0.355,0 0.702,-0.229 0.879,-0.503 0.175,-0.273 0.229,-0.587 0.229,-0.94 l 0,-4.058 c 0,-0.229 -0.073,-0.529 -0.293,-0.731 -0.22,-0.202 -0.51,-0.271 -0.752,-0.271 l -10.625,0 c -1.91,0 -3.451,-1.521 -3.451,-3.431 0,-1.91 1.541,-3.45 3.451,-3.45 l 21.269,0 c 1.911,0 3.451,1.541 3.451,3.45 0,1.617 -1.101,2.947 -2.593,3.326 l 0,0.021 c -0.31,0.081 -0.506,0.325 -0.586,0.522 -0.08,0.197 -0.104,0.377 -0.104,0.564 l 0,4.058 c 10e-4,0.222 -0.023,0.427 0.063,0.732 0.044,0.151 0.129,0.354 0.314,0.502 0.184,0.146 0.419,0.209 0.606,0.209 l 49.439,0 c 23.18,0 41.975,-18.816 41.975,-41.996 l 0,-245.383 c 0,-0.325 -0.092,-0.643 -0.313,-0.92 -0.222,-0.278 -0.602,-0.481 -1.004,-0.481 l -182.181,0 -0.002,0.007 z m 0.084,1.339 182.053,0 c 0.006,0.013 0.021,0.022 0.021,0.063 l 0,245.383 c 0,22.456 -18.18,40.657 -40.636,40.657 l -49.085,0 c -0.002,-0.053 10e-4,-0.04 0,-0.104 l 0,-3.995 c 1.901,-0.636 3.284,-2.391 3.284,-4.497 0,-2.632 -2.156,-4.789 -4.79,-4.789 l -21.269,0 c -2.634,0 -4.789,2.157 -4.789,4.789 0,2.634 2.155,4.769 4.789,4.769 l 10.331,0 0,3.723 c 0,0.087 -0.011,0.069 -0.021,0.104 l -73.971,0 c -3.301,0.007 -5.962,-2.657 -5.962,-5.956 l 0,-279.864 c 0,-0.153 0.028,-0.229 0.042,-0.272 l 0.003,-0.011 z"
         id="path31"
         inkscape:connector-curvature="0"
         style="fill:#f4f4f4" /><path
         d="m 335.63,224.331 c -6.817,0 -12.359,5.542 -12.359,12.359 0,6.818 5.542,12.36 12.359,12.36 6.818,0 12.36,-5.542 12.36,-12.36 0,-6.817 -5.542,-12.359 -12.36,-12.359 z m 0,1.338 c 6.095,0 11.021,4.927 11.021,11.021 0,6.094 -4.927,11.022 -11.021,11.022 -6.094,0 -11.021,-4.927 -11.021,-11.022 -10e-4,-6.094 4.926,-11.021 11.021,-11.021 z"
         id="circle33"
         inkscape:connector-curvature="0"
         style="fill:#f4f4f4" /><path
         d="m 335.63,225.188 c -6.344,0 -11.503,5.158 -11.503,11.503 0,6.344 5.158,11.503 11.503,11.503 6.345,0 11.503,-5.159 11.503,-11.503 0,-6.344 -5.158,-11.503 -11.503,-11.503 z m 0,1.337 c 5.621,0 10.164,4.544 10.164,10.165 0,5.62 -4.542,10.164 -10.164,10.164 -5.62,0 -10.164,-4.543 -10.164,-10.164 0,-5.621 4.543,-10.165 10.164,-10.165 z"
         id="circle35"
         inkscape:connector-curvature="0"
         style="fill:#f4f4f4" /><path
         d="m 366.121,210.363 c -6.818,0 -12.36,5.542 -12.36,12.36 0,6.819 5.542,12.36 12.36,12.36 6.818,0 12.36,-5.541 12.36,-12.36 0,-6.818 -5.542,-12.36 -12.36,-12.36 z m 0,1.338 c 6.095,0 11.021,4.928 11.021,11.022 0,6.094 -4.927,11.021 -11.021,11.021 -6.094,0 -11.022,-4.927 -11.022,-11.021 0,-6.093 4.927,-11.022 11.022,-11.022 z"
         id="circle37"
         inkscape:connector-curvature="0"
         style="fill:#f4f4f4" /><path
         d="m 366.121,211.22 c -6.345,0 -11.504,5.159 -11.504,11.504 0,6.344 5.159,11.502 11.504,11.502 6.344,0 11.502,-5.157 11.502,-11.502 0,-6.345 -5.158,-11.504 -11.502,-11.504 z m 0,1.339 c 5.62,0 10.164,4.544 10.164,10.165 0,5.62 -4.544,10.164 -10.164,10.164 -5.621,0 -10.165,-4.544 -10.165,-10.164 0,-5.621 4.544,-10.165 10.165,-10.165 z"
         id="circle39"
         inkscape:connector-curvature="0"
         style="fill:#f4f4f4" /><path
         d="m 226.939,50.288 c -3.892,0 -7.048,3.177 -7.048,7.069 l 0,104.883 c 0,3.893 3.156,7.068 7.048,7.068 l 126.151,0 c 5.978,0 11.936,-3.028 16.418,-7.549 4.484,-4.518 7.509,-10.561 7.509,-16.685 l 0,-87.717 c 0,-3.893 -3.179,-7.068 -7.066,-7.068 l -143.012,-0.001 0,0 z m 0,1.338 143.01,0 c 3.169,0 5.73,2.562 5.73,5.73 l 0,87.71 c 0,5.682 -2.857,11.436 -7.132,15.748 -4.274,4.312 -9.935,7.153 -15.455,7.153 l -126.151,0 c -3.169,0 -5.709,-2.561 -5.709,-5.73 l 0,-104.882 c 0,-3.169 2.541,-5.731 5.709,-5.731 l -0.002,0.002 z"
         id="path41"
         inkscape:connector-curvature="0"
         style="fill:#f4f4f4" /><path
         d="m 250.509,63.799 c -0.95,0 -1.735,0.786 -1.735,1.736 l 0,88.066 c 0,0.95 0.785,1.735 1.735,1.735 l 96.832,0 c 0.95,0 1.736,-0.786 1.736,-1.735 l 0,-88.066 c 0,-0.95 -0.786,-1.736 -1.736,-1.736 l -96.832,0 z m 0,1.338 96.832,0 c 0.227,0 0.397,0.171 0.397,0.397 l 0,88.066 c 0,0.227 -0.171,0.398 -0.397,0.398 l -96.832,0 c -0.227,0 -0.397,-0.171 -0.397,-0.398 l 0,-88.065 c -0.001,-0.227 0.17,-0.398 0.397,-0.398 z"
         id="path43"
         inkscape:connector-curvature="0"
         style="fill:#f4f4f4" /><path
         d="m 232.754,91.74 c -1.866,0 -3.388,1.522 -3.388,3.388 0,1.866 1.522,3.388 3.388,3.388 1.865,0 3.388,-1.522 3.388,-3.388 0,-1.866 -1.523,-3.388 -3.388,-3.388 z"
         id="circle45"
         inkscape:connector-curvature="0"
         style="fill:#f4f4f4" /><path
         d="m 234.175,25.024 c -0.221,0 -0.472,0.111 -0.607,0.251 -0.134,0.14 -0.192,0.281 -0.23,0.397 -0.074,0.233 -0.083,0.431 -0.083,0.606 l 0,2.991 c 0,0.24 0.087,0.495 0.272,0.69 0.185,0.195 0.474,0.293 0.732,0.293 l 1.109,0 c 0.572,0 1.045,-0.417 1.045,-0.983 l 0,-2.991 c 0,-0.218 -0.001,-0.456 -0.146,-0.732 -0.146,-0.276 -0.549,-0.523 -0.879,-0.523 l -1.213,0 0,0.001 z m 0.418,1.339 0.481,0 0,2.551 -0.481,0 0,-2.551 z"
         id="path47"
         inkscape:connector-curvature="0"
         style="fill:#f4f4f4" /><path
         d="m 238.253,25.024 c -0.206,0 -0.454,0.125 -0.585,0.272 -0.131,0.147 -0.182,0.266 -0.209,0.376 -0.057,0.221 -0.063,0.411 -0.063,0.606 l 0,2.991 c 0,0.181 0.054,0.42 0.251,0.648 0.197,0.228 0.512,0.335 0.774,0.335 l 1.088,0 c 0.231,0 0.477,-0.057 0.689,-0.23 0.212,-0.173 0.355,-0.469 0.355,-0.752 l 0,-2.991 c 0,-0.182 -0.013,-0.41 -0.125,-0.669 -0.112,-0.26 -0.484,-0.586 -0.878,-0.586 l -1.297,0 0,0 z m 0.481,1.339 0.48,0 0,2.551 -0.48,0 0,-2.551 z"
         id="path49"
         inkscape:connector-curvature="0"
         style="fill:#f4f4f4" /><path
         d="m 223.927,25.024 c -0.446,0 -0.845,0.246 -1.066,0.523 -0.22,0.277 -0.312,0.569 -0.313,0.899 l 0,12.966 c 0,0.607 0.501,1.108 1.108,1.108 l 150.096,0 c 0.44,0 0.699,-0.34 0.816,-0.606 0.117,-0.266 0.167,-0.542 0.167,-0.899 l 0,-12.485 c 0,-0.437 -0.125,-0.866 -0.418,-1.15 -0.287,-0.284 -0.661,-0.355 -0.956,-0.355 l -130.542,0 c -0.288,0 -0.703,0.136 -0.9,0.439 -0.196,0.304 -0.187,0.575 -0.187,0.816 l 0,2.991 c 0,0.228 0.093,0.508 0.313,0.711 0.22,0.203 0.489,0.271 0.731,0.271 l 16.313,0 c 1.91,0 3.451,1.541 3.451,3.451 0,1.911 -1.541,3.451 -3.451,3.451 l -26.958,0 c -1.91,0 -3.45,-1.54 -3.45,-3.451 0,-1.617 1.123,-2.97 2.614,-3.346 0.307,-0.083 0.505,-0.326 0.584,-0.522 0.08,-0.197 0.084,-0.377 0.084,-0.565 l 0,-2.991 c 0,-0.282 -0.067,-0.571 -0.251,-0.816 -0.185,-0.244 -0.517,-0.439 -0.879,-0.439 l -6.901,0 -0.005,0 z m 149.469,1.318 c -0.034,-0.032 0,-0.026 0,0.188 l 0,12.485 c 0,0.104 -0.011,0.105 -0.021,0.167 l -149.495,0 0,-12.735 c 0,0.019 0.002,-0.061 0.021,-0.084 0.019,-0.023 0,0 0.021,0 l 6.692,0 0,2.844 c -1.893,0.639 -3.284,2.396 -3.284,4.497 0,2.634 2.156,4.79 4.79,4.79 l 26.958,0 c 2.634,0 4.79,-2.155 4.79,-4.79 0,-2.634 -2.156,-4.79 -4.79,-4.79 l -16.02,0 0,-2.551 130.294,0 c 0.089,0 0.075,0.012 0.041,-0.021 l 0.003,0 z"
         id="path51"
         inkscape:connector-curvature="0"
         style="fill:#f4f4f4" /><path
         d="m 214.579,25.024 c -4.53,0 -8.219,3.689 -8.219,8.219 l 0,6.127 c 0,0.282 0.12,0.653 0.397,0.878 0.278,0.226 0.602,0.272 0.92,0.272 l 12.297,0 c 0.606,0 1.108,-0.501 1.108,-1.108 l 0,-12.965 c 0,-0.346 -0.104,-0.654 -0.313,-0.92 -0.209,-0.266 -0.568,-0.502 -0.984,-0.502 l -5.206,0 0,-10e-4 z m 0,1.339 5.124,0 c 0.013,0.024 0.042,0.058 0.042,0.084 l 0,12.736 -12.046,0 0,-5.939 c -0.001,-3.807 3.074,-6.881 6.88,-6.881 l 0,0 z"
         id="path53-1"
         inkscape:connector-curvature="0"
         style="fill:#f4f4f4" /><path
         d="m 377.726,25.024 c -0.415,0 -0.753,0.235 -0.962,0.502 -0.209,0.267 -0.335,0.574 -0.335,0.92 l 0,12.966 c 0,0.607 0.522,1.108 1.13,1.108 l 12.297,0 c 0.318,0 0.642,-0.046 0.92,-0.272 0.278,-0.225 0.377,-0.596 0.377,-0.878 l 0,-6.127 c 0,-4.53 -3.667,-8.22 -8.191,-8.22 l -5.229,0 -0.007,0.001 z m 0.083,1.339 5.146,0 c 3.807,0 6.859,3.074 6.859,6.881 l 0,5.939 -12.046,0 0,-12.736 c 0,-0.026 0.029,-0.06 0.041,-0.084 z"
         id="path55-5"
         inkscape:connector-curvature="0"
         style="fill:#f4f4f4" /><path
         d="m 206.736,39.811 0,2.614 1.338,0 0,-2.614 -1.338,0 z"
         id="line57-4"
         inkscape:connector-curvature="0"
         style="fill:#f4f4f4" /><path
         d="m 220.393,26.049 0,1.339 2.845,0 0,-1.339 -2.845,0 z"
         id="line59-2"
         inkscape:connector-curvature="0"
         style="fill:#f4f4f4" /><path
         d="m 231.226,26.049 0,1.339 2.845,0 0,-1.339 -2.845,0 z"
         id="line61"
         inkscape:connector-curvature="0"
         style="fill:#f4f4f4" /><path
         d="m 235.681,26.049 0,1.339 2.489,0 0,-1.339 -2.489,0 z"
         id="line63"
         inkscape:connector-curvature="0"
         style="fill:#f4f4f4" /><path
         d="m 239.906,26.049 0,1.339 2.488,0 0,-1.339 -2.488,0 z"
         id="line65"
         inkscape:connector-curvature="0"
         style="fill:#f4f4f4" /><path
         d="m 374.278,26.049 0,1.339 2.845,0 0,-1.339 -2.845,0 z"
         id="line67"
         inkscape:connector-curvature="0"
         style="fill:#f4f4f4" /><path
         d="m 389.19,39.853 0,2.488 1.337,0 0,-2.488 -1.337,0 z"
         id="line69"
         inkscape:connector-curvature="0"
         style="fill:#f4f4f4" /><path
         d="m 234.489,31.299 -0.502,0.271 -3.158,1.736 -0.523,0.293 0.523,0.292 3.158,1.736 0.502,0.272 0,-0.564 0,-3.472 0,-0.564 0,0 z"
         id="polygon71"
         inkscape:connector-curvature="0"
         style="fill:#f4f4f4" /><path
         d="m 256.992,31.299 0,0.564 0,3.472 0,0.564 0.48,-0.272 3.158,-1.736 0.544,-0.293 -0.544,-0.292 -3.158,-1.736 -0.48,-0.271 z"
         id="polygon73"
         inkscape:connector-curvature="0"
         style="fill:#f4f4f4" /><path
         d="m 243.712,226.024 c -3.565,0 -6.483,2.896 -6.483,6.462 0,3.566 2.918,6.483 6.483,6.483 3.565,0 6.463,-2.918 6.463,-6.483 0,-3.565 -2.898,-6.462 -6.463,-6.462 z m 0,1.338 c 2.842,0 5.124,2.282 5.124,5.124 0,2.843 -2.282,5.145 -5.124,5.145 -2.842,0 -5.145,-2.302 -5.145,-5.145 0,-2.841 2.303,-5.124 5.145,-5.124 z"
         id="circle75"
         inkscape:connector-curvature="0"
         style="fill:#f4f4f4" /></g></g></svg>