<?xml version="1.0" encoding="UTF-8" standalone="no"?>
<!-- Generator: Adobe Illustrator 13.0.0, SVG Export Plug-In . SVG Version: 6.00 Build 14948)  -->

<svg
   xmlns:dc="http://purl.org/dc/elements/1.1/"
   xmlns:cc="http://creativecommons.org/ns#"
   xmlns:rdf="http://www.w3.org/1999/02/22-rdf-syntax-ns#"
   xmlns:svg="http://www.w3.org/2000/svg"
   xmlns="http://www.w3.org/2000/svg"
   xmlns:sodipodi="http://sodipodi.sourceforge.net/DTD/sodipodi-0.dtd"
   xmlns:inkscape="http://www.inkscape.org/namespaces/inkscape"
   version="1.1"
   id="Layer_2"
   x="0px"
   y="0px"
   width="550"
   height="550"
   viewBox="0 0 549.99995 549.99999"
   enable-background="new 0 0 598.189 350.26"
   xml:space="preserve"
   inkscape:version="0.91 r13725"
   sodipodi:docname="controller_gg.svg"><metadata
     id="metadata3083"><rdf:RDF><cc:Work
         rdf:about=""><dc:format>image/svg+xml</dc:format><dc:type
           rdf:resource="http://purl.org/dc/dcmitype/StillImage" /><dc:title></dc:title></cc:Work></rdf:RDF></metadata><defs
     id="defs3081" /><sodipodi:namedview
     pagecolor="#ffffff"
     bordercolor="#666666"
     borderopacity="1"
     objecttolerance="10"
     gridtolerance="10"
     guidetolerance="10"
     inkscape:pageopacity="0"
     inkscape:pageshadow="2"
     inkscape:window-width="1920"
     inkscape:window-height="1001"
     id="namedview3079"
     showgrid="false"
     inkscape:zoom="1.0799262"
     inkscape:cx="248.77122"
     inkscape:cy="298.43665"
     inkscape:window-x="-9"
     inkscape:window-y="-9"
     inkscape:window-maximized="1"
     inkscape:current-layer="g12192"
     showguides="true"
     inkscape:guide-bbox="true" /><g
     inkscape:groupmode="layer"
     id="layer2"
     inkscape:label="Screen_Rect"
     style="display:none"
     transform="translate(0,199.73999)"
     sodipodi:insensitive="true"><path
       style="fill:#0000ff;stroke:#000000;stroke-width:1px;stroke-linecap:butt;stroke-linejoin:miter;stroke-opacity:1"
       d="M 5.0135033,547.22203 136.4109,114.39023 653.54628,-189.09358 406.482,260.92121 Z"
       id="path3021"
       inkscape:connector-curvature="0"
       transform="translate(-2e-5,-199.73999)"
       sodipodi:nodetypes="ccccc" /><rect
       style="opacity:0.60100002;fill:#d8201f;fill-opacity:1;stroke:#ff8080;stroke-width:2.45114732;stroke-linecap:round;stroke-linejoin:round;stroke-miterlimit:4;stroke-dasharray:none;stroke-opacity:1"
       id="rect4230"
       width="444.2457"
       height="9.9567661"
       x="145.95099"
       y="-211.30678" /></g><g
     inkscape:groupmode="layer"
     id="layer1"
     inkscape:label="Controller_Vorlage"
     style="display:none"
     sodipodi:insensitive="true"><g
       id="g4929"
       transform="translate(-0.929149,0.5695451)"><g
         transform="translate(0,199.73999)"
         style="display:none"
         inkscape:label="Layer2"
         id="layer2-9"><path
           sodipodi:nodetypes="ccccc"
           transform="translate(-2e-5,-199.73999)"
           inkscape:connector-curvature="0"
           id="path3021-0"
           d="M 5.0135033,547.22203 136.4109,114.39023 653.54628,-189.09358 406.482,260.92121 Z"
           style="fill:#ffffff;stroke:#000000;stroke-width:1px;stroke-linecap:butt;stroke-linejoin:miter;stroke-opacity:1" /></g><g
         inkscape:label="Layer"
         id="layer1-2"><g
           transform="matrix(0.55322035,-0.3970343,-0.34863416,0.85569517,173.63773,166.52161)"
           id="g3100"><path
             style="fill:#f4f4f4"
             inkscape:connector-curvature="0"
             id="path3"
             d="m 148.05,114.447 c -23.656,0 -42.861,19.204 -42.861,42.861 l 0,37.414 c 0,23.658 19.205,42.86 42.861,42.86 l 38.694,0 c 23.656,0 42.861,-19.202 42.861,-42.86 l 0,-37.414 c 0,-23.657 -19.205,-42.861 -42.861,-42.861 l -38.694,0 z m 0,1.905 38.694,0 c 22.627,0 40.956,18.328 40.956,40.956 l 0,37.414 c 0,22.629 -18.329,40.956 -40.956,40.956 l -38.694,0 c -22.628,0 -40.956,-18.327 -40.956,-40.956 l 0,-37.414 c 0,-22.629 18.328,-40.956 40.956,-40.956 z" /><path
             style="fill:#f4f4f4"
             inkscape:connector-curvature="0"
             id="path5"
             d="m 167.395,123.168 c -3.23,0 -5.863,2.633 -5.863,5.864 l 0,13.037 c 0,3.23 2.632,5.863 5.863,5.863 3.23,0 5.863,-2.633 5.863,-5.863 l 0,-13.037 c 0,-3.23 -2.633,-5.864 -5.863,-5.864 z m 0,1.906 c 2.201,0 3.958,1.758 3.958,3.958 l 0,13.037 c 0,2.2 -1.758,3.958 -3.958,3.958 -2.202,0 -3.958,-1.758 -3.958,-3.958 l 0,-13.037 c -0.001,-2.2 1.757,-3.958 3.958,-3.958 z" /><path
             style="fill:#f4f4f4"
             inkscape:connector-curvature="0"
             id="path7"
             d="m 120.425,170.135 c -3.23,0 -5.864,2.633 -5.864,5.864 0,3.231 2.632,5.894 5.864,5.894 l 13.037,0 c 3.229,0 5.864,-2.662 5.864,-5.894 0,-3.229 -2.633,-5.864 -5.864,-5.864 l -13.037,0 z m 0,1.905 13.037,0 c 2.201,0 3.959,1.759 3.959,3.959 0,2.201 -1.759,3.988 -3.959,3.988 l -13.037,0 c -2.198,-0.01 -3.955,-1.791 -3.955,-3.99 0,-2.201 1.758,-3.959 3.958,-3.959 l -0.003,0.002 z" /><path
             style="fill:#f4f4f4"
             inkscape:connector-curvature="0"
             id="path9"
             d="m 167.395,204.071 c -3.23,0 -5.863,2.663 -5.863,5.894 l 0,13.038 c 0,3.229 2.632,5.863 5.863,5.863 3.23,0 5.863,-2.633 5.863,-5.863 l 0,-13.038 c 0,-3.23 -2.633,-5.894 -5.863,-5.894 z m 0,1.906 c 2.201,0 3.958,1.789 3.958,3.988 l 0,13.038 c 0,2.2 -1.757,3.958 -3.958,3.958 -2.202,0 -3.958,-1.759 -3.958,-3.958 l 0,-13.038 c -0.001,-2.2 1.757,-3.988 3.958,-3.988 z" /><path
             style="fill:#f4f4f4"
             inkscape:connector-curvature="0"
             id="path11"
             d="m 201.321,170.135 c -3.229,0 -5.863,2.633 -5.863,5.864 0,3.231 2.633,5.894 5.863,5.894 l 13.067,0 c 3.229,0 5.863,-2.662 5.863,-5.894 0,-3.229 -2.633,-5.864 -5.863,-5.864 l -13.067,0 z m 0,1.905 13.067,0 c 2.2,0 3.958,1.76 3.958,3.959 0,2.201 -1.758,3.988 -3.958,3.988 l -13.067,0 c -2.2,0 -3.958,-1.788 -3.958,-3.988 0,-2.2 1.759,-3.959 3.958,-3.959 z" /><path
             style="fill:#f4f4f4"
             inkscape:connector-curvature="0"
             id="polygon13"
             d="m 133.878,141.176 -1.31,1.31 8.155,12.025 0.655,0.952 0.804,-0.803 3.869,-3.87 0.804,-0.804 -0.953,-0.655 -12.024,-8.155 z" /><path
             style="fill:#f4f4f4"
             inkscape:connector-curvature="0"
             id="polygon15"
             d="m 141.383,196.566 -0.654,0.952 -8.156,12.024 1.31,1.31 12.025,-8.155 0.953,-0.654 -0.804,-0.804 -3.87,-3.869 -0.804,-0.804 z" /><path
             style="fill:#f4f4f4"
             inkscape:connector-curvature="0"
             id="polygon17"
             d="m 193.435,196.566 -0.804,0.804 -3.869,3.869 -0.833,0.804 0.953,0.654 12.025,8.155 1.339,-1.31 -8.156,-12.024 -0.655,-0.952 0,0 z" /><path
             style="fill:#f4f4f4"
             inkscape:connector-curvature="0"
             id="polygon19"
             d="m 200.912,141.176 -12.025,8.155 -0.953,0.655 0.833,0.804 3.87,3.87 0.804,0.803 0.655,-0.952 8.155,-12.025 -1.339,-1.31 z" /><path
             style="fill:#f4f4f4"
             inkscape:connector-curvature="0"
             id="path21"
             d="m 146.354,104.833 c -27.67,0 -50.123,22.453 -50.123,50.124 l 0,42.117 c 0,27.671 22.453,50.123 50.123,50.123 l 42.117,0 c 27.671,0 50.124,-22.452 50.124,-50.123 l 0,-42.117 c 0,-27.67 -22.452,-50.124 -50.124,-50.124 l -42.117,0 z m 0,1.906 42.117,0 c 26.644,0 48.219,21.577 48.219,48.218 l 0,42.117 c 0,26.644 -21.577,48.218 -48.219,48.218 l -42.117,0 c -26.642,0 -48.218,-21.574 -48.218,-48.218 l 0,-42.117 c 0,-26.642 21.577,-48.218 48.218,-48.218 z" /><path
             style="fill:#f4f4f4"
             inkscape:connector-curvature="0"
             id="polygon23"
             d="m 69.499,75.694 0,0.952 0,202.961 0,0.952 0.953,0 196.122,0 0.952,0 0,-0.952 0,-26.401 289.521,0 0.952,0 0,-0.952 0,-113.458 0,-0.953 -0.952,0 -289.522,0 0,-61.196 0,-0.952 -0.952,0 -196.122,0 -0.952,-10e-4 0,0 z m 1.904,1.905 194.217,0 0,61.196 0,0.953 0.953,0 0.714,0 288.807,0 0,111.552 -289.226,0 -0.297,0 -0.953,0 0,0.953 0,26.4 -194.217,0 0,-201.055 0.002,0.001 z" /><path
             style="fill:#f4f4f4"
             inkscape:connector-curvature="0"
             id="circle25"
             d="m 400.692,169.126 c -19.762,0 -35.777,16.046 -35.777,35.807 0,19.761 16.018,35.807 35.777,35.807 19.759,0 35.807,-16.046 35.807,-35.807 0,-19.761 -16.047,-35.807 -35.807,-35.807 l 0,0 z m 0,1.905 c 18.73,0 33.901,15.17 33.901,33.902 0,18.732 -15.171,33.902 -33.901,33.902 -18.731,0 -33.872,-15.171 -33.872,-33.902 0,-18.731 15.141,-33.902 33.872,-33.902 l 0,0 z" /><path
             style="fill:#f4f4f4"
             inkscape:connector-curvature="0"
             id="circle27"
             d="m 400.692,177.669 c -15.039,0 -27.234,12.227 -27.234,27.265 0,15.038 12.195,27.234 27.234,27.234 15.036,0 27.264,-12.196 27.264,-27.234 0,-15.038 -12.227,-27.265 -27.264,-27.265 z m 0,1.905 c 14.008,0 25.359,11.351 25.359,25.359 0,14.008 -11.352,25.33 -25.359,25.33 -14.01,0 -25.33,-11.321 -25.33,-25.33 0,-14.009 11.321,-25.359 25.33,-25.359 z" /><path
             style="fill:#f4f4f4"
             inkscape:connector-curvature="0"
             id="circle29"
             d="m 489.919,169.126 c -19.762,0 -35.807,16.046 -35.807,35.807 0,19.761 16.045,35.807 35.807,35.807 19.76,0 35.807,-16.046 35.807,-35.807 0,-19.761 -16.047,-35.807 -35.807,-35.807 l 0,0 z m 0,1.905 c 18.73,0 33.901,15.17 33.901,33.902 0,18.732 -15.171,33.902 -33.901,33.902 -18.731,0 -33.902,-15.171 -33.902,-33.902 0,-18.731 15.171,-33.902 33.902,-33.902 l 0,0 z" /><path
             style="fill:#f4f4f4"
             inkscape:connector-curvature="0"
             id="circle31"
             d="m 489.919,177.669 c -15.039,0 -27.234,12.227 -27.234,27.265 0,15.038 12.195,27.234 27.234,27.234 15.036,0 27.234,-12.196 27.234,-27.234 0,-15.038 -12.196,-27.265 -27.234,-27.265 z m 0,1.905 c 14.008,0 25.329,11.351 25.329,25.359 0,14.008 -11.321,25.33 -25.329,25.33 -14.01,0 -25.33,-11.321 -25.33,-25.33 0,-14.009 11.32,-25.359 25.33,-25.359 z" /><path
             style="fill:#f4f4f4"
             inkscape:connector-curvature="0"
             id="path33"
             d="m 39.406,68.432 c -4.766,0 -8.662,3.896 -8.662,8.662 l 0,203.084 c 0,4.766 3.897,8.661 8.662,8.661 l 518.646,0 c 4.429,0 7.956,-3.411 8.453,-7.709 l 0.179,0 0,-0.952 0,-203.085 c 0,-4.762 -3.868,-8.658 -8.64,-8.658 l -518.645,0 0.007,-0.003 z m 0,1.904 518.646,0 c 3.737,0 6.727,3.021 6.727,6.757 l 0,202.131 0,0.953 c 0,3.736 -2.989,6.756 -6.727,6.756 l -518.646,0 c -3.732,0.01 -6.753,-3.019 -6.753,-6.753 l 0,-203.083 c 0,-3.736 3.02,-6.756 6.756,-6.756 l -0.003,-0.005 z" /><path
             style="fill:#f4f4f4"
             inkscape:connector-curvature="0"
             id="rect35"
             d="m 359.021,163.559 0,0.953 0,81.465 0,0.952 0.953,0 81.465,0 0.953,0 0,-0.952 0,-81.465 0,-0.953 -0.953,0 -81.465,0 -0.953,0 z m 1.906,1.905 79.561,0 0,79.56 -79.561,0 0,-79.56 z" /><path
             style="fill:#f4f4f4"
             inkscape:connector-curvature="0"
             id="rect37"
             d="m 448.248,163.559 0,0.953 0,81.465 0,0.952 0.953,0 81.436,0 0.952,0 0,-0.952 0,-81.465 0,-0.953 -0.952,0 -81.436,0 -0.953,0 z m 1.905,1.905 79.531,0 0,79.56 -79.531,0 0,-79.56 z" /><path
             style="fill:#f4f4f4"
             inkscape:connector-curvature="0"
             id="polyline39"
             d="m 83.934,94.177 0,2.292 0,159.061 0,2.322 1.607,-1.638 25.33,-25.299 -1.369,-1.369 -23.663,23.692 0,-154.45 23.663,23.658 1.369,-1.34 -25.33,-25.299 -1.607,-1.637 0,0.007 z" /><path
             style="fill:#f4f4f4"
             inkscape:connector-curvature="0"
             id="polyline41"
             d="m 222.305,232.551 -1.37,1.339 23.693,23.692 -154.452,0 23.574,-23.573 -1.369,-1.339 -25.181,25.182 -1.637,1.637 2.292,0 159.062,0 2.292,0 -1.607,-1.637 -25.299,-25.3 0.002,-0.001 z" /><path
             style="fill:#f4f4f4"
             inkscape:connector-curvature="0"
             id="polyline43"
             d="m 250.878,94.177 -1.637,1.637 -25.211,25.182 1.369,1.369 23.574,-23.603 0,154.509 -23.633,-23.663 -1.339,1.34 25.24,25.27 1.637,1.638 0,-2.322 0,-159.063 0,-2.292 0,-0.002 z" /><path
             style="fill:#f4f4f4"
             inkscape:connector-curvature="0"
             id="polyline45"
             d="m 85.57,92.54 1.638,1.608 25.21,25.24 1.339,-1.34 -23.572,-23.602 154.452,0 -23.669,23.662 1.333,1.339 25.307,-25.3 1.607,-1.607 -2.292,0 -159.062,0 -2.291,0 0,0 z" /><path
             style="fill:#f4f4f4"
             inkscape:connector-curvature="0"
             id="line47"
             d="m 58.961,69.533 0,218.057 1.905,0 0,-218.057 -1.905,0 z" /><path
             style="fill:#f4f4f4"
             inkscape:connector-curvature="0"
             id="rect49"
             d="m 359.021,145.819 0,0.953 0,13.244 0,0.953 0.953,0 81.465,0 0.953,0 0,-0.953 0,-13.244 0,-0.953 -0.953,0 -81.465,0 -0.953,0 z m 1.906,1.905 79.561,0 0,11.339 -79.561,0 0,-11.339 z" /><path
             style="fill:#f4f4f4"
             inkscape:connector-curvature="0"
             id="rect51"
             d="m 448.248,145.819 0,0.953 0,13.244 0,0.953 0.953,0 81.436,0 0.952,0 0,-0.953 0,-13.244 0,-0.953 -0.952,0 -81.436,0 -0.953,0 z m 1.905,1.905 79.531,0 0,11.339 -79.531,0 0,-11.339 z" /><path
             style="fill:#f4f4f4"
             inkscape:connector-curvature="0"
             id="path53"
             d="m 276.804,73.134 c -0.987,0 -1.815,0.828 -1.815,1.816 l 0,53.01 c 0,0.988 0.829,1.815 1.815,1.815 l 282.855,0 c 0.985,0 1.785,-0.831 1.785,-1.815 l 0,-50.033 c 0,-2.641 -2.152,-4.792 -4.792,-4.792 l -279.844,0 -0.004,0 z m 0.09,1.906 279.756,0 c 1.613,0 2.888,1.275 2.888,2.887 l 0,49.945 -282.643,0 0,-52.832 -10e-4,0 z" /><path
             style="fill:#f4f4f4"
             inkscape:connector-curvature="0"
             id="path55"
             d="m 276.804,260.41 c -0.987,0 -1.815,0.829 -1.815,1.815 l 0,20.091 c 0,0.987 0.829,1.816 1.815,1.816 l 279.844,0 c 2.64,0 4.792,-2.183 4.792,-4.822 l 0,-17.085 c 0,-0.985 -0.8,-1.815 -1.785,-1.815 l -282.855,0 0.004,0 z m 0.09,1.905 282.645,0 0,16.995 c 0,1.611 -1.276,2.917 -2.888,2.917 l -279.758,0 0.001,-19.912 0,0 z" /><path
             style="fill:#f4f4f4"
             inkscape:connector-curvature="0"
             id="line57"
             d="m 274.461,129.271 -6.28,6.28 1.369,1.339 6.251,-6.25 -1.34,-1.369 z" /><path
             style="fill:#f4f4f4"
             inkscape:connector-curvature="0"
             id="line59"
             d="m 269.546,253.866 -1.369,1.34 6.281,6.28 1.339,-1.369 -6.251,-6.251 z" /></g></g></g></g><g
     inkscape:groupmode="layer"
     id="layer4"
     inkscape:label="Controller"><g
       id="g12192"
       transform="matrix(0.52634968,-0.38371487,-0.36199415,0.79024751,151.0404,222.06172)"><g
         id="g14423"
         transform="matrix(0.97864836,-0.00246716,0.09447489,0.98180674,12.353727,-43.706567)"><path
           d="m 122.456,80.856 c -39.209,0 -71.001,31.792 -71.001,71.001 0,39.209 31.792,71.031 71.001,71.031 39.208,0 71.031,-31.822 71.031,-71.031 0,-39.209 -31.823,-71.001 -71.031,-71.001 z m 0,1.891 c 38.187,0 69.14,30.923 69.14,69.11 0,38.187 -30.953,69.14 -69.14,69.14 -38.187,0 -69.11,-30.953 -69.11,-69.14 -10e-4,-38.187 30.923,-69.11 69.11,-69.11 z"
           id="circle3"
           inkscape:connector-curvature="0"
           style="fill:#f4f4f4" /><path
           d="m 122.456,96.279 c -30.683,0 -55.548,24.896 -55.548,55.578 0,30.682 24.866,55.578 55.548,55.578 30.682,0 55.578,-24.896 55.578,-55.578 0,-30.682 -24.896,-55.578 -55.578,-55.578 z m 0,1.891 c 29.66,0 53.687,24.026 53.687,53.687 0,29.66 -24.026,53.687 -53.687,53.687 -29.661,0 -53.657,-24.026 -53.657,-53.687 -0.001,-29.66 23.996,-53.687 53.657,-53.687 z"
           id="circle5"
           inkscape:connector-curvature="0"
           style="fill:#f4f4f4" /><path
           d="m 122.456,138.738 c -7.234,0 -13.119,5.885 -13.119,13.119 0,7.234 5.885,13.119 13.119,13.119 7.234,0 13.119,-5.884 13.119,-13.119 0,-7.235 -5.885,-13.119 -13.119,-13.119 z m 0,1.891 c 6.212,0 11.228,5.016 11.228,11.228 0,6.212 -5.016,11.228 -11.228,11.228 -6.212,0 -11.228,-5.016 -11.228,-11.228 0,-6.212 5.015,-11.228 11.228,-11.228 z"
           id="circle7"
           inkscape:connector-curvature="0"
           style="fill:#f4f4f4" /><path
           d="m 499.119,93.532 c -2.552,0 -4.639,2.087 -4.639,4.639 0,2.552 2.087,4.639 4.639,4.639 2.553,0 4.64,-2.087 4.64,-4.639 0,-2.552 -2.087,-4.639 -4.64,-4.639 z m 0,1.891 c 1.529,0 2.748,1.218 2.748,2.748 0,1.53 -1.219,2.748 -2.748,2.748 -1.53,0 -2.747,-1.218 -2.747,-2.748 0,-1.53 1.217,-2.748 2.747,-2.748 z"
           id="circle9"
           inkscape:connector-curvature="0"
           style="fill:#f4f4f4" /><path
           d="m 513.656,84.579 c -2.552,0 -4.668,2.087 -4.668,4.639 0,2.552 2.116,4.639 4.668,4.639 2.553,0 4.64,-2.087 4.64,-4.639 0,-2.552 -2.087,-4.639 -4.64,-4.639 z m 0,1.891 c 1.529,0 2.748,1.218 2.748,2.748 0,1.53 -1.219,2.748 -2.748,2.748 -1.53,0 -2.777,-1.218 -2.777,-2.748 0,-1.53 1.247,-2.748 2.777,-2.748 z"
           id="circle11"
           inkscape:connector-curvature="0"
           style="fill:#f4f4f4" /><path
           d="m 533.275,96.22 c -2.552,0 -4.639,2.087 -4.639,4.639 0,2.552 2.087,4.639 4.639,4.639 2.553,0 4.64,-2.087 4.64,-4.639 0,-2.552 -2.087,-4.639 -4.64,-4.639 z m 0,1.891 c 1.529,0 2.748,1.218 2.748,2.748 0,1.53 -1.219,2.748 -2.748,2.748 -1.53,0 -2.747,-1.218 -2.747,-2.748 0,-1.53 1.217,-2.748 2.747,-2.748 z"
           id="circle13"
           inkscape:connector-curvature="0"
           style="fill:#f4f4f4" /><path
           d="m 549.763,111.969 c -2.552,0 -4.639,2.087 -4.639,4.639 0,2.551 2.087,4.639 4.639,4.639 2.553,0 4.639,-2.087 4.639,-4.639 -0.001,-2.552 -2.087,-4.639 -4.639,-4.639 z m 0,1.891 c 1.529,0 2.748,1.218 2.748,2.748 0,1.53 -1.219,2.748 -2.748,2.748 -1.531,0 -2.748,-1.218 -2.748,-2.748 0,-1.53 1.216,-2.748 2.748,-2.748 z"
           id="circle15"
           inkscape:connector-curvature="0"
           style="fill:#f4f4f4" /><path
           d="m 562.32,131.027 c -2.552,0 -4.639,2.117 -4.639,4.668 0,2.551 2.087,4.639 4.639,4.639 2.552,0 4.639,-2.087 4.639,-4.639 0,-2.551 -2.087,-4.668 -4.639,-4.668 z m 0,1.89 c 1.529,0 2.748,1.248 2.748,2.778 0,1.53 -1.219,2.748 -2.748,2.748 -1.531,0 -2.748,-1.218 -2.748,-2.748 0,-1.53 1.217,-2.778 2.748,-2.778 z"
           id="circle17"
           inkscape:connector-curvature="0"
           style="fill:#f4f4f4" /><path
           d="m 570.239,152.448 c -2.553,0 -4.64,2.087 -4.64,4.639 0,2.552 2.087,4.639 4.64,4.639 2.552,0 4.639,-2.087 4.639,-4.639 0,-2.552 -2.087,-4.639 -4.639,-4.639 z m 0,1.891 c 1.528,0 2.747,1.218 2.747,2.748 0,1.53 -1.219,2.748 -2.747,2.748 -1.531,0 -2.748,-1.218 -2.748,-2.748 0,-1.53 1.217,-2.748 2.748,-2.748 z"
           id="circle19"
           inkscape:connector-curvature="0"
           style="fill:#f4f4f4" /><path
           d="m 573.135,175.081 c -2.553,0 -4.64,2.088 -4.64,4.639 0,2.551 2.087,4.64 4.64,4.64 2.552,0 4.639,-2.089 4.639,-4.64 0,-2.551 -2.087,-4.639 -4.639,-4.639 z m 0,1.891 c 1.528,0 2.747,1.219 2.747,2.748 0,1.53 -1.219,2.748 -2.747,2.748 -1.531,0 -2.748,-1.218 -2.748,-2.748 0,-1.53 1.217,-2.748 2.748,-2.748 z"
           id="circle21"
           inkscape:connector-curvature="0"
           style="fill:#f4f4f4" /><path
           d="m 570.889,197.773 c -2.552,0 -4.639,2.087 -4.639,4.639 0,2.551 2.087,4.64 4.639,4.64 2.553,0 4.639,-2.089 4.639,-4.64 -10e-4,-2.552 -2.087,-4.639 -4.639,-4.639 z m 0,1.892 c 1.529,0 2.748,1.217 2.748,2.747 0,1.529 -1.219,2.748 -2.748,2.748 -1.53,0 -2.748,-1.219 -2.748,-2.748 0,-1.53 1.217,-2.747 2.748,-2.747 z"
           id="circle23"
           inkscape:connector-curvature="0"
           style="fill:#f4f4f4" /><path
           d="m 563.562,219.402 c -2.553,0 -4.639,2.086 -4.639,4.639 0,2.55 2.086,4.639 4.639,4.639 2.552,0 4.639,-2.089 4.639,-4.639 -10e-4,-2.553 -2.088,-4.639 -4.639,-4.639 z m 0,1.891 c 1.529,0 2.748,1.217 2.748,2.748 0,1.528 -1.219,2.748 -2.748,2.748 -1.531,0 -2.748,-1.22 -2.748,-2.748 -10e-4,-1.531 1.216,-2.748 2.748,-2.748 z"
           id="circle25-0"
           inkscape:connector-curvature="0"
           style="fill:#f4f4f4" /><path
           d="m 551.595,238.814 c -2.552,0 -4.639,2.087 -4.639,4.639 0,2.55 2.087,4.639 4.639,4.639 2.552,0 4.639,-2.089 4.639,-4.639 -0.001,-2.552 -2.088,-4.639 -4.639,-4.639 z m 0,1.891 c 1.529,0 2.748,1.217 2.748,2.748 0,1.529 -1.219,2.748 -2.748,2.748 -1.531,0 -2.748,-1.219 -2.748,-2.748 0,-1.531 1.216,-2.748 2.748,-2.748 z"
           id="circle27-8"
           inkscape:connector-curvature="0"
           style="fill:#f4f4f4" /><path
           d="m 535.551,255.035 c -2.552,0 -4.639,2.087 -4.639,4.64 0,2.55 2.087,4.639 4.639,4.639 2.552,0 4.639,-2.089 4.639,-4.639 -0.001,-2.553 -2.087,-4.64 -4.639,-4.64 z m 0,1.892 c 1.529,0 2.748,1.217 2.748,2.748 0,1.528 -1.219,2.747 -2.748,2.747 -1.531,0 -2.748,-1.219 -2.748,-2.747 0,-1.531 1.217,-2.748 2.748,-2.748 z"
           id="circle29-0"
           inkscape:connector-curvature="0"
           style="fill:#f4f4f4" /><path
           d="m 516.257,267.238 c -2.553,0 -4.639,2.087 -4.639,4.639 0,2.551 2.086,4.64 4.639,4.64 2.552,0 4.639,-2.089 4.639,-4.64 0,-2.552 -2.087,-4.639 -4.639,-4.639 z m 0,1.891 c 1.529,0 2.748,1.218 2.748,2.748 0,1.529 -1.219,2.748 -2.748,2.748 -1.531,0 -2.748,-1.219 -2.748,-2.748 0,-1.53 1.217,-2.748 2.748,-2.748 z"
           id="circle31-9"
           inkscape:connector-curvature="0"
           style="fill:#f4f4f4" /><path
           d="m 517.113,101.687 c -2.552,0 -4.639,2.087 -4.639,4.639 0,2.552 2.087,4.639 4.639,4.639 2.553,0 4.639,-2.087 4.639,-4.639 0,-2.552 -2.086,-4.639 -4.639,-4.639 z m 0,1.891 c 1.529,0 2.748,1.218 2.748,2.748 0,1.53 -1.219,2.748 -2.748,2.748 -1.53,0 -2.748,-1.218 -2.748,-2.748 0,-1.531 1.218,-2.748 2.748,-2.748 z"
           id="circle33"
           inkscape:connector-curvature="0"
           style="fill:#f4f4f4" /><path
           d="m 532.803,113.683 c -2.552,0 -4.639,2.087 -4.639,4.639 0,2.552 2.087,4.639 4.639,4.639 2.552,0 4.639,-2.087 4.639,-4.639 -10e-4,-2.552 -2.088,-4.639 -4.639,-4.639 z m 0,1.891 c 1.529,0 2.748,1.218 2.748,2.748 0,1.53 -1.219,2.748 -2.748,2.748 -1.53,0 -2.748,-1.218 -2.748,-2.748 0,-1.53 1.217,-2.748 2.748,-2.748 z"
           id="circle35"
           inkscape:connector-curvature="0"
           style="fill:#f4f4f4" /><path
           d="m 545.39,128.87 c -2.552,0 -4.639,2.087 -4.639,4.639 0,2.551 2.087,4.639 4.639,4.639 2.553,0 4.639,-2.087 4.639,-4.639 -10e-4,-2.552 -2.087,-4.639 -4.639,-4.639 z m 0,1.891 c 1.529,0 2.748,1.218 2.748,2.748 0,1.53 -1.219,2.748 -2.748,2.748 -1.53,0 -2.748,-1.218 -2.748,-2.748 0,-1.53 1.217,-2.748 2.748,-2.748 z"
           id="circle37"
           inkscape:connector-curvature="0"
           style="fill:#f4f4f4" /><path
           d="m 554.225,146.539 c -2.552,0 -4.639,2.087 -4.639,4.639 0,2.552 2.087,4.639 4.639,4.639 2.552,0 4.639,-2.087 4.639,-4.639 0,-2.552 -2.088,-4.639 -4.639,-4.639 z m 0,1.891 c 1.528,0 2.748,1.218 2.748,2.748 0,1.53 -1.22,2.748 -2.748,2.748 -1.531,0 -2.748,-1.218 -2.748,-2.748 0,-1.531 1.216,-2.748 2.748,-2.748 z"
           id="circle39"
           inkscape:connector-curvature="0"
           style="fill:#f4f4f4" /><path
           d="m 558.863,165.715 c -2.552,0 -4.639,2.087 -4.639,4.639 0,2.552 2.087,4.639 4.639,4.639 2.552,0 4.639,-2.087 4.639,-4.639 0,-2.552 -2.087,-4.639 -4.639,-4.639 z m 0,1.89 c 1.529,0 2.748,1.218 2.748,2.748 0,1.53 -1.219,2.748 -2.748,2.748 -1.531,0 -2.748,-1.218 -2.748,-2.748 0,-1.529 1.217,-2.748 2.748,-2.748 z"
           id="circle41"
           inkscape:connector-curvature="0"
           style="fill:#f4f4f4" /><path
           d="m 559.1,185.452 c -2.552,0 -4.639,2.087 -4.639,4.639 0,2.551 2.087,4.64 4.639,4.64 2.552,0 4.639,-2.089 4.639,-4.64 -10e-4,-2.552 -2.088,-4.639 -4.639,-4.639 z m 0,1.892 c 1.529,0 2.748,1.217 2.748,2.747 0,1.529 -1.219,2.748 -2.748,2.748 -1.531,0 -2.748,-1.219 -2.748,-2.748 0,-1.53 1.216,-2.747 2.748,-2.747 z"
           id="circle43"
           inkscape:connector-curvature="0"
           style="fill:#f4f4f4" /><path
           d="m 554.845,204.717 c -2.552,0 -4.639,2.087 -4.639,4.64 0,2.55 2.087,4.668 4.639,4.668 2.553,0 4.639,-2.118 4.639,-4.668 -0.001,-2.553 -2.087,-4.64 -4.639,-4.64 z m 0,1.891 c 1.529,0 2.748,1.217 2.748,2.748 0,1.528 -1.219,2.777 -2.748,2.777 -1.531,0 -2.748,-1.249 -2.748,-2.777 0,-1.531 1.216,-2.748 2.748,-2.748 z"
           id="circle45"
           inkscape:connector-curvature="0"
           style="fill:#f4f4f4" /><path
           d="m 546.395,222.563 c -2.552,0 -4.639,2.087 -4.639,4.639 0,2.551 2.087,4.639 4.639,4.639 2.552,0 4.639,-2.088 4.639,-4.639 -10e-4,-2.552 -2.088,-4.639 -4.639,-4.639 z m 0,1.891 c 1.529,0 2.748,1.218 2.748,2.748 0,1.529 -1.219,2.748 -2.748,2.748 -1.531,0 -2.748,-1.219 -2.748,-2.748 -0.001,-1.53 1.216,-2.748 2.748,-2.748 z"
           id="circle47"
           inkscape:connector-curvature="0"
           style="fill:#f4f4f4" /><path
           d="m 534.133,238.046 c -2.553,0 -4.64,2.087 -4.64,4.639 0,2.551 2.087,4.64 4.64,4.64 2.552,0 4.639,-2.089 4.639,-4.64 -0.001,-2.552 -2.087,-4.639 -4.639,-4.639 z m 0,1.891 c 1.528,0 2.747,1.218 2.747,2.748 0,1.529 -1.219,2.748 -2.747,2.748 -1.531,0 -2.748,-1.219 -2.748,-2.748 0,-1.531 1.217,-2.748 2.748,-2.748 z"
           id="circle49"
           inkscape:connector-curvature="0"
           style="fill:#f4f4f4" /><path
           d="m 518.709,250.367 c -2.552,0 -4.639,2.087 -4.639,4.639 0,2.551 2.087,4.639 4.639,4.639 2.552,0 4.639,-2.088 4.639,-4.639 0,-2.552 -2.087,-4.639 -4.639,-4.639 z m 0,1.891 c 1.529,0 2.748,1.217 2.748,2.748 0,1.529 -1.219,2.748 -2.748,2.748 -1.531,0 -2.748,-1.219 -2.748,-2.748 0,-1.531 1.217,-2.748 2.748,-2.748 z"
           id="circle51"
           inkscape:connector-curvature="0"
           style="fill:#f4f4f4" /><path
           d="m 500.922,258.906 c -2.552,0 -4.639,2.087 -4.639,4.639 0,2.551 2.087,4.639 4.639,4.639 2.552,0 4.639,-2.088 4.639,-4.639 0,-2.552 -2.087,-4.639 -4.639,-4.639 z m 0,1.891 c 1.529,0 2.748,1.217 2.748,2.748 0,1.529 -1.219,2.748 -2.748,2.748 -1.531,0 -2.748,-1.219 -2.748,-2.748 0,-1.531 1.217,-2.748 2.748,-2.748 z"
           id="circle53"
           inkscape:connector-curvature="0"
           style="fill:#f4f4f4" /><path
           d="m 96.897,63.837 c -2.552,0 -4.639,2.117 -4.639,4.668 0,2.551 2.087,4.639 4.639,4.639 2.552,0 4.639,-2.087 4.639,-4.639 0,-2.552 -2.087,-4.668 -4.639,-4.668 z m 0,1.891 c 1.53,0 2.748,1.248 2.748,2.777 0,1.529 -1.218,2.748 -2.748,2.748 -1.53,0 -2.748,-1.218 -2.748,-2.748 0,-1.53 1.218,-2.777 2.748,-2.777 z"
           id="circle55"
           inkscape:connector-curvature="0"
           style="fill:#f4f4f4" /><path
           d="m 82.36,54.884 c -2.552,0 -4.639,2.087 -4.639,4.639 0,2.552 2.087,4.639 4.639,4.639 2.552,0 4.639,-2.087 4.639,-4.639 0,-2.551 -2.087,-4.639 -4.639,-4.639 z m 0,1.891 c 1.53,0 2.748,1.218 2.748,2.748 0,1.53 -1.218,2.748 -2.748,2.748 -1.53,0 -2.748,-1.218 -2.748,-2.748 0,-1.53 1.218,-2.748 2.748,-2.748 z"
           id="circle57"
           inkscape:connector-curvature="0"
           style="fill:#f4f4f4" /><path
           d="m 62.741,66.526 c -2.552,0 -4.639,2.087 -4.639,4.639 0,2.552 2.087,4.639 4.639,4.639 2.552,0 4.639,-2.087 4.639,-4.639 0,-2.552 -2.087,-4.639 -4.639,-4.639 z m 0,1.891 c 1.53,0 2.748,1.218 2.748,2.748 0,1.53 -1.218,2.748 -2.748,2.748 -1.53,0 -2.748,-1.218 -2.748,-2.748 0,-1.53 1.218,-2.748 2.748,-2.748 z"
           id="circle59"
           inkscape:connector-curvature="0"
           style="fill:#f4f4f4" /><path
           d="m 46.254,82.274 c -2.552,0 -4.639,2.087 -4.639,4.639 0,2.552 2.087,4.639 4.639,4.639 2.552,0 4.639,-2.087 4.639,-4.639 0,-2.552 -2.087,-4.639 -4.639,-4.639 z m 0,1.891 c 1.53,0 2.748,1.218 2.748,2.748 0,1.53 -1.218,2.748 -2.748,2.748 -1.53,0 -2.748,-1.218 -2.748,-2.748 0,-1.53 1.218,-2.748 2.748,-2.748 z"
           id="circle61"
           inkscape:connector-curvature="0"
           style="fill:#f4f4f4" /><path
           d="m 33.696,101.361 c -2.552,0 -4.639,2.087 -4.639,4.639 0,2.552 2.087,4.639 4.639,4.639 2.552,0 4.639,-2.087 4.639,-4.639 0,-2.552 -2.087,-4.639 -4.639,-4.639 z m 0,1.891 c 1.53,0 2.748,1.218 2.748,2.748 0,1.53 -1.218,2.748 -2.748,2.748 -1.53,0 -2.748,-1.218 -2.748,-2.748 0,-1.53 1.219,-2.748 2.748,-2.748 z"
           id="circle63"
           inkscape:connector-curvature="0"
           style="fill:#f4f4f4" /><path
           d="m 25.778,122.753 c -2.552,0 -4.639,2.087 -4.639,4.639 0,2.551 2.087,4.639 4.639,4.639 2.552,0 4.639,-2.087 4.639,-4.639 0,-2.551 -2.087,-4.639 -4.639,-4.639 z m 0,1.892 c 1.53,0 2.748,1.218 2.748,2.748 0,1.53 -1.218,2.748 -2.748,2.748 -1.53,0 -2.748,-1.218 -2.748,-2.748 0,-1.531 1.218,-2.748 2.748,-2.748 z"
           id="circle65"
           inkscape:connector-curvature="0"
           style="fill:#f4f4f4" /><path
           d="m 22.882,145.386 c -2.552,0 -4.639,2.087 -4.639,4.639 0,2.552 2.087,4.639 4.639,4.639 2.552,0 4.639,-2.087 4.639,-4.639 0,-2.552 -2.087,-4.639 -4.639,-4.639 z m 0,1.891 c 1.53,0 2.748,1.218 2.748,2.748 0,1.53 -1.218,2.748 -2.748,2.748 -1.53,0 -2.748,-1.218 -2.748,-2.748 0,-1.53 1.219,-2.748 2.748,-2.748 z"
           id="circle67"
           inkscape:connector-curvature="0"
           style="fill:#f4f4f4" /><path
           d="m 25.128,168.079 c -2.552,0 -4.639,2.087 -4.639,4.639 0,2.551 2.087,4.639 4.639,4.639 2.552,0 4.639,-2.088 4.639,-4.639 0,-2.552 -2.087,-4.639 -4.639,-4.639 z m 0,1.891 c 1.53,0 2.748,1.218 2.748,2.748 0,1.529 -1.218,2.748 -2.748,2.748 -1.53,0 -2.748,-1.219 -2.748,-2.748 0,-1.53 1.218,-2.748 2.748,-2.748 z"
           id="circle69"
           inkscape:connector-curvature="0"
           style="fill:#f4f4f4" /><path
           d="m 32.456,189.707 c -2.552,0 -4.668,2.087 -4.668,4.639 0,2.551 2.117,4.64 4.668,4.64 2.551,0 4.639,-2.089 4.639,-4.64 -10e-4,-2.552 -2.088,-4.639 -4.639,-4.639 z m 0,1.892 c 1.53,0 2.748,1.217 2.748,2.747 0,1.529 -1.218,2.748 -2.748,2.748 -1.53,0 -2.777,-1.219 -2.777,-2.748 -10e-4,-1.531 1.247,-2.747 2.777,-2.747 z"
           id="circle71"
           inkscape:connector-curvature="0"
           style="fill:#f4f4f4" /><path
           d="m 44.422,209.119 c -2.552,0 -4.639,2.087 -4.639,4.64 0,2.55 2.087,4.639 4.639,4.639 2.552,0 4.639,-2.089 4.639,-4.639 0,-2.553 -2.087,-4.64 -4.639,-4.64 z m 0,1.892 c 1.53,0 2.748,1.217 2.748,2.748 0,1.528 -1.218,2.748 -2.748,2.748 -1.53,0 -2.748,-1.22 -2.748,-2.748 0,-1.531 1.218,-2.748 2.748,-2.748 z"
           id="circle73"
           inkscape:connector-curvature="0"
           style="fill:#f4f4f4" /><path
           d="m 60.466,225.341 c -2.552,0 -4.639,2.087 -4.639,4.639 0,2.551 2.087,4.669 4.639,4.669 2.552,0 4.639,-2.118 4.639,-4.669 0,-2.552 -2.087,-4.639 -4.639,-4.639 z m 0,1.89 c 1.53,0 2.748,1.218 2.748,2.748 0,1.529 -1.218,2.777 -2.748,2.777 -1.53,0 -2.748,-1.248 -2.748,-2.777 0,-1.53 1.218,-2.748 2.748,-2.748 z"
           id="circle75"
           inkscape:connector-curvature="0"
           style="fill:#f4f4f4" /><path
           d="m 79.76,237.544 c -2.552,0 -4.639,2.087 -4.639,4.639 0,2.55 2.087,4.639 4.639,4.639 2.551,0 4.639,-2.089 4.639,-4.639 0,-2.552 -2.087,-4.639 -4.639,-4.639 z m 0,1.891 c 1.53,0 2.748,1.217 2.748,2.748 0,1.529 -1.218,2.748 -2.748,2.748 -1.53,0 -2.748,-1.219 -2.748,-2.748 0,-1.532 1.218,-2.748 2.748,-2.748 z"
           id="circle77"
           inkscape:connector-curvature="0"
           style="fill:#f4f4f4" /><path
           d="m 78.903,71.992 c -2.552,0 -4.639,2.087 -4.639,4.639 0,2.552 2.087,4.639 4.639,4.639 2.552,0 4.639,-2.087 4.639,-4.639 0,-2.552 -2.087,-4.639 -4.639,-4.639 z m 0,1.891 c 1.53,0 2.748,1.218 2.748,2.748 0,1.53 -1.218,2.748 -2.748,2.748 -1.53,0 -2.748,-1.218 -2.748,-2.748 0,-1.53 1.218,-2.748 2.748,-2.748 z"
           id="circle79"
           inkscape:connector-curvature="0"
           style="fill:#f4f4f4" /><path
           d="m 63.214,83.988 c -2.552,0 -4.639,2.087 -4.639,4.639 0,2.552 2.087,4.639 4.639,4.639 2.552,0 4.639,-2.087 4.639,-4.639 0,-2.552 -2.087,-4.639 -4.639,-4.639 z m 0,1.891 c 1.53,0 2.748,1.218 2.748,2.748 0,1.53 -1.218,2.748 -2.748,2.748 -1.53,0 -2.748,-1.218 -2.748,-2.748 0,-1.53 1.218,-2.748 2.748,-2.748 z"
           id="circle81"
           inkscape:connector-curvature="0"
           style="fill:#f4f4f4" /><path
           d="m 50.627,99.175 c -2.552,0 -4.639,2.087 -4.639,4.639 0,2.552 2.087,4.668 4.639,4.668 2.552,0 4.639,-2.117 4.639,-4.668 0,-2.551 -2.087,-4.639 -4.639,-4.639 z m 0,1.891 c 1.53,0 2.748,1.218 2.748,2.748 0,1.53 -1.218,2.777 -2.748,2.777 -1.53,0 -2.748,-1.248 -2.748,-2.777 0,-1.529 1.218,-2.748 2.748,-2.748 z"
           id="circle83"
           inkscape:connector-curvature="0"
           style="fill:#f4f4f4" /><path
           d="m 41.792,116.844 c -2.552,0 -4.639,2.087 -4.639,4.639 0,2.552 2.087,4.639 4.639,4.639 2.551,0 4.639,-2.087 4.639,-4.639 0,-2.552 -2.087,-4.639 -4.639,-4.639 z m 0,1.891 c 1.53,0 2.748,1.218 2.748,2.748 0,1.53 -1.218,2.748 -2.748,2.748 -1.53,0 -2.748,-1.218 -2.748,-2.748 0,-1.53 1.218,-2.748 2.748,-2.748 z"
           id="circle85"
           inkscape:connector-curvature="0"
           style="fill:#f4f4f4" /><path
           d="m 37.153,136.02 c -2.552,0 -4.639,2.087 -4.639,4.639 0,2.551 2.087,4.639 4.639,4.639 2.552,0 4.639,-2.087 4.639,-4.639 0,-2.552 -2.087,-4.639 -4.639,-4.639 z m 0,1.891 c 1.53,0 2.748,1.218 2.748,2.748 0,1.53 -1.218,2.748 -2.748,2.748 -1.53,0 -2.748,-1.218 -2.748,-2.748 10e-4,-1.53 1.219,-2.748 2.748,-2.748 z"
           id="circle87"
           inkscape:connector-curvature="0"
           style="fill:#f4f4f4" /><path
           d="m 36.917,155.757 c -2.552,0 -4.639,2.087 -4.639,4.639 0,2.551 2.087,4.639 4.639,4.639 2.552,0 4.639,-2.087 4.639,-4.639 0,-2.551 -2.087,-4.639 -4.639,-4.639 z m 0,1.891 c 1.53,0 2.748,1.218 2.748,2.748 0,1.53 -1.218,2.748 -2.748,2.748 -1.53,0 -2.748,-1.218 -2.748,-2.748 0,-1.53 1.218,-2.748 2.748,-2.748 z"
           id="circle89"
           inkscape:connector-curvature="0"
           style="fill:#f4f4f4" /><path
           d="m 41.172,175.052 c -2.551,0 -4.639,2.088 -4.639,4.639 0,2.551 2.087,4.639 4.639,4.639 2.552,0 4.639,-2.088 4.639,-4.639 0,-2.551 -2.088,-4.639 -4.639,-4.639 z m 0,1.89 c 1.529,0 2.748,1.219 2.748,2.748 0,1.529 -1.219,2.748 -2.748,2.748 -1.529,0 -2.748,-1.219 -2.748,-2.748 0,-1.529 1.219,-2.748 2.748,-2.748 z"
           id="circle91"
           inkscape:connector-curvature="0"
           style="fill:#f4f4f4" /><path
           d="m 49.622,192.869 c -2.551,0 -4.639,2.087 -4.639,4.639 0,2.55 2.087,4.639 4.639,4.639 2.552,0 4.639,-2.089 4.639,-4.639 0,-2.552 -2.087,-4.639 -4.639,-4.639 z m 0,1.891 c 1.53,0 2.748,1.217 2.748,2.748 0,1.529 -1.218,2.748 -2.748,2.748 -1.53,0 -2.748,-1.219 -2.748,-2.748 10e-4,-1.531 1.218,-2.748 2.748,-2.748 z"
           id="circle93"
           inkscape:connector-curvature="0"
           style="fill:#f4f4f4" /><path
           d="m 61.884,208.352 c -2.552,0 -4.639,2.087 -4.639,4.639 0,2.55 2.087,4.639 4.639,4.639 2.552,0 4.639,-2.089 4.639,-4.639 0,-2.553 -2.087,-4.639 -4.639,-4.639 z m 0,1.89 c 1.53,0 2.748,1.217 2.748,2.748 0,1.529 -1.218,2.748 -2.748,2.748 -1.53,0 -2.748,-1.219 -2.748,-2.748 0,-1.531 1.218,-2.748 2.748,-2.748 z"
           id="circle95"
           inkscape:connector-curvature="0"
           style="fill:#f4f4f4" /><path
           d="m 77.308,220.673 c -2.552,0 -4.639,2.086 -4.639,4.639 0,2.55 2.087,4.639 4.639,4.639 2.552,0 4.639,-2.089 4.639,-4.639 0,-2.553 -2.088,-4.639 -4.639,-4.639 z m 0,1.89 c 1.53,0 2.748,1.217 2.748,2.748 0,1.529 -1.218,2.748 -2.748,2.748 -1.53,0 -2.748,-1.219 -2.748,-2.748 0,-1.531 1.218,-2.748 2.748,-2.748 z"
           id="circle97"
           inkscape:connector-curvature="0"
           style="fill:#f4f4f4" /><path
           d="m 95.095,229.212 c -2.551,0 -4.639,2.086 -4.639,4.639 0,2.55 2.087,4.639 4.639,4.639 2.552,0 4.639,-2.089 4.639,-4.639 0,-2.553 -2.088,-4.639 -4.639,-4.639 z m 0,1.891 c 1.53,0 2.748,1.217 2.748,2.748 0,1.529 -1.218,2.748 -2.748,2.748 -1.53,0 -2.748,-1.219 -2.748,-2.748 0,-1.532 1.218,-2.748 2.748,-2.748 z"
           id="circle99"
           inkscape:connector-curvature="0"
           style="fill:#f4f4f4" /><g
           id="g101"><path
             d="m 458.049,105.055 c -16.909,0 -30.64,13.731 -30.64,30.641 0,16.909 13.73,30.64 30.64,30.64 16.908,0 30.611,-13.731 30.611,-30.64 0,-16.91 -13.703,-30.641 -30.611,-30.641 z m 0,1.891 c 15.888,0 28.72,12.862 28.72,28.75 0,15.887 -12.832,28.749 -28.72,28.749 -15.887,0 -28.749,-12.862 -28.749,-28.749 0,-15.888 12.862,-28.75 28.749,-28.75 z"
             id="circle103"
             inkscape:connector-curvature="0"
             style="fill:#f4f4f4" /><path
             d="m 458.049,113.978 c -11.99,0 -21.746,9.728 -21.746,21.717 0,11.989 9.756,21.717 21.746,21.717 11.989,0 21.718,-9.728 21.718,-21.717 0,-11.989 -9.729,-21.717 -21.718,-21.717 z m 0,1.891 c 10.968,0 19.826,8.858 19.826,19.826 0,10.967 -8.858,19.826 -19.826,19.826 -10.967,0 -19.855,-8.858 -19.855,-19.826 -0.001,-10.967 8.888,-19.826 19.855,-19.826 z"
             id="circle105"
             inkscape:connector-curvature="0"
             style="fill:#f4f4f4" /></g><g
           id="g107"><path
             d="m 458.049,196.119 c -16.909,0 -30.64,13.729 -30.64,30.64 0,16.908 13.73,30.641 30.64,30.641 16.908,0 30.611,-13.732 30.611,-30.641 0,-16.91 -13.703,-30.64 -30.611,-30.64 z m 0,1.891 c 15.888,0 28.72,12.862 28.72,28.749 0,15.888 -12.832,28.749 -28.72,28.749 -15.887,0 -28.749,-12.861 -28.749,-28.749 0,-15.887 12.862,-28.749 28.749,-28.749 z"
             id="circle109"
             inkscape:connector-curvature="0"
             style="fill:#f4f4f4" /><path
             d="m 458.049,205.013 c -11.99,0 -21.746,9.756 -21.746,21.746 0,11.989 9.756,21.717 21.746,21.717 11.989,0 21.718,-9.728 21.718,-21.717 0,-11.99 -9.729,-21.746 -21.718,-21.746 z m 0,1.89 c 10.968,0 19.826,8.889 19.826,19.855 0,10.968 -8.858,19.826 -19.826,19.826 -10.967,0 -19.855,-8.858 -19.855,-19.826 -0.001,-10.966 8.888,-19.855 19.855,-19.855 z"
             id="circle111"
             inkscape:connector-curvature="0"
             style="fill:#f4f4f4" /></g><g
           id="g113"><path
             d="m 403.003,149.789 c -16.91,0 -30.64,13.731 -30.64,30.64 0,16.909 13.729,30.641 30.64,30.641 16.908,0 30.641,-13.731 30.641,-30.641 0,-16.909 -13.733,-30.64 -30.641,-30.64 z m 0,1.891 c 15.888,0 28.75,12.862 28.75,28.749 0,15.888 -12.862,28.75 -28.75,28.75 -15.887,0 -28.749,-12.862 -28.749,-28.75 0,-15.887 12.862,-28.749 28.749,-28.749 z"
             id="circle115"
             inkscape:connector-curvature="0"
             style="fill:#f4f4f4" /><path
             d="m 403.003,158.712 c -11.99,0 -21.717,9.728 -21.717,21.717 0,11.989 9.727,21.718 21.717,21.718 11.989,0 21.747,-9.729 21.747,-21.718 0,-11.989 -9.758,-21.717 -21.747,-21.717 z m 0,1.891 c 10.968,0 19.855,8.858 19.855,19.826 0,10.969 -8.888,19.827 -19.855,19.827 -10.967,0 -19.825,-8.858 -19.825,-19.827 0,-10.968 8.858,-19.826 19.825,-19.826 z"
             id="circle117"
             inkscape:connector-curvature="0"
             style="fill:#f4f4f4" /></g><g
           id="g119"><path
             d="m 512.268,149.789 c -16.91,0 -30.64,13.731 -30.64,30.64 0,16.909 13.729,30.641 30.64,30.641 16.908,0 30.641,-13.731 30.641,-30.641 -10e-4,-16.909 -13.733,-30.64 -30.641,-30.64 z m 0,1.891 c 15.888,0 28.749,12.862 28.749,28.749 0,15.888 -12.861,28.75 -28.749,28.75 -15.887,0 -28.749,-12.862 -28.749,-28.75 0,-15.887 12.862,-28.749 28.749,-28.749 z"
             id="circle121"
             inkscape:connector-curvature="0"
             style="fill:#f4f4f4" /><path
             d="m 512.268,158.712 c -11.99,0 -21.717,9.728 -21.717,21.717 0,11.989 9.727,21.718 21.717,21.718 11.989,0 21.747,-9.729 21.747,-21.718 0,-11.989 -9.758,-21.717 -21.747,-21.717 z m 0,1.891 c 10.968,0 19.855,8.858 19.855,19.826 0,10.969 -8.888,19.827 -19.855,19.827 -10.967,0 -19.826,-8.858 -19.826,-19.827 -0.001,-10.968 8.859,-19.826 19.826,-19.826 z"
             id="circle123"
             inkscape:connector-curvature="0"
             style="fill:#f4f4f4" /></g><path
           d="m 138.706,99.648 c -3.81,4.599 -7.014,12.519 -8.391,20.358 -1.377,7.838 -1.012,15.661 3.162,19.855 4.509,4.533 12.249,5.746 20.18,4.846 7.932,-0.901 16.114,-3.958 21.628,-8.451 l -1.182,-1.448 c -5.123,4.174 -13.056,7.145 -20.653,8.007 -7.597,0.862 -14.798,-0.419 -18.644,-4.284 -3.344,-3.361 -3.958,-10.647 -2.63,-18.201 1.328,-7.554 4.527,-15.306 7.978,-19.471 l -1.448,-1.211 z"
           id="path125"
           inkscape:connector-curvature="0"
           style="fill:#f4f4f4" /><path
           d="m 97.399,159.096 c -1.913,-0.057 -3.897,0.041 -5.88,0.266 -7.931,0.901 -16.084,3.958 -21.599,8.45 l 1.182,1.448 c 5.123,-4.174 13.056,-7.144 20.653,-8.007 7.597,-0.863 14.798,0.419 18.644,4.285 3.344,3.362 3.957,10.647 2.629,18.202 -1.328,7.553 -4.527,15.305 -7.978,19.471 l 1.448,1.212 c 3.81,-4.599 7.014,-12.521 8.392,-20.358 1.377,-7.838 1.012,-15.661 -3.162,-19.855 -3.38,-3.401 -8.589,-4.941 -14.329,-5.114 z"
           id="path127"
           inkscape:connector-curvature="0"
           style="fill:#f4f4f4" /><path
           d="m 148.516,159.066 c -5.702,-0.282 -10.889,0.712 -14.035,3.841 -4.532,4.51 -5.717,12.25 -4.816,20.181 0.9,7.932 3.928,16.114 8.421,21.628 l 1.477,-1.182 c -4.174,-5.123 -7.174,-13.056 -8.037,-20.653 -0.863,-7.597 0.419,-14.799 4.284,-18.645 3.361,-3.343 10.647,-3.958 18.201,-2.629 7.554,1.328 15.335,4.526 19.501,7.978 l 1.182,-1.448 c -4.599,-3.811 -12.519,-7.014 -20.358,-8.392 -1.959,-0.343 -3.919,-0.584 -5.82,-0.679 z"
           id="path129"
           inkscape:connector-curvature="0"
           style="fill:#f4f4f4" /><path
           d="m 106.825,99.618 -1.448,1.211 c 4.174,5.123 7.144,13.027 8.007,20.624 0.863,7.597 -0.419,14.798 -4.284,18.644 -3.361,3.344 -10.647,3.987 -18.201,2.659 -7.554,-1.328 -15.307,-4.527 -19.472,-7.978 l -1.211,1.448 c 4.598,3.81 12.519,7.014 20.358,8.391 7.839,1.378 15.66,1.012 19.855,-3.162 4.532,-4.509 5.747,-12.278 4.846,-20.21 -0.9,-7.93 -3.958,-16.113 -8.45,-21.627 z"
           id="path131"
           inkscape:connector-curvature="0"
           style="fill:#f4f4f4" /><path
           d="m 383.089,69.924 -0.266,0.207 -0.178,0.118 -0.089,0.089 -0.059,0.088 -146.493,192.676 -0.029,0.03 -0.029,0.059 -0.237,0.384 -0.827,1.419 1.655,0 157.928,0 c 2.829,0 5.969,2.984 5.969,2.984 l 0.029,0.029 0.03,0.029 c 19.593,16.626 44.979,26.651 72.685,26.651 62.061,0 112.396,-50.31 112.396,-112.367 0,-62.059 -50.338,-112.396 -112.396,-112.396 l -89.763,0 -0.326,0 0,0 z m 0.738,1.89 89.35,0 c 61.037,0 110.506,49.469 110.506,110.506 0,61.037 -49.469,110.477 -110.506,110.477 -27.22,0 -52.128,-9.834 -71.385,-26.149 0,0 -0.058,-0.06 -0.06,-0.06 -0.096,-0.103 -3.3,-3.486 -7.269,-3.486 l -156.095,0 145.459,-191.288 z"
           id="path133"
           inkscape:connector-curvature="0"
           style="fill:#f4f4f4" /><path
           d="m 123.224,40.229 c -62.06,0 -112.396,50.338 -112.396,112.396 0,62.058 50.337,112.368 112.396,112.368 l 106.191,0 0.414,0 0.266,-0.296 0.384,-0.384 0.029,-0.029 0.03,-0.06 146.464,-192.646 0.562,-0.738 -0.709,-0.591 -0.178,-0.118 -0.266,-0.207 -0.325,0 -173.086,0 c -1.719,0 -3.858,-0.964 -5.496,-1.98 -1.637,-1.016 -2.777,-2.039 -2.777,-2.039 l -0.029,0 C 175.271,49.873 150.374,40.229 123.224,40.229 Z m 0,1.891 c 26.704,0 51.161,9.47 70.263,25.233 l 0,-0.03 0.029,0 c 0.016,0.014 1.214,1.118 2.984,2.216 1.781,1.105 4.127,2.275 6.5,2.275 l 171.432,0 -145.342,191.199 -0.059,0.089 -0.03,0 -105.777,0 C 62.186,263.102 12.719,213.663 12.719,152.626 12.719,91.589 62.186,42.12 123.224,42.12 Z"
           id="path135"
           inkscape:connector-curvature="0"
           style="fill:#f4f4f4" /><path
           d="m 375.643,70.958 0,1.891 7.032,0 0,-1.891 -7.032,0 z"
           id="line137"
           inkscape:connector-curvature="0"
           style="fill:#f4f4f4" /><path
           d="m 230.213,262.127 0,1.891 6.766,0 0,-1.891 -6.766,0 z"
           id="line139"
           inkscape:connector-curvature="0"
           style="fill:#f4f4f4" /><path
           d="m 122.456,142.934 c -4.92,0 -8.923,4.002 -8.923,8.923 0,4.92 4.003,8.923 8.923,8.923 4.92,0 8.953,-4.002 8.953,-8.923 -0.001,-4.92 -4.033,-8.923 -8.953,-8.923 z m 0,1.891 c 3.898,0 7.062,3.134 7.062,7.032 0,3.898 -3.164,7.032 -7.062,7.032 -3.898,0 -7.032,-3.134 -7.032,-7.032 -0.001,-3.898 3.133,-7.032 7.032,-7.032 z"
           id="circle141"
           inkscape:connector-curvature="0"
           style="fill:#f4f4f4" /></g></g></g></svg>