<?xml version="1.0" encoding="UTF-8" standalone="no"?>
<!-- Generator: Adobe Illustrator 13.0.0, SVG Export Plug-In . SVG Version: 6.00 Build 14948)  -->

<svg
   xmlns:dc="http://purl.org/dc/elements/1.1/"
   xmlns:cc="http://creativecommons.org/ns#"
   xmlns:rdf="http://www.w3.org/1999/02/22-rdf-syntax-ns#"
   xmlns:svg="http://www.w3.org/2000/svg"
   xmlns="http://www.w3.org/2000/svg"
   xmlns:sodipodi="http://sodipodi.sourceforge.net/DTD/sodipodi-0.dtd"
   xmlns:inkscape="http://www.inkscape.org/namespaces/inkscape"
   version="1.1"
   id="Layer_2"
   x="0px"
   y="0px"
   width="550"
   height="550"
   viewBox="0 0 549.99995 549.99999"
   enable-background="new 0 0 598.189 350.26"
   xml:space="preserve"
   inkscape:version="0.91 r13725"
   sodipodi:docname="controller_gg.svg"><metadata
     id="metadata3083"><rdf:RDF><cc:Work
         rdf:about=""><dc:format>image/svg+xml</dc:format><dc:type
           rdf:resource="http://purl.org/dc/dcmitype/StillImage" /><dc:title></dc:title></cc:Work></rdf:RDF></metadata><defs
     id="defs3081" /><sodipodi:namedview
     pagecolor="#ffffff"
     bordercolor="#666666"
     borderopacity="1"
     objecttolerance="10"
     gridtolerance="10"
     guidetolerance="10"
     inkscape:pageopacity="0"
     inkscape:pageshadow="2"
     inkscape:window-width="1920"
     inkscape:window-height="1001"
     id="namedview3079"
     showgrid="false"
     inkscape:zoom="1.0799262"
     inkscape:cx="0.1431193"
     inkscape:cy="298.43665"
     inkscape:window-x="-9"
     inkscape:window-y="-9"
     inkscape:window-maximized="1"
     inkscape:current-layer="g12192"
     showguides="true"
     inkscape:guide-bbox="true" /><g
     inkscape:groupmode="layer"
     id="layer2"
     inkscape:label="Screen_Rect"
     style="display:none"
     transform="translate(0,199.73999)"
     sodipodi:insensitive="true"><path
       style="fill:#0000ff;stroke:#000000;stroke-width:1px;stroke-linecap:butt;stroke-linejoin:miter;stroke-opacity:1"
       d="M 5.0135033,547.22203 136.4109,114.39023 653.54628,-189.09358 406.482,260.92121 Z"
       id="path3021"
       inkscape:connector-curvature="0"
       transform="translate(-2e-5,-199.73999)"
       sodipodi:nodetypes="ccccc" /><rect
       style="opacity:0.60100002;fill:#d8201f;fill-opacity:1;stroke:#ff8080;stroke-width:2.45114732;stroke-linecap:round;stroke-linejoin:round;stroke-miterlimit:4;stroke-dasharray:none;stroke-opacity:1"
       id="rect4230"
       width="444.2457"
       height="9.9567661"
       x="145.95099"
       y="-211.30678" /></g><g
     inkscape:groupmode="layer"
     id="layer1"
     inkscape:label="Controller_Vorlage"
     style="display:none"
     sodipodi:insensitive="true"><g
       id="g4929"
       transform="translate(-0.929149,0.5695451)"><g
         transform="translate(0,199.73999)"
         style="display:none"
         inkscape:label="Layer2"
         id="layer2-9"><path
           sodipodi:nodetypes="ccccc"
           transform="translate(-2e-5,-199.73999)"
           inkscape:connector-curvature="0"
           id="path3021-0"
           d="M 5.0135033,547.22203 136.4109,114.39023 653.54628,-189.09358 406.482,260.92121 Z"
           style="fill:#ffffff;stroke:#000000;stroke-width:1px;stroke-linecap:butt;stroke-linejoin:miter;stroke-opacity:1" /></g><g
         inkscape:label="Layer"
         id="layer1-2"><g
           transform="matrix(0.55322035,-0.3970343,-0.34863416,0.85569517,173.63773,166.52161)"
           id="g3100"><path
             style="fill:#f4f4f4"
             inkscape:connector-curvature="0"
             id="path3"
             d="m 148.05,114.447 c -23.656,0 -42.861,19.204 -42.861,42.861 l 0,37.414 c 0,23.658 19.205,42.86 42.861,42.86 l 38.694,0 c 23.656,0 42.861,-19.202 42.861,-42.86 l 0,-37.414 c 0,-23.657 -19.205,-42.861 -42.861,-42.861 l -38.694,0 z m 0,1.905 38.694,0 c 22.627,0 40.956,18.328 40.956,40.956 l 0,37.414 c 0,22.629 -18.329,40.956 -40.956,40.956 l -38.694,0 c -22.628,0 -40.956,-18.327 -40.956,-40.956 l 0,-37.414 c 0,-22.629 18.328,-40.956 40.956,-40.956 z" /><path
             style="fill:#f4f4f4"
             inkscape:connector-curvature="0"
             id="path5"
             d="m 167.395,123.168 c -3.23,0 -5.863,2.633 -5.863,5.864 l 0,13.037 c 0,3.23 2.632,5.863 5.863,5.863 3.23,0 5.863,-2.633 5.863,-5.863 l 0,-13.037 c 0,-3.23 -2.633,-5.864 -5.863,-5.864 z m 0,1.906 c 2.201,0 3.958,1.758 3.958,3.958 l 0,13.037 c 0,2.2 -1.758,3.958 -3.958,3.958 -2.202,0 -3.958,-1.758 -3.958,-3.958 l 0,-13.037 c -0.001,-2.2 1.757,-3.958 3.958,-3.958 z" /><path
             style="fill:#f4f4f4"
             inkscape:connector-curvature="0"
             id="path7"
             d="m 120.425,170.135 c -3.23,0 -5.864,2.633 -5.864,5.864 0,3.231 2.632,5.894 5.864,5.894 l 13.037,0 c 3.229,0 5.864,-2.662 5.864,-5.894 0,-3.229 -2.633,-5.864 -5.864,-5.864 l -13.037,0 z m 0,1.905 13.037,0 c 2.201,0 3.959,1.759 3.959,3.959 0,2.201 -1.759,3.988 -3.959,3.988 l -13.037,0 c -2.198,-0.01 -3.955,-1.791 -3.955,-3.99 0,-2.201 1.758,-3.959 3.958,-3.959 l -0.003,0.002 z" /><path
             style="fill:#f4f4f4"
             inkscape:connector-curvature="0"
             id="path9"
             d="m 167.395,204.071 c -3.23,0 -5.863,2.663 -5.863,5.894 l 0,13.038 c 0,3.229 2.632,5.863 5.863,5.863 3.23,0 5.863,-2.633 5.863,-5.863 l 0,-13.038 c 0,-3.23 -2.633,-5.894 -5.863,-5.894 z m 0,1.906 c 2.201,0 3.958,1.789 3.958,3.988 l 0,13.038 c 0,2.2 -1.757,3.958 -3.958,3.958 -2.202,0 -3.958,-1.759 -3.958,-3.958 l 0,-13.038 c -0.001,-2.2 1.757,-3.988 3.958,-3.988 z" /><path
             style="fill:#f4f4f4"
             inkscape:connector-curvature="0"
             id="path11"
             d="m 201.321,170.135 c -3.229,0 -5.863,2.633 -5.863,5.864 0,3.231 2.633,5.894 5.863,5.894 l 13.067,0 c 3.229,0 5.863,-2.662 5.863,-5.894 0,-3.229 -2.633,-5.864 -5.863,-5.864 l -13.067,0 z m 0,1.905 13.067,0 c 2.2,0 3.958,1.76 3.958,3.959 0,2.201 -1.758,3.988 -3.958,3.988 l -13.067,0 c -2.2,0 -3.958,-1.788 -3.958,-3.988 0,-2.2 1.759,-3.959 3.958,-3.959 z" /><path
             style="fill:#f4f4f4"
             inkscape:connector-curvature="0"
             id="polygon13"
             d="m 133.878,141.176 -1.31,1.31 8.155,12.025 0.655,0.952 0.804,-0.803 3.869,-3.87 0.804,-0.804 -0.953,-0.655 -12.024,-8.155 z" /><path
             style="fill:#f4f4f4"
             inkscape:connector-curvature="0"
             id="polygon15"
             d="m 141.383,196.566 -0.654,0.952 -8.156,12.024 1.31,1.31 12.025,-8.155 0.953,-0.654 -0.804,-0.804 -3.87,-3.869 -0.804,-0.804 z" /><path
             style="fill:#f4f4f4"
             inkscape:connector-curvature="0"
             id="polygon17"
             d="m 193.435,196.566 -0.804,0.804 -3.869,3.869 -0.833,0.804 0.953,0.654 12.025,8.155 1.339,-1.31 -8.156,-12.024 -0.655,-0.952 0,0 z" /><path
             style="fill:#f4f4f4"
             inkscape:connector-curvature="0"
             id="polygon19"
             d="m 200.912,141.176 -12.025,8.155 -0.953,0.655 0.833,0.804 3.87,3.87 0.804,0.803 0.655,-0.952 8.155,-12.025 -1.339,-1.31 z" /><path
             style="fill:#f4f4f4"
             inkscape:connector-curvature="0"
             id="path21"
             d="m 146.354,104.833 c -27.67,0 -50.123,22.453 -50.123,50.124 l 0,42.117 c 0,27.671 22.453,50.123 50.123,50.123 l 42.117,0 c 27.671,0 50.124,-22.452 50.124,-50.123 l 0,-42.117 c 0,-27.67 -22.452,-50.124 -50.124,-50.124 l -42.117,0 z m 0,1.906 42.117,0 c 26.644,0 48.219,21.577 48.219,48.218 l 0,42.117 c 0,26.644 -21.577,48.218 -48.219,48.218 l -42.117,0 c -26.642,0 -48.218,-21.574 -48.218,-48.218 l 0,-42.117 c 0,-26.642 21.577,-48.218 48.218,-48.218 z" /><path
             style="fill:#f4f4f4"
             inkscape:connector-curvature="0"
             id="polygon23"
             d="m 69.499,75.694 0,0.952 0,202.961 0,0.952 0.953,0 196.122,0 0.952,0 0,-0.952 0,-26.401 289.521,0 0.952,0 0,-0.952 0,-113.458 0,-0.953 -0.952,0 -289.522,0 0,-61.196 0,-0.952 -0.952,0 -196.122,0 -0.952,-10e-4 0,0 z m 1.904,1.905 194.217,0 0,61.196 0,0.953 0.953,0 0.714,0 288.807,0 0,111.552 -289.226,0 -0.297,0 -0.953,0 0,0.953 0,26.4 -194.217,0 0,-201.055 0.002,0.001 z" /><path
             style="fill:#f4f4f4"
             inkscape:connector-curvature="0"
             id="circle25"
             d="m 400.692,169.126 c -19.762,0 -35.777,16.046 -35.777,35.807 0,19.761 16.018,35.807 35.777,35.807 19.759,0 35.807,-16.046 35.807,-35.807 0,-19.761 -16.047,-35.807 -35.807,-35.807 l 0,0 z m 0,1.905 c 18.73,0 33.901,15.17 33.901,33.902 0,18.732 -15.171,33.902 -33.901,33.902 -18.731,0 -33.872,-15.171 -33.872,-33.902 0,-18.731 15.141,-33.902 33.872,-33.902 l 0,0 z" /><path
             style="fill:#f4f4f4"
             inkscape:connector-curvature="0"
             id="circle27"
             d="m 400.692,177.669 c -15.039,0 -27.234,12.227 -27.234,27.265 0,15.038 12.195,27.234 27.234,27.234 15.036,0 27.264,-12.196 27.264,-27.234 0,-15.038 -12.227,-27.265 -27.264,-27.265 z m 0,1.905 c 14.008,0 25.359,11.351 25.359,25.359 0,14.008 -11.352,25.33 -25.359,25.33 -14.01,0 -25.33,-11.321 -25.33,-25.33 0,-14.009 11.321,-25.359 25.33,-25.359 z" /><path
             style="fill:#f4f4f4"
             inkscape:connector-curvature="0"
             id="circle29"
             d="m 489.919,169.126 c -19.762,0 -35.807,16.046 -35.807,35.807 0,19.761 16.045,35.807 35.807,35.807 19.76,0 35.807,-16.046 35.807,-35.807 0,-19.761 -16.047,-35.807 -35.807,-35.807 l 0,0 z m 0,1.905 c 18.73,0 33.901,15.17 33.901,33.902 0,18.732 -15.171,33.902 -33.901,33.902 -18.731,0 -33.902,-15.171 -33.902,-33.902 0,-18.731 15.171,-33.902 33.902,-33.902 l 0,0 z" /><path
             style="fill:#f4f4f4"
             inkscape:connector-curvature="0"
             id="circle31"
             d="m 489.919,177.669 c -15.039,0 -27.234,12.227 -27.234,27.265 0,15.038 12.195,27.234 27.234,27.234 15.036,0 27.234,-12.196 27.234,-27.234 0,-15.038 -12.196,-27.265 -27.234,-27.265 z m 0,1.905 c 14.008,0 25.329,11.351 25.329,25.359 0,14.008 -11.321,25.33 -25.329,25.33 -14.01,0 -25.33,-11.321 -25.33,-25.33 0,-14.009 11.32,-25.359 25.33,-25.359 z" /><path
             style="fill:#f4f4f4"
             inkscape:connector-curvature="0"
             id="path33"
             d="m 39.406,68.432 c -4.766,0 -8.662,3.896 -8.662,8.662 l 0,203.084 c 0,4.766 3.897,8.661 8.662,8.661 l 518.646,0 c 4.429,0 7.956,-3.411 8.453,-7.709 l 0.179,0 0,-0.952 0,-203.085 c 0,-4.762 -3.868,-8.658 -8.64,-8.658 l -518.645,0 0.007,-0.003 z m 0,1.904 518.646,0 c 3.737,0 6.727,3.021 6.727,6.757 l 0,202.131 0,0.953 c 0,3.736 -2.989,6.756 -6.727,6.756 l -518.646,0 c -3.732,0.01 -6.753,-3.019 -6.753,-6.753 l 0,-203.083 c 0,-3.736 3.02,-6.756 6.756,-6.756 l -0.003,-0.005 z" /><path
             style="fill:#f4f4f4"
             inkscape:connector-curvature="0"
             id="rect35"
             d="m 359.021,163.559 0,0.953 0,81.465 0,0.952 0.953,0 81.465,0 0.953,0 0,-0.952 0,-81.465 0,-0.953 -0.953,0 -81.465,0 -0.953,0 z m 1.906,1.905 79.561,0 0,79.56 -79.561,0 0,-79.56 z" /><path
             style="fill:#f4f4f4"
             inkscape:connector-curvature="0"
             id="rect37"
             d="m 448.248,163.559 0,0.953 0,81.465 0,0.952 0.953,0 81.436,0 0.952,0 0,-0.952 0,-81.465 0,-0.953 -0.952,0 -81.436,0 -0.953,0 z m 1.905,1.905 79.531,0 0,79.56 -79.531,0 0,-79.56 z" /><path
             style="fill:#f4f4f4"
             inkscape:connector-curvature="0"
             id="polyline39"
             d="m 83.934,94.177 0,2.292 0,159.061 0,2.322 1.607,-1.638 25.33,-25.299 -1.369,-1.369 -23.663,23.692 0,-154.45 23.663,23.658 1.369,-1.34 -25.33,-25.299 -1.607,-1.637 0,0.007 z" /><path
             style="fill:#f4f4f4"
             inkscape:connector-curvature="0"
             id="polyline41"
             d="m 222.305,232.551 -1.37,1.339 23.693,23.692 -154.452,0 23.574,-23.573 -1.369,-1.339 -25.181,25.182 -1.637,1.637 2.292,0 159.062,0 2.292,0 -1.607,-1.637 -25.299,-25.3 0.002,-0.001 z" /><path
             style="fill:#f4f4f4"
             inkscape:connector-curvature="0"
             id="polyline43"
             d="m 250.878,94.177 -1.637,1.637 -25.211,25.182 1.369,1.369 23.574,-23.603 0,154.509 -23.633,-23.663 -1.339,1.34 25.24,25.27 1.637,1.638 0,-2.322 0,-159.063 0,-2.292 0,-0.002 z" /><path
             style="fill:#f4f4f4"
             inkscape:connector-curvature="0"
             id="polyline45"
             d="m 85.57,92.54 1.638,1.608 25.21,25.24 1.339,-1.34 -23.572,-23.602 154.452,0 -23.669,23.662 1.333,1.339 25.307,-25.3 1.607,-1.607 -2.292,0 -159.062,0 -2.291,0 0,0 z" /><path
             style="fill:#f4f4f4"
             inkscape:connector-curvature="0"
             id="line47"
             d="m 58.961,69.533 0,218.057 1.905,0 0,-218.057 -1.905,0 z" /><path
             style="fill:#f4f4f4"
             inkscape:connector-curvature="0"
             id="rect49"
             d="m 359.021,145.819 0,0.953 0,13.244 0,0.953 0.953,0 81.465,0 0.953,0 0,-0.953 0,-13.244 0,-0.953 -0.953,0 -81.465,0 -0.953,0 z m 1.906,1.905 79.561,0 0,11.339 -79.561,0 0,-11.339 z" /><path
             style="fill:#f4f4f4"
             inkscape:connector-curvature="0"
             id="rect51"
             d="m 448.248,145.819 0,0.953 0,13.244 0,0.953 0.953,0 81.436,0 0.952,0 0,-0.953 0,-13.244 0,-0.953 -0.952,0 -81.436,0 -0.953,0 z m 1.905,1.905 79.531,0 0,11.339 -79.531,0 0,-11.339 z" /><path
             style="fill:#f4f4f4"
             inkscape:connector-curvature="0"
             id="path53"
             d="m 276.804,73.134 c -0.987,0 -1.815,0.828 -1.815,1.816 l 0,53.01 c 0,0.988 0.829,1.815 1.815,1.815 l 282.855,0 c 0.985,0 1.785,-0.831 1.785,-1.815 l 0,-50.033 c 0,-2.641 -2.152,-4.792 -4.792,-4.792 l -279.844,0 -0.004,0 z m 0.09,1.906 279.756,0 c 1.613,0 2.888,1.275 2.888,2.887 l 0,49.945 -282.643,0 0,-52.832 -10e-4,0 z" /><path
             style="fill:#f4f4f4"
             inkscape:connector-curvature="0"
             id="path55"
             d="m 276.804,260.41 c -0.987,0 -1.815,0.829 -1.815,1.815 l 0,20.091 c 0,0.987 0.829,1.816 1.815,1.816 l 279.844,0 c 2.64,0 4.792,-2.183 4.792,-4.822 l 0,-17.085 c 0,-0.985 -0.8,-1.815 -1.785,-1.815 l -282.855,0 0.004,0 z m 0.09,1.905 282.645,0 0,16.995 c 0,1.611 -1.276,2.917 -2.888,2.917 l -279.758,0 0.001,-19.912 0,0 z" /><path
             style="fill:#f4f4f4"
             inkscape:connector-curvature="0"
             id="line57"
             d="m 274.461,129.271 -6.28,6.28 1.369,1.339 6.251,-6.25 -1.34,-1.369 z" /><path
             style="fill:#f4f4f4"
             inkscape:connector-curvature="0"
             id="line59"
             d="m 269.546,253.866 -1.369,1.34 6.281,6.28 1.339,-1.369 -6.251,-6.251 z" /></g></g></g></g><g
     inkscape:groupmode="layer"
     id="layer4"
     inkscape:label="Controller"><g
       id="g12192"
       transform="matrix(0.52634968,-0.38371487,-0.36199415,0.79024751,151.0404,222.06172)"><g
         id="g12426"
         transform="matrix(0.79252891,0.05029767,0.23172756,0.95185637,53.121769,-57.434329)"><path
           id="path12304"
           d="m 255.844,336.128 c -53.157,0 -101.513,-2.58 -137.833,-5.549 l 0,0 C 81.649,327.6 57.5,324.282 52.259,322.675 l 0,0 -0.044,-0.014 -0.036,-0.016 C 39.03,317.286 29.762,304.372 29.762,289.293 l 0,0 0,-261.164 c 0.002,-3.997 2.604,-7.386 6.209,-8.558 l 0,0 0.034,-0.013 0.03,-0.006 c 2.052,-0.514 12.852,-1.834 25.585,-3.075 l 0,0 C 74.319,15.245 88.77,14.13 97.761,14.128 l 0,0 401.082,0 c 8.991,0.002 23.442,1.117 36.143,2.349 l 0,0 c 12.731,1.24 23.532,2.561 25.647,3.094 l 0,0 c 3.607,1.172 6.209,4.562 6.211,8.558 l 0,0 0,261.167 c -0.002,15.078 -9.267,27.99 -22.418,33.352 l 0,0 -0.049,0.02 -0.032,0.01 c -5.241,1.607 -29.391,4.926 -65.752,7.904 l 0,0 c -36.319,2.969 -84.674,5.549 -137.831,5.549 l 0,0 0,-1 0,-1 c 53.092,0 101.398,-2.578 137.669,-5.543 l 0,0 c 36.125,-2.942 60.455,-6.318 65.279,-7.808 l 0,0 c 12.398,-5.075 21.134,-17.258 21.132,-31.483 l 0,0 0,-261.168 c 0.002,-3.109 -2.025,-5.744 -4.766,-6.638 l 0,0 c -1.635,-0.429 -12.656,-1.803 -25.285,-3.024 l 0,0 C 522.13,17.238 507.686,16.129 498.843,16.129 l 0,0 -401.082,0 c -8.842,0 -23.287,1.108 -35.948,2.338 l 0,0 C 49.251,19.681 38.28,21.048 36.554,21.484 l 0,0 c -2.784,0.924 -4.794,3.55 -4.792,6.645 l 0,0 0,261.167 c -0.002,14.226 8.735,26.408 21.132,31.482 l 0,0 c 4.826,1.488 29.159,4.864 65.279,7.809 l 0,0 c 36.271,2.965 84.578,5.541 137.671,5.541 l 0,0 84.917,0 0,1.002 0,1 -84.917,0 0,-0.002 z"
           inkscape:connector-curvature="0"
           style="fill:#f4f4f4" /><path
           id="path12306"
           d="m 177.269,274.442 c -2.873,-0.167 -4.542,-0.275 -5.156,-0.402 l 0,0 c -2.314,-0.438 -4.059,-2.47 -4.062,-4.912 l 0,0 0,-238.998 c 0,-2.764 2.237,-5 5.001,-5 l 0,0 250.5,0 c 2.762,0 4.998,2.237 4.998,5 l 0,0 0.002,238.998 c -0.004,2.334 -1.596,4.293 -3.76,4.848 l 0,0 -10e-4,-0.003 10e-4,0.003 -10e-4,-0.003 c -0.41,0.108 -0.767,0.116 -1.558,0.19 l 0,0 c -0.805,0.064 -1.911,0.137 -3.299,0.213 l 0,0 c -2.77,0.158 -6.645,0.342 -11.341,0.545 l 0,0 c -9.39,0.406 -22.056,0.877 -35.684,1.328 l 0,0 c -27.254,0.9 -58.332,1.713 -74.692,1.715 l 0,0 c -29.208,-0.002 -101.102,-2.408 -120.948,-3.522 l 0,0 z m -7.218,-244.312 0.002,238.998 c -0.004,1.465 1.051,2.686 2.465,2.955 l 0,0 c 0.207,0.057 2.072,0.213 4.861,0.362 l 0,0 c 2.822,0.159 6.714,0.345 11.391,0.546 l 0,0 c 9.356,0.4 21.862,0.864 35.302,1.305 l 0,0 c 26.879,0.883 57.508,1.668 74.147,1.668 l 0,0 c 16.052,0 46.419,-0.787 73.348,-1.672 l 0,0 c 26.882,-0.877 50.531,-1.875 52.655,-2.238 l 0,0 0.001,0.005 0.03,-0.011 0.044,-0.012 c 1.293,-0.332 2.256,-1.508 2.254,-2.908 l 0,0 0,-238.998 c -0.004,-1.656 -1.345,-2.998 -2.999,-3.001 l 0,0 -250.5,0 c -1.656,0.003 -2.996,1.346 -3.001,3.001 l 0,0 z"
           inkscape:connector-curvature="0"
           style="fill:#f4f4f4" /><path
           id="path12308"
           d="m 189.303,253.128 c -1.104,0 -2.001,-0.895 -2.001,-1.998 l 0,0 0,-206.002 c 0,-1.104 0.894,-1.999 2.001,-1.999 l 0,0 217.999,0 c 1.104,0 1.998,0.894 1.998,1.999 l 0,0 0,206.002 c 0,1.104 -0.894,1.998 -1.998,1.998 l 0,0 -217.999,0 0,0 z m 0,-1.998 217.999,0 0,-206.002 -217.999,0 0,206.002 0,0 z"
           inkscape:connector-curvature="0"
           style="fill:#f4f4f4" /><g
           id="g12310"><path
             id="path12312"
             d="m 67.262,66.962 c -7.181,0 -13.001,-5.82 -13.001,-12.999 l 0,0 c 0,-7.181 5.82,-13 13.001,-13 l 0,0 23.165,0 c 5.87,0.002 10.83,3.887 12.446,9.23 l 0,0 c 10e-4,0.003 0.003,0.006 0.005,0.01 l 0,0 c 0.024,0.041 0.063,0.101 0.107,0.148 l 0,0 c 0.1,0.109 0.138,0.114 0.15,0.112 l 0,0 19.376,0 c 0.396,-0.021 0.357,-0.14 0.438,-0.236 l 0,0 0.001,0.001 0.013,-0.054 0.024,-0.061 c 1.536,-3.896 5.333,-6.649 9.772,-6.652 l 0,0 c 5.799,0.002 10.499,4.702 10.499,10.501 l 0,0 c 0,5.797 -4.699,10.499 -10.499,10.499 l 0,0 c -4.459,-0.002 -8.269,-2.778 -9.792,-6.702 l 0,0 c -0.026,-0.038 -0.072,-0.092 -0.125,-0.142 l 0,0 c -0.118,-0.106 -0.215,-0.156 -0.333,-0.156 l 0,0 -19.373,0 c -0.083,0 -0.143,0.003 -0.187,0.008 l 0,0 c -1.531,5.479 -6.558,9.49 -12.522,9.493 l 0,0 -23.165,0 0,0 z m -11,-12.999 c 0.01,6.075 4.925,10.988 11,10.998 l 0,0 23.165,0 c 5.095,0.002 9.381,-3.464 10.631,-8.161 l 0,0 0.021,-0.071 0.028,-0.067 c 0.077,-0.181 0.251,-0.572 0.657,-0.848 l 0,0 c 0.402,-0.272 0.863,-0.351 1.372,-0.351 l 0,0 19.376,0 c 1.599,0.065 2.173,1.301 2.234,1.37 l 0,0 -0.876,0.479 0.876,-0.479 0.034,0.063 0.024,0.063 c 1.211,3.214 4.316,5.505 7.957,5.503 l 0,0 c 4.695,-0.008 8.492,-3.805 8.5,-8.498 l 0,0 c -0.008,-4.695 -3.805,-8.492 -8.5,-8.5 l 0,0 c -3.581,-0.002 -6.646,2.216 -7.897,5.352 l 0,0 c -0.049,0.158 -0.166,0.464 -0.443,0.801 l 0,0 c -0.343,0.428 -1.037,0.86 -1.908,0.846 l 0,0 -19.376,0 c -0.8,-0.002 -1.36,-0.448 -1.654,-0.79 l 0,0 c -0.307,-0.353 -0.435,-0.659 -0.463,-0.718 l 0,0 -0.022,-0.053 -0.016,-0.057 c -1.345,-4.554 -5.56,-7.883 -10.554,-7.881 l 0,0 -23.166,0 c -6.075,0.01 -10.99,4.925 -11,10.999 l 0,0 z"
             inkscape:connector-curvature="0"
             style="fill:#f4f4f4" /></g><path
           id="path12314"
           d="m 67.292,61.681 0,-0.998 0,-1.001 23.563,0 c 3.158,-0.004 5.712,-2.559 5.719,-5.719 l 0,0 c -0.006,-3.157 -2.561,-5.712 -5.719,-5.718 l 0,0 -23.563,0 c -3.158,0.006 -5.712,2.561 -5.719,5.718 l 0,0 c 0.006,3.16 2.561,5.714 5.719,5.719 l 0,0 0,1.001 0,0.998 c -4.263,0 -7.718,-3.454 -7.718,-7.718 l 0,0 c 0,-4.262 3.456,-7.718 7.718,-7.718 l 0,0 23.563,0 c 4.263,0 7.718,3.456 7.718,7.718 l 0,0 c 0,4.265 -3.456,7.718 -7.718,7.718 l 0,0 -23.563,0 0,0 z"
           inkscape:connector-curvature="0"
           style="fill:#f4f4f4" /><circle
           id="circle12316"
           r="6.2810001"
           cy="53.963001"
           cx="132.793"
           style="fill:#f4f4f4" /><path
           id="path12318"
           d="m 57.98,138.129 c 0,-29.134 23.617,-52.749 52.75,-52.75 l 0,0 c 29.132,0.002 52.749,23.617 52.75,52.75 l 0,0 c -0.002,29.134 -23.619,52.749 -52.75,52.75 l 0,0 C 81.597,190.878 57.98,167.263 57.98,138.129 l 0,0 z M 74.845,102.245 C 65.658,111.432 59.98,124.112 59.98,138.13 l 0,0 c 0,14.018 5.678,26.7 14.865,35.885 l 0,0 c 9.187,9.186 21.867,14.863 35.885,14.863 l 0,0 c 14.016,0 26.699,-5.68 35.885,-14.863 l 0,0 c 9.185,-9.188 14.863,-21.867 14.865,-35.885 l 0,0 c -0.002,-14.018 -5.68,-26.699 -14.865,-35.885 l 0,0 C 137.427,93.058 124.746,87.38 110.73,87.38 l 0,0 C 96.712,87.379 84.032,93.058 74.845,102.245 l 0,0 z"
           inkscape:connector-curvature="0"
           style="fill:#f4f4f4" /><polyline
           id="polyline12320"
           points="106.824,94.504 106.824,88.254 114.699,88.254 114.699,94.504 "
           style="fill:#f4f4f4" /><polyline
           id="polyline12322"
           points="67.137,142.067 60.887,142.067 60.887,134.192 67.137,134.192 "
           style="fill:#f4f4f4" /><polyline
           id="polyline12324"
           points="114.699,181.755 114.699,188.005 106.824,188.005 106.824,181.755 "
           style="fill:#f4f4f4" /><polyline
           id="polyline12326"
           points="154.387,134.192 160.637,134.192 160.637,142.067 154.387,142.067 "
           style="fill:#f4f4f4" /><polyline
           id="polyline12328"
           points="78.434,108.939 74.014,104.521 77.108,101.426 81.527,105.846 "
           style="fill:#f4f4f4" /><polyline
           id="polyline12330"
           points="81.541,170.427 77.121,174.847 74.027,171.753 78.447,167.333 "
           style="fill:#f4f4f4" /><polyline
           id="polyline12332"
           points="143.027,167.319 147.447,171.739 144.353,174.833 139.934,170.413 "
           style="fill:#f4f4f4" /><polyline
           id="polyline12334"
           points="139.92,105.833 144.34,101.414 147.434,104.507 143.014,108.926 "
           style="fill:#f4f4f4" /><path
           id="path12336"
           d="M 66.354,138.129 C 66.356,113.62 86.222,93.755 110.73,93.753 l 0,0 c 24.506,0.002 44.374,19.867 44.375,44.376 l 0,0 c -0.002,24.506 -19.869,44.374 -44.375,44.375 l 0,0 C 86.222,182.503 66.357,162.636 66.354,138.129 l 0,0 z m 14.412,-29.963 c -7.668,7.673 -12.411,18.26 -12.411,29.965 l 0,0 c 0,11.705 4.742,22.292 12.411,29.962 l 0,0 c 7.673,7.67 18.26,12.41 29.965,12.41 l 0,0 c 11.705,0 22.292,-4.74 29.962,-12.41 l 0,0 c 7.671,-7.671 12.411,-18.258 12.413,-29.962 l 0,0 c -0.002,-11.705 -4.742,-22.292 -12.413,-29.965 l 0,0 c -7.671,-7.668 -18.258,-12.411 -29.962,-12.411 l 0,0 c -11.705,-10e-4 -22.293,4.742 -29.965,12.411 l 0,0 z"
           inkscape:connector-curvature="0"
           style="fill:#f4f4f4" /><path
           id="path12338"
           d="m 78.356,138.128 c 0,-17.88 14.493,-32.375 32.375,-32.375 l 0,0 c 17.88,0 32.375,14.495 32.375,32.375 l 0,0 c 0,17.881 -14.495,32.375 -32.375,32.375 l 0,0 c -17.882,0 -32.375,-14.493 -32.375,-32.375 l 0,0 z m 1.999,0 c 0.031,16.776 13.599,30.346 30.375,30.375 l 0,0 c 16.776,-0.028 30.344,-13.599 30.375,-30.375 l 0,0 c -0.031,-16.774 -13.599,-30.344 -30.375,-30.375 l 0,0 c -16.775,0.032 -30.344,13.601 -30.375,30.375 l 0,0 z"
           inkscape:connector-curvature="0"
           style="fill:#f4f4f4" /><path
           id="path12340"
           d="m 91.917,138.129 c 0,-10.39 8.422,-18.812 18.812,-18.812 l 0,0 c 10.39,0 18.813,8.422 18.813,18.812 l 0,0 c 0,10.39 -8.422,18.811 -18.813,18.813 l 0,0 C 100.34,156.94 91.917,148.521 91.917,138.129 l 0,0 z m 2.001,0 c 0.016,9.284 7.528,16.795 16.812,16.812 l 0,0 c 9.286,-0.017 16.796,-7.528 16.814,-16.812 l 0,0 c -0.018,-9.286 -7.528,-16.795 -16.814,-16.814 l 0,0 c -9.284,0.019 -16.796,7.528 -16.812,16.814 l 0,0 z"
           inkscape:connector-curvature="0"
           style="fill:#f4f4f4" /><g
           id="g12342"><circle
             id="circle12344"
             r="2.8329999"
             cy="233.963"
             cx="91.595001"
             style="fill:#f4f4f4" /><circle
             id="circle12346"
             r="2.8329999"
             cy="233.963"
             cx="101.303"
             style="fill:#f4f4f4" /><circle
             id="circle12348"
             r="2.8329999"
             cy="233.963"
             cx="111.011"
             style="fill:#f4f4f4" /><circle
             id="circle12350"
             r="2.8329999"
             cy="233.963"
             cx="120.72"
             style="fill:#f4f4f4" /><circle
             id="circle12352"
             r="2.8329999"
             cy="233.963"
             cx="130.42799"
             style="fill:#f4f4f4" /></g><g
           id="g12354"><circle
             id="circle12356"
             r="2.8329999"
             cy="243.742"
             cx="91.595001"
             style="fill:#f4f4f4" /><circle
             id="circle12358"
             r="2.8329999"
             cy="243.742"
             cx="101.303"
             style="fill:#f4f4f4" /><circle
             id="circle12360"
             r="2.8329999"
             cy="243.742"
             cx="111.011"
             style="fill:#f4f4f4" /><circle
             id="circle12362"
             r="2.8329999"
             cy="243.742"
             cx="120.72"
             style="fill:#f4f4f4" /><circle
             id="circle12364"
             r="2.8329999"
             cy="243.742"
             cx="130.42799"
             style="fill:#f4f4f4" /></g><g
           id="g12366"><circle
             id="circle12368"
             r="2.8329999"
             cy="253.52"
             cx="91.595001"
             style="fill:#f4f4f4" /><circle
             id="circle12370"
             r="2.8329999"
             cy="253.52"
             cx="101.303"
             style="fill:#f4f4f4" /><circle
             id="circle12372"
             r="2.8329999"
             cy="253.52"
             cx="111.011"
             style="fill:#f4f4f4" /><circle
             id="circle12374"
             r="2.8329999"
             cy="253.52"
             cx="120.72"
             style="fill:#f4f4f4" /><circle
             id="circle12376"
             r="2.8329999"
             cy="253.52"
             cx="130.42799"
             style="fill:#f4f4f4" /></g><g
           id="g12378"><circle
             id="circle12380"
             r="2.8329999"
             cy="263.297"
             cx="91.595001"
             style="fill:#f4f4f4" /><circle
             id="circle12382"
             r="2.8329999"
             cy="263.297"
             cx="101.303"
             style="fill:#f4f4f4" /><circle
             id="circle12384"
             r="2.8329999"
             cy="263.297"
             cx="111.011"
             style="fill:#f4f4f4" /><circle
             id="circle12386"
             r="2.8329999"
             cy="263.297"
             cx="120.72"
             style="fill:#f4f4f4" /><circle
             id="circle12388"
             r="2.8329999"
             cy="263.297"
             cx="130.42799"
             style="fill:#f4f4f4" /></g><g
           id="g12390"><circle
             id="circle12392"
             r="4.1669998"
             cy="215.297"
             cx="462.26199"
             style="fill:#f4f4f4" /><circle
             id="circle12394"
             r="4.1669998"
             cy="255.047"
             cx="462.26199"
             style="fill:#f4f4f4" /><circle
             id="circle12396"
             r="4.1669998"
             cy="294.797"
             cx="462.26199"
             style="fill:#f4f4f4" /></g><g
           id="g12398"><circle
             id="circle12400"
             r="4.1669998"
             cy="211.465"
             cx="497.595"
             style="fill:#f4f4f4" /><circle
             id="circle12402"
             r="4.1669998"
             cy="251.215"
             cx="497.595"
             style="fill:#f4f4f4" /><circle
             id="circle12404"
             r="4.1669998"
             cy="290.965"
             cx="497.595"
             style="fill:#f4f4f4" /></g><g
           id="g12406"><circle
             id="circle12408"
             r="4.1669998"
             cy="207.797"
             cx="532.92798"
             style="fill:#f4f4f4" /><circle
             id="circle12410"
             r="4.1669998"
             cy="247.547"
             cx="532.92798"
             style="fill:#f4f4f4" /><circle
             id="circle12412"
             r="4.1669998"
             cy="287.297"
             cx="532.92798"
             style="fill:#f4f4f4" /></g><path
           id="path12414"
           d="m 449.26,156.253 c 0.002,-12.426 10.074,-22.5 22.502,-22.5 l 0,0 c 12.426,0 22.498,10.074 22.5,22.5 l 0,0 c -0.002,12.425 -10.074,22.5 -22.5,22.5 l 0,0 c -12.428,0 -22.5,-10.072 -22.502,-22.5 l 0,0 z m 2.002,0 c 0.021,11.324 9.179,20.48 20.5,20.5 l 0,0 c 11.321,-0.02 20.479,-9.176 20.498,-20.5 l 0,0 c -0.019,-11.32 -9.177,-20.479 -20.498,-20.5 l 0,0 c -11.323,0.022 -20.481,9.181 -20.5,20.5 l 0,0 z"
           inkscape:connector-curvature="0"
           style="fill:#f4f4f4" /><path
           id="path12416"
           d="m 504.135,118.378 c 0.002,-12.426 10.074,-22.499 22.501,-22.499 l 0,0 c 12.427,0 22.499,10.072 22.501,22.499 l 0,0 c -0.002,12.427 -10.074,22.499 -22.501,22.501 l 0,0 c -12.427,-0.002 -22.499,-10.073 -22.501,-22.501 l 0,0 z m 2,0 c 0.021,11.323 9.18,20.479 20.501,20.5 l 0,0 c 11.322,-0.021 20.479,-9.178 20.501,-20.5 l 0,0 c -0.021,-11.32 -9.179,-20.479 -20.501,-20.498 l 0,0 c -11.323,0.019 -20.48,9.179 -20.501,20.498 l 0,0 z"
           inkscape:connector-curvature="0"
           style="fill:#f4f4f4" /><path
           id="path12418"
           d="m 514.636,52.879 c 0,-8.492 6.886,-15.374 15.376,-15.376 l 0,0 c 8.49,0.002 15.374,6.884 15.374,15.376 l 0,0 c 0,8.492 -6.884,15.374 -15.374,15.376 l 0,0 C 521.52,68.253 514.636,61.372 514.636,52.879 l 0,0 z m 2,0 c 0.013,7.386 5.988,13.362 13.376,13.375 l 0,0 c 7.387,-0.013 13.361,-5.988 13.374,-13.375 l 0,0 c -0.013,-7.386 -5.987,-13.361 -13.374,-13.374 l 0,0 c -7.388,0.014 -13.364,5.989 -13.376,13.374 l 0,0 z"
           inkscape:connector-curvature="0"
           style="fill:#f4f4f4" /><path
           id="path12420"
           d="m 519.886,52.88 c 0,-5.593 4.535,-10.125 10.125,-10.125 l 0,0 c 5.591,0 10.125,4.532 10.125,10.125 l 0,0 c 0,5.591 -4.534,10.123 -10.125,10.123 l 0,0 c -5.59,0 -10.125,-4.532 -10.125,-10.123 l 0,0 z m 1.999,0 c 0.01,4.486 3.639,8.116 8.126,8.125 l 0,0 c 4.486,-0.008 8.116,-3.639 8.125,-8.125 l 0,0 c -0.009,-4.488 -3.639,-8.118 -8.125,-8.126 l 0,0 c -4.488,0.008 -8.116,3.639 -8.126,8.126 l 0,0 z"
           inkscape:connector-curvature="0"
           style="fill:#f4f4f4" /></g></g></g></svg>