<?xml version="1.0" encoding="UTF-8" standalone="no"?>
<!-- Generator: Adobe Illustrator 13.0.0, SVG Export Plug-In . SVG Version: 6.00 Build 14948)  -->

<svg
   xmlns:dc="http://purl.org/dc/elements/1.1/"
   xmlns:cc="http://creativecommons.org/ns#"
   xmlns:rdf="http://www.w3.org/1999/02/22-rdf-syntax-ns#"
   xmlns:svg="http://www.w3.org/2000/svg"
   xmlns="http://www.w3.org/2000/svg"
   xmlns:sodipodi="http://sodipodi.sourceforge.net/DTD/sodipodi-0.dtd"
   xmlns:inkscape="http://www.inkscape.org/namespaces/inkscape"
   version="1.1"
   id="Layer_2"
   x="0px"
   y="0px"
   width="550"
   height="550"
   viewBox="0 0 549.99995 549.99999"
   enable-background="new 0 0 598.189 350.26"
   xml:space="preserve"
   inkscape:version="0.91 r13725"
   sodipodi:docname="controller_gg.svg"><metadata
     id="metadata3083"><rdf:RDF><cc:Work
         rdf:about=""><dc:format>image/svg+xml</dc:format><dc:type
           rdf:resource="http://purl.org/dc/dcmitype/StillImage" /><dc:title></dc:title></cc:Work></rdf:RDF></metadata><defs
     id="defs3081" /><sodipodi:namedview
     pagecolor="#ffffff"
     bordercolor="#666666"
     borderopacity="1"
     objecttolerance="10"
     gridtolerance="10"
     guidetolerance="10"
     inkscape:pageopacity="0"
     inkscape:pageshadow="2"
     inkscape:window-width="1920"
     inkscape:window-height="1001"
     id="namedview3079"
     showgrid="false"
     inkscape:zoom="1.0799262"
     inkscape:cx="248.77122"
     inkscape:cy="298.43665"
     inkscape:window-x="-9"
     inkscape:window-y="-9"
     inkscape:window-maximized="1"
     inkscape:current-layer="g12192"
     showguides="true"
     inkscape:guide-bbox="true" /><g
     inkscape:groupmode="layer"
     id="layer2"
     inkscape:label="Screen_Rect"
     style="display:none"
     transform="translate(0,199.73999)"
     sodipodi:insensitive="true"><path
       style="fill:#0000ff;stroke:#000000;stroke-width:1px;stroke-linecap:butt;stroke-linejoin:miter;stroke-opacity:1"
       d="M 5.0135033,547.22203 136.4109,114.39023 653.54628,-189.09358 406.482,260.92121 Z"
       id="path3021"
       inkscape:connector-curvature="0"
       transform="translate(-2e-5,-199.73999)"
       sodipodi:nodetypes="ccccc" /><rect
       style="opacity:0.60100002;fill:#d8201f;fill-opacity:1;stroke:#ff8080;stroke-width:2.45114732;stroke-linecap:round;stroke-linejoin:round;stroke-miterlimit:4;stroke-dasharray:none;stroke-opacity:1"
       id="rect4230"
       width="444.2457"
       height="9.9567661"
       x="145.95099"
       y="-211.30678" /></g><g
     inkscape:groupmode="layer"
     id="layer1"
     inkscape:label="Controller_Vorlage"
     style="display:none"
     sodipodi:insensitive="true"><g
       id="g4929"
       transform="translate(-0.929149,0.5695451)"><g
         transform="translate(0,199.73999)"
         style="display:none"
         inkscape:label="Layer2"
         id="layer2-9"><path
           sodipodi:nodetypes="ccccc"
           transform="translate(-2e-5,-199.73999)"
           inkscape:connector-curvature="0"
           id="path3021-0"
           d="M 5.0135033,547.22203 136.4109,114.39023 653.54628,-189.09358 406.482,260.92121 Z"
           style="fill:#ffffff;stroke:#000000;stroke-width:1px;stroke-linecap:butt;stroke-linejoin:miter;stroke-opacity:1" /></g><g
         inkscape:label="Layer"
         id="layer1-2"><g
           transform="matrix(0.55322035,-0.3970343,-0.34863416,0.85569517,173.63773,166.52161)"
           id="g3100"><path
             style="fill:#f4f4f4"
             inkscape:connector-curvature="0"
             id="path3"
             d="m 148.05,114.447 c -23.656,0 -42.861,19.204 -42.861,42.861 l 0,37.414 c 0,23.658 19.205,42.86 42.861,42.86 l 38.694,0 c 23.656,0 42.861,-19.202 42.861,-42.86 l 0,-37.414 c 0,-23.657 -19.205,-42.861 -42.861,-42.861 l -38.694,0 z m 0,1.905 38.694,0 c 22.627,0 40.956,18.328 40.956,40.956 l 0,37.414 c 0,22.629 -18.329,40.956 -40.956,40.956 l -38.694,0 c -22.628,0 -40.956,-18.327 -40.956,-40.956 l 0,-37.414 c 0,-22.629 18.328,-40.956 40.956,-40.956 z" /><path
             style="fill:#f4f4f4"
             inkscape:connector-curvature="0"
             id="path5"
             d="m 167.395,123.168 c -3.23,0 -5.863,2.633 -5.863,5.864 l 0,13.037 c 0,3.23 2.632,5.863 5.863,5.863 3.23,0 5.863,-2.633 5.863,-5.863 l 0,-13.037 c 0,-3.23 -2.633,-5.864 -5.863,-5.864 z m 0,1.906 c 2.201,0 3.958,1.758 3.958,3.958 l 0,13.037 c 0,2.2 -1.758,3.958 -3.958,3.958 -2.202,0 -3.958,-1.758 -3.958,-3.958 l 0,-13.037 c -0.001,-2.2 1.757,-3.958 3.958,-3.958 z" /><path
             style="fill:#f4f4f4"
             inkscape:connector-curvature="0"
             id="path7"
             d="m 120.425,170.135 c -3.23,0 -5.864,2.633 -5.864,5.864 0,3.231 2.632,5.894 5.864,5.894 l 13.037,0 c 3.229,0 5.864,-2.662 5.864,-5.894 0,-3.229 -2.633,-5.864 -5.864,-5.864 l -13.037,0 z m 0,1.905 13.037,0 c 2.201,0 3.959,1.759 3.959,3.959 0,2.201 -1.759,3.988 -3.959,3.988 l -13.037,0 c -2.198,-0.01 -3.955,-1.791 -3.955,-3.99 0,-2.201 1.758,-3.959 3.958,-3.959 l -0.003,0.002 z" /><path
             style="fill:#f4f4f4"
             inkscape:connector-curvature="0"
             id="path9"
             d="m 167.395,204.071 c -3.23,0 -5.863,2.663 -5.863,5.894 l 0,13.038 c 0,3.229 2.632,5.863 5.863,5.863 3.23,0 5.863,-2.633 5.863,-5.863 l 0,-13.038 c 0,-3.23 -2.633,-5.894 -5.863,-5.894 z m 0,1.906 c 2.201,0 3.958,1.789 3.958,3.988 l 0,13.038 c 0,2.2 -1.757,3.958 -3.958,3.958 -2.202,0 -3.958,-1.759 -3.958,-3.958 l 0,-13.038 c -0.001,-2.2 1.757,-3.988 3.958,-3.988 z" /><path
             style="fill:#f4f4f4"
             inkscape:connector-curvature="0"
             id="path11"
             d="m 201.321,170.135 c -3.229,0 -5.863,2.633 -5.863,5.864 0,3.231 2.633,5.894 5.863,5.894 l 13.067,0 c 3.229,0 5.863,-2.662 5.863,-5.894 0,-3.229 -2.633,-5.864 -5.863,-5.864 l -13.067,0 z m 0,1.905 13.067,0 c 2.2,0 3.958,1.76 3.958,3.959 0,2.201 -1.758,3.988 -3.958,3.988 l -13.067,0 c -2.2,0 -3.958,-1.788 -3.958,-3.988 0,-2.2 1.759,-3.959 3.958,-3.959 z" /><path
             style="fill:#f4f4f4"
             inkscape:connector-curvature="0"
             id="polygon13"
             d="m 133.878,141.176 -1.31,1.31 8.155,12.025 0.655,0.952 0.804,-0.803 3.869,-3.87 0.804,-0.804 -0.953,-0.655 -12.024,-8.155 z" /><path
             style="fill:#f4f4f4"
             inkscape:connector-curvature="0"
             id="polygon15"
             d="m 141.383,196.566 -0.654,0.952 -8.156,12.024 1.31,1.31 12.025,-8.155 0.953,-0.654 -0.804,-0.804 -3.87,-3.869 -0.804,-0.804 z" /><path
             style="fill:#f4f4f4"
             inkscape:connector-curvature="0"
             id="polygon17"
             d="m 193.435,196.566 -0.804,0.804 -3.869,3.869 -0.833,0.804 0.953,0.654 12.025,8.155 1.339,-1.31 -8.156,-12.024 -0.655,-0.952 0,0 z" /><path
             style="fill:#f4f4f4"
             inkscape:connector-curvature="0"
             id="polygon19"
             d="m 200.912,141.176 -12.025,8.155 -0.953,0.655 0.833,0.804 3.87,3.87 0.804,0.803 0.655,-0.952 8.155,-12.025 -1.339,-1.31 z" /><path
             style="fill:#f4f4f4"
             inkscape:connector-curvature="0"
             id="path21"
             d="m 146.354,104.833 c -27.67,0 -50.123,22.453 -50.123,50.124 l 0,42.117 c 0,27.671 22.453,50.123 50.123,50.123 l 42.117,0 c 27.671,0 50.124,-22.452 50.124,-50.123 l 0,-42.117 c 0,-27.67 -22.452,-50.124 -50.124,-50.124 l -42.117,0 z m 0,1.906 42.117,0 c 26.644,0 48.219,21.577 48.219,48.218 l 0,42.117 c 0,26.644 -21.577,48.218 -48.219,48.218 l -42.117,0 c -26.642,0 -48.218,-21.574 -48.218,-48.218 l 0,-42.117 c 0,-26.642 21.577,-48.218 48.218,-48.218 z" /><path
             style="fill:#f4f4f4"
             inkscape:connector-curvature="0"
             id="polygon23"
             d="m 69.499,75.694 0,0.952 0,202.961 0,0.952 0.953,0 196.122,0 0.952,0 0,-0.952 0,-26.401 289.521,0 0.952,0 0,-0.952 0,-113.458 0,-0.953 -0.952,0 -289.522,0 0,-61.196 0,-0.952 -0.952,0 -196.122,0 -0.952,-10e-4 0,0 z m 1.904,1.905 194.217,0 0,61.196 0,0.953 0.953,0 0.714,0 288.807,0 0,111.552 -289.226,0 -0.297,0 -0.953,0 0,0.953 0,26.4 -194.217,0 0,-201.055 0.002,0.001 z" /><path
             style="fill:#f4f4f4"
             inkscape:connector-curvature="0"
             id="circle25"
             d="m 400.692,169.126 c -19.762,0 -35.777,16.046 -35.777,35.807 0,19.761 16.018,35.807 35.777,35.807 19.759,0 35.807,-16.046 35.807,-35.807 0,-19.761 -16.047,-35.807 -35.807,-35.807 l 0,0 z m 0,1.905 c 18.73,0 33.901,15.17 33.901,33.902 0,18.732 -15.171,33.902 -33.901,33.902 -18.731,0 -33.872,-15.171 -33.872,-33.902 0,-18.731 15.141,-33.902 33.872,-33.902 l 0,0 z" /><path
             style="fill:#f4f4f4"
             inkscape:connector-curvature="0"
             id="circle27"
             d="m 400.692,177.669 c -15.039,0 -27.234,12.227 -27.234,27.265 0,15.038 12.195,27.234 27.234,27.234 15.036,0 27.264,-12.196 27.264,-27.234 0,-15.038 -12.227,-27.265 -27.264,-27.265 z m 0,1.905 c 14.008,0 25.359,11.351 25.359,25.359 0,14.008 -11.352,25.33 -25.359,25.33 -14.01,0 -25.33,-11.321 -25.33,-25.33 0,-14.009 11.321,-25.359 25.33,-25.359 z" /><path
             style="fill:#f4f4f4"
             inkscape:connector-curvature="0"
             id="circle29"
             d="m 489.919,169.126 c -19.762,0 -35.807,16.046 -35.807,35.807 0,19.761 16.045,35.807 35.807,35.807 19.76,0 35.807,-16.046 35.807,-35.807 0,-19.761 -16.047,-35.807 -35.807,-35.807 l 0,0 z m 0,1.905 c 18.73,0 33.901,15.17 33.901,33.902 0,18.732 -15.171,33.902 -33.901,33.902 -18.731,0 -33.902,-15.171 -33.902,-33.902 0,-18.731 15.171,-33.902 33.902,-33.902 l 0,0 z" /><path
             style="fill:#f4f4f4"
             inkscape:connector-curvature="0"
             id="circle31"
             d="m 489.919,177.669 c -15.039,0 -27.234,12.227 -27.234,27.265 0,15.038 12.195,27.234 27.234,27.234 15.036,0 27.234,-12.196 27.234,-27.234 0,-15.038 -12.196,-27.265 -27.234,-27.265 z m 0,1.905 c 14.008,0 25.329,11.351 25.329,25.359 0,14.008 -11.321,25.33 -25.329,25.33 -14.01,0 -25.33,-11.321 -25.33,-25.33 0,-14.009 11.32,-25.359 25.33,-25.359 z" /><path
             style="fill:#f4f4f4"
             inkscape:connector-curvature="0"
             id="path33"
             d="m 39.406,68.432 c -4.766,0 -8.662,3.896 -8.662,8.662 l 0,203.084 c 0,4.766 3.897,8.661 8.662,8.661 l 518.646,0 c 4.429,0 7.956,-3.411 8.453,-7.709 l 0.179,0 0,-0.952 0,-203.085 c 0,-4.762 -3.868,-8.658 -8.64,-8.658 l -518.645,0 0.007,-0.003 z m 0,1.904 518.646,0 c 3.737,0 6.727,3.021 6.727,6.757 l 0,202.131 0,0.953 c 0,3.736 -2.989,6.756 -6.727,6.756 l -518.646,0 c -3.732,0.01 -6.753,-3.019 -6.753,-6.753 l 0,-203.083 c 0,-3.736 3.02,-6.756 6.756,-6.756 l -0.003,-0.005 z" /><path
             style="fill:#f4f4f4"
             inkscape:connector-curvature="0"
             id="rect35"
             d="m 359.021,163.559 0,0.953 0,81.465 0,0.952 0.953,0 81.465,0 0.953,0 0,-0.952 0,-81.465 0,-0.953 -0.953,0 -81.465,0 -0.953,0 z m 1.906,1.905 79.561,0 0,79.56 -79.561,0 0,-79.56 z" /><path
             style="fill:#f4f4f4"
             inkscape:connector-curvature="0"
             id="rect37"
             d="m 448.248,163.559 0,0.953 0,81.465 0,0.952 0.953,0 81.436,0 0.952,0 0,-0.952 0,-81.465 0,-0.953 -0.952,0 -81.436,0 -0.953,0 z m 1.905,1.905 79.531,0 0,79.56 -79.531,0 0,-79.56 z" /><path
             style="fill:#f4f4f4"
             inkscape:connector-curvature="0"
             id="polyline39"
             d="m 83.934,94.177 0,2.292 0,159.061 0,2.322 1.607,-1.638 25.33,-25.299 -1.369,-1.369 -23.663,23.692 0,-154.45 23.663,23.658 1.369,-1.34 -25.33,-25.299 -1.607,-1.637 0,0.007 z" /><path
             style="fill:#f4f4f4"
             inkscape:connector-curvature="0"
             id="polyline41"
             d="m 222.305,232.551 -1.37,1.339 23.693,23.692 -154.452,0 23.574,-23.573 -1.369,-1.339 -25.181,25.182 -1.637,1.637 2.292,0 159.062,0 2.292,0 -1.607,-1.637 -25.299,-25.3 0.002,-0.001 z" /><path
             style="fill:#f4f4f4"
             inkscape:connector-curvature="0"
             id="polyline43"
             d="m 250.878,94.177 -1.637,1.637 -25.211,25.182 1.369,1.369 23.574,-23.603 0,154.509 -23.633,-23.663 -1.339,1.34 25.24,25.27 1.637,1.638 0,-2.322 0,-159.063 0,-2.292 0,-0.002 z" /><path
             style="fill:#f4f4f4"
             inkscape:connector-curvature="0"
             id="polyline45"
             d="m 85.57,92.54 1.638,1.608 25.21,25.24 1.339,-1.34 -23.572,-23.602 154.452,0 -23.669,23.662 1.333,1.339 25.307,-25.3 1.607,-1.607 -2.292,0 -159.062,0 -2.291,0 0,0 z" /><path
             style="fill:#f4f4f4"
             inkscape:connector-curvature="0"
             id="line47"
             d="m 58.961,69.533 0,218.057 1.905,0 0,-218.057 -1.905,0 z" /><path
             style="fill:#f4f4f4"
             inkscape:connector-curvature="0"
             id="rect49"
             d="m 359.021,145.819 0,0.953 0,13.244 0,0.953 0.953,0 81.465,0 0.953,0 0,-0.953 0,-13.244 0,-0.953 -0.953,0 -81.465,0 -0.953,0 z m 1.906,1.905 79.561,0 0,11.339 -79.561,0 0,-11.339 z" /><path
             style="fill:#f4f4f4"
             inkscape:connector-curvature="0"
             id="rect51"
             d="m 448.248,145.819 0,0.953 0,13.244 0,0.953 0.953,0 81.436,0 0.952,0 0,-0.953 0,-13.244 0,-0.953 -0.952,0 -81.436,0 -0.953,0 z m 1.905,1.905 79.531,0 0,11.339 -79.531,0 0,-11.339 z" /><path
             style="fill:#f4f4f4"
             inkscape:connector-curvature="0"
             id="path53"
             d="m 276.804,73.134 c -0.987,0 -1.815,0.828 -1.815,1.816 l 0,53.01 c 0,0.988 0.829,1.815 1.815,1.815 l 282.855,0 c 0.985,0 1.785,-0.831 1.785,-1.815 l 0,-50.033 c 0,-2.641 -2.152,-4.792 -4.792,-4.792 l -279.844,0 -0.004,0 z m 0.09,1.906 279.756,0 c 1.613,0 2.888,1.275 2.888,2.887 l 0,49.945 -282.643,0 0,-52.832 -10e-4,0 z" /><path
             style="fill:#f4f4f4"
             inkscape:connector-curvature="0"
             id="path55"
             d="m 276.804,260.41 c -0.987,0 -1.815,0.829 -1.815,1.815 l 0,20.091 c 0,0.987 0.829,1.816 1.815,1.816 l 279.844,0 c 2.64,0 4.792,-2.183 4.792,-4.822 l 0,-17.085 c 0,-0.985 -0.8,-1.815 -1.785,-1.815 l -282.855,0 0.004,0 z m 0.09,1.905 282.645,0 0,16.995 c 0,1.611 -1.276,2.917 -2.888,2.917 l -279.758,0 0.001,-19.912 0,0 z" /><path
             style="fill:#f4f4f4"
             inkscape:connector-curvature="0"
             id="line57"
             d="m 274.461,129.271 -6.28,6.28 1.369,1.339 6.251,-6.25 -1.34,-1.369 z" /><path
             style="fill:#f4f4f4"
             inkscape:connector-curvature="0"
             id="line59"
             d="m 269.546,253.866 -1.369,1.34 6.281,6.28 1.339,-1.369 -6.251,-6.251 z" /></g></g></g></g><g
     inkscape:groupmode="layer"
     id="layer4"
     inkscape:label="Controller"><g
       id="g12192"
       transform="matrix(0.52634968,-0.38371487,-0.36199415,0.79024751,151.0404,222.06172)"><g
         id="g16652"
         transform="matrix(0.80489388,0.04334117,0.20948772,0.8440932,39.080016,-38.131034)"><path
           id="path16420"
           d="m 58.296,111.342 c -1.11,0 -2.005,-0.897 -2.005,-2.005 l 0,0 0,-22.777 c 0,-1.107 0.897,-2.005 2.005,-2.005 l 0,0 22.776,0 c 1.108,0 2.005,0.897 2.005,2.005 l 0,0 0,22.776 c 0,1.108 -0.897,2.005 -2.005,2.005 l 0,0 -22.776,0 0,0.001 z m -0.007,-24.782 0,22.776 0.006,0.006 22.776,0 0.006,-0.006 -0.002,0 0.002,-22.776 -0.006,-0.006 -22.775,0 -0.007,0.006 0,0 z"
           inkscape:connector-curvature="0"
           style="fill:#f4f4f4" /><path
           id="path16422"
           d="m 86.065,111.342 c -1.107,0 -2.003,-0.897 -2.005,-2.005 l 0,0 0,-22.777 c 0.002,-1.107 0.897,-2.005 2.005,-2.005 l 0,0 22.778,0 c 1.107,0.002 2.003,0.897 2.005,2.005 l 0,0 0,22.776 c 0,1.108 -0.897,2.005 -2.005,2.005 l 0,0 -22.778,0 0,0.001 z m -0.004,-24.782 0,22.776 0.004,0.006 22.778,0 0.006,-0.006 -0.002,0 0.002,-22.776 -0.006,-0.006 -22.778,0 -0.004,0.006 0,0 z"
           inkscape:connector-curvature="0"
           style="fill:#f4f4f4" /><path
           id="path16424"
           d="m 113.837,111.342 c -1.107,0 -2.005,-0.897 -2.005,-2.005 l 0,0 0,-22.777 c 0,-1.107 0.897,-2.005 2.005,-2.005 l 0,0 22.778,0 c 1.106,0 2.003,0.897 2.005,2.005 l 0,0 0,22.776 -0.002,0 c 0,1.108 -0.896,2.005 -2.003,2.005 l 0,0 -22.778,0 0,0.001 z m -0.004,-24.782 -0.002,22.776 0.006,0.006 22.778,0 0.004,-0.006 0,-22.776 -0.004,-0.006 -22.778,0 c 0,0 -0.006,0.006 -0.004,0.006 l 0,0 z"
           inkscape:connector-curvature="0"
           style="fill:#f4f4f4" /><path
           id="path16426"
           d="m 141.609,111.342 c -1.107,0 -2.005,-0.897 -2.005,-2.005 l 0,0 0,-22.777 c 0,-1.107 0.898,-2.005 2.005,-2.005 l 0,0 22.776,0 c 1.107,0 2.005,0.897 2.005,2.005 l 0,0 0,22.776 c 0,1.108 -0.896,2.005 -2.005,2.005 l 0,0 -22.776,0 0,0.001 z m -0.007,-24.782 0,22.776 0.006,0.006 22.776,0 0.006,-0.006 -0.002,0 0.002,-22.776 -0.006,-0.006 -22.776,0 -0.006,0.006 0,0 z"
           inkscape:connector-curvature="0"
           style="fill:#f4f4f4" /><path
           id="path16428"
           d="m 169.38,111.342 c -1.109,0 -2.005,-0.897 -2.007,-2.005 l 0,0 0,-22.777 c 0,-1.107 0.899,-2.005 2.007,-2.005 l 0,0 22.776,0 c 1.108,0 2.005,0.897 2.005,2.005 l 0,0 0,22.776 c -0.002,1.108 -0.897,2.005 -2.005,2.005 l 0,0 -22.776,0 0,0.001 z m -0.006,-24.782 0,22.776 0.006,0.006 22.776,0 0.004,-0.006 0,-22.776 -0.004,-0.006 -22.776,0 -0.006,0.006 0,0 z"
           inkscape:connector-curvature="0"
           style="fill:#f4f4f4" /><path
           id="path16430"
           d="m 197.15,111.342 c -1.108,0 -2.003,-0.897 -2.005,-2.005 l 0,0 0,-22.777 c 0,-1.107 0.897,-2.005 2.005,-2.005 l 0,0 22.776,0 c 1.108,0.002 2.005,0.897 2.007,2.005 l 0,0 0,22.776 c 0,1.108 -0.897,2.005 -2.007,2.005 l 0,0 -22.776,0 0,0.001 z m -0.004,-24.782 0,22.776 0.004,0.006 22.776,0 0.006,-0.006 0,-22.776 -0.006,-0.006 -22.776,0 -0.004,0.006 0,0 z"
           inkscape:connector-curvature="0"
           style="fill:#f4f4f4" /><path
           id="path16432"
           d="m 224.922,111.342 c -1.109,0 -2.004,-0.897 -2.006,-2.005 l 0,0 0.002,-22.777 c 0,-1.108 0.897,-2.005 2.004,-2.005 l 0,0 22.778,0 c 1.107,0 2.004,0.897 2.004,2.005 l 0,0 0,22.777 c -0.002,1.108 -0.897,2.005 -2.004,2.005 l 0,0 -22.778,0 0,0 z m 22.777,-1.999 0.004,-0.006 0,-22.777 -0.004,-0.004 -22.778,0 -0.006,0.004 0,22.777 c 0,0 0.006,0.006 0.006,0.004 l 0,0 22.778,0.002 0,0 z"
           inkscape:connector-curvature="0"
           style="fill:#f4f4f4" /><path
           id="path16434"
           d="m 252.693,111.341 c -1.109,0 -2.005,-0.898 -2.005,-2.003 l 0,0 0,-22.777 c 0,-1.107 0.898,-2.005 2.005,-2.005 l 0,0 22.777,0 c 1.107,0 2.003,0.898 2.003,2.005 l 0,0 0,22.777 c 0,1.105 -0.896,2.003 -2.003,2.005 l 0,0 -22.777,-0.002 0,0 z m -0.006,-24.78 0,22.777 0.006,0.004 22.777,0 0.004,-0.004 0,-22.777 -0.004,-0.006 -22.777,0 -0.006,0.006 0,0 z"
           inkscape:connector-curvature="0"
           style="fill:#f4f4f4" /><path
           id="path16436"
           d="m 280.463,111.342 c -1.107,0 -2.004,-0.897 -2.006,-2.004 l 0,0 0.002,-22.777 c 0,-1.109 0.897,-2.006 2.004,-2.006 l 0,0 22.777,0 c 1.108,0.002 2.004,0.897 2.006,2.006 l 0,0 0,22.777 c -0.002,1.105 -0.897,2.002 -2.006,2.004 l 0,0 -22.777,0 0,0 z m -0.004,-24.781 0,22.777 0.004,0.004 22.777,0 0.006,-0.004 0,-22.777 -0.006,-0.006 -22.777,0 -0.004,0.006 0,0 z"
           inkscape:connector-curvature="0"
           style="fill:#f4f4f4" /><path
           id="path16438"
           d="m 308.234,111.342 c -1.108,0 -2.005,-0.898 -2.005,-2.004 l 0,0 0,-22.778 c 0,-1.109 0.898,-2.005 2.005,-2.005 l 0,0 22.777,0 c 1.106,0 2.005,0.896 2.007,2.005 l 0,0 0,22.777 -0.002,0 c 0,1.108 -0.896,2.004 -2.005,2.004 l 0,0 -22.777,0 0,0.001 z m -0.004,-24.782 -0.002,22.777 0.006,0.004 22.777,0 0.007,-0.004 -0.002,0 0.002,-22.777 c 0,0 -0.007,-0.006 -0.007,-0.004 l 0,0 -22.777,-0.002 c 0,0 -0.006,0.006 -0.004,0.006 l 0,0 z"
           inkscape:connector-curvature="0"
           style="fill:#f4f4f4" /><path
           id="path16440"
           d="m 336.008,111.341 c -1.11,0 -2.008,-0.897 -2.008,-2.005 l 0,0 0,-22.775 c 0,-1.108 0.899,-2.005 2.008,-2.007 l 0,0 22.775,0.002 c 1.106,0.002 2.001,0.896 2.005,2.005 l 0,0 0,22.776 -0.002,0 c 0,1.108 -0.895,2.005 -2.003,2.007 l 0,0 -22.775,-0.003 0,0 z m -0.007,-24.78 -0.002,22.776 0.009,0.006 22.775,0 0.004,-0.006 0,-22.776 -0.004,-0.006 -22.775,0 c 0,-0.001 -0.009,0.006 -0.007,0.006 l 0,0 z"
           inkscape:connector-curvature="0"
           style="fill:#f4f4f4" /><path
           id="path16442"
           d="m 363.778,111.342 c -1.11,0 -2.006,-0.898 -2.008,-2.006 l 0,0 0.002,-22.775 c 0.002,-1.108 0.896,-2.003 2.006,-2.007 l 0,0 22.775,0.002 c 1.107,0 2.005,0.896 2.007,2.005 l 0,0 0,22.775 -0.002,0 c 0,1.108 -0.897,2.006 -2.005,2.006 l 0,0 -22.775,0 0,0 z m -0.007,-24.781 0,22.775 0.007,0.006 22.775,0 0.006,-0.006 0,-22.775 -0.006,-0.006 -22.775,0 -0.007,0.006 0,0 z"
           inkscape:connector-curvature="0"
           style="fill:#f4f4f4" /><path
           id="path16444"
           d="m 100.64,139.056 c -1.107,0 -2.006,-0.896 -2.006,-2.005 l 0,0 0,-22.776 c 0,-1.107 0.899,-2.006 2.006,-2.006 l 0,0 22.778,0 c 1.107,0 2.004,0.898 2.004,2.006 l 0,0 0,22.776 c 0,1.109 -0.896,2.005 -2.004,2.005 l 0,0 -22.778,0 0,0 z m -0.006,-24.782 0,22.776 0.006,0.006 22.778,0 0.004,-0.006 0,-22.776 c 0,0 -0.004,-0.006 -0.004,-0.004 l 0,0 -22.778,-0.002 -0.006,0.006 0,0 z"
           inkscape:connector-curvature="0"
           style="fill:#f4f4f4" /><path
           id="path16446"
           d="m 128.41,139.056 c -1.107,0 -2.004,-0.896 -2.004,-2.005 l 0,0 0,-22.776 c 0,-1.107 0.896,-2.006 2.004,-2.006 l 0,0 22.778,0 c 1.107,0.002 2.004,0.898 2.006,2.006 l 0,0 0,22.776 c -0.002,1.109 -0.898,2.003 -2.006,2.005 l 0,0 -22.778,0 0,0 z m -0.004,-24.782 0,22.776 0.004,0.006 22.778,0 0.006,-0.006 -0.002,0 0.002,-22.776 c 0,0 -0.006,-0.006 -0.006,-0.004 l 0,0 -22.778,-0.002 -0.004,0.006 0,0 z"
           inkscape:connector-curvature="0"
           style="fill:#f4f4f4" /><path
           id="path16448"
           d="m 156.182,139.056 c -1.107,0 -2.006,-0.896 -2.006,-2.005 l 0,0 0,-22.776 c 0,-1.107 0.899,-2.006 2.006,-2.006 l 0,0 22.776,0 c 1.107,0 2.006,0.898 2.006,2.006 l 0,0 0,22.776 c 0,1.109 -0.898,2.005 -2.006,2.005 l 0,0 -22.776,0 0,0 z m -0.005,-24.782 0,22.776 0.006,0.006 22.776,0 0.006,-0.006 0,-22.776 c 0,0 -0.006,-0.006 -0.006,-0.004 l 0,0 -22.776,-0.002 -0.006,0.006 0,0 z"
           inkscape:connector-curvature="0"
           style="fill:#f4f4f4" /><path
           id="path16450"
           d="m 183.953,139.056 c -1.107,0 -2.004,-0.896 -2.006,-2.005 l 0,0 0.002,-22.776 c 0,-1.107 0.896,-2.006 2.004,-2.006 l 0,0 22.778,0 c 1.107,0 2.004,0.898 2.004,2.006 l 0,0 0,22.776 c 0,1.109 -0.896,2.005 -2.004,2.005 l 0,0 -22.778,0 0,0 z m -0.005,-24.782 0,22.776 0.004,0.006 22.778,0 0.004,-0.006 0,-22.776 c 0,0 -0.004,-0.006 -0.004,-0.004 l 0,0 -22.778,-0.002 -0.004,0.006 0,0 z"
           inkscape:connector-curvature="0"
           style="fill:#f4f4f4" /><path
           id="path16452"
           d="m 211.725,139.056 c -1.107,0 -2.006,-0.896 -2.006,-2.005 l 0,0 0,-22.776 c 0,-1.107 0.899,-2.006 2.006,-2.006 l 0,0 22.776,0 c 1.107,0 2.006,0.898 2.006,2.006 l 0,0 0,22.776 c 0,1.109 -0.898,2.005 -2.006,2.005 l 0,0 -22.776,0 0,0 z m -0.006,-24.782 0,22.776 0.006,0.006 22.776,0 0.006,-0.006 0,-22.776 c 0,0 -0.006,-0.006 -0.006,-0.004 l 0,0 -22.776,-0.002 -0.006,0.006 0,0 z"
           inkscape:connector-curvature="0"
           style="fill:#f4f4f4" /><path
           id="path16454"
           d="m 239.495,139.055 c -1.107,0 -2.004,-0.896 -2.004,-2.004 l 0,0 0,-22.778 c 0,-1.107 0.897,-2.004 2.004,-2.006 l 0,0 22.777,0.002 c 1.107,0 2.004,0.896 2.006,2.004 l 0,0 0,22.778 -0.002,0 c 0,1.107 -0.896,2.004 -2.004,2.006 l 0,0 -22.777,-0.002 0,0 z m -0.004,-24.782 0,22.778 0.004,0.004 22.777,0 0.006,-0.004 -0.002,0 0.002,-22.778 c 0,0 -0.006,-0.006 -0.006,-0.004 l 0,0 -22.777,-0.002 -0.004,0.006 0,0 z"
           inkscape:connector-curvature="0"
           style="fill:#f4f4f4" /><path
           id="path16456"
           d="m 267.266,139.056 c -1.107,0 -2.005,-0.897 -2.005,-2.005 l 0,0 0,-22.777 c 0,-1.107 0.898,-2.005 2.005,-2.005 l 0,0 22.777,0 c 1.109,0 2.004,0.897 2.006,2.005 l 0,0 0,22.777 -0.002,0 c 0,1.107 -0.896,2.005 -2.004,2.005 l 0,0 -22.777,0 0,0 z m 22.777,-1.999 0.006,-0.006 0,-22.777 c 0,0 -0.006,-0.006 -0.006,-0.004 l 0,0 -22.777,-0.002 -0.004,0.006 0,22.777 c 0,0 0.004,0.006 0.004,0.004 l 0,0 22.777,0.002 0,0 z"
           inkscape:connector-curvature="0"
           style="fill:#f4f4f4" /><path
           id="path16458"
           d="m 295.039,139.057 c -1.109,0 -2.005,-0.898 -2.007,-2.005 l 0,0 0.002,-22.778 c 0,-1.107 0.896,-2.005 2.005,-2.005 l 0,0 22.776,0 c 1.106,0.002 2.003,0.898 2.005,2.005 l 0,0 0,22.778 -0.002,0 c 0,1.107 -0.896,2.003 -2.003,2.005 l 0,0 -22.776,0 0,0 z m -0.006,-24.784 0,22.778 0.006,0.004 22.776,0 0.004,-0.004 0,-22.778 -0.004,-0.004 -22.776,0 -0.006,0.004 0,0 z"
           inkscape:connector-curvature="0"
           style="fill:#f4f4f4" /><path
           id="path16460"
           d="m 322.808,139.055 c -1.106,0 -2.004,-0.896 -2.006,-2.004 l 0,0 0.002,-22.777 c 0,-1.108 0.897,-2.006 2.004,-2.006 l 0,0 22.778,0 c 1.106,0 2.004,0.897 2.007,2.006 l 0,0 0,22.777 -0.003,0 c 0,1.108 -0.897,2.004 -2.004,2.006 l 0,0 -22.778,-0.002 0,0 z m 22.779,-1.997 0.005,-0.006 0,-22.777 -0.005,-0.006 -22.778,0 c 0,0 -0.006,0.006 -0.004,0.006 l 0,0 -0.002,22.777 c 0,0 0.006,0.006 0.006,0.004 l 0,0 22.778,0.002 0,0 z"
           inkscape:connector-curvature="0"
           style="fill:#f4f4f4" /><path
           id="path16462"
           d="m 350.578,139.056 c -1.105,0 -2.004,-0.896 -2.004,-2.004 l 0,0 0,-22.776 c 0,-1.108 0.898,-2.006 2.004,-2.006 l 0,0 22.779,0 c 1.107,0 2.004,0.898 2.006,2.006 l 0,0 0,22.776 -0.002,0 c 0,1.108 -0.896,2.004 -2.004,2.004 l 0,0 -22.779,0 0,0 z m -0.004,-24.781 0,22.776 0.004,0.004 22.779,0 0.006,-0.004 -0.002,0 0.002,-22.776 -0.006,-0.006 -22.779,0 -0.004,0.006 0,0 z"
           inkscape:connector-curvature="0"
           style="fill:#f4f4f4" /><path
           id="path16464"
           d="m 378.351,139.055 c -1.108,-0.002 -2.003,-0.897 -2.007,-2.005 l 0,0 0.002,-22.776 c 0.002,-1.108 0.896,-2.003 2.005,-2.007 l 0,0 22.775,0.002 c 1.107,0.002 2.003,0.897 2.007,2.005 l 0,0 0,22.776 -0.002,0 c -0.002,1.107 -0.897,2.003 -2.005,2.007 l 0,0 -22.775,-0.002 0,0 z m -0.005,-24.781 -0.002,22.776 0.007,0.006 22.775,0 0.007,-0.006 -0.002,0 0.002,-22.776 -0.007,-0.006 -22.775,0 c 0,0 -0.007,0.006 -0.005,0.006 l 0,0 z"
           inkscape:connector-curvature="0"
           style="fill:#f4f4f4" /><path
           id="path16466"
           d="m 406.122,139.055 c -1.106,0 -2.005,-0.896 -2.007,-2.003 l 0,0 0.002,-22.777 c 0,-1.109 0.898,-2.005 2.005,-2.005 l 0,0 22.777,0 c 1.107,0 2.005,0.896 2.008,2.005 l 0,0 0,22.777 -0.003,0 c 0,1.107 -0.897,2.003 -2.005,2.005 l 0,0 -22.777,-0.002 0,0 z m -0.006,-24.781 0,22.777 0.006,0.004 22.777,0 0.006,-0.004 0,-22.777 -0.006,-0.006 -22.777,0 -0.006,0.006 0,0 z"
           inkscape:connector-curvature="0"
           style="fill:#f4f4f4" /><path
           id="path16468"
           d="m 107.526,166.77 c -1.107,0 -2.004,-0.897 -2.006,-2.004 l 0,0 0.002,-22.778 c 0,-1.107 0.897,-2.004 2.004,-2.004 l 0,0 22.778,0 c 1.107,0 2.004,0.897 2.004,2.004 l 0,0 0,22.778 c 0,1.107 -0.897,2.004 -2.004,2.004 l 0,0 -22.778,0 0,0 z m 22.777,-1.999 0.004,-0.006 0,-22.778 c 0,0 -0.004,-0.006 -0.004,-0.004 l 0,0 -22.778,-0.002 -0.006,0.006 0,22.778 c 0,0 0.006,0.006 0.006,0.004 l 0,0 22.778,0.002 0,0 z"
           inkscape:connector-curvature="0"
           style="fill:#f4f4f4" /><path
           id="path16470"
           d="m 135.296,166.77 c -1.107,0 -2.004,-0.897 -2.004,-2.004 l 0,0 0,-22.778 c 0,-1.107 0.897,-2.004 2.004,-2.004 l 0,0 22.778,0 c 1.107,0 2.006,0.897 2.006,2.004 l 0,0 0,22.778 c 0,1.107 -0.899,2.004 -2.006,2.004 l 0,0 -22.778,0 0,0 z m 22.777,-1.999 0.006,-0.006 0,-22.778 c 0,0 -0.006,-0.006 -0.006,-0.004 l 0,0 -22.778,-0.002 -0.004,0.006 0,22.778 c 0,0 0.004,0.006 0.004,0.004 l 0,0 22.778,0.002 0,0 z"
           inkscape:connector-curvature="0"
           style="fill:#f4f4f4" /><path
           id="path16472"
           d="m 163.068,166.77 c -1.109,0 -2.004,-0.897 -2.007,-2.004 l 0,0 0.002,-22.778 c 0,-1.107 0.895,-2.004 2.004,-2.004 l 0,0 22.777,0 c 1.107,0 2.004,0.897 2.004,2.004 l 0,0 0,22.778 c 0,1.107 -0.897,2.004 -2.004,2.004 l 0,0 -22.776,0 0,0 z m 22.777,-1.999 0.004,-0.006 0,-22.778 c 0,0 -0.004,-0.006 -0.004,-0.004 l 0,0 -22.777,-0.002 c 0,0 -0.006,0.006 -0.004,0.006 l 0,0 -0.002,22.778 c 0,0 0.006,0.006 0.006,0.004 l 0,0 22.777,0.002 0,0 z"
           inkscape:connector-curvature="0"
           style="fill:#f4f4f4" /><path
           id="path16474"
           d="m 190.84,166.77 c -1.109,0 -2.006,-0.897 -2.006,-2.004 l 0,0 0,-22.778 c 0,-1.107 0.897,-2.004 2.006,-2.004 l 0,0 22.778,0 c 1.107,0 2.002,0.897 2.004,2.004 l 0,0 0,22.778 -0.002,0 c 0,1.107 -0.895,2.004 -2.002,2.004 l 0,0 -22.778,0 0,0 z m 22.778,-1.999 0.004,-0.006 -0.002,0 0.002,-22.778 c 0,0 -0.004,-0.006 -0.004,-0.004 l 0,0 -22.778,-0.002 -0.006,0.006 0,22.778 c 0,0 0.006,0.006 0.006,0.004 l 0,0 22.778,0.002 0,0 z"
           inkscape:connector-curvature="0"
           style="fill:#f4f4f4" /><path
           id="path16476"
           d="m 218.61,166.77 c -1.107,0 -2.004,-0.897 -2.006,-2.004 l 0,0 0.002,-22.778 c 0,-1.107 0.897,-2.004 2.004,-2.004 l 0,0 22.778,0 c 1.107,0 2.004,0.897 2.004,2.004 l 0,0 0,22.778 c 0,1.107 -0.897,2.004 -2.004,2.004 l 0,0 -22.778,0 0,0 z m 22.778,-1.999 0.004,-0.006 0,-22.778 c 0,0 -0.004,-0.006 -0.004,-0.004 l 0,0 -22.778,-0.002 -0.006,0.006 0,22.778 c 0,0 0.006,0.006 0.006,0.004 l 0,0 22.778,0.002 0,0 z"
           inkscape:connector-curvature="0"
           style="fill:#f4f4f4" /><path
           id="path16478"
           d="m 246.38,166.77 c -1.107,0 -2.004,-0.897 -2.004,-2.004 l 0,0 0,-22.778 c 0,-1.107 0.897,-2.004 2.004,-2.004 l 0,0 22.778,0 c 1.107,0 2.006,0.897 2.006,2.004 l 0,0 0,22.778 c 0,1.107 -0.899,2.004 -2.006,2.004 l 0,0 -22.778,0 0,0 z m 22.778,-1.999 0.006,-0.006 0,-22.778 c 0,0 -0.006,-0.006 -0.006,-0.004 l 0,0 -22.778,-0.002 -0.004,0.006 0,22.778 c 0,0 0.004,0.006 0.004,0.004 l 0,0 22.778,0.002 0,0 z"
           inkscape:connector-curvature="0"
           style="fill:#f4f4f4" /><path
           id="path16480"
           d="m 274.152,166.769 c -1.108,0 -2.004,-0.896 -2.004,-2.004 l 0,0 0,-22.776 c 0,-1.108 0.896,-2.006 2.004,-2.006 l 0,0 22.778,0 c 1.108,0 2.004,0.898 2.004,2.006 l 0,0 0,22.776 c 0,1.108 -0.896,2.004 -2.004,2.006 l 0,0 -22.778,-0.002 0,0 z m -0.004,-24.78 0,22.776 0.004,0.006 22.778,0 0.004,-0.006 0,-22.776 -0.004,-0.006 -22.778,0 -0.004,0.006 0,0 z"
           inkscape:connector-curvature="0"
           style="fill:#f4f4f4" /><path
           id="path16482"
           d="m 301.925,166.77 c -1.107,-0.002 -2.005,-0.897 -2.007,-2.005 l 0,0 0,-22.776 c 0.002,-1.108 0.899,-2.003 2.007,-2.005 l 0,0 22.776,0 c 1.107,0 2.003,0.897 2.005,2.005 l 0,0 0,22.776 -0.002,0 c 0,1.106 -0.896,2.005 -2.003,2.005 l 0,0 -22.776,0 0,0 z m 22.776,-1.999 0.004,-0.006 0,-22.776 -0.004,-0.006 -22.776,0 -0.007,0.006 0,22.776 c 0,0 0.007,0.006 0.007,0.004 l 0,0 22.776,0.002 0,0 z"
           inkscape:connector-curvature="0"
           style="fill:#f4f4f4" /><path
           id="path16484"
           d="m 329.695,166.769 c -1.107,0 -2.006,-0.896 -2.006,-2.003 l 0,0 0,-22.777 c 0,-1.109 0.898,-2.005 2.006,-2.005 l 0,0 22.775,0 c 1.106,0.002 2.003,0.898 2.007,2.005 l 0,0 0,22.777 -0.002,0 c -0.002,1.107 -0.898,2.003 -2.005,2.006 l 0,0 -22.775,-0.003 0,0 z m -0.006,-24.781 0,22.777 0.006,0.004 22.775,0 0.006,-0.004 0,-22.777 -0.006,-0.006 -22.775,0 -0.006,0.006 0,0 z"
           inkscape:connector-curvature="0"
           style="fill:#f4f4f4" /><path
           id="path16486"
           d="m 357.465,166.771 c -1.107,0 -2.004,-0.899 -2.004,-2.006 l 0,0 0,-22.777 c 0,-1.107 0.896,-2.004 2.004,-2.006 l 0,0 22.778,0.002 c 1.107,0 2.005,0.895 2.005,2.004 l 0,0 0,22.777 c 0,1.109 -0.897,2.004 -2.005,2.006 l 0,0 -22.778,0 0,0 z m -0.004,-24.783 0,22.777 0.004,0.006 22.778,0 0.005,-0.006 0,-22.777 c 0,0 -0.005,-0.006 -0.005,-0.004 l 0,0 -22.778,-0.002 -0.004,0.006 0,0 z"
           inkscape:connector-curvature="0"
           style="fill:#f4f4f4" /><path
           id="path16488"
           d="m 385.237,166.77 c -1.108,-0.002 -2.005,-0.898 -2.007,-2.004 l 0,0 0.002,-22.776 c 0,-1.108 0.896,-2.004 2.005,-2.006 l 0,0 22.776,0 c 1.106,0 2.004,0.898 2.004,2.006 l 0,0 0,22.776 c 0,1.108 -0.897,2.004 -2.004,2.004 l 0,0 -22.776,0 0,0 z m 22.776,-1.999 0.006,-0.006 -0.002,0 0.002,-22.776 -0.006,-0.006 -22.776,0 -0.006,0.006 0,22.776 c 0,0 0.006,0.006 0.006,0.004 l 0,0 22.776,0.002 0,0 z"
           inkscape:connector-curvature="0"
           style="fill:#f4f4f4" /><path
           id="path16490"
           d="m 413.008,167.114 c -1.106,0 -2.006,-0.897 -2.006,-2.005 l 0,0 0,-22.777 c 0,-1.108 0.899,-2.005 2.006,-2.005 l 0,0 c 3.871,0 16.006,0 17.685,0 l 0,0 c 0.683,-0.048 0.639,-0.069 0.83,-0.344 l 0,0 c 0.19,-0.324 0.355,-1.251 0.352,-2.758 l 0,0 -0.002,0 0.002,-22.779 c 0,-1.107 0.897,-2.004 2.006,-2.006 l 0,0 22.777,0.002 c 0.547,-0.021 1.138,0.285 1.421,0.717 l 0,0 c 0.293,0.426 0.366,0.872 0.371,1.287 l 0,0 -0.003,50.664 c 0,1.106 -0.896,2.005 -2.005,2.005 l 0,0 -43.434,0 0,-0.001 z m -0.006,-24.782 0,22.777 0.006,0.004 43.434,0 c 0,0 0.006,-0.004 0.004,-0.004 l 0,0 0.002,-50.664 c 0,-10e-4 0,-0.003 0,-0.004 l 0,0 -22.568,0 -0.007,0.004 0,22.779 -0.999,0 0.999,0.002 c -0.019,1.616 -0.104,2.741 -0.58,3.687 l 0,0 c -0.476,0.995 -1.604,1.463 -2.601,1.413 l 0,0 c -1.679,0 -13.813,0 -17.685,0 l 0,0 -0.005,0.006 0,0 z"
           inkscape:connector-curvature="0"
           style="fill:#f4f4f4" /><path
           id="path16492"
           d="m 121.297,194.482 c -1.108,0 -2.005,-0.896 -2.005,-2.003 l 0,0 0,-22.778 c 0,-1.108 0.898,-2.005 2.005,-2.007 l 0,0 22.778,0.002 c 1.107,0 2.003,0.896 2.003,2.005 l 0,0 0,22.778 c 0,1.107 -0.896,2.003 -2.003,2.006 l 0,0 -22.778,-0.003 0,0 z m 22.778,-1.998 0.004,-0.005 0,-22.778 -0.004,-0.006 -22.778,0 -0.006,0.006 0,22.778 c 0,0 0.006,0.005 0.006,0.003 l 0,0 22.778,0.002 0,0 z"
           inkscape:connector-curvature="0"
           style="fill:#f4f4f4" /><path
           id="path16494"
           d="m 58.294,194.482 c -1.108,0 -2.003,-0.896 -2.005,-2.003 l 0,0 0,-22.778 c 0,-1.108 0.898,-2.005 2.005,-2.005 l 0,0 57.894,0 c 1.106,0 2.005,0.896 2.005,2.005 l 0,0 0,22.778 c -0.002,1.107 -0.898,2.003 -2.005,2.006 l 0,0 -57.894,-0.003 0,0 z m 57.894,-1.998 0.004,-0.005 0,-22.778 c 0,0 -0.004,-0.006 -0.004,-0.004 l 0,0 -57.894,-0.002 -0.004,0.006 0,22.778 c 0,0 0.004,0.005 0.004,0.003 l 0,0 57.894,0.002 0,0 z"
           inkscape:connector-curvature="0"
           style="fill:#f4f4f4" /><path
           id="path16496"
           d="m 149.068,194.482 c -1.108,0 -2.005,-0.896 -2.005,-2.003 l 0,0 0,-22.778 c 0,-1.108 0.896,-2.005 2.005,-2.007 l 0,0 22.776,0.002 c 1.109,0 2.005,0.896 2.007,2.005 l 0,0 0,22.778 -0.002,0 c 0,1.107 -0.896,2.003 -2.005,2.006 l 0,0 -22.776,-0.003 0,0 z m 22.776,-1.998 0.006,-0.005 0,-22.778 -0.006,-0.006 -22.776,0 c 0,0 -0.006,0.006 -0.004,0.006 l 0,0 -0.002,22.778 c 0,0 0.006,0.005 0.006,0.003 l 0,0 22.776,0.002 0,0 z"
           inkscape:connector-curvature="0"
           style="fill:#f4f4f4" /><path
           id="path16498"
           d="m 176.84,194.482 c -1.109,0 -2.005,-0.896 -2.007,-2.003 l 0,0 0.002,-22.778 c 0,-1.108 0.896,-2.005 2.005,-2.007 l 0,0 22.776,0.002 c 1.108,0 2.005,0.896 2.005,2.005 l 0,0 0,22.778 c 0,1.107 -0.896,2.003 -2.005,2.006 l 0,0 -22.776,-0.003 0,0 z m 22.776,-1.998 0.004,-0.005 0,-22.778 -0.004,-0.006 -22.776,0 -0.006,0.006 0,22.778 c 0,0 0.006,0.005 0.006,0.003 l 0,0 22.776,0.002 0,0 z"
           inkscape:connector-curvature="0"
           style="fill:#f4f4f4" /><path
           id="path16500"
           d="m 204.611,194.482 c -1.109,0 -2.005,-0.896 -2.007,-2.003 l 0,0 0,-22.778 c 0,-1.108 0.898,-2.005 2.007,-2.007 l 0,0 22.776,0.002 c 1.108,0 2.005,0.896 2.005,2.005 l 0,0 0,22.778 c -0.002,1.107 -0.896,2.003 -2.005,2.006 l 0,0 -22.776,-0.003 0,0 z m 22.776,-1.998 0.004,-0.005 0,-22.778 -0.004,-0.006 -22.776,0 -0.006,0.006 0,22.778 c 0,0 0.006,0.005 0.006,0.003 l 0,0 22.776,0.002 0,0 z"
           inkscape:connector-curvature="0"
           style="fill:#f4f4f4" /><path
           id="path16502"
           d="m 232.38,194.482 c -1.106,0 -2.003,-0.896 -2.005,-2.003 l 0,0 0,-22.778 c 0.002,-1.108 0.898,-2.003 2.005,-2.007 l 0,0 22.779,0.002 c 1.106,0.002 2.003,0.896 2.005,2.005 l 0,0 0,22.778 c -0.002,1.107 -0.898,2.003 -2.005,2.006 l 0,0 -22.779,-0.003 0,0 z m 22.779,-1.998 0.004,-0.005 0,-22.778 -0.004,-0.006 -22.779,0 -0.004,0.006 0,22.778 c 0,0 0.004,0.005 0.004,0.003 l 0,0 22.779,0.002 0,0 z"
           inkscape:connector-curvature="0"
           style="fill:#f4f4f4" /><path
           id="path16504"
           d="m 260.152,194.482 c -1.108,0 -2.003,-0.896 -2.005,-2.003 l 0,0 0,-22.778 c 0,-1.108 0.896,-2.005 2.005,-2.007 l 0,0 22.776,0.002 c 1.109,0 2.007,0.896 2.007,2.005 l 0,0 0,22.778 c -0.002,1.107 -0.898,2.003 -2.007,2.006 l 0,0 -22.776,-0.003 0,0 z m 22.776,-1.998 0.006,-0.005 0,-22.778 -0.006,-0.006 -22.776,0 -0.004,0.006 0,22.778 c 0,0 0.004,0.005 0.004,0.003 l 0,0 22.776,0.002 0,0 z"
           inkscape:connector-curvature="0"
           style="fill:#f4f4f4" /><path
           id="path16506"
           d="m 287.923,194.482 c -1.108,0 -2.005,-0.896 -2.005,-2.003 l 0,0 0,-22.778 c 0,-1.108 0.896,-2.005 2.005,-2.007 l 0,0 22.779,0.002 c 1.106,0.002 2,0.898 2.003,2.005 l 0,0 0,22.778 c 0,1.107 -0.896,2.003 -2.003,2.006 l 0,0 -22.779,-0.003 0,0 z m 22.779,-1.998 0.004,-0.005 -0.002,0 0.002,-22.778 -0.004,-0.006 -22.779,0 c 0,0 -0.006,0.006 -0.004,0.006 l 0,0 -0.002,22.778 c 0,0 0.006,0.005 0.006,0.003 l 0,0 22.779,0.002 0,0 z"
           inkscape:connector-curvature="0"
           style="fill:#f4f4f4" /><path
           id="path16508"
           d="m 315.694,194.483 c -1.11,0 -2.005,-0.898 -2.005,-2.004 l 0,0 0,-22.778 c 0.002,-1.107 0.897,-2.006 2.005,-2.006 l 0,0 22.779,0 c 1.107,0 2,0.899 2.004,2.006 l 0,0 0,22.778 -0.002,0 c 0,1.105 -0.895,2.004 -2.002,2.004 l 0,0 -22.779,0 0,0 z m -0.005,-24.781 0,22.778 0.005,0.004 22.779,0 0.004,-0.004 -0.002,0 0.002,-22.778 -0.004,-0.006 -22.779,0 -0.005,0.006 0,0 z"
           inkscape:connector-curvature="0"
           style="fill:#f4f4f4" /><path
           id="path16510"
           d="m 343.466,194.482 c -1.109,0 -2.005,-0.896 -2.007,-2.003 l 0,0 0.002,-22.777 c 0,-1.109 0.897,-2.007 2.005,-2.007 l 0,0 22.777,0 c 1.107,0 2.001,0.899 2.005,2.007 l 0,0 0,22.777 -0.002,0 c 0,1.104 -0.894,2.003 -2.003,2.005 l 0,0 -22.777,-0.002 0,0 z m -0.006,-24.78 0,22.777 0.006,0.004 22.777,0 0.005,-0.004 0,-22.777 -0.005,-0.006 -22.777,0 -0.006,0.006 0,0 z"
           inkscape:connector-curvature="0"
           style="fill:#f4f4f4" /><path
           id="path16512"
           d="m 371.235,194.483 c -1.109,-0.002 -2.003,-0.896 -2.006,-2.004 l 0,0 0,-22.777 c 0,-1.108 0.899,-2.007 2.006,-2.007 l 0,0 22.779,0 c 1.106,0 2.003,0.899 2.005,2.007 l 0,0 0,22.777 -0.002,0 c 0,1.107 -0.896,2.002 -2.003,2.004 l 0,0 -22.779,0 0,0 z m 22.779,-1.999 0.004,-0.005 0,-22.777 c 0,0 -0.004,-0.008 -0.004,-0.006 l 0,0 -22.779,-0.002 -0.004,0.008 0,22.777 c 0,0 0.004,0.005 0.004,0.003 l 0,0 22.779,0.002 0,0 z"
           inkscape:connector-curvature="0"
           style="fill:#f4f4f4" /><path
           id="path16514"
           d="m 399.009,194.483 c -1.11,0 -2.005,-0.896 -2.008,-2.004 l 0,0 0.003,-22.777 c 0,-1.108 0.896,-2.005 2.005,-2.008 l 0,0 56.859,0 c 1.106,0 2.003,0.899 2.006,2.008 l 0,0 0,22.777 -0.003,0 c 0,1.107 -0.896,2.002 -2.003,2.004 l 0,0 -56.859,0 0,0 z m -0.006,-24.78 -0.002,22.777 0.008,0.005 56.859,0 0.004,-0.005 0,-22.777 -0.004,-0.006 -56.859,0 c 0,-0.001 -0.008,0.006 -0.006,0.006 l 0,0 z"
           inkscape:connector-curvature="0"
           style="fill:#f4f4f4" /><path
           id="path16516"
           d="m 462.295,111.342 c -1.108,0 -2.006,-0.898 -2.006,-2.004 l 0,0 0,-22.778 c 0,-1.108 0.897,-2.004 2.006,-2.006 l 0,0 22.777,0 c 1.106,0.002 2.004,0.898 2.006,2.006 l 0,0 0,22.777 -0.002,0 c 0,1.106 -0.896,2.004 -2.004,2.004 l 0,0 -22.777,0 0,0.001 z m -0.006,-24.782 0,22.777 0.006,0.004 22.777,0 0.007,-0.004 -0.003,0 0.003,-22.777 -0.007,-0.006 -22.777,0 -0.006,0.006 0,0 z"
           inkscape:connector-curvature="0"
           style="fill:#f4f4f4" /><path
           id="path16518"
           d="m 489.32,111.341 c -1.109,0 -2.004,-0.897 -2.006,-2.004 l 0,0 0.002,-22.777 c 0.002,-1.108 0.896,-2.002 2.004,-2.006 l 0,0 22.777,0.002 c 1.105,0 2.004,0.896 2.006,2.004 l 0,0 0,22.777 -0.002,0 c 0,1.107 -0.896,2.004 -2.004,2.006 l 0,0 -22.777,-0.002 0,0 z m 22.777,-1.998 0.006,-0.006 -0.002,0 0.002,-22.777 c 0,0 -0.006,-0.006 -0.006,-0.004 l 0,0 -22.777,-0.002 c 0,0 -0.006,0.006 -0.004,0.006 l 0,0 -0.002,22.777 c 0,0 0.006,0.006 0.006,0.004 l 0,0 22.777,0.002 0,0 z"
           inkscape:connector-curvature="0"
           style="fill:#f4f4f4" /><path
           id="path16520"
           d="m 516.518,111.341 c -1.108,0 -2.006,-0.896 -2.008,-2.004 l 0,0 0.002,-22.777 c 0,-1.109 0.897,-2.004 2.006,-2.006 l 0,0 22.777,0.002 c 1.106,0 2.004,0.896 2.006,2.004 l 0,0 0,22.777 -0.001,0 c 0,1.109 -0.897,2.004 -2.004,2.006 l 0,0 -22.778,-0.002 0,0 z m -0.006,-24.781 -0.002,22.777 0.008,0.006 22.777,0 0.006,-0.006 -0.001,0 0.002,-22.777 c 0,0 -0.006,-0.006 -0.006,-0.004 l 0,0 -22.777,-0.002 c -10e-4,0 -0.009,0.006 -0.007,0.006 l 0,0 z"
           inkscape:connector-curvature="0"
           style="fill:#f4f4f4" /><path
           id="path16522"
           d="m 462.295,139.057 c -1.108,-0.002 -2.006,-0.898 -2.006,-2.006 l 0,0 0,-22.777 c 0,-1.108 0.897,-2.004 2.006,-2.004 l 0,0 22.777,0 c 1.106,0 2.004,0.896 2.006,2.004 l 0,0 0,22.777 -0.002,0 c 0,1.108 -0.897,2.004 -2.004,2.006 l 0,0 -22.777,0 0,0 z m -0.006,-24.784 0,22.777 0.006,0.006 22.777,0 0.007,-0.006 -0.003,0 0.003,-22.777 -0.007,-0.004 -22.777,0 -0.006,0.004 0,0 z"
           inkscape:connector-curvature="0"
           style="fill:#f4f4f4" /><path
           id="path16524"
           d="m 489.32,139.055 c -1.107,0 -2.002,-0.896 -2.006,-2.004 l 0,0 0.002,-22.777 c 0.002,-1.106 0.896,-2.002 2.004,-2.007 l 0,0 22.777,0.002 c 1.105,0 2.004,0.896 2.006,2.004 l 0,0 0,22.777 -0.002,0 c 0,1.107 -0.898,2.004 -2.004,2.006 l 0,0 -22.777,-0.001 0,0 z m 22.777,-1.998 0.006,-0.006 -0.002,0 0.002,-22.777 c 0,0 -0.006,-0.006 -0.006,-0.004 l 0,0 -22.777,-0.002 c 0,0 -0.006,0.006 -0.004,0.006 l 0,0 -0.002,22.777 c 0,0 0.006,0.006 0.006,0.004 l 0,0 22.777,0.002 0,0 z"
           inkscape:connector-curvature="0"
           style="fill:#f4f4f4" /><path
           id="path16526"
           d="m 516.518,139.056 c -1.108,0 -2.006,-0.897 -2.008,-2.004 l 0,0 0.002,-22.776 c 0,-1.109 0.897,-2.007 2.006,-2.007 l 0,0 22.777,0 c 1.106,0 2.004,0.897 2.006,2.007 l 0,0 0,22.776 -0.001,0 c 0,1.107 -0.897,2.004 -2.004,2.004 l 0,0 -22.778,0 0,0 z m -0.006,-24.781 -0.002,22.776 0.008,0.004 22.777,0 0.006,-0.004 -0.001,0 0.002,-22.776 -0.006,-0.006 -22.777,0 c -10e-4,0 -0.009,0.006 -0.007,0.006 l 0,0 z"
           inkscape:connector-curvature="0"
           style="fill:#f4f4f4" /><path
           id="path16528"
           d="m 462.295,166.77 c -1.108,0 -2.006,-0.898 -2.006,-2.004 l 0,0 0,-22.777 c 0,-1.108 0.897,-2.006 2.006,-2.006 l 0,0 22.777,0 c 1.106,0 2.004,0.898 2.006,2.006 l 0,0 0,22.777 -0.002,0 c 0,1.106 -0.897,2.004 -2.004,2.004 l 0,0 -22.777,0 0,0 z m -0.006,-24.782 0,22.777 0.006,0.004 22.777,0 0.007,-0.004 -0.003,0 0.003,-22.777 -0.007,-0.006 -22.777,0 -0.006,0.006 0,0 z"
           inkscape:connector-curvature="0"
           style="fill:#f4f4f4" /><path
           id="path16530"
           d="m 489.32,166.771 c -1.107,-0.002 -2.002,-0.899 -2.006,-2.007 l 0,0 0.002,-22.777 c 0.002,-1.105 0.896,-2.002 2.004,-2.004 l 0,0 22.777,0 c 1.105,0 2.004,0.896 2.006,2.004 l 0,0 0,22.777 -0.002,0 c 0,1.108 -0.898,2.007 -2.004,2.007 l 0,0 -22.777,0 0,0 z m -0.004,-24.784 -0.002,22.777 0.006,0.006 22.777,0 0.006,-0.006 -0.002,0 0.002,-22.777 c 0,0 -0.006,-0.006 -0.006,-0.004 l 0,0 -22.777,-0.002 c 0,0 -0.006,0.006 -0.004,0.006 l 0,0 z"
           inkscape:connector-curvature="0"
           style="fill:#f4f4f4" /><path
           id="path16532"
           d="m 516.518,166.77 c -1.108,0 -2.006,-0.897 -2.008,-2.004 l 0,0 0.002,-22.778 c 0,-1.107 0.897,-2.004 2.006,-2.004 l 0,0 22.777,0 c 1.106,0 2.004,0.897 2.006,2.004 l 0,0 0,22.778 -0.001,0 c 0,1.107 -0.897,2.004 -2.004,2.004 l 0,0 -22.778,0 0,0 z m -0.006,-24.783 -0.002,22.778 0.008,0.004 22.777,0 0.006,-0.004 -0.001,0 0.002,-22.778 -0.006,-0.004 -22.777,0 c -10e-4,0 -0.009,0.004 -0.007,0.004 l 0,0 z"
           inkscape:connector-curvature="0"
           style="fill:#f4f4f4" /><path
           id="path16534"
           d="m 462.295,194.482 c -1.108,0 -2.004,-0.896 -2.006,-2.004 l 0,0 0,-22.777 c 0,-1.108 0.897,-2.004 2.006,-2.006 l 0,0 22.777,0 c 1.106,0.002 2.004,0.898 2.006,2.006 l 0,0 0,22.777 -0.002,0 c 0,1.108 -0.896,2.004 -2.004,2.006 l 0,0 -22.777,-0.002 0,0 z m 22.777,-1.998 0.007,-0.006 -0.003,0 0.003,-22.777 -0.007,-0.006 -22.777,0 -0.006,0.006 0,22.777 c 0,0 0.006,0.006 0.006,0.004 l 0,0 22.777,0.002 0,0 z"
           inkscape:connector-curvature="0"
           style="fill:#f4f4f4" /><path
           id="path16536"
           d="m 489.32,194.482 c -1.109,0 -2.004,-0.896 -2.006,-2.002 l 0,0 0.002,-22.779 c 0.002,-1.107 0.896,-2.004 2.004,-2.006 l 0,0 22.777,0.002 c 1.105,0 2.004,0.897 2.006,2.004 l 0,0 0,22.779 -0.002,0 c 0,1.105 -0.896,2.002 -2.004,2.004 l 0,0 -22.777,-0.002 0,0 z m 22.777,-1.998 0.006,-0.004 -0.002,0 0.002,-22.779 c 0,0 -0.006,-0.006 -0.006,-0.004 l 0,0 -22.777,-0.002 c 0,0 -0.006,0.006 -0.004,0.006 l 0,0 -0.002,22.779 c 0,0 0.006,0.004 0.006,0.002 l 0,0 22.777,0.002 0,0 z"
           inkscape:connector-curvature="0"
           style="fill:#f4f4f4" /><path
           id="path16538"
           d="m 516.518,194.482 c -1.108,0 -2.006,-0.896 -2.008,-2.002 l 0,0 0.002,-22.779 c 0,-1.109 0.897,-2.006 2.006,-2.006 l 0,0 22.777,0 c 1.106,0 2.004,0.897 2.006,2.006 l 0,0 0,22.779 -0.001,0 c 0,1.106 -0.897,2.002 -2.004,2.004 l 0,0 -22.778,-0.002 0,0 z m 22.778,-1.998 0.006,-0.004 -0.002,0 0.002,-22.779 -0.006,-0.006 -22.777,0 c 0,0 -0.008,0.006 -0.006,0.006 l 0,0 -0.002,22.779 c 0,0 0.008,0.004 0.008,0.002 l 0,0 22.777,0.002 0,0 z"
           inkscape:connector-curvature="0"
           style="fill:#f4f4f4" /><path
           id="path16540"
           d="m 462.295,222.197 c -1.106,0 -2.006,-0.896 -2.006,-2.004 l 0,0 0,-22.777 c 0.002,-1.108 0.897,-2.004 2.006,-2.006 l 0,0 22.777,0 c 1.108,0.002 2.004,0.897 2.006,2.006 l 0,0 0,22.777 -0.002,0 c 0,1.108 -0.897,2.004 -2.004,2.004 l 0,0 -22.777,0 0,0 z m -0.006,-24.781 0,22.777 0.006,0.004 22.777,0 0.007,-0.004 -0.003,0 0.003,-22.777 -0.007,-0.006 -22.777,0 -0.006,0.006 0,0 z"
           inkscape:connector-curvature="0"
           style="fill:#f4f4f4" /><path
           id="path16542"
           d="m 489.32,222.196 c -1.107,-0.003 -2.004,-0.897 -2.006,-2.003 l 0,0 0.002,-22.778 c 0,-1.108 0.895,-2.005 2.004,-2.005 l 0,0 22.777,0 c 1.107,0 2.004,0.896 2.006,2.005 l 0,0 0,22.778 -0.002,0 c 0,1.108 -0.898,2.003 -2.004,2.005 l 0,0 -22.777,-0.002 0,0 z m 22.777,-1.998 0.006,-0.005 -0.002,0 0.002,-22.778 -0.006,-0.005 -22.777,0 c 0,0 -0.006,0.005 -0.004,0.005 l 0,0 -0.002,22.778 c 0,0 0.006,0.005 0.006,0.003 l 0,0 22.777,0.002 0,0 z"
           inkscape:connector-curvature="0"
           style="fill:#f4f4f4" /><path
           id="path16544"
           d="m 516.518,222.197 c -1.108,0 -2.006,-0.896 -2.008,-2.003 l 0,0 0.002,-22.778 c 0,-1.109 0.897,-2.005 2.006,-2.007 l 0,0 22.777,0.002 c 1.106,0 2.004,0.896 2.006,2.005 l 0,0 0,22.778 -0.001,0 c 0,1.107 -0.897,2.003 -2.004,2.003 l 0,0 -22.778,0 0,0 z m 22.778,-1.998 0.006,-0.005 -0.002,0 0.002,-22.778 c 0,0 -0.006,-0.007 -0.006,-0.004 l 0,0 -22.777,-0.003 c 0,0 -0.008,0.007 -0.006,0.007 l 0,0 -0.002,22.778 c 0,0 0.008,0.005 0.008,0.002 l 0,0 22.777,0.003 0,0 z"
           inkscape:connector-curvature="0"
           style="fill:#f4f4f4" /><path
           id="path16546"
           d="m 391.548,111.342 c -1.106,0 -2.006,-0.896 -2.006,-2.006 l 0,0 0,-22.776 c 0,-1.107 0.899,-2.004 2.006,-2.006 l 0,0 22.777,0.002 c 1.107,0.002 2.002,0.899 2.006,2.004 l 0,0 0,22.777 -0.002,0 c 0,1.107 -0.895,2.006 -2.004,2.006 l 0,0 -22.777,0 0,-0.001 z m -0.006,-24.782 0,22.777 0.006,0.006 22.777,0 0.006,-0.006 -0.002,0 0.002,-22.777 -0.006,-0.004 -22.777,0 -0.006,0.004 0,0 z"
           inkscape:connector-curvature="0"
           style="fill:#f4f4f4" /><path
           id="path16548"
           d="m 420.294,111.343 c -1.106,-0.002 -2.006,-0.897 -2.006,-2.005 l 0,0 0,-22.778 c 0,-1.108 0.899,-2.006 2.006,-2.006 l 0,0 36.205,0 c 1.106,0.002 2.001,0.899 2.005,2.006 l 0,0 0,22.777 -0.002,0 c 0,1.106 -0.895,2.005 -2.003,2.005 l 0,0 -36.205,0 0,0.001 z m -0.005,-24.783 -0.002,22.777 0.007,0.004 36.205,0 0.004,-0.004 0,-22.777 c 0,0 -0.004,-0.006 -0.004,-0.004 l 0,0 -36.205,-0.002 c 0,0 -0.007,0.006 -0.005,0.006 l 0,0 z"
           inkscape:connector-curvature="0"
           style="fill:#f4f4f4" /><path
           id="path16550"
           d="m 413.065,222.196 c -1.109,0 -2.006,-0.894 -2.008,-2.002 l 0,0 0.002,-22.779 c 0,-1.108 0.896,-2.003 2.006,-2.006 l 0,0 43.434,0.003 c 1.108,0 2.003,0.896 2.005,2.003 l 0,0 0,22.779 -0.002,0 c 0,1.106 -0.896,2 -2.003,2.004 l 0,0 -43.434,-0.002 0,0 z m 43.434,-1.997 0.004,-0.005 0,-22.779 c 0,0 -0.004,-0.006 -0.004,-0.004 l 0,0 -43.434,-0.002 -0.007,0.006 0,22.779 c 0,0 0.007,0.005 0.007,0.002 l 0,0 43.434,0.003 0,0 z"
           inkscape:connector-curvature="0"
           style="fill:#f4f4f4" /><path
           id="path16552"
           d="m 58.296,222.196 c -1.108,0 -2.006,-0.896 -2.006,-2.002 l 0,0 0,-22.778 c 0,-1.108 0.897,-2.006 2.006,-2.006 l 0,0 41.367,0 c 1.108,0 2.005,0.897 2.005,2.006 l 0,0 0,22.778 c 0,1.108 -0.899,2.002 -2.005,2.004 l 0,0 -41.367,-0.002 0,0 z m 41.367,-1.997 0.006,-0.005 0,-22.778 c 0,0 -0.006,-0.007 -0.006,-0.004 l 0,0 -41.367,-0.003 -0.006,0.007 0,22.778 c 0,0 0.006,0.005 0.006,0.002 l 0,0 41.367,0.003 0,0 z"
           inkscape:connector-curvature="0"
           style="fill:#f4f4f4" /><path
           id="path16554"
           d="m 58.295,166.77 c -1.107,0 -2.005,-0.897 -2.005,-2.004 l 0,0 0,-22.778 c 0,-1.107 0.897,-2.004 2.005,-2.004 l 0,0 43.434,0 c 1.109,0 2.006,0.897 2.006,2.004 l 0,0 0,22.778 c 0,1.107 -0.897,2.004 -2.006,2.004 l 0,0 -43.434,0 0,0 z m 43.433,-1.999 0.006,-0.006 0,-22.778 c 0,0 -0.006,-0.006 -0.006,-0.004 l 0,0 -43.434,-0.002 -0.004,0.006 0,22.778 c 0,0 0.004,0.006 0.004,0.004 l 0,0 43.434,0.002 0,0 z"
           inkscape:connector-curvature="0"
           style="fill:#f4f4f4" /><path
           id="path16556"
           d="m 58.295,139.056 c -1.107,0 -2.006,-0.896 -2.006,-2.003 l 0,0 0,-22.778 c 0,-1.107 0.898,-2.006 2.006,-2.006 l 0,0 37.236,0 c 1.107,0 2.006,0.898 2.006,2.006 l 0,0 0,22.778 c 0,1.107 -0.898,2.003 -2.006,2.003 l 0,0 -37.236,0 0,0 z m -0.004,-24.782 -0.002,22.778 0.006,0.004 37.236,0 0.006,-0.004 0,-22.778 c 0,0 -0.006,-0.006 -0.006,-0.004 l 0,0 -37.236,-0.002 c 0,0 -0.006,0.006 -0.004,0.006 l 0,0 z"
           inkscape:connector-curvature="0"
           style="fill:#f4f4f4" /><path
           id="path16558"
           d="m 370.029,222.196 c -1.106,0 -2.004,-0.895 -2.006,-2.003 l 0,0 0.002,-22.779 c 0,-1.106 0.897,-2.004 2.004,-2.004 l 0,0 38.271,0 c 1.109,0 2.003,0.897 2.005,2.004 l 0,0 0,22.779 -0.002,0 c 0,1.106 -0.896,2.001 -2.003,2.005 l 0,0 -38.271,-0.002 0,0 z m -0.004,-24.782 -0.002,22.779 0.006,0.005 38.271,0 0.005,-0.005 -0.002,0 0.002,-22.779 -0.005,-0.004 -38.271,0 c 0,0 -0.006,0.004 -0.004,0.004 l 0,0 z"
           inkscape:connector-curvature="0"
           style="fill:#f4f4f4" /><path
           id="path16560"
           d="m 104.943,222.196 c -1.108,0 -2.005,-0.894 -2.007,-2.002 l 0,0 0.002,-22.778 c 0,-1.108 0.897,-2.006 2.005,-2.006 l 0,0 40.335,0 c 1.108,0 2.004,0.897 2.006,2.006 l 0,0 0,22.778 -0.002,0 c 0,1.106 -0.897,2.002 -2.004,2.004 l 0,0 -40.335,-0.002 0,0 z m 40.335,-1.997 0.004,-0.005 0,-22.778 c 0,0 -0.004,-0.007 -0.004,-0.004 l 0,0 -40.335,-0.003 -0.006,0.007 0,22.778 c 0,0 0.006,0.005 0.006,0.002 l 0,0 40.335,0.003 0,0 z"
           inkscape:connector-curvature="0"
           style="fill:#f4f4f4" /><path
           id="path16562"
           d="m 150.387,222.198 c -1.107,0 -2.007,-0.896 -2.007,-2.005 l 0,0 0,-22.777 c 0,-1.108 0.898,-2.004 2.007,-2.007 l 0,0 214.879,0.003 c 1.106,0 2.005,0.896 2.005,2.004 l 0,0 0,22.777 c 0,1.109 -0.898,2.005 -2.005,2.005 l 0,0 -214.879,0 0,0 z m -0.006,-24.782 0,22.777 0.006,0.004 214.879,0 0.006,-0.004 -0.002,0 0.002,-22.777 -0.006,-0.006 -214.879,0 -0.006,0.006 0,0 z"
           inkscape:connector-curvature="0"
           style="fill:#f4f4f4" /><path
           id="path16564"
           d="m 49.62,228.18 0,-150.469 498.522,0 0,149.466 0,1.002 -498.522,0 0,0.001 z m 497.522,-1.002 0,-0.999 0,0.999 0,0 z m -495.522,-0.999 494.52,0 0,-146.466 -494.52,0 0,146.466 0,0 z"
           inkscape:connector-curvature="0"
           style="fill:#f4f4f4" /><path
           id="path16566"
           d="m 32.675,324.102 0,-1.001 0.999,-0.032 -0.999,0.032 0,1.001 -0.969,0 -8.843,-280.343 550.485,0 -8.843,280.342 -531.83,0 0,10e-4 z m 529.893,-2.002 8.716,-276.341 -546.358,0 8.716,276.341 528.926,0 0,0 z"
           inkscape:connector-curvature="0"
           style="fill:#f4f4f4" /><path
           id="path16568"
           d="m 7.403,346.308 0,-343.345 580.891,0 0,342.345 0,1 -580.891,0 0,0 z m 579.89,-1 0,-1.002 0,1.002 0,0 z m -577.89,-1.002 576.888,0 0,-339.342 -576.888,0 0,339.342 0,0 z"
           inkscape:connector-curvature="0"
           style="fill:#f4f4f4" /><polygon
           id="polygon16570"
           points="31.674,345.306 31.674,323.102 33.674,323.102 33.674,345.306 31.674,345.306 "
           style="fill:#f4f4f4" /><polygon
           id="polygon16572"
           points="197.956,345.049 197.956,323.102 199.956,323.102 199.956,345.049 197.956,345.049 "
           style="fill:#f4f4f4" /><polygon
           id="polygon16574"
           points="396.256,345.306 396.256,323.102 398.256,323.102 398.256,345.306 396.256,345.306 "
           style="fill:#f4f4f4" /><polygon
           id="polygon16576"
           points="562.537,345.048 562.537,323.103 564.538,323.103 564.538,345.048 562.537,345.048 "
           style="fill:#f4f4f4" /><polygon
           id="polygon16578"
           points="33.913,44.931 33.913,17.079 39.355,17.079 39.355,44.931 37.354,44.931 37.354,44.931 37.354,19.078 35.912,19.078 35.912,44.931 "
           style="fill:#f4f4f4" /><polygon
           id="polygon16580"
           points="51.927,44.931 51.927,17.079 57.369,17.079 57.369,44.931 55.37,44.931 55.37,44.931 55.37,19.078 53.927,19.078 53.927,44.931 "
           style="fill:#f4f4f4" /><polygon
           id="polygon16582"
           points="69.943,44.931 69.943,17.079 75.385,17.079 75.385,44.931 73.384,44.931 73.384,44.931 73.384,19.078 71.942,19.078 71.942,44.931 "
           style="fill:#f4f4f4" /><polygon
           id="polygon16584"
           points="87.957,44.931 87.957,17.079 93.399,17.079 93.399,44.931 91.4,44.931 91.4,44.931 91.4,19.078 89.957,19.078 89.957,44.931 "
           style="fill:#f4f4f4" /><polygon
           id="polygon16586"
           points="105.972,44.931 105.972,17.079 111.413,17.079 111.415,44.931 109.414,44.931 109.414,44.931 109.414,19.078 107.971,19.078 107.971,44.931 "
           style="fill:#f4f4f4" /><polygon
           id="polygon16588"
           points="123.987,44.931 123.987,17.079 129.428,17.079 129.428,44.931 127.429,44.931 127.429,44.931 127.429,19.078 125.987,19.078 125.987,44.931 "
           style="fill:#f4f4f4" /><polygon
           id="polygon16590"
           points="142.002,44.931 142.002,17.079 147.443,17.079 147.445,44.931 145.444,44.931 145.444,44.931 145.444,19.078 144.001,19.078 144.001,44.931 "
           style="fill:#f4f4f4" /><polygon
           id="polygon16592"
           points="163.459,44.931 163.457,19.078 162.015,19.078 162.015,44.931 162.017,44.931 160.016,44.931 160.016,17.079 165.458,17.079 165.458,44.931 163.459,44.931 "
           style="fill:#f4f4f4" /><polygon
           id="polygon16594"
           points="178.031,44.931 178.031,17.079 183.472,17.079 183.472,44.931 181.474,44.931 181.474,44.931 181.472,19.078 180.031,19.078 180.031,44.931 "
           style="fill:#f4f4f4" /><polygon
           id="polygon16596"
           points="196.045,44.932 196.045,17.079 201.487,17.079 201.489,44.932 199.488,44.932 199.488,44.932 199.488,19.078 198.046,19.078 198.046,44.932 "
           style="fill:#f4f4f4" /><polygon
           id="polygon16598"
           points="214.06,44.93 214.06,17.078 219.501,17.078 219.504,44.93 217.502,44.93 217.502,44.93 217.502,19.078 216.061,19.078 216.061,44.93 "
           style="fill:#f4f4f4" /><polygon
           id="polygon16600"
           points="232.075,44.932 232.075,17.079 237.517,17.079 237.517,44.932 235.517,44.932 235.517,44.932 235.517,19.078 234.075,19.078 234.075,44.932 "
           style="fill:#f4f4f4" /><polygon
           id="polygon16602"
           points="250.091,44.931 250.091,17.078 255.532,17.078 255.532,44.931 253.532,44.931 253.532,44.931 253.532,19.078 252.091,19.078 252.091,44.931 "
           style="fill:#f4f4f4" /><polygon
           id="polygon16604"
           points="268.105,44.932 268.105,17.079 273.546,17.079 273.548,44.932 271.548,44.932 271.548,44.932 271.548,19.079 270.105,19.079 270.105,44.932 "
           style="fill:#f4f4f4" /><polygon
           id="polygon16606"
           points="286.119,44.93 286.119,17.077 291.562,17.077 291.562,44.93 289.562,44.93 289.562,44.93 289.562,19.078 288.12,19.078 288.12,44.93 "
           style="fill:#f4f4f4" /><polygon
           id="polygon16608"
           points="304.135,44.932 304.135,17.079 309.575,17.079 309.577,44.932 307.577,44.932 307.577,44.932 307.575,19.078 306.134,19.078 306.134,44.932 "
           style="fill:#f4f4f4" /><polygon
           id="polygon16610"
           points="325.591,44.931 325.591,19.078 324.146,19.078 324.146,44.931 324.149,44.931 322.147,44.931 322.147,17.079 327.59,17.079 327.592,44.931 325.591,44.931 "
           style="fill:#f4f4f4" /><polygon
           id="polygon16612"
           points="343.606,44.931 343.606,19.079 342.163,19.079 342.163,44.931 342.165,44.931 340.164,44.931 340.164,17.078 345.605,17.078 345.607,44.931 343.606,44.931 "
           style="fill:#f4f4f4" /><polygon
           id="polygon16614"
           points="358.178,44.932 358.178,17.078 363.62,17.078 363.62,44.932 361.62,44.932 361.62,44.932 361.62,19.077 360.177,19.077 360.177,44.932 "
           style="fill:#f4f4f4" /><polygon
           id="polygon16616"
           points="379.636,44.932 379.635,19.077 378.191,19.077 378.191,44.932 378.193,44.932 376.192,44.932 376.192,17.079 381.635,17.079 381.636,44.932 379.636,44.932 "
           style="fill:#f4f4f4" /><polygon
           id="polygon16618"
           points="397.651,44.931 397.651,19.078 396.207,19.078 396.207,44.931 396.209,44.931 394.209,44.931 394.209,17.078 399.65,17.078 399.65,44.931 397.651,44.931 "
           style="fill:#f4f4f4" /><polygon
           id="polygon16620"
           points="412.222,44.931 412.222,17.078 417.664,17.078 417.666,44.931 415.666,44.931 415.666,44.931 415.666,19.078 414.222,19.078 414.222,44.931 "
           style="fill:#f4f4f4" /><polygon
           id="polygon16622"
           points="433.68,44.931 433.68,19.079 432.236,19.079 432.236,44.931 432.238,44.931 430.238,44.931 430.238,17.079 435.678,17.079 435.68,44.931 433.68,44.931 "
           style="fill:#f4f4f4" /><polygon
           id="polygon16624"
           points="448.252,44.932 448.252,17.078 453.694,17.078 453.696,44.932 451.696,44.932 451.696,44.932 451.694,19.078 450.253,19.078 450.253,44.932 "
           style="fill:#f4f4f4" /><polygon
           id="polygon16626"
           points="469.711,44.932 469.709,19.078 468.266,19.078 468.266,44.932 468.268,44.932 466.268,44.932 466.268,17.079 471.709,17.079 471.711,44.932 469.711,44.932 "
           style="fill:#f4f4f4" /><polygon
           id="polygon16628"
           points="487.724,44.932 487.724,19.076 486.281,19.076 486.281,44.932 486.283,44.932 484.282,44.932 484.282,17.078 489.722,17.078 489.724,44.932 487.724,44.932 "
           style="fill:#f4f4f4" /><polygon
           id="polygon16630"
           points="502.295,44.932 502.295,17.079 507.738,17.079 507.74,44.932 505.74,44.932 505.74,44.932 505.74,19.077 504.296,19.077 504.296,44.932 "
           style="fill:#f4f4f4" /><polygon
           id="polygon16632"
           points="523.756,44.932 523.753,19.077 522.31,19.077 522.31,44.932 522.312,44.932 520.311,44.932 520.311,17.079 525.754,17.079 525.756,44.932 523.756,44.932 "
           style="fill:#f4f4f4" /><polygon
           id="polygon16634"
           points="538.327,44.932 538.327,17.078 543.768,17.078 543.77,44.932 541.769,44.932 541.769,44.932 541.769,19.077 540.326,19.077 540.326,44.932 "
           style="fill:#f4f4f4" /><polygon
           id="polygon16636"
           points="559.784,44.931 559.784,19.077 558.34,19.077 558.34,44.931 558.342,44.931 556.341,44.931 556.341,17.079 561.783,17.079 561.785,44.931 559.784,44.931 "
           style="fill:#f4f4f4" /><path
           id="path16638"
           d="M 2.929,73.592 C 2.927,69.239 4.846,65.328 7.882,62.671 l 0,0 1.317,1.504 c -2.619,2.297 -4.271,5.66 -4.271,9.417 l 0,0 c 0,3.692 1.596,7.002 4.139,9.297 l 0,0 -1.34,1.484 C 4.781,81.722 2.927,77.867 2.929,73.592 l 0,0 z"
           inkscape:connector-curvature="0"
           style="fill:#f4f4f4" /><path
           id="path16640"
           d="m 2.929,293.237 c -0.002,-4.354 1.919,-8.265 4.953,-10.921 l 0,0 1.318,1.504 c -2.621,2.297 -4.272,5.659 -4.272,9.417 l 0,0 c 0,3.69 1.595,7.002 4.139,9.295 l 0,0 0,0.002 -1.34,1.484 c -2.945,-2.653 -4.8,-6.505 -4.798,-10.781 l 0,0 z"
           inkscape:connector-curvature="0"
           style="fill:#f4f4f4" /><path
           id="path16642"
           d="m 586.423,82.889 c 2.542,-2.293 4.138,-5.605 4.138,-9.297 l 0,0 c 0,-3.756 -1.652,-7.119 -4.27,-9.417 l 0,0 1.315,-1.503 c 3.035,2.656 4.955,6.569 4.953,10.92 l 0,0 c 0.002,4.276 -1.853,8.13 -4.798,10.781 l 0,0 0,0.002 -1.338,-1.486 0,0 z"
           inkscape:connector-curvature="0"
           style="fill:#f4f4f4" /><path
           id="path16644"
           d="m 586.423,302.532 c 2.542,-2.294 4.138,-5.604 4.138,-9.295 l 0,0 c 0,-3.759 -1.65,-7.119 -4.27,-9.417 l 0,0 1.315,-1.505 c 3.035,2.657 4.955,6.569 4.955,10.922 l 0,0 c 0,4.275 -1.854,8.128 -4.8,10.781 l 0,0 -1.338,-1.486 0,0 z"
           inkscape:connector-curvature="0"
           style="fill:#f4f4f4" /></g></g></g></svg>