<?xml version="1.0" encoding="UTF-8" standalone="no"?>
<!-- Generator: Adobe Illustrator 13.0.0, SVG Export Plug-In . SVG Version: 6.00 Build 14948)  -->

<svg
   xmlns:dc="http://purl.org/dc/elements/1.1/"
   xmlns:cc="http://creativecommons.org/ns#"
   xmlns:rdf="http://www.w3.org/1999/02/22-rdf-syntax-ns#"
   xmlns:svg="http://www.w3.org/2000/svg"
   xmlns="http://www.w3.org/2000/svg"
   xmlns:sodipodi="http://sodipodi.sourceforge.net/DTD/sodipodi-0.dtd"
   xmlns:inkscape="http://www.inkscape.org/namespaces/inkscape"
   version="1.1"
   id="Layer_2"
   x="0px"
   y="0px"
   width="550"
   height="550"
   viewBox="0 0 549.99995 549.99999"
   enable-background="new 0 0 598.189 350.26"
   xml:space="preserve"
   inkscape:version="0.91 r13725"
   sodipodi:docname="controller_gg.svg"><metadata
     id="metadata3083"><rdf:RDF><cc:Work
         rdf:about=""><dc:format>image/svg+xml</dc:format><dc:type
           rdf:resource="http://purl.org/dc/dcmitype/StillImage" /><dc:title /></cc:Work></rdf:RDF></metadata><defs
     id="defs3081" /><sodipodi:namedview
     pagecolor="#ffffff"
     bordercolor="#666666"
     borderopacity="1"
     objecttolerance="10"
     gridtolerance="10"
     guidetolerance="10"
     inkscape:pageopacity="0"
     inkscape:pageshadow="2"
     inkscape:window-width="1920"
     inkscape:window-height="1001"
     id="namedview3079"
     showgrid="false"
     inkscape:zoom="1.0799262"
     inkscape:cx="69.732879"
     inkscape:cy="317.24155"
     inkscape:window-x="-9"
     inkscape:window-y="759"
     inkscape:window-maximized="1"
     inkscape:current-layer="layer4"
     showguides="true"
     inkscape:guide-bbox="true" /><g
     inkscape:groupmode="layer"
     id="layer4"
     inkscape:label="Controller"
     style="display:inline"
     sodipodi:insensitive="true"><g
       id="g6418"
       transform="matrix(0.4870708,-0.34007093,-0.32253006,0.73801692,191.51966,167.14614)"><path
         d="m 63.494,154.659 -0.255,0.255 c 0,0 -15.638,15.388 -17.58,17.382 -0.785,0.804 -1.243,1.449 -1.5,1.925 -0.256,0.476 -0.311,0.905 -0.311,0.905 l -0.028,0.057 0,0.058 0,2.095 0,0.906 0.906,0 336.109,0 0.906,0 0,-0.906 0,-2.039 c -0.002,-0.002 -0.019,0.016 0.113,-0.226 0.164,-0.303 0.502,-0.824 1.188,-1.529 1.795,-1.841 17.552,-17.325 17.552,-17.325 l 1.585,-1.557 -2.208,0 -336.11,0 -0.367,0 z m 0.764,1.812 333.477,0 c -2.341,2.302 -14.228,14.011 -15.994,15.825 -0.784,0.804 -1.216,1.449 -1.472,1.925 -0.257,0.476 -0.34,0.905 -0.34,0.905 l 0,0.057 0,0.058 0,1.188 -334.299,0 0,-1.075 c 0,0 -0.022,0.019 0.142,-0.283 0.164,-0.303 0.502,-0.824 1.189,-1.529 1.767,-1.814 16.85,-16.631 17.297,-17.071 z"
         id="path3-4"
         inkscape:connector-curvature="0"
         style="fill:#f4f4f4" /><path
         d="m 96.841,154.914 c 0,0 -15.638,15.388 -17.58,17.382 -0.785,0.804 -1.215,1.449 -1.472,1.925 -0.257,0.476 -0.339,0.905 -0.339,0.905 l 0,0.057 0,0.058 0,2.095 1.812,0 0,-2.039 c -0.001,-0.002 -0.017,0.016 0.113,-0.226 0.164,-0.303 0.501,-0.824 1.189,-1.529 1.792,-1.84 17.552,-17.325 17.552,-17.325 l -1.275,-1.303 z"
         id="path5-3"
         inkscape:connector-curvature="0"
         style="fill:#f4f4f4" /><path
         d="m 130.443,154.914 c 0,0 -15.609,15.388 -17.551,17.382 -0.785,0.804 -1.244,1.449 -1.5,1.925 -0.257,0.476 -0.34,0.905 -0.34,0.905 l 0,0.057 0,0.058 0,2.095 1.813,0 0,-1.981 c 0,0 -0.051,0.019 0.113,-0.283 0.164,-0.303 0.501,-0.824 1.189,-1.529 1.792,-1.84 17.552,-17.325 17.552,-17.325 l -1.276,-1.304 z"
         id="path7-7"
         inkscape:connector-curvature="0"
         style="fill:#f4f4f4" /><path
         d="m 164.046,154.914 c 0,0 -15.609,15.388 -17.551,17.382 -0.785,0.804 -1.243,1.449 -1.5,1.925 -0.257,0.476 -0.34,0.905 -0.34,0.905 l 0,0.057 0,0.058 0,2.095 1.813,0 0,-1.981 c 0,0 -0.022,0.019 0.141,-0.283 0.164,-0.303 0.502,-0.824 1.189,-1.529 1.792,-1.84 17.523,-17.325 17.523,-17.325 l -1.275,-1.304 z"
         id="path9-0"
         inkscape:connector-curvature="0"
         style="fill:#f4f4f4" /><path
         d="m 197.677,154.914 c 0,0 -15.638,15.388 -17.58,17.382 -0.785,0.804 -1.244,1.449 -1.5,1.925 -0.257,0.476 -0.312,0.905 -0.312,0.905 l -0.029,0.057 0,0.058 0,2.095 1.812,0 0,-1.981 c 0,0 -0.022,0.019 0.142,-0.283 0.164,-0.303 0.501,-0.824 1.189,-1.529 1.792,-1.84 17.551,-17.325 17.551,-17.325 l -1.273,-1.304 z"
         id="path11-9"
         inkscape:connector-curvature="0"
         style="fill:#f4f4f4" /><path
         d="m 231.28,154.914 c 0,0 -15.639,15.389 -17.58,17.382 -0.784,0.804 -1.215,1.449 -1.472,1.925 -0.257,0.476 -0.339,0.905 -0.339,0.905 l 0,0.057 0,0.058 0,2.095 1.812,0 0,-2.039 c -0.002,-0.002 -0.018,0.016 0.113,-0.226 0.163,-0.303 0.502,-0.824 1.189,-1.529 1.794,-1.841 17.551,-17.325 17.551,-17.325 l -1.274,-1.303 z"
         id="path13"
         inkscape:connector-curvature="0"
         style="fill:#f4f4f4" /><path
         d="m 264.882,154.914 c 0,0 -15.609,15.388 -17.551,17.382 -0.785,0.804 -1.243,1.449 -1.5,1.925 -0.257,0.476 -0.339,0.905 -0.339,0.905 l 0,0.057 0,0.058 0,2.095 1.812,0 0,-2.039 c -0.002,-0.002 -0.018,0.016 0.113,-0.226 0.164,-0.303 0.501,-0.824 1.189,-1.529 1.792,-1.84 17.551,-17.325 17.551,-17.325 l -1.275,-1.303 z"
         id="path15"
         inkscape:connector-curvature="0"
         style="fill:#f4f4f4" /><path
         d="m 298.484,154.914 c 0,0 -15.609,15.388 -17.551,17.382 -0.783,0.804 -1.243,1.449 -1.5,1.925 -0.257,0.476 -0.34,0.905 -0.34,0.905 l 0,0.057 0,0.058 0,2.095 1.812,0 0,-1.981 c 0,0 -0.021,0.019 0.142,-0.283 0.163,-0.303 0.501,-0.824 1.189,-1.529 1.794,-1.841 17.522,-17.325 17.522,-17.325 l -1.274,-1.304 z"
         id="path17"
         inkscape:connector-curvature="0"
         style="fill:#f4f4f4" /><path
         d="m 332.115,154.914 c 0,0 -15.637,15.388 -17.58,17.382 -0.783,0.804 -1.243,1.449 -1.5,1.925 -0.257,0.476 -0.312,0.905 -0.312,0.905 l -0.028,0.057 0,0.058 0,2.095 1.812,0 0,-1.981 c 0,0 -0.021,0.019 0.142,-0.283 0.164,-0.303 0.502,-0.824 1.188,-1.529 1.793,-1.84 17.523,-17.325 17.523,-17.325 l -1.245,-1.304 0,0 z"
         id="path19"
         inkscape:connector-curvature="0"
         style="fill:#f4f4f4" /><path
         d="m 365.717,154.914 c 0,0 -15.637,15.388 -17.579,17.382 -0.784,0.804 -1.214,1.449 -1.473,1.925 -0.256,0.476 -0.34,0.905 -0.34,0.905 l -0.027,0.057 0,0.058 0,2.095 1.812,0 0,-1.981 c 0,0 -0.021,0.019 0.142,-0.283 0.164,-0.303 0.503,-0.824 1.189,-1.529 1.791,-1.84 17.551,-17.325 17.551,-17.325 l -1.275,-1.304 z"
         id="path21-2"
         inkscape:connector-curvature="0"
         style="fill:#f4f4f4" /><path
         d="m 132.454,44.283 c 0,0 -2.852,-0.229 -5.464,2.208 -0.007,0.007 -0.188,0.161 -0.198,0.169 -0.283,-0.681 -0.678,-1.321 -1.331,-1.783 -0.545,-0.385 -1.279,-0.588 -2.039,-0.453 -0.759,0.135 -1.509,0.563 -2.265,1.274 l -0.085,0.084 c -0.668,0.626 -5.747,5.241 -13.022,11.833 -7.324,6.637 -16.839,15.246 -26.271,23.78 -18.863,17.068 -37.396,33.829 -37.396,33.829 l -1.755,1.585 2.378,0 5.832,0 0.34,0 0.255,-0.255 c 0,0 18.606,-16.634 37.509,-33.546 9.451,-8.456 18.989,-16.976 26.299,-23.524 7.311,-6.549 12.33,-11.071 12.994,-11.691 l 0.029,0 c 2.111,-1.958 3.991,-1.699 3.991,-1.699 l 0.199,-1.811 z m -8.72,1.925 c 0.295,-0.052 0.463,-0.012 0.68,0.142 0.367,0.259 0.691,0.997 0.877,1.67 -1.469,1.331 -4.915,4.444 -11.267,10.135 -7.31,6.548 -16.848,15.069 -26.299,23.525 -18.774,16.796 -37.005,33.096 -37.254,33.319 l -3.143,0 c 1.593,-1.44 17.676,-15.991 35.669,-32.272 9.431,-8.535 18.946,-17.142 26.271,-23.78 7.325,-6.637 12.406,-11.259 13.135,-11.946 0.586,-0.55 1.036,-0.74 1.331,-0.793 z"
         id="path23"
         inkscape:connector-curvature="0"
         style="fill:#f4f4f4" /><path
         d="m 140.72,44.283 c 0,0 -2.824,-0.229 -5.435,2.208 -0.008,0.007 -0.188,0.161 -0.199,0.169 -0.282,-0.681 -0.677,-1.321 -1.33,-1.783 -0.545,-0.385 -1.308,-0.588 -2.066,-0.453 -0.759,0.135 -1.481,0.563 -2.236,1.274 -0.61,0.574 -5.811,5.281 -13.135,11.917 -7.325,6.637 -16.839,15.246 -26.271,23.78 -18.863,17.068 -37.396,33.829 -37.396,33.829 l -1.726,1.585 2.349,0 5.832,0 0.34,0 0.254,-0.255 c 0,0 18.607,-16.634 37.51,-33.546 9.451,-8.456 18.988,-16.976 26.299,-23.524 7.31,-6.549 12.329,-11.071 12.994,-11.691 l 0.113,-0.085 c 2.07,-1.859 3.906,-1.614 3.906,-1.614 l 0.197,-1.811 z m -8.691,1.925 c 0.295,-0.052 0.463,-0.012 0.679,0.142 0.365,0.258 0.662,1.001 0.85,1.67 -1.475,1.337 -4.923,4.452 -11.267,10.135 -7.31,6.548 -16.82,15.069 -26.271,23.525 -18.774,16.796 -37.005,33.096 -37.255,33.319 l -3.17,0 c 1.593,-1.44 17.676,-15.991 35.669,-32.272 9.431,-8.535 18.945,-17.142 26.271,-23.78 7.324,-6.637 12.405,-11.259 13.135,-11.946 0.585,-0.55 1.063,-0.74 1.359,-0.793 z"
         id="path25"
         inkscape:connector-curvature="0"
         style="fill:#f4f4f4" /><path
         d="m 149.014,44.283 c 0,0 -2.852,-0.229 -5.463,2.208 -0.008,0.007 -0.188,0.161 -0.198,0.169 -0.283,-0.681 -0.677,-1.321 -1.331,-1.783 -0.545,-0.385 -1.279,-0.588 -2.039,-0.453 -0.759,0.135 -1.509,0.563 -2.264,1.274 -0.611,0.574 -5.783,5.281 -13.107,11.917 -7.324,6.637 -16.839,15.246 -26.271,23.78 -18.862,17.068 -37.396,33.829 -37.396,33.829 l -1.755,1.585 2.35,0 5.86,0 0.34,0 0.255,-0.255 c 0,0 18.607,-16.634 37.509,-33.546 9.451,-8.456 18.96,-16.976 26.271,-23.524 7.311,-6.549 12.358,-11.071 13.022,-11.691 2.119,-1.978 4.02,-1.699 4.02,-1.699 l 0.197,-1.811 z m -8.719,1.925 c 0.295,-0.052 0.463,-0.012 0.68,0.142 0.367,0.259 0.691,0.997 0.877,1.67 -1.469,1.331 -4.915,4.444 -11.267,10.135 -7.31,6.548 -16.848,15.069 -26.299,23.525 -18.773,16.796 -37.005,33.096 -37.254,33.319 l -3.142,0 c 1.593,-1.44 17.676,-15.991 35.669,-32.272 9.431,-8.535 18.946,-17.142 26.271,-23.78 7.085,-6.42 11.731,-10.639 12.711,-11.55 l 0.424,-0.396 c 0.584,-0.55 1.035,-0.74 1.33,-0.793 z"
         id="path27"
         inkscape:connector-curvature="0"
         style="fill:#f4f4f4" /><path
         d="m 157.28,44.283 c 0,0 -2.824,-0.229 -5.435,2.208 -0.008,0.007 -0.188,0.161 -0.198,0.169 -0.283,-0.681 -0.677,-1.321 -1.331,-1.783 -0.545,-0.385 -1.308,-0.588 -2.066,-0.453 -0.759,0.135 -1.509,0.563 -2.265,1.274 -0.61,0.574 -5.782,5.281 -13.107,11.917 -7.324,6.637 -16.839,15.246 -26.27,23.78 -18.862,17.068 -37.396,33.829 -37.396,33.829 l -1.727,1.585 2.349,0 5.832,0 0.34,0 0.255,-0.255 c 0,0 18.607,-16.634 37.509,-33.546 9.451,-8.456 18.989,-16.976 26.299,-23.524 7.31,-6.549 12.329,-11.071 12.994,-11.691 2.119,-1.978 4.02,-1.699 4.02,-1.699 l 0.197,-1.811 z m -8.718,1.925 c 0.295,-0.052 0.491,-0.012 0.707,0.142 0.373,0.263 0.666,1.017 0.85,1.698 -1.481,1.342 -4.931,4.43 -11.267,10.106 -7.31,6.548 -16.82,15.069 -26.271,23.525 -18.774,16.796 -37.005,33.096 -37.254,33.319 l -3.17,0 c 1.593,-1.44 17.676,-15.991 35.669,-32.272 9.431,-8.535 18.945,-17.142 26.271,-23.78 7.325,-6.637 12.405,-11.259 13.135,-11.946 0.583,-0.549 1.034,-0.739 1.33,-0.792 z"
         id="path29"
         inkscape:connector-curvature="0"
         style="fill:#f4f4f4" /><path
         d="m 165.575,44.283 c 0,0 -2.853,-0.229 -5.464,2.208 -0.008,0.007 -0.188,0.161 -0.198,0.169 -0.283,-0.681 -0.677,-1.321 -1.331,-1.783 -0.545,-0.385 -1.279,-0.588 -2.038,-0.453 -0.759,0.135 -1.509,0.563 -2.265,1.274 -0.61,0.574 -5.783,5.281 -13.107,11.917 -7.324,6.637 -16.839,15.246 -26.271,23.78 -18.863,17.068 -37.396,33.829 -37.396,33.829 l -1.755,1.585 2.35,0 5.832,0 0.368,0 0.255,-0.255 c 0,0 18.607,-16.634 37.509,-33.546 9.451,-8.456 18.96,-16.976 26.271,-23.524 7.311,-6.548 12.357,-11.071 13.021,-11.691 2.119,-1.978 3.992,-1.699 3.992,-1.699 l 0.227,-1.811 z m -8.72,1.925 c 0.295,-0.052 0.463,-0.012 0.68,0.142 0.365,0.258 0.662,1.001 0.849,1.67 -1.475,1.337 -4.922,4.452 -11.267,10.135 -7.31,6.548 -16.82,15.069 -26.271,23.525 -18.774,16.796 -37.005,33.096 -37.255,33.319 l -3.141,0 c 1.594,-1.441 17.648,-15.991 35.641,-32.272 9.432,-8.535 18.974,-17.142 26.299,-23.78 7.086,-6.42 11.731,-10.639 12.711,-11.55 l 0.424,-0.396 c 0.585,-0.55 1.035,-0.74 1.33,-0.793 z"
         id="path31"
         inkscape:connector-curvature="0"
         style="fill:#f4f4f4" /><path
         d="m 173.841,44.283 c 0,0 -2.823,-0.229 -5.435,2.208 -0.009,0.008 -0.215,0.188 -0.227,0.198 -0.283,-0.691 -0.669,-1.344 -1.331,-1.812 -0.545,-0.385 -1.279,-0.588 -2.038,-0.453 -0.759,0.135 -1.509,0.563 -2.265,1.274 -0.61,0.574 -5.782,5.281 -13.107,11.917 -7.324,6.637 -16.839,15.246 -26.271,23.78 -18.861,17.068 -37.396,33.829 -37.396,33.829 l -1.727,1.585 2.35,0 5.832,0 0.34,0 0.255,-0.255 c 0,0 18.606,-16.634 37.509,-33.546 9.452,-8.456 18.989,-16.976 26.299,-23.524 7.31,-6.549 12.329,-11.071 12.994,-11.691 2.119,-1.978 4.02,-1.699 4.02,-1.699 l 0.198,-1.811 z m -8.719,1.925 c 0.295,-0.052 0.462,-0.012 0.679,0.142 0.372,0.263 0.694,1.017 0.877,1.698 -1.481,1.342 -4.931,4.43 -11.267,10.106 -7.31,6.548 -16.848,15.069 -26.299,23.525 -18.773,16.796 -37.004,33.096 -37.254,33.319 l -3.142,0 c 1.593,-1.44 17.676,-15.991 35.669,-32.272 9.431,-8.535 18.945,-17.142 26.271,-23.78 7.325,-6.637 12.405,-11.259 13.135,-11.946 0.585,-0.549 1.035,-0.739 1.331,-0.792 z"
         id="path33-3"
         inkscape:connector-curvature="0"
         style="fill:#f4f4f4" /><path
         d="m 182.107,44.283 c 0,0 -2.824,-0.229 -5.435,2.208 -0.008,0.007 -0.188,0.161 -0.198,0.169 -0.283,-0.681 -0.678,-1.321 -1.331,-1.783 -0.545,-0.385 -1.279,-0.588 -2.039,-0.453 -0.759,0.135 -1.509,0.563 -2.265,1.274 -0.61,0.574 -5.811,5.281 -13.135,11.917 -7.325,6.637 -16.839,15.246 -26.271,23.78 -18.862,17.068 -37.368,33.829 -37.368,33.829 l -1.755,1.585 2.349,0 5.832,0 0.34,0 0.283,-0.255 c 0,0 18.579,-16.634 37.481,-33.546 9.451,-8.456 18.988,-16.976 26.299,-23.524 7.311,-6.548 12.358,-11.072 13.022,-11.691 2.119,-1.978 3.992,-1.699 3.992,-1.699 l 0.199,-1.811 z m -8.691,1.925 c 0.295,-0.052 0.463,-0.012 0.68,0.142 0.364,0.258 0.661,1.001 0.849,1.67 -1.475,1.337 -4.922,4.452 -11.267,10.135 -7.31,6.548 -16.82,15.069 -26.271,23.525 -18.774,16.796 -37.005,33.096 -37.254,33.319 l -3.143,0 c 1.593,-1.441 17.649,-15.991 35.641,-32.272 9.431,-8.535 18.946,-17.142 26.271,-23.78 7.085,-6.42 11.76,-10.639 12.739,-11.55 l 0.425,-0.396 c 0.585,-0.55 1.036,-0.74 1.33,-0.793 z"
         id="path35"
         inkscape:connector-curvature="0"
         style="fill:#f4f4f4" /><path
         d="m 190.402,44.283 c 0,0 -2.853,-0.229 -5.464,2.208 -0.008,0.007 -0.188,0.161 -0.198,0.169 -0.283,-0.681 -0.677,-1.321 -1.331,-1.783 -0.545,-0.385 -1.279,-0.588 -2.038,-0.453 -0.759,0.135 -1.509,0.563 -2.265,1.274 -0.611,0.574 -5.783,5.281 -13.107,11.917 -7.324,6.637 -16.839,15.246 -26.271,23.78 -18.861,17.068 -37.396,33.829 -37.396,33.829 l -1.755,1.585 2.378,0 5.832,0 0.339,0 0.255,-0.255 c 0,0 18.607,-16.634 37.509,-33.546 9.452,-8.456 18.961,-16.976 26.271,-23.524 7.311,-6.549 12.358,-11.071 13.022,-11.691 2.119,-1.978 4.02,-1.699 4.02,-1.699 l 0.199,-1.811 z m -8.719,1.925 c 0.295,-0.052 0.462,-0.012 0.679,0.142 0.367,0.259 0.691,0.997 0.877,1.67 -1.469,1.331 -4.915,4.444 -11.267,10.135 -7.31,6.548 -16.848,15.069 -26.299,23.525 -18.773,16.796 -37.005,33.096 -37.254,33.319 l -3.142,0 c 1.593,-1.44 17.676,-15.991 35.669,-32.272 9.432,-8.535 18.946,-17.142 26.271,-23.78 7.325,-6.637 12.405,-11.259 13.135,-11.946 0.585,-0.55 1.035,-0.74 1.331,-0.793 z"
         id="path37"
         inkscape:connector-curvature="0"
         style="fill:#f4f4f4" /><path
         d="m 198.611,44.283 c 0,0 -2.853,-0.229 -5.464,2.208 -0.008,0.007 -0.188,0.161 -0.198,0.169 -0.283,-0.681 -0.677,-1.321 -1.331,-1.783 -0.545,-0.385 -1.279,-0.588 -2.038,-0.453 -0.759,0.135 -1.509,0.563 -2.265,1.274 -0.61,0.574 -5.811,5.281 -13.135,11.917 -7.324,6.637 -16.811,15.246 -26.242,23.78 -18.862,17.068 -37.396,33.829 -37.396,33.829 l -1.755,1.585 2.35,0 5.832,0 0.339,0 0.283,-0.255 c 0,0 18.607,-16.634 37.509,-33.546 9.451,-8.456 18.96,-16.976 26.271,-23.524 7.311,-6.549 12.358,-11.072 13.022,-11.691 2.118,-1.978 3.991,-1.699 3.991,-1.699 l 0.227,-1.811 z m -8.719,1.925 c 0.296,-0.052 0.463,-0.012 0.68,0.142 0.365,0.258 0.662,1.001 0.85,1.67 -1.476,1.337 -4.923,4.452 -11.267,10.135 -7.31,6.548 -16.82,15.069 -26.271,23.525 -18.773,16.796 -37.005,33.096 -37.254,33.319 l -3.142,0 c 1.593,-1.441 17.648,-15.991 35.641,-32.272 9.431,-8.535 18.946,-17.142 26.271,-23.78 7.325,-6.637 12.434,-11.259 13.164,-11.946 0.582,-0.55 1.032,-0.74 1.328,-0.793 z"
         id="path39"
         inkscape:connector-curvature="0"
         style="fill:#f4f4f4" /><path
         d="m 206.877,44.283 c 0,0 -2.852,-0.229 -5.463,2.208 -0.008,0.007 -0.188,0.161 -0.199,0.169 -0.283,-0.681 -0.677,-1.321 -1.331,-1.783 -0.545,-0.385 -1.279,-0.588 -2.038,-0.453 -0.759,0.135 -1.509,0.563 -2.264,1.274 -0.611,0.574 -5.783,5.281 -13.107,11.917 -7.325,6.637 -16.839,15.246 -26.271,23.78 -18.862,17.068 -37.396,33.829 -37.396,33.829 l -1.727,1.585 2.35,0 5.831,0 0.34,0 0.254,-0.255 c 0,0 18.607,-16.634 37.509,-33.546 9.451,-8.456 18.989,-16.976 26.299,-23.524 7.31,-6.548 12.33,-11.071 12.994,-11.691 2.119,-1.978 4.02,-1.699 4.02,-1.699 l 0.199,-1.811 z m -8.719,1.925 c 0.295,-0.052 0.462,-0.012 0.679,0.142 0.367,0.259 0.691,0.997 0.877,1.67 -1.469,1.331 -4.915,4.444 -11.267,10.135 -7.31,6.548 -16.848,15.069 -26.298,23.525 -18.774,16.796 -37.005,33.096 -37.255,33.319 l -3.142,0 c 1.593,-1.44 17.676,-15.991 35.669,-32.272 9.431,-8.535 18.945,-17.142 26.271,-23.78 7.325,-6.637 12.406,-11.259 13.135,-11.946 0.586,-0.55 1.036,-0.74 1.331,-0.793 z"
         id="path41"
         inkscape:connector-curvature="0"
         style="fill:#f4f4f4" /><path
         d="m 215.144,44.283 c 0,0 -2.824,-0.229 -5.436,2.208 -0.008,0.007 -0.188,0.161 -0.198,0.169 -0.284,-0.681 -0.678,-1.321 -1.331,-1.783 -0.545,-0.385 -1.308,-0.588 -2.067,-0.453 -0.759,0.135 -1.48,0.563 -2.236,1.274 -0.61,0.574 -5.811,5.281 -13.135,11.917 -7.324,6.637 -16.839,15.246 -26.271,23.78 -18.862,17.068 -37.367,33.829 -37.367,33.829 l -1.755,1.585 2.35,0 5.832,0 0.339,0 0.255,-0.255 c 0,0 18.607,-16.634 37.509,-33.546 9.451,-8.456 18.989,-16.976 26.299,-23.524 7.311,-6.549 12.358,-11.071 13.022,-11.691 2.118,-1.978 3.991,-1.699 3.991,-1.699 l 0.199,-1.811 z m -8.691,1.925 c 0.295,-0.052 0.462,-0.012 0.679,0.142 0.365,0.258 0.662,1.001 0.85,1.67 -1.475,1.337 -4.923,4.452 -11.267,10.135 -7.31,6.548 -16.82,15.069 -26.271,23.525 -18.773,16.796 -37.005,33.096 -37.254,33.319 l -3.171,0 c 1.593,-1.44 17.676,-15.991 35.669,-32.272 9.431,-8.535 18.946,-17.142 26.271,-23.78 7.085,-6.42 11.76,-10.639 12.739,-11.55 l 0.424,-0.396 c 0.585,-0.55 1.035,-0.74 1.331,-0.793 z"
         id="path43"
         inkscape:connector-curvature="0"
         style="fill:#f4f4f4" /><path
         d="m 223.438,44.283 c 0,0 -2.852,-0.229 -5.463,2.208 -0.008,0.007 -0.188,0.161 -0.199,0.169 -0.283,-0.681 -0.677,-1.321 -1.331,-1.783 -0.545,-0.385 -1.279,-0.588 -2.038,-0.453 -0.759,0.135 -1.51,0.563 -2.265,1.274 -0.61,0.574 -5.783,5.281 -13.106,11.917 -7.325,6.637 -16.839,15.246 -26.271,23.78 -18.863,17.068 -37.396,33.829 -37.396,33.829 l -1.755,1.585 2.35,0 5.86,0 0.339,0 0.254,-0.255 c 0,0 18.607,-16.634 37.51,-33.546 9.451,-8.456 18.96,-16.976 26.271,-23.524 7.31,-6.549 12.357,-11.071 13.022,-11.691 2.119,-1.978 4.02,-1.699 4.02,-1.699 l 0.198,-1.811 z m -8.719,1.925 c 0.295,-0.052 0.462,-0.012 0.679,0.142 0.368,0.259 0.691,0.997 0.878,1.67 -1.47,1.331 -4.915,4.444 -11.267,10.135 -7.31,6.548 -16.848,15.069 -26.298,23.525 -18.774,16.796 -37.005,33.096 -37.255,33.319 l -3.142,0 c 1.593,-1.44 17.676,-15.991 35.669,-32.272 9.432,-8.535 18.945,-17.142 26.271,-23.78 7.325,-6.637 12.406,-11.259 13.135,-11.946 0.584,-0.55 1.034,-0.74 1.33,-0.793 z"
         id="path45"
         inkscape:connector-curvature="0"
         style="fill:#f4f4f4" /><path
         d="m 231.704,44.283 c 0,0 -2.824,-0.229 -5.436,2.208 -0.007,0.007 -0.188,0.161 -0.198,0.169 -0.284,-0.681 -0.678,-1.321 -1.331,-1.783 -0.545,-0.385 -1.308,-0.588 -2.067,-0.453 -0.759,0.135 -1.48,0.563 -2.236,1.274 -0.61,0.574 -5.811,5.281 -13.135,11.917 -7.324,6.637 -16.839,15.246 -26.271,23.78 -18.863,17.068 -37.396,33.829 -37.396,33.829 l -1.727,1.585 2.35,0 5.832,0 0.34,0 0.255,-0.255 c 0,0 18.606,-16.634 37.509,-33.546 9.452,-8.456 18.989,-16.976 26.299,-23.524 7.311,-6.549 12.33,-11.071 12.994,-11.691 2.119,-1.978 4.02,-1.699 4.02,-1.699 l 0.198,-1.811 z m -8.691,1.925 c 0.295,-0.052 0.463,-0.012 0.68,0.142 0.365,0.258 0.661,1.001 0.849,1.67 -1.475,1.337 -4.923,4.452 -11.267,10.135 -7.31,6.548 -16.819,15.069 -26.271,23.525 C 168.23,98.476 150,114.776 149.75,114.999 l -3.171,0 c 1.593,-1.44 17.676,-15.991 35.669,-32.272 9.431,-8.535 18.946,-17.142 26.271,-23.78 7.325,-6.637 12.406,-11.259 13.135,-11.946 0.585,-0.55 1.064,-0.74 1.359,-0.793 z"
         id="path47"
         inkscape:connector-curvature="0"
         style="fill:#f4f4f4" /><path
         d="m 239.999,44.283 c 0,0 -2.852,-0.229 -5.463,2.208 -0.008,0.007 -0.188,0.161 -0.198,0.169 -0.283,-0.681 -0.678,-1.321 -1.331,-1.783 -0.545,-0.385 -1.279,-0.588 -2.038,-0.453 -0.759,0.135 -1.509,0.563 -2.265,1.274 -0.609,0.574 -5.782,5.281 -13.106,11.917 -7.325,6.637 -16.839,15.246 -26.271,23.78 -18.863,17.068 -37.396,33.829 -37.396,33.829 l -1.755,1.585 2.35,0 5.832,0 0.368,0 0.254,-0.255 c 0,0 18.607,-16.634 37.51,-33.546 9.451,-8.456 18.96,-16.976 26.271,-23.524 7.31,-6.549 12.357,-11.071 13.022,-11.691 2.118,-1.978 4.02,-1.699 4.02,-1.699 l 0.196,-1.811 z m -8.719,1.925 c 0.295,-0.052 0.462,-0.012 0.679,0.142 0.367,0.259 0.691,0.997 0.877,1.67 -1.469,1.331 -4.916,4.444 -11.267,10.135 -7.31,6.548 -16.849,15.069 -26.299,23.525 -18.773,16.796 -37.004,33.096 -37.254,33.319 l -3.143,0 c 1.593,-1.44 17.677,-15.991 35.669,-32.272 9.431,-8.535 18.945,-17.142 26.271,-23.78 7.324,-6.637 12.405,-11.259 13.135,-11.946 0.586,-0.55 1.036,-0.74 1.332,-0.793 z"
         id="path49"
         inkscape:connector-curvature="0"
         style="fill:#f4f4f4" /><path
         d="m 248.265,44.283 c 0,0 -2.824,-0.229 -5.435,2.208 -0.009,0.008 -0.215,0.188 -0.227,0.198 -0.283,-0.691 -0.669,-1.344 -1.331,-1.812 -0.545,-0.385 -1.279,-0.588 -2.038,-0.453 -0.759,0.135 -1.509,0.563 -2.265,1.274 -0.611,0.574 -5.783,5.281 -13.107,11.917 -7.324,6.637 -16.839,15.246 -26.271,23.78 -18.862,17.068 -37.396,33.829 -37.396,33.829 l -1.727,1.585 2.35,0 5.832,0 0.339,0 0.255,-0.255 c 0,0 18.607,-16.634 37.509,-33.546 9.452,-8.456 18.989,-16.976 26.299,-23.524 7.311,-6.549 12.33,-11.071 12.994,-11.691 2.119,-1.978 4.02,-1.699 4.02,-1.699 l 0.199,-1.811 z m -8.72,1.925 c 0.295,-0.052 0.462,-0.012 0.68,0.142 0.373,0.263 0.694,1.017 0.877,1.698 -1.482,1.342 -4.931,4.43 -11.267,10.106 -7.31,6.548 -16.849,15.069 -26.299,23.525 -18.773,16.796 -37.005,33.096 -37.255,33.319 l -3.142,0 c 1.593,-1.44 17.676,-15.991 35.669,-32.272 9.432,-8.535 18.946,-17.142 26.271,-23.78 7.325,-6.637 12.406,-11.259 13.135,-11.946 0.586,-0.549 1.036,-0.739 1.331,-0.792 z"
         id="path51"
         inkscape:connector-curvature="0"
         style="fill:#f4f4f4" /><path
         d="m 256.531,44.283 c 0,0 -2.824,-0.229 -5.435,2.208 -0.008,0.007 -0.188,0.161 -0.198,0.169 -0.283,-0.681 -0.678,-1.321 -1.331,-1.783 -0.545,-0.385 -1.279,-0.588 -2.038,-0.453 -0.759,0.135 -1.509,0.563 -2.265,1.274 -0.61,0.574 -5.811,5.281 -13.135,11.917 -7.325,6.637 -16.84,15.246 -26.271,23.78 -18.862,17.068 -37.368,33.829 -37.368,33.829 l -1.755,1.585 2.35,0 5.832,0 0.34,0 0.283,-0.255 c 0,0 18.579,-16.634 37.481,-33.546 9.451,-8.456 18.988,-16.976 26.299,-23.524 7.31,-6.549 12.357,-11.071 13.022,-11.691 2.118,-1.978 3.992,-1.699 3.992,-1.699 l 0.197,-1.811 z m -8.691,1.925 c 0.295,-0.052 0.462,-0.012 0.679,0.142 0.365,0.258 0.662,1.001 0.849,1.67 -1.475,1.337 -4.922,4.452 -11.267,10.135 -7.31,6.548 -16.82,15.069 -26.271,23.525 -18.773,16.796 -37.004,33.096 -37.254,33.319 l -3.142,0 c 1.593,-1.441 17.647,-15.991 35.641,-32.272 9.431,-8.535 18.945,-17.142 26.271,-23.78 7.085,-6.42 11.759,-10.639 12.739,-11.55 l 0.425,-0.396 c 0.584,-0.55 1.035,-0.74 1.33,-0.793 z"
         id="path53-6"
         inkscape:connector-curvature="0"
         style="fill:#f4f4f4" /><path
         d="m 264.91,44.283 c 0,0 -2.853,-0.229 -5.464,2.208 -0.007,0.007 -0.188,0.161 -0.198,0.169 -0.283,-0.681 -0.677,-1.321 -1.331,-1.783 -0.545,-0.385 -1.279,-0.588 -2.038,-0.453 -0.759,0.135 -1.509,0.563 -2.265,1.274 -0.61,0.574 -5.782,5.281 -13.106,11.917 -7.325,6.637 -16.839,15.246 -26.271,23.78 -18.863,17.068 -37.396,33.829 -37.396,33.829 l -1.755,1.585 2.35,0 5.832,0 0.369,0 0.254,-0.255 c 0,0 18.607,-16.634 37.509,-33.546 9.451,-8.456 18.96,-16.976 26.27,-23.524 7.311,-6.549 12.358,-11.072 13.022,-11.691 2.118,-1.978 4.02,-1.699 4.02,-1.699 l 0.198,-1.811 z m -8.719,1.925 c 0.295,-0.052 0.462,-0.012 0.679,0.142 0.367,0.259 0.691,0.997 0.877,1.67 -1.47,1.332 -4.915,4.444 -11.267,10.135 -7.31,6.548 -16.848,15.069 -26.299,23.525 -18.773,16.796 -37.004,33.096 -37.254,33.319 l -3.142,0 c 1.592,-1.44 17.676,-15.991 35.669,-32.272 9.431,-8.535 18.945,-17.142 26.271,-23.78 7.085,-6.42 11.731,-10.639 12.71,-11.55 l 0.425,-0.396 c 0.585,-0.55 1.036,-0.74 1.331,-0.793 z"
         id="path55-1"
         inkscape:connector-curvature="0"
         style="fill:#f4f4f4" /><path
         d="m 273.176,44.283 c 0,0 -2.824,-0.229 -5.435,2.208 -0.009,0.008 -0.215,0.188 -0.227,0.198 -0.283,-0.69 -0.67,-1.345 -1.33,-1.812 -0.546,-0.385 -1.28,-0.588 -2.039,-0.453 -0.759,0.135 -1.509,0.563 -2.265,1.274 -0.61,0.574 -5.783,5.281 -13.107,11.917 -7.325,6.637 -16.839,15.246 -26.271,23.78 -18.862,17.068 -37.396,33.829 -37.396,33.829 l -1.726,1.585 2.35,0 5.832,0 0.339,0 0.255,-0.255 c 0,0 18.607,-16.634 37.509,-33.546 9.451,-8.456 18.989,-16.976 26.299,-23.524 7.311,-6.549 12.329,-11.071 12.994,-11.691 2.119,-1.978 4.02,-1.699 4.02,-1.699 l 0.198,-1.811 z m -8.718,1.925 c 0.295,-0.052 0.491,-0.012 0.708,0.142 0.372,0.263 0.665,1.017 0.85,1.698 -1.481,1.341 -4.931,4.43 -11.267,10.106 -7.31,6.548 -16.849,15.069 -26.299,23.525 -18.774,16.796 -36.977,33.096 -37.227,33.319 l -3.17,0 c 1.593,-1.44 17.677,-15.991 35.669,-32.272 9.431,-8.535 18.946,-17.142 26.271,-23.78 7.325,-6.637 12.405,-11.259 13.135,-11.946 0.584,-0.549 1.034,-0.739 1.33,-0.792 z"
         id="path57"
         inkscape:connector-curvature="0"
         style="fill:#f4f4f4" /><path
         d="m 281.471,44.283 c 0,0 -2.851,-0.229 -5.463,2.208 -0.008,0.007 -0.188,0.161 -0.198,0.169 -0.284,-0.681 -0.677,-1.321 -1.331,-1.783 -0.545,-0.385 -1.279,-0.588 -2.038,-0.453 -0.759,0.135 -1.509,0.563 -2.265,1.274 -0.611,0.574 -5.783,5.281 -13.107,11.917 -7.324,6.637 -16.839,15.246 -26.271,23.78 -18.862,17.068 -37.396,33.829 -37.396,33.829 l -1.755,1.585 2.35,0 5.832,0 0.339,0 0.283,-0.255 c 0,0 18.607,-16.634 37.509,-33.546 9.452,-8.456 18.96,-16.976 26.271,-23.524 7.311,-6.549 12.358,-11.072 13.022,-11.691 2.12,-1.979 3.991,-1.699 3.991,-1.699 l 0.227,-1.811 z m -8.719,1.925 c 0.295,-0.052 0.462,-0.012 0.679,0.142 0.365,0.258 0.662,1.001 0.85,1.67 -1.476,1.337 -4.923,4.452 -11.267,10.135 -7.31,6.548 -16.82,15.069 -26.271,23.525 -18.773,16.796 -37.004,33.096 -37.254,33.319 l -3.142,0 c 1.593,-1.441 17.647,-15.991 35.641,-32.272 9.431,-8.535 18.946,-17.142 26.271,-23.78 7.085,-6.42 11.76,-10.639 12.739,-11.55 l 0.425,-0.396 c 0.583,-0.55 1.033,-0.74 1.329,-0.793 z"
         id="path59"
         inkscape:connector-curvature="0"
         style="fill:#f4f4f4" /><path
         d="m 289.736,44.283 c 0,0 -2.851,-0.229 -5.463,2.208 -0.008,0.007 -0.188,0.161 -0.198,0.169 -0.283,-0.681 -0.677,-1.321 -1.33,-1.783 -0.546,-0.385 -1.28,-0.588 -2.039,-0.453 -0.759,0.135 -1.509,0.563 -2.265,1.274 -0.61,0.574 -5.783,5.281 -13.107,11.917 -7.325,6.637 -16.839,15.246 -26.271,23.78 -18.863,17.068 -37.396,33.829 -37.396,33.829 l -1.727,1.585 2.349,0 5.832,0 0.339,0 0.255,-0.255 c 0,0 18.607,-16.634 37.509,-33.546 9.451,-8.456 18.988,-16.976 26.299,-23.524 7.311,-6.548 12.329,-11.071 12.994,-11.691 2.119,-1.978 4.02,-1.699 4.02,-1.699 l 0.199,-1.811 z m -8.718,1.925 c 0.295,-0.053 0.462,-0.012 0.679,0.142 0.367,0.259 0.691,0.997 0.877,1.67 -1.468,1.331 -4.915,4.444 -11.267,10.135 -7.31,6.548 -16.849,15.069 -26.299,23.525 -18.774,16.796 -37.005,33.096 -37.254,33.319 l -3.142,0 c 1.593,-1.44 17.676,-15.991 35.669,-32.272 9.431,-8.535 18.946,-17.142 26.271,-23.78 7.325,-6.637 12.405,-11.259 13.135,-11.946 0.585,-0.55 1.036,-0.74 1.331,-0.793 z"
         id="path61"
         inkscape:connector-curvature="0"
         style="fill:#f4f4f4" /><path
         d="m 298.003,44.283 c 0,0 -2.822,-0.229 -5.436,2.208 -0.007,0.007 -0.188,0.161 -0.198,0.169 -0.283,-0.681 -0.677,-1.321 -1.331,-1.783 -0.545,-0.385 -1.307,-0.588 -2.066,-0.453 -0.759,0.135 -1.481,0.563 -2.236,1.274 -0.61,0.574 -5.811,5.281 -13.135,11.917 -7.324,6.637 -16.839,15.246 -26.271,23.78 -18.862,17.068 -37.368,33.829 -37.368,33.829 l -1.755,1.585 2.35,0 5.832,0 0.339,0 0.255,-0.255 c 0,0 18.607,-16.634 37.509,-33.546 9.451,-8.456 18.988,-16.976 26.299,-23.524 7.31,-6.549 12.358,-11.072 13.021,-11.691 2.12,-1.979 3.992,-1.699 3.992,-1.699 l 0.199,-1.811 z m -8.691,1.925 c 0.296,-0.052 0.464,-0.012 0.68,0.142 0.366,0.258 0.662,1.001 0.85,1.67 -1.476,1.337 -4.922,4.452 -11.267,10.135 -7.31,6.548 -16.82,15.069 -26.271,23.525 -18.773,16.796 -37.005,33.096 -37.254,33.319 l -3.142,0 c 1.593,-1.441 17.648,-15.991 35.641,-32.272 9.431,-8.535 18.946,-17.142 26.271,-23.78 7.085,-6.42 11.759,-10.639 12.739,-11.55 l 0.425,-0.396 c 0.582,-0.55 1.033,-0.74 1.328,-0.793 z"
         id="path63"
         inkscape:connector-curvature="0"
         style="fill:#f4f4f4" /><path
         d="m 306.297,44.283 c 0,0 -2.813,-0.223 -5.406,2.151 l -0.057,0.057 c -0.007,0.007 -0.188,0.161 -0.198,0.169 -0.283,-0.681 -0.677,-1.321 -1.331,-1.783 -0.545,-0.385 -1.278,-0.588 -2.038,-0.453 -0.759,0.135 -1.508,0.563 -2.264,1.274 -0.61,0.574 -5.783,5.281 -13.107,11.917 -7.325,6.637 -16.839,15.246 -26.271,23.78 -18.863,17.068 -37.396,33.829 -37.396,33.829 l -1.755,1.585 2.349,0 5.86,0 0.34,0 0.255,-0.255 c 0,0 18.607,-16.634 37.509,-33.546 9.451,-8.456 18.96,-16.976 26.271,-23.524 7.31,-6.549 12.358,-11.071 13.021,-11.691 2.12,-1.978 4.02,-1.699 4.02,-1.699 l 0.198,-1.811 z m -8.719,1.925 c 0.295,-0.053 0.463,-0.012 0.68,0.142 0.368,0.259 0.691,0.997 0.877,1.67 -1.468,1.331 -4.915,4.444 -11.266,10.135 -7.31,6.548 -16.848,15.069 -26.299,23.525 -18.773,16.796 -37.005,33.096 -37.254,33.319 l -3.142,0 c 1.593,-1.44 17.676,-15.991 35.669,-32.272 9.431,-8.535 18.945,-17.142 26.271,-23.78 7.325,-6.637 12.406,-11.259 13.135,-11.946 0.584,-0.55 1.034,-0.74 1.329,-0.793 z"
         id="path65"
         inkscape:connector-curvature="0"
         style="fill:#f4f4f4" /><path
         d="m 314.563,44.283 c 0,0 -2.824,-0.229 -5.435,2.208 -0.008,0.007 -0.188,0.161 -0.199,0.169 -0.283,-0.681 -0.677,-1.321 -1.33,-1.783 -0.545,-0.385 -1.308,-0.588 -2.066,-0.453 -0.76,0.135 -1.481,0.563 -2.236,1.274 -0.61,0.574 -5.811,5.281 -13.136,11.917 -7.324,6.637 -16.839,15.246 -26.27,23.78 -18.862,17.068 -37.396,33.829 -37.396,33.829 l -1.727,1.585 2.35,0 5.832,0 0.339,0 0.255,-0.255 c 0,0 18.607,-16.634 37.509,-33.546 9.451,-8.456 18.989,-16.976 26.298,-23.524 7.311,-6.549 12.33,-11.071 12.994,-11.691 2.119,-1.978 4.02,-1.699 4.02,-1.699 l 0.198,-1.811 z m -8.69,1.925 c 0.295,-0.052 0.463,-0.012 0.679,0.142 0.366,0.258 0.662,1.001 0.85,1.67 -1.474,1.336 -4.922,4.452 -11.267,10.135 -7.309,6.548 -16.819,15.069 -26.27,23.525 -18.773,16.796 -37.005,33.096 -37.254,33.319 l -3.17,0 c 1.593,-1.44 17.676,-15.991 35.669,-32.272 9.431,-8.535 18.946,-17.142 26.27,-23.78 7.325,-6.637 12.406,-11.259 13.135,-11.946 0.585,-0.55 1.062,-0.74 1.358,-0.793 z"
         id="path67"
         inkscape:connector-curvature="0"
         style="fill:#f4f4f4" /><path
         d="m 322.858,44.283 c 0,0 -2.853,-0.229 -5.465,2.208 -0.006,0.007 -0.188,0.161 -0.197,0.169 -0.283,-0.681 -0.678,-1.321 -1.331,-1.783 -0.544,-0.385 -1.279,-0.588 -2.038,-0.453 -0.759,0.135 -1.509,0.563 -2.265,1.274 -0.61,0.574 -5.782,5.281 -13.106,11.917 -7.324,6.637 -16.839,15.246 -26.271,23.78 -18.862,17.068 -37.396,33.829 -37.396,33.829 l -1.755,1.585 2.35,0 5.832,0 0.368,0 0.255,-0.255 c 0,0 18.607,-16.634 37.509,-33.546 9.451,-8.456 18.96,-16.976 26.271,-23.524 7.311,-6.549 12.358,-11.071 13.021,-11.691 2.12,-1.978 4.021,-1.699 4.021,-1.699 l 0.197,-1.811 z m -8.719,1.925 c 0.296,-0.052 0.464,-0.012 0.68,0.142 0.368,0.259 0.692,0.997 0.878,1.67 -1.469,1.331 -4.915,4.444 -11.268,10.135 -7.309,6.548 -16.848,15.069 -26.298,23.525 -18.774,16.796 -37.005,33.096 -37.255,33.319 l -3.142,0 c 1.593,-1.44 17.676,-15.991 35.669,-32.272 9.432,-8.535 18.945,-17.142 26.27,-23.78 7.086,-6.42 11.732,-10.639 12.711,-11.55 l 0.425,-0.396 c 0.585,-0.55 1.035,-0.74 1.33,-0.793 z"
         id="path69"
         inkscape:connector-curvature="0"
         style="fill:#f4f4f4" /><path
         d="m 331.039,44.283 c 0,0 -2.824,-0.229 -5.436,2.208 -0.007,0.007 -0.188,0.161 -0.198,0.169 -0.283,-0.681 -0.677,-1.321 -1.33,-1.783 -0.545,-0.385 -1.308,-0.588 -2.066,-0.453 -0.758,0.135 -1.481,0.563 -2.237,1.274 -0.609,0.574 -5.81,5.281 -13.135,11.917 -7.324,6.637 -16.838,15.246 -26.27,23.78 -18.862,17.068 -37.396,33.829 -37.396,33.829 l -1.727,1.585 2.35,0 5.832,0 0.34,0 0.254,-0.255 c 0,0 18.607,-16.634 37.51,-33.546 9.451,-8.456 18.989,-16.976 26.298,-23.524 7.312,-6.549 12.33,-11.071 12.994,-11.691 2.119,-1.978 4.02,-1.699 4.02,-1.699 l 0.197,-1.811 z m -8.69,1.925 c 0.295,-0.052 0.463,-0.012 0.679,0.142 0.366,0.258 0.662,1.001 0.85,1.67 -1.476,1.337 -4.923,4.452 -11.268,10.135 -7.308,6.548 -16.818,15.069 -26.269,23.525 -18.774,16.796 -37.005,33.096 -37.255,33.319 l -3.17,0 c 1.593,-1.44 17.676,-15.991 35.669,-32.272 9.432,-8.535 18.945,-17.142 26.269,-23.78 7.325,-6.637 12.407,-11.259 13.136,-11.946 0.585,-0.55 1.063,-0.74 1.359,-0.793 z"
         id="path71"
         inkscape:connector-curvature="0"
         style="fill:#f4f4f4" /><path
         d="m 339.334,44.283 c 0,0 -2.853,-0.229 -5.464,2.208 -0.007,0.007 -0.188,0.161 -0.198,0.169 -0.283,-0.681 -0.677,-1.321 -1.331,-1.783 -0.544,-0.385 -1.279,-0.588 -2.037,-0.453 -0.76,0.135 -1.51,0.563 -2.266,1.274 -0.609,0.574 -5.781,5.281 -13.106,11.917 -7.323,6.637 -16.838,15.246 -26.271,23.78 -18.862,17.068 -37.396,33.829 -37.396,33.829 l -1.755,1.585 2.35,0 5.832,0 0.368,0 0.255,-0.255 c 0,0 18.607,-16.634 37.508,-33.546 9.452,-8.456 18.96,-16.976 26.271,-23.524 7.311,-6.548 12.358,-11.072 13.022,-11.691 2.117,-1.978 4.019,-1.699 4.019,-1.699 l 0.199,-1.811 z m -8.719,1.925 c 0.295,-0.052 0.463,-0.012 0.679,0.142 0.368,0.259 0.692,0.997 0.878,1.67 -1.469,1.332 -4.916,4.444 -11.268,10.135 -7.309,6.548 -16.847,15.069 -26.299,23.525 -18.772,16.796 -37.004,33.096 -37.254,33.319 l -3.142,0 c 1.593,-1.44 17.676,-15.991 35.668,-32.272 9.432,-8.535 18.945,-17.142 26.271,-23.78 7.087,-6.42 11.732,-10.639 12.711,-11.55 l 0.425,-0.396 c 0.585,-0.55 1.035,-0.74 1.331,-0.793 z"
         id="path73"
         inkscape:connector-curvature="0"
         style="fill:#f4f4f4" /><path
         d="m 347.601,44.283 c 0,0 -2.822,-0.229 -5.437,2.208 -0.008,0.008 -0.214,0.188 -0.226,0.198 -0.283,-0.69 -0.669,-1.345 -1.331,-1.812 -0.544,-0.385 -1.279,-0.588 -2.038,-0.453 -0.759,0.135 -1.51,0.563 -2.265,1.274 -0.61,0.574 -5.782,5.281 -13.106,11.917 -7.323,6.637 -16.839,15.246 -26.271,23.78 -18.861,17.068 -37.395,33.829 -37.395,33.829 l -1.727,1.585 2.35,0 5.832,0 0.339,0 0.255,-0.255 c 0,0 18.607,-16.634 37.508,-33.546 9.452,-8.456 18.99,-16.976 26.299,-23.524 7.311,-6.549 12.331,-11.072 12.993,-11.691 2.121,-1.979 4.021,-1.699 4.021,-1.699 l 0.199,-1.811 z m -8.721,1.925 c 0.296,-0.053 0.493,-0.012 0.709,0.142 0.371,0.263 0.664,1.017 0.85,1.698 -1.481,1.342 -4.932,4.43 -11.268,10.106 -7.309,6.548 -16.848,15.069 -26.299,23.525 -18.773,16.796 -36.977,33.096 -37.226,33.319 l -3.17,0 c 1.593,-1.44 17.676,-15.991 35.668,-32.272 9.432,-8.535 18.945,-17.142 26.271,-23.78 7.325,-6.637 12.406,-11.259 13.135,-11.946 0.586,-0.549 1.035,-0.739 1.33,-0.792 z"
         id="path75"
         inkscape:connector-curvature="0"
         style="fill:#f4f4f4" /><path
         d="m 355.894,44.283 c 0,0 -2.851,-0.229 -5.463,2.208 -0.008,0.007 -0.188,0.161 -0.198,0.169 -0.283,-0.681 -0.678,-1.321 -1.33,-1.783 -0.546,-0.385 -1.279,-0.588 -2.039,-0.453 -0.759,0.135 -1.509,0.563 -2.265,1.274 -0.61,0.574 -5.782,5.281 -13.106,11.917 -7.325,6.637 -16.839,15.246 -26.271,23.78 -18.862,17.068 -37.396,33.829 -37.396,33.829 l -1.755,1.585 2.35,0 5.832,0 0.339,0 0.283,-0.255 c 0,0 18.607,-16.634 37.509,-33.546 9.451,-8.456 18.959,-16.976 26.271,-23.524 7.311,-6.549 12.358,-11.072 13.021,-11.691 2.12,-1.979 3.992,-1.699 3.992,-1.699 l 0.226,-1.811 z m -8.719,1.925 c 0.296,-0.052 0.464,-0.012 0.68,0.142 0.364,0.258 0.661,1.001 0.849,1.67 -1.476,1.337 -4.921,4.452 -11.267,10.135 -7.309,6.548 -16.819,15.069 -26.27,23.525 -18.773,16.796 -37.005,33.096 -37.255,33.319 l -3.142,0 c 1.593,-1.441 17.648,-15.991 35.641,-32.272 9.432,-8.535 18.974,-17.142 26.299,-23.78 7.085,-6.42 11.732,-10.639 12.71,-11.55 l 0.425,-0.396 c 0.586,-0.55 1.035,-0.74 1.33,-0.793 z"
         id="path77"
         inkscape:connector-curvature="0"
         style="fill:#f4f4f4" /><path
         d="m 364.16,44.283 c 0,0 -2.853,-0.229 -5.463,2.208 -0.008,0.007 -0.188,0.161 -0.198,0.169 -0.283,-0.681 -0.678,-1.321 -1.33,-1.783 -0.546,-0.385 -1.28,-0.588 -2.039,-0.453 -0.759,0.135 -1.509,0.563 -2.265,1.274 -0.61,0.575 -5.782,5.281 -13.107,11.917 -7.325,6.637 -16.838,15.246 -26.271,23.78 -18.862,17.068 -37.395,33.829 -37.395,33.829 l -1.727,1.585 2.35,0 5.832,0 0.34,0 0.254,-0.255 c 0,0 18.607,-16.634 37.508,-33.546 9.452,-8.456 18.99,-16.976 26.299,-23.524 7.312,-6.549 12.331,-11.071 12.994,-11.691 2.119,-1.978 4.02,-1.699 4.02,-1.699 l 0.198,-1.811 z m -8.719,1.925 c 0.295,-0.052 0.464,-0.012 0.679,0.142 0.368,0.259 0.692,0.997 0.878,1.67 -1.469,1.331 -4.915,4.444 -11.267,10.135 -7.309,6.548 -16.848,15.069 -26.299,23.525 -18.773,16.796 -37.004,33.096 -37.254,33.319 l -3.142,0 c 1.593,-1.44 17.676,-15.991 35.667,-32.272 9.434,-8.535 18.947,-17.142 26.271,-23.78 7.324,-6.637 12.406,-11.26 13.135,-11.946 0.587,-0.55 1.037,-0.74 1.332,-0.793 z"
         id="path79"
         inkscape:connector-curvature="0"
         style="fill:#f4f4f4" /><path
         d="m 372.427,44.283 c 0,0 -2.822,-0.229 -5.436,2.208 -0.007,0.007 -0.188,0.161 -0.198,0.169 -0.283,-0.681 -0.677,-1.321 -1.331,-1.783 -0.544,-0.385 -1.279,-0.588 -2.037,-0.453 -0.76,0.135 -1.51,0.563 -2.265,1.274 -0.611,0.574 -5.811,5.281 -13.136,11.917 -7.323,6.637 -16.839,15.246 -26.271,23.78 -18.861,17.068 -37.367,33.829 -37.367,33.829 l -1.755,1.585 2.35,0 5.831,0 0.339,0 0.255,-0.255 c 0,0 18.607,-16.634 37.509,-33.546 9.452,-8.456 18.988,-16.976 26.299,-23.524 7.311,-6.548 12.358,-11.072 13.022,-11.691 2.119,-1.979 3.991,-1.699 3.991,-1.699 l 0.2,-1.811 z m -8.692,1.925 c 0.296,-0.052 0.464,-0.012 0.68,0.142 0.366,0.258 0.662,1.001 0.85,1.67 -1.476,1.337 -4.923,4.452 -11.268,10.135 -7.309,6.548 -16.818,15.069 -26.271,23.525 -18.773,16.796 -37.005,33.096 -37.254,33.319 l -3.142,0 c 1.593,-1.441 17.649,-15.991 35.64,-32.272 9.433,-8.535 18.946,-17.142 26.271,-23.78 7.086,-6.42 11.761,-10.639 12.739,-11.55 l 0.425,-0.396 c 0.585,-0.55 1.035,-0.74 1.33,-0.793 z"
         id="path81"
         inkscape:connector-curvature="0"
         style="fill:#f4f4f4" /><path
         d="m 380.722,44.283 c 0,0 -2.853,-0.229 -5.465,2.208 -0.007,0.007 -0.188,0.161 -0.197,0.169 -0.283,-0.681 -0.678,-1.321 -1.331,-1.783 -0.544,-0.385 -1.279,-0.588 -2.038,-0.453 -0.76,0.135 -1.51,0.563 -2.265,1.274 -0.608,0.574 -5.782,5.281 -13.106,11.917 -7.323,6.637 -16.839,15.246 -26.271,23.78 -18.863,17.068 -37.396,33.829 -37.396,33.829 l -1.755,1.585 2.35,0 5.86,0 0.339,0 0.255,-0.255 c 0,0 18.607,-16.634 37.51,-33.546 9.45,-8.456 18.959,-16.976 26.271,-23.524 7.311,-6.549 12.357,-11.072 13.021,-11.691 2.118,-1.978 4.021,-1.699 4.021,-1.699 l 0.197,-1.811 z m -8.72,1.925 c 0.296,-0.053 0.463,-0.012 0.679,0.142 0.369,0.259 0.692,0.997 0.879,1.67 -1.47,1.332 -4.915,4.444 -11.268,10.135 -7.31,6.548 -16.848,15.069 -26.299,23.525 -18.774,16.796 -37.005,33.096 -37.254,33.319 l -3.142,0 c 1.593,-1.44 17.677,-15.991 35.669,-32.272 9.432,-8.535 18.945,-17.142 26.271,-23.78 7.325,-6.637 12.406,-11.259 13.136,-11.946 0.584,-0.55 1.034,-0.74 1.329,-0.793 z"
         id="path83"
         inkscape:connector-curvature="0"
         style="fill:#f4f4f4" /><path
         d="m 388.987,44.283 c 0,0 -2.822,-0.229 -5.436,2.208 -0.007,0.007 -0.188,0.161 -0.198,0.169 -0.283,-0.681 -0.678,-1.321 -1.33,-1.783 -0.545,-0.385 -1.308,-0.588 -2.066,-0.453 -0.76,0.135 -1.481,0.563 -2.237,1.274 -0.61,0.574 -5.81,5.281 -13.135,11.917 -7.322,6.637 -16.838,15.246 -26.271,23.78 -18.862,17.068 -37.396,33.829 -37.396,33.829 l -1.727,1.585 2.349,0 5.832,0 0.34,0 0.255,-0.255 c 0,0 18.607,-16.634 37.509,-33.546 9.451,-8.456 18.988,-16.976 26.3,-23.524 7.311,-6.549 12.329,-11.072 12.993,-11.691 2.119,-1.979 4.019,-1.699 4.019,-1.699 l 0.199,-1.811 z m -8.691,1.925 c 0.296,-0.053 0.464,-0.012 0.68,0.142 0.365,0.258 0.662,1.001 0.85,1.67 -1.476,1.337 -4.922,4.452 -11.268,10.135 -7.309,6.548 -16.818,15.069 -26.271,23.525 -18.771,16.796 -37.004,33.096 -37.254,33.319 l -3.171,0 c 1.594,-1.44 17.678,-15.991 35.67,-32.272 9.432,-8.535 18.945,-17.142 26.27,-23.78 7.325,-6.637 12.407,-11.259 13.135,-11.946 0.586,-0.55 1.064,-0.74 1.359,-0.793 z"
         id="path85"
         inkscape:connector-curvature="0"
         style="fill:#f4f4f4" /><path
         d="m 397.026,44.283 c 0,0 -2.824,-0.229 -5.435,2.208 -0.008,0.007 -0.188,0.161 -0.198,0.169 -0.283,-0.681 -0.678,-1.321 -1.33,-1.783 -0.546,-0.385 -1.309,-0.588 -2.067,-0.453 -0.758,0.135 -1.48,0.563 -2.236,1.274 -0.61,0.575 -5.811,5.281 -13.136,11.917 -7.324,6.637 -16.838,15.246 -26.271,23.78 -18.862,17.068 -37.367,33.829 -37.367,33.829 l -1.755,1.585 2.35,0 5.832,0 0.34,0 0.255,-0.255 c 0,0 18.607,-16.634 37.508,-33.546 9.452,-8.456 18.99,-16.976 26.299,-23.524 7.312,-6.549 12.331,-11.071 12.994,-11.691 2.119,-1.978 4.02,-1.699 4.02,-1.699 l 0.197,-1.811 z m -8.69,1.925 c 0.296,-0.052 0.464,-0.012 0.68,0.142 0.364,0.258 0.661,1.001 0.849,1.67 -1.476,1.337 -4.922,4.452 -11.267,10.135 -7.309,6.548 -16.819,15.069 -26.271,23.525 -18.773,16.796 -37.004,33.096 -37.254,33.319 l -3.171,0 c 1.594,-1.44 17.678,-15.991 35.669,-32.272 9.433,-8.535 18.946,-17.142 26.271,-23.78 7.325,-6.637 12.435,-11.26 13.163,-11.946 0.587,-0.55 1.035,-0.74 1.331,-0.793 z"
         id="path87"
         inkscape:connector-curvature="0"
         style="fill:#f4f4f4" /><path
         d="m 405.321,44.283 c 0,0 -2.853,-0.229 -5.463,2.208 -0.008,0.007 -0.188,0.161 -0.199,0.169 -0.282,-0.681 -0.678,-1.321 -1.33,-1.783 -0.545,-0.385 -1.279,-0.588 -2.038,-0.453 -0.759,0.135 -1.509,0.563 -2.265,1.274 -0.611,0.574 -5.782,5.281 -13.107,11.917 -7.325,6.637 -16.838,15.246 -26.271,23.78 -18.862,17.068 -37.396,33.829 -37.396,33.829 l -1.755,1.585 2.35,0 5.831,0 0.368,0 0.255,-0.255 c 0,0 18.607,-16.634 37.509,-33.546 9.452,-8.456 18.96,-16.976 26.271,-23.524 7.311,-6.548 12.358,-11.072 13.022,-11.691 2.117,-1.978 4.02,-1.699 4.02,-1.699 l 0.198,-1.811 z m -8.718,1.925 c 0.295,-0.052 0.464,-0.012 0.679,0.142 0.368,0.259 0.692,0.997 0.878,1.67 -1.469,1.332 -4.915,4.444 -11.267,10.135 -7.31,6.548 -16.848,15.069 -26.299,23.525 -18.774,16.796 -37.006,33.096 -37.255,33.319 l -3.142,0 c 1.594,-1.44 17.677,-15.991 35.668,-32.272 9.434,-8.535 18.946,-17.142 26.271,-23.78 7.087,-6.42 11.732,-10.639 12.712,-11.55 l 0.424,-0.396 c 0.584,-0.55 1.035,-0.74 1.331,-0.793 z"
         id="path89"
         inkscape:connector-curvature="0"
         style="fill:#f4f4f4" /><path
         d="m 413.587,44.283 c 0,0 -2.823,-0.229 -5.436,2.208 -0.006,0.007 -0.188,0.161 -0.197,0.169 -0.283,-0.681 -0.678,-1.321 -1.331,-1.783 -0.544,-0.385 -1.307,-0.588 -2.066,-0.453 -0.752,0.134 -1.487,0.575 -2.236,1.274 -0.007,0.006 -0.021,-0.007 -0.028,0 -0.621,0.584 -5.79,5.289 -13.106,11.917 -7.325,6.637 -16.839,15.246 -26.271,23.78 -18.862,17.068 -37.396,33.829 -37.396,33.829 l -1.728,1.585 2.35,0 5.832,0 0.339,0 0.255,-0.255 c 0,0 18.607,-16.634 37.51,-33.546 9.452,-8.456 18.988,-16.976 26.299,-23.524 7.311,-6.548 12.33,-11.072 12.993,-11.691 2.118,-1.978 4.021,-1.699 4.021,-1.699 l 0.196,-1.811 z m -8.719,1.925 c 0.296,-0.052 0.492,-0.012 0.708,0.142 0.371,0.263 0.665,1.017 0.849,1.698 -1.48,1.342 -4.931,4.43 -11.267,10.106 -7.31,6.548 -16.818,15.069 -26.271,23.525 -18.773,16.796 -37.005,33.096 -37.254,33.319 l -3.171,0 c 1.594,-1.44 17.677,-15.991 35.669,-32.272 9.432,-8.535 18.945,-17.142 26.271,-23.78 7.325,-6.637 12.406,-11.26 13.136,-11.946 0.585,-0.549 1.035,-0.739 1.33,-0.792 z"
         id="path91"
         inkscape:connector-curvature="0"
         style="fill:#f4f4f4" /><path
         d="m 421.882,44.283 c 0,0 -2.852,-0.229 -5.464,2.208 -0.007,0.007 -0.188,0.161 -0.198,0.169 -0.283,-0.681 -0.678,-1.321 -1.33,-1.783 -0.545,-0.385 -1.279,-0.588 -2.038,-0.453 -0.76,0.135 -1.51,0.563 -2.265,1.274 -0.61,0.574 -5.782,5.281 -13.106,11.917 -7.325,6.637 -16.839,15.246 -26.271,23.78 -18.863,17.068 -37.396,33.829 -37.396,33.829 l -1.756,1.585 2.35,0 5.832,0 0.368,0 0.255,-0.255 c 0,0 18.607,-16.634 37.51,-33.546 9.45,-8.456 18.959,-16.976 26.271,-23.524 7.311,-6.549 12.357,-11.072 13.021,-11.691 2.118,-1.978 4.021,-1.699 4.021,-1.699 l 0.196,-1.811 z m -8.719,1.925 c 0.296,-0.052 0.463,-0.012 0.679,0.142 0.367,0.258 0.662,1.001 0.85,1.67 -1.476,1.337 -4.922,4.452 -11.267,10.135 -7.31,6.548 -16.819,15.069 -26.271,23.525 -18.773,16.796 -37.004,33.096 -37.253,33.319 l -3.144,0 c 1.595,-1.44 17.678,-15.991 35.67,-32.272 9.432,-8.535 18.945,-17.142 26.271,-23.78 7.086,-6.42 11.731,-10.639 12.71,-11.55 l 0.426,-0.396 c 0.584,-0.55 1.034,-0.74 1.329,-0.793 z"
         id="path93"
         inkscape:connector-curvature="0"
         style="fill:#f4f4f4" /><path
         d="m 430.148,44.283 c 0,0 -2.824,-0.229 -5.436,2.208 -0.009,0.008 -0.214,0.188 -0.227,0.198 -0.283,-0.691 -0.669,-1.344 -1.33,-1.812 -0.546,-0.385 -1.28,-0.588 -2.038,-0.453 -0.76,0.135 -1.51,0.563 -2.266,1.274 -0.609,0.574 -5.782,5.281 -13.106,11.917 -7.325,6.637 -16.838,15.246 -26.271,23.78 -18.862,17.068 -37.396,33.829 -37.396,33.829 l -1.727,1.585 2.35,0 5.832,0 0.34,0 0.255,-0.255 c 0,0 18.607,-16.634 37.509,-33.546 9.451,-8.456 18.987,-16.976 26.298,-23.524 7.312,-6.549 12.331,-11.072 12.995,-11.691 2.117,-1.978 4.019,-1.699 4.019,-1.699 l 0.199,-1.811 z m -8.719,1.925 c 0.295,-0.052 0.464,-0.012 0.68,0.142 0.373,0.263 0.695,1.017 0.878,1.698 -1.481,1.342 -4.931,4.43 -11.268,10.106 -7.309,6.548 -16.847,15.069 -26.299,23.525 -18.774,16.796 -37.005,33.096 -37.255,33.319 l -3.142,0 c 1.595,-1.44 17.678,-15.991 35.669,-32.272 9.433,-8.535 18.946,-17.142 26.271,-23.78 7.325,-6.637 12.407,-11.259 13.136,-11.946 0.586,-0.549 1.034,-0.739 1.33,-0.792 z"
         id="path95"
         inkscape:connector-curvature="0"
         style="fill:#f4f4f4" /><path
         d="m 438.414,44.283 c 0,0 -2.822,-0.229 -5.435,2.208 -0.007,0.007 -0.188,0.161 -0.198,0.169 -0.283,-0.681 -0.679,-1.321 -1.331,-1.783 -0.545,-0.385 -1.279,-0.588 -2.039,-0.453 -0.758,0.135 -1.508,0.563 -2.264,1.274 -0.611,0.574 -5.811,5.281 -13.136,11.917 -7.324,6.637 -16.838,15.246 -26.271,23.78 -18.862,17.068 -37.367,33.829 -37.367,33.829 l -1.755,1.585 2.35,0 5.831,0 0.34,0 0.283,-0.255 c 0,0 18.579,-16.634 37.48,-33.546 9.452,-8.456 18.988,-16.976 26.299,-23.524 7.311,-6.548 12.359,-11.072 13.022,-11.691 2.119,-1.979 3.991,-1.699 3.991,-1.699 l 0.2,-1.811 z m -8.69,1.925 c 0.295,-0.053 0.464,-0.012 0.68,0.142 0.364,0.258 0.661,1.001 0.85,1.67 -1.477,1.337 -4.923,4.452 -11.268,10.135 -7.309,6.548 -16.818,15.069 -26.271,23.525 -18.772,16.796 -37.005,33.096 -37.255,33.319 l -3.142,0 c 1.594,-1.441 17.648,-15.991 35.641,-32.272 9.433,-8.535 18.945,-17.142 26.271,-23.78 7.325,-6.637 12.434,-11.259 13.163,-11.946 0.586,-0.55 1.035,-0.74 1.331,-0.793 z"
         id="path97"
         inkscape:connector-curvature="0"
         style="fill:#f4f4f4" /><path
         d="m 446.708,44.283 c 0,0 -2.85,-0.229 -5.463,2.208 -0.008,0.007 -0.188,0.161 -0.199,0.169 -0.281,-0.681 -0.677,-1.321 -1.329,-1.783 -0.546,-0.385 -1.279,-0.588 -2.039,-0.453 -0.759,0.135 -1.509,0.563 -2.264,1.274 -0.611,0.574 -5.782,5.281 -13.107,11.917 -7.325,6.637 -16.839,15.246 -26.271,23.78 -18.862,17.068 -37.396,33.829 -37.396,33.829 l -1.754,1.585 2.378,0 5.831,0 0.339,0 0.255,-0.255 c 0,0 18.608,-16.634 37.51,-33.546 9.451,-8.456 18.959,-16.976 26.271,-23.524 7.311,-6.549 12.358,-11.072 13.021,-11.691 2.12,-1.979 4.021,-1.699 4.021,-1.699 l 0.196,-1.811 z m -8.719,1.925 c 0.296,-0.052 0.464,-0.012 0.68,0.142 0.368,0.259 0.691,0.997 0.877,1.67 -1.468,1.332 -4.914,4.444 -11.266,10.135 -7.311,6.548 -16.848,15.069 -26.299,23.525 -18.774,16.796 -37.005,33.096 -37.255,33.319 l -3.143,0 c 1.594,-1.44 17.677,-15.991 35.67,-32.272 9.432,-8.535 18.945,-17.142 26.271,-23.78 7.325,-6.637 12.405,-11.259 13.135,-11.946 0.586,-0.55 1.035,-0.74 1.33,-0.793 z"
         id="path99"
         inkscape:connector-curvature="0"
         style="fill:#f4f4f4" /><path
         d="m 454.975,44.283 c 0,0 -2.823,-0.229 -5.436,2.208 -0.007,0.007 -0.188,0.161 -0.198,0.169 -0.283,-0.681 -0.677,-1.321 -1.33,-1.783 -0.545,-0.385 -1.307,-0.588 -2.066,-0.453 -0.759,0.135 -1.481,0.563 -2.236,1.274 -0.61,0.575 -5.811,5.281 -13.136,11.917 -7.324,6.637 -16.838,15.246 -26.271,23.78 -18.861,17.068 -37.367,33.829 -37.367,33.829 l -1.756,1.585 2.351,0 5.832,0 0.339,0 0.255,-0.255 c 0,0 18.608,-16.634 37.509,-33.546 9.452,-8.456 18.99,-16.976 26.299,-23.524 7.312,-6.549 12.33,-11.071 12.994,-11.691 2.119,-1.978 4.02,-1.699 4.02,-1.699 l 0.197,-1.811 z m -8.691,1.925 c 0.296,-0.052 0.463,-0.012 0.679,0.142 0.367,0.258 0.662,1.001 0.85,1.67 -1.476,1.337 -4.922,4.452 -11.267,10.135 -7.31,6.548 -16.819,15.069 -26.271,23.525 -18.772,16.796 -37.004,33.096 -37.253,33.319 l -3.171,0 c 1.592,-1.44 17.677,-15.991 35.668,-32.272 9.433,-8.535 18.946,-17.142 26.271,-23.78 7.324,-6.637 12.435,-11.26 13.164,-11.946 0.585,-0.55 1.035,-0.74 1.33,-0.793 z"
         id="path101"
         inkscape:connector-curvature="0"
         style="fill:#f4f4f4" /><path
         d="m 463.185,44.283 c 0,0 -2.853,-0.229 -5.464,2.208 -0.007,0.007 -0.188,0.161 -0.198,0.169 -0.282,-0.681 -0.678,-1.321 -1.33,-1.783 -0.545,-0.385 -1.279,-0.588 -2.039,-0.453 -0.758,0.135 -1.508,0.563 -2.264,1.274 -0.611,0.574 -5.782,5.281 -13.107,11.917 -7.325,6.637 -16.839,15.246 -26.271,23.78 -18.862,17.068 -37.396,33.829 -37.396,33.829 l -1.755,1.585 2.378,0 5.831,0 0.339,0 0.255,-0.255 c 0,0 18.608,-16.634 37.51,-33.546 9.452,-8.456 18.988,-16.976 26.299,-23.524 7.311,-6.548 12.33,-11.072 12.993,-11.691 2.119,-1.978 4.021,-1.699 4.021,-1.699 l 0.198,-1.811 z m -8.719,1.925 c 0.295,-0.052 0.464,-0.012 0.68,0.142 0.367,0.259 0.691,0.997 0.877,1.67 -1.469,1.332 -4.915,4.444 -11.267,10.135 -7.31,6.548 -16.848,15.069 -26.299,23.525 -18.774,16.796 -37.005,33.096 -37.255,33.319 l -3.143,0 c 1.595,-1.44 17.677,-15.991 35.67,-32.272 9.432,-8.535 18.945,-17.142 26.27,-23.78 7.325,-6.637 12.406,-11.259 13.136,-11.946 0.585,-0.55 1.035,-0.74 1.331,-0.793 z"
         id="path103"
         inkscape:connector-curvature="0"
         style="fill:#f4f4f4" /><path
         d="m 471.45,44.283 c 0,0 -2.823,-0.229 -5.436,2.208 -0.007,0.007 -0.188,0.161 -0.197,0.169 -0.283,-0.681 -0.678,-1.321 -1.331,-1.783 -0.544,-0.385 -1.307,-0.588 -2.066,-0.453 -0.759,0.135 -1.481,0.563 -2.236,1.274 -0.61,0.575 -5.811,5.281 -13.135,11.917 -7.325,6.637 -16.839,15.246 -26.271,23.78 -18.862,17.068 -37.367,33.829 -37.367,33.829 l -1.756,1.585 2.35,0 5.832,0 0.339,0 0.255,-0.255 c 0,0 18.607,-16.634 37.51,-33.546 9.451,-8.456 18.988,-16.976 26.299,-23.524 7.311,-6.548 12.357,-11.072 13.021,-11.691 2.118,-1.978 3.992,-1.699 3.992,-1.699 l 0.197,-1.811 z m -8.69,1.925 c 0.296,-0.052 0.463,-0.012 0.679,0.142 0.365,0.258 0.662,1.001 0.85,1.67 -1.475,1.337 -4.922,4.452 -11.266,10.135 -7.311,6.548 -16.82,15.069 -26.271,23.525 -18.773,16.796 -37.005,33.096 -37.254,33.319 l -3.171,0 c 1.592,-1.44 17.677,-15.991 35.669,-32.272 9.432,-8.535 18.945,-17.142 26.271,-23.78 7.325,-6.637 12.435,-11.26 13.164,-11.946 0.584,-0.55 1.034,-0.74 1.329,-0.793 z"
         id="path105"
         inkscape:connector-curvature="0"
         style="fill:#f4f4f4" /><path
         d="m 479.745,44.283 c 0,0 -2.853,-0.229 -5.464,2.208 -0.007,0.007 -0.188,0.161 -0.198,0.169 -0.283,-0.681 -0.678,-1.321 -1.33,-1.783 -0.545,-0.385 -1.279,-0.588 -2.038,-0.453 -0.76,0.135 -1.51,0.563 -2.266,1.274 -0.609,0.574 -5.781,5.281 -13.106,11.917 -7.324,6.637 -16.838,15.246 -26.271,23.78 -18.862,17.068 -37.396,33.829 -37.396,33.829 l -1.755,1.585 2.35,0 5.86,0 0.34,0 0.255,-0.255 c 0,0 18.607,-16.634 37.509,-33.546 9.451,-8.456 18.96,-16.976 26.271,-23.524 7.312,-6.549 12.358,-11.072 13.022,-11.691 2.117,-1.978 4.021,-1.699 4.021,-1.699 l 0.196,-1.811 z m -8.719,1.925 c 0.295,-0.052 0.463,-0.012 0.679,0.142 0.368,0.259 0.692,0.997 0.878,1.67 -1.469,1.332 -4.915,4.444 -11.268,10.135 -7.309,6.548 -16.847,15.069 -26.299,23.525 -18.773,16.796 -37.004,33.096 -37.254,33.319 l -3.142,0 c 1.594,-1.44 17.677,-15.991 35.669,-32.272 9.432,-8.535 18.945,-17.142 26.27,-23.78 7.087,-6.42 11.732,-10.639 12.711,-11.55 l 0.426,-0.396 c 0.585,-0.55 1.034,-0.74 1.33,-0.793 z"
         id="path107"
         inkscape:connector-curvature="0"
         style="fill:#f4f4f4" /><path
         d="m 488.012,44.283 c 0,0 -2.824,-0.229 -5.436,2.208 -0.007,0.007 -0.188,0.161 -0.198,0.169 -0.283,-0.681 -0.678,-1.321 -1.33,-1.783 -0.546,-0.385 -1.309,-0.588 -2.066,-0.453 -0.76,0.135 -1.481,0.563 -2.237,1.274 -0.609,0.575 -5.811,5.281 -13.135,11.917 -7.325,6.637 -16.839,15.246 -26.271,23.78 -18.862,17.068 -37.396,33.829 -37.396,33.829 l -1.727,1.585 2.35,0 5.832,0 0.34,0 0.254,-0.255 c 0,0 18.607,-16.634 37.51,-33.546 9.451,-8.456 18.987,-16.976 26.298,-23.524 7.311,-6.548 12.331,-11.072 12.995,-11.691 2.117,-1.978 4.019,-1.699 4.019,-1.699 l 0.198,-1.811 z m -8.692,1.925 c 0.295,-0.052 0.464,-0.012 0.68,0.142 0.364,0.258 0.661,1.001 0.85,1.67 -1.477,1.337 -4.923,4.452 -11.268,10.135 -7.309,6.548 -16.818,15.069 -26.271,23.525 -18.774,16.796 -37.005,33.096 -37.255,33.319 l -3.17,0 c 1.593,-1.44 17.677,-15.991 35.669,-32.272 9.433,-8.535 18.945,-17.142 26.271,-23.78 7.325,-6.637 12.407,-11.26 13.136,-11.946 0.585,-0.55 1.062,-0.74 1.358,-0.793 z"
         id="path109"
         inkscape:connector-curvature="0"
         style="fill:#f4f4f4" /><path
         d="m 496.306,44.283 c 0,0 -2.852,-0.229 -5.464,2.208 -0.007,0.007 -0.188,0.161 -0.197,0.169 -0.283,-0.681 -0.679,-1.321 -1.331,-1.783 -0.545,-0.385 -1.279,-0.588 -2.039,-0.453 -0.758,0.135 -1.508,0.563 -2.264,1.274 -0.611,0.575 -5.782,5.281 -13.107,11.917 -7.325,6.637 -16.839,15.246 -26.271,23.78 -18.862,17.068 -37.396,33.829 -37.396,33.829 l -1.755,1.585 2.35,0 5.831,0 0.367,0 0.256,-0.255 c 0,0 18.607,-16.634 37.509,-33.546 9.452,-8.456 18.96,-16.976 26.271,-23.524 7.311,-6.548 12.359,-11.071 13.021,-11.691 2.12,-1.978 4.021,-1.699 4.021,-1.699 l 0.198,-1.811 z m -8.72,1.925 c 0.296,-0.052 0.465,-0.012 0.681,0.142 0.367,0.259 0.691,0.997 0.877,1.67 -1.469,1.331 -4.915,4.444 -11.267,10.135 -7.309,6.548 -16.847,15.069 -26.299,23.525 -18.774,16.796 -37.005,33.096 -37.255,33.319 l -3.143,0 c 1.594,-1.44 17.678,-15.991 35.67,-32.272 9.432,-8.535 18.945,-17.142 26.271,-23.78 7.325,-6.637 12.405,-11.26 13.135,-11.946 0.586,-0.55 1.035,-0.74 1.33,-0.793 z"
         id="path111"
         inkscape:connector-curvature="0"
         style="fill:#f4f4f4" /><path
         d="m 504.571,44.283 c 0,0 -2.823,-0.229 -5.435,2.208 -0.01,0.008 -0.214,0.188 -0.228,0.198 -0.282,-0.691 -0.668,-1.344 -1.329,-1.812 -0.546,-0.385 -1.279,-0.588 -2.039,-0.453 -0.759,0.135 -1.509,0.563 -2.265,1.274 -0.61,0.574 -5.782,5.281 -13.107,11.917 -7.324,6.637 -16.838,15.246 -26.27,23.78 -18.862,17.068 -37.396,33.829 -37.396,33.829 l -1.727,1.585 2.35,0 5.832,0 0.339,0 0.255,-0.255 c 0,0 18.608,-16.634 37.51,-33.546 9.451,-8.456 18.987,-16.976 26.299,-23.524 7.311,-6.549 12.329,-11.072 12.993,-11.691 2.118,-1.978 4.021,-1.699 4.021,-1.699 l 0.197,-1.811 z m -8.718,1.925 c 0.296,-0.052 0.464,-0.012 0.68,0.142 0.373,0.263 0.695,1.017 0.877,1.698 -1.48,1.342 -4.931,4.43 -11.266,10.106 -7.31,6.548 -16.849,15.069 -26.299,23.525 -18.774,16.796 -37.005,33.096 -37.255,33.319 l -3.143,0 c 1.594,-1.44 17.677,-15.991 35.67,-32.272 9.432,-8.535 18.945,-17.142 26.271,-23.78 7.324,-6.637 12.405,-11.259 13.135,-11.946 0.585,-0.549 1.035,-0.739 1.33,-0.792 z"
         id="path113"
         inkscape:connector-curvature="0"
         style="fill:#f4f4f4" /><path
         d="m 512.838,44.283 c 0,0 -2.824,-0.229 -5.435,2.208 -0.008,0.007 -0.188,0.161 -0.199,0.169 -0.283,-0.681 -0.677,-1.321 -1.33,-1.783 -0.545,-0.385 -1.279,-0.588 -2.038,-0.453 -0.76,0.135 -1.51,0.563 -2.266,1.274 -0.609,0.575 -5.81,5.281 -13.135,11.917 -7.325,6.637 -16.838,15.246 -26.271,23.78 -18.862,17.068 -37.367,33.829 -37.367,33.829 l -1.756,1.585 2.351,0 5.832,0 0.339,0 0.283,-0.255 c 0,0 18.58,-16.634 37.48,-33.546 9.452,-8.456 18.988,-16.976 26.299,-23.524 7.311,-6.548 12.358,-11.072 13.022,-11.691 2.117,-1.978 3.991,-1.699 3.991,-1.699 l 0.2,-1.811 z m -8.691,1.925 c 0.295,-0.052 0.463,-0.012 0.679,0.142 0.364,0.258 0.662,1.001 0.85,1.67 -1.476,1.337 -4.923,4.452 -11.267,10.135 -7.31,6.548 -16.819,15.069 -26.271,23.525 -18.773,16.796 -37.004,33.096 -37.254,33.319 l -3.142,0 c 1.594,-1.441 17.648,-15.991 35.64,-32.272 9.433,-8.535 18.945,-17.142 26.271,-23.78 7.325,-6.637 12.436,-11.26 13.164,-11.946 0.585,-0.55 1.035,-0.74 1.33,-0.793 z"
         id="path115"
         inkscape:connector-curvature="0"
         style="fill:#f4f4f4" /><path
         d="m 521.133,44.283 c 0,0 -2.853,-0.229 -5.464,2.208 -0.007,0.007 -0.188,0.161 -0.198,0.169 -0.283,-0.681 -0.677,-1.321 -1.331,-1.783 -0.544,-0.385 -1.279,-0.588 -2.037,-0.453 -0.76,0.135 -1.51,0.563 -2.266,1.274 -0.609,0.574 -5.781,5.281 -13.106,11.917 -7.325,6.637 -16.839,15.246 -26.271,23.78 -18.863,17.068 -37.396,33.829 -37.396,33.829 l -1.756,1.585 2.378,0 5.831,0 0.341,0 0.254,-0.255 c 0,0 18.607,-16.634 37.51,-33.546 9.451,-8.456 18.96,-16.976 26.271,-23.524 7.311,-6.548 12.358,-11.072 13.022,-11.691 2.117,-1.978 4.02,-1.699 4.02,-1.699 l 0.198,-1.811 z m -8.72,1.925 c 0.296,-0.052 0.464,-0.012 0.68,0.142 0.368,0.259 0.692,0.997 0.878,1.67 -1.469,1.332 -4.915,4.444 -11.268,10.135 -7.309,6.548 -16.847,15.069 -26.299,23.525 -18.774,16.796 -37.005,33.096 -37.254,33.319 l -3.142,0 c 1.594,-1.44 17.676,-15.991 35.668,-32.272 9.432,-8.535 18.945,-17.142 26.271,-23.78 7.325,-6.637 12.406,-11.259 13.136,-11.946 0.585,-0.55 1.035,-0.74 1.33,-0.793 z"
         id="path117"
         inkscape:connector-curvature="0"
         style="fill:#f4f4f4" /><path
         d="m 529.483,44.283 c 0,0 -2.823,-0.229 -5.436,2.208 -0.009,0.008 -0.214,0.188 -0.226,0.198 -0.283,-0.69 -0.67,-1.345 -1.331,-1.812 -0.545,-0.385 -1.279,-0.588 -2.039,-0.453 -0.758,0.135 -1.508,0.563 -2.264,1.274 -0.609,0.574 -5.782,5.281 -13.107,11.917 -7.323,6.637 -16.839,15.246 -26.271,23.78 -18.862,17.068 -37.396,33.829 -37.396,33.829 l -1.727,1.585 2.35,0 5.831,0 0.341,0 0.254,-0.255 c 0,0 18.607,-16.634 37.509,-33.546 9.452,-8.456 18.99,-16.976 26.299,-23.524 7.311,-6.549 12.331,-11.071 12.994,-11.691 2.12,-1.978 4.02,-1.699 4.02,-1.699 l 0.199,-1.811 z m -8.718,1.925 c 0.295,-0.053 0.492,-0.012 0.708,0.142 0.371,0.263 0.665,1.017 0.849,1.698 -1.48,1.342 -4.932,4.43 -11.267,10.106 -7.309,6.548 -16.848,15.069 -26.299,23.525 -18.774,16.796 -36.977,33.096 -37.227,33.319 l -3.17,0 c 1.595,-1.44 17.677,-15.991 35.669,-32.272 9.432,-8.535 18.945,-17.142 26.271,-23.78 7.325,-6.637 12.406,-11.259 13.135,-11.946 0.586,-0.549 1.035,-0.739 1.331,-0.792 z"
         id="path119"
         inkscape:connector-curvature="0"
         style="fill:#f4f4f4" /><path
         d="m 537.749,44.283 c 0,0 -2.823,-0.229 -5.435,2.208 -0.007,0.007 -0.188,0.161 -0.198,0.169 -0.283,-0.681 -0.678,-1.321 -1.331,-1.783 -0.544,-0.385 -1.278,-0.588 -2.038,-0.453 -0.758,0.135 -1.51,0.563 -2.264,1.274 -0.611,0.574 -5.811,5.281 -13.136,11.917 -7.325,6.637 -16.811,15.246 -26.242,23.78 -18.862,17.068 -37.396,33.829 -37.396,33.829 l -1.756,1.585 2.35,0 5.832,0 0.339,0 0.283,-0.255 c 0,0 18.608,-16.634 37.51,-33.546 9.452,-8.456 18.962,-16.976 26.271,-23.524 7.311,-6.549 12.358,-11.071 13.021,-11.691 2.12,-1.978 3.992,-1.699 3.992,-1.699 l 0.198,-1.811 z m -8.69,1.925 c 0.296,-0.052 0.464,-0.012 0.68,0.142 0.364,0.258 0.661,1.001 0.849,1.67 -1.475,1.337 -4.921,4.452 -11.266,10.135 -7.31,6.548 -16.82,15.069 -26.271,23.525 -18.774,16.796 -37.006,33.096 -37.255,33.319 l -3.143,0 c 1.594,-1.441 17.649,-15.991 35.641,-32.272 9.433,-8.535 18.946,-17.142 26.271,-23.78 7.324,-6.637 12.434,-11.259 13.163,-11.946 l 0.113,-0.085 c 0.511,-0.445 0.949,-0.66 1.218,-0.708 z"
         id="path121"
         inkscape:connector-curvature="0"
         style="fill:#f4f4f4" /><path
         d="m 121.696,44.17 c -1.52,-0.02 -3.448,0.028 -5.549,0.028 l -80.34,0 c -0.653,0 -1.337,0.009 -2.01,0.396 -0.672,0.387 -1.104,1.225 -1.104,2.18 0,-0.031 -0.026,0.424 -0.057,1.047 -0.03,0.623 -0.084,1.484 -0.142,2.576 -0.115,2.184 -0.256,5.24 -0.453,8.861 -0.395,7.241 -0.946,16.779 -1.472,26.299 -0.525,9.52 -1.05,19.009 -1.443,26.186 -0.198,3.588 -0.338,6.611 -0.453,8.748 -0.058,1.068 -0.11,1.922 -0.142,2.519 -0.016,0.299 -0.021,0.511 -0.029,0.68 -0.007,0.169 -0.028,0.219 -0.028,0.34 0,0.308 -0.106,1.116 0.142,1.953 0.124,0.418 0.357,0.859 0.792,1.189 0.435,0.33 1.028,0.51 1.67,0.51 l 526.315,0 c 2.113,0 3.117,-0.104 3.879,-0.708 0.38,-0.302 0.596,-0.82 0.622,-1.161 0.028,-0.34 -0.028,-0.546 -0.028,-0.623 0,-0.158 0.012,-0.166 0,-0.34 -0.008,-0.174 -0.037,-0.425 -0.056,-0.736 -0.04,-0.623 -0.098,-1.514 -0.171,-2.633 -0.143,-2.239 -0.348,-5.376 -0.594,-9.144 -0.492,-7.535 -1.125,-17.535 -1.783,-27.488 -1.313,-19.907 -2.633,-39.717 -2.633,-39.717 l -0.057,-0.85 -0.85,0 -9.682,0 -0.113,0 c -0.172,-0.013 -2.82,-0.151 -5.35,2.208 -0.008,0.007 -0.188,0.161 -0.199,0.169 -0.283,-0.681 -0.677,-1.321 -1.33,-1.783 -0.545,-0.385 -1.279,-0.588 -2.038,-0.453 -0.759,0.135 -1.51,0.563 -2.265,1.274 -0.61,0.575 -5.782,5.281 -13.107,11.917 -7.324,6.637 -16.838,15.246 -26.27,23.78 -18.862,17.068 -37.396,33.829 -37.396,33.829 l -1.727,1.585 2.349,0 5.832,0 0.34,0 0.255,-0.255 c 0,0 18.608,-16.634 37.51,-33.546 9.451,-8.456 18.989,-16.976 26.299,-23.524 7.311,-6.549 12.329,-11.071 12.993,-11.691 2.119,-1.978 4.021,-1.699 4.021,-1.699 l 0.057,0 0.027,0 8.946,0 c 0.055,0.82 1.29,19.415 2.575,38.896 0.656,9.953 1.292,19.925 1.783,27.459 0.246,3.767 0.452,6.906 0.595,9.144 0.073,1.118 0.131,2.013 0.17,2.633 0.02,0.31 0.048,0.566 0.057,0.736 0.011,0.169 0,0.338 0,0.227 0,0.223 0.022,0.299 0.028,0.368 -0.045,0.018 -0.76,0.312 -2.689,0.312 l -526.313,0 c -0.357,0 -0.498,-0.09 -0.566,-0.142 -0.068,-0.052 -0.123,-0.095 -0.169,-0.255 -0.095,-0.32 -0.057,-0.91 -0.057,-1.444 0,0.068 0.021,-0.062 0.028,-0.227 0.008,-0.165 0.013,-0.41 0.029,-0.708 0.03,-0.595 0.055,-1.452 0.113,-2.52 0.115,-2.135 0.284,-5.131 0.481,-8.719 0.394,-7.176 0.918,-16.694 1.443,-26.214 0.526,-9.52 1.05,-19.057 1.444,-26.299 0.197,-3.621 0.367,-6.646 0.481,-8.832 0.057,-1.093 0.11,-1.978 0.142,-2.605 0.031,-0.626 0.057,-0.93 0.057,-1.132 0,-0.557 0.066,-0.547 0.198,-0.623 0.131,-0.076 0.535,-0.142 1.104,-0.142 l 80.34,0 c 2.118,0 4.073,-0.048 5.549,-0.028 0.737,0.009 1.362,0.044 1.812,0.084 0.45,0.041 0.773,0.174 0.623,0.085 l 0.906,-1.557 c -0.486,-0.286 -0.851,-0.292 -1.387,-0.339 -0.537,-0.044 -1.195,-0.07 -1.955,-0.081 z m 415.629,2.038 c 0.295,-0.052 0.463,-0.012 0.679,0.142 0.368,0.259 0.692,0.997 0.878,1.67 -1.469,1.331 -4.915,4.444 -11.268,10.135 -7.309,6.548 -16.847,15.069 -26.298,23.525 -18.773,16.796 -37.005,33.096 -37.254,33.319 l -3.143,0 c 1.594,-1.44 17.677,-15.991 35.669,-32.272 9.432,-8.535 18.945,-17.142 26.27,-23.78 7.325,-6.637 12.407,-11.26 13.137,-11.946 0.585,-0.55 1.035,-0.74 1.33,-0.793 z"
         id="path123"
         inkscape:connector-curvature="0"
         style="fill:#f4f4f4" /><path
         d="m 28.164,130.597 0,0.906 0,46.03 0,0.906 0.906,0 531.695,0 0.906,0 0,-0.906 0,-46.03 0,-0.906 -0.906,0 -531.695,0 -0.906,0 z m 1.812,1.811 529.883,0 0,44.219 -529.883,0 0,-44.219 z"
         id="rect125"
         inkscape:connector-curvature="0"
         style="fill:#f4f4f4" /><path
         d="m 28.164,179.005 0,0.905 0,132.146 0,0.906 0.906,0 531.695,0 0.906,0 0,-0.906 0,-132.146 0,-0.905 -0.906,0 -531.695,0 -0.906,0 z m 1.812,1.811 529.883,0 0,130.334 -529.883,0 0,-130.334 z"
         id="rect127"
         inkscape:connector-curvature="0"
         style="fill:#f4f4f4" /><path
         d="m 29.353,126.605 0,4.727 1.812,0 0,-4.727 -1.812,0 z"
         id="line129"
         inkscape:connector-curvature="0"
         style="fill:#f4f4f4" /><path
         d="m 29.353,177.392 0,2.519 1.812,0 0,-2.519 -1.812,0 z"
         id="line131"
         inkscape:connector-curvature="0"
         style="fill:#f4f4f4" /><path
         d="m 558.585,126.69 0,4.728 1.812,0 0,-4.728 -1.812,0 z"
         id="line133"
         inkscape:connector-curvature="0"
         style="fill:#f4f4f4" /><path
         d="m 558.585,177.476 0,2.521 1.812,0 0,-2.521 -1.812,0 z"
         id="line135"
         inkscape:connector-curvature="0"
         style="fill:#f4f4f4" /><path
         d="m 441.698,140.363 -0.255,0.283 -11.975,11.975 -1.558,1.557 2.181,0 105.449,0 0.396,0 0.283,-0.311 10.813,-11.975 1.359,-1.529 -2.038,0 -104.258,0 -0.397,0 z m 0.764,1.812 101.883,0 -9.228,10.191 -102.846,0 10.191,-10.191 z"
         id="polygon137"
         inkscape:connector-curvature="0"
         style="fill:#f4f4f4" /><path
         d="m 44.385,189.733 c -0.665,0 -1.217,0.554 -1.217,1.218 l 0,20.1 c 0,0.662 0.555,1.217 1.217,1.217 l 20.099,0 c 0.665,0 1.217,-0.553 1.217,-1.217 l 0,-20.1 c 0,-0.663 -0.555,-1.218 -1.217,-1.218 l -20.099,0 z m 0.594,1.812 18.91,0 0,18.911 -18.91,0 0,-18.911 z"
         id="path139"
         inkscape:connector-curvature="0"
         style="fill:#f4f4f4" /><path
         d="m 66.069,189.733 c -0.664,0 -1.217,0.554 -1.217,1.218 l 0,20.1 c 0,0.662 0.555,1.217 1.217,1.217 l 20.1,0 c 0.664,0 1.246,-0.553 1.246,-1.217 l 0,-20.1 c 0,-0.663 -0.584,-1.218 -1.246,-1.218 l -20.1,0 z m 0.595,1.812 18.938,0 0,18.911 -18.938,0 0,-18.911 z"
         id="path141"
         inkscape:connector-curvature="0"
         style="fill:#f4f4f4" /><path
         d="m 87.782,189.733 c -0.664,0 -1.246,0.554 -1.246,1.218 l 0,20.1 c 0,0.662 0.584,1.217 1.246,1.217 l 20.099,0 c 0.665,0 1.217,-0.553 1.217,-1.217 l 0,-20.1 c 0,-0.663 -0.555,-1.218 -1.217,-1.218 l -20.099,0 z m 0.567,1.812 18.938,0 0,18.911 -18.938,0 0,-18.911 z"
         id="path143"
         inkscape:connector-curvature="0"
         style="fill:#f4f4f4" /><path
         d="m 109.467,189.733 c -0.665,0 -1.217,0.554 -1.217,1.218 l 0,20.1 c 0,0.662 0.555,1.217 1.217,1.217 l 20.099,0 c 0.665,0 1.217,-0.553 1.217,-1.217 l 0,-20.1 c 0,-0.663 -0.556,-1.218 -1.217,-1.218 l -20.099,0 z m 0.595,1.812 18.91,0 0,18.911 -18.91,0 0,-18.911 z"
         id="path145"
         inkscape:connector-curvature="0"
         style="fill:#f4f4f4" /><path
         d="m 131.151,189.733 c -0.664,0 -1.217,0.554 -1.217,1.218 l 0,20.1 c 0,0.662 0.556,1.217 1.217,1.217 l 20.1,0 c 0.664,0 1.217,-0.553 1.217,-1.217 l 0,-20.1 c 0,-0.663 -0.556,-1.218 -1.217,-1.218 l -20.1,0 z m 0.595,1.812 18.911,0 0,18.911 -18.911,0 0,-18.911 z"
         id="path147"
         inkscape:connector-curvature="0"
         style="fill:#f4f4f4" /><path
         d="m 152.864,189.733 c -0.663,0 -1.246,0.554 -1.246,1.218 l 0,20.1 c 0,0.665 0.584,1.217 1.246,1.217 l 20.099,0 c 0.665,0 1.217,-0.553 1.217,-1.217 l 0,-20.1 c 0,-0.663 -0.555,-1.218 -1.217,-1.218 l -20.099,0 z m 0.566,1.812 18.938,0 0,18.911 -18.938,0 0,-18.911 z"
         id="path149"
         inkscape:connector-curvature="0"
         style="fill:#f4f4f4" /><path
         d="m 174.549,189.733 c -0.665,0 -1.217,0.554 -1.217,1.218 l 0,20.1 c 0,0.662 0.555,1.217 1.217,1.217 l 20.099,0 c 0.665,0 1.217,-0.553 1.217,-1.217 l 0,-20.1 c 0,-0.663 -0.556,-1.218 -1.217,-1.218 l -20.099,0 z m 0.595,1.812 18.91,0 0,18.911 -18.91,0 0,-18.911 z"
         id="path151"
         inkscape:connector-curvature="0"
         style="fill:#f4f4f4" /><path
         d="m 196.233,189.733 c -0.664,0 -1.217,0.554 -1.217,1.218 l 0,20.1 c 0,0.662 0.555,1.217 1.217,1.217 l 20.099,0 c 0.664,0 1.217,-0.553 1.217,-1.217 l 0,-20.1 c 0,-0.663 -0.556,-1.218 -1.217,-1.218 l -20.099,0 z m 0.595,1.812 18.911,0 0,18.911 -18.911,0 0,-18.911 z"
         id="path153"
         inkscape:connector-curvature="0"
         style="fill:#f4f4f4" /><path
         d="m 217.917,189.733 c -0.663,0 -1.217,0.554 -1.217,1.218 l 0,20.1 c 0,0.665 0.556,1.217 1.217,1.217 l 20.128,0 c 0.663,0 1.217,-0.553 1.217,-1.217 l 0,-20.1 c 0,-0.663 -0.557,-1.218 -1.217,-1.218 l -20.128,0 z m 0.595,1.812 18.938,0 0,18.911 -18.938,0 0,-18.911 z"
         id="path155"
         inkscape:connector-curvature="0"
         style="fill:#f4f4f4" /><path
         d="m 239.631,189.733 c -0.665,0 -1.218,0.554 -1.218,1.218 l 0,20.1 c 0,0.662 0.556,1.217 1.218,1.217 l 20.099,0 c 0.663,0 1.218,-0.553 1.218,-1.217 l 0,-20.1 c 0,-0.666 -0.556,-1.218 -1.218,-1.218 l -20.099,0 z m 0.594,1.812 18.91,0 0,18.911 -18.91,0 0,-18.911 z"
         id="path157"
         inkscape:connector-curvature="0"
         style="fill:#f4f4f4" /><path
         d="m 261.315,189.733 c -0.663,0 -1.217,0.554 -1.217,1.218 l 0,20.1 c 0,0.665 0.555,1.217 1.217,1.217 l 20.1,0 c 0.663,0 1.217,-0.553 1.217,-1.217 l 0,-20.1 c 0,-0.666 -0.556,-1.218 -1.217,-1.218 l -20.1,0 z m 0.595,1.812 18.91,0 0,18.911 -18.91,0 0,-18.911 z"
         id="path159"
         inkscape:connector-curvature="0"
         style="fill:#f4f4f4" /><path
         d="m 283,189.733 c -0.664,0 -1.217,0.554 -1.217,1.218 l 0,20.1 c 0,0.665 0.555,1.217 1.217,1.217 l 20.098,0 c 0.664,0 1.246,-0.556 1.246,-1.217 l 0,-20.1 c 0,-0.663 -0.584,-1.218 -1.246,-1.218 l -20.098,0 z m 0.594,1.812 18.938,0 0,18.911 -18.938,0 0,-18.911 z"
         id="path161"
         inkscape:connector-curvature="0"
         style="fill:#f4f4f4" /><path
         d="m 304.712,189.733 c -0.662,0 -1.245,0.554 -1.245,1.218 l 0,20.1 c 0,0.665 0.583,1.217 1.245,1.217 l 20.099,0 c 0.664,0 1.218,-0.556 1.218,-1.217 l 0,-20.1 c 0,-0.663 -0.556,-1.218 -1.218,-1.218 l -20.099,0 z m 0.566,1.812 18.938,0 0,18.911 -18.938,0 0,-18.911 z"
         id="path163"
         inkscape:connector-curvature="0"
         style="fill:#f4f4f4" /><path
         d="m 76.374,211.334 c -0.664,0 -1.217,0.553 -1.217,1.217 l 0,20.1 c 0,0.662 0.555,1.217 1.217,1.217 l 20.099,0 c 0.663,0 1.246,-0.556 1.246,-1.217 l 0,-0.906 -0.029,0 0,-19.193 c 0,-0.66 -0.558,-1.217 -1.217,-1.217 l -20.099,0 z m 0.594,1.812 18.911,0 0,18.91 -18.911,0 0,-18.91 z"
         id="path165"
         inkscape:connector-curvature="0"
         style="fill:#f4f4f4" /><path
         d="m 44.527,211.334 c -0.665,0 -1.217,0.553 -1.217,1.217 l 0,20.1 c 0,0.662 0.555,1.217 1.217,1.217 l 30.205,0 c 0.665,0 1.217,-0.553 1.217,-1.217 l 0,-20.1 c 0,-0.662 -0.555,-1.217 -1.217,-1.217 l -30.205,0 z m 0.594,1.812 29.017,0 0,18.91 -29.017,0 0,-18.91 z"
         id="path167"
         inkscape:connector-curvature="0"
         style="fill:#f4f4f4" /><path
         d="m 98.087,211.334 c -0.663,0 -1.246,0.556 -1.246,1.217 l 0,20.1 c 0,0.659 0.585,1.217 1.246,1.217 l 20.099,0 c 0.665,0 1.217,-0.553 1.217,-1.217 l 0,-20.1 c 0,-0.662 -0.556,-1.217 -1.217,-1.217 l -20.099,0 z m 0.566,1.812 18.938,0 0,18.91 -18.938,0 0,-18.91 z"
         id="path169"
         inkscape:connector-curvature="0"
         style="fill:#f4f4f4" /><path
         d="m 119.771,211.334 c -0.665,0 -1.217,0.553 -1.217,1.217 l 0,20.1 c 0,0.662 0.556,1.217 1.217,1.217 l 20.099,0 c 0.665,0 1.218,-0.553 1.218,-1.217 l 0,-20.1 c 0,-0.662 -0.556,-1.217 -1.218,-1.217 l -20.099,0 z m 0.595,1.812 18.91,0 0,18.91 -18.91,0 0,-18.91 z"
         id="path171"
         inkscape:connector-curvature="0"
         style="fill:#f4f4f4" /><path
         d="m 141.456,211.334 c -0.665,0 -1.217,0.553 -1.217,1.217 l 0,20.1 c 0,0.662 0.556,1.217 1.217,1.217 l 20.1,0 c 0.664,0 1.217,-0.553 1.217,-1.217 l 0,-20.1 c 0,-0.662 -0.556,-1.217 -1.217,-1.217 l -20.1,0 z m 0.594,1.812 18.91,0 0,18.91 -18.91,0 0,-18.91 z"
         id="path173"
         inkscape:connector-curvature="0"
         style="fill:#f4f4f4" /><path
         d="m 163.14,211.334 c -0.664,0 -1.217,0.553 -1.217,1.217 l 0,20.1 c 0,0.662 0.556,1.217 1.217,1.217 l 20.127,0 c 0.665,0 1.217,-0.553 1.217,-1.217 l 0,-20.1 c 0,-0.662 -0.555,-1.217 -1.217,-1.217 l -20.127,0 z m 0.595,1.812 18.938,0 0,18.91 -18.938,0 0,-18.91 z"
         id="path175"
         inkscape:connector-curvature="0"
         style="fill:#f4f4f4" /><path
         d="m 184.853,211.334 c -0.663,0 -1.217,0.553 -1.217,1.217 l 0,20.1 c 0,0.662 0.557,1.217 1.217,1.217 l 20.099,0 c 0.665,0 1.218,-0.553 1.218,-1.217 l 0,-20.1 c 0,-0.662 -0.556,-1.217 -1.218,-1.217 l -20.099,0 z m 0.595,1.812 18.91,0 0,18.91 -18.91,0 0,-18.91 z"
         id="path177"
         inkscape:connector-curvature="0"
         style="fill:#f4f4f4" /><path
         d="m 206.538,211.334 c -0.665,0 -1.217,0.553 -1.217,1.217 l 0,20.1 c 0,0.662 0.556,1.217 1.217,1.217 l 20.1,0 c 0.279,0 0.528,-0.147 0.736,-0.312 l 0.481,0 0,-0.905 0,-20.1 c 0,-0.662 -0.556,-1.217 -1.217,-1.217 l -20.1,0 z m 0.594,1.812 18.911,0 0,18.599 0,0.312 -18.911,0 0,-18.911 z"
         id="path179"
         inkscape:connector-curvature="0"
         style="fill:#f4f4f4" /><path
         d="m 228.222,211.334 c -0.665,0 -1.217,0.553 -1.217,1.217 l 0,20.1 c 0,0.662 0.556,1.217 1.217,1.217 l 20.099,0 c 0.663,0 1.246,-0.553 1.246,-1.217 l 0,-20.1 c 0,-0.666 -0.583,-1.217 -1.246,-1.217 l -20.099,0 z m 0.594,1.812 18.938,0 0,18.91 -18.938,0 0,-18.91 z"
         id="path181"
         inkscape:connector-curvature="0"
         style="fill:#f4f4f4" /><path
         d="m 249.935,211.334 c -0.665,0 -1.246,0.553 -1.246,1.217 l 0,20.1 c 0,0.662 0.584,1.217 1.246,1.217 l 20.099,0 c 0.665,0 1.217,-0.553 1.217,-1.217 l 0,-20.1 c 0,-0.666 -0.554,-1.217 -1.217,-1.217 l -20.099,0 z m 0.566,1.812 18.938,0 0,18.91 -18.938,0 0,-18.91 z"
         id="path183"
         inkscape:connector-curvature="0"
         style="fill:#f4f4f4" /><path
         d="m 271.62,211.334 c -0.664,0 -1.217,0.553 -1.217,1.217 l 0,20.1 c 0,0.666 0.555,1.217 1.217,1.217 l 20.099,0 c 0.664,0 1.217,-0.553 1.217,-1.217 l 0,-20.1 c 0,-0.666 -0.556,-1.217 -1.217,-1.217 l -20.099,0 z m 0.594,1.812 18.91,0 0,18.91 -18.91,0 0,-18.91 z"
         id="path185"
         inkscape:connector-curvature="0"
         style="fill:#f4f4f4" /><path
         d="m 293.303,211.334 c -0.662,0 -1.217,0.556 -1.217,1.217 l 0,20.1 c 0,0.662 0.556,1.217 1.217,1.217 l 20.099,0 c 0.664,0 1.246,-0.556 1.246,-1.217 l 0,-20.1 c 0,-0.662 -0.584,-1.217 -1.246,-1.217 l -20.099,0 z m 0.595,1.812 18.939,0 0,18.91 -18.939,0 0,-18.91 z"
         id="path187"
         inkscape:connector-curvature="0"
         style="fill:#f4f4f4" /><path
         d="m 81.838,232.905 c -0.665,0 -1.218,0.552 -1.218,1.217 l 0,20.099 c 0,0.663 0.556,1.218 1.218,1.218 l 20.099,0 c 0.664,0 1.246,-0.556 1.246,-1.218 l 0,-0.905 0,-19.193 c 0,-0.66 -0.586,-1.217 -1.246,-1.217 l -20.099,0 z m 0.594,1.812 18.938,0 0,18.91 -18.938,0 0,-18.91 z"
         id="path189"
         inkscape:connector-curvature="0"
         style="fill:#f4f4f4" /><path
         d="m 44.64,232.905 c -0.664,0 -1.217,0.552 -1.217,1.217 l 0,20.099 c 0,0.663 0.556,1.218 1.217,1.218 l 35.556,0 c 0.664,0 1.217,-0.553 1.217,-1.218 l 0,-20.099 c 0,-0.663 -0.556,-1.217 -1.217,-1.217 l -35.556,0 z m 0.594,1.812 34.367,0 0,18.91 -34.367,0 0,-18.91 z"
         id="path191"
         inkscape:connector-curvature="0"
         style="fill:#f4f4f4" /><path
         d="m 103.55,232.905 c -0.664,0 -1.246,0.552 -1.246,1.217 l 0,20.099 c 0,0.663 0.584,1.218 1.246,1.218 l 20.1,0 c 0.664,0 1.217,-0.553 1.217,-1.218 l 0,-20.099 c 0,-0.663 -0.556,-1.217 -1.217,-1.217 l -20.1,0 z m 0.567,1.812 18.938,0 0,18.91 -18.938,0 0,-18.91 z"
         id="path193"
         inkscape:connector-curvature="0"
         style="fill:#f4f4f4" /><path
         d="m 125.235,232.905 c -0.665,0 -1.217,0.552 -1.217,1.217 l 0,20.099 c 0,0.663 0.556,1.218 1.217,1.218 l 20.099,0 c 0.664,0 1.217,-0.553 1.217,-1.218 l 0,-20.099 c 0,-0.663 -0.555,-1.217 -1.217,-1.217 l -20.099,0 z m 0.594,1.812 18.911,0 0,18.91 -18.911,0 0,-18.91 z"
         id="path195"
         inkscape:connector-curvature="0"
         style="fill:#f4f4f4" /><path
         d="m 146.919,232.905 c -0.665,0 -1.217,0.552 -1.217,1.217 l 0,20.099 c 0,0.663 0.556,1.218 1.217,1.218 l 20.099,0 c 0.665,0 1.246,-0.553 1.246,-1.218 l 0,-20.099 c 0,-0.663 -0.584,-1.217 -1.246,-1.217 l -20.099,0 z m 0.595,1.812 18.938,0 0,18.91 -18.938,0 0,-18.91 z"
         id="path197"
         inkscape:connector-curvature="0"
         style="fill:#f4f4f4" /><path
         d="m 168.632,232.905 c -0.665,0 -1.246,0.552 -1.246,1.217 l 0,20.099 c 0,0.663 0.583,1.218 1.246,1.218 l 20.099,0 c 0.664,0 1.217,-0.553 1.217,-1.218 l 0,-20.099 c 0,-0.663 -0.556,-1.217 -1.217,-1.217 l -20.099,0 z m 0.566,1.812 18.939,0 0,18.91 -18.939,0 0,-18.91 z"
         id="path199"
         inkscape:connector-curvature="0"
         style="fill:#f4f4f4" /><path
         d="m 190.316,232.905 c -0.663,0 -1.217,0.552 -1.217,1.217 l 0,20.099 c 0,0.663 0.558,1.218 1.217,1.218 l 20.1,0 c 0.663,0 1.217,-0.553 1.217,-1.218 l 0,-20.099 c 0,-0.666 -0.556,-1.217 -1.217,-1.217 l -20.1,0 z m 0.595,1.812 18.91,0 0,18.91 -18.91,0 0,-18.91 z"
         id="path201"
         inkscape:connector-curvature="0"
         style="fill:#f4f4f4" /><path
         d="m 212.001,232.905 c -0.665,0 -1.217,0.552 -1.217,1.217 l 0,20.099 c 0,0.663 0.555,1.218 1.217,1.218 l 20.099,0 c 0.665,0 1.217,-0.553 1.217,-1.218 l 0,-20.099 c 0,-0.663 -0.555,-1.217 -1.217,-1.217 l -20.099,0 z m 0.595,1.812 18.91,0 0,18.91 -18.91,0 0,-18.91 z"
         id="path203"
         inkscape:connector-curvature="0"
         style="fill:#f4f4f4" /><path
         d="m 233.686,232.905 c -0.665,0 -1.217,0.552 -1.217,1.217 l 0,20.099 c 0,0.663 0.555,1.218 1.217,1.218 l 20.128,0 c 0.663,0 1.217,-0.553 1.217,-1.218 l 0,-20.099 c 0,-0.666 -0.556,-1.217 -1.217,-1.217 l -20.128,0 z m 0.594,1.812 18.938,0 0,18.91 -18.938,0 0,-18.91 z"
         id="path205"
         inkscape:connector-curvature="0"
         style="fill:#f4f4f4" /><path
         d="m 255.398,232.905 c -0.664,0 -1.217,0.552 -1.217,1.217 l 0,20.099 c 0,0.663 0.556,1.218 1.217,1.218 l 20.099,0 c 0.664,0 1.217,-0.553 1.217,-1.218 l 0,-20.099 c 0,-0.666 -0.555,-1.217 -1.217,-1.217 l -20.099,0 z m 0.595,1.812 18.911,0 0,18.91 -18.911,0 0,-18.91 z"
         id="path207"
         inkscape:connector-curvature="0"
         style="fill:#f4f4f4" /><path
         d="m 277.083,232.905 c -0.664,0 -1.218,0.552 -1.218,1.217 l 0,20.099 c 0,0.667 0.556,1.218 1.218,1.218 l 20.098,0 c 0.664,0 1.217,-0.556 1.217,-1.218 l 0,-20.099 c 0,-0.663 -0.555,-1.217 -1.217,-1.217 l -20.098,0 z m 0.595,1.812 18.91,0 0,18.91 -18.91,0 0,-18.91 z"
         id="path209"
         inkscape:connector-curvature="0"
         style="fill:#f4f4f4" /><path
         d="m 92.991,254.476 c -0.663,0 -1.217,0.584 -1.217,1.246 l 0,20.1 c 0,0.66 0.557,1.217 1.217,1.217 l 20.1,0 c 0.278,0 0.501,-0.15 0.708,-0.312 l 0.509,0 0,-0.905 0,-20.1 c 0,-0.663 -0.555,-1.246 -1.217,-1.246 l -20.1,0 z m 0.594,1.812 18.911,0 0,18.627 0,0.312 -18.911,0 0,-18.939 z"
         id="path211"
         inkscape:connector-curvature="0"
         style="fill:#f4f4f4" /><path
         d="m 44.527,254.476 c -0.665,0 -1.217,0.582 -1.217,1.246 l 0,20.1 c 0,0.662 0.555,1.217 1.217,1.217 l 46.907,0 c 0.665,0 1.217,-0.554 1.217,-1.217 l 0,-0.906 0,-19.193 c 0,-0.663 -0.555,-1.246 -1.217,-1.246 l -46.907,0 z m 0.594,1.812 45.719,0 0,18.938 -45.719,0 0,-18.938 z"
         id="path213"
         inkscape:connector-curvature="0"
         style="fill:#f4f4f4" /><path
         d="m 114.676,254.476 c -0.665,0 -1.218,0.582 -1.218,1.246 l 0,20.1 c 0,0.662 0.556,1.217 1.218,1.217 l 20.099,0 c 0.665,0 1.246,-0.554 1.246,-1.217 l 0,-20.1 c 0,-0.663 -0.584,-1.246 -1.246,-1.246 l -20.099,0 z m 0.595,1.812 18.938,0 0,18.938 -18.938,0 0,-18.938 z"
         id="path215"
         inkscape:connector-curvature="0"
         style="fill:#f4f4f4" /><path
         d="m 136.36,254.476 c -0.665,0 -1.217,0.582 -1.217,1.246 l 0,20.1 c 0,0.662 0.556,1.217 1.217,1.217 l 20.127,0 c 0.664,0 1.217,-0.554 1.217,-1.217 l 0,-20.1 c 0,-0.663 -0.556,-1.246 -1.217,-1.246 l -20.127,0 z m 0.595,1.812 18.939,0 0,18.938 -18.939,0 0,-18.938 z"
         id="path217"
         inkscape:connector-curvature="0"
         style="fill:#f4f4f4" /><path
         d="m 158.073,254.476 c -0.663,0 -1.217,0.584 -1.217,1.246 l 0,20.1 c 0,0.662 0.556,1.217 1.217,1.217 l 20.1,0 c 0.665,0 1.217,-0.554 1.217,-1.217 l 0,-20.1 c 0,-0.663 -0.556,-1.246 -1.217,-1.246 l -20.1,0 z m 0.594,1.812 18.91,0 0,18.938 -18.91,0 0,-18.938 z"
         id="path219"
         inkscape:connector-curvature="0"
         style="fill:#f4f4f4" /><path
         d="m 179.758,254.476 c -0.664,0 -1.218,0.582 -1.218,1.246 l 0,20.1 c 0,0.665 0.556,1.217 1.218,1.217 l 20.099,0 c 0.665,0 1.217,-0.554 1.217,-1.217 l 0,-20.1 c 0,-0.663 -0.555,-1.246 -1.217,-1.246 l -20.099,0 z m 0.594,1.812 18.91,0 0,18.938 -18.91,0 0,-18.938 z"
         id="path221"
         inkscape:connector-curvature="0"
         style="fill:#f4f4f4" /><path
         d="m 201.442,254.476 c -0.665,0 -1.217,0.582 -1.217,1.246 l 0,20.1 c 0,0.662 0.555,1.217 1.217,1.217 l 20.128,0 c 0.664,0 1.217,-0.554 1.217,-1.217 l 0,-20.1 c 0,-0.663 -0.556,-1.246 -1.217,-1.246 l -20.128,0 z m 0.595,1.812 18.938,0 0,18.938 -18.938,0 0,-18.938 z"
         id="path223"
         inkscape:connector-curvature="0"
         style="fill:#f4f4f4" /><path
         d="m 223.155,254.476 c -0.663,0 -1.217,0.584 -1.217,1.246 l 0,20.1 c 0,0.662 0.556,1.217 1.217,1.217 l 20.099,0 c 0.665,0 1.217,-0.554 1.217,-1.217 l 0,-20.1 c 0,-0.663 -0.555,-1.246 -1.217,-1.246 l -20.099,0 z m 0.594,1.812 18.911,0 0,18.938 -18.911,0 0,-18.938 z"
         id="path225"
         inkscape:connector-curvature="0"
         style="fill:#f4f4f4" /><path
         d="m 244.839,254.476 c -0.665,0 -1.217,0.582 -1.217,1.246 l 0,20.1 c 0,0.662 0.556,1.217 1.217,1.217 l 20.099,0 c 0.663,0 1.217,-0.554 1.217,-1.217 l 0,-20.1 c 0,-0.666 -0.556,-1.246 -1.217,-1.246 l -20.099,0 z m 0.595,1.812 18.91,0 0,18.938 -18.91,0 0,-18.938 z"
         id="path227"
         inkscape:connector-curvature="0"
         style="fill:#f4f4f4" /><path
         d="m 69.042,276.104 c -0.665,0 -1.217,0.553 -1.217,1.217 l 0,20.1 c 0,0.664 0.553,1.217 1.217,1.217 l 31.14,0 c 0.668,0 1.217,-0.551 1.217,-1.217 l 0,-20.1 c 0,-0.662 -0.556,-1.217 -1.217,-1.217 l -31.14,0 z m 0.594,1.812 29.951,0 0,18.91 -29.951,0 0,-18.91 z"
         id="path229"
         inkscape:connector-curvature="0"
         style="fill:#f4f4f4" /><path
         d="m 299.249,276.104 c -0.663,0 -1.217,0.556 -1.217,1.217 l 0,20.1 c 0,0.664 0.554,1.217 1.217,1.217 l 31.139,0 c 0.668,0 1.218,-0.551 1.218,-1.217 l 0,-20.1 c 0,-0.666 -0.556,-1.217 -1.218,-1.217 l -31.139,0 z m 0.594,1.812 29.951,0 0,18.91 -29.951,0 0,-18.91 z"
         id="path231"
         inkscape:connector-curvature="0"
         style="fill:#f4f4f4" /><path
         d="m 101.823,276.104 c -0.664,0 -1.217,0.553 -1.217,1.217 l 0,20.1 c 0,0.664 0.553,1.217 1.217,1.217 l 195.783,0 c 0.278,0 0.5,-0.149 0.708,-0.312 l 0.51,0 0,-0.905 0,-20.1 c 0,-0.662 -0.556,-1.217 -1.217,-1.217 l -195.784,0 z m 0.595,1.812 194.594,0 0,18.599 0,0.312 -194.594,0 0,-18.911 z"
         id="path233"
         inkscape:connector-curvature="0"
         style="fill:#f4f4f4" /><path
         d="m 288.236,254.476 c -0.664,0 -1.245,0.582 -1.245,1.246 l 0,20.1 c 0,0.665 0.583,1.217 1.245,1.217 l 20.099,0 c 0.666,0 1.218,-0.554 1.218,-1.217 l 0,-20.1 c 0,-0.666 -0.554,-1.246 -1.218,-1.246 l -20.099,0 z m 0.567,1.812 18.938,0 0,18.938 -18.938,0 0,-18.938 z"
         id="path235"
         inkscape:connector-curvature="0"
         style="fill:#f4f4f4" /><path
         d="m 309.978,254.476 c -0.663,0 -1.218,0.582 -1.218,1.246 l 0,20.1 c 0,0.665 0.555,1.217 1.218,1.217 l 31.14,0 c 0.665,0 1.217,-0.554 1.217,-1.217 l 0,-20.1 c 0,-0.666 -0.553,-1.246 -1.217,-1.246 l -31.14,0 z m 0.593,1.812 29.951,0 0,18.938 -29.951,0 0,-18.938 z"
         id="path237"
         inkscape:connector-curvature="0"
         style="fill:#f4f4f4" /><path
         d="m 266.496,254.476 c -0.665,0 -1.217,0.582 -1.217,1.246 l 0,20.1 c 0,0.665 0.554,1.217 1.217,1.217 l 20.127,0 c 0.663,0 1.217,-0.554 1.217,-1.217 l 0,-20.1 c 0,-0.666 -0.556,-1.246 -1.217,-1.246 l -20.127,0 z m 0.594,1.812 18.938,0 0,18.938 -18.938,0 0,-18.938 z"
         id="path239"
         inkscape:connector-curvature="0"
         style="fill:#f4f4f4" /><path
         d="m 298.767,232.905 c -0.664,0 -1.217,0.552 -1.217,1.217 l 0,20.099 c 0,0.667 0.555,1.218 1.217,1.218 l 20.099,0 c 0.664,0 1.245,-0.556 1.245,-1.218 l 0,-20.099 c 0,-0.663 -0.583,-1.217 -1.245,-1.217 l -20.099,0 z m 0.595,1.812 18.938,0 0,18.91 -18.938,0 0,-18.91 z"
         id="path241"
         inkscape:connector-curvature="0"
         style="fill:#f4f4f4" /><path
         d="m 358.442,232.905 c -0.662,0 -1.246,0.555 -1.246,1.217 l 0,20.099 c 0,0.663 0.584,1.218 1.246,1.218 l 20.099,0 c 0.664,0 1.218,-0.556 1.218,-1.218 l 0,-20.099 c 0,-0.663 -0.556,-1.217 -1.218,-1.217 l -20.099,0 z m 0.567,1.812 18.938,0 0,18.91 -18.938,0 0,-18.91 z"
         id="path243"
         inkscape:connector-curvature="0"
         style="fill:#f4f4f4" /><path
         d="m 336.757,211.334 c -0.661,0 -1.217,0.556 -1.217,1.217 l 0,20.1 c 0,0.175 0.011,0.148 0,0.255 l -14.805,0 c -0.662,0 -1.219,0.552 -1.219,1.217 l 0,20.099 c 0,0.667 0.557,1.218 1.219,1.218 l 36.206,0 c 0.31,0 0.575,-0.116 0.792,-0.312 l 0.426,0 0,-0.906 0,-41.67 c 0,-0.666 -0.556,-1.217 -1.218,-1.217 l -20.184,0 z m 0.595,1.812 18.996,0 0,40.17 0,0.312 -35.019,0 0,-18.91 14.692,0 c 0.209,0 0.494,-0.054 0.735,-0.227 0.242,-0.173 0.381,-0.417 0.454,-0.623 0.146,-0.41 0.141,-0.745 0.141,-1.217 l 0,-19.505 z"
         id="path245"
         inkscape:connector-curvature="0"
         style="fill:#f4f4f4" /><path
         d="m 315.016,211.334 c -0.661,0 -1.245,0.556 -1.245,1.217 l 0,20.1 c 0,0.662 0.584,1.217 1.245,1.217 l 20.101,0 c 0.662,0 1.217,-0.556 1.217,-1.217 l 0,-20.1 c 0,-0.662 -0.556,-1.217 -1.217,-1.217 l -20.101,0 z m 0.566,1.812 18.939,0 0,18.91 -18.939,0 0,-18.91 z"
         id="path247"
         inkscape:connector-curvature="0"
         style="fill:#f4f4f4" /><path
         d="m 358.414,211.334 c -0.664,0 -1.218,0.553 -1.218,1.217 l 0,20.1 c 0,0.666 0.554,1.217 1.218,1.217 l 20.099,0 c 0.664,0 1.218,-0.556 1.218,-1.217 l 0,-20.1 c 0,-0.662 -0.556,-1.217 -1.218,-1.217 l -20.099,0 z m 0.595,1.812 18.909,0 0,18.91 -18.909,0 0,-18.91 z"
         id="path249"
         inkscape:connector-curvature="0"
         style="fill:#f4f4f4" /><path
         d="m 388.704,211.334 c -0.664,0 -1.246,0.553 -1.246,1.217 l 0,20.1 c 0,0.666 0.582,1.217 1.246,1.217 l 20.1,0 c 0.663,0 1.218,-0.553 1.218,-1.217 l 0,-20.1 c 0,-0.666 -0.557,-1.217 -1.218,-1.217 l -20.1,0 z m 0.567,1.812 18.938,0 0,18.91 -18.938,0 0,-18.91 z"
         id="path251"
         inkscape:connector-curvature="0"
         style="fill:#f4f4f4" /><path
         d="m 410.644,211.334 c -0.664,0 -1.217,0.556 -1.217,1.217 l 0,20.1 c 0,0.662 0.555,1.217 1.217,1.217 l 20.099,0 c 0.664,0 1.246,-0.553 1.246,-1.217 l 0,-20.1 c 0,-0.666 -0.584,-1.217 -1.246,-1.217 l -20.099,0 z m 0.594,1.812 18.938,0 0,18.91 -18.938,0 0,-18.91 z"
         id="path253"
         inkscape:connector-curvature="0"
         style="fill:#f4f4f4" /><path
         d="m 432.61,211.334 c -0.662,0 -1.217,0.556 -1.217,1.217 l 0,20.1 c 0,0.662 0.556,1.217 1.217,1.217 l 20.101,0 c 0.662,0 1.217,-0.556 1.217,-1.217 l 0,-20.1 c 0,-0.662 -0.557,-1.217 -1.217,-1.217 l -20.101,0 z m 0.595,1.812 18.911,0 0,18.91 -18.911,0 0,-18.91 z"
         id="path255"
         inkscape:connector-curvature="0"
         style="fill:#f4f4f4" /><path
         d="m 388.704,232.989 c -0.664,0 -1.246,0.582 -1.246,1.246 l 0,20.1 c 0,0.665 0.582,1.217 1.246,1.217 l 20.1,0 c 0.663,0 1.218,-0.554 1.218,-1.217 l 0,-20.1 c 0,-0.666 -0.557,-1.246 -1.218,-1.246 l -20.1,0 z m 0.567,1.812 18.938,0 0,18.939 -18.938,0 0,-18.939 z"
         id="path257"
         inkscape:connector-curvature="0"
         style="fill:#f4f4f4" /><path
         d="m 410.644,232.989 c -0.664,0 -1.217,0.584 -1.217,1.246 l 0,20.1 c 0,0.662 0.555,1.217 1.217,1.217 l 20.099,0 c 0.664,0 1.246,-0.554 1.246,-1.217 l 0,-20.1 c 0,-0.666 -0.584,-1.246 -1.246,-1.246 l -20.099,0 z m 0.594,1.812 18.938,0 0,18.939 -18.938,0 0,-18.939 z"
         id="path259"
         inkscape:connector-curvature="0"
         style="fill:#f4f4f4" /><path
         d="m 432.61,232.989 c -0.662,0 -1.217,0.584 -1.217,1.246 l 0,20.1 c 0,0.662 0.556,1.217 1.217,1.217 l 20.101,0 c 0.662,0 1.217,-0.556 1.217,-1.217 l 0,-20.1 c 0,-0.662 -0.557,-1.246 -1.217,-1.246 l -20.101,0 z m 0.595,1.812 18.911,0 0,18.939 -18.911,0 0,-18.939 z"
         id="path261"
         inkscape:connector-curvature="0"
         style="fill:#f4f4f4" /><path
         d="m 461.854,211.334 c -0.663,0 -1.217,0.553 -1.217,1.217 l 0,20.1 c 0,0.666 0.555,1.217 1.217,1.217 l 20.099,0 c 0.664,0 1.219,-0.553 1.219,-1.217 l 0,-20.1 c 0,-0.666 -0.557,-1.217 -1.219,-1.217 l -20.099,0 z m 0.594,1.812 18.91,0 0,18.91 -18.91,0 0,-18.91 z"
         id="path263"
         inkscape:connector-curvature="0"
         style="fill:#f4f4f4" /><path
         d="m 483.821,211.334 c -0.661,0 -1.217,0.556 -1.217,1.217 l 0,20.1 c 0,0.662 0.557,1.217 1.217,1.217 l 20.1,0 c 0.663,0 1.217,-0.553 1.217,-1.217 l 0,-20.1 c 0,-0.666 -0.556,-1.217 -1.217,-1.217 l -20.1,0 z m 0.595,1.812 18.91,0 0,18.91 -18.91,0 0,-18.91 z"
         id="path265"
         inkscape:connector-curvature="0"
         style="fill:#f4f4f4" /><path
         d="m 505.761,211.334 c -0.662,0 -1.218,0.556 -1.218,1.217 l 0,20.1 c 0,0.662 0.558,1.217 1.218,1.217 l 20.1,0 c 0.663,0 1.245,-0.553 1.245,-1.217 l 0,-20.1 c 0,-0.666 -0.584,-1.217 -1.245,-1.217 l -20.1,0 z m 0.593,1.812 18.939,0 0,18.91 -18.939,0 0,-18.91 z"
         id="path267"
         inkscape:connector-curvature="0"
         style="fill:#f4f4f4" /><path
         d="m 527.53,211.334 c -0.664,0 -1.218,0.553 -1.218,1.217 l 0,20.1 c 0,0.666 0.556,1.217 1.218,1.217 l 20.1,0 c 0.663,0 1.217,-0.553 1.217,-1.217 l 0,-20.1 c 0,-0.666 -0.556,-1.217 -1.217,-1.217 l -20.1,0 z m 0.594,1.812 18.91,0 0,18.91 -18.91,0 0,-18.91 z"
         id="path269"
         inkscape:connector-curvature="0"
         style="fill:#f4f4f4" /><path
         d="m 461.854,189.564 c -0.665,0 -1.217,0.553 -1.217,1.217 l 0,20.1 c 0,0.664 0.555,1.217 1.217,1.217 l 20.099,0 c 0.664,0 1.219,-0.555 1.219,-1.217 l 0,-20.1 c 0,-0.666 -0.553,-1.217 -1.219,-1.217 l -20.099,0 z m 0.594,1.812 18.91,0 0,18.91 -18.91,0 0,-18.91 z"
         id="path271"
         inkscape:connector-curvature="0"
         style="fill:#f4f4f4" /><path
         d="m 483.821,189.564 c -0.663,0 -1.217,0.556 -1.217,1.217 l 0,20.1 c 0,0.66 0.557,1.217 1.217,1.217 l 20.1,0 c 0.663,0 1.217,-0.555 1.217,-1.217 l 0,-20.1 c 0,-0.666 -0.552,-1.217 -1.217,-1.217 l -20.1,0 z m 0.595,1.812 18.91,0 0,18.91 -18.91,0 0,-18.91 z"
         id="path273"
         inkscape:connector-curvature="0"
         style="fill:#f4f4f4" /><path
         d="m 505.761,189.564 c -0.664,0 -1.218,0.556 -1.218,1.217 l 0,20.1 c 0,0.66 0.558,1.217 1.218,1.217 l 20.1,0 c 0.663,0 1.245,-0.555 1.245,-1.217 l 0,-20.1 c 0,-0.666 -0.58,-1.217 -1.245,-1.217 l -20.1,0 z m 0.593,1.812 18.939,0 0,18.91 -18.939,0 0,-18.91 z"
         id="path275"
         inkscape:connector-curvature="0"
         style="fill:#f4f4f4" /><path
         d="m 527.53,189.564 c -0.666,0 -1.218,0.553 -1.218,1.217 l 0,20.1 c 0,0.664 0.556,1.217 1.218,1.217 l 20.1,0 c 0.663,0 1.217,-0.555 1.217,-1.217 l 0,-20.1 c 0,-0.666 -0.552,-1.217 -1.217,-1.217 l -20.1,0 z m 0.594,1.812 18.91,0 0,18.91 -18.91,0 0,-18.91 z"
         id="path277"
         inkscape:connector-curvature="0"
         style="fill:#f4f4f4" /><path
         d="m 461.854,232.989 c -0.663,0 -1.217,0.582 -1.217,1.246 l 0,20.1 c 0,0.665 0.555,1.217 1.217,1.217 l 20.099,0 c 0.664,0 1.219,-0.554 1.219,-1.217 l 0,-20.1 c 0,-0.666 -0.557,-1.246 -1.219,-1.246 l -20.099,0 z m 0.594,1.812 18.91,0 0,18.939 -18.91,0 0,-18.939 z"
         id="path279"
         inkscape:connector-curvature="0"
         style="fill:#f4f4f4" /><path
         d="m 483.821,232.989 c -0.661,0 -1.217,0.584 -1.217,1.246 l 0,20.1 c 0,0.662 0.557,1.217 1.217,1.217 l 20.1,0 c 0.663,0 1.217,-0.554 1.217,-1.217 l 0,-20.1 c 0,-0.666 -0.556,-1.246 -1.217,-1.246 l -20.1,0 z m 0.595,1.812 18.91,0 0,18.939 -18.91,0 0,-18.939 z"
         id="path281"
         inkscape:connector-curvature="0"
         style="fill:#f4f4f4" /><path
         d="m 505.761,232.989 c -0.662,0 -1.218,0.584 -1.218,1.246 l 0,20.1 c 0,0.662 0.558,1.217 1.218,1.217 l 20.1,0 c 0.663,0 1.245,-0.554 1.245,-1.217 l 0,-20.1 c 0,-0.666 -0.584,-1.246 -1.245,-1.246 l -20.1,0 z m 0.593,1.812 18.939,0 0,18.939 -18.939,0 0,-18.939 z"
         id="path283"
         inkscape:connector-curvature="0"
         style="fill:#f4f4f4" /><path
         d="m 527.53,232.989 c -0.664,0 -1.218,0.582 -1.218,1.246 l 0,20.1 c 0,0.665 0.556,1.217 1.218,1.217 l 20.1,0 c 0.663,0 1.217,-0.554 1.217,-1.217 l 0,-20.1 c 0,-0.666 -0.556,-1.246 -1.217,-1.246 l -20.1,0 z m 0.594,1.812 18.91,0 0,18.939 -18.91,0 0,-18.939 z"
         id="path285"
         inkscape:connector-curvature="0"
         style="fill:#f4f4f4" /><path
         d="m 461.854,254.675 c -0.663,0 -1.217,0.552 -1.217,1.217 l 0,20.127 c 0,0.668 0.554,1.218 1.217,1.218 l 20.099,0 c 0.668,0 1.219,-0.551 1.219,-1.218 l 0,-20.127 c 0,-0.666 -0.557,-1.217 -1.219,-1.217 l -20.099,0 z m 0.594,1.811 18.91,0 0,18.938 -18.91,0 0,-18.938 z"
         id="path287"
         inkscape:connector-curvature="0"
         style="fill:#f4f4f4" /><path
         d="m 483.821,254.675 c -0.661,0 -1.217,0.555 -1.217,1.217 l 0,20.127 c 0,0.665 0.554,1.218 1.217,1.218 l 20.1,0 c 0.667,0 1.217,-0.551 1.217,-1.218 l 0,-20.127 c 0,-0.666 -0.556,-1.217 -1.217,-1.217 l -20.1,0 z m 0.595,1.811 18.91,0 0,18.938 -18.91,0 0,-18.938 z"
         id="path289"
         inkscape:connector-curvature="0"
         style="fill:#f4f4f4" /><path
         d="m 505.761,254.675 c -0.662,0 -1.218,0.555 -1.218,1.217 l 0,20.127 c 0,0.665 0.554,1.218 1.218,1.218 l 20.1,0 c 0.666,0 1.245,-0.551 1.245,-1.218 l 0,-20.127 c 0,-0.666 -0.584,-1.217 -1.245,-1.217 l -20.1,0 z m 0.593,1.811 18.939,0 0,18.938 -18.939,0 0,-18.938 z"
         id="path291"
         inkscape:connector-curvature="0"
         style="fill:#f4f4f4" /><path
         d="m 527.53,254.675 c -0.664,0 -1.218,0.552 -1.218,1.217 l 0,41.868 c 0,0.667 0.556,1.218 1.218,1.218 l 20.1,0 c 0.663,0 1.217,-0.553 1.217,-1.218 l 0,-41.868 c 0,-0.666 -0.556,-1.217 -1.217,-1.217 l -20.1,0 z m 0.594,1.811 18.91,0 0,40.68 -18.91,0 0,-40.68 z"
         id="path293"
         inkscape:connector-curvature="0"
         style="fill:#f4f4f4" /><path
         d="m 461.854,276.358 c -0.665,0 -1.217,0.554 -1.217,1.217 l 0,20.101 c 0,0.664 0.555,1.245 1.217,1.245 l 41.868,0 c 0.662,0 1.219,-0.586 1.219,-1.245 l 0,-20.101 c 0,-0.661 -0.555,-1.217 -1.219,-1.217 l -41.868,0 z m 0.594,1.812 40.68,0 0,18.939 -40.68,0 0,-18.939 z"
         id="path295"
         inkscape:connector-curvature="0"
         style="fill:#f4f4f4" /><path
         d="m 505.761,276.358 c -0.664,0 -1.218,0.557 -1.218,1.217 l 0,20.101 c 0,0.66 0.558,1.245 1.218,1.245 l 20.1,0 c 0.663,0 1.245,-0.583 1.245,-1.245 l 0,-20.101 c 0,-0.665 -0.58,-1.217 -1.245,-1.217 l -20.1,0 z m 0.593,1.812 18.939,0 0,18.939 -18.939,0 0,-18.939 z"
         id="path297"
         inkscape:connector-curvature="0"
         style="fill:#f4f4f4" /><path
         d="m 326.396,189.733 c -0.662,0 -1.217,0.554 -1.217,1.218 l 0,20.1 c 0,0.665 0.555,1.217 1.217,1.217 l 20.101,0 c 0.663,0 1.217,-0.553 1.217,-1.217 l 0,-20.1 c 0,-0.666 -0.555,-1.218 -1.217,-1.218 l -20.101,0 z m 0.595,1.812 18.91,0 0,18.911 -18.91,0 0,-18.911 z"
         id="path299"
         inkscape:connector-curvature="0"
         style="fill:#f4f4f4" /><path
         d="m 348.393,189.733 c -0.662,0 -1.218,0.557 -1.218,1.218 l 0,20.1 c 0,0.662 0.556,1.217 1.218,1.217 l 29.865,0 c 0.662,0 1.245,-0.556 1.245,-1.217 l 0,-20.1 c 0,-0.663 -0.585,-1.218 -1.245,-1.218 l -29.865,0 z m 0.593,1.812 28.705,0 0,18.911 -28.705,0 0,-18.911 z"
         id="path301"
         inkscape:connector-curvature="0"
         style="fill:#f4f4f4" /><path
         d="m 388.676,189.733 c -0.664,0 -1.218,0.557 -1.218,1.218 l 0,20.1 c 0,0.662 0.556,1.217 1.218,1.217 l 30.517,0 c 0.664,0 1.217,-0.556 1.217,-1.217 l 0,-20.1 c 0,-0.663 -0.555,-1.218 -1.217,-1.218 l -30.517,0 z m 0.595,1.812 29.327,0 0,18.911 -29.327,0 0,-18.911 z"
         id="path303"
         inkscape:connector-curvature="0"
         style="fill:#f4f4f4" /><path
         d="m 421.628,189.733 c -0.664,0 -1.219,0.557 -1.219,1.218 l 0,20.1 c 0,0.662 0.557,1.217 1.219,1.217 l 30.828,0 c 0.662,0 1.217,-0.556 1.217,-1.217 l 0,-20.1 c 0,-0.663 -0.556,-1.218 -1.217,-1.218 l -30.828,0 z m 0.594,1.812 29.64,0 0,18.911 -29.64,0 0,-18.911 z"
         id="path305"
         inkscape:connector-curvature="0"
         style="fill:#f4f4f4" /></g></g></svg>