<?xml version="1.0" encoding="UTF-8" standalone="no"?>
<!-- Generator: Adobe Illustrator 13.0.0, SVG Export Plug-In . SVG Version: 6.00 Build 14948)  -->

<svg
   xmlns:dc="http://purl.org/dc/elements/1.1/"
   xmlns:cc="http://creativecommons.org/ns#"
   xmlns:rdf="http://www.w3.org/1999/02/22-rdf-syntax-ns#"
   xmlns:svg="http://www.w3.org/2000/svg"
   xmlns="http://www.w3.org/2000/svg"
   xmlns:sodipodi="http://sodipodi.sourceforge.net/DTD/sodipodi-0.dtd"
   xmlns:inkscape="http://www.inkscape.org/namespaces/inkscape"
   version="1.1"
   id="Layer_2"
   x="0px"
   y="0px"
   width="550"
   height="550"
   viewBox="0 0 549.99995 549.99999"
   enable-background="new 0 0 598.189 350.26"
   xml:space="preserve"
   inkscape:version="0.91 r13725"
   sodipodi:docname="controller_gg.svg"><metadata
     id="metadata3083"><rdf:RDF><cc:Work
         rdf:about=""><dc:format>image/svg+xml</dc:format><dc:type
           rdf:resource="http://purl.org/dc/dcmitype/StillImage" /><dc:title></dc:title></cc:Work></rdf:RDF></metadata><defs
     id="defs3081" /><sodipodi:namedview
     pagecolor="#ffffff"
     bordercolor="#666666"
     borderopacity="1"
     objecttolerance="10"
     gridtolerance="10"
     guidetolerance="10"
     inkscape:pageopacity="0"
     inkscape:pageshadow="2"
     inkscape:window-width="1920"
     inkscape:window-height="1001"
     id="namedview3079"
     showgrid="false"
     inkscape:zoom="1.0799262"
     inkscape:cx="286.73678"
     inkscape:cy="382.70167"
     inkscape:window-x="-9"
     inkscape:window-y="-9"
     inkscape:window-maximized="1"
     inkscape:current-layer="layer4"
     showguides="true"
     inkscape:guide-bbox="true" /><g
     inkscape:groupmode="layer"
     id="layer2"
     inkscape:label="Screen_Rect"
     style="display:none"
     transform="translate(0,199.73999)"
     sodipodi:insensitive="true"><path
       style="fill:#0000ff;stroke:#000000;stroke-width:1px;stroke-linecap:butt;stroke-linejoin:miter;stroke-opacity:1"
       d="M 5.0135033,547.22203 136.4109,114.39023 653.54628,-189.09358 406.482,260.92121 Z"
       id="path3021"
       inkscape:connector-curvature="0"
       transform="translate(-2e-5,-199.73999)"
       sodipodi:nodetypes="ccccc" /><rect
       style="opacity:0.60100002;fill:#d8201f;fill-opacity:1;stroke:#ff8080;stroke-width:2.45114732;stroke-linecap:round;stroke-linejoin:round;stroke-miterlimit:4;stroke-dasharray:none;stroke-opacity:1"
       id="rect4230"
       width="444.2457"
       height="9.9567661"
       x="145.95099"
       y="-211.30678" /></g><g
     inkscape:groupmode="layer"
     id="layer1"
     inkscape:label="Controller_Vorlage"
     style="display:none"
     sodipodi:insensitive="true"><g
       id="g4929"
       transform="translate(-0.929149,0.5695451)"><g
         transform="translate(0,199.73999)"
         style="display:none"
         inkscape:label="Layer2"
         id="layer2-9"><path
           sodipodi:nodetypes="ccccc"
           transform="translate(-2e-5,-199.73999)"
           inkscape:connector-curvature="0"
           id="path3021-0"
           d="M 5.0135033,547.22203 136.4109,114.39023 653.54628,-189.09358 406.482,260.92121 Z"
           style="fill:#ffffff;stroke:#000000;stroke-width:1px;stroke-linecap:butt;stroke-linejoin:miter;stroke-opacity:1" /></g><g
         inkscape:label="Layer"
         id="layer1-2"><g
           transform="matrix(0.55322035,-0.3970343,-0.34863416,0.85569517,173.63773,166.52161)"
           id="g3100"><path
             style="fill:#f4f4f4"
             inkscape:connector-curvature="0"
             id="path3"
             d="m 148.05,114.447 c -23.656,0 -42.861,19.204 -42.861,42.861 l 0,37.414 c 0,23.658 19.205,42.86 42.861,42.86 l 38.694,0 c 23.656,0 42.861,-19.202 42.861,-42.86 l 0,-37.414 c 0,-23.657 -19.205,-42.861 -42.861,-42.861 l -38.694,0 z m 0,1.905 38.694,0 c 22.627,0 40.956,18.328 40.956,40.956 l 0,37.414 c 0,22.629 -18.329,40.956 -40.956,40.956 l -38.694,0 c -22.628,0 -40.956,-18.327 -40.956,-40.956 l 0,-37.414 c 0,-22.629 18.328,-40.956 40.956,-40.956 z" /><path
             style="fill:#f4f4f4"
             inkscape:connector-curvature="0"
             id="path5"
             d="m 167.395,123.168 c -3.23,0 -5.863,2.633 -5.863,5.864 l 0,13.037 c 0,3.23 2.632,5.863 5.863,5.863 3.23,0 5.863,-2.633 5.863,-5.863 l 0,-13.037 c 0,-3.23 -2.633,-5.864 -5.863,-5.864 z m 0,1.906 c 2.201,0 3.958,1.758 3.958,3.958 l 0,13.037 c 0,2.2 -1.758,3.958 -3.958,3.958 -2.202,0 -3.958,-1.758 -3.958,-3.958 l 0,-13.037 c -0.001,-2.2 1.757,-3.958 3.958,-3.958 z" /><path
             style="fill:#f4f4f4"
             inkscape:connector-curvature="0"
             id="path7"
             d="m 120.425,170.135 c -3.23,0 -5.864,2.633 -5.864,5.864 0,3.231 2.632,5.894 5.864,5.894 l 13.037,0 c 3.229,0 5.864,-2.662 5.864,-5.894 0,-3.229 -2.633,-5.864 -5.864,-5.864 l -13.037,0 z m 0,1.905 13.037,0 c 2.201,0 3.959,1.759 3.959,3.959 0,2.201 -1.759,3.988 -3.959,3.988 l -13.037,0 c -2.198,-0.01 -3.955,-1.791 -3.955,-3.99 0,-2.201 1.758,-3.959 3.958,-3.959 l -0.003,0.002 z" /><path
             style="fill:#f4f4f4"
             inkscape:connector-curvature="0"
             id="path9"
             d="m 167.395,204.071 c -3.23,0 -5.863,2.663 -5.863,5.894 l 0,13.038 c 0,3.229 2.632,5.863 5.863,5.863 3.23,0 5.863,-2.633 5.863,-5.863 l 0,-13.038 c 0,-3.23 -2.633,-5.894 -5.863,-5.894 z m 0,1.906 c 2.201,0 3.958,1.789 3.958,3.988 l 0,13.038 c 0,2.2 -1.757,3.958 -3.958,3.958 -2.202,0 -3.958,-1.759 -3.958,-3.958 l 0,-13.038 c -0.001,-2.2 1.757,-3.988 3.958,-3.988 z" /><path
             style="fill:#f4f4f4"
             inkscape:connector-curvature="0"
             id="path11"
             d="m 201.321,170.135 c -3.229,0 -5.863,2.633 -5.863,5.864 0,3.231 2.633,5.894 5.863,5.894 l 13.067,0 c 3.229,0 5.863,-2.662 5.863,-5.894 0,-3.229 -2.633,-5.864 -5.863,-5.864 l -13.067,0 z m 0,1.905 13.067,0 c 2.2,0 3.958,1.76 3.958,3.959 0,2.201 -1.758,3.988 -3.958,3.988 l -13.067,0 c -2.2,0 -3.958,-1.788 -3.958,-3.988 0,-2.2 1.759,-3.959 3.958,-3.959 z" /><path
             style="fill:#f4f4f4"
             inkscape:connector-curvature="0"
             id="polygon13"
             d="m 133.878,141.176 -1.31,1.31 8.155,12.025 0.655,0.952 0.804,-0.803 3.869,-3.87 0.804,-0.804 -0.953,-0.655 -12.024,-8.155 z" /><path
             style="fill:#f4f4f4"
             inkscape:connector-curvature="0"
             id="polygon15"
             d="m 141.383,196.566 -0.654,0.952 -8.156,12.024 1.31,1.31 12.025,-8.155 0.953,-0.654 -0.804,-0.804 -3.87,-3.869 -0.804,-0.804 z" /><path
             style="fill:#f4f4f4"
             inkscape:connector-curvature="0"
             id="polygon17"
             d="m 193.435,196.566 -0.804,0.804 -3.869,3.869 -0.833,0.804 0.953,0.654 12.025,8.155 1.339,-1.31 -8.156,-12.024 -0.655,-0.952 0,0 z" /><path
             style="fill:#f4f4f4"
             inkscape:connector-curvature="0"
             id="polygon19"
             d="m 200.912,141.176 -12.025,8.155 -0.953,0.655 0.833,0.804 3.87,3.87 0.804,0.803 0.655,-0.952 8.155,-12.025 -1.339,-1.31 z" /><path
             style="fill:#f4f4f4"
             inkscape:connector-curvature="0"
             id="path21"
             d="m 146.354,104.833 c -27.67,0 -50.123,22.453 -50.123,50.124 l 0,42.117 c 0,27.671 22.453,50.123 50.123,50.123 l 42.117,0 c 27.671,0 50.124,-22.452 50.124,-50.123 l 0,-42.117 c 0,-27.67 -22.452,-50.124 -50.124,-50.124 l -42.117,0 z m 0,1.906 42.117,0 c 26.644,0 48.219,21.577 48.219,48.218 l 0,42.117 c 0,26.644 -21.577,48.218 -48.219,48.218 l -42.117,0 c -26.642,0 -48.218,-21.574 -48.218,-48.218 l 0,-42.117 c 0,-26.642 21.577,-48.218 48.218,-48.218 z" /><path
             style="fill:#f4f4f4"
             inkscape:connector-curvature="0"
             id="polygon23"
             d="m 69.499,75.694 0,0.952 0,202.961 0,0.952 0.953,0 196.122,0 0.952,0 0,-0.952 0,-26.401 289.521,0 0.952,0 0,-0.952 0,-113.458 0,-0.953 -0.952,0 -289.522,0 0,-61.196 0,-0.952 -0.952,0 -196.122,0 -0.952,-10e-4 0,0 z m 1.904,1.905 194.217,0 0,61.196 0,0.953 0.953,0 0.714,0 288.807,0 0,111.552 -289.226,0 -0.297,0 -0.953,0 0,0.953 0,26.4 -194.217,0 0,-201.055 0.002,0.001 z" /><path
             style="fill:#f4f4f4"
             inkscape:connector-curvature="0"
             id="circle25"
             d="m 400.692,169.126 c -19.762,0 -35.777,16.046 -35.777,35.807 0,19.761 16.018,35.807 35.777,35.807 19.759,0 35.807,-16.046 35.807,-35.807 0,-19.761 -16.047,-35.807 -35.807,-35.807 l 0,0 z m 0,1.905 c 18.73,0 33.901,15.17 33.901,33.902 0,18.732 -15.171,33.902 -33.901,33.902 -18.731,0 -33.872,-15.171 -33.872,-33.902 0,-18.731 15.141,-33.902 33.872,-33.902 l 0,0 z" /><path
             style="fill:#f4f4f4"
             inkscape:connector-curvature="0"
             id="circle27"
             d="m 400.692,177.669 c -15.039,0 -27.234,12.227 -27.234,27.265 0,15.038 12.195,27.234 27.234,27.234 15.036,0 27.264,-12.196 27.264,-27.234 0,-15.038 -12.227,-27.265 -27.264,-27.265 z m 0,1.905 c 14.008,0 25.359,11.351 25.359,25.359 0,14.008 -11.352,25.33 -25.359,25.33 -14.01,0 -25.33,-11.321 -25.33,-25.33 0,-14.009 11.321,-25.359 25.33,-25.359 z" /><path
             style="fill:#f4f4f4"
             inkscape:connector-curvature="0"
             id="circle29"
             d="m 489.919,169.126 c -19.762,0 -35.807,16.046 -35.807,35.807 0,19.761 16.045,35.807 35.807,35.807 19.76,0 35.807,-16.046 35.807,-35.807 0,-19.761 -16.047,-35.807 -35.807,-35.807 l 0,0 z m 0,1.905 c 18.73,0 33.901,15.17 33.901,33.902 0,18.732 -15.171,33.902 -33.901,33.902 -18.731,0 -33.902,-15.171 -33.902,-33.902 0,-18.731 15.171,-33.902 33.902,-33.902 l 0,0 z" /><path
             style="fill:#f4f4f4"
             inkscape:connector-curvature="0"
             id="circle31"
             d="m 489.919,177.669 c -15.039,0 -27.234,12.227 -27.234,27.265 0,15.038 12.195,27.234 27.234,27.234 15.036,0 27.234,-12.196 27.234,-27.234 0,-15.038 -12.196,-27.265 -27.234,-27.265 z m 0,1.905 c 14.008,0 25.329,11.351 25.329,25.359 0,14.008 -11.321,25.33 -25.329,25.33 -14.01,0 -25.33,-11.321 -25.33,-25.33 0,-14.009 11.32,-25.359 25.33,-25.359 z" /><path
             style="fill:#f4f4f4"
             inkscape:connector-curvature="0"
             id="path33"
             d="m 39.406,68.432 c -4.766,0 -8.662,3.896 -8.662,8.662 l 0,203.084 c 0,4.766 3.897,8.661 8.662,8.661 l 518.646,0 c 4.429,0 7.956,-3.411 8.453,-7.709 l 0.179,0 0,-0.952 0,-203.085 c 0,-4.762 -3.868,-8.658 -8.64,-8.658 l -518.645,0 0.007,-0.003 z m 0,1.904 518.646,0 c 3.737,0 6.727,3.021 6.727,6.757 l 0,202.131 0,0.953 c 0,3.736 -2.989,6.756 -6.727,6.756 l -518.646,0 c -3.732,0.01 -6.753,-3.019 -6.753,-6.753 l 0,-203.083 c 0,-3.736 3.02,-6.756 6.756,-6.756 l -0.003,-0.005 z" /><path
             style="fill:#f4f4f4"
             inkscape:connector-curvature="0"
             id="rect35"
             d="m 359.021,163.559 0,0.953 0,81.465 0,0.952 0.953,0 81.465,0 0.953,0 0,-0.952 0,-81.465 0,-0.953 -0.953,0 -81.465,0 -0.953,0 z m 1.906,1.905 79.561,0 0,79.56 -79.561,0 0,-79.56 z" /><path
             style="fill:#f4f4f4"
             inkscape:connector-curvature="0"
             id="rect37"
             d="m 448.248,163.559 0,0.953 0,81.465 0,0.952 0.953,0 81.436,0 0.952,0 0,-0.952 0,-81.465 0,-0.953 -0.952,0 -81.436,0 -0.953,0 z m 1.905,1.905 79.531,0 0,79.56 -79.531,0 0,-79.56 z" /><path
             style="fill:#f4f4f4"
             inkscape:connector-curvature="0"
             id="polyline39"
             d="m 83.934,94.177 0,2.292 0,159.061 0,2.322 1.607,-1.638 25.33,-25.299 -1.369,-1.369 -23.663,23.692 0,-154.45 23.663,23.658 1.369,-1.34 -25.33,-25.299 -1.607,-1.637 0,0.007 z" /><path
             style="fill:#f4f4f4"
             inkscape:connector-curvature="0"
             id="polyline41"
             d="m 222.305,232.551 -1.37,1.339 23.693,23.692 -154.452,0 23.574,-23.573 -1.369,-1.339 -25.181,25.182 -1.637,1.637 2.292,0 159.062,0 2.292,0 -1.607,-1.637 -25.299,-25.3 0.002,-0.001 z" /><path
             style="fill:#f4f4f4"
             inkscape:connector-curvature="0"
             id="polyline43"
             d="m 250.878,94.177 -1.637,1.637 -25.211,25.182 1.369,1.369 23.574,-23.603 0,154.509 -23.633,-23.663 -1.339,1.34 25.24,25.27 1.637,1.638 0,-2.322 0,-159.063 0,-2.292 0,-0.002 z" /><path
             style="fill:#f4f4f4"
             inkscape:connector-curvature="0"
             id="polyline45"
             d="m 85.57,92.54 1.638,1.608 25.21,25.24 1.339,-1.34 -23.572,-23.602 154.452,0 -23.669,23.662 1.333,1.339 25.307,-25.3 1.607,-1.607 -2.292,0 -159.062,0 -2.291,0 0,0 z" /><path
             style="fill:#f4f4f4"
             inkscape:connector-curvature="0"
             id="line47"
             d="m 58.961,69.533 0,218.057 1.905,0 0,-218.057 -1.905,0 z" /><path
             style="fill:#f4f4f4"
             inkscape:connector-curvature="0"
             id="rect49"
             d="m 359.021,145.819 0,0.953 0,13.244 0,0.953 0.953,0 81.465,0 0.953,0 0,-0.953 0,-13.244 0,-0.953 -0.953,0 -81.465,0 -0.953,0 z m 1.906,1.905 79.561,0 0,11.339 -79.561,0 0,-11.339 z" /><path
             style="fill:#f4f4f4"
             inkscape:connector-curvature="0"
             id="rect51"
             d="m 448.248,145.819 0,0.953 0,13.244 0,0.953 0.953,0 81.436,0 0.952,0 0,-0.953 0,-13.244 0,-0.953 -0.952,0 -81.436,0 -0.953,0 z m 1.905,1.905 79.531,0 0,11.339 -79.531,0 0,-11.339 z" /><path
             style="fill:#f4f4f4"
             inkscape:connector-curvature="0"
             id="path53"
             d="m 276.804,73.134 c -0.987,0 -1.815,0.828 -1.815,1.816 l 0,53.01 c 0,0.988 0.829,1.815 1.815,1.815 l 282.855,0 c 0.985,0 1.785,-0.831 1.785,-1.815 l 0,-50.033 c 0,-2.641 -2.152,-4.792 -4.792,-4.792 l -279.844,0 -0.004,0 z m 0.09,1.906 279.756,0 c 1.613,0 2.888,1.275 2.888,2.887 l 0,49.945 -282.643,0 0,-52.832 -10e-4,0 z" /><path
             style="fill:#f4f4f4"
             inkscape:connector-curvature="0"
             id="path55"
             d="m 276.804,260.41 c -0.987,0 -1.815,0.829 -1.815,1.815 l 0,20.091 c 0,0.987 0.829,1.816 1.815,1.816 l 279.844,0 c 2.64,0 4.792,-2.183 4.792,-4.822 l 0,-17.085 c 0,-0.985 -0.8,-1.815 -1.785,-1.815 l -282.855,0 0.004,0 z m 0.09,1.905 282.645,0 0,16.995 c 0,1.611 -1.276,2.917 -2.888,2.917 l -279.758,0 0.001,-19.912 0,0 z" /><path
             style="fill:#f4f4f4"
             inkscape:connector-curvature="0"
             id="line57"
             d="m 274.461,129.271 -6.28,6.28 1.369,1.339 6.251,-6.25 -1.34,-1.369 z" /><path
             style="fill:#f4f4f4"
             inkscape:connector-curvature="0"
             id="line59"
             d="m 269.546,253.866 -1.369,1.34 6.281,6.28 1.339,-1.369 -6.251,-6.251 z" /></g></g></g></g><g
     inkscape:groupmode="layer"
     id="layer4"
     inkscape:label="Controller"><g
       id="g9613"
       transform="matrix(0.46731854,-0.2999122,-0.27295535,0.72747523,181.59039,162.01262)"><path
         id="path9575"
         d="m 105.619,240.402 c 0,-14.178 11.491,-25.669 25.668,-25.672 l 0,0 c 14.175,0.003 25.667,11.494 25.667,25.672 l 0,0 c 0,14.174 -11.491,25.665 -25.667,25.668 l 0,0 c -14.177,-0.003 -25.668,-11.494 -25.668,-25.668 l 0,0 z m 2.367,0 c 0.025,12.866 10.434,23.272 23.301,23.297 l 0,0 c 12.865,-0.024 23.274,-10.431 23.298,-23.297 l 0,0 c -0.024,-12.871 -10.434,-23.276 -23.298,-23.301 l 0,0 c -12.868,0.025 -23.276,10.43 -23.301,23.301 l 0,0 z"
         inkscape:connector-curvature="0"
         style="fill:#f4f4f4" /><path
         id="path9577"
         d="m 112.429,240.402 c 0.002,-10.415 8.442,-18.856 18.858,-18.856 l 0,0 c 10.413,0 18.854,8.441 18.854,18.856 l 0,0 c 0,10.412 -8.44,18.854 -18.854,18.854 l 0,0 c -10.416,0.001 -18.856,-8.442 -18.858,-18.854 l 0,0 z m 2.369,0 c 0.017,9.104 7.384,16.468 16.489,16.485 l 0,0 c 9.104,-0.018 16.47,-7.382 16.486,-16.485 l 0,0 c -0.017,-9.106 -7.382,-16.471 -16.486,-16.488 l 0,0 c -9.105,0.018 -16.472,7.382 -16.489,16.488 l 0,0 z"
         inkscape:connector-curvature="0"
         style="fill:#f4f4f4" /><path
         id="path9579"
         d="m 457.859,240.402 c 0.003,-14.179 11.492,-25.668 25.672,-25.671 l 0,0 c 14.173,0.003 25.664,11.492 25.667,25.671 l 0,0 c -0.003,14.174 -11.494,25.665 -25.667,25.668 l 0,0 c -14.179,-0.003 -25.669,-11.494 -25.672,-25.668 l 0,0 z m 2.373,0 c 0.021,12.865 10.428,23.273 23.299,23.296 l 0,0 c 12.864,-0.022 23.272,-10.431 23.295,-23.296 l 0,0 c -0.022,-12.87 -10.431,-23.276 -23.295,-23.298 l 0,0 c -12.871,0.022 -23.277,10.428 -23.299,23.298 l 0,0 z"
         inkscape:connector-curvature="0"
         style="fill:#f4f4f4" /><path
         id="path9581"
         d="m 464.674,240.402 c 0,-10.414 8.44,-18.854 18.853,-18.854 l 0,0 c 10.415,0 18.858,8.44 18.858,18.854 l 0,0 c 0,10.413 -8.443,18.854 -18.858,18.854 l 0,0 c -10.413,0.001 -18.853,-8.441 -18.853,-18.854 l 0,0 z m 2.368,0 c 0.018,9.106 7.383,16.467 16.484,16.484 l 0,0 c 9.107,-0.018 16.472,-7.378 16.489,-16.484 l 0,0 c -0.018,-9.106 -7.382,-16.471 -16.489,-16.488 l 0,0 c -9.101,0.018 -16.466,7.382 -16.484,16.488 l 0,0 z"
         inkscape:connector-curvature="0"
         style="fill:#f4f4f4" /><path
         id="path9583"
         d="m 220.286,287.542 c 0,-3.928 3.18,-7.108 7.107,-7.108 l 0,0 c 3.925,0 7.106,3.181 7.108,7.108 l 0,0 c -0.002,3.923 -3.184,7.104 -7.108,7.107 l 0,0 c -3.927,-0.003 -7.107,-3.184 -7.107,-7.107 l 0,0 z m 2.369,0 c 0.006,2.612 2.122,4.729 4.738,4.737 l 0,0 c 2.616,-0.009 4.732,-2.125 4.738,-4.737 l 0,0 c -0.006,-2.619 -2.122,-4.736 -4.738,-4.74 l 0,0 c -2.616,0.004 -4.732,2.121 -4.738,4.74 l 0,0 z"
         inkscape:connector-curvature="0"
         style="fill:#f4f4f4" /><path
         id="path9585"
         d="m 308.148,301.954 0,-1.187 0,-1.186 11.847,0 c 6.649,-0.012 12.03,-5.393 12.042,-12.04 l 0,0 c -0.012,-6.655 -5.393,-12.036 -12.042,-12.048 l 0,0 -11.847,0 c -6.651,0.012 -12.034,5.393 -12.044,12.048 l 0,0 c 0.01,6.647 5.393,12.028 12.044,12.04 l 0,0 0,1.186 0,1.187 c -7.962,-0.002 -14.414,-6.455 -14.414,-14.412 l 0,0 c 0,-7.963 6.452,-14.417 14.414,-14.417 l 0,0 11.847,0 c 7.961,0 14.41,6.454 14.414,14.417 l 0,0 c -0.004,7.957 -6.453,14.41 -14.414,14.412 l 0,0 -11.847,0 0,0 z"
         inkscape:connector-curvature="0"
         style="fill:#f4f4f4" /><path
         id="path9587"
         d="m 308.938,295.636 0,-1.185 0,-1.187 11.453,0 c 3.378,-0.007 6.112,-2.738 6.12,-6.119 l 0,0 c -0.008,-3.383 -2.742,-6.115 -6.12,-6.122 l 0,0 -11.453,0 c -3.38,0.007 -6.115,2.739 -6.123,6.122 l 0,0 c 0.008,3.381 2.743,6.112 6.123,6.119 l 0,0 0,1.187 0,1.185 c -4.688,0 -8.49,-3.802 -8.49,-8.49 l 0,0 c 0,-4.691 3.802,-8.49 8.49,-8.493 l 0,0 11.453,0 c 4.688,0.003 8.487,3.802 8.487,8.493 l 0,0 c 0,4.688 -3.799,8.49 -8.487,8.49 l 0,0 -11.453,0 0,0 z"
         inkscape:connector-curvature="0"
         style="fill:#f4f4f4" /><path
         id="path9589"
         d="m 358.101,301.954 0,-1.187 0,-1.186 11.85,0 c 6.649,-0.012 12.029,-5.393 12.042,-12.04 l 0,0 c -0.013,-6.655 -5.393,-12.036 -12.042,-12.048 l 0,0 -11.85,0 c -6.65,0.012 -12.032,5.393 -12.042,12.048 l 0,0 c 0.01,6.647 5.392,12.028 12.042,12.04 l 0,0 0,1.186 0,1.187 c -7.962,-0.002 -14.411,-6.455 -14.414,-14.412 l 0,0 c 0.003,-7.963 6.452,-14.417 14.414,-14.417 l 0,0 11.85,0 c 7.959,0 14.412,6.454 14.412,14.417 l 0,0 c 0,7.957 -6.453,14.41 -14.412,14.412 l 0,0 -11.85,0 0,0 z"
         inkscape:connector-curvature="0"
         style="fill:#f4f4f4" /><path
         id="path9591"
         d="m 408.647,301.954 0,-1.187 0,-1.186 11.848,0 c 6.649,-0.012 12.03,-5.393 12.041,-12.04 l 0,0 c -0.011,-6.655 -5.392,-12.036 -12.041,-12.048 l 0,0 -11.848,0 c -6.652,0.012 -12.032,5.393 -12.045,12.048 l 0,0 c 0.013,6.647 5.393,12.028 12.045,12.04 l 0,0 0,1.186 0,1.187 c -7.964,-0.002 -14.414,-6.455 -14.414,-14.412 l 0,0 c 0,-7.963 6.45,-14.417 14.414,-14.417 l 0,0 11.848,0 c 7.961,0 14.41,6.454 14.413,14.417 l 0,0 c -0.003,7.957 -6.452,14.41 -14.413,14.412 l 0,0 -11.848,0 0,0 z"
         inkscape:connector-curvature="0"
         style="fill:#f4f4f4" /><path
         id="path9593"
         d="m 358.894,295.636 0,-1.185 0,-1.187 11.453,0 c 3.377,-0.007 6.109,-2.738 6.118,-6.119 l 0,0 c -0.009,-3.383 -2.741,-6.115 -6.118,-6.122 l 0,0 -11.453,0 c -3.383,0.007 -6.117,2.741 -6.126,6.122 l 0,0 c 0.009,3.378 2.743,6.112 6.126,6.121 l 0,0 0,1.185 0,1.185 c -4.691,0 -8.492,-3.802 -8.492,-8.49 l 0,0 c 0,-4.691 3.801,-8.49 8.492,-8.493 l 0,0 11.453,0 c 4.688,0.003 8.485,3.802 8.485,8.493 l 0,0 c 0,4.688 -3.797,8.49 -8.485,8.49 l 0,0 -11.453,0 0,0 z"
         inkscape:connector-curvature="0"
         style="fill:#f4f4f4" /><path
         id="path9595"
         d="m 204.619,235.117 c -6.542,0 -11.845,-5.302 -11.847,-11.845 l 0,0 0,-134.264 c 0.002,-6.543 5.305,-11.845 11.847,-11.847 l 0,0 204.556,0.002 c 6.542,0 11.844,5.302 11.848,11.845 l 0,0 0,134.265 -0.004,0 c 0,6.543 -5.302,11.845 -11.844,11.847 l 0,0 -204.556,-0.003 0,0 z m -9.476,-146.109 0,134.265 c 0.01,5.232 4.244,9.468 9.477,9.477 l 0,0 204.556,0 c 5.232,-0.009 9.467,-4.244 9.477,-9.477 l 0,0 0,-134.265 c -0.01,-5.233 -4.244,-9.467 -9.477,-9.477 l 0,0 -204.557,0 c -5.232,0.01 -9.467,4.243 -9.476,9.477 l 0,0 z"
         inkscape:connector-curvature="0"
         style="fill:#f4f4f4" /><path
         id="path9597"
         d="m 205.806,227.813 c -3.271,0 -5.923,-2.652 -5.923,-5.923 l 0,0 0,-131.499 c 0,-3.272 2.651,-5.923 5.923,-5.923 l 0,0 202.184,0 c 3.271,0 5.923,2.651 5.923,5.923 l 0,0 0,131.499 c 0,3.271 -2.651,5.923 -5.923,5.923 l 0,0 -202.184,0 0,0 z m -3.554,-137.422 0,131.499 c 0.004,1.96 1.593,3.55 3.554,3.553 l 0,0 202.184,0.002 c 1.959,-0.005 3.55,-1.595 3.554,-3.555 l 0,0 0,-131.499 c -0.004,-1.963 -1.595,-3.552 -3.554,-3.555 l 0,0 -202.184,0 c -1.961,0.003 -3.55,1.592 -3.554,3.555 l 0,0 z"
         inkscape:connector-curvature="0"
         style="fill:#f4f4f4" /><path
         id="path9599"
         d="m 176.584,268.584 c -3.273,0 -5.924,-2.65 -5.924,-5.921 l 0,0 0,-209.689 c 0,-3.271 2.65,-5.921 5.924,-5.923 l 0,0 260.627,0 c 3.272,0.002 5.923,2.653 5.923,5.923 l 0,0 0,209.689 c 0,3.271 -2.65,5.921 -5.923,5.923 l 0,0 -260.627,-0.002 0,0 z m -3.556,-215.61 0,209.689 c 0.006,1.961 1.594,3.549 3.556,3.552 l 0,0 260.627,0 c 1.96,-0.003 3.549,-1.591 3.554,-3.552 l 0,0 0,-209.689 c -0.005,-1.961 -1.594,-3.55 -3.554,-3.553 l 0,0 -260.627,0 c -1.962,0.003 -3.55,1.592 -3.556,3.553 l 0,0 z"
         inkscape:connector-curvature="0"
         style="fill:#f4f4f4" /><path
         id="path9601"
         d="m 83.751,316.07 c -1.31,0 -2.37,-1.059 -2.37,-2.368 l 0,0 0,-279.977 c 0,-1.309 1.061,-2.37 2.37,-2.37 l 0,0 445.832,0 c 1.308,0 2.368,1.058 2.37,2.37 l 0,0 0,279.978 -0.002,0 c 0,1.31 -1.061,2.368 -2.368,2.371 l 0,0 -445.832,-0.004 0,0 z m 0,-282.345 0,279.978 445.83,0 0.002,-279.978 c 0,0 0,-0.002 0,0 l 0,0 -445.832,-0.003 0,0.003 0,0 z"
         inkscape:connector-curvature="0"
         style="fill:#f4f4f4" /><path
         id="path9603"
         d="m 73.287,330.879 c -3.927,0 -7.108,-3.182 -7.108,-7.108 l 0,0 -0.003,-300.116 c 0.002,-3.926 3.184,-7.108 7.11,-7.108 l 0,0 466.76,0 c 3.928,0 7.108,3.182 7.108,7.108 l 0,0 0,300.115 c 0,3.927 -3.181,7.108 -7.108,7.108 l 0,0 -466.759,0 0,0.001 z m -4.739,-307.224 0,300.115 c 0.005,2.616 2.121,4.734 4.739,4.74 l 0,0 466.76,0 c 2.618,-0.006 4.733,-2.122 4.739,-4.74 l 0,0 -0.002,-300.115 c -0.004,-2.617 -2.119,-4.734 -4.737,-4.739 l 0,0 -466.76,0 c -2.618,0.005 -4.734,2.122 -4.739,4.739 l 0,0 z"
         inkscape:connector-curvature="0"
         style="fill:#f4f4f4" /><path
         id="path9605"
         d="m 108.924,105.89 c -3.924,0 -7.106,-3.181 -7.106,-7.107 l 0,0 0,-36.726 c 0,-3.927 3.183,-7.107 7.106,-7.107 l 0,0 44.623,0 c 3.927,0 7.108,3.18 7.108,7.107 l 0,0 0,36.726 c 0,3.926 -3.182,7.107 -7.108,7.107 l 0,0 -44.623,0 0,0 z m -4.739,-43.833 0,36.726 c 0.005,2.615 2.125,4.733 4.739,4.739 l 0,0 44.623,0 c 2.617,-0.005 4.734,-2.124 4.738,-4.739 l 0,0 0.002,0 -0.002,-36.726 c -0.004,-2.615 -2.121,-4.734 -4.738,-4.739 l 0,0 -44.623,0 c -2.614,0.005 -4.734,2.124 -4.739,4.739 l 0,0 z"
         inkscape:connector-curvature="0"
         style="fill:#f4f4f4" /></g></g></svg>