<?xml version="1.0" encoding="UTF-8" standalone="no"?>
<!-- Generator: Adobe Illustrator 13.0.0, SVG Export Plug-In . SVG Version: 6.00 Build 14948)  -->

<svg
   xmlns:dc="http://purl.org/dc/elements/1.1/"
   xmlns:cc="http://creativecommons.org/ns#"
   xmlns:rdf="http://www.w3.org/1999/02/22-rdf-syntax-ns#"
   xmlns:svg="http://www.w3.org/2000/svg"
   xmlns="http://www.w3.org/2000/svg"
   xmlns:sodipodi="http://sodipodi.sourceforge.net/DTD/sodipodi-0.dtd"
   xmlns:inkscape="http://www.inkscape.org/namespaces/inkscape"
   version="1.1"
   id="Layer_2"
   x="0px"
   y="0px"
   width="550"
   height="550"
   viewBox="0 0 549.99995 549.99999"
   enable-background="new 0 0 598.189 350.26"
   xml:space="preserve"
   inkscape:version="0.91 r13725"
   sodipodi:docname="controller_gg.svg"><metadata
     id="metadata3083"><rdf:RDF><cc:Work
         rdf:about=""><dc:format>image/svg+xml</dc:format><dc:type
           rdf:resource="http://purl.org/dc/dcmitype/StillImage" /><dc:title /></cc:Work></rdf:RDF></metadata><defs
     id="defs3081" /><sodipodi:namedview
     pagecolor="#ffffff"
     bordercolor="#666666"
     borderopacity="1"
     objecttolerance="10"
     gridtolerance="10"
     guidetolerance="10"
     inkscape:pageopacity="0"
     inkscape:pageshadow="2"
     inkscape:window-width="1920"
     inkscape:window-height="1001"
     id="namedview3079"
     showgrid="false"
     inkscape:zoom="1.0799262"
     inkscape:cx="115.89177"
     inkscape:cy="360.47793"
     inkscape:window-x="-9"
     inkscape:window-y="759"
     inkscape:window-maximized="1"
     inkscape:current-layer="layer4"
     showguides="true"
     inkscape:guide-bbox="true" /><g
     inkscape:groupmode="layer"
     id="layer4"
     inkscape:label="Controller"
     style="display:inline"
     sodipodi:insensitive="true"><g
       id="g5029"
       transform="matrix(0.62082381,-0.39790465,-0.48641718,0.93258325,168.55478,154.89978)"><path
         id="path5015"
         d="m 291.694,335.893 c -9.292,-1.254 -16.413,-8.771 -23.026,-17.755 l 0,0 c -6.609,-9.034 -12.749,-19.825 -19.404,-28.344 l 0,0 c -3.337,-4.287 -10.311,-15.482 -19.251,-30.418 l 0,0 C 221.09,244.46 210.28,225.898 199.524,207.194 l 0,0 c -21.515,-37.419 -42.787,-75.357 -48.308,-85.853 l 0,0 c -0.749,-1.434 -1.18,-2.268 -1.411,-2.849 l 0,0 1.868,-0.719 1.866,-0.717 c 0.071,0.218 1.029,2.108 2.511,4.848 l 0,0 c 1.499,2.784 3.591,6.599 6.148,11.219 l 0,0 c 5.117,9.238 12.099,21.687 19.947,35.542 l 0,0 c 15.696,27.713 34.857,61.061 49.495,85.63 l 0,0 c 9.739,16.356 17.551,28.915 20.777,33.033 l 0,0 c 6.905,8.856 13.055,19.68 19.478,28.445 l 0,0 c 6.418,8.814 13.072,15.283 20.295,16.146 l 0,0 c 0.379,0.047 0.845,0.076 1.383,0.076 l 0,0 c 7.037,0.042 25.024,-4.686 45.034,-11.24 l 0,0 c 20.075,-6.548 42.464,-14.905 59.221,-22.072 l 0,0 c 11.146,-4.759 19.885,-9.078 23.461,-11.732 l 0,0 c 4.268,-3.148 6.838,-5.991 8.37,-8.934 l 0,0 c 1.53,-2.945 2.103,-6.096 2.106,-10.112 l 0,0 c 0.011,-6.603 -1.644,-15.375 -2.805,-27.897 l 0,0 C 426.442,212.687 403.125,74.419 400.582,58.761 l 0,0 c -1.87,-11.978 -1.623,-23.052 -5.079,-28.273 l 0,0 c -1.121,-1.746 -2.482,-2.909 -4.597,-3.628 l 0,0 c -6.931,-2.322 -18.682,-3.609 -32.979,-3.599 l 0,0 c -29.925,-0.006 -71.189,5.492 -105.598,17.157 l 0,0 c -25.418,8.611 -47.736,21.133 -64.514,32.602 l 0,0 c -16.75,11.426 -28.079,21.961 -31.162,26.047 l 0,0 c -1.989,2.606 -3.375,4.532 -4.203,6.071 l 0,0 c -0.828,1.553 -1.119,2.626 -1.127,3.891 l 0,0 c -0.017,1.748 0.708,4.14 2.215,8.028 l 0,0 -1.866,0.717 -1.868,0.719 c -1.509,-3.953 -2.467,-6.678 -2.481,-9.464 l 0,0 c -0.011,-1.998 0.568,-3.887 1.61,-5.792 l 0,0 c 1.042,-1.92 2.526,-3.949 4.538,-6.592 l 0,0 c 3.695,-4.815 15.042,-15.256 32.088,-26.927 l 0,0 c 17.021,-11.63 39.626,-24.322 65.486,-33.086 l 0,0 C 286.01,24.79 327.528,19.267 357.927,19.26 l 0,0 c 14.556,0.01 26.519,1.245 34.243,3.807 l 0,0 c 2.973,0.975 5.213,2.884 6.714,5.284 l 0,0 c 1.512,2.4 2.375,5.241 2.987,8.362 l 0,0 c 1.205,6.24 1.408,13.728 2.66,21.41 l 0,0 c 2.542,15.703 25.842,153.747 28.411,181.52 l 0,0 c 1.134,12.354 2.812,21.026 2.823,28.265 l 0,0 c 0.003,4.384 -0.653,8.306 -2.562,11.961 l 0,0 c -1.903,3.655 -4.978,6.94 -9.543,10.305 l 0,0 c -6.316,4.616 -22.945,11.988 -42.725,19.693 l 0,0 c -19.737,7.67 -42.42,15.512 -60.242,20.576 l 0,0 c -11.918,3.371 -21.529,5.532 -27.122,5.555 l 0,0 c -0.675,-10e-4 -1.294,-0.036 -1.877,-0.105 l 0,0 z"
         inkscape:connector-curvature="0"
         style="fill:#f4f4f4" /><path
         id="path5017"
         d="m 432.459,250.971 c 6.034,-0.586 9.69,-3.927 12.979,-8.401 l 0,0 c 3.263,-4.452 5.781,-9.89 9.484,-13.861 l 0,0 0.17,-0.181 0.21,-0.132 c 10.298,-6.587 16.627,-13.463 20.468,-21.313 l 0,0 c 3.839,-7.854 5.216,-16.815 5.216,-27.631 l 0,0 c 0.005,-14.542 -2.508,-32.337 -4.563,-54.714 l 0,0 c -1.547,-16.899 -6.021,-27.033 -11.958,-32.905 l 0,0 c -5.929,-5.866 -13.529,-7.821 -22.195,-7.834 l 0,0 c -10.693,-0.013 -22.73,3.095 -33.827,5.227 l 0,0 -0.752,-3.929 c 10.928,-2.08 23.142,-5.288 34.579,-5.298 l 0,0 c 9.221,-0.015 18.125,2.159 25.01,8.995 l 0,0 c 6.88,6.831 11.532,17.974 13.128,35.38 l 0,0 c 2.037,22.277 4.573,40.085 4.579,55.08 l 0,0 c 0,11.135 -1.412,20.772 -5.622,29.386 l 0,0 c -4.177,8.562 -11.089,15.981 -21.697,22.79 l 0,0 c -3.005,3.248 -5.54,8.512 -8.994,13.295 l 0,0 c -3.492,4.85 -8.313,9.35 -15.838,10.034 l 0,0 -0.377,-3.988 0,0 z"
         inkscape:connector-curvature="0"
         style="fill:#f4f4f4" /><path
         id="path5019"
         d="m 425.188,212.673 c 1.442,-5.841 6.715,-9.383 12.3,-12.494 l 0,0 c 5.641,-3.088 11.938,-5.766 16.043,-8.856 l 0,0 c 2.762,-2.068 4.376,-4.154 4.681,-6.437 l 0,0 c 0.692,-5.048 1.528,-12.293 1.528,-20.486 l 0,0 c 0.005,-11.601 -1.686,-25.069 -7.686,-36.817 l 0,0 c -2.718,-5.329 -5.39,-8.73 -7.795,-10.737 l 0,0 c -2.418,-2.011 -4.496,-2.657 -6.351,-2.666 l 0,0 c -3.271,-0.038 -6.377,2.296 -8.353,4.83 l 0,0 c -2.275,2.875 -3.366,4.691 -5.427,6.327 l 0,0 c -2.072,1.604 -4.639,2.598 -9.547,4.097 l 0,0 -1.166,-3.824 c 4.839,-1.466 6.932,-2.38 8.25,-3.425 l 0,0 c 1.33,-1.013 2.359,-2.588 4.744,-5.646 l 0,0 c 2.42,-3.062 6.346,-6.321 11.498,-6.358 l 0,0 c 2.869,-0.008 5.952,1.103 8.917,3.597 l 0,0 c 2.977,2.493 5.903,6.337 8.791,11.987 l 0,0 c 6.416,12.589 8.118,26.659 8.123,38.635 l 0,0 c 0,8.464 -0.862,15.896 -1.567,21.03 l 0,0 c -0.396,2.881 -1.971,5.268 -4.021,7.227 l 0,0 c -2.063,1.973 -4.642,3.611 -7.411,5.148 l 0,0 c -5.53,3.055 -11.883,5.743 -16.249,8.934 l 0,0 c -2.93,2.128 -4.842,4.368 -5.406,6.845 l 0,0 -3.896,-0.911 0,0 z m -10.607,-83.238 c 10e-4,0 0.002,0 0.002,-0.001 l 0,0 0,0.001 -0.002,0 0,0 z"
         inkscape:connector-curvature="0"
         style="fill:#f4f4f4" /><path
         id="path5021"
         d="m 280.404,327.919 c 0.09,-3.85 2.727,-7.681 6.76,-11.716 l 0,0 c 4.071,-3.998 9.731,-8.042 16.38,-11.414 l 0,0 c 16.733,-8.437 79.148,-29.74 101.657,-33.458 l 0,0 c 5.059,-0.827 9.442,-1.222 13.145,-1.224 l 0,0 c 4.305,0.009 7.68,0.51 10.229,1.639 l 0,0 c 2.519,1.052 4.432,3.223 4.394,5.893 l 0,0 c -0.033,2.466 -1.343,4.767 -3.499,7.179 l 0,0 -2.968,-2.682 c 1.853,-2.026 2.498,-3.661 2.467,-4.497 l 0,0 c -0.04,-0.803 -0.302,-1.397 -2.026,-2.242 l 0,0 c -1.693,-0.769 -4.629,-1.297 -8.596,-1.286 l 0,0 c -3.417,-0.003 -7.604,0.368 -12.499,1.169 l 0,0 c -21.566,3.488 -84.595,24.985 -100.495,33.078 l 0,0 c -6.311,3.193 -11.675,7.052 -15.384,10.697 l 0,0 c -3.751,3.61 -5.656,7.169 -5.566,8.864 l 0,0 c 0.05,0.863 0.206,1.206 0.987,1.756 l 0,0 0,0.002 -2.142,3.378 c -1.832,-1.105 -2.892,-3.137 -2.844,-5.136 l 0,0 z"
         inkscape:connector-curvature="0"
         style="fill:#f4f4f4" /></g></g></svg>