<?xml version="1.0" encoding="UTF-8" standalone="no"?>
<!-- Generator: Adobe Illustrator 13.0.0, SVG Export Plug-In . SVG Version: 6.00 Build 14948)  -->

<svg
   xmlns:dc="http://purl.org/dc/elements/1.1/"
   xmlns:cc="http://creativecommons.org/ns#"
   xmlns:rdf="http://www.w3.org/1999/02/22-rdf-syntax-ns#"
   xmlns:svg="http://www.w3.org/2000/svg"
   xmlns="http://www.w3.org/2000/svg"
   xmlns:sodipodi="http://sodipodi.sourceforge.net/DTD/sodipodi-0.dtd"
   xmlns:inkscape="http://www.inkscape.org/namespaces/inkscape"
   version="1.1"
   id="Layer_2"
   x="0px"
   y="0px"
   width="550"
   height="550"
   viewBox="0 0 549.99995 549.99999"
   enable-background="new 0 0 598.189 350.26"
   xml:space="preserve"
   inkscape:version="0.91 r13725"
   sodipodi:docname="controller_gg.svg"><metadata
     id="metadata3083"><rdf:RDF><cc:Work
         rdf:about=""><dc:format>image/svg+xml</dc:format><dc:type
           rdf:resource="http://purl.org/dc/dcmitype/StillImage" /><dc:title></dc:title></cc:Work></rdf:RDF></metadata><defs
     id="defs3081" /><sodipodi:namedview
     pagecolor="#ffffff"
     bordercolor="#666666"
     borderopacity="1"
     objecttolerance="10"
     gridtolerance="10"
     guidetolerance="10"
     inkscape:pageopacity="0"
     inkscape:pageshadow="2"
     inkscape:window-width="1920"
     inkscape:window-height="1001"
     id="namedview3079"
     showgrid="false"
     inkscape:zoom="1.0799262"
     inkscape:cx="364.51987"
     inkscape:cy="360.47793"
     inkscape:window-x="-9"
     inkscape:window-y="-9"
     inkscape:window-maximized="1"
     inkscape:current-layer="layer4"
     showguides="true"
     inkscape:guide-bbox="true" /><g
     inkscape:groupmode="layer"
     id="layer2"
     inkscape:label="Screen_Rect"
     style="display:none"
     transform="translate(0,199.73999)"
     sodipodi:insensitive="true"><path
       style="fill:#ffffff;stroke:#000000;stroke-width:1px;stroke-linecap:butt;stroke-linejoin:miter;stroke-opacity:1"
       d="M 5.0135033,547.22203 136.4109,114.39023 653.54628,-189.09358 406.482,260.92121 Z"
       id="path3021"
       inkscape:connector-curvature="0"
       transform="translate(-2e-5,-199.73999)"
       sodipodi:nodetypes="ccccc" /></g><g
     inkscape:groupmode="layer"
     id="layer1"
     inkscape:label="Controller_Vorlage"
     style="display:none"
     sodipodi:insensitive="true"><g
       id="g4929"
       transform="translate(-0.929149,0.5695451)"><g
         transform="translate(0,199.73999)"
         style="display:none"
         inkscape:label="Layer2"
         id="layer2-9"><path
           sodipodi:nodetypes="ccccc"
           transform="translate(-2e-5,-199.73999)"
           inkscape:connector-curvature="0"
           id="path3021-0"
           d="M 5.0135033,547.22203 136.4109,114.39023 653.54628,-189.09358 406.482,260.92121 Z"
           style="fill:#ffffff;stroke:#000000;stroke-width:1px;stroke-linecap:butt;stroke-linejoin:miter;stroke-opacity:1" /></g><g
         inkscape:label="Layer"
         id="layer1-2"><g
           transform="matrix(0.55322035,-0.3970343,-0.34863416,0.85569517,173.63773,166.52161)"
           id="g3100"><path
             style="fill:#f4f4f4"
             inkscape:connector-curvature="0"
             id="path3"
             d="m 148.05,114.447 c -23.656,0 -42.861,19.204 -42.861,42.861 l 0,37.414 c 0,23.658 19.205,42.86 42.861,42.86 l 38.694,0 c 23.656,0 42.861,-19.202 42.861,-42.86 l 0,-37.414 c 0,-23.657 -19.205,-42.861 -42.861,-42.861 l -38.694,0 z m 0,1.905 38.694,0 c 22.627,0 40.956,18.328 40.956,40.956 l 0,37.414 c 0,22.629 -18.329,40.956 -40.956,40.956 l -38.694,0 c -22.628,0 -40.956,-18.327 -40.956,-40.956 l 0,-37.414 c 0,-22.629 18.328,-40.956 40.956,-40.956 z" /><path
             style="fill:#f4f4f4"
             inkscape:connector-curvature="0"
             id="path5"
             d="m 167.395,123.168 c -3.23,0 -5.863,2.633 -5.863,5.864 l 0,13.037 c 0,3.23 2.632,5.863 5.863,5.863 3.23,0 5.863,-2.633 5.863,-5.863 l 0,-13.037 c 0,-3.23 -2.633,-5.864 -5.863,-5.864 z m 0,1.906 c 2.201,0 3.958,1.758 3.958,3.958 l 0,13.037 c 0,2.2 -1.758,3.958 -3.958,3.958 -2.202,0 -3.958,-1.758 -3.958,-3.958 l 0,-13.037 c -0.001,-2.2 1.757,-3.958 3.958,-3.958 z" /><path
             style="fill:#f4f4f4"
             inkscape:connector-curvature="0"
             id="path7"
             d="m 120.425,170.135 c -3.23,0 -5.864,2.633 -5.864,5.864 0,3.231 2.632,5.894 5.864,5.894 l 13.037,0 c 3.229,0 5.864,-2.662 5.864,-5.894 0,-3.229 -2.633,-5.864 -5.864,-5.864 l -13.037,0 z m 0,1.905 13.037,0 c 2.201,0 3.959,1.759 3.959,3.959 0,2.201 -1.759,3.988 -3.959,3.988 l -13.037,0 c -2.198,-0.01 -3.955,-1.791 -3.955,-3.99 0,-2.201 1.758,-3.959 3.958,-3.959 l -0.003,0.002 z" /><path
             style="fill:#f4f4f4"
             inkscape:connector-curvature="0"
             id="path9"
             d="m 167.395,204.071 c -3.23,0 -5.863,2.663 -5.863,5.894 l 0,13.038 c 0,3.229 2.632,5.863 5.863,5.863 3.23,0 5.863,-2.633 5.863,-5.863 l 0,-13.038 c 0,-3.23 -2.633,-5.894 -5.863,-5.894 z m 0,1.906 c 2.201,0 3.958,1.789 3.958,3.988 l 0,13.038 c 0,2.2 -1.757,3.958 -3.958,3.958 -2.202,0 -3.958,-1.759 -3.958,-3.958 l 0,-13.038 c -0.001,-2.2 1.757,-3.988 3.958,-3.988 z" /><path
             style="fill:#f4f4f4"
             inkscape:connector-curvature="0"
             id="path11"
             d="m 201.321,170.135 c -3.229,0 -5.863,2.633 -5.863,5.864 0,3.231 2.633,5.894 5.863,5.894 l 13.067,0 c 3.229,0 5.863,-2.662 5.863,-5.894 0,-3.229 -2.633,-5.864 -5.863,-5.864 l -13.067,0 z m 0,1.905 13.067,0 c 2.2,0 3.958,1.76 3.958,3.959 0,2.201 -1.758,3.988 -3.958,3.988 l -13.067,0 c -2.2,0 -3.958,-1.788 -3.958,-3.988 0,-2.2 1.759,-3.959 3.958,-3.959 z" /><path
             style="fill:#f4f4f4"
             inkscape:connector-curvature="0"
             id="polygon13"
             d="m 133.878,141.176 -1.31,1.31 8.155,12.025 0.655,0.952 0.804,-0.803 3.869,-3.87 0.804,-0.804 -0.953,-0.655 -12.024,-8.155 z" /><path
             style="fill:#f4f4f4"
             inkscape:connector-curvature="0"
             id="polygon15"
             d="m 141.383,196.566 -0.654,0.952 -8.156,12.024 1.31,1.31 12.025,-8.155 0.953,-0.654 -0.804,-0.804 -3.87,-3.869 -0.804,-0.804 z" /><path
             style="fill:#f4f4f4"
             inkscape:connector-curvature="0"
             id="polygon17"
             d="m 193.435,196.566 -0.804,0.804 -3.869,3.869 -0.833,0.804 0.953,0.654 12.025,8.155 1.339,-1.31 -8.156,-12.024 -0.655,-0.952 0,0 z" /><path
             style="fill:#f4f4f4"
             inkscape:connector-curvature="0"
             id="polygon19"
             d="m 200.912,141.176 -12.025,8.155 -0.953,0.655 0.833,0.804 3.87,3.87 0.804,0.803 0.655,-0.952 8.155,-12.025 -1.339,-1.31 z" /><path
             style="fill:#f4f4f4"
             inkscape:connector-curvature="0"
             id="path21"
             d="m 146.354,104.833 c -27.67,0 -50.123,22.453 -50.123,50.124 l 0,42.117 c 0,27.671 22.453,50.123 50.123,50.123 l 42.117,0 c 27.671,0 50.124,-22.452 50.124,-50.123 l 0,-42.117 c 0,-27.67 -22.452,-50.124 -50.124,-50.124 l -42.117,0 z m 0,1.906 42.117,0 c 26.644,0 48.219,21.577 48.219,48.218 l 0,42.117 c 0,26.644 -21.577,48.218 -48.219,48.218 l -42.117,0 c -26.642,0 -48.218,-21.574 -48.218,-48.218 l 0,-42.117 c 0,-26.642 21.577,-48.218 48.218,-48.218 z" /><path
             style="fill:#f4f4f4"
             inkscape:connector-curvature="0"
             id="polygon23"
             d="m 69.499,75.694 0,0.952 0,202.961 0,0.952 0.953,0 196.122,0 0.952,0 0,-0.952 0,-26.401 289.521,0 0.952,0 0,-0.952 0,-113.458 0,-0.953 -0.952,0 -289.522,0 0,-61.196 0,-0.952 -0.952,0 -196.122,0 -0.952,-10e-4 0,0 z m 1.904,1.905 194.217,0 0,61.196 0,0.953 0.953,0 0.714,0 288.807,0 0,111.552 -289.226,0 -0.297,0 -0.953,0 0,0.953 0,26.4 -194.217,0 0,-201.055 0.002,0.001 z" /><path
             style="fill:#f4f4f4"
             inkscape:connector-curvature="0"
             id="circle25"
             d="m 400.692,169.126 c -19.762,0 -35.777,16.046 -35.777,35.807 0,19.761 16.018,35.807 35.777,35.807 19.759,0 35.807,-16.046 35.807,-35.807 0,-19.761 -16.047,-35.807 -35.807,-35.807 l 0,0 z m 0,1.905 c 18.73,0 33.901,15.17 33.901,33.902 0,18.732 -15.171,33.902 -33.901,33.902 -18.731,0 -33.872,-15.171 -33.872,-33.902 0,-18.731 15.141,-33.902 33.872,-33.902 l 0,0 z" /><path
             style="fill:#f4f4f4"
             inkscape:connector-curvature="0"
             id="circle27"
             d="m 400.692,177.669 c -15.039,0 -27.234,12.227 -27.234,27.265 0,15.038 12.195,27.234 27.234,27.234 15.036,0 27.264,-12.196 27.264,-27.234 0,-15.038 -12.227,-27.265 -27.264,-27.265 z m 0,1.905 c 14.008,0 25.359,11.351 25.359,25.359 0,14.008 -11.352,25.33 -25.359,25.33 -14.01,0 -25.33,-11.321 -25.33,-25.33 0,-14.009 11.321,-25.359 25.33,-25.359 z" /><path
             style="fill:#f4f4f4"
             inkscape:connector-curvature="0"
             id="circle29"
             d="m 489.919,169.126 c -19.762,0 -35.807,16.046 -35.807,35.807 0,19.761 16.045,35.807 35.807,35.807 19.76,0 35.807,-16.046 35.807,-35.807 0,-19.761 -16.047,-35.807 -35.807,-35.807 l 0,0 z m 0,1.905 c 18.73,0 33.901,15.17 33.901,33.902 0,18.732 -15.171,33.902 -33.901,33.902 -18.731,0 -33.902,-15.171 -33.902,-33.902 0,-18.731 15.171,-33.902 33.902,-33.902 l 0,0 z" /><path
             style="fill:#f4f4f4"
             inkscape:connector-curvature="0"
             id="circle31"
             d="m 489.919,177.669 c -15.039,0 -27.234,12.227 -27.234,27.265 0,15.038 12.195,27.234 27.234,27.234 15.036,0 27.234,-12.196 27.234,-27.234 0,-15.038 -12.196,-27.265 -27.234,-27.265 z m 0,1.905 c 14.008,0 25.329,11.351 25.329,25.359 0,14.008 -11.321,25.33 -25.329,25.33 -14.01,0 -25.33,-11.321 -25.33,-25.33 0,-14.009 11.32,-25.359 25.33,-25.359 z" /><path
             style="fill:#f4f4f4"
             inkscape:connector-curvature="0"
             id="path33"
             d="m 39.406,68.432 c -4.766,0 -8.662,3.896 -8.662,8.662 l 0,203.084 c 0,4.766 3.897,8.661 8.662,8.661 l 518.646,0 c 4.429,0 7.956,-3.411 8.453,-7.709 l 0.179,0 0,-0.952 0,-203.085 c 0,-4.762 -3.868,-8.658 -8.64,-8.658 l -518.645,0 0.007,-0.003 z m 0,1.904 518.646,0 c 3.737,0 6.727,3.021 6.727,6.757 l 0,202.131 0,0.953 c 0,3.736 -2.989,6.756 -6.727,6.756 l -518.646,0 c -3.732,0.01 -6.753,-3.019 -6.753,-6.753 l 0,-203.083 c 0,-3.736 3.02,-6.756 6.756,-6.756 l -0.003,-0.005 z" /><path
             style="fill:#f4f4f4"
             inkscape:connector-curvature="0"
             id="rect35"
             d="m 359.021,163.559 0,0.953 0,81.465 0,0.952 0.953,0 81.465,0 0.953,0 0,-0.952 0,-81.465 0,-0.953 -0.953,0 -81.465,0 -0.953,0 z m 1.906,1.905 79.561,0 0,79.56 -79.561,0 0,-79.56 z" /><path
             style="fill:#f4f4f4"
             inkscape:connector-curvature="0"
             id="rect37"
             d="m 448.248,163.559 0,0.953 0,81.465 0,0.952 0.953,0 81.436,0 0.952,0 0,-0.952 0,-81.465 0,-0.953 -0.952,0 -81.436,0 -0.953,0 z m 1.905,1.905 79.531,0 0,79.56 -79.531,0 0,-79.56 z" /><path
             style="fill:#f4f4f4"
             inkscape:connector-curvature="0"
             id="polyline39"
             d="m 83.934,94.177 0,2.292 0,159.061 0,2.322 1.607,-1.638 25.33,-25.299 -1.369,-1.369 -23.663,23.692 0,-154.45 23.663,23.658 1.369,-1.34 -25.33,-25.299 -1.607,-1.637 0,0.007 z" /><path
             style="fill:#f4f4f4"
             inkscape:connector-curvature="0"
             id="polyline41"
             d="m 222.305,232.551 -1.37,1.339 23.693,23.692 -154.452,0 23.574,-23.573 -1.369,-1.339 -25.181,25.182 -1.637,1.637 2.292,0 159.062,0 2.292,0 -1.607,-1.637 -25.299,-25.3 0.002,-0.001 z" /><path
             style="fill:#f4f4f4"
             inkscape:connector-curvature="0"
             id="polyline43"
             d="m 250.878,94.177 -1.637,1.637 -25.211,25.182 1.369,1.369 23.574,-23.603 0,154.509 -23.633,-23.663 -1.339,1.34 25.24,25.27 1.637,1.638 0,-2.322 0,-159.063 0,-2.292 0,-0.002 z" /><path
             style="fill:#f4f4f4"
             inkscape:connector-curvature="0"
             id="polyline45"
             d="m 85.57,92.54 1.638,1.608 25.21,25.24 1.339,-1.34 -23.572,-23.602 154.452,0 -23.669,23.662 1.333,1.339 25.307,-25.3 1.607,-1.607 -2.292,0 -159.062,0 -2.291,0 0,0 z" /><path
             style="fill:#f4f4f4"
             inkscape:connector-curvature="0"
             id="line47"
             d="m 58.961,69.533 0,218.057 1.905,0 0,-218.057 -1.905,0 z" /><path
             style="fill:#f4f4f4"
             inkscape:connector-curvature="0"
             id="rect49"
             d="m 359.021,145.819 0,0.953 0,13.244 0,0.953 0.953,0 81.465,0 0.953,0 0,-0.953 0,-13.244 0,-0.953 -0.953,0 -81.465,0 -0.953,0 z m 1.906,1.905 79.561,0 0,11.339 -79.561,0 0,-11.339 z" /><path
             style="fill:#f4f4f4"
             inkscape:connector-curvature="0"
             id="rect51"
             d="m 448.248,145.819 0,0.953 0,13.244 0,0.953 0.953,0 81.436,0 0.952,0 0,-0.953 0,-13.244 0,-0.953 -0.952,0 -81.436,0 -0.953,0 z m 1.905,1.905 79.531,0 0,11.339 -79.531,0 0,-11.339 z" /><path
             style="fill:#f4f4f4"
             inkscape:connector-curvature="0"
             id="path53"
             d="m 276.804,73.134 c -0.987,0 -1.815,0.828 -1.815,1.816 l 0,53.01 c 0,0.988 0.829,1.815 1.815,1.815 l 282.855,0 c 0.985,0 1.785,-0.831 1.785,-1.815 l 0,-50.033 c 0,-2.641 -2.152,-4.792 -4.792,-4.792 l -279.844,0 -0.004,0 z m 0.09,1.906 279.756,0 c 1.613,0 2.888,1.275 2.888,2.887 l 0,49.945 -282.643,0 0,-52.832 -10e-4,0 z" /><path
             style="fill:#f4f4f4"
             inkscape:connector-curvature="0"
             id="path55"
             d="m 276.804,260.41 c -0.987,0 -1.815,0.829 -1.815,1.815 l 0,20.091 c 0,0.987 0.829,1.816 1.815,1.816 l 279.844,0 c 2.64,0 4.792,-2.183 4.792,-4.822 l 0,-17.085 c 0,-0.985 -0.8,-1.815 -1.785,-1.815 l -282.855,0 0.004,0 z m 0.09,1.905 282.645,0 0,16.995 c 0,1.611 -1.276,2.917 -2.888,2.917 l -279.758,0 0.001,-19.912 0,0 z" /><path
             style="fill:#f4f4f4"
             inkscape:connector-curvature="0"
             id="line57"
             d="m 274.461,129.271 -6.28,6.28 1.369,1.339 6.251,-6.25 -1.34,-1.369 z" /><path
             style="fill:#f4f4f4"
             inkscape:connector-curvature="0"
             id="line59"
             d="m 269.546,253.866 -1.369,1.34 6.281,6.28 1.339,-1.369 -6.251,-6.251 z" /></g></g></g></g><g
     inkscape:groupmode="layer"
     id="layer4"
     inkscape:label="Controller"
     style="display:inline"><g
       id="g4994"
       transform="matrix(0.58981985,-0.41978944,-0.51684605,0.95767205,205.61847,150.7967)"><path
         d="m 122.598,85.096 c -20.463,0 -39.631,5.67 -55.979,15.504 l 0.982,1.607 C 83.662,92.545 102.485,87 122.598,87 c 58.999,0 106.813,47.811 106.813,106.812 0,43.56 -26.068,81.02 -63.448,97.642 l 0.773,1.727 c 38.051,-16.923 64.579,-55.05 64.579,-99.365 0,-60.027 -48.687,-108.717 -108.717,-108.717 l 0,-0.003 z"
         id="path3-2"
         inkscape:connector-curvature="0"
         style="fill:#f4f4f4" /><path
         d="m 251.371,166.311 c -5.066,0 -9.196,4.132 -9.196,9.196 0,5.067 4.13,9.196 9.196,9.196 l 19.999,0 c 5.066,0 9.196,-4.129 9.196,-9.196 0,-5.065 -4.13,-9.196 -9.196,-9.196 l -19.999,0 z m 0,1.904 19.999,0 c 4.037,0 7.292,3.257 7.292,7.292 0,4.038 -3.255,7.292 -7.292,7.292 l -19.999,0 c -4.036,0 -7.292,-3.254 -7.292,-7.292 0,-4.035 3.255,-7.292 7.292,-7.292 z"
         id="path5-5"
         inkscape:connector-curvature="0"
         style="fill:#f4f4f4" /><path
         d="m 298.263,59.889 c -53.215,0 -102.584,4.418 -143.324,11.963 -40.715,7.541 -72.803,18.156 -91.571,30.771 -0.011,0.007 -0.02,0.022 -0.03,0.03 l -0.357,0.208 0,0.03 c -29.565,19.43 -49.1,52.896 -49.1,90.914 0,60.025 48.687,108.717 108.717,108.717 16.731,0 32.593,-3.781 46.753,-10.535 l 0.089,-0.06 0.06,-0.06 0.06,-0.029 c 36.176,-17.553 79.873,-28.659 132.667,-28.659 l 2.738,0 c 52.799,0 96.498,11.106 132.667,28.659 0.032,0.016 0.059,0.044 0.09,0.06 l 0.06,0.029 c 0.009,0.004 0.022,-0.004 0.029,0 l 0.03,0.06 c 14.161,6.755 30.021,10.535 46.754,10.535 60.025,0 108.717,-48.687 108.717,-108.717 0,-38.02 -19.534,-71.489 -49.104,-90.917 l 0,-0.03 -0.357,-0.208 c -0.012,-0.007 -0.019,-0.022 -0.03,-0.03 C 525.07,90.008 492.987,79.393 452.265,71.852 411.525,64.308 362.157,59.889 308.941,59.889 l -10.656,0 -0.022,0 z m 0,1.904 10.654,0 c 53.11,0 102.365,4.415 142.963,11.933 40.599,7.519 72.549,18.165 90.888,30.504 l 0.03,0.03 0.357,0.208 c 0.011,0.008 0.018,0.021 0.029,0.03 29.033,19.091 48.211,51.957 48.211,89.31 0,58.998 -47.811,106.812 -106.813,106.812 -16.396,0 -31.919,-3.697 -45.801,-10.297 l -0.03,-0.028 c -0.02,-0.011 -0.039,-0.021 -0.06,-0.03 l -0.029,0 -0.066,-0.028 c -36.465,-17.733 -80.5,-28.961 -133.648,-28.961 l -2.738,0 c -53.152,0 -97.213,11.229 -133.687,28.957 l -0.03,0.029 -0.03,0 -0.089,0.06 -0.06,0.03 c -13.865,6.581 -29.367,10.267 -45.741,10.267 -59.001,0 -106.813,-47.807 -106.813,-106.813 0,-37.35 19.178,-70.213 48.211,-89.305 0.012,-0.007 0.019,-0.022 0.029,-0.03 l 0.357,-0.208 0.03,-0.03 C 82.726,91.893 114.678,81.247 155.275,73.729 195.872,66.21 245.136,61.795 298.237,61.795 l 0.026,-0.002 z"
         id="path7-0"
         inkscape:connector-curvature="0"
         style="fill:#f4f4f4" /><path
         d="m 484.595,85.096 c -60.028,0 -108.717,48.687 -108.717,108.717 0,44.319 26.528,82.446 64.578,99.365 l 0.773,-1.727 c -37.369,-16.627 -63.443,-54.091 -63.443,-97.65 0,-58.999 47.81,-106.813 106.813,-106.813 20.112,0 38.936,5.546 54.996,15.208 l 0.981,-1.6 C 524.234,90.763 505.064,85.092 484.598,85.092 l -0.003,0.004 z"
         id="path9-4"
         inkscape:connector-curvature="0"
         style="fill:#f4f4f4" /><path
         d="m 335.822,166.311 c -5.064,0 -9.195,4.132 -9.195,9.196 0,5.067 4.131,9.196 9.195,9.196 l 19.999,0 c 5.065,0 9.195,-4.13 9.195,-9.196 0,-5.064 -4.13,-9.196 -9.195,-9.196 l -19.999,0 z m 0,1.904 19.999,0 c 4.037,0 7.291,3.257 7.291,7.292 0,4.038 -3.254,7.292 -7.291,7.292 l -19.999,0 c -4.035,0 -7.291,-3.254 -7.291,-7.292 0,-4.035 3.256,-7.292 7.291,-7.292 z"
         id="path11-7"
         inkscape:connector-curvature="0"
         style="fill:#f4f4f4" /><g
         id="g13"><path
           id="path4973"
           d="m 95.819,171.386 c 0,-26.145 21.194,-47.337 47.339,-47.337 l 0,0 0,0.951 0,0.953 c -12.549,0 -23.902,5.084 -32.127,13.308 l 0,0 c -8.222,8.224 -13.306,19.576 -13.306,32.125 l 0,0 c 0,12.549 5.084,23.901 13.306,32.125 l 0,0 c 8.226,8.224 19.578,13.308 32.127,13.308 l 0,0 c 12.549,0 23.902,-5.084 32.125,-13.308 l 0,0 c 8.224,-8.224 13.308,-19.576 13.308,-32.125 l 0,0 c 0,-12.549 -5.084,-23.902 -13.308,-32.125 l 0,0 c -8.223,-8.224 -19.576,-13.308 -32.125,-13.308 l 0,0 0,-0.953 0,-0.951 c 26.144,0 47.336,21.192 47.338,47.337 l 0,0 c -0.002,26.144 -21.194,47.336 -47.338,47.338 l 0,0 C 117.014,218.722 95.819,197.529 95.819,171.386 l 0,0 z"
           inkscape:connector-curvature="0"
           style="fill:#f4f4f4" /><path
           id="path4975"
           d="m 130.323,216.261 0,-29.646 c 0,-0.936 -0.215,-1.517 -0.508,-1.839 l 0,0 c -0.292,-0.318 -0.742,-0.545 -1.645,-0.552 l 0,0 -29.748,0 0,-1.906 29.748,0 c 1.234,-0.007 2.337,0.369 3.064,1.188 l 0,0 c 0.725,0.816 0.994,1.907 0.994,3.109 l 0,0 0,29.646 -1.905,0 0,0 z"
           inkscape:connector-curvature="0"
           style="fill:#f4f4f4" /><path
           id="path4977"
           d="m 98.359,160.455 0,-1.904 29.536,0 c 1.092,0.002 1.672,-0.229 1.948,-0.49 l 0,0 c 0.275,-0.254 0.472,-0.691 0.478,-1.597 l 0,0 0,-29.848 1.904,0 0,29.848 c 0.006,1.166 -0.281,2.249 -1.092,2.996 l 0,0 c -0.813,0.741 -1.921,0.993 -3.238,0.995 l 0,0 -29.536,0 0,0 z"
           inkscape:connector-curvature="0"
           style="fill:#f4f4f4" /><path
           id="path4979"
           d="m 155.155,159.324 c -0.775,-0.776 -1.067,-1.841 -1.065,-2.929 l 0,0 0,-29.845 0.002,0 1.904,0 0,29.846 c 0.002,0.782 0.195,1.271 0.505,1.58 l 0,0 c 0.312,0.312 0.866,0.573 1.921,0.577 l 0,0 29.645,0 0,1.905 -29.645,0 c -0.008,0 -0.015,0 -0.023,0 l 0,0 c -1.348,-0.001 -2.475,-0.363 -3.244,-1.134 l 0,0 z"
           inkscape:connector-curvature="0"
           style="fill:#f4f4f4" /><path
           id="path4981"
           d="m 154.091,216.26 0,-29.611 c -0.004,-1.298 0.326,-2.436 1.12,-3.229 l 0,0 c 0.795,-0.793 1.916,-1.105 3.145,-1.104 l 0,0 29.61,0.003 0,1.904 -29.61,0 c -0.944,0.002 -1.481,0.226 -1.797,0.544 l 0,0 c -0.318,0.317 -0.558,0.869 -0.562,1.882 l 0,0 0,29.611 -1.906,0 0,0 z"
           inkscape:connector-curvature="0"
           style="fill:#f4f4f4" /></g><path
         d="m 143.158,161.13 c -5.653,0 -10.267,4.614 -10.267,10.266 0,5.653 4.614,10.237 10.267,10.237 5.653,0 10.267,-4.584 10.267,-10.237 0,-5.653 -4.613,-10.266 -10.267,-10.266 z m 0,1.904 c 4.624,0 8.363,3.739 8.363,8.362 0,4.624 -3.739,8.333 -8.363,8.333 -4.624,0 -8.362,-3.709 -8.362,-8.333 0,-4.624 3.739,-8.362 8.362,-8.362 z"
         id="circle25-7"
         inkscape:connector-curvature="0"
         style="fill:#f4f4f4" /><path
         d="m 143.158,104.291 c -37.047,0 -67.109,30.062 -67.109,67.109 0,37.047 30.062,67.08 67.109,67.08 37.048,0 67.109,-30.032 67.109,-67.08 0.001,-37.047 -30.062,-67.109 -67.109,-67.109 z m 0,1.904 c 36.018,0 65.205,29.186 65.205,65.204 0,36.018 -29.186,65.176 -65.205,65.176 -36.018,0 -65.205,-29.157 -65.205,-65.176 10e-4,-36.017 29.187,-65.204 65.205,-65.204 z"
         id="circle27-1"
         inkscape:connector-curvature="0"
         style="fill:#f4f4f4" /><path
         d="m 429.036,185.062 c -13.567,0 -24.611,11.015 -24.611,24.581 0,13.567 11.043,24.612 24.611,24.612 13.566,0 24.58,-11.044 24.58,-24.612 0,-13.567 -11.013,-24.581 -24.58,-24.581 z m 0,1.904 c 12.538,0 22.676,10.141 22.676,22.677 0,12.538 -10.139,22.707 -22.676,22.707 -12.538,0 -22.707,-10.169 -22.707,-22.707 0,-12.538 10.169,-22.677 22.707,-22.677 z"
         id="circle29-9"
         inkscape:connector-curvature="0"
         style="fill:#f4f4f4" /><path
         d="m 472.747,146.759 c -13.566,0 -24.581,11.014 -24.581,24.581 0,13.566 11.015,24.581 24.581,24.581 13.567,0 24.581,-11.015 24.581,-24.581 0,-13.567 -11.014,-24.581 -24.581,-24.581 z m 0,1.904 c 12.538,0 22.677,10.139 22.677,22.677 0,12.538 -10.14,22.677 -22.677,22.677 -12.539,0 -22.677,-10.14 -22.677,-22.677 0,-12.539 10.14,-22.677 22.677,-22.677 z"
         id="circle31-6"
         inkscape:connector-curvature="0"
         style="fill:#f4f4f4" /><path
         d="m 524.649,119.319 c -13.567,0 -24.582,11.014 -24.582,24.582 0,13.566 11.015,24.611 24.582,24.611 13.566,0 24.58,-11.044 24.58,-24.611 0,-13.568 -11.013,-24.582 -24.58,-24.582 z m 0,1.904 c 12.537,0 22.677,10.14 22.677,22.678 0,12.538 -10.141,22.706 -22.677,22.706 -12.539,0 -22.678,-10.168 -22.678,-22.706 10e-4,-12.539 10.141,-22.678 22.678,-22.678 z"
         id="circle33"
         inkscape:connector-curvature="0"
         style="fill:#f4f4f4" /><path
         d="m 315.081,262.467 0,3.987 -22.975,0 0,-3.958 -1.905,0 0,4.911 0,0.952 0.953,0 24.88,0 0.952,0 0,-0.952 0,-4.94 -1.905,0 z"
         id="polyline35"
         inkscape:connector-curvature="0"
         style="fill:#f4f4f4" /><path
         d="m 359.603,265.856 -1.515,1.162 c 5.073,6.614 13.05,10.862 22.022,10.862 4.678,0 9.107,-1.168 12.976,-3.214 L 392.192,273 c -3.602,1.905 -7.719,2.976 -12.082,2.976 -8.37,0 -15.779,-3.956 -20.506,-10.118 l -10e-4,-0.002 z"
         id="path37"
         inkscape:connector-curvature="0"
         style="fill:#f4f4f4" /></g></g></svg>