<?xml version="1.0" encoding="UTF-8" standalone="no"?>
<!-- Generator: Adobe Illustrator 13.0.0, SVG Export Plug-In . SVG Version: 6.00 Build 14948)  -->

<svg
   xmlns:dc="http://purl.org/dc/elements/1.1/"
   xmlns:cc="http://creativecommons.org/ns#"
   xmlns:rdf="http://www.w3.org/1999/02/22-rdf-syntax-ns#"
   xmlns:svg="http://www.w3.org/2000/svg"
   xmlns="http://www.w3.org/2000/svg"
   xmlns:sodipodi="http://sodipodi.sourceforge.net/DTD/sodipodi-0.dtd"
   xmlns:inkscape="http://www.inkscape.org/namespaces/inkscape"
   version="1.1"
   id="Layer_2"
   x="0px"
   y="0px"
   width="550"
   height="550"
   viewBox="0 0 549.99995 549.99999"
   enable-background="new 0 0 598.189 350.26"
   xml:space="preserve"
   inkscape:version="0.91 r13725"
   sodipodi:docname="controller_gg.svg"><metadata
     id="metadata3083"><rdf:RDF><cc:Work
         rdf:about=""><dc:format>image/svg+xml</dc:format><dc:type
           rdf:resource="http://purl.org/dc/dcmitype/StillImage" /><dc:title /></cc:Work></rdf:RDF></metadata><defs
     id="defs3081" /><sodipodi:namedview
     pagecolor="#ffffff"
     bordercolor="#666666"
     borderopacity="1"
     objecttolerance="10"
     gridtolerance="10"
     guidetolerance="10"
     inkscape:pageopacity="0"
     inkscape:pageshadow="2"
     inkscape:window-width="1920"
     inkscape:window-height="1001"
     id="namedview3079"
     showgrid="false"
     inkscape:zoom="1.0799262"
     inkscape:cx="364.51987"
     inkscape:cy="360.47793"
     inkscape:window-x="-9"
     inkscape:window-y="759"
     inkscape:window-maximized="1"
     inkscape:current-layer="layer4"
     showguides="true"
     inkscape:guide-bbox="true" /><g
     inkscape:groupmode="layer"
     id="layer4"
     inkscape:label="Controller"
     style="display:inline"
     sodipodi:insensitive="true"><g
       id="g4994"
       transform="matrix(0.58981985,-0.41978944,-0.51684605,0.95767205,205.61847,150.7967)"><path
         d="m 122.598,85.096 c -20.463,0 -39.631,5.67 -55.979,15.504 l 0.982,1.607 C 83.662,92.545 102.485,87 122.598,87 c 58.999,0 106.813,47.811 106.813,106.812 0,43.56 -26.068,81.02 -63.448,97.642 l 0.773,1.727 c 38.051,-16.923 64.579,-55.05 64.579,-99.365 0,-60.027 -48.687,-108.717 -108.717,-108.717 l 0,-0.003 z"
         id="path3-2"
         inkscape:connector-curvature="0"
         style="fill:#f4f4f4" /><path
         d="m 251.371,166.311 c -5.066,0 -9.196,4.132 -9.196,9.196 0,5.067 4.13,9.196 9.196,9.196 l 19.999,0 c 5.066,0 9.196,-4.129 9.196,-9.196 0,-5.065 -4.13,-9.196 -9.196,-9.196 l -19.999,0 z m 0,1.904 19.999,0 c 4.037,0 7.292,3.257 7.292,7.292 0,4.038 -3.255,7.292 -7.292,7.292 l -19.999,0 c -4.036,0 -7.292,-3.254 -7.292,-7.292 0,-4.035 3.255,-7.292 7.292,-7.292 z"
         id="path5-5"
         inkscape:connector-curvature="0"
         style="fill:#f4f4f4" /><path
         d="m 298.263,59.889 c -53.215,0 -102.584,4.418 -143.324,11.963 -40.715,7.541 -72.803,18.156 -91.571,30.771 -0.011,0.007 -0.02,0.022 -0.03,0.03 l -0.357,0.208 0,0.03 c -29.565,19.43 -49.1,52.896 -49.1,90.914 0,60.025 48.687,108.717 108.717,108.717 16.731,0 32.593,-3.781 46.753,-10.535 l 0.089,-0.06 0.06,-0.06 0.06,-0.029 c 36.176,-17.553 79.873,-28.659 132.667,-28.659 l 2.738,0 c 52.799,0 96.498,11.106 132.667,28.659 0.032,0.016 0.059,0.044 0.09,0.06 l 0.06,0.029 c 0.009,0.004 0.022,-0.004 0.029,0 l 0.03,0.06 c 14.161,6.755 30.021,10.535 46.754,10.535 60.025,0 108.717,-48.687 108.717,-108.717 0,-38.02 -19.534,-71.489 -49.104,-90.917 l 0,-0.03 -0.357,-0.208 c -0.012,-0.007 -0.019,-0.022 -0.03,-0.03 C 525.07,90.008 492.987,79.393 452.265,71.852 411.525,64.308 362.157,59.889 308.941,59.889 l -10.656,0 -0.022,0 z m 0,1.904 10.654,0 c 53.11,0 102.365,4.415 142.963,11.933 40.599,7.519 72.549,18.165 90.888,30.504 l 0.03,0.03 0.357,0.208 c 0.011,0.008 0.018,0.021 0.029,0.03 29.033,19.091 48.211,51.957 48.211,89.31 0,58.998 -47.811,106.812 -106.813,106.812 -16.396,0 -31.919,-3.697 -45.801,-10.297 l -0.03,-0.028 c -0.02,-0.011 -0.039,-0.021 -0.06,-0.03 l -0.029,0 -0.066,-0.028 c -36.465,-17.733 -80.5,-28.961 -133.648,-28.961 l -2.738,0 c -53.152,0 -97.213,11.229 -133.687,28.957 l -0.03,0.029 -0.03,0 -0.089,0.06 -0.06,0.03 c -13.865,6.581 -29.367,10.267 -45.741,10.267 -59.001,0 -106.813,-47.807 -106.813,-106.813 0,-37.35 19.178,-70.213 48.211,-89.305 0.012,-0.007 0.019,-0.022 0.029,-0.03 l 0.357,-0.208 0.03,-0.03 C 82.726,91.893 114.678,81.247 155.275,73.729 195.872,66.21 245.136,61.795 298.237,61.795 l 0.026,-0.002 z"
         id="path7-0"
         inkscape:connector-curvature="0"
         style="fill:#f4f4f4" /><path
         d="m 484.595,85.096 c -60.028,0 -108.717,48.687 -108.717,108.717 0,44.319 26.528,82.446 64.578,99.365 l 0.773,-1.727 c -37.369,-16.627 -63.443,-54.091 -63.443,-97.65 0,-58.999 47.81,-106.813 106.813,-106.813 20.112,0 38.936,5.546 54.996,15.208 l 0.981,-1.6 C 524.234,90.763 505.064,85.092 484.598,85.092 l -0.003,0.004 z"
         id="path9-4"
         inkscape:connector-curvature="0"
         style="fill:#f4f4f4" /><path
         d="m 335.822,166.311 c -5.064,0 -9.195,4.132 -9.195,9.196 0,5.067 4.131,9.196 9.195,9.196 l 19.999,0 c 5.065,0 9.195,-4.13 9.195,-9.196 0,-5.064 -4.13,-9.196 -9.195,-9.196 l -19.999,0 z m 0,1.904 19.999,0 c 4.037,0 7.291,3.257 7.291,7.292 0,4.038 -3.254,7.292 -7.291,7.292 l -19.999,0 c -4.035,0 -7.291,-3.254 -7.291,-7.292 0,-4.035 3.256,-7.292 7.291,-7.292 z"
         id="path11-7"
         inkscape:connector-curvature="0"
         style="fill:#f4f4f4" /><g
         id="g13"><path
           id="path4973"
           d="m 95.819,171.386 c 0,-26.145 21.194,-47.337 47.339,-47.337 l 0,0 0,0.951 0,0.953 c -12.549,0 -23.902,5.084 -32.127,13.308 l 0,0 c -8.222,8.224 -13.306,19.576 -13.306,32.125 l 0,0 c 0,12.549 5.084,23.901 13.306,32.125 l 0,0 c 8.226,8.224 19.578,13.308 32.127,13.308 l 0,0 c 12.549,0 23.902,-5.084 32.125,-13.308 l 0,0 c 8.224,-8.224 13.308,-19.576 13.308,-32.125 l 0,0 c 0,-12.549 -5.084,-23.902 -13.308,-32.125 l 0,0 c -8.223,-8.224 -19.576,-13.308 -32.125,-13.308 l 0,0 0,-0.953 0,-0.951 c 26.144,0 47.336,21.192 47.338,47.337 l 0,0 c -0.002,26.144 -21.194,47.336 -47.338,47.338 l 0,0 C 117.014,218.722 95.819,197.529 95.819,171.386 l 0,0 z"
           inkscape:connector-curvature="0"
           style="fill:#f4f4f4" /><path
           id="path4975"
           d="m 130.323,216.261 0,-29.646 c 0,-0.936 -0.215,-1.517 -0.508,-1.839 l 0,0 c -0.292,-0.318 -0.742,-0.545 -1.645,-0.552 l 0,0 -29.748,0 0,-1.906 29.748,0 c 1.234,-0.007 2.337,0.369 3.064,1.188 l 0,0 c 0.725,0.816 0.994,1.907 0.994,3.109 l 0,0 0,29.646 -1.905,0 0,0 z"
           inkscape:connector-curvature="0"
           style="fill:#f4f4f4" /><path
           id="path4977"
           d="m 98.359,160.455 0,-1.904 29.536,0 c 1.092,0.002 1.672,-0.229 1.948,-0.49 l 0,0 c 0.275,-0.254 0.472,-0.691 0.478,-1.597 l 0,0 0,-29.848 1.904,0 0,29.848 c 0.006,1.166 -0.281,2.249 -1.092,2.996 l 0,0 c -0.813,0.741 -1.921,0.993 -3.238,0.995 l 0,0 -29.536,0 0,0 z"
           inkscape:connector-curvature="0"
           style="fill:#f4f4f4" /><path
           id="path4979"
           d="m 155.155,159.324 c -0.775,-0.776 -1.067,-1.841 -1.065,-2.929 l 0,0 0,-29.845 0.002,0 1.904,0 0,29.846 c 0.002,0.782 0.195,1.271 0.505,1.58 l 0,0 c 0.312,0.312 0.866,0.573 1.921,0.577 l 0,0 29.645,0 0,1.905 -29.645,0 c -0.008,0 -0.015,0 -0.023,0 l 0,0 c -1.348,-0.001 -2.475,-0.363 -3.244,-1.134 l 0,0 z"
           inkscape:connector-curvature="0"
           style="fill:#f4f4f4" /><path
           id="path4981"
           d="m 154.091,216.26 0,-29.611 c -0.004,-1.298 0.326,-2.436 1.12,-3.229 l 0,0 c 0.795,-0.793 1.916,-1.105 3.145,-1.104 l 0,0 29.61,0.003 0,1.904 -29.61,0 c -0.944,0.002 -1.481,0.226 -1.797,0.544 l 0,0 c -0.318,0.317 -0.558,0.869 -0.562,1.882 l 0,0 0,29.611 -1.906,0 0,0 z"
           inkscape:connector-curvature="0"
           style="fill:#f4f4f4" /></g><path
         d="m 143.158,161.13 c -5.653,0 -10.267,4.614 -10.267,10.266 0,5.653 4.614,10.237 10.267,10.237 5.653,0 10.267,-4.584 10.267,-10.237 0,-5.653 -4.613,-10.266 -10.267,-10.266 z m 0,1.904 c 4.624,0 8.363,3.739 8.363,8.362 0,4.624 -3.739,8.333 -8.363,8.333 -4.624,0 -8.362,-3.709 -8.362,-8.333 0,-4.624 3.739,-8.362 8.362,-8.362 z"
         id="circle25-7"
         inkscape:connector-curvature="0"
         style="fill:#f4f4f4" /><path
         d="m 143.158,104.291 c -37.047,0 -67.109,30.062 -67.109,67.109 0,37.047 30.062,67.08 67.109,67.08 37.048,0 67.109,-30.032 67.109,-67.08 0.001,-37.047 -30.062,-67.109 -67.109,-67.109 z m 0,1.904 c 36.018,0 65.205,29.186 65.205,65.204 0,36.018 -29.186,65.176 -65.205,65.176 -36.018,0 -65.205,-29.157 -65.205,-65.176 10e-4,-36.017 29.187,-65.204 65.205,-65.204 z"
         id="circle27-1"
         inkscape:connector-curvature="0"
         style="fill:#f4f4f4" /><path
         d="m 429.036,185.062 c -13.567,0 -24.611,11.015 -24.611,24.581 0,13.567 11.043,24.612 24.611,24.612 13.566,0 24.58,-11.044 24.58,-24.612 0,-13.567 -11.013,-24.581 -24.58,-24.581 z m 0,1.904 c 12.538,0 22.676,10.141 22.676,22.677 0,12.538 -10.139,22.707 -22.676,22.707 -12.538,0 -22.707,-10.169 -22.707,-22.707 0,-12.538 10.169,-22.677 22.707,-22.677 z"
         id="circle29-9"
         inkscape:connector-curvature="0"
         style="fill:#f4f4f4" /><path
         d="m 472.747,146.759 c -13.566,0 -24.581,11.014 -24.581,24.581 0,13.566 11.015,24.581 24.581,24.581 13.567,0 24.581,-11.015 24.581,-24.581 0,-13.567 -11.014,-24.581 -24.581,-24.581 z m 0,1.904 c 12.538,0 22.677,10.139 22.677,22.677 0,12.538 -10.14,22.677 -22.677,22.677 -12.539,0 -22.677,-10.14 -22.677,-22.677 0,-12.539 10.14,-22.677 22.677,-22.677 z"
         id="circle31-6"
         inkscape:connector-curvature="0"
         style="fill:#f4f4f4" /><path
         d="m 524.649,119.319 c -13.567,0 -24.582,11.014 -24.582,24.582 0,13.566 11.015,24.611 24.582,24.611 13.566,0 24.58,-11.044 24.58,-24.611 0,-13.568 -11.013,-24.582 -24.58,-24.582 z m 0,1.904 c 12.537,0 22.677,10.14 22.677,22.678 0,12.538 -10.141,22.706 -22.677,22.706 -12.539,0 -22.678,-10.168 -22.678,-22.706 10e-4,-12.539 10.141,-22.678 22.678,-22.678 z"
         id="circle33"
         inkscape:connector-curvature="0"
         style="fill:#f4f4f4" /><path
         d="m 315.081,262.467 0,3.987 -22.975,0 0,-3.958 -1.905,0 0,4.911 0,0.952 0.953,0 24.88,0 0.952,0 0,-0.952 0,-4.94 -1.905,0 z"
         id="polyline35"
         inkscape:connector-curvature="0"
         style="fill:#f4f4f4" /><path
         d="m 359.603,265.856 -1.515,1.162 c 5.073,6.614 13.05,10.862 22.022,10.862 4.678,0 9.107,-1.168 12.976,-3.214 L 392.192,273 c -3.602,1.905 -7.719,2.976 -12.082,2.976 -8.37,0 -15.779,-3.956 -20.506,-10.118 l -10e-4,-0.002 z"
         id="path37"
         inkscape:connector-curvature="0"
         style="fill:#f4f4f4" /></g></g></svg>