<?xml version="1.0" encoding="UTF-8" standalone="no"?>
<!-- Generator: Adobe Illustrator 13.0.0, SVG Export Plug-In . SVG Version: 6.00 Build 14948)  -->

<svg
   xmlns:dc="http://purl.org/dc/elements/1.1/"
   xmlns:cc="http://creativecommons.org/ns#"
   xmlns:rdf="http://www.w3.org/1999/02/22-rdf-syntax-ns#"
   xmlns:svg="http://www.w3.org/2000/svg"
   xmlns="http://www.w3.org/2000/svg"
   xmlns:sodipodi="http://sodipodi.sourceforge.net/DTD/sodipodi-0.dtd"
   xmlns:inkscape="http://www.inkscape.org/namespaces/inkscape"
   version="1.1"
   id="Layer_2"
   x="0px"
   y="0px"
   width="550"
   height="550"
   viewBox="0 0 549.99995 549.99999"
   enable-background="new 0 0 598.189 350.26"
   xml:space="preserve"
   inkscape:version="0.91 r13725"
   sodipodi:docname="controller_gg.svg"><metadata
     id="metadata3083"><rdf:RDF><cc:Work
         rdf:about=""><dc:format>image/svg+xml</dc:format><dc:type
           rdf:resource="http://purl.org/dc/dcmitype/StillImage" /><dc:title></dc:title></cc:Work></rdf:RDF></metadata><defs
     id="defs3081" /><sodipodi:namedview
     pagecolor="#ffffff"
     bordercolor="#666666"
     borderopacity="1"
     objecttolerance="10"
     gridtolerance="10"
     guidetolerance="10"
     inkscape:pageopacity="0"
     inkscape:pageshadow="2"
     inkscape:window-width="1920"
     inkscape:window-height="1001"
     id="namedview3079"
     showgrid="false"
     inkscape:zoom="1.0799262"
     inkscape:cx="248.77122"
     inkscape:cy="298.43665"
     inkscape:window-x="-9"
     inkscape:window-y="-9"
     inkscape:window-maximized="1"
     inkscape:current-layer="g12192"
     showguides="true"
     inkscape:guide-bbox="true" /><g
     inkscape:groupmode="layer"
     id="layer2"
     inkscape:label="Screen_Rect"
     style="display:none"
     transform="translate(0,199.73999)"
     sodipodi:insensitive="true"><path
       style="fill:#0000ff;stroke:#000000;stroke-width:1px;stroke-linecap:butt;stroke-linejoin:miter;stroke-opacity:1"
       d="M 5.0135033,547.22203 136.4109,114.39023 653.54628,-189.09358 406.482,260.92121 Z"
       id="path3021"
       inkscape:connector-curvature="0"
       transform="translate(-2e-5,-199.73999)"
       sodipodi:nodetypes="ccccc" /><rect
       style="opacity:0.60100002;fill:#d8201f;fill-opacity:1;stroke:#ff8080;stroke-width:2.45114732;stroke-linecap:round;stroke-linejoin:round;stroke-miterlimit:4;stroke-dasharray:none;stroke-opacity:1"
       id="rect4230"
       width="444.2457"
       height="9.9567661"
       x="145.95099"
       y="-211.30678" /></g><g
     inkscape:groupmode="layer"
     id="layer1"
     inkscape:label="Controller_Vorlage"
     style="display:none"
     sodipodi:insensitive="true"><g
       id="g4929"
       transform="translate(-0.929149,0.5695451)"><g
         transform="translate(0,199.73999)"
         style="display:none"
         inkscape:label="Layer2"
         id="layer2-9"><path
           sodipodi:nodetypes="ccccc"
           transform="translate(-2e-5,-199.73999)"
           inkscape:connector-curvature="0"
           id="path3021-0"
           d="M 5.0135033,547.22203 136.4109,114.39023 653.54628,-189.09358 406.482,260.92121 Z"
           style="fill:#ffffff;stroke:#000000;stroke-width:1px;stroke-linecap:butt;stroke-linejoin:miter;stroke-opacity:1" /></g><g
         inkscape:label="Layer"
         id="layer1-2"><g
           transform="matrix(0.55322035,-0.3970343,-0.34863416,0.85569517,173.63773,166.52161)"
           id="g3100"><path
             style="fill:#f4f4f4"
             inkscape:connector-curvature="0"
             id="path3"
             d="m 148.05,114.447 c -23.656,0 -42.861,19.204 -42.861,42.861 l 0,37.414 c 0,23.658 19.205,42.86 42.861,42.86 l 38.694,0 c 23.656,0 42.861,-19.202 42.861,-42.86 l 0,-37.414 c 0,-23.657 -19.205,-42.861 -42.861,-42.861 l -38.694,0 z m 0,1.905 38.694,0 c 22.627,0 40.956,18.328 40.956,40.956 l 0,37.414 c 0,22.629 -18.329,40.956 -40.956,40.956 l -38.694,0 c -22.628,0 -40.956,-18.327 -40.956,-40.956 l 0,-37.414 c 0,-22.629 18.328,-40.956 40.956,-40.956 z" /><path
             style="fill:#f4f4f4"
             inkscape:connector-curvature="0"
             id="path5"
             d="m 167.395,123.168 c -3.23,0 -5.863,2.633 -5.863,5.864 l 0,13.037 c 0,3.23 2.632,5.863 5.863,5.863 3.23,0 5.863,-2.633 5.863,-5.863 l 0,-13.037 c 0,-3.23 -2.633,-5.864 -5.863,-5.864 z m 0,1.906 c 2.201,0 3.958,1.758 3.958,3.958 l 0,13.037 c 0,2.2 -1.758,3.958 -3.958,3.958 -2.202,0 -3.958,-1.758 -3.958,-3.958 l 0,-13.037 c -0.001,-2.2 1.757,-3.958 3.958,-3.958 z" /><path
             style="fill:#f4f4f4"
             inkscape:connector-curvature="0"
             id="path7"
             d="m 120.425,170.135 c -3.23,0 -5.864,2.633 -5.864,5.864 0,3.231 2.632,5.894 5.864,5.894 l 13.037,0 c 3.229,0 5.864,-2.662 5.864,-5.894 0,-3.229 -2.633,-5.864 -5.864,-5.864 l -13.037,0 z m 0,1.905 13.037,0 c 2.201,0 3.959,1.759 3.959,3.959 0,2.201 -1.759,3.988 -3.959,3.988 l -13.037,0 c -2.198,-0.01 -3.955,-1.791 -3.955,-3.99 0,-2.201 1.758,-3.959 3.958,-3.959 l -0.003,0.002 z" /><path
             style="fill:#f4f4f4"
             inkscape:connector-curvature="0"
             id="path9"
             d="m 167.395,204.071 c -3.23,0 -5.863,2.663 -5.863,5.894 l 0,13.038 c 0,3.229 2.632,5.863 5.863,5.863 3.23,0 5.863,-2.633 5.863,-5.863 l 0,-13.038 c 0,-3.23 -2.633,-5.894 -5.863,-5.894 z m 0,1.906 c 2.201,0 3.958,1.789 3.958,3.988 l 0,13.038 c 0,2.2 -1.757,3.958 -3.958,3.958 -2.202,0 -3.958,-1.759 -3.958,-3.958 l 0,-13.038 c -0.001,-2.2 1.757,-3.988 3.958,-3.988 z" /><path
             style="fill:#f4f4f4"
             inkscape:connector-curvature="0"
             id="path11"
             d="m 201.321,170.135 c -3.229,0 -5.863,2.633 -5.863,5.864 0,3.231 2.633,5.894 5.863,5.894 l 13.067,0 c 3.229,0 5.863,-2.662 5.863,-5.894 0,-3.229 -2.633,-5.864 -5.863,-5.864 l -13.067,0 z m 0,1.905 13.067,0 c 2.2,0 3.958,1.76 3.958,3.959 0,2.201 -1.758,3.988 -3.958,3.988 l -13.067,0 c -2.2,0 -3.958,-1.788 -3.958,-3.988 0,-2.2 1.759,-3.959 3.958,-3.959 z" /><path
             style="fill:#f4f4f4"
             inkscape:connector-curvature="0"
             id="polygon13"
             d="m 133.878,141.176 -1.31,1.31 8.155,12.025 0.655,0.952 0.804,-0.803 3.869,-3.87 0.804,-0.804 -0.953,-0.655 -12.024,-8.155 z" /><path
             style="fill:#f4f4f4"
             inkscape:connector-curvature="0"
             id="polygon15"
             d="m 141.383,196.566 -0.654,0.952 -8.156,12.024 1.31,1.31 12.025,-8.155 0.953,-0.654 -0.804,-0.804 -3.87,-3.869 -0.804,-0.804 z" /><path
             style="fill:#f4f4f4"
             inkscape:connector-curvature="0"
             id="polygon17"
             d="m 193.435,196.566 -0.804,0.804 -3.869,3.869 -0.833,0.804 0.953,0.654 12.025,8.155 1.339,-1.31 -8.156,-12.024 -0.655,-0.952 0,0 z" /><path
             style="fill:#f4f4f4"
             inkscape:connector-curvature="0"
             id="polygon19"
             d="m 200.912,141.176 -12.025,8.155 -0.953,0.655 0.833,0.804 3.87,3.87 0.804,0.803 0.655,-0.952 8.155,-12.025 -1.339,-1.31 z" /><path
             style="fill:#f4f4f4"
             inkscape:connector-curvature="0"
             id="path21"
             d="m 146.354,104.833 c -27.67,0 -50.123,22.453 -50.123,50.124 l 0,42.117 c 0,27.671 22.453,50.123 50.123,50.123 l 42.117,0 c 27.671,0 50.124,-22.452 50.124,-50.123 l 0,-42.117 c 0,-27.67 -22.452,-50.124 -50.124,-50.124 l -42.117,0 z m 0,1.906 42.117,0 c 26.644,0 48.219,21.577 48.219,48.218 l 0,42.117 c 0,26.644 -21.577,48.218 -48.219,48.218 l -42.117,0 c -26.642,0 -48.218,-21.574 -48.218,-48.218 l 0,-42.117 c 0,-26.642 21.577,-48.218 48.218,-48.218 z" /><path
             style="fill:#f4f4f4"
             inkscape:connector-curvature="0"
             id="polygon23"
             d="m 69.499,75.694 0,0.952 0,202.961 0,0.952 0.953,0 196.122,0 0.952,0 0,-0.952 0,-26.401 289.521,0 0.952,0 0,-0.952 0,-113.458 0,-0.953 -0.952,0 -289.522,0 0,-61.196 0,-0.952 -0.952,0 -196.122,0 -0.952,-10e-4 0,0 z m 1.904,1.905 194.217,0 0,61.196 0,0.953 0.953,0 0.714,0 288.807,0 0,111.552 -289.226,0 -0.297,0 -0.953,0 0,0.953 0,26.4 -194.217,0 0,-201.055 0.002,0.001 z" /><path
             style="fill:#f4f4f4"
             inkscape:connector-curvature="0"
             id="circle25"
             d="m 400.692,169.126 c -19.762,0 -35.777,16.046 -35.777,35.807 0,19.761 16.018,35.807 35.777,35.807 19.759,0 35.807,-16.046 35.807,-35.807 0,-19.761 -16.047,-35.807 -35.807,-35.807 l 0,0 z m 0,1.905 c 18.73,0 33.901,15.17 33.901,33.902 0,18.732 -15.171,33.902 -33.901,33.902 -18.731,0 -33.872,-15.171 -33.872,-33.902 0,-18.731 15.141,-33.902 33.872,-33.902 l 0,0 z" /><path
             style="fill:#f4f4f4"
             inkscape:connector-curvature="0"
             id="circle27"
             d="m 400.692,177.669 c -15.039,0 -27.234,12.227 -27.234,27.265 0,15.038 12.195,27.234 27.234,27.234 15.036,0 27.264,-12.196 27.264,-27.234 0,-15.038 -12.227,-27.265 -27.264,-27.265 z m 0,1.905 c 14.008,0 25.359,11.351 25.359,25.359 0,14.008 -11.352,25.33 -25.359,25.33 -14.01,0 -25.33,-11.321 -25.33,-25.33 0,-14.009 11.321,-25.359 25.33,-25.359 z" /><path
             style="fill:#f4f4f4"
             inkscape:connector-curvature="0"
             id="circle29"
             d="m 489.919,169.126 c -19.762,0 -35.807,16.046 -35.807,35.807 0,19.761 16.045,35.807 35.807,35.807 19.76,0 35.807,-16.046 35.807,-35.807 0,-19.761 -16.047,-35.807 -35.807,-35.807 l 0,0 z m 0,1.905 c 18.73,0 33.901,15.17 33.901,33.902 0,18.732 -15.171,33.902 -33.901,33.902 -18.731,0 -33.902,-15.171 -33.902,-33.902 0,-18.731 15.171,-33.902 33.902,-33.902 l 0,0 z" /><path
             style="fill:#f4f4f4"
             inkscape:connector-curvature="0"
             id="circle31"
             d="m 489.919,177.669 c -15.039,0 -27.234,12.227 -27.234,27.265 0,15.038 12.195,27.234 27.234,27.234 15.036,0 27.234,-12.196 27.234,-27.234 0,-15.038 -12.196,-27.265 -27.234,-27.265 z m 0,1.905 c 14.008,0 25.329,11.351 25.329,25.359 0,14.008 -11.321,25.33 -25.329,25.33 -14.01,0 -25.33,-11.321 -25.33,-25.33 0,-14.009 11.32,-25.359 25.33,-25.359 z" /><path
             style="fill:#f4f4f4"
             inkscape:connector-curvature="0"
             id="path33"
             d="m 39.406,68.432 c -4.766,0 -8.662,3.896 -8.662,8.662 l 0,203.084 c 0,4.766 3.897,8.661 8.662,8.661 l 518.646,0 c 4.429,0 7.956,-3.411 8.453,-7.709 l 0.179,0 0,-0.952 0,-203.085 c 0,-4.762 -3.868,-8.658 -8.64,-8.658 l -518.645,0 0.007,-0.003 z m 0,1.904 518.646,0 c 3.737,0 6.727,3.021 6.727,6.757 l 0,202.131 0,0.953 c 0,3.736 -2.989,6.756 -6.727,6.756 l -518.646,0 c -3.732,0.01 -6.753,-3.019 -6.753,-6.753 l 0,-203.083 c 0,-3.736 3.02,-6.756 6.756,-6.756 l -0.003,-0.005 z" /><path
             style="fill:#f4f4f4"
             inkscape:connector-curvature="0"
             id="rect35"
             d="m 359.021,163.559 0,0.953 0,81.465 0,0.952 0.953,0 81.465,0 0.953,0 0,-0.952 0,-81.465 0,-0.953 -0.953,0 -81.465,0 -0.953,0 z m 1.906,1.905 79.561,0 0,79.56 -79.561,0 0,-79.56 z" /><path
             style="fill:#f4f4f4"
             inkscape:connector-curvature="0"
             id="rect37"
             d="m 448.248,163.559 0,0.953 0,81.465 0,0.952 0.953,0 81.436,0 0.952,0 0,-0.952 0,-81.465 0,-0.953 -0.952,0 -81.436,0 -0.953,0 z m 1.905,1.905 79.531,0 0,79.56 -79.531,0 0,-79.56 z" /><path
             style="fill:#f4f4f4"
             inkscape:connector-curvature="0"
             id="polyline39"
             d="m 83.934,94.177 0,2.292 0,159.061 0,2.322 1.607,-1.638 25.33,-25.299 -1.369,-1.369 -23.663,23.692 0,-154.45 23.663,23.658 1.369,-1.34 -25.33,-25.299 -1.607,-1.637 0,0.007 z" /><path
             style="fill:#f4f4f4"
             inkscape:connector-curvature="0"
             id="polyline41"
             d="m 222.305,232.551 -1.37,1.339 23.693,23.692 -154.452,0 23.574,-23.573 -1.369,-1.339 -25.181,25.182 -1.637,1.637 2.292,0 159.062,0 2.292,0 -1.607,-1.637 -25.299,-25.3 0.002,-0.001 z" /><path
             style="fill:#f4f4f4"
             inkscape:connector-curvature="0"
             id="polyline43"
             d="m 250.878,94.177 -1.637,1.637 -25.211,25.182 1.369,1.369 23.574,-23.603 0,154.509 -23.633,-23.663 -1.339,1.34 25.24,25.27 1.637,1.638 0,-2.322 0,-159.063 0,-2.292 0,-0.002 z" /><path
             style="fill:#f4f4f4"
             inkscape:connector-curvature="0"
             id="polyline45"
             d="m 85.57,92.54 1.638,1.608 25.21,25.24 1.339,-1.34 -23.572,-23.602 154.452,0 -23.669,23.662 1.333,1.339 25.307,-25.3 1.607,-1.607 -2.292,0 -159.062,0 -2.291,0 0,0 z" /><path
             style="fill:#f4f4f4"
             inkscape:connector-curvature="0"
             id="line47"
             d="m 58.961,69.533 0,218.057 1.905,0 0,-218.057 -1.905,0 z" /><path
             style="fill:#f4f4f4"
             inkscape:connector-curvature="0"
             id="rect49"
             d="m 359.021,145.819 0,0.953 0,13.244 0,0.953 0.953,0 81.465,0 0.953,0 0,-0.953 0,-13.244 0,-0.953 -0.953,0 -81.465,0 -0.953,0 z m 1.906,1.905 79.561,0 0,11.339 -79.561,0 0,-11.339 z" /><path
             style="fill:#f4f4f4"
             inkscape:connector-curvature="0"
             id="rect51"
             d="m 448.248,145.819 0,0.953 0,13.244 0,0.953 0.953,0 81.436,0 0.952,0 0,-0.953 0,-13.244 0,-0.953 -0.952,0 -81.436,0 -0.953,0 z m 1.905,1.905 79.531,0 0,11.339 -79.531,0 0,-11.339 z" /><path
             style="fill:#f4f4f4"
             inkscape:connector-curvature="0"
             id="path53"
             d="m 276.804,73.134 c -0.987,0 -1.815,0.828 -1.815,1.816 l 0,53.01 c 0,0.988 0.829,1.815 1.815,1.815 l 282.855,0 c 0.985,0 1.785,-0.831 1.785,-1.815 l 0,-50.033 c 0,-2.641 -2.152,-4.792 -4.792,-4.792 l -279.844,0 -0.004,0 z m 0.09,1.906 279.756,0 c 1.613,0 2.888,1.275 2.888,2.887 l 0,49.945 -282.643,0 0,-52.832 -10e-4,0 z" /><path
             style="fill:#f4f4f4"
             inkscape:connector-curvature="0"
             id="path55"
             d="m 276.804,260.41 c -0.987,0 -1.815,0.829 -1.815,1.815 l 0,20.091 c 0,0.987 0.829,1.816 1.815,1.816 l 279.844,0 c 2.64,0 4.792,-2.183 4.792,-4.822 l 0,-17.085 c 0,-0.985 -0.8,-1.815 -1.785,-1.815 l -282.855,0 0.004,0 z m 0.09,1.905 282.645,0 0,16.995 c 0,1.611 -1.276,2.917 -2.888,2.917 l -279.758,0 0.001,-19.912 0,0 z" /><path
             style="fill:#f4f4f4"
             inkscape:connector-curvature="0"
             id="line57"
             d="m 274.461,129.271 -6.28,6.28 1.369,1.339 6.251,-6.25 -1.34,-1.369 z" /><path
             style="fill:#f4f4f4"
             inkscape:connector-curvature="0"
             id="line59"
             d="m 269.546,253.866 -1.369,1.34 6.281,6.28 1.339,-1.369 -6.251,-6.251 z" /></g></g></g></g><g
     inkscape:groupmode="layer"
     id="layer4"
     inkscape:label="Controller"><g
       id="g12192"
       transform="matrix(0.52634968,-0.38371487,-0.36199415,0.79024751,151.0404,222.06172)"><g
         id="g15433"
         transform="matrix(0.93961254,0.03496045,0.14338245,0.96348081,10.737014,-76.315)"><path
           id="path15335"
           d="M 38.671,88.637"
           inkscape:connector-curvature="0"
           style="fill:#f4f4f4" /><path
           id="path15337"
           d="m 39.845,85.162 c 0.893,-1.426 4.216,-6.902 6.056,-9.507 l 0,0 c 4.764,-7.16 12.915,-11.879 22.161,-11.879 l 0,0 38.659,0 0,2.001 -38.659,0 C 59.507,65.775 51.979,70.139 47.55,76.786 l 0,0 c -1.775,2.513 -5.108,7.996 -6.009,9.435 l 0,0 0,0.002 -1.696,-1.061 0,0 z"
           inkscape:connector-curvature="0"
           style="fill:#f4f4f4" /><path
           id="path15339"
           d="m 68.982,303.271 c -9.246,0 -17.395,-4.717 -22.143,-11.855 l 0,0 c -1.858,-2.626 -5.181,-8.103 -6.072,-9.529 l 0,0 1.695,-1.061 c 0.9,1.44 4.232,6.924 6.023,9.459 l 0,0 c 4.412,6.625 11.941,10.988 20.496,10.986 l 0,0 38.661,0.002 0,2 -38.66,-0.002 0,0 z"
           inkscape:connector-curvature="0"
           style="fill:#f4f4f4" /><path
           id="path15341"
           d="M 37.646,90.07"
           inkscape:connector-curvature="0"
           style="fill:#f4f4f4" /><path
           id="path15343"
           d="M 38.671,279.343"
           inkscape:connector-curvature="0"
           style="fill:#f4f4f4" /><path
           id="path15345"
           d="M 37.646,277.911"
           inkscape:connector-curvature="0"
           style="fill:#f4f4f4" /><path
           id="path15347"
           d="M 556.966,88.637"
           inkscape:connector-curvature="0"
           style="fill:#f4f4f4" /><path
           id="path15349"
           d="m 548.069,76.762 c -4.41,-6.624 -11.938,-10.987 -20.496,-10.987 l 0,0 -38.658,0 0,-2 38.658,0 c 9.249,0 17.398,4.72 22.146,11.856 l 0,0 c 1.857,2.627 5.18,8.104 6.072,9.528 l 0,0 0,0.002 -1.693,1.06 c -0.904,-1.44 -4.235,-6.923 -6.029,-9.459 l 0,0 z"
           inkscape:connector-curvature="0"
           style="fill:#f4f4f4" /><path
           id="path15351"
           d="M 557.99,90.07"
           inkscape:connector-curvature="0"
           style="fill:#f4f4f4" /><path
           id="path15353"
           d="M 556.966,279.343"
           inkscape:connector-curvature="0"
           style="fill:#f4f4f4" /><path
           id="path15355"
           d="M 557.99,277.911"
           inkscape:connector-curvature="0"
           style="fill:#f4f4f4" /><path
           id="path15357"
           d="m 132.685,272.844 c -1.739,0 -3.151,-1.409 -3.151,-3.15 l 0,0 0,-187.714 c 0,-1.741 1.41,-3.151 3.151,-3.151 l 0,0 330.268,0 c 1.741,0 3.148,1.41 3.15,3.151 l 0,0 0,187.713 -0.002,0 c 0,1.741 -1.41,3.15 -3.148,3.15 l 0,0 -330.268,0 0,10e-4 z m -1.152,-190.864 0,187.713 c 0.002,0.636 0.514,1.149 1.152,1.149 l 0,0 330.268,0.002 c 0.636,-0.002 1.147,-0.516 1.149,-1.151 l 0,0 0,-187.713 c -0.002,-0.636 -0.517,-1.149 -1.149,-1.151 l 0,0 -330.268,0 c -0.636,0.002 -1.15,0.515 -1.152,1.151 l 0,0 z"
           inkscape:connector-curvature="0"
           style="fill:#f4f4f4" /><path
           id="path15359"
           d="m 103.197,121.587 c -2.269,0 -4.109,-1.84 -4.109,-4.109 0,-2.27 1.84,-4.109 4.109,-4.109 l 6.758,0 c 2.27,0 4.109,1.839 4.109,4.109 0,2.269 -1.839,4.109 -4.109,4.109 l -6.758,0 z"
           inkscape:connector-curvature="0"
           style="fill:#f4f4f4" /><path
           id="path15361"
           d="m 486.167,121.587 c -2.27,0 -4.109,-1.84 -4.109,-4.109 0,-2.27 1.84,-4.109 4.109,-4.109 l 6.759,0 c 2.27,0 4.109,1.839 4.109,4.109 0,2.269 -1.84,4.109 -4.109,4.109 l -6.759,0 z"
           inkscape:connector-curvature="0"
           style="fill:#f4f4f4" /><path
           id="path15363"
           d="m 242.617,291.092 c -1.046,0 -1.894,-0.849 -1.894,-1.893 0,-1.049 0.848,-1.896 1.894,-1.896 l 4.455,0 c 1.046,0 1.895,0.848 1.895,1.896 0,1.044 -0.848,1.893 -1.895,1.893 l -4.455,0 z"
           inkscape:connector-curvature="0"
           style="fill:#f4f4f4" /><path
           id="path15365"
           d="m 53.491,246.307 c 0.002,-11.773 9.545,-21.316 21.316,-21.318 l 0,0 c 11.773,0.002 21.314,9.545 21.316,21.318 l 0,0 c -0.002,11.771 -9.543,21.315 -21.316,21.318 l 0,0 C 63.036,267.622 53.493,258.078 53.491,246.307 l 0,0 z m 2.002,0 c 0.019,10.667 8.649,19.297 19.314,19.315 l 0,0 c 10.667,-0.019 19.297,-8.648 19.316,-19.315 l 0,0 C 94.104,235.639 85.474,227.009 74.807,226.991 l 0,0 c -10.665,0.018 -19.295,8.648 -19.314,19.316 l 0,0 z"
           inkscape:connector-curvature="0"
           style="fill:#f4f4f4" /><path
           id="path15367"
           d="m 27.977,227.222 c 0,1.738 -1.409,3.147 -3.148,3.147 -1.739,0 -3.149,-1.409 -3.149,-3.147 0,-1.741 1.41,-3.15 3.149,-3.15 1.739,0 3.148,1.408 3.148,3.15 z"
           inkscape:connector-curvature="0"
           style="fill:#f4f4f4" /><path
           id="path15369"
           d="M 30.528,168.618"
           inkscape:connector-curvature="0"
           style="fill:#f4f4f4" /><path
           id="path15371"
           d="M 111.022,168.618"
           inkscape:connector-curvature="0"
           style="fill:#f4f4f4" /><path
           id="path15373"
           d="M 60.201,147.086"
           inkscape:connector-curvature="0"
           style="fill:#f4f4f4" /><g
           id="g15375"><path
             id="path15377"
             d="m 71.049,163.092 c -1.24,0 -2.392,-0.439 -3.282,-1.172 l 0,0 -0.043,-0.035 -9.49,-9.753 c -0.796,-0.907 -1.281,-2.106 -1.281,-3.41 l 0,0 0,-16.369 c 0,-0.866 0.351,-1.659 0.942,-2.258 l 0,0 c 0.361,-0.345 0.893,-0.731 1.599,-0.908 l 0,0 c 3.708,-1.014 7.604,-1.381 11.555,-1.381 l 0,0 0.152,0 c 3.954,0 7.85,0.368 11.547,1.377 l 0,0 c 0.714,0.181 1.248,0.566 1.638,0.94 l 0,0 c 0.563,0.571 0.911,1.365 0.911,2.229 l 0,0 0,16.369 c 0,1.302 -0.482,2.502 -1.315,3.451 l 0,0 -9.451,9.708 -0.045,0.039 c -0.893,0.731 -2.042,1.172 -3.284,1.172 l 0,0 0,-1 0,-1 c 0.757,-0.002 1.44,-0.26 1.988,-0.698 l 0,0 9.323,-9.578 c 0.491,-0.561 0.784,-1.287 0.784,-2.094 l 0,0 0,-16.369 c 0,-0.329 -0.125,-0.612 -0.306,-0.796 l 0,0 c -0.252,-0.228 -0.404,-0.341 -0.759,-0.439 l 0,0 c -3.479,-0.953 -7.201,-1.312 -11.03,-1.312 l 0,0 -0.152,0 c -3.829,0 -7.548,0.359 -11.038,1.313 l 0,0 c -0.347,0.097 -0.499,0.208 -0.718,0.407 l 0,0 c -0.211,0.217 -0.339,0.501 -0.339,0.827 l 0,0 0,16.369 c 0,0.805 0.296,1.534 0.75,2.055 l 0,0 9.369,9.626 c 0.544,0.432 1.227,0.689 1.977,0.689 l 0,0 0.152,0 0,1 0,1 -0.154,0 0,0.001 z"
             inkscape:connector-curvature="0"
             style="fill:#f4f4f4" /><path
             id="path15379"
             d="m 59.5,208.407 c -0.712,-0.182 -1.243,-0.565 -1.639,-0.941 l 0,0 c -0.558,-0.569 -0.908,-1.362 -0.908,-2.228 l 0,0 0,-16.369 c 0,-1.303 0.485,-2.502 1.317,-3.45 l 0,0 9.451,-9.709 0.048,-0.039 c 0.89,-0.729 2.04,-1.17 3.28,-1.17 l 0,0 0,1.001 0,1 c -0.751,0 -1.433,0.256 -1.978,0.688 l 0,0 -9.331,9.586 c -0.492,0.562 -0.787,1.288 -0.787,2.094 l 0,0 0,16.369 c 0,0.326 0.128,0.611 0.305,0.797 l 0,0 c 0.252,0.228 0.407,0.341 0.762,0.442 l 0,0 c 3.48,0.949 7.199,1.309 11.028,1.309 l 0,0 0.153,0 c 3.828,0 7.548,-0.359 11.037,-1.312 l 0,0 c 0.347,-0.099 0.502,-0.212 0.719,-0.406 l 0,0 c 0.212,-0.219 0.338,-0.504 0.34,-0.83 l 0,0 0,-16.369 c -0.002,-0.806 -0.295,-1.532 -0.75,-2.053 l 0,0 -9.369,-9.628 c -0.543,-0.432 -1.229,-0.688 -1.977,-0.688 l 0,0 -0.153,0 0,-1 0,-0.999 0.153,-0.002 c 1.241,0 2.391,0.442 3.283,1.17 l 0,0 0.043,0.035 9.489,9.752 c 0.797,0.909 1.282,2.108 1.282,3.411 l 0,0 -0.002,16.369 c 0.002,0.865 -0.349,1.658 -0.941,2.261 l 0,0 c -0.361,0.345 -0.892,0.727 -1.598,0.906 l 0,0 c -3.706,1.014 -7.604,1.379 -11.555,1.379 l 0,0 -0.153,0.002 C 67.097,209.784 63.2,209.419 59.5,208.407 l 0,0 z"
             inkscape:connector-curvature="0"
             style="fill:#f4f4f4" /><path
             id="path15381"
             d="m 91.199,182.966 c -1.303,0.002 -2.5,-0.481 -3.451,-1.313 l 0,0 -9.714,-9.459 L 78,172.155 c -0.73,-0.891 -1.171,-2.042 -1.171,-3.282 l 0,0 0,-0.152 c 0,-1.241 0.44,-2.391 1.171,-3.282 l 0,0 0.033,-0.041 9.756,-9.493 c 0.909,-0.796 2.107,-1.28 3.41,-1.28 l 0,0 16.37,0 c 0.866,0 1.658,0.35 2.261,0.942 l 0,0 c 0.344,0.362 0.727,0.893 0.903,1.597 l 0,0 c 1.015,3.708 1.383,7.604 1.383,11.557 l 0,0 0,0.152 c 0,3.953 -0.368,7.848 -1.378,11.545 l 0,0 c -0.181,0.715 -0.566,1.247 -0.938,1.639 l 0,0 c -0.574,0.565 -1.369,0.911 -2.23,0.911 l 0,0 -16.371,-0.002 0,0 z m -2.095,-2.782 c 0.562,0.488 1.288,0.782 2.095,0.782 l 0,0 16.37,0.002 c 0.329,-0.002 0.613,-0.128 0.796,-0.305 l 0,0 c 0.228,-0.255 0.339,-0.405 0.44,-0.764 l 0,0 c 0.951,-3.479 1.311,-7.197 1.311,-11.027 l 0,0 0,-0.152 c 0,-3.83 -0.36,-7.548 -1.313,-11.038 l 0,0 c -0.099,-0.348 -0.21,-0.5 -0.405,-0.72 l 0,0 c -0.216,-0.209 -0.504,-0.337 -0.829,-0.337 l 0,0 -16.37,0 c -0.805,0 -1.531,0.294 -2.056,0.749 l 0,0 -9.625,9.369 c -0.433,0.545 -0.687,1.225 -0.688,1.978 l 0,0 0,0.152 c 0.002,0.752 0.255,1.434 0.688,1.977 l 0,0 9.586,9.334 0,0 z"
             inkscape:connector-curvature="0"
             style="fill:#f4f4f4" /><path
             id="path15383"
             d="m 34.683,182.966 c -0.864,0.002 -1.656,-0.346 -2.261,-0.94 l 0,0 c -0.342,-0.36 -0.727,-0.893 -0.903,-1.597 l 0,0 c -1.015,-3.708 -1.383,-7.604 -1.383,-11.556 l 0,0 0,-0.152 c 0,-3.953 0.368,-7.848 1.378,-11.546 l 0,0 c 0.181,-0.716 0.566,-1.247 0.94,-1.64 l 0,0 c 0.57,-0.562 1.364,-0.91 2.229,-0.91 l 0,0 16.37,0 c 1.303,0 2.5,0.483 3.449,1.315 l 0,0 9.713,9.456 0.037,0.043 c 0.73,0.891 1.171,2.04 1.169,3.282 l 0,0 0.002,0.152 c 0,1.241 -0.44,2.391 -1.171,3.282 l 0,0 -0.035,0.041 -9.754,9.492 c -0.91,0.795 -2.107,1.28 -3.41,1.28 l 0,0 -16.37,-0.002 0,0 z m -0.799,-26.035 c -0.227,0.251 -0.337,0.403 -0.438,0.759 l 0,0 c -0.951,3.482 -1.311,7.2 -1.311,11.03 l 0,0 0,0.152 c 0,3.83 0.358,7.547 1.313,11.038 l 0,0 c 0.097,0.346 0.209,0.5 0.405,0.72 l 0,0 c 0.216,0.21 0.502,0.336 0.829,0.336 l 0,0 16.37,0 c 0.805,0 1.531,-0.294 2.054,-0.747 l 0,0 9.618,-9.36 c 0.437,-0.545 0.695,-1.231 0.697,-1.986 l 0,0 0,-0.152 c -0.002,-0.75 -0.258,-1.433 -0.691,-1.98 l 0,0 -9.585,-9.332 c -0.562,-0.49 -1.288,-0.784 -2.093,-0.784 l 0,0 -16.37,0 c -0.327,0 -0.611,0.127 -0.798,0.306 l 0,0 z"
             inkscape:connector-curvature="0"
             style="fill:#f4f4f4" /></g><path
           id="path15385"
           d="m 25.577,168.796 c 0.002,-25.155 20.394,-45.547 45.549,-45.547 l 0,0 c 25.156,0 45.547,20.392 45.547,45.547 l 0,0 c 0,25.155 -20.392,45.547 -45.547,45.549 l 0,0 C 45.971,214.343 25.579,193.951 25.577,168.796 l 0,0 z m 14.756,-30.793 c -7.882,7.883 -12.755,18.764 -12.755,30.792 l 0,0 c 0,12.028 4.873,22.908 12.755,30.792 l 0,0 c 7.883,7.883 18.765,12.756 30.792,12.756 l 0,0 c 12.028,0 22.908,-4.873 30.792,-12.756 l 0,0 c 7.883,-7.884 12.755,-18.764 12.755,-30.792 l 0,0 c 0,-12.028 -4.873,-22.91 -12.755,-30.792 l 0,0 C 94.033,130.121 83.153,125.25 71.125,125.248 l 0,0 c -12.027,0.002 -22.909,4.873 -30.792,12.755 l 0,0 z"
           inkscape:connector-curvature="0"
           style="fill:#f4f4f4" /><g
           id="g15387"><path
             id="path15389"
             d="m 490.574,185.438 1.812,-0.844 c 3.477,7.489 9.425,13.603 16.792,17.281 l 0,0 0.002,0 -0.896,1.79 c -7.774,-3.884 -14.045,-10.327 -17.71,-18.227 l 0,0 z"
             inkscape:connector-curvature="0"
             style="fill:#f4f4f4" /><path
             id="path15391"
             d="m 540.75,202.306 c 7.43,-3.46 13.503,-9.361 17.18,-16.671 l 0,0 0,0.003 1.785,0.896 c -3.879,7.711 -10.279,13.931 -18.119,17.585 l 0,0 -0.846,-1.813 0,0 z"
             inkscape:connector-curvature="0"
             style="fill:#f4f4f4" /><path
             id="path15393"
             d="m 541.691,136.767 0.002,0 0.894,-1.788 c 7.785,3.903 14.056,10.371 17.705,18.301 l 0,0 -1.818,0.835 c -3.456,-7.513 -9.407,-13.651 -16.783,-17.348 l 0,0 z"
             inkscape:connector-curvature="0"
             style="fill:#f4f4f4" /><path
             id="path15395"
             d="m 491.033,152.227 c 3.895,-7.824 10.377,-14.125 18.332,-17.792 l 0,0 0.835,1.816 c -7.537,3.473 -13.687,9.454 -17.377,16.868 l 0,0 -1.79,-0.892 0,0 z"
             inkscape:connector-curvature="0"
             style="fill:#f4f4f4" /></g><path
           id="path15397"
           d="m 508.75,135.847 c 0,-9.491 7.691,-17.182 17.18,-17.182 l 0,0 c 9.488,0 17.18,7.691 17.182,17.182 l 0,0 c -0.002,9.489 -7.693,17.18 -17.182,17.18 l 0,0 c -9.491,0 -17.18,-7.691 -17.18,-17.18 l 0,0 z m 2.001,0 c 0.015,8.384 6.795,15.165 15.179,15.179 l 0,0 c 8.384,-0.015 15.167,-6.795 15.18,-15.179 l 0,0 c -0.013,-8.385 -6.796,-15.167 -15.18,-15.181 l 0,0 c -8.384,0.015 -15.164,6.796 -15.179,15.181 l 0,0 z"
           inkscape:connector-curvature="0"
           style="fill:#f4f4f4" /><path
           id="path15399"
           d="m 541.689,169.829 c 0.002,-9.489 7.693,-17.181 17.181,-17.181 l 0,0 c 9.489,0 17.181,7.691 17.183,17.181 l 0,0 c -0.002,9.487 -7.693,17.179 -17.183,17.181 l 0,0 c -9.487,-0.002 -17.179,-7.694 -17.181,-17.181 l 0,0 z m 2.002,0 c 0.015,8.384 6.797,15.164 15.179,15.181 l 0,0 c 8.385,-0.017 15.166,-6.797 15.181,-15.181 l 0,0 c -0.015,-8.384 -6.796,-15.166 -15.181,-15.181 l 0,0 c -8.382,0.015 -15.164,6.797 -15.179,15.181 l 0,0 z"
           inkscape:connector-curvature="0"
           style="fill:#f4f4f4" /><path
           id="path15401"
           d="m 507.709,202.771 c 0,-9.49 7.689,-17.183 17.18,-17.183 l 0,0 c 9.489,0 17.18,7.692 17.18,17.183 l 0,0 0.002,0 c -0.002,9.487 -7.692,17.18 -17.182,17.18 l 0,0 c -9.491,-0.001 -17.18,-7.693 -17.18,-17.18 l 0,0 z m 2,0 c 0.015,8.384 6.797,15.164 15.18,15.179 l 0,0 c 8.385,-0.015 15.166,-6.795 15.179,-15.179 l 0,0 0.003,0 c -0.016,-8.387 -6.797,-15.167 -15.182,-15.182 l 0,0 c -8.383,0.015 -15.165,6.795 -15.18,15.182 l 0,0 z"
           inkscape:connector-curvature="0"
           style="fill:#f4f4f4" /><path
           id="path15403"
           d="m 474.77,168.788 c 0,-9.488 7.689,-17.18 17.18,-17.18 l 0,0 c 9.488,0 17.178,7.692 17.178,17.18 l 0,0 0.002,0 c -0.002,9.488 -7.691,17.18 -17.18,17.182 l 0,0 c -9.491,-0.002 -17.18,-7.695 -17.18,-17.182 l 0,0 z m 2.001,0 c 0.012,8.383 6.795,15.167 15.179,15.181 l 0,0 c 8.381,-0.015 15.164,-6.798 15.179,-15.181 l 0,0 c -0.015,-8.383 -6.798,-15.165 -15.179,-15.179 l 0,0 c -8.387,0.014 -15.168,6.795 -15.179,15.179 l 0,0 z"
           inkscape:connector-curvature="0"
           style="fill:#f4f4f4" /><path
           id="path15405"
           d="m 174.437,297.155 0,-1.001 0,-1 5.174,0 c 3.18,-0.006 5.752,-2.578 5.758,-5.76 l 0,0 c -0.006,-3.18 -2.579,-5.753 -5.758,-5.757 l 0,0 -5.174,0 c -3.18,0.004 -5.752,2.577 -5.759,5.757 l 0,0 c 0.006,3.18 2.581,5.754 5.759,5.76 l 0,0 0,1 0,1.001 c -4.284,-0.002 -7.757,-3.474 -7.759,-7.761 l 0,0 c 0.002,-4.286 3.476,-7.758 7.759,-7.758 l 0,0 5.174,0 c 4.285,0 7.757,3.472 7.759,7.758 l 0,0 c -0.002,4.285 -3.474,7.759 -7.759,7.761 l 0,0 -5.174,0 0,0 z"
           inkscape:connector-curvature="0"
           style="fill:#f4f4f4" /><path
           id="path15407"
           d="m 212.074,297.155 0,-1.001 0,-1 5.172,0 c 3.18,-0.006 5.754,-2.578 5.758,-5.76 l 0,0 c -0.004,-3.18 -2.579,-5.753 -5.758,-5.757 l 0,0 -5.172,0 c -3.182,0.004 -5.754,2.577 -5.761,5.757 l 0,0 c 0.006,3.182 2.581,5.754 5.761,5.76 l 0,0 0,1 0,1.001 c -4.286,-0.002 -7.759,-3.476 -7.759,-7.761 l 0,0 c 0,-4.286 3.474,-7.758 7.759,-7.758 l 0,0 5.172,0 c 4.286,0 7.759,3.472 7.759,7.758 l 0,0 c 0,4.285 -3.474,7.759 -7.759,7.761 l 0,0 -5.172,0 0,0 z"
           inkscape:connector-curvature="0"
           style="fill:#f4f4f4" /><path
           id="path15409"
           d="m 382.582,297.155 0,-1.001 0,-1 5.175,0 c 3.177,-0.006 5.752,-2.578 5.758,-5.76 l 0,0 c -0.006,-3.18 -2.578,-5.753 -5.758,-5.757 l 0,0 -5.175,0 c -3.18,0.004 -5.754,2.577 -5.759,5.757 l 0,0 c 0.005,3.18 2.581,5.754 5.759,5.76 l 0,0 0,1 0,1.001 c -4.285,-0.002 -7.76,-3.474 -7.76,-7.761 l 0,0 c 0,-4.286 3.477,-7.758 7.76,-7.758 l 0,0 5.175,0 c 4.283,0 7.757,3.472 7.759,7.758 l 0,0 c -0.002,4.285 -3.474,7.759 -7.759,7.761 l 0,0 -5.175,0 0,0 z"
           inkscape:connector-curvature="0"
           style="fill:#f4f4f4" /><path
           id="path15411"
           d="m 358.006,297.155 0,-1.001 0,-1 5.173,0 c 3.18,-0.006 5.754,-2.58 5.758,-5.76 l 0,0 c -0.004,-3.18 -2.578,-5.753 -5.758,-5.757 l 0,0 -5.173,0 c -3.182,0.004 -5.756,2.577 -5.761,5.757 l 0,0 c 0.005,3.182 2.579,5.754 5.761,5.76 l 0,0 0,1 0,1.001 c -4.287,-0.002 -7.761,-3.476 -7.761,-7.761 l 0,0 c 0,-4.286 3.474,-7.758 7.761,-7.758 l 0,0 5.173,0 c 4.283,0 7.759,3.472 7.759,7.758 l 0,0 c 0,4.287 -3.476,7.759 -7.759,7.761 l 0,0 -5.173,0 0,0 z"
           inkscape:connector-curvature="0"
           style="fill:#f4f4f4" /><circle
           id="circle15413"
           r="3.1489999"
           cy="255.362"
           cx="560.80298"
           style="fill:#f4f4f4" /><circle
           id="circle15415"
           r="3.1489999"
           cy="255.408"
           cx="34.889"
           style="fill:#f4f4f4" /><circle
           id="circle15417"
           r="3.1489999"
           cy="229.09399"
           cx="570.73798"
           style="fill:#f4f4f4" /><path
           id="path15419"
           d="m 110.867,303.635 c -3.488,-0.009 -6.423,-1.269 -8.168,-3.02 l 0,0 c -2.173,-2.201 -4.784,-5.297 -7.025,-8.009 l 0,0 c -2.222,-2.692 -4.152,-5.069 -4.68,-5.552 l 0,0 c -2.962,-2.782 -6.878,-4.542 -11.23,-4.542 l 0,0 c 0,0 -28.303,0.077 -37.33,0.077 l 0,0 c -1.22,0 -2.456,-0.435 -3.282,-1.427 l 0,0 C 20.639,258.657 8.702,215.933 8.674,187.604 l 0,0 0,-8.168 C 8.702,151.108 20.639,108.383 39.152,85.877 l 0,0 c 0.824,-0.989 2.062,-1.426 3.282,-1.428 l 0,0 c 9.027,0 37.33,0.079 37.328,0.079 l 0,0 c 4.354,-0.002 8.27,-1.76 11.232,-4.542 l 0,0 c 0.527,-0.485 2.458,-2.862 4.68,-5.552 l 0,0 c 2.241,-2.711 4.852,-5.81 7.025,-8.011 l 0,0 c 1.745,-1.751 4.68,-3.011 8.168,-3.02 l 0,0 374.393,0 c 3.488,0.008 6.423,1.268 8.17,3.02 l 0,0 c 2.173,2.201 4.782,5.299 7.023,8.011 l 0,0 c 2.222,2.69 4.152,5.067 4.68,5.552 l 0,0 c 2.96,2.782 6.878,4.54 11.232,4.542 l 0,0 c 0,0 28.303,-0.079 37.33,-0.079 l 0,0 c 1.218,0.002 2.456,0.438 3.279,1.428 l 0,0 c 18.516,22.505 30.45,65.23 30.48,93.559 l 0,0 0,8.168 c -0.03,28.328 -11.965,71.053 -30.48,93.558 l 0,0 c -0.823,0.992 -2.062,1.427 -3.279,1.427 l 0,0 c -9.027,0 -37.33,-0.077 -37.328,-0.077 l 0,0 c -4.356,0 -8.274,1.76 -11.234,4.542 l 0,0 c -0.527,0.482 -2.458,2.859 -4.68,5.552 l 0,0 c -2.241,2.712 -4.851,5.808 -7.025,8.009 l 0,0 c -1.745,1.751 -4.68,3.011 -8.168,3.02 l 0,0 -374.393,0 0,0 z m 374.393,-2 c 2.99,0.006 5.477,-1.131 6.747,-2.425 l 0,0 c 2.081,-2.106 4.678,-5.182 6.905,-7.878 l 0,0 c 2.252,-2.716 4.057,-4.978 4.851,-5.735 l 0,0 c 3.292,-3.097 7.701,-5.084 12.607,-5.084 l 0,0 c 0.038,0 28.304,0.078 37.325,0.078 l 0,0 c 0.751,0 1.4,-0.28 1.736,-0.7 l 0,0 c 18.073,-21.86 30.05,-64.494 30.021,-92.285 l 0,0 0,-8.168 c 0.029,-27.792 -11.947,-70.425 -30.021,-92.286 l 0,0 c -0.336,-0.419 -0.985,-0.703 -1.736,-0.7 l 0,0 c -9.021,0 -37.287,0.077 -37.328,0.077 l 0,0 c -4.903,0.002 -9.313,-1.986 -12.604,-5.082 l 0,0 c -0.794,-0.758 -2.599,-3.02 -4.851,-5.735 l 0,0 c -2.228,-2.697 -4.824,-5.774 -6.905,-7.879 l 0,0 c -1.271,-1.296 -3.757,-2.432 -6.747,-2.426 l 0,0 -374.393,0 c -2.99,-0.006 -5.476,1.13 -6.744,2.426 l 0,0 c -2.083,2.105 -4.68,5.182 -6.908,7.879 l 0,0 c -2.251,2.715 -4.056,4.978 -4.85,5.735 l 0,0 c -3.292,3.096 -7.702,5.084 -12.607,5.082 l 0,0 c -0.036,0 -28.303,-0.077 -37.324,-0.077 l 0,0 c -0.751,-0.002 -1.4,0.281 -1.739,0.7 l 0,0 c -18.07,21.86 -30.048,64.494 -30.02,92.286 l 0,0 0,8.168 c -0.028,27.791 11.95,70.425 30.02,92.285 l 0,0 c 0.336,0.42 0.985,0.7 1.739,0.698 l 0,0 c 9.021,0.002 37.288,-0.076 37.328,-0.076 l 0,0 c 4.903,0 9.311,1.987 12.603,5.084 l 0,0 c 0.794,0.758 2.599,3.02 4.85,5.735 l 0,0 c 2.229,2.696 4.825,5.771 6.908,7.878 l 0,0 c 1.266,1.294 3.754,2.431 6.744,2.425 l 0,0 374.393,0 0,0 z"
           inkscape:connector-curvature="0"
           style="fill:#f4f4f4" /><path
           id="path15421"
           d="m 126.614,298.96 0,-0.002 0,-0.998 0,-1.001 17.356,0 c 4.24,-0.007 7.671,-3.438 7.68,-7.68 l 0,0 c -0.008,-4.241 -3.439,-7.672 -7.68,-7.678 l 0,0 -17.356,-0.002 c -4.243,0.008 -7.674,3.438 -7.68,7.68 l 0,0 c 0.006,4.242 3.437,7.673 7.68,7.68 l 0,0 0,1.001 0,0.998 c -5.347,0 -9.679,-4.332 -9.679,-9.679 l 0,0 c 0,-5.345 4.333,-9.68 9.679,-9.68 l 0,0 17.356,0 c 5.347,0 9.679,4.335 9.681,9.68 l 0,0 c -0.002,5.347 -4.334,9.679 -9.681,9.681 l 0,0 -17.356,0 0,0 z"
           inkscape:connector-curvature="0"
           style="fill:#f4f4f4" /><path
           id="path15423"
           d="m 451.656,298.958 0,-0.998 0,-1 17.359,0 c 4.239,-0.009 7.673,-3.439 7.681,-7.681 l 0,0 c -0.008,-4.239 -3.441,-7.671 -7.681,-7.679 l 0,0 -17.359,0 c -4.237,0.008 -7.67,3.439 -7.677,7.679 l 0,0 c 0.007,4.241 3.439,7.672 7.677,7.681 l 0,0 0,1 0,0.998 c -5.345,0 -9.677,-4.332 -9.677,-9.679 l 0,0 c 0,-5.345 4.332,-9.679 9.677,-9.679 l 0,0 17.359,0 c 5.345,0 9.679,4.332 9.681,9.679 l 0,0 c -0.002,5.347 -4.336,9.679 -9.681,9.679 l 0,0 -17.359,0 0,0 z"
           inkscape:connector-curvature="0"
           style="fill:#f4f4f4" /><path
           id="path15425"
           d="m 413.256,298.959 0,-1 0,-1.002 17.357,0.003 c 4.238,-0.009 7.671,-3.44 7.679,-7.68 l 0,0 c -0.008,-4.241 -3.44,-7.673 -7.679,-7.679 l 0,0 -17.357,0 c -4.243,0.006 -7.673,3.438 -7.681,7.679 l 0,0 c 0.008,4.241 3.438,7.671 7.681,7.677 l 0,0 0,1.002 0,1 c -5.348,0 -9.681,-4.333 -9.681,-9.679 l 0,0 c 0,-5.347 4.333,-9.68 9.681,-9.68 l 0,0 17.357,0 c 5.345,0 9.678,4.333 9.68,9.68 l 0,0 c -0.002,5.346 -4.335,9.679 -9.68,9.679 l 0,0 -17.357,0 0,0 z"
           inkscape:connector-curvature="0"
           style="fill:#f4f4f4" /></g></g></g></svg>