<?xml version="1.0" encoding="UTF-8" standalone="no"?>
<!-- Generator: Adobe Illustrator 13.0.0, SVG Export Plug-In . SVG Version: 6.00 Build 14948)  -->

<svg
   xmlns:dc="http://purl.org/dc/elements/1.1/"
   xmlns:cc="http://creativecommons.org/ns#"
   xmlns:rdf="http://www.w3.org/1999/02/22-rdf-syntax-ns#"
   xmlns:svg="http://www.w3.org/2000/svg"
   xmlns="http://www.w3.org/2000/svg"
   xmlns:sodipodi="http://sodipodi.sourceforge.net/DTD/sodipodi-0.dtd"
   xmlns:inkscape="http://www.inkscape.org/namespaces/inkscape"
   version="1.1"
   id="Layer_2"
   x="0px"
   y="0px"
   width="550"
   height="550"
   viewBox="0 0 549.99995 549.99999"
   enable-background="new 0 0 598.189 350.26"
   xml:space="preserve"
   inkscape:version="0.91 r13725"
   sodipodi:docname="controller_gg.svg"><metadata
     id="metadata3083"><rdf:RDF><cc:Work
         rdf:about=""><dc:format>image/svg+xml</dc:format><dc:type
           rdf:resource="http://purl.org/dc/dcmitype/StillImage" /><dc:title></dc:title></cc:Work></rdf:RDF></metadata><defs
     id="defs3081" /><sodipodi:namedview
     pagecolor="#ffffff"
     bordercolor="#666666"
     borderopacity="1"
     objecttolerance="10"
     gridtolerance="10"
     guidetolerance="10"
     inkscape:pageopacity="0"
     inkscape:pageshadow="2"
     inkscape:window-width="1920"
     inkscape:window-height="1001"
     id="namedview3079"
     showgrid="false"
     inkscape:zoom="1.0799262"
     inkscape:cx="318.36098"
     inkscape:cy="317.24155"
     inkscape:window-x="-9"
     inkscape:window-y="-9"
     inkscape:window-maximized="1"
     inkscape:current-layer="layer4"
     showguides="true"
     inkscape:guide-bbox="true" /><g
     inkscape:groupmode="layer"
     id="layer2"
     inkscape:label="Screen_Rect"
     style="display:none"
     transform="translate(0,199.73999)"
     sodipodi:insensitive="true"><path
       style="fill:#ffffff;stroke:#000000;stroke-width:1px;stroke-linecap:butt;stroke-linejoin:miter;stroke-opacity:1"
       d="M 5.0135033,547.22203 136.4109,114.39023 653.54628,-189.09358 406.482,260.92121 Z"
       id="path3021"
       inkscape:connector-curvature="0"
       transform="translate(-2e-5,-199.73999)"
       sodipodi:nodetypes="ccccc" /><rect
       style="opacity:0.60100002;fill:#d8201f;fill-opacity:1;stroke:#ff8080;stroke-width:2.45114732;stroke-linecap:round;stroke-linejoin:round;stroke-miterlimit:4;stroke-dasharray:none;stroke-opacity:1"
       id="rect4230"
       width="444.2457"
       height="9.9567661"
       x="145.95099"
       y="-211.30678" /></g><g
     inkscape:groupmode="layer"
     id="layer1"
     inkscape:label="Controller_Vorlage"
     style="display:none"
     sodipodi:insensitive="true"><g
       id="g4929"
       transform="translate(-0.929149,0.5695451)"><g
         transform="translate(0,199.73999)"
         style="display:none"
         inkscape:label="Layer2"
         id="layer2-9"><path
           sodipodi:nodetypes="ccccc"
           transform="translate(-2e-5,-199.73999)"
           inkscape:connector-curvature="0"
           id="path3021-0"
           d="M 5.0135033,547.22203 136.4109,114.39023 653.54628,-189.09358 406.482,260.92121 Z"
           style="fill:#ffffff;stroke:#000000;stroke-width:1px;stroke-linecap:butt;stroke-linejoin:miter;stroke-opacity:1" /></g><g
         inkscape:label="Layer"
         id="layer1-2"><g
           transform="matrix(0.55322035,-0.3970343,-0.34863416,0.85569517,173.63773,166.52161)"
           id="g3100"><path
             style="fill:#f4f4f4"
             inkscape:connector-curvature="0"
             id="path3"
             d="m 148.05,114.447 c -23.656,0 -42.861,19.204 -42.861,42.861 l 0,37.414 c 0,23.658 19.205,42.86 42.861,42.86 l 38.694,0 c 23.656,0 42.861,-19.202 42.861,-42.86 l 0,-37.414 c 0,-23.657 -19.205,-42.861 -42.861,-42.861 l -38.694,0 z m 0,1.905 38.694,0 c 22.627,0 40.956,18.328 40.956,40.956 l 0,37.414 c 0,22.629 -18.329,40.956 -40.956,40.956 l -38.694,0 c -22.628,0 -40.956,-18.327 -40.956,-40.956 l 0,-37.414 c 0,-22.629 18.328,-40.956 40.956,-40.956 z" /><path
             style="fill:#f4f4f4"
             inkscape:connector-curvature="0"
             id="path5"
             d="m 167.395,123.168 c -3.23,0 -5.863,2.633 -5.863,5.864 l 0,13.037 c 0,3.23 2.632,5.863 5.863,5.863 3.23,0 5.863,-2.633 5.863,-5.863 l 0,-13.037 c 0,-3.23 -2.633,-5.864 -5.863,-5.864 z m 0,1.906 c 2.201,0 3.958,1.758 3.958,3.958 l 0,13.037 c 0,2.2 -1.758,3.958 -3.958,3.958 -2.202,0 -3.958,-1.758 -3.958,-3.958 l 0,-13.037 c -0.001,-2.2 1.757,-3.958 3.958,-3.958 z" /><path
             style="fill:#f4f4f4"
             inkscape:connector-curvature="0"
             id="path7"
             d="m 120.425,170.135 c -3.23,0 -5.864,2.633 -5.864,5.864 0,3.231 2.632,5.894 5.864,5.894 l 13.037,0 c 3.229,0 5.864,-2.662 5.864,-5.894 0,-3.229 -2.633,-5.864 -5.864,-5.864 l -13.037,0 z m 0,1.905 13.037,0 c 2.201,0 3.959,1.759 3.959,3.959 0,2.201 -1.759,3.988 -3.959,3.988 l -13.037,0 c -2.198,-0.01 -3.955,-1.791 -3.955,-3.99 0,-2.201 1.758,-3.959 3.958,-3.959 l -0.003,0.002 z" /><path
             style="fill:#f4f4f4"
             inkscape:connector-curvature="0"
             id="path9"
             d="m 167.395,204.071 c -3.23,0 -5.863,2.663 -5.863,5.894 l 0,13.038 c 0,3.229 2.632,5.863 5.863,5.863 3.23,0 5.863,-2.633 5.863,-5.863 l 0,-13.038 c 0,-3.23 -2.633,-5.894 -5.863,-5.894 z m 0,1.906 c 2.201,0 3.958,1.789 3.958,3.988 l 0,13.038 c 0,2.2 -1.757,3.958 -3.958,3.958 -2.202,0 -3.958,-1.759 -3.958,-3.958 l 0,-13.038 c -0.001,-2.2 1.757,-3.988 3.958,-3.988 z" /><path
             style="fill:#f4f4f4"
             inkscape:connector-curvature="0"
             id="path11"
             d="m 201.321,170.135 c -3.229,0 -5.863,2.633 -5.863,5.864 0,3.231 2.633,5.894 5.863,5.894 l 13.067,0 c 3.229,0 5.863,-2.662 5.863,-5.894 0,-3.229 -2.633,-5.864 -5.863,-5.864 l -13.067,0 z m 0,1.905 13.067,0 c 2.2,0 3.958,1.76 3.958,3.959 0,2.201 -1.758,3.988 -3.958,3.988 l -13.067,0 c -2.2,0 -3.958,-1.788 -3.958,-3.988 0,-2.2 1.759,-3.959 3.958,-3.959 z" /><path
             style="fill:#f4f4f4"
             inkscape:connector-curvature="0"
             id="polygon13"
             d="m 133.878,141.176 -1.31,1.31 8.155,12.025 0.655,0.952 0.804,-0.803 3.869,-3.87 0.804,-0.804 -0.953,-0.655 -12.024,-8.155 z" /><path
             style="fill:#f4f4f4"
             inkscape:connector-curvature="0"
             id="polygon15"
             d="m 141.383,196.566 -0.654,0.952 -8.156,12.024 1.31,1.31 12.025,-8.155 0.953,-0.654 -0.804,-0.804 -3.87,-3.869 -0.804,-0.804 z" /><path
             style="fill:#f4f4f4"
             inkscape:connector-curvature="0"
             id="polygon17"
             d="m 193.435,196.566 -0.804,0.804 -3.869,3.869 -0.833,0.804 0.953,0.654 12.025,8.155 1.339,-1.31 -8.156,-12.024 -0.655,-0.952 0,0 z" /><path
             style="fill:#f4f4f4"
             inkscape:connector-curvature="0"
             id="polygon19"
             d="m 200.912,141.176 -12.025,8.155 -0.953,0.655 0.833,0.804 3.87,3.87 0.804,0.803 0.655,-0.952 8.155,-12.025 -1.339,-1.31 z" /><path
             style="fill:#f4f4f4"
             inkscape:connector-curvature="0"
             id="path21"
             d="m 146.354,104.833 c -27.67,0 -50.123,22.453 -50.123,50.124 l 0,42.117 c 0,27.671 22.453,50.123 50.123,50.123 l 42.117,0 c 27.671,0 50.124,-22.452 50.124,-50.123 l 0,-42.117 c 0,-27.67 -22.452,-50.124 -50.124,-50.124 l -42.117,0 z m 0,1.906 42.117,0 c 26.644,0 48.219,21.577 48.219,48.218 l 0,42.117 c 0,26.644 -21.577,48.218 -48.219,48.218 l -42.117,0 c -26.642,0 -48.218,-21.574 -48.218,-48.218 l 0,-42.117 c 0,-26.642 21.577,-48.218 48.218,-48.218 z" /><path
             style="fill:#f4f4f4"
             inkscape:connector-curvature="0"
             id="polygon23"
             d="m 69.499,75.694 0,0.952 0,202.961 0,0.952 0.953,0 196.122,0 0.952,0 0,-0.952 0,-26.401 289.521,0 0.952,0 0,-0.952 0,-113.458 0,-0.953 -0.952,0 -289.522,0 0,-61.196 0,-0.952 -0.952,0 -196.122,0 -0.952,-10e-4 0,0 z m 1.904,1.905 194.217,0 0,61.196 0,0.953 0.953,0 0.714,0 288.807,0 0,111.552 -289.226,0 -0.297,0 -0.953,0 0,0.953 0,26.4 -194.217,0 0,-201.055 0.002,0.001 z" /><path
             style="fill:#f4f4f4"
             inkscape:connector-curvature="0"
             id="circle25"
             d="m 400.692,169.126 c -19.762,0 -35.777,16.046 -35.777,35.807 0,19.761 16.018,35.807 35.777,35.807 19.759,0 35.807,-16.046 35.807,-35.807 0,-19.761 -16.047,-35.807 -35.807,-35.807 l 0,0 z m 0,1.905 c 18.73,0 33.901,15.17 33.901,33.902 0,18.732 -15.171,33.902 -33.901,33.902 -18.731,0 -33.872,-15.171 -33.872,-33.902 0,-18.731 15.141,-33.902 33.872,-33.902 l 0,0 z" /><path
             style="fill:#f4f4f4"
             inkscape:connector-curvature="0"
             id="circle27"
             d="m 400.692,177.669 c -15.039,0 -27.234,12.227 -27.234,27.265 0,15.038 12.195,27.234 27.234,27.234 15.036,0 27.264,-12.196 27.264,-27.234 0,-15.038 -12.227,-27.265 -27.264,-27.265 z m 0,1.905 c 14.008,0 25.359,11.351 25.359,25.359 0,14.008 -11.352,25.33 -25.359,25.33 -14.01,0 -25.33,-11.321 -25.33,-25.33 0,-14.009 11.321,-25.359 25.33,-25.359 z" /><path
             style="fill:#f4f4f4"
             inkscape:connector-curvature="0"
             id="circle29"
             d="m 489.919,169.126 c -19.762,0 -35.807,16.046 -35.807,35.807 0,19.761 16.045,35.807 35.807,35.807 19.76,0 35.807,-16.046 35.807,-35.807 0,-19.761 -16.047,-35.807 -35.807,-35.807 l 0,0 z m 0,1.905 c 18.73,0 33.901,15.17 33.901,33.902 0,18.732 -15.171,33.902 -33.901,33.902 -18.731,0 -33.902,-15.171 -33.902,-33.902 0,-18.731 15.171,-33.902 33.902,-33.902 l 0,0 z" /><path
             style="fill:#f4f4f4"
             inkscape:connector-curvature="0"
             id="circle31"
             d="m 489.919,177.669 c -15.039,0 -27.234,12.227 -27.234,27.265 0,15.038 12.195,27.234 27.234,27.234 15.036,0 27.234,-12.196 27.234,-27.234 0,-15.038 -12.196,-27.265 -27.234,-27.265 z m 0,1.905 c 14.008,0 25.329,11.351 25.329,25.359 0,14.008 -11.321,25.33 -25.329,25.33 -14.01,0 -25.33,-11.321 -25.33,-25.33 0,-14.009 11.32,-25.359 25.33,-25.359 z" /><path
             style="fill:#f4f4f4"
             inkscape:connector-curvature="0"
             id="path33"
             d="m 39.406,68.432 c -4.766,0 -8.662,3.896 -8.662,8.662 l 0,203.084 c 0,4.766 3.897,8.661 8.662,8.661 l 518.646,0 c 4.429,0 7.956,-3.411 8.453,-7.709 l 0.179,0 0,-0.952 0,-203.085 c 0,-4.762 -3.868,-8.658 -8.64,-8.658 l -518.645,0 0.007,-0.003 z m 0,1.904 518.646,0 c 3.737,0 6.727,3.021 6.727,6.757 l 0,202.131 0,0.953 c 0,3.736 -2.989,6.756 -6.727,6.756 l -518.646,0 c -3.732,0.01 -6.753,-3.019 -6.753,-6.753 l 0,-203.083 c 0,-3.736 3.02,-6.756 6.756,-6.756 l -0.003,-0.005 z" /><path
             style="fill:#f4f4f4"
             inkscape:connector-curvature="0"
             id="rect35"
             d="m 359.021,163.559 0,0.953 0,81.465 0,0.952 0.953,0 81.465,0 0.953,0 0,-0.952 0,-81.465 0,-0.953 -0.953,0 -81.465,0 -0.953,0 z m 1.906,1.905 79.561,0 0,79.56 -79.561,0 0,-79.56 z" /><path
             style="fill:#f4f4f4"
             inkscape:connector-curvature="0"
             id="rect37"
             d="m 448.248,163.559 0,0.953 0,81.465 0,0.952 0.953,0 81.436,0 0.952,0 0,-0.952 0,-81.465 0,-0.953 -0.952,0 -81.436,0 -0.953,0 z m 1.905,1.905 79.531,0 0,79.56 -79.531,0 0,-79.56 z" /><path
             style="fill:#f4f4f4"
             inkscape:connector-curvature="0"
             id="polyline39"
             d="m 83.934,94.177 0,2.292 0,159.061 0,2.322 1.607,-1.638 25.33,-25.299 -1.369,-1.369 -23.663,23.692 0,-154.45 23.663,23.658 1.369,-1.34 -25.33,-25.299 -1.607,-1.637 0,0.007 z" /><path
             style="fill:#f4f4f4"
             inkscape:connector-curvature="0"
             id="polyline41"
             d="m 222.305,232.551 -1.37,1.339 23.693,23.692 -154.452,0 23.574,-23.573 -1.369,-1.339 -25.181,25.182 -1.637,1.637 2.292,0 159.062,0 2.292,0 -1.607,-1.637 -25.299,-25.3 0.002,-0.001 z" /><path
             style="fill:#f4f4f4"
             inkscape:connector-curvature="0"
             id="polyline43"
             d="m 250.878,94.177 -1.637,1.637 -25.211,25.182 1.369,1.369 23.574,-23.603 0,154.509 -23.633,-23.663 -1.339,1.34 25.24,25.27 1.637,1.638 0,-2.322 0,-159.063 0,-2.292 0,-0.002 z" /><path
             style="fill:#f4f4f4"
             inkscape:connector-curvature="0"
             id="polyline45"
             d="m 85.57,92.54 1.638,1.608 25.21,25.24 1.339,-1.34 -23.572,-23.602 154.452,0 -23.669,23.662 1.333,1.339 25.307,-25.3 1.607,-1.607 -2.292,0 -159.062,0 -2.291,0 0,0 z" /><path
             style="fill:#f4f4f4"
             inkscape:connector-curvature="0"
             id="line47"
             d="m 58.961,69.533 0,218.057 1.905,0 0,-218.057 -1.905,0 z" /><path
             style="fill:#f4f4f4"
             inkscape:connector-curvature="0"
             id="rect49"
             d="m 359.021,145.819 0,0.953 0,13.244 0,0.953 0.953,0 81.465,0 0.953,0 0,-0.953 0,-13.244 0,-0.953 -0.953,0 -81.465,0 -0.953,0 z m 1.906,1.905 79.561,0 0,11.339 -79.561,0 0,-11.339 z" /><path
             style="fill:#f4f4f4"
             inkscape:connector-curvature="0"
             id="rect51"
             d="m 448.248,145.819 0,0.953 0,13.244 0,0.953 0.953,0 81.436,0 0.952,0 0,-0.953 0,-13.244 0,-0.953 -0.952,0 -81.436,0 -0.953,0 z m 1.905,1.905 79.531,0 0,11.339 -79.531,0 0,-11.339 z" /><path
             style="fill:#f4f4f4"
             inkscape:connector-curvature="0"
             id="path53"
             d="m 276.804,73.134 c -0.987,0 -1.815,0.828 -1.815,1.816 l 0,53.01 c 0,0.988 0.829,1.815 1.815,1.815 l 282.855,0 c 0.985,0 1.785,-0.831 1.785,-1.815 l 0,-50.033 c 0,-2.641 -2.152,-4.792 -4.792,-4.792 l -279.844,0 -0.004,0 z m 0.09,1.906 279.756,0 c 1.613,0 2.888,1.275 2.888,2.887 l 0,49.945 -282.643,0 0,-52.832 -10e-4,0 z" /><path
             style="fill:#f4f4f4"
             inkscape:connector-curvature="0"
             id="path55"
             d="m 276.804,260.41 c -0.987,0 -1.815,0.829 -1.815,1.815 l 0,20.091 c 0,0.987 0.829,1.816 1.815,1.816 l 279.844,0 c 2.64,0 4.792,-2.183 4.792,-4.822 l 0,-17.085 c 0,-0.985 -0.8,-1.815 -1.785,-1.815 l -282.855,0 0.004,0 z m 0.09,1.905 282.645,0 0,16.995 c 0,1.611 -1.276,2.917 -2.888,2.917 l -279.758,0 0.001,-19.912 0,0 z" /><path
             style="fill:#f4f4f4"
             inkscape:connector-curvature="0"
             id="line57"
             d="m 274.461,129.271 -6.28,6.28 1.369,1.339 6.251,-6.25 -1.34,-1.369 z" /><path
             style="fill:#f4f4f4"
             inkscape:connector-curvature="0"
             id="line59"
             d="m 269.546,253.866 -1.369,1.34 6.281,6.28 1.339,-1.369 -6.251,-6.251 z" /></g></g></g></g><g
     inkscape:groupmode="layer"
     id="layer4"
     inkscape:label="Controller"
     style="display:inline"><g
       id="g5243"
       transform="matrix(0.98219935,-0.65507445,-0.32469147,0.65986519,52.678755,263.97599)"><path
         d="m 228.53,10.779 0,0.924 1.099,189.347 1.849,0 -1.1,-188.447 135.508,0 -1.1,188.447 1.823,0 1.1,-189.347 0,-0.924 -0.899,0 -137.355,0 -0.925,0 z"
         inkscape:connector-curvature="0"
         id="polyline3"
         style="fill:#eaeaea" /><path
         d="m 231.453,200.949 -1.823,0.2 15.39,137.706 0.099,0.825 0.825,0 34.375,0 0,-1.823 -33.577,0 -15.289,-136.908 z"
         inkscape:connector-curvature="0"
         id="polyline5"
         style="fill:#eaeaea" /><path
         d="m 364.787,200.949 -15.29,136.908 -33.526,0 0,1.823 34.353,0 0.823,0 0.075,-0.825 15.389,-137.706 -1.824,-0.2 0,0 z"
         inkscape:connector-curvature="0"
         id="polyline7"
         style="fill:#eaeaea" /><path
         d="m 255.461,222.86 c -1.159,0 -2.148,0.928 -2.148,2.099 l 0,18.013 c 0,1.169 0.989,2.098 2.148,2.098 l 24.009,0 c 0.804,0 1.406,-0.507 1.774,-1.175 l 0.375,0 0,-0.923 0,-18.013 c 0,-1.171 -0.964,-2.099 -2.124,-2.099 l -24.034,0 z m 0,1.824 24.034,0 c 0.199,0 0.3,0.126 0.3,0.275 l 0,17.088 0,0.925 c 0,0.147 -0.125,0.274 -0.325,0.274 l -24.009,0 c -0.2,0 -0.324,-0.127 -0.324,-0.274 l 0,-18.013 c 0,-0.149 0.125,-0.275 0.324,-0.275 z"
         inkscape:connector-curvature="0"
         id="path9-2"
         style="fill:#eaeaea" /><g
         id="g11"><path
           d="m 273.416,45.92 c 0,0.463 -0.386,0.836 -0.862,0.836 l -25.279,0 c -0.477,0 -0.864,-0.373 -0.864,-0.836 l 0,-19.218 c 0,-0.463 0.386,-0.836 0.864,-0.836 l 25.279,0 c 0.476,0 0.862,0.374 0.862,0.836 l 0,19.218 z"
           id="path13"
           inkscape:connector-curvature="0"
           style="fill:none;stroke:#eaeaea;stroke-width:1.83130002" /><path
           d="m 311.629,45.92 c 0,0.463 -0.387,0.836 -0.864,0.836 l -25.278,0 c -0.476,0 -0.862,-0.373 -0.862,-0.836 l 0,-19.218 c 0,-0.463 0.386,-0.836 0.862,-0.836 l 25.278,0 c 0.478,0 0.864,0.374 0.864,0.836 l 0,19.218 z"
           id="path15"
           inkscape:connector-curvature="0"
           style="fill:none;stroke:#eaeaea;stroke-width:1.83130002" /><path
           d="m 349.843,45.92 c 0,0.463 -0.387,0.836 -0.863,0.836 l -25.28,0 c -0.476,0 -0.864,-0.373 -0.864,-0.836 l 0,-19.218 c 0,-0.463 0.389,-0.836 0.864,-0.836 l 25.279,0 c 0.477,0 0.863,0.374 0.863,0.836 l 0,19.218 z"
           id="path17"
           inkscape:connector-curvature="0"
           style="fill:none;stroke:#eaeaea;stroke-width:1.83130002" /></g><path
         d="m 286.466,222.86 c -1.16,0 -2.149,0.928 -2.149,2.099 l 0,18.013 c 0,1.169 0.989,2.098 2.149,2.098 l 24.033,0 c 0.804,0 1.383,-0.51 1.749,-1.175 l 0.4,0 0,-0.923 0,-18.013 c 0,-1.169 -0.99,-2.099 -2.149,-2.099 l -24.033,0 z m 0,1.824 24.033,0 c 0.199,0 0.301,0.125 0.301,0.275 l 0,17.088 0,0.925 c 0,0.148 -0.102,0.274 -0.301,0.274 l -24.033,0 c -0.2,0 -0.326,-0.127 -0.326,-0.274 l 0,-18.013 c 0.001,-0.149 0.126,-0.275 0.326,-0.275 z"
         inkscape:connector-curvature="0"
         id="path19"
         style="fill:#eaeaea" /><path
         d="m 316.87,222.86 c -1.159,0 -2.147,0.93 -2.147,2.099 l 0,18.013 c 0,1.167 0.988,2.098 2.147,2.098 l 24.033,0 c 1.159,0 2.124,-0.931 2.124,-2.098 l 0,-18.013 c 0,-1.169 -0.965,-2.099 -2.124,-2.099 l -24.033,0 z m 0,1.824 24.033,0 c 0.197,0 0.299,0.125 0.299,0.275 l 0,18.013 c 0,0.148 -0.102,0.274 -0.299,0.274 l -24.033,0 c -0.201,0 -0.325,-0.126 -0.325,-0.274 l 0,-18.013 c 0,-0.15 0.124,-0.275 0.325,-0.275 z"
         inkscape:connector-curvature="0"
         id="path21-0"
         style="fill:#eaeaea" /><path
         d="m 255.461,250.217 c -1.159,0 -2.148,0.928 -2.148,2.098 l 0,18.013 c 0,1.17 0.989,2.1 2.148,2.1 l 24.009,0 c 0.806,0 1.409,-0.528 1.774,-1.199 l 0.375,0 0,-0.9 0,-18.013 c 0,-1.17 -0.964,-2.098 -2.124,-2.098 l -24.034,0 z m 0,1.823 24.034,0 c 0.199,0 0.3,0.126 0.3,0.274 l 0,17.089 0,0.924 c 0,0.15 -0.125,0.274 -0.325,0.274 l -24.009,0 c -0.2,0 -0.324,-0.124 -0.324,-0.274 l 0,-18.013 c 0,-0.148 0.125,-0.274 0.324,-0.274 z"
         inkscape:connector-curvature="0"
         id="path23"
         style="fill:#eaeaea" /><path
         d="m 286.466,250.217 c -1.16,0 -2.149,0.928 -2.149,2.098 l 0,18.013 c 0,1.17 0.989,2.1 2.149,2.1 l 24.033,0 c 0.806,0 1.385,-0.531 1.749,-1.199 l 0.4,0 0,-0.9 0,-18.013 c 0,-1.168 -0.99,-2.098 -2.149,-2.098 l -24.033,0 z m 0,1.823 24.033,0 c 0.199,0 0.301,0.125 0.301,0.274 l 0,17.089 0,0.924 c 0,0.151 -0.102,0.274 -0.301,0.274 l -24.033,0 c -0.2,0 -0.326,-0.124 -0.326,-0.274 l 0,-18.013 c 0.001,-0.148 0.126,-0.274 0.326,-0.274 z"
         inkscape:connector-curvature="0"
         id="path25"
         style="fill:#eaeaea" /><path
         d="m 316.87,250.217 c -1.159,0 -2.147,0.93 -2.147,2.098 l 0,18.013 c 0,1.169 0.988,2.1 2.147,2.1 l 24.033,0 c 1.159,0 2.124,-0.931 2.124,-2.1 l 0,-18.013 c 0,-1.168 -0.965,-2.098 -2.124,-2.098 l -24.033,0 z m 0,1.823 24.033,0 c 0.197,0 0.299,0.125 0.299,0.274 l 0,18.013 c 0,0.151 -0.102,0.274 -0.299,0.274 l -24.033,0 c -0.201,0 -0.325,-0.123 -0.325,-0.274 l 0,-18.013 c 0,-0.149 0.124,-0.274 0.325,-0.274 z"
         inkscape:connector-curvature="0"
         id="path27"
         style="fill:#eaeaea" /><path
         d="m 255.461,275.474 c -1.159,0 -2.148,0.953 -2.148,2.124 l 0,17.988 c 0,1.168 0.989,2.122 2.148,2.122 l 24.009,0 c 0.804,0 1.406,-0.533 1.774,-1.198 l 0.375,0 0,-0.924 0,-17.988 c 0,-1.171 -0.964,-2.124 -2.124,-2.124 l -24.034,0 z m 0,1.823 24.034,0 c 0.199,0 0.3,0.152 0.3,0.301 l 0,17.089 0,0.899 c 0,0.149 -0.125,0.274 -0.325,0.274 l -24.009,0 c -0.2,0 -0.324,-0.125 -0.324,-0.274 l 0,-17.988 c 0,-0.149 0.125,-0.301 0.324,-0.301 z"
         inkscape:connector-curvature="0"
         id="path29"
         style="fill:#eaeaea" /><path
         d="m 286.466,275.474 c -1.16,0 -2.149,0.953 -2.149,2.124 l 0,17.988 c 0,1.168 0.989,2.122 2.149,2.122 l 24.033,0 c 0.804,0 1.383,-0.534 1.749,-1.198 l 0.4,0 0,-0.924 0,-17.988 c 0,-1.169 -0.99,-2.124 -2.149,-2.124 l -24.033,0 z m 0,1.823 24.033,0 c 0.199,0 0.301,0.151 0.301,0.301 l 0,17.089 0,0.899 c 0,0.15 -0.102,0.274 -0.301,0.274 l -24.033,0 c -0.2,0 -0.326,-0.125 -0.326,-0.274 l 0,-17.988 c 0.001,-0.149 0.126,-0.301 0.326,-0.301 z"
         inkscape:connector-curvature="0"
         id="path31"
         style="fill:#eaeaea" /><path
         d="m 316.87,275.474 c -1.159,0 -2.147,0.955 -2.147,2.124 l 0,17.988 c 0,1.168 0.988,2.122 2.147,2.122 l 24.033,0 c 1.159,0 2.124,-0.954 2.124,-2.122 l 0,-17.988 c 0,-1.169 -0.965,-2.124 -2.124,-2.124 l -24.033,0 z m 0,1.823 24.033,0 c 0.197,0 0.299,0.151 0.299,0.301 l 0,17.988 c 0,0.15 -0.102,0.274 -0.299,0.274 l -24.033,0 c -0.201,0 -0.325,-0.124 -0.325,-0.274 l 0,-17.988 c 0,-0.15 0.124,-0.301 0.325,-0.301 z"
         inkscape:connector-curvature="0"
         id="path33-9"
         style="fill:#eaeaea" /><path
         d="m 255.461,300.382 c -1.159,0 -2.148,0.956 -2.148,2.124 l 0,17.988 c 0,1.169 0.989,2.098 2.148,2.098 l 24.009,0 c 0.804,0 1.406,-0.509 1.774,-1.175 l 0.375,0 0,-0.923 0,-17.988 c 0,-1.168 -0.964,-2.124 -2.124,-2.124 l -24.034,0 z m 0,1.824 24.034,0 c 0.199,0 0.3,0.15 0.3,0.3 l 0,17.063 0,0.926 c 0,0.148 -0.125,0.274 -0.325,0.274 l -24.009,0 c -0.2,0 -0.324,-0.126 -0.324,-0.274 l 0,-17.988 c 0,-0.151 0.125,-0.301 0.324,-0.301 z"
         inkscape:connector-curvature="0"
         id="path35"
         style="fill:#eaeaea" /><path
         d="m 286.466,300.382 c -1.16,0 -2.149,0.956 -2.149,2.124 l 0,17.988 c 0,1.169 0.989,2.098 2.149,2.098 l 24.033,0 c 0.804,0 1.383,-0.512 1.749,-1.175 l 0.4,0 0,-0.923 0,-17.988 c 0,-1.168 -0.99,-2.124 -2.149,-2.124 l -24.033,0 z m 0,1.824 24.033,0 c 0.199,0 0.301,0.148 0.301,0.3 l 0,17.063 0,0.926 c 0,0.148 -0.102,0.274 -0.301,0.274 l -24.033,0 c -0.2,0 -0.326,-0.126 -0.326,-0.274 l 0,-17.988 c 0.001,-0.151 0.126,-0.301 0.326,-0.301 z"
         inkscape:connector-curvature="0"
         id="path37"
         style="fill:#eaeaea" /><path
         d="m 316.87,300.382 c -1.159,0 -2.147,0.956 -2.147,2.124 l 0,17.988 c 0,1.168 0.988,2.098 2.147,2.098 l 24.033,0 c 1.159,0 2.124,-0.93 2.124,-2.098 l 0,-17.988 c 0,-1.168 -0.965,-2.124 -2.124,-2.124 l -24.033,0 z m 0,1.824 24.033,0 c 0.197,0 0.299,0.148 0.299,0.3 l 0,17.988 c 0,0.148 -0.102,0.274 -0.299,0.274 l -24.033,0 c -0.201,0 -0.325,-0.126 -0.325,-0.274 l 0,-17.988 c 0,-0.152 0.124,-0.3 0.325,-0.3 z"
         inkscape:connector-curvature="0"
         id="path39"
         style="fill:#eaeaea" /><path
         d="m 279.271,325.766 0,0.924 0,13.541 0,0.924 0.899,0 35.902,0 0.923,0 0,-0.924 0,-13.541 0,-0.924 -0.923,0 -35.902,0 -0.899,0 z m 1.824,1.823 34.051,0 0,11.717 -34.051,0 0,-11.717 z"
         inkscape:connector-curvature="0"
         id="rect41"
         style="fill:#eaeaea" /><path
         d="m 230.729,180.712 0,1.851 135.158,0 0,-1.851 -135.158,0 z"
         inkscape:connector-curvature="0"
         id="line47-7"
         style="fill:#eaeaea" /><path
         d="m 230.729,201.224 0,1.85 135.158,0 0,-1.85 -135.158,0 z"
         inkscape:connector-curvature="0"
         id="line49"
         style="fill:#eaeaea" /><g
         id="g51"><path
           id="path5220"
           d="m 300.526,149.218 c -0.037,-0.545 -0.481,-0.97 -1.026,-0.97 l 0,0 c -0.547,0 -0.988,0.425 -1.025,0.97 l 0,0 -0.062,0.91 -0.91,-0.056 c -4.301,-0.268 -8.371,-1.399 -12.036,-3.22 l 0,0 -0.819,-0.406 0.404,-0.817 c 0.076,-0.155 0.111,-0.314 0.111,-0.469 l 0,0 c -0.002,-0.361 -0.182,-0.699 -0.514,-0.891 l 0,0 c -0.165,-0.095 -0.333,-0.136 -0.508,-0.136 l 0,0 c -0.336,0 -0.667,0.165 -0.867,0.466 l 0,0 -0.508,0.761 -0.762,-0.507 c -3.486,-2.324 -6.482,-5.321 -8.808,-8.807 l 0,0 -0.506,-0.761 0.76,-0.508 c 0.301,-0.2 0.466,-0.533 0.466,-0.869 l 0,0 c 0,-0.173 -0.042,-0.344 -0.136,-0.507 l 0,0 c -0.194,-0.334 -0.533,-0.512 -0.894,-0.514 l 0,0 c -0.157,0 -0.312,0.035 -0.462,0.109 l 0,0 -0.821,0.407 -0.407,-0.819 c -1.82,-3.666 -2.949,-7.735 -3.217,-12.036 l 0,0 -0.058,-0.91 0.91,-0.06 c 0.545,-0.037 0.97,-0.481 0.97,-1.025 l 0,0 c 0,-0.547 -0.425,-0.991 -0.97,-1.028 l 0,0 -0.91,-0.062 0.058,-0.91 c 0.266,-4.301 1.397,-8.369 3.217,-12.034 l 0,0 0.407,-0.817 0.817,0.405 c 0.15,0.074 0.31,0.109 0.466,0.109 l 0,0 c 0.361,-0.002 0.702,-0.182 0.892,-0.512 l 0,0 c 0.097,-0.167 0.138,-0.338 0.138,-0.512 l 0,0 c 0,-0.334 -0.165,-0.667 -0.464,-0.865 l 0,0 -0.764,-0.508 0.508,-0.761 c 2.324,-3.488 5.32,-6.485 8.806,-8.809 l 0,0 0.762,-0.51 0.51,0.764 c 0.198,0.299 0.528,0.466 0.865,0.466 l 0,0 c 0.175,0 0.347,-0.043 0.51,-0.136 l 0,0 c 0.33,-0.192 0.512,-0.532 0.512,-0.892 l 0,0 c 0,-0.159 -0.033,-0.315 -0.107,-0.464 l 0,0 -0.406,-0.821 0.819,-0.407 c 3.665,-1.82 7.735,-2.949 12.034,-3.219 l 0,0 0.91,-0.058 0.062,0.913 c 0.04,0.544 0.481,0.972 1.028,0.97 l 0,0 c 0.542,0.002 0.989,-0.425 1.026,-0.97 l 0,0 0.06,-0.91 0.91,0.056 c 4.301,0.27 8.371,1.399 12.036,3.219 l 0,0 0.827,0.411 -0.419,0.825 c -0.071,0.143 -0.106,0.295 -0.106,0.456 l 0,0 c 0.002,0.359 0.182,0.698 0.514,0.89 l 0,0 c 0.161,0.095 0.336,0.138 0.51,0.138 l 0,0 c 0.338,-0.002 0.666,-0.167 0.866,-0.466 l 0,0 0.508,-0.764 0.764,0.51 c 3.484,2.324 6.48,5.321 8.805,8.806 l 0,0 0.51,0.764 -0.766,0.508 c -0.3,0.198 -0.465,0.528 -0.465,0.867 l 0,0 c 0,0.171 0.042,0.343 0.141,0.51 l 0,0 c 0.188,0.331 0.526,0.51 0.89,0.512 l 0,0 c 0.159,0 0.315,-0.035 0.466,-0.109 l 0,0 0.817,-0.405 0.409,0.817 c 1.82,3.666 2.949,7.733 3.217,12.034 l 0,0 0.059,0.912 -0.91,0.06 c -0.545,0.035 -0.971,0.48 -0.971,1.028 l 0,0 c 0,0.544 0.424,0.988 0.971,1.025 l 0,0 0.908,0.06 -0.057,0.912 c -0.268,4.301 -1.396,8.369 -3.217,12.034 l 0,0 -0.409,0.821 -0.819,-0.409 c -0.152,-0.076 -0.305,-0.109 -0.464,-0.109 l 0,0 c -0.361,0.002 -0.697,0.18 -0.892,0.512 l 0,0 -0.793,-0.456 0.789,0.464 c -0.093,0.159 -0.135,0.326 -0.135,0.501 l 0,0 c 0,0.334 0.167,0.667 0.469,0.867 l 0,0 0.764,0.507 -0.508,0.764 c -2.326,3.486 -5.322,6.482 -8.809,8.807 l 0,0 -0.762,0.505 -0.507,-0.757 c -0.205,-0.306 -0.533,-0.468 -0.867,-0.468 l 0,0 c -0.171,0 -0.345,0.041 -0.514,0.138 l 0,0 c -0.33,0.19 -0.508,0.528 -0.512,0.892 l 0,0 c 0,0.155 0.035,0.312 0.111,0.464 l 0,0 0.406,0.819 -0.819,0.409 c -3.663,1.82 -7.733,2.949 -12.034,3.217 l 0,0 -0.912,0.056 -0.061,-0.911 0,0 z m -3.668,-1.031 c 0.429,-1.036 1.445,-1.77 2.642,-1.77 l 0,0 c 1.197,0 2.213,0.732 2.642,1.77 l 0,0 c 3.509,-0.308 6.837,-1.223 9.886,-2.642 l 0,0 c -0.017,-0.127 -0.025,-0.255 -0.025,-0.382 l 0,0 c -0.002,-0.982 0.51,-1.951 1.431,-2.479 l 0,0 c 0.445,-0.258 0.94,-0.384 1.426,-0.384 l 0,0 c 0.63,0 1.246,0.21 1.749,0.598 l 0,0 c 2.809,-1.977 5.26,-4.428 7.238,-7.236 l 0,0 c -0.39,-0.503 -0.6,-1.122 -0.6,-1.753 l 0,0 c 0,-0.478 0.122,-0.975 0.386,-1.423 l 0,0 -0.002,-10e-4 c 0.528,-0.917 1.494,-1.432 2.479,-1.43 l 0,0 c 0.127,0 0.255,0.008 0.383,0.026 l 0,0 c 1.418,-3.05 2.334,-6.38 2.644,-9.887 l 0,0 c -1.037,-0.43 -1.77,-1.446 -1.77,-2.642 l 0,0 c 0,-1.197 0.732,-2.215 1.77,-2.645 l 0,0 c -0.31,-3.507 -1.226,-6.838 -2.645,-9.888 l 0,0 c -0.128,0.017 -0.255,0.026 -0.382,0.026 l 0,0 c -0.984,0.002 -1.95,-0.512 -2.477,-1.426 l 0,0 c -0.26,-0.448 -0.386,-0.943 -0.386,-1.426 l 0,0 c 0,-0.63 0.209,-1.248 0.598,-1.751 l 0,0 c -1.979,-2.809 -4.43,-5.26 -7.237,-7.238 l 0,0 c -0.503,0.387 -1.121,0.596 -1.75,0.596 l 0,0 c -0.485,0 -0.98,-0.124 -1.424,-0.382 l 0,0 c -0.919,-0.528 -1.433,-1.494 -1.431,-2.477 l 0,0 c 0,-0.127 0.009,-0.255 0.025,-0.383 l 0,0 c -3.05,-1.418 -6.381,-2.334 -9.888,-2.643 l 0,0 c -0.429,1.036 -1.443,1.77 -2.64,1.771 l 0,0 c -1.199,-0.001 -2.214,-0.736 -2.644,-1.771 l 0,0 c -3.509,0.309 -6.838,1.225 -9.889,2.644 l 0,0 c 0.017,0.127 0.025,0.255 0.025,0.382 l 0,0 c 0.002,0.982 -0.512,1.946 -1.428,2.477 l 0,0 c -0.448,0.258 -0.941,0.384 -1.426,0.382 l 0,0 c -0.629,0 -1.247,-0.209 -1.75,-0.596 l 0,0 c -2.808,1.978 -5.259,4.43 -7.236,7.239 l 0,0 c 0.387,0.503 0.596,1.12 0.596,1.749 l 0,0 c 0,0.485 -0.126,0.979 -0.384,1.426 l 0,0 c -0.528,0.918 -1.494,1.43 -2.479,1.428 l 0,0 c -0.127,0 -0.254,-0.009 -0.381,-0.026 l 0,0 c -1.418,3.05 -2.335,6.38 -2.643,9.888 l 0,0 c 1.036,0.429 1.768,1.447 1.77,2.645 l 0,0 c 0,1.196 -0.733,2.212 -1.769,2.642 l 0,0 c 0.309,3.507 1.225,6.837 2.643,9.887 l 0,0 c 0.127,-0.018 0.254,-0.026 0.381,-0.026 l 0,0 c 0.984,-0.002 1.948,0.512 2.48,1.43 l 0,0 c 0.258,0.448 0.382,0.941 0.382,1.424 l 0,0 c 0,0.631 -0.209,1.248 -0.597,1.751 l 0,0 c 1.978,2.808 4.428,5.26 7.237,7.238 l 0,0 c 0.503,-0.388 1.121,-0.598 1.751,-0.598 l 0,0 c 0.481,0 0.978,0.124 1.426,0.384 l 0,0 c 0.916,0.528 1.428,1.495 1.426,2.477 l 0,0 c 0,0.128 -0.009,0.256 -0.026,0.384 l 0,0 c 3.056,1.416 6.386,2.333 9.893,2.641 l 0,0 z"
           inkscape:connector-curvature="0"
           style="fill:#eaeaea" /></g><path
         d="m 299.507,65.167 c -29.471,0 -53.389,23.917 -53.389,53.389 0,29.471 23.917,53.388 53.389,53.388 29.473,0 53.364,-23.917 53.364,-53.388 0,-29.472 -23.892,-53.389 -53.364,-53.389 z m 0,1.824 c 28.482,0 51.539,23.083 51.539,51.565 0,28.481 -23.057,51.54 -51.539,51.54 -28.481,0 -51.565,-23.059 -51.565,-51.54 0,-28.482 23.083,-51.565 51.565,-51.565 z"
         inkscape:connector-curvature="0"
         id="circle55"
         style="fill:#eaeaea" /><path
         d="m 299.507,71.938 c -25.729,0 -46.619,20.889 -46.619,46.618 0,25.729 20.89,46.593 46.619,46.593 25.729,0 46.593,-20.865 46.593,-46.593 0,-25.729 -20.864,-46.618 -46.593,-46.618 z m 0,1.848 c 24.74,0 44.769,20.03 44.769,44.77 0,24.739 -20.028,44.769 -44.769,44.769 -24.74,0 -44.794,-20.03 -44.794,-44.769 -0.001,-24.74 20.054,-44.77 44.794,-44.77 z"
         inkscape:connector-curvature="0"
         id="circle57"
         style="fill:#eaeaea" /><path
         d="m 299.507,95.671 c -12.631,0 -22.909,10.253 -22.909,22.885 0,12.631 10.278,22.884 22.909,22.884 12.631,0 22.885,-10.253 22.885,-22.884 0,-12.632 -10.254,-22.885 -22.885,-22.885 z m 0,1.824 c 11.643,0 21.061,9.419 21.061,21.062 0,11.642 -9.418,21.06 -21.061,21.06 -11.641,0 -21.061,-9.418 -21.061,-21.06 0,-11.643 9.42,-21.062 21.061,-21.062 z"
         inkscape:connector-curvature="0"
         id="circle59"
         style="fill:#eaeaea" /><path
         d="m 235.925,15.426 0,0.899 0,42.971 0,0.924 0.925,0 122.566,0 0.925,0 0,-0.924 0,-42.97 0,-0.899 -0.925,0 -122.566,0 -0.925,0 z m 1.824,1.824 120.742,0 0,41.146 -120.742,0 0,-41.146 z"
         inkscape:connector-curvature="0"
         id="rect61"
         style="fill:#eaeaea" /><path
         d="m 240.747,20.173 0,0.924 0,30.279 0,0.924 0.924,0 112.923,0 0.924,0 0,-0.924 0,-30.279 0,-0.924 -0.924,0 -112.923,0 -0.924,0 z m 1.823,1.848 111.1,0 0,28.431 -111.1,0 0,-28.431 z"
         inkscape:connector-curvature="0"
         id="rect63"
         style="fill:#eaeaea" /><path
         d="m 229.929,10.905 -0.95,1.574 7.496,4.646 0.974,-1.574 -7.52,-4.646 z"
         inkscape:connector-curvature="0"
         id="line65"
         style="fill:#eaeaea" /><path
         d="m 237.474,15.675 -1.273,1.299 4.821,4.772 1.273,-1.299 -4.821,-4.772 z"
         inkscape:connector-curvature="0"
         id="line67"
         style="fill:#eaeaea" /><path
         d="m 366.312,10.929 -7.395,4.622 0.975,1.549 7.395,-4.621 -0.975,-1.55 z"
         inkscape:connector-curvature="0"
         id="line69"
         style="fill:#eaeaea" /><path
         d="m 358.566,15.701 -4.621,4.747 1.299,1.299 4.647,-4.772 -1.325,-1.274 z"
         inkscape:connector-curvature="0"
         id="line71"
         style="fill:#eaeaea" /><path
         d="m 355.37,50.902 -1.575,0.95 4.646,7.794 1.574,-0.925 -4.645,-7.819 z"
         inkscape:connector-curvature="0"
         id="line73"
         style="fill:#eaeaea" /><path
         d="m 240.872,50.902 -4.821,7.919 1.574,0.975 4.822,-7.944 -1.575,-0.95 z"
         inkscape:connector-curvature="0"
         id="line75"
         style="fill:#eaeaea" /><path
         d="m 366.711,32.115 0,1.823 2.024,0 c 0.311,0 0.557,0.059 0.698,0.201 0.145,0.141 0.387,0.529 0.227,1.699 -0.112,0.805 -0.235,2.784 -0.375,5.545 -0.142,2.762 -0.301,6.217 -0.45,9.668 -0.297,6.905 -0.566,13.886 -0.65,15.065 -0.094,1.311 -0.157,2.444 -0.399,3.123 -0.239,0.679 -0.425,0.965 -1.45,1.074 l 0.201,1.799 c 1.54,-0.165 2.572,-1.119 2.973,-2.248 0.4,-1.131 0.411,-2.371 0.499,-3.624 0.101,-1.385 0.354,-8.19 0.651,-15.09 0.148,-3.45 0.31,-6.917 0.449,-9.668 0.141,-2.751 0.277,-4.874 0.35,-5.396 0.205,-1.484 -0.064,-2.588 -0.726,-3.248 -0.658,-0.66 -1.483,-0.724 -1.997,-0.724 l -2.025,0 z"
         inkscape:connector-curvature="0"
         id="path77"
         style="fill:#eaeaea" /><path
         d="m 227.306,32.115 c -0.514,0 -1.339,0.064 -1.999,0.724 -0.659,0.66 -0.929,1.763 -0.724,3.248 0.072,0.523 0.21,2.645 0.35,5.396 0.141,2.752 0.302,6.219 0.449,9.668 0.298,6.9 0.552,13.705 0.649,15.09 0.09,1.253 0.1,2.493 0.501,3.624 0.4,1.129 1.432,2.083 2.973,2.248 l 0.2,-1.799 c -1.024,-0.109 -1.209,-0.396 -1.449,-1.074 -0.241,-0.679 -0.306,-1.812 -0.4,-3.123 -0.083,-1.179 -0.351,-8.16 -0.649,-15.065 -0.148,-3.452 -0.31,-6.907 -0.45,-9.668 -0.141,-2.761 -0.264,-4.741 -0.375,-5.545 -0.161,-1.169 0.083,-1.558 0.225,-1.699 0.142,-0.142 0.389,-0.201 0.699,-0.201 l 2.023,0 0,-1.823 -2.023,0 z"
         inkscape:connector-curvature="0"
         id="path79"
         style="fill:#eaeaea" /><rect
         id="rect5235"
         height="3.747"
         width="10.518"
         y="330.36099"
         x="266.13"
         style="fill:#f4f4f4" /><rect
         id="rect5237"
         height="3.747"
         width="10.518"
         y="330.36099"
         x="319.38"
         style="fill:#f4f4f4" /></g></g></svg>