<?xml version="1.0" encoding="UTF-8" standalone="no"?>
<!-- Generator: Adobe Illustrator 13.0.0, SVG Export Plug-In . SVG Version: 6.00 Build 14948)  -->

<svg
   xmlns:dc="http://purl.org/dc/elements/1.1/"
   xmlns:cc="http://creativecommons.org/ns#"
   xmlns:rdf="http://www.w3.org/1999/02/22-rdf-syntax-ns#"
   xmlns:svg="http://www.w3.org/2000/svg"
   xmlns="http://www.w3.org/2000/svg"
   xmlns:sodipodi="http://sodipodi.sourceforge.net/DTD/sodipodi-0.dtd"
   xmlns:inkscape="http://www.inkscape.org/namespaces/inkscape"
   version="1.1"
   id="Layer_2"
   x="0px"
   y="0px"
   width="550"
   height="550"
   viewBox="0 0 549.99995 549.99999"
   enable-background="new 0 0 598.189 350.26"
   xml:space="preserve"
   inkscape:version="0.91 r13725"
   sodipodi:docname="controller_gg.svg"><metadata
     id="metadata3083"><rdf:RDF><cc:Work
         rdf:about=""><dc:format>image/svg+xml</dc:format><dc:type
           rdf:resource="http://purl.org/dc/dcmitype/StillImage" /><dc:title></dc:title></cc:Work></rdf:RDF></metadata><defs
     id="defs3081" /><sodipodi:namedview
     pagecolor="#ffffff"
     bordercolor="#666666"
     borderopacity="1"
     objecttolerance="10"
     gridtolerance="10"
     guidetolerance="10"
     inkscape:pageopacity="0"
     inkscape:pageshadow="2"
     inkscape:window-width="1920"
     inkscape:window-height="1001"
     id="namedview3079"
     showgrid="false"
     inkscape:zoom="1.0799262"
     inkscape:cx="248.77122"
     inkscape:cy="298.43665"
     inkscape:window-x="-9"
     inkscape:window-y="-9"
     inkscape:window-maximized="1"
     inkscape:current-layer="g12192"
     showguides="true"
     inkscape:guide-bbox="true" /><g
     inkscape:groupmode="layer"
     id="layer2"
     inkscape:label="Screen_Rect"
     style="display:none"
     transform="translate(0,199.73999)"
     sodipodi:insensitive="true"><path
       style="fill:#0000ff;stroke:#000000;stroke-width:1px;stroke-linecap:butt;stroke-linejoin:miter;stroke-opacity:1"
       d="M 5.0135033,547.22203 136.4109,114.39023 653.54628,-189.09358 406.482,260.92121 Z"
       id="path3021"
       inkscape:connector-curvature="0"
       transform="translate(-2e-5,-199.73999)"
       sodipodi:nodetypes="ccccc" /><rect
       style="opacity:0.60100002;fill:#d8201f;fill-opacity:1;stroke:#ff8080;stroke-width:2.45114732;stroke-linecap:round;stroke-linejoin:round;stroke-miterlimit:4;stroke-dasharray:none;stroke-opacity:1"
       id="rect4230"
       width="444.2457"
       height="9.9567661"
       x="145.95099"
       y="-211.30678" /></g><g
     inkscape:groupmode="layer"
     id="layer1"
     inkscape:label="Controller_Vorlage"
     style="display:none"
     sodipodi:insensitive="true"><g
       id="g4929"
       transform="translate(-0.929149,0.5695451)"><g
         transform="translate(0,199.73999)"
         style="display:none"
         inkscape:label="Layer2"
         id="layer2-9"><path
           sodipodi:nodetypes="ccccc"
           transform="translate(-2e-5,-199.73999)"
           inkscape:connector-curvature="0"
           id="path3021-0"
           d="M 5.0135033,547.22203 136.4109,114.39023 653.54628,-189.09358 406.482,260.92121 Z"
           style="fill:#ffffff;stroke:#000000;stroke-width:1px;stroke-linecap:butt;stroke-linejoin:miter;stroke-opacity:1" /></g><g
         inkscape:label="Layer"
         id="layer1-2"><g
           transform="matrix(0.55322035,-0.3970343,-0.34863416,0.85569517,173.63773,166.52161)"
           id="g3100"><path
             style="fill:#f4f4f4"
             inkscape:connector-curvature="0"
             id="path3"
             d="m 148.05,114.447 c -23.656,0 -42.861,19.204 -42.861,42.861 l 0,37.414 c 0,23.658 19.205,42.86 42.861,42.86 l 38.694,0 c 23.656,0 42.861,-19.202 42.861,-42.86 l 0,-37.414 c 0,-23.657 -19.205,-42.861 -42.861,-42.861 l -38.694,0 z m 0,1.905 38.694,0 c 22.627,0 40.956,18.328 40.956,40.956 l 0,37.414 c 0,22.629 -18.329,40.956 -40.956,40.956 l -38.694,0 c -22.628,0 -40.956,-18.327 -40.956,-40.956 l 0,-37.414 c 0,-22.629 18.328,-40.956 40.956,-40.956 z" /><path
             style="fill:#f4f4f4"
             inkscape:connector-curvature="0"
             id="path5"
             d="m 167.395,123.168 c -3.23,0 -5.863,2.633 -5.863,5.864 l 0,13.037 c 0,3.23 2.632,5.863 5.863,5.863 3.23,0 5.863,-2.633 5.863,-5.863 l 0,-13.037 c 0,-3.23 -2.633,-5.864 -5.863,-5.864 z m 0,1.906 c 2.201,0 3.958,1.758 3.958,3.958 l 0,13.037 c 0,2.2 -1.758,3.958 -3.958,3.958 -2.202,0 -3.958,-1.758 -3.958,-3.958 l 0,-13.037 c -0.001,-2.2 1.757,-3.958 3.958,-3.958 z" /><path
             style="fill:#f4f4f4"
             inkscape:connector-curvature="0"
             id="path7"
             d="m 120.425,170.135 c -3.23,0 -5.864,2.633 -5.864,5.864 0,3.231 2.632,5.894 5.864,5.894 l 13.037,0 c 3.229,0 5.864,-2.662 5.864,-5.894 0,-3.229 -2.633,-5.864 -5.864,-5.864 l -13.037,0 z m 0,1.905 13.037,0 c 2.201,0 3.959,1.759 3.959,3.959 0,2.201 -1.759,3.988 -3.959,3.988 l -13.037,0 c -2.198,-0.01 -3.955,-1.791 -3.955,-3.99 0,-2.201 1.758,-3.959 3.958,-3.959 l -0.003,0.002 z" /><path
             style="fill:#f4f4f4"
             inkscape:connector-curvature="0"
             id="path9"
             d="m 167.395,204.071 c -3.23,0 -5.863,2.663 -5.863,5.894 l 0,13.038 c 0,3.229 2.632,5.863 5.863,5.863 3.23,0 5.863,-2.633 5.863,-5.863 l 0,-13.038 c 0,-3.23 -2.633,-5.894 -5.863,-5.894 z m 0,1.906 c 2.201,0 3.958,1.789 3.958,3.988 l 0,13.038 c 0,2.2 -1.757,3.958 -3.958,3.958 -2.202,0 -3.958,-1.759 -3.958,-3.958 l 0,-13.038 c -0.001,-2.2 1.757,-3.988 3.958,-3.988 z" /><path
             style="fill:#f4f4f4"
             inkscape:connector-curvature="0"
             id="path11"
             d="m 201.321,170.135 c -3.229,0 -5.863,2.633 -5.863,5.864 0,3.231 2.633,5.894 5.863,5.894 l 13.067,0 c 3.229,0 5.863,-2.662 5.863,-5.894 0,-3.229 -2.633,-5.864 -5.863,-5.864 l -13.067,0 z m 0,1.905 13.067,0 c 2.2,0 3.958,1.76 3.958,3.959 0,2.201 -1.758,3.988 -3.958,3.988 l -13.067,0 c -2.2,0 -3.958,-1.788 -3.958,-3.988 0,-2.2 1.759,-3.959 3.958,-3.959 z" /><path
             style="fill:#f4f4f4"
             inkscape:connector-curvature="0"
             id="polygon13"
             d="m 133.878,141.176 -1.31,1.31 8.155,12.025 0.655,0.952 0.804,-0.803 3.869,-3.87 0.804,-0.804 -0.953,-0.655 -12.024,-8.155 z" /><path
             style="fill:#f4f4f4"
             inkscape:connector-curvature="0"
             id="polygon15"
             d="m 141.383,196.566 -0.654,0.952 -8.156,12.024 1.31,1.31 12.025,-8.155 0.953,-0.654 -0.804,-0.804 -3.87,-3.869 -0.804,-0.804 z" /><path
             style="fill:#f4f4f4"
             inkscape:connector-curvature="0"
             id="polygon17"
             d="m 193.435,196.566 -0.804,0.804 -3.869,3.869 -0.833,0.804 0.953,0.654 12.025,8.155 1.339,-1.31 -8.156,-12.024 -0.655,-0.952 0,0 z" /><path
             style="fill:#f4f4f4"
             inkscape:connector-curvature="0"
             id="polygon19"
             d="m 200.912,141.176 -12.025,8.155 -0.953,0.655 0.833,0.804 3.87,3.87 0.804,0.803 0.655,-0.952 8.155,-12.025 -1.339,-1.31 z" /><path
             style="fill:#f4f4f4"
             inkscape:connector-curvature="0"
             id="path21"
             d="m 146.354,104.833 c -27.67,0 -50.123,22.453 -50.123,50.124 l 0,42.117 c 0,27.671 22.453,50.123 50.123,50.123 l 42.117,0 c 27.671,0 50.124,-22.452 50.124,-50.123 l 0,-42.117 c 0,-27.67 -22.452,-50.124 -50.124,-50.124 l -42.117,0 z m 0,1.906 42.117,0 c 26.644,0 48.219,21.577 48.219,48.218 l 0,42.117 c 0,26.644 -21.577,48.218 -48.219,48.218 l -42.117,0 c -26.642,0 -48.218,-21.574 -48.218,-48.218 l 0,-42.117 c 0,-26.642 21.577,-48.218 48.218,-48.218 z" /><path
             style="fill:#f4f4f4"
             inkscape:connector-curvature="0"
             id="polygon23"
             d="m 69.499,75.694 0,0.952 0,202.961 0,0.952 0.953,0 196.122,0 0.952,0 0,-0.952 0,-26.401 289.521,0 0.952,0 0,-0.952 0,-113.458 0,-0.953 -0.952,0 -289.522,0 0,-61.196 0,-0.952 -0.952,0 -196.122,0 -0.952,-10e-4 0,0 z m 1.904,1.905 194.217,0 0,61.196 0,0.953 0.953,0 0.714,0 288.807,0 0,111.552 -289.226,0 -0.297,0 -0.953,0 0,0.953 0,26.4 -194.217,0 0,-201.055 0.002,0.001 z" /><path
             style="fill:#f4f4f4"
             inkscape:connector-curvature="0"
             id="circle25"
             d="m 400.692,169.126 c -19.762,0 -35.777,16.046 -35.777,35.807 0,19.761 16.018,35.807 35.777,35.807 19.759,0 35.807,-16.046 35.807,-35.807 0,-19.761 -16.047,-35.807 -35.807,-35.807 l 0,0 z m 0,1.905 c 18.73,0 33.901,15.17 33.901,33.902 0,18.732 -15.171,33.902 -33.901,33.902 -18.731,0 -33.872,-15.171 -33.872,-33.902 0,-18.731 15.141,-33.902 33.872,-33.902 l 0,0 z" /><path
             style="fill:#f4f4f4"
             inkscape:connector-curvature="0"
             id="circle27"
             d="m 400.692,177.669 c -15.039,0 -27.234,12.227 -27.234,27.265 0,15.038 12.195,27.234 27.234,27.234 15.036,0 27.264,-12.196 27.264,-27.234 0,-15.038 -12.227,-27.265 -27.264,-27.265 z m 0,1.905 c 14.008,0 25.359,11.351 25.359,25.359 0,14.008 -11.352,25.33 -25.359,25.33 -14.01,0 -25.33,-11.321 -25.33,-25.33 0,-14.009 11.321,-25.359 25.33,-25.359 z" /><path
             style="fill:#f4f4f4"
             inkscape:connector-curvature="0"
             id="circle29"
             d="m 489.919,169.126 c -19.762,0 -35.807,16.046 -35.807,35.807 0,19.761 16.045,35.807 35.807,35.807 19.76,0 35.807,-16.046 35.807,-35.807 0,-19.761 -16.047,-35.807 -35.807,-35.807 l 0,0 z m 0,1.905 c 18.73,0 33.901,15.17 33.901,33.902 0,18.732 -15.171,33.902 -33.901,33.902 -18.731,0 -33.902,-15.171 -33.902,-33.902 0,-18.731 15.171,-33.902 33.902,-33.902 l 0,0 z" /><path
             style="fill:#f4f4f4"
             inkscape:connector-curvature="0"
             id="circle31"
             d="m 489.919,177.669 c -15.039,0 -27.234,12.227 -27.234,27.265 0,15.038 12.195,27.234 27.234,27.234 15.036,0 27.234,-12.196 27.234,-27.234 0,-15.038 -12.196,-27.265 -27.234,-27.265 z m 0,1.905 c 14.008,0 25.329,11.351 25.329,25.359 0,14.008 -11.321,25.33 -25.329,25.33 -14.01,0 -25.33,-11.321 -25.33,-25.33 0,-14.009 11.32,-25.359 25.33,-25.359 z" /><path
             style="fill:#f4f4f4"
             inkscape:connector-curvature="0"
             id="path33"
             d="m 39.406,68.432 c -4.766,0 -8.662,3.896 -8.662,8.662 l 0,203.084 c 0,4.766 3.897,8.661 8.662,8.661 l 518.646,0 c 4.429,0 7.956,-3.411 8.453,-7.709 l 0.179,0 0,-0.952 0,-203.085 c 0,-4.762 -3.868,-8.658 -8.64,-8.658 l -518.645,0 0.007,-0.003 z m 0,1.904 518.646,0 c 3.737,0 6.727,3.021 6.727,6.757 l 0,202.131 0,0.953 c 0,3.736 -2.989,6.756 -6.727,6.756 l -518.646,0 c -3.732,0.01 -6.753,-3.019 -6.753,-6.753 l 0,-203.083 c 0,-3.736 3.02,-6.756 6.756,-6.756 l -0.003,-0.005 z" /><path
             style="fill:#f4f4f4"
             inkscape:connector-curvature="0"
             id="rect35"
             d="m 359.021,163.559 0,0.953 0,81.465 0,0.952 0.953,0 81.465,0 0.953,0 0,-0.952 0,-81.465 0,-0.953 -0.953,0 -81.465,0 -0.953,0 z m 1.906,1.905 79.561,0 0,79.56 -79.561,0 0,-79.56 z" /><path
             style="fill:#f4f4f4"
             inkscape:connector-curvature="0"
             id="rect37"
             d="m 448.248,163.559 0,0.953 0,81.465 0,0.952 0.953,0 81.436,0 0.952,0 0,-0.952 0,-81.465 0,-0.953 -0.952,0 -81.436,0 -0.953,0 z m 1.905,1.905 79.531,0 0,79.56 -79.531,0 0,-79.56 z" /><path
             style="fill:#f4f4f4"
             inkscape:connector-curvature="0"
             id="polyline39"
             d="m 83.934,94.177 0,2.292 0,159.061 0,2.322 1.607,-1.638 25.33,-25.299 -1.369,-1.369 -23.663,23.692 0,-154.45 23.663,23.658 1.369,-1.34 -25.33,-25.299 -1.607,-1.637 0,0.007 z" /><path
             style="fill:#f4f4f4"
             inkscape:connector-curvature="0"
             id="polyline41"
             d="m 222.305,232.551 -1.37,1.339 23.693,23.692 -154.452,0 23.574,-23.573 -1.369,-1.339 -25.181,25.182 -1.637,1.637 2.292,0 159.062,0 2.292,0 -1.607,-1.637 -25.299,-25.3 0.002,-0.001 z" /><path
             style="fill:#f4f4f4"
             inkscape:connector-curvature="0"
             id="polyline43"
             d="m 250.878,94.177 -1.637,1.637 -25.211,25.182 1.369,1.369 23.574,-23.603 0,154.509 -23.633,-23.663 -1.339,1.34 25.24,25.27 1.637,1.638 0,-2.322 0,-159.063 0,-2.292 0,-0.002 z" /><path
             style="fill:#f4f4f4"
             inkscape:connector-curvature="0"
             id="polyline45"
             d="m 85.57,92.54 1.638,1.608 25.21,25.24 1.339,-1.34 -23.572,-23.602 154.452,0 -23.669,23.662 1.333,1.339 25.307,-25.3 1.607,-1.607 -2.292,0 -159.062,0 -2.291,0 0,0 z" /><path
             style="fill:#f4f4f4"
             inkscape:connector-curvature="0"
             id="line47"
             d="m 58.961,69.533 0,218.057 1.905,0 0,-218.057 -1.905,0 z" /><path
             style="fill:#f4f4f4"
             inkscape:connector-curvature="0"
             id="rect49"
             d="m 359.021,145.819 0,0.953 0,13.244 0,0.953 0.953,0 81.465,0 0.953,0 0,-0.953 0,-13.244 0,-0.953 -0.953,0 -81.465,0 -0.953,0 z m 1.906,1.905 79.561,0 0,11.339 -79.561,0 0,-11.339 z" /><path
             style="fill:#f4f4f4"
             inkscape:connector-curvature="0"
             id="rect51"
             d="m 448.248,145.819 0,0.953 0,13.244 0,0.953 0.953,0 81.436,0 0.952,0 0,-0.953 0,-13.244 0,-0.953 -0.952,0 -81.436,0 -0.953,0 z m 1.905,1.905 79.531,0 0,11.339 -79.531,0 0,-11.339 z" /><path
             style="fill:#f4f4f4"
             inkscape:connector-curvature="0"
             id="path53"
             d="m 276.804,73.134 c -0.987,0 -1.815,0.828 -1.815,1.816 l 0,53.01 c 0,0.988 0.829,1.815 1.815,1.815 l 282.855,0 c 0.985,0 1.785,-0.831 1.785,-1.815 l 0,-50.033 c 0,-2.641 -2.152,-4.792 -4.792,-4.792 l -279.844,0 -0.004,0 z m 0.09,1.906 279.756,0 c 1.613,0 2.888,1.275 2.888,2.887 l 0,49.945 -282.643,0 0,-52.832 -10e-4,0 z" /><path
             style="fill:#f4f4f4"
             inkscape:connector-curvature="0"
             id="path55"
             d="m 276.804,260.41 c -0.987,0 -1.815,0.829 -1.815,1.815 l 0,20.091 c 0,0.987 0.829,1.816 1.815,1.816 l 279.844,0 c 2.64,0 4.792,-2.183 4.792,-4.822 l 0,-17.085 c 0,-0.985 -0.8,-1.815 -1.785,-1.815 l -282.855,0 0.004,0 z m 0.09,1.905 282.645,0 0,16.995 c 0,1.611 -1.276,2.917 -2.888,2.917 l -279.758,0 0.001,-19.912 0,0 z" /><path
             style="fill:#f4f4f4"
             inkscape:connector-curvature="0"
             id="line57"
             d="m 274.461,129.271 -6.28,6.28 1.369,1.339 6.251,-6.25 -1.34,-1.369 z" /><path
             style="fill:#f4f4f4"
             inkscape:connector-curvature="0"
             id="line59"
             d="m 269.546,253.866 -1.369,1.34 6.281,6.28 1.339,-1.369 -6.251,-6.251 z" /></g></g></g></g><g
     inkscape:groupmode="layer"
     id="layer4"
     inkscape:label="Controller"><g
       id="g12192"
       transform="matrix(0.52634968,-0.38371487,-0.36199415,0.79024751,151.0404,222.06172)"><g
         id="g17098"
         transform="matrix(0.98620321,0.03079114,0.18302621,0.95001944,23.18596,-54.768227)"><path
           d="m 204.93,37.925 c -5.133,0.001 -9.848,1.824 -13.328,4.864 -3.481,3.032 -5.744,7.378 -5.74,12.234 l 0,176.188 c -0.014,11.386 3.213,20.748 8.853,28.091 8.464,11.023 21.882,17.366 37.115,21.038 15.253,3.667 32.482,4.691 49.08,4.694 18.184,0 18.143,0.001 34.901,0 23.109,-0.039 48.132,-12.276 67.663,-29.308 19.476,-17.072 33.706,-39.03 33.781,-59.806 l 0,-140.892 c 0.004,-4.855 -2.282,-9.202 -5.764,-12.234 -3.481,-3.041 -8.195,-4.863 -13.328,-4.865 l -193.232,0 -0.001,-0.004 z m 0,1.557 193.232,0 c 4.767,10e-4 9.119,1.69 12.307,4.475 3.177,2.768 5.231,6.697 5.229,11.066 l 0,140.892 c -0.074,20.066 -13.988,41.733 -33.247,58.614 -19.313,16.841 -44.082,28.905 -66.641,28.942 -16.758,0.002 -16.717,0 -34.901,0 -16.533,-0.004 -33.656,-1.049 -48.716,-4.669 -15.04,-3.627 -28.11,-9.829 -36.265,-20.453 -5.425,-7.066 -8.526,-16.048 -8.514,-27.139 l 0,-176.187 c -0.003,-4.369 2.027,-8.298 5.205,-11.066 3.188,-2.785 7.54,-4.474 12.306,-4.475 l 0.005,0 z m 0,3.672 c -3.899,-0.001 -7.406,1.37 -9.899,3.551 -2.489,2.189 -3.961,5.118 -3.964,8.318 l 0,176.188 c 0.013,10.427 2.877,18.504 7.782,24.928 4.915,6.42 11.966,11.209 20.479,14.74 17.018,7.074 39.751,8.939 61.581,8.926 l 34.901,0 c 21.239,0.039 45.464,-11.581 64.233,-28.019 18.827,-16.396 32.058,-37.558 31.982,-55.865 l 0,-140.892 c -0.003,-3.201 -1.474,-6.13 -3.965,-8.318 -2.493,-2.182 -5.998,-3.553 -9.898,-3.551 l -193.232,0 0,-0.006 z m 0,1.557 193.232,0 c 3.529,-10e-4 6.682,1.241 8.877,3.162 2.206,1.938 3.426,4.422 3.43,7.15 l 0,140.892 c 0.072,17.547 -12.851,38.503 -31.448,54.699 -18.542,16.237 -42.547,27.667 -63.211,27.629 l -34.901,0 c -21.74,0.015 -44.346,-1.882 -60.998,-8.806 -8.335,-3.453 -15.119,-8.1 -19.823,-14.249 -4.702,-6.155 -7.455,-13.838 -7.467,-23.979 l 0,-176.187 c 0.003,-2.728 1.249,-5.211 3.454,-7.151 2.193,-1.912 5.333,-3.163 8.853,-3.161 l 0.002,10e-4 z"
           id="path3-5"
           inkscape:connector-curvature="0"
           style="fill:#f4f4f4" /><path
           d="m 389.849,157.95 c -11.068,0.926 -28.906,8.942 -56.55,28.531 l -0.024,0.024 -0.025,0 c -9.18,7.323 -20.646,18.48 -30.741,29.283 -10.095,10.804 -18.786,21.222 -22.449,27.216 -3.636,5.95 -5.389,11.222 -3.624,15.469 0.882,2.122 2.646,3.885 5.302,5.229 2.655,1.345 6.226,2.295 10.847,2.846 18.514,2.204 51.438,-3.24 74.911,-23.64 23.458,-20.391 35.665,-52.832 36.992,-70.289 0.334,-4.417 -0.444,-8.328 -2.822,-11.042 -2.377,-2.713 -6.288,-4.084 -11.82,-3.624 l 0.003,-0.003 z m 3.697,1.533 c 3.226,0.275 5.459,1.405 6.956,3.113 1.994,2.277 2.747,5.731 2.432,9.898 -1.282,16.876 -13.419,49.192 -36.459,69.22 -23.028,20.016 -55.726,25.44 -73.718,23.3 -4.505,-0.537 -7.896,-1.478 -10.312,-2.7 -2.417,-1.222 -3.852,-2.691 -4.572,-4.426 -1.44,-3.468 -0.008,-8.299 3.527,-14.083 3.507,-5.738 12.195,-16.183 22.254,-26.947 10.049,-10.754 21.479,-21.877 30.547,-29.112 0.009,-0.007 0.017,-0.018 0.025,-0.024 27.529,-19.506 45.3,-27.343 55.744,-28.213 1.305,-0.11 2.5,-0.118 3.576,-0.026 l 0,0 z"
           id="path5-2"
           inkscape:connector-curvature="0"
           style="fill:#f4f4f4" /><path
           d="m 385.374,185.401 c -2.027,-2.479 -5.114,-3.846 -8.821,-4.256 -3.709,-0.408 -8.063,0.117 -12.837,1.479 -9.545,2.727 -20.733,8.789 -31.414,17.524 -10.682,8.734 -18.843,18.498 -23.408,27.315 -2.282,4.405 -3.682,8.586 -4.016,12.301 -0.336,3.715 0.412,6.997 2.438,9.474 2.026,2.479 5.11,3.88 8.817,4.288 3.709,0.41 8.065,-0.149 12.839,-1.514 9.547,-2.726 20.749,-8.77 31.431,-17.505 10.681,-8.735 18.827,-18.518 23.393,-27.333 2.283,-4.408 3.678,-8.552 4.013,-12.267 0.335,-3.713 -0.41,-7.028 -2.435,-9.506 l 0,0 z m -1.205,0.985 c 1.717,2.101 2.408,4.936 2.099,8.369 -0.31,3.433 -1.638,7.451 -3.854,11.729 -4.435,8.561 -12.456,18.2 -22.997,26.82 -10.541,8.62 -21.599,14.586 -30.868,17.232 -4.635,1.324 -8.817,1.814 -12.244,1.436 -3.426,-0.378 -6.067,-1.617 -7.785,-3.718 -1.718,-2.101 -2.395,-4.918 -2.084,-8.35 0.31,-3.433 1.619,-7.435 3.835,-11.716 4.434,-8.559 12.477,-18.213 23.016,-26.834 10.54,-8.621 21.58,-14.572 30.85,-17.219 4.635,-1.323 8.835,-1.827 12.262,-1.45 3.424,0.379 6.051,1.6 7.77,3.701 l 0,0 z"
           id="ellipse7"
           inkscape:connector-curvature="0"
           style="fill:#f4f4f4" /><path
           d="m 336.458,224.517 c -1.241,0 -2.263,1.021 -2.263,2.263 0,1.239 1.021,2.262 2.263,2.262 1.242,0 2.262,-1.022 2.262,-2.262 0,-1.243 -1.021,-2.263 -2.262,-2.263 z m 0,1.556 c 0.399,0 0.705,0.307 0.705,0.706 0,0.398 -0.306,0.705 -0.705,0.705 -0.399,0 -0.705,-0.307 -0.705,-0.705 0,-0.399 0.306,-0.706 0.705,-0.706 z"
           id="circle9"
           inkscape:connector-curvature="0"
           style="fill:#f4f4f4" /><path
           d="m 342.685,219.505 c -1.24,0 -2.263,1.021 -2.263,2.262 0,1.241 1.022,2.263 2.263,2.263 1.241,0 2.262,-1.021 2.262,-2.263 0,-1.242 -1.021,-2.262 -2.262,-2.262 z m 0,1.557 c 0.398,0 0.705,0.306 0.705,0.705 0,0.398 -0.307,0.705 -0.705,0.705 -0.399,0 -0.706,-0.307 -0.706,-0.705 0,-0.4 0.306,-0.705 0.706,-0.705 z"
           id="circle11"
           inkscape:connector-curvature="0"
           style="fill:#f4f4f4" /><path
           d="m 348.988,214.523 c -1.24,0 -2.261,1.022 -2.261,2.263 0,1.239 1.021,2.261 2.261,2.261 1.24,0 2.262,-1.021 2.262,-2.261 0,-1.24 -1.021,-2.263 -2.262,-2.263 z m 0,1.558 c 0.398,0 0.706,0.305 0.706,0.705 0,0.397 -0.308,0.705 -0.706,0.705 -0.399,0 -0.705,-0.308 -0.705,-0.705 0,-0.4 0.306,-0.705 0.705,-0.705 z"
           id="circle13"
           inkscape:connector-curvature="0"
           style="fill:#f4f4f4" /><path
           d="m 355.215,209.511 c -1.24,0 -2.261,1.022 -2.261,2.263 0,1.241 1.021,2.262 2.261,2.262 1.24,0 2.262,-1.021 2.262,-2.262 0,-1.241 -1.022,-2.263 -2.262,-2.263 z m 0,1.558 c 0.398,0 0.705,0.304 0.705,0.704 0,0.398 -0.307,0.705 -0.705,0.705 -0.4,0 -0.705,-0.307 -0.705,-0.705 0,-0.4 0.304,-0.704 0.705,-0.704 z"
           id="circle15"
           inkscape:connector-curvature="0"
           style="fill:#f4f4f4" /><path
           d="m 427.758,186.481 c 0,38.657 -12.25,57.139 -36.846,82.017 -25.531,25.816 -65.012,29.599 -91.301,29.599 -13.054,0 -37.142,-3.248 -61.217,-3.502 -24.075,-0.255 -48.214,2.433 -61.558,14.738 l 1.044,1.136 c 12.731,-11.74 36.541,-14.577 60.487,-14.323 23.946,0.252 47.93,3.502 61.242,3.502 26.439,0 66.357,-3.729 92.397,-30.063 24.688,-24.965 37.31,-44.116 37.31,-83.105 l -1.557,0 -0.001,0.001 z"
           id="path17"
           inkscape:connector-curvature="0"
           style="fill:#f4f4f4" /><path
           d="m 190.751,86.278 0,0.779 0,2.286 0,0.778 0.778,0 219.67,0 0.778,0 0,-0.778 0,-2.286 0,-0.779 -0.778,0 -219.67,0 -0.778,0 z m 1.556,1.557 218.115,0 0,0.729 -218.115,0 0,-0.729 z"
           id="rect19"
           inkscape:connector-curvature="0"
           style="fill:#f4f4f4" /><path
           d="m 184.889,5.772 c -10.981,0 -19.895,8.914 -19.895,19.895 l 0,263.791 c 0,25.718 14.775,39.118 32.177,45.871 17.402,6.752 37.473,7.077 48.569,7.077 l 74.302,0 c 66.424,0 115.941,-53.903 115.941,-120.291 l 0,-196.446 c 0,-10.979 -8.92,-19.894 -19.9,-19.894 l -13.131,0 c -0.555,0 -1.059,0.343 -1.289,0.706 -0.229,0.362 -0.292,0.701 -0.292,0.997 l 0,16.319 c 0,1.979 -1.57,3.551 -3.551,3.551 l -192.529,0 c -1.979,0 -3.575,-1.571 -3.575,-3.551 l 0,-16.367 c 0,-0.386 -0.04,-0.782 -0.316,-1.143 -0.277,-0.361 -0.762,-0.511 -1.143,-0.511 l -15.371,0 0.003,-0.004 z m 0,1.557 15.273,0 c 0.006,0.029 0,-0.016 0,0.097 l 0,16.369 c 0,2.82 2.311,5.107 5.132,5.107 l 192.53,0 c 2.822,0 5.108,-2.287 5.108,-5.107 l 0,-16.32 c 0,-0.038 0.036,-0.113 0.048,-0.146 l 13.106,0 c 10.141,0 18.339,8.199 18.339,18.338 l 0,196.447 c 0,65.616 -48.8,118.734 -114.385,118.734 l -74.3,0 c -11.066,0 -30.972,-0.346 -48.011,-6.957 -17.03,-6.607 -31.171,-19.301 -31.171,-44.432 l 0,-263.79 c 0,-10.139 8.198,-18.337 18.338,-18.337 l -0.007,-0.003 z"
           id="path21-9"
           inkscape:connector-curvature="0"
           style="fill:#f4f4f4" /><path
           d="m 203.373,5.772 0,0.778 0,15.348 c 0,1.259 0.381,2.343 1.241,2.991 0.86,0.648 2.011,0.827 3.454,0.827 l 0.778,0 0,-0.778 0,-18.387 0,-0.778 -0.778,0 -3.916,0 -0.779,-10e-4 0,0 z m 1.557,1.557 2.36,0 0,16.757 c -0.799,-0.073 -1.417,-0.203 -1.727,-0.438 -0.413,-0.311 -0.633,-0.764 -0.633,-1.751"
           id="path23"
           inkscape:connector-curvature="0"
           style="fill:#f4f4f4" /><path
           d="m 209.77,5.772 0,0.778 0,18.387 0,0.779 0.778,0 3.916,0 0.778,0 0,-0.779 0,-18.386 0,-0.779 -0.778,0 -3.916,0 -0.778,0 z m 1.557,1.557 2.359,0 0,16.83 -2.359,0 0,-16.83 z"
           id="rect25"
           inkscape:connector-curvature="0"
           style="fill:#f4f4f4" /><path
           d="m 216.143,5.772 0,0.778 0,18.387 0,0.779 0.778,0 3.916,0 0.778,0 0,-0.779 0,-18.386 0,-0.779 -0.778,0 -3.916,0 -0.778,0 z m 1.556,1.557 2.359,0 0,16.83 -2.359,0 0,-16.83 z"
           id="rect27"
           inkscape:connector-curvature="0"
           style="fill:#f4f4f4" /><path
           d="m 222.539,5.772 0,0.778 0,18.387 0,0.779 0.778,0 3.916,0 0.779,0 0,-0.779 0,-18.386 0,-0.779 -0.779,0 -3.916,0 -0.778,0 z m 1.557,1.557 2.359,0 0,16.83 -2.359,0 0,-16.83 z"
           id="rect29"
           inkscape:connector-curvature="0"
           style="fill:#f4f4f4" /><path
           d="m 228.911,5.772 0,0.778 0,18.387 0,0.779 0.778,0 3.916,0 0.778,0 0,-0.779 0,-18.386 0,-0.779 -0.778,0 -3.916,0 -0.778,0 z m 1.556,1.557 2.36,0 0,16.83 -2.36,0 0,-16.83 z"
           id="rect31"
           inkscape:connector-curvature="0"
           style="fill:#f4f4f4" /><path
           d="m 235.307,5.772 0,0.778 0,18.387 0,0.779 0.778,0 3.892,0 0.778,0 0,-0.779 0,-18.386 0,-0.779 -0.778,0 -3.892,0 -0.778,0 z m 1.557,1.557 2.334,0 0,16.83 -2.334,0 0,-16.83 z"
           id="rect33"
           inkscape:connector-curvature="0"
           style="fill:#f4f4f4" /><path
           d="m 241.68,5.772 0,0.778 0,18.387 0,0.779 0.778,0 3.915,0 0.778,0 0,-0.779 0,-18.386 0,-0.779 -0.778,0 -3.915,0 -0.778,0 z m 1.556,1.557 2.359,0 0,16.83 -2.359,0 0,-16.83 z"
           id="rect35-2"
           inkscape:connector-curvature="0"
           style="fill:#f4f4f4" /><path
           d="m 248.076,5.772 0,0.778 0,18.387 0,0.779 0.778,0 3.892,0 0.778,0 0,-0.779 0,-18.386 0,-0.779 -0.778,0 -3.892,0 -0.778,0 z m 1.557,1.557 2.334,0 0,16.83 -2.334,0 0,-16.83 z"
           id="rect37-5"
           inkscape:connector-curvature="0"
           style="fill:#f4f4f4" /><path
           d="m 254.451,5.772 0,0.778 0,18.387 0,0.779 0.778,0 3.916,0 0.778,0 0,-0.779 0,-18.386 0,-0.779 -0.778,0 -3.916,0 -0.778,0 z m 1.556,1.557 2.359,0 0,16.83 -2.359,0 0,-16.83 z"
           id="rect39"
           inkscape:connector-curvature="0"
           style="fill:#f4f4f4" /><path
           d="m 260.848,5.772 0,0.778 0,18.387 0,0.779 0.778,0 3.892,0 0.778,0 0,-0.779 0,-18.386 0,-0.779 -0.778,0 -3.892,0 -0.778,0 z m 1.557,1.557 2.334,0 0,16.83 -2.334,0 0,-16.83 z"
           id="rect41"
           inkscape:connector-curvature="0"
           style="fill:#f4f4f4" /><path
           d="m 267.214,5.772 0,0.778 0,18.387 0,0.779 0.778,0 3.916,0 0.778,0 0,-0.779 0,-18.386 0,-0.779 -0.778,0 -3.916,0 -0.778,0 z m 1.557,1.557 2.359,0 0,16.83 -2.359,0 0,-16.83 z"
           id="rect43"
           inkscape:connector-curvature="0"
           style="fill:#f4f4f4" /><path
           d="m 273.612,5.772 0,0.778 0,18.387 0,0.779 0.778,0 3.892,0 0.778,0 0,-0.779 0,-18.386 0,-0.779 -0.778,0 -3.892,0 -0.778,0 z m 1.556,1.557 2.334,0 0,16.83 -2.334,0 0,-16.83 z"
           id="rect45"
           inkscape:connector-curvature="0"
           style="fill:#f4f4f4" /><path
           d="m 279.986,5.772 0,0.778 0,18.387 0,0.779 0.778,0 3.916,0 0.778,0 0,-0.779 0,-18.386 0,-0.779 -0.778,0 -3.916,0 -0.778,0 z m 1.556,1.557 2.36,0 0,16.83 -2.36,0 0,-16.83 z"
           id="rect47"
           inkscape:connector-curvature="0"
           style="fill:#f4f4f4" /><path
           d="m 286.36,5.772 0,0.778 0,18.387 0,0.779 0.777,0 3.917,0 0.778,0 0,-0.779 0,-18.386 0,-0.779 -0.778,0 -3.917,0 -0.777,0 z m 1.557,1.557 2.359,0 0,16.83 -2.359,0 0,-16.83 z"
           id="rect49-6"
           inkscape:connector-curvature="0"
           style="fill:#f4f4f4" /><path
           d="m 292.758,5.772 0,0.778 0,18.387 0,0.779 0.778,0 3.916,0 0.779,0 0,-0.779 0,-18.386 0,-0.779 -0.779,0 -3.916,0 -0.778,0 z m 1.556,1.557 2.36,0 0,16.83 -2.36,0 0,-16.83 z"
           id="rect51-1"
           inkscape:connector-curvature="0"
           style="fill:#f4f4f4" /><path
           d="m 299.125,5.772 0,0.778 0,18.387 0,0.779 0.777,0 3.917,0 0.778,0 0,-0.779 0,-18.386 0,-0.779 -0.778,0 -3.917,0 -0.777,0 z m 1.556,1.557 2.359,0 0,16.83 -2.359,0 0,-16.83 z"
           id="rect53"
           inkscape:connector-curvature="0"
           style="fill:#f4f4f4" /><path
           d="m 305.521,5.772 0,0.778 0,18.387 0,0.779 0.779,0 3.916,0 0.778,0 0,-0.779 0,-18.386 0,-0.779 -0.778,0 -3.916,0 -0.779,0 z m 1.557,1.557 2.358,0 0,16.83 -2.358,0 0,-16.83 z"
           id="rect55"
           inkscape:connector-curvature="0"
           style="fill:#f4f4f4" /><path
           d="m 311.896,5.772 0,0.778 0,18.387 0,0.779 0.777,0 3.916,0 0.778,0 0,-0.779 0,-18.386 0,-0.779 -0.778,0 -3.916,0 -0.777,0 z m 1.556,1.557 2.358,0 0,16.83 -2.358,0 0,-16.83 z"
           id="rect57"
           inkscape:connector-curvature="0"
           style="fill:#f4f4f4" /><path
           d="m 318.291,5.772 0,0.778 0,18.387 0,0.779 0.78,0 3.915,0 0.778,0 0,-0.779 0,-18.386 0,-0.779 -0.778,0 -3.915,0 -0.78,0 z m 1.558,1.557 2.359,0 0,16.83 -2.359,0 0,-16.83 z"
           id="rect59"
           inkscape:connector-curvature="0"
           style="fill:#f4f4f4" /><path
           d="m 324.668,5.772 0,0.778 0,18.387 0,0.779 0.777,0 3.917,0 0.777,0 0,-0.779 0,-18.386 0,-0.779 -0.777,0 -3.917,0 -0.777,0 z m 1.556,1.557 2.359,0 0,16.83 -2.359,0 0,-16.83 z"
           id="rect61"
           inkscape:connector-curvature="0"
           style="fill:#f4f4f4" /><path
           d="m 331.064,5.772 0,0.778 0,18.387 0,0.779 0.778,0 3.914,0 0.78,0 0,-0.779 0,-18.386 0,-0.779 -0.78,0 -3.914,0 -0.778,0 z m 1.556,1.557 2.359,0 0,16.83 -2.359,0 0,-16.83 z"
           id="rect63"
           inkscape:connector-curvature="0"
           style="fill:#f4f4f4" /><path
           d="m 337.432,5.772 0,0.778 0,18.387 0,0.779 0.777,0 3.916,0 0.777,0 0,-0.779 0,-18.386 0,-0.779 -0.777,0 -3.916,0 -0.777,0 z m 1.555,1.557 2.358,0 0,16.83 -2.358,0 0,-16.83 z"
           id="rect65"
           inkscape:connector-curvature="0"
           style="fill:#f4f4f4" /><path
           d="m 343.827,5.772 0,0.778 0,18.387 0,0.779 0.78,0 3.89,0 0.778,0 0,-0.779 0,-18.386 0,-0.779 -0.778,0 -3.89,0 -0.78,0 z m 1.558,1.557 2.335,0 0,16.83 -2.335,0 0,-16.83 z"
           id="rect67"
           inkscape:connector-curvature="0"
           style="fill:#f4f4f4" /><path
           d="m 350.201,5.772 0,0.778 0,18.387 0,0.779 0.778,0 3.917,0 0.777,0 0,-0.779 0,-18.386 0,-0.779 -0.777,0 -3.917,0 -0.778,0 z m 1.558,1.557 2.358,0 0,16.83 -2.358,0 0,-16.83 z"
           id="rect69"
           inkscape:connector-curvature="0"
           style="fill:#f4f4f4" /><path
           d="m 356.6,5.772 0,0.778 0,18.387 0,0.779 0.778,0 3.892,0 0.779,0 0,-0.779 0,-18.386 0,-0.779 -0.779,0 -3.892,0 -0.778,0 z m 1.556,1.557 2.335,0 0,16.83 -2.335,0 0,-16.83 z"
           id="rect71"
           inkscape:connector-curvature="0"
           style="fill:#f4f4f4" /><path
           d="m 362.974,5.772 0,0.778 0,18.387 0,0.779 0.778,0 3.916,0 0.777,0 0,-0.779 0,-18.386 0,-0.779 -0.777,0 -3.916,0 -0.778,0 z m 1.556,1.557 2.358,0 0,16.83 -2.358,0 0,-16.83 z"
           id="rect73"
           inkscape:connector-curvature="0"
           style="fill:#f4f4f4" /><path
           d="m 369.364,5.772 0,0.778 0,18.387 0,0.779 0.778,0 3.891,0 0.778,0 0,-0.779 0,-18.386 0,-0.779 -0.778,0 -3.891,0 -0.778,0 z m 1.557,1.557 2.335,0 0,16.83 -2.335,0 0,-16.83 z"
           id="rect75"
           inkscape:connector-curvature="0"
           style="fill:#f4f4f4" /><path
           d="m 375.737,5.772 0,0.778 0,18.387 0,0.779 0.778,0 3.917,0 0.777,0 0,-0.779 0,-18.386 0,-0.779 -0.777,0 -3.917,0 -0.778,0 z m 1.557,1.557 2.359,0 0,16.83 -2.359,0 0,-16.83 z"
           id="rect77"
           inkscape:connector-curvature="0"
           style="fill:#f4f4f4" /><path
           d="m 382.111,5.772 0,0.778 0,18.387 0,0.779 0.778,0 3.916,0 0.777,0 0,-0.779 0,-18.386 0,-0.779 -0.777,0 -3.916,0 -0.778,0 z m 1.557,1.557 2.358,0 0,16.83 -2.358,0 0,-16.83 z"
           id="rect79"
           inkscape:connector-curvature="0"
           style="fill:#f4f4f4" /><path
           d="m 388.51,5.772 0,0.778 0,18.387 0,0.779 0.778,0 3.915,0 0.778,0 0,-0.779 0,-18.386 0,-0.779 -0.778,0 -3.915,0 -0.778,0 z m 1.555,1.557 2.359,0 0,16.83 -2.359,0 0,-16.83 z"
           id="rect81"
           inkscape:connector-curvature="0"
           style="fill:#f4f4f4" /><path
           d="m 394.883,5.772 0,0.778 0,18.387 0,0.779 0.779,0 c 1.476,0 2.614,-0.134 3.478,-0.779 0.863,-0.644 1.216,-1.743 1.216,-3.04 l 0,-15.346 0,-0.779 -0.778,0 -3.915,0 -0.78,0 0,0 z m 1.557,1.557 2.358,0 0,14.569 c 10e-4,1.057 -0.196,1.511 -0.584,1.799 -0.267,0.2 -1.059,0.24 -1.774,0.316"
           id="path83"
           inkscape:connector-curvature="0"
           style="fill:#f4f4f4" /><path
           d="m 200.869,7.232 0,1.557 3.308,0 0,-1.557 -3.308,0 z"
           id="line85"
           inkscape:connector-curvature="0"
           style="fill:#f4f4f4" /><path
           d="m 208.043,7.232 0,1.557 2.432,0 0,-1.557 -2.432,0 z"
           id="line87"
           inkscape:connector-curvature="0"
           style="fill:#f4f4f4" /><path
           d="m 214.489,7.232 0,1.557 2.457,0 0,-1.557 -2.457,0 z"
           id="line89"
           inkscape:connector-curvature="0"
           style="fill:#f4f4f4" /><path
           d="m 220.861,7.232 0,1.557 2.432,0 0,-1.557 -2.432,0 z"
           id="line91"
           inkscape:connector-curvature="0"
           style="fill:#f4f4f4" /><path
           d="m 227.232,7.232 0,1.557 2.433,0 0,-1.557 -2.433,0 z"
           id="line93"
           inkscape:connector-curvature="0"
           style="fill:#f4f4f4" /><path
           d="m 233.63,7.232 0,1.557 2.456,0 0,-1.557 -2.456,0 z"
           id="line95"
           inkscape:connector-curvature="0"
           style="fill:#f4f4f4" /><path
           d="m 240.026,7.232 0,1.557 2.456,0 0,-1.557 -2.456,0 z"
           id="line97"
           inkscape:connector-curvature="0"
           style="fill:#f4f4f4" /><path
           d="m 246.45,7.232 0,1.557 2.432,0 0,-1.557 -2.432,0 z"
           id="line99"
           inkscape:connector-curvature="0"
           style="fill:#f4f4f4" /><path
           d="m 252.847,7.232 0,1.557 2.432,0 0,-1.557 -2.432,0 z"
           id="line101"
           inkscape:connector-curvature="0"
           style="fill:#f4f4f4" /><path
           d="m 259.073,7.232 0,1.557 2.432,0 0,-1.557 -2.432,0 z"
           id="line103"
           inkscape:connector-curvature="0"
           style="fill:#f4f4f4" /><path
           d="m 265.588,7.232 0,1.557 2.432,0 0,-1.557 -2.432,0 z"
           id="line105"
           inkscape:connector-curvature="0"
           style="fill:#f4f4f4" /><path
           d="m 271.884,7.232 0,1.557 2.433,0 0,-1.557 -2.433,0 z"
           id="line107"
           inkscape:connector-curvature="0"
           style="fill:#f4f4f4" /><path
           d="m 278.359,7.232 0,1.557 2.432,0 0,-1.557 -2.432,0 z"
           id="line109"
           inkscape:connector-curvature="0"
           style="fill:#f4f4f4" /><path
           d="m 284.655,7.232 0,1.557 2.457,0 0,-1.557 -2.457,0 z"
           id="line111"
           inkscape:connector-curvature="0"
           style="fill:#f4f4f4" /><path
           d="m 291.076,7.232 0,1.557 2.457,0 0,-1.557 -2.457,0 z"
           id="line113"
           inkscape:connector-curvature="0"
           style="fill:#f4f4f4" /><path
           d="m 297.475,7.232 0,1.557 2.431,0 0,-1.557 -2.431,0 z"
           id="line115"
           inkscape:connector-curvature="0"
           style="fill:#f4f4f4" /><path
           d="m 303.941,7.232 0,1.557 2.433,0 0,-1.557 -2.433,0 z"
           id="line117"
           inkscape:connector-curvature="0"
           style="fill:#f4f4f4" /><path
           d="m 310.27,7.232 0,1.557 2.456,0 0,-1.557 -2.456,0 z"
           id="line119"
           inkscape:connector-curvature="0"
           style="fill:#f4f4f4" /><path
           d="m 316.636,7.232 0,1.557 2.432,0 0,-1.557 -2.432,0 z"
           id="line121"
           inkscape:connector-curvature="0"
           style="fill:#f4f4f4" /><path
           d="m 323.01,7.232 0,1.557 2.432,0 0,-1.557 -2.432,0 z"
           id="line123"
           inkscape:connector-curvature="0"
           style="fill:#f4f4f4" /><path
           d="m 329.338,7.232 0,1.557 2.456,0 0,-1.557 -2.456,0 z"
           id="line125"
           inkscape:connector-curvature="0"
           style="fill:#f4f4f4" /><path
           d="m 335.703,7.232 0,1.557 2.433,0 0,-1.557 -2.433,0 z"
           id="line127"
           inkscape:connector-curvature="0"
           style="fill:#f4f4f4" /><path
           d="m 342.225,7.232 0,1.557 2.433,0 0,-1.557 -2.433,0 z"
           id="line129"
           inkscape:connector-curvature="0"
           style="fill:#f4f4f4" /><path
           d="m 348.545,7.232 0,1.557 2.457,0 0,-1.557 -2.457,0 z"
           id="line131"
           inkscape:connector-curvature="0"
           style="fill:#f4f4f4" /><path
           d="m 354.896,7.232 0,1.557 2.456,0 0,-1.557 -2.456,0 z"
           id="line133"
           inkscape:connector-curvature="0"
           style="fill:#f4f4f4" /><path
           d="m 361.292,7.232 0,1.557 2.432,0 0,-1.557 -2.432,0 z"
           id="line135"
           inkscape:connector-curvature="0"
           style="fill:#f4f4f4" /><path
           d="m 367.613,7.232 0,1.557 2.456,0 0,-1.557 -2.456,0 z"
           id="line137"
           inkscape:connector-curvature="0"
           style="fill:#f4f4f4" /><path
           d="m 373.965,7.232 0,1.557 2.455,0 0,-1.557 -2.455,0 z"
           id="line139"
           inkscape:connector-curvature="0"
           style="fill:#f4f4f4" /><path
           d="m 380.432,7.232 0,1.557 2.456,0 0,-1.557 -2.456,0 z"
           id="line141"
           inkscape:connector-curvature="0"
           style="fill:#f4f4f4" /><path
           d="m 386.781,7.232 0,1.557 2.433,0 0,-1.557 -2.433,0 z"
           id="line143"
           inkscape:connector-curvature="0"
           style="fill:#f4f4f4" /><path
           d="m 393.124,7.232 0,1.557 2.456,0 0,-1.557 -2.456,0 z"
           id="line145"
           inkscape:connector-curvature="0"
           style="fill:#f4f4f4" /><path
           d="m 399.553,7.232 0,1.557 2.456,0 0,-1.557 -2.456,0 z"
           id="line147"
           inkscape:connector-curvature="0"
           style="fill:#f4f4f4" /><path
           d="m 422.56,243.71 c -2.825,0 -5.399,1.4 -6.835,3.647 -6.897,10.807 -10.616,14.714 -12.306,16.854 -0.892,1.129 -1.759,2.722 -1.606,4.427 0.077,0.854 0.457,1.713 1.192,2.408 0.737,0.695 1.786,1.234 3.235,1.58 2.728,0.655 5.926,1.364 9.023,1.192 3.096,-0.171 6.134,-1.29 8.292,-4.208 2.073,-2.802 3.885,-6.436 5.182,-9.751 1.292,-3.305 2.102,-6.175 2.042,-7.93 0,-0.008 0,-0.016 0,-0.024 -0.013,-4.519 -3.697,-8.196 -8.219,-8.195 l 0,0 z m 0,1.557 c 3.691,0 6.664,2.975 6.664,6.664 l 0,0.024 c 0.043,1.125 -0.664,4.127 -1.921,7.345 -1.258,3.215 -3.039,6.757 -4.987,9.387 -1.86,2.516 -4.352,3.421 -7.15,3.575 -2.797,0.154 -5.856,-0.494 -8.561,-1.143 -1.268,-0.304 -2.053,-0.743 -2.529,-1.191 -0.476,-0.449 -0.684,-0.916 -0.729,-1.435 -0.094,-1.04 0.55,-2.373 1.289,-3.309 1.57,-1.987 5.46,-6.122 12.403,-17.001 1.138,-1.78 3.209,-2.919 5.521,-2.919 l 0,0.003 z"
           id="path149"
           inkscape:connector-curvature="0"
           style="fill:#f4f4f4" /><path
           d="m 423.144,247.912 c -0.394,0.016 -0.787,0.156 -1.119,0.341 -0.1,0.055 -0.525,0.217 -1.047,0.34 -0.52,0.123 -1.156,0.231 -1.823,0.316 -1.336,0.17 -2.813,0.192 -3.526,0.023 l -0.364,1.509 c 1.134,0.267 2.649,0.207 4.085,0.024 0.717,-0.092 1.407,-0.227 1.995,-0.365 0.586,-0.139 1.044,-0.27 1.435,-0.486 0.313,-0.173 0.497,-0.112 0.486,-0.122 -0.006,-0.004 0.029,0.014 0.049,0.195 0.021,0.182 -0.003,0.498 -0.146,0.972 -0.293,0.973 -1.328,3.541 -2.505,6.276 -1.179,2.734 -2.514,5.694 -3.43,7.637 -0.918,1.944 -1.521,3.032 -2.019,3.574 -0.499,0.542 -0.841,0.678 -1.802,0.779 l -0.022,0 c -2.008,0.21 -6.546,0.422 -10.24,0 l -0.193,1.532 c 3.899,0.445 8.474,0.225 10.604,0 1.105,-0.116 2.045,-0.424 2.795,-1.241 0.754,-0.816 1.358,-2.021 2.287,-3.988 0.93,-1.97 2.27,-4.934 3.453,-7.686 1.182,-2.743 2.19,-5.19 2.555,-6.396 l 0,-0.024 c 0.184,-0.611 0.271,-1.132 0.219,-1.605 -0.053,-0.474 -0.263,-0.926 -0.607,-1.216 -0.347,-0.289 -0.727,-0.405 -1.12,-0.389 l 0,0 z"
           id="path151"
           inkscape:connector-curvature="0"
           style="fill:#f4f4f4" /><path
           d="m 420.364,250.954 c -2.592,7.023 -5.82,13.817 -7.199,15.785 l 1.289,0.899 c 1.666,-2.378 4.747,-9.047 7.369,-16.149 l -1.459,-0.535 0,0 z"
           id="path153"
           inkscape:connector-curvature="0"
           style="fill:#f4f4f4" /></g></g></g></svg>