<?xml version="1.0" encoding="UTF-8" standalone="no"?>
<!-- Generator: Adobe Illustrator 13.0.0, SVG Export Plug-In . SVG Version: 6.00 Build 14948)  -->

<svg
   xmlns:dc="http://purl.org/dc/elements/1.1/"
   xmlns:cc="http://creativecommons.org/ns#"
   xmlns:rdf="http://www.w3.org/1999/02/22-rdf-syntax-ns#"
   xmlns:svg="http://www.w3.org/2000/svg"
   xmlns="http://www.w3.org/2000/svg"
   xmlns:sodipodi="http://sodipodi.sourceforge.net/DTD/sodipodi-0.dtd"
   xmlns:inkscape="http://www.inkscape.org/namespaces/inkscape"
   version="1.1"
   id="Layer_2"
   x="0px"
   y="0px"
   width="550"
   height="550"
   viewBox="0 0 549.99995 549.99999"
   enable-background="new 0 0 598.189 350.26"
   xml:space="preserve"
   inkscape:version="0.91 r13725"
   sodipodi:docname="controller_gg.svg"><metadata
     id="metadata3083"><rdf:RDF><cc:Work
         rdf:about=""><dc:format>image/svg+xml</dc:format><dc:type
           rdf:resource="http://purl.org/dc/dcmitype/StillImage" /><dc:title></dc:title></cc:Work></rdf:RDF></metadata><defs
     id="defs3081" /><sodipodi:namedview
     pagecolor="#ffffff"
     bordercolor="#666666"
     borderopacity="1"
     objecttolerance="10"
     gridtolerance="10"
     guidetolerance="10"
     inkscape:pageopacity="0"
     inkscape:pageshadow="2"
     inkscape:window-width="1920"
     inkscape:window-height="1001"
     id="namedview3079"
     showgrid="false"
     inkscape:zoom="1.0799262"
     inkscape:cx="248.77122"
     inkscape:cy="298.43665"
     inkscape:window-x="-9"
     inkscape:window-y="-9"
     inkscape:window-maximized="1"
     inkscape:current-layer="g12192"
     showguides="true"
     inkscape:guide-bbox="true" /><g
     inkscape:groupmode="layer"
     id="layer2"
     inkscape:label="Screen_Rect"
     style="display:none"
     transform="translate(0,199.73999)"
     sodipodi:insensitive="true"><path
       style="fill:#0000ff;stroke:#000000;stroke-width:1px;stroke-linecap:butt;stroke-linejoin:miter;stroke-opacity:1"
       d="M 5.0135033,547.22203 136.4109,114.39023 653.54628,-189.09358 406.482,260.92121 Z"
       id="path3021"
       inkscape:connector-curvature="0"
       transform="translate(-2e-5,-199.73999)"
       sodipodi:nodetypes="ccccc" /><rect
       style="opacity:0.60100002;fill:#d8201f;fill-opacity:1;stroke:#ff8080;stroke-width:2.45114732;stroke-linecap:round;stroke-linejoin:round;stroke-miterlimit:4;stroke-dasharray:none;stroke-opacity:1"
       id="rect4230"
       width="444.2457"
       height="9.9567661"
       x="145.95099"
       y="-211.30678" /></g><g
     inkscape:groupmode="layer"
     id="layer1"
     inkscape:label="Controller_Vorlage"
     style="display:none"
     sodipodi:insensitive="true"><g
       id="g4929"
       transform="translate(-0.929149,0.5695451)"><g
         transform="translate(0,199.73999)"
         style="display:none"
         inkscape:label="Layer2"
         id="layer2-9"><path
           sodipodi:nodetypes="ccccc"
           transform="translate(-2e-5,-199.73999)"
           inkscape:connector-curvature="0"
           id="path3021-0"
           d="M 5.0135033,547.22203 136.4109,114.39023 653.54628,-189.09358 406.482,260.92121 Z"
           style="fill:#ffffff;stroke:#000000;stroke-width:1px;stroke-linecap:butt;stroke-linejoin:miter;stroke-opacity:1" /></g><g
         inkscape:label="Layer"
         id="layer1-2"><g
           transform="matrix(0.55322035,-0.3970343,-0.34863416,0.85569517,173.63773,166.52161)"
           id="g3100"><path
             style="fill:#f4f4f4"
             inkscape:connector-curvature="0"
             id="path3"
             d="m 148.05,114.447 c -23.656,0 -42.861,19.204 -42.861,42.861 l 0,37.414 c 0,23.658 19.205,42.86 42.861,42.86 l 38.694,0 c 23.656,0 42.861,-19.202 42.861,-42.86 l 0,-37.414 c 0,-23.657 -19.205,-42.861 -42.861,-42.861 l -38.694,0 z m 0,1.905 38.694,0 c 22.627,0 40.956,18.328 40.956,40.956 l 0,37.414 c 0,22.629 -18.329,40.956 -40.956,40.956 l -38.694,0 c -22.628,0 -40.956,-18.327 -40.956,-40.956 l 0,-37.414 c 0,-22.629 18.328,-40.956 40.956,-40.956 z" /><path
             style="fill:#f4f4f4"
             inkscape:connector-curvature="0"
             id="path5"
             d="m 167.395,123.168 c -3.23,0 -5.863,2.633 -5.863,5.864 l 0,13.037 c 0,3.23 2.632,5.863 5.863,5.863 3.23,0 5.863,-2.633 5.863,-5.863 l 0,-13.037 c 0,-3.23 -2.633,-5.864 -5.863,-5.864 z m 0,1.906 c 2.201,0 3.958,1.758 3.958,3.958 l 0,13.037 c 0,2.2 -1.758,3.958 -3.958,3.958 -2.202,0 -3.958,-1.758 -3.958,-3.958 l 0,-13.037 c -0.001,-2.2 1.757,-3.958 3.958,-3.958 z" /><path
             style="fill:#f4f4f4"
             inkscape:connector-curvature="0"
             id="path7"
             d="m 120.425,170.135 c -3.23,0 -5.864,2.633 -5.864,5.864 0,3.231 2.632,5.894 5.864,5.894 l 13.037,0 c 3.229,0 5.864,-2.662 5.864,-5.894 0,-3.229 -2.633,-5.864 -5.864,-5.864 l -13.037,0 z m 0,1.905 13.037,0 c 2.201,0 3.959,1.759 3.959,3.959 0,2.201 -1.759,3.988 -3.959,3.988 l -13.037,0 c -2.198,-0.01 -3.955,-1.791 -3.955,-3.99 0,-2.201 1.758,-3.959 3.958,-3.959 l -0.003,0.002 z" /><path
             style="fill:#f4f4f4"
             inkscape:connector-curvature="0"
             id="path9"
             d="m 167.395,204.071 c -3.23,0 -5.863,2.663 -5.863,5.894 l 0,13.038 c 0,3.229 2.632,5.863 5.863,5.863 3.23,0 5.863,-2.633 5.863,-5.863 l 0,-13.038 c 0,-3.23 -2.633,-5.894 -5.863,-5.894 z m 0,1.906 c 2.201,0 3.958,1.789 3.958,3.988 l 0,13.038 c 0,2.2 -1.757,3.958 -3.958,3.958 -2.202,0 -3.958,-1.759 -3.958,-3.958 l 0,-13.038 c -0.001,-2.2 1.757,-3.988 3.958,-3.988 z" /><path
             style="fill:#f4f4f4"
             inkscape:connector-curvature="0"
             id="path11"
             d="m 201.321,170.135 c -3.229,0 -5.863,2.633 -5.863,5.864 0,3.231 2.633,5.894 5.863,5.894 l 13.067,0 c 3.229,0 5.863,-2.662 5.863,-5.894 0,-3.229 -2.633,-5.864 -5.863,-5.864 l -13.067,0 z m 0,1.905 13.067,0 c 2.2,0 3.958,1.76 3.958,3.959 0,2.201 -1.758,3.988 -3.958,3.988 l -13.067,0 c -2.2,0 -3.958,-1.788 -3.958,-3.988 0,-2.2 1.759,-3.959 3.958,-3.959 z" /><path
             style="fill:#f4f4f4"
             inkscape:connector-curvature="0"
             id="polygon13"
             d="m 133.878,141.176 -1.31,1.31 8.155,12.025 0.655,0.952 0.804,-0.803 3.869,-3.87 0.804,-0.804 -0.953,-0.655 -12.024,-8.155 z" /><path
             style="fill:#f4f4f4"
             inkscape:connector-curvature="0"
             id="polygon15"
             d="m 141.383,196.566 -0.654,0.952 -8.156,12.024 1.31,1.31 12.025,-8.155 0.953,-0.654 -0.804,-0.804 -3.87,-3.869 -0.804,-0.804 z" /><path
             style="fill:#f4f4f4"
             inkscape:connector-curvature="0"
             id="polygon17"
             d="m 193.435,196.566 -0.804,0.804 -3.869,3.869 -0.833,0.804 0.953,0.654 12.025,8.155 1.339,-1.31 -8.156,-12.024 -0.655,-0.952 0,0 z" /><path
             style="fill:#f4f4f4"
             inkscape:connector-curvature="0"
             id="polygon19"
             d="m 200.912,141.176 -12.025,8.155 -0.953,0.655 0.833,0.804 3.87,3.87 0.804,0.803 0.655,-0.952 8.155,-12.025 -1.339,-1.31 z" /><path
             style="fill:#f4f4f4"
             inkscape:connector-curvature="0"
             id="path21"
             d="m 146.354,104.833 c -27.67,0 -50.123,22.453 -50.123,50.124 l 0,42.117 c 0,27.671 22.453,50.123 50.123,50.123 l 42.117,0 c 27.671,0 50.124,-22.452 50.124,-50.123 l 0,-42.117 c 0,-27.67 -22.452,-50.124 -50.124,-50.124 l -42.117,0 z m 0,1.906 42.117,0 c 26.644,0 48.219,21.577 48.219,48.218 l 0,42.117 c 0,26.644 -21.577,48.218 -48.219,48.218 l -42.117,0 c -26.642,0 -48.218,-21.574 -48.218,-48.218 l 0,-42.117 c 0,-26.642 21.577,-48.218 48.218,-48.218 z" /><path
             style="fill:#f4f4f4"
             inkscape:connector-curvature="0"
             id="polygon23"
             d="m 69.499,75.694 0,0.952 0,202.961 0,0.952 0.953,0 196.122,0 0.952,0 0,-0.952 0,-26.401 289.521,0 0.952,0 0,-0.952 0,-113.458 0,-0.953 -0.952,0 -289.522,0 0,-61.196 0,-0.952 -0.952,0 -196.122,0 -0.952,-10e-4 0,0 z m 1.904,1.905 194.217,0 0,61.196 0,0.953 0.953,0 0.714,0 288.807,0 0,111.552 -289.226,0 -0.297,0 -0.953,0 0,0.953 0,26.4 -194.217,0 0,-201.055 0.002,0.001 z" /><path
             style="fill:#f4f4f4"
             inkscape:connector-curvature="0"
             id="circle25"
             d="m 400.692,169.126 c -19.762,0 -35.777,16.046 -35.777,35.807 0,19.761 16.018,35.807 35.777,35.807 19.759,0 35.807,-16.046 35.807,-35.807 0,-19.761 -16.047,-35.807 -35.807,-35.807 l 0,0 z m 0,1.905 c 18.73,0 33.901,15.17 33.901,33.902 0,18.732 -15.171,33.902 -33.901,33.902 -18.731,0 -33.872,-15.171 -33.872,-33.902 0,-18.731 15.141,-33.902 33.872,-33.902 l 0,0 z" /><path
             style="fill:#f4f4f4"
             inkscape:connector-curvature="0"
             id="circle27"
             d="m 400.692,177.669 c -15.039,0 -27.234,12.227 -27.234,27.265 0,15.038 12.195,27.234 27.234,27.234 15.036,0 27.264,-12.196 27.264,-27.234 0,-15.038 -12.227,-27.265 -27.264,-27.265 z m 0,1.905 c 14.008,0 25.359,11.351 25.359,25.359 0,14.008 -11.352,25.33 -25.359,25.33 -14.01,0 -25.33,-11.321 -25.33,-25.33 0,-14.009 11.321,-25.359 25.33,-25.359 z" /><path
             style="fill:#f4f4f4"
             inkscape:connector-curvature="0"
             id="circle29"
             d="m 489.919,169.126 c -19.762,0 -35.807,16.046 -35.807,35.807 0,19.761 16.045,35.807 35.807,35.807 19.76,0 35.807,-16.046 35.807,-35.807 0,-19.761 -16.047,-35.807 -35.807,-35.807 l 0,0 z m 0,1.905 c 18.73,0 33.901,15.17 33.901,33.902 0,18.732 -15.171,33.902 -33.901,33.902 -18.731,0 -33.902,-15.171 -33.902,-33.902 0,-18.731 15.171,-33.902 33.902,-33.902 l 0,0 z" /><path
             style="fill:#f4f4f4"
             inkscape:connector-curvature="0"
             id="circle31"
             d="m 489.919,177.669 c -15.039,0 -27.234,12.227 -27.234,27.265 0,15.038 12.195,27.234 27.234,27.234 15.036,0 27.234,-12.196 27.234,-27.234 0,-15.038 -12.196,-27.265 -27.234,-27.265 z m 0,1.905 c 14.008,0 25.329,11.351 25.329,25.359 0,14.008 -11.321,25.33 -25.329,25.33 -14.01,0 -25.33,-11.321 -25.33,-25.33 0,-14.009 11.32,-25.359 25.33,-25.359 z" /><path
             style="fill:#f4f4f4"
             inkscape:connector-curvature="0"
             id="path33"
             d="m 39.406,68.432 c -4.766,0 -8.662,3.896 -8.662,8.662 l 0,203.084 c 0,4.766 3.897,8.661 8.662,8.661 l 518.646,0 c 4.429,0 7.956,-3.411 8.453,-7.709 l 0.179,0 0,-0.952 0,-203.085 c 0,-4.762 -3.868,-8.658 -8.64,-8.658 l -518.645,0 0.007,-0.003 z m 0,1.904 518.646,0 c 3.737,0 6.727,3.021 6.727,6.757 l 0,202.131 0,0.953 c 0,3.736 -2.989,6.756 -6.727,6.756 l -518.646,0 c -3.732,0.01 -6.753,-3.019 -6.753,-6.753 l 0,-203.083 c 0,-3.736 3.02,-6.756 6.756,-6.756 l -0.003,-0.005 z" /><path
             style="fill:#f4f4f4"
             inkscape:connector-curvature="0"
             id="rect35"
             d="m 359.021,163.559 0,0.953 0,81.465 0,0.952 0.953,0 81.465,0 0.953,0 0,-0.952 0,-81.465 0,-0.953 -0.953,0 -81.465,0 -0.953,0 z m 1.906,1.905 79.561,0 0,79.56 -79.561,0 0,-79.56 z" /><path
             style="fill:#f4f4f4"
             inkscape:connector-curvature="0"
             id="rect37"
             d="m 448.248,163.559 0,0.953 0,81.465 0,0.952 0.953,0 81.436,0 0.952,0 0,-0.952 0,-81.465 0,-0.953 -0.952,0 -81.436,0 -0.953,0 z m 1.905,1.905 79.531,0 0,79.56 -79.531,0 0,-79.56 z" /><path
             style="fill:#f4f4f4"
             inkscape:connector-curvature="0"
             id="polyline39"
             d="m 83.934,94.177 0,2.292 0,159.061 0,2.322 1.607,-1.638 25.33,-25.299 -1.369,-1.369 -23.663,23.692 0,-154.45 23.663,23.658 1.369,-1.34 -25.33,-25.299 -1.607,-1.637 0,0.007 z" /><path
             style="fill:#f4f4f4"
             inkscape:connector-curvature="0"
             id="polyline41"
             d="m 222.305,232.551 -1.37,1.339 23.693,23.692 -154.452,0 23.574,-23.573 -1.369,-1.339 -25.181,25.182 -1.637,1.637 2.292,0 159.062,0 2.292,0 -1.607,-1.637 -25.299,-25.3 0.002,-0.001 z" /><path
             style="fill:#f4f4f4"
             inkscape:connector-curvature="0"
             id="polyline43"
             d="m 250.878,94.177 -1.637,1.637 -25.211,25.182 1.369,1.369 23.574,-23.603 0,154.509 -23.633,-23.663 -1.339,1.34 25.24,25.27 1.637,1.638 0,-2.322 0,-159.063 0,-2.292 0,-0.002 z" /><path
             style="fill:#f4f4f4"
             inkscape:connector-curvature="0"
             id="polyline45"
             d="m 85.57,92.54 1.638,1.608 25.21,25.24 1.339,-1.34 -23.572,-23.602 154.452,0 -23.669,23.662 1.333,1.339 25.307,-25.3 1.607,-1.607 -2.292,0 -159.062,0 -2.291,0 0,0 z" /><path
             style="fill:#f4f4f4"
             inkscape:connector-curvature="0"
             id="line47"
             d="m 58.961,69.533 0,218.057 1.905,0 0,-218.057 -1.905,0 z" /><path
             style="fill:#f4f4f4"
             inkscape:connector-curvature="0"
             id="rect49"
             d="m 359.021,145.819 0,0.953 0,13.244 0,0.953 0.953,0 81.465,0 0.953,0 0,-0.953 0,-13.244 0,-0.953 -0.953,0 -81.465,0 -0.953,0 z m 1.906,1.905 79.561,0 0,11.339 -79.561,0 0,-11.339 z" /><path
             style="fill:#f4f4f4"
             inkscape:connector-curvature="0"
             id="rect51"
             d="m 448.248,145.819 0,0.953 0,13.244 0,0.953 0.953,0 81.436,0 0.952,0 0,-0.953 0,-13.244 0,-0.953 -0.952,0 -81.436,0 -0.953,0 z m 1.905,1.905 79.531,0 0,11.339 -79.531,0 0,-11.339 z" /><path
             style="fill:#f4f4f4"
             inkscape:connector-curvature="0"
             id="path53"
             d="m 276.804,73.134 c -0.987,0 -1.815,0.828 -1.815,1.816 l 0,53.01 c 0,0.988 0.829,1.815 1.815,1.815 l 282.855,0 c 0.985,0 1.785,-0.831 1.785,-1.815 l 0,-50.033 c 0,-2.641 -2.152,-4.792 -4.792,-4.792 l -279.844,0 -0.004,0 z m 0.09,1.906 279.756,0 c 1.613,0 2.888,1.275 2.888,2.887 l 0,49.945 -282.643,0 0,-52.832 -10e-4,0 z" /><path
             style="fill:#f4f4f4"
             inkscape:connector-curvature="0"
             id="path55"
             d="m 276.804,260.41 c -0.987,0 -1.815,0.829 -1.815,1.815 l 0,20.091 c 0,0.987 0.829,1.816 1.815,1.816 l 279.844,0 c 2.64,0 4.792,-2.183 4.792,-4.822 l 0,-17.085 c 0,-0.985 -0.8,-1.815 -1.785,-1.815 l -282.855,0 0.004,0 z m 0.09,1.905 282.645,0 0,16.995 c 0,1.611 -1.276,2.917 -2.888,2.917 l -279.758,0 0.001,-19.912 0,0 z" /><path
             style="fill:#f4f4f4"
             inkscape:connector-curvature="0"
             id="line57"
             d="m 274.461,129.271 -6.28,6.28 1.369,1.339 6.251,-6.25 -1.34,-1.369 z" /><path
             style="fill:#f4f4f4"
             inkscape:connector-curvature="0"
             id="line59"
             d="m 269.546,253.866 -1.369,1.34 6.281,6.28 1.339,-1.369 -6.251,-6.251 z" /></g></g></g></g><g
     inkscape:groupmode="layer"
     id="layer4"
     inkscape:label="Controller"><g
       id="g12192"
       transform="matrix(0.52634968,-0.38371487,-0.36199415,0.79024751,151.0404,222.06172)"><g
         id="g15512"
         transform="matrix(0.98110705,0.03190359,0.3407499,0.94879525,-48.987847,-78.064685)"><path
           d="m 146.177,40.312 c -48.809,0 -88.395,39.583 -88.395,88.394 0,48.808 39.584,88.395 88.395,88.395 48.809,0 88.395,-39.583 88.395,-88.395 -0.008,-48.807 -39.587,-88.394 -88.395,-88.394 z m 0,1.713 c 47.882,0 86.681,38.795 86.681,86.68 0,47.882 -38.795,86.681 -86.681,86.681 -47.883,0 -86.681,-38.799 -86.681,-86.681 0,-47.88 38.797,-86.68 86.681,-86.68 z"
           id="circle3"
           inkscape:connector-curvature="0"
           style="fill:#f4f4f4" /><path
           d="m 146.177,10.776 c -14.385,0 -27.405,3.786 -37.755,9.345 -1.877,1.009 -3.052,3.353 -4.097,6.32 -1.045,2.968 -1.875,6.625 -2.544,10.309 -1.336,7.369 -2.094,15.019 -2.57,17.218 l 1.685,0.375 c 0.564,-2.604 1.251,-10.025 2.571,-17.299 0.66,-3.637 1.471,-7.198 2.463,-10.015 0.992,-2.816 2.248,-4.833 3.321,-5.409 10.108,-5.429 22.841,-9.131 36.925,-9.131 14.19,0 27.281,3.327 37.113,9.238 1.636,0.983 3.057,3.295 4.124,6.346 1.067,3.051 1.792,6.798 2.302,10.47 0.51,3.671 0.803,7.274 0.991,10.122 0.094,1.424 0.153,2.656 0.214,3.615 0.062,0.959 0.098,1.589 0.187,2.035 l 1.688,-0.347 c -0.031,-0.154 -0.1,-0.848 -0.161,-1.794 -0.061,-0.948 -0.12,-2.182 -0.214,-3.615 -0.19,-2.866 -0.499,-6.519 -1.018,-10.256 -0.519,-3.736 -1.254,-7.563 -2.383,-10.791 -1.129,-3.229 -2.606,-5.91 -4.847,-7.257 -10.163,-6.109 -23.538,-9.477 -37.994,-9.477 l -0.001,-0.002 z"
           id="path5-6"
           inkscape:connector-curvature="0"
           style="fill:#f4f4f4" /><path
           d="m 146.177,8.5 c -8.937,0 -17.073,1.168 -23.324,3.106 l -0.027,0 -0.026,0 c -1.329,0.466 -2.165,1.364 -2.651,2.168 -0.243,0.402 -0.399,0.795 -0.509,1.098 -0.11,0.303 -0.184,0.581 -0.188,0.589 l 1.634,0.536 c 0.057,-0.172 0.078,-0.309 0.161,-0.536 0.083,-0.228 0.205,-0.523 0.375,-0.803 0.333,-0.549 0.854,-1.1 1.714,-1.419 0.021,-0.009 0.032,-0.02 0.053,-0.027 6.026,-1.861 14.026,-2.999 22.788,-2.999 8.607,0 16.481,1.115 22.466,2.918 0.008,10e-4 0.02,-0.002 0.027,0 1.006,0.331 1.744,0.938 2.222,1.5 0.242,0.282 0.403,0.543 0.509,0.75 0.105,0.206 0.134,0.416 0.134,0.214 l 1.714,0 c 0,-0.442 -0.149,-0.655 -0.321,-0.991 -0.163,-0.336 -0.386,-0.714 -0.72,-1.098 -0.651,-0.768 -1.654,-1.566 -3.025,-2.008 l -0.026,0 C 162.96,9.628 154.949,8.5 146.183,8.5 l -0.006,0 z"
           id="path7-5"
           inkscape:connector-curvature="0"
           style="fill:#f4f4f4" /><path
           d="m 452.269,40.312 c -48.809,0 -88.395,39.583 -88.395,88.394 0,48.808 39.584,88.395 88.395,88.395 48.809,0 88.395,-39.583 88.395,-88.395 -0.009,-48.807 -39.588,-88.394 -88.395,-88.394 z m 0,1.713 c 47.883,0 86.681,38.795 86.681,86.68 0,47.882 -38.795,86.681 -86.681,86.681 -47.883,0 -86.681,-38.795 -86.681,-86.681 0,-47.881 38.796,-86.68 86.681,-86.68 z"
           id="circle9"
           inkscape:connector-curvature="0"
           style="fill:#f4f4f4" /><path
           d="m 57.812,118.205 c -0.96,14.776 -3.274,52.669 -5.355,87.932 -1.041,17.635 -2.038,34.618 -2.758,47.72 -0.721,13.11 -1.178,22.271 -1.178,24.532 0,31.678 25.706,57.384 57.383,57.384 10.802,0 18.655,-2.999 24.93,-8.221 6.274,-5.222 10.974,-12.604 15.691,-21.396 8.933,-16.649 19.282,-36.637 28.357,-53.821 9.074,-17.185 16.917,-31.636 20.671,-37.033 3.798,-5.459 7.15,-8.669 11.247,-10.631 4.097,-1.962 9.012,-2.679 15.933,-2.919 13.863,-0.478 46.765,0 57.838,0 l 37.301,0 c 11.072,0 43.977,-0.478 57.839,0 6.921,0.24 11.836,0.957 15.933,2.919 4.097,1.963 7.476,5.173 11.273,10.631 3.754,5.396 11.569,19.848 20.645,37.033 9.076,17.185 19.449,37.172 28.384,53.821 4.718,8.792 9.391,16.174 15.665,21.396 6.274,5.222 14.128,8.221 24.93,8.221 31.678,0 57.384,-25.705 57.384,-57.384 0,-2.264 -0.457,-11.421 -1.179,-24.527 -0.72,-13.106 -1.689,-30.085 -2.73,-47.718 -2.082,-35.266 -4.422,-73.161 -5.383,-87.933 l -1.713,0.134 c 0.96,14.765 3.3,52.646 5.382,87.907 1.04,17.632 2.011,34.614 2.731,47.717 0.72,13.103 1.178,22.403 1.178,24.421 0,30.752 -24.918,55.67 -55.67,55.67 -10.489,0 -17.847,-2.84 -23.832,-7.819 -5.983,-4.979 -10.579,-12.186 -15.261,-20.911 -8.926,-16.634 -19.278,-36.576 -28.358,-53.77 -9.079,-17.194 -16.849,-31.57 -20.779,-37.222 -3.889,-5.589 -7.486,-9.098 -11.915,-11.219 -4.431,-2.122 -9.619,-2.838 -16.629,-3.08 -13.994,-0.482 -46.869,0 -57.893,0 l -37.3,0 c -11.023,0 -43.896,-0.482 -57.892,0 -7.009,0.242 -12.199,0.958 -16.628,3.08 -4.43,2.121 -8.027,5.63 -11.916,11.219 -3.931,5.651 -11.7,20.026 -20.779,37.222 -9.08,17.193 -19.434,37.137 -28.357,53.77 -4.683,8.726 -9.279,15.933 -15.263,20.911 -5.984,4.979 -13.342,7.819 -23.832,7.819 -30.74,0 -55.658,-24.918 -55.658,-55.671 0,-2.019 0.458,-11.318 1.178,-24.421 0.72,-13.102 1.69,-30.085 2.731,-47.717 2.081,-35.264 4.422,-73.145 5.382,-87.907 l -1.714,-0.134 -0.014,-0.005 z"
           id="path11-5"
           inkscape:connector-curvature="0"
           style="fill:#f4f4f4" /><path
           d="m 452.269,10.776 c -14.456,0 -27.806,3.369 -37.969,9.479 -2.243,1.347 -3.745,4.028 -4.875,7.256 -1.128,3.229 -1.862,7.055 -2.383,10.792 -0.519,3.737 -0.828,7.389 -1.017,10.256 -0.095,1.433 -0.153,2.667 -0.215,3.615 -0.061,0.946 -0.129,1.64 -0.16,1.794 l 1.687,0.348 c 0.09,-0.447 0.127,-1.077 0.188,-2.035 0.063,-0.959 0.121,-2.192 0.215,-3.615 0.188,-2.848 0.48,-6.451 0.99,-10.122 0.511,-3.671 1.236,-7.418 2.303,-10.47 1.066,-3.052 2.488,-5.363 4.124,-6.346 9.833,-5.911 22.923,-9.238 37.113,-9.238 14.083,0 26.843,3.702 36.952,9.131 1.072,0.576 2.303,2.593 3.293,5.409 0.992,2.816 1.805,6.378 2.465,10.015 1.317,7.273 2.005,14.695 2.57,17.299 l 1.679,-0.377 c -0.477,-2.199 -1.234,-9.849 -2.57,-17.218 -0.668,-3.685 -1.472,-7.341 -2.517,-10.309 -1.046,-2.968 -2.247,-5.312 -4.124,-6.32 -10.351,-5.559 -23.367,-9.344 -37.754,-9.344 l 0.005,0 z"
           id="path13"
           inkscape:connector-curvature="0"
           style="fill:#f4f4f4" /><path
           d="m 452.269,8.5 c -8.766,0 -16.777,1.128 -22.973,2.999 l -0.026,0 c -1.367,0.442 -2.371,1.24 -3.025,2.008 -0.327,0.383 -0.551,0.762 -0.724,1.098 -0.172,0.336 -0.321,0.549 -0.321,0.99 l 1.714,0 c 0,0.202 0.028,-0.009 0.134,-0.214 0.105,-0.206 0.269,-0.466 0.509,-0.75 0.479,-0.561 1.217,-1.168 2.223,-1.5 0.007,-0.002 0.019,0.002 0.027,0 5.98,-1.803 13.854,-2.918 22.467,-2.918 8.762,0 16.763,1.138 22.788,2.999 0.017,0.005 0.035,0.021 0.053,0.027 0.861,0.319 1.382,0.87 1.714,1.418 0.17,0.281 0.292,0.576 0.375,0.803 0.083,0.227 0.103,0.362 0.161,0.535 l 1.636,-0.562 c -0.002,-0.007 -0.076,-0.259 -0.187,-0.563 -0.111,-0.303 -0.267,-0.696 -0.516,-1.098 -0.488,-0.805 -1.318,-1.703 -2.646,-2.168 l -0.027,0 C 469.37,9.666 461.213,8.498 452.275,8.498 l -0.006,0 z"
           id="path15"
           inkscape:connector-curvature="0"
           style="fill:#f4f4f4" /><path
           d="m 207.572,65.054 0,1.714 183.722,0 0,-1.714 -183.722,0 z"
           id="line17"
           inkscape:connector-curvature="0"
           style="fill:#f4f4f4" /><path
           d="m 124.406,59.136 c -2.055,0 -3.749,1.695 -3.749,3.749 l 0,37.969 -0.134,0.161 -37.997,0 c -2.054,0 -3.722,1.667 -3.722,3.722 l 0,43.567 c 0,2.056 1.668,3.722 3.722,3.722 l 38.078,0 0.054,0.054 0,38.077 c 0,2.056 1.694,3.748 3.749,3.748 l 43.539,0 c 2.055,0 3.749,-1.692 3.749,-3.748 l 0,-38.023 0.08,-0.107 38.05,0 c 2.054,0 3.749,-1.667 3.749,-3.722 l 0,-43.566 c 0,-2.054 -1.695,-3.722 -3.749,-3.722 l -38.023,0 -0.107,-0.134 0,-37.998 c 0,-2.055 -1.695,-3.749 -3.749,-3.749 l -43.54,0 0,0 z m 0,1.714 43.539,0 c 1.128,0 2.035,0.907 2.035,2.035 l 0,38.292 0,0.295 0.188,0.241 0.509,0.669 0.268,0.348 0.429,0 38.452,0 c 1.128,0 2.035,0.88 2.035,2.008 l 0,43.567 c 0,1.129 -0.907,2.008 -2.035,2.008 l -38.506,0 -0.455,0 -0.241,0.375 -0.482,0.669 -0.161,0.214 0,0.294 0,38.292 c 0,1.128 -0.907,2.034 -2.035,2.034 l -43.539,0 c -1.128,0 -2.035,-0.906 -2.035,-2.034 l 0,-38.426 0,-0.348 -0.241,-0.241 -0.55,-0.548 -0.24,-0.266 -0.348,0 -38.454,0 c -1.127,0 -2.008,-0.879 -2.008,-2.008 l 0,-43.566 c 0,-1.128 0.881,-2.009 2.008,-2.009 l 38.452,0 0.402,0 0.268,-0.348 0.563,-0.724 0.161,-0.214 0,-0.295 0,-38.262 c 0,-1.128 0.907,-2.035 2.035,-2.035 l -0.014,-0.017 z"
           id="path19"
           inkscape:connector-curvature="0"
           style="fill:#f4f4f4" /><path
           d="m 432.45,56.807 c -2.09,0 -3.803,1.712 -3.803,3.802 l 0,38.826 -0.134,0.161 -38.827,0 c -2.091,0 -3.803,1.714 -3.803,3.803 l 0,44.477 c 0,2.089 1.714,3.802 3.803,3.802 l 38.881,0 0.08,0.053 0,38.935 c 0,2.089 1.714,3.802 3.803,3.802 l 44.504,0 c 2.09,0 3.802,-1.714 3.802,-3.802 l 0,-38.88 0.08,-0.107 38.882,0 c 2.09,0 3.802,-1.713 3.802,-3.802 l 0,-44.476 c 0,-2.09 -1.713,-3.802 -3.802,-3.802 l -38.854,0 -0.107,-0.134 0,-38.857 c 0,-2.089 -1.714,-3.803 -3.802,-3.803 l -44.505,0.002 0,0 z m 0,1.714 44.504,0 c 1.162,0 2.088,0.925 2.088,2.088 l 0,39.148 0,0.294 0.188,0.214 0.509,0.696 0.269,0.349 0.428,0 39.283,0 c 1.162,0 2.088,0.925 2.088,2.088 l 0,44.477 c 0,1.163 -0.925,2.089 -2.088,2.089 l -39.337,0 -0.428,0 -0.269,0.375 -0.481,0.696 -0.161,0.214 0,0.268 0,39.148 c 0,1.161 -0.925,2.088 -2.088,2.088 l -44.505,0 c -1.162,0 -2.089,-0.927 -2.089,-2.088 l 0,-39.255 0,-0.375 -0.24,-0.241 -0.563,-0.563 -0.269,-0.268 -0.348,0 -39.256,0 c -1.162,0 -2.089,-0.926 -2.089,-2.089 l 0,-44.477 c 0,-1.162 0.927,-2.088 2.089,-2.088 l 39.256,0 0.428,0 0.241,-0.348 0.59,-0.723 0.16,-0.241 0,-0.294 0,-39.093 c 10e-4,-1.163 0.926,-2.089 2.09,-2.089 l 0,0 z"
           id="path21-2"
           inkscape:connector-curvature="0"
           style="fill:#f4f4f4" /><path
           d="m 134.498,78.978 c -3.644,0 -6.611,2.993 -6.611,6.641 l 0,14.405 c 0,1.175 0.291,2.281 0.831,3.24 l 0.053,0.081 0.081,0.08 11.407,12.049 0.026,0.054 0.027,-0.026 c 1.389,1.716 3.487,2.838 5.864,2.838 2.428,0 4.585,-1.188 5.971,-2.972 l 0.027,0.027 0.054,-0.081 11.407,-12.077 0.081,-0.08 0.053,-0.134 c 0.464,-0.904 0.723,-1.916 0.723,-2.999 l 0,-14.406 c 0,-3.648 -2.968,-6.641 -6.614,-6.641 l -23.376,0 -0.004,10e-4 z m 0,1.714 23.376,0 c 2.721,0 4.9,2.206 4.9,4.927 l 0,14.405 c 0,0.788 -0.182,1.512 -0.508,2.169 l -11.354,12.022 -0.027,0.027 -0.027,0.054 c -1.072,1.415 -2.769,2.33 -4.686,2.33 -1.866,0 -3.502,-0.872 -4.579,-2.222 l -0.027,-0.027 -0.027,-0.027 -11.353,-11.97 c -0.383,-0.699 -0.59,-1.501 -0.59,-2.356 L 129.59,85.62 c 0,-2.721 2.18,-4.927 4.9,-4.927 l 0.008,-0.001 z"
           id="path23"
           inkscape:connector-curvature="0"
           style="fill:#f4f4f4" /><path
           d="m 146.177,65.349 -0.589,0.616 -6.881,6.854 -1.446,1.473 2.061,0 13.737,0 2.062,0 -1.473,-1.473 -6.855,-6.854 -0.616,-0.616 0,0 z m 0.026,2.436 4.793,4.793 -9.613,0 4.824,-4.793 -0.004,0 z"
           id="polygon25"
           inkscape:connector-curvature="0"
           style="fill:#f4f4f4" /><path
           d="m 105.288,108.223 c -3.646,0 -6.641,2.966 -6.641,6.614 l 0,23.375 c 0,3.647 2.995,6.615 6.641,6.615 l 14.406,0 c 1.174,0 2.281,-0.316 3.24,-0.856 l 0.08,-0.027 0.08,-0.081 12.05,-11.407 c 0.02,-0.016 0.034,-0.038 0.053,-0.054 1.71,-1.39 2.785,-3.52 2.785,-5.891 0,-2.428 -1.162,-4.558 -2.945,-5.945 l 0.034,-0.042 -0.08,-0.054 -12.077,-11.407 -0.107,-0.081 -0.107,-0.053 c -0.903,-0.462 -1.915,-0.723 -2.999,-0.723 l -14.406,0 -0.007,0.017 z m 0,1.714 14.406,0 c 0.798,0 1.532,0.2 2.196,0.535 0.007,0.004 0.019,-0.004 0.026,0 l 11.97,11.3 0.027,0.053 0.053,0.027 c 1.415,1.072 2.303,2.743 2.303,4.66 0,1.866 -0.844,3.529 -2.195,4.605 l -0.027,0.027 -0.027,0.027 -11.996,11.354 c -0.698,0.382 -1.474,0.589 -2.33,0.589 l -14.406,0 c -2.72,0 -4.927,-2.18 -4.927,-4.9 l 0,-23.376 c 0,-2.722 2.206,-4.901 4.927,-4.901 l 0,0 z"
           id="path27"
           inkscape:connector-curvature="0"
           style="fill:#f4f4f4" /><path
           d="m 93.934,117.588 -1.447,1.448 -6.881,6.881 -0.589,0.589 0.589,0.616 6.881,6.855 1.446,1.473 0,-2.062 0,-13.737 0,-2.062 10e-4,-0.001 z m -1.714,4.151 0,9.56 -3.319,-6.212 4.766,-4.79 -1.447,1.442 z"
           id="polygon29"
           inkscape:connector-curvature="0"
           style="fill:#f4f4f4" /><path
           d="m 146.177,134.7 c -2.428,0 -4.584,1.163 -5.971,2.945 -0.016,0.02 -0.038,0.034 -0.054,0.054 l -11.406,12.104 -0.08,0.08 -0.054,0.107 c -0.465,0.905 -0.723,1.942 -0.723,3.026 l 0,14.406 c 0,3.646 2.967,6.615 6.614,6.615 l 23.376,0 c 3.646,0 6.614,-2.968 6.614,-6.615 l 0,-14.406 c 0,-1.175 -0.317,-2.281 -0.856,-3.24 l -0.054,-0.107 -0.053,-0.054 -11.407,-12.049 c -0.016,-0.02 -0.038,-0.034 -0.053,-0.054 -1.39,-1.71 -3.521,-2.811 -5.893,-2.812 l 0,0 z m 0,1.714 c 1.867,0 3.531,0.872 4.605,2.222 l 0.027,0.027 0.027,0.027 11.354,12.022 c 0.367,0.688 0.589,1.465 0.589,2.303 l 0,14.405 c 0,2.721 -2.18,4.9 -4.9,4.9 l -23.376,0 c -2.721,0 -4.9,-2.179 -4.9,-4.9 l 0,-14.405 c 0,-0.789 0.181,-1.539 0.509,-2.196 l 11.327,-11.996 0.027,-0.053 0.034,-0.026 c 1.072,-1.415 2.77,-2.33 4.687,-2.33 l -0.01,0 z"
           id="path31"
           inkscape:connector-curvature="0"
           style="fill:#f4f4f4" /><path
           d="m 137.257,178.752 1.446,1.473 6.881,6.855 0.589,0.615 0.616,-0.615 6.855,-6.855 1.473,-1.473 -2.062,0 -13.735,0 -2.063,0 0,0 z m 4.124,1.713 9.613,0 -4.793,4.821 -4.82,-4.821 0,0 z"
           id="polygon33"
           inkscape:connector-curvature="0"
           style="fill:#f4f4f4" /><path
           d="m 172.689,108.223 c -1.175,0 -2.281,0.29 -3.24,0.83 l -0.107,0.053 -0.08,0.08 -12.023,11.407 -0.053,0.054 c -1.709,1.389 -2.812,3.493 -2.812,5.864 0,2.435 1.154,4.611 2.946,5.998 l 0.053,0.026 12.104,11.434 0.08,0.081 0.107,0.053 c 0.905,0.464 1.942,0.723 3.026,0.723 l 14.405,0 c 3.646,0 6.614,-2.966 6.614,-6.614 l 0,-23.376 c 0,-3.646 -2.967,-6.614 -6.614,-6.614 l -14.406,0.001 0,0 z m 0,1.714 14.405,0 c 2.72,0 4.9,2.18 4.9,4.9 l 0,23.375 c 0,2.722 -2.18,4.901 -4.9,4.901 l -14.405,0 c -0.77,0 -1.498,-0.196 -2.143,-0.509 l -12.049,-11.354 -0.053,-0.027 -0.027,-0.026 c -1.415,-1.074 -2.329,-2.771 -2.329,-4.686 0,-1.867 0.872,-3.504 2.222,-4.58 l 0.027,-0.027 0.027,-0.026 11.916,-11.328 0.027,0 c 0.705,-0.391 1.514,-0.614 2.382,-0.613 l 0,0 z"
           id="path35"
           inkscape:connector-curvature="0"
           style="fill:#f4f4f4" /><path
           d="m 198.421,117.588 0,2.062 0,13.736 0,2.062 1.473,-1.473 6.855,-6.855 0.616,-0.616 -0.616,-0.589 -6.855,-6.881 -1.473,-1.446 0,0 z m 1.713,4.124 4.82,4.82 -4.82,4.793 0,-9.613 0,0 z"
           id="polygon37"
           inkscape:connector-curvature="0"
           style="fill:#f4f4f4" /><path
           d="m 257.673,150.715 c -2.32,0 -4.204,1.911 -4.204,4.23 l 0,12.157 c 0,2.321 1.884,4.23 4.204,4.23 l 20.512,0 c 2.017,0 3.633,-1.475 4.043,-3.374 l 0.161,0 0,-0.857 0,-12.157 c 0,-2.319 -1.884,-4.23 -4.204,-4.23 l -20.512,0 0,0.001 z m 0,1.714 20.512,0 c 1.395,0 2.49,1.125 2.49,2.517 l 0,11.3 0,0.857 c 0,1.395 -1.096,2.517 -2.49,2.517 l -20.512,0 c -1.394,0 -2.491,-1.122 -2.491,-2.517 l 0,-12.157 c 0.001,-1.393 1.097,-2.517 2.491,-2.517 z"
           id="path39"
           inkscape:connector-curvature="0"
           style="fill:#f4f4f4" /><path
           d="m 324.697,150.715 c -2.188,0 -3.989,1.802 -3.989,3.989 l 0,12.8 c 0,2.188 1.804,3.99 3.989,3.99 0.567,0 1.093,-0.162 1.581,-0.375 l 0,0.027 0.134,-0.054 21.931,-6.721 0.08,-0.026 0.054,-0.054 c 1.26,-0.668 2.115,-1.99 2.115,-3.507 0,-1.486 -0.817,-2.8 -2.035,-3.481 l -0.08,-0.053 -0.107,-0.027 -22.306,-6.266 c -0.026,-0.009 -0.054,-0.018 -0.08,-0.026 -0.406,-0.14 -0.838,-0.216 -1.287,-0.216 l 0,0 z m 0,1.714 c 0.276,0 0.534,0.045 0.776,0.134 l 0.027,0.026 0.026,0 22.253,6.239 c 0.665,0.395 1.098,1.118 1.098,1.955 0,0.847 -0.473,1.564 -1.152,1.954 l -21.957,6.775 -0.054,0 -0.053,0.026 c -0.298,0.143 -0.612,0.242 -0.965,0.242 -1.26,0 -2.275,-1.014 -2.275,-2.276 l 0,-12.8 c 0.001,-1.261 1.017,-2.276 2.276,-2.275 l 0,0 z"
           id="path41"
           inkscape:connector-curvature="0"
           style="fill:#f4f4f4" /><path
           d="m 411.833,103.287 c -12.334,0 -22.359,10.025 -22.359,22.36 0,12.333 10.025,22.331 22.359,22.331 12.334,0 22.358,-9.998 22.358,-22.331 0,-12.334 -10.024,-22.36 -22.358,-22.36 z m 0,1.713 c 11.409,0 20.645,9.237 20.645,20.646 0,11.408 -9.235,20.618 -20.645,20.618 -11.408,0 -20.646,-9.21 -20.646,-20.618 C 391.188,114.238 400.425,105 411.833,105 Z"
           id="circle43"
           inkscape:connector-curvature="0"
           style="fill:#f4f4f4" /><path
           d="m 454.702,146.165 c -12.334,0 -22.359,10.025 -22.359,22.36 0,12.335 10.025,22.359 22.359,22.359 12.334,0 22.359,-10.024 22.359,-22.359 0,-12.335 -10.025,-22.36 -22.359,-22.36 z m 0,1.713 c 11.408,0 20.646,9.237 20.646,20.646 0,11.407 -9.237,20.646 -20.646,20.646 -11.409,0 -20.646,-9.238 -20.646,-20.646 0.001,-11.408 9.238,-20.646 20.646,-20.646 z"
           id="circle45"
           inkscape:connector-curvature="0"
           style="fill:#f4f4f4" /><path
           d="m 497.572,103.287 c -12.331,0 -22.331,10.026 -22.331,22.365 0,12.334 9.999,22.332 22.332,22.332 12.334,0 22.359,-9.998 22.359,-22.332 0,-12.334 -10.024,-22.359 -22.359,-22.359 l -10e-4,-0.006 z m 0,1.713 c 11.407,0 20.645,9.237 20.645,20.646 0,11.408 -9.237,20.618 -20.645,20.618 -11.409,0 -20.618,-9.21 -20.618,-20.618 0,-11.408 9.21,-20.646 20.618,-20.646 z"
           id="circle47"
           inkscape:connector-curvature="0"
           style="fill:#f4f4f4" /><path
           d="m 454.702,60.394 c -12.334,0 -22.359,10.024 -22.359,22.359 0,12.334 10.025,22.359 22.359,22.359 12.334,0 22.359,-10.024 22.359,-22.359 0.001,-12.335 -10.025,-22.359 -22.359,-22.359 z m 0,1.714 c 11.408,0 20.646,9.237 20.646,20.645 0,11.409 -9.237,20.646 -20.646,20.646 -11.409,0 -20.646,-9.237 -20.646,-20.646 0.001,-11.408 9.238,-20.645 20.646,-20.645 z"
           id="circle49"
           inkscape:connector-curvature="0"
           style="fill:#f4f4f4" /><path
           d="m 222.362,189.942 0,1.714 153.731,0 0,-1.714 -153.731,0 z"
           id="line51"
           inkscape:connector-curvature="0"
           style="fill:#f4f4f4" /></g></g></g></svg>