<?xml version="1.0" encoding="UTF-8" standalone="no"?>
<!-- Generator: Adobe Illustrator 13.0.0, SVG Export Plug-In . SVG Version: 6.00 Build 14948)  -->

<svg
   xmlns:dc="http://purl.org/dc/elements/1.1/"
   xmlns:cc="http://creativecommons.org/ns#"
   xmlns:rdf="http://www.w3.org/1999/02/22-rdf-syntax-ns#"
   xmlns:svg="http://www.w3.org/2000/svg"
   xmlns="http://www.w3.org/2000/svg"
   xmlns:sodipodi="http://sodipodi.sourceforge.net/DTD/sodipodi-0.dtd"
   xmlns:inkscape="http://www.inkscape.org/namespaces/inkscape"
   version="1.1"
   id="Layer_2"
   x="0px"
   y="0px"
   width="550"
   height="550"
   viewBox="0 0 549.99995 549.99999"
   enable-background="new 0 0 598.189 350.26"
   xml:space="preserve"
   inkscape:version="0.91 r13725"
   sodipodi:docname="controller_gg.svg"><metadata
     id="metadata3083"><rdf:RDF><cc:Work
         rdf:about=""><dc:format>image/svg+xml</dc:format><dc:type
           rdf:resource="http://purl.org/dc/dcmitype/StillImage" /><dc:title></dc:title></cc:Work></rdf:RDF></metadata><defs
     id="defs3081" /><sodipodi:namedview
     pagecolor="#ffffff"
     bordercolor="#666666"
     borderopacity="1"
     objecttolerance="10"
     gridtolerance="10"
     guidetolerance="10"
     inkscape:pageopacity="0"
     inkscape:pageshadow="2"
     inkscape:window-width="1920"
     inkscape:window-height="1001"
     id="namedview3079"
     showgrid="false"
     inkscape:zoom="1.0799262"
     inkscape:cx="318.36098"
     inkscape:cy="317.24155"
     inkscape:window-x="-9"
     inkscape:window-y="-9"
     inkscape:window-maximized="1"
     inkscape:current-layer="layer4"
     showguides="true"
     inkscape:guide-bbox="true" /><g
     inkscape:groupmode="layer"
     id="layer2"
     inkscape:label="Screen_Rect"
     style="display:none"
     transform="translate(0,199.73999)"
     sodipodi:insensitive="true"><path
       style="fill:#ffffff;stroke:#000000;stroke-width:1px;stroke-linecap:butt;stroke-linejoin:miter;stroke-opacity:1"
       d="M 5.0135033,547.22203 136.4109,114.39023 653.54628,-189.09358 406.482,260.92121 Z"
       id="path3021"
       inkscape:connector-curvature="0"
       transform="translate(-2e-5,-199.73999)"
       sodipodi:nodetypes="ccccc" /><rect
       style="opacity:0.60100002;fill:#d8201f;fill-opacity:1;stroke:#ff8080;stroke-width:2.45114732;stroke-linecap:round;stroke-linejoin:round;stroke-miterlimit:4;stroke-dasharray:none;stroke-opacity:1"
       id="rect4230"
       width="444.2457"
       height="9.9567661"
       x="145.95099"
       y="-211.30678" /></g><g
     inkscape:groupmode="layer"
     id="layer1"
     inkscape:label="Controller_Vorlage"
     style="display:none"
     sodipodi:insensitive="true"><g
       id="g4929"
       transform="translate(-0.929149,0.5695451)"><g
         transform="translate(0,199.73999)"
         style="display:none"
         inkscape:label="Layer2"
         id="layer2-9"><path
           sodipodi:nodetypes="ccccc"
           transform="translate(-2e-5,-199.73999)"
           inkscape:connector-curvature="0"
           id="path3021-0"
           d="M 5.0135033,547.22203 136.4109,114.39023 653.54628,-189.09358 406.482,260.92121 Z"
           style="fill:#ffffff;stroke:#000000;stroke-width:1px;stroke-linecap:butt;stroke-linejoin:miter;stroke-opacity:1" /></g><g
         inkscape:label="Layer"
         id="layer1-2"><g
           transform="matrix(0.55322035,-0.3970343,-0.34863416,0.85569517,173.63773,166.52161)"
           id="g3100"><path
             style="fill:#f4f4f4"
             inkscape:connector-curvature="0"
             id="path3"
             d="m 148.05,114.447 c -23.656,0 -42.861,19.204 -42.861,42.861 l 0,37.414 c 0,23.658 19.205,42.86 42.861,42.86 l 38.694,0 c 23.656,0 42.861,-19.202 42.861,-42.86 l 0,-37.414 c 0,-23.657 -19.205,-42.861 -42.861,-42.861 l -38.694,0 z m 0,1.905 38.694,0 c 22.627,0 40.956,18.328 40.956,40.956 l 0,37.414 c 0,22.629 -18.329,40.956 -40.956,40.956 l -38.694,0 c -22.628,0 -40.956,-18.327 -40.956,-40.956 l 0,-37.414 c 0,-22.629 18.328,-40.956 40.956,-40.956 z" /><path
             style="fill:#f4f4f4"
             inkscape:connector-curvature="0"
             id="path5"
             d="m 167.395,123.168 c -3.23,0 -5.863,2.633 -5.863,5.864 l 0,13.037 c 0,3.23 2.632,5.863 5.863,5.863 3.23,0 5.863,-2.633 5.863,-5.863 l 0,-13.037 c 0,-3.23 -2.633,-5.864 -5.863,-5.864 z m 0,1.906 c 2.201,0 3.958,1.758 3.958,3.958 l 0,13.037 c 0,2.2 -1.758,3.958 -3.958,3.958 -2.202,0 -3.958,-1.758 -3.958,-3.958 l 0,-13.037 c -0.001,-2.2 1.757,-3.958 3.958,-3.958 z" /><path
             style="fill:#f4f4f4"
             inkscape:connector-curvature="0"
             id="path7"
             d="m 120.425,170.135 c -3.23,0 -5.864,2.633 -5.864,5.864 0,3.231 2.632,5.894 5.864,5.894 l 13.037,0 c 3.229,0 5.864,-2.662 5.864,-5.894 0,-3.229 -2.633,-5.864 -5.864,-5.864 l -13.037,0 z m 0,1.905 13.037,0 c 2.201,0 3.959,1.759 3.959,3.959 0,2.201 -1.759,3.988 -3.959,3.988 l -13.037,0 c -2.198,-0.01 -3.955,-1.791 -3.955,-3.99 0,-2.201 1.758,-3.959 3.958,-3.959 l -0.003,0.002 z" /><path
             style="fill:#f4f4f4"
             inkscape:connector-curvature="0"
             id="path9"
             d="m 167.395,204.071 c -3.23,0 -5.863,2.663 -5.863,5.894 l 0,13.038 c 0,3.229 2.632,5.863 5.863,5.863 3.23,0 5.863,-2.633 5.863,-5.863 l 0,-13.038 c 0,-3.23 -2.633,-5.894 -5.863,-5.894 z m 0,1.906 c 2.201,0 3.958,1.789 3.958,3.988 l 0,13.038 c 0,2.2 -1.757,3.958 -3.958,3.958 -2.202,0 -3.958,-1.759 -3.958,-3.958 l 0,-13.038 c -0.001,-2.2 1.757,-3.988 3.958,-3.988 z" /><path
             style="fill:#f4f4f4"
             inkscape:connector-curvature="0"
             id="path11"
             d="m 201.321,170.135 c -3.229,0 -5.863,2.633 -5.863,5.864 0,3.231 2.633,5.894 5.863,5.894 l 13.067,0 c 3.229,0 5.863,-2.662 5.863,-5.894 0,-3.229 -2.633,-5.864 -5.863,-5.864 l -13.067,0 z m 0,1.905 13.067,0 c 2.2,0 3.958,1.76 3.958,3.959 0,2.201 -1.758,3.988 -3.958,3.988 l -13.067,0 c -2.2,0 -3.958,-1.788 -3.958,-3.988 0,-2.2 1.759,-3.959 3.958,-3.959 z" /><path
             style="fill:#f4f4f4"
             inkscape:connector-curvature="0"
             id="polygon13"
             d="m 133.878,141.176 -1.31,1.31 8.155,12.025 0.655,0.952 0.804,-0.803 3.869,-3.87 0.804,-0.804 -0.953,-0.655 -12.024,-8.155 z" /><path
             style="fill:#f4f4f4"
             inkscape:connector-curvature="0"
             id="polygon15"
             d="m 141.383,196.566 -0.654,0.952 -8.156,12.024 1.31,1.31 12.025,-8.155 0.953,-0.654 -0.804,-0.804 -3.87,-3.869 -0.804,-0.804 z" /><path
             style="fill:#f4f4f4"
             inkscape:connector-curvature="0"
             id="polygon17"
             d="m 193.435,196.566 -0.804,0.804 -3.869,3.869 -0.833,0.804 0.953,0.654 12.025,8.155 1.339,-1.31 -8.156,-12.024 -0.655,-0.952 0,0 z" /><path
             style="fill:#f4f4f4"
             inkscape:connector-curvature="0"
             id="polygon19"
             d="m 200.912,141.176 -12.025,8.155 -0.953,0.655 0.833,0.804 3.87,3.87 0.804,0.803 0.655,-0.952 8.155,-12.025 -1.339,-1.31 z" /><path
             style="fill:#f4f4f4"
             inkscape:connector-curvature="0"
             id="path21"
             d="m 146.354,104.833 c -27.67,0 -50.123,22.453 -50.123,50.124 l 0,42.117 c 0,27.671 22.453,50.123 50.123,50.123 l 42.117,0 c 27.671,0 50.124,-22.452 50.124,-50.123 l 0,-42.117 c 0,-27.67 -22.452,-50.124 -50.124,-50.124 l -42.117,0 z m 0,1.906 42.117,0 c 26.644,0 48.219,21.577 48.219,48.218 l 0,42.117 c 0,26.644 -21.577,48.218 -48.219,48.218 l -42.117,0 c -26.642,0 -48.218,-21.574 -48.218,-48.218 l 0,-42.117 c 0,-26.642 21.577,-48.218 48.218,-48.218 z" /><path
             style="fill:#f4f4f4"
             inkscape:connector-curvature="0"
             id="polygon23"
             d="m 69.499,75.694 0,0.952 0,202.961 0,0.952 0.953,0 196.122,0 0.952,0 0,-0.952 0,-26.401 289.521,0 0.952,0 0,-0.952 0,-113.458 0,-0.953 -0.952,0 -289.522,0 0,-61.196 0,-0.952 -0.952,0 -196.122,0 -0.952,-10e-4 0,0 z m 1.904,1.905 194.217,0 0,61.196 0,0.953 0.953,0 0.714,0 288.807,0 0,111.552 -289.226,0 -0.297,0 -0.953,0 0,0.953 0,26.4 -194.217,0 0,-201.055 0.002,0.001 z" /><path
             style="fill:#f4f4f4"
             inkscape:connector-curvature="0"
             id="circle25"
             d="m 400.692,169.126 c -19.762,0 -35.777,16.046 -35.777,35.807 0,19.761 16.018,35.807 35.777,35.807 19.759,0 35.807,-16.046 35.807,-35.807 0,-19.761 -16.047,-35.807 -35.807,-35.807 l 0,0 z m 0,1.905 c 18.73,0 33.901,15.17 33.901,33.902 0,18.732 -15.171,33.902 -33.901,33.902 -18.731,0 -33.872,-15.171 -33.872,-33.902 0,-18.731 15.141,-33.902 33.872,-33.902 l 0,0 z" /><path
             style="fill:#f4f4f4"
             inkscape:connector-curvature="0"
             id="circle27"
             d="m 400.692,177.669 c -15.039,0 -27.234,12.227 -27.234,27.265 0,15.038 12.195,27.234 27.234,27.234 15.036,0 27.264,-12.196 27.264,-27.234 0,-15.038 -12.227,-27.265 -27.264,-27.265 z m 0,1.905 c 14.008,0 25.359,11.351 25.359,25.359 0,14.008 -11.352,25.33 -25.359,25.33 -14.01,0 -25.33,-11.321 -25.33,-25.33 0,-14.009 11.321,-25.359 25.33,-25.359 z" /><path
             style="fill:#f4f4f4"
             inkscape:connector-curvature="0"
             id="circle29"
             d="m 489.919,169.126 c -19.762,0 -35.807,16.046 -35.807,35.807 0,19.761 16.045,35.807 35.807,35.807 19.76,0 35.807,-16.046 35.807,-35.807 0,-19.761 -16.047,-35.807 -35.807,-35.807 l 0,0 z m 0,1.905 c 18.73,0 33.901,15.17 33.901,33.902 0,18.732 -15.171,33.902 -33.901,33.902 -18.731,0 -33.902,-15.171 -33.902,-33.902 0,-18.731 15.171,-33.902 33.902,-33.902 l 0,0 z" /><path
             style="fill:#f4f4f4"
             inkscape:connector-curvature="0"
             id="circle31"
             d="m 489.919,177.669 c -15.039,0 -27.234,12.227 -27.234,27.265 0,15.038 12.195,27.234 27.234,27.234 15.036,0 27.234,-12.196 27.234,-27.234 0,-15.038 -12.196,-27.265 -27.234,-27.265 z m 0,1.905 c 14.008,0 25.329,11.351 25.329,25.359 0,14.008 -11.321,25.33 -25.329,25.33 -14.01,0 -25.33,-11.321 -25.33,-25.33 0,-14.009 11.32,-25.359 25.33,-25.359 z" /><path
             style="fill:#f4f4f4"
             inkscape:connector-curvature="0"
             id="path33"
             d="m 39.406,68.432 c -4.766,0 -8.662,3.896 -8.662,8.662 l 0,203.084 c 0,4.766 3.897,8.661 8.662,8.661 l 518.646,0 c 4.429,0 7.956,-3.411 8.453,-7.709 l 0.179,0 0,-0.952 0,-203.085 c 0,-4.762 -3.868,-8.658 -8.64,-8.658 l -518.645,0 0.007,-0.003 z m 0,1.904 518.646,0 c 3.737,0 6.727,3.021 6.727,6.757 l 0,202.131 0,0.953 c 0,3.736 -2.989,6.756 -6.727,6.756 l -518.646,0 c -3.732,0.01 -6.753,-3.019 -6.753,-6.753 l 0,-203.083 c 0,-3.736 3.02,-6.756 6.756,-6.756 l -0.003,-0.005 z" /><path
             style="fill:#f4f4f4"
             inkscape:connector-curvature="0"
             id="rect35"
             d="m 359.021,163.559 0,0.953 0,81.465 0,0.952 0.953,0 81.465,0 0.953,0 0,-0.952 0,-81.465 0,-0.953 -0.953,0 -81.465,0 -0.953,0 z m 1.906,1.905 79.561,0 0,79.56 -79.561,0 0,-79.56 z" /><path
             style="fill:#f4f4f4"
             inkscape:connector-curvature="0"
             id="rect37"
             d="m 448.248,163.559 0,0.953 0,81.465 0,0.952 0.953,0 81.436,0 0.952,0 0,-0.952 0,-81.465 0,-0.953 -0.952,0 -81.436,0 -0.953,0 z m 1.905,1.905 79.531,0 0,79.56 -79.531,0 0,-79.56 z" /><path
             style="fill:#f4f4f4"
             inkscape:connector-curvature="0"
             id="polyline39"
             d="m 83.934,94.177 0,2.292 0,159.061 0,2.322 1.607,-1.638 25.33,-25.299 -1.369,-1.369 -23.663,23.692 0,-154.45 23.663,23.658 1.369,-1.34 -25.33,-25.299 -1.607,-1.637 0,0.007 z" /><path
             style="fill:#f4f4f4"
             inkscape:connector-curvature="0"
             id="polyline41"
             d="m 222.305,232.551 -1.37,1.339 23.693,23.692 -154.452,0 23.574,-23.573 -1.369,-1.339 -25.181,25.182 -1.637,1.637 2.292,0 159.062,0 2.292,0 -1.607,-1.637 -25.299,-25.3 0.002,-0.001 z" /><path
             style="fill:#f4f4f4"
             inkscape:connector-curvature="0"
             id="polyline43"
             d="m 250.878,94.177 -1.637,1.637 -25.211,25.182 1.369,1.369 23.574,-23.603 0,154.509 -23.633,-23.663 -1.339,1.34 25.24,25.27 1.637,1.638 0,-2.322 0,-159.063 0,-2.292 0,-0.002 z" /><path
             style="fill:#f4f4f4"
             inkscape:connector-curvature="0"
             id="polyline45"
             d="m 85.57,92.54 1.638,1.608 25.21,25.24 1.339,-1.34 -23.572,-23.602 154.452,0 -23.669,23.662 1.333,1.339 25.307,-25.3 1.607,-1.607 -2.292,0 -159.062,0 -2.291,0 0,0 z" /><path
             style="fill:#f4f4f4"
             inkscape:connector-curvature="0"
             id="line47"
             d="m 58.961,69.533 0,218.057 1.905,0 0,-218.057 -1.905,0 z" /><path
             style="fill:#f4f4f4"
             inkscape:connector-curvature="0"
             id="rect49"
             d="m 359.021,145.819 0,0.953 0,13.244 0,0.953 0.953,0 81.465,0 0.953,0 0,-0.953 0,-13.244 0,-0.953 -0.953,0 -81.465,0 -0.953,0 z m 1.906,1.905 79.561,0 0,11.339 -79.561,0 0,-11.339 z" /><path
             style="fill:#f4f4f4"
             inkscape:connector-curvature="0"
             id="rect51"
             d="m 448.248,145.819 0,0.953 0,13.244 0,0.953 0.953,0 81.436,0 0.952,0 0,-0.953 0,-13.244 0,-0.953 -0.952,0 -81.436,0 -0.953,0 z m 1.905,1.905 79.531,0 0,11.339 -79.531,0 0,-11.339 z" /><path
             style="fill:#f4f4f4"
             inkscape:connector-curvature="0"
             id="path53"
             d="m 276.804,73.134 c -0.987,0 -1.815,0.828 -1.815,1.816 l 0,53.01 c 0,0.988 0.829,1.815 1.815,1.815 l 282.855,0 c 0.985,0 1.785,-0.831 1.785,-1.815 l 0,-50.033 c 0,-2.641 -2.152,-4.792 -4.792,-4.792 l -279.844,0 -0.004,0 z m 0.09,1.906 279.756,0 c 1.613,0 2.888,1.275 2.888,2.887 l 0,49.945 -282.643,0 0,-52.832 -10e-4,0 z" /><path
             style="fill:#f4f4f4"
             inkscape:connector-curvature="0"
             id="path55"
             d="m 276.804,260.41 c -0.987,0 -1.815,0.829 -1.815,1.815 l 0,20.091 c 0,0.987 0.829,1.816 1.815,1.816 l 279.844,0 c 2.64,0 4.792,-2.183 4.792,-4.822 l 0,-17.085 c 0,-0.985 -0.8,-1.815 -1.785,-1.815 l -282.855,0 0.004,0 z m 0.09,1.905 282.645,0 0,16.995 c 0,1.611 -1.276,2.917 -2.888,2.917 l -279.758,0 0.001,-19.912 0,0 z" /><path
             style="fill:#f4f4f4"
             inkscape:connector-curvature="0"
             id="line57"
             d="m 274.461,129.271 -6.28,6.28 1.369,1.339 6.251,-6.25 -1.34,-1.369 z" /><path
             style="fill:#f4f4f4"
             inkscape:connector-curvature="0"
             id="line59"
             d="m 269.546,253.866 -1.369,1.34 6.281,6.28 1.339,-1.369 -6.251,-6.251 z" /></g></g></g></g><g
     inkscape:groupmode="layer"
     id="layer4"
     inkscape:label="Controller"><g
       id="g4317"
       transform="matrix(0.54057137,-0.38579625,-0.37547597,0.80854194,183.35949,171.27773)"><path
         d="m 12.242,79.064 0,0.951 0,33.987 0,0.951 0.951,0 461.875,0 0.95,0 0,-0.951 0,-33.987 0,-0.951 -0.95,0 -461.876,0 -0.95,0 z m 1.901,1.902 459.973,0 0,32.085 -459.973,0 0,-32.085 z"
         id="rect3"
         inkscape:connector-curvature="0"
         style="fill:#f4f4f4" /><path
         d="m 454.752,85.423 c -2.57,0 -4.694,2.095 -4.694,4.664 0,2.569 2.124,4.694 4.694,4.694 2.569,0 4.664,-2.125 4.664,-4.694 0,-2.569 -2.095,-4.664 -4.664,-4.664 z m 0,1.901 c 1.541,0 2.763,1.221 2.763,2.763 0,1.542 -1.222,2.793 -2.763,2.793 -1.541,0 -2.793,-1.251 -2.793,-2.793 0,-1.542 1.252,-2.763 2.793,-2.763 z"
         id="circle5"
         inkscape:connector-curvature="0"
         style="fill:#f4f4f4" /><path
         d="m 508.046,91.246 c -1.185,0 -2.219,0.2 -2.941,0.921 -0.72,0.721 -0.921,1.755 -0.921,2.941 l 0,19.845 c 0,1.186 0.201,2.22 0.921,2.941 0.723,0.722 1.755,0.921 2.941,0.921 l 19.727,0 c 1.187,0 2.221,-0.199 2.941,-0.921 0.723,-0.721 0.921,-1.755 0.921,-2.941 l 0,-19.845 c 0,-1.186 -0.198,-2.22 -0.921,-2.941 -0.721,-0.722 -1.755,-0.921 -2.941,-0.921 l -19.727,0 0,0 z m 0,1.901 19.727,0 c 0.96,0 1.406,0.188 1.604,0.386 0.199,0.199 0.356,0.615 0.356,1.575 l 0,19.845 c 0,0.959 -0.157,1.405 -0.356,1.604 -0.198,0.199 -0.645,0.356 -1.604,0.356 l -19.727,0 c -0.958,0 -1.405,-0.158 -1.604,-0.356 -0.198,-0.199 -0.356,-0.645 -0.356,-1.604 l 0,-19.845 c 0,-0.959 0.158,-1.376 0.356,-1.575 0.201,-0.199 0.646,-0.386 1.604,-0.386 z"
         id="path7-6"
         inkscape:connector-curvature="0"
         style="fill:#f4f4f4" /><path
         d="m 537.404,91.246 c -1.187,0 -2.221,0.2 -2.941,0.921 -0.723,0.721 -0.921,1.755 -0.921,2.941 l 0,19.845 c 0,1.186 0.198,2.22 0.921,2.941 0.721,0.722 1.755,0.921 2.941,0.921 l 19.727,0 c 1.185,0 2.219,-0.199 2.941,-0.921 0.72,-0.721 0.921,-1.754 0.921,-2.941 l 0,-19.845 c 0,-1.186 -0.201,-2.22 -0.921,-2.941 -0.723,-0.721 -1.755,-0.921 -2.941,-0.921 l -19.727,0 0,0 z m 0,1.901 19.727,0 c 0.958,0 1.405,0.187 1.604,0.386 0.198,0.199 0.356,0.616 0.356,1.575 l 0,19.845 c 0,0.959 -0.158,1.405 -0.356,1.604 -0.201,0.199 -0.646,0.356 -1.604,0.356 l -19.727,0 c -0.96,0 -1.405,-0.158 -1.604,-0.356 -0.198,-0.199 -0.356,-0.645 -0.356,-1.604 l 0,-19.845 c 0,-0.959 0.158,-1.376 0.356,-1.575 0.199,-0.199 0.644,-0.386 1.604,-0.386 z"
         id="path9-4"
         inkscape:connector-curvature="0"
         style="fill:#f4f4f4" /><path
         d="m 537.404,62.874 c -1.187,0 -2.221,0.2 -2.941,0.921 -0.723,0.722 -0.921,1.755 -0.921,2.941 l 0,19.845 c 0,1.186 0.198,2.22 0.921,2.941 0.713,0.721 1.749,0.92 2.938,0.92 l 19.727,0 c 1.185,0 2.219,-0.199 2.941,-0.921 0.721,-0.721 0.921,-1.754 0.921,-2.941 l 0,-19.845 c 0,-1.186 -0.2,-2.22 -0.921,-2.941 -0.723,-0.72 -1.761,-0.92 -2.938,-0.92 l -19.727,0 0,0 z m 0,1.901 19.727,0 c 0.958,0 1.405,0.188 1.604,0.386 0.198,0.199 0.356,0.616 0.356,1.575 l 0,19.845 c 0,0.959 -0.158,1.405 -0.356,1.604 -0.201,0.199 -0.646,0.356 -1.604,0.356 l -19.727,0 c -0.96,0 -1.405,-0.157 -1.604,-0.356 -0.198,-0.199 -0.356,-0.645 -0.356,-1.604 l 0,-19.845 c 0,-0.959 0.158,-1.375 0.356,-1.575 0.199,-0.198 0.646,-0.385 1.606,-0.385 l -0.002,-10e-4 z"
         id="path11-7"
         inkscape:connector-curvature="0"
         style="fill:#f4f4f4" /><path
         d="m 537.404,119.617 c -1.187,0 -2.221,0.23 -2.941,0.951 -0.723,0.722 -0.921,1.726 -0.921,2.912 l 0,19.875 c 0,1.187 0.198,2.191 0.921,2.911 0.721,0.723 1.755,0.951 2.941,0.951 l 19.727,0 c 1.185,0 2.219,-0.228 2.941,-0.951 0.72,-0.72 0.921,-1.725 0.921,-2.911 l 0,-19.875 c 0,-1.186 -0.201,-2.19 -0.921,-2.912 -0.723,-0.721 -1.755,-0.951 -2.941,-0.951 l -19.727,0 z m 0,1.902 19.727,0 c 0.958,0 1.405,0.188 1.604,0.386 0.198,0.199 0.356,0.616 0.356,1.575 l 0,19.875 c 0,0.96 -0.158,1.375 -0.356,1.574 -0.201,0.2 -0.646,0.386 -1.604,0.386 l -19.727,0 c -0.96,0 -1.405,-0.187 -1.604,-0.386 -0.198,-0.199 -0.356,-0.615 -0.356,-1.574 l 0,-19.875 c 0,-0.959 0.158,-1.375 0.356,-1.575 0.199,-0.199 0.644,-0.386 1.604,-0.386 z"
         id="path13"
         inkscape:connector-curvature="0"
         style="fill:#f4f4f4" /><path
         d="m 508.256,156.366 c -1.185,0 -2.221,0.201 -2.941,0.921 -0.72,0.722 -0.921,1.756 -0.921,2.941 l 0,19.846 c 0,1.186 0.201,2.22 0.921,2.941 0.721,0.721 1.755,0.921 2.941,0.921 l 19.757,0 c 1.185,0 2.188,-0.201 2.911,-0.921 0.721,-0.721 0.95,-1.755 0.95,-2.941 l 0,-19.846 c 0,-1.185 -0.229,-2.219 -0.95,-2.941 -0.723,-0.72 -1.725,-0.921 -2.911,-0.921 l -19.757,0 z m 0,1.902 19.757,0 c 0.958,0 1.376,0.158 1.574,0.356 0.199,0.199 0.387,0.646 0.387,1.604 l 0,19.846 c 0,0.959 -0.188,1.405 -0.387,1.604 -0.198,0.198 -0.616,0.356 -1.574,0.356 l -19.757,0 c -0.958,0 -1.376,-0.158 -1.574,-0.356 -0.199,-0.199 -0.387,-0.646 -0.387,-1.604 l 0,-19.846 c 0,-0.958 0.188,-1.406 0.387,-1.604 0.198,-0.198 0.616,-0.356 1.574,-0.356 z"
         id="path15"
         inkscape:connector-curvature="0"
         style="fill:#f4f4f4" /><path
         d="m 405.974,128.084 c -1.187,0 -2.191,0.229 -2.912,0.951 -0.722,0.721 -0.95,1.726 -0.95,2.911 l 0,19.875 c 0,1.186 0.23,2.19 0.95,2.912 0.721,0.722 1.726,0.951 2.912,0.951 l 19.754,0 c 1.188,0 2.222,-0.229 2.941,-0.951 0.725,-0.721 0.923,-1.725 0.923,-2.912 l 0,-19.874 c 0,-1.186 -0.2,-2.19 -0.921,-2.911 -0.721,-0.722 -1.755,-0.951 -2.941,-0.951 l -19.756,-0.001 0,0 z m 0,1.901 19.754,0 c 0.961,0 1.377,0.188 1.575,0.386 0.191,0.199 0.381,0.615 0.381,1.575 l 0,19.875 c 0,0.958 -0.188,1.376 -0.387,1.575 -0.198,0.199 -0.614,0.386 -1.574,0.386 l -19.755,0 c -0.96,0 -1.376,-0.188 -1.574,-0.386 -0.201,-0.199 -0.387,-0.617 -0.387,-1.575 l 0,-19.875 c 0,-0.959 0.186,-1.375 0.387,-1.575 0.198,-0.199 0.614,-0.386 1.574,-0.386 l 0.006,0 z"
         id="path17"
         inkscape:connector-curvature="0"
         style="fill:#f4f4f4" /><path
         d="m 433.656,128.084 c -1.187,0 -2.221,0.229 -2.94,0.951 -0.721,0.721 -0.922,1.726 -0.922,2.911 l 0,19.875 c 0,1.186 0.201,2.19 0.922,2.912 0.72,0.722 1.754,0.951 2.94,0.951 l 35.592,0 c 1.187,0 2.219,-0.229 2.941,-0.951 0.72,-0.721 0.921,-1.725 0.921,-2.912 l 0,-19.875 c 0,-1.186 -0.201,-2.19 -0.921,-2.911 -0.721,-0.722 -1.755,-0.951 -2.941,-0.951 l -35.592,0 z m 0,1.901 35.592,0 c 0.96,0 1.405,0.188 1.604,0.386 0.198,0.199 0.356,0.616 0.356,1.575 l 0,19.875 c 0,0.959 -0.158,1.376 -0.356,1.575 -0.199,0.199 -0.646,0.386 -1.604,0.386 l -35.592,0 c -0.96,0 -1.405,-0.188 -1.604,-0.386 -0.199,-0.199 -0.356,-0.617 -0.356,-1.575 l 0,-19.875 c 0,-0.959 0.157,-1.375 0.356,-1.575 0.199,-0.198 0.646,-0.386 1.604,-0.386 z"
         id="path19"
         inkscape:connector-curvature="0"
         style="fill:#f4f4f4" /><path
         d="m 376.292,128.084 c -1.185,0 -2.219,0.229 -2.941,0.951 -0.72,0.721 -0.92,1.726 -0.92,2.911 l 0,19.875 c 0,1.186 0.2,2.19 0.92,2.912 0.723,0.722 1.755,0.951 2.941,0.951 l 19.727,0 c 1.188,0 2.222,-0.229 2.941,-0.951 0.721,-0.722 0.921,-1.725 0.921,-2.912 l 0,-19.875 c 0,-1.186 -0.2,-2.19 -0.921,-2.911 -0.72,-0.722 -1.754,-0.951 -2.941,-0.951 l -19.727,0 z m 0,1.901 19.727,0 c 0.961,0 1.406,0.188 1.604,0.386 0.199,0.199 0.356,0.615 0.356,1.575 l 0,19.875 c 0,0.959 -0.157,1.376 -0.356,1.575 -0.198,0.199 -0.644,0.386 -1.604,0.386 l -19.727,0 c -0.958,0 -1.405,-0.188 -1.604,-0.386 -0.199,-0.199 -0.357,-0.617 -0.357,-1.575 l 0,-19.875 c 0,-0.959 0.158,-1.375 0.357,-1.575 0.199,-0.198 0.646,-0.386 1.604,-0.386 z"
         id="path21-9"
         inkscape:connector-curvature="0"
         style="fill:#f4f4f4" /><path
         d="m 346.583,128.084 c -1.185,0 -2.219,0.229 -2.94,0.951 -0.721,0.721 -0.921,1.726 -0.921,2.911 l 0,19.875 c 0,1.186 0.2,2.19 0.921,2.912 0.722,0.722 1.756,0.951 2.94,0.951 l 19.757,0 c 1.187,0 2.221,-0.229 2.941,-0.951 0.722,-0.721 0.921,-1.725 0.921,-2.912 l 0,-19.875 c 0,-1.186 -0.199,-2.19 -0.921,-2.911 -0.721,-0.722 -1.755,-0.951 -2.941,-0.951 l -19.757,0 z m 0,1.901 19.757,0 c 0.96,0 1.376,0.188 1.574,0.386 0.199,0.199 0.387,0.616 0.387,1.575 l 0,19.875 c 0,0.959 -0.188,1.376 -0.387,1.575 -0.198,0.199 -0.614,0.386 -1.574,0.386 l -19.757,0 c -0.958,0 -1.374,-0.188 -1.572,-0.386 -0.201,-0.199 -0.387,-0.617 -0.387,-1.575 l 0,-19.875 c 0,-0.959 0.186,-1.375 0.387,-1.575 0.198,-0.198 0.614,-0.386 1.572,-0.386 z"
         id="path23"
         inkscape:connector-curvature="0"
         style="fill:#f4f4f4" /><path
         d="m 316.904,128.084 c -1.187,0 -2.221,0.229 -2.941,0.951 -0.721,0.721 -0.921,1.726 -0.921,2.911 l 0,19.875 c 0,1.186 0.2,2.19 0.921,2.912 0.721,0.722 1.755,0.951 2.941,0.951 l 19.727,0 c 1.187,0 2.219,-0.229 2.941,-0.951 0.72,-0.721 0.921,-1.725 0.921,-2.912 l 0,-19.875 c 0,-1.186 -0.201,-2.19 -0.921,-2.911 -0.721,-0.722 -1.755,-0.951 -2.941,-0.951 l -19.727,0 z m 0,1.901 19.727,0 c 0.96,0 1.405,0.188 1.604,0.386 0.198,0.199 0.356,0.616 0.356,1.575 l 0,19.875 c 0,0.959 -0.158,1.376 -0.356,1.575 -0.199,0.199 -0.646,0.386 -1.604,0.386 l -19.727,0 c -0.96,0 -1.406,-0.188 -1.604,-0.386 -0.199,-0.199 -0.356,-0.617 -0.356,-1.575 l 0,-19.875 c 0,-0.959 0.157,-1.375 0.356,-1.575 0.198,-0.198 0.646,-0.386 1.604,-0.386 z"
         id="path25"
         inkscape:connector-curvature="0"
         style="fill:#f4f4f4" /><path
         d="m 287.195,128.084 c -1.186,0 -2.22,0.229 -2.941,0.951 -0.721,0.721 -0.921,1.726 -0.921,2.911 l 0,19.875 c 0,1.186 0.2,2.19 0.921,2.912 0.721,0.722 1.754,0.951 2.941,0.951 l 19.756,0 c 1.187,0 2.191,-0.229 2.912,-0.951 0.72,-0.721 0.95,-1.725 0.95,-2.912 l 0,-19.875 c 0,-1.186 -0.23,-2.19 -0.95,-2.911 -0.721,-0.722 -1.726,-0.951 -2.912,-0.951 l -19.756,0 z m 0,1.901 19.756,0 c 0.96,0 1.376,0.188 1.575,0.386 0.198,0.199 0.386,0.616 0.386,1.575 l 0,19.875 c 0,0.959 -0.188,1.376 -0.386,1.575 -0.201,0.2 -0.618,0.387 -1.578,0.387 l -19.756,0 c -0.959,0 -1.375,-0.187 -1.575,-0.386 -0.199,-0.2 -0.386,-0.616 -0.386,-1.575 l 0,-19.875 c 0,-0.959 0.188,-1.375 0.386,-1.574 0.199,-0.199 0.616,-0.386 1.575,-0.386 l 0.003,-0.002 z"
         id="path27"
         inkscape:connector-curvature="0"
         style="fill:#f4f4f4" /><path
         d="m 257.515,128.084 c -1.186,0 -2.22,0.229 -2.941,0.951 -0.721,0.721 -0.921,1.726 -0.921,2.911 l 0,19.875 c 0,1.186 0.2,2.19 0.921,2.912 0.721,0.722 1.755,0.951 2.941,0.951 l 19.727,0 c 1.186,0 2.22,-0.229 2.941,-0.951 0.721,-0.722 0.921,-1.725 0.921,-2.912 l 0,-19.875 c 0,-1.186 -0.2,-2.19 -0.921,-2.911 -0.721,-0.722 -1.754,-0.951 -2.941,-0.951 l -19.727,0 z m 0,1.901 19.727,0 c 0.959,0 1.405,0.188 1.604,0.386 0.199,0.199 0.357,0.616 0.357,1.575 l 0,19.875 c 0,0.959 -0.158,1.376 -0.357,1.575 -0.199,0.199 -0.645,0.386 -1.604,0.386 l -19.727,0 c -0.959,0 -1.405,-0.188 -1.604,-0.386 -0.199,-0.199 -0.356,-0.617 -0.356,-1.575 l 0,-19.875 c 0,-0.959 0.158,-1.375 0.356,-1.575 0.199,-0.198 0.645,-0.386 1.604,-0.386 z"
         id="path29"
         inkscape:connector-curvature="0"
         style="fill:#f4f4f4" /><path
         d="m 227.807,128.084 c -1.186,0 -2.22,0.229 -2.941,0.951 -0.721,0.721 -0.921,1.726 -0.921,2.911 l 0,19.875 c 0,1.186 0.2,2.19 0.921,2.912 0.721,0.722 1.754,0.951 2.941,0.951 l 19.756,0 c 1.187,0 2.19,-0.229 2.911,-0.951 0.722,-0.722 0.951,-1.725 0.951,-2.912 l 0,-19.875 c 0,-1.186 -0.229,-2.19 -0.951,-2.911 -0.721,-0.722 -1.725,-0.951 -2.911,-0.951 l -19.756,0 z m 0,1.901 19.756,0 c 0.959,0 1.375,0.188 1.574,0.386 0.199,0.199 0.386,0.616 0.386,1.575 l 0,19.875 c 0,0.959 -0.188,1.376 -0.386,1.575 -0.198,0.199 -0.615,0.386 -1.574,0.386 l -19.756,0 c -0.959,0 -1.375,-0.188 -1.574,-0.386 -0.199,-0.199 -0.386,-0.617 -0.386,-1.575 l 0,-19.875 c 0,-0.959 0.188,-1.375 0.386,-1.575 0.199,-0.198 0.614,-0.386 1.574,-0.386 z"
         id="path31"
         inkscape:connector-curvature="0"
         style="fill:#f4f4f4" /><path
         d="m 198.098,128.084 c -1.186,0 -2.19,0.229 -2.911,0.951 -0.722,0.721 -0.951,1.726 -0.951,2.911 l 0,19.875 c 0,1.186 0.229,2.191 0.951,2.912 0.721,0.721 1.725,0.951 2.911,0.951 l 19.756,0 c 1.186,0 2.22,-0.229 2.941,-0.951 0.722,-0.722 0.921,-1.725 0.921,-2.912 l 0,-19.875 c 0,-1.186 -0.199,-2.19 -0.921,-2.911 -0.721,-0.722 -1.754,-0.951 -2.941,-0.951 l -19.756,0 z m 0,1.901 19.756,0 c 0.959,0 1.405,0.188 1.604,0.386 0.199,0.199 0.356,0.616 0.356,1.575 l 0,19.875 c 0,0.959 -0.158,1.376 -0.356,1.575 -0.198,0.199 -0.645,0.386 -1.604,0.386 l -19.756,0 c -0.958,0 -1.375,-0.188 -1.574,-0.386 -0.199,-0.199 -0.386,-0.617 -0.386,-1.575 l 0,-19.875 c 0,-0.959 0.188,-1.375 0.386,-1.575 0.199,-0.198 0.616,-0.386 1.574,-0.386 z"
         id="path33-8"
         inkscape:connector-curvature="0"
         style="fill:#f4f4f4" /><path
         d="m 168.418,128.084 c -1.186,0 -2.22,0.229 -2.941,0.951 -0.721,0.721 -0.921,1.726 -0.921,2.911 l 0,19.875 c 0,1.186 0.2,2.191 0.921,2.912 0.721,0.721 1.755,0.951 2.941,0.951 l 19.756,0 c 1.186,0 2.19,-0.229 2.911,-0.951 0.722,-0.722 0.951,-1.725 0.951,-2.912 l 0,-19.875 c 0,-1.186 -0.229,-2.19 -0.951,-2.911 -0.721,-0.722 -1.725,-0.951 -2.911,-0.951 l -19.756,0 z m 0,1.901 19.756,0 c 0.959,0 1.375,0.188 1.574,0.386 0.199,0.199 0.386,0.616 0.386,1.575 l 0,19.875 c 0,0.959 -0.187,1.376 -0.386,1.575 -0.199,0.199 -0.615,0.386 -1.574,0.386 l -19.756,0 c -0.958,0 -1.404,-0.188 -1.604,-0.386 -0.199,-0.199 -0.356,-0.617 -0.356,-1.575 l 0,-19.875 c 0,-0.959 0.158,-1.375 0.356,-1.575 0.199,-0.198 0.645,-0.386 1.604,-0.386 z"
         id="path35"
         inkscape:connector-curvature="0"
         style="fill:#f4f4f4" /><path
         d="m 138.709,128.084 c -1.186,0 -2.19,0.229 -2.912,0.951 -0.721,0.721 -0.95,1.726 -0.95,2.911 l 0,19.875 c 0,1.186 0.229,2.191 0.95,2.912 0.722,0.721 1.726,0.951 2.912,0.951 l 19.756,0 c 1.186,0 2.22,-0.229 2.941,-0.951 0.721,-0.721 0.921,-1.725 0.921,-2.912 l 0,-19.875 c 0,-1.186 -0.2,-2.19 -0.921,-2.911 -0.721,-0.722 -1.755,-0.951 -2.941,-0.951 l -19.756,0 z m 0,1.901 19.756,0 c 0.959,0 1.375,0.188 1.574,0.386 0.199,0.199 0.386,0.616 0.386,1.575 l 0,19.875 c 0,0.959 -0.187,1.376 -0.386,1.575 -0.199,0.199 -0.615,0.386 -1.574,0.386 l -19.756,0 c -0.958,0 -1.375,-0.188 -1.575,-0.386 -0.199,-0.199 -0.386,-0.617 -0.386,-1.575 l 0,-19.875 c 0,-0.959 0.188,-1.375 0.386,-1.575 0.2,-0.198 0.617,-0.386 1.575,-0.386 z"
         id="path37"
         inkscape:connector-curvature="0"
         style="fill:#f4f4f4" /><path
         d="m 109.03,128.084 c -1.187,0 -2.22,0.229 -2.941,0.951 -0.722,0.721 -0.921,1.726 -0.921,2.911 l 0,19.875 c 0,1.186 0.2,2.19 0.921,2.912 0.721,0.722 1.754,0.951 2.941,0.951 l 19.727,0 c 1.186,0 2.22,-0.229 2.941,-0.951 0.722,-0.722 0.921,-1.725 0.921,-2.912 l 0,-19.875 c 0,-1.186 -0.199,-2.19 -0.921,-2.911 -0.721,-0.722 -1.754,-0.951 -2.941,-0.951 l -19.727,0 z m 0,1.901 19.727,0 c 0.959,0 1.405,0.188 1.604,0.386 0.199,0.199 0.356,0.616 0.356,1.575 l 0,19.875 c 0,0.959 -0.158,1.376 -0.356,1.575 -0.198,0.199 -0.645,0.386 -1.604,0.386 l -19.727,0 c -0.959,0 -1.406,-0.188 -1.604,-0.386 -0.185,-0.199 -0.343,-0.615 -0.343,-1.575 l 0,-19.875 c 0,-0.959 0.158,-1.375 0.356,-1.574 0.199,-0.199 0.646,-0.386 1.604,-0.386 l -0.013,-10e-4 z"
         id="path39"
         inkscape:connector-curvature="0"
         style="fill:#f4f4f4" /><path
         d="m 79.323,128.084 c -1.186,0 -2.19,0.229 -2.911,0.951 -0.721,0.721 -0.951,1.726 -0.951,2.911 l 0,19.875 c 0,1.186 0.229,2.19 0.951,2.912 0.721,0.722 1.725,0.951 2.911,0.951 l 19.756,0 c 1.187,0 2.22,-0.229 2.942,-0.951 0.721,-0.722 0.92,-1.725 0.92,-2.912 l 0,-19.875 c 0,-1.186 -0.2,-2.19 -0.92,-2.911 -0.722,-0.722 -1.755,-0.951 -2.942,-0.951 l -19.756,0 z m 0,1.901 19.756,0 c 0.959,0 1.376,0.188 1.575,0.386 0.199,0.199 0.386,0.616 0.386,1.575 l 0,19.875 c 0,0.959 -0.187,1.376 -0.386,1.575 -0.199,0.199 -0.615,0.386 -1.575,0.386 l -19.756,0 c -0.959,0 -1.375,-0.188 -1.574,-0.386 -0.199,-0.198 -0.386,-0.615 -0.386,-1.575 l 0,-19.875 c 0,-0.959 0.188,-1.375 0.386,-1.574 0.199,-0.199 0.615,-0.386 1.574,-0.387 l 0,0 z"
         id="path41"
         inkscape:connector-curvature="0"
         style="fill:#f4f4f4" /><path
         d="m 49.645,128.084 c -1.186,0 -2.22,0.229 -2.941,0.951 -0.721,0.721 -0.921,1.726 -0.921,2.911 l 0,19.875 c 0,1.186 0.2,2.191 0.921,2.912 0.721,0.721 1.755,0.951 2.941,0.951 l 19.726,0 c 1.187,0 2.22,-0.229 2.941,-0.951 0.512,-0.512 0.728,-1.194 0.832,-1.961 l 0.089,0 0,-0.951 0,-19.875 c 0,-1.186 -0.2,-2.19 -0.921,-2.911 -0.721,-0.722 -1.755,-0.951 -2.941,-0.951 l -19.726,0 z m 0,1.901 19.726,0 c 0.959,0 1.406,0.188 1.604,0.386 0.199,0.199 0.356,0.616 0.356,1.575 l 0,18.924 0,0.951 c 0,0.959 -0.157,1.376 -0.356,1.575 -0.199,0.199 -0.645,0.386 -1.604,0.386 l -19.726,0 c -0.958,0 -1.405,-0.188 -1.604,-0.386 -0.199,-0.198 -0.356,-0.617 -0.356,-1.575 l 0,-19.875 c 0,-0.959 0.157,-1.375 0.356,-1.575 0.199,-0.198 0.645,-0.386 1.604,-0.386 z"
         id="path43"
         inkscape:connector-curvature="0"
         style="fill:#f4f4f4" /><path
         d="m 66.251,157.644 c -1.186,0 -2.22,0.23 -2.941,0.951 -0.721,0.722 -0.921,1.727 -0.921,2.911 l 0,19.876 c 0,1.185 0.2,2.189 0.921,2.911 0.721,0.722 1.755,0.95 2.941,0.95 l 19.756,0 c 1.186,0 2.19,-0.229 2.912,-0.95 0.721,-0.722 0.951,-1.726 0.951,-2.911 l 0,-19.876 c 0,-1.185 -0.23,-2.189 -0.951,-2.911 -0.722,-0.721 -1.726,-0.951 -2.912,-0.951 l -19.756,0 z m 0,1.901 19.756,0 c 0.959,0 1.375,0.188 1.575,0.386 0.198,0.198 0.386,0.616 0.386,1.574 l 0,19.876 c 0,0.959 -0.188,1.375 -0.386,1.574 -0.199,0.198 -0.616,0.386 -1.575,0.386 l -19.756,0 c -0.959,0 -1.375,-0.188 -1.574,-0.386 -0.199,-0.219 -0.386,-0.637 -0.386,-1.588 l 0,-19.875 c 0,-0.958 0.187,-1.376 0.386,-1.575 0.199,-0.199 0.615,-0.386 1.574,-0.386 l 0,0.014 z"
         id="path45"
         inkscape:connector-curvature="0"
         style="fill:#f4f4f4" /><path
         d="m 19.074,157.644 c -1.186,0 -2.219,0.23 -2.941,0.951 -0.722,0.723 -0.921,1.721 -0.921,2.909 l 0,19.876 c 0,1.185 0.2,2.188 0.921,2.911 0.721,0.721 1.755,0.95 2.941,0.95 l 37.879,0 c 1.186,0 2.22,-0.229 2.941,-0.95 0.721,-0.723 0.921,-1.727 0.921,-2.911 l 0,-0.951 0,-18.925 c 0,-1.185 -0.2,-2.19 -0.921,-2.911 -0.722,-0.721 -1.755,-0.951 -2.941,-0.951 l -37.879,0 0,0.002 z m 0,1.901 37.879,0 c 0.959,0 1.375,0.188 1.575,0.386 0.199,0.198 0.386,0.616 0.386,1.574 l 0,19.876 c 0,0.959 -0.187,1.375 -0.386,1.574 -0.199,0.198 -0.616,0.386 -1.575,0.386 l -37.879,0 c -0.959,0 -1.375,-0.188 -1.574,-0.386 -0.199,-0.219 -0.387,-0.637 -0.387,-1.588 l 0,-19.875 c 0,-0.958 0.188,-1.376 0.386,-1.575 0.199,-0.199 0.616,-0.386 1.575,-0.386 l 0,0.014 z"
         id="path47"
         inkscape:connector-curvature="0"
         style="fill:#f4f4f4" /><path
         d="m 95.663,157.644 c -1.186,0 -2.19,0.23 -2.912,0.951 -0.721,0.722 -0.951,1.727 -0.951,2.911 l 0,19.876 c 0,1.186 0.23,2.189 0.951,2.911 0.722,0.722 1.726,0.95 2.912,0.95 l 19.756,0 c 1.187,0 2.22,-0.229 2.941,-0.95 0.721,-0.721 0.921,-1.726 0.921,-2.911 l 0,-0.951 0,-18.925 c 0,-1.185 -0.2,-2.189 -0.921,-2.911 -0.721,-0.721 -1.755,-0.951 -2.941,-0.951 l -19.756,0 z m 0,1.901 19.756,0 c 0.96,0 1.406,0.188 1.604,0.386 0.199,0.198 0.356,0.616 0.356,1.574 l 0,19.876 c 0,0.959 -0.158,1.375 -0.356,1.574 -0.199,0.198 -0.645,0.386 -1.604,0.386 l -19.756,0 c -0.958,0 -1.375,-0.188 -1.575,-0.386 -0.199,-0.199 -0.386,-0.616 -0.386,-1.574 l 0,-19.876 c 0,-0.958 0.188,-1.376 0.386,-1.574 0.2,-0.198 0.616,-0.386 1.575,-0.386 z"
         id="path49"
         inkscape:connector-curvature="0"
         style="fill:#f4f4f4" /><path
         d="m 125.105,157.644 c -1.186,0 -2.22,0.23 -2.941,0.951 -0.721,0.722 -0.921,1.727 -0.921,2.911 l 0,19.876 c 0,1.185 0.2,2.189 0.921,2.911 0.721,0.722 1.754,0.95 2.941,0.95 l 19.756,0 c 1.186,0 2.19,-0.229 2.911,-0.95 0.721,-0.721 0.951,-1.726 0.951,-2.911 l 0,-19.876 c 0,-1.185 -0.229,-2.189 -0.951,-2.911 -0.721,-0.721 -1.725,-0.951 -2.911,-0.951 l -19.756,0 z m 0,1.901 19.756,0 c 0.959,0 1.375,0.188 1.575,0.386 0.198,0.198 0.386,0.616 0.386,1.574 l 0,19.876 c 0,0.958 -0.188,1.375 -0.386,1.574 -0.199,0.198 -0.616,0.386 -1.575,0.386 l -19.756,0 c -0.959,0 -1.405,-0.188 -1.604,-0.386 -0.199,-0.199 -0.356,-0.616 -0.356,-1.574 l 0,-19.876 c 0,-0.958 0.158,-1.376 0.356,-1.574 0.199,-0.198 0.645,-0.386 1.604,-0.386 z"
         id="path51"
         inkscape:connector-curvature="0"
         style="fill:#f4f4f4" /><path
         d="m 154.52,157.644 c -1.186,0 -2.19,0.23 -2.912,0.951 -0.721,0.722 -0.951,1.727 -0.951,2.911 l 0,19.876 c 0,1.186 0.23,2.189 0.951,2.911 0.721,0.722 1.726,0.95 2.912,0.95 l 19.756,0 c 1.186,0 2.22,-0.229 2.941,-0.95 0.721,-0.722 0.921,-1.726 0.921,-2.911 l 0,-19.876 c 0,-1.185 -0.2,-2.189 -0.921,-2.911 -0.722,-0.721 -1.755,-0.951 -2.941,-0.951 l -19.756,0 z m 0,1.901 19.756,0 c 0.959,0 1.376,0.188 1.575,0.386 0.199,0.198 0.386,0.616 0.386,1.574 l 0,19.876 c 0,0.958 -0.188,1.375 -0.386,1.574 -0.199,0.198 -0.616,0.386 -1.575,0.386 l -19.756,0 c -0.958,0 -1.375,-0.188 -1.575,-0.386 -0.199,-0.199 -0.386,-0.616 -0.386,-1.574 l 0,-19.876 c 0,-0.958 0.188,-1.376 0.386,-1.574 0.199,-0.198 0.616,-0.386 1.575,-0.386 z"
         id="path53-0"
         inkscape:connector-curvature="0"
         style="fill:#f4f4f4" /><path
         d="m 183.952,157.644 c -1.186,0 -2.22,0.23 -2.941,0.951 -0.721,0.722 -0.921,1.727 -0.921,2.911 l 0,19.876 c 0,1.185 0.2,2.189 0.921,2.911 0.722,0.722 1.755,0.95 2.941,0.95 l 19.727,0 c 1.187,0 2.22,-0.229 2.941,-0.95 0.721,-0.722 0.921,-1.726 0.921,-2.911 l 0,-19.876 c 0,-1.185 -0.2,-2.189 -0.921,-2.911 -0.721,-0.721 -1.755,-0.951 -2.941,-0.951 l -19.727,0 z m 0,1.901 19.727,0 c 0.959,0 1.405,0.188 1.604,0.386 0.199,0.198 0.356,0.616 0.356,1.574 l 0,19.876 c 0,0.959 -0.158,1.375 -0.356,1.574 -0.199,0.198 -0.645,0.386 -1.604,0.386 l -19.727,0 c -0.959,0 -1.405,-0.188 -1.604,-0.386 -0.198,-0.199 -0.356,-0.616 -0.356,-1.574 l 0,-19.876 c 0,-0.958 0.158,-1.376 0.356,-1.574 0.198,-0.198 0.645,-0.386 1.604,-0.386 z"
         id="path55-0"
         inkscape:connector-curvature="0"
         style="fill:#f4f4f4" /><path
         d="m 213.366,157.644 c -1.186,0 -2.19,0.23 -2.911,0.951 -0.722,0.722 -0.951,1.727 -0.951,2.911 l 0,19.876 c 0,1.186 0.229,2.189 0.951,2.911 0.721,0.722 1.725,0.95 2.911,0.95 l 19.756,0 c 1.187,0 2.22,-0.229 2.941,-0.95 0.721,-0.721 0.921,-1.726 0.921,-2.911 l 0,-19.876 c 0,-1.185 -0.2,-2.189 -0.921,-2.911 -0.721,-0.721 -1.755,-0.951 -2.941,-0.951 l -19.756,0 z m 0,1.901 19.756,0 c 0.959,0 1.376,0.188 1.574,0.386 0.199,0.198 0.387,0.616 0.387,1.574 l 0,19.876 c 0,0.959 -0.188,1.375 -0.387,1.574 -0.198,0.198 -0.615,0.386 -1.574,0.386 l -19.756,0 c -0.959,0 -1.375,-0.188 -1.574,-0.386 -0.199,-0.199 -0.386,-0.616 -0.386,-1.574 l 0,-19.876 c 0,-0.958 0.187,-1.376 0.386,-1.574 0.199,-0.198 0.615,-0.386 1.574,-0.386 z"
         id="path57"
         inkscape:connector-curvature="0"
         style="fill:#f4f4f4" /><path
         d="m 242.809,157.644 c -1.186,0 -2.22,0.23 -2.941,0.951 -0.721,0.722 -0.921,1.727 -0.921,2.911 l 0,19.876 c 0,1.185 0.2,2.189 0.921,2.911 0.722,0.722 1.755,0.95 2.941,0.95 l 19.727,0 c 1.186,0 2.22,-0.229 2.941,-0.95 0.721,-0.722 0.921,-1.726 0.921,-2.911 l 0,-19.876 c 0,-1.185 -0.2,-2.189 -0.921,-2.911 -0.722,-0.721 -1.755,-0.951 -2.941,-0.951 l -19.727,0 z m 0,1.901 19.727,0 c 0.959,0 1.405,0.188 1.604,0.386 0.199,0.198 0.356,0.616 0.356,1.574 l 0,19.876 c 0,0.959 -0.158,1.375 -0.356,1.574 -0.199,0.198 -0.646,0.386 -1.604,0.386 l -19.727,0 c -0.959,0 -1.405,-0.188 -1.604,-0.386 -0.199,-0.199 -0.356,-0.616 -0.356,-1.574 l 0,-19.876 c 0,-0.958 0.158,-1.376 0.356,-1.574 0.198,-0.198 0.645,-0.386 1.604,-0.386 z"
         id="path59"
         inkscape:connector-curvature="0"
         style="fill:#f4f4f4" /><path
         d="m 272.222,157.644 c -1.186,0 -2.22,0.23 -2.941,0.951 -0.722,0.722 -0.921,1.727 -0.921,2.911 l 0,19.876 c 0,1.186 0.2,2.189 0.921,2.911 0.721,0.722 1.755,0.95 2.941,0.95 l 19.756,0 c 1.186,0 2.22,-0.229 2.941,-0.95 0.721,-0.722 0.921,-1.726 0.921,-2.911 l 0,-19.876 c 0,-1.185 -0.2,-2.189 -0.921,-2.911 -0.722,-0.721 -1.755,-0.951 -2.941,-0.951 l -19.756,0 z m 0,1.901 19.756,0 c 0.959,0 1.376,0.188 1.574,0.386 0.199,0.198 0.387,0.616 0.387,1.574 l 0,19.876 c 0,0.958 -0.188,1.375 -0.387,1.574 -0.199,0.198 -0.615,0.386 -1.574,0.386 l -19.756,0 c -0.958,0 -1.375,-0.188 -1.574,-0.386 -0.199,-0.199 -0.386,-0.616 -0.386,-1.574 l 0,-19.876 c 0,-0.958 0.188,-1.376 0.386,-1.574 0.199,-0.198 0.616,-0.386 1.574,-0.386 z"
         id="path61"
         inkscape:connector-curvature="0"
         style="fill:#f4f4f4" /><path
         d="m 301.665,157.644 c -1.186,0 -2.22,0.23 -2.941,0.951 -0.722,0.722 -0.921,1.727 -0.921,2.911 l 0,19.876 c 0,1.185 0.2,2.189 0.921,2.911 0.722,0.722 1.755,0.95 2.941,0.95 l 19.727,0 c 1.185,0 2.219,-0.229 2.941,-0.95 0.721,-0.722 0.921,-1.726 0.921,-2.911 l 0,-19.876 c 0,-1.185 -0.2,-2.189 -0.921,-2.911 -0.723,-0.721 -1.755,-0.951 -2.941,-0.951 l -19.727,0 z m 0,1.901 19.727,0 c 0.959,0 1.406,0.188 1.604,0.386 0.199,0.198 0.356,0.616 0.356,1.574 l 0,19.876 c 0,0.958 -0.157,1.375 -0.356,1.574 -0.2,0.198 -0.646,0.386 -1.604,0.386 l -19.727,0 c -0.959,0 -1.405,-0.188 -1.604,-0.386 -0.198,-0.199 -0.356,-0.616 -0.356,-1.574 l 0,-19.876 c 0,-0.958 0.158,-1.376 0.356,-1.574 0.199,-0.198 0.645,-0.386 1.604,-0.386 z"
         id="path63"
         inkscape:connector-curvature="0"
         style="fill:#f4f4f4" /><path
         d="m 331.079,157.644 c -1.187,0 -2.221,0.23 -2.941,0.951 -0.723,0.722 -0.921,1.727 -0.921,2.911 l 0,19.876 c 0,1.185 0.2,2.189 0.921,2.911 0.721,0.722 1.755,0.95 2.941,0.95 l 19.756,0 c 1.186,0 2.189,-0.229 2.912,-0.95 0.721,-0.722 0.95,-1.726 0.95,-2.911 l 0,-19.876 c 0,-1.185 -0.229,-2.189 -0.95,-2.911 -0.723,-0.721 -1.727,-0.951 -2.912,-0.951 l -19.756,0 z m 0,1.901 19.756,0 c 0.959,0 1.376,0.188 1.575,0.386 0.198,0.198 0.386,0.616 0.386,1.574 l 0,19.876 c 0,0.958 -0.188,1.375 -0.386,1.574 -0.2,0.198 -0.616,0.386 -1.575,0.386 l -19.756,0 c -0.96,0 -1.376,-0.188 -1.574,-0.386 -0.199,-0.199 -0.387,-0.616 -0.387,-1.574 l 0,-19.876 c 0,-0.958 0.188,-1.376 0.387,-1.574 0.198,-0.198 0.614,-0.386 1.574,-0.386 z"
         id="path65"
         inkscape:connector-curvature="0"
         style="fill:#f4f4f4" /><path
         d="m 360.511,157.644 c -1.184,0 -2.219,0.23 -2.94,0.951 -0.721,0.722 -0.921,1.727 -0.921,2.911 l 0,19.876 c 0,1.185 0.2,2.189 0.921,2.911 0.72,0.722 1.755,0.95 2.94,0.95 l 19.728,0 c 1.187,0 2.221,-0.229 2.94,-0.95 0.721,-0.722 0.922,-1.726 0.922,-2.911 l 0,-19.876 c 0,-1.185 -0.201,-2.189 -0.922,-2.911 -0.72,-0.721 -1.754,-0.951 -2.94,-0.951 l -19.728,0 z m 0,1.901 19.728,0 c 0.96,0 1.405,0.188 1.604,0.386 0.198,0.198 0.356,0.616 0.356,1.574 l 0,19.876 c 0,0.959 -0.158,1.375 -0.356,1.574 -0.199,0.198 -0.645,0.386 -1.604,0.386 l -19.728,0 c -0.957,0 -1.405,-0.188 -1.604,-0.386 -0.199,-0.199 -0.356,-0.616 -0.356,-1.574 l 0,-19.876 c 0,-0.958 0.157,-1.376 0.356,-1.574 0.198,-0.198 0.647,-0.386 1.604,-0.386 z"
         id="path67"
         inkscape:connector-curvature="0"
         style="fill:#f4f4f4" /><path
         d="m 389.925,157.644 c -1.185,0 -2.219,0.23 -2.941,0.951 -0.72,0.722 -0.921,1.727 -0.921,2.911 l 0,19.876 c 0,1.185 0.201,2.189 0.921,2.911 0.723,0.722 1.755,0.95 2.941,0.95 l 19.757,0 c 1.187,0 2.19,-0.229 2.911,-0.95 0.721,-0.721 0.951,-1.726 0.951,-2.911 l 0,-19.876 c 0,-1.185 -0.23,-2.189 -0.951,-2.911 -0.721,-0.721 -1.725,-0.951 -2.911,-0.951 l -19.757,0 z m 0,1.901 19.757,0 c 0.96,0 1.376,0.188 1.574,0.386 0.199,0.198 0.387,0.616 0.387,1.574 l 0,19.876 c 0,0.959 -0.188,1.375 -0.387,1.574 -0.198,0.198 -0.616,0.386 -1.574,0.386 l -19.757,0 c -0.958,0 -1.376,-0.188 -1.574,-0.386 -0.199,-0.199 -0.387,-0.616 -0.387,-1.574 l 0,-19.876 c 0,-0.958 0.188,-1.376 0.387,-1.574 0.198,-0.198 0.616,-0.386 1.574,-0.386 z"
         id="path69"
         inkscape:connector-curvature="0"
         style="fill:#f4f4f4" /><path
         d="M 469.061,184.283"
         id="path71"
         inkscape:connector-curvature="0"
         style="fill:none;stroke:#f4f4f4;stroke-width:1.90139997" /><path
         d="M 471.35,190.007"
         id="path73"
         inkscape:connector-curvature="0"
         style="fill:none;stroke:#f4f4f4;stroke-width:1.90139997" /><path
         d="m 418.266,157.644 c -1.187,0 -2.221,0.23 -2.941,0.951 -0.722,0.722 -0.921,1.727 -0.921,2.911 l 0,19.876 c 0,1.186 0.199,2.189 0.921,2.911 0.721,0.722 1.755,0.95 2.941,0.95 1.512,0 2.295,0.148 2.466,0.268 0.085,0.06 0.141,0.091 0.208,0.327 0.066,0.235 0.089,0.646 0.089,1.247 l 0,22.758 c 0,1.187 0.229,2.22 0.951,2.941 0.72,0.721 1.725,0.921 2.911,0.921 l 43.373,0 c 1.187,0 2.221,-0.2 2.941,-0.921 0.715,-0.715 0.917,-1.739 0.921,-2.912 0,-0.01 0,-0.019 0,-0.029 l 0.179,-48.305 0,-0.03 c 0,-1.187 -0.229,-2.191 -0.951,-2.912 -0.721,-0.721 -1.725,-0.951 -2.911,-0.951 l -50.177,0 0,-0.001 z m 0,1.901 50.177,0 c 0.96,0 1.376,0.188 1.574,0.386 0.199,0.198 0.387,0.616 0.387,1.574 l -0.179,48.337 c 0,0.959 -0.157,1.405 -0.356,1.604 -0.198,0.198 -0.645,0.356 -1.604,0.356 l -43.373,0 c -0.96,0 -1.376,-0.158 -1.574,-0.356 -0.191,-0.2 -0.381,-0.646 -0.381,-1.606 l 0,-22.757 c 0,-0.682 -0.028,-1.253 -0.179,-1.783 -0.151,-0.53 -0.46,-1.045 -0.921,-1.366 -0.923,-0.645 -2.003,-0.595 -3.564,-0.595 -0.96,0 -1.376,-0.188 -1.575,-0.386 -0.198,-0.199 -0.386,-0.616 -0.386,-1.574 l 0,-19.876 c 0,-0.958 0.188,-1.375 0.386,-1.574 0.199,-0.199 0.615,-0.386 1.575,-0.386 l -0.007,0.002 z"
         id="path75"
         inkscape:connector-curvature="0"
         style="fill:#f4f4f4" /><path
         d="m 72.075,186.348 c -1.186,0 -2.22,0.229 -2.941,0.95 -0.721,0.722 -0.921,1.726 -0.921,2.911 l 0,19.875 c 0,1.187 0.2,2.19 0.921,2.911 0.721,0.722 1.755,0.951 2.941,0.951 l 19.756,0 c 1.186,0 2.19,-0.229 2.912,-0.951 0.721,-0.72 0.951,-1.725 0.951,-2.911 l 0,-19.875 c 0,-1.185 -0.23,-2.189 -0.951,-2.911 -0.721,-0.721 -1.726,-0.95 -2.912,-0.95 l -19.756,0 z m 0,1.901 19.756,0 c 0.959,0 1.375,0.187 1.575,0.386 0.199,0.199 0.386,0.616 0.386,1.574 l 0,19.875 c 0,0.96 -0.188,1.376 -0.386,1.574 -0.199,0.199 -0.615,0.387 -1.575,0.387 l -19.756,0 c -0.959,0 -1.376,-0.188 -1.575,-0.387 -0.199,-0.198 -0.386,-0.615 -0.386,-1.574 l 0,-19.875 c 0,-0.958 0.188,-1.375 0.386,-1.574 0.198,-0.199 0.616,-0.386 1.575,-0.386 z"
         id="path77"
         inkscape:connector-curvature="0"
         style="fill:#f4f4f4" /><path
         d="m 18.658,186.348 c -1.186,0 -2.19,0.229 -2.911,0.95 -0.722,0.722 -0.951,1.726 -0.951,2.911 l 0,19.875 c 0,1.187 0.229,2.19 0.951,2.911 0.721,0.722 1.725,0.951 2.911,0.951 l 45.663,0 c 1.186,0 2.189,-0.229 2.911,-0.951 0.722,-0.72 0.951,-1.725 0.951,-2.911 l 0,-19.875 c 0,-1.185 -0.229,-2.189 -0.951,-2.911 -0.721,-0.721 -1.725,-0.95 -2.911,-0.95 l -45.663,0 z m 0,1.901 45.663,0 c 0.959,0 1.375,0.187 1.574,0.386 0.199,0.199 0.386,0.616 0.386,1.574 l 0,19.875 c 0,0.96 -0.187,1.376 -0.386,1.574 -0.198,0.199 -0.615,0.387 -1.574,0.387 l -45.663,0 c -0.959,0 -1.375,-0.188 -1.574,-0.387 -0.199,-0.198 -0.386,-0.615 -0.386,-1.574 l 0,-19.875 c 0,-0.958 0.187,-1.375 0.386,-1.574 0.199,-0.209 0.615,-0.39 1.574,-0.39 l 0,0.004 z"
         id="path79"
         inkscape:connector-curvature="0"
         style="fill:#f4f4f4" /><path
         d="m 101.515,186.348 c -1.186,0 -2.22,0.229 -2.941,0.95 -0.722,0.722 -0.921,1.726 -0.921,2.911 l 0,19.875 c 0,1.187 0.2,2.191 0.921,2.911 0.721,0.722 1.755,0.951 2.941,0.951 l 19.727,0 c 1.186,0 2.22,-0.229 2.941,-0.951 0.512,-0.512 0.728,-1.193 0.832,-1.961 l 0.089,0 0,-0.95 0,-19.875 c 0,-1.185 -0.2,-2.189 -0.921,-2.911 -0.721,-0.721 -1.755,-0.95 -2.941,-0.95 l -19.727,0 0,0 z m 0,1.901 19.727,0 c 0.959,0 1.405,0.187 1.604,0.386 0.199,0.199 0.357,0.616 0.357,1.574 l 0,18.924 0,0.951 c 0,0.96 -0.158,1.376 -0.357,1.574 -0.199,0.199 -0.645,0.387 -1.604,0.387 l -19.727,0 c -0.958,0 -1.405,-0.188 -1.604,-0.387 -0.199,-0.198 -0.356,-0.615 -0.356,-1.574 l 0,-19.875 c 0,-0.958 0.158,-1.375 0.356,-1.574 0.199,-0.199 0.645,-0.386 1.604,-0.386 z"
         id="path81"
         inkscape:connector-curvature="0"
         style="fill:#f4f4f4" /><path
         d="m 130.923,186.348 c -1.186,0 -2.22,0.229 -2.941,0.95 -0.722,0.722 -0.921,1.726 -0.921,2.911 l 0,19.875 c 0,1.187 0.2,2.191 0.921,2.911 0.721,0.722 1.755,0.951 2.941,0.951 l 19.756,0 c 1.186,0 2.19,-0.229 2.911,-0.951 0.722,-0.72 0.951,-1.725 0.951,-2.911 l 0,-19.875 c 0,-1.185 -0.229,-2.189 -0.951,-2.911 -0.721,-0.721 -1.725,-0.95 -2.911,-0.95 l -19.756,0 z m 0,1.901 19.756,0 c 0.959,0 1.376,0.187 1.574,0.386 0.199,0.199 0.386,0.616 0.386,1.574 l 0,19.875 c 0,0.96 -0.187,1.376 -0.386,1.574 -0.198,0.199 -0.615,0.387 -1.574,0.387 l -19.756,0 c -0.958,0 -1.375,-0.188 -1.574,-0.387 -0.199,-0.198 -0.386,-0.615 -0.386,-1.574 l 0,-19.875 c 0,-0.958 0.188,-1.375 0.386,-1.574 0.198,-0.199 0.616,-0.386 1.574,-0.386 z"
         id="path83"
         inkscape:connector-curvature="0"
         style="fill:#f4f4f4" /><path
         d="m 160.338,186.348 c -1.186,0 -2.19,0.229 -2.912,0.95 -0.721,0.722 -0.951,1.726 -0.951,2.911 l 0,19.875 c 0,1.187 0.229,2.191 0.951,2.911 0.721,0.722 1.726,0.951 2.912,0.951 l 19.756,0 c 1.186,0 2.22,-0.229 2.941,-0.951 0.721,-0.72 0.921,-1.725 0.921,-2.911 l 0,-19.875 c 0,-1.185 -0.2,-2.189 -0.921,-2.911 -0.722,-0.721 -1.755,-0.95 -2.941,-0.95 l -19.756,0 z m 0,1.901 19.756,0 c 0.959,0 1.405,0.187 1.604,0.386 0.198,0.199 0.356,0.616 0.356,1.574 l 0,19.875 c 0,0.96 -0.158,1.376 -0.356,1.574 -0.199,0.199 -0.645,0.387 -1.604,0.387 l -19.756,0 c -0.959,0 -1.376,-0.188 -1.575,-0.387 -0.199,-0.198 -0.386,-0.615 -0.386,-1.574 l 0,-19.875 c 0,-0.958 0.187,-1.375 0.386,-1.574 0.199,-0.199 0.616,-0.386 1.575,-0.386 z"
         id="path85"
         inkscape:connector-curvature="0"
         style="fill:#f4f4f4" /><path
         d="m 189.78,186.348 c -1.186,0 -2.22,0.229 -2.941,0.95 -0.722,0.722 -0.921,1.726 -0.921,2.911 l 0,19.875 c 0,1.187 0.2,2.19 0.921,2.911 0.721,0.722 1.755,0.951 2.941,0.951 l 19.756,0 c 1.186,0 2.19,-0.229 2.912,-0.951 0.721,-0.72 0.951,-1.725 0.951,-2.911 l 0,-19.875 c 0,-1.185 -0.229,-2.189 -0.951,-2.911 -0.721,-0.721 -1.725,-0.95 -2.912,-0.95 l -19.756,0 z m 0,1.901 19.756,0 c 0.959,0 1.376,0.187 1.575,0.386 0.199,0.199 0.386,0.616 0.386,1.574 l 0,19.875 c 0,0.96 -0.188,1.376 -0.386,1.574 -0.199,0.199 -0.615,0.387 -1.575,0.387 l -19.756,0 c -0.959,0 -1.405,-0.188 -1.604,-0.387 -0.199,-0.198 -0.357,-0.615 -0.357,-1.574 l 0,-19.875 c 0,-0.958 0.158,-1.375 0.357,-1.574 0.199,-0.199 0.645,-0.386 1.604,-0.386 z"
         id="path87"
         inkscape:connector-curvature="0"
         style="fill:#f4f4f4" /><path
         d="m 219.194,186.348 c -1.186,0 -2.19,0.229 -2.911,0.95 -0.722,0.722 -0.951,1.726 -0.951,2.911 l 0,19.875 c 0,1.187 0.229,2.19 0.951,2.911 0.721,0.722 1.725,0.951 2.911,0.951 l 19.756,0 c 1.186,0 2.22,-0.229 2.941,-0.951 0.721,-0.72 0.921,-1.725 0.921,-2.911 l 0,-19.875 c 0,-1.185 -0.2,-2.189 -0.921,-2.911 -0.721,-0.721 -1.755,-0.95 -2.941,-0.95 l -19.756,0 z m 0,1.901 19.756,0 c 0.958,0 1.375,0.187 1.574,0.386 0.199,0.199 0.386,0.616 0.386,1.574 l 0,19.875 c 0,0.96 -0.187,1.376 -0.386,1.574 -0.199,0.199 -0.615,0.387 -1.574,0.387 l -19.756,0 c -0.959,0 -1.375,-0.188 -1.574,-0.387 -0.199,-0.198 -0.386,-0.615 -0.386,-1.574 l 0,-19.875 c 0,-0.958 0.187,-1.375 0.386,-1.574 0.198,-0.199 0.615,-0.386 1.574,-0.386 z"
         id="path89"
         inkscape:connector-curvature="0"
         style="fill:#f4f4f4" /><path
         d="m 248.636,186.348 c -1.186,0 -2.22,0.229 -2.941,0.95 -0.721,0.722 -0.921,1.726 -0.921,2.911 l 0,19.875 c 0,1.187 0.2,2.191 0.921,2.911 0.721,0.722 1.756,0.951 2.941,0.951 l 19.727,0 c 1.186,0 2.22,-0.229 2.941,-0.951 0.721,-0.72 0.921,-1.725 0.921,-2.911 l 0,-19.875 c 0,-1.185 -0.2,-2.189 -0.921,-2.911 -0.722,-0.721 -1.755,-0.95 -2.941,-0.95 l -19.727,0 z m 0,1.901 19.727,0 c 0.959,0 1.405,0.187 1.604,0.386 0.199,0.199 0.356,0.616 0.356,1.574 l 0,19.875 c 0,0.96 -0.158,1.376 -0.356,1.574 -0.199,0.199 -0.645,0.387 -1.604,0.387 l -19.727,0 c -0.958,0 -1.405,-0.188 -1.604,-0.387 -0.199,-0.198 -0.356,-0.615 -0.356,-1.574 l 0,-19.875 c 0,-0.958 0.158,-1.375 0.356,-1.574 0.199,-0.199 0.645,-0.386 1.604,-0.386 z"
         id="path91"
         inkscape:connector-curvature="0"
         style="fill:#f4f4f4" /><path
         d="m 278.041,186.348 c -1.186,0 -2.19,0.229 -2.912,0.95 -0.721,0.722 -0.951,1.726 -0.951,2.911 l 0,19.875 c 0,1.187 0.229,2.19 0.951,2.911 0.722,0.722 1.726,0.951 2.912,0.951 l 19.756,0 c 1.186,0 2.22,-0.229 2.94,-0.951 0.722,-0.72 0.922,-1.725 0.922,-2.911 l 0,-19.875 c 0,-1.185 -0.2,-2.189 -0.922,-2.911 -0.721,-0.721 -1.754,-0.95 -2.94,-0.95 l -19.756,0 z m 0,1.901 19.756,0 c 0.959,0 1.376,0.187 1.574,0.386 0.198,0.199 0.386,0.616 0.386,1.574 l 0,19.875 c 0,0.96 -0.188,1.376 -0.386,1.574 -0.198,0.199 -0.615,0.387 -1.574,0.387 l -19.756,0 c -0.959,0 -1.376,-0.188 -1.575,-0.387 -0.199,-0.198 -0.386,-0.615 -0.386,-1.574 l 0,-19.875 c 0,-0.958 0.188,-1.375 0.386,-1.574 0.198,-0.199 0.615,-0.386 1.575,-0.386 z"
         id="path93"
         inkscape:connector-curvature="0"
         style="fill:#f4f4f4" /><path
         d="m 307.482,186.348 c -1.185,0 -2.219,0.229 -2.941,0.95 -0.72,0.722 -0.921,1.726 -0.921,2.911 l 0,19.875 c 0,1.187 0.201,2.19 0.921,2.911 0.723,0.722 1.755,0.951 2.941,0.951 l 19.727,0 c 1.187,0 2.221,-0.229 2.941,-0.951 0.721,-0.72 0.921,-1.725 0.921,-2.911 l 0,-19.875 c 0,-1.185 -0.2,-2.189 -0.921,-2.911 -0.721,-0.721 -1.755,-0.95 -2.941,-0.95 l -19.727,0 z m 0,1.901 19.727,0 c 0.96,0 1.406,0.187 1.604,0.386 0.199,0.199 0.356,0.616 0.356,1.574 l 0,19.875 c 0,0.96 -0.157,1.376 -0.356,1.574 -0.198,0.199 -0.645,0.387 -1.604,0.387 l -19.727,0 c -0.958,0 -1.405,-0.188 -1.604,-0.387 -0.198,-0.198 -0.356,-0.615 -0.356,-1.574 l 0,-19.875 c 0,-0.958 0.158,-1.375 0.356,-1.574 0.199,-0.199 0.646,-0.386 1.604,-0.386 z"
         id="path95"
         inkscape:connector-curvature="0"
         style="fill:#f4f4f4" /><path
         d="m 336.896,186.348 c -1.185,0 -2.189,0.229 -2.911,0.95 -0.721,0.722 -0.951,1.726 -0.951,2.911 l 0,19.875 c 0,1.187 0.2,2.19 0.921,2.911 0.723,0.722 1.755,0.951 2.941,0.951 l 19.757,0 c 1.186,0 2.221,-0.229 2.94,-0.951 0.721,-0.72 0.921,-1.725 0.921,-2.911 l 0,-19.875 c 0,-1.185 -0.2,-2.189 -0.921,-2.911 -0.72,-0.721 -1.755,-0.95 -2.94,-0.95 l -19.757,0 0,0 z m 0,1.901 19.757,0 c 0.959,0 1.375,0.187 1.574,0.386 0.198,0.199 0.386,0.616 0.386,1.574 l 0,19.875 c 0,0.96 -0.188,1.376 -0.386,1.574 -0.199,0.199 -0.616,0.387 -1.574,0.387 l -19.757,0 c -0.958,0 -1.376,-0.188 -1.575,-0.387 -0.198,-0.198 -0.386,-0.615 -0.386,-1.574 l 0,-19.875 c 0,-0.958 0.188,-1.375 0.386,-1.574 0.2,-0.199 0.617,-0.386 1.575,-0.386 z"
         id="path97"
         inkscape:connector-curvature="0"
         style="fill:#f4f4f4" /><path
         d="m 366.34,186.348 c -1.187,0 -2.221,0.229 -2.941,0.95 -0.722,0.722 -0.921,1.726 -0.921,2.911 l 0,19.875 c 0,1.187 0.199,2.19 0.921,2.911 0.721,0.722 1.755,0.951 2.941,0.951 l 19.727,0 c 1.185,0 2.219,-0.229 2.941,-0.951 0.721,-0.72 0.921,-1.725 0.921,-2.911 l 0,-19.875 c 0,-1.185 -0.2,-2.189 -0.921,-2.911 -0.723,-0.721 -1.755,-0.95 -2.941,-0.95 l -19.727,0 z m 0,1.901 19.727,0 c 0.958,0 1.405,0.187 1.604,0.386 0.198,0.199 0.356,0.616 0.356,1.574 l 0,19.875 c 0,0.96 -0.158,1.376 -0.356,1.574 -0.199,0.199 -0.646,0.387 -1.604,0.387 l -19.727,0 c -0.96,0 -1.405,-0.188 -1.604,-0.387 -0.198,-0.198 -0.356,-0.615 -0.356,-1.574 l 0,-19.875 c 0,-0.958 0.158,-1.375 0.356,-1.574 0.199,-0.199 0.644,-0.386 1.604,-0.386 z"
         id="path99"
         inkscape:connector-curvature="0"
         style="fill:#f4f4f4" /><path
         d="m 395.754,186.348 c -1.187,0 -2.221,0.229 -2.941,0.95 -0.723,0.722 -0.921,1.726 -0.921,2.911 l 0,19.875 c 0,1.187 0.198,2.19 0.921,2.911 0.721,0.722 1.755,0.951 2.941,0.951 l 19.756,0 c 1.185,0 2.189,-0.229 2.91,-0.951 0.722,-0.72 0.95,-1.725 0.95,-2.911 l 0,-19.875 c 0,-1.185 -0.229,-2.189 -0.95,-2.911 -0.721,-0.721 -1.726,-0.95 -2.91,-0.95 l -19.756,0 z m 0,1.901 19.756,0 c 0.958,0 1.376,0.187 1.573,0.386 0.198,0.199 0.386,0.616 0.386,1.574 l 0,19.875 c 0,0.96 -0.188,1.376 -0.386,1.574 -0.199,0.199 -0.615,0.387 -1.573,0.387 l -19.756,0 c -0.96,0 -1.376,-0.188 -1.575,-0.387 -0.198,-0.198 -0.386,-0.615 -0.386,-1.574 l 0,-19.875 c 0,-0.958 0.188,-1.375 0.386,-1.574 0.199,-0.199 0.615,-0.386 1.575,-0.386 z"
         id="path101"
         inkscape:connector-curvature="0"
         style="fill:#f4f4f4" /><path
         d="m 85.889,215.038 c -1.186,0 -2.22,0.23 -2.941,0.95 -0.722,0.723 -0.921,1.727 -0.921,2.912 l 0,19.875 c 0,1.187 0.199,2.19 0.921,2.911 0.721,0.722 1.754,0.951 2.941,0.951 l 19.756,0 c 1.186,0 2.19,-0.229 2.911,-0.951 0.512,-0.512 0.728,-1.193 0.832,-1.961 l 0.119,0 0,-0.95 0,-19.875 c 0,-1.185 -0.229,-2.189 -0.951,-2.912 -0.721,-0.72 -1.725,-0.95 -2.911,-0.95 l -19.756,0 z m 0,1.901 19.756,0 c 0.959,0 1.375,0.188 1.574,0.386 0.199,0.2 0.386,0.617 0.386,1.575 l 0,18.924 0,0.951 c 0,0.96 -0.188,1.376 -0.386,1.574 -0.199,0.199 -0.615,0.387 -1.574,0.387 l -19.756,0 c -0.959,0 -1.375,-0.188 -1.574,-0.387 -0.199,-0.198 -0.386,-0.615 -0.386,-1.574 l 0,-19.875 c 0,-0.959 0.188,-1.375 0.386,-1.575 0.199,-0.198 0.615,-0.386 1.574,-0.386 z"
         id="path103"
         inkscape:connector-curvature="0"
         style="fill:#f4f4f4" /><path
         d="m 18.658,215.038 c -1.186,0 -2.19,0.23 -2.911,0.95 -0.722,0.723 -0.951,1.727 -0.951,2.912 l 0,19.875 c 0,1.187 0.229,2.19 0.951,2.911 0.721,0.722 1.726,0.951 2.911,0.951 l 58.913,0 c 1.186,0 2.22,-0.229 2.941,-0.951 0.721,-0.721 0.921,-1.725 0.921,-2.911 l 0,-19.875 c 0,-1.185 -0.2,-2.189 -0.921,-2.912 -0.722,-0.72 -1.755,-0.95 -2.941,-0.95 l -58.913,0 z m 0,1.901 58.913,0 c 0.959,0 1.406,0.188 1.604,0.386 0.199,0.2 0.356,0.617 0.356,1.575 l 0,19.875 c 0,0.96 -0.158,1.376 -0.356,1.574 -0.199,0.199 -0.645,0.387 -1.604,0.387 l -58.913,0 c -0.958,0 -1.375,-0.188 -1.574,-0.387 -0.199,-0.198 -0.386,-0.615 -0.386,-1.574 l 0,-19.875 c 0,-0.959 0.187,-1.375 0.386,-1.575 0.199,-0.198 0.616,-0.389 1.575,-0.389 l -10e-4,0.003 z"
         id="path105"
         inkscape:connector-curvature="0"
         style="fill:#f4f4f4" /><path
         d="m 115.304,215.038 c -1.186,0 -2.19,0.23 -2.912,0.95 -0.722,0.723 -0.951,1.727 -0.951,2.912 l 0,19.875 c 0,1.187 0.229,2.19 0.951,2.911 0.721,0.722 1.726,0.951 2.912,0.951 l 19.756,0 c 1.186,0 2.22,-0.229 2.941,-0.951 0.722,-0.72 0.921,-1.725 0.921,-2.911 l 0,-0.951 0,-18.924 c 0,-1.185 -0.2,-2.189 -0.921,-2.912 -0.721,-0.72 -1.754,-0.95 -2.941,-0.95 l -19.756,0 0,0 z m 0,1.901 19.756,0 c 0.959,0 1.376,0.188 1.575,0.386 0.199,0.2 0.386,0.617 0.386,1.575 l 0,19.875 c 0,0.96 -0.158,1.376 -0.357,1.574 -0.199,0.199 -0.645,0.387 -1.604,0.387 l -19.756,0 c -0.959,0 -1.375,-0.188 -1.575,-0.387 -0.199,-0.198 -0.386,-0.615 -0.386,-1.574 l 0,-19.875 c 0,-0.959 0.188,-1.375 0.386,-1.575 0.2,-0.198 0.616,-0.386 1.575,-0.386 z"
         id="path107"
         inkscape:connector-curvature="0"
         style="fill:#f4f4f4" /><path
         d="m 144.747,215.038 c -1.186,0 -2.22,0.23 -2.941,0.95 -0.721,0.723 -0.921,1.727 -0.921,2.912 l 0,19.875 c 0,1.187 0.2,2.19 0.921,2.911 0.722,0.722 1.755,0.951 2.941,0.951 l 19.756,0 c 1.186,0 2.19,-0.229 2.912,-0.951 0.721,-0.72 0.951,-1.725 0.951,-2.911 l 0,-19.875 c 0,-1.185 -0.23,-2.189 -0.951,-2.912 -0.721,-0.72 -1.726,-0.95 -2.912,-0.95 l -19.756,0 z m 0,1.901 19.756,0 c 0.959,0 1.375,0.188 1.575,0.386 0.199,0.2 0.386,0.617 0.386,1.575 l 0,19.875 c 0,0.96 -0.188,1.376 -0.386,1.574 -0.199,0.199 -0.616,0.387 -1.575,0.387 l -19.756,0 c -0.959,0 -1.406,-0.188 -1.604,-0.387 -0.199,-0.198 -0.356,-0.615 -0.356,-1.574 l 0,-19.875 c 0,-0.959 0.158,-1.375 0.356,-1.575 0.198,-0.198 0.645,-0.386 1.604,-0.386 z"
         id="path109"
         inkscape:connector-curvature="0"
         style="fill:#f4f4f4" /><path
         d="m 174.151,215.038 c -1.186,0 -2.19,0.23 -2.911,0.95 -0.722,0.723 -0.951,1.727 -0.951,2.912 l 0,19.875 c 0,1.187 0.229,2.19 0.951,2.911 0.721,0.722 1.725,0.951 2.911,0.951 l 19.756,0 c 1.186,0 2.22,-0.229 2.941,-0.951 0.721,-0.72 0.92,-1.725 0.92,-2.911 l 0,-19.875 c 0,-1.185 -0.199,-2.189 -0.92,-2.912 -0.721,-0.72 -1.755,-0.95 -2.941,-0.95 l -19.756,0 z m 0,1.901 19.756,0 c 0.959,0 1.375,0.188 1.574,0.386 0.199,0.2 0.386,0.617 0.386,1.575 l 0,19.875 c 0,0.96 -0.187,1.376 -0.386,1.574 -0.199,0.199 -0.615,0.387 -1.574,0.387 l -19.756,0 c -0.959,0 -1.375,-0.188 -1.575,-0.387 -0.199,-0.198 -0.386,-0.615 -0.386,-1.574 l 0,-19.875 c 0,-0.959 0.187,-1.375 0.386,-1.575 0.199,-0.198 0.616,-0.386 1.575,-0.386 z"
         id="path111"
         inkscape:connector-curvature="0"
         style="fill:#f4f4f4" /><path
         d="m 203.593,215.038 c -1.186,0 -2.22,0.23 -2.941,0.95 -0.721,0.723 -0.921,1.727 -0.921,2.912 l 0,19.875 c 0,1.187 0.2,2.19 0.921,2.911 0.721,0.722 1.755,0.951 2.941,0.951 l 19.727,0 c 1.186,0 2.22,-0.229 2.941,-0.951 0.721,-0.721 0.921,-1.725 0.921,-2.911 l 0,-19.875 c 0,-1.185 -0.2,-2.189 -0.921,-2.912 -0.722,-0.72 -1.755,-0.95 -2.941,-0.95 l -19.727,0 z m 0,1.901 19.727,0 c 0.959,0 1.405,0.188 1.604,0.386 0.199,0.2 0.356,0.617 0.356,1.575 l 0,19.875 c 0,0.96 -0.158,1.376 -0.356,1.574 -0.199,0.199 -0.645,0.387 -1.604,0.387 l -19.727,0 c -0.959,0 -1.405,-0.188 -1.604,-0.387 -0.199,-0.198 -0.356,-0.615 -0.356,-1.574 l 0,-19.875 c 0,-0.959 0.158,-1.375 0.356,-1.575 0.199,-0.198 0.646,-0.386 1.604,-0.386 z"
         id="path113"
         inkscape:connector-curvature="0"
         style="fill:#f4f4f4" /><path
         d="m 233.007,215.038 c -1.186,0 -2.19,0.23 -2.912,0.95 -0.721,0.723 -0.951,1.727 -0.951,2.912 l 0,19.875 c 0,1.187 0.229,2.19 0.951,2.911 0.722,0.722 1.726,0.951 2.912,0.951 l 19.755,0 c 1.187,0 2.22,-0.229 2.942,-0.951 0.721,-0.721 0.921,-1.725 0.921,-2.911 l 0,-19.875 c 0,-1.185 -0.2,-2.189 -0.921,-2.912 -0.722,-0.72 -1.755,-0.95 -2.941,-0.95 l -19.756,0 z m 0,1.901 19.755,0 c 0.959,0 1.376,0.188 1.575,0.386 0.199,0.2 0.386,0.617 0.386,1.575 l 0,19.875 c 0,0.96 -0.188,1.376 -0.386,1.574 -0.199,0.199 -0.615,0.387 -1.575,0.387 l -19.755,0 c -0.959,0 -1.376,-0.188 -1.575,-0.387 -0.199,-0.198 -0.386,-0.615 -0.386,-1.574 l 0,-19.875 c 0,-0.959 0.187,-1.375 0.386,-1.575 0.199,-0.198 0.616,-0.386 1.575,-0.386 z"
         id="path115"
         inkscape:connector-curvature="0"
         style="fill:#f4f4f4" /><path
         d="m 262.449,215.038 c -1.186,0 -2.22,0.23 -2.941,0.95 -0.722,0.723 -0.921,1.727 -0.921,2.912 l 0,19.875 c 0,1.187 0.2,2.19 0.921,2.911 0.721,0.722 1.755,0.951 2.941,0.951 l 19.727,0 c 1.186,0 2.22,-0.229 2.941,-0.951 0.722,-0.72 0.921,-1.725 0.921,-2.911 l 0,-19.875 c 0,-1.185 -0.2,-2.189 -0.921,-2.912 -0.721,-0.72 -1.755,-0.95 -2.941,-0.95 l -19.727,0 z m 0,1.901 19.727,0 c 0.959,0 1.405,0.188 1.604,0.386 0.199,0.2 0.356,0.617 0.356,1.575 l 0,19.875 c 0,0.96 -0.158,1.376 -0.356,1.574 -0.199,0.199 -0.645,0.387 -1.604,0.387 l -19.727,0 c -0.959,0 -1.405,-0.188 -1.604,-0.387 -0.199,-0.198 -0.356,-0.615 -0.356,-1.574 l 0,-19.875 c 0,-0.959 0.158,-1.375 0.356,-1.575 0.199,-0.198 0.645,-0.386 1.604,-0.386 z"
         id="path117"
         inkscape:connector-curvature="0"
         style="fill:#f4f4f4" /><path
         d="m 291.854,215.038 c -1.186,0 -2.22,0.23 -2.94,0.95 -0.722,0.723 -0.921,1.727 -0.921,2.912 l 0,19.875 c 0,1.187 0.2,2.19 0.921,2.911 0.721,0.722 1.755,0.951 2.94,0.951 l 19.757,0 c 1.185,0 2.189,-0.229 2.911,-0.951 0.721,-0.72 0.951,-1.725 0.951,-2.911 l 0,-19.875 c 0,-1.185 -0.201,-2.189 -0.921,-2.912 -0.723,-0.72 -1.755,-0.95 -2.941,-0.95 l -19.757,0 0,0 z m 0,1.901 19.757,0 c 0.958,0 1.376,0.188 1.574,0.386 0.199,0.2 0.387,0.617 0.387,1.575 l 0,19.875 c 0,0.96 -0.188,1.376 -0.387,1.574 -0.198,0.199 -0.616,0.387 -1.574,0.387 l -19.757,0 c -0.958,0 -1.375,-0.188 -1.574,-0.387 -0.199,-0.198 -0.387,-0.615 -0.387,-1.574 l 0,-19.875 c 0,-0.959 0.188,-1.375 0.387,-1.575 0.199,-0.198 0.615,-0.386 1.574,-0.386 z"
         id="path119"
         inkscape:connector-curvature="0"
         style="fill:#f4f4f4" /><path
         d="m 321.296,215.038 c -1.186,0 -2.22,0.23 -2.941,0.95 -0.721,0.723 -0.921,1.727 -0.921,2.912 l 0,19.875 c 0,1.187 0.2,2.19 0.921,2.911 0.722,0.722 1.756,0.951 2.941,0.951 l 19.727,0 c 1.187,0 2.221,-0.229 2.941,-0.951 0.722,-0.72 0.921,-1.725 0.921,-2.911 l 0,-19.875 c 0,-1.185 -0.199,-2.189 -0.921,-2.912 -0.721,-0.72 -1.755,-0.95 -2.941,-0.95 l -19.727,0 z m 0,1.901 19.727,0 c 0.96,0 1.405,0.188 1.604,0.386 0.199,0.2 0.357,0.617 0.357,1.575 l 0,19.875 c 0,0.96 -0.158,1.376 -0.357,1.574 -0.198,0.199 -0.644,0.387 -1.604,0.387 l -19.727,0 c -0.959,0 -1.404,-0.188 -1.604,-0.387 -0.199,-0.198 -0.356,-0.615 -0.356,-1.574 l 0,-19.875 c 0,-0.959 0.157,-1.375 0.356,-1.575 0.2,-0.198 0.645,-0.386 1.604,-0.386 z"
         id="path121"
         inkscape:connector-curvature="0"
         style="fill:#f4f4f4" /><path
         d="m 350.711,215.038 c -1.187,0 -2.221,0.23 -2.941,0.95 -0.722,0.723 -0.921,1.727 -0.921,2.912 l 0,19.875 c 0,1.187 0.199,2.19 0.921,2.911 0.721,0.722 1.755,0.951 2.941,0.951 l 19.755,0 c 1.187,0 2.191,-0.229 2.911,-0.951 0.723,-0.72 0.951,-1.725 0.951,-2.911 l 0,-19.875 c 0,-1.185 -0.229,-2.189 -0.951,-2.912 -0.72,-0.72 -1.725,-0.95 -2.911,-0.95 l -19.755,0 z m 0,1.901 19.755,0 c 0.96,0 1.376,0.188 1.574,0.386 0.199,0.2 0.387,0.617 0.387,1.575 l 0,19.875 c 0,0.96 -0.188,1.376 -0.387,1.574 -0.198,0.199 -0.614,0.387 -1.574,0.387 l -19.755,0 c -0.96,0 -1.376,-0.188 -1.574,-0.387 -0.201,-0.198 -0.387,-0.615 -0.387,-1.574 l 0,-19.875 c 0,-0.959 0.186,-1.375 0.387,-1.575 0.198,-0.198 0.614,-0.386 1.574,-0.386 z"
         id="path123"
         inkscape:connector-curvature="0"
         style="fill:#f4f4f4" /><path
         d="m 380.125,215.038 c -1.187,0 -2.191,0.23 -2.912,0.95 -0.722,0.723 -0.95,1.727 -0.95,2.912 l 0,19.875 c 0,1.187 0.229,2.19 0.95,2.911 0.721,0.722 1.726,0.951 2.912,0.951 l 19.755,0 c 1.186,0 2.221,-0.229 2.94,-0.951 0.723,-0.72 0.921,-1.725 0.921,-2.911 l 0,-19.875 c 0,-1.185 -0.198,-2.189 -0.921,-2.912 -0.72,-0.72 -1.755,-0.95 -2.94,-0.95 l -19.755,0 z m 0,1.901 19.755,0 c 0.959,0 1.405,0.188 1.604,0.386 0.199,0.2 0.356,0.617 0.356,1.575 l 0,19.875 c 0,0.96 -0.157,1.376 -0.356,1.574 -0.198,0.199 -0.645,0.387 -1.604,0.387 l -19.755,0 c -0.96,0 -1.376,-0.188 -1.575,-0.387 -0.198,-0.198 -0.386,-0.615 -0.386,-1.574 l 0,-19.875 c 0,-0.959 0.188,-1.375 0.386,-1.575 0.199,-0.198 0.615,-0.386 1.575,-0.386 z"
         id="path125"
         inkscape:connector-curvature="0"
         style="fill:#f4f4f4" /><path
         d="m 409.442,215.038 c -1.186,0 -2.22,0.23 -2.941,0.95 -0.721,0.723 -0.951,1.726 -0.951,2.912 l 0,19.875 c 0,1.187 0.23,2.19 0.951,2.911 0.722,0.722 1.756,0.951 2.941,0.951 l 59.536,0 c 1.187,0 2.221,-0.229 2.941,-0.951 0.723,-0.72 0.921,-1.725 0.921,-2.911 l 0,-19.875 c 0,-1.185 -0.2,-2.189 -0.921,-2.912 -0.721,-0.72 -1.755,-0.95 -2.941,-0.95 l -59.536,0 z m 0,1.901 59.536,0 c 0.96,0 1.406,0.188 1.604,0.386 0.199,0.2 0.356,0.617 0.356,1.575 l 0,19.875 c 0,0.96 -0.157,1.376 -0.356,1.574 -0.198,0.199 -0.645,0.387 -1.604,0.387 l -59.536,0 c -0.959,0 -1.404,-0.188 -1.604,-0.387 -0.199,-0.198 -0.387,-0.615 -0.387,-1.574 l 0,-19.875 c 0,-0.958 0.188,-1.375 0.387,-1.575 0.2,-0.198 0.645,-0.386 1.604,-0.386 z"
         id="path127"
         inkscape:connector-curvature="0"
         style="fill:#f4f4f4" /><path
         d="m 380.125,243.321 c -1.187,0 -2.191,0.2 -2.912,0.921 -0.722,0.721 -0.95,1.754 -0.95,2.94 l 0,19.846 c 0,1.186 0.229,2.22 0.95,2.941 0.721,0.722 1.726,0.921 2.912,0.921 l 19.755,0 c 1.186,0 2.221,-0.199 2.94,-0.921 0.723,-0.722 0.921,-1.755 0.921,-2.941 l 0,-19.846 c 0,-1.186 -0.198,-2.219 -0.921,-2.94 -0.72,-0.721 -1.755,-0.921 -2.94,-0.921 l -19.755,0 z m 0,1.902 19.755,0 c 0.959,0 1.405,0.188 1.604,0.386 0.199,0.198 0.356,0.616 0.356,1.574 l 0,19.846 c 0,0.96 -0.157,1.406 -0.356,1.604 -0.198,0.199 -0.645,0.356 -1.604,0.356 l -19.755,0 c -0.96,0 -1.376,-0.157 -1.575,-0.356 -0.198,-0.198 -0.386,-0.646 -0.386,-1.604 l 0,-19.846 c 0,-0.959 0.188,-1.376 0.386,-1.574 0.199,-0.199 0.615,-0.386 1.575,-0.386 z"
         id="path129"
         inkscape:connector-curvature="0"
         style="fill:#f4f4f4" /><path
         d="m 113.099,243.321 c -1.186,0 -2.22,0.2 -2.941,0.921 -0.721,0.721 -0.921,1.754 -0.921,2.94 l 0,19.846 c 0,1.187 0.2,2.22 0.921,2.941 0.721,0.721 1.755,0.921 2.941,0.921 l 258.288,0 c 1.187,0 2.221,-0.199 2.941,-0.921 0.722,-0.722 0.921,-1.755 0.921,-2.941 l 0,-19.846 c 0,-1.186 -0.199,-2.219 -0.921,-2.94 -0.721,-0.721 -1.755,-0.921 -2.941,-0.921 l -258.288,0 z m 0,1.902 258.288,0 c 0.96,0 1.405,0.188 1.604,0.386 0.198,0.198 0.356,0.616 0.356,1.574 l 0,19.846 c 0,0.96 -0.158,1.406 -0.356,1.604 -0.199,0.199 -0.645,0.356 -1.604,0.356 l -258.288,0 c -0.959,0 -1.375,-0.157 -1.575,-0.356 -0.199,-0.198 -0.386,-0.646 -0.386,-1.604 l 0,-19.846 c 0,-0.959 0.188,-1.376 0.386,-1.574 0.199,-0.199 0.616,-0.386 1.575,-0.386 z"
         id="path131"
         inkscape:connector-curvature="0"
         style="fill:#f4f4f4" /><path
         d="m 19.936,128.084 c -1.186,0 -2.22,0.229 -2.941,0.951 -0.721,0.721 -0.921,1.726 -0.921,2.911 l 0,19.875 c 0,1.186 0.2,2.191 0.921,2.912 0.721,0.721 1.755,0.951 2.941,0.951 l 19.756,0 c 1.187,0 2.22,-0.229 2.941,-0.951 0.722,-0.722 0.921,-1.725 0.921,-2.912 l 0,-19.875 c 0,-1.186 -0.2,-2.19 -0.921,-2.911 -0.721,-0.722 -1.754,-0.951 -2.941,-0.951 l -19.756,0 z m 0,1.901 19.756,0 c 0.959,0 1.376,0.188 1.575,0.386 0.199,0.199 0.386,0.616 0.386,1.575 l 0,19.875 c 0,0.959 -0.188,1.376 -0.386,1.575 -0.199,0.2 -0.615,0.387 -1.574,0.387 l -19.756,0 c -0.959,0 -1.376,-0.188 -1.575,-0.386 -0.199,-0.2 -0.386,-0.616 -0.386,-1.576 l 0,-19.875 c 0,-0.958 0.188,-1.375 0.386,-1.574 0.199,-0.199 0.616,-0.386 1.574,-0.387 l 0,0 z"
         id="path133"
         inkscape:connector-curvature="0"
         style="fill:#f4f4f4" /><path
         d="m 508.256,185.663 c -1.185,0 -2.221,0.199 -2.941,0.921 -0.72,0.721 -0.921,1.755 -0.921,2.941 l 0,19.846 c 0,1.185 0.201,2.219 0.921,2.941 0.721,0.72 1.755,0.921 2.941,0.921 l 19.757,0 c 1.185,0 2.188,-0.201 2.911,-0.921 0.721,-0.723 0.95,-1.756 0.95,-2.941 l 0,-19.846 c 0,-1.186 -0.229,-2.221 -0.95,-2.941 -0.723,-0.722 -1.725,-0.921 -2.911,-0.921 l -19.757,0 z m 0,1.901 19.757,0 c 0.958,0 1.376,0.157 1.574,0.356 0.199,0.199 0.387,0.646 0.387,1.604 l 0,19.845 c 0,0.959 -0.188,1.405 -0.387,1.604 -0.198,0.199 -0.616,0.356 -1.574,0.356 l -19.757,0 c -0.958,0 -1.376,-0.157 -1.574,-0.356 -0.199,-0.199 -0.387,-0.646 -0.387,-1.604 l 0,-19.845 c 0,-0.96 0.188,-1.405 0.387,-1.604 0.198,-0.198 0.616,-0.356 1.574,-0.356 z"
         id="path135"
         inkscape:connector-curvature="0"
         style="fill:#f4f4f4" /><path
         d="m 508.256,214.952 c -1.185,0 -2.221,0.201 -2.941,0.921 -0.72,0.723 -0.921,1.755 -0.921,2.941 l 0,19.846 c 0,1.187 0.201,2.221 0.921,2.941 0.721,0.722 1.755,0.921 2.941,0.921 l 19.757,0 c 1.185,0 2.188,-0.199 2.911,-0.921 0.721,-0.721 0.95,-1.755 0.95,-2.941 l 0,-19.846 c 0,-1.185 -0.229,-2.219 -0.95,-2.941 -0.723,-0.72 -1.725,-0.921 -2.911,-0.921 l -19.757,0 z m 0,1.902 19.757,0 c 0.958,0 1.376,0.158 1.574,0.356 0.199,0.199 0.387,0.646 0.387,1.604 l 0,19.846 c 0,0.96 -0.188,1.405 -0.387,1.604 -0.198,0.198 -0.616,0.356 -1.574,0.356 l -19.757,0 c -0.958,0 -1.376,-0.158 -1.574,-0.356 -0.199,-0.199 -0.387,-0.646 -0.387,-1.604 l 0,-19.846 c 0,-0.959 0.188,-1.405 0.387,-1.604 0.198,-0.198 0.616,-0.356 1.574,-0.356 z"
         id="path137"
         inkscape:connector-curvature="0"
         style="fill:#f4f4f4" /><path
         d="m 508.256,244.244 c -1.185,0 -2.221,0.198 -2.941,0.921 -0.72,0.72 -0.921,1.754 -0.921,2.94 l 0,19.846 c 0,1.185 0.201,2.219 0.921,2.941 0.721,0.721 1.755,0.921 2.941,0.921 l 19.757,0 c 1.185,0 2.188,-0.2 2.911,-0.921 0.721,-0.723 0.95,-1.756 0.95,-2.941 l 0,-19.846 c 0,-1.187 -0.229,-2.221 -0.95,-2.94 -0.723,-0.723 -1.725,-0.921 -2.911,-0.921 l -19.757,0 z m 0,1.902 19.757,0 c 0.958,0 1.376,0.157 1.574,0.356 0.199,0.198 0.387,0.644 0.387,1.604 l 0,19.846 c 0,0.958 -0.188,1.405 -0.387,1.604 -0.198,0.2 -0.616,0.356 -1.574,0.356 l -19.757,0 c -0.958,0 -1.376,-0.156 -1.574,-0.356 -0.199,-0.198 -0.387,-0.646 -0.387,-1.604 l 0,-19.846 c 0,-0.96 0.188,-1.405 0.387,-1.604 0.198,-0.199 0.616,-0.356 1.574,-0.356 z"
         id="path139"
         inkscape:connector-curvature="0"
         style="fill:#f4f4f4" /><path
         d="m 537.642,156.366 c -1.187,0 -2.221,0.201 -2.941,0.921 -0.722,0.722 -0.921,1.756 -0.921,2.941 l 0,19.846 c 0,1.186 0.199,2.221 0.921,2.941 0.721,0.721 1.755,0.921 2.941,0.921 l 19.727,0 c 1.186,0 2.219,-0.201 2.941,-0.921 0.721,-0.721 0.921,-1.755 0.921,-2.941 l 0,-19.846 c 0,-1.185 -0.2,-2.219 -0.921,-2.941 -0.723,-0.72 -1.755,-0.921 -2.941,-0.921 l -19.727,0 z m 0,1.902 19.727,0 c 0.959,0 1.406,0.158 1.604,0.356 0.199,0.199 0.356,0.646 0.356,1.604 l 0,19.846 c 0,0.959 -0.157,1.405 -0.356,1.604 -0.2,0.198 -0.646,0.356 -1.604,0.356 l -19.727,0 c -0.96,0 -1.405,-0.158 -1.604,-0.356 -0.198,-0.199 -0.356,-0.646 -0.356,-1.604 l 0,-19.846 c 0,-0.958 0.158,-1.406 0.356,-1.604 0.198,-0.198 0.646,-0.356 1.604,-0.356 z"
         id="path141"
         inkscape:connector-curvature="0"
         style="fill:#f4f4f4" /><path
         d="m 537.728,185.663 c -1.187,0 -2.221,0.199 -2.941,0.921 -0.723,0.721 -0.921,1.755 -0.921,2.941 l 0,19.846 c 0,1.185 0.198,2.219 0.921,2.941 0.721,0.72 1.755,0.921 2.941,0.921 l 19.727,0 c 1.185,0 2.219,-0.201 2.941,-0.921 0.72,-0.723 0.921,-1.756 0.921,-2.941 l 0,-19.846 c 0,-1.186 -0.201,-2.221 -0.921,-2.941 -0.723,-0.722 -1.755,-0.921 -2.941,-0.921 l -19.727,0 z m 0,1.901 19.727,0 c 0.958,0 1.405,0.157 1.604,0.356 0.198,0.199 0.356,0.646 0.356,1.604 l 0,19.845 c 0,0.959 -0.158,1.405 -0.356,1.604 -0.199,0.199 -0.646,0.356 -1.604,0.356 l -19.727,0 c -0.96,0 -1.406,-0.157 -1.604,-0.356 -0.199,-0.199 -0.356,-0.646 -0.356,-1.604 l 0,-19.845 c 0,-0.96 0.157,-1.405 0.356,-1.604 0.197,-0.198 0.644,-0.356 1.604,-0.356 z"
         id="path143"
         inkscape:connector-curvature="0"
         style="fill:#f4f4f4" /><path
         d="m 537.728,214.952 c -1.187,0 -2.221,0.201 -2.941,0.921 -0.723,0.723 -0.921,1.755 -0.921,2.941 l 0,19.846 c 0,1.187 0.198,2.221 0.921,2.941 0.721,0.722 1.755,0.921 2.941,0.921 l 19.727,0 c 1.185,0 2.219,-0.199 2.941,-0.921 0.72,-0.721 0.921,-1.755 0.921,-2.941 l 0,-19.846 c 0,-1.185 -0.201,-2.219 -0.921,-2.941 -0.723,-0.72 -1.755,-0.921 -2.941,-0.921 l -19.727,0 z m 0,1.902 19.727,0 c 0.958,0 1.405,0.158 1.604,0.356 0.198,0.199 0.356,0.646 0.356,1.604 l 0,19.846 c 0,0.96 -0.158,1.405 -0.356,1.604 -0.199,0.198 -0.646,0.356 -1.604,0.356 l -19.727,0 c -0.96,0 -1.406,-0.158 -1.604,-0.356 -0.199,-0.199 -0.356,-0.646 -0.356,-1.604 l 0,-19.846 c 0,-0.959 0.157,-1.405 0.356,-1.604 0.197,-0.198 0.644,-0.356 1.604,-0.356 z"
         id="path145"
         inkscape:connector-curvature="0"
         style="fill:#f4f4f4" /><path
         d="m 537.728,244.244 c -1.187,0 -2.221,0.198 -2.941,0.921 -0.723,0.72 -0.921,1.754 -0.921,2.94 l 0,19.846 c 0,1.185 0.198,2.219 0.921,2.941 0.721,0.721 1.755,0.921 2.941,0.921 l 19.727,0 c 1.185,0 2.219,-0.2 2.941,-0.921 0.72,-0.723 0.921,-1.756 0.921,-2.941 l 0,-19.846 c 0,-1.187 -0.201,-2.221 -0.921,-2.94 -0.723,-0.723 -1.755,-0.921 -2.941,-0.921 l -19.727,0 z m 0,1.902 19.727,0 c 0.958,0 1.405,0.157 1.604,0.356 0.198,0.198 0.356,0.644 0.356,1.604 l 0,19.846 c 0,0.958 -0.158,1.405 -0.356,1.604 -0.199,0.2 -0.646,0.356 -1.604,0.356 l -19.727,0 c -0.96,0 -1.406,-0.156 -1.604,-0.356 -0.199,-0.198 -0.356,-0.646 -0.356,-1.604 l 0,-19.846 c 0,-0.96 0.157,-1.405 0.356,-1.604 0.197,-0.199 0.644,-0.356 1.604,-0.356 z"
         id="path147"
         inkscape:connector-curvature="0"
         style="fill:#f4f4f4" /><path
         d="m 567.017,156.366 c -1.185,0 -2.219,0.201 -2.941,0.921 -0.721,0.722 -0.95,1.756 -0.95,2.941 l 0,19.846 c 0,1.186 0.229,2.221 0.95,2.941 0.723,0.721 1.755,0.921 2.941,0.921 l 19.727,0 c 1.187,0 2.221,-0.201 2.941,-0.921 0.723,-0.721 0.921,-1.755 0.921,-2.941 l 0,-19.846 c 0,-1.185 -0.198,-2.219 -0.921,-2.941 -0.721,-0.72 -1.755,-0.921 -2.941,-0.921 l -19.727,0 z m 0,1.902 19.727,0 c 0.96,0 1.406,0.158 1.604,0.356 0.198,0.199 0.356,0.646 0.356,1.604 l 0,19.846 c 0,0.959 -0.158,1.405 -0.356,1.604 -0.198,0.198 -0.645,0.356 -1.604,0.356 l -19.727,0 c -0.96,0 -1.405,-0.158 -1.604,-0.356 -0.198,-0.199 -0.386,-0.646 -0.386,-1.604 l 0,-19.846 c 0,-0.958 0.188,-1.406 0.386,-1.604 0.198,-0.198 0.646,-0.356 1.604,-0.356 z"
         id="path149"
         inkscape:connector-curvature="0"
         style="fill:#f4f4f4" /><path
         d="m 567.017,185.663 c -1.187,0 -2.219,0.199 -2.941,0.921 -0.721,0.721 -0.95,1.755 -0.95,2.941 l 0,19.846 c 0,1.185 0.229,2.219 0.95,2.941 0.723,0.72 1.755,0.921 2.941,0.921 l 19.727,0 c 1.187,0 2.221,-0.201 2.941,-0.921 0.723,-0.723 0.921,-1.756 0.921,-2.941 l 0,-19.846 c 0,-1.186 -0.198,-2.221 -0.921,-2.941 -0.721,-0.722 -1.755,-0.921 -2.941,-0.921 l -19.727,0 z m 0,1.901 19.727,0 c 0.96,0 1.406,0.157 1.604,0.356 0.198,0.199 0.356,0.646 0.356,1.604 l 0,19.845 c 0,0.959 -0.158,1.405 -0.356,1.604 -0.198,0.199 -0.645,0.356 -1.604,0.356 l -19.727,0 c -0.96,0 -1.405,-0.157 -1.604,-0.356 -0.198,-0.199 -0.386,-0.646 -0.386,-1.604 l 0,-19.845 c 0,-0.96 0.188,-1.405 0.386,-1.604 0.199,-0.198 0.646,-0.356 1.604,-0.356 z"
         id="path151"
         inkscape:connector-curvature="0"
         style="fill:#f4f4f4" /><path
         d="m 567.017,214.952 c -1.185,0 -2.219,0.201 -2.941,0.921 -0.721,0.723 -0.95,1.755 -0.95,2.941 l 0,19.846 c 0,1.187 0.229,2.221 0.95,2.941 0.723,0.722 1.755,0.921 2.941,0.921 l 19.727,0 c 1.187,0 2.221,-0.199 2.941,-0.921 0.723,-0.721 0.921,-1.755 0.921,-2.941 l 0,-19.846 c 0,-1.185 -0.198,-2.219 -0.921,-2.941 -0.721,-0.72 -1.755,-0.921 -2.941,-0.921 l -19.727,0 z m 0,1.902 19.727,0 c 0.96,0 1.406,0.158 1.604,0.356 0.198,0.199 0.356,0.646 0.356,1.604 l 0,19.846 c 0,0.96 -0.158,1.405 -0.356,1.604 -0.198,0.198 -0.645,0.356 -1.604,0.356 l -19.727,0 c -0.96,0 -1.405,-0.158 -1.604,-0.356 -0.198,-0.199 -0.386,-0.646 -0.386,-1.604 l 0,-19.846 c 0,-0.959 0.188,-1.405 0.386,-1.604 0.198,-0.198 0.646,-0.356 1.604,-0.356 z"
         id="path153"
         inkscape:connector-curvature="0"
         style="fill:#f4f4f4" /><path
         d="m 567.017,244.244 c -1.185,0 -2.219,0.198 -2.941,0.921 -0.721,0.72 -0.95,1.754 -0.95,2.94 l 0,19.846 c 0,1.185 0.229,2.219 0.95,2.941 0.723,0.721 1.755,0.921 2.941,0.921 l 19.727,0 c 1.187,0 2.221,-0.2 2.941,-0.921 0.723,-0.723 0.921,-1.756 0.921,-2.941 l 0,-19.846 c 0,-1.187 -0.198,-2.221 -0.921,-2.94 -0.721,-0.723 -1.755,-0.921 -2.941,-0.921 l -19.727,0 z m 0,1.902 19.727,0 c 0.96,0 1.406,0.157 1.604,0.356 0.198,0.198 0.356,0.644 0.356,1.604 l 0,19.846 c 0,0.958 -0.158,1.405 -0.356,1.604 -0.198,0.2 -0.645,0.356 -1.604,0.356 l -19.727,0 c -0.96,0 -1.405,-0.156 -1.604,-0.356 -0.198,-0.198 -0.386,-0.646 -0.386,-1.604 l 0,-19.846 c 0,-0.96 0.188,-1.405 0.386,-1.604 0.198,-0.199 0.646,-0.356 1.604,-0.356 z"
         id="path155"
         inkscape:connector-curvature="0"
         style="fill:#f4f4f4" /><path
         d="m 566.428,91.246 c -1.187,0 -2.221,0.2 -2.941,0.921 -0.722,0.721 -0.921,1.755 -0.921,2.941 l 0,19.845 c 0,1.186 0.199,2.22 0.921,2.941 0.721,0.722 1.755,0.921 2.941,0.921 l 19.727,0 c 1.185,0 2.22,-0.199 2.941,-0.921 0.721,-0.721 0.921,-1.754 0.921,-2.941 l 0,-19.845 c 0,-1.186 -0.2,-2.22 -0.921,-2.941 -0.722,-0.721 -1.755,-0.921 -2.941,-0.921 l -19.727,0 0,0 z m 0,1.901 19.727,0 c 0.958,0 1.406,0.187 1.604,0.386 0.199,0.199 0.356,0.616 0.356,1.575 l 0,19.845 c 0,0.959 -0.157,1.405 -0.356,1.604 -0.198,0.199 -0.646,0.356 -1.604,0.356 l -19.727,0 c -0.96,0 -1.405,-0.158 -1.604,-0.356 -0.198,-0.199 -0.356,-0.645 -0.356,-1.604 l 0,-19.845 c 0,-0.959 0.158,-1.376 0.356,-1.575 0.198,-0.199 0.644,-0.386 1.604,-0.386 z"
         id="path157"
         inkscape:connector-curvature="0"
         style="fill:#f4f4f4" /><path
         d="m 16.609,124.846 c -1.187,0 -2.22,0.229 -2.941,0.951 -0.722,0.721 -0.921,1.726 -0.921,2.911 l 0,112.446 c 0,1.187 0.2,2.19 0.921,2.911 0.721,0.722 1.755,0.951 2.941,0.951 l 89.958,0 c 0.469,0 0.653,0.083 0.624,0.059 -0.03,-0.023 0.059,0.008 0.059,0.595 l 0,24.807 c 0,1.187 0.2,2.22 0.921,2.941 0.722,0.721 1.755,0.921 2.941,0.921 l 292.921,0 c 1.187,0 2.221,-0.199 2.941,-0.921 0.722,-0.722 0.921,-1.756 0.921,-2.941 l 0,-24.538 c 0,-0.487 0.1,-0.648 0.208,-0.743 0.107,-0.096 0.338,-0.179 0.802,-0.179 l 63.429,0 c 1.187,0 2.191,-0.229 2.911,-0.95 0.721,-0.722 0.951,-1.726 0.951,-2.911 l 0,-112.447 c 0,-1.186 -0.23,-2.19 -0.951,-2.911 -0.72,-0.722 -1.725,-0.951 -2.911,-0.951 l -455.734,0 0.009,-10e-4 z m 0,1.902 455.734,0 c 0.959,0 1.377,0.187 1.575,0.386 0.198,0.199 0.386,0.616 0.386,1.574 l 0,112.446 c 0,0.959 -0.188,1.376 -0.386,1.574 -0.198,0.198 -0.614,0.386 -1.575,0.386 l -63.428,0 c -0.747,0 -1.473,0.146 -2.051,0.654 -0.575,0.509 -0.861,1.32 -0.861,2.169 l 0,24.538 c 0,0.959 -0.188,1.406 -0.386,1.604 -0.199,0.199 -0.615,0.356 -1.575,0.356 l -292.921,0 c -0.959,0 -1.405,-0.158 -1.604,-0.356 -0.198,-0.198 -0.356,-0.646 -0.356,-1.604 l 0,-24.807 c 0,-0.842 -0.192,-1.604 -0.772,-2.08 -0.58,-0.476 -1.229,-0.475 -1.812,-0.475 l -89.959,0 c -0.959,0 -1.406,-0.188 -1.604,-0.387 -0.198,-0.198 -0.356,-0.615 -0.356,-1.573 l 0,-112.446 c 0,-0.959 0.158,-1.375 0.356,-1.574 0.199,-0.199 0.645,-0.386 1.604,-0.386 l -0.009,0.001 z"
         id="path159"
         inkscape:connector-curvature="0"
         style="fill:#f4f4f4" /></g></g></svg>