<?xml version="1.0" encoding="UTF-8" standalone="no"?>
<!-- Generator: Adobe Illustrator 13.0.0, SVG Export Plug-In . SVG Version: 6.00 Build 14948)  -->

<svg
   xmlns:dc="http://purl.org/dc/elements/1.1/"
   xmlns:cc="http://creativecommons.org/ns#"
   xmlns:rdf="http://www.w3.org/1999/02/22-rdf-syntax-ns#"
   xmlns:svg="http://www.w3.org/2000/svg"
   xmlns="http://www.w3.org/2000/svg"
   xmlns:sodipodi="http://sodipodi.sourceforge.net/DTD/sodipodi-0.dtd"
   xmlns:inkscape="http://www.inkscape.org/namespaces/inkscape"
   version="1.1"
   id="Layer_2"
   x="0px"
   y="0px"
   width="550"
   height="550"
   viewBox="0 0 549.99995 549.99999"
   enable-background="new 0 0 598.189 350.26"
   xml:space="preserve"
   inkscape:version="0.91 r13725"
   sodipodi:docname="controller_gg.svg"><metadata
     id="metadata3083"><rdf:RDF><cc:Work
         rdf:about=""><dc:format>image/svg+xml</dc:format><dc:type
           rdf:resource="http://purl.org/dc/dcmitype/StillImage" /><dc:title></dc:title></cc:Work></rdf:RDF></metadata><defs
     id="defs3081" /><sodipodi:namedview
     pagecolor="#ffffff"
     bordercolor="#666666"
     borderopacity="1"
     objecttolerance="10"
     gridtolerance="10"
     guidetolerance="10"
     inkscape:pageopacity="0"
     inkscape:pageshadow="2"
     inkscape:window-width="1920"
     inkscape:window-height="1001"
     id="namedview3079"
     showgrid="false"
     inkscape:zoom="1.0799262"
     inkscape:cx="248.77122"
     inkscape:cy="298.43665"
     inkscape:window-x="-9"
     inkscape:window-y="-9"
     inkscape:window-maximized="1"
     inkscape:current-layer="g12192"
     showguides="true"
     inkscape:guide-bbox="true" /><g
     inkscape:groupmode="layer"
     id="layer2"
     inkscape:label="Screen_Rect"
     style="display:none"
     transform="translate(0,199.73999)"
     sodipodi:insensitive="true"><path
       style="fill:#0000ff;stroke:#000000;stroke-width:1px;stroke-linecap:butt;stroke-linejoin:miter;stroke-opacity:1"
       d="M 5.0135033,547.22203 136.4109,114.39023 653.54628,-189.09358 406.482,260.92121 Z"
       id="path3021"
       inkscape:connector-curvature="0"
       transform="translate(-2e-5,-199.73999)"
       sodipodi:nodetypes="ccccc" /><rect
       style="opacity:0.60100002;fill:#d8201f;fill-opacity:1;stroke:#ff8080;stroke-width:2.45114732;stroke-linecap:round;stroke-linejoin:round;stroke-miterlimit:4;stroke-dasharray:none;stroke-opacity:1"
       id="rect4230"
       width="444.2457"
       height="9.9567661"
       x="145.95099"
       y="-211.30678" /></g><g
     inkscape:groupmode="layer"
     id="layer1"
     inkscape:label="Controller_Vorlage"
     style="display:none"
     sodipodi:insensitive="true"><g
       id="g4929"
       transform="translate(-0.929149,0.5695451)"><g
         transform="translate(0,199.73999)"
         style="display:none"
         inkscape:label="Layer2"
         id="layer2-9"><path
           sodipodi:nodetypes="ccccc"
           transform="translate(-2e-5,-199.73999)"
           inkscape:connector-curvature="0"
           id="path3021-0"
           d="M 5.0135033,547.22203 136.4109,114.39023 653.54628,-189.09358 406.482,260.92121 Z"
           style="fill:#ffffff;stroke:#000000;stroke-width:1px;stroke-linecap:butt;stroke-linejoin:miter;stroke-opacity:1" /></g><g
         inkscape:label="Layer"
         id="layer1-2"><g
           transform="matrix(0.55322035,-0.3970343,-0.34863416,0.85569517,173.63773,166.52161)"
           id="g3100"><path
             style="fill:#f4f4f4"
             inkscape:connector-curvature="0"
             id="path3"
             d="m 148.05,114.447 c -23.656,0 -42.861,19.204 -42.861,42.861 l 0,37.414 c 0,23.658 19.205,42.86 42.861,42.86 l 38.694,0 c 23.656,0 42.861,-19.202 42.861,-42.86 l 0,-37.414 c 0,-23.657 -19.205,-42.861 -42.861,-42.861 l -38.694,0 z m 0,1.905 38.694,0 c 22.627,0 40.956,18.328 40.956,40.956 l 0,37.414 c 0,22.629 -18.329,40.956 -40.956,40.956 l -38.694,0 c -22.628,0 -40.956,-18.327 -40.956,-40.956 l 0,-37.414 c 0,-22.629 18.328,-40.956 40.956,-40.956 z" /><path
             style="fill:#f4f4f4"
             inkscape:connector-curvature="0"
             id="path5"
             d="m 167.395,123.168 c -3.23,0 -5.863,2.633 -5.863,5.864 l 0,13.037 c 0,3.23 2.632,5.863 5.863,5.863 3.23,0 5.863,-2.633 5.863,-5.863 l 0,-13.037 c 0,-3.23 -2.633,-5.864 -5.863,-5.864 z m 0,1.906 c 2.201,0 3.958,1.758 3.958,3.958 l 0,13.037 c 0,2.2 -1.758,3.958 -3.958,3.958 -2.202,0 -3.958,-1.758 -3.958,-3.958 l 0,-13.037 c -0.001,-2.2 1.757,-3.958 3.958,-3.958 z" /><path
             style="fill:#f4f4f4"
             inkscape:connector-curvature="0"
             id="path7"
             d="m 120.425,170.135 c -3.23,0 -5.864,2.633 -5.864,5.864 0,3.231 2.632,5.894 5.864,5.894 l 13.037,0 c 3.229,0 5.864,-2.662 5.864,-5.894 0,-3.229 -2.633,-5.864 -5.864,-5.864 l -13.037,0 z m 0,1.905 13.037,0 c 2.201,0 3.959,1.759 3.959,3.959 0,2.201 -1.759,3.988 -3.959,3.988 l -13.037,0 c -2.198,-0.01 -3.955,-1.791 -3.955,-3.99 0,-2.201 1.758,-3.959 3.958,-3.959 l -0.003,0.002 z" /><path
             style="fill:#f4f4f4"
             inkscape:connector-curvature="0"
             id="path9"
             d="m 167.395,204.071 c -3.23,0 -5.863,2.663 -5.863,5.894 l 0,13.038 c 0,3.229 2.632,5.863 5.863,5.863 3.23,0 5.863,-2.633 5.863,-5.863 l 0,-13.038 c 0,-3.23 -2.633,-5.894 -5.863,-5.894 z m 0,1.906 c 2.201,0 3.958,1.789 3.958,3.988 l 0,13.038 c 0,2.2 -1.757,3.958 -3.958,3.958 -2.202,0 -3.958,-1.759 -3.958,-3.958 l 0,-13.038 c -0.001,-2.2 1.757,-3.988 3.958,-3.988 z" /><path
             style="fill:#f4f4f4"
             inkscape:connector-curvature="0"
             id="path11"
             d="m 201.321,170.135 c -3.229,0 -5.863,2.633 -5.863,5.864 0,3.231 2.633,5.894 5.863,5.894 l 13.067,0 c 3.229,0 5.863,-2.662 5.863,-5.894 0,-3.229 -2.633,-5.864 -5.863,-5.864 l -13.067,0 z m 0,1.905 13.067,0 c 2.2,0 3.958,1.76 3.958,3.959 0,2.201 -1.758,3.988 -3.958,3.988 l -13.067,0 c -2.2,0 -3.958,-1.788 -3.958,-3.988 0,-2.2 1.759,-3.959 3.958,-3.959 z" /><path
             style="fill:#f4f4f4"
             inkscape:connector-curvature="0"
             id="polygon13"
             d="m 133.878,141.176 -1.31,1.31 8.155,12.025 0.655,0.952 0.804,-0.803 3.869,-3.87 0.804,-0.804 -0.953,-0.655 -12.024,-8.155 z" /><path
             style="fill:#f4f4f4"
             inkscape:connector-curvature="0"
             id="polygon15"
             d="m 141.383,196.566 -0.654,0.952 -8.156,12.024 1.31,1.31 12.025,-8.155 0.953,-0.654 -0.804,-0.804 -3.87,-3.869 -0.804,-0.804 z" /><path
             style="fill:#f4f4f4"
             inkscape:connector-curvature="0"
             id="polygon17"
             d="m 193.435,196.566 -0.804,0.804 -3.869,3.869 -0.833,0.804 0.953,0.654 12.025,8.155 1.339,-1.31 -8.156,-12.024 -0.655,-0.952 0,0 z" /><path
             style="fill:#f4f4f4"
             inkscape:connector-curvature="0"
             id="polygon19"
             d="m 200.912,141.176 -12.025,8.155 -0.953,0.655 0.833,0.804 3.87,3.87 0.804,0.803 0.655,-0.952 8.155,-12.025 -1.339,-1.31 z" /><path
             style="fill:#f4f4f4"
             inkscape:connector-curvature="0"
             id="path21"
             d="m 146.354,104.833 c -27.67,0 -50.123,22.453 -50.123,50.124 l 0,42.117 c 0,27.671 22.453,50.123 50.123,50.123 l 42.117,0 c 27.671,0 50.124,-22.452 50.124,-50.123 l 0,-42.117 c 0,-27.67 -22.452,-50.124 -50.124,-50.124 l -42.117,0 z m 0,1.906 42.117,0 c 26.644,0 48.219,21.577 48.219,48.218 l 0,42.117 c 0,26.644 -21.577,48.218 -48.219,48.218 l -42.117,0 c -26.642,0 -48.218,-21.574 -48.218,-48.218 l 0,-42.117 c 0,-26.642 21.577,-48.218 48.218,-48.218 z" /><path
             style="fill:#f4f4f4"
             inkscape:connector-curvature="0"
             id="polygon23"
             d="m 69.499,75.694 0,0.952 0,202.961 0,0.952 0.953,0 196.122,0 0.952,0 0,-0.952 0,-26.401 289.521,0 0.952,0 0,-0.952 0,-113.458 0,-0.953 -0.952,0 -289.522,0 0,-61.196 0,-0.952 -0.952,0 -196.122,0 -0.952,-10e-4 0,0 z m 1.904,1.905 194.217,0 0,61.196 0,0.953 0.953,0 0.714,0 288.807,0 0,111.552 -289.226,0 -0.297,0 -0.953,0 0,0.953 0,26.4 -194.217,0 0,-201.055 0.002,0.001 z" /><path
             style="fill:#f4f4f4"
             inkscape:connector-curvature="0"
             id="circle25"
             d="m 400.692,169.126 c -19.762,0 -35.777,16.046 -35.777,35.807 0,19.761 16.018,35.807 35.777,35.807 19.759,0 35.807,-16.046 35.807,-35.807 0,-19.761 -16.047,-35.807 -35.807,-35.807 l 0,0 z m 0,1.905 c 18.73,0 33.901,15.17 33.901,33.902 0,18.732 -15.171,33.902 -33.901,33.902 -18.731,0 -33.872,-15.171 -33.872,-33.902 0,-18.731 15.141,-33.902 33.872,-33.902 l 0,0 z" /><path
             style="fill:#f4f4f4"
             inkscape:connector-curvature="0"
             id="circle27"
             d="m 400.692,177.669 c -15.039,0 -27.234,12.227 -27.234,27.265 0,15.038 12.195,27.234 27.234,27.234 15.036,0 27.264,-12.196 27.264,-27.234 0,-15.038 -12.227,-27.265 -27.264,-27.265 z m 0,1.905 c 14.008,0 25.359,11.351 25.359,25.359 0,14.008 -11.352,25.33 -25.359,25.33 -14.01,0 -25.33,-11.321 -25.33,-25.33 0,-14.009 11.321,-25.359 25.33,-25.359 z" /><path
             style="fill:#f4f4f4"
             inkscape:connector-curvature="0"
             id="circle29"
             d="m 489.919,169.126 c -19.762,0 -35.807,16.046 -35.807,35.807 0,19.761 16.045,35.807 35.807,35.807 19.76,0 35.807,-16.046 35.807,-35.807 0,-19.761 -16.047,-35.807 -35.807,-35.807 l 0,0 z m 0,1.905 c 18.73,0 33.901,15.17 33.901,33.902 0,18.732 -15.171,33.902 -33.901,33.902 -18.731,0 -33.902,-15.171 -33.902,-33.902 0,-18.731 15.171,-33.902 33.902,-33.902 l 0,0 z" /><path
             style="fill:#f4f4f4"
             inkscape:connector-curvature="0"
             id="circle31"
             d="m 489.919,177.669 c -15.039,0 -27.234,12.227 -27.234,27.265 0,15.038 12.195,27.234 27.234,27.234 15.036,0 27.234,-12.196 27.234,-27.234 0,-15.038 -12.196,-27.265 -27.234,-27.265 z m 0,1.905 c 14.008,0 25.329,11.351 25.329,25.359 0,14.008 -11.321,25.33 -25.329,25.33 -14.01,0 -25.33,-11.321 -25.33,-25.33 0,-14.009 11.32,-25.359 25.33,-25.359 z" /><path
             style="fill:#f4f4f4"
             inkscape:connector-curvature="0"
             id="path33"
             d="m 39.406,68.432 c -4.766,0 -8.662,3.896 -8.662,8.662 l 0,203.084 c 0,4.766 3.897,8.661 8.662,8.661 l 518.646,0 c 4.429,0 7.956,-3.411 8.453,-7.709 l 0.179,0 0,-0.952 0,-203.085 c 0,-4.762 -3.868,-8.658 -8.64,-8.658 l -518.645,0 0.007,-0.003 z m 0,1.904 518.646,0 c 3.737,0 6.727,3.021 6.727,6.757 l 0,202.131 0,0.953 c 0,3.736 -2.989,6.756 -6.727,6.756 l -518.646,0 c -3.732,0.01 -6.753,-3.019 -6.753,-6.753 l 0,-203.083 c 0,-3.736 3.02,-6.756 6.756,-6.756 l -0.003,-0.005 z" /><path
             style="fill:#f4f4f4"
             inkscape:connector-curvature="0"
             id="rect35"
             d="m 359.021,163.559 0,0.953 0,81.465 0,0.952 0.953,0 81.465,0 0.953,0 0,-0.952 0,-81.465 0,-0.953 -0.953,0 -81.465,0 -0.953,0 z m 1.906,1.905 79.561,0 0,79.56 -79.561,0 0,-79.56 z" /><path
             style="fill:#f4f4f4"
             inkscape:connector-curvature="0"
             id="rect37"
             d="m 448.248,163.559 0,0.953 0,81.465 0,0.952 0.953,0 81.436,0 0.952,0 0,-0.952 0,-81.465 0,-0.953 -0.952,0 -81.436,0 -0.953,0 z m 1.905,1.905 79.531,0 0,79.56 -79.531,0 0,-79.56 z" /><path
             style="fill:#f4f4f4"
             inkscape:connector-curvature="0"
             id="polyline39"
             d="m 83.934,94.177 0,2.292 0,159.061 0,2.322 1.607,-1.638 25.33,-25.299 -1.369,-1.369 -23.663,23.692 0,-154.45 23.663,23.658 1.369,-1.34 -25.33,-25.299 -1.607,-1.637 0,0.007 z" /><path
             style="fill:#f4f4f4"
             inkscape:connector-curvature="0"
             id="polyline41"
             d="m 222.305,232.551 -1.37,1.339 23.693,23.692 -154.452,0 23.574,-23.573 -1.369,-1.339 -25.181,25.182 -1.637,1.637 2.292,0 159.062,0 2.292,0 -1.607,-1.637 -25.299,-25.3 0.002,-0.001 z" /><path
             style="fill:#f4f4f4"
             inkscape:connector-curvature="0"
             id="polyline43"
             d="m 250.878,94.177 -1.637,1.637 -25.211,25.182 1.369,1.369 23.574,-23.603 0,154.509 -23.633,-23.663 -1.339,1.34 25.24,25.27 1.637,1.638 0,-2.322 0,-159.063 0,-2.292 0,-0.002 z" /><path
             style="fill:#f4f4f4"
             inkscape:connector-curvature="0"
             id="polyline45"
             d="m 85.57,92.54 1.638,1.608 25.21,25.24 1.339,-1.34 -23.572,-23.602 154.452,0 -23.669,23.662 1.333,1.339 25.307,-25.3 1.607,-1.607 -2.292,0 -159.062,0 -2.291,0 0,0 z" /><path
             style="fill:#f4f4f4"
             inkscape:connector-curvature="0"
             id="line47"
             d="m 58.961,69.533 0,218.057 1.905,0 0,-218.057 -1.905,0 z" /><path
             style="fill:#f4f4f4"
             inkscape:connector-curvature="0"
             id="rect49"
             d="m 359.021,145.819 0,0.953 0,13.244 0,0.953 0.953,0 81.465,0 0.953,0 0,-0.953 0,-13.244 0,-0.953 -0.953,0 -81.465,0 -0.953,0 z m 1.906,1.905 79.561,0 0,11.339 -79.561,0 0,-11.339 z" /><path
             style="fill:#f4f4f4"
             inkscape:connector-curvature="0"
             id="rect51"
             d="m 448.248,145.819 0,0.953 0,13.244 0,0.953 0.953,0 81.436,0 0.952,0 0,-0.953 0,-13.244 0,-0.953 -0.952,0 -81.436,0 -0.953,0 z m 1.905,1.905 79.531,0 0,11.339 -79.531,0 0,-11.339 z" /><path
             style="fill:#f4f4f4"
             inkscape:connector-curvature="0"
             id="path53"
             d="m 276.804,73.134 c -0.987,0 -1.815,0.828 -1.815,1.816 l 0,53.01 c 0,0.988 0.829,1.815 1.815,1.815 l 282.855,0 c 0.985,0 1.785,-0.831 1.785,-1.815 l 0,-50.033 c 0,-2.641 -2.152,-4.792 -4.792,-4.792 l -279.844,0 -0.004,0 z m 0.09,1.906 279.756,0 c 1.613,0 2.888,1.275 2.888,2.887 l 0,49.945 -282.643,0 0,-52.832 -10e-4,0 z" /><path
             style="fill:#f4f4f4"
             inkscape:connector-curvature="0"
             id="path55"
             d="m 276.804,260.41 c -0.987,0 -1.815,0.829 -1.815,1.815 l 0,20.091 c 0,0.987 0.829,1.816 1.815,1.816 l 279.844,0 c 2.64,0 4.792,-2.183 4.792,-4.822 l 0,-17.085 c 0,-0.985 -0.8,-1.815 -1.785,-1.815 l -282.855,0 0.004,0 z m 0.09,1.905 282.645,0 0,16.995 c 0,1.611 -1.276,2.917 -2.888,2.917 l -279.758,0 0.001,-19.912 0,0 z" /><path
             style="fill:#f4f4f4"
             inkscape:connector-curvature="0"
             id="line57"
             d="m 274.461,129.271 -6.28,6.28 1.369,1.339 6.251,-6.25 -1.34,-1.369 z" /><path
             style="fill:#f4f4f4"
             inkscape:connector-curvature="0"
             id="line59"
             d="m 269.546,253.866 -1.369,1.34 6.281,6.28 1.339,-1.369 -6.251,-6.251 z" /></g></g></g></g><g
     inkscape:groupmode="layer"
     id="layer4"
     inkscape:label="Controller"><g
       id="g12192"
       transform="matrix(0.52634968,-0.38371487,-0.36199415,0.79024751,151.0404,222.06172)"><g
         id="g16794"
         transform="matrix(0.90863178,0.02040002,0.19233564,0.88510659,48.978467,-34.522934)"><path
           d="m 179.554,8.949 c -17.037,0.789 -61.16,4.455 -89.405,44.125 l 1.625,1.156 c 27.71,-38.916 70.96,-42.498 87.88,-43.281 l -0.094,-2 -0.006,0 z"
           id="path3-2"
           inkscape:connector-curvature="0"
           style="fill:#f4f4f4" /><path
           d="m 293.243,34.574 c -44.134,0 -91.349,3.159 -132.379,13.031 -41.026,9.872 -75.901,26.427 -95.218,53.375 -20.514,28.619 -31.714,57.876 -32.281,84.875 -0.567,26.997 9.536,51.731 31.469,71.124 22.496,19.891 40.432,27.779 54.78,32.375 14.349,4.596 24.973,5.945 33.188,12.562 l 1.28,-1.56 c -8.76,-7.061 -19.689,-8.37 -33.87,-12.91 -14.18,-4.54 -31.732,-12.25 -54.03,-31.97 -21.531,-19.03 -31.369,-43.109 -30.813,-69.589 0.557,-26.47 11.568,-55.34 31.906,-83.718 18.877,-26.333 53.278,-42.779 94.067,-52.592 40.78,-9.813 87.867,-13 131.909,-13 l 9.688,0 c 44.037,0 91.124,3.187 131.909,13 40.78,9.813 75.217,26.26 94.093,52.593 20.339,28.374 31.35,57.244 31.905,83.719 0.557,26.475 -9.281,50.557 -30.812,69.594 -22.319,19.719 -39.899,27.43 -54.079,31.969 -14.18,4.54 -25.08,5.85 -33.84,12.91 l 1.25,1.563 c 8.214,-6.617 18.869,-7.967 33.219,-12.563 14.349,-4.595 32.254,-12.483 54.749,-32.374 21.933,-19.394 32.068,-44.126 31.5,-71.124 -0.567,-26.998 -11.767,-56.256 -32.28,-84.875 C 511.238,74.042 476.329,57.486 435.303,47.614 394.278,37.741 347.065,34.583 302.925,34.583 l -9.688,0 0.006,-0.009 z"
           id="path5-6"
           inkscape:connector-curvature="0"
           style="fill:#f4f4f4" /><path
           d="M 203.494,7.386 C 192.339,7.119 175.991,8.639 158.119,13.574 134.29,20.154 107.841,32.844 87.869,55.668 48.116,101.097 6.525,178.416 4.148,234.516 l 0,0.031 c -2.359,55.866 17.659,82.522 39.438,94.249 16.199,8.724 36.669,7.123 55.656,1.531 18.987,-5.592 36.52,-15.222 47,-22.844 20.74,-15.09 80.069,-57.789 139.469,-57.789 l 24.781,0 c 59.403,0 118.698,42.696 139.438,57.779 10.479,7.623 28.013,17.252 46.999,22.845 18.987,5.592 39.489,7.191 55.688,-1.531 21.783,-11.729 41.776,-38.393 39.406,-94.28 -2.38,-56.09 -43.95,-133.409 -83.689,-178.838 -19.979,-22.823 -46.46,-35.514 -70.289,-42.093 -23.82,-6.579 -44.94,-7.105 -54.649,-5.406 -19.101,3.343 -45.79,15.094 -81.88,15.094 l -6.875,0 c -36.09,0 -62.743,-11.752 -81.843,-15.094 -2.428,-0.425 -5.595,-0.692 -9.313,-0.781 l 0.009,-0.003 z m 0,2 c 3.631,0.083 6.682,0.35 8.969,0.75 18.621,3.258 45.664,15.125 82.187,15.125 l 6.875,0 c 36.522,0 63.597,-11.866 82.219,-15.125 9.148,-1.601 30.223,-1.161 53.78,5.344 23.559,6.505 49.677,19.059 69.312,41.5 39.461,45.102 80.849,122.408 83.187,177.588 2.349,55.389 -17.249,81.063 -38.374,92.438 -15.485,8.339 -35.414,6.886 -54.125,1.375 -18.71,-5.51 -36.14,-15.033 -46.405,-22.5 -20.751,-15.092 -80.265,-58.188 -140.618,-58.188 l -24.781,0 c -60.359,0 -119.869,43.096 -140.619,58.188 -10.267,7.467 -27.696,16.989 -46.406,22.5 -18.711,5.511 -38.669,6.965 -54.155,-1.375 C 23.409,315.626 3.812,289.957 6.16,234.567 8.499,179.387 49.916,102.079 89.377,56.969 109.011,34.529 135.101,21.975 158.661,15.469 176.33,10.591 192.61,9.128 203.5,9.375 l -0.006,0.011 z"
           id="path7-7"
           inkscape:connector-curvature="0"
           style="fill:#f4f4f4" /><path
           d="m 416.622,8.949 -0.094,2 c 16.911,0.783 60.166,4.365 87.874,43.281 l 1.625,-1.156 C 477.787,13.404 433.658,9.739 416.628,8.949 l -0.006,0 z"
           id="path9-5"
           inkscape:connector-curvature="0"
           style="fill:#f4f4f4" /><path
           d="m 264.243,56.26 c -2.083,0 -4.727,0.224 -7.313,1.5 -2.586,1.277 -5.081,3.636 -6.813,7.594 -3.385,7.735 -8.063,24.875 -8.063,24.875 l 1.938,0.531 c 0,0 4.751,-17.272 7.969,-24.625 1.569,-3.585 3.687,-5.481 5.875,-6.562 2.188,-1.081 4.481,-1.313 6.406,-1.313 l 29,0 9.688,0 28.999,0 c 1.926,0 4.25,0.232 6.438,1.313 2.188,1.081 4.275,2.977 5.844,6.562 3.218,7.354 7.969,24.625 7.969,24.625 l 1.938,-0.531 c 0,0 -4.678,-17.139 -8.063,-24.875 -1.731,-3.958 -4.227,-6.316 -6.813,-7.594 -2.585,-1.276 -5.229,-1.5 -7.313,-1.5 l -28.999,0 -9.688,0 -28.999,0 0,0 z"
           id="path11-5"
           inkscape:connector-curvature="0"
           style="fill:#f4f4f4" /><path
           d="M 197.774,86.772 C 165.59,64.159 117.151,78.02 89.505,117.368 c -27.647,39.348 -24.269,89.617 7.914,112.229 32.184,22.613 80.647,8.771 108.299,-30.578 27.647,-39.347 24.244,-89.634 -7.939,-112.249 l -0.005,0.002 z m -1.15,1.637 c 31.094,21.848 34.596,70.832 7.453,109.459 -27.143,38.629 -74.416,51.938 -105.509,30.09 C 67.483,206.118 64.006,157.149 91.149,118.52 118.288,79.894 165.537,66.567 196.628,88.415 l -0.004,-0.006 z"
           id="ellipse13"
           inkscape:connector-curvature="0"
           style="fill:#f4f4f4" /><path
           d="m 148.904,98.135 c -33.873,0 -61.375,27.471 -61.375,61.343 0,33.872 27.502,61.374 61.375,61.374 33.873,0 61.343,-27.502 61.343,-61.374 10e-4,-33.872 -27.47,-61.343 -61.343,-61.343 z m 0,2 c 32.792,0 59.343,26.552 59.343,59.343 0,32.792 -26.552,59.374 -59.343,59.374 -32.792,0 -59.375,-26.582 -59.375,-59.374 0.001,-32.791 26.583,-59.343 59.375,-59.343 z"
           id="circle15"
           inkscape:connector-curvature="0"
           style="fill:#f4f4f4" /><path
           d="m 146.554,106.51 c -2.105,0.09 -4.177,0.323 -6.219,0.656 -0.01,0.001 -0.021,-0.002 -0.031,0 l 0,0.031 c -0.613,0.091 -1.285,0.361 -1.688,0.906 -0.412,0.556 -0.562,1.248 -0.625,2.063 l -1.313,16.781 c -0.433,5.602 -2.213,9.627 -5.188,12.188 -2.974,2.56 -7.247,3.749 -12.906,3.313 l -16.422,-1.28 c -0.825,-0.063 -1.486,-0.096 -2.156,0.156 -0.67,0.252 -1.195,0.846 -1.469,1.5 l 0,0.063 0,0.031 c -1.301,3.967 -2.164,8.153 -2.5,12.5 -0.321,4.151 -0.169,8.208 0.438,12.156 l 0,0.031 c 0.271,1.478 1.688,2.692 3.656,2.844 l 16.312,1.25 c 5.46,0.422 9.459,2.272 12.031,5.375 2.572,3.102 3.76,7.557 3.313,13.344 l -1.188,15.5 c -0.076,0.989 -0.064,1.771 0.219,2.469 0.284,0.697 0.885,1.186 1.5,1.469 l 0.063,0.031 0.031,0.031 c 3.935,1.283 8.1,2.105 12.406,2.438 4.21,0.324 8.343,0.159 12.344,-0.469 l 0.031,0 0.031,-0.031 c 0.684,-0.15 1.376,-0.523 1.844,-1.156 0.468,-0.633 0.704,-1.438 0.781,-2.438 l 1.188,-15.438 c 0.438,-5.673 2.348,-9.914 5.344,-12.656 2.996,-2.743 7.138,-4.059 12.344,-3.656 l 16.688,1.281 c 0.912,0.07 1.664,0.089 2.406,-0.25 0.742,-0.339 1.24,-1.023 1.563,-1.844 l 0.031,-0.031 0,-0.031 c 1.222,-3.836 2.021,-7.877 2.344,-12.062 0.325,-4.204 0.157,-8.318 -0.469,-12.312 l 0,-0.063 -0.031,-0.063 c -0.155,-0.574 -0.407,-1.188 -0.938,-1.688 -0.531,-0.5 -1.287,-0.806 -2.188,-0.875 l -17.219,-1.313 c -5.147,-0.397 -9.05,-2.253 -11.594,-5.25 -2.544,-2.997 -3.789,-7.206 -3.375,-12.562 l 1.25,-16.469 c 0.06,-0.778 0.169,-1.408 0,-2.125 -0.17,-0.717 -0.809,-1.401 -1.594,-1.688 l -0.031,-0.031 c -3.994,-1.32 -8.214,-2.161 -12.594,-2.5 -2.164,-0.167 -4.291,-0.216 -6.406,-0.125 l -0.014,-10e-4 z m 0.063,2 c 2.036,-0.087 4.104,-0.036 6.188,0.125 4.208,0.326 8.26,1.142 12.094,2.406 0.01,0.003 0.022,-0.003 0.031,0 0.305,0.109 0.27,0.07 0.313,0.25 0.045,0.192 0.03,0.742 -0.031,1.531 l -1.281,16.469 c -0.444,5.749 0.906,10.539 3.844,14 2.938,3.461 7.421,5.509 12.969,5.938 l 17.229,1.34 c 0.588,0.045 0.817,0.169 0.969,0.313 0.135,0.127 0.277,0.368 0.375,0.688 0.003,0.011 -0.003,0.02 0,0.031 0.598,3.833 0.75,7.774 0.438,11.812 -0.309,4.007 -1.054,7.892 -2.219,11.562 -0.007,0.021 -0.024,0.041 -0.031,0.063 -0.197,0.473 -0.334,0.611 -0.5,0.688 -0.179,0.082 -0.626,0.156 -1.438,0.094 l -16.688,-1.313 c -5.626,-0.436 -10.43,1.033 -13.875,4.188 -3.445,3.154 -5.502,7.928 -5.969,13.969 l -1.17,15.439 c -0.06,0.765 -0.241,1.184 -0.406,1.406 -0.165,0.224 -0.317,0.332 -0.656,0.406 -3.83,0.597 -7.778,0.749 -11.812,0.438 -4.103,-0.316 -8.063,-1.1 -11.812,-2.313 -0.343,-0.157 -0.415,-0.197 -0.5,-0.406 -0.085,-0.209 -0.128,-0.709 -0.063,-1.563 l 1.188,-15.5 c 0.475,-6.143 -0.806,-11.162 -3.781,-14.75 -2.975,-3.588 -7.596,-5.673 -13.438,-6.125 l -16.281,-1.25 c -1.291,-0.1 -1.701,-0.625 -1.813,-1.156 -0.583,-3.798 -0.747,-7.72 -0.438,-11.719 0.322,-4.162 1.103,-8.171 2.344,-11.969 0.013,-0.032 0.02,-0.004 0.031,-0.031 0.003,-0.01 -0.003,-0.021 0,-0.031 0.108,-0.243 0.166,-0.3 0.281,-0.344 0.133,-0.05 0.57,-0.088 1.313,-0.031 l 16.438,1.25 c 6.014,0.464 10.911,-0.768 14.375,-3.75 3.464,-2.982 5.415,-7.608 5.875,-13.562 l 1.28,-16.8 c 0.046,-0.595 0.194,-0.882 0.281,-1 0.087,-0.118 0.111,-0.157 0.344,-0.188 l 0.031,0 c 1.973,-0.323 3.965,-0.538 6,-0.625 l -0.029,0.02 z"
           id="path17"
           inkscape:connector-curvature="0"
           style="fill:#f4f4f4" /><path
           d="m 148.904,147.264 c -6.747,0 -12.25,5.472 -12.25,12.219 0,6.747 5.503,12.25 12.25,12.25 6.747,0 12.219,-5.503 12.219,-12.25 0,-6.747 -5.472,-12.219 -12.219,-12.219 z m 0,2 c 5.666,0 10.219,4.553 10.219,10.219 0,5.666 -4.553,10.25 -10.219,10.25 -5.666,0 -10.25,-4.584 -10.25,-10.25 0,-5.666 4.584,-10.219 10.25,-10.219 z"
           id="circle19"
           inkscape:connector-curvature="0"
           style="fill:#f4f4f4" /><path
           d="m 116.555,121.734 0.25,1 1.813,6.844 0.219,0.75 0.594,-0.5 4.656,-4 0.594,-0.5 -0.71,-0.35 -6.469,-2.813 -0.938,-0.438 -0.009,0.007 z"
           id="polygon21"
           inkscape:connector-curvature="0"
           style="fill:#f4f4f4" /><path
           d="m 114.714,183.693 -0.313,0.719 -2.844,6.469 -0.438,0.938 1,-0.25 6.844,-1.813 0.75,-0.219 -0.5,-0.594 -4,-4.656 -0.499,-0.594 0,0 z"
           id="polygon23-6"
           inkscape:connector-curvature="0"
           style="fill:#f4f4f4" /><path
           d="m 178.934,188.663 -0.594,0.5 -4.656,4 -0.594,0.5 0.719,0.313 6.469,2.844 0.938,0.438 -0.25,-1.031 -1.813,-6.813 -0.219,-0.751 0,0 z"
           id="polygon25"
           inkscape:connector-curvature="0"
           style="fill:#f4f4f4" /><path
           d="m 186.654,127.164 -1,0.25 -6.844,1.813 -0.75,0.219 0.5,0.593 4,4.656 0.5,0.594 0.344,-0.719 2.813,-6.469 0.437,-0.937 0,0 z"
           id="polygon27"
           inkscape:connector-curvature="0"
           style="fill:#f4f4f4" /><path
           d="m 384.402,123.044 c -11.999,0 -21.75,9.751 -21.75,21.75 0,11.999 9.751,21.75 21.75,21.75 11.998,0 21.75,-9.751 21.75,-21.75 0,-11.999 -9.752,-21.75 -21.75,-21.75 z m 0,2 c 10.918,0 19.75,8.832 19.75,19.75 0,10.918 -8.833,19.75 -19.75,19.75 -10.918,0 -19.75,-8.832 -19.75,-19.75 0,-10.918 8.832,-19.75 19.75,-19.75 z"
           id="circle29-6"
           inkscape:connector-curvature="0"
           style="fill:#f4f4f4" /><path
           d="m 430.932,91.604 c -11.999,0 -21.75,9.751 -21.75,21.75 0,11.999 9.752,21.75 21.75,21.75 11.998,0 21.75,-9.751 21.75,-21.75 0,-11.999 -9.752,-21.75 -21.75,-21.75 z m 0,2 c 10.918,0 19.75,8.832 19.75,19.75 0,10.918 -8.832,19.75 -19.75,19.75 -10.918,0 -19.75,-8.832 -19.75,-19.75 0,-10.918 8.832,-19.75 19.75,-19.75 z"
           id="circle31-7"
           inkscape:connector-curvature="0"
           style="fill:#f4f4f4" /><path
           d="m 479.651,73.698 c -11.998,0 -21.75,9.752 -21.75,21.75 0,11.998 9.752,21.75 21.75,21.75 11.998,0 21.75,-9.751 21.75,-21.75 0,-11.999 -9.752,-21.75 -21.75,-21.75 z m 0,2 c 10.917,0 19.75,8.833 19.75,19.75 0,10.917 -8.833,19.75 -19.75,19.75 -10.917,0 -19.75,-8.833 -19.75,-19.75 0,-10.917 8.833,-19.75 19.75,-19.75 z"
           id="circle33"
           inkscape:connector-curvature="0"
           style="fill:#f4f4f4" /><path
           d="m 404.521,182.794 c -16.686,0 -30.219,13.532 -30.219,30.219 0,16.686 13.533,30.249 30.219,30.249 16.687,0 30.25,-13.563 30.25,-30.249 0,-16.687 -13.563,-30.219 -30.25,-30.219 z m 0,2 c 15.605,0 28.25,12.613 28.25,28.219 0,15.604 -12.645,28.249 -28.25,28.249 -15.604,0 -28.219,-12.646 -28.219,-28.249 10e-4,-15.606 12.615,-28.219 28.219,-28.219 z"
           id="circle35"
           inkscape:connector-curvature="0"
           style="fill:#f4f4f4" /><path
           d="m 460.491,145.694 c -16.686,0 -30.25,13.533 -30.25,30.219 0,16.686 13.564,30.249 30.25,30.249 16.687,0 30.219,-13.563 30.219,-30.249 0,-16.686 -13.532,-30.219 -30.219,-30.219 z m 0,2 c 15.604,0 28.219,12.614 28.219,28.219 0,15.604 -12.614,28.249 -28.219,28.249 -15.605,0 -28.25,-12.646 -28.25,-28.249 0,-15.605 12.646,-28.219 28.25,-28.219 z"
           id="circle37"
           inkscape:connector-curvature="0"
           style="fill:#f4f4f4" /><path
           d="m 521.461,122.414 c -16.685,0 -30.25,13.565 -30.25,30.25 0,16.685 13.565,30.218 30.25,30.218 16.685,0 30.219,-13.532 30.219,-30.218 0,-16.685 -13.534,-30.25 -30.219,-30.25 z m 0,2 c 15.604,0 28.219,12.646 28.219,28.25 0,15.604 -12.614,28.218 -28.219,28.218 -15.604,0 -28.25,-12.613 -28.25,-28.218 0,-15.604 12.646,-28.25 28.25,-28.25 z"
           id="circle39"
           inkscape:connector-curvature="0"
           style="fill:#f4f4f4" /><path
           d="m 298.083,187.323 c -10.372,0 -19.765,2.013 -26.656,5.313 -6.891,3.3 -11.438,8 -11.438,13.469 0,5.469 4.546,10.139 11.438,13.438 6.891,3.301 16.284,5.313 26.656,5.313 10.371,0 19.765,-2.012 26.655,-5.313 6.892,-3.299 11.438,-7.969 11.438,-13.438 0,-5.469 -4.547,-10.169 -11.438,-13.469 -6.89,-3.3 -16.284,-5.313 -26.655,-5.313 z m 0,2 c 10.113,0 19.278,1.996 25.812,5.125 6.534,3.129 10.281,7.316 10.281,11.656 0,4.34 -3.748,8.527 -10.281,11.656 -6.533,3.128 -15.698,5.094 -25.812,5.094 -10.114,0 -19.247,-1.966 -25.781,-5.094 -6.534,-3.129 -10.312,-7.316 -10.312,-11.656 0,-4.34 3.778,-8.527 10.312,-11.656 6.534,-3.129 15.668,-5.125 25.781,-5.125 z"
           id="ellipse41"
           inkscape:connector-curvature="0"
           style="fill:#f4f4f4" /><path
           d="m 298.083,194.263 c -6.976,0 -13.273,1.213 -17.938,3.25 -2.333,1.02 -4.273,2.229 -5.656,3.656 -1.383,1.429 -2.219,3.131 -2.219,4.938 0,1.807 0.835,3.479 2.219,4.906 1.383,1.429 3.324,2.638 5.656,3.656 4.665,2.037 10.962,3.281 17.938,3.281 6.975,0 13.304,-1.244 17.969,-3.281 2.332,-1.019 4.241,-2.228 5.625,-3.656 1.383,-1.428 2.25,-3.1 2.25,-4.906 0,-1.806 -0.867,-3.509 -2.25,-4.938 -1.384,-1.428 -3.293,-2.637 -5.625,-3.656 -4.665,-2.037 -10.993,-3.25 -17.969,-3.25 z m 0,2 c 6.739,0 12.833,1.207 17.155,3.094 2.162,0.944 3.87,2.053 5,3.219 1.131,1.168 1.688,2.344 1.688,3.531 0,1.188 -0.558,2.365 -1.688,3.531 -1.13,1.167 -2.838,2.275 -5,3.219 -4.322,1.889 -10.417,3.094 -17.155,3.094 -6.739,0 -12.833,-1.205 -17.156,-3.094 -2.161,-0.943 -3.87,-2.052 -5,-3.219 -1.13,-1.166 -1.656,-2.343 -1.656,-3.531 0,-1.188 0.526,-2.364 1.656,-3.531 1.13,-1.166 2.838,-2.273 5,-3.219 4.323,-1.887 10.417,-3.094 17.156,-3.094 z"
           id="ellipse43"
           inkscape:connector-curvature="0"
           style="fill:#f4f4f4" /></g></g></g></svg>