<?xml version="1.0" encoding="UTF-8" standalone="no"?>
<!-- Generator: Adobe Illustrator 13.0.0, SVG Export Plug-In . SVG Version: 6.00 Build 14948)  -->

<svg
   xmlns:dc="http://purl.org/dc/elements/1.1/"
   xmlns:cc="http://creativecommons.org/ns#"
   xmlns:rdf="http://www.w3.org/1999/02/22-rdf-syntax-ns#"
   xmlns:svg="http://www.w3.org/2000/svg"
   xmlns="http://www.w3.org/2000/svg"
   xmlns:sodipodi="http://sodipodi.sourceforge.net/DTD/sodipodi-0.dtd"
   xmlns:inkscape="http://www.inkscape.org/namespaces/inkscape"
   version="1.1"
   id="Layer_2"
   x="0px"
   y="0px"
   width="550"
   height="550"
   viewBox="0 0 549.99995 549.99999"
   enable-background="new 0 0 598.189 350.26"
   xml:space="preserve"
   inkscape:version="0.91 r13725"
   sodipodi:docname="controller_gg.svg"><metadata
     id="metadata3083"><rdf:RDF><cc:Work
         rdf:about=""><dc:format>image/svg+xml</dc:format><dc:type
           rdf:resource="http://purl.org/dc/dcmitype/StillImage" /><dc:title></dc:title></cc:Work></rdf:RDF></metadata><defs
     id="defs3081" /><sodipodi:namedview
     pagecolor="#ffffff"
     bordercolor="#666666"
     borderopacity="1"
     objecttolerance="10"
     gridtolerance="10"
     guidetolerance="10"
     inkscape:pageopacity="0"
     inkscape:pageshadow="2"
     inkscape:window-width="1920"
     inkscape:window-height="1001"
     id="namedview3079"
     showgrid="false"
     inkscape:zoom="1.0799262"
     inkscape:cx="248.77122"
     inkscape:cy="298.43665"
     inkscape:window-x="-9"
     inkscape:window-y="-9"
     inkscape:window-maximized="1"
     inkscape:current-layer="g12192"
     showguides="true"
     inkscape:guide-bbox="true" /><g
     inkscape:groupmode="layer"
     id="layer2"
     inkscape:label="Screen_Rect"
     style="display:none"
     transform="translate(0,199.73999)"
     sodipodi:insensitive="true"><path
       style="fill:#0000ff;stroke:#000000;stroke-width:1px;stroke-linecap:butt;stroke-linejoin:miter;stroke-opacity:1"
       d="M 5.0135033,547.22203 136.4109,114.39023 653.54628,-189.09358 406.482,260.92121 Z"
       id="path3021"
       inkscape:connector-curvature="0"
       transform="translate(-2e-5,-199.73999)"
       sodipodi:nodetypes="ccccc" /><rect
       style="opacity:0.60100002;fill:#d8201f;fill-opacity:1;stroke:#ff8080;stroke-width:2.45114732;stroke-linecap:round;stroke-linejoin:round;stroke-miterlimit:4;stroke-dasharray:none;stroke-opacity:1"
       id="rect4230"
       width="444.2457"
       height="9.9567661"
       x="145.95099"
       y="-211.30678" /></g><g
     inkscape:groupmode="layer"
     id="layer1"
     inkscape:label="Controller_Vorlage"
     style="display:none"
     sodipodi:insensitive="true"><g
       id="g4929"
       transform="translate(-0.929149,0.5695451)"><g
         transform="translate(0,199.73999)"
         style="display:none"
         inkscape:label="Layer2"
         id="layer2-9"><path
           sodipodi:nodetypes="ccccc"
           transform="translate(-2e-5,-199.73999)"
           inkscape:connector-curvature="0"
           id="path3021-0"
           d="M 5.0135033,547.22203 136.4109,114.39023 653.54628,-189.09358 406.482,260.92121 Z"
           style="fill:#ffffff;stroke:#000000;stroke-width:1px;stroke-linecap:butt;stroke-linejoin:miter;stroke-opacity:1" /></g><g
         inkscape:label="Layer"
         id="layer1-2"><g
           transform="matrix(0.55322035,-0.3970343,-0.34863416,0.85569517,173.63773,166.52161)"
           id="g3100"><path
             style="fill:#f4f4f4"
             inkscape:connector-curvature="0"
             id="path3"
             d="m 148.05,114.447 c -23.656,0 -42.861,19.204 -42.861,42.861 l 0,37.414 c 0,23.658 19.205,42.86 42.861,42.86 l 38.694,0 c 23.656,0 42.861,-19.202 42.861,-42.86 l 0,-37.414 c 0,-23.657 -19.205,-42.861 -42.861,-42.861 l -38.694,0 z m 0,1.905 38.694,0 c 22.627,0 40.956,18.328 40.956,40.956 l 0,37.414 c 0,22.629 -18.329,40.956 -40.956,40.956 l -38.694,0 c -22.628,0 -40.956,-18.327 -40.956,-40.956 l 0,-37.414 c 0,-22.629 18.328,-40.956 40.956,-40.956 z" /><path
             style="fill:#f4f4f4"
             inkscape:connector-curvature="0"
             id="path5"
             d="m 167.395,123.168 c -3.23,0 -5.863,2.633 -5.863,5.864 l 0,13.037 c 0,3.23 2.632,5.863 5.863,5.863 3.23,0 5.863,-2.633 5.863,-5.863 l 0,-13.037 c 0,-3.23 -2.633,-5.864 -5.863,-5.864 z m 0,1.906 c 2.201,0 3.958,1.758 3.958,3.958 l 0,13.037 c 0,2.2 -1.758,3.958 -3.958,3.958 -2.202,0 -3.958,-1.758 -3.958,-3.958 l 0,-13.037 c -0.001,-2.2 1.757,-3.958 3.958,-3.958 z" /><path
             style="fill:#f4f4f4"
             inkscape:connector-curvature="0"
             id="path7"
             d="m 120.425,170.135 c -3.23,0 -5.864,2.633 -5.864,5.864 0,3.231 2.632,5.894 5.864,5.894 l 13.037,0 c 3.229,0 5.864,-2.662 5.864,-5.894 0,-3.229 -2.633,-5.864 -5.864,-5.864 l -13.037,0 z m 0,1.905 13.037,0 c 2.201,0 3.959,1.759 3.959,3.959 0,2.201 -1.759,3.988 -3.959,3.988 l -13.037,0 c -2.198,-0.01 -3.955,-1.791 -3.955,-3.99 0,-2.201 1.758,-3.959 3.958,-3.959 l -0.003,0.002 z" /><path
             style="fill:#f4f4f4"
             inkscape:connector-curvature="0"
             id="path9"
             d="m 167.395,204.071 c -3.23,0 -5.863,2.663 -5.863,5.894 l 0,13.038 c 0,3.229 2.632,5.863 5.863,5.863 3.23,0 5.863,-2.633 5.863,-5.863 l 0,-13.038 c 0,-3.23 -2.633,-5.894 -5.863,-5.894 z m 0,1.906 c 2.201,0 3.958,1.789 3.958,3.988 l 0,13.038 c 0,2.2 -1.757,3.958 -3.958,3.958 -2.202,0 -3.958,-1.759 -3.958,-3.958 l 0,-13.038 c -0.001,-2.2 1.757,-3.988 3.958,-3.988 z" /><path
             style="fill:#f4f4f4"
             inkscape:connector-curvature="0"
             id="path11"
             d="m 201.321,170.135 c -3.229,0 -5.863,2.633 -5.863,5.864 0,3.231 2.633,5.894 5.863,5.894 l 13.067,0 c 3.229,0 5.863,-2.662 5.863,-5.894 0,-3.229 -2.633,-5.864 -5.863,-5.864 l -13.067,0 z m 0,1.905 13.067,0 c 2.2,0 3.958,1.76 3.958,3.959 0,2.201 -1.758,3.988 -3.958,3.988 l -13.067,0 c -2.2,0 -3.958,-1.788 -3.958,-3.988 0,-2.2 1.759,-3.959 3.958,-3.959 z" /><path
             style="fill:#f4f4f4"
             inkscape:connector-curvature="0"
             id="polygon13"
             d="m 133.878,141.176 -1.31,1.31 8.155,12.025 0.655,0.952 0.804,-0.803 3.869,-3.87 0.804,-0.804 -0.953,-0.655 -12.024,-8.155 z" /><path
             style="fill:#f4f4f4"
             inkscape:connector-curvature="0"
             id="polygon15"
             d="m 141.383,196.566 -0.654,0.952 -8.156,12.024 1.31,1.31 12.025,-8.155 0.953,-0.654 -0.804,-0.804 -3.87,-3.869 -0.804,-0.804 z" /><path
             style="fill:#f4f4f4"
             inkscape:connector-curvature="0"
             id="polygon17"
             d="m 193.435,196.566 -0.804,0.804 -3.869,3.869 -0.833,0.804 0.953,0.654 12.025,8.155 1.339,-1.31 -8.156,-12.024 -0.655,-0.952 0,0 z" /><path
             style="fill:#f4f4f4"
             inkscape:connector-curvature="0"
             id="polygon19"
             d="m 200.912,141.176 -12.025,8.155 -0.953,0.655 0.833,0.804 3.87,3.87 0.804,0.803 0.655,-0.952 8.155,-12.025 -1.339,-1.31 z" /><path
             style="fill:#f4f4f4"
             inkscape:connector-curvature="0"
             id="path21"
             d="m 146.354,104.833 c -27.67,0 -50.123,22.453 -50.123,50.124 l 0,42.117 c 0,27.671 22.453,50.123 50.123,50.123 l 42.117,0 c 27.671,0 50.124,-22.452 50.124,-50.123 l 0,-42.117 c 0,-27.67 -22.452,-50.124 -50.124,-50.124 l -42.117,0 z m 0,1.906 42.117,0 c 26.644,0 48.219,21.577 48.219,48.218 l 0,42.117 c 0,26.644 -21.577,48.218 -48.219,48.218 l -42.117,0 c -26.642,0 -48.218,-21.574 -48.218,-48.218 l 0,-42.117 c 0,-26.642 21.577,-48.218 48.218,-48.218 z" /><path
             style="fill:#f4f4f4"
             inkscape:connector-curvature="0"
             id="polygon23"
             d="m 69.499,75.694 0,0.952 0,202.961 0,0.952 0.953,0 196.122,0 0.952,0 0,-0.952 0,-26.401 289.521,0 0.952,0 0,-0.952 0,-113.458 0,-0.953 -0.952,0 -289.522,0 0,-61.196 0,-0.952 -0.952,0 -196.122,0 -0.952,-10e-4 0,0 z m 1.904,1.905 194.217,0 0,61.196 0,0.953 0.953,0 0.714,0 288.807,0 0,111.552 -289.226,0 -0.297,0 -0.953,0 0,0.953 0,26.4 -194.217,0 0,-201.055 0.002,0.001 z" /><path
             style="fill:#f4f4f4"
             inkscape:connector-curvature="0"
             id="circle25"
             d="m 400.692,169.126 c -19.762,0 -35.777,16.046 -35.777,35.807 0,19.761 16.018,35.807 35.777,35.807 19.759,0 35.807,-16.046 35.807,-35.807 0,-19.761 -16.047,-35.807 -35.807,-35.807 l 0,0 z m 0,1.905 c 18.73,0 33.901,15.17 33.901,33.902 0,18.732 -15.171,33.902 -33.901,33.902 -18.731,0 -33.872,-15.171 -33.872,-33.902 0,-18.731 15.141,-33.902 33.872,-33.902 l 0,0 z" /><path
             style="fill:#f4f4f4"
             inkscape:connector-curvature="0"
             id="circle27"
             d="m 400.692,177.669 c -15.039,0 -27.234,12.227 -27.234,27.265 0,15.038 12.195,27.234 27.234,27.234 15.036,0 27.264,-12.196 27.264,-27.234 0,-15.038 -12.227,-27.265 -27.264,-27.265 z m 0,1.905 c 14.008,0 25.359,11.351 25.359,25.359 0,14.008 -11.352,25.33 -25.359,25.33 -14.01,0 -25.33,-11.321 -25.33,-25.33 0,-14.009 11.321,-25.359 25.33,-25.359 z" /><path
             style="fill:#f4f4f4"
             inkscape:connector-curvature="0"
             id="circle29"
             d="m 489.919,169.126 c -19.762,0 -35.807,16.046 -35.807,35.807 0,19.761 16.045,35.807 35.807,35.807 19.76,0 35.807,-16.046 35.807,-35.807 0,-19.761 -16.047,-35.807 -35.807,-35.807 l 0,0 z m 0,1.905 c 18.73,0 33.901,15.17 33.901,33.902 0,18.732 -15.171,33.902 -33.901,33.902 -18.731,0 -33.902,-15.171 -33.902,-33.902 0,-18.731 15.171,-33.902 33.902,-33.902 l 0,0 z" /><path
             style="fill:#f4f4f4"
             inkscape:connector-curvature="0"
             id="circle31"
             d="m 489.919,177.669 c -15.039,0 -27.234,12.227 -27.234,27.265 0,15.038 12.195,27.234 27.234,27.234 15.036,0 27.234,-12.196 27.234,-27.234 0,-15.038 -12.196,-27.265 -27.234,-27.265 z m 0,1.905 c 14.008,0 25.329,11.351 25.329,25.359 0,14.008 -11.321,25.33 -25.329,25.33 -14.01,0 -25.33,-11.321 -25.33,-25.33 0,-14.009 11.32,-25.359 25.33,-25.359 z" /><path
             style="fill:#f4f4f4"
             inkscape:connector-curvature="0"
             id="path33"
             d="m 39.406,68.432 c -4.766,0 -8.662,3.896 -8.662,8.662 l 0,203.084 c 0,4.766 3.897,8.661 8.662,8.661 l 518.646,0 c 4.429,0 7.956,-3.411 8.453,-7.709 l 0.179,0 0,-0.952 0,-203.085 c 0,-4.762 -3.868,-8.658 -8.64,-8.658 l -518.645,0 0.007,-0.003 z m 0,1.904 518.646,0 c 3.737,0 6.727,3.021 6.727,6.757 l 0,202.131 0,0.953 c 0,3.736 -2.989,6.756 -6.727,6.756 l -518.646,0 c -3.732,0.01 -6.753,-3.019 -6.753,-6.753 l 0,-203.083 c 0,-3.736 3.02,-6.756 6.756,-6.756 l -0.003,-0.005 z" /><path
             style="fill:#f4f4f4"
             inkscape:connector-curvature="0"
             id="rect35"
             d="m 359.021,163.559 0,0.953 0,81.465 0,0.952 0.953,0 81.465,0 0.953,0 0,-0.952 0,-81.465 0,-0.953 -0.953,0 -81.465,0 -0.953,0 z m 1.906,1.905 79.561,0 0,79.56 -79.561,0 0,-79.56 z" /><path
             style="fill:#f4f4f4"
             inkscape:connector-curvature="0"
             id="rect37"
             d="m 448.248,163.559 0,0.953 0,81.465 0,0.952 0.953,0 81.436,0 0.952,0 0,-0.952 0,-81.465 0,-0.953 -0.952,0 -81.436,0 -0.953,0 z m 1.905,1.905 79.531,0 0,79.56 -79.531,0 0,-79.56 z" /><path
             style="fill:#f4f4f4"
             inkscape:connector-curvature="0"
             id="polyline39"
             d="m 83.934,94.177 0,2.292 0,159.061 0,2.322 1.607,-1.638 25.33,-25.299 -1.369,-1.369 -23.663,23.692 0,-154.45 23.663,23.658 1.369,-1.34 -25.33,-25.299 -1.607,-1.637 0,0.007 z" /><path
             style="fill:#f4f4f4"
             inkscape:connector-curvature="0"
             id="polyline41"
             d="m 222.305,232.551 -1.37,1.339 23.693,23.692 -154.452,0 23.574,-23.573 -1.369,-1.339 -25.181,25.182 -1.637,1.637 2.292,0 159.062,0 2.292,0 -1.607,-1.637 -25.299,-25.3 0.002,-0.001 z" /><path
             style="fill:#f4f4f4"
             inkscape:connector-curvature="0"
             id="polyline43"
             d="m 250.878,94.177 -1.637,1.637 -25.211,25.182 1.369,1.369 23.574,-23.603 0,154.509 -23.633,-23.663 -1.339,1.34 25.24,25.27 1.637,1.638 0,-2.322 0,-159.063 0,-2.292 0,-0.002 z" /><path
             style="fill:#f4f4f4"
             inkscape:connector-curvature="0"
             id="polyline45"
             d="m 85.57,92.54 1.638,1.608 25.21,25.24 1.339,-1.34 -23.572,-23.602 154.452,0 -23.669,23.662 1.333,1.339 25.307,-25.3 1.607,-1.607 -2.292,0 -159.062,0 -2.291,0 0,0 z" /><path
             style="fill:#f4f4f4"
             inkscape:connector-curvature="0"
             id="line47"
             d="m 58.961,69.533 0,218.057 1.905,0 0,-218.057 -1.905,0 z" /><path
             style="fill:#f4f4f4"
             inkscape:connector-curvature="0"
             id="rect49"
             d="m 359.021,145.819 0,0.953 0,13.244 0,0.953 0.953,0 81.465,0 0.953,0 0,-0.953 0,-13.244 0,-0.953 -0.953,0 -81.465,0 -0.953,0 z m 1.906,1.905 79.561,0 0,11.339 -79.561,0 0,-11.339 z" /><path
             style="fill:#f4f4f4"
             inkscape:connector-curvature="0"
             id="rect51"
             d="m 448.248,145.819 0,0.953 0,13.244 0,0.953 0.953,0 81.436,0 0.952,0 0,-0.953 0,-13.244 0,-0.953 -0.952,0 -81.436,0 -0.953,0 z m 1.905,1.905 79.531,0 0,11.339 -79.531,0 0,-11.339 z" /><path
             style="fill:#f4f4f4"
             inkscape:connector-curvature="0"
             id="path53"
             d="m 276.804,73.134 c -0.987,0 -1.815,0.828 -1.815,1.816 l 0,53.01 c 0,0.988 0.829,1.815 1.815,1.815 l 282.855,0 c 0.985,0 1.785,-0.831 1.785,-1.815 l 0,-50.033 c 0,-2.641 -2.152,-4.792 -4.792,-4.792 l -279.844,0 -0.004,0 z m 0.09,1.906 279.756,0 c 1.613,0 2.888,1.275 2.888,2.887 l 0,49.945 -282.643,0 0,-52.832 -10e-4,0 z" /><path
             style="fill:#f4f4f4"
             inkscape:connector-curvature="0"
             id="path55"
             d="m 276.804,260.41 c -0.987,0 -1.815,0.829 -1.815,1.815 l 0,20.091 c 0,0.987 0.829,1.816 1.815,1.816 l 279.844,0 c 2.64,0 4.792,-2.183 4.792,-4.822 l 0,-17.085 c 0,-0.985 -0.8,-1.815 -1.785,-1.815 l -282.855,0 0.004,0 z m 0.09,1.905 282.645,0 0,16.995 c 0,1.611 -1.276,2.917 -2.888,2.917 l -279.758,0 0.001,-19.912 0,0 z" /><path
             style="fill:#f4f4f4"
             inkscape:connector-curvature="0"
             id="line57"
             d="m 274.461,129.271 -6.28,6.28 1.369,1.339 6.251,-6.25 -1.34,-1.369 z" /><path
             style="fill:#f4f4f4"
             inkscape:connector-curvature="0"
             id="line59"
             d="m 269.546,253.866 -1.369,1.34 6.281,6.28 1.339,-1.369 -6.251,-6.251 z" /></g></g></g></g><g
     inkscape:groupmode="layer"
     id="layer4"
     inkscape:label="Controller"><g
       id="g12192"
       transform="matrix(0.52634968,-0.38371487,-0.36199415,0.79024751,151.0404,222.06172)"><g
         id="g12289"
         transform="matrix(0.8642386,0.02745357,-0.08624895,0.82414921,112.95574,-15.955247)"><path
           d="m 434.132,41.827 c -4.058,0.231 -8.121,1.247 -11.996,3.153 -28.748,14.133 -53.001,31.475 -72.775,51.781 -19.791,20.285 -34.998,43.455 -46.091,68.495 -7.005,15.79 0.128,34.29 15.919,41.296 4.123,1.83 8.449,2.717 12.689,2.718 12,10e-4 23.431,-6.944 28.607,-18.61 8.402,-18.895 19.287,-35.399 33.684,-50.192 14.408,-14.772 32.453,-27.921 55.601,-39.323 15.499,-7.627 21.88,-26.385 14.252,-41.886 -5.72,-11.626 -17.713,-18.126 -29.89,-17.432 z m 0.103,1.614 c 11.537,-0.663 22.898,5.506 28.325,16.534 7.236,14.706 1.17,32.472 -13.535,39.708 -23.292,11.473 -41.463,24.716 -56.011,39.63 -14.532,14.934 -25.544,31.628 -34.017,50.679 -4.911,11.068 -15.753,17.638 -27.12,17.637 -4.017,-0.001 -8.112,-0.828 -12.023,-2.563 -14.979,-6.648 -21.718,-24.164 -15.072,-39.144 11.021,-24.875 26.109,-47.87 45.757,-68.008 19.634,-20.16 43.715,-37.387 72.314,-51.448 3.676,-1.809 7.536,-2.804 11.382,-3.025 z"
           id="path3-8"
           inkscape:connector-curvature="0"
           style="fill:#f4f4f4" /><path
           d="m 332.441,156.412 c -11.892,0 -21.559,9.641 -21.559,21.533 0,11.892 9.667,21.559 21.559,21.559 11.892,0 21.532,-9.667 21.532,-21.559 10e-4,-11.893 -9.64,-21.533 -21.532,-21.533 z m 0,1.64 c 11.005,0 19.892,8.886 19.892,19.892 0,11.006 -8.887,19.918 -19.892,19.918 -11.005,0 -19.918,-8.912 -19.918,-19.918 0,-11.006 8.914,-19.892 19.918,-19.892 z"
           id="circle5"
           inkscape:connector-curvature="0"
           style="fill:#f4f4f4" /><path
           d="m 360.178,112.475 c -11.892,0 -21.559,9.667 -21.559,21.558 0,11.892 9.667,21.533 21.559,21.533 11.892,0 21.532,-9.641 21.532,-21.533 0,-11.892 -9.641,-21.558 -21.532,-21.558 z m 0,1.64 c 11.005,0 19.892,8.912 19.892,19.917 0,11.005 -8.887,19.892 -19.892,19.892 -11.005,0 -19.918,-8.887 -19.918,-19.892 0,-11.005 8.913,-19.917 19.918,-19.917 z"
           id="circle7"
           inkscape:connector-curvature="0"
           style="fill:#f4f4f4" /><path
           d="m 395.322,75.946 c -11.892,0 -21.559,9.667 -21.559,21.558 0,11.892 9.667,21.559 21.559,21.559 11.892,0 21.532,-9.667 21.532,-21.559 0,-11.892 -9.64,-21.558 -21.532,-21.558 z m 0,1.64 c 11.005,0 19.892,8.912 19.892,19.917 0,11.006 -8.887,19.918 -19.892,19.918 -11.005,0 -19.918,-8.912 -19.918,-19.918 0,-11.004 8.913,-19.917 19.918,-19.917 z"
           id="circle9"
           inkscape:connector-curvature="0"
           style="fill:#f4f4f4" /><path
           d="m 437.311,50.696 c -11.892,0 -21.532,9.667 -21.532,21.559 0,11.892 9.641,21.533 21.532,21.533 11.893,0 21.559,-9.641 21.559,-21.533 -10e-4,-11.893 -9.667,-21.559 -21.559,-21.559 z m 0,1.64 c 11.006,0 19.918,8.913 19.918,19.918 0,11.005 -8.912,19.892 -19.918,19.892 -11.005,0 -19.892,-8.887 -19.892,-19.892 0,-11.005 8.887,-19.918 19.892,-19.918 z"
           id="circle11"
           inkscape:connector-curvature="0"
           style="fill:#f4f4f4" /><path
           d="m 188.71,64.564 c -36.002,0 -65.213,29.211 -65.213,65.213 0,36.002 29.211,65.188 65.213,65.188 36.002,0 65.188,-29.187 65.188,-65.188 0,-36.001 -29.186,-65.213 -65.188,-65.213 z m 0,1.641 c 35.116,0 63.547,28.457 63.547,63.573 0,35.116 -28.432,63.548 -63.547,63.548 -35.115,0 -63.573,-28.432 -63.573,-63.548 0,-35.116 28.458,-63.573 63.573,-63.573 z"
           id="circle13"
           inkscape:connector-curvature="0"
           style="fill:#f4f4f4" /><path
           d="m 188.71,97.914 c -17.579,0 -31.863,14.285 -31.863,31.863 0,17.578 14.285,31.838 31.863,31.838 17.578,0 31.837,-14.259 31.837,-31.838 0,-17.579 -14.258,-31.863 -31.837,-31.863 z m 0,1.641 c 16.692,0 30.197,13.531 30.197,30.223 0,16.692 -13.505,30.197 -30.197,30.197 -16.692,0 -30.223,-13.505 -30.223,-30.197 0,-16.692 13.532,-30.223 30.223,-30.223 z"
           id="circle15"
           inkscape:connector-curvature="0"
           style="fill:#f4f4f4" /><path
           d="m 259.512,38.52 c -4.084,-0.549 -7.859,2.325 -8.407,6.409 -0.549,4.084 2.35,7.859 6.434,8.408 l 18.738,2.538 c 4.084,0.549 7.859,-2.351 8.408,-6.434 0.549,-4.084 -2.35,-7.859 -6.434,-8.408 L 259.512,38.52 Z m -0.205,1.64 18.739,2.512 c 3.205,0.431 5.429,3.357 4.998,6.563 -0.431,3.204 -3.357,5.429 -6.563,4.999 l -18.738,-2.512 c -3.205,-0.43 -5.429,-3.357 -4.999,-6.562 0.431,-3.206 3.358,-5.431 6.563,-5 z"
           id="path17"
           inkscape:connector-curvature="0"
           style="fill:#f4f4f4" /><path
           d="m 340.645,38.52 -18.739,2.512 c -4.083,0.549 -6.957,4.324 -6.408,8.408 0.548,4.083 4.325,6.983 8.408,6.434 l 18.738,-2.538 c 4.084,-0.549 6.957,-4.324 6.409,-8.408 -0.549,-4.084 -4.325,-6.957 -8.408,-6.408 z m 0.23,1.64 c 3.204,-0.431 6.132,1.794 6.563,4.999 0.431,3.205 -1.794,6.132 -4.999,6.562 l -18.764,2.512 c -3.205,0.431 -6.133,-1.794 -6.563,-4.999 -0.432,-3.205 1.819,-6.132 5.024,-6.563 l 18.739,-2.511 z"
           id="path19"
           inkscape:connector-curvature="0"
           style="fill:#f4f4f4" /><path
           d="m 57.873,12.809 c -3.627,0 -6.588,2.96 -6.588,6.588 l 0,315.48 c 0,3.629 2.96,6.588 6.588,6.588 l 480.616,0 c 3.628,0 6.588,-2.96 6.588,-6.588 l 0,-315.481 c 0,-3.627 -2.959,-6.588 -6.588,-6.588 l -480.616,0 z m 0,1.64 480.616,0 c 2.742,0 4.947,2.206 4.947,4.947 l 0,315.48 c 0,2.742 -2.205,4.947 -4.947,4.947 l -480.616,0 c -2.741,0 -4.947,-2.205 -4.947,-4.947 l 0,-315.48 c 0,-2.741 2.206,-4.947 4.947,-4.947 z"
           id="path21-3"
           inkscape:connector-curvature="0"
           style="fill:#f4f4f4" /><path
           d="m 72.946,12.809 -0.103,1.641 c 0,0 43.037,2.578 89.925,5.152 46.888,2.574 97.59,5.152 113.175,5.152 l 44.476,0 c 16.201,0 66.928,-2.578 113.662,-5.152 46.734,-2.574 89.438,-5.152 89.438,-5.152 l -0.103,-1.641 c 0,0 -42.709,2.579 -89.438,5.152 -46.729,2.574 -97.533,5.152 -113.56,5.152 l -44.476,0 c -15.404,0 -66.215,-2.578 -113.098,-5.152 -46.882,-2.574 -89.898,-5.152 -89.898,-5.152 z"
           id="path23"
           inkscape:connector-curvature="0"
           style="fill:#f4f4f4" /></g></g></g></svg>