<?xml version="1.0" encoding="UTF-8" standalone="no"?>
<!-- Generator: Adobe Illustrator 13.0.0, SVG Export Plug-In . SVG Version: 6.00 Build 14948)  -->

<svg
   xmlns:dc="http://purl.org/dc/elements/1.1/"
   xmlns:cc="http://creativecommons.org/ns#"
   xmlns:rdf="http://www.w3.org/1999/02/22-rdf-syntax-ns#"
   xmlns:svg="http://www.w3.org/2000/svg"
   xmlns="http://www.w3.org/2000/svg"
   xmlns:sodipodi="http://sodipodi.sourceforge.net/DTD/sodipodi-0.dtd"
   xmlns:inkscape="http://www.inkscape.org/namespaces/inkscape"
   version="1.1"
   id="Layer_2"
   x="0px"
   y="0px"
   width="550"
   height="550"
   viewBox="0 0 549.99995 549.99999"
   enable-background="new 0 0 598.189 350.26"
   xml:space="preserve"
   inkscape:version="0.91 r13725"
   sodipodi:docname="controller_gg.svg"><metadata
     id="metadata3083"><rdf:RDF><cc:Work
         rdf:about=""><dc:format>image/svg+xml</dc:format><dc:type
           rdf:resource="http://purl.org/dc/dcmitype/StillImage" /><dc:title></dc:title></cc:Work></rdf:RDF></metadata><defs
     id="defs3081" /><sodipodi:namedview
     pagecolor="#ffffff"
     bordercolor="#666666"
     borderopacity="1"
     objecttolerance="10"
     gridtolerance="10"
     guidetolerance="10"
     inkscape:pageopacity="0"
     inkscape:pageshadow="2"
     inkscape:window-width="1920"
     inkscape:window-height="1001"
     id="namedview3079"
     showgrid="false"
     inkscape:zoom="1.0799262"
     inkscape:cx="248.77122"
     inkscape:cy="298.43665"
     inkscape:window-x="-9"
     inkscape:window-y="-9"
     inkscape:window-maximized="1"
     inkscape:current-layer="layer4"
     showguides="true"
     inkscape:guide-bbox="true" /><g
     inkscape:groupmode="layer"
     id="layer2"
     inkscape:label="Screen_Rect"
     style="display:none"
     transform="translate(0,199.73999)"
     sodipodi:insensitive="true"><path
       style="fill:#0000ff;stroke:#000000;stroke-width:1px;stroke-linecap:butt;stroke-linejoin:miter;stroke-opacity:1"
       d="M 5.0135033,547.22203 136.4109,114.39023 653.54628,-189.09358 406.482,260.92121 Z"
       id="path3021"
       inkscape:connector-curvature="0"
       transform="translate(-2e-5,-199.73999)"
       sodipodi:nodetypes="ccccc" /><rect
       style="opacity:0.60100002;fill:#d8201f;fill-opacity:1;stroke:#ff8080;stroke-width:2.45114732;stroke-linecap:round;stroke-linejoin:round;stroke-miterlimit:4;stroke-dasharray:none;stroke-opacity:1"
       id="rect4230"
       width="444.2457"
       height="9.9567661"
       x="145.95099"
       y="-211.30678" /></g><g
     inkscape:groupmode="layer"
     id="layer1"
     inkscape:label="Controller_Vorlage"
     style="display:none"
     sodipodi:insensitive="true"><g
       id="g4929"
       transform="translate(-0.929149,0.5695451)"><g
         transform="translate(0,199.73999)"
         style="display:none"
         inkscape:label="Layer2"
         id="layer2-9"><path
           sodipodi:nodetypes="ccccc"
           transform="translate(-2e-5,-199.73999)"
           inkscape:connector-curvature="0"
           id="path3021-0"
           d="M 5.0135033,547.22203 136.4109,114.39023 653.54628,-189.09358 406.482,260.92121 Z"
           style="fill:#ffffff;stroke:#000000;stroke-width:1px;stroke-linecap:butt;stroke-linejoin:miter;stroke-opacity:1" /></g><g
         inkscape:label="Layer"
         id="layer1-2"><g
           transform="matrix(0.55322035,-0.3970343,-0.34863416,0.85569517,173.63773,166.52161)"
           id="g3100"><path
             style="fill:#f4f4f4"
             inkscape:connector-curvature="0"
             id="path3"
             d="m 148.05,114.447 c -23.656,0 -42.861,19.204 -42.861,42.861 l 0,37.414 c 0,23.658 19.205,42.86 42.861,42.86 l 38.694,0 c 23.656,0 42.861,-19.202 42.861,-42.86 l 0,-37.414 c 0,-23.657 -19.205,-42.861 -42.861,-42.861 l -38.694,0 z m 0,1.905 38.694,0 c 22.627,0 40.956,18.328 40.956,40.956 l 0,37.414 c 0,22.629 -18.329,40.956 -40.956,40.956 l -38.694,0 c -22.628,0 -40.956,-18.327 -40.956,-40.956 l 0,-37.414 c 0,-22.629 18.328,-40.956 40.956,-40.956 z" /><path
             style="fill:#f4f4f4"
             inkscape:connector-curvature="0"
             id="path5"
             d="m 167.395,123.168 c -3.23,0 -5.863,2.633 -5.863,5.864 l 0,13.037 c 0,3.23 2.632,5.863 5.863,5.863 3.23,0 5.863,-2.633 5.863,-5.863 l 0,-13.037 c 0,-3.23 -2.633,-5.864 -5.863,-5.864 z m 0,1.906 c 2.201,0 3.958,1.758 3.958,3.958 l 0,13.037 c 0,2.2 -1.758,3.958 -3.958,3.958 -2.202,0 -3.958,-1.758 -3.958,-3.958 l 0,-13.037 c -0.001,-2.2 1.757,-3.958 3.958,-3.958 z" /><path
             style="fill:#f4f4f4"
             inkscape:connector-curvature="0"
             id="path7"
             d="m 120.425,170.135 c -3.23,0 -5.864,2.633 -5.864,5.864 0,3.231 2.632,5.894 5.864,5.894 l 13.037,0 c 3.229,0 5.864,-2.662 5.864,-5.894 0,-3.229 -2.633,-5.864 -5.864,-5.864 l -13.037,0 z m 0,1.905 13.037,0 c 2.201,0 3.959,1.759 3.959,3.959 0,2.201 -1.759,3.988 -3.959,3.988 l -13.037,0 c -2.198,-0.01 -3.955,-1.791 -3.955,-3.99 0,-2.201 1.758,-3.959 3.958,-3.959 l -0.003,0.002 z" /><path
             style="fill:#f4f4f4"
             inkscape:connector-curvature="0"
             id="path9"
             d="m 167.395,204.071 c -3.23,0 -5.863,2.663 -5.863,5.894 l 0,13.038 c 0,3.229 2.632,5.863 5.863,5.863 3.23,0 5.863,-2.633 5.863,-5.863 l 0,-13.038 c 0,-3.23 -2.633,-5.894 -5.863,-5.894 z m 0,1.906 c 2.201,0 3.958,1.789 3.958,3.988 l 0,13.038 c 0,2.2 -1.757,3.958 -3.958,3.958 -2.202,0 -3.958,-1.759 -3.958,-3.958 l 0,-13.038 c -0.001,-2.2 1.757,-3.988 3.958,-3.988 z" /><path
             style="fill:#f4f4f4"
             inkscape:connector-curvature="0"
             id="path11"
             d="m 201.321,170.135 c -3.229,0 -5.863,2.633 -5.863,5.864 0,3.231 2.633,5.894 5.863,5.894 l 13.067,0 c 3.229,0 5.863,-2.662 5.863,-5.894 0,-3.229 -2.633,-5.864 -5.863,-5.864 l -13.067,0 z m 0,1.905 13.067,0 c 2.2,0 3.958,1.76 3.958,3.959 0,2.201 -1.758,3.988 -3.958,3.988 l -13.067,0 c -2.2,0 -3.958,-1.788 -3.958,-3.988 0,-2.2 1.759,-3.959 3.958,-3.959 z" /><path
             style="fill:#f4f4f4"
             inkscape:connector-curvature="0"
             id="polygon13"
             d="m 133.878,141.176 -1.31,1.31 8.155,12.025 0.655,0.952 0.804,-0.803 3.869,-3.87 0.804,-0.804 -0.953,-0.655 -12.024,-8.155 z" /><path
             style="fill:#f4f4f4"
             inkscape:connector-curvature="0"
             id="polygon15"
             d="m 141.383,196.566 -0.654,0.952 -8.156,12.024 1.31,1.31 12.025,-8.155 0.953,-0.654 -0.804,-0.804 -3.87,-3.869 -0.804,-0.804 z" /><path
             style="fill:#f4f4f4"
             inkscape:connector-curvature="0"
             id="polygon17"
             d="m 193.435,196.566 -0.804,0.804 -3.869,3.869 -0.833,0.804 0.953,0.654 12.025,8.155 1.339,-1.31 -8.156,-12.024 -0.655,-0.952 0,0 z" /><path
             style="fill:#f4f4f4"
             inkscape:connector-curvature="0"
             id="polygon19"
             d="m 200.912,141.176 -12.025,8.155 -0.953,0.655 0.833,0.804 3.87,3.87 0.804,0.803 0.655,-0.952 8.155,-12.025 -1.339,-1.31 z" /><path
             style="fill:#f4f4f4"
             inkscape:connector-curvature="0"
             id="path21"
             d="m 146.354,104.833 c -27.67,0 -50.123,22.453 -50.123,50.124 l 0,42.117 c 0,27.671 22.453,50.123 50.123,50.123 l 42.117,0 c 27.671,0 50.124,-22.452 50.124,-50.123 l 0,-42.117 c 0,-27.67 -22.452,-50.124 -50.124,-50.124 l -42.117,0 z m 0,1.906 42.117,0 c 26.644,0 48.219,21.577 48.219,48.218 l 0,42.117 c 0,26.644 -21.577,48.218 -48.219,48.218 l -42.117,0 c -26.642,0 -48.218,-21.574 -48.218,-48.218 l 0,-42.117 c 0,-26.642 21.577,-48.218 48.218,-48.218 z" /><path
             style="fill:#f4f4f4"
             inkscape:connector-curvature="0"
             id="polygon23"
             d="m 69.499,75.694 0,0.952 0,202.961 0,0.952 0.953,0 196.122,0 0.952,0 0,-0.952 0,-26.401 289.521,0 0.952,0 0,-0.952 0,-113.458 0,-0.953 -0.952,0 -289.522,0 0,-61.196 0,-0.952 -0.952,0 -196.122,0 -0.952,-10e-4 0,0 z m 1.904,1.905 194.217,0 0,61.196 0,0.953 0.953,0 0.714,0 288.807,0 0,111.552 -289.226,0 -0.297,0 -0.953,0 0,0.953 0,26.4 -194.217,0 0,-201.055 0.002,0.001 z" /><path
             style="fill:#f4f4f4"
             inkscape:connector-curvature="0"
             id="circle25"
             d="m 400.692,169.126 c -19.762,0 -35.777,16.046 -35.777,35.807 0,19.761 16.018,35.807 35.777,35.807 19.759,0 35.807,-16.046 35.807,-35.807 0,-19.761 -16.047,-35.807 -35.807,-35.807 l 0,0 z m 0,1.905 c 18.73,0 33.901,15.17 33.901,33.902 0,18.732 -15.171,33.902 -33.901,33.902 -18.731,0 -33.872,-15.171 -33.872,-33.902 0,-18.731 15.141,-33.902 33.872,-33.902 l 0,0 z" /><path
             style="fill:#f4f4f4"
             inkscape:connector-curvature="0"
             id="circle27"
             d="m 400.692,177.669 c -15.039,0 -27.234,12.227 -27.234,27.265 0,15.038 12.195,27.234 27.234,27.234 15.036,0 27.264,-12.196 27.264,-27.234 0,-15.038 -12.227,-27.265 -27.264,-27.265 z m 0,1.905 c 14.008,0 25.359,11.351 25.359,25.359 0,14.008 -11.352,25.33 -25.359,25.33 -14.01,0 -25.33,-11.321 -25.33,-25.33 0,-14.009 11.321,-25.359 25.33,-25.359 z" /><path
             style="fill:#f4f4f4"
             inkscape:connector-curvature="0"
             id="circle29"
             d="m 489.919,169.126 c -19.762,0 -35.807,16.046 -35.807,35.807 0,19.761 16.045,35.807 35.807,35.807 19.76,0 35.807,-16.046 35.807,-35.807 0,-19.761 -16.047,-35.807 -35.807,-35.807 l 0,0 z m 0,1.905 c 18.73,0 33.901,15.17 33.901,33.902 0,18.732 -15.171,33.902 -33.901,33.902 -18.731,0 -33.902,-15.171 -33.902,-33.902 0,-18.731 15.171,-33.902 33.902,-33.902 l 0,0 z" /><path
             style="fill:#f4f4f4"
             inkscape:connector-curvature="0"
             id="circle31"
             d="m 489.919,177.669 c -15.039,0 -27.234,12.227 -27.234,27.265 0,15.038 12.195,27.234 27.234,27.234 15.036,0 27.234,-12.196 27.234,-27.234 0,-15.038 -12.196,-27.265 -27.234,-27.265 z m 0,1.905 c 14.008,0 25.329,11.351 25.329,25.359 0,14.008 -11.321,25.33 -25.329,25.33 -14.01,0 -25.33,-11.321 -25.33,-25.33 0,-14.009 11.32,-25.359 25.33,-25.359 z" /><path
             style="fill:#f4f4f4"
             inkscape:connector-curvature="0"
             id="path33"
             d="m 39.406,68.432 c -4.766,0 -8.662,3.896 -8.662,8.662 l 0,203.084 c 0,4.766 3.897,8.661 8.662,8.661 l 518.646,0 c 4.429,0 7.956,-3.411 8.453,-7.709 l 0.179,0 0,-0.952 0,-203.085 c 0,-4.762 -3.868,-8.658 -8.64,-8.658 l -518.645,0 0.007,-0.003 z m 0,1.904 518.646,0 c 3.737,0 6.727,3.021 6.727,6.757 l 0,202.131 0,0.953 c 0,3.736 -2.989,6.756 -6.727,6.756 l -518.646,0 c -3.732,0.01 -6.753,-3.019 -6.753,-6.753 l 0,-203.083 c 0,-3.736 3.02,-6.756 6.756,-6.756 l -0.003,-0.005 z" /><path
             style="fill:#f4f4f4"
             inkscape:connector-curvature="0"
             id="rect35"
             d="m 359.021,163.559 0,0.953 0,81.465 0,0.952 0.953,0 81.465,0 0.953,0 0,-0.952 0,-81.465 0,-0.953 -0.953,0 -81.465,0 -0.953,0 z m 1.906,1.905 79.561,0 0,79.56 -79.561,0 0,-79.56 z" /><path
             style="fill:#f4f4f4"
             inkscape:connector-curvature="0"
             id="rect37"
             d="m 448.248,163.559 0,0.953 0,81.465 0,0.952 0.953,0 81.436,0 0.952,0 0,-0.952 0,-81.465 0,-0.953 -0.952,0 -81.436,0 -0.953,0 z m 1.905,1.905 79.531,0 0,79.56 -79.531,0 0,-79.56 z" /><path
             style="fill:#f4f4f4"
             inkscape:connector-curvature="0"
             id="polyline39"
             d="m 83.934,94.177 0,2.292 0,159.061 0,2.322 1.607,-1.638 25.33,-25.299 -1.369,-1.369 -23.663,23.692 0,-154.45 23.663,23.658 1.369,-1.34 -25.33,-25.299 -1.607,-1.637 0,0.007 z" /><path
             style="fill:#f4f4f4"
             inkscape:connector-curvature="0"
             id="polyline41"
             d="m 222.305,232.551 -1.37,1.339 23.693,23.692 -154.452,0 23.574,-23.573 -1.369,-1.339 -25.181,25.182 -1.637,1.637 2.292,0 159.062,0 2.292,0 -1.607,-1.637 -25.299,-25.3 0.002,-0.001 z" /><path
             style="fill:#f4f4f4"
             inkscape:connector-curvature="0"
             id="polyline43"
             d="m 250.878,94.177 -1.637,1.637 -25.211,25.182 1.369,1.369 23.574,-23.603 0,154.509 -23.633,-23.663 -1.339,1.34 25.24,25.27 1.637,1.638 0,-2.322 0,-159.063 0,-2.292 0,-0.002 z" /><path
             style="fill:#f4f4f4"
             inkscape:connector-curvature="0"
             id="polyline45"
             d="m 85.57,92.54 1.638,1.608 25.21,25.24 1.339,-1.34 -23.572,-23.602 154.452,0 -23.669,23.662 1.333,1.339 25.307,-25.3 1.607,-1.607 -2.292,0 -159.062,0 -2.291,0 0,0 z" /><path
             style="fill:#f4f4f4"
             inkscape:connector-curvature="0"
             id="line47"
             d="m 58.961,69.533 0,218.057 1.905,0 0,-218.057 -1.905,0 z" /><path
             style="fill:#f4f4f4"
             inkscape:connector-curvature="0"
             id="rect49"
             d="m 359.021,145.819 0,0.953 0,13.244 0,0.953 0.953,0 81.465,0 0.953,0 0,-0.953 0,-13.244 0,-0.953 -0.953,0 -81.465,0 -0.953,0 z m 1.906,1.905 79.561,0 0,11.339 -79.561,0 0,-11.339 z" /><path
             style="fill:#f4f4f4"
             inkscape:connector-curvature="0"
             id="rect51"
             d="m 448.248,145.819 0,0.953 0,13.244 0,0.953 0.953,0 81.436,0 0.952,0 0,-0.953 0,-13.244 0,-0.953 -0.952,0 -81.436,0 -0.953,0 z m 1.905,1.905 79.531,0 0,11.339 -79.531,0 0,-11.339 z" /><path
             style="fill:#f4f4f4"
             inkscape:connector-curvature="0"
             id="path53"
             d="m 276.804,73.134 c -0.987,0 -1.815,0.828 -1.815,1.816 l 0,53.01 c 0,0.988 0.829,1.815 1.815,1.815 l 282.855,0 c 0.985,0 1.785,-0.831 1.785,-1.815 l 0,-50.033 c 0,-2.641 -2.152,-4.792 -4.792,-4.792 l -279.844,0 -0.004,0 z m 0.09,1.906 279.756,0 c 1.613,0 2.888,1.275 2.888,2.887 l 0,49.945 -282.643,0 0,-52.832 -10e-4,0 z" /><path
             style="fill:#f4f4f4"
             inkscape:connector-curvature="0"
             id="path55"
             d="m 276.804,260.41 c -0.987,0 -1.815,0.829 -1.815,1.815 l 0,20.091 c 0,0.987 0.829,1.816 1.815,1.816 l 279.844,0 c 2.64,0 4.792,-2.183 4.792,-4.822 l 0,-17.085 c 0,-0.985 -0.8,-1.815 -1.785,-1.815 l -282.855,0 0.004,0 z m 0.09,1.905 282.645,0 0,16.995 c 0,1.611 -1.276,2.917 -2.888,2.917 l -279.758,0 0.001,-19.912 0,0 z" /><path
             style="fill:#f4f4f4"
             inkscape:connector-curvature="0"
             id="line57"
             d="m 274.461,129.271 -6.28,6.28 1.369,1.339 6.251,-6.25 -1.34,-1.369 z" /><path
             style="fill:#f4f4f4"
             inkscape:connector-curvature="0"
             id="line59"
             d="m 269.546,253.866 -1.369,1.34 6.281,6.28 1.339,-1.369 -6.251,-6.251 z" /></g></g></g></g><g
     inkscape:groupmode="layer"
     id="layer4"
     inkscape:label="Controller"><g
       id="g10560"
       transform="matrix(0.58557147,-0.40945715,-0.36636004,0.84174641,183.67055,160.25972)"><path
         d="m 233.999,19.117 c -2.48,0 -4.514,2.011 -4.514,4.492 l 0,308.506 c 0,2.479 2.034,4.491 4.514,4.491 l 132.707,0 c 2.227,0 3.999,-1.646 4.358,-3.772 l 0.157,0 0,-0.719 0,-308.507 c 0,-2.48 -2.036,-4.492 -4.516,-4.492 l -132.706,0 0,0.001 z m 0,1.437 132.707,0 c 1.701,0 3.078,1.351 3.078,3.054 l 0,307.788 0,0.719 c 0,1.701 -1.374,3.054 -3.078,3.054 l -132.707,0 c -1.702,0 -3.076,-1.351 -3.076,-3.054 l 0,-308.507 c 0,-1.703 1.374,-3.054 3.076,-3.054 l 0,0 z"
         id="path3-6"
         inkscape:connector-curvature="0"
         style="fill:#f4f4f4" /><path
         d="m 251.517,56.173 c -8.753,0 -15.855,7.124 -15.855,15.878 l 0,123.545 c 0,8.751 7.102,15.877 15.855,15.877 l 97.673,0 c 8.751,0 15.855,-7.125 15.855,-15.877 l 0,-0.719 0,-122.826 c 0,-8.753 -7.104,-15.878 -15.855,-15.878 l -97.673,0 z m 0,1.437 97.673,0 c 7.976,0 14.418,6.464 14.418,14.44 l 0,123.545 c 0,7.976 -6.443,14.439 -14.418,14.439 l -97.673,0 c -7.978,0 -14.418,-6.464 -14.418,-14.439 l 0,-123.544 c 0,-7.977 6.442,-14.441 14.418,-14.441 z"
         id="path5-5"
         inkscape:connector-curvature="0"
         style="fill:#f4f4f4" /><path
         d="m 258.097,65.335 c -5.231,0 -9.479,4.269 -9.479,9.5 l 0,114.382 c 0,5.231 4.247,9.499 9.479,9.499 l 84.507,0 c 5.229,0 9.478,-4.268 9.478,-9.499 l 0,-114.382 c 0,-5.231 -4.247,-9.5 -9.478,-9.5 l -84.507,0 z m 0,1.438 84.507,0 c 4.454,0 8.04,3.608 8.04,8.063 l 0,114.382 c 0,4.455 -3.586,8.062 -8.04,8.062 l -84.507,0 c -4.454,0 -8.041,-3.606 -8.041,-8.062 l 0,-114.383 c 0,-4.454 3.586,-8.062 8.041,-8.062 z"
         id="path7-0"
         inkscape:connector-curvature="0"
         style="fill:#f4f4f4" /><path
         d="m 300.363,216.409 c -28.234,0 -51.138,22.903 -51.138,51.137 0,28.234 22.903,51.138 51.138,51.138 28.235,0 51.137,-22.904 51.137,-51.138 0,-28.234 -22.902,-51.137 -51.137,-51.137 z m 0,1.438 c 27.456,0 49.7,22.242 49.7,49.699 0,27.458 -22.244,49.7 -49.7,49.7 -27.458,0 -49.7,-22.242 -49.7,-49.7 0,-27.457 22.243,-49.699 49.7,-49.699 z"
         id="circle9"
         inkscape:connector-curvature="0"
         style="fill:#f4f4f4" /><path
         d="m 300.363,230.739 c -20.64,0 -37.393,16.754 -37.393,37.393 0,20.64 16.753,37.393 37.393,37.393 20.64,0 37.37,-16.753 37.37,-37.393 0,-20.64 -16.73,-37.393 -37.37,-37.393 z m 0,1.438 c 19.862,0 35.933,16.092 35.933,35.955 0,19.862 -16.07,35.956 -35.933,35.956 -19.864,0 -35.956,-16.094 -35.956,-35.956 0.003,-19.864 16.095,-35.955 35.958,-35.955 l -0.002,0 z"
         id="circle11"
         inkscape:connector-curvature="0"
         style="fill:#f4f4f4" /><path
         d="m 243.409,16.22 c -0.83,0 -1.527,0.676 -1.527,1.505 l 0,1.976 1.437,0 0,-1.976 c 0,-0.05 0.04,-0.067 0.09,-0.067 l 113.886,0 c 0.05,0 0.09,0.017 0.09,0.067 l 0,2.088 1.437,0 0,-2.088 c 0.009,-0.829 -0.689,-1.505 -1.522,-1.505 l -113.881,0 -0.01,0 z"
         id="path13"
         inkscape:connector-curvature="0"
         style="fill:#f4f4f4" /><g
         id="g15"><g
           id="g17"><path
             id="path10506"
             d="m 258.635,99.395 c -2.16,0 -3.908,-1.75 -3.908,-3.908 l 0,0 0,-19.129 c 0,-2.158 1.748,-3.906 3.908,-3.906 l 0,0 20.327,0 c 2.158,0 3.909,1.748 3.909,3.906 l 0,0 0,19.13 -0.002,0 c -0.001,2.157 -1.749,3.904 -3.906,3.906 l 0,0 -20.328,0 0,10e-4 z m -2.47,-23.037 0,19.128 c 0.002,1.364 1.106,2.468 2.47,2.47 l 0,0 20.327,0 c 1.362,-0.002 2.468,-1.106 2.47,-2.47 l 0,0 0,-19.128 c -0.002,-1.362 -1.108,-2.468 -2.47,-2.47 l 0,0 -20.327,0 c -1.364,0.002 -2.468,1.106 -2.47,2.47 l 0,0 z m 25.318,19.395 0.662,-0.265 -0.662,0.265 0,0 z"
             inkscape:connector-curvature="0"
             style="fill:#f4f4f4" /><path
             d="m 268.809,75.374 c -5.818,0 -10.555,4.737 -10.555,10.556 0,5.819 4.737,10.556 10.555,10.556 5.818,0 10.533,-4.737 10.533,-10.556 0,-5.818 -4.715,-10.556 -10.533,-10.556 z m 0,1.438 c 5.042,0 9.095,4.077 9.095,9.118 0,5.041 -4.054,9.118 -9.095,9.118 -5.041,0 -9.118,-4.077 -9.118,-9.118 0,-5.041 4.077,-9.118 9.118,-9.118 z"
             id="circle21"
             inkscape:connector-curvature="0"
             style="fill:#f4f4f4" /></g><g
           id="g23"><path
             id="path10510"
             d="m 290.19,99.395 c -2.158,0 -3.907,-1.749 -3.907,-3.907 l 0,0 0,-19.129 c 0,-2.158 1.749,-3.907 3.907,-3.907 l 0,0 20.329,0 c 2.156,0 3.906,1.749 3.906,3.907 l 0,0 0,20.665 -0.238,-0.199 c -0.547,1.5 -1.985,2.57 -3.671,2.57 l 0,0 -20.326,0 0,0 z m -2.469,-23.036 0,19.128 c 0.002,1.364 1.106,2.467 2.469,2.47 l 0,0 20.326,0 c 1.362,-0.002 2.466,-1.106 2.47,-2.47 l 0,0 0,-1.532 0.002,0.001 0,-17.597 c -0.002,-1.365 -1.105,-2.469 -2.469,-2.472 l 0,0 -20.329,0 c -1.363,0.003 -2.467,1.107 -2.469,2.472 l 0,0 z m 25.523,19.681 0.46,-0.55 -0.46,0.55 0,0 z"
             inkscape:connector-curvature="0"
             style="fill:#f4f4f4" /><path
             d="m 300.363,75.374 c -5.819,0 -10.556,4.737 -10.556,10.556 0,5.819 4.737,10.556 10.556,10.556 5.817,0 10.532,-4.737 10.532,-10.556 0.001,-5.818 -4.714,-10.556 -10.532,-10.556 z m 0,1.438 c 5.041,0 9.096,4.077 9.096,9.118 0,5.041 -4.056,9.118 -9.096,9.118 -5.042,0 -9.118,-4.077 -9.118,-9.118 0,-5.041 4.076,-9.118 9.118,-9.118 z"
             id="circle27-4"
             inkscape:connector-curvature="0"
             style="fill:#f4f4f4" /></g><g
           id="g29"><path
             id="path10514"
             d="m 321.744,99.395 c -2.156,0 -3.905,-1.749 -3.905,-3.908 l 0,0 0,-19.127 c 0,-2.159 1.747,-3.908 3.905,-3.908 l 0,0 20.328,0 c 2.156,0 3.908,1.749 3.908,3.908 l 0,0 0,19.127 0,0.002 0,0 c -0.002,2.158 -1.752,3.906 -3.908,3.906 l 0,0 -20.328,0 0,0 z m -2.471,-23.035 0,19.127 c 0.004,1.365 1.108,2.469 2.471,2.471 l 0,0 20.328,0 c 1.362,-0.002 2.467,-1.106 2.471,-2.471 l 0,0 0,-19.127 c -0.004,-1.365 -1.108,-2.469 -2.471,-2.471 l 0,0 -20.328,0 c -1.364,0.002 -2.467,1.106 -2.471,2.471 l 0,0 z"
             inkscape:connector-curvature="0"
             style="fill:#f4f4f4" /><path
             d="m 331.915,75.374 c -5.817,0 -10.555,4.737 -10.555,10.556 0,5.819 4.737,10.556 10.555,10.556 5.818,0 10.533,-4.737 10.533,-10.556 0,-5.818 -4.715,-10.556 -10.533,-10.556 z m 0,1.438 c 5.042,0 9.097,4.077 9.097,9.118 0,5.041 -4.055,9.118 -9.097,9.118 -5.041,0 -9.117,-4.077 -9.117,-9.118 0,-5.041 4.076,-9.118 9.117,-9.118 z"
             id="circle33"
             inkscape:connector-curvature="0"
             style="fill:#f4f4f4" /></g></g><g
         id="g35"><g
           id="g37"><path
             id="path10519"
             d="m 258.635,130.44 c -2.16,0 -3.908,-1.748 -3.908,-3.907 l 0,0 0,-19.13 c 0,-2.159 1.75,-3.909 3.908,-3.909 l 0,0 20.327,0 c 2.158,0.002 3.909,1.748 3.909,3.909 l 0,0 0,20.868 -0.282,-0.282 c -0.577,1.437 -1.982,2.451 -3.626,2.451 l 0,0 -20.328,0 0,0 z m -2.47,-23.037 0,19.13 c 0.002,1.365 1.106,2.468 2.47,2.471 l 0,0 20.327,0 c 1.362,-0.002 2.468,-1.106 2.47,-2.471 l 0,0 0,-19.13 c -0.002,-1.365 -1.108,-2.468 -2.47,-2.47 l 0,0 -20.327,0 c -1.366,0.002 -2.468,1.106 -2.47,2.47 l 0,0 z m 25.477,19.639 0.509,-0.509 -0.509,0.509 0,0 z"
             inkscape:connector-curvature="0"
             style="fill:#f4f4f4" /><path
             d="m 268.809,106.411 c -5.818,0 -10.555,4.737 -10.555,10.556 0,5.819 4.737,10.556 10.555,10.556 5.818,0 10.533,-4.737 10.533,-10.556 0,-5.818 -4.715,-10.556 -10.533,-10.556 z m 0,1.438 c 5.042,0 9.095,4.077 9.095,9.118 0,5.041 -4.054,9.119 -9.095,9.119 -5.041,0 -9.118,-4.077 -9.118,-9.119 0,-5.041 4.077,-9.118 9.118,-9.118 z"
             id="circle41"
             inkscape:connector-curvature="0"
             style="fill:#f4f4f4" /></g><g
           id="g43"><path
             id="path10523"
             d="m 290.19,130.441 c -2.158,0 -3.907,-1.75 -3.907,-3.907 l 0,0 0,-19.132 c 0,-2.159 1.749,-3.907 3.907,-3.907 l 0,0 20.329,0 c 2.156,0 3.906,1.749 3.906,3.907 l 0,0 0,20.129 -0.122,-0.041 c -0.426,1.695 -1.962,2.949 -3.787,2.951 l 0,0 -20.326,0 0,0 z m -2.469,-23.039 0,19.132 c 0.002,1.363 1.106,2.467 2.469,2.469 l 0,0 20.326,0 c 1.362,-0.002 2.466,-1.106 2.47,-2.469 l 0,0 0,-0.997 0.002,0 0,-18.136 c -0.002,-1.363 -1.105,-2.467 -2.469,-2.469 l 0,0 -20.329,0 c -1.363,0.003 -2.467,1.107 -2.469,2.47 l 0,0 z m 25.756,19.812 0.229,-0.679 -0.229,0.679 0,0 z"
             inkscape:connector-curvature="0"
             style="fill:#f4f4f4" /><path
             d="m 300.363,106.411 c -5.819,0 -10.556,4.737 -10.556,10.556 0,5.819 4.737,10.556 10.556,10.556 5.817,0 10.532,-4.737 10.532,-10.556 0.001,-5.818 -4.714,-10.556 -10.532,-10.556 z m 0,1.438 c 5.041,0 9.096,4.077 9.096,9.118 0,5.041 -4.056,9.119 -9.096,9.119 -5.042,0 -9.118,-4.077 -9.118,-9.119 0,-5.041 4.076,-9.118 9.118,-9.118 z"
             id="circle47"
             inkscape:connector-curvature="0"
             style="fill:#f4f4f4" /></g><g
           id="g49"><path
             id="path10527"
             d="m 321.744,130.441 c -2.156,0 -3.905,-1.749 -3.905,-3.908 l 0,0 0,-19.131 c 0,-2.159 1.747,-3.908 3.905,-3.908 l 0,0 20.328,0 c 2.156,0.002 3.908,1.749 3.908,3.908 l 0,0 0,19.131 0,0.002 0,0 c -0.002,2.158 -1.752,3.906 -3.908,3.906 l 0,0 -20.328,0 0,0 z m -2.471,-23.039 0,19.131 c 0.004,1.365 1.108,2.469 2.471,2.471 l 0,0 20.328,0 c 1.362,-0.002 2.467,-1.106 2.471,-2.471 l 0,0 0,-19.131 c -0.004,-1.363 -1.108,-2.467 -2.471,-2.471 l 0,0 -20.328,0 c -1.364,0.005 -2.467,1.107 -2.471,2.471 l 0,0 z"
             inkscape:connector-curvature="0"
             style="fill:#f4f4f4" /><path
             d="m 331.915,106.411 c -5.817,0 -10.555,4.737 -10.555,10.556 0,5.819 4.737,10.556 10.555,10.556 5.818,0 10.533,-4.737 10.533,-10.556 0,-5.818 -4.715,-10.556 -10.533,-10.556 z m 0,1.438 c 5.042,0 9.097,4.077 9.097,9.118 0,5.041 -4.055,9.119 -9.097,9.119 -5.041,0 -9.117,-4.077 -9.117,-9.119 0,-5.041 4.076,-9.118 9.117,-9.118 z"
             id="circle53"
             inkscape:connector-curvature="0"
             style="fill:#f4f4f4" /></g></g><g
         id="g55"><g
           id="g57"><path
             id="path10532"
             d="m 257.778,161.486 c -2.159,0 -3.908,-1.749 -3.908,-3.906 l 0,0 0,-19.132 c 0,-2.157 1.749,-3.906 3.908,-3.906 l 0,0 20.327,0 c 2.159,0 3.908,1.747 3.908,3.906 l 0,0 0,19.132 0,0.086 -10e-4,0.005 c -0.05,2.115 -1.78,3.815 -3.907,3.815 l 0,0 -20.327,0 0,0 z m -2.471,-23.038 0,19.132 c 0.002,1.363 1.106,2.467 2.471,2.469 l 0,0 20.327,0 c 1.363,-0.002 2.467,-1.106 2.469,-2.469 l 0,0 0,-0.09 0.002,-0.008 0,-19.034 c -0.004,-1.365 -1.106,-2.467 -2.471,-2.469 l 0,0 -20.327,0 c -1.364,0.002 -2.468,1.106 -2.471,2.469 l 0,0 z"
             inkscape:connector-curvature="0"
             style="fill:#f4f4f4" /><path
             d="m 267.933,137.472 c -5.818,0 -10.533,4.716 -10.533,10.533 0,5.818 4.715,10.556 10.533,10.556 5.818,0 10.556,-4.737 10.556,-10.556 0,-5.818 -4.737,-10.533 -10.556,-10.533 z m 0,1.437 c 5.042,0 9.119,4.054 9.119,9.095 0,5.042 -4.077,9.119 -9.119,9.119 -5.041,0 -9.095,-4.077 -9.095,-9.119 0,-5.041 4.054,-9.095 9.095,-9.095 z"
             id="circle61"
             inkscape:connector-curvature="0"
             style="fill:#f4f4f4" /></g><g
           id="g63"><path
             id="path10536"
             d="m 289.333,161.486 c -2.158,0 -3.907,-1.749 -3.907,-3.907 l 0,0 0,-19.132 c 0,-2.158 1.749,-3.905 3.907,-3.907 l 0,0 20.328,0 c 2.156,0.002 3.904,1.749 3.904,3.907 l 0,0 0,19.13 0,0.002 c 0,2.158 -1.746,3.907 -3.904,3.907 l 0,0 -20.328,0 0,0 z m -2.472,-23.039 0,19.132 c 0.004,1.363 1.108,2.467 2.472,2.472 l 0,0 20.328,0 c 1.363,-0.004 2.468,-1.108 2.47,-2.472 l 0,0 0,-0.002 0,-19.13 c -0.002,-1.363 -1.106,-2.467 -2.47,-2.469 l 0,0 -20.328,0 c -1.363,0.002 -2.467,1.106 -2.472,2.469 l 0,0 z"
             inkscape:connector-curvature="0"
             style="fill:#f4f4f4" /><path
             d="m 299.487,137.472 c -5.818,0 -10.533,4.715 -10.533,10.533 0,5.819 4.715,10.556 10.533,10.556 5.819,0 10.556,-4.737 10.556,-10.556 0,-5.819 -4.737,-10.533 -10.556,-10.533 z m 0,1.437 c 5.042,0 9.119,4.054 9.119,9.095 0,5.042 -4.076,9.119 -9.119,9.119 -5.042,0 -9.096,-4.076 -9.096,-9.119 0,-5.041 4.054,-9.095 9.096,-9.095 z"
             id="circle67"
             inkscape:connector-curvature="0"
             style="fill:#f4f4f4" /></g><g
           id="g69"><path
             id="path10540"
             d="m 320.881,161.486 c -2.158,0 -3.905,-1.749 -3.905,-3.905 l 0,0 0,-19.133 c 0,-2.158 1.747,-3.905 3.905,-3.905 l 0,0 20.328,0 c 2.158,0 3.907,1.747 3.907,3.905 l 0,0 0,19.131 0,0.002 c 0,2.156 -1.749,3.905 -3.907,3.905 l 0,0 -20.328,0 0,0 z m -2.469,-23.039 0,19.133 c 0.002,1.362 1.104,2.466 2.469,2.469 l 0,0 20.328,0 c 1.364,-0.002 2.469,-1.106 2.471,-2.469 l 0,0 0,-0.002 0,-19.131 c -0.002,-1.364 -1.106,-2.466 -2.471,-2.468 l 0,0 -20.328,0 c -1.364,0.002 -2.467,1.106 -2.469,2.468 l 0,0 z"
             inkscape:connector-curvature="0"
             style="fill:#f4f4f4" /><path
             d="m 331.039,137.472 c -5.818,0 -10.532,4.716 -10.532,10.533 0,5.818 4.715,10.556 10.532,10.556 5.817,0 10.557,-4.737 10.557,-10.556 0,-5.818 -4.739,-10.533 -10.557,-10.533 z m 0,1.437 c 5.041,0 9.119,4.054 9.119,9.095 0,5.042 -4.077,9.119 -9.119,9.119 -5.041,0 -9.095,-4.077 -9.095,-9.119 0,-5.041 4.054,-9.095 9.095,-9.095 z"
             id="circle73"
             inkscape:connector-curvature="0"
             style="fill:#f4f4f4" /></g></g><g
         id="g75"><g
           id="g77"><path
             id="path10545"
             d="m 257.779,192.532 c -2.159,0 -3.908,-1.749 -3.908,-3.906 l 0,0 0,-19.132 c 0,-2.157 1.749,-3.908 3.908,-3.908 l 0,0 20.326,0 c 2.159,0 3.908,1.749 3.908,3.908 l 0,0 0,19.132 0,0.04 0,0.002 c -0.024,2.136 -1.763,3.864 -3.908,3.864 l 0,0 -20.326,0 0,0 z m -2.47,-23.038 0,19.132 c 0.002,1.364 1.104,2.467 2.47,2.469 l 0,0 20.326,0 c 1.364,-0.002 2.468,-1.106 2.47,-2.469 l 0,0 0,-0.004 0,-19.128 c -0.002,-1.364 -1.104,-2.468 -2.47,-2.472 l 0,0 -20.326,0 c -1.364,0.004 -2.468,1.108 -2.47,2.472 l 0,0 z"
             inkscape:connector-curvature="0"
             style="fill:#f4f4f4" /><path
             d="m 267.933,168.511 c -5.818,0 -10.533,4.737 -10.533,10.555 0,5.817 4.715,10.532 10.533,10.532 5.818,0 10.556,-4.715 10.556,-10.532 0,-5.818 -4.737,-10.555 -10.556,-10.555 z m 0,1.437 c 5.042,0 9.119,4.076 9.119,9.118 0,5.041 -4.077,9.095 -9.119,9.095 -5.041,0 -9.095,-4.054 -9.095,-9.095 0,-5.041 4.054,-9.118 9.095,-9.118 z"
             id="circle81"
             inkscape:connector-curvature="0"
             style="fill:#f4f4f4" /></g><g
           id="g83"><path
             id="path10549"
             d="m 289.333,192.532 c -2.157,0 -3.906,-1.749 -3.906,-3.906 l 0,0 0,-19.132 c 0,-2.157 1.747,-3.908 3.906,-3.908 l 0,0 20.328,0 c 2.158,0 3.907,1.749 3.907,3.908 l 0,0 0,19.128 0,0.004 c 0,2.155 -1.747,3.906 -3.907,3.906 l 0,0 -20.328,0 0,0 z m -2.471,-23.038 0,19.132 c 0.002,1.364 1.106,2.467 2.47,2.469 l 0,0 20.328,0 c 1.363,-0.002 2.468,-1.106 2.47,-2.469 l 0,0 0,-0.004 0,-19.128 c -0.002,-1.364 -1.106,-2.468 -2.47,-2.472 l 0,0 -20.328,0 c -1.364,0.004 -2.468,1.108 -2.47,2.472 l 0,0 z"
             inkscape:connector-curvature="0"
             style="fill:#f4f4f4" /><path
             d="m 299.487,168.511 c -5.818,0 -10.533,4.736 -10.533,10.555 0,5.818 4.715,10.532 10.533,10.532 5.819,0 10.556,-4.715 10.556,-10.532 0,-5.818 -4.737,-10.555 -10.556,-10.555 z m 0,1.437 c 5.042,0 9.119,4.076 9.119,9.118 0,5.041 -4.076,9.095 -9.119,9.095 -5.042,0 -9.096,-4.054 -9.096,-9.095 0,-5.042 4.054,-9.118 9.096,-9.118 z"
             id="circle87"
             inkscape:connector-curvature="0"
             style="fill:#f4f4f4" /></g><g
           id="g89"><path
             id="path10553"
             d="m 320.881,192.531 c -2.158,0 -3.905,-1.747 -3.905,-3.905 l 0,0 0,-19.133 c 0,-2.156 1.747,-3.907 3.905,-3.907 l 0,0 20.328,0 c 2.158,0 3.907,1.751 3.907,3.907 l 0,0 0,19.129 0,0.004 c 0,2.156 -1.749,3.905 -3.907,3.905 l 0,0 -20.328,0 0,0 z m -2.469,-23.038 0,19.133 c 0.002,1.364 1.104,2.466 2.469,2.471 l 0,0 20.328,0 c 1.364,-0.005 2.469,-1.108 2.471,-2.471 l 0,0 0,-0.004 0,-19.129 c -0.002,-1.362 -1.106,-2.468 -2.471,-2.47 l 0,0 -20.328,0 c -1.362,0.001 -2.467,1.107 -2.469,2.47 l 0,0 z"
             inkscape:connector-curvature="0"
             style="fill:#f4f4f4" /><path
             d="m 331.039,168.511 c -5.818,0 -10.532,4.737 -10.532,10.555 0,5.817 4.715,10.532 10.532,10.532 5.817,0 10.557,-4.715 10.557,-10.532 0,-5.818 -4.739,-10.555 -10.557,-10.555 z m 0,1.437 c 5.041,0 9.119,4.076 9.119,9.118 0,5.041 -4.077,9.095 -9.119,9.095 -5.041,0 -9.095,-4.054 -9.095,-9.095 0,-5.041 4.054,-9.118 9.095,-9.118 z"
             id="circle93"
             inkscape:connector-curvature="0"
             style="fill:#f4f4f4" /></g></g></g></g></svg>