<?xml version="1.0" encoding="UTF-8" standalone="no"?>
<!-- Generator: Adobe Illustrator 13.0.0, SVG Export Plug-In . SVG Version: 6.00 Build 14948)  -->

<svg
   xmlns:dc="http://purl.org/dc/elements/1.1/"
   xmlns:cc="http://creativecommons.org/ns#"
   xmlns:rdf="http://www.w3.org/1999/02/22-rdf-syntax-ns#"
   xmlns:svg="http://www.w3.org/2000/svg"
   xmlns="http://www.w3.org/2000/svg"
   xmlns:sodipodi="http://sodipodi.sourceforge.net/DTD/sodipodi-0.dtd"
   xmlns:inkscape="http://www.inkscape.org/namespaces/inkscape"
   version="1.1"
   id="Layer_2"
   x="0px"
   y="0px"
   width="550"
   height="550"
   viewBox="0 0 549.99995 549.99999"
   enable-background="new 0 0 598.189 350.26"
   xml:space="preserve"
   inkscape:version="0.91 r13725"
   sodipodi:docname="controller_gg.svg"><metadata
     id="metadata3083"><rdf:RDF><cc:Work
         rdf:about=""><dc:format>image/svg+xml</dc:format><dc:type
           rdf:resource="http://purl.org/dc/dcmitype/StillImage" /><dc:title></dc:title></cc:Work></rdf:RDF></metadata><defs
     id="defs3081" /><sodipodi:namedview
     pagecolor="#ffffff"
     bordercolor="#666666"
     borderopacity="1"
     objecttolerance="10"
     gridtolerance="10"
     guidetolerance="10"
     inkscape:pageopacity="0"
     inkscape:pageshadow="2"
     inkscape:window-width="1920"
     inkscape:window-height="1001"
     id="namedview3079"
     showgrid="false"
     inkscape:zoom="1.0799262"
     inkscape:cx="248.77122"
     inkscape:cy="298.43665"
     inkscape:window-x="-9"
     inkscape:window-y="-9"
     inkscape:window-maximized="1"
     inkscape:current-layer="g12192"
     showguides="true"
     inkscape:guide-bbox="true" /><g
     inkscape:groupmode="layer"
     id="layer2"
     inkscape:label="Screen_Rect"
     style="display:none"
     transform="translate(0,199.73999)"
     sodipodi:insensitive="true"><path
       style="fill:#0000ff;stroke:#000000;stroke-width:1px;stroke-linecap:butt;stroke-linejoin:miter;stroke-opacity:1"
       d="M 5.0135033,547.22203 136.4109,114.39023 653.54628,-189.09358 406.482,260.92121 Z"
       id="path3021"
       inkscape:connector-curvature="0"
       transform="translate(-2e-5,-199.73999)"
       sodipodi:nodetypes="ccccc" /><rect
       style="opacity:0.60100002;fill:#d8201f;fill-opacity:1;stroke:#ff8080;stroke-width:2.45114732;stroke-linecap:round;stroke-linejoin:round;stroke-miterlimit:4;stroke-dasharray:none;stroke-opacity:1"
       id="rect4230"
       width="444.2457"
       height="9.9567661"
       x="145.95099"
       y="-211.30678" /></g><g
     inkscape:groupmode="layer"
     id="layer1"
     inkscape:label="Controller_Vorlage"
     style="display:none"
     sodipodi:insensitive="true"><g
       id="g4929"
       transform="translate(-0.929149,0.5695451)"><g
         transform="translate(0,199.73999)"
         style="display:none"
         inkscape:label="Layer2"
         id="layer2-9"><path
           sodipodi:nodetypes="ccccc"
           transform="translate(-2e-5,-199.73999)"
           inkscape:connector-curvature="0"
           id="path3021-0"
           d="M 5.0135033,547.22203 136.4109,114.39023 653.54628,-189.09358 406.482,260.92121 Z"
           style="fill:#ffffff;stroke:#000000;stroke-width:1px;stroke-linecap:butt;stroke-linejoin:miter;stroke-opacity:1" /></g><g
         inkscape:label="Layer"
         id="layer1-2"><g
           transform="matrix(0.55322035,-0.3970343,-0.34863416,0.85569517,173.63773,166.52161)"
           id="g3100"><path
             style="fill:#f4f4f4"
             inkscape:connector-curvature="0"
             id="path3"
             d="m 148.05,114.447 c -23.656,0 -42.861,19.204 -42.861,42.861 l 0,37.414 c 0,23.658 19.205,42.86 42.861,42.86 l 38.694,0 c 23.656,0 42.861,-19.202 42.861,-42.86 l 0,-37.414 c 0,-23.657 -19.205,-42.861 -42.861,-42.861 l -38.694,0 z m 0,1.905 38.694,0 c 22.627,0 40.956,18.328 40.956,40.956 l 0,37.414 c 0,22.629 -18.329,40.956 -40.956,40.956 l -38.694,0 c -22.628,0 -40.956,-18.327 -40.956,-40.956 l 0,-37.414 c 0,-22.629 18.328,-40.956 40.956,-40.956 z" /><path
             style="fill:#f4f4f4"
             inkscape:connector-curvature="0"
             id="path5"
             d="m 167.395,123.168 c -3.23,0 -5.863,2.633 -5.863,5.864 l 0,13.037 c 0,3.23 2.632,5.863 5.863,5.863 3.23,0 5.863,-2.633 5.863,-5.863 l 0,-13.037 c 0,-3.23 -2.633,-5.864 -5.863,-5.864 z m 0,1.906 c 2.201,0 3.958,1.758 3.958,3.958 l 0,13.037 c 0,2.2 -1.758,3.958 -3.958,3.958 -2.202,0 -3.958,-1.758 -3.958,-3.958 l 0,-13.037 c -0.001,-2.2 1.757,-3.958 3.958,-3.958 z" /><path
             style="fill:#f4f4f4"
             inkscape:connector-curvature="0"
             id="path7"
             d="m 120.425,170.135 c -3.23,0 -5.864,2.633 -5.864,5.864 0,3.231 2.632,5.894 5.864,5.894 l 13.037,0 c 3.229,0 5.864,-2.662 5.864,-5.894 0,-3.229 -2.633,-5.864 -5.864,-5.864 l -13.037,0 z m 0,1.905 13.037,0 c 2.201,0 3.959,1.759 3.959,3.959 0,2.201 -1.759,3.988 -3.959,3.988 l -13.037,0 c -2.198,-0.01 -3.955,-1.791 -3.955,-3.99 0,-2.201 1.758,-3.959 3.958,-3.959 l -0.003,0.002 z" /><path
             style="fill:#f4f4f4"
             inkscape:connector-curvature="0"
             id="path9"
             d="m 167.395,204.071 c -3.23,0 -5.863,2.663 -5.863,5.894 l 0,13.038 c 0,3.229 2.632,5.863 5.863,5.863 3.23,0 5.863,-2.633 5.863,-5.863 l 0,-13.038 c 0,-3.23 -2.633,-5.894 -5.863,-5.894 z m 0,1.906 c 2.201,0 3.958,1.789 3.958,3.988 l 0,13.038 c 0,2.2 -1.757,3.958 -3.958,3.958 -2.202,0 -3.958,-1.759 -3.958,-3.958 l 0,-13.038 c -0.001,-2.2 1.757,-3.988 3.958,-3.988 z" /><path
             style="fill:#f4f4f4"
             inkscape:connector-curvature="0"
             id="path11"
             d="m 201.321,170.135 c -3.229,0 -5.863,2.633 -5.863,5.864 0,3.231 2.633,5.894 5.863,5.894 l 13.067,0 c 3.229,0 5.863,-2.662 5.863,-5.894 0,-3.229 -2.633,-5.864 -5.863,-5.864 l -13.067,0 z m 0,1.905 13.067,0 c 2.2,0 3.958,1.76 3.958,3.959 0,2.201 -1.758,3.988 -3.958,3.988 l -13.067,0 c -2.2,0 -3.958,-1.788 -3.958,-3.988 0,-2.2 1.759,-3.959 3.958,-3.959 z" /><path
             style="fill:#f4f4f4"
             inkscape:connector-curvature="0"
             id="polygon13"
             d="m 133.878,141.176 -1.31,1.31 8.155,12.025 0.655,0.952 0.804,-0.803 3.869,-3.87 0.804,-0.804 -0.953,-0.655 -12.024,-8.155 z" /><path
             style="fill:#f4f4f4"
             inkscape:connector-curvature="0"
             id="polygon15"
             d="m 141.383,196.566 -0.654,0.952 -8.156,12.024 1.31,1.31 12.025,-8.155 0.953,-0.654 -0.804,-0.804 -3.87,-3.869 -0.804,-0.804 z" /><path
             style="fill:#f4f4f4"
             inkscape:connector-curvature="0"
             id="polygon17"
             d="m 193.435,196.566 -0.804,0.804 -3.869,3.869 -0.833,0.804 0.953,0.654 12.025,8.155 1.339,-1.31 -8.156,-12.024 -0.655,-0.952 0,0 z" /><path
             style="fill:#f4f4f4"
             inkscape:connector-curvature="0"
             id="polygon19"
             d="m 200.912,141.176 -12.025,8.155 -0.953,0.655 0.833,0.804 3.87,3.87 0.804,0.803 0.655,-0.952 8.155,-12.025 -1.339,-1.31 z" /><path
             style="fill:#f4f4f4"
             inkscape:connector-curvature="0"
             id="path21"
             d="m 146.354,104.833 c -27.67,0 -50.123,22.453 -50.123,50.124 l 0,42.117 c 0,27.671 22.453,50.123 50.123,50.123 l 42.117,0 c 27.671,0 50.124,-22.452 50.124,-50.123 l 0,-42.117 c 0,-27.67 -22.452,-50.124 -50.124,-50.124 l -42.117,0 z m 0,1.906 42.117,0 c 26.644,0 48.219,21.577 48.219,48.218 l 0,42.117 c 0,26.644 -21.577,48.218 -48.219,48.218 l -42.117,0 c -26.642,0 -48.218,-21.574 -48.218,-48.218 l 0,-42.117 c 0,-26.642 21.577,-48.218 48.218,-48.218 z" /><path
             style="fill:#f4f4f4"
             inkscape:connector-curvature="0"
             id="polygon23"
             d="m 69.499,75.694 0,0.952 0,202.961 0,0.952 0.953,0 196.122,0 0.952,0 0,-0.952 0,-26.401 289.521,0 0.952,0 0,-0.952 0,-113.458 0,-0.953 -0.952,0 -289.522,0 0,-61.196 0,-0.952 -0.952,0 -196.122,0 -0.952,-10e-4 0,0 z m 1.904,1.905 194.217,0 0,61.196 0,0.953 0.953,0 0.714,0 288.807,0 0,111.552 -289.226,0 -0.297,0 -0.953,0 0,0.953 0,26.4 -194.217,0 0,-201.055 0.002,0.001 z" /><path
             style="fill:#f4f4f4"
             inkscape:connector-curvature="0"
             id="circle25"
             d="m 400.692,169.126 c -19.762,0 -35.777,16.046 -35.777,35.807 0,19.761 16.018,35.807 35.777,35.807 19.759,0 35.807,-16.046 35.807,-35.807 0,-19.761 -16.047,-35.807 -35.807,-35.807 l 0,0 z m 0,1.905 c 18.73,0 33.901,15.17 33.901,33.902 0,18.732 -15.171,33.902 -33.901,33.902 -18.731,0 -33.872,-15.171 -33.872,-33.902 0,-18.731 15.141,-33.902 33.872,-33.902 l 0,0 z" /><path
             style="fill:#f4f4f4"
             inkscape:connector-curvature="0"
             id="circle27"
             d="m 400.692,177.669 c -15.039,0 -27.234,12.227 -27.234,27.265 0,15.038 12.195,27.234 27.234,27.234 15.036,0 27.264,-12.196 27.264,-27.234 0,-15.038 -12.227,-27.265 -27.264,-27.265 z m 0,1.905 c 14.008,0 25.359,11.351 25.359,25.359 0,14.008 -11.352,25.33 -25.359,25.33 -14.01,0 -25.33,-11.321 -25.33,-25.33 0,-14.009 11.321,-25.359 25.33,-25.359 z" /><path
             style="fill:#f4f4f4"
             inkscape:connector-curvature="0"
             id="circle29"
             d="m 489.919,169.126 c -19.762,0 -35.807,16.046 -35.807,35.807 0,19.761 16.045,35.807 35.807,35.807 19.76,0 35.807,-16.046 35.807,-35.807 0,-19.761 -16.047,-35.807 -35.807,-35.807 l 0,0 z m 0,1.905 c 18.73,0 33.901,15.17 33.901,33.902 0,18.732 -15.171,33.902 -33.901,33.902 -18.731,0 -33.902,-15.171 -33.902,-33.902 0,-18.731 15.171,-33.902 33.902,-33.902 l 0,0 z" /><path
             style="fill:#f4f4f4"
             inkscape:connector-curvature="0"
             id="circle31"
             d="m 489.919,177.669 c -15.039,0 -27.234,12.227 -27.234,27.265 0,15.038 12.195,27.234 27.234,27.234 15.036,0 27.234,-12.196 27.234,-27.234 0,-15.038 -12.196,-27.265 -27.234,-27.265 z m 0,1.905 c 14.008,0 25.329,11.351 25.329,25.359 0,14.008 -11.321,25.33 -25.329,25.33 -14.01,0 -25.33,-11.321 -25.33,-25.33 0,-14.009 11.32,-25.359 25.33,-25.359 z" /><path
             style="fill:#f4f4f4"
             inkscape:connector-curvature="0"
             id="path33"
             d="m 39.406,68.432 c -4.766,0 -8.662,3.896 -8.662,8.662 l 0,203.084 c 0,4.766 3.897,8.661 8.662,8.661 l 518.646,0 c 4.429,0 7.956,-3.411 8.453,-7.709 l 0.179,0 0,-0.952 0,-203.085 c 0,-4.762 -3.868,-8.658 -8.64,-8.658 l -518.645,0 0.007,-0.003 z m 0,1.904 518.646,0 c 3.737,0 6.727,3.021 6.727,6.757 l 0,202.131 0,0.953 c 0,3.736 -2.989,6.756 -6.727,6.756 l -518.646,0 c -3.732,0.01 -6.753,-3.019 -6.753,-6.753 l 0,-203.083 c 0,-3.736 3.02,-6.756 6.756,-6.756 l -0.003,-0.005 z" /><path
             style="fill:#f4f4f4"
             inkscape:connector-curvature="0"
             id="rect35"
             d="m 359.021,163.559 0,0.953 0,81.465 0,0.952 0.953,0 81.465,0 0.953,0 0,-0.952 0,-81.465 0,-0.953 -0.953,0 -81.465,0 -0.953,0 z m 1.906,1.905 79.561,0 0,79.56 -79.561,0 0,-79.56 z" /><path
             style="fill:#f4f4f4"
             inkscape:connector-curvature="0"
             id="rect37"
             d="m 448.248,163.559 0,0.953 0,81.465 0,0.952 0.953,0 81.436,0 0.952,0 0,-0.952 0,-81.465 0,-0.953 -0.952,0 -81.436,0 -0.953,0 z m 1.905,1.905 79.531,0 0,79.56 -79.531,0 0,-79.56 z" /><path
             style="fill:#f4f4f4"
             inkscape:connector-curvature="0"
             id="polyline39"
             d="m 83.934,94.177 0,2.292 0,159.061 0,2.322 1.607,-1.638 25.33,-25.299 -1.369,-1.369 -23.663,23.692 0,-154.45 23.663,23.658 1.369,-1.34 -25.33,-25.299 -1.607,-1.637 0,0.007 z" /><path
             style="fill:#f4f4f4"
             inkscape:connector-curvature="0"
             id="polyline41"
             d="m 222.305,232.551 -1.37,1.339 23.693,23.692 -154.452,0 23.574,-23.573 -1.369,-1.339 -25.181,25.182 -1.637,1.637 2.292,0 159.062,0 2.292,0 -1.607,-1.637 -25.299,-25.3 0.002,-0.001 z" /><path
             style="fill:#f4f4f4"
             inkscape:connector-curvature="0"
             id="polyline43"
             d="m 250.878,94.177 -1.637,1.637 -25.211,25.182 1.369,1.369 23.574,-23.603 0,154.509 -23.633,-23.663 -1.339,1.34 25.24,25.27 1.637,1.638 0,-2.322 0,-159.063 0,-2.292 0,-0.002 z" /><path
             style="fill:#f4f4f4"
             inkscape:connector-curvature="0"
             id="polyline45"
             d="m 85.57,92.54 1.638,1.608 25.21,25.24 1.339,-1.34 -23.572,-23.602 154.452,0 -23.669,23.662 1.333,1.339 25.307,-25.3 1.607,-1.607 -2.292,0 -159.062,0 -2.291,0 0,0 z" /><path
             style="fill:#f4f4f4"
             inkscape:connector-curvature="0"
             id="line47"
             d="m 58.961,69.533 0,218.057 1.905,0 0,-218.057 -1.905,0 z" /><path
             style="fill:#f4f4f4"
             inkscape:connector-curvature="0"
             id="rect49"
             d="m 359.021,145.819 0,0.953 0,13.244 0,0.953 0.953,0 81.465,0 0.953,0 0,-0.953 0,-13.244 0,-0.953 -0.953,0 -81.465,0 -0.953,0 z m 1.906,1.905 79.561,0 0,11.339 -79.561,0 0,-11.339 z" /><path
             style="fill:#f4f4f4"
             inkscape:connector-curvature="0"
             id="rect51"
             d="m 448.248,145.819 0,0.953 0,13.244 0,0.953 0.953,0 81.436,0 0.952,0 0,-0.953 0,-13.244 0,-0.953 -0.952,0 -81.436,0 -0.953,0 z m 1.905,1.905 79.531,0 0,11.339 -79.531,0 0,-11.339 z" /><path
             style="fill:#f4f4f4"
             inkscape:connector-curvature="0"
             id="path53"
             d="m 276.804,73.134 c -0.987,0 -1.815,0.828 -1.815,1.816 l 0,53.01 c 0,0.988 0.829,1.815 1.815,1.815 l 282.855,0 c 0.985,0 1.785,-0.831 1.785,-1.815 l 0,-50.033 c 0,-2.641 -2.152,-4.792 -4.792,-4.792 l -279.844,0 -0.004,0 z m 0.09,1.906 279.756,0 c 1.613,0 2.888,1.275 2.888,2.887 l 0,49.945 -282.643,0 0,-52.832 -10e-4,0 z" /><path
             style="fill:#f4f4f4"
             inkscape:connector-curvature="0"
             id="path55"
             d="m 276.804,260.41 c -0.987,0 -1.815,0.829 -1.815,1.815 l 0,20.091 c 0,0.987 0.829,1.816 1.815,1.816 l 279.844,0 c 2.64,0 4.792,-2.183 4.792,-4.822 l 0,-17.085 c 0,-0.985 -0.8,-1.815 -1.785,-1.815 l -282.855,0 0.004,0 z m 0.09,1.905 282.645,0 0,16.995 c 0,1.611 -1.276,2.917 -2.888,2.917 l -279.758,0 0.001,-19.912 0,0 z" /><path
             style="fill:#f4f4f4"
             inkscape:connector-curvature="0"
             id="line57"
             d="m 274.461,129.271 -6.28,6.28 1.369,1.339 6.251,-6.25 -1.34,-1.369 z" /><path
             style="fill:#f4f4f4"
             inkscape:connector-curvature="0"
             id="line59"
             d="m 269.546,253.866 -1.369,1.34 6.281,6.28 1.339,-1.369 -6.251,-6.251 z" /></g></g></g></g><g
     inkscape:groupmode="layer"
     id="layer4"
     inkscape:label="Controller"><g
       id="g12192"
       transform="matrix(0.52634968,-0.38371487,-0.36199415,0.79024751,151.0404,222.06172)"><g
         id="g14017"
         transform="matrix(0.77049788,0.0524768,0.32548358,0.89402577,131.25415,-78.923143)"><path
           d="M 11.281,0 C 5.0668,0 0,5.0668 0,11.281 l 0,395.84 c 0,6.2145 5.0668,11.25 11.281,11.25 l 299.56,0 c 6.2145,0 11.281,-5.0355 11.281,-11.25 l 0,-1 0,-394.84 c 0,-6.2131 -5.06,-11.28 -11.28,-11.28 l -299.56,0 z m 0,2 299.56,0 c 5.1346,0 9.2812,4.1476 9.2812,9.2812 l 0,395.84 c 0,5.1335 -4.1477,9.25 -9.2812,9.25 l -299.56,0 c -5.1323,0.01 -9.28,-4.11 -9.28,-9.25 l 0,-395.84 c 0,-5.1333 4.1477,-9.281 9.281,-9.281 z"
           style="color:#000000;text-indent:0;text-align:start;text-transform:none;direction:ltr;block-progression:tb;baseline-shift:baseline;fill:#f4f4f4;enable-background:accumulate"
           id="path3-0"
           inkscape:connector-curvature="0" /><path
           d="M 55.344,31.906 C 44.948,31.906 36.5,40.354 36.5,50.75 l 0,65.5 0,1 1,0 85.906,0 1,0 0,-1 0,-83.344 0,-1 -1,0 -68.062,0 z m 0,2 67.062,0 0,81.344 -83.906,0 0,-64.5 c 0,-9.3156 7.5292,-16.844 16.844,-16.844 z"
           style="color:#000000;text-indent:0;text-align:start;text-transform:none;direction:ltr;block-progression:tb;baseline-shift:baseline;fill:#f4f4f4;enable-background:accumulate"
           id="path5-9"
           inkscape:connector-curvature="0" /><path
           d="m 126.19,31.906 0,1 0,85.719 -88.406,0 -1,0 0,1 0,245.84 c 0,10.396 8.4483,18.844 18.844,18.844 l 210.88,0 c 10.398,0 18.844,-8.4484 18.844,-18.844 l 0,-314.72 c 0,-10.396 -8.4464,-18.844 -18.844,-18.844 l -139.31,0 -1,0 z m 2,2 138.31,0 c 9.3167,0 16.844,7.5281 16.844,16.844 l 0,314.72 c 0,9.3146 -7.5261,16.844 -16.844,16.844 l -210.88,0 c -9.3146,0 -16.844,-7.5282 -16.844,-16.844 l 0,-244.84 88.406,0 1,0 0,-1 0,-85.719 z"
           style="color:#000000;text-indent:0;text-align:start;text-transform:none;direction:ltr;block-progression:tb;baseline-shift:baseline;fill:#f4f4f4;enable-background:accumulate"
           id="path7-9"
           inkscape:connector-curvature="0" /><path
           d="m 60.75,123.34 c -6.8129,0.002 -12.343,5.5307 -12.344,12.344 l 0,147.91 c 0.0022,6.812 5.5307,12.344 12.344,12.344 l 200.62,0 c 6.8112,-10e-4 12.343,-5.5314 12.344,-12.344 l 0,-147.91 c -10e-4,-6.8132 -5.5326,-12.343 -12.344,-12.344 l -200.62,0 z m 0,2 200.62,0 c 5.7202,9.1e-4 10.326,4.6257 10.344,10.344 3e-5,0.0106 0,0.0206 0,0.0312 l 0,147.88 c -9.1e-4,5.7317 -4.6129,10.343 -10.344,10.344 l -200.62,0 c -5.7329,0 -10.342,-4.6118 -10.344,-10.344 l 0,-147.88 0,-0.0312 c 0.01796,-5.7183 4.6213,-10.342 10.344,-10.344 z m 0,2.3438 c -4.4204,0.008 -8.0233,3.5787 -8.0312,8 l 0,147.91 c 0.0091,4.4203 3.6113,8.0221 8.0312,8.0312 l 200.62,0 c 4.4191,-0.009 8.0221,-3.611 8.0312,-8.0312 l 0,-147.91 c -0.009,-4.4212 -3.6118,-7.992 -8.0312,-8 l -200.62,0 z m 0,2 200.62,0 c 3.332,0.006 6.0075,2.67 6.0312,6 8e-5,0.0106 -2e-5,0.0207 0,0.0312 l 0,147.88 c -0.007,3.3437 -2.6883,6.0244 -6.0312,6.0312 l -200.62,0 c -3.344,-0.007 -6.0244,-2.6876 -6.0312,-6.0312 l 0,-147.88 c 1.9e-5,-0.0105 -7.2e-5,-0.0207 0,-0.0312 0.0228,-3.33 2.6982,-5.994 6.0312,-6 z"
           style="color:#000000;text-indent:0;text-align:start;text-transform:none;direction:ltr;block-progression:tb;baseline-shift:baseline;fill:#f4f4f4;enable-background:accumulate"
           id="path9-3"
           inkscape:connector-curvature="0" /><path
           d="m 161.06,147.91 c -3.0258,0 -6.0407,1.1657 -8.3438,3.4688 l -5.4062,5.375 c -3.493,3.6534 -5.4397,4.75 -11.656,4.75 l -7.4375,0 c -6.5134,0 -11.812,5.2992 -11.812,11.812 l 0,7.0312 c 0,3.0815 -0.1571,4.9634 -0.71875,6.5312 -0.56165,1.5679 -1.5637,2.9447 -3.5312,5.0312 l -5.9,5.9 c -4.6063,4.6052 -4.6063,12.114 0,16.719 l 5.6562,5.6562 0.0312,0 0,0.0312 c 1.813,1.6021 2.869,2.8513 3.5312,4.6875 0.66223,1.8362 0.9375,4.3572 0.9375,8.4375 l 0,5.6875 c 0,6.5143 5.3001,11.812 11.812,11.812 l 7.0312,0 c 6.5893,0 8.7228,1.4852 12.031,4.6875 l 5.4375,5.4375 c 4.6061,4.6061 12.081,4.6061 16.688,0 l 5.125,-5.0938 c 2.117,-2.1305 3.4181,-3.3585 4.9375,-4.0625 1.5194,-0.70399 3.4089,-0.96875 6.875,-0.96875 l 7.5625,0 c 6.5143,0 11.812,-5.2991 11.812,-11.812 l 0,-6.9062 c 0,-3.9733 0.50503,-6.3695 1.4688,-8.25 0.96372,-1.8805 2.4622,-3.3333 4.6875,-5.3438 l 0.0312,-0.0312 3.9688,-3.9688 c 4.6061,-4.6061 4.6063,-12.114 0,-16.719 l -4.3125,-4.3125 -0.0312,-0.0312 c -2.1217,-1.8392 -3.5341,-3.171 -4.4375,-5 -0.90339,-1.829 -1.375,-4.2576 -1.375,-8.375 l 0,-6.7812 c 0,-6.5144 -5.2992,-11.812 -11.812,-11.812 l -7.5625,0 c -3.4271,4.9e-4 -5.4732,-0.45122 -7.1562,-1.3125 -1.6831,-0.86128 -3.0751,-2.1911 -5.0625,-4.125 l -4.7188,-4.6875 c -2.303,-2.303 -5.318,-3.4688 -8.3438,-3.4688 z m 0,2 c 2.5097,0 5.0165,0.95403 6.9375,2.875 l 4.7188,4.6875 0,0.0312 c 1.9876,1.9341 3.5351,3.4313 5.5625,4.4688 2.0274,1.0375 4.4586,1.5318 8.0625,1.5312 l 7.5625,0 c 5.4327,0 9.8125,4.379 9.8125,9.8125 l 0,6.7812 c 0,4.2656 0.49739,7.0303 1.5938,9.25 1.087,2.2008 2.7191,3.7502 4.8438,5.5938 0.0183,0.0159 0.0441,0.0153 0.0625,0.0312 l 4.25,4.25 c 3.8417,3.8408 3.8419,10.064 0,13.906 l -3.9375,3.9062 -0.0312,0.0312 c -2.2312,2.0167 -3.9451,3.665 -5.0938,5.9062 -1.1548,2.2533 -1.6875,5.0186 -1.6875,9.1562 l 0,6.9062 c 0,5.4326 -4.3788,9.8125 -9.8125,9.8125 l -7.5625,0 c -3.5659,0 -5.7969,0.26574 -7.7188,1.1562 -1.9219,0.89051 -3.372,2.3272 -5.5,4.4688 l -5.11,5.08 c -3.8419,3.8419 -10.033,3.8419 -13.875,0 l -5.4375,-5.4375 -0.0312,0 0,-0.0312 c -3.4236,-3.3137 -6.4755,-5.25 -13.406,-5.25 l -7.0312,0 c -5.4316,0 -9.8125,-4.3788 -9.8125,-9.8125 l 0,-5.6875 c 0,-4.1657 -0.26398,-6.9109 -1.0625,-9.125 -0.79353,-2.2002 -2.1322,-3.7858 -4.0312,-5.4688 l -0.0312,-0.0312 -5.625,-5.5938 c -3.8417,-3.8408 -3.8417,-10.065 0,-13.906 l 5.9375,-5.9062 0.0312,-0.0312 c 2.0344,-2.1574 3.2734,-3.7776 3.9688,-5.7188 0.69535,-1.9411 0.8125,-4.0822 0.8125,-7.2188 l 0,-7.0312 c 0,-5.4327 4.3799,-9.8125 9.8125,-9.8125 l 7.4375,0 c 6.4935,0 9.4467,-1.5292 13.094,-5.3438 l 5.375,-5.375 c 1.921,-1.921 4.4278,-2.875 6.9375,-2.875 z"
           style="color:#000000;text-indent:0;text-align:start;text-transform:none;direction:ltr;block-progression:tb;baseline-shift:baseline;fill:#f4f4f4;enable-background:accumulate"
           id="path11-0"
           inkscape:connector-curvature="0" /><path
           d="m 161.06,154.22 c -2.7209,1e-5 -5.4304,1.0236 -7.5,3.0938 l -4.8125,4.8125 c -3.1012,3.2417 -4.796,4.1875 -10.312,4.1875 l -6.5938,0 c -5.8555,0 -10.625,4.7694 -10.625,10.625 l 0,6.25 c 0,2.7396 -0.13285,4.4067 -0.625,5.7812 -0.49215,1.3746 -1.3775,2.585 -3.125,4.4375 l -5.25,5.25 c -4.1402,4.1402 -4.1402,10.891 0,15.031 l 5.0312,5.0312 0,0.0312 0.0312,0 c 1.6076,1.4211 2.5121,2.5117 3.0938,4.125 0.58164,1.6133 0.84375,3.8419 0.84375,7.4688 l 0,5.0625 c 0,5.8564 4.7687,10.625 10.625,10.625 l 6.25,0 c 5.8451,0 7.6895,1.3149 10.625,4.1562 l 4.8438,4.8438 c 4.14,4.1423 10.859,4.1421 15,0 l 4.5625,-4.5625 c 1.8824,-1.8954 3.0139,-2.9775 4.3438,-3.5938 1.3299,-0.61624 3.0162,-0.84375 6.0938,-0.84375 l 6.75,0 c 5.8554,0 10.594,-4.7687 10.594,-10.625 l 0,-6.125 c 0,-3.5273 0.43398,-5.6287 1.2812,-7.2812 0.84727,-1.6525 2.1764,-2.962 4.1562,-4.75 l 0.0312,-0.0312 3.5312,-3.5312 c 4.139,-4.1412 4.1391,-10.891 0,-15.031 l -3.8125,-3.8125 -0.0312,-0.0312 -0.0312,-0.0312 c -1.8867,-1.6357 -3.1129,-2.8002 -3.9062,-4.4062 -0.79339,-1.606 -1.2188,-3.7514 -1.2188,-7.4062 l 0,-6.0312 c 0,-5.8545 -4.7381,-10.625 -10.594,-10.625 l -6.75,0 c -3.039,4.9e-4 -4.8332,-0.3993 -6.3125,-1.1562 -1.474,-0.75426 -2.7109,-1.9458 -4.4688,-3.6562 l -0.0312,0 -4.1562,-4.1875 -0.0312,0 c -2.071,-2.0699 -4.7791,-3.0938 -7.5,-3.0938 z m 0,1.9688 c 2.2049,1e-5 4.4048,0.84317 6.0938,2.5312 l 4.1875,4.2188 0.0312,0 c 1.7681,1.7206 3.1453,3.067 4.9688,4 1.8234,0.93305 4.0028,1.3755 7.2188,1.375 l 6.75,0 c 4.7744,0 8.5938,3.8515 8.5938,8.625 l 0,6.0312 c 0,3.8031 0.41989,6.2846 1.4062,8.2812 0.98009,1.984 2.4762,3.3527 4.375,5 0.0122,0.0105 0.0191,0.0207 0.0312,0.0312 l 3.79,3.78 c 3.3749,3.3758 3.375,8.8419 0,12.219 l -3.5,3.47 c -2.0032,1.809 -3.5553,3.287 -4.5938,5.3125 -1.0385,2.0255 -1.5,4.5271 -1.5,8.2188 l 0,6.125 c 0,4.7757 -3.8191,8.625 -8.5938,8.625 l -6.75,0 c -3.1774,0 -5.1739,0.22849 -6.9062,1.0312 -1.7324,0.80276 -3.044,2.0934 -4.9375,4 l -4.5625,4.5625 c -3.377,3.3779 -8.8116,3.3777 -12.188,0 l -4.8438,-4.875 -0.0312,0 c -3.0505,-2.9526 -5.8131,-4.7188 -12,-4.7188 l -6.25,0 c -4.7757,0 -8.625,-3.8494 -8.625,-8.625 l 0,-5.0625 c 0,-3.7122 -0.25089,-6.1651 -0.96875,-8.1562 -0.71028,-1.9702 -1.9096,-3.3789 -3.5938,-4.875 l -0.0312,-0.0312 -5,-5 c -3.3758,-3.3758 -3.3758,-8.843 0,-12.219 l 5.2812,-5.25 0,-0.0312 c 1.8145,-1.9235 2.9366,-3.3771 3.5625,-5.125 0.62585,-1.7479 0.75,-3.6743 0.75,-6.4688 l 0,-6.25 c 0,-4.7744 3.8505,-8.625 8.625,-8.625 l 6.5938,0 c 5.7832,0 8.4717,-1.4233 11.719,-4.8125 l 0.0312,0 4.7812,-4.7812 c 1.6874,-1.6878 3.8889,-2.5313 6.0938,-2.5312 z"
           style="color:#000000;text-indent:0;text-align:start;text-transform:none;direction:ltr;block-progression:tb;baseline-shift:baseline;fill:#f4f4f4;enable-background:accumulate"
           id="path13"
           inkscape:connector-curvature="0" /><path
           d="m 161.06,177.22 c -15.971,0 -28.938,12.997 -28.938,28.969 0,15.971 12.966,28.938 28.938,28.938 15.971,0 28.938,-12.966 28.938,-28.938 0,-15.971 -12.966,-28.969 -28.938,-28.969 z m 0,2 c 14.89,0 26.938,12.078 26.938,26.969 0,14.89 -12.047,26.938 -26.938,26.938 -14.89,0 -26.938,-12.047 -26.938,-26.938 0,-14.89 12.047,-26.969 26.938,-26.969 z"
           style="color:#000000;text-indent:0;text-align:start;text-transform:none;direction:ltr;block-progression:tb;baseline-shift:baseline;fill:#f4f4f4;enable-background:accumulate"
           id="circle15"
           inkscape:connector-curvature="0" /><path
           d="m 161.06,186.97 c -10.595,0 -19.219,8.6234 -19.219,19.219 0,10.595 8.6234,19.188 19.219,19.188 10.595,0 19.219,-8.5922 19.219,-19.188 0,-10.595 -8.6234,-19.219 -19.219,-19.219 z m 0,2 c 9.5145,0 17.219,7.7043 17.219,17.219 0,9.5145 -7.7043,17.188 -17.219,17.188 -9.5145,0 -17.219,-7.673 -17.219,-17.188 0,-9.5145 7.7043,-17.219 17.219,-17.219 z"
           style="color:#000000;text-indent:0;text-align:start;text-transform:none;direction:ltr;block-progression:tb;baseline-shift:baseline;fill:#f4f4f4;enable-background:accumulate"
           id="circle17"
           inkscape:connector-curvature="0" /><path
           d="m 127.56,40.281 a 1.0011,1.0011 0 1 0 0.0937,2 l 136.69,0 c 5.4338,0 9.8125,4.3798 9.8125,9.8125 l 0,312.03 c 0,5.4315 -4.3799,9.8125 -9.8125,9.8125 l -206.56,0 c -5.4325,0 -9.8125,-4.3821 -9.8125,-9.8125 l 0,-244.44 a 1.0001,1.0001 0 1 0 -2,0 l 0,244.44 c 0,6.5116 5.299,11.812 11.812,11.812 l 206.56,0 c 6.5134,0 11.812,-5.3 11.812,-11.812 l 0,-312.03 c 0,-6.5133 -5.2983,-11.812 -11.812,-11.812 l -136.69,0 a 1.0001,1.0001 0 0 0 -0.0937,0 z"
           style="color:#000000;text-indent:0;text-align:start;text-transform:none;direction:ltr;block-progression:tb;baseline-shift:baseline;fill:#f4f4f4;enable-background:accumulate"
           id="path19"
           inkscape:connector-curvature="0" /><path
           d="m 57.781,40.281 c -6.5133,0 -11.812,5.2991 -11.812,11.812 l 0,64.188 a 1.0001,1.0001 0 1 0 2,0 l 0,-64.188 c 0,-5.4326 4.3798,-9.8125 9.8125,-9.8125 l 65.5,0 a 1.0001,1.0001 0 1 0 0,-2 l -65.5,0 z"
           style="color:#000000;text-indent:0;text-align:start;text-transform:none;direction:ltr;block-progression:tb;baseline-shift:baseline;fill:#f4f4f4;enable-background:accumulate"
           id="path21-7"
           inkscape:connector-curvature="0" /></g></g></g></svg>