<?xml version="1.0" encoding="UTF-8" standalone="no"?>
<!-- Generator: Adobe Illustrator 13.0.0, SVG Export Plug-In . SVG Version: 6.00 Build 14948)  -->

<svg
   xmlns:dc="http://purl.org/dc/elements/1.1/"
   xmlns:cc="http://creativecommons.org/ns#"
   xmlns:rdf="http://www.w3.org/1999/02/22-rdf-syntax-ns#"
   xmlns:svg="http://www.w3.org/2000/svg"
   xmlns="http://www.w3.org/2000/svg"
   xmlns:sodipodi="http://sodipodi.sourceforge.net/DTD/sodipodi-0.dtd"
   xmlns:inkscape="http://www.inkscape.org/namespaces/inkscape"
   version="1.1"
   id="Layer_2"
   x="0px"
   y="0px"
   width="550"
   height="550"
   viewBox="0 0 549.99995 549.99999"
   enable-background="new 0 0 598.189 350.26"
   xml:space="preserve"
   inkscape:version="0.91 r13725"
   sodipodi:docname="controller_gg.svg"><metadata
     id="metadata3083"><rdf:RDF><cc:Work
         rdf:about=""><dc:format>image/svg+xml</dc:format><dc:type
           rdf:resource="http://purl.org/dc/dcmitype/StillImage" /><dc:title></dc:title></cc:Work></rdf:RDF></metadata><defs
     id="defs3081" /><sodipodi:namedview
     pagecolor="#ffffff"
     bordercolor="#666666"
     borderopacity="1"
     objecttolerance="10"
     gridtolerance="10"
     guidetolerance="10"
     inkscape:pageopacity="0"
     inkscape:pageshadow="2"
     inkscape:window-width="1920"
     inkscape:window-height="1001"
     id="namedview3079"
     showgrid="false"
     inkscape:zoom="2.1598524"
     inkscape:cx="155.66171"
     inkscape:cy="345.98024"
     inkscape:window-x="-9"
     inkscape:window-y="-9"
     inkscape:window-maximized="1"
     inkscape:current-layer="g12192"
     showguides="true"
     inkscape:guide-bbox="true" /><g
     inkscape:groupmode="layer"
     id="layer2"
     inkscape:label="Screen_Rect"
     style="display:none"
     transform="translate(0,199.73999)"
     sodipodi:insensitive="true"><path
       style="fill:#0000ff;stroke:#000000;stroke-width:1px;stroke-linecap:butt;stroke-linejoin:miter;stroke-opacity:1"
       d="M 5.0135033,547.22203 136.4109,114.39023 653.54628,-189.09358 406.482,260.92121 Z"
       id="path3021"
       inkscape:connector-curvature="0"
       transform="translate(-2e-5,-199.73999)"
       sodipodi:nodetypes="ccccc" /><rect
       style="opacity:0.60100002;fill:#d8201f;fill-opacity:1;stroke:#ff8080;stroke-width:2.45114732;stroke-linecap:round;stroke-linejoin:round;stroke-miterlimit:4;stroke-dasharray:none;stroke-opacity:1"
       id="rect4230"
       width="444.2457"
       height="9.9567661"
       x="145.95099"
       y="-211.30678" /></g><g
     inkscape:groupmode="layer"
     id="layer1"
     inkscape:label="Controller_Vorlage"
     style="display:none"
     sodipodi:insensitive="true"><g
       id="g4929"
       transform="translate(-0.929149,0.5695451)"><g
         transform="translate(0,199.73999)"
         style="display:none"
         inkscape:label="Layer2"
         id="layer2-9"><path
           sodipodi:nodetypes="ccccc"
           transform="translate(-2e-5,-199.73999)"
           inkscape:connector-curvature="0"
           id="path3021-0"
           d="M 5.0135033,547.22203 136.4109,114.39023 653.54628,-189.09358 406.482,260.92121 Z"
           style="fill:#ffffff;stroke:#000000;stroke-width:1px;stroke-linecap:butt;stroke-linejoin:miter;stroke-opacity:1" /></g><g
         inkscape:label="Layer"
         id="layer1-2"><g
           transform="matrix(0.55322035,-0.3970343,-0.34863416,0.85569517,173.63773,166.52161)"
           id="g3100"><path
             style="fill:#f4f4f4"
             inkscape:connector-curvature="0"
             id="path3"
             d="m 148.05,114.447 c -23.656,0 -42.861,19.204 -42.861,42.861 l 0,37.414 c 0,23.658 19.205,42.86 42.861,42.86 l 38.694,0 c 23.656,0 42.861,-19.202 42.861,-42.86 l 0,-37.414 c 0,-23.657 -19.205,-42.861 -42.861,-42.861 l -38.694,0 z m 0,1.905 38.694,0 c 22.627,0 40.956,18.328 40.956,40.956 l 0,37.414 c 0,22.629 -18.329,40.956 -40.956,40.956 l -38.694,0 c -22.628,0 -40.956,-18.327 -40.956,-40.956 l 0,-37.414 c 0,-22.629 18.328,-40.956 40.956,-40.956 z" /><path
             style="fill:#f4f4f4"
             inkscape:connector-curvature="0"
             id="path5"
             d="m 167.395,123.168 c -3.23,0 -5.863,2.633 -5.863,5.864 l 0,13.037 c 0,3.23 2.632,5.863 5.863,5.863 3.23,0 5.863,-2.633 5.863,-5.863 l 0,-13.037 c 0,-3.23 -2.633,-5.864 -5.863,-5.864 z m 0,1.906 c 2.201,0 3.958,1.758 3.958,3.958 l 0,13.037 c 0,2.2 -1.758,3.958 -3.958,3.958 -2.202,0 -3.958,-1.758 -3.958,-3.958 l 0,-13.037 c -0.001,-2.2 1.757,-3.958 3.958,-3.958 z" /><path
             style="fill:#f4f4f4"
             inkscape:connector-curvature="0"
             id="path7"
             d="m 120.425,170.135 c -3.23,0 -5.864,2.633 -5.864,5.864 0,3.231 2.632,5.894 5.864,5.894 l 13.037,0 c 3.229,0 5.864,-2.662 5.864,-5.894 0,-3.229 -2.633,-5.864 -5.864,-5.864 l -13.037,0 z m 0,1.905 13.037,0 c 2.201,0 3.959,1.759 3.959,3.959 0,2.201 -1.759,3.988 -3.959,3.988 l -13.037,0 c -2.198,-0.01 -3.955,-1.791 -3.955,-3.99 0,-2.201 1.758,-3.959 3.958,-3.959 l -0.003,0.002 z" /><path
             style="fill:#f4f4f4"
             inkscape:connector-curvature="0"
             id="path9"
             d="m 167.395,204.071 c -3.23,0 -5.863,2.663 -5.863,5.894 l 0,13.038 c 0,3.229 2.632,5.863 5.863,5.863 3.23,0 5.863,-2.633 5.863,-5.863 l 0,-13.038 c 0,-3.23 -2.633,-5.894 -5.863,-5.894 z m 0,1.906 c 2.201,0 3.958,1.789 3.958,3.988 l 0,13.038 c 0,2.2 -1.757,3.958 -3.958,3.958 -2.202,0 -3.958,-1.759 -3.958,-3.958 l 0,-13.038 c -0.001,-2.2 1.757,-3.988 3.958,-3.988 z" /><path
             style="fill:#f4f4f4"
             inkscape:connector-curvature="0"
             id="path11"
             d="m 201.321,170.135 c -3.229,0 -5.863,2.633 -5.863,5.864 0,3.231 2.633,5.894 5.863,5.894 l 13.067,0 c 3.229,0 5.863,-2.662 5.863,-5.894 0,-3.229 -2.633,-5.864 -5.863,-5.864 l -13.067,0 z m 0,1.905 13.067,0 c 2.2,0 3.958,1.76 3.958,3.959 0,2.201 -1.758,3.988 -3.958,3.988 l -13.067,0 c -2.2,0 -3.958,-1.788 -3.958,-3.988 0,-2.2 1.759,-3.959 3.958,-3.959 z" /><path
             style="fill:#f4f4f4"
             inkscape:connector-curvature="0"
             id="polygon13"
             d="m 133.878,141.176 -1.31,1.31 8.155,12.025 0.655,0.952 0.804,-0.803 3.869,-3.87 0.804,-0.804 -0.953,-0.655 -12.024,-8.155 z" /><path
             style="fill:#f4f4f4"
             inkscape:connector-curvature="0"
             id="polygon15"
             d="m 141.383,196.566 -0.654,0.952 -8.156,12.024 1.31,1.31 12.025,-8.155 0.953,-0.654 -0.804,-0.804 -3.87,-3.869 -0.804,-0.804 z" /><path
             style="fill:#f4f4f4"
             inkscape:connector-curvature="0"
             id="polygon17"
             d="m 193.435,196.566 -0.804,0.804 -3.869,3.869 -0.833,0.804 0.953,0.654 12.025,8.155 1.339,-1.31 -8.156,-12.024 -0.655,-0.952 0,0 z" /><path
             style="fill:#f4f4f4"
             inkscape:connector-curvature="0"
             id="polygon19"
             d="m 200.912,141.176 -12.025,8.155 -0.953,0.655 0.833,0.804 3.87,3.87 0.804,0.803 0.655,-0.952 8.155,-12.025 -1.339,-1.31 z" /><path
             style="fill:#f4f4f4"
             inkscape:connector-curvature="0"
             id="path21"
             d="m 146.354,104.833 c -27.67,0 -50.123,22.453 -50.123,50.124 l 0,42.117 c 0,27.671 22.453,50.123 50.123,50.123 l 42.117,0 c 27.671,0 50.124,-22.452 50.124,-50.123 l 0,-42.117 c 0,-27.67 -22.452,-50.124 -50.124,-50.124 l -42.117,0 z m 0,1.906 42.117,0 c 26.644,0 48.219,21.577 48.219,48.218 l 0,42.117 c 0,26.644 -21.577,48.218 -48.219,48.218 l -42.117,0 c -26.642,0 -48.218,-21.574 -48.218,-48.218 l 0,-42.117 c 0,-26.642 21.577,-48.218 48.218,-48.218 z" /><path
             style="fill:#f4f4f4"
             inkscape:connector-curvature="0"
             id="polygon23"
             d="m 69.499,75.694 0,0.952 0,202.961 0,0.952 0.953,0 196.122,0 0.952,0 0,-0.952 0,-26.401 289.521,0 0.952,0 0,-0.952 0,-113.458 0,-0.953 -0.952,0 -289.522,0 0,-61.196 0,-0.952 -0.952,0 -196.122,0 -0.952,-10e-4 0,0 z m 1.904,1.905 194.217,0 0,61.196 0,0.953 0.953,0 0.714,0 288.807,0 0,111.552 -289.226,0 -0.297,0 -0.953,0 0,0.953 0,26.4 -194.217,0 0,-201.055 0.002,0.001 z" /><path
             style="fill:#f4f4f4"
             inkscape:connector-curvature="0"
             id="circle25"
             d="m 400.692,169.126 c -19.762,0 -35.777,16.046 -35.777,35.807 0,19.761 16.018,35.807 35.777,35.807 19.759,0 35.807,-16.046 35.807,-35.807 0,-19.761 -16.047,-35.807 -35.807,-35.807 l 0,0 z m 0,1.905 c 18.73,0 33.901,15.17 33.901,33.902 0,18.732 -15.171,33.902 -33.901,33.902 -18.731,0 -33.872,-15.171 -33.872,-33.902 0,-18.731 15.141,-33.902 33.872,-33.902 l 0,0 z" /><path
             style="fill:#f4f4f4"
             inkscape:connector-curvature="0"
             id="circle27"
             d="m 400.692,177.669 c -15.039,0 -27.234,12.227 -27.234,27.265 0,15.038 12.195,27.234 27.234,27.234 15.036,0 27.264,-12.196 27.264,-27.234 0,-15.038 -12.227,-27.265 -27.264,-27.265 z m 0,1.905 c 14.008,0 25.359,11.351 25.359,25.359 0,14.008 -11.352,25.33 -25.359,25.33 -14.01,0 -25.33,-11.321 -25.33,-25.33 0,-14.009 11.321,-25.359 25.33,-25.359 z" /><path
             style="fill:#f4f4f4"
             inkscape:connector-curvature="0"
             id="circle29"
             d="m 489.919,169.126 c -19.762,0 -35.807,16.046 -35.807,35.807 0,19.761 16.045,35.807 35.807,35.807 19.76,0 35.807,-16.046 35.807,-35.807 0,-19.761 -16.047,-35.807 -35.807,-35.807 l 0,0 z m 0,1.905 c 18.73,0 33.901,15.17 33.901,33.902 0,18.732 -15.171,33.902 -33.901,33.902 -18.731,0 -33.902,-15.171 -33.902,-33.902 0,-18.731 15.171,-33.902 33.902,-33.902 l 0,0 z" /><path
             style="fill:#f4f4f4"
             inkscape:connector-curvature="0"
             id="circle31"
             d="m 489.919,177.669 c -15.039,0 -27.234,12.227 -27.234,27.265 0,15.038 12.195,27.234 27.234,27.234 15.036,0 27.234,-12.196 27.234,-27.234 0,-15.038 -12.196,-27.265 -27.234,-27.265 z m 0,1.905 c 14.008,0 25.329,11.351 25.329,25.359 0,14.008 -11.321,25.33 -25.329,25.33 -14.01,0 -25.33,-11.321 -25.33,-25.33 0,-14.009 11.32,-25.359 25.33,-25.359 z" /><path
             style="fill:#f4f4f4"
             inkscape:connector-curvature="0"
             id="path33"
             d="m 39.406,68.432 c -4.766,0 -8.662,3.896 -8.662,8.662 l 0,203.084 c 0,4.766 3.897,8.661 8.662,8.661 l 518.646,0 c 4.429,0 7.956,-3.411 8.453,-7.709 l 0.179,0 0,-0.952 0,-203.085 c 0,-4.762 -3.868,-8.658 -8.64,-8.658 l -518.645,0 0.007,-0.003 z m 0,1.904 518.646,0 c 3.737,0 6.727,3.021 6.727,6.757 l 0,202.131 0,0.953 c 0,3.736 -2.989,6.756 -6.727,6.756 l -518.646,0 c -3.732,0.01 -6.753,-3.019 -6.753,-6.753 l 0,-203.083 c 0,-3.736 3.02,-6.756 6.756,-6.756 l -0.003,-0.005 z" /><path
             style="fill:#f4f4f4"
             inkscape:connector-curvature="0"
             id="rect35"
             d="m 359.021,163.559 0,0.953 0,81.465 0,0.952 0.953,0 81.465,0 0.953,0 0,-0.952 0,-81.465 0,-0.953 -0.953,0 -81.465,0 -0.953,0 z m 1.906,1.905 79.561,0 0,79.56 -79.561,0 0,-79.56 z" /><path
             style="fill:#f4f4f4"
             inkscape:connector-curvature="0"
             id="rect37"
             d="m 448.248,163.559 0,0.953 0,81.465 0,0.952 0.953,0 81.436,0 0.952,0 0,-0.952 0,-81.465 0,-0.953 -0.952,0 -81.436,0 -0.953,0 z m 1.905,1.905 79.531,0 0,79.56 -79.531,0 0,-79.56 z" /><path
             style="fill:#f4f4f4"
             inkscape:connector-curvature="0"
             id="polyline39"
             d="m 83.934,94.177 0,2.292 0,159.061 0,2.322 1.607,-1.638 25.33,-25.299 -1.369,-1.369 -23.663,23.692 0,-154.45 23.663,23.658 1.369,-1.34 -25.33,-25.299 -1.607,-1.637 0,0.007 z" /><path
             style="fill:#f4f4f4"
             inkscape:connector-curvature="0"
             id="polyline41"
             d="m 222.305,232.551 -1.37,1.339 23.693,23.692 -154.452,0 23.574,-23.573 -1.369,-1.339 -25.181,25.182 -1.637,1.637 2.292,0 159.062,0 2.292,0 -1.607,-1.637 -25.299,-25.3 0.002,-0.001 z" /><path
             style="fill:#f4f4f4"
             inkscape:connector-curvature="0"
             id="polyline43"
             d="m 250.878,94.177 -1.637,1.637 -25.211,25.182 1.369,1.369 23.574,-23.603 0,154.509 -23.633,-23.663 -1.339,1.34 25.24,25.27 1.637,1.638 0,-2.322 0,-159.063 0,-2.292 0,-0.002 z" /><path
             style="fill:#f4f4f4"
             inkscape:connector-curvature="0"
             id="polyline45"
             d="m 85.57,92.54 1.638,1.608 25.21,25.24 1.339,-1.34 -23.572,-23.602 154.452,0 -23.669,23.662 1.333,1.339 25.307,-25.3 1.607,-1.607 -2.292,0 -159.062,0 -2.291,0 0,0 z" /><path
             style="fill:#f4f4f4"
             inkscape:connector-curvature="0"
             id="line47"
             d="m 58.961,69.533 0,218.057 1.905,0 0,-218.057 -1.905,0 z" /><path
             style="fill:#f4f4f4"
             inkscape:connector-curvature="0"
             id="rect49"
             d="m 359.021,145.819 0,0.953 0,13.244 0,0.953 0.953,0 81.465,0 0.953,0 0,-0.953 0,-13.244 0,-0.953 -0.953,0 -81.465,0 -0.953,0 z m 1.906,1.905 79.561,0 0,11.339 -79.561,0 0,-11.339 z" /><path
             style="fill:#f4f4f4"
             inkscape:connector-curvature="0"
             id="rect51"
             d="m 448.248,145.819 0,0.953 0,13.244 0,0.953 0.953,0 81.436,0 0.952,0 0,-0.953 0,-13.244 0,-0.953 -0.952,0 -81.436,0 -0.953,0 z m 1.905,1.905 79.531,0 0,11.339 -79.531,0 0,-11.339 z" /><path
             style="fill:#f4f4f4"
             inkscape:connector-curvature="0"
             id="path53"
             d="m 276.804,73.134 c -0.987,0 -1.815,0.828 -1.815,1.816 l 0,53.01 c 0,0.988 0.829,1.815 1.815,1.815 l 282.855,0 c 0.985,0 1.785,-0.831 1.785,-1.815 l 0,-50.033 c 0,-2.641 -2.152,-4.792 -4.792,-4.792 l -279.844,0 -0.004,0 z m 0.09,1.906 279.756,0 c 1.613,0 2.888,1.275 2.888,2.887 l 0,49.945 -282.643,0 0,-52.832 -10e-4,0 z" /><path
             style="fill:#f4f4f4"
             inkscape:connector-curvature="0"
             id="path55"
             d="m 276.804,260.41 c -0.987,0 -1.815,0.829 -1.815,1.815 l 0,20.091 c 0,0.987 0.829,1.816 1.815,1.816 l 279.844,0 c 2.64,0 4.792,-2.183 4.792,-4.822 l 0,-17.085 c 0,-0.985 -0.8,-1.815 -1.785,-1.815 l -282.855,0 0.004,0 z m 0.09,1.905 282.645,0 0,16.995 c 0,1.611 -1.276,2.917 -2.888,2.917 l -279.758,0 0.001,-19.912 0,0 z" /><path
             style="fill:#f4f4f4"
             inkscape:connector-curvature="0"
             id="line57"
             d="m 274.461,129.271 -6.28,6.28 1.369,1.339 6.251,-6.25 -1.34,-1.369 z" /><path
             style="fill:#f4f4f4"
             inkscape:connector-curvature="0"
             id="line59"
             d="m 269.546,253.866 -1.369,1.34 6.281,6.28 1.339,-1.369 -6.251,-6.251 z" /></g></g></g></g><g
     inkscape:groupmode="layer"
     id="layer4"
     inkscape:label="Controller"><g
       id="g12192"
       transform="matrix(0.52634968,-0.38371487,-0.36199415,0.79024751,151.0404,222.06172)"><g
         id="g17200"
         transform="matrix(1.0122346,-0.01806759,0.21865503,1.0903129,1.9771837,-64.523689)"><path
           d="m 234.975,7.421 c -2.833,0 -5.153,2.32 -5.153,5.152 l 0,324.854 c 0,2.833 2.32,5.129 5.153,5.129 l 129.155,0 c 2.832,0 5.152,-2.296 5.152,-5.129 l 0,-324.854 c 0,-2.833 -2.32,-5.152 -5.152,-5.152 l -129.155,0 z m 0,1.534 129.155,0 c 2.004,0 3.618,1.615 3.618,3.619 l 0,324.854 c 0,2.005 -1.614,3.596 -3.618,3.596 l -129.155,0 c -2.004,0 -3.62,-1.591 -3.62,-3.596 l 0,-324.855 c 0,-2.003 1.616,-3.618 3.62,-3.618 z"
           id="path3-4"
           inkscape:connector-curvature="0"
           style="fill:#f4f4f4" /><g
           id="g5"><path
             d="m 299.563,84.906 c -29.611,0 -53.636,24.024 -53.636,53.636 0,29.611 24.024,53.636 53.636,53.636 29.61,0 53.612,-24.024 53.612,-53.636 0,-29.611 -24.002,-53.636 -53.612,-53.636 z m 0,1.534 c 28.782,0 52.077,23.319 52.077,52.102 0,28.782 -23.295,52.102 -52.077,52.102 -28.782,0 -52.103,-23.319 -52.103,-52.102 0,-28.782 23.32,-52.102 52.103,-52.102 z"
             id="circle7"
             inkscape:connector-curvature="0"
             style="fill:#f4f4f4" /><path
             d="m 299.563,109.876 c -15.829,0 -28.687,12.834 -28.687,28.663 0,15.829 12.858,28.688 28.687,28.688 15.829,0 28.663,-12.858 28.663,-28.688 0,-15.83 -12.834,-28.663 -28.663,-28.663 z m 0,1.534 c 15,0 27.129,12.129 27.129,27.129 0,15 -12.13,27.154 -27.129,27.154 -15,0 -27.153,-12.154 -27.153,-27.154 0,-15 12.153,-27.129 27.153,-27.129 z"
             id="circle9"
             inkscape:connector-curvature="0"
             style="fill:#f4f4f4" /><path
             d="m 299.563,94.516 c -1.584,0 -2.9,1.292 -2.9,2.876 l 0,7.597 c 0,1.583 1.316,2.876 2.9,2.876 1.584,0 2.875,-1.293 2.875,-2.876 l 0,-7.597 c 0,-1.584 -1.292,-2.876 -2.875,-2.876 z m 0,1.533 c 0.752,0 1.341,0.587 1.341,1.342 l 0,7.597 c 0,0.755 -0.587,1.342 -1.341,1.342 -0.754,0 -1.366,-0.588 -1.366,-1.342 l 0,-7.597 c 0,-0.754 0.611,-1.342 1.366,-1.342 z"
             id="path11-5"
             inkscape:connector-curvature="0"
             style="fill:#f4f4f4" /><path
             d="m 299.563,91.517 c -25.966,0 -47.045,21.055 -47.045,47.021 0,25.966 21.079,47.045 47.045,47.045 25.965,0 47.02,-21.08 47.02,-47.045 0,-25.968 -21.051,-47.02 -47.02,-47.021 l 0,0 z m 0,1.534 c 25.136,0 45.487,20.351 45.487,45.487 0,25.136 -20.351,45.511 -45.487,45.511 -25.137,0 -45.511,-20.375 -45.511,-45.511 0.001,-25.132 20.376,-45.485 45.512,-45.485 l -0.001,-0.002 z"
             id="circle13"
             inkscape:connector-curvature="0"
             style="fill:#f4f4f4" /><path
             d="m 270.444,106.563 c -0.74,0 -1.477,0.279 -2.037,0.839 -1.12,1.119 -1.12,2.955 0,4.074 l 5.368,5.368 c 1.12,1.12 2.955,1.12 4.074,0 1.12,-1.119 1.12,-2.954 0,-4.074 l -5.369,-5.369 c -0.56,-0.552 -1.297,-0.836 -2.037,-0.836 l 0.001,-0.002 z m 0,1.51 c 0.343,0 0.692,0.141 0.958,0.407 l 5.369,5.369 c 0.533,0.534 0.533,1.384 0,1.917 -0.521,0.52 -1.334,0.517 -1.87,0.024 l -0.048,-0.024 -5.369,-5.368 c -0.534,-0.534 -0.533,-1.384 0,-1.917 0.268,-0.267 0.617,-0.408 0.96,-0.408 z"
             id="path15"
             inkscape:connector-curvature="0"
             style="fill:#f4f4f4" /><path
             d="m 258.389,135.66 c -1.584,0 -2.876,1.292 -2.876,2.875 0,1.583 1.292,2.9 2.876,2.9 l 7.597,0 c 1.583,0 2.876,-1.317 2.876,-2.9 10e-4,-1.583 -1.293,-2.875 -2.876,-2.875 l -7.597,0 z m 0,1.534 7.597,0 c 0.754,0 1.342,0.588 1.342,1.342 0,0.755 -0.588,1.366 -1.342,1.366 l -7.597,0 c -0.754,0 -1.342,-0.612 -1.342,-1.366 0,-0.754 0.587,-1.342 1.342,-1.342 z"
             id="path17"
             inkscape:connector-curvature="0"
             style="fill:#f4f4f4" /><path
             d="m 275.813,159.412 c -0.739,-0.001 -1.477,0.278 -2.037,0.838 l -5.368,5.369 c -1.12,1.118 -1.12,2.954 0,4.074 1.12,1.119 2.954,1.119 4.074,0 l 5.369,-5.368 c 1.12,-1.119 1.12,-2.954 0,-4.074 -0.561,-0.561 -1.299,-0.839 -2.038,-0.839 l 0,0 z m 0,1.509 c 0.344,0 0.692,0.141 0.959,0.408 0.533,0.533 0.533,1.36 0,1.894 l -5.369,5.368 c -0.534,0.533 -1.384,0.533 -1.917,0 -0.534,-0.534 -0.533,-1.36 0,-1.893 l 5.369,-5.369 c 0.266,-0.268 0.614,-0.408 0.958,-0.408 z"
             id="path19"
             inkscape:connector-curvature="0"
             style="fill:#f4f4f4" /><path
             d="m 299.563,169.235 c -1.583,0 -2.9,1.293 -2.9,2.876 l 0,7.597 c 0,1.584 1.317,2.876 2.9,2.876 1.583,0 2.875,-1.292 2.875,-2.876 l 0,-7.597 c 0,-1.584 -1.292,-2.876 -2.875,-2.876 z m 0,1.534 c 0.752,0 1.341,0.588 1.341,1.342 l 0,7.597 c 0,0.754 -0.587,1.343 -1.341,1.343 -0.753,0 -1.366,-0.588 -1.366,-1.343 l 0,-7.597 c 0,-0.754 0.612,-1.342 1.366,-1.342 z"
             id="path21-4"
             inkscape:connector-curvature="0"
             style="fill:#f4f4f4" /><path
             d="m 323.291,159.412 c -0.739,-0.001 -1.478,0.278 -2.037,0.838 -1.119,1.119 -1.12,2.954 0,4.074 l 5.368,5.368 c 1.119,1.119 2.954,1.119 4.074,0 1.119,-1.12 1.119,-2.955 0,-4.074 l -5.369,-5.369 c -0.558,-0.559 -1.297,-0.837 -2.036,-0.837 l 0,0 z m 0,1.509 c 0.343,0 0.692,0.14 0.958,0.408 l 5.369,5.369 c 0.533,0.533 0.533,1.359 0,1.893 -0.534,0.533 -1.384,0.533 -1.918,0 l -5.368,-5.368 c -0.534,-0.534 -0.532,-1.36 0,-1.894 0.268,-0.268 0.615,-0.408 0.959,-0.408 z"
             id="path23"
             inkscape:connector-curvature="0"
             style="fill:#f4f4f4" /><path
             d="m 333.114,135.66 c -1.584,0 -2.876,1.293 -2.876,2.875 0,1.307 0.909,2.384 2.109,2.732 l 0,0.167 0.767,0 7.598,0 c 1.583,0 2.875,-1.317 2.875,-2.9 0,-1.583 -1.292,-2.875 -2.875,-2.875 l -7.598,0 0,0.001 z m 0,1.534 7.598,0 c 0.754,0 1.342,0.588 1.342,1.342 0,0.753 -0.587,1.366 -1.342,1.366 l -6.83,0 -0.768,0 c -0.754,0 -1.342,-0.614 -1.342,-1.366 0,-0.755 0.586,-1.342 1.342,-1.342 z"
             id="path25"
             inkscape:connector-curvature="0"
             style="fill:#f4f4f4" /><path
             d="m 328.659,106.563 c -0.739,0 -1.478,0.28 -2.037,0.839 l -5.368,5.369 c -1.12,1.12 -1.12,2.954 0,4.074 1.118,1.12 2.954,1.12 4.073,0 l 5.369,-5.368 c 1.118,-1.119 1.119,-2.955 0,-4.074 -0.559,-0.56 -1.298,-0.84 -2.037,-0.84 l 0,0 z m 0,1.51 c 0.344,0 0.691,0.141 0.959,0.407 0.533,0.534 0.532,1.385 0,1.917 l -5.369,5.368 c -0.532,0.533 -1.385,0.533 -1.917,0 -0.534,-0.534 -0.534,-1.383 0,-1.917 l 5.32,-5.32 0.048,-0.048 c 0.267,-0.266 0.615,-0.407 0.959,-0.407 z"
             id="path27"
             inkscape:connector-curvature="0"
             style="fill:#f4f4f4" /><path
             d="m 299.563,121.572 c -9.361,0 -16.968,7.607 -16.968,16.968 0,9.361 7.607,16.968 16.968,16.968 9.361,0 16.967,-7.606 16.967,-16.968 0,-9.361 -7.606,-16.968 -16.967,-16.968 z m 0,1.533 c 8.532,0 15.433,6.902 15.433,15.434 0,8.532 -6.901,15.434 -15.433,15.434 -8.532,0 -15.434,-6.902 -15.434,-15.434 0,-8.531 6.901,-15.434 15.434,-15.434 z"
             id="circle29-4"
             inkscape:connector-curvature="0"
             style="fill:#f4f4f4" /><path
             d="m 299.563,115.291 c -12.828,0 -23.247,10.42 -23.247,23.247 0,12.827 10.42,23.246 23.247,23.246 12.827,0 23.222,-10.419 23.222,-23.246 0,-12.823 -10.392,-23.245 -23.222,-23.245 l 0,-0.002 z m 0,1.534 c 11.999,0 21.689,9.715 21.689,21.713 0,11.998 -9.69,21.712 -21.689,21.712 -11.999,0 -21.713,-9.715 -21.713,-21.712 0,-11.995 9.715,-21.711 21.713,-21.711 l 0,-0.002 z"
             id="circle31-3"
             inkscape:connector-curvature="0"
             style="fill:#f4f4f4" /></g><path
           d="m 236.054,13.795 0,0.767 0,37.075 0,0.767 0.767,0 124.938,0 0.767,0 0,-0.767 0,-37.074 0,-0.767 -0.767,0 -124.939,0 -0.766,0 z m 1.533,1.534 123.404,0 0,35.542 -123.404,0 0,-35.542 z"
           id="rect33"
           inkscape:connector-curvature="0"
           style="fill:#f4f4f4" /><path
           d="m 232.027,5.623 c -3.558,0 -6.471,2.89 -6.471,6.447 l 0,81.745 c 0,3.025 2.092,5.561 4.913,6.255 l 0.359,-1.488 c -2.147,-0.529 -3.739,-2.447 -3.739,-4.771 l 0,-81.744 c 0,-2.729 2.208,-4.914 4.937,-4.914 l 5.824,0 c 1.397,0 2.651,0.581 3.547,1.51 L 242.5,7.584 c -1.173,-1.217 -2.829,-1.965 -4.65,-1.965 l -5.823,0 0,0.004 z"
           id="path35"
           inkscape:connector-curvature="0"
           style="fill:#f4f4f4" /><path
           d="m 361.321,5.623 c -1.822,0 -3.475,0.748 -4.649,1.965 l 1.103,1.078 c 0.898,-0.93 2.147,-1.51 3.543,-1.51 l 5.848,0 c 2.731,0 4.914,2.184 4.914,4.913 l 0,81.745 c 0,2.32 -1.592,4.24 -3.739,4.769 l 0.384,1.486 c 2.821,-0.695 4.889,-3.231 4.889,-6.255 l 0,-81.744 c -0.015,-3.561 -2.898,-6.45 -6.457,-6.45 l -5.848,0 0.012,0.003 z"
           id="path37"
           inkscape:connector-curvature="0"
           style="fill:#f4f4f4" /></g></g></g></svg>