<?xml version="1.0" encoding="UTF-8" standalone="no"?>
<!-- Generator: Adobe Illustrator 13.0.0, SVG Export Plug-In . SVG Version: 6.00 Build 14948)  -->

<svg
   xmlns:dc="http://purl.org/dc/elements/1.1/"
   xmlns:cc="http://creativecommons.org/ns#"
   xmlns:rdf="http://www.w3.org/1999/02/22-rdf-syntax-ns#"
   xmlns:svg="http://www.w3.org/2000/svg"
   xmlns="http://www.w3.org/2000/svg"
   xmlns:sodipodi="http://sodipodi.sourceforge.net/DTD/sodipodi-0.dtd"
   xmlns:inkscape="http://www.inkscape.org/namespaces/inkscape"
   version="1.1"
   id="Layer_2"
   x="0px"
   y="0px"
   width="550"
   height="550"
   viewBox="0 0 549.99995 549.99999"
   enable-background="new 0 0 598.189 350.26"
   xml:space="preserve"
   inkscape:version="0.48.3.1 r9886"
   sodipodi:docname="controller_gg.svg"><metadata
     id="metadata3083"><rdf:RDF><cc:Work
         rdf:about=""><dc:format>image/svg+xml</dc:format><dc:type
           rdf:resource="http://purl.org/dc/dcmitype/StillImage" /><dc:title></dc:title></cc:Work></rdf:RDF></metadata><defs
     id="defs3081" /><sodipodi:namedview
     pagecolor="#ffffff"
     bordercolor="#666666"
     borderopacity="1"
     objecttolerance="10"
     gridtolerance="10"
     guidetolerance="10"
     inkscape:pageopacity="0"
     inkscape:pageshadow="2"
     inkscape:window-width="1824"
     inkscape:window-height="935"
     id="namedview3079"
     showgrid="false"
     inkscape:zoom="1.0799262"
     inkscape:cx="288.58876"
     inkscape:cy="382.70167"
     inkscape:window-x="0"
     inkscape:window-y="0"
     inkscape:window-maximized="1"
     inkscape:current-layer="layer4"
     showguides="true"
     inkscape:guide-bbox="true" /><g
     inkscape:groupmode="layer"
     id="layer4"
     inkscape:label="Controller"><g
       id="g10123"
       transform="matrix(0.60983562,-0.42210652,-0.28968096,0.88626577,163.95438,164.80579)"><path
         d="m 239.236,13.811 c -5.558,0 -20.629,1.021 -26.121,1.486 -2.808,0.238 -5.091,0.877 -6.674,2.616 -1.583,1.739 -2.342,4.425 -2.483,8.537 -0.143,4.143 -0.358,37.325 -0.532,71.382 -0.174,34.052 -0.311,68.884 -0.311,76.028 0,7.158 0.288,39.293 0.643,70.646 0.177,15.677 0.374,31.152 0.554,43.194 0.18,12.043 0.336,20.601 0.466,22.64 0.375,5.907 1.511,10.242 3.481,13.504 1.971,3.261 4.785,5.407 8.315,6.873 7.059,2.935 17.011,3.352 30.134,5.478 26.371,4.271 39.869,3.725 43.505,3.725 l 18.537,0 c 3.638,0 17.112,0.546 43.481,-3.725 13.123,-2.126 23.1,-2.543 30.156,-5.478 3.531,-1.466 6.322,-3.612 8.295,-6.873 1.971,-3.262 3.105,-7.597 3.48,-13.504 0.129,-2.039 0.287,-10.597 0.467,-22.64 0.178,-12.042 0.377,-27.518 0.553,-43.194 0.355,-31.354 0.666,-63.488 0.666,-70.646 0,-7.146 -0.158,-41.98 -0.332,-76.036 -0.186,-34.048 -0.377,-67.23 -0.52,-71.375 -0.141,-4.111 -0.922,-6.797 -2.504,-8.537 -1.59,-1.739 -3.867,-2.378 -6.678,-2.616 -5.492,-0.465 -20.541,-1.486 -26.098,-1.486 l -56.92,0 -6.677,0 -56.895,0 0.012,0 z m 0,1.418 56.897,0 6.674,0 56.92,0 c 5.381,0 20.541,1.024 25.988,1.486 2.66,0.226 4.498,0.785 5.742,2.151 1.244,1.366 1.992,3.675 2.129,7.628 0.135,3.921 0.336,37.304 0.51,71.353 0.174,34.051 0.332,68.883 0.332,76.008 0,7.118 -0.309,39.295 -0.664,70.646 -0.178,15.675 -0.375,31.132 -0.555,43.172 -0.18,12.039 -0.348,20.717 -0.465,22.573 -0.367,5.769 -1.477,9.87 -3.283,12.86 -1.807,2.989 -4.297,4.913 -7.627,6.298 -6.66,2.766 -16.623,3.249 -29.822,5.388 -26.278,4.256 -39.483,3.703 -43.263,3.703 l -18.537,0 c -3.778,0 -16.983,0.553 -43.261,-3.703 l -0.111,-0.022 c -13.138,-2.121 -23.075,-2.607 -29.713,-5.365 -3.33,-1.385 -5.843,-3.309 -7.65,-6.298 -1.806,-2.99 -2.915,-7.092 -3.282,-12.86 -0.111,-1.854 -0.278,-10.53 -0.458,-22.571 -0.18,-12.042 -0.376,-27.496 -0.554,-43.177 -0.355,-31.35 -0.644,-63.527 -0.644,-70.644 0,-7.125 0.137,-41.957 0.311,-76.008 0.174,-34.053 0.397,-67.435 0.532,-71.353 0.136,-3.953 0.886,-6.262 2.129,-7.628 1.244,-1.366 3.082,-1.925 5.743,-2.151 5.447,-0.461 20.607,-1.485 25.988,-1.485 l -0.006,-0.001 z"
         id="path3-5"
         inkscape:connector-curvature="0"
         style="fill:#f4f4f4" /><path
         d="m 295.024,26.871 c -15.769,0 -64.798,0.387 -70.646,0.576 -2.892,0.093 -5.222,0.223 -6.962,1.375 -1.741,1.151 -2.617,3.292 -2.617,6.741 0,3.33 -0.043,32.956 -0.066,62.64 -0.022,29.674 -0.028,59.308 0.066,63.04 l 0,0.021 c 0.093,3.626 0.187,6.149 1.774,8.027 1.587,1.878 4.415,2.835 9.557,3.77 5.231,0.951 18.529,1.876 32.418,2.572 13.889,0.695 28.284,1.152 35.544,1.152 l 10.754,0 c 7.26,0 21.678,-0.457 35.567,-1.152 13.889,-0.696 27.186,-1.621 32.418,-2.572 5.141,-0.934 7.947,-1.891 9.535,-3.77 1.586,-1.878 1.703,-4.402 1.795,-8.027 0.096,-3.714 0.09,-33.377 0.066,-63.062 -0.023,-29.684 -0.066,-59.31 -0.066,-62.64 0,-3.449 -0.875,-5.589 -2.615,-6.741 -1.742,-1.151 -4.07,-1.282 -6.963,-1.375 -5.846,-0.188 -54.9,-0.576 -70.668,-0.576 l -8.892,0 10e-4,0 z m 0,1.419 8.891,0 c 15.746,0 64.953,0.372 70.602,0.554 2.855,0.092 4.98,0.333 6.252,1.175 1.273,0.841 1.975,2.318 1.975,5.543 0,3.344 0.043,32.957 0.066,62.641 0.023,29.684 0.023,59.502 -0.066,63.018 l 0,0.022 c -0.094,3.588 -0.273,5.709 -1.465,7.118 -1.193,1.412 -3.658,2.385 -8.713,3.304 -4.967,0.902 -18.369,1.855 -32.242,2.55 -13.871,0.694 -28.278,1.153 -35.477,1.153 l -10.755,0 c -7.199,0 -21.606,-0.458 -35.478,-1.153 -13.872,-0.695 -27.274,-1.647 -32.241,-2.55 -5.048,-0.923 -7.514,-1.895 -8.708,-3.307 -1.193,-1.413 -1.349,-3.534 -1.441,-7.139 -0.09,-3.512 -0.09,-33.334 -0.066,-63.016 0.023,-29.684 0.066,-59.298 0.066,-62.641 0,-3.225 0.702,-4.702 1.974,-5.543 1.272,-0.841 3.376,-1.083 6.231,-1.175 5.646,-0.183 54.855,-0.554 70.601,-0.554 l -0.006,0 z"
         id="path5-5"
         inkscape:connector-curvature="0"
         style="fill:#f4f4f4" /><path
         d="m 245.223,42.703 c -0.997,0 -1.818,0.82 -1.818,1.818 l 0,96.656 c 0,0.998 0.821,1.818 1.818,1.818 l 108.521,0 c 0.996,0 1.818,-0.82 1.818,-1.818 l 0,-96.656 c 0,-0.997 -0.82,-1.818 -1.818,-1.818 l -108.521,0 z m 0,1.419 108.521,0 c 0.23,0 0.398,0.169 0.398,0.399 l 0,96.656 c 0,0.232 -0.168,0.399 -0.398,0.399 l -108.521,0 c -0.23,0 -0.399,-0.168 -0.399,-0.399 l 0,-96.656 c -0.001,-0.23 0.169,-0.399 0.399,-0.399 z"
         id="path7-4"
         inkscape:connector-curvature="0"
         style="fill:#f4f4f4" /><path
         d="m 286.928,281.399 c -2.411,0 -4.614,0.227 -6.297,0.798 -0.842,0.286 -1.563,0.661 -2.106,1.197 -0.544,0.536 -0.887,1.265 -0.887,2.063 0,0.8 0.343,1.525 0.887,2.063 0.543,0.536 1.265,0.911 2.106,1.197 1.683,0.572 3.886,0.775 6.297,0.775 2.412,0 4.614,-0.203 6.297,-0.775 0.841,-0.286 1.563,-0.661 2.106,-1.197 0.543,-0.537 0.887,-1.263 0.887,-2.063 0,-0.798 -0.344,-1.526 -0.887,-2.063 -0.544,-0.536 -1.265,-0.911 -2.106,-1.197 -1.683,-0.572 -3.886,-0.798 -6.297,-0.798 z m 0,1.419 c 2.324,0 4.411,0.228 5.832,0.71 0.71,0.24 1.25,0.544 1.575,0.864 0.324,0.32 0.465,0.635 0.465,1.064 0,0.429 -0.141,0.722 -0.465,1.042 -0.325,0.32 -0.865,0.624 -1.575,0.865 -1.42,0.482 -3.508,0.709 -5.832,0.709 -2.324,0 -4.412,-0.227 -5.832,-0.709 -0.71,-0.241 -1.251,-0.545 -1.574,-0.865 -0.324,-0.32 -0.466,-0.612 -0.466,-1.042 0,-0.43 0.142,-0.744 0.466,-1.064 0.323,-0.32 0.864,-0.624 1.574,-0.864 1.42,-0.482 3.508,-0.71 5.832,-0.71 z"
         id="path9-8"
         inkscape:connector-curvature="0"
         style="fill:#f4f4f4" /><path
         d="m 315.849,281.399 c -2.412,0 -4.613,0.227 -6.297,0.798 -0.842,0.286 -1.563,0.661 -2.106,1.197 -0.543,0.536 -0.864,1.265 -0.864,2.063 0,0.8 0.32,1.525 0.864,2.063 0.544,0.536 1.265,0.911 2.106,1.197 1.684,0.572 3.885,0.775 6.297,0.775 2.412,0 4.615,-0.203 6.298,-0.775 0.841,-0.286 1.563,-0.661 2.106,-1.197 0.543,-0.537 0.887,-1.263 0.887,-2.063 0,-0.798 -0.344,-1.526 -0.887,-2.063 -0.544,-0.536 -1.266,-0.911 -2.106,-1.197 -1.683,-0.571 -3.886,-0.798 -6.298,-0.798 z m 0,1.419 c 2.324,0 4.412,0.228 5.832,0.71 0.711,0.24 1.25,0.544 1.574,0.864 0.324,0.32 0.466,0.635 0.466,1.064 0,0.429 -0.142,0.722 -0.466,1.042 -0.324,0.32 -0.863,0.624 -1.574,0.865 -1.42,0.482 -3.508,0.709 -5.832,0.709 -2.324,0 -4.411,-0.227 -5.831,-0.709 -0.71,-0.241 -1.25,-0.545 -1.574,-0.865 -0.324,-0.32 -0.444,-0.612 -0.444,-1.042 0,-0.43 0.12,-0.744 0.444,-1.064 0.323,-0.32 0.864,-0.624 1.574,-0.864 1.42,-0.482 3.506,-0.71 5.831,-0.71 z"
         id="path11-8"
         inkscape:connector-curvature="0"
         style="fill:#f4f4f4" /><path
         d="m 239.458,207.123 c -2.021,0 -3.681,1.659 -3.681,3.681 l 0,11.242 c 0,0.11 0.007,0.069 0,0.11 l -11.331,0 c -2.022,0 -3.681,1.637 -3.681,3.659 l 0,8.227 c 0,2.023 1.659,3.681 3.681,3.681 l 11.331,0 0,11.331 c 0,2.021 1.659,3.681 3.681,3.681 l 8.227,0 c 2.021,0 3.658,-1.659 3.658,-3.681 l 0,-11.219 c 0,-0.102 0.018,-0.085 0.022,-0.111 l 11.332,0 c 2.021,0 3.681,-1.658 3.681,-3.681 l 0,-8.228 c 0,-2.022 -1.66,-3.659 -3.681,-3.659 l -11.353,0 c -0.004,-0.019 0,0.022 0,-0.044 l 0,-11.309 c 0,-2.021 -1.638,-3.681 -3.659,-3.681 l -8.227,0 0,10e-4 z m 0,1.419 8.227,0 c 1.254,0 2.239,1.006 2.239,2.262 l 0,11.309 c 0,0.342 0.059,0.729 0.333,1.042 0.274,0.314 0.689,0.422 1.042,0.422 l 11.397,0 c 1.254,0 2.262,0.983 2.262,2.239 l 0,8.227 c 0,1.257 -1.007,2.262 -2.262,2.262 l -11.376,0 c -0.422,0 -0.89,0.186 -1.131,0.532 -0.24,0.346 -0.266,0.696 -0.266,0.997 l 0,11.221 c 0,1.254 -0.985,2.262 -2.239,2.262 l -8.227,0 c -1.254,0 -2.262,-1.008 -2.262,-2.262 l 0,-11.42 c 0,-0.127 0.044,-0.413 -0.178,-0.776 -0.222,-0.362 -0.705,-0.554 -1.153,-0.554 l -11.419,0 c -1.254,0 -2.262,-1.007 -2.262,-2.262 l 0,-8.227 c 0,-1.256 1.006,-2.239 2.262,-2.239 l 11.463,0 c 0.387,0 0.87,-0.2 1.087,-0.555 0.217,-0.354 0.199,-0.67 0.199,-0.976 l 0,-11.242 c 0.001,-1.256 1.009,-2.262 2.264,-2.262 l 0,0 z"
         id="path13"
         inkscape:connector-curvature="0"
         style="fill:#f4f4f4" /><g
         id="g15"><path
           id="path10075"
           d="m 252.496,233.333 0,-6.798 0,-0.009 0,0 c 0.006,-0.841 0.686,-1.52 1.528,-1.52 l 0,0 c 0.267,-0.002 0.524,0.07 0.729,0.185 l 0,0 6.619,3.522 0.058,0.047 c 0.333,0.275 0.551,0.702 0.551,1.175 l 0,0 c 0,0.486 -0.232,0.928 -0.592,1.205 l 0,0 -0.044,0.035 -6.607,3.512 c -0.216,0.112 -0.46,0.174 -0.712,0.174 l 0,0 c -0.844,-0.002 -1.528,-0.682 -1.53,-1.528 l 0,0 z m 1.421,0 c 0,0.061 0.045,0.108 0.108,0.108 l 0,0 c 0.022,0 0.041,-0.005 0.049,-0.009 l 0,0 6.468,-3.437 c 0.013,-0.017 0.02,-0.037 0.02,-0.061 l 0,0 c -0.001,-0.021 -0.006,-0.038 -0.014,-0.053 l 0,0 -6.474,-3.445 c -0.017,-0.008 -0.029,-0.013 -0.049,-0.013 l 0,0 c -0.058,0 -0.108,0.05 -0.108,0.11 l 0,0 0,6.8 0,0 z"
           inkscape:connector-curvature="0"
           style="fill:#f4f4f4" /></g><path
         d="m 243.56,224.351 c -3.071,0 -5.565,2.517 -5.565,5.588 0,3.07 2.495,5.565 5.565,5.565 3.07,0 5.588,-2.495 5.588,-5.565 -0.001,-3.072 -2.518,-5.588 -5.588,-5.588 z m 0,1.419 c 2.304,0 4.168,1.865 4.168,4.169 0,2.305 -1.864,4.146 -4.168,4.146 -2.304,0 -4.146,-1.842 -4.146,-4.146 -10e-4,-2.304 1.841,-4.169 4.146,-4.169 z"
         id="circle19"
         inkscape:connector-curvature="0"
         style="fill:#f4f4f4" /><g
         id="g21"><path
           id="path10079"
           d="m 240.167,221.001 c -0.845,0 -1.528,-0.683 -1.53,-1.528 l 0,0 c 0,-0.269 0.072,-0.524 0.186,-0.728 l 0,0 3.523,-6.624 0.045,-0.054 c 0.279,-0.337 0.707,-0.55 1.174,-0.55 l 0,0 c 0.486,0 0.928,0.229 1.207,0.59 l 0,0 0.038,0.047 3.508,6.607 c 0.112,0.213 0.174,0.459 0.174,0.711 l 0,0 c 0,0.846 -0.684,1.526 -1.528,1.526 l 0,0 -6.088,0 0,0.002 -0.709,0 0,0.001 z m 0,-0.709 0,-0.71 0,0.71 0,0 z m 6.798,-0.712 c 0.06,0 0.11,-0.05 0.11,-0.107 l 0,0 c 0,-0.024 -0.004,-0.037 -0.011,-0.047 l 0,0 -3.438,-6.473 c -0.017,-0.011 -0.037,-0.017 -0.06,-0.017 l 0,0 c -0.022,0.001 -0.039,0.005 -0.052,0.014 l 0,0 -3.441,6.471 c -0.013,0.021 -0.015,0.031 -0.015,0.052 l 0,0 c 0,0.052 0.039,0.098 0.089,0.107 l 0,0 6.818,0 0,0 z"
           inkscape:connector-curvature="0"
           style="fill:#f4f4f4" /></g><g
         id="g25"><path
           id="path10082"
           d="m 232.38,234.678 -6.625,-3.524 -0.056,-0.046 c -0.332,-0.277 -0.549,-0.702 -0.549,-1.172 l 0,0 c 0,-0.487 0.232,-0.933 0.592,-1.21 l 0,0 0.052,-0.039 6.604,-3.508 c 0.213,-0.112 0.456,-0.172 0.708,-0.172 l 0,0 c 0.845,0 1.528,0.686 1.528,1.528 l 0,0 0,6.798 0,0.005 0,0 c -0.002,0.841 -0.685,1.521 -1.528,1.523 l 0,0 c -0.266,0 -0.517,-0.07 -0.726,-0.183 l 0,0 z m 0.671,-1.251 c 0.019,0.01 0.037,0.015 0.056,0.015 l 0,0 c 0.06,0 0.109,-0.05 0.109,-0.108 l 0,0 0,-6.798 c 0,-0.061 -0.049,-0.11 -0.109,-0.11 l 0,0 c -0.021,0 -0.038,0.005 -0.048,0.011 l 0,0 -6.472,3.438 c -0.01,0.017 -0.016,0.035 -0.016,0.062 l 0,0 c 0,0.019 0.004,0.035 0.013,0.051 l 0,0 6.467,3.439 0,0 z"
           inkscape:connector-curvature="0"
           style="fill:#f4f4f4" /></g><g
         id="g29"><path
           id="path10085"
           d="m 242.361,247.756 -0.04,-0.048 -3.505,-6.602 c -0.116,-0.218 -0.178,-0.463 -0.178,-0.716 l 0,0 c 0,-0.846 0.683,-1.528 1.529,-1.53 l 0,0 6.799,0 0,0.711 0,0.71 -6.799,0 c -0.058,0 -0.11,0.049 -0.11,0.109 l 0,0 c 0,0.019 0.006,0.035 0.012,0.046 l 0,0 3.432,6.467 c 0.019,0.014 0.041,0.021 0.065,0.021 l 0,0 c 0.021,0 0.038,-0.005 0.054,-0.016 l 0,0 3.439,-6.467 c 0.01,-0.017 0.014,-0.033 0.014,-0.052 l 0,0 c 0,-0.061 -0.05,-0.109 -0.108,-0.109 l 0,0 0,-0.71 0,-0.711 c 0.844,0.002 1.527,0.685 1.527,1.53 l 0,0 c 0,0.266 -0.068,0.519 -0.185,0.726 l 0,0 -3.526,6.625 -0.043,0.055 c -0.276,0.331 -0.701,0.549 -1.172,0.549 l 0,0 c -0.491,0.001 -0.929,-0.236 -1.205,-0.588 l 0,0 z"
           inkscape:connector-curvature="0"
           style="fill:#f4f4f4" /></g><path
         d="m 334.694,222.506 c -7.004,0 -12.705,5.68 -12.705,12.684 0,7.004 5.701,12.705 12.705,12.705 7.006,0 12.705,-5.701 12.705,-12.705 0,-7.004 -5.701,-12.684 -12.705,-12.684 z m 0,1.419 c 6.238,0 11.287,5.026 11.287,11.265 0,6.237 -5.049,11.286 -11.287,11.286 -6.236,0 -11.285,-5.049 -11.285,-11.286 0,-6.239 5.049,-11.265 11.285,-11.265 z"
         id="circle33"
         inkscape:connector-curvature="0"
         style="fill:#f4f4f4" /><path
         d="m 369.925,211.005 c -7.004,0 -12.705,5.7 -12.705,12.704 0,7.005 5.701,12.705 12.705,12.705 7.004,0 12.684,-5.701 12.684,-12.705 0,-7.004 -5.68,-12.704 -12.684,-12.704 z m 0,1.419 c 6.236,0 11.264,5.049 11.264,11.285 0,6.237 -5.027,11.286 -11.264,11.286 -6.237,0 -11.287,-5.049 -11.287,-11.286 0,-6.236 5.05,-11.285 11.287,-11.285 z"
         id="circle35"
         inkscape:connector-curvature="0"
         style="fill:#f4f4f4" /><path
         d="m 346.026,290.185 c -1.186,0 -2.172,0.964 -2.172,2.15 0,1.185 0.986,2.173 2.172,2.173 1.186,0 2.152,-0.988 2.152,-2.173 10e-4,-1.187 -0.966,-2.15 -2.152,-2.15 z"
         id="circle37"
         inkscape:connector-curvature="0"
         style="fill:#f4f4f4" /><path
         d="m 346.026,300.892 c -1.186,0 -2.172,0.987 -2.172,2.173 0,1.185 0.986,2.15 2.172,2.15 1.186,0 2.152,-0.966 2.152,-2.15 10e-4,-1.186 -0.966,-2.173 -2.152,-2.173 z"
         id="circle39"
         inkscape:connector-curvature="0"
         style="fill:#f4f4f4" /><path
         d="m 346.026,311.626 c -1.186,0 -2.172,0.966 -2.172,2.151 0,1.185 0.986,2.173 2.172,2.173 1.186,0 2.152,-0.987 2.152,-2.173 0,-1.186 -0.966,-2.151 -2.152,-2.151 z"
         id="circle41"
         inkscape:connector-curvature="0"
         style="fill:#f4f4f4" /><path
         d="m 351.589,284.067 c -1.186,0 -2.172,0.966 -2.172,2.15 0,1.184 0.986,2.173 2.172,2.173 1.186,0 2.152,-0.988 2.152,-2.173 0,-1.185 -0.967,-2.15 -2.152,-2.15 z"
         id="circle43"
         inkscape:connector-curvature="0"
         style="fill:#f4f4f4" /><path
         d="m 351.589,294.683 c -1.186,0 -2.172,0.988 -2.172,2.173 0,1.185 0.986,2.151 2.172,2.151 1.186,0 2.152,-0.967 2.152,-2.151 0,-1.184 -0.967,-2.173 -2.152,-2.173 z"
         id="circle45"
         inkscape:connector-curvature="0"
         style="fill:#f4f4f4" /><path
         d="m 351.589,305.326 c -1.186,0 -2.172,0.966 -2.172,2.15 0,1.186 0.986,2.173 2.172,2.173 1.186,0 2.152,-0.987 2.152,-2.173 0,-1.184 -0.967,-2.15 -2.152,-2.15 z"
         id="circle47"
         inkscape:connector-curvature="0"
         style="fill:#f4f4f4" /><path
         d="m 351.589,315.947 c -1.186,0 -2.172,0.966 -2.172,2.15 0,1.187 0.986,2.174 2.172,2.174 1.186,0 2.152,-0.987 2.152,-2.174 0,-1.184 -0.967,-2.15 -2.152,-2.15 z"
         id="circle49"
         inkscape:connector-curvature="0"
         style="fill:#f4f4f4" /><path
         d="m 356.954,288.565 c -1.186,0 -2.15,0.988 -2.15,2.173 0,1.187 0.965,2.151 2.15,2.151 1.185,0 2.172,-0.965 2.172,-2.151 0,-1.184 -0.986,-2.173 -2.172,-2.173 z"
         id="circle51"
         inkscape:connector-curvature="0"
         style="fill:#f4f4f4" /><path
         d="m 356.954,299.209 c -1.186,0 -2.15,0.966 -2.15,2.15 0,1.187 0.965,2.173 2.15,2.173 1.185,0 2.172,-0.986 2.172,-2.173 0,-1.184 -0.986,-2.15 -2.172,-2.15 z"
         id="circle53"
         inkscape:connector-curvature="0"
         style="fill:#f4f4f4" /><path
         d="m 356.954,309.831 c -1.186,0 -2.15,0.988 -2.15,2.174 0,1.185 0.965,2.15 2.15,2.15 1.185,0 2.172,-0.966 2.172,-2.15 0,-1.186 -0.986,-2.174 -2.172,-2.174 z"
         id="circle55"
         inkscape:connector-curvature="0"
         style="fill:#f4f4f4" /><path
         d="m 356.954,320.454 c -1.186,0 -2.15,0.986 -2.15,2.173 0,1.185 0.965,2.151 2.15,2.151 1.185,0 2.172,-0.967 2.172,-2.151 0,-1.187 -0.986,-2.173 -2.172,-2.173 z"
         id="circle57"
         inkscape:connector-curvature="0"
         style="fill:#f4f4f4" /><path
         d="m 362.63,282.088 c -1.186,0 -2.15,0.965 -2.15,2.151 0,1.185 0.965,2.173 2.15,2.173 1.185,0 2.174,-0.988 2.174,-2.173 0,-1.186 -0.989,-2.151 -2.174,-2.151 z"
         id="circle59"
         inkscape:connector-curvature="0"
         style="fill:#f4f4f4" /><path
         d="m 362.63,292.709 c -1.186,0 -2.15,0.988 -2.15,2.173 0,1.187 0.965,2.151 2.15,2.151 1.185,0 2.174,-0.965 2.174,-2.151 0,-1.185 -0.989,-2.173 -2.174,-2.173 z"
         id="circle61"
         inkscape:connector-curvature="0"
         style="fill:#f4f4f4" /><path
         d="m 362.63,303.332 c -1.186,0 -2.15,0.988 -2.15,2.173 0,1.185 0.965,2.15 2.15,2.15 1.185,0 2.174,-0.966 2.174,-2.15 0,-1.184 -0.989,-2.173 -2.174,-2.173 z"
         id="circle63"
         inkscape:connector-curvature="0"
         style="fill:#f4f4f4" /><path
         d="m 362.63,313.976 c -1.186,0 -2.15,0.966 -2.15,2.15 0,1.184 0.965,2.173 2.15,2.173 1.185,0 2.174,-0.988 2.174,-2.173 0,-1.185 -0.989,-2.15 -2.174,-2.15 z"
         id="circle65"
         inkscape:connector-curvature="0"
         style="fill:#f4f4f4" /><path
         d="m 367.888,286.416 c -1.184,0 -2.15,0.966 -2.15,2.15 0,1.186 0.967,2.174 2.15,2.174 1.186,0 2.174,-0.988 2.174,-2.174 0,-1.184 -0.989,-2.15 -2.174,-2.15 z"
         id="circle67"
         inkscape:connector-curvature="0"
         style="fill:#f4f4f4" /><path
         d="m 367.888,297.038 c -1.184,0 -2.15,0.987 -2.15,2.174 0,1.185 0.967,2.15 2.15,2.15 1.186,0 2.174,-0.966 2.174,-2.15 0,-1.187 -0.989,-2.174 -2.174,-2.174 z"
         id="circle69"
         inkscape:connector-curvature="0"
         style="fill:#f4f4f4" /><path
         d="m 367.888,307.682 c -1.184,0 -2.15,0.965 -2.15,2.151 0,1.185 0.967,2.15 2.15,2.15 1.186,0 2.174,-0.966 2.174,-2.15 0,-1.187 -0.989,-2.151 -2.174,-2.151 z"
         id="circle71"
         inkscape:connector-curvature="0"
         style="fill:#f4f4f4" /><path
         d="m 367.888,318.296 c -1.184,0 -2.15,0.966 -2.15,2.151 0,1.185 0.967,2.173 2.15,2.173 1.186,0 2.174,-0.988 2.174,-2.173 0,-1.185 -0.989,-2.151 -2.174,-2.151 z"
         id="circle73"
         inkscape:connector-curvature="0"
         style="fill:#f4f4f4" /><path
         d="m 373.345,279.873 c -1.186,0 -2.172,0.966 -2.172,2.151 0,1.185 0.986,2.15 2.172,2.15 1.186,0 2.15,-0.966 2.15,-2.15 0,-1.185 -0.965,-2.151 -2.15,-2.151 z"
         id="circle75"
         inkscape:connector-curvature="0"
         style="fill:#f4f4f4" /><path
         d="m 373.345,290.496 c -1.186,0 -2.172,0.966 -2.172,2.15 0,1.186 0.986,2.173 2.172,2.173 1.186,0 2.15,-0.987 2.15,-2.173 0,-1.184 -0.965,-2.15 -2.15,-2.15 z"
         id="circle77"
         inkscape:connector-curvature="0"
         style="fill:#f4f4f4" /><path
         d="m 373.345,301.118 c -1.186,0 -2.172,0.987 -2.172,2.174 0,1.185 0.986,2.15 2.172,2.15 1.186,0 2.15,-0.966 2.15,-2.15 0,-1.187 -0.965,-2.174 -2.15,-2.174 z"
         id="circle79"
         inkscape:connector-curvature="0"
         style="fill:#f4f4f4" /><path
         d="m 373.345,311.739 c -1.186,0 -2.172,0.988 -2.172,2.174 0,1.186 0.986,2.15 2.172,2.15 1.186,0 2.15,-0.965 2.15,-2.15 0,-1.185 -0.965,-2.174 -2.15,-2.174 z"
         id="circle81"
         inkscape:connector-curvature="0"
         style="fill:#f4f4f4" /><path
         d="m 378.646,283.883 c -1.186,0 -2.15,0.966 -2.15,2.15 0,1.186 0.965,2.173 2.15,2.173 1.184,0 2.172,-0.987 2.172,-2.173 -10e-4,-1.184 -0.989,-2.15 -2.172,-2.15 z"
         id="circle83"
         inkscape:connector-curvature="0"
         style="fill:#f4f4f4" /><path
         d="m 378.646,294.505 c -1.186,0 -2.15,0.965 -2.15,2.151 0,1.185 0.965,2.173 2.15,2.173 1.184,0 2.172,-0.988 2.172,-2.173 -10e-4,-1.186 -0.989,-2.151 -2.172,-2.151 z"
         id="circle85"
         inkscape:connector-curvature="0"
         style="fill:#f4f4f4" /><path
         d="m 378.646,305.126 c -1.186,0 -2.15,0.988 -2.15,2.174 0,1.186 0.965,2.15 2.15,2.15 1.184,0 2.172,-0.965 2.172,-2.15 0,-1.185 -0.989,-2.174 -2.172,-2.174 z"
         id="circle87"
         inkscape:connector-curvature="0"
         style="fill:#f4f4f4" /><path
         d="m 383.968,287.7 c -1.188,0 -2.174,0.987 -2.174,2.174 0,1.185 0.986,2.15 2.174,2.15 1.184,0 2.15,-0.966 2.15,-2.15 0,-1.186 -0.967,-2.174 -2.15,-2.174 z"
         id="circle89"
         inkscape:connector-curvature="0"
         style="fill:#f4f4f4" /><path
         d="m 383.968,298.344 c -1.188,0 -2.174,0.966 -2.174,2.151 0,1.185 0.986,2.173 2.174,2.173 1.184,0 2.15,-0.988 2.15,-2.173 0,-1.186 -0.967,-2.151 -2.15,-2.151 z"
         id="circle91"
         inkscape:connector-curvature="0"
         style="fill:#f4f4f4" /><path
         d="m 383.968,308.965 c -1.188,0 -2.174,0.988 -2.174,2.174 0,1.186 0.986,2.15 2.174,2.15 1.184,0 2.15,-0.965 2.15,-2.15 0,-1.185 -0.967,-2.174 -2.15,-2.174 z"
         id="circle93"
         inkscape:connector-curvature="0"
         style="fill:#f4f4f4" /><path
         d="m 378.646,315.77 c -1.186,0 -2.15,0.966 -2.15,2.151 0,1.185 0.965,2.173 2.15,2.173 1.184,0 2.172,-0.987 2.172,-2.173 0,-1.186 -0.989,-2.151 -2.172,-2.151 z"
         id="circle95"
         inkscape:connector-curvature="0"
         style="fill:#f4f4f4" /></g></g></svg>