<?xml version="1.0" encoding="UTF-8" standalone="no"?>
<!-- Generator: Adobe Illustrator 13.0.0, SVG Export Plug-In . SVG Version: 6.00 Build 14948)  -->

<svg
   xmlns:dc="http://purl.org/dc/elements/1.1/"
   xmlns:cc="http://creativecommons.org/ns#"
   xmlns:rdf="http://www.w3.org/1999/02/22-rdf-syntax-ns#"
   xmlns:svg="http://www.w3.org/2000/svg"
   xmlns="http://www.w3.org/2000/svg"
   xmlns:sodipodi="http://sodipodi.sourceforge.net/DTD/sodipodi-0.dtd"
   xmlns:inkscape="http://www.inkscape.org/namespaces/inkscape"
   version="1.1"
   id="Layer_2"
   x="0px"
   y="0px"
   width="550"
   height="550"
   viewBox="0 0 549.99995 549.99999"
   enable-background="new 0 0 598.189 350.26"
   xml:space="preserve"
   inkscape:version="0.91 r13725"
   sodipodi:docname="controller_gg.svg"><metadata
     id="metadata3083"><rdf:RDF><cc:Work
         rdf:about=""><dc:format>image/svg+xml</dc:format><dc:type
           rdf:resource="http://purl.org/dc/dcmitype/StillImage" /><dc:title></dc:title></cc:Work></rdf:RDF></metadata><defs
     id="defs3081" /><sodipodi:namedview
     pagecolor="#ffffff"
     bordercolor="#666666"
     borderopacity="1"
     objecttolerance="10"
     gridtolerance="10"
     guidetolerance="10"
     inkscape:pageopacity="0"
     inkscape:pageshadow="2"
     inkscape:window-width="1920"
     inkscape:window-height="1001"
     id="namedview3079"
     showgrid="false"
     inkscape:zoom="0.76362314"
     inkscape:cx="446.61011"
     inkscape:cy="491.14099"
     inkscape:window-x="-9"
     inkscape:window-y="759"
     inkscape:window-maximized="1"
     inkscape:current-layer="layer4"
     showguides="true"
     inkscape:guide-bbox="true" /><g
     inkscape:groupmode="layer"
     id="layer2"
     inkscape:label="Screen_Rect"
     style="display:none"
     transform="translate(0,199.73999)"
     sodipodi:insensitive="true"><path
       style="fill:#0000ff;stroke:#000000;stroke-width:1px;stroke-linecap:butt;stroke-linejoin:miter;stroke-opacity:1"
       d="M 5.0135033,547.22203 136.4109,114.39023 653.54628,-189.09358 406.482,260.92121 Z"
       id="path3021"
       inkscape:connector-curvature="0"
       transform="translate(-2e-5,-199.73999)"
       sodipodi:nodetypes="ccccc" /><rect
       style="opacity:0.60100002;fill:#d8201f;fill-opacity:1;stroke:#ff8080;stroke-width:2.45114732;stroke-linecap:round;stroke-linejoin:round;stroke-miterlimit:4;stroke-dasharray:none;stroke-opacity:1"
       id="rect4230"
       width="444.2457"
       height="9.9567661"
       x="145.95099"
       y="-211.30678" /></g><g
     inkscape:groupmode="layer"
     id="layer1"
     inkscape:label="Controller_Vorlage"
     style="display:none"
     sodipodi:insensitive="true"><g
       id="g4929"
       transform="translate(-0.929149,0.5695451)"><g
         transform="translate(0,199.73999)"
         style="display:none"
         inkscape:label="Layer2"
         id="layer2-9"><path
           sodipodi:nodetypes="ccccc"
           transform="translate(-2e-5,-199.73999)"
           inkscape:connector-curvature="0"
           id="path3021-0"
           d="M 5.0135033,547.22203 136.4109,114.39023 653.54628,-189.09358 406.482,260.92121 Z"
           style="fill:#ffffff;stroke:#000000;stroke-width:1px;stroke-linecap:butt;stroke-linejoin:miter;stroke-opacity:1" /></g><g
         inkscape:label="Layer"
         id="layer1-2"><g
           transform="matrix(0.55322035,-0.3970343,-0.34863416,0.85569517,173.63773,166.52161)"
           id="g3100"><path
             style="fill:#f4f4f4"
             inkscape:connector-curvature="0"
             id="path3"
             d="m 148.05,114.447 c -23.656,0 -42.861,19.204 -42.861,42.861 l 0,37.414 c 0,23.658 19.205,42.86 42.861,42.86 l 38.694,0 c 23.656,0 42.861,-19.202 42.861,-42.86 l 0,-37.414 c 0,-23.657 -19.205,-42.861 -42.861,-42.861 l -38.694,0 z m 0,1.905 38.694,0 c 22.627,0 40.956,18.328 40.956,40.956 l 0,37.414 c 0,22.629 -18.329,40.956 -40.956,40.956 l -38.694,0 c -22.628,0 -40.956,-18.327 -40.956,-40.956 l 0,-37.414 c 0,-22.629 18.328,-40.956 40.956,-40.956 z" /><path
             style="fill:#f4f4f4"
             inkscape:connector-curvature="0"
             id="path5"
             d="m 167.395,123.168 c -3.23,0 -5.863,2.633 -5.863,5.864 l 0,13.037 c 0,3.23 2.632,5.863 5.863,5.863 3.23,0 5.863,-2.633 5.863,-5.863 l 0,-13.037 c 0,-3.23 -2.633,-5.864 -5.863,-5.864 z m 0,1.906 c 2.201,0 3.958,1.758 3.958,3.958 l 0,13.037 c 0,2.2 -1.758,3.958 -3.958,3.958 -2.202,0 -3.958,-1.758 -3.958,-3.958 l 0,-13.037 c -0.001,-2.2 1.757,-3.958 3.958,-3.958 z" /><path
             style="fill:#f4f4f4"
             inkscape:connector-curvature="0"
             id="path7"
             d="m 120.425,170.135 c -3.23,0 -5.864,2.633 -5.864,5.864 0,3.231 2.632,5.894 5.864,5.894 l 13.037,0 c 3.229,0 5.864,-2.662 5.864,-5.894 0,-3.229 -2.633,-5.864 -5.864,-5.864 l -13.037,0 z m 0,1.905 13.037,0 c 2.201,0 3.959,1.759 3.959,3.959 0,2.201 -1.759,3.988 -3.959,3.988 l -13.037,0 c -2.198,-0.01 -3.955,-1.791 -3.955,-3.99 0,-2.201 1.758,-3.959 3.958,-3.959 l -0.003,0.002 z" /><path
             style="fill:#f4f4f4"
             inkscape:connector-curvature="0"
             id="path9"
             d="m 167.395,204.071 c -3.23,0 -5.863,2.663 -5.863,5.894 l 0,13.038 c 0,3.229 2.632,5.863 5.863,5.863 3.23,0 5.863,-2.633 5.863,-5.863 l 0,-13.038 c 0,-3.23 -2.633,-5.894 -5.863,-5.894 z m 0,1.906 c 2.201,0 3.958,1.789 3.958,3.988 l 0,13.038 c 0,2.2 -1.757,3.958 -3.958,3.958 -2.202,0 -3.958,-1.759 -3.958,-3.958 l 0,-13.038 c -0.001,-2.2 1.757,-3.988 3.958,-3.988 z" /><path
             style="fill:#f4f4f4"
             inkscape:connector-curvature="0"
             id="path11"
             d="m 201.321,170.135 c -3.229,0 -5.863,2.633 -5.863,5.864 0,3.231 2.633,5.894 5.863,5.894 l 13.067,0 c 3.229,0 5.863,-2.662 5.863,-5.894 0,-3.229 -2.633,-5.864 -5.863,-5.864 l -13.067,0 z m 0,1.905 13.067,0 c 2.2,0 3.958,1.76 3.958,3.959 0,2.201 -1.758,3.988 -3.958,3.988 l -13.067,0 c -2.2,0 -3.958,-1.788 -3.958,-3.988 0,-2.2 1.759,-3.959 3.958,-3.959 z" /><path
             style="fill:#f4f4f4"
             inkscape:connector-curvature="0"
             id="polygon13"
             d="m 133.878,141.176 -1.31,1.31 8.155,12.025 0.655,0.952 0.804,-0.803 3.869,-3.87 0.804,-0.804 -0.953,-0.655 -12.024,-8.155 z" /><path
             style="fill:#f4f4f4"
             inkscape:connector-curvature="0"
             id="polygon15"
             d="m 141.383,196.566 -0.654,0.952 -8.156,12.024 1.31,1.31 12.025,-8.155 0.953,-0.654 -0.804,-0.804 -3.87,-3.869 -0.804,-0.804 z" /><path
             style="fill:#f4f4f4"
             inkscape:connector-curvature="0"
             id="polygon17"
             d="m 193.435,196.566 -0.804,0.804 -3.869,3.869 -0.833,0.804 0.953,0.654 12.025,8.155 1.339,-1.31 -8.156,-12.024 -0.655,-0.952 0,0 z" /><path
             style="fill:#f4f4f4"
             inkscape:connector-curvature="0"
             id="polygon19"
             d="m 200.912,141.176 -12.025,8.155 -0.953,0.655 0.833,0.804 3.87,3.87 0.804,0.803 0.655,-0.952 8.155,-12.025 -1.339,-1.31 z" /><path
             style="fill:#f4f4f4"
             inkscape:connector-curvature="0"
             id="path21"
             d="m 146.354,104.833 c -27.67,0 -50.123,22.453 -50.123,50.124 l 0,42.117 c 0,27.671 22.453,50.123 50.123,50.123 l 42.117,0 c 27.671,0 50.124,-22.452 50.124,-50.123 l 0,-42.117 c 0,-27.67 -22.452,-50.124 -50.124,-50.124 l -42.117,0 z m 0,1.906 42.117,0 c 26.644,0 48.219,21.577 48.219,48.218 l 0,42.117 c 0,26.644 -21.577,48.218 -48.219,48.218 l -42.117,0 c -26.642,0 -48.218,-21.574 -48.218,-48.218 l 0,-42.117 c 0,-26.642 21.577,-48.218 48.218,-48.218 z" /><path
             style="fill:#f4f4f4"
             inkscape:connector-curvature="0"
             id="polygon23"
             d="m 69.499,75.694 0,0.952 0,202.961 0,0.952 0.953,0 196.122,0 0.952,0 0,-0.952 0,-26.401 289.521,0 0.952,0 0,-0.952 0,-113.458 0,-0.953 -0.952,0 -289.522,0 0,-61.196 0,-0.952 -0.952,0 -196.122,0 -0.952,-10e-4 0,0 z m 1.904,1.905 194.217,0 0,61.196 0,0.953 0.953,0 0.714,0 288.807,0 0,111.552 -289.226,0 -0.297,0 -0.953,0 0,0.953 0,26.4 -194.217,0 0,-201.055 0.002,0.001 z" /><path
             style="fill:#f4f4f4"
             inkscape:connector-curvature="0"
             id="circle25"
             d="m 400.692,169.126 c -19.762,0 -35.777,16.046 -35.777,35.807 0,19.761 16.018,35.807 35.777,35.807 19.759,0 35.807,-16.046 35.807,-35.807 0,-19.761 -16.047,-35.807 -35.807,-35.807 l 0,0 z m 0,1.905 c 18.73,0 33.901,15.17 33.901,33.902 0,18.732 -15.171,33.902 -33.901,33.902 -18.731,0 -33.872,-15.171 -33.872,-33.902 0,-18.731 15.141,-33.902 33.872,-33.902 l 0,0 z" /><path
             style="fill:#f4f4f4"
             inkscape:connector-curvature="0"
             id="circle27"
             d="m 400.692,177.669 c -15.039,0 -27.234,12.227 -27.234,27.265 0,15.038 12.195,27.234 27.234,27.234 15.036,0 27.264,-12.196 27.264,-27.234 0,-15.038 -12.227,-27.265 -27.264,-27.265 z m 0,1.905 c 14.008,0 25.359,11.351 25.359,25.359 0,14.008 -11.352,25.33 -25.359,25.33 -14.01,0 -25.33,-11.321 -25.33,-25.33 0,-14.009 11.321,-25.359 25.33,-25.359 z" /><path
             style="fill:#f4f4f4"
             inkscape:connector-curvature="0"
             id="circle29"
             d="m 489.919,169.126 c -19.762,0 -35.807,16.046 -35.807,35.807 0,19.761 16.045,35.807 35.807,35.807 19.76,0 35.807,-16.046 35.807,-35.807 0,-19.761 -16.047,-35.807 -35.807,-35.807 l 0,0 z m 0,1.905 c 18.73,0 33.901,15.17 33.901,33.902 0,18.732 -15.171,33.902 -33.901,33.902 -18.731,0 -33.902,-15.171 -33.902,-33.902 0,-18.731 15.171,-33.902 33.902,-33.902 l 0,0 z" /><path
             style="fill:#f4f4f4"
             inkscape:connector-curvature="0"
             id="circle31"
             d="m 489.919,177.669 c -15.039,0 -27.234,12.227 -27.234,27.265 0,15.038 12.195,27.234 27.234,27.234 15.036,0 27.234,-12.196 27.234,-27.234 0,-15.038 -12.196,-27.265 -27.234,-27.265 z m 0,1.905 c 14.008,0 25.329,11.351 25.329,25.359 0,14.008 -11.321,25.33 -25.329,25.33 -14.01,0 -25.33,-11.321 -25.33,-25.33 0,-14.009 11.32,-25.359 25.33,-25.359 z" /><path
             style="fill:#f4f4f4"
             inkscape:connector-curvature="0"
             id="path33"
             d="m 39.406,68.432 c -4.766,0 -8.662,3.896 -8.662,8.662 l 0,203.084 c 0,4.766 3.897,8.661 8.662,8.661 l 518.646,0 c 4.429,0 7.956,-3.411 8.453,-7.709 l 0.179,0 0,-0.952 0,-203.085 c 0,-4.762 -3.868,-8.658 -8.64,-8.658 l -518.645,0 0.007,-0.003 z m 0,1.904 518.646,0 c 3.737,0 6.727,3.021 6.727,6.757 l 0,202.131 0,0.953 c 0,3.736 -2.989,6.756 -6.727,6.756 l -518.646,0 c -3.732,0.01 -6.753,-3.019 -6.753,-6.753 l 0,-203.083 c 0,-3.736 3.02,-6.756 6.756,-6.756 l -0.003,-0.005 z" /><path
             style="fill:#f4f4f4"
             inkscape:connector-curvature="0"
             id="rect35"
             d="m 359.021,163.559 0,0.953 0,81.465 0,0.952 0.953,0 81.465,0 0.953,0 0,-0.952 0,-81.465 0,-0.953 -0.953,0 -81.465,0 -0.953,0 z m 1.906,1.905 79.561,0 0,79.56 -79.561,0 0,-79.56 z" /><path
             style="fill:#f4f4f4"
             inkscape:connector-curvature="0"
             id="rect37"
             d="m 448.248,163.559 0,0.953 0,81.465 0,0.952 0.953,0 81.436,0 0.952,0 0,-0.952 0,-81.465 0,-0.953 -0.952,0 -81.436,0 -0.953,0 z m 1.905,1.905 79.531,0 0,79.56 -79.531,0 0,-79.56 z" /><path
             style="fill:#f4f4f4"
             inkscape:connector-curvature="0"
             id="polyline39"
             d="m 83.934,94.177 0,2.292 0,159.061 0,2.322 1.607,-1.638 25.33,-25.299 -1.369,-1.369 -23.663,23.692 0,-154.45 23.663,23.658 1.369,-1.34 -25.33,-25.299 -1.607,-1.637 0,0.007 z" /><path
             style="fill:#f4f4f4"
             inkscape:connector-curvature="0"
             id="polyline41"
             d="m 222.305,232.551 -1.37,1.339 23.693,23.692 -154.452,0 23.574,-23.573 -1.369,-1.339 -25.181,25.182 -1.637,1.637 2.292,0 159.062,0 2.292,0 -1.607,-1.637 -25.299,-25.3 0.002,-0.001 z" /><path
             style="fill:#f4f4f4"
             inkscape:connector-curvature="0"
             id="polyline43"
             d="m 250.878,94.177 -1.637,1.637 -25.211,25.182 1.369,1.369 23.574,-23.603 0,154.509 -23.633,-23.663 -1.339,1.34 25.24,25.27 1.637,1.638 0,-2.322 0,-159.063 0,-2.292 0,-0.002 z" /><path
             style="fill:#f4f4f4"
             inkscape:connector-curvature="0"
             id="polyline45"
             d="m 85.57,92.54 1.638,1.608 25.21,25.24 1.339,-1.34 -23.572,-23.602 154.452,0 -23.669,23.662 1.333,1.339 25.307,-25.3 1.607,-1.607 -2.292,0 -159.062,0 -2.291,0 0,0 z" /><path
             style="fill:#f4f4f4"
             inkscape:connector-curvature="0"
             id="line47"
             d="m 58.961,69.533 0,218.057 1.905,0 0,-218.057 -1.905,0 z" /><path
             style="fill:#f4f4f4"
             inkscape:connector-curvature="0"
             id="rect49"
             d="m 359.021,145.819 0,0.953 0,13.244 0,0.953 0.953,0 81.465,0 0.953,0 0,-0.953 0,-13.244 0,-0.953 -0.953,0 -81.465,0 -0.953,0 z m 1.906,1.905 79.561,0 0,11.339 -79.561,0 0,-11.339 z" /><path
             style="fill:#f4f4f4"
             inkscape:connector-curvature="0"
             id="rect51"
             d="m 448.248,145.819 0,0.953 0,13.244 0,0.953 0.953,0 81.436,0 0.952,0 0,-0.953 0,-13.244 0,-0.953 -0.952,0 -81.436,0 -0.953,0 z m 1.905,1.905 79.531,0 0,11.339 -79.531,0 0,-11.339 z" /><path
             style="fill:#f4f4f4"
             inkscape:connector-curvature="0"
             id="path53"
             d="m 276.804,73.134 c -0.987,0 -1.815,0.828 -1.815,1.816 l 0,53.01 c 0,0.988 0.829,1.815 1.815,1.815 l 282.855,0 c 0.985,0 1.785,-0.831 1.785,-1.815 l 0,-50.033 c 0,-2.641 -2.152,-4.792 -4.792,-4.792 l -279.844,0 -0.004,0 z m 0.09,1.906 279.756,0 c 1.613,0 2.888,1.275 2.888,2.887 l 0,49.945 -282.643,0 0,-52.832 -10e-4,0 z" /><path
             style="fill:#f4f4f4"
             inkscape:connector-curvature="0"
             id="path55"
             d="m 276.804,260.41 c -0.987,0 -1.815,0.829 -1.815,1.815 l 0,20.091 c 0,0.987 0.829,1.816 1.815,1.816 l 279.844,0 c 2.64,0 4.792,-2.183 4.792,-4.822 l 0,-17.085 c 0,-0.985 -0.8,-1.815 -1.785,-1.815 l -282.855,0 0.004,0 z m 0.09,1.905 282.645,0 0,16.995 c 0,1.611 -1.276,2.917 -2.888,2.917 l -279.758,0 0.001,-19.912 0,0 z" /><path
             style="fill:#f4f4f4"
             inkscape:connector-curvature="0"
             id="line57"
             d="m 274.461,129.271 -6.28,6.28 1.369,1.339 6.251,-6.25 -1.34,-1.369 z" /><path
             style="fill:#f4f4f4"
             inkscape:connector-curvature="0"
             id="line59"
             d="m 269.546,253.866 -1.369,1.34 6.281,6.28 1.339,-1.369 -6.251,-6.251 z" /></g></g></g></g><g
     inkscape:groupmode="layer"
     id="layer4"
     inkscape:label="Controller"><g
       id="g6587"
       transform="matrix(0.52090945,-0.38404578,-0.2601106,0.71267863,177.19047,182.54979)"><path
         id="path6505"
         d="m 237.748,96.47 c 0,-6.771 5.488,-12.26 12.258,-12.26 l 0,0 c 6.77,0 12.258,5.488 12.258,12.26 l 0,0 0.002,0 c -0.002,6.771 -5.49,12.258 -12.26,12.258 l 0,0 c -6.77,0.001 -12.258,-5.487 -12.258,-12.258 l 0,0 z m 1.999,0 c 0.01,5.664 4.593,10.248 10.259,10.257 l 0,0 c 5.667,-0.01 10.25,-4.593 10.26,-10.257 l 0,0 c -0.01,-5.667 -4.593,-10.25 -10.26,-10.26 l 0,0 c -5.666,0.01 -10.249,4.593 -10.259,10.26 l 0,0 z"
         inkscape:connector-curvature="0"
         style="fill:#f4f4f4" /><path
         id="path6507"
         d="m 208.472,84.46 c 0,-6.772 5.489,-12.259 12.259,-12.261 l 0,0 c 6.772,0.002 12.259,5.489 12.259,12.261 l 0,0 c 0,6.77 -5.487,12.257 -12.259,12.259 l 0,0 C 213.961,96.717 208.472,91.23 208.472,84.46 l 0,0 z m 2,0 c 0.01,5.664 4.593,10.247 10.26,10.259 l 0,0 c 5.666,-0.012 10.249,-4.595 10.259,-10.259 l 0,0 c -0.01,-5.667 -4.593,-10.25 -10.259,-10.26 l 0,0 c -5.665,0.01 -10.25,4.593 -10.26,10.26 l 0,0 z"
         inkscape:connector-curvature="0"
         style="fill:#f4f4f4" /><path
         id="path6509"
         d="m 164.768,89.664 c -1.588,0 -2.875,-1.287 -2.876,-2.875 l 0,0 0,-12.428 c 0.002,-0.281 -0.026,-0.476 -0.055,-0.564 l 0,0 c -0.008,-0.075 -0.021,-0.059 -0.021,-0.063 l 0,0 c 0,0.002 -0.006,-0.008 -0.069,-0.028 l 0,0 c -0.083,-0.027 -0.261,-0.057 -0.527,-0.055 l 0,0 -12.463,0 c -1.59,-0.002 -2.877,-1.289 -2.877,-2.876 l 0,0 0,-12.51 c 0,-1.59 1.287,-2.876 2.877,-2.876 l 0,0 12.478,0 c 0.45,-0.004 0.548,-0.1 0.548,-0.104 l 0,0 c 0.008,0 0.11,-0.124 0.11,-0.594 l 0,0 0,-12.441 c 0.002,-1.588 1.289,-2.875 2.876,-2.877 l 0,0 12.51,0.002 c 1.588,0 2.877,1.284 2.877,2.875 l 0,0 0,12.486 c 0.004,0.497 0.089,0.554 0.091,0.554 l 0,0 c 0,-0.002 0.033,0.022 0.125,0.049 l 0,0 c 0.091,0.024 0.244,0.049 0.488,0.049 l 0,0 12.433,0 c 1.588,0 2.875,1.287 2.876,2.876 l 0,0 0,12.511 c -0.002,1.588 -1.289,2.875 -2.876,2.876 l 0,0 -12.447,0 c -0.479,0.002 -0.574,0.098 -0.574,0.102 l 0,0 c -0.004,0 -0.116,0.135 -0.116,0.656 l 0,0 0,12.38 c 0,1.588 -1.289,2.875 -2.877,2.875 l 0,0 -12.511,0 0,0 z m -16.889,-31.399 0,12.511 c 0,0.482 0.393,0.875 0.877,0.875 l 0,0 12.463,0 c 0.769,0 1.527,0.145 2.077,0.739 l 0,0 c 0.525,0.604 0.59,1.301 0.596,1.973 l 0,0 0,12.427 c 0,0.482 0.391,0.875 0.875,0.875 l 0,0 12.51,0 c 0.485,0 0.875,-0.393 0.877,-0.875 l 0,0 0,-12.38 c 0,-0.747 0.139,-1.484 0.682,-2.052 l 0,0 c 0.554,-0.562 1.295,-0.707 2.007,-0.707 l 0,0 12.447,0 c 0.482,0 0.875,-0.393 0.875,-0.875 l 0,0 0,-12.511 c 0,-0.482 -0.393,-0.877 -0.875,-0.877 l 0,0 -12.431,0 c -0.686,-0.002 -1.393,-0.104 -1.971,-0.629 l 0,0 c -0.574,-0.535 -0.737,-1.285 -0.733,-2.021 l 0,0 0,-12.488 c -0.002,-0.482 -0.393,-0.875 -0.877,-0.875 l 0,0 -12.51,0 c -0.484,0 -0.875,0.391 -0.875,0.875 l 0,0 0,12.439 c 0,0.717 -0.148,1.441 -0.68,1.993 l 0,0 c -0.542,0.547 -1.272,0.707 -1.979,0.704 l 0,0 -12.478,0 c -0.485,0 -0.877,0.396 -0.877,0.879 l 0,0 z"
         inkscape:connector-curvature="0"
         style="fill:#f4f4f4" /><path
         id="path6511"
         d="m 153.936,55.96 c 1.841,-3.668 4.824,-6.661 8.49,-8.51 l 0,0 0.9,1.787 c -3.28,1.654 -5.955,4.337 -7.604,7.62 l 0,0 0.002,0.002 -1.788,-0.899 0,0 z"
         inkscape:connector-curvature="0"
         style="fill:#f4f4f4" /><path
         id="path6513"
         d="m 153.97,73.146 1.782,-0.905 c 1.659,3.274 4.344,5.947 7.629,7.59 l 0,0 -0.895,1.788 c -3.67,-1.835 -6.664,-4.816 -8.516,-8.473 l 0,0 z"
         inkscape:connector-curvature="0"
         style="fill:#f4f4f4" /><path
         id="path6515"
         d="m 178.743,79.792 c 3.256,-1.649 5.917,-4.313 7.562,-7.572 l 0,0 1.786,0.903 c -1.839,3.641 -4.806,6.61 -8.444,8.453 l 0,0 -0.904,-1.784 0,0 z"
         inkscape:connector-curvature="0"
         style="fill:#f4f4f4" /><path
         id="path6517"
         d="m 178.744,49.249 0.903,-1.786 c 3.653,1.851 6.627,4.835 8.464,8.494 l 0,0 -1.788,0.897 c -1.644,-3.273 -4.312,-5.953 -7.579,-7.605 l 0,0 z"
         inkscape:connector-curvature="0"
         style="fill:#f4f4f4" /><path
         id="path6519"
         d="m 164.862,64.521 c 0.002,-3.404 2.758,-6.161 6.162,-6.163 l 0,0 c 3.402,0.002 6.158,2.758 6.161,6.163 l 0,0 c -0.002,3.402 -2.758,6.158 -6.161,6.16 l 0,0 c -3.403,-0.003 -6.16,-2.759 -6.162,-6.16 l 0,0 z m 2.001,0 c 0.004,2.295 1.863,4.155 4.162,4.16 l 0,0 c 2.297,-0.004 4.156,-1.863 4.16,-4.16 l 0,0 c -0.004,-2.299 -1.862,-4.158 -4.16,-4.162 l 0,0 c -2.299,0.003 -4.158,1.862 -4.162,4.162 l 0,0 z"
         inkscape:connector-curvature="0"
         style="fill:#f4f4f4" /><path
         id="path6521"
         d="m 131.122,332.163 c -10.888,-0.308 -27.272,-7.633 -29.486,-35.109 l 0,0 c -0.388,-8.817 -0.572,-17.086 -0.572,-24.879 l 0,0 c -0.01,-60.639 11.272,-92.535 26.92,-129.803 l 0,0 c 2.229,-5.316 3.191,-10.547 3.191,-16.011 l 0,0 c 0.008,-11.805 -4.55,-24.758 -10.714,-41.431 l 0,0 0.002,0.002 1.875,-0.694 c 6.154,16.684 10.83,29.792 10.838,42.123 l 0,0 c 0.002,5.701 -1.015,11.224 -3.347,16.784 l 0,0 c -15.614,37.227 -26.754,68.625 -26.764,129.029 l 0,0 c 0,7.76 0.184,15.998 0.566,24.752 l 0,0 c 2.292,26.607 17.434,32.793 27.563,33.236 l 0,0 c 0.176,0.006 0.36,0.008 0.554,0.008 l 0,0 c 10.131,0.006 28.966,-9.506 31.822,-33.282 l 0,0 c 3.004,-24.783 12.75,-111.408 15.397,-125.048 l 0,0 c 2.603,-13.643 9.672,-27.791 27.542,-29.329 l 0,0 c 5.774,-0.503 9.888,-0.671 12.817,-0.673 l 0,0 c 5.864,0.019 6.965,0.625 7.34,0.836 l 0,0 -1.111,1.664 -0.013,0.011 c -0.122,-0.042 -0.379,-0.115 -0.824,-0.19 l 0,0 c -0.893,-0.156 -2.539,-0.322 -5.393,-0.318 l 0,0 c -2.852,-0.002 -6.911,0.164 -12.646,0.662 l 0,0 c -16.658,1.463 -23.099,14.34 -25.751,27.719 l 0,0 c -2.606,13.383 -12.377,100.15 -15.375,124.906 l 0,0 c -3.042,24.85 -22.646,35.037 -33.807,35.041 l 0,0 c -0.205,0 -0.413,0 -0.624,-0.006 l 0,0 z"
         inkscape:connector-curvature="0"
         style="fill:#f4f4f4" /><path
         id="path6523"
         d="m 336.321,96.47 c 0,-6.773 5.486,-12.259 12.259,-12.261 l 0,0 c 6.771,0.002 12.259,5.488 12.261,12.261 l 0,0 c -0.002,6.769 -5.49,12.257 -12.261,12.257 l 0,0 c -6.771,0.002 -12.259,-5.488 -12.259,-12.257 l 0,0 z m 12.259,10.259 c 5.666,-0.011 10.249,-4.593 10.261,-10.257 l 0,0 c -0.012,-5.666 -4.595,-10.25 -10.261,-10.261 l 0,0 c -5.666,0.011 -10.249,4.595 -10.259,10.261 l 0,0 c 0.01,5.663 4.593,10.246 10.259,10.257 l 0,0 z"
         inkscape:connector-curvature="0"
         style="fill:#f4f4f4" /><path
         id="path6525"
         d="m 365.593,84.459 c 0.002,-6.772 5.491,-12.259 12.262,-12.261 l 0,0 c 6.771,0.002 12.26,5.491 12.26,12.261 l 0,0 c 0,6.77 -5.489,12.259 -12.26,12.259 l 0,0 c -6.771,0 -12.26,-5.487 -12.262,-12.259 l 0,0 z m 12.26,10.258 c 5.666,-0.008 10.25,-4.593 10.26,-10.258 l 0,0 c -0.01,-5.666 -4.594,-10.25 -10.26,-10.26 l 0,0 c -5.664,0.011 -10.248,4.595 -10.26,10.26 l 0,0 c 0.011,5.666 4.595,10.25 10.26,10.258 l 0,0 z"
         inkscape:connector-curvature="0"
         style="fill:#f4f4f4" /><path
         id="path6527"
         d="m 421.308,89.665 c -1.59,-0.002 -2.877,-1.289 -2.877,-2.877 l 0,0 0,-12.379 c 0,-0.52 -0.107,-0.656 -0.114,-0.656 l 0,0 c 0,0 -0.098,-0.101 -0.572,-0.103 l 0,0 -12.45,0 c -1.588,0 -2.875,-1.287 -2.877,-2.875 l 0,0 0,-12.51 c 0.002,-1.588 1.289,-2.875 2.877,-2.877 l 0,0 12.434,0 c 0.484,0.002 0.612,-0.09 0.612,-0.096 l 0,0 c -0.007,-0.008 0.088,-0.059 0.092,-0.556 l 0,0 0,-12.485 c 0,-1.59 1.287,-2.877 2.878,-2.877 l 0,0 12.511,0 c 1.587,0 2.873,1.287 2.873,2.877 l 0,0 0,12.438 c 0.003,0.469 0.104,0.595 0.112,0.595 l 0,0 c 0,0.004 0.098,0.101 0.547,0.103 l 0,0 12.479,0 c 1.589,0.002 2.875,1.289 2.878,2.877 l 0,0 -0.003,12.511 c 0,1.588 -1.286,2.875 -2.875,2.877 l 0,0 -12.463,-0.002 c -0.403,-0.002 -0.559,0.06 -0.594,0.08 l 0,0 c -0.002,0.003 -0.021,0.029 -0.037,0.1 l 0,0 c -0.025,0.101 -0.047,0.283 -0.044,0.53 l 0,0 0,12.427 c -0.003,1.589 -1.289,2.875 -2.876,2.877 l 0,0 -12.511,0 0,0.001 z m -0.876,-15.256 0,12.378 c 0,0.484 0.392,0.876 0.876,0.876 l 0,0 12.512,0 c 0.481,0 0.874,-0.392 0.874,-0.876 l 0,0 0.002,-12.427 c 0.005,-0.67 0.068,-1.366 0.596,-1.972 l 0,0 c 0.549,-0.595 1.31,-0.74 2.079,-0.737 l 0,0 12.462,0 c 0.484,0 0.876,-0.392 0.876,-0.876 l 0,0 0,-12.51 c 0,-0.484 -0.394,-0.876 -0.876,-0.876 l 0,0 -12.479,-0.002 c -0.705,0.004 -1.438,-0.155 -1.978,-0.705 l 0,0 c -0.532,-0.551 -0.682,-1.276 -0.68,-1.993 l 0,0 -0.002,-12.438 c 0,-0.484 -0.393,-0.876 -0.874,-0.876 l 0,0 -12.512,-0.002 c -0.484,0.002 -0.875,0.394 -0.878,0.878 l 0,0 0,12.483 c 0.005,0.74 -0.158,1.488 -0.732,2.024 l 0,0 c -0.578,0.522 -1.284,0.625 -1.97,0.629 l 0,0 -12.435,-0.002 c -0.48,0.002 -0.876,0.396 -0.876,0.878 l 0,0 0,12.511 c 0,0.482 0.395,0.876 0.876,0.876 l 0,0 12.45,0 c 0.709,-0.002 1.45,0.145 2.004,0.706 l 0,0 c 0.545,0.567 0.684,1.304 0.685,2.053 l 0,0 0,0 0,0 z"
         inkscape:connector-curvature="0"
         style="fill:#f4f4f4" /><path
         id="path6529"
         d="m 435.262,49.236 0.9,-1.786 c 3.664,1.851 6.647,4.84 8.489,8.511 l 0,0 0.002,0 -1.789,0.896 c -1.646,-3.282 -4.324,-5.966 -7.602,-7.621 l 0,0 z"
         inkscape:connector-curvature="0"
         style="fill:#f4f4f4" /><path
         id="path6531"
         d="m 435.205,79.831 c 3.284,-1.642 5.969,-4.315 7.629,-7.589 l 0,0 1.783,0.904 c -1.854,3.66 -4.849,6.639 -8.518,8.473 l 0,0 0,0.002 -0.894,-1.79 0,0 z"
         inkscape:connector-curvature="0"
         style="fill:#f4f4f4" /><path
         id="path6533"
         d="m 410.494,73.123 0.002,0 1.785,-0.902 c 1.645,3.258 4.306,5.922 7.563,7.571 l 0,0 -0.903,1.785 c -3.639,-1.845 -6.606,-4.815 -8.447,-8.454 l 0,0 z"
         inkscape:connector-curvature="0"
         style="fill:#f4f4f4" /><path
         id="path6535"
         d="m 410.476,55.956 c 1.836,-3.657 4.811,-6.642 8.463,-8.492 l 0,0 0.904,1.785 c -3.27,1.653 -5.937,4.332 -7.58,7.606 l 0,0 -1.787,-0.899 0,0 z"
         inkscape:connector-curvature="0"
         style="fill:#f4f4f4" /><path
         id="path6537"
         d="m 421.4,64.521 c 0.002,-3.404 2.76,-6.16 6.161,-6.162 l 0,0 c 3.401,0.002 6.159,2.758 6.161,6.162 l 0,0 c -0.002,3.402 -2.76,6.16 -6.161,6.16 l 0,0 c -3.403,-0.002 -6.159,-2.76 -6.161,-6.16 l 0,0 z m 6.162,4.157 c 2.299,-0.004 4.156,-1.863 4.16,-4.159 l 0,0 c -0.004,-2.298 -1.861,-4.157 -4.16,-4.161 l 0,0 c -2.298,0.004 -4.156,1.863 -4.16,4.161 l 0,0 c 0.003,2.296 1.863,4.155 4.16,4.159 l 0,0 z"
         inkscape:connector-curvature="0"
         style="fill:#f4f4f4" /><g
         id="g6539"><path
           id="path6541"
           d="m 240.05,135.564 -0.047,-0.008 -85.933,-20.442 0.23,-0.974 0.298,-0.955 -0.298,0.955 -0.23,0.974 -0.039,-0.011 -0.027,-0.009 C 132.358,108.362 116.648,88.175 116.645,64.316 l 0,0 c 0,-29.362 23.806,-53.166 53.17,-53.168 l 0,0 c 5.151,0 10.135,0.734 14.789,2.087 l 0,0 c 0.785,0.191 2.231,0.853 4.596,1.973 l 0,0 c 2.33,1.111 5.43,2.652 9.068,4.497 l 0,0 c 7.273,3.692 16.695,8.602 26.357,13.726 l 0,0 c 19.335,10.258 39.567,21.333 45.583,25.287 l 0,0 c 11.246,7.595 18.64,20.466 18.642,35.062 l 0,0 c -0.002,23.354 -18.932,42.283 -42.285,42.283 l 0,0 c -2.215,0 -4.391,-0.169 -6.515,-0.499 l 0,0 z m 6.515,-1.5 c 11.127,-0.002 21.192,-4.507 28.485,-11.799 l 0,0 c 7.292,-7.293 11.799,-17.358 11.799,-28.485 l 0,0 c 0,-13.909 -7.043,-26.164 -17.751,-33.397 l 0,0 C 258.886,53.658 204.489,24.719 188.337,17.013 l 0,0 c -2.271,-1.093 -3.904,-1.781 -4.23,-1.841 l 0,0 c -4.534,-1.317 -9.329,-2.021 -14.291,-2.021 l 0,0 c -14.135,0 -26.919,5.726 -36.183,14.985 l 0,0 c -9.26,9.264 -14.985,22.048 -14.985,36.181 l 0,0 c -0.002,22.957 15.12,42.383 35.94,48.865 l 0,0 85.794,20.41 c 2.015,0.311 4.079,0.472 6.183,0.472 l 0,0 z"
           inkscape:connector-curvature="0"
           style="fill:#f4f4f4" /><path
           id="path6543"
           d="m 309.737,93.778 c 0,-14.592 7.396,-27.467 18.65,-35.069 l 0,0 c 10.476,-6.881 64.696,-35.716 80.997,-43.501 l 0,0 c 2.365,-1.119 3.813,-1.781 4.535,-1.958 l 0,0 c 4.713,-1.367 9.697,-2.101 14.853,-2.101 l 0,0 c 29.362,0 53.166,23.803 53.168,53.169 l 0,0 c -0.002,23.857 -15.713,44.046 -37.358,50.776 l 0,0 -0.025,0.007 -85.985,20.455 -0.036,0.006 c -2.122,0.33 -4.299,0.5 -6.513,0.5 l 0,0 c -23.355,10e-4 -42.286,-18.928 -42.286,-42.284 l 0,0 z m 104.681,-78.59 c -0.264,0.042 -1.897,0.732 -4.171,1.826 l 0,0 c -2.305,1.102 -5.396,2.637 -9.023,4.477 l 0,0 c -7.259,3.682 -16.674,8.59 -26.325,13.709 l 0,0 c -19.293,10.233 -39.594,21.353 -45.398,25.176 l 0,0 c -10.719,7.243 -17.764,19.497 -17.762,33.403 l 0,0 c 0,11.129 4.507,21.193 11.798,28.486 l 0,0 c 7.293,7.291 17.357,11.797 28.486,11.8 l 0,0 c 2.096,0 4.153,-0.162 6.164,-0.47 l 0,0 85.84,-20.42 c 20.808,-6.491 35.916,-25.91 35.912,-48.856 l 0,0 c 0,-14.134 -5.726,-26.92 -14.984,-36.184 l 0,0 C 455.691,18.876 442.906,13.15 428.774,13.15 l 0,0 c -4.964,-0.001 -9.759,0.704 -14.356,2.038 l 0,0 z"
           inkscape:connector-curvature="0"
           style="fill:#f4f4f4" /></g><path
         id="path6545"
         d="m 433.034,297.13 c -3,-24.758 -12.771,-111.525 -15.378,-124.908 l 0,0 c -2.652,-13.379 -9.091,-26.256 -25.752,-27.717 l 0,0 c -5.734,-0.5 -9.795,-0.664 -12.647,-0.664 l 0,0 c -4.275,-0.004 -5.849,0.381 -6.213,0.51 l 0,0 -0.013,-0.012 -1.112,-1.662 c 0.375,-0.215 1.473,-0.816 7.338,-0.838 l 0,0 c 2.932,0.002 7.043,0.17 12.82,0.672 l 0,0 c 17.87,1.541 24.941,15.687 27.543,29.33 l 0,0 c 2.648,13.639 12.393,100.266 15.398,125.049 l 0,0 c 2.852,23.777 21.687,33.287 31.819,33.283 l 0,0 c 0.191,0 0.377,-0.002 0.554,-0.008 l 0,0 c 10.131,-0.447 25.271,-6.631 27.562,-33.197 l 0,0 c 0.381,-8.795 0.565,-17.032 0.565,-24.793 l 0,0 C 495.507,211.771 484.37,180.372 468.756,143.147 l 0,0 c -2.338,-5.56 -3.35,-11.084 -3.35,-16.783 l 0,0 c 0.011,-12.331 4.686,-25.44 10.84,-42.125 l 0,0 0.002,0 1.875,0.693 c -6.164,16.673 -10.727,29.626 -10.715,41.431 l 0,0 c 0,5.465 0.96,10.691 3.191,16.008 l 0,0 c 15.648,37.268 26.93,69.166 26.918,129.805 l 0,0 c -0.002,7.791 -0.188,16.062 -0.571,24.918 l 0,0 c -2.21,27.438 -18.597,34.764 -29.485,35.07 l 0,0 c -0.211,0.008 -0.42,0.01 -0.624,0.01 l 0,0 c -11.16,-0.007 -30.767,-10.195 -33.803,-35.044 l 0,0 z"
         inkscape:connector-curvature="0"
         style="fill:#f4f4f4" /><path
         id="path6547"
         d="m 232.868,210.938 c -4.077,-0.002 -7.381,-3.305 -7.381,-7.381 l 0,0 0,-72.059 2,0 -0.002,72.059 c 0.006,2.973 2.41,5.374 5.382,5.38 l 0,0 132.852,0 c 2.974,-0.006 5.374,-2.407 5.38,-5.38 l 0,0 0,-72.059 2.002,0 -0.003,72.059 c 0,4.076 -3.303,7.379 -7.379,7.381 l 0,0 -132.851,0 0,0 z"
         inkscape:connector-curvature="0"
         style="fill:#f4f4f4" /><polygon
         id="polygon6549"
         points="250.38,47.556 348.337,47.556 348.337,49.554 250.38,49.554 "
         style="fill:#f4f4f4" /><polygon
         id="polygon6551"
         points="262.267,54.311 335.828,54.311 335.828,56.311 262.267,56.311 "
         style="fill:#f4f4f4" /><path
         id="path6553"
         d="m 290.888,70.447 c -0.713,0 -1.378,-0.247 -1.844,-0.619 l 0,0 -10.096,-6.928 -0.058,-0.056 c -0.584,-0.555 -0.951,-1.349 -0.951,-2.217 l 0,0 c 0.002,-1.693 1.374,-3.064 3.065,-3.064 l 0,0 36.578,0 c 1.691,0 3.063,1.372 3.063,3.064 l 0,0 c 0.002,0.869 -0.365,1.663 -0.95,2.219 l 0,0 -0.06,0.054 -10.04,6.889 c -0.52,0.411 -1.186,0.658 -1.896,0.658 l 0,0 0,-1 0,-1 c 0.252,0 0.475,-0.084 0.712,-0.268 l 0,0 9.953,-6.83 c 0.176,-0.192 0.281,-0.44 0.281,-0.721 l 0,0 c 0,-0.587 -0.478,-1.064 -1.063,-1.064 l 0,0 -36.578,0 c -0.588,0 -1.062,0.477 -1.064,1.064 l 0,0 c 0,0.281 0.106,0.53 0.282,0.72 l 0,0 10.008,6.87 c 0.184,0.145 0.404,0.229 0.658,0.229 l 0,0 16.811,0 0,1 0,1 -16.811,0 0,0 z"
         inkscape:connector-curvature="0"
         style="fill:#f4f4f4" /><path
         id="path6555"
         d="m 294.954,66.804 c 0,0.622 -0.504,1.126 -1.126,1.126 l -0.281,0 c -0.622,0 -1.126,-0.504 -1.126,-1.126 l 0,-6.287 c 0,-0.622 0.504,-1.126 1.126,-1.126 l 0.281,0 c 0.622,0 1.126,0.504 1.126,1.126 l 0,6.287 z"
         inkscape:connector-curvature="0"
         style="fill:#f4f4f4" /><path
         id="path6557"
         d="m 300.562,66.804 c 0,0.622 -0.506,1.126 -1.127,1.126 l -0.28,0 c -0.622,0 -1.128,-0.504 -1.128,-1.126 l 0,-6.287 c 0,-0.622 0.506,-1.126 1.128,-1.126 l 0.28,0 c 0.621,0 1.127,0.504 1.127,1.126 l 0,6.287 z"
         inkscape:connector-curvature="0"
         style="fill:#f4f4f4" /><path
         id="path6559"
         d="m 306.166,66.804 c 0,0.622 -0.504,1.126 -1.126,1.126 l -0.281,0 c -0.621,0 -1.126,-0.504 -1.126,-1.126 l 0,-6.287 c 0,-0.622 0.505,-1.126 1.126,-1.126 l 0.281,0 c 0.622,0 1.126,0.504 1.126,1.126 l 0,6.287 z"
         inkscape:connector-curvature="0"
         style="fill:#f4f4f4" /><path
         id="path6561"
         d="m 240.874,178.663 c -5.735,0 -10.383,-4.65 -10.383,-10.384 l 0,0 0,-14.011 2,0 0,14.011 c 0.008,4.63 3.752,8.373 8.384,8.382 l 0,0 115.845,0 c 4.627,-0.01 8.373,-3.754 8.383,-8.382 l 0,0 0,-14.011 0.002,0 1.996,0 0.002,14.011 c -0.002,5.735 -4.648,10.384 -10.383,10.384 l 0,0 -115.846,0 0,0 z"
         inkscape:connector-curvature="0"
         style="fill:#f4f4f4" /><g
         id="g6563"><path
           id="path6565"
           d="m 148.631,64.521 c 0,-3.027 0.602,-5.918 1.692,-8.554 l 0,0 1.847,0.762 c -0.991,2.399 -1.54,5.029 -1.54,7.792 l 0,0 c 0,2.759 0.546,5.384 1.538,7.781 l 0,0 -1.849,0.764 c -1.088,-2.633 -1.688,-5.523 -1.688,-8.545 l 0,0 z"
           inkscape:connector-curvature="0"
           style="fill:#f4f4f4" /><path
           id="path6567"
           d="m 162.591,85.271 0.753,-1.854 c 2.371,0.963 4.96,1.494 7.681,1.494 l 0,0 c 2.739,0 5.349,-0.538 7.734,-1.517 l 0,0 0.759,1.85 c -2.619,1.075 -5.491,1.667 -8.493,1.667 l 0,0 c -2.982,0.001 -5.831,-0.583 -8.434,-1.64 l 0,0 z"
           inkscape:connector-curvature="0"
           style="fill:#f4f4f4" /><path
           id="path6569"
           d="m 189.888,72.279 c 0.985,-2.392 1.528,-5.01 1.53,-7.761 l 0,0 c -0.002,-2.72 -0.532,-5.313 -1.5,-7.684 l 0,0 0.002,0 1.851,-0.754 c 1.061,2.604 1.646,5.455 1.646,8.438 l 0,0 c 0,3.015 -0.597,5.896 -1.68,8.525 l 0,0 -1.849,-0.764 0,0 z"
           inkscape:connector-curvature="0"
           style="fill:#f4f4f4" /><path
           id="path6571"
           d="m 162.446,43.828 c 2.644,-1.097 5.542,-1.701 8.579,-1.701 l 0,0 c 3.018,0 5.903,0.598 8.536,1.685 l 0,0 -0.765,1.849 c -2.396,-0.987 -5.019,-1.534 -7.771,-1.534 l 0,0 c -2.771,0 -5.406,0.551 -7.81,1.55 l 0,0 -0.769,-1.849 0,0 z"
           inkscape:connector-curvature="0"
           style="fill:#f4f4f4" /></g><g
         id="g6573"><path
           id="path6575"
           d="m 405.168,64.521 c 0,-3.027 0.603,-5.918 1.694,-8.555 l 0,0 1.85,0.765 c -0.995,2.399 -1.543,5.028 -1.543,7.79 l 0,0 c 0,2.758 0.548,5.384 1.538,7.781 l 0,0 0.002,0 -1.851,0.765 c -1.087,-2.635 -1.69,-5.525 -1.69,-8.546 l 0,0 z"
           inkscape:connector-curvature="0"
           style="fill:#f4f4f4" /><path
           id="path6577"
           d="m 419.13,85.271 0.753,-1.853 c 2.37,0.964 4.961,1.495 7.681,1.495 l 0,0 c 2.739,0 5.351,-0.54 7.733,-1.518 l 0,0 0,0.002 0.759,1.849 c -2.619,1.075 -5.49,1.667 -8.492,1.667 l 0,0 c -2.982,-10e-4 -5.833,-0.584 -8.434,-1.642 l 0,0 z"
           inkscape:connector-curvature="0"
           style="fill:#f4f4f4" /><path
           id="path6579"
           d="m 446.426,72.28 c 0.985,-2.391 1.529,-5.011 1.529,-7.762 l 0,0 c 0,-2.721 -0.532,-5.313 -1.497,-7.684 l 0,0 1.852,-0.754 c 1.063,2.606 1.646,5.458 1.646,8.438 l 0,0 c 0.002,3.015 -0.599,5.897 -1.678,8.524 l 0,0 -1.852,-0.762 0,0 z"
           inkscape:connector-curvature="0"
           style="fill:#f4f4f4" /><path
           id="path6581"
           d="m 418.985,43.829 c 2.641,-1.096 5.542,-1.702 8.576,-1.702 l 0,0 c 3.021,0 5.903,0.6 8.537,1.686 l 0,0 -0.766,1.849 c -2.395,-0.989 -5.018,-1.533 -7.771,-1.533 l 0,0 c -2.77,0 -5.404,0.55 -7.81,1.547 l 0,0 -0.766,-1.847 0,0 z"
           inkscape:connector-curvature="0"
           style="fill:#f4f4f4" /></g></g></g></svg>