<?xml version="1.0" encoding="UTF-8" standalone="no"?>
<!-- Generator: Adobe Illustrator 13.0.0, SVG Export Plug-In . SVG Version: 6.00 Build 14948)  -->

<svg
   xmlns:dc="http://purl.org/dc/elements/1.1/"
   xmlns:cc="http://creativecommons.org/ns#"
   xmlns:rdf="http://www.w3.org/1999/02/22-rdf-syntax-ns#"
   xmlns:svg="http://www.w3.org/2000/svg"
   xmlns="http://www.w3.org/2000/svg"
   xmlns:sodipodi="http://sodipodi.sourceforge.net/DTD/sodipodi-0.dtd"
   xmlns:inkscape="http://www.inkscape.org/namespaces/inkscape"
   version="1.1"
   id="Layer_2"
   x="0px"
   y="0px"
   width="550"
   height="550"
   viewBox="0 0 549.99995 549.99999"
   enable-background="new 0 0 598.189 350.26"
   xml:space="preserve"
   inkscape:version="0.91 r13725"
   sodipodi:docname="controller_gg.svg"><metadata
     id="metadata3083"><rdf:RDF><cc:Work
         rdf:about=""><dc:format>image/svg+xml</dc:format><dc:type
           rdf:resource="http://purl.org/dc/dcmitype/StillImage" /><dc:title></dc:title></cc:Work></rdf:RDF></metadata><defs
     id="defs3081" /><sodipodi:namedview
     pagecolor="#ffffff"
     bordercolor="#666666"
     borderopacity="1"
     objecttolerance="10"
     gridtolerance="10"
     guidetolerance="10"
     inkscape:pageopacity="0"
     inkscape:pageshadow="2"
     inkscape:window-width="1920"
     inkscape:window-height="1001"
     id="namedview3079"
     showgrid="false"
     inkscape:zoom="0.76362314"
     inkscape:cx="446.61011"
     inkscape:cy="491.14099"
     inkscape:window-x="-9"
     inkscape:window-y="759"
     inkscape:window-maximized="1"
     inkscape:current-layer="layer4"
     showguides="true"
     inkscape:guide-bbox="true" /><g
     inkscape:groupmode="layer"
     id="layer2"
     inkscape:label="Screen_Rect"
     style="display:none"
     transform="translate(0,199.73999)"
     sodipodi:insensitive="true"><path
       style="fill:#0000ff;stroke:#000000;stroke-width:1px;stroke-linecap:butt;stroke-linejoin:miter;stroke-opacity:1"
       d="M 5.0135033,547.22203 136.4109,114.39023 653.54628,-189.09358 406.482,260.92121 Z"
       id="path3021"
       inkscape:connector-curvature="0"
       transform="translate(-2e-5,-199.73999)"
       sodipodi:nodetypes="ccccc" /><rect
       style="opacity:0.60100002;fill:#d8201f;fill-opacity:1;stroke:#ff8080;stroke-width:2.45114732;stroke-linecap:round;stroke-linejoin:round;stroke-miterlimit:4;stroke-dasharray:none;stroke-opacity:1"
       id="rect4230"
       width="444.2457"
       height="9.9567661"
       x="145.95099"
       y="-211.30678" /></g><g
     inkscape:groupmode="layer"
     id="layer1"
     inkscape:label="Controller_Vorlage"
     style="display:none"
     sodipodi:insensitive="true"><g
       id="g4929"
       transform="translate(-0.929149,0.5695451)"><g
         transform="translate(0,199.73999)"
         style="display:none"
         inkscape:label="Layer2"
         id="layer2-9"><path
           sodipodi:nodetypes="ccccc"
           transform="translate(-2e-5,-199.73999)"
           inkscape:connector-curvature="0"
           id="path3021-0"
           d="M 5.0135033,547.22203 136.4109,114.39023 653.54628,-189.09358 406.482,260.92121 Z"
           style="fill:#ffffff;stroke:#000000;stroke-width:1px;stroke-linecap:butt;stroke-linejoin:miter;stroke-opacity:1" /></g><g
         inkscape:label="Layer"
         id="layer1-2"><g
           transform="matrix(0.55322035,-0.3970343,-0.34863416,0.85569517,173.63773,166.52161)"
           id="g3100"><path
             style="fill:#f4f4f4"
             inkscape:connector-curvature="0"
             id="path3"
             d="m 148.05,114.447 c -23.656,0 -42.861,19.204 -42.861,42.861 l 0,37.414 c 0,23.658 19.205,42.86 42.861,42.86 l 38.694,0 c 23.656,0 42.861,-19.202 42.861,-42.86 l 0,-37.414 c 0,-23.657 -19.205,-42.861 -42.861,-42.861 l -38.694,0 z m 0,1.905 38.694,0 c 22.627,0 40.956,18.328 40.956,40.956 l 0,37.414 c 0,22.629 -18.329,40.956 -40.956,40.956 l -38.694,0 c -22.628,0 -40.956,-18.327 -40.956,-40.956 l 0,-37.414 c 0,-22.629 18.328,-40.956 40.956,-40.956 z" /><path
             style="fill:#f4f4f4"
             inkscape:connector-curvature="0"
             id="path5"
             d="m 167.395,123.168 c -3.23,0 -5.863,2.633 -5.863,5.864 l 0,13.037 c 0,3.23 2.632,5.863 5.863,5.863 3.23,0 5.863,-2.633 5.863,-5.863 l 0,-13.037 c 0,-3.23 -2.633,-5.864 -5.863,-5.864 z m 0,1.906 c 2.201,0 3.958,1.758 3.958,3.958 l 0,13.037 c 0,2.2 -1.758,3.958 -3.958,3.958 -2.202,0 -3.958,-1.758 -3.958,-3.958 l 0,-13.037 c -0.001,-2.2 1.757,-3.958 3.958,-3.958 z" /><path
             style="fill:#f4f4f4"
             inkscape:connector-curvature="0"
             id="path7"
             d="m 120.425,170.135 c -3.23,0 -5.864,2.633 -5.864,5.864 0,3.231 2.632,5.894 5.864,5.894 l 13.037,0 c 3.229,0 5.864,-2.662 5.864,-5.894 0,-3.229 -2.633,-5.864 -5.864,-5.864 l -13.037,0 z m 0,1.905 13.037,0 c 2.201,0 3.959,1.759 3.959,3.959 0,2.201 -1.759,3.988 -3.959,3.988 l -13.037,0 c -2.198,-0.01 -3.955,-1.791 -3.955,-3.99 0,-2.201 1.758,-3.959 3.958,-3.959 l -0.003,0.002 z" /><path
             style="fill:#f4f4f4"
             inkscape:connector-curvature="0"
             id="path9"
             d="m 167.395,204.071 c -3.23,0 -5.863,2.663 -5.863,5.894 l 0,13.038 c 0,3.229 2.632,5.863 5.863,5.863 3.23,0 5.863,-2.633 5.863,-5.863 l 0,-13.038 c 0,-3.23 -2.633,-5.894 -5.863,-5.894 z m 0,1.906 c 2.201,0 3.958,1.789 3.958,3.988 l 0,13.038 c 0,2.2 -1.757,3.958 -3.958,3.958 -2.202,0 -3.958,-1.759 -3.958,-3.958 l 0,-13.038 c -0.001,-2.2 1.757,-3.988 3.958,-3.988 z" /><path
             style="fill:#f4f4f4"
             inkscape:connector-curvature="0"
             id="path11"
             d="m 201.321,170.135 c -3.229,0 -5.863,2.633 -5.863,5.864 0,3.231 2.633,5.894 5.863,5.894 l 13.067,0 c 3.229,0 5.863,-2.662 5.863,-5.894 0,-3.229 -2.633,-5.864 -5.863,-5.864 l -13.067,0 z m 0,1.905 13.067,0 c 2.2,0 3.958,1.76 3.958,3.959 0,2.201 -1.758,3.988 -3.958,3.988 l -13.067,0 c -2.2,0 -3.958,-1.788 -3.958,-3.988 0,-2.2 1.759,-3.959 3.958,-3.959 z" /><path
             style="fill:#f4f4f4"
             inkscape:connector-curvature="0"
             id="polygon13"
             d="m 133.878,141.176 -1.31,1.31 8.155,12.025 0.655,0.952 0.804,-0.803 3.869,-3.87 0.804,-0.804 -0.953,-0.655 -12.024,-8.155 z" /><path
             style="fill:#f4f4f4"
             inkscape:connector-curvature="0"
             id="polygon15"
             d="m 141.383,196.566 -0.654,0.952 -8.156,12.024 1.31,1.31 12.025,-8.155 0.953,-0.654 -0.804,-0.804 -3.87,-3.869 -0.804,-0.804 z" /><path
             style="fill:#f4f4f4"
             inkscape:connector-curvature="0"
             id="polygon17"
             d="m 193.435,196.566 -0.804,0.804 -3.869,3.869 -0.833,0.804 0.953,0.654 12.025,8.155 1.339,-1.31 -8.156,-12.024 -0.655,-0.952 0,0 z" /><path
             style="fill:#f4f4f4"
             inkscape:connector-curvature="0"
             id="polygon19"
             d="m 200.912,141.176 -12.025,8.155 -0.953,0.655 0.833,0.804 3.87,3.87 0.804,0.803 0.655,-0.952 8.155,-12.025 -1.339,-1.31 z" /><path
             style="fill:#f4f4f4"
             inkscape:connector-curvature="0"
             id="path21"
             d="m 146.354,104.833 c -27.67,0 -50.123,22.453 -50.123,50.124 l 0,42.117 c 0,27.671 22.453,50.123 50.123,50.123 l 42.117,0 c 27.671,0 50.124,-22.452 50.124,-50.123 l 0,-42.117 c 0,-27.67 -22.452,-50.124 -50.124,-50.124 l -42.117,0 z m 0,1.906 42.117,0 c 26.644,0 48.219,21.577 48.219,48.218 l 0,42.117 c 0,26.644 -21.577,48.218 -48.219,48.218 l -42.117,0 c -26.642,0 -48.218,-21.574 -48.218,-48.218 l 0,-42.117 c 0,-26.642 21.577,-48.218 48.218,-48.218 z" /><path
             style="fill:#f4f4f4"
             inkscape:connector-curvature="0"
             id="polygon23"
             d="m 69.499,75.694 0,0.952 0,202.961 0,0.952 0.953,0 196.122,0 0.952,0 0,-0.952 0,-26.401 289.521,0 0.952,0 0,-0.952 0,-113.458 0,-0.953 -0.952,0 -289.522,0 0,-61.196 0,-0.952 -0.952,0 -196.122,0 -0.952,-10e-4 0,0 z m 1.904,1.905 194.217,0 0,61.196 0,0.953 0.953,0 0.714,0 288.807,0 0,111.552 -289.226,0 -0.297,0 -0.953,0 0,0.953 0,26.4 -194.217,0 0,-201.055 0.002,0.001 z" /><path
             style="fill:#f4f4f4"
             inkscape:connector-curvature="0"
             id="circle25"
             d="m 400.692,169.126 c -19.762,0 -35.777,16.046 -35.777,35.807 0,19.761 16.018,35.807 35.777,35.807 19.759,0 35.807,-16.046 35.807,-35.807 0,-19.761 -16.047,-35.807 -35.807,-35.807 l 0,0 z m 0,1.905 c 18.73,0 33.901,15.17 33.901,33.902 0,18.732 -15.171,33.902 -33.901,33.902 -18.731,0 -33.872,-15.171 -33.872,-33.902 0,-18.731 15.141,-33.902 33.872,-33.902 l 0,0 z" /><path
             style="fill:#f4f4f4"
             inkscape:connector-curvature="0"
             id="circle27"
             d="m 400.692,177.669 c -15.039,0 -27.234,12.227 -27.234,27.265 0,15.038 12.195,27.234 27.234,27.234 15.036,0 27.264,-12.196 27.264,-27.234 0,-15.038 -12.227,-27.265 -27.264,-27.265 z m 0,1.905 c 14.008,0 25.359,11.351 25.359,25.359 0,14.008 -11.352,25.33 -25.359,25.33 -14.01,0 -25.33,-11.321 -25.33,-25.33 0,-14.009 11.321,-25.359 25.33,-25.359 z" /><path
             style="fill:#f4f4f4"
             inkscape:connector-curvature="0"
             id="circle29"
             d="m 489.919,169.126 c -19.762,0 -35.807,16.046 -35.807,35.807 0,19.761 16.045,35.807 35.807,35.807 19.76,0 35.807,-16.046 35.807,-35.807 0,-19.761 -16.047,-35.807 -35.807,-35.807 l 0,0 z m 0,1.905 c 18.73,0 33.901,15.17 33.901,33.902 0,18.732 -15.171,33.902 -33.901,33.902 -18.731,0 -33.902,-15.171 -33.902,-33.902 0,-18.731 15.171,-33.902 33.902,-33.902 l 0,0 z" /><path
             style="fill:#f4f4f4"
             inkscape:connector-curvature="0"
             id="circle31"
             d="m 489.919,177.669 c -15.039,0 -27.234,12.227 -27.234,27.265 0,15.038 12.195,27.234 27.234,27.234 15.036,0 27.234,-12.196 27.234,-27.234 0,-15.038 -12.196,-27.265 -27.234,-27.265 z m 0,1.905 c 14.008,0 25.329,11.351 25.329,25.359 0,14.008 -11.321,25.33 -25.329,25.33 -14.01,0 -25.33,-11.321 -25.33,-25.33 0,-14.009 11.32,-25.359 25.33,-25.359 z" /><path
             style="fill:#f4f4f4"
             inkscape:connector-curvature="0"
             id="path33"
             d="m 39.406,68.432 c -4.766,0 -8.662,3.896 -8.662,8.662 l 0,203.084 c 0,4.766 3.897,8.661 8.662,8.661 l 518.646,0 c 4.429,0 7.956,-3.411 8.453,-7.709 l 0.179,0 0,-0.952 0,-203.085 c 0,-4.762 -3.868,-8.658 -8.64,-8.658 l -518.645,0 0.007,-0.003 z m 0,1.904 518.646,0 c 3.737,0 6.727,3.021 6.727,6.757 l 0,202.131 0,0.953 c 0,3.736 -2.989,6.756 -6.727,6.756 l -518.646,0 c -3.732,0.01 -6.753,-3.019 -6.753,-6.753 l 0,-203.083 c 0,-3.736 3.02,-6.756 6.756,-6.756 l -0.003,-0.005 z" /><path
             style="fill:#f4f4f4"
             inkscape:connector-curvature="0"
             id="rect35"
             d="m 359.021,163.559 0,0.953 0,81.465 0,0.952 0.953,0 81.465,0 0.953,0 0,-0.952 0,-81.465 0,-0.953 -0.953,0 -81.465,0 -0.953,0 z m 1.906,1.905 79.561,0 0,79.56 -79.561,0 0,-79.56 z" /><path
             style="fill:#f4f4f4"
             inkscape:connector-curvature="0"
             id="rect37"
             d="m 448.248,163.559 0,0.953 0,81.465 0,0.952 0.953,0 81.436,0 0.952,0 0,-0.952 0,-81.465 0,-0.953 -0.952,0 -81.436,0 -0.953,0 z m 1.905,1.905 79.531,0 0,79.56 -79.531,0 0,-79.56 z" /><path
             style="fill:#f4f4f4"
             inkscape:connector-curvature="0"
             id="polyline39"
             d="m 83.934,94.177 0,2.292 0,159.061 0,2.322 1.607,-1.638 25.33,-25.299 -1.369,-1.369 -23.663,23.692 0,-154.45 23.663,23.658 1.369,-1.34 -25.33,-25.299 -1.607,-1.637 0,0.007 z" /><path
             style="fill:#f4f4f4"
             inkscape:connector-curvature="0"
             id="polyline41"
             d="m 222.305,232.551 -1.37,1.339 23.693,23.692 -154.452,0 23.574,-23.573 -1.369,-1.339 -25.181,25.182 -1.637,1.637 2.292,0 159.062,0 2.292,0 -1.607,-1.637 -25.299,-25.3 0.002,-0.001 z" /><path
             style="fill:#f4f4f4"
             inkscape:connector-curvature="0"
             id="polyline43"
             d="m 250.878,94.177 -1.637,1.637 -25.211,25.182 1.369,1.369 23.574,-23.603 0,154.509 -23.633,-23.663 -1.339,1.34 25.24,25.27 1.637,1.638 0,-2.322 0,-159.063 0,-2.292 0,-0.002 z" /><path
             style="fill:#f4f4f4"
             inkscape:connector-curvature="0"
             id="polyline45"
             d="m 85.57,92.54 1.638,1.608 25.21,25.24 1.339,-1.34 -23.572,-23.602 154.452,0 -23.669,23.662 1.333,1.339 25.307,-25.3 1.607,-1.607 -2.292,0 -159.062,0 -2.291,0 0,0 z" /><path
             style="fill:#f4f4f4"
             inkscape:connector-curvature="0"
             id="line47"
             d="m 58.961,69.533 0,218.057 1.905,0 0,-218.057 -1.905,0 z" /><path
             style="fill:#f4f4f4"
             inkscape:connector-curvature="0"
             id="rect49"
             d="m 359.021,145.819 0,0.953 0,13.244 0,0.953 0.953,0 81.465,0 0.953,0 0,-0.953 0,-13.244 0,-0.953 -0.953,0 -81.465,0 -0.953,0 z m 1.906,1.905 79.561,0 0,11.339 -79.561,0 0,-11.339 z" /><path
             style="fill:#f4f4f4"
             inkscape:connector-curvature="0"
             id="rect51"
             d="m 448.248,145.819 0,0.953 0,13.244 0,0.953 0.953,0 81.436,0 0.952,0 0,-0.953 0,-13.244 0,-0.953 -0.952,0 -81.436,0 -0.953,0 z m 1.905,1.905 79.531,0 0,11.339 -79.531,0 0,-11.339 z" /><path
             style="fill:#f4f4f4"
             inkscape:connector-curvature="0"
             id="path53"
             d="m 276.804,73.134 c -0.987,0 -1.815,0.828 -1.815,1.816 l 0,53.01 c 0,0.988 0.829,1.815 1.815,1.815 l 282.855,0 c 0.985,0 1.785,-0.831 1.785,-1.815 l 0,-50.033 c 0,-2.641 -2.152,-4.792 -4.792,-4.792 l -279.844,0 -0.004,0 z m 0.09,1.906 279.756,0 c 1.613,0 2.888,1.275 2.888,2.887 l 0,49.945 -282.643,0 0,-52.832 -10e-4,0 z" /><path
             style="fill:#f4f4f4"
             inkscape:connector-curvature="0"
             id="path55"
             d="m 276.804,260.41 c -0.987,0 -1.815,0.829 -1.815,1.815 l 0,20.091 c 0,0.987 0.829,1.816 1.815,1.816 l 279.844,0 c 2.64,0 4.792,-2.183 4.792,-4.822 l 0,-17.085 c 0,-0.985 -0.8,-1.815 -1.785,-1.815 l -282.855,0 0.004,0 z m 0.09,1.905 282.645,0 0,16.995 c 0,1.611 -1.276,2.917 -2.888,2.917 l -279.758,0 0.001,-19.912 0,0 z" /><path
             style="fill:#f4f4f4"
             inkscape:connector-curvature="0"
             id="line57"
             d="m 274.461,129.271 -6.28,6.28 1.369,1.339 6.251,-6.25 -1.34,-1.369 z" /><path
             style="fill:#f4f4f4"
             inkscape:connector-curvature="0"
             id="line59"
             d="m 269.546,253.866 -1.369,1.34 6.281,6.28 1.339,-1.369 -6.251,-6.251 z" /></g></g></g></g><g
     inkscape:groupmode="layer"
     id="layer4"
     inkscape:label="Controller"><g
       id="g7010"
       transform="matrix(0.39240885,-0.25665454,-0.23668059,0.57333559,206.68955,165.92163)"><path
         d="m 35.325,4.909 c -2.444,0 -4.725,-0.055 -6.587,0.65 -0.931,0.352 -1.752,0.943 -2.318,1.81 -0.566,0.867 -0.848,1.962 -0.848,3.308 l 0,325.047 c 0,1.345 0.277,2.418 0.876,3.224 0.599,0.805 1.471,1.274 2.403,1.499 1.865,0.447 4.084,0.169 6.475,0.169 l 526.988,0 c 2.391,0 4.609,0.278 6.475,-0.169 0.934,-0.225 1.806,-0.694 2.404,-1.499 0.448,-0.604 0.658,-1.412 0.763,-2.318 l 0.113,0 0,-0.905 0,-325.048 c 0,-1.346 -0.254,-2.441 -0.82,-3.308 -0.566,-0.867 -1.415,-1.457 -2.347,-1.81 -1.863,-0.701 -4.144,-0.646 -6.587,-0.646 l -526.988,0 -0.002,-0.004 z m 0,1.809 526.988,0 c 2.447,0 4.595,0.029 5.938,0.537 0.672,0.253 1.141,0.597 1.471,1.103 0.335,0.504 0.543,1.217 0.543,2.318 l 0,324.143 0,0.904 c 0,1.101 -0.212,1.749 -0.509,2.149 -0.298,0.4 -0.716,0.631 -1.386,0.791 -1.341,0.322 -3.549,0.142 -6.051,0.142 l -526.988,0 c -2.501,0 -4.71,0.181 -6.051,-0.142 -0.669,-0.163 -1.087,-0.398 -1.384,-0.796 -0.298,-0.398 -0.509,-1.05 -0.509,-2.154 l 0,-325.036 c 0,-1.101 0.208,-1.814 0.537,-2.318 0.33,-0.506 0.798,-0.85 1.471,-1.103 1.343,-0.509 3.49,-0.537 5.937,-0.537 l -0.007,0 z"
         id="path3-3"
         inkscape:connector-curvature="0"
         style="fill:#f4f4f4" /><path
         d="m 52.318,96.32 c -8.13,0 -15.267,4.208 -19.368,10.574 l 1.499,0.99 c 3.78,-5.868 10.365,-9.755 17.87,-9.755 l 492.489,0 c 7.604,0 14.257,3.983 18.011,9.98 l 1.528,-0.958 c -4.073,-6.509 -11.299,-10.83 -19.538,-10.83 l -492.489,0 -0.002,-0.001 z"
         id="path5-0"
         inkscape:connector-curvature="0"
         style="fill:#f4f4f4" /><path
         d="m 42.14,106.047 c -3.426,0 -6.545,1.346 -8.85,3.533 l 1.244,1.33 c 1.982,-1.882 4.653,-3.054 7.606,-3.054 l 512.847,0 c 3.265,0 6.176,1.43 8.199,3.676 l 1.357,-1.217 c -2.353,-2.611 -5.77,-4.27 -9.557,-4.27 l -512.846,0.002 0,0 z"
         id="path7-8"
         inkscape:connector-curvature="0"
         style="fill:#f4f4f4" /><path
         d="m 50.114,133.308 c -1.712,0 -3.11,1.398 -3.11,3.11 l 0,17.926 c 0,1.712 1.398,3.139 3.11,3.139 l 28.783,0 c 1.711,0 3.139,-1.427 3.139,-3.139 l 0,-0.905 -0.028,0 0,-17.021 c 0,-1.712 -1.399,-3.11 -3.11,-3.11 l -28.784,0 0,0 z m 0,1.809 28.783,0 c 0.733,0 1.301,0.567 1.301,1.301 l 0,17.926 0,0.057 c -0.035,0.701 -0.591,1.272 -1.301,1.272 l -28.783,0 c -0.734,0 -1.301,-0.595 -1.301,-1.329 l 0,-17.926 c 0,-0.733 0.566,-1.301 1.301,-1.301 l 0,0 z"
         id="path9-0"
         inkscape:connector-curvature="0"
         style="fill:#f4f4f4" /><path
         d="m 97.898,133.308 c -1.712,0 -3.11,1.398 -3.11,3.11 l 0,17.926 c 0,1.712 1.398,3.139 3.11,3.139 l 28.783,0 c 1.712,0 3.11,-1.427 3.11,-3.139 l 0,-0.905 0,-17.021 c 0,-1.711 -1.398,-3.11 -3.11,-3.11 l -28.783,0 z m 0,1.809 28.783,0 c 0.734,0 1.301,0.567 1.301,1.301 l 0,17.926 c 0,0.734 -0.568,1.329 -1.301,1.329 l -28.783,0 c -0.733,0 -1.301,-0.595 -1.301,-1.329 l 0,-17.926 c 0.001,-0.733 0.569,-1.301 1.301,-1.301 z"
         id="path11-8"
         inkscape:connector-curvature="0"
         style="fill:#f4f4f4" /><path
         d="m 145.683,133.308 c -1.712,0 -3.11,1.398 -3.11,3.11 l 0,17.926 c 0,1.711 1.398,3.139 3.11,3.139 l 28.783,0 c 1.711,0 3.11,-1.427 3.11,-3.139 l 0,-17.926 c 0,-1.712 -1.399,-3.11 -3.11,-3.11 l -28.783,0 z m 0,1.809 28.783,0 c 0.733,0 1.301,0.567 1.301,1.301 l 0,17.926 c 0,0.734 -0.568,1.329 -1.301,1.329 l -28.783,0 c -0.734,0 -1.301,-0.594 -1.301,-1.329 l 0,-17.926 c 0,-0.733 0.567,-1.301 1.301,-1.301 z"
         id="path13"
         inkscape:connector-curvature="0"
         style="fill:#f4f4f4" /><path
         d="m 193.465,133.308 c -1.712,0 -3.139,1.398 -3.139,3.11 l 0,17.926 c 0,1.711 1.427,3.139 3.139,3.139 l 28.783,0 c 1.712,0 3.11,-1.427 3.11,-3.139 l 0,-17.926 c 0,-1.711 -1.398,-3.11 -3.11,-3.11 l -28.783,0 z m 0,1.809 28.783,0 c 0.734,0 1.301,0.567 1.301,1.301 l 0,17.926 c 0,0.735 -0.566,1.329 -1.301,1.329 l -28.783,0 c -0.735,0 -1.33,-0.594 -1.33,-1.329 l 0,-17.926 c 0,-0.733 0.596,-1.301 1.33,-1.301 z"
         id="path15"
         inkscape:connector-curvature="0"
         style="fill:#f4f4f4" /><path
         d="m 241.256,133.308 c -1.711,0 -3.139,1.398 -3.139,3.11 l 0,17.926 c 0,1.711 1.426,3.139 3.139,3.139 l 28.783,0 c 1.712,0 3.11,-1.427 3.11,-3.139 l 0,-17.926 c 0,-1.712 -1.398,-3.11 -3.11,-3.11 l -28.783,0 z m 0,1.809 28.783,0 c 0.733,0 1.301,0.567 1.301,1.301 l 0,17.926 c 0,0.734 -0.568,1.329 -1.301,1.329 l -28.783,0 c -0.734,0 -1.329,-0.594 -1.329,-1.329 l 0,-17.926 c 0,-0.733 0.596,-1.301 1.329,-1.301 z"
         id="path17"
         inkscape:connector-curvature="0"
         style="fill:#f4f4f4" /><path
         d="m 289.011,133.308 c -1.712,0 -3.11,1.398 -3.11,3.11 l 0,17.926 c 0,1.712 1.398,3.139 3.11,3.139 l 28.783,0 c 1.711,0 3.139,-1.427 3.139,-3.139 l 0,-17.926 c 0,-1.711 -1.426,-3.11 -3.139,-3.11 l -28.783,0 z m 0,1.809 28.783,0 c 0.734,0 1.329,0.567 1.329,1.301 l 0,17.926 c 0,0.734 -0.596,1.329 -1.329,1.329 l -28.783,0 c -0.733,0 -1.301,-0.595 -1.301,-1.329 l 0,-17.926 c 0,-0.733 0.568,-1.301 1.301,-1.301 z"
         id="path19"
         inkscape:connector-curvature="0"
         style="fill:#f4f4f4" /><path
         d="m 336.793,133.308 c -1.712,0 -3.11,1.398 -3.11,3.11 l 0,17.926 c 0,1.711 1.398,3.139 3.11,3.139 l 28.783,0 c 1.712,0 3.139,-1.427 3.139,-3.139 l 0,-17.926 c 0,-1.711 -1.426,-3.11 -3.139,-3.11 l -28.783,0 z m 0,1.809 28.783,0 c 0.734,0 1.329,0.567 1.329,1.301 l 0,17.926 c 0,0.734 -0.596,1.329 -1.329,1.329 l -28.783,0 c -0.735,0 -1.301,-0.594 -1.301,-1.329 l 0,-17.926 c 0,-0.733 0.567,-1.301 1.301,-1.301 z"
         id="path21-4"
         inkscape:connector-curvature="0"
         style="fill:#f4f4f4" /><path
         d="m 384.575,133.308 c -1.712,0 -3.11,1.398 -3.11,3.11 l 0,17.926 c 0,1.711 1.398,3.139 3.11,3.139 l 28.783,0 c 1.711,0 3.11,-1.427 3.11,-3.139 l 0,-17.926 c 0,-1.711 -1.397,-3.11 -3.11,-3.11 l -28.783,0 z m 0,1.809 28.783,0 c 0.734,0 1.301,0.567 1.301,1.301 l 0,17.926 c 0,0.734 -0.567,1.329 -1.301,1.329 l -28.783,0 c -0.734,0 -1.301,-0.594 -1.301,-1.329 l 0,-17.926 c 0,-0.733 0.568,-1.301 1.301,-1.301 z"
         id="path23"
         inkscape:connector-curvature="0"
         style="fill:#f4f4f4" /><path
         d="m 432.357,133.308 c -1.712,0 -3.11,1.398 -3.11,3.11 l 0,17.926 c 0,1.711 1.397,3.139 3.11,3.139 l 28.782,0 c 1.713,0 3.11,-1.427 3.11,-3.139 l 0,-17.926 c 0,-1.711 -1.397,-3.11 -3.11,-3.11 l -28.782,0 z m 0,1.809 28.782,0 c 0.735,0 1.301,0.567 1.301,1.301 l 0,17.926 c 0,0.734 -0.566,1.329 -1.301,1.329 l -28.782,0 c -0.734,0 -1.301,-0.594 -1.301,-1.329 l 0,-17.926 c 0.001,-0.733 0.568,-1.301 1.301,-1.301 z"
         id="path25"
         inkscape:connector-curvature="0"
         style="fill:#f4f4f4" /><path
         d="m 480.148,133.308 c -1.711,0 -3.138,1.398 -3.138,3.11 l 0,17.926 c 0,1.711 1.426,3.139 3.138,3.139 l 28.783,0 c 1.712,0 3.11,-1.427 3.11,-3.139 l 0,-17.926 c 0,-1.711 -1.398,-3.11 -3.11,-3.11 l -28.783,0 z m 0,1.809 28.783,0 c 0.734,0 1.301,0.567 1.301,1.301 l 0,17.926 c 0,0.734 -0.567,1.329 -1.301,1.329 l -28.783,0 c -0.733,0 -1.329,-0.594 -1.329,-1.329 l 0,-17.926 c 0,-0.733 0.596,-1.301 1.329,-1.301 z"
         id="path27"
         inkscape:connector-curvature="0"
         style="fill:#f4f4f4" /><path
         d="m 75.363,180.014 c -1.712,0 -3.11,1.397 -3.11,3.11 l 0,17.954 c 0,1.711 1.398,3.11 3.11,3.11 l 28.783,0 c 1.712,0 3.11,-1.398 3.11,-3.11 l 0,-17.954 c 0,-1.713 -1.397,-3.11 -3.11,-3.11 l -28.783,0 z m 0,1.809 28.783,0 c 0.734,0 1.3,0.567 1.3,1.301 l 0,17.954 c 0,0.732 -0.566,1.301 -1.3,1.301 l -28.783,0 c -0.733,0 -1.301,-0.569 -1.301,-1.301 l 0,-17.954 c 0,-0.735 0.568,-1.301 1.301,-1.301 z"
         id="path29"
         inkscape:connector-curvature="0"
         style="fill:#f4f4f4" /><path
         d="m 123.144,180.014 c -1.712,0 -3.139,1.397 -3.139,3.11 l 0,17.954 c 0,1.711 1.426,3.11 3.139,3.11 l 28.783,0 c 1.712,0 3.11,-1.399 3.11,-3.11 l 0,-17.954 c 0,-1.712 -1.397,-3.11 -3.11,-3.11 l -28.783,0 z m 0,1.809 28.783,0 c 0.734,0 1.301,0.566 1.301,1.301 l 0,17.954 c 0,0.733 -0.566,1.301 -1.301,1.301 l -28.783,0 c -0.734,0 -1.329,-0.569 -1.329,-1.301 l 0,-17.954 c 0,-0.735 0.595,-1.301 1.329,-1.301 z"
         id="path31"
         inkscape:connector-curvature="0"
         style="fill:#f4f4f4" /><path
         d="m 170.936,180.014 c -1.712,0 -3.139,1.397 -3.139,3.11 l 0,17.954 c 0,1.711 1.426,3.11 3.139,3.11 l 28.783,0 c 1.712,0 3.11,-1.398 3.11,-3.11 l 0,-17.954 c 0,-1.713 -1.397,-3.11 -3.11,-3.11 l -28.783,0 z m 0,1.809 28.783,0 c 0.734,0 1.301,0.567 1.301,1.301 l 0,17.954 c 0,0.732 -0.566,1.301 -1.301,1.301 l -28.783,0 c -0.734,0 -1.33,-0.569 -1.33,-1.301 l 0,-17.954 c 0,-0.735 0.596,-1.301 1.33,-1.301 z"
         id="path33-0"
         inkscape:connector-curvature="0"
         style="fill:#f4f4f4" /><path
         d="m 218.69,180.014 c -1.712,0 -3.11,1.397 -3.11,3.11 l 0,17.954 c 0,1.711 1.397,3.11 3.11,3.11 l 28.783,0 c 1.711,0 3.139,-1.398 3.139,-3.11 l 0,-17.954 c 0,-1.712 -1.426,-3.11 -3.139,-3.11 l -28.783,0 z m 0,1.809 28.783,0 c 0.734,0 1.329,0.566 1.329,1.301 l 0,17.954 c 0,0.732 -0.596,1.301 -1.329,1.301 l -28.783,0 c -0.734,0 -1.301,-0.569 -1.301,-1.301 l 0,-17.954 c 10e-4,-0.735 0.567,-1.301 1.301,-1.301 z"
         id="path35"
         inkscape:connector-curvature="0"
         style="fill:#f4f4f4" /><path
         d="m 266.473,180.014 c -1.712,0 -3.11,1.397 -3.11,3.11 l 0,17.954 c 0,1.711 1.397,3.11 3.11,3.11 l 28.783,0 c 1.712,0 3.139,-1.399 3.139,-3.11 l 0,-17.954 c 0,-1.712 -1.426,-3.11 -3.139,-3.11 l -28.783,0 z m 0,1.809 28.783,0 c 0.734,0 1.329,0.566 1.329,1.301 l 0,17.954 c 0,0.733 -0.595,1.301 -1.329,1.301 l -28.783,0 c -0.734,0 -1.301,-0.569 -1.301,-1.301 l 0,-17.954 c 0,-0.735 0.567,-1.301 1.301,-1.301 z"
         id="path37"
         inkscape:connector-curvature="0"
         style="fill:#f4f4f4" /><path
         d="m 314.255,180.014 c -1.712,0 -3.111,1.396 -3.111,3.11 l 0,17.954 c 0,1.711 1.398,3.11 3.111,3.11 l 28.783,0 c 1.711,0 3.139,-1.398 3.139,-3.11 l 0,-17.954 c 0,-1.713 -1.427,-3.11 -3.139,-3.11 l -28.783,0 z m 0,1.809 28.783,0 c 0.732,0 1.329,0.567 1.329,1.301 l 0,17.954 c 0,0.732 -0.598,1.301 -1.329,1.301 l -28.783,0 c -0.734,0 -1.301,-0.569 -1.301,-1.301 l 0,-17.954 c 0,-0.734 0.568,-1.301 1.301,-1.301 z"
         id="path39"
         inkscape:connector-curvature="0"
         style="fill:#f4f4f4" /><path
         d="m 362.046,180.014 c -1.712,0 -3.11,1.397 -3.11,3.11 l 0,17.954 c 0,1.711 1.397,3.11 3.11,3.11 l 28.783,0 c 1.712,0 3.11,-1.398 3.11,-3.11 l 0,-17.954 c 0,-1.712 -1.397,-3.11 -3.11,-3.11 l -28.783,0 z m 0,1.809 28.783,0 c 0.733,0 1.301,0.566 1.301,1.301 l 0,17.954 c 0,0.732 -0.568,1.301 -1.301,1.301 l -28.783,0 c -0.733,0 -1.301,-0.569 -1.301,-1.301 l 0,-17.954 c 0,-0.735 0.568,-1.301 1.301,-1.301 z"
         id="path41"
         inkscape:connector-curvature="0"
         style="fill:#f4f4f4" /><path
         d="m 409.828,180.014 c -1.712,0 -3.11,1.397 -3.11,3.11 l 0,17.954 c 0,1.71 1.396,3.11 3.11,3.11 l 28.783,0 c 1.712,0 3.11,-1.398 3.11,-3.11 l 0,-17.954 c 0,-1.713 -1.398,-3.11 -3.11,-3.11 l -28.783,0 z m 0,1.809 28.783,0 c 0.734,0 1.301,0.567 1.301,1.301 l 0,17.954 c 0,0.732 -0.568,1.301 -1.301,1.301 l -28.783,0 c -0.735,0 -1.3,-0.568 -1.3,-1.301 l 0,-17.954 c 0,-0.735 0.565,-1.301 1.3,-1.301 z"
         id="path43"
         inkscape:connector-curvature="0"
         style="fill:#f4f4f4" /><path
         d="m 457.61,180.014 c -1.712,0 -3.139,1.396 -3.139,3.11 l 0,17.954 c 0,1.711 1.426,3.11 3.139,3.11 l 28.783,0 c 1.712,0 3.109,-1.398 3.109,-3.11 l 0,-17.954 c 0,-1.712 -1.396,-3.11 -3.109,-3.11 l -28.783,0 z m 0,1.809 28.783,0 c 0.733,0 1.3,0.566 1.3,1.301 l 0,17.954 c 0,0.732 -0.567,1.301 -1.3,1.301 l -28.783,0 c -0.732,0 -1.329,-0.569 -1.329,-1.301 l 0,-17.954 c 0,-0.734 0.598,-1.301 1.329,-1.301 z"
         id="path45"
         inkscape:connector-curvature="0"
         style="fill:#f4f4f4" /><path
         d="m 505.392,180.014 c -1.711,0 -3.138,1.397 -3.138,3.11 l 0,17.954 c 0,1.711 1.426,3.11 3.138,3.11 l 28.784,0 c 1.712,0 3.11,-1.399 3.11,-3.11 l 0,-17.954 c 0,-1.712 -1.398,-3.11 -3.11,-3.11 l -28.784,0 z m 0,1.809 28.784,0 c 0.733,0 1.301,0.566 1.301,1.301 l 0,17.954 c 0,0.733 -0.567,1.301 -1.301,1.301 l -28.784,0 c -0.733,0 -1.328,-0.569 -1.328,-1.301 l 0,-17.954 c -0.001,-0.735 0.595,-1.301 1.328,-1.301 z"
         id="path47"
         inkscape:connector-curvature="0"
         style="fill:#f4f4f4" /><path
         d="m 87.549,226.728 c -1.712,0 -3.138,1.427 -3.138,3.139 l 0,17.926 c 0,1.711 1.426,3.11 3.138,3.11 l 28.784,0 c 1.711,0 3.11,-1.398 3.11,-3.11 l 0,-0.905 0,-17.021 c 0,-1.711 -1.398,-3.139 -3.11,-3.139 l -28.784,0 z m 0,1.81 28.784,0 c 0.733,0 1.3,0.595 1.3,1.328 l 0,17.926 c 0,0.734 -0.567,1.301 -1.3,1.301 l -28.784,0 c -0.733,0 -1.329,-0.567 -1.329,-1.301 l 0,-17.926 c 0.001,-0.734 0.596,-1.328 1.329,-1.328 z"
         id="path49"
         inkscape:connector-curvature="0"
         style="fill:#f4f4f4" /><path
         d="m 135.304,226.728 c -1.712,0 -3.11,1.427 -3.11,3.139 l 0,17.926 c 0,1.711 1.398,3.11 3.11,3.11 l 28.784,0 c 1.712,0 3.138,-1.399 3.138,-3.11 l 0,-17.926 c 0,-1.711 -1.426,-3.139 -3.138,-3.139 l -28.784,0 z m 0,1.81 28.784,0 c 0.733,0 1.329,0.595 1.329,1.328 l 0,17.926 c 0,0.735 -0.594,1.301 -1.329,1.301 l -28.784,0 c -0.734,0 -1.3,-0.567 -1.3,-1.301 l 0,-17.926 c 0,-0.734 0.566,-1.328 1.3,-1.328 z"
         id="path51"
         inkscape:connector-curvature="0"
         style="fill:#f4f4f4" /><path
         d="m 183.086,226.728 c -1.711,0 -3.11,1.427 -3.11,3.139 l 0,17.926 c 0,1.711 1.398,3.11 3.11,3.11 l 28.784,0 c 1.712,0 3.138,-1.398 3.138,-3.11 l 0,-17.926 c 0,-1.712 -1.426,-3.139 -3.138,-3.139 l -28.784,0 z m 0,1.81 28.784,0 c 0.733,0 1.329,0.595 1.329,1.328 l 0,17.926 c 0,0.734 -0.594,1.301 -1.329,1.301 l -28.784,0 c -0.733,0 -1.3,-0.567 -1.3,-1.301 l 0,-17.926 c 0,-0.734 0.568,-1.328 1.3,-1.328 z"
         id="path53-7"
         inkscape:connector-curvature="0"
         style="fill:#f4f4f4" /><path
         d="m 230.878,226.728 c -1.712,0 -3.11,1.427 -3.11,3.139 l 0,17.926 c 0,1.711 1.398,3.11 3.11,3.11 l 28.783,0 c 1.711,0 3.138,-1.398 3.138,-3.11 l 0,-17.926 c 0,-1.712 -1.426,-3.139 -3.138,-3.139 l -28.783,0 z m 0,1.81 28.783,0 c 0.733,0 1.329,0.595 1.329,1.328 l 0,17.926 c 0,0.734 -0.595,1.301 -1.329,1.301 l -28.783,0 c -0.734,0 -1.301,-0.567 -1.301,-1.301 l 0,-17.926 c 0,-0.734 0.567,-1.328 1.301,-1.328 z"
         id="path55-9"
         inkscape:connector-curvature="0"
         style="fill:#f4f4f4" /><path
         d="m 278.66,226.728 c -1.711,0 -3.11,1.427 -3.11,3.139 l 0,17.926 c 0,1.711 1.398,3.11 3.11,3.11 l 28.784,0 c 1.711,0 3.11,-1.398 3.11,-3.11 l 0,-17.926 c 0,-1.711 -1.398,-3.139 -3.11,-3.139 l -28.784,0 z m 0,1.81 28.784,0 c 0.733,0 1.301,0.595 1.301,1.328 l 0,17.926 c 0,0.734 -0.567,1.301 -1.301,1.301 l -28.784,0 c -0.734,0 -1.3,-0.567 -1.3,-1.301 l 0,-17.926 c -0.001,-0.734 0.567,-1.328 1.3,-1.328 z"
         id="path57"
         inkscape:connector-curvature="0"
         style="fill:#f4f4f4" /><path
         d="m 326.442,226.728 c -1.713,0 -3.11,1.427 -3.11,3.139 l 0,17.926 c 0,1.711 1.397,3.11 3.11,3.11 l 28.783,0 c 1.711,0 3.11,-1.398 3.11,-3.11 l 0,-17.926 c 0,-1.711 -1.398,-3.139 -3.11,-3.139 l -28.783,0 z m 0,1.81 28.783,0 c 0.734,0 1.301,0.595 1.301,1.328 l 0,17.926 c 0,0.734 -0.567,1.301 -1.301,1.301 l -28.783,0 c -0.734,0 -1.301,-0.567 -1.301,-1.301 l 0,-17.926 c 10e-4,-0.734 0.568,-1.328 1.301,-1.328 z"
         id="path59"
         inkscape:connector-curvature="0"
         style="fill:#f4f4f4" /><path
         d="m 374.225,226.728 c -1.712,0 -3.139,1.427 -3.139,3.139 l 0,17.926 c 0,1.711 1.426,3.11 3.139,3.11 l 28.782,0 c 1.712,0 3.11,-1.398 3.11,-3.11 l 0,-17.926 c 0,-1.711 -1.396,-3.139 -3.11,-3.139 l -28.782,0 z m 0,1.81 28.782,0 c 0.734,0 1.301,0.595 1.301,1.328 l 0,17.926 c 0,0.734 -0.566,1.301 -1.301,1.301 l -28.782,0 c -0.734,0 -1.329,-0.567 -1.329,-1.301 l 0,-17.926 c 0,-0.734 0.595,-1.328 1.329,-1.328 z"
         id="path61"
         inkscape:connector-curvature="0"
         style="fill:#f4f4f4" /><path
         d="m 422.016,226.728 c -1.712,0 -3.139,1.427 -3.139,3.139 l 0,17.926 c 0,1.711 1.426,3.11 3.139,3.11 l 28.783,0 c 1.711,0 3.11,-1.398 3.11,-3.11 l 0,-17.926 c 0,-1.711 -1.398,-3.139 -3.11,-3.139 l -28.783,0 z m 0,1.81 28.783,0 c 0.734,0 1.301,0.595 1.301,1.328 l 0,17.926 c 0,0.734 -0.567,1.301 -1.301,1.301 l -28.783,0 c -0.735,0 -1.329,-0.567 -1.329,-1.301 l 0,-17.926 c 0,-0.734 0.594,-1.328 1.329,-1.328 z"
         id="path63"
         inkscape:connector-curvature="0"
         style="fill:#f4f4f4" /><path
         d="m 469.771,226.728 c -1.712,0 -3.109,1.427 -3.109,3.139 l 0,17.926 c 0,1.711 1.396,3.11 3.109,3.11 l 28.783,0 c 1.712,0 3.139,-1.399 3.139,-3.11 l 0,-17.926 c 0,-1.71 -1.425,-3.139 -3.139,-3.139 l -28.783,0 z m 0,1.81 28.783,0 c 0.735,0 1.329,0.594 1.329,1.328 l 0,17.926 c 0,0.735 -0.595,1.301 -1.329,1.301 l -28.783,0 c -0.735,0 -1.3,-0.566 -1.3,-1.301 l 0,-17.926 c 0,-0.734 0.565,-1.328 1.3,-1.328 z"
         id="path65"
         inkscape:connector-curvature="0"
         style="fill:#f4f4f4" /><path
         d="m 110.084,273.46 c -1.71,0 -3.139,1.398 -3.139,3.11 l 0,17.927 c 0,1.711 1.427,3.138 3.139,3.138 l 28.783,0 c 1.712,0 3.11,-1.427 3.11,-3.138 l 0,-17.927 c 0,-1.712 -1.398,-3.11 -3.11,-3.11 l -28.783,0 z m 0,1.81 28.783,0 c 0.735,0 1.301,0.566 1.301,1.301 l 0,17.927 c 0,0.733 -0.566,1.328 -1.301,1.328 l -28.783,0 c -0.733,0 -1.329,-0.596 -1.329,-1.328 l 0,-17.928 c 0,-0.735 0.595,-1.3 1.329,-1.3 z"
         id="path67"
         inkscape:connector-curvature="0"
         style="fill:#f4f4f4" /><path
         d="m 50.735,273.46 c -1.711,0 -3.11,1.398 -3.11,3.11 l 0,17.927 c 0,1.711 1.398,3.138 3.11,3.138 l 37.209,0 c 1.711,0 3.11,-1.426 3.11,-3.138 l 0,-0.905 0,-17.022 c 0,-1.712 -1.399,-3.11 -3.11,-3.11 l -37.209,0 z m 0,1.81 37.209,0 c 0.735,0 1.301,0.566 1.301,1.301 l 0,17.927 c 0,0.733 -0.567,1.328 -1.301,1.328 l -37.209,0 c -0.733,0 -1.301,-0.596 -1.301,-1.328 l 0,-17.928 c 0.001,-0.735 0.567,-1.3 1.301,-1.3 z"
         id="path69"
         inkscape:connector-curvature="0"
         style="fill:#f4f4f4" /><path
         d="m 157.87,273.46 c -1.71,0 -3.138,1.398 -3.138,3.11 l 0,17.927 c 0,1.71 1.426,3.138 3.138,3.138 l 28.784,0 c 1.711,0 3.11,-1.426 3.11,-3.138 l 0,-17.927 c 0,-1.712 -1.398,-3.11 -3.11,-3.11 l -28.784,0 z m 0,1.81 28.784,0 c 0.733,0 1.3,0.566 1.3,1.301 l 0,17.927 c 0,0.733 -0.567,1.328 -1.3,1.328 l -28.784,0 c -0.734,0 -1.329,-0.596 -1.329,-1.328 l 0,-17.928 c 0,-0.735 0.595,-1.3 1.329,-1.3 z"
         id="path71"
         inkscape:connector-curvature="0"
         style="fill:#f4f4f4" /><path
         d="m 205.625,273.46 c -1.711,0 -3.11,1.398 -3.11,3.11 l 0,17.927 c 0,1.711 1.398,3.138 3.11,3.138 l 28.783,0 c 1.712,0 3.139,-1.426 3.139,-3.138 l 0,-17.927 c 0,-1.712 -1.427,-3.11 -3.139,-3.11 l -28.783,0 z m 0,1.81 28.783,0 c 0.735,0 1.329,0.566 1.329,1.301 l 0,17.927 c 0,0.733 -0.594,1.328 -1.329,1.328 l -28.783,0 c -0.733,0 -1.301,-0.596 -1.301,-1.328 l 0,-17.928 c 0,-0.735 0.567,-1.3 1.301,-1.3 z"
         id="path73"
         inkscape:connector-curvature="0"
         style="fill:#f4f4f4" /><path
         d="m 253.407,273.46 c -1.711,0 -3.11,1.398 -3.11,3.11 l 0,17.927 c 0,1.71 1.398,3.138 3.11,3.138 l 28.783,0 c 1.711,0 3.139,-1.426 3.139,-3.138 l 0,-17.927 c 0,-1.712 -1.427,-3.11 -3.139,-3.11 l -28.783,0 z m 0,1.81 28.783,0 c 0.733,0 1.329,0.566 1.329,1.301 l 0,17.927 c 0,0.733 -0.596,1.328 -1.329,1.328 l -28.783,0 c -0.734,0 -1.301,-0.596 -1.301,-1.328 l 0,-17.928 c 0,-0.736 0.566,-1.3 1.301,-1.3 z"
         id="path75"
         inkscape:connector-curvature="0"
         style="fill:#f4f4f4" /><path
         d="m 301.189,273.46 c -1.712,0 -3.11,1.398 -3.11,3.11 l 0,17.927 c 0,1.71 1.398,3.138 3.11,3.138 l 28.783,0 c 1.712,0 3.11,-1.427 3.11,-3.138 l 0,-17.927 c 0,-1.712 -1.398,-3.11 -3.11,-3.11 l -28.783,0 z m 0,1.81 28.783,0 c 0.735,0 1.3,0.565 1.3,1.301 l 0,17.927 c 0,0.733 -0.564,1.328 -1.3,1.328 l -28.783,0 c -0.735,0 -1.301,-0.596 -1.301,-1.328 l 0,-17.928 c 0.001,-0.736 0.566,-1.3 1.301,-1.3 z"
         id="path77"
         inkscape:connector-curvature="0"
         style="fill:#f4f4f4" /><path
         d="m 348.98,273.46 c -1.711,0 -3.11,1.398 -3.11,3.11 l 0,17.927 c 0,1.71 1.398,3.138 3.11,3.138 l 28.783,0 c 1.712,0 3.11,-1.426 3.11,-3.138 l 0,-17.927 c 0,-1.712 -1.397,-3.11 -3.11,-3.11 l -28.783,0 z m 0,1.81 28.783,0 c 0.736,0 1.301,0.566 1.301,1.301 l 0,17.927 c 0,0.733 -0.566,1.328 -1.301,1.328 l -28.783,0 c -0.734,0 -1.301,-0.596 -1.301,-1.328 l 0,-17.928 c 0.001,-0.736 0.568,-1.3 1.301,-1.3 z"
         id="path79"
         inkscape:connector-curvature="0"
         style="fill:#f4f4f4" /><path
         d="m 396.763,273.46 c -1.711,0 -3.11,1.398 -3.11,3.11 l 0,17.927 c 0,1.71 1.397,3.138 3.11,3.138 l 28.783,0 c 1.712,0 3.11,-1.426 3.11,-3.138 l 0,-17.927 c 0,-1.712 -1.398,-3.11 -3.11,-3.11 l -28.783,0 z m 0,1.81 28.783,0 c 0.736,0 1.301,0.566 1.301,1.301 l 0,17.927 c 0,0.733 -0.565,1.328 -1.301,1.328 l -28.783,0 c -0.736,0 -1.301,-0.596 -1.301,-1.328 l 0,-17.928 c 0,-0.736 0.565,-1.3 1.301,-1.3 z"
         id="path81"
         inkscape:connector-curvature="0"
         style="fill:#f4f4f4" /><path
         d="m 444.545,273.46 c -1.711,0 -3.139,1.398 -3.139,3.11 l 0,17.927 c 0,1.71 1.426,3.138 3.139,3.138 l 28.783,0 c 1.711,0 3.11,-1.426 3.11,-3.138 l 0,-17.927 c 0,-1.712 -1.398,-3.11 -3.11,-3.11 l -28.783,0 z m 0,1.81 28.783,0 c 0.734,0 1.301,0.566 1.301,1.301 l 0,17.927 c 0,0.733 -0.567,1.328 -1.301,1.328 l -28.783,0 c -0.734,0 -1.329,-0.596 -1.329,-1.328 l 0,-17.928 c 0,-0.735 0.596,-1.3 1.329,-1.3 z"
         id="path83"
         inkscape:connector-curvature="0"
         style="fill:#f4f4f4" /><path
         d="m 493.458,273.46 c -1.71,0 -3.11,1.398 -3.11,3.11 l 0,17.927 c 0,1.71 1.398,3.138 3.11,3.138 l 49.623,0 c 1.711,0 3.109,-1.426 3.109,-3.138 l 0,-17.927 c 0,-1.712 -1.398,-3.11 -3.109,-3.11 l -49.623,0 z m 0,1.81 49.623,0 c 0.734,0 1.3,0.566 1.3,1.301 l 0,17.927 c 0,0.733 -0.567,1.328 -1.3,1.328 l -49.623,0 c -0.734,0 -1.301,-0.596 -1.301,-1.328 l 0,-17.928 c 0,-0.735 0.567,-1.3 1.301,-1.3 z"
         id="path85"
         inkscape:connector-curvature="0"
         style="fill:#f4f4f4" /><path
         d="m 517.553,226.728 c -1.712,0 -3.11,1.427 -3.11,3.139 l 0,17.926 c 0,1.711 1.398,3.11 3.11,3.11 l 28.783,0 c 1.712,0 3.139,-1.398 3.139,-3.11 l 0,-17.926 c 0,-1.711 -1.425,-3.139 -3.139,-3.139 l -28.783,0 z m 0,1.81 28.783,0 c 0.735,0 1.329,0.595 1.329,1.328 l 0,17.926 c 0,0.734 -0.594,1.301 -1.329,1.301 l -28.783,0 c -0.734,0 -1.301,-0.566 -1.301,-1.301 l 0,-17.926 c 0,-0.734 0.567,-1.328 1.301,-1.328 z"
         id="path87"
         inkscape:connector-curvature="0"
         style="fill:#f4f4f4" /><path
         d="M 489.649,339.465"
         id="path89"
         inkscape:connector-curvature="0"
         style="fill:none;stroke:#f4f4f4;stroke-width:1.8096" /><path
         d="m 507.094,296.424 -14.618,34.156 1.668,0.706 14.59,-34.155 -1.64,-0.707 0,0 z"
         id="line91"
         inkscape:connector-curvature="0"
         style="fill:#f4f4f4" /><path
         d="m 527.025,249.8 -10.349,24.204 1.669,0.706 10.349,-24.203 -1.669,-0.707 z"
         id="line93"
         inkscape:connector-curvature="0"
         style="fill:#f4f4f4" /><path
         d="m 570.229,148.743 -33.533,78.406 1.669,0.707 33.532,-78.406 -1.668,-0.707 z"
         id="line95"
         inkscape:connector-curvature="0"
         style="fill:#f4f4f4" /><path
         d="M 496.888,339.465"
         id="path97"
         inkscape:connector-curvature="0"
         style="fill:none;stroke:#f4f4f4;stroke-width:1.8096" /><path
         d="m 514.269,296.506 -14.533,33.957 1.668,0.735 14.533,-33.985 -1.668,-0.707 0,0 z"
         id="line99"
         inkscape:connector-curvature="0"
         style="fill:#f4f4f4" /><path
         d="m 534.21,249.882 -10.292,24.09 1.64,0.707 10.323,-24.095 -1.664,-0.706 -0.007,0.004 z"
         id="line101"
         inkscape:connector-curvature="0"
         style="fill:#f4f4f4" /><path
         d="m 570.311,165.429 -26.465,61.893 1.668,0.706 26.466,-61.893 -1.669,-0.706 z"
         id="line103"
         inkscape:connector-curvature="0"
         style="fill:#f4f4f4" /><path
         d="M 504.116,339.465"
         id="path105"
         inkscape:connector-curvature="0"
         style="fill:none;stroke:#f4f4f4;stroke-width:1.8096" /><path
         d="m 521.543,296.397 -14.788,34.608 1.668,0.706 14.788,-34.607 -1.668,-0.707 z"
         id="line107"
         inkscape:connector-curvature="0"
         style="fill:#f4f4f4" /><path
         d="m 541.476,249.764 -10.35,24.231 1.669,0.706 10.35,-24.23 -1.669,-0.707 z"
         id="line109"
         inkscape:connector-curvature="0"
         style="fill:#f4f4f4" /><path
         d="m 570.148,182.728 -22.507,52.592 1.668,0.707 22.507,-52.592 -1.668,-0.707 z"
         id="line111"
         inkscape:connector-curvature="0"
         style="fill:#f4f4f4" /><path
         d="M 511.354,339.465"
         id="path113"
         inkscape:connector-curvature="0"
         style="fill:none;stroke:#f4f4f4;stroke-width:1.8096" /><path
         d="m 528.637,296.705 -14.59,34.184 1.668,0.707 14.59,-34.185 -1.665,-0.706 -0.003,0 z"
         id="line115"
         inkscape:connector-curvature="0"
         style="fill:#f4f4f4" /><path
         d="m 570.456,198.878 -32.148,75.239 1.64,0.735 32.177,-75.269 -1.669,-0.705 0,0 z"
         id="line117"
         inkscape:connector-curvature="0"
         style="fill:#f4f4f4" /><path
         d="M 518.584,339.465"
         id="path119"
         inkscape:connector-curvature="0"
         style="fill:none;stroke:#f4f4f4;stroke-width:1.8096" /><path
         d="m 536.02,296.397 -14.621,34.183 1.664,0.733 14.622,-34.211 -1.668,-0.707 0.003,0.002 z"
         id="line121"
         inkscape:connector-curvature="0"
         style="fill:#f4f4f4" /><path
         d="m 570.43,215.897 -25.958,60.706 1.669,0.707 25.957,-60.707 -1.668,-0.706 z"
         id="line123"
         inkscape:connector-curvature="0"
         style="fill:#f4f4f4" /><path
         d="m 45.562,14.042 0,0.905 0,13.176 0,0.905 0.905,0 25.221,0 0,0.311 -25.335,0 -0.905,0 0,0.905 0,4.863 0,0.905 0.905,0 33.76,0 0.905,0 0,-0.905 0,-12.527 0,-0.905 -0.905,0 -26.777,0 0,-0.17 27.116,0 0.905,0 0,-0.905 0,-5.655 0,-0.905 -0.905,0 -33.986,0 -0.904,0.002 0,0 z m 1.809,1.809 32.176,0 0,3.845 -27.115,0 -0.905,0 0,0.905 0,1.979 0,0.905 0.905,0 26.776,0 0,10.716 -31.95,0 0,-3.054 25.334,0 0.905,0 0,-0.905 0,-2.121 0,-0.905 -0.905,0 -25.221,0 0,-11.365 0,0 z"
         id="polygon125"
         inkscape:connector-curvature="0"
         style="fill:#f4f4f4" /><path
         d="m 81.696,13.815 0,0.904 0,20.386 0,0.905 0.905,0 6.871,0 0.905,0 0,-0.905 0,-20.385 0,-0.904 -0.905,0 -6.871,0 -0.905,0 z m 1.81,1.81 5.061,0 0,18.576 -5.061,0 0,-18.576 z"
         id="rect127"
         inkscape:connector-curvature="0"
         style="fill:#f4f4f4" /><path
         d="m 81.498,9.065 0,0.905 0,2.714 0,0.905 0.905,0 7.125,0 0.905,0 0,-0.905 0,-2.714 0,-0.905 -0.905,0 -7.125,0 -0.905,0 z m 1.81,1.81 5.316,0 0,0.905 -5.316,0 0,-0.905 z"
         id="rect129"
         inkscape:connector-curvature="0"
         style="fill:#f4f4f4" /><path
         d="m 205.254,13.815 0,0.904 0,20.839 0,0.905 0.905,0 6.871,0 0.905,0 0,-0.905 0,-20.838 0,-0.904 -0.905,0 -6.871,0 -0.905,0 z m 1.809,1.81 5.062,0 0,19.029 -5.062,0 0,-19.029 z"
         id="rect131"
         inkscape:connector-curvature="0"
         style="fill:#f4f4f4" /><path
         d="m 205.028,9.065 0,0.905 0,2.714 0,0.905 0.905,0 7.153,0 0.905,0 0,-0.905 0,-2.714 0,-0.905 -0.905,0 -7.153,0 -0.905,0 z m 1.809,1.81 5.344,0 0,0.905 -5.344,0 0,-0.905 z"
         id="rect133"
         inkscape:connector-curvature="0"
         style="fill:#f4f4f4" /><path
         d="m 90.575,14.042 0,0.905 0,20.047 0,0.905 0.905,0 6.022,0 0.905,0 0,-0.905 0,-13.092 18.463,0 0,13.26 0,0.905 0.905,0 6.079,0 0.905,0 0,-0.905 0,-20.217 0,-0.905 -0.905,0 -32.375,0 -0.904,0.002 0,0 z m 1.809,1.809 30.565,0 0,18.407 -4.27,0 0,-13.26 0,-0.905 -0.905,0 -20.272,0 -0.904,0 0,0.905 0,13.091 -4.213,0 0,-18.238 -0.001,0 z"
         id="polygon135"
         inkscape:connector-curvature="0"
         style="fill:#f4f4f4" /><path
         d="m 125.442,13.759 0,0.905 0,20.611 0,0.905 0.904,0 33.93,0 0.905,0 0,-0.905 0,-6.164 0,-0.905 -0.905,0 -25.448,0 0,-6.361 25.023,0 0.905,0 0,-0.905 0,-6.277 0,-0.905 -0.905,0 -33.506,0 -0.903,0 0,0.001 z m 1.81,1.809 31.696,0 0,4.467 -25.023,0 -0.905,0 0,0.905 0,8.171 0,0.905 0.905,0 25.447,0 0,4.354 -32.12,0 0,-18.802 0,0 z"
         id="polygon137"
         inkscape:connector-curvature="0"
         style="fill:#f4f4f4" /><path
         d="m 161.091,9.348 0,0.905 0,25.022 0,0.905 0.905,0 6.701,0 0.905,0 0,-0.905 0,-25.023 0,-0.904 -0.905,0 -6.701,0 -0.905,0 z m 1.809,1.809 4.892,0 0,23.213 -4.892,0 0,-23.213 z"
         id="rect139"
         inkscape:connector-curvature="0"
         style="fill:#f4f4f4" /><path
         d="m 169.578,13.759 0,0.905 0,5.429 0,0.905 0.905,0 26.38,0 0,1.301 -26.352,0 -0.905,0 0,0.904 0,12.074 0,0.905 0.905,0 33.45,0 0.905,0 0,-0.905 0,-20.613 0,-0.905 -0.905,0 -33.478,0 -0.905,0 0,0 z m 1.81,1.809 31.668,0 0,18.802 -31.64,0 0,-10.264 26.352,0 0.905,0 0,-0.905 0,-3.11 0,-0.905 -0.905,0 -26.38,0 0,-3.618 0,0 z"
         id="polygon141"
         inkscape:connector-curvature="0"
         style="fill:#f4f4f4" /><path
         d="m 213.687,13.759 0,0.905 0,20.837 0,0.905 0.905,0 6.813,0 0.905,0 0,-0.905 0,-14.109 27.087,0 0.905,0 0,-0.905 0,-5.825 0,-0.905 -0.905,0 -34.806,0 -0.904,0.002 0,0 z m 1.81,1.809 32.997,0 0,4.015 -27.088,0 -0.904,0 0,0.905 0,14.109 -5.005,0 0,-19.029 0,0 z"
         id="polygon143"
         inkscape:connector-curvature="0"
         style="fill:#f4f4f4" /><path
         d="m 176.645,26.284 0,0.905 0,4.043 0,0.905 0.904,0 20.16,0 0.905,0 0,-0.905 0,-4.043 0,-0.905 -0.905,0 -20.16,0 -0.904,0 z m 1.809,1.81 18.35,0 0,2.234 -18.35,0 0,-2.234 z"
         id="rect145"
         inkscape:connector-curvature="0"
         style="fill:#f4f4f4" /><path
         d="m 26.419,330.154 0,1.81 544.74,0 0,-1.81 -544.74,0 z"
         id="line147"
         inkscape:connector-curvature="0"
         style="fill:#f4f4f4" /></g></g></svg>