<?xml version="1.0" encoding="UTF-8" standalone="no"?>
<!-- Generator: Adobe Illustrator 13.0.0, SVG Export Plug-In . SVG Version: 6.00 Build 14948)  -->

<svg
   xmlns:dc="http://purl.org/dc/elements/1.1/"
   xmlns:cc="http://creativecommons.org/ns#"
   xmlns:rdf="http://www.w3.org/1999/02/22-rdf-syntax-ns#"
   xmlns:svg="http://www.w3.org/2000/svg"
   xmlns="http://www.w3.org/2000/svg"
   xmlns:sodipodi="http://sodipodi.sourceforge.net/DTD/sodipodi-0.dtd"
   xmlns:inkscape="http://www.inkscape.org/namespaces/inkscape"
   version="1.1"
   id="Layer_2"
   x="0px"
   y="0px"
   width="550"
   height="550"
   viewBox="0 0 549.99995 549.99999"
   enable-background="new 0 0 598.189 350.26"
   xml:space="preserve"
   inkscape:version="0.91 r13725"
   sodipodi:docname="controller_gg.svg"><metadata
     id="metadata3083"><rdf:RDF><cc:Work
         rdf:about=""><dc:format>image/svg+xml</dc:format><dc:type
           rdf:resource="http://purl.org/dc/dcmitype/StillImage" /><dc:title></dc:title></cc:Work></rdf:RDF></metadata><defs
     id="defs3081" /><sodipodi:namedview
     pagecolor="#ffffff"
     bordercolor="#666666"
     borderopacity="1"
     objecttolerance="10"
     gridtolerance="10"
     guidetolerance="10"
     inkscape:pageopacity="0"
     inkscape:pageshadow="2"
     inkscape:window-width="1920"
     inkscape:window-height="1001"
     id="namedview3079"
     showgrid="false"
     inkscape:zoom="1.0799262"
     inkscape:cx="286.73678"
     inkscape:cy="382.70167"
     inkscape:window-x="-9"
     inkscape:window-y="-9"
     inkscape:window-maximized="1"
     inkscape:current-layer="layer4"
     showguides="true"
     inkscape:guide-bbox="true" /><g
     inkscape:groupmode="layer"
     id="layer2"
     inkscape:label="Screen_Rect"
     style="display:none"
     transform="translate(0,199.73999)"
     sodipodi:insensitive="true"><path
       style="fill:#ffffff;stroke:#000000;stroke-width:1px;stroke-linecap:butt;stroke-linejoin:miter;stroke-opacity:1"
       d="M 5.0135033,547.22203 136.4109,114.39023 653.54628,-189.09358 406.482,260.92121 Z"
       id="path3021"
       inkscape:connector-curvature="0"
       transform="translate(-2e-5,-199.73999)"
       sodipodi:nodetypes="ccccc" /><rect
       style="opacity:0.60100002;fill:#d8201f;fill-opacity:1;stroke:#ff8080;stroke-width:2.45114732;stroke-linecap:round;stroke-linejoin:round;stroke-miterlimit:4;stroke-dasharray:none;stroke-opacity:1"
       id="rect4230"
       width="444.2457"
       height="9.9567661"
       x="145.95099"
       y="-211.30678" /></g><g
     inkscape:groupmode="layer"
     id="layer1"
     inkscape:label="Controller_Vorlage"
     style="display:none"
     sodipodi:insensitive="true"><g
       id="g4929"
       transform="translate(-0.929149,0.5695451)"><g
         transform="translate(0,199.73999)"
         style="display:none"
         inkscape:label="Layer2"
         id="layer2-9"><path
           sodipodi:nodetypes="ccccc"
           transform="translate(-2e-5,-199.73999)"
           inkscape:connector-curvature="0"
           id="path3021-0"
           d="M 5.0135033,547.22203 136.4109,114.39023 653.54628,-189.09358 406.482,260.92121 Z"
           style="fill:#ffffff;stroke:#000000;stroke-width:1px;stroke-linecap:butt;stroke-linejoin:miter;stroke-opacity:1" /></g><g
         inkscape:label="Layer"
         id="layer1-2"><g
           transform="matrix(0.55322035,-0.3970343,-0.34863416,0.85569517,173.63773,166.52161)"
           id="g3100"><path
             style="fill:#f4f4f4"
             inkscape:connector-curvature="0"
             id="path3"
             d="m 148.05,114.447 c -23.656,0 -42.861,19.204 -42.861,42.861 l 0,37.414 c 0,23.658 19.205,42.86 42.861,42.86 l 38.694,0 c 23.656,0 42.861,-19.202 42.861,-42.86 l 0,-37.414 c 0,-23.657 -19.205,-42.861 -42.861,-42.861 l -38.694,0 z m 0,1.905 38.694,0 c 22.627,0 40.956,18.328 40.956,40.956 l 0,37.414 c 0,22.629 -18.329,40.956 -40.956,40.956 l -38.694,0 c -22.628,0 -40.956,-18.327 -40.956,-40.956 l 0,-37.414 c 0,-22.629 18.328,-40.956 40.956,-40.956 z" /><path
             style="fill:#f4f4f4"
             inkscape:connector-curvature="0"
             id="path5"
             d="m 167.395,123.168 c -3.23,0 -5.863,2.633 -5.863,5.864 l 0,13.037 c 0,3.23 2.632,5.863 5.863,5.863 3.23,0 5.863,-2.633 5.863,-5.863 l 0,-13.037 c 0,-3.23 -2.633,-5.864 -5.863,-5.864 z m 0,1.906 c 2.201,0 3.958,1.758 3.958,3.958 l 0,13.037 c 0,2.2 -1.758,3.958 -3.958,3.958 -2.202,0 -3.958,-1.758 -3.958,-3.958 l 0,-13.037 c -0.001,-2.2 1.757,-3.958 3.958,-3.958 z" /><path
             style="fill:#f4f4f4"
             inkscape:connector-curvature="0"
             id="path7"
             d="m 120.425,170.135 c -3.23,0 -5.864,2.633 -5.864,5.864 0,3.231 2.632,5.894 5.864,5.894 l 13.037,0 c 3.229,0 5.864,-2.662 5.864,-5.894 0,-3.229 -2.633,-5.864 -5.864,-5.864 l -13.037,0 z m 0,1.905 13.037,0 c 2.201,0 3.959,1.759 3.959,3.959 0,2.201 -1.759,3.988 -3.959,3.988 l -13.037,0 c -2.198,-0.01 -3.955,-1.791 -3.955,-3.99 0,-2.201 1.758,-3.959 3.958,-3.959 l -0.003,0.002 z" /><path
             style="fill:#f4f4f4"
             inkscape:connector-curvature="0"
             id="path9"
             d="m 167.395,204.071 c -3.23,0 -5.863,2.663 -5.863,5.894 l 0,13.038 c 0,3.229 2.632,5.863 5.863,5.863 3.23,0 5.863,-2.633 5.863,-5.863 l 0,-13.038 c 0,-3.23 -2.633,-5.894 -5.863,-5.894 z m 0,1.906 c 2.201,0 3.958,1.789 3.958,3.988 l 0,13.038 c 0,2.2 -1.757,3.958 -3.958,3.958 -2.202,0 -3.958,-1.759 -3.958,-3.958 l 0,-13.038 c -0.001,-2.2 1.757,-3.988 3.958,-3.988 z" /><path
             style="fill:#f4f4f4"
             inkscape:connector-curvature="0"
             id="path11"
             d="m 201.321,170.135 c -3.229,0 -5.863,2.633 -5.863,5.864 0,3.231 2.633,5.894 5.863,5.894 l 13.067,0 c 3.229,0 5.863,-2.662 5.863,-5.894 0,-3.229 -2.633,-5.864 -5.863,-5.864 l -13.067,0 z m 0,1.905 13.067,0 c 2.2,0 3.958,1.76 3.958,3.959 0,2.201 -1.758,3.988 -3.958,3.988 l -13.067,0 c -2.2,0 -3.958,-1.788 -3.958,-3.988 0,-2.2 1.759,-3.959 3.958,-3.959 z" /><path
             style="fill:#f4f4f4"
             inkscape:connector-curvature="0"
             id="polygon13"
             d="m 133.878,141.176 -1.31,1.31 8.155,12.025 0.655,0.952 0.804,-0.803 3.869,-3.87 0.804,-0.804 -0.953,-0.655 -12.024,-8.155 z" /><path
             style="fill:#f4f4f4"
             inkscape:connector-curvature="0"
             id="polygon15"
             d="m 141.383,196.566 -0.654,0.952 -8.156,12.024 1.31,1.31 12.025,-8.155 0.953,-0.654 -0.804,-0.804 -3.87,-3.869 -0.804,-0.804 z" /><path
             style="fill:#f4f4f4"
             inkscape:connector-curvature="0"
             id="polygon17"
             d="m 193.435,196.566 -0.804,0.804 -3.869,3.869 -0.833,0.804 0.953,0.654 12.025,8.155 1.339,-1.31 -8.156,-12.024 -0.655,-0.952 0,0 z" /><path
             style="fill:#f4f4f4"
             inkscape:connector-curvature="0"
             id="polygon19"
             d="m 200.912,141.176 -12.025,8.155 -0.953,0.655 0.833,0.804 3.87,3.87 0.804,0.803 0.655,-0.952 8.155,-12.025 -1.339,-1.31 z" /><path
             style="fill:#f4f4f4"
             inkscape:connector-curvature="0"
             id="path21"
             d="m 146.354,104.833 c -27.67,0 -50.123,22.453 -50.123,50.124 l 0,42.117 c 0,27.671 22.453,50.123 50.123,50.123 l 42.117,0 c 27.671,0 50.124,-22.452 50.124,-50.123 l 0,-42.117 c 0,-27.67 -22.452,-50.124 -50.124,-50.124 l -42.117,0 z m 0,1.906 42.117,0 c 26.644,0 48.219,21.577 48.219,48.218 l 0,42.117 c 0,26.644 -21.577,48.218 -48.219,48.218 l -42.117,0 c -26.642,0 -48.218,-21.574 -48.218,-48.218 l 0,-42.117 c 0,-26.642 21.577,-48.218 48.218,-48.218 z" /><path
             style="fill:#f4f4f4"
             inkscape:connector-curvature="0"
             id="polygon23"
             d="m 69.499,75.694 0,0.952 0,202.961 0,0.952 0.953,0 196.122,0 0.952,0 0,-0.952 0,-26.401 289.521,0 0.952,0 0,-0.952 0,-113.458 0,-0.953 -0.952,0 -289.522,0 0,-61.196 0,-0.952 -0.952,0 -196.122,0 -0.952,-10e-4 0,0 z m 1.904,1.905 194.217,0 0,61.196 0,0.953 0.953,0 0.714,0 288.807,0 0,111.552 -289.226,0 -0.297,0 -0.953,0 0,0.953 0,26.4 -194.217,0 0,-201.055 0.002,0.001 z" /><path
             style="fill:#f4f4f4"
             inkscape:connector-curvature="0"
             id="circle25"
             d="m 400.692,169.126 c -19.762,0 -35.777,16.046 -35.777,35.807 0,19.761 16.018,35.807 35.777,35.807 19.759,0 35.807,-16.046 35.807,-35.807 0,-19.761 -16.047,-35.807 -35.807,-35.807 l 0,0 z m 0,1.905 c 18.73,0 33.901,15.17 33.901,33.902 0,18.732 -15.171,33.902 -33.901,33.902 -18.731,0 -33.872,-15.171 -33.872,-33.902 0,-18.731 15.141,-33.902 33.872,-33.902 l 0,0 z" /><path
             style="fill:#f4f4f4"
             inkscape:connector-curvature="0"
             id="circle27"
             d="m 400.692,177.669 c -15.039,0 -27.234,12.227 -27.234,27.265 0,15.038 12.195,27.234 27.234,27.234 15.036,0 27.264,-12.196 27.264,-27.234 0,-15.038 -12.227,-27.265 -27.264,-27.265 z m 0,1.905 c 14.008,0 25.359,11.351 25.359,25.359 0,14.008 -11.352,25.33 -25.359,25.33 -14.01,0 -25.33,-11.321 -25.33,-25.33 0,-14.009 11.321,-25.359 25.33,-25.359 z" /><path
             style="fill:#f4f4f4"
             inkscape:connector-curvature="0"
             id="circle29"
             d="m 489.919,169.126 c -19.762,0 -35.807,16.046 -35.807,35.807 0,19.761 16.045,35.807 35.807,35.807 19.76,0 35.807,-16.046 35.807,-35.807 0,-19.761 -16.047,-35.807 -35.807,-35.807 l 0,0 z m 0,1.905 c 18.73,0 33.901,15.17 33.901,33.902 0,18.732 -15.171,33.902 -33.901,33.902 -18.731,0 -33.902,-15.171 -33.902,-33.902 0,-18.731 15.171,-33.902 33.902,-33.902 l 0,0 z" /><path
             style="fill:#f4f4f4"
             inkscape:connector-curvature="0"
             id="circle31"
             d="m 489.919,177.669 c -15.039,0 -27.234,12.227 -27.234,27.265 0,15.038 12.195,27.234 27.234,27.234 15.036,0 27.234,-12.196 27.234,-27.234 0,-15.038 -12.196,-27.265 -27.234,-27.265 z m 0,1.905 c 14.008,0 25.329,11.351 25.329,25.359 0,14.008 -11.321,25.33 -25.329,25.33 -14.01,0 -25.33,-11.321 -25.33,-25.33 0,-14.009 11.32,-25.359 25.33,-25.359 z" /><path
             style="fill:#f4f4f4"
             inkscape:connector-curvature="0"
             id="path33"
             d="m 39.406,68.432 c -4.766,0 -8.662,3.896 -8.662,8.662 l 0,203.084 c 0,4.766 3.897,8.661 8.662,8.661 l 518.646,0 c 4.429,0 7.956,-3.411 8.453,-7.709 l 0.179,0 0,-0.952 0,-203.085 c 0,-4.762 -3.868,-8.658 -8.64,-8.658 l -518.645,0 0.007,-0.003 z m 0,1.904 518.646,0 c 3.737,0 6.727,3.021 6.727,6.757 l 0,202.131 0,0.953 c 0,3.736 -2.989,6.756 -6.727,6.756 l -518.646,0 c -3.732,0.01 -6.753,-3.019 -6.753,-6.753 l 0,-203.083 c 0,-3.736 3.02,-6.756 6.756,-6.756 l -0.003,-0.005 z" /><path
             style="fill:#f4f4f4"
             inkscape:connector-curvature="0"
             id="rect35"
             d="m 359.021,163.559 0,0.953 0,81.465 0,0.952 0.953,0 81.465,0 0.953,0 0,-0.952 0,-81.465 0,-0.953 -0.953,0 -81.465,0 -0.953,0 z m 1.906,1.905 79.561,0 0,79.56 -79.561,0 0,-79.56 z" /><path
             style="fill:#f4f4f4"
             inkscape:connector-curvature="0"
             id="rect37"
             d="m 448.248,163.559 0,0.953 0,81.465 0,0.952 0.953,0 81.436,0 0.952,0 0,-0.952 0,-81.465 0,-0.953 -0.952,0 -81.436,0 -0.953,0 z m 1.905,1.905 79.531,0 0,79.56 -79.531,0 0,-79.56 z" /><path
             style="fill:#f4f4f4"
             inkscape:connector-curvature="0"
             id="polyline39"
             d="m 83.934,94.177 0,2.292 0,159.061 0,2.322 1.607,-1.638 25.33,-25.299 -1.369,-1.369 -23.663,23.692 0,-154.45 23.663,23.658 1.369,-1.34 -25.33,-25.299 -1.607,-1.637 0,0.007 z" /><path
             style="fill:#f4f4f4"
             inkscape:connector-curvature="0"
             id="polyline41"
             d="m 222.305,232.551 -1.37,1.339 23.693,23.692 -154.452,0 23.574,-23.573 -1.369,-1.339 -25.181,25.182 -1.637,1.637 2.292,0 159.062,0 2.292,0 -1.607,-1.637 -25.299,-25.3 0.002,-0.001 z" /><path
             style="fill:#f4f4f4"
             inkscape:connector-curvature="0"
             id="polyline43"
             d="m 250.878,94.177 -1.637,1.637 -25.211,25.182 1.369,1.369 23.574,-23.603 0,154.509 -23.633,-23.663 -1.339,1.34 25.24,25.27 1.637,1.638 0,-2.322 0,-159.063 0,-2.292 0,-0.002 z" /><path
             style="fill:#f4f4f4"
             inkscape:connector-curvature="0"
             id="polyline45"
             d="m 85.57,92.54 1.638,1.608 25.21,25.24 1.339,-1.34 -23.572,-23.602 154.452,0 -23.669,23.662 1.333,1.339 25.307,-25.3 1.607,-1.607 -2.292,0 -159.062,0 -2.291,0 0,0 z" /><path
             style="fill:#f4f4f4"
             inkscape:connector-curvature="0"
             id="line47"
             d="m 58.961,69.533 0,218.057 1.905,0 0,-218.057 -1.905,0 z" /><path
             style="fill:#f4f4f4"
             inkscape:connector-curvature="0"
             id="rect49"
             d="m 359.021,145.819 0,0.953 0,13.244 0,0.953 0.953,0 81.465,0 0.953,0 0,-0.953 0,-13.244 0,-0.953 -0.953,0 -81.465,0 -0.953,0 z m 1.906,1.905 79.561,0 0,11.339 -79.561,0 0,-11.339 z" /><path
             style="fill:#f4f4f4"
             inkscape:connector-curvature="0"
             id="rect51"
             d="m 448.248,145.819 0,0.953 0,13.244 0,0.953 0.953,0 81.436,0 0.952,0 0,-0.953 0,-13.244 0,-0.953 -0.952,0 -81.436,0 -0.953,0 z m 1.905,1.905 79.531,0 0,11.339 -79.531,0 0,-11.339 z" /><path
             style="fill:#f4f4f4"
             inkscape:connector-curvature="0"
             id="path53"
             d="m 276.804,73.134 c -0.987,0 -1.815,0.828 -1.815,1.816 l 0,53.01 c 0,0.988 0.829,1.815 1.815,1.815 l 282.855,0 c 0.985,0 1.785,-0.831 1.785,-1.815 l 0,-50.033 c 0,-2.641 -2.152,-4.792 -4.792,-4.792 l -279.844,0 -0.004,0 z m 0.09,1.906 279.756,0 c 1.613,0 2.888,1.275 2.888,2.887 l 0,49.945 -282.643,0 0,-52.832 -10e-4,0 z" /><path
             style="fill:#f4f4f4"
             inkscape:connector-curvature="0"
             id="path55"
             d="m 276.804,260.41 c -0.987,0 -1.815,0.829 -1.815,1.815 l 0,20.091 c 0,0.987 0.829,1.816 1.815,1.816 l 279.844,0 c 2.64,0 4.792,-2.183 4.792,-4.822 l 0,-17.085 c 0,-0.985 -0.8,-1.815 -1.785,-1.815 l -282.855,0 0.004,0 z m 0.09,1.905 282.645,0 0,16.995 c 0,1.611 -1.276,2.917 -2.888,2.917 l -279.758,0 0.001,-19.912 0,0 z" /><path
             style="fill:#f4f4f4"
             inkscape:connector-curvature="0"
             id="line57"
             d="m 274.461,129.271 -6.28,6.28 1.369,1.339 6.251,-6.25 -1.34,-1.369 z" /><path
             style="fill:#f4f4f4"
             inkscape:connector-curvature="0"
             id="line59"
             d="m 269.546,253.866 -1.369,1.34 6.281,6.28 1.339,-1.369 -6.251,-6.251 z" /></g></g></g></g><g
     inkscape:groupmode="layer"
     id="layer4"
     inkscape:label="Controller"><g
       id="g4652"
       transform="matrix(0.50740573,-0.37781866,-0.29914071,0.66050416,179.38453,203.76368)"><g
         id="g4172"><path
           id="path4174"
           d="m 192.498,221.686 c -0.763,0 -1.375,-0.62 -1.377,-1.377 l 0,0 0,-17.392 c 0.002,-0.757 0.614,-1.379 1.377,-1.379 l 0,0 18.336,0 c 0.759,0.002 1.375,0.614 1.377,1.379 l 0,0 0,17.392 c -0.002,0.765 -0.618,1.375 -1.377,1.377 l 0,0 -18.336,0 0,0 z m 17.714,-1.999 0,-16.149 -17.089,0 0,16.149 17.089,0 0,0 z"
           inkscape:connector-curvature="0"
           style="fill:#f4f4f4" /><path
           id="path4176"
           d="m 196.769,217.415 c -1.387,0 -2.507,-1.122 -2.507,-2.506 l 0,0 0,-9.293 c 0,-1.387 1.122,-2.507 2.507,-2.509 l 0,0 9.795,0.002 c 1.384,0 2.506,1.12 2.506,2.507 l 0,0 0,9.293 c 0,1.384 -1.122,2.506 -2.506,2.508 l 0,0 -9.795,-0.002 0,0 z m -0.508,-11.799 0,9.293 c 0.002,0.28 0.229,0.506 0.508,0.506 l 0,0 9.795,0.002 c 0.279,-0.002 0.506,-0.228 0.508,-0.508 l 0,0 0,-9.293 c -0.002,-0.281 -0.228,-0.507 -0.508,-0.507 l 0,0 -9.795,-0.002 c -0.281,0.002 -0.506,0.228 -0.508,0.509 l 0,0 z"
           inkscape:connector-curvature="0"
           style="fill:#f4f4f4" /></g><g
         id="g4178"><path
           id="path4180"
           d="m 212.447,221.686 c -0.761,-0.002 -1.375,-0.616 -1.377,-1.377 l 0,0 0,-17.392 c 0,-0.761 0.616,-1.379 1.377,-1.379 l 0,0 18.336,0 c 0.763,0.002 1.375,0.614 1.377,1.379 l 0,0 0,17.392 c -0.002,0.765 -0.616,1.375 -1.377,1.377 l 0,0 -18.336,0 0,0 z m 17.714,-1.999 0,-16.149 -17.09,0 0,16.149 17.09,0 0,0 z"
           inkscape:connector-curvature="0"
           style="fill:#f4f4f4" /><path
           id="path4182"
           d="m 216.718,217.415 c -1.385,0 -2.507,-1.122 -2.507,-2.506 l 0,0 0,-9.293 c 0,-1.387 1.122,-2.507 2.507,-2.509 l 0,0 9.794,0.002 c 1.385,0.002 2.504,1.122 2.507,2.507 l 0,0 0,9.293 c 0,1.384 -1.12,2.506 -2.507,2.508 l 0,0 -9.794,-0.002 0,0 z m -0.508,-11.799 0,9.293 c 0.002,0.28 0.227,0.506 0.508,0.506 l 0,0 9.794,0.002 c 0.281,-0.002 0.506,-0.228 0.508,-0.508 l 0,0 0,-9.293 c -0.002,-0.283 -0.227,-0.507 -0.508,-0.507 l 0,0 -9.794,-0.002 c -0.281,0.002 -0.506,0.228 -0.508,0.509 l 0,0 z"
           inkscape:connector-curvature="0"
           style="fill:#f4f4f4" /></g><g
         id="g4184"><path
           id="path4186"
           d="m 232.396,221.686 c -0.761,-0.002 -1.375,-0.616 -1.377,-1.377 l 0,0 0,-17.392 c 0,-0.761 0.616,-1.379 1.377,-1.379 l 0,0 18.337,0 c 0.763,0 1.375,0.622 1.377,1.379 l 0,0 0,17.392 c -0.002,0.757 -0.614,1.377 -1.377,1.377 l 0,0 -18.337,0 0,0 z m 17.712,-1.999 0,-16.149 -17.088,0 0,16.149 17.088,0 0,0 z"
           inkscape:connector-curvature="0"
           style="fill:#f4f4f4" /><path
           id="path4188"
           d="m 236.667,217.415 c -1.386,0 -2.506,-1.122 -2.506,-2.506 l 0,0 0,-9.293 c 0,-1.385 1.122,-2.507 2.506,-2.509 l 0,0 9.795,0.002 c 1.385,0 2.506,1.12 2.506,2.507 l 0,0 0,9.293 c 0,1.384 -1.122,2.506 -2.506,2.508 l 0,0 -9.795,-0.002 0,0 z m -0.506,-11.799 0,9.293 c 0,0.28 0.227,0.506 0.506,0.506 l 0,0 9.795,0.002 c 0.279,-0.002 0.506,-0.228 0.508,-0.508 l 0,0 0,-9.293 c -0.002,-0.281 -0.227,-0.507 -0.508,-0.507 l 0,0 -9.795,-0.002 c -0.281,0.002 -0.506,0.226 -0.506,0.509 l 0,0 z"
           inkscape:connector-curvature="0"
           style="fill:#f4f4f4" /></g><g
         id="g4190"><path
           id="path4192"
           d="m 252.346,221.685 c -0.763,0 -1.375,-0.618 -1.377,-1.375 l 0,0 0.002,-17.394 c 0,-0.757 0.612,-1.377 1.375,-1.379 l 0,0 18.334,0.002 c 0.763,0 1.377,0.62 1.377,1.377 l 0,0 0,17.394 c 0,0.757 -0.616,1.375 -1.377,1.377 l 0,0 -18.334,-0.002 0,0 z m 17.713,-1.999 0,-16.147 -17.088,0 0,16.147 17.088,0 0,0 z"
           inkscape:connector-curvature="0"
           style="fill:#f4f4f4" /><path
           id="path4194"
           d="m 256.615,217.416 c -1.384,0 -2.504,-1.122 -2.504,-2.509 l 0,0 0,-9.292 c 0,-1.385 1.122,-2.507 2.504,-2.507 l 0,0 9.797,0 c 1.384,0 2.506,1.122 2.506,2.507 l 0,0 0,9.292 c 0,1.385 -1.12,2.509 -2.506,2.509 l 0,0 -9.797,0 0,0 z m -0.506,-11.801 0,9.292 c 0.002,0.281 0.229,0.509 0.506,0.509 l 0,0 9.797,0 c 0.279,0 0.506,-0.226 0.506,-0.509 l 0,0 0,-9.292 c 0,-0.281 -0.225,-0.507 -0.506,-0.507 l 0,0 -9.797,0 c -0.279,0 -0.504,0.226 -0.506,0.507 l 0,0 z"
           inkscape:connector-curvature="0"
           style="fill:#f4f4f4" /></g><g
         id="g4196"><path
           id="path4198"
           d="m 272.294,221.686 c -0.763,-0.002 -1.375,-0.616 -1.377,-1.377 l 0,0 0.002,-17.392 c 0,-0.761 0.612,-1.377 1.375,-1.379 l 0,0 18.336,0 c 0.761,0.002 1.375,0.614 1.377,1.379 l 0,0 0,17.392 c -0.002,0.765 -0.618,1.375 -1.377,1.377 l 0,0 -18.336,0 0,0 z m 17.715,-1.999 0,-16.149 -17.09,0 0,16.149 17.09,0 0,0 z"
           inkscape:connector-curvature="0"
           style="fill:#f4f4f4" /><path
           id="path4200"
           d="m 276.564,217.416 c -1.385,0 -2.507,-1.122 -2.507,-2.509 l 0,0 0,-9.292 c 0,-1.385 1.125,-2.507 2.507,-2.507 l 0,0 9.797,0 c 1.384,0 2.506,1.122 2.506,2.507 l 0,0 0,9.292 c 0,1.387 -1.12,2.509 -2.506,2.509 l 0,0 -9.797,0 0,0 z m -0.506,-11.801 0,9.292 c 0,0.281 0.227,0.509 0.506,0.509 l 0,0 9.797,0 c 0.279,0 0.506,-0.228 0.508,-0.509 l 0,0 0,-9.292 c -0.002,-0.281 -0.228,-0.507 -0.508,-0.507 l 0,0 -9.797,0 c -0.279,0 -0.506,0.226 -0.506,0.507 l 0,0 z"
           inkscape:connector-curvature="0"
           style="fill:#f4f4f4" /></g><g
         id="g4202"><path
           id="path4204"
           d="m 292.246,221.686 c -0.763,-0.002 -1.377,-0.616 -1.379,-1.377 l 0,0 0.002,-17.392 c 0,-0.761 0.614,-1.379 1.377,-1.379 l 0,0 18.334,0 c 0.763,0.002 1.375,0.618 1.377,1.379 l 0,0 0,17.392 -0.002,0 c 0,0.761 -0.612,1.375 -1.375,1.377 l 0,0 -18.334,0 0,0 z m 17.709,-1.999 0.002,-16.149 -17.089,0 0,16.149 17.087,0 0,0 z"
           inkscape:connector-curvature="0"
           style="fill:#f4f4f4" /><path
           id="path4206"
           d="m 296.515,217.415 c -1.385,0 -2.507,-1.122 -2.507,-2.506 l 0,0 0,-9.293 c 0,-1.387 1.122,-2.507 2.507,-2.509 l 0,0 9.797,0.002 c 1.384,0 2.506,1.12 2.506,2.507 l 0,0 0,9.293 c 0,1.384 -1.122,2.506 -2.506,2.508 l 0,0 -9.797,-0.002 0,0 z m -0.509,-11.799 0,9.293 c 0.002,0.28 0.229,0.506 0.508,0.506 l 0,0 9.797,0.002 c 0.278,-0.002 0.506,-0.228 0.506,-0.508 l 0,0 0,-9.293 c 0,-0.281 -0.228,-0.507 -0.506,-0.507 l 0,0 -9.797,-0.002 c -0.281,0.002 -0.506,0.228 -0.508,0.509 l 0,0 z"
           inkscape:connector-curvature="0"
           style="fill:#f4f4f4" /></g><g
         id="g4208"><path
           id="path4210"
           d="m 312.195,221.685 c -0.761,0 -1.379,-0.614 -1.379,-1.375 l 0,0 0,-17.394 c 0.002,-0.761 0.618,-1.377 1.379,-1.379 l 0,0 18.335,0.002 c 0.761,0 1.375,0.616 1.377,1.377 l 0,0 0,17.394 -0.002,0 c 0,0.761 -0.614,1.375 -1.375,1.377 l 0,0 -18.335,-0.002 0,0 z m 17.71,-1.999 0.002,-16.147 -17.09,0 -0.002,16.147 17.09,0 0,0 z"
           inkscape:connector-curvature="0"
           style="fill:#f4f4f4" /><path
           id="path4212"
           d="m 316.463,217.415 c -1.384,0 -2.506,-1.122 -2.506,-2.506 l 0,0 0,-9.293 c 0.002,-1.385 1.122,-2.505 2.506,-2.509 l 0,0 9.797,0.002 c 1.383,0 2.507,1.12 2.507,2.507 l 0,0 0,9.293 c -0.002,1.386 -1.122,2.506 -2.507,2.508 l 0,0 -9.797,-0.002 0,0 z m -0.506,-11.799 0,9.293 c 0,0.28 0.226,0.506 0.506,0.506 l 0,0 9.797,0.002 c 0.277,-0.002 0.507,-0.229 0.507,-0.508 l 0,0 0,-9.293 c 0,-0.281 -0.228,-0.507 -0.507,-0.507 l 0,0 -9.797,-0.002 c -0.28,0.002 -0.506,0.226 -0.506,0.509 l 0,0 z"
           inkscape:connector-curvature="0"
           style="fill:#f4f4f4" /></g><g
         id="g4214"><path
           id="path4216"
           d="m 332.143,221.685 c -0.764,0 -1.374,-0.618 -1.376,-1.376 l 0,0 0,-17.393 c 0.002,-0.757 0.612,-1.378 1.376,-1.378 l 0,0 18.336,0 c 0.762,0.002 1.374,0.615 1.378,1.378 l 0,0 0,17.393 -0.002,0 c -0.002,0.766 -0.614,1.374 -1.376,1.376 l 0,0 -18.336,0 0,0 z m 17.712,-1.999 0,-16.148 -17.088,0 -0.002,16.148 17.09,0 0,0 z"
           inkscape:connector-curvature="0"
           style="fill:#f4f4f4" /><path
           id="path4218"
           d="m 336.413,217.416 c -1.384,0 -2.507,-1.121 -2.507,-2.507 l 0,0 0,-9.294 c 0,-1.386 1.123,-2.507 2.507,-2.507 l 0,0 9.795,0 c 1.386,0 2.507,1.123 2.507,2.507 l 0,0 0,9.294 c 0,1.384 -1.121,2.507 -2.507,2.507 l 0,0 -9.795,0 0,0 z m -0.509,-11.801 0,9.294 c 0.002,0.279 0.229,0.507 0.509,0.507 l 0,0 9.795,0 c 0.279,0 0.507,-0.226 0.507,-0.507 l 0,0 0,-9.294 c 0,-0.281 -0.226,-0.507 -0.507,-0.507 l 0,0 -9.795,0 c -0.281,0 -0.507,0.228 -0.509,0.507 l 0,0 z"
           inkscape:connector-curvature="0"
           style="fill:#f4f4f4" /></g><g
         id="g4220"><path
           id="path4222"
           d="m 352.092,221.686 c -0.761,0 -1.375,-0.618 -1.377,-1.376 l 0,0 0,-17.393 c 0.002,-0.757 0.614,-1.377 1.377,-1.379 l 0,0 18.335,0 c 0.761,0.002 1.377,0.618 1.379,1.379 l 0,0 0,17.393 -0.002,0 c 0,0.762 -0.616,1.376 -1.377,1.376 l 0,0 -18.335,0 0,0 z m 17.713,-2 0,-16.146 -17.089,-0.002 -0.002,16.148 17.091,0 0,0 z"
           inkscape:connector-curvature="0"
           style="fill:#f4f4f4" /><path
           id="path4224"
           d="m 356.362,217.416 c -1.387,0 -2.506,-1.123 -2.506,-2.508 l 0,0 0,-9.293 c 0,-1.385 1.121,-2.507 2.506,-2.507 l 0,0 9.797,0 c 1.383,0.003 2.504,1.122 2.506,2.507 l 0,0 0,9.293 c -0.002,1.385 -1.121,2.508 -2.506,2.508 l 0,0 -9.797,0 0,0 z m -0.508,-11.801 0,9.293 c 0.002,0.281 0.229,0.508 0.508,0.508 l 0,0 9.797,0 c 0.279,0 0.506,-0.227 0.506,-0.508 l 0,0 0,-9.293 c 0,-0.282 -0.225,-0.506 -0.506,-0.506 l 0,0 -9.797,-0.002 c -0.281,0.002 -0.506,0.226 -0.508,0.508 l 0,0 z"
           inkscape:connector-curvature="0"
           style="fill:#f4f4f4" /></g><g
         id="g4226"><path
           id="path4228"
           d="m 372.042,221.686 c -0.761,0 -1.376,-0.615 -1.379,-1.376 l 0,0 0.003,-17.394 c 0,-0.761 0.615,-1.376 1.376,-1.376 l 0,0 18.337,0 c 0.764,0 1.374,0.619 1.374,1.376 l 0,0 0,17.394 c 0,0.757 -0.61,1.376 -1.374,1.376 l 0,0 -18.337,0 0,0 z m 17.711,-2 0.002,-16.148 -17.092,0 0,16.148 17.09,0 0,0 z"
           inkscape:connector-curvature="0"
           style="fill:#f4f4f4" /><path
           id="path4230"
           d="m 376.312,217.415 c -1.385,0 -2.507,-1.122 -2.507,-2.507 l 0,0 0,-9.292 c 0,-1.386 1.122,-2.508 2.507,-2.508 l 0,0 9.797,0 c 1.384,0 2.506,1.122 2.506,2.508 l 0,0 0,9.292 c 0,1.385 -1.122,2.507 -2.506,2.509 l 0,0 -9.797,-0.002 0,0 z m -0.508,-11.799 0,9.292 c 0.003,0.281 0.229,0.508 0.508,0.508 l 0,0 9.797,0 c 0.278,0 0.505,-0.227 0.507,-0.508 l 0,0 0,-9.292 c -0.002,-0.282 -0.229,-0.507 -0.507,-0.507 l 0,0 -9.797,-0.002 c -0.279,0.002 -0.505,0.227 -0.508,0.509 l 0,0 z"
           inkscape:connector-curvature="0"
           style="fill:#f4f4f4" /></g><g
         id="g4232"><path
           id="path4234"
           d="m 391.991,221.686 c -0.765,-0.002 -1.375,-0.615 -1.377,-1.376 l 0,0 0,-17.394 c 0,-0.76 0.612,-1.377 1.377,-1.377 l 0,0 18.336,0 c 0.761,0 1.375,0.617 1.377,1.377 l 0,0 0,17.394 -0.002,0 c 0,0.761 -0.614,1.374 -1.375,1.376 l 0,0 -18.336,0 0,0 z m 17.711,-1.999 0.002,-16.149 -17.09,0 0,16.149 17.088,0 0,0 z"
           inkscape:connector-curvature="0"
           style="fill:#f4f4f4" /><path
           id="path4236"
           d="m 396.262,217.416 c -1.387,0 -2.504,-1.125 -2.506,-2.507 l 0,0 0,-9.293 c 0.002,-1.384 1.119,-2.507 2.506,-2.509 l 0,0 9.796,0.002 c 1.384,0 2.506,1.121 2.506,2.507 l 0,0 0,9.293 c 0,1.384 -1.122,2.507 -2.506,2.507 l 0,0 -9.796,0 0,0 z m -0.508,-11.8 0,9.293 c 0.002,0.281 0.227,0.507 0.508,0.507 l 0,0 9.796,0 c 0.277,0 0.506,-0.228 0.506,-0.507 l 0,0 0,-9.293 c 0,-0.281 -0.227,-0.507 -0.506,-0.507 l 0,0 -9.796,-0.002 c -0.282,0.002 -0.506,0.226 -0.508,0.509 l 0,0 z"
           inkscape:connector-curvature="0"
           style="fill:#f4f4f4" /></g><g
         id="g4238"><path
           id="path4240"
           d="m 148.229,241.729 c -0.76,0 -1.376,-0.613 -1.376,-1.376 l 0,0 0,-17.393 c 0,-0.763 0.616,-1.378 1.376,-1.378 l 0,0 18.336,0 c 0.758,0 1.374,0.611 1.376,1.378 l 0,0 0,17.393 c -0.002,0.768 -0.62,1.374 -1.376,1.376 l 0,0 -18.336,0 0,0 z m 17.712,-2 0,-16.147 -17.088,0 0,16.147 17.088,0 0,0 z"
           inkscape:connector-curvature="0"
           style="fill:#f4f4f4" /><path
           id="path4242"
           d="m 152.499,237.459 c -1.386,0 -2.506,-1.122 -2.506,-2.506 l 0,0 0,-9.293 c 0,-1.386 1.121,-2.509 2.506,-2.509 l 0,0 9.796,0 c 1.386,0 2.506,1.123 2.506,2.509 l 0,0 0,9.293 c 0,1.384 -1.121,2.506 -2.506,2.508 l 0,0 -9.796,-0.002 0,0 z m -0.507,-11.799 0,9.293 c 0,0.277 0.229,0.507 0.507,0.507 l 0,0 9.796,0 c 0.28,0 0.507,-0.228 0.507,-0.507 l 0,0 0,-9.293 c 0,-0.281 -0.228,-0.507 -0.507,-0.507 l 0,0 -9.796,-0.003 c -0.278,0.003 -0.507,0.231 -0.507,0.51 l 0,0 z"
           inkscape:connector-curvature="0"
           style="fill:#f4f4f4" /></g><g
         id="g4244"><path
           id="path4246"
           d="m 168.179,241.728 c -0.756,0 -1.376,-0.608 -1.378,-1.374 l 0,0 0.002,-17.395 c 0,-0.765 0.62,-1.376 1.376,-1.378 l 0,0 18.335,0.002 c 0.758,0 1.376,0.618 1.378,1.376 l 0,0 0,17.395 -0.002,0 c 0,0.759 -0.618,1.374 -1.376,1.374 l 0,0 -18.335,0 0,0 z m 17.711,-2 0,-16.145 -17.088,-0.002 -0.002,16.146 17.09,0 0,0.001 z"
           inkscape:connector-curvature="0"
           style="fill:#f4f4f4" /><path
           id="path4248"
           d="m 172.449,237.459 c -1.386,0 -2.507,-1.122 -2.507,-2.506 l 0,0 0,-9.293 c 0,-1.386 1.121,-2.509 2.507,-2.509 l 0,0 9.795,0 c 1.386,0 2.507,1.123 2.507,2.509 l 0,0 0,9.293 c 0,1.384 -1.121,2.506 -2.507,2.508 l 0,0 -9.795,-0.002 0,0 z m -0.508,-11.799 0,9.293 c 0.002,0.279 0.23,0.507 0.508,0.507 l 0,0 9.795,0 c 0.278,0 0.506,-0.228 0.508,-0.507 l 0,0 0,-9.293 c -0.002,-0.281 -0.23,-0.507 -0.508,-0.507 l 0,0 -9.795,-0.003 c -0.278,0.003 -0.506,0.229 -0.508,0.51 l 0,0 z"
           inkscape:connector-curvature="0"
           style="fill:#f4f4f4" /></g><g
         id="g4250"><path
           id="path4252"
           d="m 188.128,241.728 c -0.758,0 -1.376,-0.615 -1.378,-1.374 l 0,0 0.002,-17.395 c 0,-0.758 0.618,-1.376 1.376,-1.378 l 0,0 18.336,0.002 c 0.756,0 1.374,0.615 1.376,1.376 l 0,0 0,17.395 c 0,0.763 -0.62,1.374 -1.376,1.374 l 0,0 -18.336,0 0,0 z m 17.712,-2 0,-16.145 -17.088,-0.002 -0.002,16.146 17.09,0 0,0.001 z"
           inkscape:connector-curvature="0"
           style="fill:#f4f4f4" /><path
           id="path4254"
           d="m 192.399,237.459 c -1.388,0 -2.506,-1.122 -2.508,-2.506 l 0,0 0,-9.293 c 0.002,-1.386 1.121,-2.509 2.508,-2.509 l 0,0 9.796,0 c 1.386,0 2.504,1.125 2.504,2.509 l 0,0 0,9.293 c 0,1.382 -1.119,2.506 -2.504,2.508 l 0,0 -9.796,-0.002 0,0 z m -0.507,-11.799 0,9.293 c 0,0.279 0.228,0.507 0.507,0.507 l 0,0 9.796,0 c 0.278,0 0.503,-0.228 0.505,-0.507 l 0,0 0,-9.293 c -0.002,-0.281 -0.228,-0.507 -0.505,-0.507 l 0,0 -9.796,-0.003 c -0.279,0.003 -0.507,0.229 -0.507,0.51 l 0,0 z"
           inkscape:connector-curvature="0"
           style="fill:#f4f4f4" /></g><g
         id="g4256"><path
           id="path4258"
           d="m 208.078,241.729 c -0.761,-0.002 -1.376,-0.617 -1.376,-1.376 l 0,0 0,-17.393 c 0,-0.758 0.615,-1.376 1.376,-1.378 l 0,0 18.335,0 c 0.759,0.002 1.376,0.615 1.376,1.378 l 0,0 0,17.393 c 0,0.763 -0.62,1.374 -1.376,1.376 l 0,0 -18.335,0 0,0 z m 17.711,-2 0,-16.147 -17.087,0 0,16.147 17.087,0 0,0 z"
           inkscape:connector-curvature="0"
           style="fill:#f4f4f4" /><path
           id="path4260"
           d="m 212.346,237.46 c -1.386,-0.002 -2.504,-1.124 -2.507,-2.508 l 0,0 0,-9.293 c 0.002,-1.384 1.121,-2.506 2.507,-2.506 l 0,0 9.798,0 c 1.384,0 2.506,1.12 2.506,2.506 l 0,0 0,9.293 c 0,1.386 -1.123,2.506 -2.506,2.508 l 0,0 -9.798,0 0,0 z m -0.506,-11.801 0,9.293 c 0,0.279 0.23,0.507 0.506,0.509 l 0,0 9.798,0 c 0.277,-0.002 0.505,-0.229 0.507,-0.509 l 0,0 0,-9.293 c -0.002,-0.279 -0.23,-0.508 -0.507,-0.508 l 0,0 -9.798,0 c -0.276,0 -0.506,0.229 -0.506,0.508 l 0,0 z"
           inkscape:connector-curvature="0"
           style="fill:#f4f4f4" /></g><g
         id="g4262"><path
           id="path4264"
           d="m 228.025,241.729 c -0.758,0 -1.374,-0.613 -1.376,-1.376 l 0,0 0,-17.393 c 0,-0.763 0.618,-1.378 1.376,-1.378 l 0,0 18.338,0 c 0.756,0.002 1.374,0.615 1.376,1.378 l 0,0 0,17.393 c -0.002,0.763 -0.62,1.374 -1.376,1.376 l 0,0 -18.338,0 0,0 z m 17.714,-2 0,-16.147 -17.09,0 0,16.147 17.09,0 0,0 z"
           inkscape:connector-curvature="0"
           style="fill:#f4f4f4" /><path
           id="path4266"
           d="m 232.297,237.459 c -1.386,0 -2.506,-1.122 -2.506,-2.506 l 0,0 0,-9.293 c 0,-1.386 1.121,-2.509 2.506,-2.509 l 0,0 9.796,0 c 1.386,0 2.506,1.123 2.506,2.509 l 0,0 0,9.293 c 0,1.384 -1.121,2.506 -2.506,2.508 l 0,0 -9.796,-0.002 0,0 z m -0.507,-11.799 0,9.293 c 0,0.279 0.228,0.507 0.507,0.507 l 0,0 9.796,0 c 0.278,0 0.505,-0.228 0.508,-0.507 l 0,0 0,-9.293 c -0.002,-0.281 -0.23,-0.507 -0.508,-0.507 l 0,0 -9.796,-0.003 c -0.279,0.003 -0.507,0.229 -0.507,0.51 l 0,0 z"
           inkscape:connector-curvature="0"
           style="fill:#f4f4f4" /></g><g
         id="g4268"><path
           id="path4270"
           d="m 247.976,241.729 c -0.756,-0.002 -1.376,-0.613 -1.376,-1.376 l 0,0 0,-17.393 c 0,-0.763 0.62,-1.376 1.376,-1.378 l 0,0 18.337,0 c 0.759,0.002 1.374,0.62 1.376,1.378 l 0,0 0,17.393 -0.002,0 c 0,0.759 -0.615,1.374 -1.374,1.376 l 0,0 -18.337,0 0,0 z m 17.711,-2 0.002,-16.147 -17.09,0 0,16.147 17.088,0 0,0 z"
           inkscape:connector-curvature="0"
           style="fill:#f4f4f4" /><path
           id="path4272"
           d="m 252.245,237.459 c -1.386,0 -2.506,-1.122 -2.506,-2.506 l 0,0 0,-9.293 c 0,-1.386 1.121,-2.509 2.506,-2.509 l 0,0 9.796,0 c 1.386,0 2.506,1.123 2.506,2.509 l 0,0 0,9.293 c 0,1.384 -1.121,2.506 -2.506,2.508 l 0,0 -9.796,-0.002 0,0 z m -0.508,-11.799 0,9.293 c 0.002,0.279 0.23,0.507 0.508,0.507 l 0,0 9.796,0 c 0.279,0 0.507,-0.228 0.507,-0.507 l 0,0 0,-9.293 c 0,-0.281 -0.228,-0.507 -0.507,-0.507 l 0,0 -9.796,-0.003 c -0.278,0.003 -0.505,0.229 -0.508,0.51 l 0,0 z"
           inkscape:connector-curvature="0"
           style="fill:#f4f4f4" /></g><g
         id="g4274"><path
           id="path4276"
           d="m 267.925,241.729 c -0.758,-0.002 -1.376,-0.613 -1.378,-1.376 l 0,0 0.002,-17.393 c 0,-0.763 0.618,-1.376 1.376,-1.378 l 0,0 18.336,0 c 0.76,0.002 1.374,0.62 1.376,1.378 l 0,0 0,17.393 c -0.002,0.759 -0.618,1.374 -1.376,1.376 l 0,0 -18.336,0 0,0 z m 17.712,-2 0,-16.147 -17.088,0 -0.002,16.147 17.09,0 0,0 z"
           inkscape:connector-curvature="0"
           style="fill:#f4f4f4" /><path
           id="path4278"
           d="m 272.195,237.459 c -1.386,0 -2.504,-1.122 -2.506,-2.506 l 0,0 0,-9.293 c 0.002,-1.386 1.121,-2.509 2.506,-2.509 l 0,0 9.796,0 c 1.386,0 2.507,1.123 2.507,2.509 l 0,0 0,9.293 c 0,1.384 -1.121,2.506 -2.507,2.508 l 0,0 -9.796,-0.002 0,0 z m -0.506,-11.799 0,9.293 c 0,0.279 0.228,0.507 0.505,0.507 l 0,0 9.796,0 c 0.278,0 0.505,-0.228 0.508,-0.507 l 0,0 0,-9.293 c -0.002,-0.281 -0.23,-0.507 -0.508,-0.507 l 0,0 -9.796,-0.003 c -0.277,0.003 -0.505,0.229 -0.505,0.51 l 0,0 z"
           inkscape:connector-curvature="0"
           style="fill:#f4f4f4" /></g><g
         id="g4280"><path
           id="path4282"
           d="m 287.874,241.729 c -0.759,0 -1.374,-0.613 -1.376,-1.376 l 0,0 0,-17.393 c 0,-0.763 0.618,-1.378 1.376,-1.378 l 0,0 18.335,0 c 0.756,0.002 1.376,0.611 1.378,1.378 l 0,0 0,17.393 c -0.002,0.768 -0.622,1.376 -1.378,1.376 l 0,0 -18.335,0 0,0 z m 17.713,-2 0,-16.147 -17.09,0 0,16.147 17.09,0 0,0 z"
           inkscape:connector-curvature="0"
           style="fill:#f4f4f4" /><path
           id="path4284"
           d="m 292.145,237.459 c -1.386,0 -2.506,-1.122 -2.508,-2.506 l 0,0 0,-9.293 c 0.002,-1.386 1.123,-2.509 2.508,-2.509 l 0,0 9.795,0 c 1.386,0 2.507,1.123 2.507,2.509 l 0,0 0,9.293 c 0,1.384 -1.121,2.506 -2.507,2.508 l 0,0 -9.795,-0.002 0,0 z m -0.507,-11.799 0,9.293 c 0,0.277 0.228,0.507 0.507,0.507 l 0,0 9.795,0 c 0.277,0 0.506,-0.228 0.508,-0.507 l 0,0 0,-9.293 c -0.002,-0.281 -0.23,-0.507 -0.508,-0.507 l 0,0 -9.795,-0.003 c -0.28,0.003 -0.507,0.231 -0.507,0.51 l 0,0 z"
           inkscape:connector-curvature="0"
           style="fill:#f4f4f4" /></g><g
         id="g4286"><path
           id="path4288"
           d="m 307.823,241.729 c -0.757,-0.002 -1.376,-0.617 -1.378,-1.376 l 0,0 0.002,-17.393 c 0,-0.76 0.617,-1.376 1.376,-1.378 l 0,0 18.335,0 c 0.761,0.002 1.374,0.62 1.377,1.378 l 0,0 0,17.393 c -0.003,0.759 -0.616,1.374 -1.377,1.376 l 0,0 -18.335,0 0,0 z m 17.712,-2 0,-16.147 -17.088,0 -0.002,16.147 17.09,0 0,0 z"
           inkscape:connector-curvature="0"
           style="fill:#f4f4f4" /><path
           id="path4290"
           d="m 312.095,237.459 c -1.388,0 -2.509,-1.122 -2.509,-2.506 l 0,0 0,-9.293 c 0,-1.386 1.121,-2.509 2.509,-2.509 l 0,0 9.794,0 c 1.386,0 2.507,1.123 2.507,2.509 l 0,0 0,9.293 c 0,1.384 -1.121,2.506 -2.507,2.508 l 0,0 -9.794,-0.002 0,0 z m -0.51,-11.799 0,9.293 c 0.002,0.279 0.229,0.507 0.51,0.507 l 0,0 9.794,0 c 0.279,0 0.508,-0.229 0.508,-0.507 l 0,0 0,-9.293 c 0,-0.279 -0.229,-0.507 -0.508,-0.507 l 0,0 -9.794,-0.003 c -0.282,0.003 -0.508,0.229 -0.51,0.51 l 0,0 z"
           inkscape:connector-curvature="0"
           style="fill:#f4f4f4" /></g><g
         id="g4292"><path
           id="path4294"
           d="m 327.774,241.728 c -0.755,0 -1.379,-0.608 -1.381,-1.374 l 0,0 0.002,-17.395 c 0,-0.767 0.622,-1.376 1.379,-1.378 l 0,0 18.335,0.002 c 0.759,0 1.374,0.615 1.376,1.376 l 0,0 0,17.395 -0.002,0 c 0,0.761 -0.615,1.374 -1.374,1.374 l 0,0 -18.335,0 0,0 z m 17.709,-2 0.002,-16.145 -17.09,-0.002 -0.002,16.146 17.09,0 0,0.001 z"
           inkscape:connector-curvature="0"
           style="fill:#f4f4f4" /><path
           id="path4296"
           d="m 332.043,237.459 c -1.386,0 -2.507,-1.124 -2.507,-2.506 l 0,0 0,-9.293 c 0,-1.384 1.121,-2.509 2.507,-2.509 l 0,0 9.796,0 c 1.386,0 2.506,1.123 2.506,2.509 l 0,0 0,9.293 c 0,1.384 -1.12,2.506 -2.506,2.508 l 0,0 -9.796,-0.002 0,0 z m -0.508,-11.799 0,9.293 c 0.002,0.279 0.228,0.507 0.508,0.507 l 0,0 9.796,0 c 0.277,0 0.505,-0.228 0.507,-0.507 l 0,0 0,-9.293 c -0.002,-0.281 -0.229,-0.507 -0.507,-0.507 l 0,0 -9.796,-0.003 c -0.28,0.003 -0.506,0.229 -0.508,0.51 l 0,0 z"
           inkscape:connector-curvature="0"
           style="fill:#f4f4f4" /></g><g
         id="g4298"><path
           id="path4300"
           d="m 347.723,241.729 c -0.759,-0.002 -1.378,-0.613 -1.378,-1.374 l 0,0 0,-17.395 c 0.002,-0.763 0.619,-1.376 1.378,-1.376 l 0,0 18.336,0 c 0.758,0 1.374,0.613 1.376,1.376 l 0,0 0,17.395 -0.002,0 c 0,0.761 -0.616,1.374 -1.374,1.374 l 0,0 -18.336,0 0,0 z m 17.71,-2 0.001,-16.146 -17.089,0 0,16.146 17.088,0 0,0 z"
           inkscape:connector-curvature="0"
           style="fill:#f4f4f4" /><path
           id="path4302"
           d="m 351.993,237.458 c -1.387,0 -2.508,-1.12 -2.508,-2.505 l 0,0 0,-9.294 c 0,-1.386 1.121,-2.507 2.508,-2.509 l 0,0 9.795,0.002 c 1.386,0 2.507,1.123 2.507,2.507 l 0,0 0,9.294 c 0,1.385 -1.121,2.505 -2.507,2.508 l 0,0 -9.795,-0.003 0,0 z m -0.51,-11.799 0,9.294 c 0.002,0.277 0.229,0.506 0.51,0.506 l 0,0 9.795,0.002 c 0.279,-0.002 0.506,-0.23 0.508,-0.508 l 0,0 0,-9.294 c -0.002,-0.279 -0.229,-0.507 -0.508,-0.507 l 0,0 -9.795,-0.003 c -0.28,0.003 -0.508,0.231 -0.51,0.51 l 0,0 z"
           inkscape:connector-curvature="0"
           style="fill:#f4f4f4" /></g><g
         id="g4304"><path
           id="path4306"
           d="m 367.577,241.728 c -0.761,0 -1.376,-0.613 -1.378,-1.374 l 0,0 0.002,-17.395 c 0,-0.762 0.615,-1.377 1.376,-1.377 l 0,0 18.335,0 c 0.759,0.002 1.376,0.615 1.378,1.377 l 0,0 0,17.395 -0.002,0 c 0,0.763 -0.619,1.374 -1.376,1.374 l 0,0 -18.335,0 0,0 z m 17.712,-1.999 0,-16.147 -17.089,0 0,16.147 17.089,0 0,0 z"
           inkscape:connector-curvature="0"
           style="fill:#f4f4f4" /><path
           id="path4308"
           d="m 371.847,237.459 c -1.386,0 -2.507,-1.122 -2.507,-2.506 l 0,0 0,-9.293 c 0,-1.385 1.121,-2.507 2.507,-2.509 l 0,0 9.798,0 c 1.384,0.002 2.503,1.124 2.505,2.509 l 0,0 0,9.293 c -0.002,1.384 -1.121,2.506 -2.505,2.506 l 0,0 -9.798,0 0,0 z m -0.507,-11.799 0,9.293 c 0,0.279 0.229,0.507 0.507,0.507 l 0,0 9.798,0 c 0.276,0 0.505,-0.228 0.505,-0.507 l 0,0 0,-9.293 c 0,-0.28 -0.229,-0.509 -0.505,-0.509 l 0,0 -9.798,0 c -0.279,0 -0.507,0.229 -0.507,0.509 l 0,0 z"
           inkscape:connector-curvature="0"
           style="fill:#f4f4f4" /></g><g
         id="g4310"><path
           id="path4312"
           d="m 387.527,241.728 c -0.76,0 -1.375,-0.615 -1.377,-1.375 l 0,0 0,-17.393 c 0.002,-0.758 0.617,-1.377 1.377,-1.379 l 0,0 18.334,0.002 c 0.756,0 1.377,0.614 1.379,1.377 l 0,0 0,17.393 -0.002,0 c 0,0.763 -0.621,1.375 -1.377,1.377 l 0,0 -18.334,-0.002 0,0 z m 17.711,-1.999 0,-16.146 -17.088,-0.002 0,16.146 17.088,0.002 0,0 z"
           inkscape:connector-curvature="0"
           style="fill:#f4f4f4" /><path
           id="path4314"
           d="m 391.797,237.46 c -1.387,0 -2.507,-1.124 -2.507,-2.507 l 0,0 0,-9.293 c 0,-1.385 1.12,-2.509 2.507,-2.509 l 0,0 9.797,0 c 1.385,0.002 2.505,1.124 2.505,2.509 l 0,0 0,9.293 c 0,1.383 -1.12,2.505 -2.505,2.507 l 0,0 -9.797,0 0,0 z m -0.508,-11.8 0,9.293 c 0.002,0.279 0.229,0.506 0.508,0.506 l 0,0 9.797,0.002 c 0.276,-0.002 0.506,-0.229 0.506,-0.508 l 0,0 0,-9.293 c 0,-0.281 -0.229,-0.508 -0.506,-0.508 l 0,0 -9.797,-0.002 c -0.279,0.002 -0.506,0.229 -0.508,0.51 l 0,0 z"
           inkscape:connector-curvature="0"
           style="fill:#f4f4f4" /></g><g
         id="g4316"><path
           id="path4318"
           d="m 407.477,241.728 c -0.758,0 -1.378,-0.611 -1.378,-1.376 l 0,0 0,-17.393 c 0.002,-0.762 0.618,-1.376 1.378,-1.376 l 0,0 18.337,0 c 0.758,0 1.371,0.612 1.376,1.376 l 0,0 0,17.393 -0.003,0 c -0.002,0.767 -0.615,1.374 -1.373,1.376 l 0,0 -18.337,0 0,0 z m 17.71,-1.999 0.002,-16.147 -17.09,0 0,16.147 17.088,0 0,0 z"
           inkscape:connector-curvature="0"
           style="fill:#f4f4f4" /><path
           id="path4320"
           d="m 411.747,237.459 c -1.388,0 -2.508,-1.123 -2.508,-2.507 l 0,0 0,-9.292 c 0,-1.386 1.12,-2.509 2.508,-2.509 l 0,0 9.793,0 c 1.387,0 2.507,1.123 2.509,2.509 l 0,0 0,9.292 c -0.002,1.384 -1.122,2.507 -2.509,2.509 l 0,0 -9.793,-0.002 0,0 z m -0.509,-11.799 0,9.292 c 0,0.28 0.228,0.508 0.509,0.508 l 0,0 9.793,0 c 0.28,0 0.508,-0.229 0.51,-0.508 l 0,0 0,-9.292 c -0.002,-0.279 -0.229,-0.509 -0.51,-0.509 l 0,0 -9.793,0 c -0.281,0 -0.509,0.228 -0.509,0.509 l 0,0 z"
           inkscape:connector-curvature="0"
           style="fill:#f4f4f4" /></g><g
         id="g4322"><path
           id="path4324"
           d="m 427.426,241.729 c -0.758,-0.002 -1.378,-0.613 -1.378,-1.375 l 0,0 0,-17.395 c 0.003,-0.762 0.618,-1.375 1.378,-1.377 l 0,0 18.336,0 c 0.758,0.002 1.375,0.615 1.377,1.377 l 0,0 0,17.395 -0.002,0 c 0,0.762 -0.619,1.373 -1.375,1.375 l 0,0 -18.336,0 0,0 z m 17.712,-2 0,-16.147 -17.089,0 -0.002,16.147 17.091,0 0,0 z"
           inkscape:connector-curvature="0"
           style="fill:#f4f4f4" /><path
           id="path4326"
           d="m 431.695,237.459 c -1.387,0 -2.506,-1.123 -2.506,-2.506 l 0,0 0,-9.294 c 0,-1.385 1.119,-2.506 2.506,-2.509 l 0,0 9.796,0.003 c 1.385,0 2.506,1.121 2.506,2.506 l 0,0 0,9.294 c 0,1.383 -1.121,2.506 -2.506,2.508 l 0,0 -9.796,-0.002 0,0 z m -0.507,-11.8 0,9.294 c 0.002,0.277 0.229,0.506 0.508,0.506 l 0,0 9.796,0.002 c 0.276,-0.002 0.506,-0.23 0.506,-0.508 l 0,0 0,-9.294 c 0,-0.28 -0.229,-0.509 -0.506,-0.509 l 0,0 -9.796,0 c -0.279,0 -0.507,0.229 -0.508,0.509 l 0,0 z"
           inkscape:connector-curvature="0"
           style="fill:#f4f4f4" /></g><g
         id="g4328"><path
           id="path4330"
           d="m 447.375,241.729 c -0.759,-0.002 -1.376,-0.616 -1.378,-1.376 l 0,0 0,-17.393 c 0.002,-0.759 0.619,-1.376 1.378,-1.378 l 0,0 18.334,0 c 0.76,0.002 1.375,0.619 1.377,1.378 l 0,0 0,17.393 c -0.002,0.76 -0.617,1.374 -1.377,1.376 l 0,0 -18.334,0 0,0 z m 17.711,-2 0,-16.148 -17.088,0 -0.002,16.148 17.09,0 0,0 z"
           inkscape:connector-curvature="0"
           style="fill:#f4f4f4" /><path
           id="path4332"
           d="m 451.644,237.46 c -1.387,-0.002 -2.505,-1.124 -2.505,-2.508 l 0,0 0,-9.293 c 0,-1.384 1.118,-2.506 2.505,-2.508 l 0,0 9.798,0 c 1.386,0 2.506,1.124 2.506,2.508 l 0,0 0,9.293 c 0,1.384 -1.12,2.508 -2.506,2.508 l 0,0 -9.798,0 0,0 z m -0.506,-11.801 0,9.293 c 0,0.281 0.229,0.508 0.506,0.508 l 0,0 9.798,0 c 0.278,0 0.505,-0.227 0.507,-0.508 l 0,0 0,-9.293 c -0.002,-0.28 -0.229,-0.507 -0.507,-0.51 l 0,0 -9.798,0 c -0.278,0.003 -0.506,0.23 -0.506,0.51 l 0,0 z"
           inkscape:connector-curvature="0"
           style="fill:#f4f4f4" /></g><g
         id="g4334"><path
           id="path4336"
           d="m 148.229,261.771 c -0.762,0 -1.373,-0.612 -1.377,-1.373 l 0,0 0.002,-17.395 c 0,-0.763 0.619,-1.374 1.375,-1.376 l 0,0 27.378,0 c 0.754,0.002 1.375,0.617 1.377,1.376 l 0,0 0,17.395 -0.002,0 c 0,0.759 -0.615,1.373 -1.375,1.373 l 0,0 -27.378,0 0,0 z m 26.755,-1.999 0,-16.146 -26.131,0 0,16.146 26.131,0 0,0 z"
           inkscape:connector-curvature="0"
           style="fill:#f4f4f4" /><path
           id="path4338"
           d="m 152.499,257.502 c -1.383,0 -2.506,-1.119 -2.508,-2.506 l 0,0 0.002,-9.293 c 0,-1.387 1.124,-2.508 2.506,-2.508 l 0,0 18.838,0 c 1.385,0 2.506,1.121 2.508,2.508 l 0,0 0,9.293 -0.002,0 c 0,1.385 -1.121,2.506 -2.506,2.508 l 0,0 -18.838,-0.002 0,0 z m -0.507,-11.799 0,9.293 c 0,0.278 0.229,0.506 0.507,0.506 l 0,0 18.838,0.003 c 0.28,-0.003 0.506,-0.23 0.508,-0.509 l 0,0 -0.002,0 0.002,-9.293 c -0.002,-0.282 -0.228,-0.506 -0.508,-0.506 l 0,0 -18.838,-0.003 c -0.28,0.003 -0.507,0.229 -0.507,0.509 l 0,0 z"
           inkscape:connector-curvature="0"
           style="fill:#f4f4f4" /></g><g
         id="g4340"><path
           id="path4342"
           d="m 177.222,261.771 c -0.76,0 -1.375,-0.606 -1.379,-1.373 l 0,0 0.002,-17.395 c 0,-0.767 0.623,-1.374 1.377,-1.376 l 0,0 18.336,0 c 0.754,0.002 1.375,0.609 1.375,1.376 l 0,0 0,17.395 c -0.004,0.765 -0.615,1.371 -1.375,1.373 l 0,0 -18.336,0 0,0 z m 17.713,-1.999 0,-16.146 -17.092,0 0,16.146 17.092,0 0,0 z"
           inkscape:connector-curvature="0"
           style="fill:#f4f4f4" /><path
           id="path4344"
           d="m 181.493,257.502 c -1.387,0 -2.508,-1.121 -2.508,-2.506 l 0,0 0,-9.293 c 0,-1.387 1.124,-2.508 2.508,-2.508 l 0,0 9.792,0 c 1.385,0.002 2.506,1.121 2.508,2.508 l 0,0 0,9.293 c 0,1.385 -1.121,2.506 -2.508,2.508 l 0,0 -9.792,-0.002 0,0 z m -0.509,-11.799 0,9.293 c 0,0.278 0.227,0.506 0.509,0.506 l 0,0 9.792,0.003 c 0.283,-0.003 0.507,-0.229 0.509,-0.509 l 0,0 0,-9.293 c 0,-0.282 -0.226,-0.506 -0.509,-0.506 l 0,0 -9.792,-0.003 c -0.283,0.003 -0.509,0.227 -0.509,0.509 l 0,0 z"
           inkscape:connector-curvature="0"
           style="fill:#f4f4f4" /></g><g
         id="g4346"><path
           id="path4348"
           d="m 197.17,261.771 c -0.761,0 -1.377,-0.614 -1.377,-1.373 l 0,0 0,-17.395 c 0.002,-0.759 0.623,-1.374 1.377,-1.376 l 0,0 18.336,0 c 0.756,0.002 1.375,0.617 1.375,1.376 l 0,0 0,17.395 c 0,0.759 -0.613,1.373 -1.375,1.373 l 0,0 -18.336,0 0,0 z m 17.711,-1.999 0.002,-16.146 -17.09,0 0,16.146 17.088,0 0,0 z"
           inkscape:connector-curvature="0"
           style="fill:#f4f4f4" /><path
           id="path4350"
           d="m 201.44,257.503 c -1.385,0 -2.506,-1.121 -2.508,-2.506 l 0,0 0.002,-9.295 c 0,-1.385 1.121,-2.506 2.506,-2.506 l 0,0 9.797,0 c 1.383,0 2.504,1.121 2.506,2.506 l 0,0 0,9.295 c -0.002,1.385 -1.121,2.504 -2.506,2.506 l 0,0 -9.797,0 0,0 z m -0.506,-11.801 0,9.295 c 0,0.278 0.227,0.506 0.507,0.506 l 0,0 9.797,0 c 0.278,0 0.504,-0.228 0.506,-0.506 l 0,0 -0.002,0 0.002,-9.295 c -0.002,-0.28 -0.229,-0.507 -0.506,-0.507 l 0,0 -9.797,0 c -0.281,0 -0.507,0.227 -0.507,0.507 l 0,0 z"
           inkscape:connector-curvature="0"
           style="fill:#f4f4f4" /></g><g
         id="g4352"><path
           id="path4354"
           d="m 217.12,261.772 c -0.765,-0.003 -1.375,-0.613 -1.377,-1.376 l 0,0 0,-17.393 c 0.002,-0.763 0.621,-1.376 1.377,-1.378 l 0,0 18.336,0.002 c 0.754,0 1.374,0.615 1.375,1.376 l 0,0 0,17.393 c 0,0.759 -0.613,1.376 -1.375,1.376 l 0,0 -18.336,0 0,0 z m 17.711,-1.999 0,-16.146 -17.087,0 0,16.145 17.087,0.001 0,0 z"
           inkscape:connector-curvature="0"
           style="fill:#f4f4f4" /><path
           id="path4356"
           d="m 221.39,257.502 c -1.385,0 -2.506,-1.121 -2.508,-2.506 l 0,0 0,-9.293 c 0,-1.387 1.123,-2.508 2.508,-2.508 l 0,0 9.794,0 c 1.385,0.002 2.504,1.123 2.508,2.508 l 0,0 0,9.293 -0.002,0 c 0,1.385 -1.121,2.506 -2.506,2.508 l 0,0 -9.794,-0.002 0,0 z m -0.507,-11.799 -0.002,9.293 c 0.002,0.278 0.229,0.506 0.509,0.506 l 0,0 9.794,0.003 c 0.28,-0.003 0.507,-0.229 0.507,-0.509 l 0,0 0,-9.293 c 0,-0.282 -0.224,-0.506 -0.507,-0.506 l 0,0 -9.794,-0.003 c -0.28,0.003 -0.507,0.227 -0.507,0.509 l 0,0 z"
           inkscape:connector-curvature="0"
           style="fill:#f4f4f4" /></g><g
         id="g4358"><path
           id="path4360"
           d="m 237.068,261.772 c -0.76,0 -1.375,-0.617 -1.377,-1.376 l 0,0 0.002,-17.393 c 0,-0.761 0.621,-1.376 1.375,-1.378 l 0,0 18.336,0.002 c 0.754,0 1.375,0.611 1.375,1.376 l 0,0 0,17.393 c -0.002,0.763 -0.615,1.376 -1.375,1.376 l 0,0 -18.336,0 0,0 z m 17.713,-1.999 0,-16.146 -17.09,0 0,16.145 17.09,0.001 0,0 z"
           inkscape:connector-curvature="0"
           style="fill:#f4f4f4" /><path
           id="path4362"
           d="m 241.338,257.502 c -1.385,0 -2.506,-1.121 -2.506,-2.506 l 0,0 0,-9.293 c 0,-1.387 1.121,-2.508 2.506,-2.508 l 0,0 9.797,0 c 1.383,0 2.506,1.121 2.506,2.508 l 0,0 0,9.293 c -0.002,1.385 -1.123,2.506 -2.506,2.508 l 0,0 -9.797,-0.002 0,0 z m -0.506,-11.799 0,9.293 c 0,0.278 0.226,0.506 0.506,0.506 l 0,0 9.797,0.003 c 0.278,-0.003 0.505,-0.23 0.507,-0.509 l 0,0 -0.002,0 0.002,-9.293 c -0.002,-0.282 -0.229,-0.506 -0.507,-0.506 l 0,0 -9.797,-0.003 c -0.28,0.003 -0.506,0.227 -0.506,0.509 l 0,0 z"
           inkscape:connector-curvature="0"
           style="fill:#f4f4f4" /></g><g
         id="g4364"><path
           id="path4366"
           d="m 257.018,261.771 c -0.761,0 -1.375,-0.61 -1.377,-1.373 l 0,0 0,-17.395 c 0.002,-0.763 0.623,-1.374 1.377,-1.376 l 0,0 18.336,0 c 0.756,0.002 1.375,0.613 1.375,1.376 l 0,0 0,17.395 c -0.002,0.761 -0.613,1.373 -1.375,1.373 l 0,0 -18.336,0 0,0 z m 17.711,-1.999 0.002,-16.146 -17.09,0 0,16.146 17.088,0 0,0 z"
           inkscape:connector-curvature="0"
           style="fill:#f4f4f4" /><path
           id="path4368"
           d="m 261.29,257.502 c -1.387,0 -2.509,-1.121 -2.509,-2.506 l 0,0 0,-9.293 c 0,-1.387 1.124,-2.508 2.509,-2.508 l 0,0 9.794,0 c 1.385,0.002 2.504,1.123 2.506,2.508 l 0,0 0,9.293 c 0,1.385 -1.121,2.506 -2.506,2.508 l 0,0 -9.794,-0.002 0,0 z m -0.509,-11.799 0,9.293 c 0,0.278 0.228,0.506 0.509,0.506 l 0,0 9.794,0.003 c 0.28,-0.003 0.504,-0.229 0.507,-0.509 l 0,0 0,-9.293 c 0,-0.282 -0.227,-0.506 -0.507,-0.506 l 0,0 -9.794,-0.003 c -0.283,0.003 -0.509,0.227 -0.509,0.509 l 0,0 z"
           inkscape:connector-curvature="0"
           style="fill:#f4f4f4" /></g><g
         id="g4370"><path
           id="path4372"
           d="m 276.969,261.771 c -0.763,0 -1.375,-0.61 -1.377,-1.373 l 0,0 0,-17.395 c 0,-0.763 0.621,-1.374 1.377,-1.376 l 0,0 18.334,0 c 0.754,0.002 1.375,0.613 1.377,1.376 l 0,0 0,17.395 c -0.002,0.763 -0.617,1.373 -1.377,1.373 l 0,0 -18.334,0 0,0 z m 17.711,-1.999 0,-16.146 -17.09,0 0,16.146 17.09,0 0,0 z"
           inkscape:connector-curvature="0"
           style="fill:#f4f4f4" /><path
           id="path4374"
           d="m 281.238,257.502 c -1.387,0 -2.506,-1.121 -2.506,-2.506 l 0,0 0,-9.293 c 0,-1.385 1.122,-2.508 2.506,-2.508 l 0,0 9.795,0 c 1.385,0 2.508,1.121 2.508,2.508 l 0,0 0,9.293 c -0.002,1.385 -1.124,2.506 -2.508,2.508 l 0,0 -9.795,-0.002 0,0 z m -0.507,-11.799 0,9.293 c 0,0.28 0.226,0.506 0.506,0.506 l 0,0 9.795,0.003 c 0.28,-0.003 0.507,-0.23 0.509,-0.509 l 0,0 -0.002,0 0.002,-9.293 c -0.002,-0.282 -0.227,-0.506 -0.509,-0.506 l 0,0 -9.795,-0.003 c -0.279,0.003 -0.506,0.227 -0.506,0.509 l 0,0 z"
           inkscape:connector-curvature="0"
           style="fill:#f4f4f4" /></g><g
         id="g4376"><path
           id="path4378"
           d="m 296.917,261.771 c -0.762,0 -1.375,-0.61 -1.377,-1.373 l 0,0 0,-17.395 c 0.002,-0.763 0.624,-1.374 1.377,-1.376 l 0,0 18.336,0 c 0.755,0.002 1.373,0.613 1.376,1.376 l 0,0 0,17.395 c -0.003,0.763 -0.615,1.373 -1.376,1.373 l 0,0 -18.336,0 0,0 z m 17.711,-1.999 0.002,-16.146 -17.089,0 0,16.146 17.087,0 0,0 z"
           inkscape:connector-curvature="0"
           style="fill:#f4f4f4" /><path
           id="path4380"
           d="m 301.186,257.503 c -1.385,-0.002 -2.504,-1.121 -2.506,-2.506 l 0,0 0.002,-9.295 c 0,-1.385 1.122,-2.506 2.504,-2.506 l 0,0 9.797,0 c 1.385,0 2.506,1.121 2.506,2.506 l 0,0 0,9.295 c 0,1.383 -1.121,2.506 -2.506,2.506 l 0,0 -9.797,0 0,0 z m -0.505,-11.801 -0.002,9.295 c 0.002,0.278 0.229,0.506 0.507,0.506 l 0,0 9.797,0 c 0.278,0 0.507,-0.228 0.507,-0.506 l 0,0 0,-9.295 c 0,-0.282 -0.227,-0.507 -0.507,-0.507 l 0,0 -9.797,0 c -0.279,0 -0.505,0.227 -0.505,0.507 l 0,0 z"
           inkscape:connector-curvature="0"
           style="fill:#f4f4f4" /></g><g
         id="g4382"><path
           id="path4384"
           d="m 316.866,261.772 c -0.763,0 -1.375,-0.613 -1.379,-1.376 l 0,0 0.002,-17.393 c 0,-0.765 0.621,-1.376 1.377,-1.378 l 0,0 18.335,0.002 c 0.754,0 1.375,0.611 1.377,1.376 l 0,0 0,17.393 -0.002,0 c -0.002,0.763 -0.615,1.376 -1.375,1.376 l 0,0 -18.335,0 0,0 z m 17.711,-1.999 0,-16.146 -17.088,0 -0.002,16.145 17.09,0.001 0,0 z"
           inkscape:connector-curvature="0"
           style="fill:#f4f4f4" /><path
           id="path4386"
           d="m 321.137,257.502 c -1.385,0 -2.508,-1.119 -2.51,-2.506 l 0,0 0.002,-9.293 c 0,-1.387 1.123,-2.508 2.508,-2.508 l 0,0 9.795,0 c 1.383,0 2.507,1.121 2.507,2.508 l 0,0 0,9.293 c -0.003,1.387 -1.124,2.506 -2.507,2.508 l 0,0 -9.795,-0.002 0,0 z m -0.509,-11.799 0,9.293 c 0,0.278 0.229,0.506 0.509,0.506 l 0,0 9.795,0.003 c 0.278,-0.003 0.507,-0.23 0.507,-0.509 l 0,0 0,-9.293 c 0,-0.28 -0.227,-0.506 -0.507,-0.506 l 0,0 -9.795,-0.003 c -0.283,0.003 -0.509,0.229 -0.509,0.509 l 0,0 z"
           inkscape:connector-curvature="0"
           style="fill:#f4f4f4" /></g><g
         id="g4388"><path
           id="path4390"
           d="m 336.815,261.772 c -0.759,0 -1.376,-0.613 -1.378,-1.376 l 0,0 0,-17.393 c 0.002,-0.765 0.625,-1.376 1.378,-1.378 l 0,0 18.336,0.002 c 0.754,0 1.373,0.615 1.375,1.376 l 0,0 0,17.393 c 0,0.759 -0.614,1.376 -1.375,1.376 l 0,0 -18.336,0 0,0 z m 17.711,-1.999 0,-16.146 -17.088,0 -0.002,16.145 17.09,0.001 0,0 z"
           inkscape:connector-curvature="0"
           style="fill:#f4f4f4" /><path
           id="path4392"
           d="m 341.086,257.502 c -1.385,0 -2.507,-1.121 -2.509,-2.506 l 0,0 0.002,-9.293 c 0.002,-1.385 1.122,-2.506 2.507,-2.508 l 0,0 9.795,0 c 1.385,0 2.506,1.121 2.508,2.508 l 0,0 0,9.293 -0.002,0 c 0,1.385 -1.121,2.506 -2.506,2.508 l 0,0 -9.795,-0.002 0,0 z m -0.507,-11.799 -0.002,9.293 c 0.002,0.28 0.227,0.506 0.509,0.506 l 0,0 9.795,0.003 c 0.277,-0.003 0.506,-0.23 0.509,-0.509 l 0,0 -0.003,0 0.003,-9.293 c -0.003,-0.282 -0.229,-0.506 -0.509,-0.506 l 0,0 -9.795,-0.003 c -0.282,0.003 -0.507,0.227 -0.507,0.509 l 0,0 z"
           inkscape:connector-curvature="0"
           style="fill:#f4f4f4" /></g><g
         id="g4394"><path
           id="path4396"
           d="m 356.764,261.772 c -0.763,0 -1.376,-0.617 -1.376,-1.376 l 0,0 0,-17.393 c 0,-0.761 0.619,-1.376 1.376,-1.378 l 0,0 18.338,0.002 c 0.757,0 1.371,0.617 1.374,1.376 l 0,0 0,17.393 c -0.003,0.759 -0.611,1.373 -1.374,1.376 l 0,0 -18.338,0 0,0 z m 17.711,-1.999 0.002,-16.146 -17.088,0 -0.002,16.145 17.088,0.001 0,0 z"
           inkscape:connector-curvature="0"
           style="fill:#f4f4f4" /><path
           id="path4398"
           d="m 361.034,257.502 c -1.385,0 -2.506,-1.119 -2.508,-2.506 l 0,0 0.002,-9.293 c 0,-1.387 1.123,-2.508 2.506,-2.508 l 0,0 9.797,0 c 1.383,0 2.507,1.121 2.507,2.508 l 0,0 0,9.293 c 0,1.385 -1.122,2.506 -2.507,2.508 l 0,0 -9.797,-0.002 0,0 z m -0.507,-11.799 0,9.293 c 0,0.278 0.229,0.506 0.507,0.506 l 0,0 9.797,0.003 c 0.278,-0.003 0.505,-0.23 0.507,-0.509 l 0,0 -0.002,0 0.002,-9.293 c -0.002,-0.282 -0.229,-0.506 -0.507,-0.506 l 0,0 -9.797,-0.003 c -0.278,0.003 -0.507,0.229 -0.507,0.509 l 0,0 z"
           inkscape:connector-curvature="0"
           style="fill:#f4f4f4" /></g><g
         id="g4400"><path
           id="path4402"
           d="m 376.619,261.772 c -0.764,0 -1.375,-0.616 -1.377,-1.375 l 0,0 0.002,-17.396 c 0,-0.759 0.62,-1.372 1.375,-1.375 l 0,0 18.337,0 c 0.753,0.003 1.375,0.61 1.377,1.375 l 0,0 0,17.396 -0.002,0 c -0.004,0.765 -0.615,1.372 -1.375,1.375 l 0,0 -18.337,0 0,0 z m 17.713,-1.999 0,-16.147 -17.089,0 0,16.147 17.089,0 0,0 z"
           inkscape:connector-curvature="0"
           style="fill:#f4f4f4" /><path
           id="path4404"
           d="m 380.891,257.502 c -1.387,0 -2.508,-1.121 -2.508,-2.506 l 0,0 0,-9.293 c 0.002,-1.385 1.123,-2.505 2.508,-2.508 l 0,0 9.797,0 c 1.383,0 2.503,1.121 2.505,2.508 l 0,0 0,9.293 -0.002,0 c 0,1.385 -1.12,2.506 -2.503,2.508 l 0,0 -9.797,-0.002 0,0 z m -0.507,-11.799 -0.002,9.293 c 0.002,0.279 0.227,0.506 0.509,0.506 l 0,0 9.797,0.002 c 0.276,-0.002 0.503,-0.229 0.505,-0.508 l 0,0 -0.002,0 0.002,-9.293 c -0.002,-0.282 -0.229,-0.507 -0.505,-0.507 l 0,0 -9.797,-0.002 c -0.283,0.002 -0.507,0.227 -0.507,0.509 l 0,0 z"
           inkscape:connector-curvature="0"
           style="fill:#f4f4f4" /></g><g
         id="g4406"><path
           id="path4408"
           d="m 396.568,261.771 c -0.763,0 -1.376,-0.615 -1.376,-1.374 l 0,0 0,-17.396 c 0.002,-0.759 0.622,-1.374 1.376,-1.376 l 0,0 18.336,0.002 c 0.75,0 1.376,0.611 1.378,1.374 l 0,0 0,17.396 -0.002,0 c 0,0.763 -0.617,1.374 -1.376,1.376 l 0,0 -18.336,-0.002 0,0 z m 17.712,-1.998 0.002,-16.146 -17.09,-0.002 0,16.146 17.088,0.002 0,0 z"
           inkscape:connector-curvature="0"
           style="fill:#f4f4f4" /><path
           id="path4410"
           d="m 400.84,257.502 c -1.387,0 -2.508,-1.121 -2.508,-2.505 l 0,0 0,-9.295 c 0,-1.386 1.124,-2.508 2.508,-2.508 l 0,0 9.795,0 c 1.384,0 2.505,1.124 2.507,2.508 l 0,0 0,9.295 -0.002,0 c 0,1.384 -1.119,2.505 -2.505,2.507 l 0,0 -9.795,-0.002 0,0 z m -0.507,-11.8 -0.002,9.295 c 0.002,0.277 0.229,0.506 0.509,0.506 l 0,0 9.795,0 c 0.279,0 0.506,-0.227 0.506,-0.506 l 0,0 0,-9.295 c 0,-0.281 -0.227,-0.506 -0.506,-0.506 l 0,0 -9.795,0 c -0.281,0 -0.507,0.225 -0.507,0.506 l 0,0 z"
           inkscape:connector-curvature="0"
           style="fill:#f4f4f4" /></g><g
         id="g4412"><path
           id="path4414"
           d="m 416.519,261.772 c -0.762,-0.002 -1.376,-0.612 -1.378,-1.375 l 0,0 0,-17.395 c 0.002,-0.763 0.623,-1.373 1.378,-1.376 l 0,0 18.335,0 c 0.755,0.003 1.375,0.613 1.377,1.376 l 0,0 0,17.395 -0.002,0 c -0.002,0.761 -0.612,1.373 -1.375,1.375 l 0,0 -18.335,0 0,0 z m 17.71,-2 0.002,-16.146 -17.09,0 0,16.146 17.088,0 0,0 z"
           inkscape:connector-curvature="0"
           style="fill:#f4f4f4" /><path
           id="path4416"
           d="m 420.788,257.502 c -1.386,0 -2.508,-1.12 -2.508,-2.505 l 0,0 0,-9.294 c 0,-1.386 1.124,-2.508 2.508,-2.508 l 0,0 9.795,0 c 1.385,0 2.507,1.122 2.51,2.508 l 0,0 0,9.294 -0.003,0 c 0,1.385 -1.122,2.505 -2.507,2.507 l 0,0 -9.795,-0.002 0,0 z m -0.508,-11.799 0,9.294 c 0,0.277 0.228,0.505 0.508,0.505 l 0,0 9.795,0.003 c 0.28,-0.003 0.508,-0.23 0.508,-0.508 l 0,0 0,-9.294 c 0,-0.282 -0.226,-0.508 -0.508,-0.508 l 0,0 -9.795,0 c -0.282,0 -0.508,0.226 -0.508,0.508 l 0,0 z"
           inkscape:connector-curvature="0"
           style="fill:#f4f4f4" /></g><g
         id="g4418"><path
           id="path4420"
           d="m 436.467,261.772 c -0.761,-0.002 -1.374,-0.613 -1.378,-1.376 l 0,0 0.002,-17.393 c 0,-0.765 0.622,-1.375 1.376,-1.377 l 0,0 18.336,0 c 0.754,0.002 1.376,0.612 1.378,1.377 l 0,0 0,17.393 -0.002,0 c -0.002,0.763 -0.613,1.374 -1.376,1.376 l 0,0 -18.336,0 0,0 z m 17.713,-1.998 0,-16.148 -17.09,0 0,16.148 17.09,0 0,0 z"
           inkscape:connector-curvature="0"
           style="fill:#f4f4f4" /><path
           id="path4422"
           d="m 440.738,257.503 c -1.387,0 -2.507,-1.122 -2.509,-2.507 l 0,0 0.002,-9.293 c 0.002,-1.384 1.12,-2.505 2.507,-2.509 l 0,0 9.794,0.002 c 1.384,0 2.507,1.12 2.509,2.507 l 0,0 0,9.293 -0.002,0 c 0,1.387 -1.123,2.507 -2.507,2.507 l 0,0 -9.794,0 0,0 z m -0.507,-11.8 -0.002,9.293 c 0.002,0.278 0.227,0.507 0.509,0.507 l 0,0 9.794,0 c 0.28,0 0.507,-0.229 0.509,-0.507 l 0,0 -0.002,0 0.002,-9.293 c -0.002,-0.28 -0.229,-0.507 -0.509,-0.507 l 0,0 -9.794,-0.002 c -0.282,0.002 -0.507,0.227 -0.507,0.509 l 0,0 z"
           inkscape:connector-curvature="0"
           style="fill:#f4f4f4" /></g><g
         id="g4424"><path
           id="path4426"
           d="m 456.417,261.772 c -0.763,-0.002 -1.376,-0.613 -1.378,-1.375 l 0,0 0,-17.395 c 0.002,-0.763 0.623,-1.376 1.378,-1.376 l 0,0 18.335,0 c 0.756,0 1.375,0.616 1.377,1.376 l 0,0 0,17.395 -0.002,0 c 0,0.758 -0.613,1.373 -1.375,1.375 l 0,0 -18.335,0 0,0 z m 17.711,-1.999 0,-16.146 -17.088,0 -0.002,16.146 17.09,0 0,0 z"
           inkscape:connector-curvature="0"
           style="fill:#f4f4f4" /><path
           id="path4428"
           d="m 460.688,257.502 c -1.386,0 -2.507,-1.121 -2.509,-2.504 l 0,0 0.002,-9.295 c 0.002,-1.386 1.121,-2.504 2.507,-2.509 l 0,0 9.796,0.002 c 1.384,0 2.505,1.121 2.505,2.507 l 0,0 0,9.295 c 0,1.383 -1.121,2.504 -2.505,2.506 l 0,0 -9.796,-0.002 0,0 z m -0.508,-11.799 0,9.295 c 0,0.278 0.227,0.504 0.508,0.504 l 0,0 9.796,0.002 c 0.277,-0.002 0.504,-0.228 0.506,-0.506 l 0,0 -0.002,0 0.002,-9.295 c -0.002,-0.283 -0.227,-0.508 -0.506,-0.508 l 0,0 -9.796,0 c -0.284,0 -0.508,0.225 -0.508,0.508 l 0,0 z"
           inkscape:connector-curvature="0"
           style="fill:#f4f4f4" /></g><g
         id="g4430"><path
           id="path4432"
           d="m 142.203,281.816 c -0.76,-0.002 -1.376,-0.612 -1.379,-1.377 l 0,0 0,-17.394 c 0.002,-0.765 0.619,-1.375 1.379,-1.377 l 0,0 18.335,0 c 0.76,0.002 1.375,0.617 1.376,1.377 l 0,0 0,17.394 c -0.002,0.763 -0.616,1.375 -1.376,1.377 l 0,0 -18.335,0 0,0 z m 17.71,-2 0,-16.147 -17.089,0 0,16.147 17.089,0 0,0 z"
           inkscape:connector-curvature="0"
           style="fill:#f4f4f4" /><path
           id="path4434"
           d="m 146.471,277.545 c -1.384,-0.002 -2.504,-1.121 -2.506,-2.506 l 0,0 0,-9.292 c 0,-1.386 1.12,-2.51 2.506,-2.51 l 0,0 9.795,0 c 1.386,0 2.506,1.124 2.508,2.51 l 0,0 0,9.292 c 0,1.385 -1.124,2.506 -2.508,2.509 l 0,0 -9.795,-0.003 0,0 z m -0.506,-11.798 0,9.292 c 0,0.281 0.225,0.506 0.506,0.506 l 0,0 9.795,0.002 c 0.281,-0.002 0.508,-0.227 0.508,-0.508 l 0,0 0,-9.292 c 0,-0.283 -0.229,-0.51 -0.508,-0.51 l 0,0 -9.795,0 c -0.28,0 -0.506,0.227 -0.506,0.51 l 0,0 z"
           inkscape:connector-curvature="0"
           style="fill:#f4f4f4" /></g><g
         id="g4436"><path
           id="path4438"
           d="m 162.15,281.815 c -0.76,0 -1.375,-0.617 -1.376,-1.375 l 0,0 0,-17.394 c 0.002,-0.76 0.616,-1.377 1.376,-1.377 l 0,0 18.337,0 c 0.762,0.003 1.374,0.614 1.374,1.377 l 0,0 0,17.394 c 0,0.76 -0.612,1.372 -1.374,1.375 l 0,0 -18.337,0 0,0 z m 17.713,-1.998 0,-16.149 -17.089,0 0,16.149 17.089,0 0,0 z"
           inkscape:connector-curvature="0"
           style="fill:#f4f4f4" /><path
           id="path4440"
           d="m 166.421,277.546 c -1.384,0 -2.508,-1.121 -2.508,-2.506 l 0,0 0,-9.294 c 0.002,-1.386 1.122,-2.508 2.508,-2.508 l 0,0 9.797,0 c 1.384,0 2.504,1.122 2.504,2.508 l 0,0 0,9.294 c 0,1.385 -1.122,2.506 -2.504,2.506 l 0,0 -9.797,0 0,0 z m -0.508,-11.8 0,9.294 c 0,0.279 0.227,0.506 0.508,0.506 l 0,0 9.797,0 c 0.277,0 0.504,-0.227 0.506,-0.506 l 0,0 0,-9.294 c -0.002,-0.28 -0.231,-0.508 -0.506,-0.51 l 0,0 -9.797,0 c -0.279,0.002 -0.508,0.23 -0.508,0.51 l 0,0 z"
           inkscape:connector-curvature="0"
           style="fill:#f4f4f4" /></g><g
         id="g4442"><path
           id="path4444"
           d="m 182.1,281.815 c -0.765,-0.003 -1.375,-0.615 -1.377,-1.375 l 0,0 0,-17.394 c 0.002,-0.763 0.612,-1.374 1.377,-1.377 l 0,0 18.335,0 c 0.762,0 1.376,0.617 1.378,1.377 l 0,0 0,17.394 -0.002,0 c 0,0.758 -0.614,1.375 -1.376,1.375 l 0,0 -18.335,0 0,0 z m 17.712,-1.998 0,-16.149 -17.087,0 -0.002,16.149 17.089,0 0,0 z"
           inkscape:connector-curvature="0"
           style="fill:#f4f4f4" /><path
           id="path4446"
           d="m 186.371,277.545 c -1.384,0 -2.508,-1.121 -2.508,-2.506 l 0,0 0,-9.292 c 0,-1.386 1.122,-2.508 2.508,-2.51 l 0,0 9.796,0 c 1.386,0 2.506,1.124 2.506,2.51 l 0,0 0,9.292 c -0.002,1.385 -1.122,2.504 -2.506,2.509 l 0,0 -9.796,-0.003 0,0 z m -0.508,-11.798 0,9.292 c 0,0.281 0.227,0.506 0.508,0.506 l 0,0 9.796,0.002 c 0.281,-0.002 0.506,-0.227 0.506,-0.508 l 0,0 0,-9.292 c 0,-0.283 -0.227,-0.51 -0.506,-0.51 l 0,0 -9.796,0 c -0.279,0 -0.508,0.227 -0.508,0.51 l 0,0 z"
           inkscape:connector-curvature="0"
           style="fill:#f4f4f4" /></g><g
         id="g4448"><path
           id="path4450"
           d="m 202.05,281.815 c -0.762,0 -1.376,-0.617 -1.378,-1.375 l 0,0 0,-17.394 c 0.002,-0.76 0.616,-1.377 1.378,-1.377 l 0,0 18.335,0 c 0.762,0.003 1.375,0.61 1.377,1.377 l 0,0 0,17.394 c -0.002,0.765 -0.615,1.372 -1.377,1.375 l 0,0 -18.335,0 0,0 z m 17.713,-1.998 0,-16.149 -17.089,0 -0.002,16.149 17.091,0 0,0 z"
           inkscape:connector-curvature="0"
           style="fill:#f4f4f4" /><path
           id="path4452"
           d="m 206.32,277.545 c -1.384,0 -2.508,-1.121 -2.508,-2.506 l 0,0 0,-9.292 c 0.002,-1.386 1.122,-2.508 2.508,-2.51 l 0,0 9.795,0 c 1.386,0 2.506,1.124 2.506,2.51 l 0,0 0,9.292 c -0.002,1.385 -1.122,2.504 -2.506,2.509 l 0,0 -9.795,-0.003 0,0 z m -0.508,-11.798 0,9.292 c 0,0.281 0.227,0.506 0.508,0.506 l 0,0 9.795,0.002 c 0.281,-0.002 0.506,-0.227 0.506,-0.508 l 0,0 0,-9.292 c 0,-0.283 -0.227,-0.51 -0.506,-0.51 l 0,0 -9.795,0 c -0.279,0 -0.508,0.227 -0.508,0.51 l 0,0 z"
           inkscape:connector-curvature="0"
           style="fill:#f4f4f4" /></g><g
         id="g4454"><path
           id="path4456"
           d="m 222,281.815 c -0.762,0 -1.376,-0.615 -1.379,-1.375 l 0,0 0.002,-17.394 c 0,-0.763 0.614,-1.377 1.376,-1.377 l 0,0 18.335,0 c 0.762,0.003 1.375,0.614 1.376,1.377 l 0,0 0,17.394 c -0.002,0.76 -0.614,1.372 -1.376,1.375 l 0,0 -18.334,0 0,0 z m 17.709,-1.998 0.002,-16.149 -17.089,0 0,16.149 17.087,0 0,0 z"
           inkscape:connector-curvature="0"
           style="fill:#f4f4f4" /><path
           id="path4458"
           d="m 226.269,277.545 c -1.384,0 -2.508,-1.121 -2.508,-2.506 l 0,0 0,-9.292 c 0.002,-1.386 1.122,-2.508 2.508,-2.51 l 0,0 9.795,0 c 1.386,0.002 2.506,1.124 2.506,2.51 l 0,0 0,9.292 c 0,1.385 -1.122,2.506 -2.506,2.509 l 0,0 -9.795,-0.003 0,0 z m -0.508,-11.798 0,9.292 c 0,0.281 0.227,0.506 0.508,0.506 l 0,0 9.795,0.002 c 0.279,-0.002 0.506,-0.227 0.506,-0.508 l 0,0 0,-9.292 c 0,-0.283 -0.229,-0.51 -0.506,-0.51 l 0,0 -9.795,0 c -0.279,0 -0.508,0.227 -0.508,0.51 l 0,0 z"
           inkscape:connector-curvature="0"
           style="fill:#f4f4f4" /></g><g
         id="g4460"><path
           id="path4462"
           d="m 241.948,281.815 c -0.762,0 -1.376,-0.615 -1.378,-1.375 l 0,0 0.002,-17.394 c 0,-0.763 0.614,-1.377 1.376,-1.377 l 0,0 18.335,0 c 0.765,0.003 1.375,0.614 1.377,1.377 l 0,0 0,17.394 c -0.002,0.76 -0.612,1.372 -1.377,1.375 l 0,0 -18.335,0 0,0 z m 17.711,-1.998 0.002,-16.149 -17.089,0 0,16.149 17.087,0 0,0 z"
           inkscape:connector-curvature="0"
           style="fill:#f4f4f4" /><path
           id="path4464"
           d="m 246.217,277.546 c -1.384,0 -2.506,-1.124 -2.506,-2.506 l 0,0 0,-9.294 c 0,-1.384 1.12,-2.508 2.506,-2.508 l 0,0 9.798,0 c 1.384,0 2.504,1.122 2.506,2.508 l 0,0 0,9.294 c -0.002,1.385 -1.124,2.506 -2.506,2.506 l 0,0 -9.798,0 0,0 z m -0.506,-11.8 0,9.294 c 0,0.281 0.227,0.506 0.505,0.506 l 0,0 9.798,0 c 0.279,0 0.504,-0.227 0.506,-0.506 l 0,0 0,-9.294 c -0.002,-0.28 -0.229,-0.508 -0.506,-0.51 l 0,0 -9.798,0 c -0.276,0.002 -0.505,0.23 -0.505,0.51 l 0,0 z"
           inkscape:connector-curvature="0"
           style="fill:#f4f4f4" /></g><g
         id="g4466"><path
           id="path4468"
           d="m 261.897,281.815 c -0.765,0 -1.375,-0.621 -1.376,-1.375 l 0,0 0,-17.394 c 0.002,-0.756 0.612,-1.377 1.376,-1.377 l 0,0 18.335,0 c 0.762,0 1.376,0.614 1.378,1.377 l 0,0 0,17.394 -0.002,0 c 0,0.76 -0.614,1.375 -1.376,1.375 l 0,0 -18.335,0 0,0 z m 17.712,-1.998 0,-16.149 -17.087,0 -0.002,16.149 17.089,0 0,0 z"
           inkscape:connector-curvature="0"
           style="fill:#f4f4f4" /><path
           id="path4470"
           d="m 266.167,277.545 c -1.384,0 -2.506,-1.121 -2.506,-2.506 l 0,0 0,-9.292 c 0,-1.386 1.12,-2.508 2.506,-2.51 l 0,0 9.796,0 c 1.386,0 2.506,1.124 2.506,2.51 l 0,0 0,9.292 c -0.002,1.385 -1.122,2.504 -2.506,2.509 l 0,0 -9.796,-0.003 0,0 z m -0.506,-11.798 0,9.292 c 0,0.281 0.227,0.506 0.506,0.506 l 0,0 9.796,0.002 c 0.281,-0.002 0.505,-0.227 0.505,-0.508 l 0,0 0,-9.292 c 0,-0.283 -0.227,-0.51 -0.505,-0.51 l 0,0 -9.796,0 c -0.277,0 -0.506,0.227 -0.506,0.51 l 0,0 z"
           inkscape:connector-curvature="0"
           style="fill:#f4f4f4" /></g><g
         id="g4472"><path
           id="path4474"
           d="m 281.847,281.816 c -0.762,-0.002 -1.375,-0.612 -1.378,-1.377 l 0,0 0,-17.394 c 0.004,-0.765 0.616,-1.375 1.378,-1.377 l 0,0 18.334,0 c 0.759,0.002 1.375,0.612 1.377,1.377 l 0,0 0,17.394 c -0.002,0.765 -0.618,1.375 -1.377,1.377 l 0,0 -18.334,0 0,0 z m 17.713,-2 0,-16.147 -17.09,0 0,16.147 17.09,0 0,0 z"
           inkscape:connector-curvature="0"
           style="fill:#f4f4f4" /><path
           id="path4476"
           d="m 286.116,277.545 c -1.382,0 -2.506,-1.119 -2.506,-2.506 l 0,0 0,-9.292 c 0,-1.388 1.122,-2.508 2.506,-2.51 l 0,0 9.798,0 c 1.384,0.002 2.504,1.124 2.506,2.51 l 0,0 0,9.292 c 0,1.385 -1.124,2.506 -2.506,2.509 l 0,0 -9.798,-0.003 0,0 z m -0.508,-11.798 0,9.292 c 0.002,0.279 0.227,0.506 0.508,0.506 l 0,0 9.798,0.002 c 0.279,-0.002 0.505,-0.227 0.505,-0.508 l 0,0 0,-9.292 c 0,-0.283 -0.229,-0.51 -0.505,-0.51 l 0,0 -9.798,0 c -0.279,0 -0.506,0.23 -0.508,0.51 l 0,0 z"
           inkscape:connector-curvature="0"
           style="fill:#f4f4f4" /></g><g
         id="g4478"><path
           id="path4480"
           d="m 301.796,281.816 c -0.76,-0.002 -1.376,-0.619 -1.379,-1.377 l 0,0 0.003,-17.394 c 0,-0.758 0.616,-1.375 1.376,-1.377 l 0,0 18.335,0 c 0.763,0 1.375,0.619 1.377,1.377 l 0,0 0,17.394 -0.002,0 c 0,0.758 -0.612,1.377 -1.375,1.377 l 0,0 -18.335,0 0,0 z m 17.71,-2 0.002,-16.147 -17.089,0 -0.002,16.147 17.089,0 0,0 z"
           inkscape:connector-curvature="0"
           style="fill:#f4f4f4" /><path
           id="path4482"
           d="m 306.065,277.545 c -1.385,0 -2.507,-1.121 -2.507,-2.506 l 0,0 0,-9.292 c 0,-1.386 1.12,-2.51 2.507,-2.51 l 0,0 9.797,0 c 1.385,0.002 2.505,1.124 2.505,2.51 l 0,0 0,9.292 c 0,1.385 -1.122,2.506 -2.505,2.509 l 0,0 -9.797,-0.003 0,0 z m -0.507,-11.798 0,9.292 c 0,0.281 0.227,0.506 0.508,0.506 l 0,0 9.797,0.002 c 0.279,-0.002 0.506,-0.227 0.506,-0.508 l 0,0 0,-9.292 c 0,-0.283 -0.229,-0.51 -0.506,-0.51 l 0,0 -9.797,0 c -0.28,0 -0.508,0.227 -0.508,0.51 l 0,0 z"
           inkscape:connector-curvature="0"
           style="fill:#f4f4f4" /></g><g
         id="g4484"><path
           id="path4486"
           d="m 321.745,281.816 c -0.761,-0.002 -1.377,-0.619 -1.379,-1.377 l 0,0 0.002,-17.394 c 0,-0.758 0.616,-1.375 1.377,-1.377 l 0,0 18.335,0 c 0.765,0.002 1.374,0.617 1.376,1.377 l 0,0 0,17.394 c -0.002,0.763 -0.611,1.375 -1.376,1.377 l 0,0 -18.335,0 0,0 z m 17.71,-2 0.002,-16.147 -17.089,0 0,16.147 17.087,0 0,0 z"
           inkscape:connector-curvature="0"
           style="fill:#f4f4f4" /><path
           id="path4488"
           d="m 326.015,277.545 c -1.385,-0.002 -2.505,-1.121 -2.507,-2.506 l 0,0 0,-9.292 c 0,-1.386 1.12,-2.51 2.507,-2.51 l 0,0 9.795,0 c 1.387,0 2.509,1.124 2.509,2.51 l 0,0 0,9.292 c 0,1.385 -1.124,2.506 -2.509,2.509 l 0,0 -9.795,-0.003 0,0 z m -0.509,-11.798 0,9.292 c 0.003,0.281 0.228,0.506 0.509,0.506 l 0,0 9.795,0.002 c 0.281,-0.002 0.508,-0.227 0.508,-0.508 l 0,0 0,-9.292 c 0,-0.283 -0.229,-0.51 -0.508,-0.51 l 0,0 -9.795,0 c -0.28,0 -0.506,0.227 -0.509,0.51 l 0,0 z"
           inkscape:connector-curvature="0"
           style="fill:#f4f4f4" /></g><g
         id="g4490"><path
           id="path4492"
           d="m 341.693,281.815 c -0.761,0 -1.375,-0.615 -1.377,-1.375 l 0,0 0,-17.394 c 0.002,-0.763 0.616,-1.377 1.377,-1.377 l 0,0 18.337,0 c 0.76,0 1.374,0.614 1.376,1.377 l 0,0 0,17.394 c -0.002,0.76 -0.616,1.375 -1.376,1.375 l 0,0 -18.337,0 0,0 z m 17.712,-1.998 0.002,-16.149 -17.09,0 -0.002,16.149 17.09,0 0,0 z"
           inkscape:connector-curvature="0"
           style="fill:#f4f4f4" /><path
           id="path4494"
           d="m 345.963,277.545 c -1.384,0 -2.504,-1.119 -2.506,-2.506 l 0,0 0,-9.292 c 0.002,-1.386 1.12,-2.508 2.506,-2.51 l 0,0 9.796,0 c 1.387,0 2.508,1.122 2.508,2.51 l 0,0 0,9.292 c 0,1.387 -1.124,2.506 -2.508,2.509 l 0,0 -9.796,-0.003 0,0 z m -0.506,-11.798 0,9.292 c 0,0.279 0.229,0.506 0.506,0.506 l 0,0 9.796,0.002 c 0.281,-0.002 0.508,-0.229 0.51,-0.508 l 0,0 0,-9.292 c -0.002,-0.28 -0.23,-0.51 -0.51,-0.51 l 0,0 -9.796,0 c -0.275,0 -0.506,0.227 -0.506,0.51 l 0,0 z"
           inkscape:connector-curvature="0"
           style="fill:#f4f4f4" /></g><g
         id="g4496"><path
           id="path4498"
           d="m 361.548,281.815 c -0.764,0 -1.374,-0.619 -1.376,-1.375 l 0,0 0.002,-17.394 c 0,-0.758 0.61,-1.377 1.374,-1.377 l 0,0 18.337,0 c 0.759,0 1.375,0.61 1.377,1.377 l 0,0 0,17.394 c -0.002,0.765 -0.618,1.375 -1.377,1.375 l 0,0 -18.337,0 0,0 z m 17.713,-1.998 0.002,-16.149 -17.09,0 0,16.149 17.088,0 0,0 z"
           inkscape:connector-curvature="0"
           style="fill:#f4f4f4" /><path
           id="path4500"
           d="m 365.82,277.545 c -1.384,0 -2.508,-1.119 -2.508,-2.506 l 0,0 0,-9.292 c 0,-1.388 1.122,-2.508 2.508,-2.51 l 0,0 9.796,0 c 1.385,0 2.504,1.124 2.504,2.51 l 0,0 0,9.292 c 0,1.385 -1.119,2.506 -2.504,2.509 l 0,0 -9.796,-0.003 0,0 z m -0.509,-11.798 0,9.292 c 0.002,0.279 0.228,0.506 0.51,0.506 l 0,0 9.796,0.002 c 0.279,-0.002 0.504,-0.227 0.506,-0.508 l 0,0 0,-9.292 c -0.002,-0.283 -0.229,-0.51 -0.506,-0.51 l 0,0 -9.796,0 c -0.281,0 -0.508,0.23 -0.51,0.51 l 0,0 z"
           inkscape:connector-curvature="0"
           style="fill:#f4f4f4" /></g><g
         id="g4502"><path
           id="path4504"
           d="m 381.498,281.816 c -0.762,0 -1.374,-0.619 -1.377,-1.377 l 0,0 0,-17.394 c 0.003,-0.758 0.615,-1.377 1.377,-1.377 l 0,0 18.335,0 c 0.76,0 1.377,0.614 1.379,1.377 l 0,0 0,17.394 -0.002,0 c 0,0.763 -0.617,1.377 -1.377,1.377 l 0,0 -18.335,0 0,0 z m 17.712,-2 0,-16.147 -17.087,0 -0.002,16.147 17.089,0 0,0 z"
           inkscape:connector-curvature="0"
           style="fill:#f4f4f4" /><path
           id="path4506"
           d="m 385.77,277.545 c -1.386,-0.002 -2.506,-1.121 -2.508,-2.506 l 0,0 0,-9.292 c 0,-1.386 1.12,-2.51 2.508,-2.51 l 0,0 9.796,0 c 1.387,0.002 2.506,1.124 2.506,2.51 l 0,0 0,9.292 c 0,1.385 -1.122,2.506 -2.506,2.509 l 0,0 -9.796,-0.003 0,0 z m -0.508,-11.798 0,9.292 c 0,0.281 0.225,0.506 0.508,0.506 l 0,0 9.796,0.002 c 0.279,-0.002 0.506,-0.227 0.506,-0.508 l 0,0 0,-9.292 c 0,-0.283 -0.229,-0.51 -0.506,-0.51 l 0,0 -9.796,0 c -0.281,0 -0.508,0.227 -0.508,0.51 l 0,0 z"
           inkscape:connector-curvature="0"
           style="fill:#f4f4f4" /></g><g
         id="g4508"><path
           id="path4510"
           d="m 401.448,281.816 c -0.758,0 -1.377,-0.611 -1.379,-1.377 l 0,0 0,-17.393 c 0.002,-0.768 0.621,-1.377 1.379,-1.377 l 0,0 18.338,0 c 0.763,0 1.372,0.618 1.374,1.377 l 0,0 0,17.393 -0.002,0 c 0,0.758 -0.609,1.375 -1.372,1.377 l 0,0 -18.338,0 0,0 z m 17.71,-1.998 0.002,-16.149 -17.091,0 0,16.149 17.089,0 0,0 z"
           inkscape:connector-curvature="0"
           style="fill:#f4f4f4" /><path
           id="path4512"
           d="m 405.718,277.546 c -1.385,-0.002 -2.505,-1.122 -2.507,-2.507 l 0,0 0,-9.292 c 0,-1.385 1.119,-2.509 2.507,-2.511 l 0,0 9.794,0.002 c 1.387,0 2.509,1.122 2.509,2.509 l 0,0 0,9.292 c 0,1.387 -1.124,2.507 -2.509,2.507 l 0,0 -9.794,0 0,0 z m -0.507,-11.799 0,9.292 c 0,0.281 0.225,0.507 0.507,0.507 l 0,0 9.794,0 c 0.281,0 0.509,-0.228 0.509,-0.507 l 0,0 0,-9.292 c 0,-0.281 -0.229,-0.509 -0.509,-0.509 l 0,0 -9.794,-0.002 c -0.28,0.002 -0.507,0.228 -0.507,0.511 l 0,0 z"
           inkscape:connector-curvature="0"
           style="fill:#f4f4f4" /></g><g
         id="g4514"><path
           id="path4516"
           d="m 421.396,281.817 c -0.762,-0.003 -1.375,-0.617 -1.378,-1.378 l 0,0 0.003,-17.394 c 0,-0.761 0.613,-1.375 1.375,-1.377 l 0,0 37.173,0 c 0.761,0.002 1.375,0.611 1.38,1.377 l 0,0 0,17.394 -0.003,0 c -0.002,0.766 -0.616,1.375 -1.377,1.378 l 0,0 -37.173,0 0,0 z m 36.551,-2 0,-16.147 -35.927,-0.002 -0.002,16.147 35.929,0.002 0,0 z"
           inkscape:connector-curvature="0"
           style="fill:#f4f4f4" /><path
           id="path4518"
           d="m 425.667,277.547 c -1.383,0 -2.506,-1.121 -2.506,-2.507 l 0,0 0,-9.293 c 0,-1.387 1.121,-2.508 2.506,-2.51 l 0,0 28.633,0 c 1.386,0 2.507,1.123 2.507,2.51 l 0,0 0,9.293 c 0,1.383 -1.124,2.507 -2.507,2.507 l 0,0 -28.633,0 0,0 z m -0.507,-11.8 0,9.293 c 0,0.279 0.228,0.505 0.507,0.505 l 0,0 28.633,0 c 0.281,0 0.508,-0.226 0.508,-0.505 l 0,0 0,-9.293 c 0,-0.282 -0.229,-0.509 -0.508,-0.511 l 0,0 -28.633,0 c -0.276,0.002 -0.507,0.231 -0.507,0.511 l 0,0 z"
           inkscape:connector-curvature="0"
           style="fill:#f4f4f4" /></g><g
         id="g4520"><path
           id="path4522"
           d="m 142.202,301.858 c -0.758,0 -1.377,-0.611 -1.377,-1.376 l 0,0 0,-17.394 c 0.002,-0.767 0.622,-1.376 1.377,-1.376 l 0,0 18.335,0 c 0.758,0.002 1.376,0.614 1.376,1.376 l 0,0 0,17.394 c 0,0.762 -0.618,1.376 -1.376,1.378 l 0,0 -18.335,-0.002 0,0 z m 17.711,-1.998 0,-16.147 -17.089,0 0,16.146 17.089,0.001 0,0 z"
           inkscape:connector-curvature="0"
           style="fill:#f4f4f4" /><path
           id="path4524"
           d="m 146.472,297.589 c -1.387,0 -2.508,-1.122 -2.508,-2.506 l 0,0 0,-9.293 c 0,-1.386 1.121,-2.508 2.508,-2.508 l 0,0 9.794,0 c 1.385,0 2.506,1.122 2.508,2.508 l 0,0 0,9.293 c 0,1.384 -1.123,2.506 -2.508,2.508 l 0,0 -9.794,-0.002 0,0 z m -0.509,-11.799 0,9.293 c 0.002,0.28 0.228,0.507 0.509,0.507 l 0,0 9.794,0 c 0.28,0 0.507,-0.227 0.507,-0.507 l 0,0 0,-9.293 c 0,-0.28 -0.227,-0.507 -0.507,-0.507 l 0,0 -9.794,-0.003 c -0.281,0.003 -0.507,0.23 -0.509,0.51 l 0,0 z"
           inkscape:connector-curvature="0"
           style="fill:#f4f4f4" /></g><g
         id="g4526"><path
           id="path4528"
           d="m 211.335,321.902 c -0.762,0 -1.375,-0.617 -1.377,-1.375 l 0,0 0,-17.394 c 0.002,-0.76 0.615,-1.377 1.377,-1.379 l 0,0 159.243,0.002 c 0.762,0 1.375,0.617 1.377,1.377 l 0,0 0,17.394 c -0.002,0.758 -0.615,1.375 -1.377,1.377 l 0,0 -159.243,-0.002 0,0 z m 158.62,-1.999 0,-16.146 -157.996,-0.002 0,16.148 157.996,0 0,0 z"
           inkscape:connector-curvature="0"
           style="fill:#f4f4f4" /><path
           id="path4530"
           d="m 215.605,317.633 c -1.385,0 -2.506,-1.121 -2.506,-2.508 l 0,0 0,-9.292 c 0,-1.385 1.121,-2.506 2.506,-2.508 l 0,0 150.703,0.002 c 1.384,0 2.505,1.121 2.505,2.506 l 0,0 0,9.292 c 0,1.387 -1.121,2.508 -2.505,2.508 l 0,0 -150.703,0 0,0 z m -0.506,-11.8 0,9.292 c 0,0.28 0.228,0.509 0.506,0.509 l 0,0 150.703,0 c 0.277,0 0.506,-0.229 0.508,-0.509 l 0,0 0,-9.292 c -0.002,-0.278 -0.23,-0.507 -0.508,-0.507 l 0,0 -150.703,0 c -0.278,0 -0.506,0.229 -0.506,0.507 l 0,0 z"
           inkscape:connector-curvature="0"
           style="fill:#f4f4f4" /></g><g
         id="g4532"><path
           id="path4534"
           d="m 162.152,301.859 c -0.76,-0.002 -1.377,-0.618 -1.377,-1.376 l 0,0 0,-17.393 c 0,-0.76 0.62,-1.376 1.377,-1.376 l 0,0 28.128,0 c 0.756,0 1.378,0.611 1.378,1.376 l 0,0 0,17.394 c 0,0.762 -0.62,1.374 -1.378,1.376 l 0,0 -28.128,0 0,-0.001 z m 27.506,-2 0,-16.147 -26.884,0 0,16.147 26.884,0 0,0 z"
           inkscape:connector-curvature="0"
           style="fill:#f4f4f4" /><path
           id="path4536"
           d="m 166.419,297.589 c -1.383,0 -2.506,-1.12 -2.506,-2.506 l 0,0 0,-9.293 c 0,-1.388 1.123,-2.508 2.506,-2.508 l 0,0 19.593,0 c 1.385,0 2.506,1.122 2.506,2.508 l 0,0 0,9.293 c 0,1.384 -1.121,2.506 -2.506,2.508 l 0,0 -19.593,-0.002 0,0 z m -0.506,-11.799 0,9.293 c 0,0.28 0.228,0.507 0.507,0.507 l 0,0 19.593,0 c 0.279,0 0.507,-0.227 0.507,-0.507 l 0,0 0,-9.293 c 0,-0.28 -0.228,-0.507 -0.507,-0.507 l 0,0 -19.593,-0.003 c -0.28,0.003 -0.507,0.23 -0.507,0.51 l 0,0 z"
           inkscape:connector-curvature="0"
           style="fill:#f4f4f4" /></g><g
         id="g4538"><path
           id="path4540"
           d="m 191.896,301.859 c -0.758,-0.002 -1.375,-0.618 -1.377,-1.376 l 0,0 0,-17.393 c 0.002,-0.76 0.62,-1.376 1.377,-1.376 l 0,0 18.335,0 c 0.76,0.002 1.374,0.609 1.376,1.376 l 0,0 0,17.394 c -0.002,0.762 -0.616,1.374 -1.376,1.376 l 0,0 -18.335,0 0,-0.001 z m 17.711,-2 0,-16.147 -17.089,0 0,16.147 17.089,0 0,0 z"
           inkscape:connector-curvature="0"
           style="fill:#f4f4f4" /><path
           id="path4542"
           d="m 196.165,297.589 c -1.383,0 -2.506,-1.12 -2.508,-2.506 l 0,0 0,-9.293 c 0.002,-1.388 1.125,-2.508 2.508,-2.508 l 0,0 9.796,0 c 1.385,0 2.506,1.122 2.506,2.508 l 0,0 0,9.293 c 0,1.384 -1.121,2.506 -2.506,2.508 l 0,0 -9.796,-0.002 0,0 z m -0.507,-11.799 0,9.293 c 0,0.28 0.228,0.507 0.507,0.507 l 0,0 9.796,0 c 0.28,0 0.507,-0.227 0.507,-0.507 l 0,0 0,-9.293 c 0,-0.28 -0.227,-0.507 -0.507,-0.507 l 0,0 -9.796,-0.003 c -0.279,0.003 -0.507,0.23 -0.507,0.51 l 0,0 z"
           inkscape:connector-curvature="0"
           style="fill:#f4f4f4" /></g><g
         id="g4544"><path
           id="path4546"
           d="m 211.846,301.858 c -0.76,0 -1.377,-0.614 -1.377,-1.376 l 0,0 0,-17.394 c 0,-0.762 0.62,-1.374 1.377,-1.376 l 0,0 18.333,0 c 0.758,0.002 1.375,0.614 1.378,1.376 l 0,0 0,17.394 c -0.002,0.762 -0.62,1.376 -1.378,1.378 l 0,0 -18.333,-0.002 0,0 z m 17.712,-1.998 0,-16.147 -17.089,0 0,16.146 17.089,0.001 0,0 z"
           inkscape:connector-curvature="0"
           style="fill:#f4f4f4" /><path
           id="path4548"
           d="m 216.115,297.589 c -1.386,0 -2.506,-1.122 -2.506,-2.506 l 0,0 0,-9.293 c 0,-1.386 1.121,-2.508 2.506,-2.508 l 0,0 9.796,0 c 1.386,0 2.506,1.122 2.506,2.508 l 0,0 0,9.293 c 0,1.384 -1.12,2.506 -2.506,2.508 l 0,0 -9.796,-0.002 0,0 z m -0.508,-11.799 0,9.293 c 0.002,0.28 0.228,0.507 0.507,0.507 l 0,0 9.796,0 c 0.28,0 0.505,-0.227 0.507,-0.507 l 0,0 0,-9.293 c -0.002,-0.28 -0.228,-0.507 -0.507,-0.507 l 0,0 -9.796,-0.003 c -0.279,0.003 -0.505,0.23 -0.507,0.51 l 0,0 z"
           inkscape:connector-curvature="0"
           style="fill:#f4f4f4" /></g><g
         id="g4550"><path
           id="path4552"
           d="m 231.794,301.859 c -0.76,-0.002 -1.376,-0.62 -1.378,-1.376 l 0,0 0.002,-17.394 c 0,-0.76 0.616,-1.376 1.376,-1.376 l 0,0 18.335,0 c 0.758,0 1.375,0.611 1.375,1.376 l 0,0 0,17.394 c 0,0.76 -0.618,1.374 -1.375,1.376 l 0,0 -18.335,0 0,0 z m 17.712,-2 0,-16.147 -17.087,0 -0.002,16.147 17.089,0 0,0 z"
           inkscape:connector-curvature="0"
           style="fill:#f4f4f4" /><path
           id="path4554"
           d="m 236.064,297.589 c -1.386,0 -2.506,-1.122 -2.506,-2.506 l 0,0 0,-9.293 c 0,-1.386 1.12,-2.508 2.506,-2.508 l 0,0 9.796,0 c 1.386,0 2.506,1.122 2.506,2.508 l 0,0 0,9.293 c 0,1.384 -1.121,2.506 -2.506,2.508 l 0,0 -9.796,-0.002 0,0 z m -0.507,-11.799 0,9.293 c 0.002,0.28 0.228,0.507 0.507,0.507 l 0,0 9.796,0 c 0.278,0 0.505,-0.227 0.505,-0.507 l 0,0 0,-9.293 c 0,-0.28 -0.228,-0.507 -0.505,-0.507 l 0,0 -9.796,-0.003 c -0.28,0.003 -0.505,0.23 -0.507,0.51 l 0,0 z"
           inkscape:connector-curvature="0"
           style="fill:#f4f4f4" /></g><g
         id="g4556"><path
           id="path4558"
           d="m 251.744,301.859 c -0.76,0 -1.376,-0.616 -1.378,-1.376 l 0,0 0.002,-17.394 c 0,-0.765 0.616,-1.376 1.376,-1.376 l 0,0 18.335,0 c 0.755,0 1.375,0.607 1.377,1.376 l 0,0 0,17.394 c -0.002,0.765 -0.622,1.374 -1.377,1.376 l 0,0 -18.335,0 0,0 z m 17.713,-2 0,-16.147 -17.089,0 -0.002,16.147 17.091,0 0,0 z"
           inkscape:connector-curvature="0"
           style="fill:#f4f4f4" /><path
           id="path4560"
           d="m 256.015,297.589 c -1.388,0 -2.508,-1.122 -2.508,-2.506 l 0,0 0,-9.293 c 0,-1.386 1.12,-2.508 2.508,-2.508 l 0,0 9.794,0 c 1.385,0 2.506,1.122 2.506,2.508 l 0,0 0,9.293 c 0,1.384 -1.121,2.506 -2.506,2.508 l 0,0 -9.794,-0.002 0,0 z m -0.509,-11.799 0,9.293 c 0,0.28 0.227,0.507 0.509,0.507 l 0,0 9.794,0 c 0.279,0 0.505,-0.227 0.507,-0.507 l 0,0 0,-9.293 c -0.002,-0.28 -0.228,-0.507 -0.507,-0.507 l 0,0 -9.794,-0.003 c -0.282,0.003 -0.509,0.23 -0.509,0.51 l 0,0 z"
           inkscape:connector-curvature="0"
           style="fill:#f4f4f4" /></g><g
         id="g4562"><path
           id="path4564"
           d="m 271.694,301.858 c -0.76,0 -1.376,-0.618 -1.378,-1.376 l 0,0 0,-17.394 c 0.002,-0.76 0.62,-1.374 1.378,-1.376 l 0,0 18.335,0 c 0.755,0.002 1.374,0.616 1.375,1.376 l 0,0 0,17.394 c -0.002,0.758 -0.618,1.376 -1.375,1.378 l 0,0 -18.335,-0.002 0,0 z m 17.711,-1.998 0,-16.147 -17.089,0 0,16.146 17.089,0.001 0,0 z"
           inkscape:connector-curvature="0"
           style="fill:#f4f4f4" /><path
           id="path4566"
           d="m 275.962,297.589 c -1.385,0 -2.506,-1.122 -2.506,-2.506 l 0,0 0,-9.293 c 0,-1.386 1.121,-2.508 2.506,-2.508 l 0,0 9.796,0 c 1.385,0 2.506,1.122 2.506,2.508 l 0,0 0,9.293 c 0,1.384 -1.121,2.506 -2.506,2.508 l 0,0 -9.796,-0.002 0,0 z m -0.506,-11.799 0,9.293 c 0,0.28 0.227,0.507 0.507,0.507 l 0,0 9.796,0 c 0.279,0 0.505,-0.227 0.507,-0.507 l 0,0 0,-9.293 c -0.002,-0.28 -0.228,-0.507 -0.507,-0.507 l 0,0 -9.796,-0.003 c -0.28,0.003 -0.507,0.23 -0.507,0.51 l 0,0 z"
           inkscape:connector-curvature="0"
           style="fill:#f4f4f4" /></g><g
         id="g4568"><path
           id="path4570"
           d="m 291.642,301.859 c -0.76,-0.002 -1.374,-0.62 -1.375,-1.376 l 0,0 0,-17.393 c 0.002,-0.76 0.618,-1.376 1.375,-1.376 l 0,0 18.338,0 c 0.757,0 1.373,0.616 1.375,1.376 l 0,0 0,17.394 -0.002,0 c 0,0.756 -0.616,1.374 -1.373,1.376 l 0,0 -18.338,0 0,-0.001 z m 17.711,-2 0.002,-16.147 -17.088,0 0,16.147 17.086,0 0,0 z"
           inkscape:connector-curvature="0"
           style="fill:#f4f4f4" /><path
           id="path4572"
           d="m 295.914,297.589 c -1.386,0 -2.508,-1.12 -2.508,-2.506 l 0,0 0,-9.293 c 0,-1.388 1.123,-2.508 2.508,-2.508 l 0,0 9.794,0 c 1.383,0 2.506,1.12 2.506,2.508 l 0,0 0,9.293 c 0,1.386 -1.123,2.506 -2.506,2.508 l 0,0 -9.794,-0.002 0,0 z m -0.509,-11.799 0,9.293 c 0,0.28 0.228,0.507 0.509,0.507 l 0,0 9.794,0 c 0.279,0 0.507,-0.227 0.507,-0.507 l 0,0 0,-9.293 c 0,-0.28 -0.228,-0.507 -0.507,-0.507 l 0,0 -9.794,-0.003 c -0.282,0.003 -0.509,0.23 -0.509,0.51 l 0,0 z"
           inkscape:connector-curvature="0"
           style="fill:#f4f4f4" /></g><g
         id="g4574"><path
           id="path4576"
           d="m 311.592,301.858 c -0.758,0 -1.378,-0.614 -1.38,-1.376 l 0,0 0.002,-17.394 c 0,-0.762 0.62,-1.374 1.378,-1.376 l 0,0 18.335,0 c 0.756,0 1.374,0.609 1.378,1.376 l 0,0 0,17.394 -0.002,0 c 0,0.765 -0.62,1.376 -1.376,1.378 l 0,0 -18.335,-0.002 0,0 z m 17.711,-1.998 0.002,-16.147 -17.091,0 -0.002,16.146 17.091,0.001 0,0 z"
           inkscape:connector-curvature="0"
           style="fill:#f4f4f4" /><path
           id="path4578"
           d="m 315.86,297.589 c -1.383,0 -2.506,-1.12 -2.506,-2.506 l 0,0 0,-9.293 c 0,-1.388 1.123,-2.508 2.506,-2.508 l 0,0 9.797,0 c 1.386,0 2.506,1.122 2.506,2.508 l 0,0 0,9.293 c 0,1.384 -1.12,2.506 -2.506,2.508 l 0,0 -9.797,-0.002 0,0 z m -0.506,-11.799 0,9.293 c 0,0.28 0.228,0.507 0.507,0.507 l 0,0 9.797,0 c 0.279,0 0.507,-0.227 0.507,-0.507 l 0,0 0,-9.293 c 0,-0.28 -0.228,-0.507 -0.507,-0.507 l 0,0 -9.797,-0.003 c -0.28,0.003 -0.507,0.23 -0.507,0.51 l 0,0 z"
           inkscape:connector-curvature="0"
           style="fill:#f4f4f4" /></g><g
         id="g4580"><path
           id="path4582"
           d="m 331.541,301.858 c -0.76,0 -1.376,-0.614 -1.378,-1.376 l 0,0 0,-17.394 c 0,-0.762 0.62,-1.374 1.378,-1.376 l 0,0 18.335,0 c 0.756,0.002 1.374,0.616 1.376,1.376 l 0,0 0,17.394 c -0.002,0.758 -0.618,1.376 -1.376,1.378 l 0,0 -18.335,-0.002 0,0 z m 17.711,-1.998 0,-16.147 -17.089,0 0,16.146 17.089,0.001 0,0 z"
           inkscape:connector-curvature="0"
           style="fill:#f4f4f4" /><path
           id="path4584"
           d="m 335.811,297.589 c -1.386,0 -2.506,-1.12 -2.506,-2.506 l 0,0 0,-9.293 c 0,-1.388 1.12,-2.506 2.506,-2.508 l 0,0 9.796,0 c 1.384,0 2.506,1.122 2.506,2.508 l 0,0 0,9.293 c 0,1.384 -1.122,2.506 -2.506,2.508 l 0,0 -9.796,-0.002 0,0 z m -0.508,-11.799 0,9.293 c 0,0.28 0.229,0.507 0.508,0.507 l 0,0 9.796,0 c 0.279,0 0.505,-0.227 0.507,-0.507 l 0,0 0,-9.293 c -0.002,-0.28 -0.228,-0.507 -0.507,-0.507 l 0,0 -9.796,-0.003 c -0.279,0.003 -0.508,0.23 -0.508,0.51 l 0,0 z"
           inkscape:connector-curvature="0"
           style="fill:#f4f4f4" /></g><g
         id="g4586"><path
           id="path4588"
           d="m 351.489,301.859 c -0.761,-0.002 -1.374,-0.62 -1.376,-1.376 l 0,0 0,-17.393 c 0.002,-0.76 0.615,-1.376 1.376,-1.376 l 0,0 18.337,0 c 0.756,0 1.374,0.616 1.376,1.376 l 0,0 0,17.394 c -0.002,0.758 -0.618,1.374 -1.376,1.376 l 0,0 -18.337,0 0,-0.001 z m 17.713,-2 0,-16.147 -17.089,0 0,16.147 17.089,0 0,0 z"
           inkscape:connector-curvature="0"
           style="fill:#f4f4f4" /><path
           id="path4590"
           d="m 355.759,297.59 c -1.386,0 -2.502,-1.124 -2.504,-2.508 l 0,0 0,-9.293 c 0,-1.384 1.118,-2.506 2.504,-2.506 l 0,0 9.798,0 c 1.384,0 2.504,1.12 2.506,2.506 l 0,0 0,9.293 c -0.002,1.386 -1.122,2.506 -2.506,2.508 l 0,0 -9.798,0 0,0 z m -0.505,-11.801 0,9.293 c 0,0.282 0.227,0.507 0.505,0.509 l 0,0 9.798,0 c 0.277,-0.002 0.505,-0.229 0.507,-0.509 l 0,0 0,-9.293 c -0.002,-0.277 -0.229,-0.507 -0.507,-0.507 l 0,0 -9.798,0 c -0.279,0 -0.505,0.227 -0.505,0.507 l 0,0 z"
           inkscape:connector-curvature="0"
           style="fill:#f4f4f4" /></g><g
         id="g4592"><path
           id="path4594"
           d="m 371.346,301.859 c -0.76,-0.002 -1.377,-0.616 -1.377,-1.376 l 0,0 0,-17.393 c 0,-0.765 0.619,-1.376 1.377,-1.376 l 0,0 18.336,0 c 0.758,0 1.373,0.616 1.376,1.376 l 0,0 0,17.394 -0.003,0 c 0,0.756 -0.615,1.374 -1.373,1.376 l 0,0 -18.336,0 0,-0.001 z m 17.71,-2 0.002,-16.147 -17.09,0 0,16.147 17.088,0 0,0 z"
           inkscape:connector-curvature="0"
           style="fill:#f4f4f4" /><path
           id="path4596"
           d="m 375.615,297.589 c -1.386,0 -2.506,-1.122 -2.506,-2.506 l 0,0 0,-9.293 c 0,-1.386 1.12,-2.508 2.506,-2.508 l 0,0 9.796,0 c 1.384,0 2.506,1.122 2.506,2.508 l 0,0 0,9.293 c 0,1.384 -1.122,2.506 -2.506,2.508 l 0,0 -9.796,-0.002 0,0 z m -0.508,-11.799 0,9.293 c 0,0.28 0.228,0.507 0.508,0.507 l 0,0 9.796,0 c 0.277,0 0.505,-0.227 0.507,-0.507 l 0,0 0,-9.293 c -0.002,-0.28 -0.229,-0.507 -0.507,-0.507 l 0,0 -9.796,-0.003 c -0.28,0.003 -0.508,0.23 -0.508,0.51 l 0,0 z"
           inkscape:connector-curvature="0"
           style="fill:#f4f4f4" /></g><g
         id="g4598"><path
           id="path4600"
           d="m 391.295,301.859 c -0.76,-0.002 -1.378,-0.618 -1.378,-1.376 l 0,0 0,-17.393 c 0,-0.76 0.62,-1.376 1.378,-1.376 l 0,0 27.377,0 c 0.76,0 1.374,0.616 1.376,1.376 l 0,0 0,17.394 c -0.002,0.756 -0.616,1.374 -1.376,1.376 l 0,0 -27.377,0 0,-0.001 z m 26.753,-2 0,-16.147 -26.131,0 0,16.147 26.131,0 0,0 z"
           inkscape:connector-curvature="0"
           style="fill:#f4f4f4" /><path
           id="path4602"
           d="m 395.564,297.589 c -1.384,0 -2.508,-1.12 -2.508,-2.506 l 0,0 0,-9.293 c 0.002,-1.388 1.124,-2.508 2.508,-2.508 l 0,0 18.839,0 c 1.384,0.002 2.504,1.12 2.506,2.508 l 0,0 0,9.293 c -0.002,1.386 -1.122,2.506 -2.506,2.508 l 0,0 -18.839,-0.002 0,0 z m -0.506,-11.799 0,9.293 c 0,0.28 0.227,0.507 0.507,0.507 l 0,0 18.839,0 c 0.277,0 0.505,-0.227 0.507,-0.507 l 0,0 0,-9.293 c -0.002,-0.28 -0.229,-0.507 -0.507,-0.507 l 0,0 -18.839,-0.003 c -0.281,0.003 -0.507,0.23 -0.507,0.51 l 0,0 z"
           inkscape:connector-curvature="0"
           style="fill:#f4f4f4" /></g><g
         id="g4604"><path
           id="path4606"
           d="m 420.286,301.858 c -0.759,0 -1.376,-0.614 -1.378,-1.376 l 0,0 0,-17.392 c 0,-0.766 0.619,-1.376 1.378,-1.376 l 0,0 18.335,0 c 0.757,0 1.374,0.608 1.378,1.376 l 0,0 0,17.392 -0.002,0 c 0,0.766 -0.617,1.376 -1.376,1.376 l 0,0 -18.335,0 0,0 z m 17.712,-1.999 0,-16.147 -17.089,0 -0.002,16.147 17.091,0 0,0 z"
           inkscape:connector-curvature="0"
           style="fill:#f4f4f4" /><path
           id="path4608"
           d="m 424.556,297.59 c -1.386,0 -2.506,-1.123 -2.506,-2.507 l 0,0 0,-9.294 c 0,-1.386 1.12,-2.506 2.506,-2.508 l 0,0 9.796,0.002 c 1.384,0 2.506,1.122 2.506,2.506 l 0,0 0,9.294 c 0,1.384 -1.122,2.507 -2.506,2.507 l 0,0 -9.796,0 0,0 z m -0.508,-11.801 0,9.294 c 0.002,0.28 0.229,0.506 0.508,0.506 l 0,0 9.796,0.002 c 0.28,-0.002 0.506,-0.228 0.506,-0.508 l 0,0 0,-9.294 c 0,-0.28 -0.226,-0.506 -0.506,-0.506 l 0,0 -9.796,-0.002 c -0.28,0.002 -0.506,0.231 -0.508,0.508 l 0,0 z"
           inkscape:connector-curvature="0"
           style="fill:#f4f4f4" /></g><g
         id="g4610"><path
           id="path4612"
           d="m 440.234,301.858 c -0.759,0 -1.375,-0.614 -1.377,-1.375 l 0,0 0,-17.395 c 0,-0.763 0.62,-1.375 1.377,-1.377 l 0,0 18.335,0.002 c 0.757,0 1.375,0.608 1.38,1.375 l 0,0 0,17.395 -0.003,0 c 0,0.765 -0.62,1.375 -1.377,1.377 l 0,0 -18.335,-0.002 0,0 z m 17.713,-1.998 0,-16.146 -17.091,-0.002 0,16.146 17.091,0.002 0,0 z"
           inkscape:connector-curvature="0"
           style="fill:#f4f4f4" /><path
           id="path4614"
           d="m 444.506,297.589 c -1.385,0 -2.508,-1.121 -2.508,-2.506 l 0,0 0,-9.293 c 0,-1.388 1.123,-2.507 2.508,-2.509 l 0,0 9.794,0.002 c 1.386,0 2.507,1.121 2.507,2.507 l 0,0 0,9.293 c 0,1.385 -1.121,2.506 -2.507,2.508 l 0,0 -9.794,-0.002 0,0 z m -0.509,-11.799 0,9.293 c 0,0.278 0.229,0.507 0.509,0.507 l 0,0 9.794,0 c 0.281,0 0.508,-0.227 0.508,-0.507 l 0,0 0,-9.293 c 0,-0.279 -0.227,-0.508 -0.508,-0.508 l 0,0 -9.794,0 c -0.28,0 -0.509,0.229 -0.509,0.508 l 0,0 z"
           inkscape:connector-curvature="0"
           style="fill:#f4f4f4" /></g><path
         id="path4616"
         d="m 109.052,191.111 -0.002,-15.072 c 0.002,-1.453 1.178,-2.631 2.633,-2.631 l 0,0 c 1.455,0 2.633,1.177 2.633,2.631 l 0,0 0,15.072 c 0,1.455 -1.179,2.631 -2.633,2.633 l 0,0 c -1.454,-0.002 -2.631,-1.178 -2.631,-2.633 l 0,0 z m 1.999,-15.072 0,15.072 c 0.002,0.348 0.285,0.631 0.633,0.631 l 0,0 c 0.35,0 0.632,-0.283 0.634,-0.631 l 0,0 -0.002,-15.072 c 0,-0.347 -0.282,-0.63 -0.632,-0.63 l 0,0 c -0.349,0 -0.631,0.281 -0.633,0.63 l 0,0 z"
         inkscape:connector-curvature="0"
         style="fill:#f4f4f4" /><path
         id="path4618"
         d="m 115.771,191.11 0,-15.07 c 0,-1.455 1.179,-2.631 2.633,-2.631 l 0,0 c 1.453,0 2.631,1.176 2.631,2.631 l 0,0 0,15.07 c 0,1.454 -1.178,2.633 -2.631,2.633 l 0,0 c -1.455,0 -2.633,-1.179 -2.633,-2.633 l 0,0 z m 1.998,-15.07 0,15.07 c 0.002,0.351 0.284,0.633 0.635,0.633 l 0,0 c 0.348,0 0.63,-0.282 0.632,-0.633 l 0,0 -0.002,-15.07 c 0,-0.349 -0.282,-0.632 -0.63,-0.632 l 0,0 c -0.351,0 -0.633,0.283 -0.635,0.632 l 0,0 z"
         inkscape:connector-curvature="0"
         style="fill:#f4f4f4" /><path
         id="path4620"
         d="m 122.488,191.111 0,-15.072 c 0,-1.453 1.179,-2.631 2.633,-2.631 l 0,0 c 1.455,0 2.631,1.179 2.633,2.631 l 0,0 0,15.072 c 0,1.455 -1.181,2.631 -2.633,2.633 l 0,0 c -1.454,-0.002 -2.633,-1.178 -2.633,-2.633 l 0,0 z m 2.001,-15.072 0,15.072 c 0,0.348 0.282,0.631 0.632,0.631 l 0,0 c 0.351,0 0.633,-0.283 0.633,-0.631 l 0,0 0,-15.072 c 0,-0.349 -0.284,-0.63 -0.633,-0.63 l 0,0 c -0.35,0 -0.632,0.281 -0.632,0.63 l 0,0 z"
         inkscape:connector-curvature="0"
         style="fill:#f4f4f4" /><path
         id="path4622"
         d="m 129.208,191.111 0,-15.072 c 0,-1.453 1.179,-2.631 2.633,-2.631 l 0,0 c 1.455,0 2.631,1.179 2.631,2.631 l 0,0 0,15.072 c 0,1.455 -1.179,2.631 -2.631,2.633 l 0,0 c -1.455,-0.002 -2.633,-1.178 -2.633,-2.633 l 0,0 z m 1.999,-15.072 0,15.072 c 0.002,0.348 0.284,0.631 0.634,0.631 l 0,0 c 0.348,0 0.631,-0.283 0.633,-0.631 l 0,0 0,-15.072 c -0.002,-0.349 -0.285,-0.63 -0.633,-0.63 l 0,0 c -0.35,0 -0.633,0.281 -0.634,0.63 l 0,0 z"
         inkscape:connector-curvature="0"
         style="fill:#f4f4f4" /><path
         id="path4624"
         d="m 135.928,191.11 -0.002,-15.07 c 0.002,-1.455 1.179,-2.631 2.633,-2.631 l 0,0 c 1.455,0 2.631,1.176 2.633,2.631 l 0,0 0,15.07 c -0.002,1.454 -1.179,2.633 -2.633,2.633 l 0,0 c -1.455,0 -2.631,-1.179 -2.631,-2.633 l 0,0 z m 1.999,-15.07 0,15.07 c 0,0.351 0.284,0.633 0.632,0.633 l 0,0 c 0.348,0 0.633,-0.282 0.633,-0.633 l 0,0 0,-15.07 c 0,-0.349 -0.285,-0.632 -0.633,-0.632 l 0,0 c -0.348,0 -0.632,0.283 -0.632,0.632 l 0,0 z"
         inkscape:connector-curvature="0"
         style="fill:#f4f4f4" /><path
         id="path4626"
         d="m 142.645,191.11 0,-15.07 c 0,-1.455 1.179,-2.631 2.633,-2.631 l 0,0 c 1.455,0 2.631,1.176 2.631,2.631 l 0,0 0,15.07 c 0,1.454 -1.177,2.633 -2.631,2.633 l 0,0 c -1.454,0 -2.633,-1.179 -2.633,-2.633 l 0,0 z m 2.001,-15.07 0,15.07 c 0,0.351 0.282,0.633 0.632,0.633 l 0,0 c 0.35,0 0.633,-0.282 0.633,-0.633 l 0,0 0,-15.07 c 0,-0.349 -0.283,-0.632 -0.633,-0.632 l 0,0 c -0.35,0 -0.632,0.283 -0.632,0.632 l 0,0 z"
         inkscape:connector-curvature="0"
         style="fill:#f4f4f4" /><path
         id="path4628"
         d="m 149.364,191.11 0,-15.07 c 0,-1.455 1.179,-2.631 2.633,-2.631 l 0,0 c 1.453,0 2.631,1.176 2.631,2.631 l 0,0 0,15.07 c 0,1.454 -1.179,2.633 -2.631,2.633 l 0,0 c -1.454,0 -2.633,-1.179 -2.633,-2.633 l 0,0 z m 1.999,-15.07 0,15.07 c 0.002,0.351 0.285,0.633 0.635,0.633 l 0,0 c 0.348,0 0.63,-0.282 0.632,-0.633 l 0,0 0,-15.07 c -0.002,-0.349 -0.284,-0.632 -0.632,-0.632 l 0,0 c -0.351,0 -0.633,0.283 -0.635,0.632 l 0,0 z"
         inkscape:connector-curvature="0"
         style="fill:#f4f4f4" /><path
         id="path4630"
         d="m 99.757,330.882 0,-163.002 383.028,0 0,162.001 0,1 -383.028,0 0,0.001 z m 382.028,-1 0,-1.001 0,1.001 0,0 z m -380.029,-1.001 379.028,0 0,-159 -379.028,0 0,159 0,0 z"
         inkscape:connector-curvature="0"
         style="fill:#f4f4f4" /><path
         id="path4632"
         d="m 100.322,200.055 0,-31.388 6.522,0 0,30.388 0,1 -6.522,0 0,0 z m 5.523,-1 0,-1.002 0,1.002 0,0 z m -3.522,-28.386 0,27.384 2.522,0 0,-27.386 -2.522,0.002 0,0 z"
         inkscape:connector-curvature="0"
         style="fill:#f4f4f4" /><path
         id="path4634"
         d="m 475.478,200.147 0,-31.386 6.521,0 0,30.386 0,1 -6.521,0 0,0 z m 5.522,-1 0,-1 0,1 0,0 z m -3.521,-1 2.519,0 0,-27.385 -2.519,0 0,27.385 0,0 z"
         inkscape:connector-curvature="0"
         style="fill:#f4f4f4" /><polygon
         id="polygon4636"
         points="481.472,201.089 100.664,201.089 100.664,201.089 100.664,199.091 481.472,199.091 "
         style="fill:#f4f4f4" /><path
         id="path4638"
         d="m 150.622,321.549 c 0,-2.297 1.859,-4.156 4.154,-4.158 l 0,0 c 2.294,0.002 4.156,1.861 4.156,4.158 l 0,0 c 0,2.294 -1.861,4.153 -4.156,4.153 l 0,0 c -2.297,0 -4.154,-1.859 -4.154,-4.153 l 0,0 z m 1.999,0 c 0.002,1.187 0.965,2.149 2.154,2.152 l 0,0 c 1.189,-0.003 2.154,-0.966 2.156,-2.152 l 0,0 c -0.002,-1.193 -0.967,-2.154 -2.156,-2.159 l 0,0 c -1.191,0.005 -2.152,0.965 -2.154,2.159 l 0,0 z"
         inkscape:connector-curvature="0"
         style="fill:#f4f4f4" /><path
         id="path4640"
         d="m 171.248,321.549 c 0,-2.297 1.859,-4.156 4.154,-4.158 l 0,0 c 2.297,0.002 4.156,1.861 4.156,4.158 l 0,0 0.002,0 c -0.002,2.294 -1.861,4.153 -4.158,4.153 l 0,0 c -2.295,0 -4.154,-1.859 -4.154,-4.153 l 0,0 z m 1.999,0 c 0.002,1.187 0.965,2.149 2.154,2.152 l 0,0 c 1.191,-0.003 2.154,-0.966 2.156,-2.152 l 0,0 c -0.002,-1.193 -0.965,-2.154 -2.156,-2.159 l 0,0 c -1.189,0.005 -2.152,0.965 -2.154,2.159 l 0,0 z"
         inkscape:connector-curvature="0"
         style="fill:#f4f4f4" /><path
         id="path4642"
         d="m 191.876,321.549 c 0,-2.297 1.859,-4.156 4.154,-4.156 l 0,0 c 2.294,0 4.156,1.857 4.156,4.156 l 0,0 c 0,2.294 -1.861,4.151 -4.156,4.153 l 0,0 c -2.295,0 -4.154,-1.859 -4.154,-4.153 l 0,0 z m 1.999,0 c 0.002,1.187 0.965,2.149 2.154,2.154 l 0,0 c 1.189,-0.005 2.154,-0.968 2.156,-2.154 l 0,0 c -0.002,-1.191 -0.967,-2.154 -2.156,-2.159 l 0,0 c -1.189,0.005 -2.152,0.965 -2.154,2.159 l 0,0 z"
         inkscape:connector-curvature="0"
         style="fill:#f4f4f4" /><path
         id="path4644"
         d="m 76.941,338.385 0,-182.577 11.304,-140.911 c 0.031,-3.438 2.829,-6.214 6.276,-6.216 l 0,0 393.501,0 c 3.455,0.002 6.256,2.793 6.272,6.245 l 0,0 11.301,140.933 -0.997,0.08 0.997,-0.08 0.004,0.051 -0.002,182.476 c 0,3.467 -2.81,6.274 -6.271,6.274 l 0,0 -416.108,0.002 c -3.467,-0.003 -6.274,-2.81 -6.277,-6.277 l 0,0 z m 13.304,-323.429 0,0.038 -11.303,140.883 0,182.507 c 0.004,2.362 1.916,4.27 4.276,4.276 l 0,0 416.108,-0.002 c 2.358,-0.005 4.268,-1.912 4.271,-4.274 l 0,0 0,-182.418 -11.302,-140.979 0,-0.032 c -0.005,-2.36 -1.914,-4.27 -4.272,-4.274 l 0,0 -393.502,0 c -2.362,0.005 -4.272,1.916 -4.276,4.275 l 0,0 z"
         inkscape:connector-curvature="0"
         style="fill:#f4f4f4" /></g></g></svg>