<?xml version="1.0" encoding="UTF-8" standalone="no"?>
<!-- Generator: Adobe Illustrator 13.0.0, SVG Export Plug-In . SVG Version: 6.00 Build 14948)  -->

<svg
   xmlns:dc="http://purl.org/dc/elements/1.1/"
   xmlns:cc="http://creativecommons.org/ns#"
   xmlns:rdf="http://www.w3.org/1999/02/22-rdf-syntax-ns#"
   xmlns:svg="http://www.w3.org/2000/svg"
   xmlns="http://www.w3.org/2000/svg"
   xmlns:sodipodi="http://sodipodi.sourceforge.net/DTD/sodipodi-0.dtd"
   xmlns:inkscape="http://www.inkscape.org/namespaces/inkscape"
   version="1.1"
   id="Layer_2"
   x="0px"
   y="0px"
   width="550"
   height="550"
   viewBox="0 0 549.99995 549.99999"
   enable-background="new 0 0 598.189 350.26"
   xml:space="preserve"
   inkscape:version="0.91 r13725"
   sodipodi:docname="controller_gg.svg"><metadata
     id="metadata3083"><rdf:RDF><cc:Work
         rdf:about=""><dc:format>image/svg+xml</dc:format><dc:type
           rdf:resource="http://purl.org/dc/dcmitype/StillImage" /><dc:title></dc:title></cc:Work></rdf:RDF></metadata><defs
     id="defs3081" /><sodipodi:namedview
     pagecolor="#ffffff"
     bordercolor="#666666"
     borderopacity="1"
     objecttolerance="10"
     gridtolerance="10"
     guidetolerance="10"
     inkscape:pageopacity="0"
     inkscape:pageshadow="2"
     inkscape:window-width="1920"
     inkscape:window-height="1001"
     id="namedview3079"
     showgrid="false"
     inkscape:zoom="1.0799262"
     inkscape:cx="248.77122"
     inkscape:cy="298.43665"
     inkscape:window-x="-9"
     inkscape:window-y="-9"
     inkscape:window-maximized="1"
     inkscape:current-layer="layer4"
     showguides="true"
     inkscape:guide-bbox="true" /><g
     inkscape:groupmode="layer"
     id="layer2"
     inkscape:label="Screen_Rect"
     style="display:none"
     transform="translate(0,199.73999)"
     sodipodi:insensitive="true"><path
       style="fill:#0000ff;stroke:#000000;stroke-width:1px;stroke-linecap:butt;stroke-linejoin:miter;stroke-opacity:1"
       d="M 5.0135033,547.22203 136.4109,114.39023 653.54628,-189.09358 406.482,260.92121 Z"
       id="path3021"
       inkscape:connector-curvature="0"
       transform="translate(-2e-5,-199.73999)"
       sodipodi:nodetypes="ccccc" /><rect
       style="opacity:0.60100002;fill:#d8201f;fill-opacity:1;stroke:#ff8080;stroke-width:2.45114732;stroke-linecap:round;stroke-linejoin:round;stroke-miterlimit:4;stroke-dasharray:none;stroke-opacity:1"
       id="rect4230"
       width="444.2457"
       height="9.9567661"
       x="145.95099"
       y="-211.30678" /></g><g
     inkscape:groupmode="layer"
     id="layer1"
     inkscape:label="Controller_Vorlage"
     style="display:none"
     sodipodi:insensitive="true"><g
       id="g4929"
       transform="translate(-0.929149,0.5695451)"><g
         transform="translate(0,199.73999)"
         style="display:none"
         inkscape:label="Layer2"
         id="layer2-9"><path
           sodipodi:nodetypes="ccccc"
           transform="translate(-2e-5,-199.73999)"
           inkscape:connector-curvature="0"
           id="path3021-0"
           d="M 5.0135033,547.22203 136.4109,114.39023 653.54628,-189.09358 406.482,260.92121 Z"
           style="fill:#ffffff;stroke:#000000;stroke-width:1px;stroke-linecap:butt;stroke-linejoin:miter;stroke-opacity:1" /></g><g
         inkscape:label="Layer"
         id="layer1-2"><g
           transform="matrix(0.55322035,-0.3970343,-0.34863416,0.85569517,173.63773,166.52161)"
           id="g3100"><path
             style="fill:#f4f4f4"
             inkscape:connector-curvature="0"
             id="path3"
             d="m 148.05,114.447 c -23.656,0 -42.861,19.204 -42.861,42.861 l 0,37.414 c 0,23.658 19.205,42.86 42.861,42.86 l 38.694,0 c 23.656,0 42.861,-19.202 42.861,-42.86 l 0,-37.414 c 0,-23.657 -19.205,-42.861 -42.861,-42.861 l -38.694,0 z m 0,1.905 38.694,0 c 22.627,0 40.956,18.328 40.956,40.956 l 0,37.414 c 0,22.629 -18.329,40.956 -40.956,40.956 l -38.694,0 c -22.628,0 -40.956,-18.327 -40.956,-40.956 l 0,-37.414 c 0,-22.629 18.328,-40.956 40.956,-40.956 z" /><path
             style="fill:#f4f4f4"
             inkscape:connector-curvature="0"
             id="path5"
             d="m 167.395,123.168 c -3.23,0 -5.863,2.633 -5.863,5.864 l 0,13.037 c 0,3.23 2.632,5.863 5.863,5.863 3.23,0 5.863,-2.633 5.863,-5.863 l 0,-13.037 c 0,-3.23 -2.633,-5.864 -5.863,-5.864 z m 0,1.906 c 2.201,0 3.958,1.758 3.958,3.958 l 0,13.037 c 0,2.2 -1.758,3.958 -3.958,3.958 -2.202,0 -3.958,-1.758 -3.958,-3.958 l 0,-13.037 c -0.001,-2.2 1.757,-3.958 3.958,-3.958 z" /><path
             style="fill:#f4f4f4"
             inkscape:connector-curvature="0"
             id="path7"
             d="m 120.425,170.135 c -3.23,0 -5.864,2.633 -5.864,5.864 0,3.231 2.632,5.894 5.864,5.894 l 13.037,0 c 3.229,0 5.864,-2.662 5.864,-5.894 0,-3.229 -2.633,-5.864 -5.864,-5.864 l -13.037,0 z m 0,1.905 13.037,0 c 2.201,0 3.959,1.759 3.959,3.959 0,2.201 -1.759,3.988 -3.959,3.988 l -13.037,0 c -2.198,-0.01 -3.955,-1.791 -3.955,-3.99 0,-2.201 1.758,-3.959 3.958,-3.959 l -0.003,0.002 z" /><path
             style="fill:#f4f4f4"
             inkscape:connector-curvature="0"
             id="path9"
             d="m 167.395,204.071 c -3.23,0 -5.863,2.663 -5.863,5.894 l 0,13.038 c 0,3.229 2.632,5.863 5.863,5.863 3.23,0 5.863,-2.633 5.863,-5.863 l 0,-13.038 c 0,-3.23 -2.633,-5.894 -5.863,-5.894 z m 0,1.906 c 2.201,0 3.958,1.789 3.958,3.988 l 0,13.038 c 0,2.2 -1.757,3.958 -3.958,3.958 -2.202,0 -3.958,-1.759 -3.958,-3.958 l 0,-13.038 c -0.001,-2.2 1.757,-3.988 3.958,-3.988 z" /><path
             style="fill:#f4f4f4"
             inkscape:connector-curvature="0"
             id="path11"
             d="m 201.321,170.135 c -3.229,0 -5.863,2.633 -5.863,5.864 0,3.231 2.633,5.894 5.863,5.894 l 13.067,0 c 3.229,0 5.863,-2.662 5.863,-5.894 0,-3.229 -2.633,-5.864 -5.863,-5.864 l -13.067,0 z m 0,1.905 13.067,0 c 2.2,0 3.958,1.76 3.958,3.959 0,2.201 -1.758,3.988 -3.958,3.988 l -13.067,0 c -2.2,0 -3.958,-1.788 -3.958,-3.988 0,-2.2 1.759,-3.959 3.958,-3.959 z" /><path
             style="fill:#f4f4f4"
             inkscape:connector-curvature="0"
             id="polygon13"
             d="m 133.878,141.176 -1.31,1.31 8.155,12.025 0.655,0.952 0.804,-0.803 3.869,-3.87 0.804,-0.804 -0.953,-0.655 -12.024,-8.155 z" /><path
             style="fill:#f4f4f4"
             inkscape:connector-curvature="0"
             id="polygon15"
             d="m 141.383,196.566 -0.654,0.952 -8.156,12.024 1.31,1.31 12.025,-8.155 0.953,-0.654 -0.804,-0.804 -3.87,-3.869 -0.804,-0.804 z" /><path
             style="fill:#f4f4f4"
             inkscape:connector-curvature="0"
             id="polygon17"
             d="m 193.435,196.566 -0.804,0.804 -3.869,3.869 -0.833,0.804 0.953,0.654 12.025,8.155 1.339,-1.31 -8.156,-12.024 -0.655,-0.952 0,0 z" /><path
             style="fill:#f4f4f4"
             inkscape:connector-curvature="0"
             id="polygon19"
             d="m 200.912,141.176 -12.025,8.155 -0.953,0.655 0.833,0.804 3.87,3.87 0.804,0.803 0.655,-0.952 8.155,-12.025 -1.339,-1.31 z" /><path
             style="fill:#f4f4f4"
             inkscape:connector-curvature="0"
             id="path21"
             d="m 146.354,104.833 c -27.67,0 -50.123,22.453 -50.123,50.124 l 0,42.117 c 0,27.671 22.453,50.123 50.123,50.123 l 42.117,0 c 27.671,0 50.124,-22.452 50.124,-50.123 l 0,-42.117 c 0,-27.67 -22.452,-50.124 -50.124,-50.124 l -42.117,0 z m 0,1.906 42.117,0 c 26.644,0 48.219,21.577 48.219,48.218 l 0,42.117 c 0,26.644 -21.577,48.218 -48.219,48.218 l -42.117,0 c -26.642,0 -48.218,-21.574 -48.218,-48.218 l 0,-42.117 c 0,-26.642 21.577,-48.218 48.218,-48.218 z" /><path
             style="fill:#f4f4f4"
             inkscape:connector-curvature="0"
             id="polygon23"
             d="m 69.499,75.694 0,0.952 0,202.961 0,0.952 0.953,0 196.122,0 0.952,0 0,-0.952 0,-26.401 289.521,0 0.952,0 0,-0.952 0,-113.458 0,-0.953 -0.952,0 -289.522,0 0,-61.196 0,-0.952 -0.952,0 -196.122,0 -0.952,-10e-4 0,0 z m 1.904,1.905 194.217,0 0,61.196 0,0.953 0.953,0 0.714,0 288.807,0 0,111.552 -289.226,0 -0.297,0 -0.953,0 0,0.953 0,26.4 -194.217,0 0,-201.055 0.002,0.001 z" /><path
             style="fill:#f4f4f4"
             inkscape:connector-curvature="0"
             id="circle25"
             d="m 400.692,169.126 c -19.762,0 -35.777,16.046 -35.777,35.807 0,19.761 16.018,35.807 35.777,35.807 19.759,0 35.807,-16.046 35.807,-35.807 0,-19.761 -16.047,-35.807 -35.807,-35.807 l 0,0 z m 0,1.905 c 18.73,0 33.901,15.17 33.901,33.902 0,18.732 -15.171,33.902 -33.901,33.902 -18.731,0 -33.872,-15.171 -33.872,-33.902 0,-18.731 15.141,-33.902 33.872,-33.902 l 0,0 z" /><path
             style="fill:#f4f4f4"
             inkscape:connector-curvature="0"
             id="circle27"
             d="m 400.692,177.669 c -15.039,0 -27.234,12.227 -27.234,27.265 0,15.038 12.195,27.234 27.234,27.234 15.036,0 27.264,-12.196 27.264,-27.234 0,-15.038 -12.227,-27.265 -27.264,-27.265 z m 0,1.905 c 14.008,0 25.359,11.351 25.359,25.359 0,14.008 -11.352,25.33 -25.359,25.33 -14.01,0 -25.33,-11.321 -25.33,-25.33 0,-14.009 11.321,-25.359 25.33,-25.359 z" /><path
             style="fill:#f4f4f4"
             inkscape:connector-curvature="0"
             id="circle29"
             d="m 489.919,169.126 c -19.762,0 -35.807,16.046 -35.807,35.807 0,19.761 16.045,35.807 35.807,35.807 19.76,0 35.807,-16.046 35.807,-35.807 0,-19.761 -16.047,-35.807 -35.807,-35.807 l 0,0 z m 0,1.905 c 18.73,0 33.901,15.17 33.901,33.902 0,18.732 -15.171,33.902 -33.901,33.902 -18.731,0 -33.902,-15.171 -33.902,-33.902 0,-18.731 15.171,-33.902 33.902,-33.902 l 0,0 z" /><path
             style="fill:#f4f4f4"
             inkscape:connector-curvature="0"
             id="circle31"
             d="m 489.919,177.669 c -15.039,0 -27.234,12.227 -27.234,27.265 0,15.038 12.195,27.234 27.234,27.234 15.036,0 27.234,-12.196 27.234,-27.234 0,-15.038 -12.196,-27.265 -27.234,-27.265 z m 0,1.905 c 14.008,0 25.329,11.351 25.329,25.359 0,14.008 -11.321,25.33 -25.329,25.33 -14.01,0 -25.33,-11.321 -25.33,-25.33 0,-14.009 11.32,-25.359 25.33,-25.359 z" /><path
             style="fill:#f4f4f4"
             inkscape:connector-curvature="0"
             id="path33"
             d="m 39.406,68.432 c -4.766,0 -8.662,3.896 -8.662,8.662 l 0,203.084 c 0,4.766 3.897,8.661 8.662,8.661 l 518.646,0 c 4.429,0 7.956,-3.411 8.453,-7.709 l 0.179,0 0,-0.952 0,-203.085 c 0,-4.762 -3.868,-8.658 -8.64,-8.658 l -518.645,0 0.007,-0.003 z m 0,1.904 518.646,0 c 3.737,0 6.727,3.021 6.727,6.757 l 0,202.131 0,0.953 c 0,3.736 -2.989,6.756 -6.727,6.756 l -518.646,0 c -3.732,0.01 -6.753,-3.019 -6.753,-6.753 l 0,-203.083 c 0,-3.736 3.02,-6.756 6.756,-6.756 l -0.003,-0.005 z" /><path
             style="fill:#f4f4f4"
             inkscape:connector-curvature="0"
             id="rect35"
             d="m 359.021,163.559 0,0.953 0,81.465 0,0.952 0.953,0 81.465,0 0.953,0 0,-0.952 0,-81.465 0,-0.953 -0.953,0 -81.465,0 -0.953,0 z m 1.906,1.905 79.561,0 0,79.56 -79.561,0 0,-79.56 z" /><path
             style="fill:#f4f4f4"
             inkscape:connector-curvature="0"
             id="rect37"
             d="m 448.248,163.559 0,0.953 0,81.465 0,0.952 0.953,0 81.436,0 0.952,0 0,-0.952 0,-81.465 0,-0.953 -0.952,0 -81.436,0 -0.953,0 z m 1.905,1.905 79.531,0 0,79.56 -79.531,0 0,-79.56 z" /><path
             style="fill:#f4f4f4"
             inkscape:connector-curvature="0"
             id="polyline39"
             d="m 83.934,94.177 0,2.292 0,159.061 0,2.322 1.607,-1.638 25.33,-25.299 -1.369,-1.369 -23.663,23.692 0,-154.45 23.663,23.658 1.369,-1.34 -25.33,-25.299 -1.607,-1.637 0,0.007 z" /><path
             style="fill:#f4f4f4"
             inkscape:connector-curvature="0"
             id="polyline41"
             d="m 222.305,232.551 -1.37,1.339 23.693,23.692 -154.452,0 23.574,-23.573 -1.369,-1.339 -25.181,25.182 -1.637,1.637 2.292,0 159.062,0 2.292,0 -1.607,-1.637 -25.299,-25.3 0.002,-0.001 z" /><path
             style="fill:#f4f4f4"
             inkscape:connector-curvature="0"
             id="polyline43"
             d="m 250.878,94.177 -1.637,1.637 -25.211,25.182 1.369,1.369 23.574,-23.603 0,154.509 -23.633,-23.663 -1.339,1.34 25.24,25.27 1.637,1.638 0,-2.322 0,-159.063 0,-2.292 0,-0.002 z" /><path
             style="fill:#f4f4f4"
             inkscape:connector-curvature="0"
             id="polyline45"
             d="m 85.57,92.54 1.638,1.608 25.21,25.24 1.339,-1.34 -23.572,-23.602 154.452,0 -23.669,23.662 1.333,1.339 25.307,-25.3 1.607,-1.607 -2.292,0 -159.062,0 -2.291,0 0,0 z" /><path
             style="fill:#f4f4f4"
             inkscape:connector-curvature="0"
             id="line47"
             d="m 58.961,69.533 0,218.057 1.905,0 0,-218.057 -1.905,0 z" /><path
             style="fill:#f4f4f4"
             inkscape:connector-curvature="0"
             id="rect49"
             d="m 359.021,145.819 0,0.953 0,13.244 0,0.953 0.953,0 81.465,0 0.953,0 0,-0.953 0,-13.244 0,-0.953 -0.953,0 -81.465,0 -0.953,0 z m 1.906,1.905 79.561,0 0,11.339 -79.561,0 0,-11.339 z" /><path
             style="fill:#f4f4f4"
             inkscape:connector-curvature="0"
             id="rect51"
             d="m 448.248,145.819 0,0.953 0,13.244 0,0.953 0.953,0 81.436,0 0.952,0 0,-0.953 0,-13.244 0,-0.953 -0.952,0 -81.436,0 -0.953,0 z m 1.905,1.905 79.531,0 0,11.339 -79.531,0 0,-11.339 z" /><path
             style="fill:#f4f4f4"
             inkscape:connector-curvature="0"
             id="path53"
             d="m 276.804,73.134 c -0.987,0 -1.815,0.828 -1.815,1.816 l 0,53.01 c 0,0.988 0.829,1.815 1.815,1.815 l 282.855,0 c 0.985,0 1.785,-0.831 1.785,-1.815 l 0,-50.033 c 0,-2.641 -2.152,-4.792 -4.792,-4.792 l -279.844,0 -0.004,0 z m 0.09,1.906 279.756,0 c 1.613,0 2.888,1.275 2.888,2.887 l 0,49.945 -282.643,0 0,-52.832 -10e-4,0 z" /><path
             style="fill:#f4f4f4"
             inkscape:connector-curvature="0"
             id="path55"
             d="m 276.804,260.41 c -0.987,0 -1.815,0.829 -1.815,1.815 l 0,20.091 c 0,0.987 0.829,1.816 1.815,1.816 l 279.844,0 c 2.64,0 4.792,-2.183 4.792,-4.822 l 0,-17.085 c 0,-0.985 -0.8,-1.815 -1.785,-1.815 l -282.855,0 0.004,0 z m 0.09,1.905 282.645,0 0,16.995 c 0,1.611 -1.276,2.917 -2.888,2.917 l -279.758,0 0.001,-19.912 0,0 z" /><path
             style="fill:#f4f4f4"
             inkscape:connector-curvature="0"
             id="line57"
             d="m 274.461,129.271 -6.28,6.28 1.369,1.339 6.251,-6.25 -1.34,-1.369 z" /><path
             style="fill:#f4f4f4"
             inkscape:connector-curvature="0"
             id="line59"
             d="m 269.546,253.866 -1.369,1.34 6.281,6.28 1.339,-1.369 -6.251,-6.251 z" /></g></g></g></g><g
     inkscape:groupmode="layer"
     id="layer4"
     inkscape:label="Controller"><g
       id="g10610"
       transform="matrix(0.74132009,-0.46985802,-0.63866915,0.98581238,202.49365,149.86444)"><path
         id="path10612"
         d="m 390.887,236.751 c -3.419,0 -6.711,-1.672 -9.7,-4.674 l 0,0 c -16.063,-16.074 -32.129,-32.146 -48.184,-48.224 l 0,0 c -2.918,-2.915 -4.54,-6.164 -4.54,-9.522 l 0,0 c 0,-3.367 1.624,-6.623 4.558,-9.543 l 0,0 c 16.146,-16.17 32.297,-32.337 48.45,-48.497 l 0,0 c 2.822,-2.835 6.071,-4.39 9.403,-4.386 l 0,0 c 3.332,-0.004 6.578,1.547 9.405,4.38 l 0,0 c 15.659,15.666 31.295,31.348 46.979,46.978 l 0,0 c 2.349,2.345 4.738,4.902 5.851,8.53 l 0,0 0.065,0.213 0,4.449 0,0.223 -0.067,0.219 c -1.121,3.628 -3.523,6.172 -5.868,8.514 l 0,0 c -15.593,15.541 -31.14,31.133 -46.701,46.711 l 0,0 c -2.972,2.979 -6.247,4.635 -9.646,4.633 l 0,0 c -10e-4,-0.004 -0.003,-0.004 -0.005,-0.004 l 0,0 z m -7.294,-118.34 c -16.152,16.16 -32.305,32.327 -48.453,48.497 l 0,0 c -2.559,2.567 -3.673,5.05 -3.676,7.421 l 0,0 c 0.003,2.366 1.115,4.844 3.661,7.402 l 0,0 c 16.056,16.078 32.119,32.148 48.185,48.225 l 0,0 c 2.645,2.642 5.176,3.797 7.577,3.797 l 0,0 c 2.394,-0.004 4.903,-1.142 7.527,-3.756 l 0,0 c 15.562,-15.576 31.109,-31.17 46.707,-46.717 l 0,0 c 2.256,-2.238 4.161,-4.354 5.053,-7.061 l 0,0 0,-3.76 c -0.883,-2.713 -2.78,-4.836 -5.032,-7.076 l 0,0 c -15.688,-15.634 -31.325,-31.321 -46.982,-46.98 l 0,0 c -2.438,-2.427 -4.903,-3.5 -7.284,-3.504 l 0,0 c -2.383,0.008 -4.85,1.084 -7.283,3.512 l 0,0 z"
         inkscape:connector-curvature="0"
         style="fill:#f4f4f4" /><path
         id="path10614"
         d="m 296.401,328.473 c -3.618,-1.157 -6.12,-3.603 -8.44,-5.929 l 0,0 c -15.527,-15.606 -31.102,-31.166 -46.665,-46.746 l 0,0 c -2.967,-2.965 -4.621,-6.233 -4.619,-9.619 l 0,0 c -0.002,-3.381 1.643,-6.641 4.604,-9.588 l 0,0 c 16.104,-16.118 32.208,-32.236 48.318,-48.354 l 0,0 c 2.875,-2.883 6.145,-4.472 9.504,-4.468 l 0,0 c 3.34,-0.004 6.586,1.563 9.435,4.422 l 0,0 c 16.106,16.118 32.213,32.235 48.315,48.358 l 0,0 c 2.959,2.955 4.599,6.248 4.597,9.65 l 0,0 c 0.002,3.385 -1.624,6.657 -4.56,9.588 l 0,0 c -15.695,15.715 -31.416,31.403 -47.072,47.147 l 0,0 c -2.276,2.285 -4.791,4.544 -8.324,5.548 l 0,0 -0.201,0.057 -2.936,0 0,0.553 -1.956,-0.619 0,0 z m 0.455,-1.429 0.453,-1.43 -0.453,1.43 0,0 z m 4.013,-1.502 c 2.623,-0.793 4.673,-2.555 6.821,-4.721 l 0,0 c 15.662,-15.746 31.385,-31.439 47.076,-47.15 l 0,0 c 2.56,-2.571 3.682,-5.073 3.682,-7.469 l 0,0 c 0,-2.408 -1.134,-4.935 -3.718,-7.529 l 0,0 c -16.104,-16.123 -32.207,-32.24 -48.316,-48.358 l 0,0 c -2.467,-2.458 -4.933,-3.542 -7.312,-3.544 l 0,0 c -2.395,0.002 -4.886,1.104 -7.381,3.59 l 0,0 c -16.112,16.116 -32.215,32.234 -48.32,48.352 l 0,0 c -2.592,2.603 -3.722,5.094 -3.722,7.469 l 0,0 c 0,2.378 1.136,4.881 3.741,7.498 l 0,0 c 15.558,15.578 31.138,31.14 46.669,46.75 l 0,0 c 2.235,2.259 4.322,4.199 6.999,5.113 l 0,0 3.781,0 0,-0.001 z"
         inkscape:connector-curvature="0"
         style="fill:#f4f4f4" /><path
         id="path10616"
         d="m 241.006,199.643 c -0.809,-0.896 -1.352,-2.07 -1.729,-3.496 l 0,0 c -0.406,-1.573 -0.421,-3.138 -0.425,-4.552 l 0,0 c -0.015,-11.579 -0.017,-23.158 -0.017,-34.735 l 0,0 c 0,-7.048 0,-14.095 0.002,-21.14 l 0,0 -0.002,0 c 0,-9.89 0.049,-19.774 0.049,-29.649 l 0,0 c 0,-8.035 -0.033,-16.064 -0.151,-24.086 l 0,0 c -0.002,-0.153 -0.004,-0.307 -0.004,-0.462 l 0,0 c -0.035,-5.21 1.438,-9.77 5.647,-13.357 l 0,0 c 3.088,-2.666 5.89,-5.812 8.914,-8.844 l 0,0 c 11.805,-11.817 23.61,-23.637 35.421,-35.45 l 0,0 c 2.953,-2.961 6.222,-4.605 9.606,-4.603 l 0,0 c 3.388,-0.002 6.655,1.646 9.606,4.605 l 0,0 c 16.063,16.068 32.124,32.141 48.187,48.215 l 0,0 c 2.944,2.939 4.573,6.222 4.571,9.615 l 0,0 c 0.002,3.395 -1.631,6.68 -4.575,9.623 l 0,0 c -18.994,19.017 -37.995,38.033 -56.994,57.048 l 0,0 c -16.776,16.795 -33.551,33.589 -50.333,50.38 l 0,0 c -1.434,1.424 -2.945,2.328 -4.626,2.349 l 0,0 c -0.013,0 -0.025,0 -0.038,0 l 0,0 c -1.186,-0.002 -2.324,-0.574 -3.109,-1.461 l 0,0 z m 0.828,-42.784 c 0,11.577 0.002,23.153 0.017,34.733 l 0,0 c -0.002,1.373 0.04,2.699 0.33,3.795 l 0,0 c 0.288,1.113 0.69,1.854 1.047,2.24 l 0,0 c 0.371,0.383 0.595,0.459 0.928,0.473 l 0,0 c 0.458,0.02 1.382,-0.336 2.504,-1.469 l 0,0 c 16.781,-16.791 33.556,-33.585 50.333,-50.379 l 0,0 c 18.999,-19.016 38.001,-38.031 56.994,-57.048 l 0,0 c 2.566,-2.584 3.696,-5.099 3.696,-7.502 l 0,0 c 0,-2.402 -1.126,-4.916 -3.692,-7.494 l 0,0 C 337.928,58.133 321.869,42.061 305.804,25.993 l 0,0 c -2.602,-2.593 -5.103,-3.725 -7.483,-3.725 l 0,0 c -2.383,0 -4.884,1.129 -7.487,3.722 l 0,0 c -11.809,11.813 -23.612,23.633 -35.419,35.45 l 0,0 c -2.943,2.945 -5.789,6.153 -9.075,8.995 l 0,0 c -3.49,3.057 -4.57,6.337 -4.607,11.085 l 0,0 c 0,0.135 0.002,0.274 0.004,0.417 l 0,0 c 0.116,8.046 0.149,16.089 0.149,24.132 l 0,0 c 0,9.886 -0.047,19.77 -0.047,29.649 l 0,0 c -0.002,7.047 -0.005,14.095 -0.005,21.141 l 0,0 z"
         inkscape:connector-curvature="0"
         style="fill:#f4f4f4" /><path
         id="path10618"
         d="m 194.705,230.677 c -7.567,-7.553 -15.109,-15.125 -22.658,-22.688 l 0,0 c -8.727,-8.74 -17.456,-17.48 -26.179,-26.229 l 0,0 c -2.057,-2.057 -3.161,-4.62 -3.157,-7.213 l 0,0 c -0.004,-2.578 1.083,-5.129 3.122,-7.18 l 0,0 c 16.062,-16.247 32.13,-32.493 48.2,-48.731 l 0,0 c 0.383,-0.381 0.831,-0.924 1.446,-1.441 l 0,0 c 0.604,-0.51 1.487,-1.032 2.597,-1.028 l 0,0 c 0.468,-0.002 0.957,0.093 1.423,0.271 l 0,0 c 2.434,0.91 3.368,3.203 3.61,5.127 l 0,0 c 0.155,1.102 0.286,2.258 0.29,3.447 l 0,0 c 0.01,10.283 0.01,20.563 0.01,30.844 l 0,0 c 0,5.731 0,11.462 0,17.193 l 0,0 0.015,0 0,1.5 c 0,7.482 0.004,14.964 0.004,22.447 l 0,0 c 0,8.963 -0.008,17.93 -0.038,26.901 l 0,0 c -0.01,1.714 -0.273,3.528 -0.916,5.196 l 0,0 c -0.688,1.893 -2.117,3.404 -4.056,3.404 l 0,0 c -1.405,-0.01 -2.626,-0.744 -3.713,-1.82 l 0,0 z M 197.4,119.501 c -0.337,0.276 -0.742,0.744 -1.232,1.245 l 0,0 c -16.072,16.24 -32.139,32.484 -48.201,48.733 l 0,0 c -1.549,1.57 -2.251,3.331 -2.256,5.068 l 0,0 c 0.004,1.746 0.717,3.521 2.283,5.097 l 0,0 c 8.721,8.745 17.45,17.485 26.177,26.226 l 0,0 c 7.55,7.563 15.092,15.135 22.653,22.684 l 0,0 c 0.762,0.77 1.359,0.962 1.597,0.949 l 0,0 c 0.242,0 0.692,-0.117 1.257,-1.483 l 0,0 c 0.479,-1.229 0.71,-2.724 0.714,-4.13 l 0,0 c 0.029,-8.967 0.036,-17.928 0.036,-26.891 l 0,0 c 0,-6.981 -0.004,-13.967 -0.004,-20.947 l 0,0 -0.012,0 0,-1.5 c 0,-6.231 0,-12.462 0,-18.693 l 0,0 c 0,-10.28 -0.002,-20.561 -0.011,-30.839 l 0,0 c -0.002,-0.97 -0.112,-1.989 -0.261,-3.026 l 0,0 c -0.251,-1.527 -0.677,-2.351 -1.705,-2.747 l 0,0 c -0.172,-0.064 -0.277,-0.077 -0.358,-0.077 l 0,0 c -0.161,0 -0.329,0.05 -0.677,0.331 l 0,0 z"
         inkscape:connector-curvature="0"
         style="fill:#f4f4f4" /></g></g></svg>