<?xml version="1.0" encoding="UTF-8" standalone="no"?>
<!-- Generator: Adobe Illustrator 13.0.0, SVG Export Plug-In . SVG Version: 6.00 Build 14948)  -->

<svg
   xmlns:dc="http://purl.org/dc/elements/1.1/"
   xmlns:cc="http://creativecommons.org/ns#"
   xmlns:rdf="http://www.w3.org/1999/02/22-rdf-syntax-ns#"
   xmlns:svg="http://www.w3.org/2000/svg"
   xmlns="http://www.w3.org/2000/svg"
   xmlns:sodipodi="http://sodipodi.sourceforge.net/DTD/sodipodi-0.dtd"
   xmlns:inkscape="http://www.inkscape.org/namespaces/inkscape"
   version="1.1"
   id="Layer_2"
   x="0px"
   y="0px"
   width="550"
   height="550"
   viewBox="0 0 549.99995 549.99999"
   enable-background="new 0 0 598.189 350.26"
   xml:space="preserve"
   inkscape:version="0.91 r13725"
   sodipodi:docname="controller_gg.svg"><metadata
     id="metadata3083"><rdf:RDF><cc:Work
         rdf:about=""><dc:format>image/svg+xml</dc:format><dc:type
           rdf:resource="http://purl.org/dc/dcmitype/StillImage" /><dc:title /></cc:Work></rdf:RDF></metadata><defs
     id="defs3081" /><sodipodi:namedview
     pagecolor="#ffffff"
     bordercolor="#666666"
     borderopacity="1"
     objecttolerance="10"
     gridtolerance="10"
     guidetolerance="10"
     inkscape:pageopacity="0"
     inkscape:pageshadow="2"
     inkscape:window-width="1920"
     inkscape:window-height="1001"
     id="namedview3079"
     showgrid="false"
     inkscape:zoom="1.0799262"
     inkscape:cx="45.243189"
     inkscape:cy="317.24155"
     inkscape:window-x="-9"
     inkscape:window-y="759"
     inkscape:window-maximized="1"
     inkscape:current-layer="layer4"
     showguides="true"
     inkscape:guide-bbox="true" /><g
     inkscape:groupmode="layer"
     id="layer4"
     inkscape:label="Controller"
     sodipodi:insensitive="true"><g
       id="g5149"
       transform="matrix(0.53179489,-0.35494474,-0.24551809,0.80540179,162.45079,158.68299)"><path
         id="path5057"
         d="m 182.867,338.215 c -14.245,-0.002 -25.792,-11.549 -25.794,-25.794 l 0,0 0,-263.901 c 0.002,-14.245 11.549,-25.792 25.794,-25.794 l 0,0 233.782,0 c 14.245,0.002 25.792,11.549 25.792,25.794 l 0,0 0,263.901 c 0,14.245 -11.547,25.792 -25.792,25.794 l 0,0 -233.782,0 0,0 z M 159.074,48.52 l 0,263.901 c 0.023,13.141 10.653,23.769 23.793,23.792 l 0,0 233.782,0 c 13.141,-0.023 23.769,-10.651 23.792,-23.792 l 0,0 0,-263.901 C 440.418,35.38 429.79,24.751 416.649,24.728 l 0,0 -233.782,0 c -13.14,0.023 -23.77,10.651 -23.793,23.792 l 0,0 z"
         inkscape:connector-curvature="0"
         style="fill:#f4f4f4" /><path
         id="path5059"
         d="m 186.237,194.302 c -0.002,-18.663 4.614,-36.214 12.452,-51.807 l 0,0 c 1.128,-2.507 1.585,-4.7 1.585,-6.701 l 0,0 c 0.006,-4.4 -2.233,-8.056 -5.031,-11.888 l 0,0 c -2.818,-3.89 -8.196,-8.733 -16.787,-19.029 l 0,0 c -5.747,-6.888 -9.485,-15.64 -9.485,-25.361 l 0,0 c 0.002,-21.345 17.305,-38.648 38.65,-38.65 l 0,0 c 14.664,0.002 27.068,8.356 33.937,20.142 l 0,0 c 5.403,9.333 10.979,18.705 17.652,21.122 l 0,0 c 3.67,1.366 6.47,1.841 9.08,1.841 l 0,0 c 2.415,0 4.694,-0.412 7.348,-0.967 l 0,0 c 7.914,-1.655 16.112,-2.651 24.546,-2.651 l 0,0 c 62.933,0.002 113.949,51.019 113.949,113.949 l 0,0 c 0,62.933 -51.017,113.949 -113.949,113.949 l 0,0 c -62.931,0 -113.947,-51.017 -113.947,-113.949 l 0,0 z m 14.257,-50.946 c -7.722,15.35 -12.257,32.598 -12.257,50.945 l 0,0 c 0,30.918 12.529,58.898 32.788,79.16 l 0,0 c 20.263,20.261 48.244,32.788 79.16,32.788 l 0,0 c 30.918,0 58.898,-12.527 79.16,-32.788 l 0,0 c 20.261,-20.262 32.788,-48.244 32.788,-79.16 l 0,0 c 0,-30.916 -12.527,-58.896 -32.788,-79.16 l 0,0 C 359.083,94.882 331.101,82.353 300.185,82.353 l 0,0 c -8.277,0 -16.335,0.976 -24.136,2.607 l 0,0 c -2.677,0.56 -5.11,1.011 -7.757,1.011 l 0,0 c -2.862,0 -5.942,-0.537 -9.778,-1.968 l 0,0 C 250.743,81.034 245.298,71.307 239.832,62.014 l 0,0 C 233.266,50.768 221.501,42.864 207.623,42.867 l 0,0 c -10.125,0 -19.279,4.099 -25.915,10.734 l 0,0 c -6.635,6.635 -10.734,15.79 -10.734,25.914 l 0,0 c 0,9.201 3.529,17.495 9.019,24.081 l 0,0 c 8.535,10.235 13.81,14.944 16.868,19.133 l 0,0 c 2.825,3.879 5.409,7.941 5.413,13.064 l 0,0 c 0.002,2.311 -0.535,4.803 -1.761,7.523 l 0,0 -0.911,-0.41 0.892,0.45 0,0 z"
         inkscape:connector-curvature="0"
         style="fill:#f4f4f4" /><path
         id="path5061"
         d="m 205.704,194.271 c 0.002,-52.179 42.301,-94.479 94.482,-94.479 l 0,0 c 52.181,0 94.479,42.301 94.481,94.479 l 0,0 c -0.002,52.181 -42.301,94.481 -94.481,94.483 l 0,0 c -52.182,-0.002 -94.48,-42.303 -94.482,-94.483 l 0,0 z m 29.088,-65.394 c -16.739,16.739 -27.087,39.852 -27.087,65.393 l 0,0 c 0,25.541 10.349,48.656 27.087,65.396 l 0,0 c 16.737,16.736 39.852,27.088 65.394,27.088 l 0,0 c 25.541,0 48.656,-10.352 65.393,-27.088 l 0,0 c 16.737,-16.739 27.088,-39.854 27.088,-65.396 l 0,0 c 0,-25.541 -10.351,-48.654 -27.088,-65.393 l 0,0 C 348.843,112.14 325.727,101.789 300.186,101.789 l 0,0 c -25.542,0.001 -48.657,10.352 -65.394,27.088 l 0,0 z"
         inkscape:connector-curvature="0"
         style="fill:#f4f4f4" /><path
         id="path5063"
         d="m 253.271,194.271 c 0,-25.909 21.004,-46.912 46.914,-46.914 l 0,0 c 25.911,0.002 46.915,21.005 46.915,46.914 l 0,0 c 0,25.911 -21.004,46.914 -46.915,46.916 l 0,0 c -25.911,-0.002 -46.914,-21.005 -46.914,-46.916 l 0,0 z m 15.155,-31.759 c -8.13,8.132 -13.153,19.354 -13.155,31.759 l 0,0 c 0.002,12.407 5.025,23.629 13.155,31.761 l 0,0 c 8.13,8.128 19.354,13.153 31.759,13.153 l 0,0 c 12.405,0 23.627,-5.025 31.76,-13.153 l 0,0 c 8.13,-8.132 13.155,-19.355 13.155,-31.761 l 0,0 c 0,-12.405 -5.025,-23.627 -13.155,-31.759 l 0,0 c -8.133,-8.128 -19.354,-13.154 -31.76,-13.154 l 0,0 c -12.405,0 -23.629,5.026 -31.759,13.154 l 0,0 z"
         inkscape:connector-curvature="0"
         style="fill:#f4f4f4" /><path
         id="path5065"
         d="m 218.989,194.271 c 0,-44.844 36.353,-81.195 81.196,-81.197 l 0,0 c 44.845,0.002 81.195,36.353 81.197,81.197 l 0,0 c -0.002,44.844 -36.353,81.196 -81.197,81.196 l 0,0 c -44.844,0.001 -81.196,-36.352 -81.196,-81.196 l 0,0 z m 25.197,-56 c -14.334,14.336 -23.197,34.128 -23.197,56 l 0,0 c 0,21.873 8.863,41.664 23.197,55.999 l 0,0 c 14.333,14.334 34.128,23.197 55.999,23.197 l 0,0 c 21.873,0 41.665,-8.863 56.001,-23.197 l 0,0 c 14.332,-14.335 23.194,-34.128 23.194,-55.999 l 0,0 c 0,-21.873 -8.862,-41.665 -23.194,-56 l 0,0 C 341.85,123.937 322.058,115.074 300.185,115.074 l 0,0 c -21.873,0 -41.666,8.863 -55.999,23.197 l 0,0 z"
         inkscape:connector-curvature="0"
         style="fill:#f4f4f4" /><path
         id="path5067"
         d="m 231.354,194.271 c 0.002,-38.014 30.817,-68.829 68.831,-68.832 l 0,0 c 38.013,0.002 68.83,30.817 68.83,68.832 l 0,0 c 0,38.013 -30.817,68.83 -68.83,68.83 l 0,0 c -38.014,10e-4 -68.829,-30.817 -68.831,-68.83 l 0,0 z m 21.575,-47.256 c -12.095,12.098 -19.574,28.799 -19.574,47.257 l 0,0 c 0,18.458 7.479,35.158 19.574,47.255 l 0,0 c 12.097,12.096 28.797,19.574 47.256,19.576 l 0,0 c 18.458,-0.002 35.158,-7.48 47.256,-19.576 l 0,0 c 12.095,-12.097 19.573,-28.799 19.575,-47.255 l 0,0 c -0.002,-18.458 -7.48,-35.159 -19.575,-47.257 l 0,0 c -12.098,-12.095 -28.8,-19.574 -47.256,-19.574 l 0,0 c -18.458,0 -35.159,7.478 -47.256,19.574 l 0,0 z"
         inkscape:connector-curvature="0"
         style="fill:#f4f4f4" /><path
         id="path5069"
         d="m 241.394,194.271 c 0.002,-32.469 26.322,-58.791 58.791,-58.791 l 0,0 c 32.469,0 58.789,26.322 58.789,58.791 l 0,0 0.002,0 c -0.002,32.469 -26.322,58.79 -58.791,58.79 l 0,0 c -32.469,0.001 -58.789,-26.321 -58.791,-58.79 l 0,0 z m 18.635,-40.156 c -10.279,10.279 -16.634,24.471 -16.634,40.156 l 0,0 c 0,15.686 6.354,29.877 16.634,40.156 l 0,0 c 10.279,10.278 24.471,16.634 40.156,16.634 l 0,0 c 15.686,0 29.877,-6.355 40.156,-16.634 l 0,0 c 10.279,-10.279 16.634,-24.471 16.634,-40.156 l 0,0 c 0,-15.686 -6.354,-29.877 -16.634,-40.156 l 0,0 C 330.062,143.836 315.87,137.481 300.185,137.481 l 0,0 c -15.685,0 -29.877,6.355 -40.156,16.634 l 0,0 z"
         inkscape:connector-curvature="0"
         style="fill:#f4f4f4" /><path
         id="path5071"
         d="m 179.625,78.292 c 0.002,-15.497 12.562,-28.057 28.059,-28.059 l 0,0 c 15.498,0.002 28.059,12.562 28.059,28.059 l 0,0 c 0,15.497 -12.562,28.059 -28.059,28.059 l 0,0 c -15.498,0 -28.058,-12.561 -28.059,-28.059 l 0,0 z m 2,0 c 0.025,14.392 11.667,26.033 26.058,26.058 l 0,0 c 14.392,-0.024 26.033,-11.666 26.06,-26.058 l 0,0 C 233.716,63.9 222.075,52.259 207.683,52.234 l 0,0 c -14.391,0.025 -26.033,11.667 -26.058,26.058 l 0,0 z"
         inkscape:connector-curvature="0"
         style="fill:#f4f4f4" /><path
         id="path5073"
         d="m 286.464,228.397 0,-1.001 0.708,-0.708 -0.708,0.708 0,1.001 -0.414,0 -19.99,-19.992 0,-28.271 19.99,-19.988 28.269,0 19.992,19.988 0,28.272 -19.99,19.99 -27.857,0 0,0.001 z m 27.027,-2.001 18.819,-18.82 0,-26.61 -18.819,-18.818 -26.613,0 -18.817,18.816 0,26.612 18.819,18.82 26.611,0 0,0 z"
         inkscape:connector-curvature="0"
         style="fill:#f4f4f4" /><path
         id="path5075"
         d="m 290.8,194.271 c 0,-5.185 4.2,-9.387 9.384,-9.387 l 0,0 c 5.186,0 9.389,4.202 9.389,9.387 l 0,0 c 0,5.186 -4.203,9.386 -9.389,9.386 l 0,0 C 295,203.656 290.8,199.456 290.8,194.271 l 0,0 z m 1.999,0 c 0.008,4.08 3.307,7.379 7.385,7.387 l 0,0 c 4.08,-0.008 7.381,-3.307 7.39,-7.387 l 0,0 c -0.009,-4.079 -3.31,-7.38 -7.39,-7.388 l 0,0 c -4.078,0.008 -7.377,3.308 -7.385,7.388 l 0,0 z"
         inkscape:connector-curvature="0"
         style="fill:#f4f4f4" /><rect
         id="rect5077"
         height="6.1220002"
         width="11.999"
         transform="matrix(0.9659,-0.2588,0.2588,0.9659,-15.3584,74.0813)"
         y="92.311996"
         x="267.686"
         style="fill:#f4f4f4" /><rect
         id="rect5079"
         height="6.1220002"
         width="12"
         transform="matrix(0.9063,-0.4227,0.4227,0.9063,-18.8141,118.0985)"
         y="98.416"
         x="250.91499"
         style="fill:#f4f4f4" /><rect
         id="rect5081"
         height="6.1220002"
         width="11.999"
         transform="matrix(0.8191,-0.5736,0.5736,0.8191,-19.6545,158.4676)"
         y="107.34"
         x="235.459"
         style="fill:#f4f4f4" /><rect
         id="rect5083"
         height="6.1220002"
         width="11.999"
         transform="matrix(0.7071,-0.7071,0.7071,0.7071,-19.4599,196.7648)"
         y="118.812"
         x="221.786"
         style="fill:#f4f4f4" /><rect
         id="rect5085"
         height="6.1220002"
         width="11.999"
         transform="matrix(0.5736,-0.8191,0.8191,0.5736,-18.7931,234.987)"
         y="132.48399"
         x="210.314"
         style="fill:#f4f4f4" /><rect
         id="rect5087"
         height="6.1220002"
         width="11.999"
         transform="matrix(0.4226,-0.9063,0.9063,0.4226,-17.1141,275.1377)"
         y="147.94"
         x="201.39101"
         style="fill:#f4f4f4" /><rect
         id="rect5089"
         height="6.1220002"
         width="11.999"
         transform="matrix(0.2588,-0.9659,0.9659,0.2588,-12.8661,318.7776)"
         y="164.71201"
         x="195.287"
         style="fill:#f4f4f4" /><polygon
         id="polygon5091"
         points="201.759,179.639 200.713,191.593 189.503,191.181 195.155,184.876 195.661,179.104 "
         style="fill:#f4f4f4" /><polygon
         id="polygon5093"
         points="200.713,196.952 201.759,208.906 195.661,209.44 195.081,202.818 189.503,197.303 "
         style="fill:#f4f4f4" /><rect
         id="rect5095"
         height="6.1220002"
         width="12"
         transform="matrix(-0.2588,-0.9659,0.9659,-0.2588,40.1273,472.3364)"
         y="217.71201"
         x="195.286"
         style="fill:#f4f4f4" /><rect
         id="rect5097"
         height="6.1220002"
         width="11.999"
         transform="matrix(-0.4226,-0.9063,0.9063,-0.4226,79.7541,525.895)"
         y="234.483"
         x="201.39101"
         style="fill:#f4f4f4" /><rect
         id="rect5099"
         height="6.1209998"
         width="11.999"
         transform="matrix(-0.5736,-0.8191,0.8191,-0.5736,133.1499,575.3112)"
         y="249.939"
         x="210.314"
         style="fill:#f4f4f4" /><rect
         id="rect5101"
         height="6.1220002"
         width="11.999"
         transform="matrix(-0.7071,-0.7071,0.7071,-0.7071,200.2999,616.3083)"
         y="263.61099"
         x="221.787"
         style="fill:#f4f4f4" /><rect
         id="rect5103"
         height="6.1220002"
         width="11.999"
         transform="matrix(-0.8192,-0.5735,0.5735,-0.8192,279.7355,644.4797)"
         y="275.08401"
         x="235.459"
         style="fill:#f4f4f4" /><rect
         id="rect5105"
         height="6.1199999"
         width="11.999"
         transform="matrix(-0.9063,-0.4226,0.4226,-0.9063,368.4336,655.8184)"
         y="284.008"
         x="250.91499"
         style="fill:#f4f4f4" /><rect
         id="rect5107"
         height="6.1220002"
         width="12"
         transform="matrix(-0.9659,-0.2588,0.2588,-0.9659,462.1759,647.186)"
         y="290.11099"
         x="267.686"
         style="fill:#f4f4f4" /><polygon
         id="polygon5109"
         points="285.553,292.699 297.506,293.745 297.37,303.272 291.31,299.348 285.019,298.798 "
         style="fill:#f4f4f4" /><polygon
         id="polygon5111"
         points="302.866,293.745 314.82,292.699 315.354,298.798 309.128,299.342 303.003,303.272 "
         style="fill:#f4f4f4" /><rect
         id="rect5113"
         height="6.1209998"
         width="12"
         transform="matrix(-0.9659,0.2588,-0.2588,-0.9659,718.1155,491.8113)"
         y="290.112"
         x="320.68701"
         style="fill:#f4f4f4" /><rect
         id="rect5115"
         height="6.1220002"
         width="12"
         transform="matrix(-0.9063,0.4226,-0.4226,-0.9063,776.0536,402.0968)"
         y="284.00699"
         x="337.457"
         style="fill:#f4f4f4" /><rect
         id="rect5117"
         height="6.1209998"
         width="12"
         transform="matrix(-0.8192,0.5736,-0.5736,-0.8192,812.4548,300.1307)"
         y="275.08301"
         x="352.914"
         style="fill:#f4f4f4" /><rect
         id="rect5119"
         height="6.1220002"
         width="12"
         transform="matrix(-0.7071,0.7071,-0.7071,-0.7071,824.6086,191.7797)"
         y="263.61099"
         x="366.58499"
         style="fill:#f4f4f4" /><rect
         id="rect5121"
         height="6.1220002"
         width="12"
         transform="matrix(-0.5736,0.8192,-0.8192,-0.5736,811.587,83.5046)"
         y="249.939"
         x="378.05801"
         style="fill:#f4f4f4" /><rect
         id="rect5123"
         height="6.1220002"
         width="12"
         transform="matrix(-0.4225,0.9063,-0.9063,-0.4225,774.3273,-18.2639)"
         y="234.483"
         x="386.98199"
         style="fill:#f4f4f4" /><rect
         id="rect5125"
         height="6.1220002"
         width="11.999"
         transform="matrix(-0.2588,0.9659,-0.9659,-0.2588,715.6264,-107.5765)"
         y="217.711"
         x="393.08701"
         style="fill:#f4f4f4" /><polygon
         id="polygon5127"
         points="398.613,208.905 399.659,196.952 410.136,197.303 405.271,203.037 404.711,209.439 "
         style="fill:#f4f4f4" /><polygon
         id="polygon5129"
         points="399.659,191.592 398.612,179.639 404.712,179.104 405.197,184.657 410.38,191.304 "
         style="fill:#f4f4f4" /><rect
         id="rect5131"
         height="6.1230001"
         width="11.999"
         transform="matrix(0.2589,0.9659,-0.9659,0.2589,457.8221,-261.1424)"
         y="164.711"
         x="393.08701"
         style="fill:#f4f4f4" /><rect
         id="rect5133"
         height="6.1220002"
         width="11.999"
         transform="matrix(0.4226,0.9063,-0.9063,0.4226,363.7476,-268.9771)"
         y="147.94"
         x="386.98199"
         style="fill:#f4f4f4" /><rect
         id="rect5135"
         height="6.1230001"
         width="12"
         transform="matrix(0.5736,0.8192,-0.8192,0.5736,274.8105,-256.8047)"
         y="132.483"
         x="378.05801"
         style="fill:#f4f4f4" /><rect
         id="rect5137"
         height="6.1230001"
         width="11.999"
         transform="matrix(0.7071,0.7071,-0.7071,0.7071,195.3046,-227.7625)"
         y="118.811"
         x="366.58701"
         style="fill:#f4f4f4" /><rect
         id="rect5139"
         height="6.1230001"
         width="12.001"
         transform="matrix(0.8192,0.5735,-0.5735,0.8192,128.2024,-185.8761)"
         y="107.339"
         x="352.914"
         style="fill:#f4f4f4" /><rect
         id="rect5141"
         height="6.1220002"
         width="11.999"
         transform="matrix(0.9063,0.4226,-0.4226,0.9063,75.0685,-135.6476)"
         y="98.415001"
         x="337.457"
         style="fill:#f4f4f4" /><rect
         id="rect5143"
         height="6.1230001"
         width="11.999"
         transform="matrix(0.9659,0.2588,-0.2588,0.9659,35.8154,-81.3024)"
         y="92.310997"
         x="320.68701"
         style="fill:#f4f4f4" /></g></g></svg>