<?xml version="1.0" encoding="UTF-8" standalone="no"?>
<!-- Generator: Adobe Illustrator 13.0.0, SVG Export Plug-In . SVG Version: 6.00 Build 14948)  -->

<svg
   xmlns:dc="http://purl.org/dc/elements/1.1/"
   xmlns:cc="http://creativecommons.org/ns#"
   xmlns:rdf="http://www.w3.org/1999/02/22-rdf-syntax-ns#"
   xmlns:svg="http://www.w3.org/2000/svg"
   xmlns="http://www.w3.org/2000/svg"
   xmlns:sodipodi="http://sodipodi.sourceforge.net/DTD/sodipodi-0.dtd"
   xmlns:inkscape="http://www.inkscape.org/namespaces/inkscape"
   version="1.1"
   id="Layer_2"
   x="0px"
   y="0px"
   width="550"
   height="550"
   viewBox="0 0 549.99995 549.99999"
   enable-background="new 0 0 598.189 350.26"
   xml:space="preserve"
   inkscape:version="0.91 r13725"
   sodipodi:docname="controller_gg.svg"><metadata
     id="metadata3083"><rdf:RDF><cc:Work
         rdf:about=""><dc:format>image/svg+xml</dc:format><dc:type
           rdf:resource="http://purl.org/dc/dcmitype/StillImage" /><dc:title></dc:title></cc:Work></rdf:RDF></metadata><defs
     id="defs3081" /><sodipodi:namedview
     pagecolor="#ffffff"
     bordercolor="#666666"
     borderopacity="1"
     objecttolerance="10"
     gridtolerance="10"
     guidetolerance="10"
     inkscape:pageopacity="0"
     inkscape:pageshadow="2"
     inkscape:window-width="1920"
     inkscape:window-height="1001"
     id="namedview3079"
     showgrid="false"
     inkscape:zoom="1.0799262"
     inkscape:cx="318.36098"
     inkscape:cy="317.24155"
     inkscape:window-x="-9"
     inkscape:window-y="-9"
     inkscape:window-maximized="1"
     inkscape:current-layer="layer4"
     showguides="true"
     inkscape:guide-bbox="true" /><g
     inkscape:groupmode="layer"
     id="layer2"
     inkscape:label="Screen_Rect"
     style="display:none"
     transform="translate(0,199.73999)"
     sodipodi:insensitive="true"><path
       style="fill:#ffffff;stroke:#000000;stroke-width:1px;stroke-linecap:butt;stroke-linejoin:miter;stroke-opacity:1"
       d="M 5.0135033,547.22203 136.4109,114.39023 653.54628,-189.09358 406.482,260.92121 Z"
       id="path3021"
       inkscape:connector-curvature="0"
       transform="translate(-2e-5,-199.73999)"
       sodipodi:nodetypes="ccccc" /><rect
       style="opacity:0.60100002;fill:#d8201f;fill-opacity:1;stroke:#ff8080;stroke-width:2.45114732;stroke-linecap:round;stroke-linejoin:round;stroke-miterlimit:4;stroke-dasharray:none;stroke-opacity:1"
       id="rect4230"
       width="444.2457"
       height="9.9567661"
       x="145.95099"
       y="-211.30678" /></g><g
     inkscape:groupmode="layer"
     id="layer1"
     inkscape:label="Controller_Vorlage"
     style="display:none"
     sodipodi:insensitive="true"><g
       id="g4929"
       transform="translate(-0.929149,0.5695451)"><g
         transform="translate(0,199.73999)"
         style="display:none"
         inkscape:label="Layer2"
         id="layer2-9"><path
           sodipodi:nodetypes="ccccc"
           transform="translate(-2e-5,-199.73999)"
           inkscape:connector-curvature="0"
           id="path3021-0"
           d="M 5.0135033,547.22203 136.4109,114.39023 653.54628,-189.09358 406.482,260.92121 Z"
           style="fill:#ffffff;stroke:#000000;stroke-width:1px;stroke-linecap:butt;stroke-linejoin:miter;stroke-opacity:1" /></g><g
         inkscape:label="Layer"
         id="layer1-2"><g
           transform="matrix(0.55322035,-0.3970343,-0.34863416,0.85569517,173.63773,166.52161)"
           id="g3100"><path
             style="fill:#f4f4f4"
             inkscape:connector-curvature="0"
             id="path3"
             d="m 148.05,114.447 c -23.656,0 -42.861,19.204 -42.861,42.861 l 0,37.414 c 0,23.658 19.205,42.86 42.861,42.86 l 38.694,0 c 23.656,0 42.861,-19.202 42.861,-42.86 l 0,-37.414 c 0,-23.657 -19.205,-42.861 -42.861,-42.861 l -38.694,0 z m 0,1.905 38.694,0 c 22.627,0 40.956,18.328 40.956,40.956 l 0,37.414 c 0,22.629 -18.329,40.956 -40.956,40.956 l -38.694,0 c -22.628,0 -40.956,-18.327 -40.956,-40.956 l 0,-37.414 c 0,-22.629 18.328,-40.956 40.956,-40.956 z" /><path
             style="fill:#f4f4f4"
             inkscape:connector-curvature="0"
             id="path5"
             d="m 167.395,123.168 c -3.23,0 -5.863,2.633 -5.863,5.864 l 0,13.037 c 0,3.23 2.632,5.863 5.863,5.863 3.23,0 5.863,-2.633 5.863,-5.863 l 0,-13.037 c 0,-3.23 -2.633,-5.864 -5.863,-5.864 z m 0,1.906 c 2.201,0 3.958,1.758 3.958,3.958 l 0,13.037 c 0,2.2 -1.758,3.958 -3.958,3.958 -2.202,0 -3.958,-1.758 -3.958,-3.958 l 0,-13.037 c -0.001,-2.2 1.757,-3.958 3.958,-3.958 z" /><path
             style="fill:#f4f4f4"
             inkscape:connector-curvature="0"
             id="path7"
             d="m 120.425,170.135 c -3.23,0 -5.864,2.633 -5.864,5.864 0,3.231 2.632,5.894 5.864,5.894 l 13.037,0 c 3.229,0 5.864,-2.662 5.864,-5.894 0,-3.229 -2.633,-5.864 -5.864,-5.864 l -13.037,0 z m 0,1.905 13.037,0 c 2.201,0 3.959,1.759 3.959,3.959 0,2.201 -1.759,3.988 -3.959,3.988 l -13.037,0 c -2.198,-0.01 -3.955,-1.791 -3.955,-3.99 0,-2.201 1.758,-3.959 3.958,-3.959 l -0.003,0.002 z" /><path
             style="fill:#f4f4f4"
             inkscape:connector-curvature="0"
             id="path9"
             d="m 167.395,204.071 c -3.23,0 -5.863,2.663 -5.863,5.894 l 0,13.038 c 0,3.229 2.632,5.863 5.863,5.863 3.23,0 5.863,-2.633 5.863,-5.863 l 0,-13.038 c 0,-3.23 -2.633,-5.894 -5.863,-5.894 z m 0,1.906 c 2.201,0 3.958,1.789 3.958,3.988 l 0,13.038 c 0,2.2 -1.757,3.958 -3.958,3.958 -2.202,0 -3.958,-1.759 -3.958,-3.958 l 0,-13.038 c -0.001,-2.2 1.757,-3.988 3.958,-3.988 z" /><path
             style="fill:#f4f4f4"
             inkscape:connector-curvature="0"
             id="path11"
             d="m 201.321,170.135 c -3.229,0 -5.863,2.633 -5.863,5.864 0,3.231 2.633,5.894 5.863,5.894 l 13.067,0 c 3.229,0 5.863,-2.662 5.863,-5.894 0,-3.229 -2.633,-5.864 -5.863,-5.864 l -13.067,0 z m 0,1.905 13.067,0 c 2.2,0 3.958,1.76 3.958,3.959 0,2.201 -1.758,3.988 -3.958,3.988 l -13.067,0 c -2.2,0 -3.958,-1.788 -3.958,-3.988 0,-2.2 1.759,-3.959 3.958,-3.959 z" /><path
             style="fill:#f4f4f4"
             inkscape:connector-curvature="0"
             id="polygon13"
             d="m 133.878,141.176 -1.31,1.31 8.155,12.025 0.655,0.952 0.804,-0.803 3.869,-3.87 0.804,-0.804 -0.953,-0.655 -12.024,-8.155 z" /><path
             style="fill:#f4f4f4"
             inkscape:connector-curvature="0"
             id="polygon15"
             d="m 141.383,196.566 -0.654,0.952 -8.156,12.024 1.31,1.31 12.025,-8.155 0.953,-0.654 -0.804,-0.804 -3.87,-3.869 -0.804,-0.804 z" /><path
             style="fill:#f4f4f4"
             inkscape:connector-curvature="0"
             id="polygon17"
             d="m 193.435,196.566 -0.804,0.804 -3.869,3.869 -0.833,0.804 0.953,0.654 12.025,8.155 1.339,-1.31 -8.156,-12.024 -0.655,-0.952 0,0 z" /><path
             style="fill:#f4f4f4"
             inkscape:connector-curvature="0"
             id="polygon19"
             d="m 200.912,141.176 -12.025,8.155 -0.953,0.655 0.833,0.804 3.87,3.87 0.804,0.803 0.655,-0.952 8.155,-12.025 -1.339,-1.31 z" /><path
             style="fill:#f4f4f4"
             inkscape:connector-curvature="0"
             id="path21"
             d="m 146.354,104.833 c -27.67,0 -50.123,22.453 -50.123,50.124 l 0,42.117 c 0,27.671 22.453,50.123 50.123,50.123 l 42.117,0 c 27.671,0 50.124,-22.452 50.124,-50.123 l 0,-42.117 c 0,-27.67 -22.452,-50.124 -50.124,-50.124 l -42.117,0 z m 0,1.906 42.117,0 c 26.644,0 48.219,21.577 48.219,48.218 l 0,42.117 c 0,26.644 -21.577,48.218 -48.219,48.218 l -42.117,0 c -26.642,0 -48.218,-21.574 -48.218,-48.218 l 0,-42.117 c 0,-26.642 21.577,-48.218 48.218,-48.218 z" /><path
             style="fill:#f4f4f4"
             inkscape:connector-curvature="0"
             id="polygon23"
             d="m 69.499,75.694 0,0.952 0,202.961 0,0.952 0.953,0 196.122,0 0.952,0 0,-0.952 0,-26.401 289.521,0 0.952,0 0,-0.952 0,-113.458 0,-0.953 -0.952,0 -289.522,0 0,-61.196 0,-0.952 -0.952,0 -196.122,0 -0.952,-10e-4 0,0 z m 1.904,1.905 194.217,0 0,61.196 0,0.953 0.953,0 0.714,0 288.807,0 0,111.552 -289.226,0 -0.297,0 -0.953,0 0,0.953 0,26.4 -194.217,0 0,-201.055 0.002,0.001 z" /><path
             style="fill:#f4f4f4"
             inkscape:connector-curvature="0"
             id="circle25"
             d="m 400.692,169.126 c -19.762,0 -35.777,16.046 -35.777,35.807 0,19.761 16.018,35.807 35.777,35.807 19.759,0 35.807,-16.046 35.807,-35.807 0,-19.761 -16.047,-35.807 -35.807,-35.807 l 0,0 z m 0,1.905 c 18.73,0 33.901,15.17 33.901,33.902 0,18.732 -15.171,33.902 -33.901,33.902 -18.731,0 -33.872,-15.171 -33.872,-33.902 0,-18.731 15.141,-33.902 33.872,-33.902 l 0,0 z" /><path
             style="fill:#f4f4f4"
             inkscape:connector-curvature="0"
             id="circle27"
             d="m 400.692,177.669 c -15.039,0 -27.234,12.227 -27.234,27.265 0,15.038 12.195,27.234 27.234,27.234 15.036,0 27.264,-12.196 27.264,-27.234 0,-15.038 -12.227,-27.265 -27.264,-27.265 z m 0,1.905 c 14.008,0 25.359,11.351 25.359,25.359 0,14.008 -11.352,25.33 -25.359,25.33 -14.01,0 -25.33,-11.321 -25.33,-25.33 0,-14.009 11.321,-25.359 25.33,-25.359 z" /><path
             style="fill:#f4f4f4"
             inkscape:connector-curvature="0"
             id="circle29"
             d="m 489.919,169.126 c -19.762,0 -35.807,16.046 -35.807,35.807 0,19.761 16.045,35.807 35.807,35.807 19.76,0 35.807,-16.046 35.807,-35.807 0,-19.761 -16.047,-35.807 -35.807,-35.807 l 0,0 z m 0,1.905 c 18.73,0 33.901,15.17 33.901,33.902 0,18.732 -15.171,33.902 -33.901,33.902 -18.731,0 -33.902,-15.171 -33.902,-33.902 0,-18.731 15.171,-33.902 33.902,-33.902 l 0,0 z" /><path
             style="fill:#f4f4f4"
             inkscape:connector-curvature="0"
             id="circle31"
             d="m 489.919,177.669 c -15.039,0 -27.234,12.227 -27.234,27.265 0,15.038 12.195,27.234 27.234,27.234 15.036,0 27.234,-12.196 27.234,-27.234 0,-15.038 -12.196,-27.265 -27.234,-27.265 z m 0,1.905 c 14.008,0 25.329,11.351 25.329,25.359 0,14.008 -11.321,25.33 -25.329,25.33 -14.01,0 -25.33,-11.321 -25.33,-25.33 0,-14.009 11.32,-25.359 25.33,-25.359 z" /><path
             style="fill:#f4f4f4"
             inkscape:connector-curvature="0"
             id="path33"
             d="m 39.406,68.432 c -4.766,0 -8.662,3.896 -8.662,8.662 l 0,203.084 c 0,4.766 3.897,8.661 8.662,8.661 l 518.646,0 c 4.429,0 7.956,-3.411 8.453,-7.709 l 0.179,0 0,-0.952 0,-203.085 c 0,-4.762 -3.868,-8.658 -8.64,-8.658 l -518.645,0 0.007,-0.003 z m 0,1.904 518.646,0 c 3.737,0 6.727,3.021 6.727,6.757 l 0,202.131 0,0.953 c 0,3.736 -2.989,6.756 -6.727,6.756 l -518.646,0 c -3.732,0.01 -6.753,-3.019 -6.753,-6.753 l 0,-203.083 c 0,-3.736 3.02,-6.756 6.756,-6.756 l -0.003,-0.005 z" /><path
             style="fill:#f4f4f4"
             inkscape:connector-curvature="0"
             id="rect35"
             d="m 359.021,163.559 0,0.953 0,81.465 0,0.952 0.953,0 81.465,0 0.953,0 0,-0.952 0,-81.465 0,-0.953 -0.953,0 -81.465,0 -0.953,0 z m 1.906,1.905 79.561,0 0,79.56 -79.561,0 0,-79.56 z" /><path
             style="fill:#f4f4f4"
             inkscape:connector-curvature="0"
             id="rect37"
             d="m 448.248,163.559 0,0.953 0,81.465 0,0.952 0.953,0 81.436,0 0.952,0 0,-0.952 0,-81.465 0,-0.953 -0.952,0 -81.436,0 -0.953,0 z m 1.905,1.905 79.531,0 0,79.56 -79.531,0 0,-79.56 z" /><path
             style="fill:#f4f4f4"
             inkscape:connector-curvature="0"
             id="polyline39"
             d="m 83.934,94.177 0,2.292 0,159.061 0,2.322 1.607,-1.638 25.33,-25.299 -1.369,-1.369 -23.663,23.692 0,-154.45 23.663,23.658 1.369,-1.34 -25.33,-25.299 -1.607,-1.637 0,0.007 z" /><path
             style="fill:#f4f4f4"
             inkscape:connector-curvature="0"
             id="polyline41"
             d="m 222.305,232.551 -1.37,1.339 23.693,23.692 -154.452,0 23.574,-23.573 -1.369,-1.339 -25.181,25.182 -1.637,1.637 2.292,0 159.062,0 2.292,0 -1.607,-1.637 -25.299,-25.3 0.002,-0.001 z" /><path
             style="fill:#f4f4f4"
             inkscape:connector-curvature="0"
             id="polyline43"
             d="m 250.878,94.177 -1.637,1.637 -25.211,25.182 1.369,1.369 23.574,-23.603 0,154.509 -23.633,-23.663 -1.339,1.34 25.24,25.27 1.637,1.638 0,-2.322 0,-159.063 0,-2.292 0,-0.002 z" /><path
             style="fill:#f4f4f4"
             inkscape:connector-curvature="0"
             id="polyline45"
             d="m 85.57,92.54 1.638,1.608 25.21,25.24 1.339,-1.34 -23.572,-23.602 154.452,0 -23.669,23.662 1.333,1.339 25.307,-25.3 1.607,-1.607 -2.292,0 -159.062,0 -2.291,0 0,0 z" /><path
             style="fill:#f4f4f4"
             inkscape:connector-curvature="0"
             id="line47"
             d="m 58.961,69.533 0,218.057 1.905,0 0,-218.057 -1.905,0 z" /><path
             style="fill:#f4f4f4"
             inkscape:connector-curvature="0"
             id="rect49"
             d="m 359.021,145.819 0,0.953 0,13.244 0,0.953 0.953,0 81.465,0 0.953,0 0,-0.953 0,-13.244 0,-0.953 -0.953,0 -81.465,0 -0.953,0 z m 1.906,1.905 79.561,0 0,11.339 -79.561,0 0,-11.339 z" /><path
             style="fill:#f4f4f4"
             inkscape:connector-curvature="0"
             id="rect51"
             d="m 448.248,145.819 0,0.953 0,13.244 0,0.953 0.953,0 81.436,0 0.952,0 0,-0.953 0,-13.244 0,-0.953 -0.952,0 -81.436,0 -0.953,0 z m 1.905,1.905 79.531,0 0,11.339 -79.531,0 0,-11.339 z" /><path
             style="fill:#f4f4f4"
             inkscape:connector-curvature="0"
             id="path53"
             d="m 276.804,73.134 c -0.987,0 -1.815,0.828 -1.815,1.816 l 0,53.01 c 0,0.988 0.829,1.815 1.815,1.815 l 282.855,0 c 0.985,0 1.785,-0.831 1.785,-1.815 l 0,-50.033 c 0,-2.641 -2.152,-4.792 -4.792,-4.792 l -279.844,0 -0.004,0 z m 0.09,1.906 279.756,0 c 1.613,0 2.888,1.275 2.888,2.887 l 0,49.945 -282.643,0 0,-52.832 -10e-4,0 z" /><path
             style="fill:#f4f4f4"
             inkscape:connector-curvature="0"
             id="path55"
             d="m 276.804,260.41 c -0.987,0 -1.815,0.829 -1.815,1.815 l 0,20.091 c 0,0.987 0.829,1.816 1.815,1.816 l 279.844,0 c 2.64,0 4.792,-2.183 4.792,-4.822 l 0,-17.085 c 0,-0.985 -0.8,-1.815 -1.785,-1.815 l -282.855,0 0.004,0 z m 0.09,1.905 282.645,0 0,16.995 c 0,1.611 -1.276,2.917 -2.888,2.917 l -279.758,0 0.001,-19.912 0,0 z" /><path
             style="fill:#f4f4f4"
             inkscape:connector-curvature="0"
             id="line57"
             d="m 274.461,129.271 -6.28,6.28 1.369,1.339 6.251,-6.25 -1.34,-1.369 z" /><path
             style="fill:#f4f4f4"
             inkscape:connector-curvature="0"
             id="line59"
             d="m 269.546,253.866 -1.369,1.34 6.281,6.28 1.339,-1.369 -6.251,-6.251 z" /></g></g></g></g><g
     inkscape:groupmode="layer"
     id="layer4"
     inkscape:label="Controller"
     style="display:inline"><g
       id="g5330"
       transform="matrix(0.54481507,-0.36743482,-0.28634924,0.80240317,175.53315,167.39489)"><path
         d="m 407.349,51.894 -0.313,0.531 -6,9.281 1.688,1.094 5.656,-8.781 91.5,9.906 3.375,8.188 1.844,-0.75 -3.594,-8.75 -0.219,-0.563 -0.594,-0.063 -92.719,-10.031 -0.624,-0.062 z"
         id="polyline3-8"
         inkscape:connector-curvature="0"
         style="fill:#f4f4f4" /><path
         d="m 398.505,58.456 -380.782,20.875 -0.406,0.031 -0.281,0.313 -9.813,11.531 -0.25,0.281 0,0.375 0,49.594 0,39.344 0,49.594 0,0.375 0.25,0.281 9.813,11.531 0.281,0.313 0.406,0.031 380.782,20.875 0.375,0.031 0.313,-0.25 17.656,-13.813 78.625,-5.813 12.656,11.469 0.406,0.375 0.5,-0.125 5.906,-1.469 0.313,-0.094 0.188,-0.25 7.625,-8.813 0.125,-0.156 0.063,-0.188 4.906,-14.719 0.063,-0.156 0,-0.188 0,-4.156 0,-1 -0.531,0 0,-0.594 0.531,0 0,-1 0,-59.091 0,-5.344 0,-59.094 0,-1 -0.531,0 0,-0.594 0.531,0 0,-1 0,-4.156 0,-0.156 -0.063,-0.156 -4.906,-14.75 -0.063,-0.188 -0.125,-0.125 -7.625,-8.844 -0.188,-0.25 -0.313,-0.094 -5.906,-1.469 -0.5,-0.125 -0.406,0.375 -12.688,11.5 -78.594,-5.844 -17.656,-13.813 -0.313,-0.219 -0.374,0 0,0.002 z m -0.25,2.031 17.625,13.75 0.25,0.188 0.281,0.031 79.313,5.875 0.406,0.031 0.344,-0.281 12.625,-11.438 5.094,1.313 7.219,8.406 4.813,14.469 0,2.938 -0.531,0 0,1 0,2.594 0,1 0.531,0 0,58.094 0,5.344 0,58.094 -0.531,0 0,1 0,2.594 0,1 0.531,0 0,2.938 -4.813,14.438 -7.25,8.469 -5.063,1.281 -12.625,-11.438 -0.344,-0.281 -0.406,0.031 -79.313,5.875 -0.281,0.031 -0.25,0.188 -17.625,13.75 -379.969,-20.815 -9.313,-10.938 0,-49.218 0,-39.344 0,-49.219 L 18.286,81.3 398.255,60.487 Z"
         id="polygon5"
         inkscape:connector-curvature="0"
         style="fill:#f4f4f4" /><path
         d="m 503.255,250.144 -3.375,8.188 -91.5,9.906 -5.656,-8.781 -1.688,1.094 6,9.313 0.313,0.5 0.625,-0.063 92.719,-10.031 0.594,-0.063 0.219,-0.563 3.594,-8.75 -1.845,-0.75 z"
         id="polyline7-6"
         inkscape:connector-curvature="0"
         style="fill:#f4f4f4" /><path
         d="m 401.692,91.831 -386.594,5.25 -0.094,0 -0.125,0 -5.969,1.5 -0.781,0.188 0,0.781 0,41.5 0,40.156 0,41.5 0,0.813 0.781,0.188 5.969,1.469 0.125,0.031 0.094,0 386.594,5.25 0.031,0 125,-3.969 -0.063,-2 -124.938,3.969 -0.063,0 -386.438,-5.25 -5.094,-1.281 0,-40.719 0,-40.157 0,-40.719 5.094,-1.25 386.438,-5.25 0.063,0 124.938,3.938 0.063,-2 -125,-3.938 -0.031,0 0,0 z"
         id="polyline9"
         inkscape:connector-curvature="0"
         style="fill:#f4f4f4" /><path
         d="m 273.879,95.144 -1.031,0.031 -257.781,3.187 -0.125,0 -0.125,0.031 -5.906,1.719 0.563,1.906 5.625,-1.656 0.063,0 256.719,-3.188 0,37.906 0,52.094 0,37.906 -256.719,-3.188 -0.063,0 -5.625,-1.656 -0.563,1.906 5.906,1.719 0.125,0.031 0.125,0 257.781,3.188 1.031,0.031 0,-1.031 0,-38.906 0,-52.094 0,-38.905 0,-1.031 0,0 z"
         id="polyline11"
         inkscape:connector-curvature="0"
         style="fill:#f4f4f4" /><g
         id="g13"><path
           id="path5292"
           d="m 281.418,226.729 -7.46,-7.463 0.002,-32.573 0,-4.283 9.912,-0.002 0,-1.219 -9.912,0 0,-4.119 9.912,-0.002 0,-1.22 -9.912,0 0,-4.763 9.91,0 0,-1.222 -9.91,0 0,-4.853 9.912,0 0,-1.224 -9.912,0 0,-4.393 9.912,0 0,-1.224 -9.912,0 0,-4.208 9.91,-0.002 0,-1.219 -9.91,0 0,-4.579 9.91,0 0,-1.222 -9.91,0 0,-4.578 9.91,0 0,-1.222 -9.91,0 0,-4.396 9.91,0 0,-1.222 -9.912,0 0,-32.532 7.46,-7.458 110.2,0 8.32,8.316 0,31.674 -10.957,0 0,1.222 10.955,0 0,4.396 -10.955,0 0,1.222 10.955,0 0,4.578 -10.955,0 0,1.222 10.955,0 0,4.579 -10.955,0 0,1.221 10.955,0 0,4.208 -10.955,0 0,1.224 10.955,0 0,4.393 -10.955,0 0,1.224 10.955,0 0,4.853 -10.955,0 0,1.222 10.955,0 0,4.763 -10.955,-0.002 0,1.224 10.955,0 0,4.119 -10.955,0 0,1.221 10.957,0 0,5.021 0,30.979 -8.32,8.32 -110.2,0 0,-10e-4 z m -5.459,-40.037 0,31.745 6.287,6.289 108.544,0 7.146,-7.148 0,-30.148 0,-3.021 -10.955,0 0,-4.222 0,-1.002 10.955,0 0,-0.116 -10.955,0 0,-5.223 10.957,0 0,-0.762 -10.957,0 0,-5.222 10.957,0 0,-0.853 -10.957,0 0,-5.224 10.957,0 0,-0.394 -10.957,0 0,-5.223 10.955,0 0,-0.208 -10.955,0 0,-5.221 10.955,0 0,-0.579 -10.955,0 0,-5.222 10.955,-0.002 0,-0.577 -10.955,0 0,-5.221 10.957,-0.002 0,-0.394 -10.957,0 0,-5.222 10.955,0 0,-28.844 -7.146,-7.146 -108.543,0 -6.289,6.287 0,29.704 9.912,0 0,5.222 -9.912,0 0,0.396 9.912,0 0,5.221 -9.912,0 0,0.579 9.912,0 0,5.222 -9.912,0 0,0.579 9.912,0 0,5.221 -9.912,0 0,0.208 9.912,0 0,5.223 -9.912,0 0,0.394 9.912,0 0,5.224 -9.912,0 0,0.853 9.912,0 0,5.222 -9.912,0 0,0.762 9.912,0 0,5.223 -9.912,0 0,0.116 9.912,0 0,5.224 -9.912,0 10e-4,2.282 0,0 z"
           inkscape:connector-curvature="0"
           style="fill:#f4f4f4" /></g><g
         id="g17"><path
           id="path5295"
           d="m 401.804,95.75 8.444,0.234 0,128.288 -7.418,0.184 -0.025,-0.999 0.025,0.999 -1.026,0.023 0,-128.729 0,0 z m 2.002,126.681 4.44,-0.109 0,-124.393 -4.44,-0.125 0,124.627 0,0 z m 7.021,-126.428 7.982,0.222 0,127.833 -6.956,0.174 -0.025,-0.999 0.025,0.999 -1.026,0.025 0,-128.254 0,0 z m 2.002,126.204 3.982,-0.1 0,-123.937 -3.982,-0.112 0,124.149 0,0 z m 6.559,-125.965 7.985,0.222 0,127.38 -6.959,0.175 -0.025,-0.998 0.025,0.998 -1.026,0.025 0,-127.802 0,0 z m 2.002,125.751 3.983,-0.101 0,-123.481 -3.983,-0.112 0,123.694 0,0 z m 6.561,-125.511 7.982,0.222 0,126.926 -6.958,0.174 -0.023,-0.999 0.023,0.999 -1.024,0.025 0,-127.347 0,0 z m 2,125.298 3.982,-0.099 0,-123.03 -3.982,-0.112 0,123.241 0,0 z m 6.562,-125.059 7.986,0.224 0,126.472 -6.961,0.176 -0.025,-1.001 0.025,1.001 -1.025,0.025 0,-126.897 0,0 z m 2.001,124.845 3.983,-0.101 0,-122.575 -3.983,-0.112 0,122.788 0,0 z m 6.561,-124.604 7.984,0.224 0,126.018 -6.958,0.173 -0.025,-0.999 0.025,0.999 -1.026,0.023 0,-126.438 0,0 z m 2.002,124.39 3.98,-0.099 0,-122.122 -3.98,-0.112 0,122.333 0,0 z m 6.56,-124.149 7.984,0.222 0,125.565 -6.958,0.174 -0.025,-0.999 0.025,0.999 -1.026,0.025 0,-125.986 0,0 z m 2.002,123.936 3.982,-0.1 0,-121.67 -3.982,-0.112 0,121.882 0,0 z m 6.56,-123.696 7.984,0.222 0,125.112 -6.96,0.173 -0.023,-0.999 0.023,0.999 -1.024,0.025 0,-125.532 0,0 z m 2,123.484 3.985,-0.101 0,-121.216 -3.985,-0.109 0,121.426 0,0 z m 6.56,-123.245 7.984,0.222 0,124.66 -6.959,0.174 -0.024,-0.999 0.024,0.999 -1.025,0.025 0,-125.081 0,0 z m 2.002,123.032 3.982,-0.099 0,-120.766 -3.982,-0.112 0,120.977 0,0 z m 6.562,-122.793 7.984,0.224 0,124.206 -6.96,0.173 -0.025,-0.998 0.025,0.998 -1.024,0.025 0,-124.628 0,0 z m 1.998,122.577 3.984,-0.099 0,-120.31 -3.984,-0.112 0,120.521 0,0 z m 6.564,-122.336 7.984,0.222 0,123.754 -6.96,0.173 -0.023,-0.999 0.023,0.999 -1.024,0.023 0,-124.172 0,0 z m 2,122.123 3.984,-0.099 0,-119.856 -3.984,-0.112 0,120.067 0,0 z m 6.562,-121.883 7.982,0.222 0,123.3 -6.958,0.174 -0.023,-0.999 0.023,0.999 -1.024,0.025 0,-123.721 0,0 z m 2,121.67 3.983,-0.1 0,-119.401 -3.983,-0.112 0,119.613 0,0 z m 6.562,-121.431 7.982,0.222 0,122.847 -6.958,0.175 -0.025,-0.999 0.025,0.999 -1.024,0.023 0,-123.267 0,0 z m 1.998,121.217 3.984,-0.099 0,-118.949 -3.984,-0.112 0,119.16 0,0 z m 6.562,-119.948 0,-1.029 8.447,0.234 0,122.369 -8.447,0.21 0,-121.784 0,0 z m 2,119.734 4.445,-0.107 0,-118.474 -4.443,-0.125 -0.002,118.706 0,0 z m -1.026,-118.735 0.027,-0.999 -0.027,0.999 0,0 z"
           inkscape:connector-curvature="0"
           style="fill:#f4f4f4" /></g><path
         d="m 390.505,95.8 -20.438,19.594 1.406,1.438 20.438,-19.563 -1.406,-1.469 z"
         id="line21"
         inkscape:connector-curvature="0"
         style="fill:#f4f4f4" /><path
         d="m 282.504,95.8 -1.344,1.469 21.157,19.563 1.375,-1.469 L 282.504,95.8 Z"
         id="line23"
         inkscape:connector-curvature="0"
         style="fill:#f4f4f4" /><path
         d="m 302.317,205.425 -21.157,19.563 1.344,1.469 21.188,-19.563 -1.375,-1.469 z"
         id="line25"
         inkscape:connector-curvature="0"
         style="fill:#f4f4f4" /><path
         d="m 371.474,205.425 -1.406,1.438 20.438,19.594 1.406,-1.438 -20.438,-19.594 z"
         id="line27"
         inkscape:connector-curvature="0"
         style="fill:#f4f4f4" /><path
         d="m 398.13,103.675 -16.844,23.156 1.625,1.188 16.844,-23.156 -1.625,-1.188 z"
         id="line29"
         inkscape:connector-curvature="0"
         style="fill:#f4f4f4" /><path
         d="m 275.817,102.894 -1.719,1.031 15.531,25.219 1.719,-1.031 -15.531,-25.219 z"
         id="line31"
         inkscape:connector-curvature="0"
         style="fill:#f4f4f4" /><path
         d="m 289.629,193.112 -15.531,25.219 1.719,1.031 15.531,-25.219 -1.719,-1.031 z"
         id="line33"
         inkscape:connector-curvature="0"
         style="fill:#f4f4f4" /><path
         d="m 382.911,194.237 -1.625,1.188 16.844,23.156 1.625,-1.188 -16.844,-23.156 z"
         id="line35"
         inkscape:connector-curvature="0"
         style="fill:#f4f4f4" /><path
         d="m 336.349,112.706 c -26.879,0 -48.688,21.809 -48.688,48.688 0,26.878 21.809,48.688 48.688,48.688 26.877,0 48.688,-21.81 48.688,-48.688 -10e-4,-26.879 -21.811,-48.688 -48.688,-48.688 z m 0,2 c 25.797,0 46.688,20.89 46.688,46.688 0,25.797 -20.891,46.688 -46.688,46.688 -25.798,0 -46.688,-20.891 -46.688,-46.688 0,-25.798 20.89,-46.688 46.688,-46.688 z"
         id="circle37"
         inkscape:connector-curvature="0"
         style="fill:#f4f4f4" /><g
         id="g39"><path
           id="path5307"
           d="m 352.864,207.148 -0.347,-1.938 c 13.755,-5.082 24.455,-16.47 28.612,-30.646 l 0,0 1.961,0.283 0,20.393 -11.911,11.909 -18.315,0 0,-0.001 z m 4.868,-2.001 12.619,-0.002 10.737,-10.737 0,-13.829 c -4.596,10.721 -12.923,19.455 -23.356,24.568 l 0,0 z m -55.143,2.001 -13.103,-13.109 0,-19.519 1.962,-0.274 c 4.09,14.324 14.843,25.842 28.701,30.963 l 0,0 -0.348,1.938 -17.212,0 0,0.001 z m -11.101,-13.936 11.934,11.937 11.514,0 C 304.432,200 296.063,191.178 291.487,180.355 l 0,0 10e-4,12.857 0,0 z m -1.962,-18.417 0.961,-0.274 -0.961,0.274 0,0 z m -0.04,-26.505 0,-19.658 0,-0.415 13.104,-13.107 18.825,0 0.313,1.95 c -14.615,4.81 -26.038,16.642 -30.281,31.504 l 0,0 -1.961,-0.274 0,0 z m 2,-5.832 c 4.747,-11.226 13.578,-20.294 24.639,-25.348 l 0,0 -12.705,0 -11.934,11.936 0,13.412 0,0 z m 59.452,-25.398 0.313,-1.95 19.515,0 0,0.999 -0.708,0.708 0.708,-0.708 0,-0.999 0.413,0 11.909,11.909 0,20.948 -1.959,0.28 c -4.313,-14.714 -15.681,-26.414 -30.191,-31.187 l 0,0 z m 30.152,25.176 -10e-4,-14.387 -10.737,-10.74 -13.809,0 c 10.986,5.02 19.777,14.005 24.547,25.127 l 0,0 z"
           inkscape:connector-curvature="0"
           style="fill:#f4f4f4" /></g><path
         id="path5309"
         d="M 527.093,174.203"
         inkscape:connector-curvature="0"
         style="fill:#f4f4f4" /><path
         d="m 534.38,173.206 0,2 6.5,0 0,-2 -6.5,0 z"
         id="line45"
         inkscape:connector-curvature="0"
         style="fill:#f4f4f4" /><path
         d="m 547.849,173.206 0,2 6.5,0 0,-2 -6.5,0 z"
         id="line47-5"
         inkscape:connector-curvature="0"
         style="fill:#f4f4f4" /><path
         d="m 561.317,173.206 0,2 6.5,0 0,-2 -6.5,0 z"
         id="line49-1"
         inkscape:connector-curvature="0"
         style="fill:#f4f4f4" /><path
         d="m 574.817,173.206 0,2 6.531,0 0,-2 -6.531,0 z"
         id="line51"
         inkscape:connector-curvature="0"
         style="fill:#f4f4f4" /><path
         d="m 588.255,173.206 0,2 6.531,0 0,-2 -6.531,0 z"
         id="line53"
         inkscape:connector-curvature="0"
         style="fill:#f4f4f4" /><path
         d="m 588.411,154.987 0,2 6.375,0 0,-2 -6.375,0 z"
         id="line55"
         inkscape:connector-curvature="0"
         style="fill:#f4f4f4" /><path
         d="m 574.911,154.987 0,2 6.5,0 0,-2 -6.5,0 z"
         id="line57-7"
         inkscape:connector-curvature="0"
         style="fill:#f4f4f4" /><path
         d="m 561.349,154.987 0,2 6.594,0 0,-2 -6.594,0 z"
         id="line59-9"
         inkscape:connector-curvature="0"
         style="fill:#f4f4f4" /><path
         d="m 547.88,154.987 0,2 6.563,0 0,-2 -6.563,0 z"
         id="line61"
         inkscape:connector-curvature="0"
         style="fill:#f4f4f4" /><path
         d="m 534.442,154.987 0,2 6.469,0 0,-2 -6.469,0 z"
         id="line63"
         inkscape:connector-curvature="0"
         style="fill:#f4f4f4" /><path
         id="path5321"
         d="M 527.093,155.976"
         inkscape:connector-curvature="0"
         style="fill:#f4f4f4" /><g
         id="g67"><path
           id="path5324"
           d="m 526.091,147.933 9.241,0.405 0,33.498 -8.196,0.362 -0.043,-1 0.043,1 -1.045,0.045 0,-34.31 0,0 z m 2.002,32.219 5.239,-0.231 0,-29.668 -5.239,-0.23 0,30.129 0,0 z m 11.748,-31.613 8.964,0.396 0,32.303 -7.921,0.352 -0.043,-0.997 0.043,0.997 -1.043,0.047 0,-33.098 0,0 z m 1.998,31.007 4.966,-0.22 0,-28.479 -4.966,-0.22 0,28.919 0,0 z m 11.473,-30.415 8.966,0.396 0,31.118 -7.923,0.352 -0.043,-0.999 0.043,0.999 -1.043,0.045 0,-31.911 0,0 z m 1.998,29.82 4.968,-0.22 0,-27.289 -4.968,-0.22 0,27.729 0,0 z m 11.472,-29.223 8.968,0.395 0,29.93 -7.923,0.35 -0.043,-0.997 0.043,0.997 -1.045,0.047 0,-30.722 0,0 z m 2.002,28.628 4.966,-0.218 0,-26.102 -4.966,-0.22 0,26.54 0,0 z m 11.469,-28.035 8.968,0.396 0,28.739 -7.923,0.352 -0.043,-0.998 0.043,0.998 -1.045,0.047 0,-29.534 0,0 z m 2.002,27.443 4.966,-0.22 0,-24.914 -4.966,-0.22 0,25.354 0,0 z m 11.472,-25.804 0,-1.045 9.489,0.418 0,27.508 -9.489,0.418 0,-27.299 0,0 z m 1.999,25.208 5.488,-0.24 0,-23.68 -5.488,-0.242 0,24.162 0,0 z m -1.044,-24.208 0.045,-1 -0.045,1 0,0 z"
           inkscape:connector-curvature="0"
           style="fill:#f4f4f4" /></g></g></g></svg>