<?xml version="1.0" encoding="UTF-8" standalone="no"?>
<!-- Generator: Adobe Illustrator 13.0.0, SVG Export Plug-In . SVG Version: 6.00 Build 14948)  -->

<svg
   xmlns:dc="http://purl.org/dc/elements/1.1/"
   xmlns:cc="http://creativecommons.org/ns#"
   xmlns:rdf="http://www.w3.org/1999/02/22-rdf-syntax-ns#"
   xmlns:svg="http://www.w3.org/2000/svg"
   xmlns="http://www.w3.org/2000/svg"
   xmlns:sodipodi="http://sodipodi.sourceforge.net/DTD/sodipodi-0.dtd"
   xmlns:inkscape="http://www.inkscape.org/namespaces/inkscape"
   version="1.1"
   id="Layer_2"
   x="0px"
   y="0px"
   width="550"
   height="550"
   viewBox="0 0 549.99995 549.99999"
   enable-background="new 0 0 598.189 350.26"
   xml:space="preserve"
   inkscape:version="0.91 r13725"
   sodipodi:docname="controller_gg.svg"><metadata
     id="metadata3083"><rdf:RDF><cc:Work
         rdf:about=""><dc:format>image/svg+xml</dc:format><dc:type
           rdf:resource="http://purl.org/dc/dcmitype/StillImage" /><dc:title></dc:title></cc:Work></rdf:RDF></metadata><defs
     id="defs3081" /><sodipodi:namedview
     pagecolor="#ffffff"
     bordercolor="#666666"
     borderopacity="1"
     objecttolerance="10"
     gridtolerance="10"
     guidetolerance="10"
     inkscape:pageopacity="0"
     inkscape:pageshadow="2"
     inkscape:window-width="1920"
     inkscape:window-height="1001"
     id="namedview3079"
     showgrid="false"
     inkscape:zoom="1.0799262"
     inkscape:cx="248.77122"
     inkscape:cy="298.43665"
     inkscape:window-x="-9"
     inkscape:window-y="-9"
     inkscape:window-maximized="1"
     inkscape:current-layer="g12192"
     showguides="true"
     inkscape:guide-bbox="true" /><g
     inkscape:groupmode="layer"
     id="layer2"
     inkscape:label="Screen_Rect"
     style="display:none"
     transform="translate(0,199.73999)"
     sodipodi:insensitive="true"><path
       style="fill:#0000ff;stroke:#000000;stroke-width:1px;stroke-linecap:butt;stroke-linejoin:miter;stroke-opacity:1"
       d="M 5.0135033,547.22203 136.4109,114.39023 653.54628,-189.09358 406.482,260.92121 Z"
       id="path3021"
       inkscape:connector-curvature="0"
       transform="translate(-2e-5,-199.73999)"
       sodipodi:nodetypes="ccccc" /><rect
       style="opacity:0.60100002;fill:#d8201f;fill-opacity:1;stroke:#ff8080;stroke-width:2.45114732;stroke-linecap:round;stroke-linejoin:round;stroke-miterlimit:4;stroke-dasharray:none;stroke-opacity:1"
       id="rect4230"
       width="444.2457"
       height="9.9567661"
       x="145.95099"
       y="-211.30678" /></g><g
     inkscape:groupmode="layer"
     id="layer1"
     inkscape:label="Controller_Vorlage"
     style="display:none"
     sodipodi:insensitive="true"><g
       id="g4929"
       transform="translate(-0.929149,0.5695451)"><g
         transform="translate(0,199.73999)"
         style="display:none"
         inkscape:label="Layer2"
         id="layer2-9"><path
           sodipodi:nodetypes="ccccc"
           transform="translate(-2e-5,-199.73999)"
           inkscape:connector-curvature="0"
           id="path3021-0"
           d="M 5.0135033,547.22203 136.4109,114.39023 653.54628,-189.09358 406.482,260.92121 Z"
           style="fill:#ffffff;stroke:#000000;stroke-width:1px;stroke-linecap:butt;stroke-linejoin:miter;stroke-opacity:1" /></g><g
         inkscape:label="Layer"
         id="layer1-2"><g
           transform="matrix(0.55322035,-0.3970343,-0.34863416,0.85569517,173.63773,166.52161)"
           id="g3100"><path
             style="fill:#f4f4f4"
             inkscape:connector-curvature="0"
             id="path3"
             d="m 148.05,114.447 c -23.656,0 -42.861,19.204 -42.861,42.861 l 0,37.414 c 0,23.658 19.205,42.86 42.861,42.86 l 38.694,0 c 23.656,0 42.861,-19.202 42.861,-42.86 l 0,-37.414 c 0,-23.657 -19.205,-42.861 -42.861,-42.861 l -38.694,0 z m 0,1.905 38.694,0 c 22.627,0 40.956,18.328 40.956,40.956 l 0,37.414 c 0,22.629 -18.329,40.956 -40.956,40.956 l -38.694,0 c -22.628,0 -40.956,-18.327 -40.956,-40.956 l 0,-37.414 c 0,-22.629 18.328,-40.956 40.956,-40.956 z" /><path
             style="fill:#f4f4f4"
             inkscape:connector-curvature="0"
             id="path5"
             d="m 167.395,123.168 c -3.23,0 -5.863,2.633 -5.863,5.864 l 0,13.037 c 0,3.23 2.632,5.863 5.863,5.863 3.23,0 5.863,-2.633 5.863,-5.863 l 0,-13.037 c 0,-3.23 -2.633,-5.864 -5.863,-5.864 z m 0,1.906 c 2.201,0 3.958,1.758 3.958,3.958 l 0,13.037 c 0,2.2 -1.758,3.958 -3.958,3.958 -2.202,0 -3.958,-1.758 -3.958,-3.958 l 0,-13.037 c -0.001,-2.2 1.757,-3.958 3.958,-3.958 z" /><path
             style="fill:#f4f4f4"
             inkscape:connector-curvature="0"
             id="path7"
             d="m 120.425,170.135 c -3.23,0 -5.864,2.633 -5.864,5.864 0,3.231 2.632,5.894 5.864,5.894 l 13.037,0 c 3.229,0 5.864,-2.662 5.864,-5.894 0,-3.229 -2.633,-5.864 -5.864,-5.864 l -13.037,0 z m 0,1.905 13.037,0 c 2.201,0 3.959,1.759 3.959,3.959 0,2.201 -1.759,3.988 -3.959,3.988 l -13.037,0 c -2.198,-0.01 -3.955,-1.791 -3.955,-3.99 0,-2.201 1.758,-3.959 3.958,-3.959 l -0.003,0.002 z" /><path
             style="fill:#f4f4f4"
             inkscape:connector-curvature="0"
             id="path9"
             d="m 167.395,204.071 c -3.23,0 -5.863,2.663 -5.863,5.894 l 0,13.038 c 0,3.229 2.632,5.863 5.863,5.863 3.23,0 5.863,-2.633 5.863,-5.863 l 0,-13.038 c 0,-3.23 -2.633,-5.894 -5.863,-5.894 z m 0,1.906 c 2.201,0 3.958,1.789 3.958,3.988 l 0,13.038 c 0,2.2 -1.757,3.958 -3.958,3.958 -2.202,0 -3.958,-1.759 -3.958,-3.958 l 0,-13.038 c -0.001,-2.2 1.757,-3.988 3.958,-3.988 z" /><path
             style="fill:#f4f4f4"
             inkscape:connector-curvature="0"
             id="path11"
             d="m 201.321,170.135 c -3.229,0 -5.863,2.633 -5.863,5.864 0,3.231 2.633,5.894 5.863,5.894 l 13.067,0 c 3.229,0 5.863,-2.662 5.863,-5.894 0,-3.229 -2.633,-5.864 -5.863,-5.864 l -13.067,0 z m 0,1.905 13.067,0 c 2.2,0 3.958,1.76 3.958,3.959 0,2.201 -1.758,3.988 -3.958,3.988 l -13.067,0 c -2.2,0 -3.958,-1.788 -3.958,-3.988 0,-2.2 1.759,-3.959 3.958,-3.959 z" /><path
             style="fill:#f4f4f4"
             inkscape:connector-curvature="0"
             id="polygon13"
             d="m 133.878,141.176 -1.31,1.31 8.155,12.025 0.655,0.952 0.804,-0.803 3.869,-3.87 0.804,-0.804 -0.953,-0.655 -12.024,-8.155 z" /><path
             style="fill:#f4f4f4"
             inkscape:connector-curvature="0"
             id="polygon15"
             d="m 141.383,196.566 -0.654,0.952 -8.156,12.024 1.31,1.31 12.025,-8.155 0.953,-0.654 -0.804,-0.804 -3.87,-3.869 -0.804,-0.804 z" /><path
             style="fill:#f4f4f4"
             inkscape:connector-curvature="0"
             id="polygon17"
             d="m 193.435,196.566 -0.804,0.804 -3.869,3.869 -0.833,0.804 0.953,0.654 12.025,8.155 1.339,-1.31 -8.156,-12.024 -0.655,-0.952 0,0 z" /><path
             style="fill:#f4f4f4"
             inkscape:connector-curvature="0"
             id="polygon19"
             d="m 200.912,141.176 -12.025,8.155 -0.953,0.655 0.833,0.804 3.87,3.87 0.804,0.803 0.655,-0.952 8.155,-12.025 -1.339,-1.31 z" /><path
             style="fill:#f4f4f4"
             inkscape:connector-curvature="0"
             id="path21"
             d="m 146.354,104.833 c -27.67,0 -50.123,22.453 -50.123,50.124 l 0,42.117 c 0,27.671 22.453,50.123 50.123,50.123 l 42.117,0 c 27.671,0 50.124,-22.452 50.124,-50.123 l 0,-42.117 c 0,-27.67 -22.452,-50.124 -50.124,-50.124 l -42.117,0 z m 0,1.906 42.117,0 c 26.644,0 48.219,21.577 48.219,48.218 l 0,42.117 c 0,26.644 -21.577,48.218 -48.219,48.218 l -42.117,0 c -26.642,0 -48.218,-21.574 -48.218,-48.218 l 0,-42.117 c 0,-26.642 21.577,-48.218 48.218,-48.218 z" /><path
             style="fill:#f4f4f4"
             inkscape:connector-curvature="0"
             id="polygon23"
             d="m 69.499,75.694 0,0.952 0,202.961 0,0.952 0.953,0 196.122,0 0.952,0 0,-0.952 0,-26.401 289.521,0 0.952,0 0,-0.952 0,-113.458 0,-0.953 -0.952,0 -289.522,0 0,-61.196 0,-0.952 -0.952,0 -196.122,0 -0.952,-10e-4 0,0 z m 1.904,1.905 194.217,0 0,61.196 0,0.953 0.953,0 0.714,0 288.807,0 0,111.552 -289.226,0 -0.297,0 -0.953,0 0,0.953 0,26.4 -194.217,0 0,-201.055 0.002,0.001 z" /><path
             style="fill:#f4f4f4"
             inkscape:connector-curvature="0"
             id="circle25"
             d="m 400.692,169.126 c -19.762,0 -35.777,16.046 -35.777,35.807 0,19.761 16.018,35.807 35.777,35.807 19.759,0 35.807,-16.046 35.807,-35.807 0,-19.761 -16.047,-35.807 -35.807,-35.807 l 0,0 z m 0,1.905 c 18.73,0 33.901,15.17 33.901,33.902 0,18.732 -15.171,33.902 -33.901,33.902 -18.731,0 -33.872,-15.171 -33.872,-33.902 0,-18.731 15.141,-33.902 33.872,-33.902 l 0,0 z" /><path
             style="fill:#f4f4f4"
             inkscape:connector-curvature="0"
             id="circle27"
             d="m 400.692,177.669 c -15.039,0 -27.234,12.227 -27.234,27.265 0,15.038 12.195,27.234 27.234,27.234 15.036,0 27.264,-12.196 27.264,-27.234 0,-15.038 -12.227,-27.265 -27.264,-27.265 z m 0,1.905 c 14.008,0 25.359,11.351 25.359,25.359 0,14.008 -11.352,25.33 -25.359,25.33 -14.01,0 -25.33,-11.321 -25.33,-25.33 0,-14.009 11.321,-25.359 25.33,-25.359 z" /><path
             style="fill:#f4f4f4"
             inkscape:connector-curvature="0"
             id="circle29"
             d="m 489.919,169.126 c -19.762,0 -35.807,16.046 -35.807,35.807 0,19.761 16.045,35.807 35.807,35.807 19.76,0 35.807,-16.046 35.807,-35.807 0,-19.761 -16.047,-35.807 -35.807,-35.807 l 0,0 z m 0,1.905 c 18.73,0 33.901,15.17 33.901,33.902 0,18.732 -15.171,33.902 -33.901,33.902 -18.731,0 -33.902,-15.171 -33.902,-33.902 0,-18.731 15.171,-33.902 33.902,-33.902 l 0,0 z" /><path
             style="fill:#f4f4f4"
             inkscape:connector-curvature="0"
             id="circle31"
             d="m 489.919,177.669 c -15.039,0 -27.234,12.227 -27.234,27.265 0,15.038 12.195,27.234 27.234,27.234 15.036,0 27.234,-12.196 27.234,-27.234 0,-15.038 -12.196,-27.265 -27.234,-27.265 z m 0,1.905 c 14.008,0 25.329,11.351 25.329,25.359 0,14.008 -11.321,25.33 -25.329,25.33 -14.01,0 -25.33,-11.321 -25.33,-25.33 0,-14.009 11.32,-25.359 25.33,-25.359 z" /><path
             style="fill:#f4f4f4"
             inkscape:connector-curvature="0"
             id="path33"
             d="m 39.406,68.432 c -4.766,0 -8.662,3.896 -8.662,8.662 l 0,203.084 c 0,4.766 3.897,8.661 8.662,8.661 l 518.646,0 c 4.429,0 7.956,-3.411 8.453,-7.709 l 0.179,0 0,-0.952 0,-203.085 c 0,-4.762 -3.868,-8.658 -8.64,-8.658 l -518.645,0 0.007,-0.003 z m 0,1.904 518.646,0 c 3.737,0 6.727,3.021 6.727,6.757 l 0,202.131 0,0.953 c 0,3.736 -2.989,6.756 -6.727,6.756 l -518.646,0 c -3.732,0.01 -6.753,-3.019 -6.753,-6.753 l 0,-203.083 c 0,-3.736 3.02,-6.756 6.756,-6.756 l -0.003,-0.005 z" /><path
             style="fill:#f4f4f4"
             inkscape:connector-curvature="0"
             id="rect35"
             d="m 359.021,163.559 0,0.953 0,81.465 0,0.952 0.953,0 81.465,0 0.953,0 0,-0.952 0,-81.465 0,-0.953 -0.953,0 -81.465,0 -0.953,0 z m 1.906,1.905 79.561,0 0,79.56 -79.561,0 0,-79.56 z" /><path
             style="fill:#f4f4f4"
             inkscape:connector-curvature="0"
             id="rect37"
             d="m 448.248,163.559 0,0.953 0,81.465 0,0.952 0.953,0 81.436,0 0.952,0 0,-0.952 0,-81.465 0,-0.953 -0.952,0 -81.436,0 -0.953,0 z m 1.905,1.905 79.531,0 0,79.56 -79.531,0 0,-79.56 z" /><path
             style="fill:#f4f4f4"
             inkscape:connector-curvature="0"
             id="polyline39"
             d="m 83.934,94.177 0,2.292 0,159.061 0,2.322 1.607,-1.638 25.33,-25.299 -1.369,-1.369 -23.663,23.692 0,-154.45 23.663,23.658 1.369,-1.34 -25.33,-25.299 -1.607,-1.637 0,0.007 z" /><path
             style="fill:#f4f4f4"
             inkscape:connector-curvature="0"
             id="polyline41"
             d="m 222.305,232.551 -1.37,1.339 23.693,23.692 -154.452,0 23.574,-23.573 -1.369,-1.339 -25.181,25.182 -1.637,1.637 2.292,0 159.062,0 2.292,0 -1.607,-1.637 -25.299,-25.3 0.002,-0.001 z" /><path
             style="fill:#f4f4f4"
             inkscape:connector-curvature="0"
             id="polyline43"
             d="m 250.878,94.177 -1.637,1.637 -25.211,25.182 1.369,1.369 23.574,-23.603 0,154.509 -23.633,-23.663 -1.339,1.34 25.24,25.27 1.637,1.638 0,-2.322 0,-159.063 0,-2.292 0,-0.002 z" /><path
             style="fill:#f4f4f4"
             inkscape:connector-curvature="0"
             id="polyline45"
             d="m 85.57,92.54 1.638,1.608 25.21,25.24 1.339,-1.34 -23.572,-23.602 154.452,0 -23.669,23.662 1.333,1.339 25.307,-25.3 1.607,-1.607 -2.292,0 -159.062,0 -2.291,0 0,0 z" /><path
             style="fill:#f4f4f4"
             inkscape:connector-curvature="0"
             id="line47"
             d="m 58.961,69.533 0,218.057 1.905,0 0,-218.057 -1.905,0 z" /><path
             style="fill:#f4f4f4"
             inkscape:connector-curvature="0"
             id="rect49"
             d="m 359.021,145.819 0,0.953 0,13.244 0,0.953 0.953,0 81.465,0 0.953,0 0,-0.953 0,-13.244 0,-0.953 -0.953,0 -81.465,0 -0.953,0 z m 1.906,1.905 79.561,0 0,11.339 -79.561,0 0,-11.339 z" /><path
             style="fill:#f4f4f4"
             inkscape:connector-curvature="0"
             id="rect51"
             d="m 448.248,145.819 0,0.953 0,13.244 0,0.953 0.953,0 81.436,0 0.952,0 0,-0.953 0,-13.244 0,-0.953 -0.952,0 -81.436,0 -0.953,0 z m 1.905,1.905 79.531,0 0,11.339 -79.531,0 0,-11.339 z" /><path
             style="fill:#f4f4f4"
             inkscape:connector-curvature="0"
             id="path53"
             d="m 276.804,73.134 c -0.987,0 -1.815,0.828 -1.815,1.816 l 0,53.01 c 0,0.988 0.829,1.815 1.815,1.815 l 282.855,0 c 0.985,0 1.785,-0.831 1.785,-1.815 l 0,-50.033 c 0,-2.641 -2.152,-4.792 -4.792,-4.792 l -279.844,0 -0.004,0 z m 0.09,1.906 279.756,0 c 1.613,0 2.888,1.275 2.888,2.887 l 0,49.945 -282.643,0 0,-52.832 -10e-4,0 z" /><path
             style="fill:#f4f4f4"
             inkscape:connector-curvature="0"
             id="path55"
             d="m 276.804,260.41 c -0.987,0 -1.815,0.829 -1.815,1.815 l 0,20.091 c 0,0.987 0.829,1.816 1.815,1.816 l 279.844,0 c 2.64,0 4.792,-2.183 4.792,-4.822 l 0,-17.085 c 0,-0.985 -0.8,-1.815 -1.785,-1.815 l -282.855,0 0.004,0 z m 0.09,1.905 282.645,0 0,16.995 c 0,1.611 -1.276,2.917 -2.888,2.917 l -279.758,0 0.001,-19.912 0,0 z" /><path
             style="fill:#f4f4f4"
             inkscape:connector-curvature="0"
             id="line57"
             d="m 274.461,129.271 -6.28,6.28 1.369,1.339 6.251,-6.25 -1.34,-1.369 z" /><path
             style="fill:#f4f4f4"
             inkscape:connector-curvature="0"
             id="line59"
             d="m 269.546,253.866 -1.369,1.34 6.281,6.28 1.339,-1.369 -6.251,-6.251 z" /></g></g></g></g><g
     inkscape:groupmode="layer"
     id="layer4"
     inkscape:label="Controller"><g
       id="g12192"
       transform="matrix(0.52634968,-0.38371487,-0.36199415,0.79024751,151.0404,222.06172)"><g
         id="g14160"
         transform="matrix(0.86200857,0.00598627,0.13294878,0.85471744,42.921096,-23.475609)"><path
           id="path14030"
           d="m 59.865,151.554 0,-15.136 27.786,0 0,14.136 0,1 -27.786,0 0,0 z m 26.786,-1.001 0,-1 0,1 0,0 z m -24.786,-1 23.785,0 0,-11.135 -23.785,0 0,11.135 0,0 z"
           inkscape:connector-curvature="0"
           style="fill:#f4f4f4" /><path
           id="path14032"
           d="m 96.865,151.554 0,-15.136 27.786,0 0,14.136 0,1 -27.786,0 0,0 z m 26.786,-1.001 0,-1 0,1 0,0 z m -24.785,-1 23.785,0 0,-11.137 -23.785,0 0,11.137 0,0 z"
           inkscape:connector-curvature="0"
           style="fill:#f4f4f4" /><path
           id="path14034"
           d="m 133.867,151.554 0,-15.136 27.784,0 0,14.136 0,1 -27.784,0 0,0 z m 26.785,-1.001 0,-1 0,1 0,0 z m -24.784,-1 23.783,0 0,-11.137 -23.783,0 0,11.137 0,0 z"
           inkscape:connector-curvature="0"
           style="fill:#f4f4f4" /><path
           id="path14036"
           d="m 170.868,151.554 0,-15.136 27.786,0 0,14.136 0,1 -27.786,0 0,0 z m 26.786,-1.001 0,-1 0,1 0,0 z m -24.785,-1 23.784,0 -0.002,-11.137 -23.782,0 0,11.137 0,0 z"
           inkscape:connector-curvature="0"
           style="fill:#f4f4f4" /><path
           id="path14038"
           d="m 207.868,151.554 0,-15.136 27.786,0 0,14.136 0,1 -27.786,0 0,0 z m 26.786,-1.001 0,-1 0,1 0,0 z m -24.785,-1 23.785,0 0,-11.137 -23.785,0 0,11.137 0,0 z"
           inkscape:connector-curvature="0"
           style="fill:#f4f4f4" /><path
           id="path14040"
           d="m 244.871,151.554 0,-15.136 27.784,0 0,14.136 0,1 -27.784,0 0,0 z m 26.784,-1.001 0,-1 0,1 0,0 z m -24.784,-1 23.783,0 0,-11.137 -23.783,0 0,11.137 0,0 z"
           inkscape:connector-curvature="0"
           style="fill:#f4f4f4" /><path
           id="path14042"
           d="m 281.872,151.554 0,-15.136 27.785,0 0,14.135 0,1 -27.785,0 0,0.001 z m 26.785,-1.001 0,-1 0,1 0,0 z m -24.786,-1 23.785,0 0,-11.136 -23.785,0 0,11.136 0,0 z"
           inkscape:connector-curvature="0"
           style="fill:#f4f4f4" /><path
           id="path14044"
           d="m 318.872,151.554 0,-15.136 27.786,0 0,14.135 0,1.001 -27.786,0 0,0 z m 26.785,-1.001 0,-1.001 0,1.001 0,0 z m -24.785,-1.001 23.784,0 -0.001,-11.135 -23.783,0 0,11.135 0,0 z"
           inkscape:connector-curvature="0"
           style="fill:#f4f4f4" /><path
           id="path14046"
           d="m 355.873,151.553 0,-15.135 27.786,0 0,14.136 0,0.999 -27.786,0 0,0 z m 26.785,-0.999 0,-1.001 0,1.001 0,0 z m -24.785,-1.001 23.784,0 0,-11.135 -23.784,0 0,11.135 0,0 z"
           inkscape:connector-curvature="0"
           style="fill:#f4f4f4" /><path
           id="path14048"
           d="m 392.874,151.553 0,-15.136 27.784,0 0,14.137 0,1 -27.784,0 0,-0.001 z m 26.784,-0.999 0,-1.001 0,1.001 0,0 z m -24.785,-1.002 23.784,0 0,-11.134 -23.784,0 0,11.134 0,0 z"
           inkscape:connector-curvature="0"
           style="fill:#f4f4f4" /><path
           id="path14050"
           d="m 429.876,151.552 0,-15.136 27.785,0 0,14.137 0,1 -27.785,0 0,-0.001 z m 26.784,-0.999 0,-1 0,1 0,0 z m -24.783,-1 23.783,0 -0.002,-11.136 -23.781,0 0,11.136 0,0 z"
           inkscape:connector-curvature="0"
           style="fill:#f4f4f4" /><path
           id="path14052"
           d="m 466.877,151.552 0,-15.134 27.784,0 0,14.134 0,1 -27.784,0 0,0 z m 26.783,-1 0,-1 0,1 0,0 z m -24.783,-1 23.783,0 0,-11.135 -23.783,0 0,11.135 0,0 z"
           inkscape:connector-curvature="0"
           style="fill:#f4f4f4" /><path
           id="path14054"
           d="m 503.877,151.553 0,-15.135 27.786,0 0,14.135 0,1 -27.786,0 0,0 z m 26.786,-1 0,-1 0,1 0,0 z m -24.784,-1 23.782,0 0,-11.135 -23.782,0 0,11.135 0,0 z"
           inkscape:connector-curvature="0"
           style="fill:#f4f4f4" /><path
           id="path14056"
           d="m 42.837,188.041 0,-15.135 27.787,0 0,14.135 0,1 -27.787,0 0,0 z m 26.785,-1 0,-1.001 0,1.001 0,0 z m -24.784,-1.001 23.784,0 0,-11.135 -23.784,0 0,11.135 0,0 z"
           inkscape:connector-curvature="0"
           style="fill:#f4f4f4" /><path
           id="path14058"
           d="m 79.837,188.041 0,-15.135 27.787,0 0,14.135 0,1 -27.787,0 0,0 z m 26.786,-1 0,-1.001 0,1.001 0,0 z m -24.784,-1.001 23.784,0 0,-11.135 -23.784,0 0,11.135 0,0 z"
           inkscape:connector-curvature="0"
           style="fill:#f4f4f4" /><path
           id="path14060"
           d="m 116.841,188.041 0,-15.135 27.784,0 0,14.135 0,1 -27.784,0 0,0 z m 26.783,-1 0,-1.001 0,1.001 0,0 z m -24.784,-1.001 23.784,0 0,-11.135 -23.784,0 0,11.135 0,0 z"
           inkscape:connector-curvature="0"
           style="fill:#f4f4f4" /><path
           id="path14062"
           d="m 153.841,188.041 0,-15.135 27.785,0 0,14.135 0,1 -27.785,0 0,0 z m 26.784,-1 0,-1.001 0,1.001 0,0 z m -24.784,-1.001 23.784,0 0,-11.135 -23.784,0 0,11.135 0,0 z"
           inkscape:connector-curvature="0"
           style="fill:#f4f4f4" /><path
           id="path14064"
           d="m 190.842,188.041 0,-15.135 27.785,0 0,14.135 0,1 -27.785,0 0,0 z m 26.784,-1 0,-1.001 0,1.001 0,0 z m -24.784,-1.001 23.786,0 0,-11.135 -23.786,0 0,11.135 0,0 z"
           inkscape:connector-curvature="0"
           style="fill:#f4f4f4" /><path
           id="path14066"
           d="m 227.843,188.041 0,-15.135 27.785,0 0,14.135 0,1 -27.785,0 0,0 z m 26.784,-1 0,-1.001 0,1.001 0,0 z m -24.784,-1.001 23.786,0 0,-11.135 -23.786,0 0,11.135 0,0 z"
           inkscape:connector-curvature="0"
           style="fill:#f4f4f4" /><path
           id="path14068"
           d="m 264.844,188.041 0,-15.135 27.785,0 0,14.135 0,1 -27.785,0 0,0 z m 26.786,-1 0,-1.001 0,1.001 0,0 z m -24.787,-1.001 23.786,0 0,-11.135 -23.786,0 0,11.135 0,0 z"
           inkscape:connector-curvature="0"
           style="fill:#f4f4f4" /><path
           id="path14070"
           d="m 301.845,188.04 0,-15.136 27.782,0 0,14.137 0,0.999 -27.782,0 0,0 z m 26.785,-0.999 0,-1.001 0,1.001 0,0 z m -24.785,-1.001 23.783,0 -0.002,-11.136 -23.781,0 0,11.136 0,0 z"
           inkscape:connector-curvature="0"
           style="fill:#f4f4f4" /><path
           id="path14072"
           d="m 338.844,188.04 0,-15.135 27.787,0 0,14.136 0,0.999 -27.787,0 0,0 z m 26.787,-0.999 0,-1.001 0,1.001 0,0 z m -24.785,-1.001 23.783,0 0,-11.135 -23.783,0 0,11.135 0,0 z"
           inkscape:connector-curvature="0"
           style="fill:#f4f4f4" /><path
           id="path14074"
           d="m 375.845,188.04 0,-15.136 27.787,0 0,14.136 0,1 -27.787,0 0,0 z m 26.787,-1 0,-1.001 0,1.001 0,0 z m -24.786,-1.001 23.785,0 0,-11.134 -23.785,0 0,11.134 0,0 z"
           inkscape:connector-curvature="0"
           style="fill:#f4f4f4" /><path
           id="path14076"
           d="m 412.848,188.041 0,-15.137 27.786,0 0,14.137 0,1 -27.786,0 0,0 z m 26.785,-1 0,-1.002 0,1.002 0,0 z m -24.785,-1.002 23.784,0 0,-11.133 -23.784,0 0,11.133 0,0 z"
           inkscape:connector-curvature="0"
           style="fill:#f4f4f4" /><path
           id="path14078"
           d="m 449.848,188.04 0,-15.135 27.786,0 0,14.135 0,1 -27.786,0 0,0 z m 26.787,-1 0,-1 0,1 0,0 z m -24.788,-1 23.785,0 0,-11.135 -23.785,0 0,11.135 0,0 z"
           inkscape:connector-curvature="0"
           style="fill:#f4f4f4" /><path
           id="path14080"
           d="m 486.848,188.041 0,-15.136 27.787,0 0,14.136 0,1 -27.787,0 0,0 z m 26.787,-1 0,-1.002 0,1.002 0,0 z m -24.785,-1.002 23.783,0 0,-11.134 -23.783,0 0,11.134 0,0 z"
           inkscape:connector-curvature="0"
           style="fill:#f4f4f4" /><path
           id="path14082"
           d="m 521.878,188.041 0,-15.135 27.785,0 0,14.135 0,1 -27.785,0 0,0 z m 26.785,-1 0,-1.002 0,1.002 0,0 z m -24.785,-1.002 23.785,0 0,-11.133 -23.785,0 0,11.133 0,0 z"
           inkscape:connector-curvature="0"
           style="fill:#f4f4f4" /><path
           id="path14084"
           d="m 53.541,224.527 0,-15.137 27.784,0 0,14.136 0,1.001 -27.784,0 0,0 z m 26.785,-1.001 0,-1.001 0,1.001 0,0 z m -24.785,-1.001 23.784,0 0,-11.135 -23.784,0 0,11.135 0,0 z"
           inkscape:connector-curvature="0"
           style="fill:#f4f4f4" /><path
           id="path14086"
           d="m 90.541,224.527 0,-15.137 27.786,0 0,14.136 0,1.001 -27.786,0 0,0 z m 26.785,-1.001 0,-1.001 0,1.001 0,0 z m -24.785,-1.001 23.784,0 0,-11.135 -23.784,0 0,11.135 0,0 z"
           inkscape:connector-curvature="0"
           style="fill:#f4f4f4" /><path
           id="path14088"
           d="m 127.543,224.527 0,-15.137 27.784,0 0,14.136 0,1.001 -27.784,0 0,0 z m 26.785,-1.001 0,-1.001 0,1.001 0,0 z m -24.785,-1.001 23.784,0 0,-11.133 -23.784,0 0,11.133 0,0 z"
           inkscape:connector-curvature="0"
           style="fill:#f4f4f4" /><path
           id="path14090"
           d="m 164.543,224.527 0,-15.137 27.786,0 0,14.136 0,1.001 -27.786,0 0,0 z m 26.785,-1.001 0,-1.001 0,1.001 0,0 z m -24.785,-1.001 23.784,0 0,-11.135 -23.784,0 0,11.135 0,0 z"
           inkscape:connector-curvature="0"
           style="fill:#f4f4f4" /><path
           id="path14092"
           d="m 201.545,224.527 0,-15.137 27.784,0 0,14.136 0,1.001 -27.784,0 0,0 z m 26.785,-1.001 0,-1.001 0,1.001 0,0 z m -24.785,-1.001 23.784,0 0,-11.135 -23.784,0 0,11.135 0,0 z"
           inkscape:connector-curvature="0"
           style="fill:#f4f4f4" /><path
           id="path14094"
           d="m 238.545,224.527 0,-15.137 27.786,0 0,14.136 0,1.001 -27.786,0 0,0 z m 26.785,-1.001 0,-1.001 0,1.001 0,0 z m -24.785,-1.001 23.784,0 0,-11.133 -23.784,0 0,11.133 0,0 z"
           inkscape:connector-curvature="0"
           style="fill:#f4f4f4" /><path
           id="path14096"
           d="m 275.547,224.527 0,-15.137 27.784,0 0,14.136 0,1.001 -27.784,0 0,0 z m 26.786,-1.001 0,-1.001 0,1.001 0,0 z m -24.786,-1.001 23.784,0 -0.002,-11.133 -23.782,0 0,11.133 0,0 z"
           inkscape:connector-curvature="0"
           style="fill:#f4f4f4" /><path
           id="path14098"
           d="m 312.547,224.527 0,-15.137 27.787,0 0,14.136 0,1.001 -27.787,0 0,0 z m 26.785,-1.001 0,-1.001 0,1.001 0,0 z m -24.785,-1.001 23.784,0 0,-11.133 -23.784,0 0,11.133 0,0 z"
           inkscape:connector-curvature="0"
           style="fill:#f4f4f4" /><path
           id="path14100"
           d="m 349.55,224.526 0,-15.135 27.785,0 0,14.136 0,0.999 -27.785,0 0,0 z m 26.785,-0.999 0,-1.002 0,1.002 0,0 z m -24.787,-1.002 23.786,0 -0.002,-11.135 -23.784,0 0,11.135 0,0 z"
           inkscape:connector-curvature="0"
           style="fill:#f4f4f4" /><path
           id="path14102"
           d="m 386.548,224.527 0,-15.136 27.785,0 0,14.135 0,1.001 -27.785,0 0,0 z m 26.787,-1.001 0,-1.001 0,1.001 0,0 z m -24.785,-1.001 23.784,0 -0.002,-11.134 -23.782,0 0,11.134 0,0 z"
           inkscape:connector-curvature="0"
           style="fill:#f4f4f4" /><path
           id="path14104"
           d="m 423.552,224.527 0,-15.136 27.785,0 0,14.135 0,1.001 -27.785,0 0,0 z m 26.784,-1.001 0,-1.001 0,1.001 0,0 z m -24.784,-1.001 23.783,0 0,-11.134 -23.783,0 0,11.134 0,0 z"
           inkscape:connector-curvature="0"
           style="fill:#f4f4f4" /><path
           id="path14106"
           d="m 460.551,224.526 0,-15.135 27.786,0 0,14.136 0,0.999 -27.786,0 0,0 z m 26.785,-0.999 0,-1.001 0,1.001 0,0 z m -24.784,-1.001 23.782,0 0,-11.135 -23.782,0 0,11.135 0,0 z"
           inkscape:connector-curvature="0"
           style="fill:#f4f4f4" /><path
           id="path14108"
           d="m 497.552,224.527 0,-15.136 60.383,0 0,14.135 0,1.001 -60.383,0 0,0 z m 59.381,-1.001 0,-1.001 0,1.001 0,0 z m -57.38,-1.001 56.379,0 0,-11.134 -56.379,0 0,11.134 0,0 z"
           inkscape:connector-curvature="0"
           style="fill:#f4f4f4" /><path
           id="path14110"
           d="m 72.514,261.015 0,-15.136 27.785,0 0,14.136 0,1 -27.785,0 0,0 z m 26.786,-1 0,-1.001 0,1.001 0,0 z m -24.785,-1.001 23.784,0 0,-11.135 -23.784,0 0,11.135 0,0 z"
           inkscape:connector-curvature="0"
           style="fill:#f4f4f4" /><path
           id="path14112"
           d="m 109.516,261.015 0,-15.136 27.784,0 0,14.136 0,1 -27.784,0 0,0 z m 26.784,-1 0,-1.001 0,1.001 0,0 z m -24.783,-1.001 23.783,0 0,-11.135 -23.783,0 0,11.135 0,0 z"
           inkscape:connector-curvature="0"
           style="fill:#f4f4f4" /><path
           id="path14114"
           d="m 146.516,261.015 0,-15.136 27.785,0 0,14.136 0,1 -27.785,0 0,0 z m 26.785,-1 0,-1.001 0,1.001 0,0 z m -24.785,-1.001 23.784,0 0,-11.135 -23.784,0 0,11.135 0,0 z"
           inkscape:connector-curvature="0"
           style="fill:#f4f4f4" /><path
           id="path14116"
           d="m 183.518,261.015 0,-15.136 27.784,0 0,14.136 0,1 -27.784,0 0,0 z m 26.783,-1 0,-1.001 0,1.001 0,0 z m -24.783,-1.001 23.783,0 0,-11.135 -23.783,0 0,11.135 0,0 z"
           inkscape:connector-curvature="0"
           style="fill:#f4f4f4" /><path
           id="path14118"
           d="m 220.517,261.015 0,-15.136 27.787,0 0,14.136 0,1 -27.787,0 0,0 z m 26.785,-1 0,-1.001 0,1.001 0,0 z m -24.784,-1.001 23.786,0 -0.002,-11.135 -23.784,0 0,11.135 0,0 z"
           inkscape:connector-curvature="0"
           style="fill:#f4f4f4" /><path
           id="path14120"
           d="m 257.519,261.015 0,-15.136 27.784,0 0,14.136 0,1 -27.784,0 0,0 z m 26.785,-1 0,-1.001 0,1.001 0,0 z m -24.784,-1.001 23.783,0 0,-11.135 -23.783,0 0,11.135 0,0 z"
           inkscape:connector-curvature="0"
           style="fill:#f4f4f4" /><path
           id="path14122"
           d="m 294.521,261.015 0,-15.136 27.785,0 0,14.136 0,1 -27.785,0 0,0 z m 26.785,-1 0,-1.001 0,1.001 0,0 z m -24.785,-1.001 23.783,0 0,-11.135 -23.783,0 0,11.135 0,0 z"
           inkscape:connector-curvature="0"
           style="fill:#f4f4f4" /><path
           id="path14124"
           d="m 331.52,261.015 0,-15.136 27.787,0 0,14.136 0,1 -27.787,0 0,0 z m 26.785,-1 0,-1.001 0,1.001 0,0 z m -24.784,-1.001 23.783,0 0,-11.135 -23.783,0 0,11.135 0,0 z"
           inkscape:connector-curvature="0"
           style="fill:#f4f4f4" /><path
           id="path14126"
           d="m 368.521,261.015 0,-15.137 27.787,0 0,14.137 0,1 -27.787,0 0,0 z m 26.787,-1 0,-1.001 0,1.001 0,0 z m -24.786,-1.001 23.785,0 -0.002,-11.135 -23.783,0 0,11.135 0,0 z"
           inkscape:connector-curvature="0"
           style="fill:#f4f4f4" /><path
           id="path14128"
           d="m 405.523,261.015 0,-15.137 27.785,0 0,14.138 0,0.999 -27.785,0 0,0 z m 26.784,-0.999 0,-1.001 0,1.001 0,0 z m -24.783,-1.001 23.783,0 0,-11.135 -23.783,0 0,11.135 0,0 z"
           inkscape:connector-curvature="0"
           style="fill:#f4f4f4" /><path
           id="path14130"
           d="m 442.523,261.015 0,-15.137 27.787,0 0,14.138 0,0.999 -27.787,0 0,0 z m 26.786,-0.999 0,-1.001 0,1.001 0,0 z m -24.786,-1.001 23.785,0 0,-11.137 -23.785,0 0,11.137 0,0 z"
           inkscape:connector-curvature="0"
           style="fill:#f4f4f4" /><path
           id="path14132"
           d="m 479.524,261.016 0,-15.138 27.787,0 0,14.137 0,1.001 -27.787,0 0,0 z m 26.785,-1.001 0,-1.001 0,1.001 0,0 z m -24.784,-1.001 23.783,0 0,-11.135 -23.783,0 0,11.135 0,0 z"
           inkscape:connector-curvature="0"
           style="fill:#f4f4f4" /><path
           id="path14134"
           d="m 143.543,297.503 0,-15.137 27.784,0 0,14.136 0,1.001 -27.784,0 0,0 z m 26.785,-1.001 0,-1 0,1 0,0 z m -24.786,-1 23.786,0 -0.002,-11.135 -23.784,0 0,11.135 0,0 z"
           inkscape:connector-curvature="0"
           style="fill:#f4f4f4" /><path
           id="path14136"
           d="m 180.545,297.503 0,-15.137 27.784,0 0,14.136 0,1.001 -27.784,0 0,0 z m 26.785,-1.001 0,-1 0,1 0,0 z m -24.786,-1 23.784,0 0,-11.135 -23.784,0 0,11.135 0,0 z"
           inkscape:connector-curvature="0"
           style="fill:#f4f4f4" /><path
           id="path14138"
           d="m 217.546,297.503 0,-15.137 175.924,0 0,14.136 0,1.001 -175.924,0 0,0 z m 174.923,-1.001 0,-1 0,1 0,0 z m -172.922,-1 171.922,0 0,-11.135 -171.922,0 0,11.135 0,0 z"
           inkscape:connector-curvature="0"
           style="fill:#f4f4f4" /><path
           id="path14140"
           d="m 402.441,297.503 0,-15.137 27.786,0 0,14.136 0,1.001 -27.786,0 0,0 z m 26.786,-1.001 0,-1 0,1 0,0 z m -24.785,-1 23.784,0 0,-11.137 -23.784,0 0,11.137 0,0 z"
           inkscape:connector-curvature="0"
           style="fill:#f4f4f4" /><path
           id="path14142"
           d="m 439.443,297.503 0,-15.137 27.786,0 0,14.136 0,1.001 -27.786,0 0,0 z m 26.785,-1.001 0,-1.001 0,1.001 0,0 z m -24.786,-1.001 23.785,0 0,-11.136 -23.785,0 0,11.136 0,0 z"
           inkscape:connector-curvature="0"
           style="fill:#f4f4f4" /><path
           id="path14144"
           d="m 31.513,108.903 c -1.247,-0.017 -2.251,-0.07 -3.074,-0.846 l 0,0 c -0.775,-0.824 -0.83,-1.826 -0.845,-3.073 l 0,0 0,-90.976 c 0,-2.972 2.407,-5.378 5.378,-5.38 l 0,0 532.231,0 c 2.972,0.002 5.378,2.409 5.38,5.38 l 0,0 0,90.976 c -0.017,1.247 -0.072,2.25 -0.847,3.073 l 0,0 c -0.822,0.775 -1.825,0.829 -3.073,0.846 l 0,0 -535.15,0 0,0 z m 535.15,-2.001 c 1.17,0.015 1.626,-0.181 1.658,-0.259 l 0,0 c 0.081,-0.032 0.276,-0.488 0.259,-1.659 l 0,0 0.003,-90.976 c -0.005,-1.865 -1.513,-3.375 -3.38,-3.379 l 0,0 -532.231,0 c -1.865,0.004 -3.375,1.514 -3.377,3.379 l 0,0 0,90.976 c -0.017,1.17 0.18,1.627 0.259,1.659 l 0,0 c 0.032,0.079 0.489,0.274 1.659,0.259 l 0,0 535.15,0 0,0 z"
           inkscape:connector-curvature="0"
           style="fill:#f4f4f4" /><polygon
           id="polygon14146"
           points="31.214,107.875 36.729,316.421 34.729,316.475 29.215,107.93 29.215,107.93 "
           style="fill:#f4f4f4" /><polygon
           id="polygon14148"
           points="566.473,107.876 568.474,107.929 562.96,316.475 560.96,316.422 560.96,316.422 "
           style="fill:#f4f4f4" /><path
           id="path14150"
           d="m 37.513,342.422 c -2.972,0 -5.379,-2.407 -5.379,-5.379 l 0,0 0,-17.188 c 0,-1.327 0.265,-2.486 1.089,-3.316 l 0,0 c 0.832,-0.825 1.991,-1.091 3.318,-1.091 l 0,0 525.257,0.002 c 1.326,-0.002 2.485,0.264 3.317,1.089 l 0,0 c 0.824,0.83 1.089,1.989 1.089,3.316 l 0,0 0,17.188 c -0.002,2.972 -2.409,5.379 -5.379,5.379 l 0,0 -523.312,0 0,0 z m -2.877,-24.47 c -0.273,0.266 -0.501,0.811 -0.503,1.902 l 0,0 0,17.188 c 0.004,1.868 1.514,3.375 3.379,3.379 l 0,0 523.312,0 c 1.866,-0.004 3.375,-1.511 3.377,-3.379 l 0,0 0,-17.188 c 0,-1.092 -0.227,-1.637 -0.503,-1.902 l 0,0 c -0.265,-0.276 -0.809,-0.503 -1.901,-0.503 l 0,0 -525.256,0 c -1.093,0 -1.637,0.227 -1.905,0.503 l 0,0 z"
           inkscape:connector-curvature="0"
           style="fill:#f4f4f4" /><path
           id="path14152"
           d="m 455.741,46.63 c -2.701,0 -4.893,-2.189 -4.893,-4.891 l 0,0 0,-17.028 c 0,-2.702 2.191,-4.891 4.893,-4.893 l 0,0 76.381,0.002 c 2.701,0 4.891,2.189 4.893,4.891 l 0,0 0,17.028 c -0.002,2.702 -2.191,4.891 -4.893,4.891 l 0,0 -76.381,0 0,0 z m -2.892,-21.919 0,17.028 c 0.002,1.597 1.295,2.89 2.892,2.892 l 0,0 76.381,0 c 1.595,-0.002 2.89,-1.295 2.892,-2.892 l 0,0 0,-17.028 c -0.002,-1.597 -1.297,-2.89 -2.892,-2.892 l 0,0 -76.381,0 c -1.597,0.002 -2.89,1.295 -2.892,2.892 l 0,0 z"
           inkscape:connector-curvature="0"
           style="fill:#f4f4f4" /></g></g></g></svg>