<?xml version="1.0" encoding="UTF-8" standalone="no"?>
<!-- Generator: Adobe Illustrator 13.0.0, SVG Export Plug-In . SVG Version: 6.00 Build 14948)  -->

<svg
   xmlns:dc="http://purl.org/dc/elements/1.1/"
   xmlns:cc="http://creativecommons.org/ns#"
   xmlns:rdf="http://www.w3.org/1999/02/22-rdf-syntax-ns#"
   xmlns:svg="http://www.w3.org/2000/svg"
   xmlns="http://www.w3.org/2000/svg"
   xmlns:sodipodi="http://sodipodi.sourceforge.net/DTD/sodipodi-0.dtd"
   xmlns:inkscape="http://www.inkscape.org/namespaces/inkscape"
   version="1.1"
   id="Layer_2"
   x="0px"
   y="0px"
   width="550"
   height="550"
   viewBox="0 0 549.99995 549.99999"
   enable-background="new 0 0 598.189 350.26"
   xml:space="preserve"
   inkscape:version="0.91 r13725"
   sodipodi:docname="controller_gg.svg"><metadata
     id="metadata3083"><rdf:RDF><cc:Work
         rdf:about=""><dc:format>image/svg+xml</dc:format><dc:type
           rdf:resource="http://purl.org/dc/dcmitype/StillImage" /><dc:title></dc:title></cc:Work></rdf:RDF></metadata><defs
     id="defs3081" /><sodipodi:namedview
     pagecolor="#ffffff"
     bordercolor="#666666"
     borderopacity="1"
     objecttolerance="10"
     gridtolerance="10"
     guidetolerance="10"
     inkscape:pageopacity="0"
     inkscape:pageshadow="2"
     inkscape:window-width="1920"
     inkscape:window-height="1001"
     id="namedview3079"
     showgrid="false"
     inkscape:zoom="1.0799262"
     inkscape:cx="286.73678"
     inkscape:cy="382.70167"
     inkscape:window-x="-9"
     inkscape:window-y="-9"
     inkscape:window-maximized="1"
     inkscape:current-layer="layer4"
     showguides="true"
     inkscape:guide-bbox="true" /><g
     inkscape:groupmode="layer"
     id="layer2"
     inkscape:label="Screen_Rect"
     style="display:none"
     transform="translate(0,199.73999)"
     sodipodi:insensitive="true"><path
       style="fill:#0000ff;stroke:#000000;stroke-width:1px;stroke-linecap:butt;stroke-linejoin:miter;stroke-opacity:1"
       d="M 5.0135033,547.22203 136.4109,114.39023 653.54628,-189.09358 406.482,260.92121 Z"
       id="path3021"
       inkscape:connector-curvature="0"
       transform="translate(-2e-5,-199.73999)"
       sodipodi:nodetypes="ccccc" /><rect
       style="opacity:0.60100002;fill:#d8201f;fill-opacity:1;stroke:#ff8080;stroke-width:2.45114732;stroke-linecap:round;stroke-linejoin:round;stroke-miterlimit:4;stroke-dasharray:none;stroke-opacity:1"
       id="rect4230"
       width="444.2457"
       height="9.9567661"
       x="145.95099"
       y="-211.30678" /></g><g
     inkscape:groupmode="layer"
     id="layer1"
     inkscape:label="Controller_Vorlage"
     style="display:none"
     sodipodi:insensitive="true"><g
       id="g4929"
       transform="translate(-0.929149,0.5695451)"><g
         transform="translate(0,199.73999)"
         style="display:none"
         inkscape:label="Layer2"
         id="layer2-9"><path
           sodipodi:nodetypes="ccccc"
           transform="translate(-2e-5,-199.73999)"
           inkscape:connector-curvature="0"
           id="path3021-0"
           d="M 5.0135033,547.22203 136.4109,114.39023 653.54628,-189.09358 406.482,260.92121 Z"
           style="fill:#ffffff;stroke:#000000;stroke-width:1px;stroke-linecap:butt;stroke-linejoin:miter;stroke-opacity:1" /></g><g
         inkscape:label="Layer"
         id="layer1-2"><g
           transform="matrix(0.55322035,-0.3970343,-0.34863416,0.85569517,173.63773,166.52161)"
           id="g3100"><path
             style="fill:#f4f4f4"
             inkscape:connector-curvature="0"
             id="path3"
             d="m 148.05,114.447 c -23.656,0 -42.861,19.204 -42.861,42.861 l 0,37.414 c 0,23.658 19.205,42.86 42.861,42.86 l 38.694,0 c 23.656,0 42.861,-19.202 42.861,-42.86 l 0,-37.414 c 0,-23.657 -19.205,-42.861 -42.861,-42.861 l -38.694,0 z m 0,1.905 38.694,0 c 22.627,0 40.956,18.328 40.956,40.956 l 0,37.414 c 0,22.629 -18.329,40.956 -40.956,40.956 l -38.694,0 c -22.628,0 -40.956,-18.327 -40.956,-40.956 l 0,-37.414 c 0,-22.629 18.328,-40.956 40.956,-40.956 z" /><path
             style="fill:#f4f4f4"
             inkscape:connector-curvature="0"
             id="path5"
             d="m 167.395,123.168 c -3.23,0 -5.863,2.633 -5.863,5.864 l 0,13.037 c 0,3.23 2.632,5.863 5.863,5.863 3.23,0 5.863,-2.633 5.863,-5.863 l 0,-13.037 c 0,-3.23 -2.633,-5.864 -5.863,-5.864 z m 0,1.906 c 2.201,0 3.958,1.758 3.958,3.958 l 0,13.037 c 0,2.2 -1.758,3.958 -3.958,3.958 -2.202,0 -3.958,-1.758 -3.958,-3.958 l 0,-13.037 c -0.001,-2.2 1.757,-3.958 3.958,-3.958 z" /><path
             style="fill:#f4f4f4"
             inkscape:connector-curvature="0"
             id="path7"
             d="m 120.425,170.135 c -3.23,0 -5.864,2.633 -5.864,5.864 0,3.231 2.632,5.894 5.864,5.894 l 13.037,0 c 3.229,0 5.864,-2.662 5.864,-5.894 0,-3.229 -2.633,-5.864 -5.864,-5.864 l -13.037,0 z m 0,1.905 13.037,0 c 2.201,0 3.959,1.759 3.959,3.959 0,2.201 -1.759,3.988 -3.959,3.988 l -13.037,0 c -2.198,-0.01 -3.955,-1.791 -3.955,-3.99 0,-2.201 1.758,-3.959 3.958,-3.959 l -0.003,0.002 z" /><path
             style="fill:#f4f4f4"
             inkscape:connector-curvature="0"
             id="path9"
             d="m 167.395,204.071 c -3.23,0 -5.863,2.663 -5.863,5.894 l 0,13.038 c 0,3.229 2.632,5.863 5.863,5.863 3.23,0 5.863,-2.633 5.863,-5.863 l 0,-13.038 c 0,-3.23 -2.633,-5.894 -5.863,-5.894 z m 0,1.906 c 2.201,0 3.958,1.789 3.958,3.988 l 0,13.038 c 0,2.2 -1.757,3.958 -3.958,3.958 -2.202,0 -3.958,-1.759 -3.958,-3.958 l 0,-13.038 c -0.001,-2.2 1.757,-3.988 3.958,-3.988 z" /><path
             style="fill:#f4f4f4"
             inkscape:connector-curvature="0"
             id="path11"
             d="m 201.321,170.135 c -3.229,0 -5.863,2.633 -5.863,5.864 0,3.231 2.633,5.894 5.863,5.894 l 13.067,0 c 3.229,0 5.863,-2.662 5.863,-5.894 0,-3.229 -2.633,-5.864 -5.863,-5.864 l -13.067,0 z m 0,1.905 13.067,0 c 2.2,0 3.958,1.76 3.958,3.959 0,2.201 -1.758,3.988 -3.958,3.988 l -13.067,0 c -2.2,0 -3.958,-1.788 -3.958,-3.988 0,-2.2 1.759,-3.959 3.958,-3.959 z" /><path
             style="fill:#f4f4f4"
             inkscape:connector-curvature="0"
             id="polygon13"
             d="m 133.878,141.176 -1.31,1.31 8.155,12.025 0.655,0.952 0.804,-0.803 3.869,-3.87 0.804,-0.804 -0.953,-0.655 -12.024,-8.155 z" /><path
             style="fill:#f4f4f4"
             inkscape:connector-curvature="0"
             id="polygon15"
             d="m 141.383,196.566 -0.654,0.952 -8.156,12.024 1.31,1.31 12.025,-8.155 0.953,-0.654 -0.804,-0.804 -3.87,-3.869 -0.804,-0.804 z" /><path
             style="fill:#f4f4f4"
             inkscape:connector-curvature="0"
             id="polygon17"
             d="m 193.435,196.566 -0.804,0.804 -3.869,3.869 -0.833,0.804 0.953,0.654 12.025,8.155 1.339,-1.31 -8.156,-12.024 -0.655,-0.952 0,0 z" /><path
             style="fill:#f4f4f4"
             inkscape:connector-curvature="0"
             id="polygon19"
             d="m 200.912,141.176 -12.025,8.155 -0.953,0.655 0.833,0.804 3.87,3.87 0.804,0.803 0.655,-0.952 8.155,-12.025 -1.339,-1.31 z" /><path
             style="fill:#f4f4f4"
             inkscape:connector-curvature="0"
             id="path21"
             d="m 146.354,104.833 c -27.67,0 -50.123,22.453 -50.123,50.124 l 0,42.117 c 0,27.671 22.453,50.123 50.123,50.123 l 42.117,0 c 27.671,0 50.124,-22.452 50.124,-50.123 l 0,-42.117 c 0,-27.67 -22.452,-50.124 -50.124,-50.124 l -42.117,0 z m 0,1.906 42.117,0 c 26.644,0 48.219,21.577 48.219,48.218 l 0,42.117 c 0,26.644 -21.577,48.218 -48.219,48.218 l -42.117,0 c -26.642,0 -48.218,-21.574 -48.218,-48.218 l 0,-42.117 c 0,-26.642 21.577,-48.218 48.218,-48.218 z" /><path
             style="fill:#f4f4f4"
             inkscape:connector-curvature="0"
             id="polygon23"
             d="m 69.499,75.694 0,0.952 0,202.961 0,0.952 0.953,0 196.122,0 0.952,0 0,-0.952 0,-26.401 289.521,0 0.952,0 0,-0.952 0,-113.458 0,-0.953 -0.952,0 -289.522,0 0,-61.196 0,-0.952 -0.952,0 -196.122,0 -0.952,-10e-4 0,0 z m 1.904,1.905 194.217,0 0,61.196 0,0.953 0.953,0 0.714,0 288.807,0 0,111.552 -289.226,0 -0.297,0 -0.953,0 0,0.953 0,26.4 -194.217,0 0,-201.055 0.002,0.001 z" /><path
             style="fill:#f4f4f4"
             inkscape:connector-curvature="0"
             id="circle25"
             d="m 400.692,169.126 c -19.762,0 -35.777,16.046 -35.777,35.807 0,19.761 16.018,35.807 35.777,35.807 19.759,0 35.807,-16.046 35.807,-35.807 0,-19.761 -16.047,-35.807 -35.807,-35.807 l 0,0 z m 0,1.905 c 18.73,0 33.901,15.17 33.901,33.902 0,18.732 -15.171,33.902 -33.901,33.902 -18.731,0 -33.872,-15.171 -33.872,-33.902 0,-18.731 15.141,-33.902 33.872,-33.902 l 0,0 z" /><path
             style="fill:#f4f4f4"
             inkscape:connector-curvature="0"
             id="circle27"
             d="m 400.692,177.669 c -15.039,0 -27.234,12.227 -27.234,27.265 0,15.038 12.195,27.234 27.234,27.234 15.036,0 27.264,-12.196 27.264,-27.234 0,-15.038 -12.227,-27.265 -27.264,-27.265 z m 0,1.905 c 14.008,0 25.359,11.351 25.359,25.359 0,14.008 -11.352,25.33 -25.359,25.33 -14.01,0 -25.33,-11.321 -25.33,-25.33 0,-14.009 11.321,-25.359 25.33,-25.359 z" /><path
             style="fill:#f4f4f4"
             inkscape:connector-curvature="0"
             id="circle29"
             d="m 489.919,169.126 c -19.762,0 -35.807,16.046 -35.807,35.807 0,19.761 16.045,35.807 35.807,35.807 19.76,0 35.807,-16.046 35.807,-35.807 0,-19.761 -16.047,-35.807 -35.807,-35.807 l 0,0 z m 0,1.905 c 18.73,0 33.901,15.17 33.901,33.902 0,18.732 -15.171,33.902 -33.901,33.902 -18.731,0 -33.902,-15.171 -33.902,-33.902 0,-18.731 15.171,-33.902 33.902,-33.902 l 0,0 z" /><path
             style="fill:#f4f4f4"
             inkscape:connector-curvature="0"
             id="circle31"
             d="m 489.919,177.669 c -15.039,0 -27.234,12.227 -27.234,27.265 0,15.038 12.195,27.234 27.234,27.234 15.036,0 27.234,-12.196 27.234,-27.234 0,-15.038 -12.196,-27.265 -27.234,-27.265 z m 0,1.905 c 14.008,0 25.329,11.351 25.329,25.359 0,14.008 -11.321,25.33 -25.329,25.33 -14.01,0 -25.33,-11.321 -25.33,-25.33 0,-14.009 11.32,-25.359 25.33,-25.359 z" /><path
             style="fill:#f4f4f4"
             inkscape:connector-curvature="0"
             id="path33"
             d="m 39.406,68.432 c -4.766,0 -8.662,3.896 -8.662,8.662 l 0,203.084 c 0,4.766 3.897,8.661 8.662,8.661 l 518.646,0 c 4.429,0 7.956,-3.411 8.453,-7.709 l 0.179,0 0,-0.952 0,-203.085 c 0,-4.762 -3.868,-8.658 -8.64,-8.658 l -518.645,0 0.007,-0.003 z m 0,1.904 518.646,0 c 3.737,0 6.727,3.021 6.727,6.757 l 0,202.131 0,0.953 c 0,3.736 -2.989,6.756 -6.727,6.756 l -518.646,0 c -3.732,0.01 -6.753,-3.019 -6.753,-6.753 l 0,-203.083 c 0,-3.736 3.02,-6.756 6.756,-6.756 l -0.003,-0.005 z" /><path
             style="fill:#f4f4f4"
             inkscape:connector-curvature="0"
             id="rect35"
             d="m 359.021,163.559 0,0.953 0,81.465 0,0.952 0.953,0 81.465,0 0.953,0 0,-0.952 0,-81.465 0,-0.953 -0.953,0 -81.465,0 -0.953,0 z m 1.906,1.905 79.561,0 0,79.56 -79.561,0 0,-79.56 z" /><path
             style="fill:#f4f4f4"
             inkscape:connector-curvature="0"
             id="rect37"
             d="m 448.248,163.559 0,0.953 0,81.465 0,0.952 0.953,0 81.436,0 0.952,0 0,-0.952 0,-81.465 0,-0.953 -0.952,0 -81.436,0 -0.953,0 z m 1.905,1.905 79.531,0 0,79.56 -79.531,0 0,-79.56 z" /><path
             style="fill:#f4f4f4"
             inkscape:connector-curvature="0"
             id="polyline39"
             d="m 83.934,94.177 0,2.292 0,159.061 0,2.322 1.607,-1.638 25.33,-25.299 -1.369,-1.369 -23.663,23.692 0,-154.45 23.663,23.658 1.369,-1.34 -25.33,-25.299 -1.607,-1.637 0,0.007 z" /><path
             style="fill:#f4f4f4"
             inkscape:connector-curvature="0"
             id="polyline41"
             d="m 222.305,232.551 -1.37,1.339 23.693,23.692 -154.452,0 23.574,-23.573 -1.369,-1.339 -25.181,25.182 -1.637,1.637 2.292,0 159.062,0 2.292,0 -1.607,-1.637 -25.299,-25.3 0.002,-0.001 z" /><path
             style="fill:#f4f4f4"
             inkscape:connector-curvature="0"
             id="polyline43"
             d="m 250.878,94.177 -1.637,1.637 -25.211,25.182 1.369,1.369 23.574,-23.603 0,154.509 -23.633,-23.663 -1.339,1.34 25.24,25.27 1.637,1.638 0,-2.322 0,-159.063 0,-2.292 0,-0.002 z" /><path
             style="fill:#f4f4f4"
             inkscape:connector-curvature="0"
             id="polyline45"
             d="m 85.57,92.54 1.638,1.608 25.21,25.24 1.339,-1.34 -23.572,-23.602 154.452,0 -23.669,23.662 1.333,1.339 25.307,-25.3 1.607,-1.607 -2.292,0 -159.062,0 -2.291,0 0,0 z" /><path
             style="fill:#f4f4f4"
             inkscape:connector-curvature="0"
             id="line47"
             d="m 58.961,69.533 0,218.057 1.905,0 0,-218.057 -1.905,0 z" /><path
             style="fill:#f4f4f4"
             inkscape:connector-curvature="0"
             id="rect49"
             d="m 359.021,145.819 0,0.953 0,13.244 0,0.953 0.953,0 81.465,0 0.953,0 0,-0.953 0,-13.244 0,-0.953 -0.953,0 -81.465,0 -0.953,0 z m 1.906,1.905 79.561,0 0,11.339 -79.561,0 0,-11.339 z" /><path
             style="fill:#f4f4f4"
             inkscape:connector-curvature="0"
             id="rect51"
             d="m 448.248,145.819 0,0.953 0,13.244 0,0.953 0.953,0 81.436,0 0.952,0 0,-0.953 0,-13.244 0,-0.953 -0.952,0 -81.436,0 -0.953,0 z m 1.905,1.905 79.531,0 0,11.339 -79.531,0 0,-11.339 z" /><path
             style="fill:#f4f4f4"
             inkscape:connector-curvature="0"
             id="path53"
             d="m 276.804,73.134 c -0.987,0 -1.815,0.828 -1.815,1.816 l 0,53.01 c 0,0.988 0.829,1.815 1.815,1.815 l 282.855,0 c 0.985,0 1.785,-0.831 1.785,-1.815 l 0,-50.033 c 0,-2.641 -2.152,-4.792 -4.792,-4.792 l -279.844,0 -0.004,0 z m 0.09,1.906 279.756,0 c 1.613,0 2.888,1.275 2.888,2.887 l 0,49.945 -282.643,0 0,-52.832 -10e-4,0 z" /><path
             style="fill:#f4f4f4"
             inkscape:connector-curvature="0"
             id="path55"
             d="m 276.804,260.41 c -0.987,0 -1.815,0.829 -1.815,1.815 l 0,20.091 c 0,0.987 0.829,1.816 1.815,1.816 l 279.844,0 c 2.64,0 4.792,-2.183 4.792,-4.822 l 0,-17.085 c 0,-0.985 -0.8,-1.815 -1.785,-1.815 l -282.855,0 0.004,0 z m 0.09,1.905 282.645,0 0,16.995 c 0,1.611 -1.276,2.917 -2.888,2.917 l -279.758,0 0.001,-19.912 0,0 z" /><path
             style="fill:#f4f4f4"
             inkscape:connector-curvature="0"
             id="line57"
             d="m 274.461,129.271 -6.28,6.28 1.369,1.339 6.251,-6.25 -1.34,-1.369 z" /><path
             style="fill:#f4f4f4"
             inkscape:connector-curvature="0"
             id="line59"
             d="m 269.546,253.866 -1.369,1.34 6.281,6.28 1.339,-1.369 -6.251,-6.251 z" /></g></g></g></g><g
     inkscape:groupmode="layer"
     id="layer4"
     inkscape:label="Controller"><g
       id="g8192"
       transform="matrix(0.40749896,-0.24923165,-0.32476523,0.60612959,189.17577,246.25771)"><path
         id="path8128"
         d="m 18.313,202.613 c 0.002,-48.949 39.68,-88.631 88.631,-88.633 l 0,0 0,0.918 0,0.919 c -23.97,0 -45.663,9.715 -61.372,25.421 l 0,0 c -15.707,15.712 -25.42,37.404 -25.42,61.375 l 0,0 c 0,23.969 9.714,45.663 25.421,61.371 l 0,0 c 15.709,15.708 37.402,25.422 61.373,25.422 l 0,0 c 23.97,0 45.662,-9.714 61.372,-25.422 l 0,0 c 15.708,-15.708 25.42,-37.402 25.422,-61.371 l 0,0 c -0.002,-23.971 -9.714,-45.663 -25.422,-61.374 l 0,0 c -15.71,-15.706 -37.402,-25.421 -61.372,-25.421 l 0,0 0,-0.919 0,-0.918 c 48.95,0.001 88.631,39.684 88.631,88.633 l 0,0 c 0,48.948 -39.682,88.63 -88.631,88.632 l 0,0 C 57.994,291.243 18.315,251.562 18.313,202.613 l 0,0 z"
         inkscape:connector-curvature="0"
         style="fill:#f4f4f4" /><path
         id="path8130"
         d="m 69.56,202.612 c 0,-20.647 16.737,-37.384 37.385,-37.384 l 0,0 0,0.919 0,0.919 c -9.818,0 -18.699,3.978 -25.136,10.411 l 0,0 c -6.435,6.435 -10.412,15.314 -10.412,25.136 l 0,0 c 0,9.818 3.977,18.701 10.412,25.136 l 0,0 c 6.437,6.436 15.316,10.412 25.136,10.412 l 0,0 c 9.822,0 18.702,-3.977 25.137,-10.412 l 0,0 c 6.436,-6.435 10.411,-15.317 10.413,-25.136 l 0,0 c -0.002,-9.821 -3.977,-18.701 -10.413,-25.136 l 0,0 c -6.436,-6.434 -15.315,-10.411 -25.137,-10.411 l 0,0 0,-0.919 0,-0.919 c 20.648,0 37.385,16.736 37.388,37.384 l 0,0 c -0.002,20.647 -16.74,37.386 -37.388,37.386 l 0,0 c -20.648,0 -37.385,-16.738 -37.385,-37.386 l 0,0 z"
         inkscape:connector-curvature="0"
         style="fill:#f4f4f4" /><polygon
         id="polygon8132"
         points="106.946,141.912 112.049,161.286 101.843,161.286 "
         style="fill:#f4f4f4" /><polygon
         id="polygon8134"
         points="64.024,159.691 81.332,169.782 74.114,176.999 "
         style="fill:#f4f4f4" /><polygon
         id="polygon8136"
         points="46.245,202.613 65.618,197.51 65.618,207.717 "
         style="fill:#f4f4f4" /><polygon
         id="polygon8138"
         points="64.024,245.536 74.114,228.228 81.332,235.444 "
         style="fill:#f4f4f4" /><polygon
         id="polygon8140"
         points="106.946,263.313 101.843,243.94 112.049,243.94 "
         style="fill:#f4f4f4" /><polygon
         id="polygon8142"
         points="149.868,245.536 132.56,235.444 139.777,228.228 "
         style="fill:#f4f4f4" /><polygon
         id="polygon8144"
         points="167.647,202.613 148.275,207.717 148.275,197.51 "
         style="fill:#f4f4f4" /><polygon
         id="polygon8146"
         points="149.868,159.691 139.777,176.999 132.56,169.782 "
         style="fill:#f4f4f4" /><g
         id="g8148"><path
           id="path8150"
           d="m 265.771,171.37 c 0.002,-18.104 14.677,-32.779 32.782,-32.781 l 0,0 0,0.92 0,0.918 c -17.09,0.03 -30.913,13.854 -30.944,30.943 l 0,0 c 0.031,17.086 13.854,30.91 30.944,30.94 l 0,0 c 17.087,-0.03 30.911,-13.854 30.941,-30.94 l 0,0 c -0.03,-17.089 -13.854,-30.913 -30.941,-30.943 l 0,0 0,-0.918 0,-0.92 c 18.102,0.002 32.78,14.676 32.78,32.781 l 0,0 c 0,18.101 -14.678,32.778 -32.78,32.779 l 0,0 c -18.104,-0.002 -32.78,-14.678 -32.782,-32.779 l 0,0 z"
           inkscape:connector-curvature="0"
           style="fill:#f4f4f4" /><path
           id="path8152"
           d="m 276.264,171.37 c 0,-12.309 9.979,-22.287 22.288,-22.287 l 0,0 0,0.919 0,0.918 c -11.294,0.021 -20.43,9.156 -20.45,20.45 l 0,0 c 0.02,11.293 9.156,20.428 20.45,20.448 l 0,0 c 11.292,-0.02 20.428,-9.154 20.448,-20.448 l 0,0 c -0.021,-11.293 -9.156,-20.429 -20.448,-20.45 l 0,0 0,-0.918 0,-0.919 c 12.308,0 22.285,9.979 22.287,22.287 l 0,0 c -0.002,12.306 -9.979,22.286 -22.287,22.288 l 0,0 c -12.309,-0.003 -22.288,-9.981 -22.288,-22.288 l 0,0 z"
           inkscape:connector-curvature="0"
           style="fill:#f4f4f4" /></g><g
         id="g8154"><path
           id="path8156"
           d="m 348.942,162.179 c 0.002,-18.104 14.678,-32.778 32.78,-32.779 l 0,0 0,0.92 0,0.919 c -17.09,0.03 -30.911,13.854 -30.94,30.94 l 0,0 c 0.029,17.089 13.851,30.911 30.94,30.94 l 0,0 c 17.088,-0.029 30.909,-13.851 30.94,-30.94 l 0,0 c -0.031,-17.088 -13.853,-30.91 -30.94,-30.94 l 0,0 0,-0.919 0,-0.92 c 18.103,0.001 32.778,14.675 32.779,32.779 l 0,0 c -10e-4,18.103 -14.677,32.779 -32.779,32.779 l 0,0 c -18.102,0 -32.778,-14.676 -32.78,-32.779 l 0,0 z"
           inkscape:connector-curvature="0"
           style="fill:#f4f4f4" /><path
           id="path8158"
           d="m 359.436,162.179 c 0,-12.309 9.977,-22.287 22.287,-22.287 l 0,0 0,0.92 0,0.918 c -11.295,0.021 -20.429,9.155 -20.449,20.449 l 0,0 c 0.021,11.293 9.154,20.427 20.449,20.448 l 0,0 c 11.293,-0.021 20.429,-9.155 20.448,-20.448 l 0,0 c -0.02,-11.293 -9.155,-20.428 -20.448,-20.449 l 0,0 0,-0.918 0,-0.92 c 12.307,0 22.285,9.978 22.287,22.287 l 0,0 c -0.002,12.308 -9.98,22.286 -22.287,22.286 l 0,0 c -12.31,0.001 -22.287,-9.976 -22.287,-22.286 l 0,0 z"
           inkscape:connector-curvature="0"
           style="fill:#f4f4f4" /></g><g
         id="g8160"><path
           id="path8162"
           d="m 432.112,152.99 c 0.002,-18.105 14.676,-32.779 32.78,-32.779 l 0,0 0,0.918 0,0.919 c -17.09,0.03 -30.911,13.853 -30.94,30.941 l 0,0 c 0.029,17.088 13.851,30.91 30.94,30.94 l 0,0 c 17.087,-0.03 30.91,-13.853 30.941,-30.94 l 0,0 c -0.031,-17.088 -13.854,-30.912 -30.941,-30.941 l 0,0 0,-0.919 0,-0.918 c 18.1,0 32.778,14.674 32.78,32.779 l 0,0 c -0.002,18.104 -14.681,32.777 -32.78,32.779 l 0,0 c -18.104,-0.002 -32.778,-14.676 -32.78,-32.779 l 0,0 z"
           inkscape:connector-curvature="0"
           style="fill:#f4f4f4" /><path
           id="path8164"
           d="m 442.604,152.99 c 0.002,-12.31 9.978,-22.286 22.288,-22.288 l 0,0 0,0.919 0,0.92 c -11.294,0.02 -20.43,9.154 -20.448,20.448 l 0,0 c 0.019,11.293 9.154,20.428 20.448,20.448 l 0,0 c 11.295,-0.02 20.43,-9.155 20.45,-20.448 l 0,0 c -0.02,-11.294 -9.155,-20.428 -20.45,-20.448 l 0,0 0,-0.92 0,-0.919 c 12.31,0.002 22.287,9.979 22.287,22.288 l 0,0 c 0,12.311 -9.978,22.287 -22.287,22.287 l 0,0 c -12.31,-10e-4 -22.287,-9.978 -22.288,-22.287 l 0,0 z"
           inkscape:connector-curvature="0"
           style="fill:#f4f4f4" /></g><g
         id="g8166"><path
           id="path8168"
           d="m 512.916,90.567 c 0,-18.104 14.676,-32.779 32.78,-32.779 l 0,0 0,0.919 0,0.918 c -17.09,0.032 -30.91,13.853 -30.942,30.942 l 0,0 c 0.032,17.088 13.853,30.91 30.942,30.94 l 0,0 c 17.088,-0.031 30.908,-13.852 30.939,-30.94 l 0,0 C 576.604,73.478 562.783,59.657 545.696,59.625 l 0,0 0,-0.918 0,-0.919 c 18.103,0 32.778,14.675 32.778,32.779 l 0,0 c 0,18.104 -14.676,32.779 -32.778,32.779 l 0,0 c -18.104,0 -32.78,-14.675 -32.78,-32.779 l 0,0 z"
           inkscape:connector-curvature="0"
           style="fill:#f4f4f4" /><path
           id="path8170"
           d="m 523.407,90.567 c 0.002,-12.31 9.979,-22.288 22.289,-22.288 l 0,0 0,0.918 0,0.919 c -11.295,0.021 -20.428,9.155 -20.449,20.449 l 0,0 c 0.02,11.293 9.154,20.428 20.449,20.449 l 0,0 c 11.295,-0.021 20.428,-9.157 20.448,-20.449 l 0,0 C 566.123,79.271 556.991,70.136 545.696,70.116 l 0,0 0,-0.919 0,-0.917 c 12.31,0 22.286,9.978 22.287,22.288 l 0,0 c -10e-4,12.308 -9.978,22.287 -22.287,22.287 l 0,0 c -12.31,-0.001 -22.287,-9.98 -22.289,-22.288 l 0,0 z"
           inkscape:connector-curvature="0"
           style="fill:#f4f4f4" /></g><g
         id="g8172"><path
           id="path8174"
           d="m 265.771,253.005 c 0,-18.104 14.676,-32.781 32.781,-32.781 l 0,0 0,0.921 0,0.919 c -17.09,0.031 -30.913,13.852 -30.944,30.941 l 0,0 c 0.031,17.088 13.854,30.91 30.944,30.942 l 0,0 c 17.087,-0.032 30.91,-13.854 30.941,-30.942 l 0,0 c -0.031,-17.09 -13.854,-30.91 -30.941,-30.941 l 0,0 0,-0.919 0,-0.921 c 18.104,0 32.78,14.677 32.781,32.781 l 0,0 c -0.001,18.104 -14.678,32.778 -32.781,32.78 l 0,0 c -18.103,-0.002 -32.781,-14.677 -32.781,-32.78 l 0,0 z"
           inkscape:connector-curvature="0"
           style="fill:#f4f4f4" /><path
           id="path8176"
           d="m 276.265,253.006 c 0,-12.31 9.977,-22.287 22.288,-22.289 l 0,0 0,0.92 0,0.919 c -11.296,0.021 -20.43,9.154 -20.449,20.45 l 0,0 c 0.019,11.294 9.154,20.429 20.449,20.45 l 0,0 c 11.292,-0.021 20.428,-9.156 20.449,-20.45 l 0,0 c -0.021,-11.296 -9.157,-20.429 -20.449,-20.45 l 0,0 0,-0.919 0,-0.92 c 12.307,0.002 22.285,9.979 22.287,22.289 l 0,0 c -0.003,12.31 -9.979,22.286 -22.287,22.288 l 0,0 c -12.311,-0.002 -22.288,-9.979 -22.288,-22.288 l 0,0 z"
           inkscape:connector-curvature="0"
           style="fill:#f4f4f4" /></g><g
         id="g8178"><path
           id="path8180"
           d="m 348.942,243.816 c 0.002,-18.104 14.678,-32.781 32.78,-32.781 l 0,0 0,0.921 0,0.918 c -17.09,0.029 -30.911,13.854 -30.94,30.942 l 0,0 c 0.029,17.087 13.851,30.909 30.94,30.938 l 0,0 c 17.088,-0.029 30.909,-13.852 30.94,-30.938 l 0,0 c -0.031,-17.089 -13.853,-30.913 -30.94,-30.942 l 0,0 0,-0.918 0,-0.921 c 18.103,0 32.778,14.677 32.779,32.781 l 0,0 c -10e-4,18.103 -14.677,32.779 -32.779,32.779 l 0,0 c -18.102,10e-4 -32.778,-14.676 -32.78,-32.779 l 0,0 z"
           inkscape:connector-curvature="0"
           style="fill:#f4f4f4" /><path
           id="path8182"
           d="m 359.436,243.816 c 0,-12.31 9.977,-22.287 22.287,-22.287 l 0,0 0,0.919 0,0.92 c -11.295,0.019 -20.429,9.153 -20.449,20.448 l 0,0 c 0.021,11.292 9.154,20.428 20.449,20.447 l 0,0 c 11.293,-0.02 20.429,-9.155 20.448,-20.447 l 0,0 c -0.02,-11.295 -9.155,-20.43 -20.448,-20.448 l 0,0 0,-0.92 0,-0.919 c 12.307,0 22.285,9.978 22.287,22.287 l 0,0 c -0.002,12.309 -9.98,22.283 -22.287,22.286 l 0,0 c -12.31,-0.002 -22.287,-9.977 -22.287,-22.286 l 0,0 z"
           inkscape:connector-curvature="0"
           style="fill:#f4f4f4" /></g><path
         id="path8184"
         d="m 432.112,234.626 c 0.002,-18.104 14.676,-32.779 32.78,-32.781 l 0,0 0,0.92 0,0.919 c -17.09,0.031 -30.911,13.853 -30.94,30.942 l 0,0 c 0.029,17.088 13.851,30.91 30.94,30.94 l 0,0 c 17.087,-0.03 30.91,-13.853 30.941,-30.94 l 0,0 c -0.031,-17.09 -13.854,-30.911 -30.941,-30.942 l 0,0 0,-0.919 0,-0.92 c 18.1,0.002 32.778,14.677 32.78,32.781 l 0,0 c -0.002,18.104 -14.681,32.777 -32.78,32.781 l 0,0 c -18.104,-0.004 -32.778,-14.678 -32.78,-32.781 l 0,0 z"
         inkscape:connector-curvature="0"
         style="fill:#f4f4f4" /><path
         id="path8186"
         d="m 442.604,234.626 c 0.002,-12.31 9.978,-22.288 22.288,-22.288 l 0,0 0,0.919 0,0.92 c -11.294,0.02 -20.43,9.154 -20.448,20.449 l 0,0 c 0.019,11.293 9.154,20.429 20.448,20.447 l 0,0 c 11.295,-0.02 20.43,-9.154 20.45,-20.447 l 0,0 c -0.02,-11.295 -9.155,-20.429 -20.45,-20.449 l 0,0 0,-0.92 0,-0.919 c 12.31,0 22.287,9.979 22.287,22.288 l 0,0 c 0,12.309 -9.978,22.286 -22.287,22.286 l 0,0 c -12.31,0 -22.287,-9.977 -22.288,-22.286 l 0,0 z"
         inkscape:connector-curvature="0"
         style="fill:#f4f4f4" /></g><g
       style="display:inline"
       id="g9451"
       transform="matrix(0.28159936,-0.16549419,-0.1885924,0.39243395,263.18049,102.65348)"><path
         style="color:#000000;font-style:normal;font-variant:normal;font-weight:normal;font-stretch:normal;font-size:medium;line-height:normal;font-family:Sans;-inkscape-font-specification:Sans;text-indent:0;text-align:start;text-decoration:none;text-decoration-line:none;letter-spacing:normal;word-spacing:normal;text-transform:none;direction:ltr;block-progression:tb;writing-mode:lr-tb;baseline-shift:baseline;text-anchor:start;display:inline;overflow:visible;visibility:visible;fill:#f4f4f4;fill-opacity:1;stroke:none;stroke-width:2;marker:none;enable-background:accumulate"
         id="path3-0"
         d="M 0,-2.9739271e-6 0,0.99999703 0,53.343747 l 0,0.75 0.6875,0.21875 348.125,110.843753 0.15625,0.0625 0.15625,0 162.21875,0 1,0 0,-1 0,-65.656253 C 512.34375,44.11244 465.72569,-2.9739271e-6 408.28125,-2.9739271e-6 l -407.28125,0 -1,0 z M 2,1.999997 l 406.28125,0 c 56.42156,0 102.0625,43.254557 102.0625,96.5625 l 0,64.656253 -161.03125,0 L 2,52.624997 2,1.999997 Z"
         inkscape:connector-curvature="0" /><path
         style="color:#000000;font-style:normal;font-variant:normal;font-weight:normal;font-stretch:normal;font-size:medium;line-height:normal;font-family:Sans;-inkscape-font-specification:Sans;text-indent:0;text-align:start;text-decoration:none;text-decoration-line:none;letter-spacing:normal;word-spacing:normal;text-transform:none;direction:ltr;block-progression:tb;writing-mode:lr-tb;baseline-shift:baseline;text-anchor:start;display:inline;overflow:visible;visibility:visible;fill:#f4f4f4;fill-opacity:1;stroke:none;stroke-width:2;marker:none;enable-background:accumulate"
         id="rect5"
         d="m 324.6875,175.84375 0,1 0,103.5 0,1 1,0 185.375,0 1,0 0,-1 0,-103.5 0,-1 -1,0 -185.375,0 -1,0 z m 2,2 183.375,0 0,101.5 -183.375,0 0,-101.5 z"
         inkscape:connector-curvature="0" /><path
         style="color:#000000;font-style:normal;font-variant:normal;font-weight:normal;font-stretch:normal;font-size:medium;line-height:normal;font-family:Sans;-inkscape-font-specification:Sans;text-indent:0;text-align:start;text-decoration:none;text-decoration-line:none;letter-spacing:normal;word-spacing:normal;text-transform:none;direction:ltr;block-progression:tb;writing-mode:lr-tb;baseline-shift:baseline;text-anchor:start;display:inline;overflow:visible;visibility:visible;fill:#f4f4f4;fill-opacity:1;stroke:none;stroke-width:2;marker:none;enable-background:accumulate"
         id="polygon7"
         d="m 169.59375,116.25 0,1.34375 0,203.75 -60.03125,30.78125 -0.53125,0.28125 0,0.59375 0,59.53125 0,1 1,0 244.34375,0 1,0 0,-1 0,-115.875 0,-1 -1,0 -44.28125,0 0,-134.875 0,-0.71875 -0.71875,-0.21875 -138.5,-43.1875 -1.28125,-0.40625 z m 2,2.71875 136.5,42.5625 0,135.125 0,1 1,0 44.28125,0 0,113.875 -242.34375,0 0,-57.90625 60,-30.78125 0.5625,-0.28125 0,-0.625 0,-202.96875 z"
         inkscape:connector-curvature="0" /></g></g></svg>