<?xml version="1.0" encoding="UTF-8" standalone="no"?>
<!-- Generator: Adobe Illustrator 13.0.0, SVG Export Plug-In . SVG Version: 6.00 Build 14948)  -->

<svg
   xmlns:dc="http://purl.org/dc/elements/1.1/"
   xmlns:cc="http://creativecommons.org/ns#"
   xmlns:rdf="http://www.w3.org/1999/02/22-rdf-syntax-ns#"
   xmlns:svg="http://www.w3.org/2000/svg"
   xmlns="http://www.w3.org/2000/svg"
   xmlns:sodipodi="http://sodipodi.sourceforge.net/DTD/sodipodi-0.dtd"
   xmlns:inkscape="http://www.inkscape.org/namespaces/inkscape"
   version="1.1"
   id="Layer_2"
   x="0px"
   y="0px"
   width="550"
   height="550"
   viewBox="0 0 549.99995 549.99999"
   enable-background="new 0 0 598.189 350.26"
   xml:space="preserve"
   inkscape:version="0.91 r13725"
   sodipodi:docname="controller_gg.svg"><metadata
     id="metadata3083"><rdf:RDF><cc:Work
         rdf:about=""><dc:format>image/svg+xml</dc:format><dc:type
           rdf:resource="http://purl.org/dc/dcmitype/StillImage" /><dc:title></dc:title></cc:Work></rdf:RDF></metadata><defs
     id="defs3081" /><sodipodi:namedview
     pagecolor="#ffffff"
     bordercolor="#666666"
     borderopacity="1"
     objecttolerance="10"
     gridtolerance="10"
     guidetolerance="10"
     inkscape:pageopacity="0"
     inkscape:pageshadow="2"
     inkscape:window-width="1920"
     inkscape:window-height="1001"
     id="namedview3079"
     showgrid="false"
     inkscape:zoom="0.76362314"
     inkscape:cx="250.17814"
     inkscape:cy="504.23646"
     inkscape:window-x="-9"
     inkscape:window-y="759"
     inkscape:window-maximized="1"
     inkscape:current-layer="layer4"
     showguides="true"
     inkscape:guide-bbox="true" /><g
     inkscape:groupmode="layer"
     id="layer2"
     inkscape:label="Screen_Rect"
     style="display:none"
     transform="translate(0,199.73999)"
     sodipodi:insensitive="true"><path
       style="fill:#0000ff;stroke:#000000;stroke-width:1px;stroke-linecap:butt;stroke-linejoin:miter;stroke-opacity:1"
       d="M 5.0135033,547.22203 136.4109,114.39023 653.54628,-189.09358 406.482,260.92121 Z"
       id="path3021"
       inkscape:connector-curvature="0"
       transform="translate(-2e-5,-199.73999)"
       sodipodi:nodetypes="ccccc" /><rect
       style="opacity:0.60100002;fill:#d8201f;fill-opacity:1;stroke:#ff8080;stroke-width:2.45114732;stroke-linecap:round;stroke-linejoin:round;stroke-miterlimit:4;stroke-dasharray:none;stroke-opacity:1"
       id="rect4230"
       width="444.2457"
       height="9.9567661"
       x="145.95099"
       y="-211.30678" /></g><g
     inkscape:groupmode="layer"
     id="layer1"
     inkscape:label="Controller_Vorlage"
     style="display:none"
     sodipodi:insensitive="true"><g
       id="g4929"
       transform="translate(-0.929149,0.5695451)"><g
         transform="translate(0,199.73999)"
         style="display:none"
         inkscape:label="Layer2"
         id="layer2-9"><path
           sodipodi:nodetypes="ccccc"
           transform="translate(-2e-5,-199.73999)"
           inkscape:connector-curvature="0"
           id="path3021-0"
           d="M 5.0135033,547.22203 136.4109,114.39023 653.54628,-189.09358 406.482,260.92121 Z"
           style="fill:#ffffff;stroke:#000000;stroke-width:1px;stroke-linecap:butt;stroke-linejoin:miter;stroke-opacity:1" /></g><g
         inkscape:label="Layer"
         id="layer1-2"><g
           transform="matrix(0.55322035,-0.3970343,-0.34863416,0.85569517,173.63773,166.52161)"
           id="g3100"><path
             style="fill:#f4f4f4"
             inkscape:connector-curvature="0"
             id="path3"
             d="m 148.05,114.447 c -23.656,0 -42.861,19.204 -42.861,42.861 l 0,37.414 c 0,23.658 19.205,42.86 42.861,42.86 l 38.694,0 c 23.656,0 42.861,-19.202 42.861,-42.86 l 0,-37.414 c 0,-23.657 -19.205,-42.861 -42.861,-42.861 l -38.694,0 z m 0,1.905 38.694,0 c 22.627,0 40.956,18.328 40.956,40.956 l 0,37.414 c 0,22.629 -18.329,40.956 -40.956,40.956 l -38.694,0 c -22.628,0 -40.956,-18.327 -40.956,-40.956 l 0,-37.414 c 0,-22.629 18.328,-40.956 40.956,-40.956 z" /><path
             style="fill:#f4f4f4"
             inkscape:connector-curvature="0"
             id="path5"
             d="m 167.395,123.168 c -3.23,0 -5.863,2.633 -5.863,5.864 l 0,13.037 c 0,3.23 2.632,5.863 5.863,5.863 3.23,0 5.863,-2.633 5.863,-5.863 l 0,-13.037 c 0,-3.23 -2.633,-5.864 -5.863,-5.864 z m 0,1.906 c 2.201,0 3.958,1.758 3.958,3.958 l 0,13.037 c 0,2.2 -1.758,3.958 -3.958,3.958 -2.202,0 -3.958,-1.758 -3.958,-3.958 l 0,-13.037 c -0.001,-2.2 1.757,-3.958 3.958,-3.958 z" /><path
             style="fill:#f4f4f4"
             inkscape:connector-curvature="0"
             id="path7"
             d="m 120.425,170.135 c -3.23,0 -5.864,2.633 -5.864,5.864 0,3.231 2.632,5.894 5.864,5.894 l 13.037,0 c 3.229,0 5.864,-2.662 5.864,-5.894 0,-3.229 -2.633,-5.864 -5.864,-5.864 l -13.037,0 z m 0,1.905 13.037,0 c 2.201,0 3.959,1.759 3.959,3.959 0,2.201 -1.759,3.988 -3.959,3.988 l -13.037,0 c -2.198,-0.01 -3.955,-1.791 -3.955,-3.99 0,-2.201 1.758,-3.959 3.958,-3.959 l -0.003,0.002 z" /><path
             style="fill:#f4f4f4"
             inkscape:connector-curvature="0"
             id="path9"
             d="m 167.395,204.071 c -3.23,0 -5.863,2.663 -5.863,5.894 l 0,13.038 c 0,3.229 2.632,5.863 5.863,5.863 3.23,0 5.863,-2.633 5.863,-5.863 l 0,-13.038 c 0,-3.23 -2.633,-5.894 -5.863,-5.894 z m 0,1.906 c 2.201,0 3.958,1.789 3.958,3.988 l 0,13.038 c 0,2.2 -1.757,3.958 -3.958,3.958 -2.202,0 -3.958,-1.759 -3.958,-3.958 l 0,-13.038 c -0.001,-2.2 1.757,-3.988 3.958,-3.988 z" /><path
             style="fill:#f4f4f4"
             inkscape:connector-curvature="0"
             id="path11"
             d="m 201.321,170.135 c -3.229,0 -5.863,2.633 -5.863,5.864 0,3.231 2.633,5.894 5.863,5.894 l 13.067,0 c 3.229,0 5.863,-2.662 5.863,-5.894 0,-3.229 -2.633,-5.864 -5.863,-5.864 l -13.067,0 z m 0,1.905 13.067,0 c 2.2,0 3.958,1.76 3.958,3.959 0,2.201 -1.758,3.988 -3.958,3.988 l -13.067,0 c -2.2,0 -3.958,-1.788 -3.958,-3.988 0,-2.2 1.759,-3.959 3.958,-3.959 z" /><path
             style="fill:#f4f4f4"
             inkscape:connector-curvature="0"
             id="polygon13"
             d="m 133.878,141.176 -1.31,1.31 8.155,12.025 0.655,0.952 0.804,-0.803 3.869,-3.87 0.804,-0.804 -0.953,-0.655 -12.024,-8.155 z" /><path
             style="fill:#f4f4f4"
             inkscape:connector-curvature="0"
             id="polygon15"
             d="m 141.383,196.566 -0.654,0.952 -8.156,12.024 1.31,1.31 12.025,-8.155 0.953,-0.654 -0.804,-0.804 -3.87,-3.869 -0.804,-0.804 z" /><path
             style="fill:#f4f4f4"
             inkscape:connector-curvature="0"
             id="polygon17"
             d="m 193.435,196.566 -0.804,0.804 -3.869,3.869 -0.833,0.804 0.953,0.654 12.025,8.155 1.339,-1.31 -8.156,-12.024 -0.655,-0.952 0,0 z" /><path
             style="fill:#f4f4f4"
             inkscape:connector-curvature="0"
             id="polygon19"
             d="m 200.912,141.176 -12.025,8.155 -0.953,0.655 0.833,0.804 3.87,3.87 0.804,0.803 0.655,-0.952 8.155,-12.025 -1.339,-1.31 z" /><path
             style="fill:#f4f4f4"
             inkscape:connector-curvature="0"
             id="path21"
             d="m 146.354,104.833 c -27.67,0 -50.123,22.453 -50.123,50.124 l 0,42.117 c 0,27.671 22.453,50.123 50.123,50.123 l 42.117,0 c 27.671,0 50.124,-22.452 50.124,-50.123 l 0,-42.117 c 0,-27.67 -22.452,-50.124 -50.124,-50.124 l -42.117,0 z m 0,1.906 42.117,0 c 26.644,0 48.219,21.577 48.219,48.218 l 0,42.117 c 0,26.644 -21.577,48.218 -48.219,48.218 l -42.117,0 c -26.642,0 -48.218,-21.574 -48.218,-48.218 l 0,-42.117 c 0,-26.642 21.577,-48.218 48.218,-48.218 z" /><path
             style="fill:#f4f4f4"
             inkscape:connector-curvature="0"
             id="polygon23"
             d="m 69.499,75.694 0,0.952 0,202.961 0,0.952 0.953,0 196.122,0 0.952,0 0,-0.952 0,-26.401 289.521,0 0.952,0 0,-0.952 0,-113.458 0,-0.953 -0.952,0 -289.522,0 0,-61.196 0,-0.952 -0.952,0 -196.122,0 -0.952,-10e-4 0,0 z m 1.904,1.905 194.217,0 0,61.196 0,0.953 0.953,0 0.714,0 288.807,0 0,111.552 -289.226,0 -0.297,0 -0.953,0 0,0.953 0,26.4 -194.217,0 0,-201.055 0.002,0.001 z" /><path
             style="fill:#f4f4f4"
             inkscape:connector-curvature="0"
             id="circle25"
             d="m 400.692,169.126 c -19.762,0 -35.777,16.046 -35.777,35.807 0,19.761 16.018,35.807 35.777,35.807 19.759,0 35.807,-16.046 35.807,-35.807 0,-19.761 -16.047,-35.807 -35.807,-35.807 l 0,0 z m 0,1.905 c 18.73,0 33.901,15.17 33.901,33.902 0,18.732 -15.171,33.902 -33.901,33.902 -18.731,0 -33.872,-15.171 -33.872,-33.902 0,-18.731 15.141,-33.902 33.872,-33.902 l 0,0 z" /><path
             style="fill:#f4f4f4"
             inkscape:connector-curvature="0"
             id="circle27"
             d="m 400.692,177.669 c -15.039,0 -27.234,12.227 -27.234,27.265 0,15.038 12.195,27.234 27.234,27.234 15.036,0 27.264,-12.196 27.264,-27.234 0,-15.038 -12.227,-27.265 -27.264,-27.265 z m 0,1.905 c 14.008,0 25.359,11.351 25.359,25.359 0,14.008 -11.352,25.33 -25.359,25.33 -14.01,0 -25.33,-11.321 -25.33,-25.33 0,-14.009 11.321,-25.359 25.33,-25.359 z" /><path
             style="fill:#f4f4f4"
             inkscape:connector-curvature="0"
             id="circle29"
             d="m 489.919,169.126 c -19.762,0 -35.807,16.046 -35.807,35.807 0,19.761 16.045,35.807 35.807,35.807 19.76,0 35.807,-16.046 35.807,-35.807 0,-19.761 -16.047,-35.807 -35.807,-35.807 l 0,0 z m 0,1.905 c 18.73,0 33.901,15.17 33.901,33.902 0,18.732 -15.171,33.902 -33.901,33.902 -18.731,0 -33.902,-15.171 -33.902,-33.902 0,-18.731 15.171,-33.902 33.902,-33.902 l 0,0 z" /><path
             style="fill:#f4f4f4"
             inkscape:connector-curvature="0"
             id="circle31"
             d="m 489.919,177.669 c -15.039,0 -27.234,12.227 -27.234,27.265 0,15.038 12.195,27.234 27.234,27.234 15.036,0 27.234,-12.196 27.234,-27.234 0,-15.038 -12.196,-27.265 -27.234,-27.265 z m 0,1.905 c 14.008,0 25.329,11.351 25.329,25.359 0,14.008 -11.321,25.33 -25.329,25.33 -14.01,0 -25.33,-11.321 -25.33,-25.33 0,-14.009 11.32,-25.359 25.33,-25.359 z" /><path
             style="fill:#f4f4f4"
             inkscape:connector-curvature="0"
             id="path33"
             d="m 39.406,68.432 c -4.766,0 -8.662,3.896 -8.662,8.662 l 0,203.084 c 0,4.766 3.897,8.661 8.662,8.661 l 518.646,0 c 4.429,0 7.956,-3.411 8.453,-7.709 l 0.179,0 0,-0.952 0,-203.085 c 0,-4.762 -3.868,-8.658 -8.64,-8.658 l -518.645,0 0.007,-0.003 z m 0,1.904 518.646,0 c 3.737,0 6.727,3.021 6.727,6.757 l 0,202.131 0,0.953 c 0,3.736 -2.989,6.756 -6.727,6.756 l -518.646,0 c -3.732,0.01 -6.753,-3.019 -6.753,-6.753 l 0,-203.083 c 0,-3.736 3.02,-6.756 6.756,-6.756 l -0.003,-0.005 z" /><path
             style="fill:#f4f4f4"
             inkscape:connector-curvature="0"
             id="rect35"
             d="m 359.021,163.559 0,0.953 0,81.465 0,0.952 0.953,0 81.465,0 0.953,0 0,-0.952 0,-81.465 0,-0.953 -0.953,0 -81.465,0 -0.953,0 z m 1.906,1.905 79.561,0 0,79.56 -79.561,0 0,-79.56 z" /><path
             style="fill:#f4f4f4"
             inkscape:connector-curvature="0"
             id="rect37"
             d="m 448.248,163.559 0,0.953 0,81.465 0,0.952 0.953,0 81.436,0 0.952,0 0,-0.952 0,-81.465 0,-0.953 -0.952,0 -81.436,0 -0.953,0 z m 1.905,1.905 79.531,0 0,79.56 -79.531,0 0,-79.56 z" /><path
             style="fill:#f4f4f4"
             inkscape:connector-curvature="0"
             id="polyline39"
             d="m 83.934,94.177 0,2.292 0,159.061 0,2.322 1.607,-1.638 25.33,-25.299 -1.369,-1.369 -23.663,23.692 0,-154.45 23.663,23.658 1.369,-1.34 -25.33,-25.299 -1.607,-1.637 0,0.007 z" /><path
             style="fill:#f4f4f4"
             inkscape:connector-curvature="0"
             id="polyline41"
             d="m 222.305,232.551 -1.37,1.339 23.693,23.692 -154.452,0 23.574,-23.573 -1.369,-1.339 -25.181,25.182 -1.637,1.637 2.292,0 159.062,0 2.292,0 -1.607,-1.637 -25.299,-25.3 0.002,-0.001 z" /><path
             style="fill:#f4f4f4"
             inkscape:connector-curvature="0"
             id="polyline43"
             d="m 250.878,94.177 -1.637,1.637 -25.211,25.182 1.369,1.369 23.574,-23.603 0,154.509 -23.633,-23.663 -1.339,1.34 25.24,25.27 1.637,1.638 0,-2.322 0,-159.063 0,-2.292 0,-0.002 z" /><path
             style="fill:#f4f4f4"
             inkscape:connector-curvature="0"
             id="polyline45"
             d="m 85.57,92.54 1.638,1.608 25.21,25.24 1.339,-1.34 -23.572,-23.602 154.452,0 -23.669,23.662 1.333,1.339 25.307,-25.3 1.607,-1.607 -2.292,0 -159.062,0 -2.291,0 0,0 z" /><path
             style="fill:#f4f4f4"
             inkscape:connector-curvature="0"
             id="line47"
             d="m 58.961,69.533 0,218.057 1.905,0 0,-218.057 -1.905,0 z" /><path
             style="fill:#f4f4f4"
             inkscape:connector-curvature="0"
             id="rect49"
             d="m 359.021,145.819 0,0.953 0,13.244 0,0.953 0.953,0 81.465,0 0.953,0 0,-0.953 0,-13.244 0,-0.953 -0.953,0 -81.465,0 -0.953,0 z m 1.906,1.905 79.561,0 0,11.339 -79.561,0 0,-11.339 z" /><path
             style="fill:#f4f4f4"
             inkscape:connector-curvature="0"
             id="rect51"
             d="m 448.248,145.819 0,0.953 0,13.244 0,0.953 0.953,0 81.436,0 0.952,0 0,-0.953 0,-13.244 0,-0.953 -0.952,0 -81.436,0 -0.953,0 z m 1.905,1.905 79.531,0 0,11.339 -79.531,0 0,-11.339 z" /><path
             style="fill:#f4f4f4"
             inkscape:connector-curvature="0"
             id="path53"
             d="m 276.804,73.134 c -0.987,0 -1.815,0.828 -1.815,1.816 l 0,53.01 c 0,0.988 0.829,1.815 1.815,1.815 l 282.855,0 c 0.985,0 1.785,-0.831 1.785,-1.815 l 0,-50.033 c 0,-2.641 -2.152,-4.792 -4.792,-4.792 l -279.844,0 -0.004,0 z m 0.09,1.906 279.756,0 c 1.613,0 2.888,1.275 2.888,2.887 l 0,49.945 -282.643,0 0,-52.832 -10e-4,0 z" /><path
             style="fill:#f4f4f4"
             inkscape:connector-curvature="0"
             id="path55"
             d="m 276.804,260.41 c -0.987,0 -1.815,0.829 -1.815,1.815 l 0,20.091 c 0,0.987 0.829,1.816 1.815,1.816 l 279.844,0 c 2.64,0 4.792,-2.183 4.792,-4.822 l 0,-17.085 c 0,-0.985 -0.8,-1.815 -1.785,-1.815 l -282.855,0 0.004,0 z m 0.09,1.905 282.645,0 0,16.995 c 0,1.611 -1.276,2.917 -2.888,2.917 l -279.758,0 0.001,-19.912 0,0 z" /><path
             style="fill:#f4f4f4"
             inkscape:connector-curvature="0"
             id="line57"
             d="m 274.461,129.271 -6.28,6.28 1.369,1.339 6.251,-6.25 -1.34,-1.369 z" /><path
             style="fill:#f4f4f4"
             inkscape:connector-curvature="0"
             id="line59"
             d="m 269.546,253.866 -1.369,1.34 6.281,6.28 1.339,-1.369 -6.251,-6.251 z" /></g></g></g></g><g
     inkscape:groupmode="layer"
     id="layer4"
     inkscape:label="Controller"><g
       id="g6453"
       transform="matrix(0.40930292,-0.26784503,-0.22494538,0.61690011,190.11788,168.52613)"><path
         d="m 39.132,82.143 c -7.519,0 -13.624,6.105 -13.624,13.624 l 0,142.041 c 0,7.52 6.105,13.653 13.624,13.653 l 518.128,0 c 7.519,0 13.625,-6.134 13.625,-13.653 l 0,-142.041 c 0,-7.519 -6.106,-13.624 -13.625,-13.624 l -212.364,0 0,1.933 212.364,0 c 6.474,0 11.691,5.215 11.691,11.69 l 0,142.041 c 0,6.475 -5.218,11.72 -11.691,11.72 l -518.128,0 c -6.475,0 -11.691,-5.245 -11.691,-11.72 l 0,-142.04 c 0,-6.474 5.216,-11.69 11.691,-11.69 l 252.935,0 0,-1.933 -252.935,0 0,-0.001 z"
         id="path3-4"
         inkscape:connector-curvature="0"
         style="fill:#f4f4f4" /><path
         d="m 23.455,63.474 c -7.519,0 -13.624,6.105 -13.624,13.625 l 0,185.394 c 0,7.52 6.105,13.625 13.624,13.624 l 549.458,0 c 7.518,0 13.654,-6.104 13.654,-13.624 l 0,-185.385 c 0,-7.525 -6.129,-13.629 -13.65,-13.629 l -228.073,0 -0.756,0 -0.181,0.694 -0.121,0.454 -0.029,0.121 0,0.151 0,31.174 c 0,14.148 -11.47,25.587 -25.617,25.587 -14.147,0 -25.586,-11.44 -25.586,-25.587 l 0,-31.175 0,-0.211 -0.061,-0.151 -0.174,-0.454 -0.27,-0.604 -0.639,0 -267.947,0 -0.008,-0.004 z m 0,1.933 267.165,0 0,30.661 c 0,15.192 12.327,27.521 27.518,27.521 15.193,0 27.551,-12.327 27.551,-27.521 l 0,-30.661 227.221,0 c 6.474,0 11.721,5.217 11.721,11.692 l 0,185.385 c 0,6.474 -5.247,11.689 -11.721,11.689 l -549.456,0 c -6.47,0.01 -11.687,-5.209 -11.687,-11.677 l 0,-185.393 c 0,-6.475 5.217,-11.69 11.691,-11.69 l -0.003,-0.006 z"
         id="path5-1"
         inkscape:connector-curvature="0"
         style="fill:#f4f4f4" /><path
         d="m 287.831,83.2 0,12.867 c 0,16.728 13.574,30.3 30.299,30.3 16.727,0 30.329,-13.572 30.329,-30.3 l 0,-12.777 -1.934,0 0,12.777 c 0,15.682 -12.714,28.367 -28.396,28.367 -15.682,0 -28.365,-12.684 -28.365,-28.367 l 0,-12.867 -1.933,0 z"
         id="path7-5"
         inkscape:connector-curvature="0"
         style="fill:#f4f4f4" /><path
         d="m 291.524,64.32 0,1.934 53.136,0 0,-1.934 -53.136,0 z"
         id="line9"
         inkscape:connector-curvature="0"
         style="fill:#f4f4f4" /><path
         d="m 149.726,133.043 c -19.673,0 -35.646,15.974 -35.646,35.646 0,19.672 15.973,35.646 35.646,35.646 19.672,0 35.645,-15.974 35.645,-35.646 0,-19.672 -15.973,-35.646 -35.645,-35.646 z m 0,1.934 c 18.627,0 33.712,15.085 33.712,33.713 0,18.626 -15.085,33.712 -33.712,33.712 -18.628,0 -33.713,-15.086 -33.713,-33.712 0,-18.628 15.085,-33.713 33.713,-33.713 z"
         id="circle11"
         inkscape:connector-curvature="0"
         style="fill:#f4f4f4" /><path
         d="m 149.726,152.377 c -8.993,0 -16.313,7.32 -16.313,16.313 0,8.992 7.319,16.313 16.313,16.313 8.992,0 16.282,-7.32 16.282,-16.313 -0.001,-8.993 -7.29,-16.313 -16.282,-16.313 z m 0,1.934 c 7.947,0 14.349,6.431 14.349,14.379 0,7.947 -6.401,14.379 -14.349,14.379 -7.948,0 -14.379,-6.432 -14.379,-14.379 0,-7.948 6.43,-14.379 14.379,-14.379 z"
         id="circle13"
         inkscape:connector-curvature="0"
         style="fill:#f4f4f4" /><path
         d="m 149.726,155.941 c -7.029,0 -12.749,5.719 -12.749,12.748 0,7.028 5.72,12.748 12.749,12.748 7.028,0 12.748,-5.719 12.748,-12.748 -10e-4,-7.028 -5.72,-12.748 -12.748,-12.748 z m 0,1.934 c 5.983,0 10.815,4.831 10.815,10.815 0,5.982 -4.832,10.814 -10.815,10.814 -5.984,0 -10.815,-4.831 -10.815,-10.814 0,-5.983 4.83,-10.815 10.815,-10.815 z"
         id="circle15"
         inkscape:connector-curvature="0"
         style="fill:#f4f4f4" /><path
         d="m 149.938,142.378 c -14.763,0 -26.733,12.002 -26.733,26.764 0,14.763 11.972,26.735 26.733,26.735 14.763,0 26.765,-11.973 26.765,-26.735 0,-14.762 -12.002,-26.764 -26.765,-26.764 z m 0,1.934 c 13.718,0 24.832,11.114 24.832,24.831 0,13.718 -11.114,24.801 -24.832,24.801 -13.717,0 -24.8,-11.084 -24.8,-24.801 0,-13.718 11.083,-24.831 24.8,-24.831 z"
         id="circle17"
         inkscape:connector-curvature="0"
         style="fill:#f4f4f4" /><path
         d="m 279.102,144.825 c -13.458,0 -24.377,10.92 -24.377,24.378 0,13.458 10.92,24.408 24.377,24.408 13.458,0 24.378,-10.95 24.378,-24.408 0,-13.458 -10.92,-24.378 -24.378,-24.378 z m 0,1.933 c 12.413,0 22.445,10.032 22.445,22.445 0,12.413 -10.032,22.474 -22.445,22.474 -12.413,0 -22.444,-10.062 -22.444,-22.474 0,-12.412 10.031,-22.445 22.444,-22.445 z"
         id="circle19"
         inkscape:connector-curvature="0"
         style="fill:#f4f4f4" /><path
         d="m 354.231,144.825 c -13.458,0 -24.378,10.92 -24.378,24.378 0,13.458 10.92,24.408 24.378,24.408 13.458,0 24.377,-10.95 24.377,-24.408 0,-13.458 -10.919,-24.378 -24.377,-24.378 z m 0,1.933 c 12.411,0 22.444,10.032 22.444,22.445 0,12.413 -10.033,22.474 -22.444,22.474 -12.414,0 -22.445,-10.062 -22.445,-22.474 0,-12.412 10.031,-22.445 22.445,-22.445 z"
         id="circle21"
         inkscape:connector-curvature="0"
         style="fill:#f4f4f4" /><path
         d="m 429.359,144.825 c -13.458,0 -24.378,10.92 -24.378,24.378 0,13.458 10.92,24.408 24.378,24.408 13.458,0 24.377,-10.95 24.377,-24.408 0,-13.458 -10.919,-24.378 -24.377,-24.378 z m 0,1.933 c 12.413,0 22.444,10.032 22.444,22.445 0,12.413 -10.031,22.474 -22.444,22.474 -12.412,0 -22.445,-10.062 -22.445,-22.474 0,-12.412 10.033,-22.445 22.445,-22.445 z"
         id="circle23"
         inkscape:connector-curvature="0"
         style="fill:#f4f4f4" /><path
         d="m 504.489,144.825 c -13.456,0 -24.381,10.92 -24.381,24.383 0,13.458 10.921,24.408 24.379,24.408 13.457,0 24.377,-10.95 24.377,-24.408 0,-13.458 -10.92,-24.378 -24.377,-24.378 l 0.002,-0.005 z m 0,1.933 c 12.411,0 22.443,10.032 22.443,22.445 0,12.413 -10.032,22.474 -22.443,22.474 -12.414,0 -22.445,-10.062 -22.445,-22.474 0,-12.412 10.031,-22.445 22.445,-22.445 z"
         id="circle25-0"
         inkscape:connector-curvature="0"
         style="fill:#f4f4f4" /><path
         d="m 149.599,116.157 c -14.418,0 -27.459,5.835 -36.915,15.285 -9.449,9.456 -15.283,22.498 -15.285,36.915 0.003,14.418 5.836,27.458 15.285,36.915 9.456,9.451 22.496,15.283 36.915,15.284 14.419,-0.002 27.459,-5.835 36.915,-15.284 9.45,-9.455 15.284,-22.495 15.285,-36.915 -0.001,-14.417 -5.835,-27.459 -15.285,-36.915 -9.454,-9.449 -22.494,-15.284 -36.917,-15.285 l 0.002,0 z m 0,1.934 c 13.897,0.001 26.447,5.608 35.555,14.711 9.104,9.109 14.71,21.66 14.711,35.555 -0.001,13.898 -5.608,26.416 -14.711,35.524 -9.108,9.103 -21.658,14.74 -35.555,14.741 -13.896,0 -26.446,-5.638 -35.554,-14.741 -9.1,-9.105 -14.706,-21.623 -14.708,-35.524 0.002,-13.896 5.609,-26.445 14.708,-35.555 9.105,-9.104 21.663,-14.711 35.554,-14.711 l 0,0 z"
         id="path27"
         inkscape:connector-curvature="0"
         style="fill:#f4f4f4" /><path
         d="m 279.102,140.505 c -7.936,0.001 -15.094,3.196 -20.3,8.398 -5.202,5.206 -8.426,12.364 -8.428,20.3 0.001,7.935 3.227,15.125 8.428,20.331 5.206,5.201 12.364,8.396 20.3,8.397 7.936,-0.001 15.094,-3.197 20.3,-8.397 5.2,-5.206 8.426,-12.395 8.427,-20.331 -0.001,-7.935 -3.227,-15.093 -8.427,-20.3 -5.206,-5.201 -12.364,-8.397 -20.3,-8.398 l 0,0 z m 0,1.933 c 7.416,0.001 14.08,2.968 18.941,7.824 4.855,4.86 7.852,11.525 7.854,18.941 -0.002,7.415 -2.999,14.079 -7.854,18.941 -4.861,4.855 -11.526,7.853 -18.941,7.854 -7.416,-10e-4 -14.08,-2.998 -18.94,-7.854 -4.856,-4.861 -7.853,-11.526 -7.854,-18.941 0,-7.416 2.997,-14.08 7.854,-18.941 4.859,-4.856 11.524,-7.823 18.94,-7.824 z"
         id="path29"
         inkscape:connector-curvature="0"
         style="fill:#f4f4f4" /><path
         d="m 354.231,140.505 c -7.938,0.001 -15.095,3.198 -20.3,8.398 -5.202,5.206 -8.427,12.364 -8.429,20.3 0.002,7.935 3.227,15.125 8.429,20.331 5.203,5.201 12.362,8.396 20.3,8.397 7.933,-0.002 15.092,-3.197 20.3,-8.397 5.199,-5.206 8.426,-12.395 8.428,-20.331 -0.002,-7.936 -3.229,-15.094 -8.428,-20.3 -5.208,-5.2 -12.365,-8.397 -20.3,-8.398 l 0,0 z m 0,1.933 c 7.414,0.001 14.079,2.969 18.94,7.824 4.854,4.859 7.853,11.524 7.854,18.941 -0.002,7.415 -3,14.08 -7.854,18.941 -4.861,4.855 -11.526,7.852 -18.94,7.854 -7.416,-0.002 -14.083,-2.999 -18.94,-7.854 -4.856,-4.86 -7.853,-11.526 -7.854,-18.941 0.002,-7.417 2.998,-14.08 7.854,-18.941 4.857,-4.854 11.524,-7.823 18.94,-7.824 z"
         id="path31"
         inkscape:connector-curvature="0"
         style="fill:#f4f4f4" /><path
         d="m 429.359,140.505 c -7.936,0.001 -15.091,3.198 -20.3,8.398 -5.2,5.207 -8.427,12.364 -8.429,20.3 0.002,7.934 3.229,15.125 8.429,20.331 5.209,5.2 12.364,8.396 20.3,8.397 7.933,-0.001 15.092,-3.197 20.3,-8.397 5.199,-5.206 8.426,-12.396 8.428,-20.331 -0.002,-7.936 -3.229,-15.092 -8.428,-20.3 -5.208,-5.2 -12.365,-8.397 -20.3,-8.398 l 0,0 z m 0,1.933 c 7.414,0.001 14.079,2.969 18.94,7.824 4.855,4.861 7.853,11.524 7.854,18.941 -0.002,7.414 -2.999,14.079 -7.854,18.941 -4.861,4.855 -11.526,7.853 -18.94,7.854 -7.414,-10e-4 -14.077,-2.998 -18.94,-7.854 -4.854,-4.861 -7.853,-11.527 -7.854,-18.941 0.002,-7.416 3,-14.079 7.854,-18.941 4.852,-4.869 11.513,-7.838 18.927,-7.838 l 0.013,0.014 z"
         id="path33-4"
         inkscape:connector-curvature="0"
         style="fill:#f4f4f4" /><path
         d="m 504.489,140.505 c -7.936,0.001 -15.096,3.197 -20.3,8.398 -5.202,5.207 -8.429,12.365 -8.429,20.3 0,7.935 3.227,15.125 8.429,20.331 5.204,5.2 12.364,8.396 20.3,8.397 7.933,-0.002 15.09,-3.197 20.3,-8.397 5.198,-5.206 8.423,-12.395 8.427,-20.331 -0.002,-7.935 -3.229,-15.092 -8.427,-20.3 -5.208,-5.201 -12.365,-8.395 -20.3,-8.398 l 0,0 z m 0,1.933 c 7.414,0.002 14.076,2.968 18.94,7.824 4.855,4.861 7.853,11.525 7.854,18.941 -0.002,7.415 -2.999,14.079 -7.854,18.941 -4.862,4.855 -11.526,7.852 -18.94,7.854 -7.416,-0.002 -14.081,-2.998 -18.941,-7.854 -4.855,-4.861 -7.854,-11.526 -7.854,-18.941 0,-7.416 2.998,-14.079 7.854,-18.941 4.86,-4.856 11.525,-7.823 18.941,-7.824 z"
         id="path35"
         inkscape:connector-curvature="0"
         style="fill:#f4f4f4" /><path
         d="M 204.167,171.682"
         id="path37"
         inkscape:connector-curvature="0"
         style="fill:none;stroke:#f4f4f4;stroke-width:1.93330002" /><path
         d="m 149.599,109.481 c -32.501,0.003 -58.872,26.374 -58.875,58.875 0.002,32.5 26.373,58.873 58.875,58.875 31.051,-0.003 56.452,-24.095 58.665,-54.587 l 35.676,0 c 1.732,17.927 16.789,31.958 35.162,31.959 18.368,-0.001 33.421,-14.041 35.163,-31.959 l 4.803,0 c 1.741,17.917 16.795,31.956 35.163,31.959 18.366,-0.003 33.39,-14.044 35.132,-31.959 l 4.833,0 c 1.737,17.921 16.793,31.958 35.163,31.959 18.37,-0.001 33.425,-14.036 35.162,-31.959 l 4.803,0 c 1.745,17.916 16.796,31.958 35.161,31.959 19.535,-0.001 35.371,-15.868 35.373,-35.403 -0.002,-19.535 -15.838,-35.373 -35.373,-35.374 -17.772,0.001 -32.471,13.122 -34.981,30.207 l -5.195,0 c -2.514,-17.094 -17.178,-30.214 -34.953,-30.217 -17.776,0.003 -32.44,13.123 -34.951,30.208 l -5.226,0 c -2.512,-17.086 -17.178,-30.208 -34.951,-30.208 -17.773,0.001 -32.44,13.12 -34.951,30.208 l -5.226,0 c -2.519,-17.075 -17.185,-30.205 -34.95,-30.208 -17.771,0.004 -32.437,13.125 -34.951,30.208 l -35.886,0 c -2.21,-30.493 -27.612,-54.552 -58.665,-54.556 l 0,0.013 z m 0,1.934 c 30.316,0.003 55.059,23.664 56.821,53.529 l 0,0.03 0.03,0.061 0,0.936 0.967,0 37.428,0 0.363,0 0.272,-0.211 0.09,-0.06 0.272,-0.242 0.06,-0.393 c 2.042,-16.523 16.113,-29.299 33.199,-29.301 17.06,0.003 31.123,12.756 33.2,29.241 l 0.029,0.182 0.091,0.181 0.091,0.151 0.302,0.453 0.544,0 6.706,0 0.815,0 0.121,-0.815 0.031,-0.211 c 2.103,-16.458 16.158,-29.18 33.198,-29.181 17.065,0.001 31.131,12.744 33.199,29.242 l 0.029,0.272 0.182,0.211 0.091,0.151 0.302,0.332 0.453,0 6.677,0 0.694,0 0.211,-0.664 0.061,-0.151 0.03,-0.091 0,-0.09 c 2.117,-16.493 16.171,-29.219 33.232,-29.221 17.063,0.001 31.117,12.728 33.195,29.211 l 0,0.03 0.03,0.151 0.121,0.816 0.815,0 6.767,0 0.635,0 0.241,-0.574 0.03,-0.091 0.061,-0.121 0.03,-0.151 c 2.054,-16.509 16.123,-29.271 33.198,-29.272 18.489,0.001 33.438,14.949 33.44,33.44 -0.002,18.49 -14.951,33.469 -33.44,33.471 -17.654,-0.002 -32.105,-13.64 -33.38,-30.962 l 0,-0.242 -0.12,-0.181 -0.061,-0.091 -0.272,-0.483 -0.544,0 -6.403,0 -0.847,0 -0.121,0.846 0,0.091 -0.029,0.029 0,0.03 c -1.286,17.313 -15.709,30.962 -33.359,30.962 -17.668,-0.002 -32.125,-13.684 -33.379,-31.024 l 0,-0.302 -0.211,-0.242 -0.03,-0.03 -0.302,-0.363 -0.453,0 -6.344,0 -0.423,0 -0.272,0.302 -0.09,0.091 -0.241,0.242 -0.031,0.362 c -1.272,17.322 -15.694,30.958 -33.35,30.962 -17.646,-0.004 -32.095,-13.625 -33.38,-30.933 l 0,-0.09 0,-0.061 -0.03,-0.121 -0.181,-0.755 -0.756,0 -6.374,0 -0.544,0 -0.271,0.483 -0.091,0.151 -0.12,0.181 -0.031,0.241 c -1.299,17.295 -15.715,30.901 -33.349,30.903 -17.583,-0.002 -31.976,-13.53 -33.351,-30.752 0,0.006 -0.002,-0.07 0,-0.09 l 0,-0.061 c 0,-0.084 0.006,-0.182 -0.06,-0.362 -0.067,-0.181 -0.237,-0.444 -0.483,-0.574 l -0.242,-0.121 -0.242,0 -37.306,0 -0.967,0 0,0.967 0,0.029 0,0.03 c -1.75,29.879 -26.527,53.557 -56.851,53.56 -31.493,-0.029 -56.975,-25.511 -56.977,-56.965 0.002,-31.457 25.485,-56.939 56.941,-56.942 l 0.013,0.034 z"
         id="path39"
         inkscape:connector-curvature="0"
         style="fill:#f4f4f4" /><path
         d="M 244.748,171.663"
         id="path41"
         inkscape:connector-curvature="0"
         style="fill:none;stroke:#f4f4f4;stroke-width:1.93330002" /></g></g></svg>