<?xml version="1.0" encoding="UTF-8" standalone="no"?>
<!-- Generator: Adobe Illustrator 13.0.0, SVG Export Plug-In . SVG Version: 6.00 Build 14948)  -->

<svg
   xmlns:dc="http://purl.org/dc/elements/1.1/"
   xmlns:cc="http://creativecommons.org/ns#"
   xmlns:rdf="http://www.w3.org/1999/02/22-rdf-syntax-ns#"
   xmlns:svg="http://www.w3.org/2000/svg"
   xmlns="http://www.w3.org/2000/svg"
   xmlns:sodipodi="http://sodipodi.sourceforge.net/DTD/sodipodi-0.dtd"
   xmlns:inkscape="http://www.inkscape.org/namespaces/inkscape"
   version="1.1"
   id="Layer_2"
   x="0px"
   y="0px"
   width="550"
   height="550"
   viewBox="0 0 549.99995 549.99999"
   enable-background="new 0 0 598.189 350.26"
   xml:space="preserve"
   inkscape:version="0.91 r13725"
   sodipodi:docname="controller_gg.svg"><metadata
     id="metadata3083"><rdf:RDF><cc:Work
         rdf:about=""><dc:format>image/svg+xml</dc:format><dc:type
           rdf:resource="http://purl.org/dc/dcmitype/StillImage" /><dc:title></dc:title></cc:Work></rdf:RDF></metadata><defs
     id="defs3081" /><sodipodi:namedview
     pagecolor="#ffffff"
     bordercolor="#666666"
     borderopacity="1"
     objecttolerance="10"
     gridtolerance="10"
     guidetolerance="10"
     inkscape:pageopacity="0"
     inkscape:pageshadow="2"
     inkscape:window-width="1920"
     inkscape:window-height="1001"
     id="namedview3079"
     showgrid="false"
     inkscape:zoom="1.0799262"
     inkscape:cx="248.77122"
     inkscape:cy="298.43665"
     inkscape:window-x="-9"
     inkscape:window-y="-9"
     inkscape:window-maximized="1"
     inkscape:current-layer="layer4"
     showguides="true"
     inkscape:guide-bbox="true" /><g
     inkscape:groupmode="layer"
     id="layer2"
     inkscape:label="Screen_Rect"
     style="display:none"
     transform="translate(0,199.73999)"
     sodipodi:insensitive="true"><path
       style="fill:#0000ff;stroke:#000000;stroke-width:1px;stroke-linecap:butt;stroke-linejoin:miter;stroke-opacity:1"
       d="M 5.0135033,547.22203 136.4109,114.39023 653.54628,-189.09358 406.482,260.92121 Z"
       id="path3021"
       inkscape:connector-curvature="0"
       transform="translate(-2e-5,-199.73999)"
       sodipodi:nodetypes="ccccc" /><rect
       style="opacity:0.60100002;fill:#d8201f;fill-opacity:1;stroke:#ff8080;stroke-width:2.45114732;stroke-linecap:round;stroke-linejoin:round;stroke-miterlimit:4;stroke-dasharray:none;stroke-opacity:1"
       id="rect4230"
       width="444.2457"
       height="9.9567661"
       x="145.95099"
       y="-211.30678" /></g><g
     inkscape:groupmode="layer"
     id="layer1"
     inkscape:label="Controller_Vorlage"
     style="display:none"
     sodipodi:insensitive="true"><g
       id="g4929"
       transform="translate(-0.929149,0.5695451)"><g
         transform="translate(0,199.73999)"
         style="display:none"
         inkscape:label="Layer2"
         id="layer2-9"><path
           sodipodi:nodetypes="ccccc"
           transform="translate(-2e-5,-199.73999)"
           inkscape:connector-curvature="0"
           id="path3021-0"
           d="M 5.0135033,547.22203 136.4109,114.39023 653.54628,-189.09358 406.482,260.92121 Z"
           style="fill:#ffffff;stroke:#000000;stroke-width:1px;stroke-linecap:butt;stroke-linejoin:miter;stroke-opacity:1" /></g><g
         inkscape:label="Layer"
         id="layer1-2"><g
           transform="matrix(0.55322035,-0.3970343,-0.34863416,0.85569517,173.63773,166.52161)"
           id="g3100"><path
             style="fill:#f4f4f4"
             inkscape:connector-curvature="0"
             id="path3"
             d="m 148.05,114.447 c -23.656,0 -42.861,19.204 -42.861,42.861 l 0,37.414 c 0,23.658 19.205,42.86 42.861,42.86 l 38.694,0 c 23.656,0 42.861,-19.202 42.861,-42.86 l 0,-37.414 c 0,-23.657 -19.205,-42.861 -42.861,-42.861 l -38.694,0 z m 0,1.905 38.694,0 c 22.627,0 40.956,18.328 40.956,40.956 l 0,37.414 c 0,22.629 -18.329,40.956 -40.956,40.956 l -38.694,0 c -22.628,0 -40.956,-18.327 -40.956,-40.956 l 0,-37.414 c 0,-22.629 18.328,-40.956 40.956,-40.956 z" /><path
             style="fill:#f4f4f4"
             inkscape:connector-curvature="0"
             id="path5"
             d="m 167.395,123.168 c -3.23,0 -5.863,2.633 -5.863,5.864 l 0,13.037 c 0,3.23 2.632,5.863 5.863,5.863 3.23,0 5.863,-2.633 5.863,-5.863 l 0,-13.037 c 0,-3.23 -2.633,-5.864 -5.863,-5.864 z m 0,1.906 c 2.201,0 3.958,1.758 3.958,3.958 l 0,13.037 c 0,2.2 -1.758,3.958 -3.958,3.958 -2.202,0 -3.958,-1.758 -3.958,-3.958 l 0,-13.037 c -0.001,-2.2 1.757,-3.958 3.958,-3.958 z" /><path
             style="fill:#f4f4f4"
             inkscape:connector-curvature="0"
             id="path7"
             d="m 120.425,170.135 c -3.23,0 -5.864,2.633 -5.864,5.864 0,3.231 2.632,5.894 5.864,5.894 l 13.037,0 c 3.229,0 5.864,-2.662 5.864,-5.894 0,-3.229 -2.633,-5.864 -5.864,-5.864 l -13.037,0 z m 0,1.905 13.037,0 c 2.201,0 3.959,1.759 3.959,3.959 0,2.201 -1.759,3.988 -3.959,3.988 l -13.037,0 c -2.198,-0.01 -3.955,-1.791 -3.955,-3.99 0,-2.201 1.758,-3.959 3.958,-3.959 l -0.003,0.002 z" /><path
             style="fill:#f4f4f4"
             inkscape:connector-curvature="0"
             id="path9"
             d="m 167.395,204.071 c -3.23,0 -5.863,2.663 -5.863,5.894 l 0,13.038 c 0,3.229 2.632,5.863 5.863,5.863 3.23,0 5.863,-2.633 5.863,-5.863 l 0,-13.038 c 0,-3.23 -2.633,-5.894 -5.863,-5.894 z m 0,1.906 c 2.201,0 3.958,1.789 3.958,3.988 l 0,13.038 c 0,2.2 -1.757,3.958 -3.958,3.958 -2.202,0 -3.958,-1.759 -3.958,-3.958 l 0,-13.038 c -0.001,-2.2 1.757,-3.988 3.958,-3.988 z" /><path
             style="fill:#f4f4f4"
             inkscape:connector-curvature="0"
             id="path11"
             d="m 201.321,170.135 c -3.229,0 -5.863,2.633 -5.863,5.864 0,3.231 2.633,5.894 5.863,5.894 l 13.067,0 c 3.229,0 5.863,-2.662 5.863,-5.894 0,-3.229 -2.633,-5.864 -5.863,-5.864 l -13.067,0 z m 0,1.905 13.067,0 c 2.2,0 3.958,1.76 3.958,3.959 0,2.201 -1.758,3.988 -3.958,3.988 l -13.067,0 c -2.2,0 -3.958,-1.788 -3.958,-3.988 0,-2.2 1.759,-3.959 3.958,-3.959 z" /><path
             style="fill:#f4f4f4"
             inkscape:connector-curvature="0"
             id="polygon13"
             d="m 133.878,141.176 -1.31,1.31 8.155,12.025 0.655,0.952 0.804,-0.803 3.869,-3.87 0.804,-0.804 -0.953,-0.655 -12.024,-8.155 z" /><path
             style="fill:#f4f4f4"
             inkscape:connector-curvature="0"
             id="polygon15"
             d="m 141.383,196.566 -0.654,0.952 -8.156,12.024 1.31,1.31 12.025,-8.155 0.953,-0.654 -0.804,-0.804 -3.87,-3.869 -0.804,-0.804 z" /><path
             style="fill:#f4f4f4"
             inkscape:connector-curvature="0"
             id="polygon17"
             d="m 193.435,196.566 -0.804,0.804 -3.869,3.869 -0.833,0.804 0.953,0.654 12.025,8.155 1.339,-1.31 -8.156,-12.024 -0.655,-0.952 0,0 z" /><path
             style="fill:#f4f4f4"
             inkscape:connector-curvature="0"
             id="polygon19"
             d="m 200.912,141.176 -12.025,8.155 -0.953,0.655 0.833,0.804 3.87,3.87 0.804,0.803 0.655,-0.952 8.155,-12.025 -1.339,-1.31 z" /><path
             style="fill:#f4f4f4"
             inkscape:connector-curvature="0"
             id="path21"
             d="m 146.354,104.833 c -27.67,0 -50.123,22.453 -50.123,50.124 l 0,42.117 c 0,27.671 22.453,50.123 50.123,50.123 l 42.117,0 c 27.671,0 50.124,-22.452 50.124,-50.123 l 0,-42.117 c 0,-27.67 -22.452,-50.124 -50.124,-50.124 l -42.117,0 z m 0,1.906 42.117,0 c 26.644,0 48.219,21.577 48.219,48.218 l 0,42.117 c 0,26.644 -21.577,48.218 -48.219,48.218 l -42.117,0 c -26.642,0 -48.218,-21.574 -48.218,-48.218 l 0,-42.117 c 0,-26.642 21.577,-48.218 48.218,-48.218 z" /><path
             style="fill:#f4f4f4"
             inkscape:connector-curvature="0"
             id="polygon23"
             d="m 69.499,75.694 0,0.952 0,202.961 0,0.952 0.953,0 196.122,0 0.952,0 0,-0.952 0,-26.401 289.521,0 0.952,0 0,-0.952 0,-113.458 0,-0.953 -0.952,0 -289.522,0 0,-61.196 0,-0.952 -0.952,0 -196.122,0 -0.952,-10e-4 0,0 z m 1.904,1.905 194.217,0 0,61.196 0,0.953 0.953,0 0.714,0 288.807,0 0,111.552 -289.226,0 -0.297,0 -0.953,0 0,0.953 0,26.4 -194.217,0 0,-201.055 0.002,0.001 z" /><path
             style="fill:#f4f4f4"
             inkscape:connector-curvature="0"
             id="circle25"
             d="m 400.692,169.126 c -19.762,0 -35.777,16.046 -35.777,35.807 0,19.761 16.018,35.807 35.777,35.807 19.759,0 35.807,-16.046 35.807,-35.807 0,-19.761 -16.047,-35.807 -35.807,-35.807 l 0,0 z m 0,1.905 c 18.73,0 33.901,15.17 33.901,33.902 0,18.732 -15.171,33.902 -33.901,33.902 -18.731,0 -33.872,-15.171 -33.872,-33.902 0,-18.731 15.141,-33.902 33.872,-33.902 l 0,0 z" /><path
             style="fill:#f4f4f4"
             inkscape:connector-curvature="0"
             id="circle27"
             d="m 400.692,177.669 c -15.039,0 -27.234,12.227 -27.234,27.265 0,15.038 12.195,27.234 27.234,27.234 15.036,0 27.264,-12.196 27.264,-27.234 0,-15.038 -12.227,-27.265 -27.264,-27.265 z m 0,1.905 c 14.008,0 25.359,11.351 25.359,25.359 0,14.008 -11.352,25.33 -25.359,25.33 -14.01,0 -25.33,-11.321 -25.33,-25.33 0,-14.009 11.321,-25.359 25.33,-25.359 z" /><path
             style="fill:#f4f4f4"
             inkscape:connector-curvature="0"
             id="circle29"
             d="m 489.919,169.126 c -19.762,0 -35.807,16.046 -35.807,35.807 0,19.761 16.045,35.807 35.807,35.807 19.76,0 35.807,-16.046 35.807,-35.807 0,-19.761 -16.047,-35.807 -35.807,-35.807 l 0,0 z m 0,1.905 c 18.73,0 33.901,15.17 33.901,33.902 0,18.732 -15.171,33.902 -33.901,33.902 -18.731,0 -33.902,-15.171 -33.902,-33.902 0,-18.731 15.171,-33.902 33.902,-33.902 l 0,0 z" /><path
             style="fill:#f4f4f4"
             inkscape:connector-curvature="0"
             id="circle31"
             d="m 489.919,177.669 c -15.039,0 -27.234,12.227 -27.234,27.265 0,15.038 12.195,27.234 27.234,27.234 15.036,0 27.234,-12.196 27.234,-27.234 0,-15.038 -12.196,-27.265 -27.234,-27.265 z m 0,1.905 c 14.008,0 25.329,11.351 25.329,25.359 0,14.008 -11.321,25.33 -25.329,25.33 -14.01,0 -25.33,-11.321 -25.33,-25.33 0,-14.009 11.32,-25.359 25.33,-25.359 z" /><path
             style="fill:#f4f4f4"
             inkscape:connector-curvature="0"
             id="path33"
             d="m 39.406,68.432 c -4.766,0 -8.662,3.896 -8.662,8.662 l 0,203.084 c 0,4.766 3.897,8.661 8.662,8.661 l 518.646,0 c 4.429,0 7.956,-3.411 8.453,-7.709 l 0.179,0 0,-0.952 0,-203.085 c 0,-4.762 -3.868,-8.658 -8.64,-8.658 l -518.645,0 0.007,-0.003 z m 0,1.904 518.646,0 c 3.737,0 6.727,3.021 6.727,6.757 l 0,202.131 0,0.953 c 0,3.736 -2.989,6.756 -6.727,6.756 l -518.646,0 c -3.732,0.01 -6.753,-3.019 -6.753,-6.753 l 0,-203.083 c 0,-3.736 3.02,-6.756 6.756,-6.756 l -0.003,-0.005 z" /><path
             style="fill:#f4f4f4"
             inkscape:connector-curvature="0"
             id="rect35"
             d="m 359.021,163.559 0,0.953 0,81.465 0,0.952 0.953,0 81.465,0 0.953,0 0,-0.952 0,-81.465 0,-0.953 -0.953,0 -81.465,0 -0.953,0 z m 1.906,1.905 79.561,0 0,79.56 -79.561,0 0,-79.56 z" /><path
             style="fill:#f4f4f4"
             inkscape:connector-curvature="0"
             id="rect37"
             d="m 448.248,163.559 0,0.953 0,81.465 0,0.952 0.953,0 81.436,0 0.952,0 0,-0.952 0,-81.465 0,-0.953 -0.952,0 -81.436,0 -0.953,0 z m 1.905,1.905 79.531,0 0,79.56 -79.531,0 0,-79.56 z" /><path
             style="fill:#f4f4f4"
             inkscape:connector-curvature="0"
             id="polyline39"
             d="m 83.934,94.177 0,2.292 0,159.061 0,2.322 1.607,-1.638 25.33,-25.299 -1.369,-1.369 -23.663,23.692 0,-154.45 23.663,23.658 1.369,-1.34 -25.33,-25.299 -1.607,-1.637 0,0.007 z" /><path
             style="fill:#f4f4f4"
             inkscape:connector-curvature="0"
             id="polyline41"
             d="m 222.305,232.551 -1.37,1.339 23.693,23.692 -154.452,0 23.574,-23.573 -1.369,-1.339 -25.181,25.182 -1.637,1.637 2.292,0 159.062,0 2.292,0 -1.607,-1.637 -25.299,-25.3 0.002,-0.001 z" /><path
             style="fill:#f4f4f4"
             inkscape:connector-curvature="0"
             id="polyline43"
             d="m 250.878,94.177 -1.637,1.637 -25.211,25.182 1.369,1.369 23.574,-23.603 0,154.509 -23.633,-23.663 -1.339,1.34 25.24,25.27 1.637,1.638 0,-2.322 0,-159.063 0,-2.292 0,-0.002 z" /><path
             style="fill:#f4f4f4"
             inkscape:connector-curvature="0"
             id="polyline45"
             d="m 85.57,92.54 1.638,1.608 25.21,25.24 1.339,-1.34 -23.572,-23.602 154.452,0 -23.669,23.662 1.333,1.339 25.307,-25.3 1.607,-1.607 -2.292,0 -159.062,0 -2.291,0 0,0 z" /><path
             style="fill:#f4f4f4"
             inkscape:connector-curvature="0"
             id="line47"
             d="m 58.961,69.533 0,218.057 1.905,0 0,-218.057 -1.905,0 z" /><path
             style="fill:#f4f4f4"
             inkscape:connector-curvature="0"
             id="rect49"
             d="m 359.021,145.819 0,0.953 0,13.244 0,0.953 0.953,0 81.465,0 0.953,0 0,-0.953 0,-13.244 0,-0.953 -0.953,0 -81.465,0 -0.953,0 z m 1.906,1.905 79.561,0 0,11.339 -79.561,0 0,-11.339 z" /><path
             style="fill:#f4f4f4"
             inkscape:connector-curvature="0"
             id="rect51"
             d="m 448.248,145.819 0,0.953 0,13.244 0,0.953 0.953,0 81.436,0 0.952,0 0,-0.953 0,-13.244 0,-0.953 -0.952,0 -81.436,0 -0.953,0 z m 1.905,1.905 79.531,0 0,11.339 -79.531,0 0,-11.339 z" /><path
             style="fill:#f4f4f4"
             inkscape:connector-curvature="0"
             id="path53"
             d="m 276.804,73.134 c -0.987,0 -1.815,0.828 -1.815,1.816 l 0,53.01 c 0,0.988 0.829,1.815 1.815,1.815 l 282.855,0 c 0.985,0 1.785,-0.831 1.785,-1.815 l 0,-50.033 c 0,-2.641 -2.152,-4.792 -4.792,-4.792 l -279.844,0 -0.004,0 z m 0.09,1.906 279.756,0 c 1.613,0 2.888,1.275 2.888,2.887 l 0,49.945 -282.643,0 0,-52.832 -10e-4,0 z" /><path
             style="fill:#f4f4f4"
             inkscape:connector-curvature="0"
             id="path55"
             d="m 276.804,260.41 c -0.987,0 -1.815,0.829 -1.815,1.815 l 0,20.091 c 0,0.987 0.829,1.816 1.815,1.816 l 279.844,0 c 2.64,0 4.792,-2.183 4.792,-4.822 l 0,-17.085 c 0,-0.985 -0.8,-1.815 -1.785,-1.815 l -282.855,0 0.004,0 z m 0.09,1.905 282.645,0 0,16.995 c 0,1.611 -1.276,2.917 -2.888,2.917 l -279.758,0 0.001,-19.912 0,0 z" /><path
             style="fill:#f4f4f4"
             inkscape:connector-curvature="0"
             id="line57"
             d="m 274.461,129.271 -6.28,6.28 1.369,1.339 6.251,-6.25 -1.34,-1.369 z" /><path
             style="fill:#f4f4f4"
             inkscape:connector-curvature="0"
             id="line59"
             d="m 269.546,253.866 -1.369,1.34 6.281,6.28 1.339,-1.369 -6.251,-6.251 z" /></g></g></g></g><g
     inkscape:groupmode="layer"
     id="layer4"
     inkscape:label="Controller"><g
       id="g12071"
       transform="matrix(0.6053386,-0.42591656,-0.39241046,0.88143881,187.17593,162.10456)"><path
         d="m 132.578,118.871 -1.493,0.047 c 0.188,4.141 -1.065,14.976 -2.543,25.128 -1.496,10.275 -4.074,43.734 1.983,71.534 3.014,13.837 6.548,27.614 11.176,38.288 4.627,10.673 10.375,18.39 18.059,19.644 7.462,1.219 12.823,-1.296 16.705,-6.719 3.882,-5.422 6.438,-13.658 8.913,-24.147 4.936,-20.932 10.158,-44.334 11.246,-49.275 0.493,-2.239 2.223,-4.853 4.503,-6.838 2.28,-1.984 5.095,-3.331 7.583,-3.242 l 0.047,-1.471 c -3.041,-0.108 -6.128,1.409 -8.61,3.57 -2.482,2.16 -4.375,4.978 -4.97,7.676 -1.083,4.927 -6.336,28.313 -11.269,49.229 -2.461,10.435 -5.013,18.523 -8.656,23.612 -3.644,5.089 -8.212,7.264 -15.259,6.113 -6.825,-1.115 -12.388,-8.262 -16.939,-18.76 -4.551,-10.497 -8.076,-24.206 -11.083,-38.007 -5.984,-27.469 -3.424,-60.917 -1.96,-70.974 1.483,-10.179 2.774,-20.862 2.567,-25.408 z"
         id="path3-7"
         inkscape:connector-curvature="0"
         style="fill:#f4f4f4" /><path
         d="m 224.504,33.524 c -0.575,0.016 -1.397,0.154 -3.313,0.351 -2.067,0.212 -10.274,1.605 -19.389,3.359 -9.115,1.754 -19.028,3.834 -24.288,5.437 -5.285,1.61 -11.05,4.629 -15.632,7.35 -2.291,1.359 -4.292,2.632 -5.763,3.64 -0.736,0.504 -1.343,0.942 -1.796,1.283 -0.453,0.341 -0.71,0.542 -0.934,0.793 -0.633,0.712 -0.742,1.682 -0.792,3.103 -0.052,1.421 0.017,3.338 0.116,5.903 l 1.493,-0.07 c -0.098,-2.567 -0.164,-4.445 -0.116,-5.763 0.047,-1.317 0.264,-2.017 0.42,-2.193 -0.027,0.03 0.293,-0.26 0.723,-0.583 0.429,-0.323 1.005,-0.743 1.727,-1.237 1.443,-0.988 3.408,-2.25 5.669,-3.593 4.523,-2.684 10.251,-5.662 15.329,-7.209 5.104,-1.555 15.03,-3.64 24.125,-5.39 9.094,-1.75 17.465,-3.177 19.248,-3.359 1.934,-0.198 2.834,-0.317 3.197,-0.327 0.181,-0.004 0.189,0.001 0.187,0 -0.003,-10e-4 0.066,0.051 0.256,0.187 l 0.863,-1.213 c -0.155,-0.111 -0.269,-0.217 -0.513,-0.327 -0.244,-0.11 -0.529,-0.149 -0.817,-0.142 z"
         id="path5-8"
         inkscape:connector-curvature="0"
         style="fill:#f4f4f4" /><path
         d="m 297.741,7.114 c -27.119,0 -51.562,6.695 -68.851,17.476 l -0.42,0.256 0.07,0.466 9.262,65.351 -13.299,-49.182 -1.423,0.396 16.425,60.826 0,0.023 0.024,0.07 1.446,-0.28 0,-0.094 -0.023,-0.093 L 230.08,25.616 C 247.048,15.162 271.07,8.607 297.741,8.607 l 0.444,0 c 26.664,0 50.694,6.562 67.661,17.009 l -10.873,76.807 -0.023,0.094 1.471,0.28 16.448,-60.919 -1.446,-0.396 -13.321,49.323 9.285,-65.492 0.07,-0.466 -0.396,-0.256 C 349.772,13.811 325.306,7.115 298.186,7.115 l -0.445,0 z"
         id="path7-3"
         inkscape:connector-curvature="0"
         style="fill:#f4f4f4" /><path
         d="m 228.494,25.195 c 0,0 -1.992,4.088 -3.687,8.773 -0.852,2.354 -1.309,4.09 -2.077,5.296 -0.767,1.206 -1.816,2 -4.223,2.612 -2.361,0.603 -9.328,1.519 -17.545,2.94 -8.218,1.421 -17.76,3.372 -25.618,6.159 -26.018,9.229 -44.283,34.542 -44.283,63.742 0,37.542 30.455,67.094 67.964,67.988 16.527,0.393 27.768,2.494 35.417,5.53 7.65,3.036 11.708,6.979 14.092,11.175 1.087,1.914 2.283,6.95 3.36,13.533 1.077,6.582 2.118,14.781 3.15,23.354 2.063,17.146 4.12,35.763 6.649,46.126 3.063,12.55 7.081,27.383 12.716,39.15 2.817,5.884 6.051,10.989 9.8,14.676 3.748,3.686 8.058,5.949 12.948,5.949 l 1.609,0 c 4.892,0 9.225,-2.264 12.973,-5.949 3.747,-3.687 6.959,-8.792 9.775,-14.676 5.636,-11.768 9.653,-26.601 12.716,-39.15 2.531,-10.362 4.609,-28.98 6.674,-46.126 1.031,-8.573 2.05,-16.771 3.125,-23.354 1.078,-6.584 2.274,-11.619 3.36,-13.533 2.386,-4.196 6.467,-8.139 14.114,-11.175 7.65,-3.036 18.869,-5.137 35.396,-5.53 37.509,-0.894 67.964,-30.445 67.964,-67.988 0,-29.2 -18.266,-54.513 -44.283,-63.742 -7.857,-2.787 -17.399,-4.738 -25.617,-6.159 -8.218,-1.421 -15.185,-2.338 -17.546,-2.94 -2.407,-0.612 -3.455,-1.406 -4.224,-2.612 -0.766,-1.206 -1.2,-2.942 -2.051,-5.296 -1.695,-4.685 -3.688,-8.773 -3.688,-8.773 l -1.354,0.654 c 0,0 1.955,4.016 3.615,8.609 0.828,2.284 1.258,4.092 2.218,5.6 0.96,1.508 2.482,2.598 5.109,3.267 2.673,0.681 9.48,1.548 17.662,2.963 8.183,1.415 17.68,3.356 25.384,6.09 25.415,9.014 43.281,33.764 43.281,62.341 0,36.735 -29.772,65.62 -66.52,66.495 -16.637,0.396 -28.011,2.49 -35.905,5.622 -7.896,3.134 -12.313,7.342 -14.863,11.83 -1.379,2.43 -2.438,7.394 -3.523,14.021 -1.083,6.629 -2.117,14.848 -3.149,23.425 -2.063,17.157 -4.149,35.797 -6.625,45.94 -3.057,12.52 -7.081,27.295 -12.623,38.871 -2.771,5.786 -5.913,10.778 -9.473,14.278 -3.558,3.499 -7.486,5.505 -11.923,5.505 l -1.609,0 c -4.436,0 -8.363,-2.006 -11.922,-5.505 -3.559,-3.5 -6.701,-8.492 -9.473,-14.278 -5.542,-11.576 -9.566,-26.352 -12.622,-38.871 -2.477,-10.145 -4.562,-28.783 -6.625,-45.94 -1.033,-8.577 -2.066,-16.797 -3.15,-23.425 -1.083,-6.627 -2.143,-11.592 -3.523,-14.021 -2.55,-4.488 -6.967,-8.696 -14.862,-11.83 -7.895,-3.132 -19.27,-5.227 -35.907,-5.622 -36.747,-0.875 -66.518,-29.76 -66.518,-66.495 0,-28.577 17.865,-53.327 43.28,-62.341 7.705,-2.733 17.202,-4.675 25.384,-6.09 8.183,-1.415 14.989,-2.282 17.663,-2.963 2.626,-0.669 4.149,-1.758 5.109,-3.267 0.96,-1.508 1.39,-3.315 2.216,-5.6 1.662,-4.593 3.616,-8.609 3.616,-8.609 l -1.328,-0.654 z"
         id="path9-8"
         inkscape:connector-curvature="0"
         style="fill:#f4f4f4" /><path
         d="m 463.349,118.871 c -0.206,4.545 1.084,15.229 2.566,25.408 1.464,10.057 4.024,43.505 -1.96,70.974 -3.006,13.801 -6.531,27.51 -11.082,38.007 -4.552,10.498 -10.114,17.645 -16.938,18.76 -7.047,1.15 -11.592,-1.024 -15.236,-6.113 -3.643,-5.089 -6.218,-13.178 -8.679,-23.612 -4.934,-20.916 -10.161,-44.302 -11.247,-49.229 -0.593,-2.698 -2.51,-5.516 -4.993,-7.676 -2.481,-2.161 -5.568,-3.679 -8.608,-3.57 l 0.069,1.471 c 2.488,-0.089 5.28,1.258 7.56,3.242 2.281,1.985 4.012,4.599 4.504,6.838 1.087,4.94 6.332,28.344 11.269,49.275 2.475,10.489 5.03,18.726 8.912,24.147 3.884,5.423 9.244,7.938 16.706,6.719 7.684,-1.254 13.432,-8.971 18.059,-19.644 4.628,-10.674 8.161,-24.451 11.176,-38.288 6.056,-27.8 3.479,-61.259 1.983,-71.534 -1.479,-10.153 -2.756,-20.988 -2.567,-25.128 l -1.494,-0.047 z"
         id="path11-2"
         inkscape:connector-curvature="0"
         style="fill:#f4f4f4" /><path
         d="m 371.445,33.524 c -0.287,-0.007 -0.572,0.031 -0.816,0.141 -0.243,0.109 -0.382,0.215 -0.537,0.327 l 0.863,1.213 c 0.192,-0.136 0.285,-0.188 0.281,-0.187 -0.004,10e-4 -0.019,-0.004 0.162,0 0.364,0.009 1.264,0.129 3.197,0.327 1.783,0.183 10.153,1.609 19.248,3.359 9.095,1.75 19.045,3.835 24.148,5.39 5.077,1.548 10.783,4.525 15.306,7.209 2.262,1.343 4.227,2.605 5.668,3.593 0.723,0.495 1.322,0.915 1.75,1.237 0.43,0.322 0.728,0.614 0.701,0.583 0.156,0.177 0.396,0.876 0.443,2.193 0.048,1.318 -0.019,3.196 -0.117,5.763 l 1.47,0.07 c 0.099,-2.565 0.192,-4.481 0.14,-5.903 -0.051,-1.421 -0.183,-2.391 -0.816,-3.103 -0.224,-0.252 -0.479,-0.453 -0.934,-0.793 -0.453,-0.34 -1.059,-0.779 -1.796,-1.283 -1.472,-1.008 -3.449,-2.28 -5.739,-3.64 -4.582,-2.72 -10.369,-5.739 -15.655,-7.35 -5.261,-1.603 -15.173,-3.682 -24.288,-5.437 -9.114,-1.754 -17.299,-3.147 -19.365,-3.359 -1.916,-0.196 -2.738,-0.334 -3.314,-0.35 z"
         id="path13"
         inkscape:connector-curvature="0"
         style="fill:#f4f4f4" /><path
         d="m 189.974,79.745 c -21.771,0 -39.43,17.683 -39.43,39.453 0,21.77 17.659,39.43 39.43,39.43 21.771,0 39.43,-17.66 39.43,-39.43 0,-21.77 -17.659,-39.453 -39.43,-39.453 z m 0,1.493 c 20.964,0 37.937,16.996 37.937,37.96 0,20.964 -16.973,37.938 -37.937,37.938 -20.964,0 -37.937,-16.973 -37.937,-37.938 0,-20.964 16.972,-37.96 37.937,-37.96 z"
         id="circle15"
         inkscape:connector-curvature="0"
         style="fill:#f4f4f4" /><path
         d="m 297.975,111.429 c -10.215,0 -18.525,8.31 -18.525,18.525 0,10.215 8.31,18.501 18.525,18.501 10.215,0 18.501,-8.286 18.501,-18.501 10e-4,-10.216 -8.286,-18.525 -18.501,-18.525 z m 0,1.493 c 9.408,0 17.007,7.624 17.007,17.032 0,9.407 -7.6,17.009 -17.007,17.009 -9.407,0 -17.032,-7.602 -17.032,-17.009 0,-9.409 7.624,-17.032 17.032,-17.032 z"
         id="circle17"
         inkscape:connector-curvature="0"
         style="fill:#f4f4f4" /><path
         d="m 297.975,161.871 c -20.899,0 -37.867,16.969 -37.867,37.867 0,20.898 16.968,37.844 37.867,37.844 20.899,0 37.842,-16.945 37.842,-37.844 0,-20.899 -16.943,-37.867 -37.842,-37.867 z m 0,1.493 c 20.091,0 36.35,16.282 36.35,36.374 0,20.092 -16.259,36.351 -36.35,36.351 -20.092,0 -36.374,-16.259 -36.374,-36.351 0,-20.092 16.282,-36.374 36.374,-36.374 z"
         id="circle19"
         inkscape:connector-curvature="0"
         style="fill:#f4f4f4" /><path
         d="m 297.975,115.979 c -7.708,0 -13.976,6.268 -13.976,13.976 0,7.707 6.268,13.976 13.976,13.976 7.708,0 13.975,-6.269 13.975,-13.976 0,-7.709 -6.266,-13.976 -13.975,-13.976 z m 0,1.493 c 6.901,0 12.482,5.582 12.482,12.482 0,6.9 -5.581,12.482 -12.482,12.482 -6.901,0 -12.482,-5.581 -12.482,-12.482 0,-6.901 5.581,-12.482 12.482,-12.482 z"
         id="circle21"
         inkscape:connector-curvature="0"
         style="fill:#f4f4f4" /><path
         d="m 370.396,114.112 c -8.471,0 -15.354,6.881 -15.354,15.352 0,8.471 6.883,15.352 15.354,15.352 8.471,0 15.354,-6.881 15.354,-15.352 -10e-4,-8.471 -6.884,-15.352 -15.354,-15.352 z m 0,1.493 c 7.664,0 13.859,6.195 13.859,13.859 0,7.663 -6.195,13.858 -13.859,13.858 -7.663,0 -13.859,-6.195 -13.859,-13.858 -10e-4,-7.664 6.195,-13.859 13.859,-13.859 z"
         id="circle23"
         inkscape:connector-curvature="0"
         style="fill:#f4f4f4" /><path
         d="m 395.664,138.983 c -8.472,0 -15.354,6.881 -15.354,15.352 0,8.471 6.882,15.352 15.354,15.352 8.471,0 15.352,-6.881 15.352,-15.352 0,-8.471 -6.881,-15.352 -15.352,-15.352 z m 0,1.493 c 7.664,0 13.858,6.195 13.858,13.859 0,7.664 -6.194,13.859 -13.858,13.859 -7.664,0 -13.859,-6.195 -13.859,-13.859 0,-7.664 6.195,-13.859 13.859,-13.859 z"
         id="circle25-3"
         inkscape:connector-curvature="0"
         style="fill:#f4f4f4" /><path
         d="m 182.274,88.051 c -2.803,0 -5.086,2.284 -5.086,5.086 l 0,11.572 c 0,0.687 -0.091,1.133 -0.233,1.33 -0.143,0.197 -0.383,0.374 -1.237,0.374 l -11.805,0 c -2.802,0 -5.086,2.284 -5.086,5.086 l 0,15.399 c 0,2.802 2.284,5.086 5.086,5.086 l 11.642,0 c 0.568,0.001 0.964,0.136 1.213,0.374 0.249,0.238 0.42,0.611 0.42,1.259 l 0,11.643 c 0,2.802 2.284,5.086 5.086,5.086 l 15.398,0 c 2.802,0 5.087,-2.284 5.087,-5.086 l 0,-11.666 c 0,-0.877 0.185,-1.195 0.373,-1.353 0.188,-0.157 0.573,-0.257 1.19,-0.257 l 11.712,0 c 2.802,0 5.086,-2.284 5.086,-5.086 l 0,-15.399 c 0,-2.802 -2.284,-5.086 -5.086,-5.086 l -11.689,0 c -0.897,0 -1.586,-0.574 -1.586,-1.633 l 0,-11.643 c 0,-2.802 -2.285,-5.086 -5.087,-5.086 l -15.398,0 z m 0,1.492 15.398,0 c 1.994,0 3.593,1.599 3.593,3.593 l 0,11.643 c 0,1.803 1.445,3.126 3.08,3.126 l 11.689,0 c 1.995,0 3.593,1.598 3.593,3.593 l 0,15.399 c 0,1.994 -1.598,3.593 -3.593,3.593 l -11.712,0 c -0.748,0 -1.524,0.084 -2.146,0.606 -0.622,0.521 -0.91,1.384 -0.91,2.496 l 0,11.666 c 0,1.994 -1.599,3.593 -3.593,3.593 l -15.398,0 c -1.996,0 -3.593,-1.599 -3.593,-3.593 l 0,-11.643 c 0,-0.946 -0.304,-1.776 -0.886,-2.333 -0.582,-0.556 -1.394,-0.793 -2.24,-0.793 l -11.642,0 c -1.996,0 -3.593,-1.6 -3.593,-3.593 l 0,-15.399 c 0,-1.995 1.597,-3.593 3.593,-3.593 l 11.805,0 c 1.105,0 1.972,-0.342 2.45,-1.003 0.479,-0.662 0.513,-1.417 0.513,-2.193 l 0,-11.571 c -10e-4,-1.995 1.597,-3.594 3.592,-3.594 z"
         id="path27"
         inkscape:connector-curvature="0"
         style="fill:#f4f4f4" /><path
         d="m 183.301,90.477 c -2.486,0 -4.527,2.042 -4.527,4.527 l 0,11.619 c 0,0.59 -0.084,0.956 -0.187,1.096 -0.102,0.141 -0.279,0.28 -1.003,0.28 l -11.806,0 c -2.485,0 -4.526,2.018 -4.526,4.503 l 0,13.369 c 0,2.485 2.041,4.526 4.526,4.526 l 11.689,0 c 0.475,0 0.786,0.118 0.979,0.303 0.194,0.186 0.327,0.46 0.327,1.004 l 0,11.688 c 0,2.485 2.041,4.503 4.527,4.503 l 13.345,0 c 2.485,0 4.526,-2.018 4.526,-4.503 l 0,-11.712 c 0,-0.747 0.146,-0.984 0.281,-1.097 0.134,-0.112 0.453,-0.187 0.98,-0.187 l 11.735,0 c 2.486,0 4.526,-2.041 4.526,-4.526 l 0,-13.369 c 0,-2.485 -2.041,-4.503 -4.526,-4.503 l -11.712,0 c -0.731,0 -1.284,-0.437 -1.284,-1.307 l 0,-11.688 c 0,-2.485 -2.041,-4.527 -4.526,-4.527 l -13.344,0 z m 0,1.494 13.345,0 c 1.678,0 3.033,1.354 3.033,3.033 l 0,11.689 c 0,1.614 1.309,2.8 2.776,2.8 l 11.712,0 c 1.679,0 3.033,1.332 3.033,3.01 l 0,13.369 c 0,1.678 -1.354,3.033 -3.033,3.033 l -11.735,0 c -0.659,0 -1.368,0.061 -1.938,0.537 -0.568,0.477 -0.816,1.26 -0.816,2.24 l 0,11.712 c 0,1.679 -1.355,3.01 -3.033,3.01 l -13.345,0 c -1.679,0 -3.034,-1.331 -3.034,-3.01 l 0,-11.688 c 0,-0.841 -0.266,-1.573 -0.793,-2.077 -0.527,-0.504 -1.253,-0.724 -2.006,-0.724 l -11.689,0 c -1.678,0 -3.033,-1.355 -3.033,-3.033 l 0,-13.369 c 0,-1.678 1.354,-3.01 3.033,-3.01 l 11.806,0 c 0.975,0 1.779,-0.304 2.216,-0.91 0.438,-0.606 0.467,-1.28 0.467,-1.959 l 0,-11.621 c 0.001,-1.678 1.355,-3.032 3.034,-3.032 z"
         id="path29"
         inkscape:connector-curvature="0"
         style="fill:#f4f4f4" /><path
         d="m 204.439,112.456 c -1.167,0 -2.124,0.957 -2.124,2.123 l 0,9.216 c 0,1.166 0.957,2.146 2.124,2.146 0.419,0 0.811,-0.137 1.144,-0.35 0.007,-0.006 0.015,-0.019 0.023,-0.024 l 0.023,0 7.559,-4.573 0.023,0 c 0.605,-0.375 1.003,-1.04 1.003,-1.796 0,-0.802 -0.455,-1.505 -1.12,-1.867 l -0.023,-0.023 -7.466,-4.502 c -0.006,-0.004 -0.017,0.003 -0.023,0 -0.333,-0.22 -0.716,-0.35 -1.143,-0.35 l 0,0 z m 0,1.492 c 0.134,0 0.249,0.025 0.35,0.093 l 0,0.023 0.023,0 7.513,4.55 0.023,0 0.023,0.023 c 0.202,0.106 0.35,0.309 0.35,0.56 0,0.233 -0.125,0.426 -0.304,0.537 l -7.605,4.573 0,0.023 -0.023,0 c -0.1,0.068 -0.214,0.117 -0.35,0.117 -0.359,0 -0.629,-0.293 -0.629,-0.653 l 0,-9.216 c 0,-0.359 0.27,-0.63 0.629,-0.63 l 0,0 z"
         id="path31"
         inkscape:connector-curvature="0"
         style="fill:#f4f4f4" /><path
         d="m 189.974,112.712 c -3.565,0 -6.463,2.921 -6.463,6.486 0,3.565 2.898,6.463 6.463,6.463 3.565,0 6.463,-2.898 6.463,-6.463 0,-3.565 -2.898,-6.486 -6.463,-6.486 z m 0,1.494 c 2.758,0 4.969,2.234 4.969,4.992 0,2.758 -2.211,4.97 -4.969,4.97 -2.758,0 -4.97,-2.212 -4.97,-4.97 0,-2.758 2.211,-4.992 4.97,-4.992 z"
         id="circle33"
         inkscape:connector-curvature="0"
         style="fill:#f4f4f4" /><path
         d="m 189.974,94.957 c -0.791,0 -1.478,0.447 -1.843,1.096 -0.011,0.019 -0.037,0.027 -0.047,0.047 l -4.479,7.466 -0.023,-0.023 c -0.008,0.013 0.008,0.034 0,0.046 -0.21,0.33 -0.35,0.725 -0.35,1.143 0,1.166 0.956,2.123 2.124,2.123 l 9.239,0 c 1.167,0 2.123,-0.956 2.123,-2.123 0,-0.43 -0.15,-0.83 -0.374,-1.167 l 0,-0.023 -4.549,-7.583 -0.023,0 c -0.377,-0.601 -1.04,-1.002 -1.798,-1.002 z m 0,1.493 c 0.233,0 0.424,0.123 0.537,0.303 l 4.572,7.583 0.023,0.023 0,0.023 c 0.068,0.101 0.117,0.216 0.117,0.35 0,0.359 -0.269,0.63 -0.629,0.63 l -9.239,0 c -0.361,0 -0.631,-0.27 -0.631,-0.63 0,-0.134 0.049,-0.248 0.117,-0.35 l 0,-0.023 4.55,-7.537 0,-0.022 0.023,0 c 0.105,-0.203 0.308,-0.35 0.56,-0.35 z"
         id="path35"
         inkscape:connector-curvature="0"
         style="fill:#f4f4f4" /><path
         d="m 175.508,112.456 c -0.42,0 -0.813,0.113 -1.144,0.326 l -0.046,0.023 -7.56,4.573 -0.024,0 c -0.603,0.375 -1.002,1.062 -1.002,1.819 0,0.804 0.455,1.506 1.12,1.867 l 0.023,0.023 7.466,4.479 0.023,0.024 0,-0.024 c 0.335,0.219 0.718,0.374 1.144,0.374 1.166,0 2.146,-0.98 2.146,-2.146 l 0,-9.216 c 0.001,-1.167 -0.98,-2.122 -2.146,-2.122 l 0,0 z m 0,1.492 c 0.359,0 0.653,0.271 0.653,0.63 l 0,9.216 c 0,0.359 -0.293,0.653 -0.653,0.653 -0.136,0 -0.25,-0.048 -0.35,-0.117 l -0.023,-0.023 -7.513,-4.526 -0.023,-0.023 -0.023,0 c -0.203,-0.106 -0.35,-0.31 -0.35,-0.561 0,-0.233 0.124,-0.425 0.303,-0.536 l 7.606,-4.597 0.023,-0.023 c 0.101,-0.068 0.215,-0.093 0.35,-0.093 l 0,0 z"
         id="path37"
         inkscape:connector-curvature="0"
         style="fill:#f4f4f4" /><path
         d="m 185.354,131.517 c -1.167,0 -2.124,0.957 -2.124,2.124 0,0.419 0.136,0.833 0.35,1.166 l 0.023,0.047 4.549,7.559 0.024,0 c 0.375,0.605 1.039,1.003 1.796,1.003 0.792,0 1.478,-0.448 1.843,-1.097 l 0.023,0 c 0.008,-0.015 0.016,-0.031 0.024,-0.047 l 4.502,-7.442 0,-0.024 c 0.219,-0.334 0.35,-0.74 0.35,-1.166 0,-1.168 -0.957,-2.124 -2.123,-2.124 l -9.237,0 0,0.001 z m 0,1.493 9.239,0 c 0.359,0 0.629,0.271 0.629,0.63 0,0.133 -0.048,0.271 -0.117,0.373 l 0,0.023 -4.55,7.513 0,0.023 -0.023,0.023 c -0.106,0.204 -0.309,0.327 -0.56,0.327 -0.234,0 -0.425,-0.1 -0.537,-0.28 l -4.573,-7.606 -0.023,-0.023 c -0.067,-0.1 -0.117,-0.239 -0.117,-0.373 0.002,-0.359 0.272,-0.63 0.632,-0.63 z"
         id="path39"
         inkscape:connector-curvature="0"
         style="fill:#f4f4f4" /><path
         d="m 296.552,176.407 -0.21,0.069 -16.728,6.393 -0.373,0.14 -0.093,0.374 -4.457,17.522 -0.047,0.232 0.07,0.234 6.393,16.729 0.14,0.349 0.373,0.094 17.544,4.456 0.21,0.048 0.234,-0.069 16.729,-6.395 0.35,-0.14 0.094,-0.373 4.455,-17.521 0.071,-0.234 -0.094,-0.232 -6.393,-16.705 -0.141,-0.374 -0.372,-0.094 -17.522,-4.455 -0.233,-0.048 z m 0.094,1.563 16.915,4.293 6.159,16.146 -4.294,16.915 -16.145,6.16 -16.915,-4.293 -6.16,-16.146 4.293,-16.915 16.147,-6.16 z"
         id="polygon41"
         inkscape:connector-curvature="0"
         style="fill:#f4f4f4" /><path
         d="m 297.975,181.75 c -9.925,0 -17.989,8.063 -17.989,17.988 0,9.925 8.064,17.965 17.989,17.965 9.924,0 17.988,-8.04 17.988,-17.965 0,-9.925 -8.064,-17.988 -17.988,-17.988 z m 0,1.494 c 9.118,0 16.495,7.376 16.495,16.494 0,9.117 -7.377,16.472 -16.495,16.472 -9.118,0 -16.495,-7.354 -16.495,-16.472 0,-9.118 7.377,-16.494 16.495,-16.494 z"
         id="circle43"
         inkscape:connector-curvature="0"
         style="fill:#f4f4f4" /><path
         d="m 379.682,140.663 -1.003,1.073 4.619,4.363 1.026,-1.097 -4.642,-4.339 z"
         id="line45"
         inkscape:connector-curvature="0"
         style="fill:#f4f4f4" /><path
         d="m 382.947,137.093 -1.026,1.097 4.645,4.339 1.025,-1.073 -4.644,-4.363 z"
         id="line47-5"
         inkscape:connector-curvature="0"
         style="fill:#f4f4f4" /><g
         id="g49"><path
           d="m 402.872,99.087 c -0.419,0 -0.812,0.114 -1.143,0.326 l -0.047,0.024 -7.559,4.572 -0.023,0 c -0.604,0.376 -1.003,1.039 -1.003,1.797 0,0.803 0.456,1.505 1.118,1.867 l 0.024,0.023 7.466,4.503 0.023,0.023 0,-0.023 c 0.334,0.216 0.718,0.35 1.143,0.35 1.167,0 2.147,-0.957 2.147,-2.123 l 0,-9.216 c 0.002,-1.168 -0.979,-2.123 -2.146,-2.123 l 0,0 z m 0,1.493 c 0.361,0 0.653,0.271 0.653,0.63 l 0,9.216 c 0,0.359 -0.291,0.629 -0.653,0.629 -0.132,0 -0.246,-0.025 -0.35,-0.093 l 0,-0.023 -0.022,0 -7.514,-4.526 -0.022,-0.023 -0.023,0 c -0.201,-0.106 -0.351,-0.332 -0.351,-0.583 0,-0.226 0.133,-0.399 0.304,-0.513 l 7.606,-4.597 0.022,0 0,-0.023 c 0.104,-0.07 0.216,-0.094 0.35,-0.094 l 0,0 z"
           id="path51"
           inkscape:connector-curvature="0"
           style="fill:#f4f4f4" /><path
           d="m 400.237,94.163 c -6.428,0 -11.644,5.24 -11.644,11.666 0,6.427 5.216,11.643 11.644,11.643 6.425,0 11.665,-5.216 11.665,-11.643 0,-6.426 -5.24,-11.666 -11.665,-11.666 z m 0,1.494 c 5.619,0 10.172,4.553 10.172,10.172 0,5.62 -4.553,10.15 -10.172,10.15 -5.619,0 -10.149,-4.53 -10.149,-10.15 0,-5.62 4.53,-10.172 10.149,-10.172 z"
           id="circle53"
           inkscape:connector-curvature="0"
           style="fill:#f4f4f4" /><path
           d="m 441.627,99.087 c -1.167,0 -2.147,0.957 -2.147,2.123 l 0,9.216 c 0,1.167 0.98,2.123 2.147,2.123 0.419,0 0.811,-0.113 1.144,-0.327 0.008,-0.005 0.016,-0.018 0.022,-0.023 l 0.023,0 7.559,-4.573 0.024,0 c 0.604,-0.375 1.003,-1.039 1.003,-1.797 0,-0.802 -0.455,-1.505 -1.12,-1.867 l -0.023,-0.023 -7.466,-4.502 c -0.006,-0.005 -0.017,0.003 -0.022,0 -0.335,-0.219 -0.717,-0.35 -1.144,-0.35 l 0,0 z m 0,1.493 c 0.132,0 0.247,0.024 0.349,0.093 l 0,0.023 0.024,0 7.513,4.527 0.022,0.023 0.023,0 c 0.207,0.107 0.351,0.33 0.351,0.583 0,0.227 -0.135,0.401 -0.304,0.514 l -7.605,4.595 -0.024,0.023 c -0.099,0.067 -0.211,0.093 -0.349,0.093 -0.359,0 -0.654,-0.27 -0.654,-0.629 l 0,-9.216 c 0,-0.359 0.295,-0.629 0.654,-0.629 l 0,0 z"
           id="path55-1"
           inkscape:connector-curvature="0"
           style="fill:#f4f4f4" /><path
           d="m 444.263,94.163 c -6.427,0 -11.665,5.24 -11.665,11.666 0,6.427 5.238,11.643 11.665,11.643 6.427,0 11.643,-5.216 11.643,-11.643 -0.001,-6.426 -5.217,-11.666 -11.643,-11.666 z m 0,1.494 c 5.619,0 10.15,4.553 10.15,10.172 0,5.62 -4.531,10.15 -10.15,10.15 -5.62,0 -10.173,-4.53 -10.173,-10.15 0,-5.62 4.553,-10.172 10.173,-10.172 z"
           id="circle57"
           inkscape:connector-curvature="0"
           style="fill:#f4f4f4" /></g><g
         id="g59"><path
           d="m 422.262,76.665 c -0.757,0 -1.444,0.4 -1.82,1.003 l 0,0.023 -4.572,7.559 c -0.005,0.006 0.004,0.018 0,0.024 l -0.024,0.023 c -0.211,0.332 -0.326,0.724 -0.326,1.143 0,1.166 0.956,2.146 2.123,2.146 l 9.216,0 c 1.167,0 2.147,-0.979 2.147,-2.146 0,-0.426 -0.152,-0.808 -0.373,-1.143 l 0,-0.023 -4.504,-7.467 c -0.004,-0.01 -0.017,-0.013 -0.023,-0.023 -0.362,-0.663 -1.042,-1.119 -1.844,-1.119 l 0,0 z m 0,1.493 c 0.251,0 0.454,0.147 0.56,0.35 l 0,0.023 0.023,0.023 4.526,7.513 0.023,0.023 c 0.067,0.1 0.116,0.217 0.116,0.35 0,0.359 -0.292,0.654 -0.653,0.654 l -9.216,0 c -0.361,0 -0.63,-0.294 -0.63,-0.654 0,-0.136 0.025,-0.25 0.093,-0.35 l 0.023,-0.023 4.597,-7.606 c 0.115,-0.171 0.31,-0.303 0.538,-0.303 z"
           id="path61"
           inkscape:connector-curvature="0"
           style="fill:#f4f4f4" /><path
           d="m 422.262,72.162 c -6.427,0 -11.666,5.215 -11.666,11.642 0,6.427 5.239,11.666 11.666,11.666 6.428,0 11.642,-5.239 11.642,-11.666 -10e-4,-6.427 -5.215,-11.642 -11.642,-11.642 z m 0,1.493 c 5.619,0 10.148,4.528 10.148,10.149 0,5.62 -4.529,10.173 -10.148,10.173 -5.62,0 -10.173,-4.553 -10.173,-10.173 0,-5.62 4.553,-10.149 10.173,-10.149 z"
           id="circle63"
           inkscape:connector-curvature="0"
           style="fill:#f4f4f4" /><path
           d="m 417.642,123.048 c -1.167,0 -2.123,0.979 -2.123,2.146 0,0.425 0.13,0.809 0.351,1.143 l -0.024,0 0.024,0.024 4.503,7.466 0.022,0.023 c 0.362,0.665 1.064,1.12 1.867,1.12 0.757,0 1.421,-0.401 1.796,-1.003 l 0,-0.023 4.574,-7.56 0,-0.023 c 0.005,-0.008 0.018,-0.015 0.021,-0.024 0.214,-0.33 0.352,-0.721 0.352,-1.143 0,-1.167 -0.979,-2.146 -2.147,-2.146 l -9.216,0 0,0 z m 0,1.493 9.216,0 c 0.361,0 0.653,0.294 0.653,0.653 0,0.134 -0.046,0.248 -0.116,0.351 l -0.023,0.023 -4.597,7.606 c -0.113,0.172 -0.287,0.304 -0.513,0.304 -0.253,0 -0.478,-0.147 -0.584,-0.35 l 0,-0.023 -0.023,-0.023 -4.526,-7.513 -0.023,-0.023 c -0.065,-0.099 -0.093,-0.215 -0.093,-0.351 -10e-4,-0.361 0.269,-0.654 0.629,-0.654 l 0,0 z"
           id="path65"
           inkscape:connector-curvature="0"
           style="fill:#f4f4f4" /><path
           d="m 422.262,116.165 c -6.427,0 -11.666,5.239 -11.666,11.666 0,6.426 5.239,11.642 11.666,11.642 6.427,0 11.642,-5.216 11.642,-11.642 -10e-4,-6.427 -5.216,-11.666 -11.642,-11.666 z m 0,1.493 c 5.619,0 10.148,4.553 10.148,10.173 0,5.619 -4.529,10.149 -10.148,10.149 -5.62,0 -10.173,-4.53 -10.173,-10.149 0,-5.62 4.553,-10.173 10.173,-10.173 z"
           id="circle67"
           inkscape:connector-curvature="0"
           style="fill:#f4f4f4" /></g><path
         d="m 411.226,81.028 c -6.164,2.744 -11.121,7.704 -13.835,13.882 l 1.376,0.606 c 2.564,-5.836 7.244,-10.544 13.065,-13.136 l -0.606,-1.352 z"
         id="path69"
         inkscape:connector-curvature="0"
         style="fill:#f4f4f4" /><path
         d="m 398.836,116.305 -1.352,0.606 c 2.729,6.09 7.623,10.978 13.719,13.695 l 0.629,-1.353 c -5.757,-2.566 -10.416,-7.196 -12.996,-12.948 z"
         id="path71"
         inkscape:connector-curvature="0"
         style="fill:#f4f4f4" /><path
         d="m 445.639,116.305 c -2.563,5.707 -7.151,10.304 -12.854,12.879 l 0.63,1.376 c 6.037,-2.726 10.888,-7.607 13.603,-13.649 l -1.379,-0.606 z"
         id="path73"
         inkscape:connector-curvature="0"
         style="fill:#f4f4f4" /><path
         d="m 433.414,81.075 -0.63,1.376 c 5.707,2.577 10.316,7.186 12.879,12.902 l 1.354,-0.63 c -2.713,-6.051 -7.562,-10.92 -13.603,-13.648 z"
         id="path75"
         inkscape:connector-curvature="0"
         style="fill:#f4f4f4" /></g></g></svg>