<?xml version="1.0" encoding="UTF-8" standalone="no"?>
<!-- Generator: Adobe Illustrator 13.0.0, SVG Export Plug-In . SVG Version: 6.00 Build 14948)  -->

<svg
   xmlns:dc="http://purl.org/dc/elements/1.1/"
   xmlns:cc="http://creativecommons.org/ns#"
   xmlns:rdf="http://www.w3.org/1999/02/22-rdf-syntax-ns#"
   xmlns:svg="http://www.w3.org/2000/svg"
   xmlns="http://www.w3.org/2000/svg"
   xmlns:sodipodi="http://sodipodi.sourceforge.net/DTD/sodipodi-0.dtd"
   xmlns:inkscape="http://www.inkscape.org/namespaces/inkscape"
   version="1.1"
   id="Layer_2"
   x="0px"
   y="0px"
   width="550"
   height="550"
   viewBox="0 0 549.99995 549.99999"
   enable-background="new 0 0 598.189 350.26"
   xml:space="preserve"
   inkscape:version="0.91 r13725"
   sodipodi:docname="controller_gg.svg"><metadata
     id="metadata3083"><rdf:RDF><cc:Work
         rdf:about=""><dc:format>image/svg+xml</dc:format><dc:type
           rdf:resource="http://purl.org/dc/dcmitype/StillImage" /><dc:title></dc:title></cc:Work></rdf:RDF></metadata><defs
     id="defs3081" /><sodipodi:namedview
     pagecolor="#ffffff"
     bordercolor="#666666"
     borderopacity="1"
     objecttolerance="10"
     gridtolerance="10"
     guidetolerance="10"
     inkscape:pageopacity="0"
     inkscape:pageshadow="2"
     inkscape:window-width="1920"
     inkscape:window-height="1001"
     id="namedview3079"
     showgrid="false"
     inkscape:zoom="0.76362314"
     inkscape:cx="250.17814"
     inkscape:cy="504.23646"
     inkscape:window-x="-9"
     inkscape:window-y="759"
     inkscape:window-maximized="1"
     inkscape:current-layer="layer4"
     showguides="true"
     inkscape:guide-bbox="true" /><g
     inkscape:groupmode="layer"
     id="layer2"
     inkscape:label="Screen_Rect"
     style="display:none"
     transform="translate(0,199.73999)"
     sodipodi:insensitive="true"><path
       style="fill:#0000ff;stroke:#000000;stroke-width:1px;stroke-linecap:butt;stroke-linejoin:miter;stroke-opacity:1"
       d="M 5.0135033,547.22203 136.4109,114.39023 653.54628,-189.09358 406.482,260.92121 Z"
       id="path3021"
       inkscape:connector-curvature="0"
       transform="translate(-2e-5,-199.73999)"
       sodipodi:nodetypes="ccccc" /><rect
       style="opacity:0.60100002;fill:#d8201f;fill-opacity:1;stroke:#ff8080;stroke-width:2.45114732;stroke-linecap:round;stroke-linejoin:round;stroke-miterlimit:4;stroke-dasharray:none;stroke-opacity:1"
       id="rect4230"
       width="444.2457"
       height="9.9567661"
       x="145.95099"
       y="-211.30678" /></g><g
     inkscape:groupmode="layer"
     id="layer1"
     inkscape:label="Controller_Vorlage"
     style="display:none"
     sodipodi:insensitive="true"><g
       id="g4929"
       transform="translate(-0.929149,0.5695451)"><g
         transform="translate(0,199.73999)"
         style="display:none"
         inkscape:label="Layer2"
         id="layer2-9"><path
           sodipodi:nodetypes="ccccc"
           transform="translate(-2e-5,-199.73999)"
           inkscape:connector-curvature="0"
           id="path3021-0"
           d="M 5.0135033,547.22203 136.4109,114.39023 653.54628,-189.09358 406.482,260.92121 Z"
           style="fill:#ffffff;stroke:#000000;stroke-width:1px;stroke-linecap:butt;stroke-linejoin:miter;stroke-opacity:1" /></g><g
         inkscape:label="Layer"
         id="layer1-2"><g
           transform="matrix(0.55322035,-0.3970343,-0.34863416,0.85569517,173.63773,166.52161)"
           id="g3100"><path
             style="fill:#f4f4f4"
             inkscape:connector-curvature="0"
             id="path3"
             d="m 148.05,114.447 c -23.656,0 -42.861,19.204 -42.861,42.861 l 0,37.414 c 0,23.658 19.205,42.86 42.861,42.86 l 38.694,0 c 23.656,0 42.861,-19.202 42.861,-42.86 l 0,-37.414 c 0,-23.657 -19.205,-42.861 -42.861,-42.861 l -38.694,0 z m 0,1.905 38.694,0 c 22.627,0 40.956,18.328 40.956,40.956 l 0,37.414 c 0,22.629 -18.329,40.956 -40.956,40.956 l -38.694,0 c -22.628,0 -40.956,-18.327 -40.956,-40.956 l 0,-37.414 c 0,-22.629 18.328,-40.956 40.956,-40.956 z" /><path
             style="fill:#f4f4f4"
             inkscape:connector-curvature="0"
             id="path5"
             d="m 167.395,123.168 c -3.23,0 -5.863,2.633 -5.863,5.864 l 0,13.037 c 0,3.23 2.632,5.863 5.863,5.863 3.23,0 5.863,-2.633 5.863,-5.863 l 0,-13.037 c 0,-3.23 -2.633,-5.864 -5.863,-5.864 z m 0,1.906 c 2.201,0 3.958,1.758 3.958,3.958 l 0,13.037 c 0,2.2 -1.758,3.958 -3.958,3.958 -2.202,0 -3.958,-1.758 -3.958,-3.958 l 0,-13.037 c -0.001,-2.2 1.757,-3.958 3.958,-3.958 z" /><path
             style="fill:#f4f4f4"
             inkscape:connector-curvature="0"
             id="path7"
             d="m 120.425,170.135 c -3.23,0 -5.864,2.633 -5.864,5.864 0,3.231 2.632,5.894 5.864,5.894 l 13.037,0 c 3.229,0 5.864,-2.662 5.864,-5.894 0,-3.229 -2.633,-5.864 -5.864,-5.864 l -13.037,0 z m 0,1.905 13.037,0 c 2.201,0 3.959,1.759 3.959,3.959 0,2.201 -1.759,3.988 -3.959,3.988 l -13.037,0 c -2.198,-0.01 -3.955,-1.791 -3.955,-3.99 0,-2.201 1.758,-3.959 3.958,-3.959 l -0.003,0.002 z" /><path
             style="fill:#f4f4f4"
             inkscape:connector-curvature="0"
             id="path9"
             d="m 167.395,204.071 c -3.23,0 -5.863,2.663 -5.863,5.894 l 0,13.038 c 0,3.229 2.632,5.863 5.863,5.863 3.23,0 5.863,-2.633 5.863,-5.863 l 0,-13.038 c 0,-3.23 -2.633,-5.894 -5.863,-5.894 z m 0,1.906 c 2.201,0 3.958,1.789 3.958,3.988 l 0,13.038 c 0,2.2 -1.757,3.958 -3.958,3.958 -2.202,0 -3.958,-1.759 -3.958,-3.958 l 0,-13.038 c -0.001,-2.2 1.757,-3.988 3.958,-3.988 z" /><path
             style="fill:#f4f4f4"
             inkscape:connector-curvature="0"
             id="path11"
             d="m 201.321,170.135 c -3.229,0 -5.863,2.633 -5.863,5.864 0,3.231 2.633,5.894 5.863,5.894 l 13.067,0 c 3.229,0 5.863,-2.662 5.863,-5.894 0,-3.229 -2.633,-5.864 -5.863,-5.864 l -13.067,0 z m 0,1.905 13.067,0 c 2.2,0 3.958,1.76 3.958,3.959 0,2.201 -1.758,3.988 -3.958,3.988 l -13.067,0 c -2.2,0 -3.958,-1.788 -3.958,-3.988 0,-2.2 1.759,-3.959 3.958,-3.959 z" /><path
             style="fill:#f4f4f4"
             inkscape:connector-curvature="0"
             id="polygon13"
             d="m 133.878,141.176 -1.31,1.31 8.155,12.025 0.655,0.952 0.804,-0.803 3.869,-3.87 0.804,-0.804 -0.953,-0.655 -12.024,-8.155 z" /><path
             style="fill:#f4f4f4"
             inkscape:connector-curvature="0"
             id="polygon15"
             d="m 141.383,196.566 -0.654,0.952 -8.156,12.024 1.31,1.31 12.025,-8.155 0.953,-0.654 -0.804,-0.804 -3.87,-3.869 -0.804,-0.804 z" /><path
             style="fill:#f4f4f4"
             inkscape:connector-curvature="0"
             id="polygon17"
             d="m 193.435,196.566 -0.804,0.804 -3.869,3.869 -0.833,0.804 0.953,0.654 12.025,8.155 1.339,-1.31 -8.156,-12.024 -0.655,-0.952 0,0 z" /><path
             style="fill:#f4f4f4"
             inkscape:connector-curvature="0"
             id="polygon19"
             d="m 200.912,141.176 -12.025,8.155 -0.953,0.655 0.833,0.804 3.87,3.87 0.804,0.803 0.655,-0.952 8.155,-12.025 -1.339,-1.31 z" /><path
             style="fill:#f4f4f4"
             inkscape:connector-curvature="0"
             id="path21"
             d="m 146.354,104.833 c -27.67,0 -50.123,22.453 -50.123,50.124 l 0,42.117 c 0,27.671 22.453,50.123 50.123,50.123 l 42.117,0 c 27.671,0 50.124,-22.452 50.124,-50.123 l 0,-42.117 c 0,-27.67 -22.452,-50.124 -50.124,-50.124 l -42.117,0 z m 0,1.906 42.117,0 c 26.644,0 48.219,21.577 48.219,48.218 l 0,42.117 c 0,26.644 -21.577,48.218 -48.219,48.218 l -42.117,0 c -26.642,0 -48.218,-21.574 -48.218,-48.218 l 0,-42.117 c 0,-26.642 21.577,-48.218 48.218,-48.218 z" /><path
             style="fill:#f4f4f4"
             inkscape:connector-curvature="0"
             id="polygon23"
             d="m 69.499,75.694 0,0.952 0,202.961 0,0.952 0.953,0 196.122,0 0.952,0 0,-0.952 0,-26.401 289.521,0 0.952,0 0,-0.952 0,-113.458 0,-0.953 -0.952,0 -289.522,0 0,-61.196 0,-0.952 -0.952,0 -196.122,0 -0.952,-10e-4 0,0 z m 1.904,1.905 194.217,0 0,61.196 0,0.953 0.953,0 0.714,0 288.807,0 0,111.552 -289.226,0 -0.297,0 -0.953,0 0,0.953 0,26.4 -194.217,0 0,-201.055 0.002,0.001 z" /><path
             style="fill:#f4f4f4"
             inkscape:connector-curvature="0"
             id="circle25"
             d="m 400.692,169.126 c -19.762,0 -35.777,16.046 -35.777,35.807 0,19.761 16.018,35.807 35.777,35.807 19.759,0 35.807,-16.046 35.807,-35.807 0,-19.761 -16.047,-35.807 -35.807,-35.807 l 0,0 z m 0,1.905 c 18.73,0 33.901,15.17 33.901,33.902 0,18.732 -15.171,33.902 -33.901,33.902 -18.731,0 -33.872,-15.171 -33.872,-33.902 0,-18.731 15.141,-33.902 33.872,-33.902 l 0,0 z" /><path
             style="fill:#f4f4f4"
             inkscape:connector-curvature="0"
             id="circle27"
             d="m 400.692,177.669 c -15.039,0 -27.234,12.227 -27.234,27.265 0,15.038 12.195,27.234 27.234,27.234 15.036,0 27.264,-12.196 27.264,-27.234 0,-15.038 -12.227,-27.265 -27.264,-27.265 z m 0,1.905 c 14.008,0 25.359,11.351 25.359,25.359 0,14.008 -11.352,25.33 -25.359,25.33 -14.01,0 -25.33,-11.321 -25.33,-25.33 0,-14.009 11.321,-25.359 25.33,-25.359 z" /><path
             style="fill:#f4f4f4"
             inkscape:connector-curvature="0"
             id="circle29"
             d="m 489.919,169.126 c -19.762,0 -35.807,16.046 -35.807,35.807 0,19.761 16.045,35.807 35.807,35.807 19.76,0 35.807,-16.046 35.807,-35.807 0,-19.761 -16.047,-35.807 -35.807,-35.807 l 0,0 z m 0,1.905 c 18.73,0 33.901,15.17 33.901,33.902 0,18.732 -15.171,33.902 -33.901,33.902 -18.731,0 -33.902,-15.171 -33.902,-33.902 0,-18.731 15.171,-33.902 33.902,-33.902 l 0,0 z" /><path
             style="fill:#f4f4f4"
             inkscape:connector-curvature="0"
             id="circle31"
             d="m 489.919,177.669 c -15.039,0 -27.234,12.227 -27.234,27.265 0,15.038 12.195,27.234 27.234,27.234 15.036,0 27.234,-12.196 27.234,-27.234 0,-15.038 -12.196,-27.265 -27.234,-27.265 z m 0,1.905 c 14.008,0 25.329,11.351 25.329,25.359 0,14.008 -11.321,25.33 -25.329,25.33 -14.01,0 -25.33,-11.321 -25.33,-25.33 0,-14.009 11.32,-25.359 25.33,-25.359 z" /><path
             style="fill:#f4f4f4"
             inkscape:connector-curvature="0"
             id="path33"
             d="m 39.406,68.432 c -4.766,0 -8.662,3.896 -8.662,8.662 l 0,203.084 c 0,4.766 3.897,8.661 8.662,8.661 l 518.646,0 c 4.429,0 7.956,-3.411 8.453,-7.709 l 0.179,0 0,-0.952 0,-203.085 c 0,-4.762 -3.868,-8.658 -8.64,-8.658 l -518.645,0 0.007,-0.003 z m 0,1.904 518.646,0 c 3.737,0 6.727,3.021 6.727,6.757 l 0,202.131 0,0.953 c 0,3.736 -2.989,6.756 -6.727,6.756 l -518.646,0 c -3.732,0.01 -6.753,-3.019 -6.753,-6.753 l 0,-203.083 c 0,-3.736 3.02,-6.756 6.756,-6.756 l -0.003,-0.005 z" /><path
             style="fill:#f4f4f4"
             inkscape:connector-curvature="0"
             id="rect35"
             d="m 359.021,163.559 0,0.953 0,81.465 0,0.952 0.953,0 81.465,0 0.953,0 0,-0.952 0,-81.465 0,-0.953 -0.953,0 -81.465,0 -0.953,0 z m 1.906,1.905 79.561,0 0,79.56 -79.561,0 0,-79.56 z" /><path
             style="fill:#f4f4f4"
             inkscape:connector-curvature="0"
             id="rect37"
             d="m 448.248,163.559 0,0.953 0,81.465 0,0.952 0.953,0 81.436,0 0.952,0 0,-0.952 0,-81.465 0,-0.953 -0.952,0 -81.436,0 -0.953,0 z m 1.905,1.905 79.531,0 0,79.56 -79.531,0 0,-79.56 z" /><path
             style="fill:#f4f4f4"
             inkscape:connector-curvature="0"
             id="polyline39"
             d="m 83.934,94.177 0,2.292 0,159.061 0,2.322 1.607,-1.638 25.33,-25.299 -1.369,-1.369 -23.663,23.692 0,-154.45 23.663,23.658 1.369,-1.34 -25.33,-25.299 -1.607,-1.637 0,0.007 z" /><path
             style="fill:#f4f4f4"
             inkscape:connector-curvature="0"
             id="polyline41"
             d="m 222.305,232.551 -1.37,1.339 23.693,23.692 -154.452,0 23.574,-23.573 -1.369,-1.339 -25.181,25.182 -1.637,1.637 2.292,0 159.062,0 2.292,0 -1.607,-1.637 -25.299,-25.3 0.002,-0.001 z" /><path
             style="fill:#f4f4f4"
             inkscape:connector-curvature="0"
             id="polyline43"
             d="m 250.878,94.177 -1.637,1.637 -25.211,25.182 1.369,1.369 23.574,-23.603 0,154.509 -23.633,-23.663 -1.339,1.34 25.24,25.27 1.637,1.638 0,-2.322 0,-159.063 0,-2.292 0,-0.002 z" /><path
             style="fill:#f4f4f4"
             inkscape:connector-curvature="0"
             id="polyline45"
             d="m 85.57,92.54 1.638,1.608 25.21,25.24 1.339,-1.34 -23.572,-23.602 154.452,0 -23.669,23.662 1.333,1.339 25.307,-25.3 1.607,-1.607 -2.292,0 -159.062,0 -2.291,0 0,0 z" /><path
             style="fill:#f4f4f4"
             inkscape:connector-curvature="0"
             id="line47"
             d="m 58.961,69.533 0,218.057 1.905,0 0,-218.057 -1.905,0 z" /><path
             style="fill:#f4f4f4"
             inkscape:connector-curvature="0"
             id="rect49"
             d="m 359.021,145.819 0,0.953 0,13.244 0,0.953 0.953,0 81.465,0 0.953,0 0,-0.953 0,-13.244 0,-0.953 -0.953,0 -81.465,0 -0.953,0 z m 1.906,1.905 79.561,0 0,11.339 -79.561,0 0,-11.339 z" /><path
             style="fill:#f4f4f4"
             inkscape:connector-curvature="0"
             id="rect51"
             d="m 448.248,145.819 0,0.953 0,13.244 0,0.953 0.953,0 81.436,0 0.952,0 0,-0.953 0,-13.244 0,-0.953 -0.952,0 -81.436,0 -0.953,0 z m 1.905,1.905 79.531,0 0,11.339 -79.531,0 0,-11.339 z" /><path
             style="fill:#f4f4f4"
             inkscape:connector-curvature="0"
             id="path53"
             d="m 276.804,73.134 c -0.987,0 -1.815,0.828 -1.815,1.816 l 0,53.01 c 0,0.988 0.829,1.815 1.815,1.815 l 282.855,0 c 0.985,0 1.785,-0.831 1.785,-1.815 l 0,-50.033 c 0,-2.641 -2.152,-4.792 -4.792,-4.792 l -279.844,0 -0.004,0 z m 0.09,1.906 279.756,0 c 1.613,0 2.888,1.275 2.888,2.887 l 0,49.945 -282.643,0 0,-52.832 -10e-4,0 z" /><path
             style="fill:#f4f4f4"
             inkscape:connector-curvature="0"
             id="path55"
             d="m 276.804,260.41 c -0.987,0 -1.815,0.829 -1.815,1.815 l 0,20.091 c 0,0.987 0.829,1.816 1.815,1.816 l 279.844,0 c 2.64,0 4.792,-2.183 4.792,-4.822 l 0,-17.085 c 0,-0.985 -0.8,-1.815 -1.785,-1.815 l -282.855,0 0.004,0 z m 0.09,1.905 282.645,0 0,16.995 c 0,1.611 -1.276,2.917 -2.888,2.917 l -279.758,0 0.001,-19.912 0,0 z" /><path
             style="fill:#f4f4f4"
             inkscape:connector-curvature="0"
             id="line57"
             d="m 274.461,129.271 -6.28,6.28 1.369,1.339 6.251,-6.25 -1.34,-1.369 z" /><path
             style="fill:#f4f4f4"
             inkscape:connector-curvature="0"
             id="line59"
             d="m 269.546,253.866 -1.369,1.34 6.281,6.28 1.339,-1.369 -6.251,-6.251 z" /></g></g></g></g><g
     inkscape:groupmode="layer"
     id="layer4"
     inkscape:label="Controller"><g
       id="g6491"
       transform="matrix(0.52001548,-0.37639157,-0.2440528,0.69666295,167.05181,187.97385)"><path
         d="m 180.012,7.94 c -4.947,0 -8.98,4.033 -8.98,8.98 l 0,315.1 c 0,4.947 4.033,8.955 8.98,8.955 l 238.458,0 c 4.947,0 8.98,-4.008 8.98,-8.955 l 0,-0.796 0,-314.304 c 0,-4.946 -4.029,-8.979 -8.98,-8.979 L 180.012,7.94 l 0,0 z m 0,1.592 238.458,0 c 4.087,0 7.388,3.301 7.388,7.388 l 0,315.1 c 0,4.086 -3.302,7.363 -7.388,7.363 l -238.458,0 c -4.085,0.008 -7.387,-3.273 -7.387,-7.363 l 0,-315.1 c 0,-4.086 3.302,-7.388 7.387,-7.388 l 0,0 z"
         id="path3-7"
         inkscape:connector-curvature="0"
         style="fill:#f4f4f4" /><path
         d="m 215.087,33.338 c -8.276,0 -15,6.725 -15,15 l 0,52.14 0,0.796 0.796,0 68.383,0 0.796,0 0,-0.796 0,-66.344 0,-0.796 -0.796,0 -54.179,0 z m 0,1.592 53.383,0 0,64.752 -66.791,0 0,-51.344 c 0,-7.415 5.993,-13.408 13.408,-13.408 z"
         id="path5-7"
         inkscape:connector-curvature="0"
         style="fill:#f4f4f4" /><path
         d="m 271.482,33.338 0,0.796 0,68.235 -70.374,0 -0.796,0 0,0.796 0,195.695 c 0,8.276 6.725,15 15,15 l 167.866,0 c 8.277,0 15.001,-6.725 15.001,-15 l 0,-250.526 c 0,-8.276 -6.724,-15 -15.001,-15 l -110.893,0 -0.796,0 -0.007,0.004 z m 1.592,1.592 110.099,0 c 7.417,0 13.408,5.992 13.408,13.408 l 0,250.525 c 0,7.415 -5.991,13.409 -13.408,13.409 l -167.866,0 c -7.415,0 -13.408,-5.994 -13.408,-13.409 l 0,-194.899 70.374,0 0.796,0 0,-0.796 0,-68.234 0.005,-0.004 z"
         id="path7-8"
         inkscape:connector-curvature="0"
         style="fill:#f4f4f4" /><path
         d="m 219.391,106.122 c -5.424,0.002 -9.826,4.403 -9.826,9.826 l 0,117.741 c 0.001,5.422 4.402,9.825 9.826,9.825 l 159.698,0 c 5.422,0 9.825,-4.402 9.826,-9.825 l 0,-117.741 c -0.001,-5.423 -4.404,-9.825 -9.826,-9.826 l -159.698,0 z m 0,1.592 159.698,0 c 4.554,0.001 8.221,3.682 8.234,8.234 0,0.009 0,0.016 0,0.025 l 0,117.716 c -10e-4,4.563 -3.673,8.234 -8.234,8.234 l -159.698,0 c -4.564,0 -8.232,-3.671 -8.234,-8.234 l 0,-117.716 0,-0.025 c 0.014,-4.552 3.678,-8.233 8.234,-8.234 z m 0,1.866 c -3.519,0.006 -6.387,2.849 -6.394,6.368 l 0,117.741 c 0.008,3.518 2.875,6.386 6.394,6.392 l 159.698,0 c 3.518,-0.006 6.386,-2.874 6.394,-6.392 l 0,-117.741 c -0.008,-3.52 -2.875,-6.362 -6.394,-6.368 l -159.698,0 0,0 z m 0,1.592 159.698,0 c 2.652,0.004 4.783,2.125 4.802,4.776 0,0.009 0,0.016 0,0.025 l 0,117.716 c -0.007,2.662 -2.141,4.796 -4.802,4.802 l -159.698,0 c -2.662,-0.007 -4.796,-2.14 -4.801,-4.802 l 0,-117.716 c 0,-0.009 0,-0.017 0,-0.025 0.017,-2.651 2.147,-4.772 4.801,-4.776 z"
         id="path9-8"
         inkscape:connector-curvature="0"
         style="fill:#f4f4f4" /><path
         d="m 299.24,125.68 c -2.409,0 -4.81,0.928 -6.643,2.761 l -4.303,4.279 c -2.78,2.908 -4.33,3.781 -9.278,3.781 l -5.921,0 c -5.185,0 -9.402,4.218 -9.402,9.402 l 0,5.597 c 0,2.452 -0.125,3.951 -0.572,5.199 -0.447,1.247 -1.245,2.344 -2.811,4.005 l -4.697,4.696 c -3.667,3.666 -3.667,9.643 0,13.309 l 4.502,4.502 0.025,0 0,0.025 c 1.443,1.275 2.284,2.27 2.811,3.731 0.527,1.461 0.747,3.469 0.747,6.716 l 0,4.528 c 0,5.185 4.219,9.402 9.403,9.402 l 5.597,0 c 5.245,0 6.943,1.182 9.577,3.731 l 4.328,4.329 c 3.667,3.666 9.617,3.666 13.284,0 l 4.079,-4.055 c 1.686,-1.696 2.721,-2.675 3.932,-3.234 1.209,-0.562 2.713,-0.771 5.473,-0.771 l 6.02,0 c 5.186,0 9.403,-4.218 9.403,-9.402 l 0,-5.498 c 0,-3.162 0.4,-5.07 1.169,-6.567 0.767,-1.497 1.959,-2.653 3.731,-4.254 l 0.024,-0.024 3.159,-3.159 c 3.667,-3.666 3.667,-9.643 0,-13.309 l -3.433,-3.434 -0.024,-0.024 c -1.69,-1.464 -2.814,-2.523 -3.532,-3.98 -0.721,-1.455 -1.095,-3.39 -1.095,-6.667 l 0,-5.397 c 0,-5.186 -4.22,-9.402 -9.403,-9.402 l -6.02,0 c -2.729,0 -4.357,-0.36 -5.697,-1.045 -1.34,-0.686 -2.447,-1.744 -4.029,-3.284 l -3.757,-3.731 c -1.833,-1.833 -4.233,-2.761 -6.642,-2.761 l -0.005,0.005 z m 0,1.592 c 1.997,0 3.993,0.759 5.522,2.289 l 3.756,3.731 0,0.025 c 1.582,1.539 2.814,2.731 4.428,3.557 1.614,0.826 3.549,1.219 6.418,1.219 l 6.02,0 c 4.324,0 7.812,3.486 7.812,7.811 l 0,5.398 c 0,3.396 0.396,5.596 1.269,7.363 0.865,1.751 2.165,2.985 3.855,4.452 0.015,0.013 0.035,0.012 0.05,0.025 l 3.384,3.383 c 3.058,3.057 3.058,8.011 0,11.069 l -3.135,3.109 -0.025,0.025 c -1.775,1.604 -3.14,2.917 -4.055,4.7 -0.919,1.794 -1.343,3.996 -1.343,7.289 l 0,5.497 c 0,4.325 -3.485,7.812 -7.811,7.812 l -6.021,0 c -2.838,0 -4.613,0.211 -6.144,0.92 -1.531,0.709 -2.686,1.854 -4.378,3.558 l -4.068,4.044 c -3.059,3.059 -7.986,3.059 -11.045,0 l -4.329,-4.328 -0.025,0 0,-0.025 c -2.725,-2.638 -5.154,-4.179 -10.671,-4.179 l -5.597,0 c -4.324,0 -7.811,-3.486 -7.811,-7.812 l 0,-4.527 c 0,-3.315 -0.21,-5.501 -0.846,-7.264 -0.632,-1.751 -1.697,-3.013 -3.208,-4.354 l -0.025,-0.024 -4.478,-4.453 c -3.058,-3.057 -3.058,-8.012 0,-11.069 l 4.727,-4.701 0.025,-0.025 c 1.619,-1.717 2.605,-3.007 3.159,-4.552 0.554,-1.545 0.647,-3.25 0.647,-5.746 l 0,-5.597 c 0,-4.325 3.486,-7.811 7.811,-7.811 l 5.92,0 c 5.169,0 7.52,-1.217 10.423,-4.254 l 4.278,-4.279 c 1.529,-1.53 3.525,-2.289 5.523,-2.289 l -0.012,0.013 z"
         id="path11-6"
         inkscape:connector-curvature="0"
         style="fill:#f4f4f4" /><path
         d="m 299.24,130.704 c -2.166,0 -4.323,0.814 -5.971,2.463 l -3.831,3.831 c -2.468,2.58 -3.817,3.333 -8.208,3.333 l -5.249,0 c -4.661,0 -8.458,3.796 -8.458,8.458 l 0,4.975 c 0,2.181 -0.105,3.509 -0.498,4.603 -0.392,1.094 -1.096,2.058 -2.487,3.532 l -4.179,4.179 c -3.296,3.296 -3.296,8.67 0,11.965 l 4.005,4.005 0,0.025 0.025,0 c 1.28,1.132 2,1.999 2.463,3.283 0.463,1.284 0.671,3.059 0.671,5.945 l 0,4.03 c 0,4.662 3.796,8.458 8.458,8.458 l 4.975,0 c 4.653,0 6.121,1.046 8.458,3.309 l 3.856,3.855 c 3.295,3.298 8.644,3.298 11.939,0 l 3.633,-3.632 c 1.498,-1.509 2.398,-2.37 3.457,-2.86 1.059,-0.491 2.4,-0.672 4.852,-0.672 l 5.373,0 c 4.661,0 8.433,-3.796 8.433,-8.458 l 0,-4.876 c 0,-2.808 0.345,-4.48 1.021,-5.796 0.674,-1.315 1.731,-2.357 3.308,-3.781 l 0.025,-0.024 2.811,-2.812 c 3.295,-3.296 3.295,-8.669 0,-11.965 l -3.034,-3.034 -0.025,-0.025 -0.024,-0.024 c -1.502,-1.303 -2.479,-2.229 -3.11,-3.508 -0.631,-1.278 -0.97,-2.986 -0.97,-5.895 l 0,-4.801 c 0,-4.661 -3.771,-8.458 -8.433,-8.458 l -5.373,0 c -2.42,0 -3.849,-0.319 -5.025,-0.92 -1.174,-0.601 -2.158,-1.549 -3.557,-2.911 l -0.025,0 -3.309,-3.333 -0.025,0 c -1.649,-1.65 -3.807,-2.464 -5.972,-2.464 l 0,0 z m 0,1.567 c 1.755,0 3.506,0.67 4.851,2.015 l 3.334,3.358 0.024,0 c 1.407,1.369 2.503,2.441 3.955,3.183 1.45,0.743 3.187,1.096 5.747,1.095 l 5.373,0 c 3.799,0 6.841,3.066 6.841,6.866 l 0,4.801 c 0,3.027 0.334,5.002 1.118,6.592 0.781,1.579 1.972,2.669 3.482,3.98 0.011,0.009 0.016,0.017 0.025,0.024 l 3.017,3.01 c 2.687,2.687 2.687,7.038 0,9.727 l -2.786,2.762 c -1.594,1.44 -2.829,2.616 -3.656,4.229 -0.827,1.613 -1.194,3.604 -1.194,6.542 l 0,4.876 c 0,3.802 -3.04,6.865 -6.841,6.865 l -5.373,0 c -2.529,0 -4.119,0.183 -5.498,0.821 -1.379,0.638 -2.422,1.667 -3.93,3.185 l -3.633,3.632 c -2.688,2.689 -7.014,2.688 -9.701,0 l -3.856,-3.881 -0.025,0 c -2.428,-2.35 -4.627,-3.757 -9.552,-3.757 l -4.975,0 c -3.801,0 -6.865,-3.063 -6.865,-6.865 l 0,-4.03 c 0,-2.954 -0.2,-4.906 -0.771,-6.492 -0.565,-1.567 -1.52,-2.689 -2.86,-3.88 l -0.025,-0.025 -3.98,-3.979 c -2.688,-2.688 -2.688,-7.039 0,-9.728 l 4.204,-4.179 0,-0.024 c 1.444,-1.531 2.337,-2.689 2.836,-4.08 0.498,-1.392 0.597,-2.925 0.597,-5.149 l 0,-4.975 c 0,-3.8 3.064,-6.866 6.865,-6.866 l 5.249,0 c 4.604,0 6.744,-1.133 9.329,-3.831 l 0.025,0 3.806,-3.805 c 1.344,-1.344 3.096,-2.016 4.851,-2.015 l -0.008,0 z"
         id="path13"
         inkscape:connector-curvature="0"
         style="fill:#f4f4f4" /><path
         d="m 299.24,149.012 c -12.714,0 -23.036,10.346 -23.036,23.06 0,12.714 10.321,23.036 23.036,23.036 12.713,0 23.035,-10.321 23.035,-23.036 0,-12.714 -10.322,-23.06 -23.035,-23.06 z m 0,1.592 c 11.852,0 21.442,9.614 21.442,21.468 0,11.854 -9.589,21.444 -21.442,21.444 -11.853,0 -21.443,-9.59 -21.443,-21.444 0,-11.853 9.589,-21.468 21.443,-21.468 z"
         id="circle15-6"
         inkscape:connector-curvature="0"
         style="fill:#f4f4f4" /><path
         d="m 299.24,156.772 c -8.434,0 -15.299,6.865 -15.299,15.299 0,8.435 6.864,15.275 15.299,15.275 8.433,0 15.299,-6.841 15.299,-15.275 0,-8.433 -6.864,-15.299 -15.299,-15.299 z m 0,1.593 c 7.573,0 13.706,6.133 13.706,13.706 0,7.574 -6.133,13.683 -13.706,13.683 -7.574,0 -13.707,-6.108 -13.707,-13.683 0,-7.573 6.133,-13.706 13.707,-13.706 z"
         id="circle17-9"
         inkscape:connector-curvature="0"
         style="fill:#f4f4f4" /><path
         d="m 272.573,40.005 c -0.44,0.02 -0.781,0.391 -0.761,0.831 0.02,0.44 0.392,0.78 0.832,0.761 10e-4,0 0.002,0 0.004,0 l 108.809,0 c 4.325,0 7.812,3.486 7.812,7.811 l 0,248.383 c 0,4.324 -3.486,7.812 -7.812,7.812 l -164.428,0 c -4.325,0 -7.812,-3.488 -7.812,-7.812 l 0,-194.58 c 0.006,-0.44 -0.345,-0.802 -0.785,-0.808 -0.439,-0.006 -0.801,0.345 -0.807,0.785 0,0.008 0,0.015 0,0.023 l 0,194.58 c 0,5.184 4.218,9.403 9.403,9.403 l 164.426,0 c 5.186,0 9.403,-4.22 9.403,-9.403 l 0,-248.383 c 0,-5.185 -4.218,-9.403 -9.403,-9.403 l -108.807,0 c -0.024,-0.001 -0.049,-0.001 -0.074,0 l 0,0 z"
         id="path19"
         inkscape:connector-curvature="0"
         style="fill:#f4f4f4" /><path
         d="m 217.027,40.005 c -5.185,0 -9.403,4.218 -9.403,9.403 l 0,51.095 c -0.006,0.44 0.345,0.801 0.785,0.807 0.439,0.006 0.801,-0.345 0.807,-0.785 0,-0.007 0,-0.015 0,-0.022 l 0,-51.095 c 0,-4.325 3.487,-7.811 7.811,-7.811 l 52.14,0 c 0.439,0.006 0.801,-0.345 0.807,-0.785 0.006,-0.439 -0.345,-0.801 -0.785,-0.807 -0.007,0 -0.015,0 -0.022,0 l -52.14,0 0,0 z"
         id="path21-5"
         inkscape:connector-curvature="0"
         style="fill:#f4f4f4" /></g></g></svg>