<?xml version="1.0" encoding="UTF-8" standalone="no"?>
<!-- Generator: Adobe Illustrator 13.0.0, SVG Export Plug-In . SVG Version: 6.00 Build 14948)  -->

<svg
   xmlns:dc="http://purl.org/dc/elements/1.1/"
   xmlns:cc="http://creativecommons.org/ns#"
   xmlns:rdf="http://www.w3.org/1999/02/22-rdf-syntax-ns#"
   xmlns:svg="http://www.w3.org/2000/svg"
   xmlns="http://www.w3.org/2000/svg"
   xmlns:sodipodi="http://sodipodi.sourceforge.net/DTD/sodipodi-0.dtd"
   xmlns:inkscape="http://www.inkscape.org/namespaces/inkscape"
   version="1.1"
   id="Layer_2"
   x="0px"
   y="0px"
   width="550"
   height="550"
   viewBox="0 0 549.99995 549.99999"
   enable-background="new 0 0 598.189 350.26"
   xml:space="preserve"
   inkscape:version="0.91 r13725"
   sodipodi:docname="controller_gg.svg"><metadata
     id="metadata3083"><rdf:RDF><cc:Work
         rdf:about=""><dc:format>image/svg+xml</dc:format><dc:type
           rdf:resource="http://purl.org/dc/dcmitype/StillImage" /><dc:title></dc:title></cc:Work></rdf:RDF></metadata><defs
     id="defs3081" /><sodipodi:namedview
     pagecolor="#ffffff"
     bordercolor="#666666"
     borderopacity="1"
     objecttolerance="10"
     gridtolerance="10"
     guidetolerance="10"
     inkscape:pageopacity="0"
     inkscape:pageshadow="2"
     inkscape:window-width="1920"
     inkscape:window-height="1001"
     id="namedview3079"
     showgrid="false"
     inkscape:zoom="1.0799262"
     inkscape:cx="286.73678"
     inkscape:cy="382.70167"
     inkscape:window-x="-9"
     inkscape:window-y="-9"
     inkscape:window-maximized="1"
     inkscape:current-layer="layer4"
     showguides="true"
     inkscape:guide-bbox="true" /><g
     inkscape:groupmode="layer"
     id="layer2"
     inkscape:label="Screen_Rect"
     style="display:none"
     transform="translate(0,199.73999)"
     sodipodi:insensitive="true"><path
       style="fill:#ffffff;stroke:#000000;stroke-width:1px;stroke-linecap:butt;stroke-linejoin:miter;stroke-opacity:1"
       d="M 5.0135033,547.22203 136.4109,114.39023 653.54628,-189.09358 406.482,260.92121 Z"
       id="path3021"
       inkscape:connector-curvature="0"
       transform="translate(-2e-5,-199.73999)"
       sodipodi:nodetypes="ccccc" /><rect
       style="opacity:0.60100002;fill:#d8201f;fill-opacity:1;stroke:#ff8080;stroke-width:2.45114732;stroke-linecap:round;stroke-linejoin:round;stroke-miterlimit:4;stroke-dasharray:none;stroke-opacity:1"
       id="rect4230"
       width="444.2457"
       height="9.9567661"
       x="145.95099"
       y="-211.30678" /></g><g
     inkscape:groupmode="layer"
     id="layer1"
     inkscape:label="Controller_Vorlage"
     style="display:none"
     sodipodi:insensitive="true"><g
       id="g4929"
       transform="translate(-0.929149,0.5695451)"><g
         transform="translate(0,199.73999)"
         style="display:none"
         inkscape:label="Layer2"
         id="layer2-9"><path
           sodipodi:nodetypes="ccccc"
           transform="translate(-2e-5,-199.73999)"
           inkscape:connector-curvature="0"
           id="path3021-0"
           d="M 5.0135033,547.22203 136.4109,114.39023 653.54628,-189.09358 406.482,260.92121 Z"
           style="fill:#ffffff;stroke:#000000;stroke-width:1px;stroke-linecap:butt;stroke-linejoin:miter;stroke-opacity:1" /></g><g
         inkscape:label="Layer"
         id="layer1-2"><g
           transform="matrix(0.55322035,-0.3970343,-0.34863416,0.85569517,173.63773,166.52161)"
           id="g3100"><path
             style="fill:#f4f4f4"
             inkscape:connector-curvature="0"
             id="path3"
             d="m 148.05,114.447 c -23.656,0 -42.861,19.204 -42.861,42.861 l 0,37.414 c 0,23.658 19.205,42.86 42.861,42.86 l 38.694,0 c 23.656,0 42.861,-19.202 42.861,-42.86 l 0,-37.414 c 0,-23.657 -19.205,-42.861 -42.861,-42.861 l -38.694,0 z m 0,1.905 38.694,0 c 22.627,0 40.956,18.328 40.956,40.956 l 0,37.414 c 0,22.629 -18.329,40.956 -40.956,40.956 l -38.694,0 c -22.628,0 -40.956,-18.327 -40.956,-40.956 l 0,-37.414 c 0,-22.629 18.328,-40.956 40.956,-40.956 z" /><path
             style="fill:#f4f4f4"
             inkscape:connector-curvature="0"
             id="path5"
             d="m 167.395,123.168 c -3.23,0 -5.863,2.633 -5.863,5.864 l 0,13.037 c 0,3.23 2.632,5.863 5.863,5.863 3.23,0 5.863,-2.633 5.863,-5.863 l 0,-13.037 c 0,-3.23 -2.633,-5.864 -5.863,-5.864 z m 0,1.906 c 2.201,0 3.958,1.758 3.958,3.958 l 0,13.037 c 0,2.2 -1.758,3.958 -3.958,3.958 -2.202,0 -3.958,-1.758 -3.958,-3.958 l 0,-13.037 c -0.001,-2.2 1.757,-3.958 3.958,-3.958 z" /><path
             style="fill:#f4f4f4"
             inkscape:connector-curvature="0"
             id="path7"
             d="m 120.425,170.135 c -3.23,0 -5.864,2.633 -5.864,5.864 0,3.231 2.632,5.894 5.864,5.894 l 13.037,0 c 3.229,0 5.864,-2.662 5.864,-5.894 0,-3.229 -2.633,-5.864 -5.864,-5.864 l -13.037,0 z m 0,1.905 13.037,0 c 2.201,0 3.959,1.759 3.959,3.959 0,2.201 -1.759,3.988 -3.959,3.988 l -13.037,0 c -2.198,-0.01 -3.955,-1.791 -3.955,-3.99 0,-2.201 1.758,-3.959 3.958,-3.959 l -0.003,0.002 z" /><path
             style="fill:#f4f4f4"
             inkscape:connector-curvature="0"
             id="path9"
             d="m 167.395,204.071 c -3.23,0 -5.863,2.663 -5.863,5.894 l 0,13.038 c 0,3.229 2.632,5.863 5.863,5.863 3.23,0 5.863,-2.633 5.863,-5.863 l 0,-13.038 c 0,-3.23 -2.633,-5.894 -5.863,-5.894 z m 0,1.906 c 2.201,0 3.958,1.789 3.958,3.988 l 0,13.038 c 0,2.2 -1.757,3.958 -3.958,3.958 -2.202,0 -3.958,-1.759 -3.958,-3.958 l 0,-13.038 c -0.001,-2.2 1.757,-3.988 3.958,-3.988 z" /><path
             style="fill:#f4f4f4"
             inkscape:connector-curvature="0"
             id="path11"
             d="m 201.321,170.135 c -3.229,0 -5.863,2.633 -5.863,5.864 0,3.231 2.633,5.894 5.863,5.894 l 13.067,0 c 3.229,0 5.863,-2.662 5.863,-5.894 0,-3.229 -2.633,-5.864 -5.863,-5.864 l -13.067,0 z m 0,1.905 13.067,0 c 2.2,0 3.958,1.76 3.958,3.959 0,2.201 -1.758,3.988 -3.958,3.988 l -13.067,0 c -2.2,0 -3.958,-1.788 -3.958,-3.988 0,-2.2 1.759,-3.959 3.958,-3.959 z" /><path
             style="fill:#f4f4f4"
             inkscape:connector-curvature="0"
             id="polygon13"
             d="m 133.878,141.176 -1.31,1.31 8.155,12.025 0.655,0.952 0.804,-0.803 3.869,-3.87 0.804,-0.804 -0.953,-0.655 -12.024,-8.155 z" /><path
             style="fill:#f4f4f4"
             inkscape:connector-curvature="0"
             id="polygon15"
             d="m 141.383,196.566 -0.654,0.952 -8.156,12.024 1.31,1.31 12.025,-8.155 0.953,-0.654 -0.804,-0.804 -3.87,-3.869 -0.804,-0.804 z" /><path
             style="fill:#f4f4f4"
             inkscape:connector-curvature="0"
             id="polygon17"
             d="m 193.435,196.566 -0.804,0.804 -3.869,3.869 -0.833,0.804 0.953,0.654 12.025,8.155 1.339,-1.31 -8.156,-12.024 -0.655,-0.952 0,0 z" /><path
             style="fill:#f4f4f4"
             inkscape:connector-curvature="0"
             id="polygon19"
             d="m 200.912,141.176 -12.025,8.155 -0.953,0.655 0.833,0.804 3.87,3.87 0.804,0.803 0.655,-0.952 8.155,-12.025 -1.339,-1.31 z" /><path
             style="fill:#f4f4f4"
             inkscape:connector-curvature="0"
             id="path21"
             d="m 146.354,104.833 c -27.67,0 -50.123,22.453 -50.123,50.124 l 0,42.117 c 0,27.671 22.453,50.123 50.123,50.123 l 42.117,0 c 27.671,0 50.124,-22.452 50.124,-50.123 l 0,-42.117 c 0,-27.67 -22.452,-50.124 -50.124,-50.124 l -42.117,0 z m 0,1.906 42.117,0 c 26.644,0 48.219,21.577 48.219,48.218 l 0,42.117 c 0,26.644 -21.577,48.218 -48.219,48.218 l -42.117,0 c -26.642,0 -48.218,-21.574 -48.218,-48.218 l 0,-42.117 c 0,-26.642 21.577,-48.218 48.218,-48.218 z" /><path
             style="fill:#f4f4f4"
             inkscape:connector-curvature="0"
             id="polygon23"
             d="m 69.499,75.694 0,0.952 0,202.961 0,0.952 0.953,0 196.122,0 0.952,0 0,-0.952 0,-26.401 289.521,0 0.952,0 0,-0.952 0,-113.458 0,-0.953 -0.952,0 -289.522,0 0,-61.196 0,-0.952 -0.952,0 -196.122,0 -0.952,-10e-4 0,0 z m 1.904,1.905 194.217,0 0,61.196 0,0.953 0.953,0 0.714,0 288.807,0 0,111.552 -289.226,0 -0.297,0 -0.953,0 0,0.953 0,26.4 -194.217,0 0,-201.055 0.002,0.001 z" /><path
             style="fill:#f4f4f4"
             inkscape:connector-curvature="0"
             id="circle25"
             d="m 400.692,169.126 c -19.762,0 -35.777,16.046 -35.777,35.807 0,19.761 16.018,35.807 35.777,35.807 19.759,0 35.807,-16.046 35.807,-35.807 0,-19.761 -16.047,-35.807 -35.807,-35.807 l 0,0 z m 0,1.905 c 18.73,0 33.901,15.17 33.901,33.902 0,18.732 -15.171,33.902 -33.901,33.902 -18.731,0 -33.872,-15.171 -33.872,-33.902 0,-18.731 15.141,-33.902 33.872,-33.902 l 0,0 z" /><path
             style="fill:#f4f4f4"
             inkscape:connector-curvature="0"
             id="circle27"
             d="m 400.692,177.669 c -15.039,0 -27.234,12.227 -27.234,27.265 0,15.038 12.195,27.234 27.234,27.234 15.036,0 27.264,-12.196 27.264,-27.234 0,-15.038 -12.227,-27.265 -27.264,-27.265 z m 0,1.905 c 14.008,0 25.359,11.351 25.359,25.359 0,14.008 -11.352,25.33 -25.359,25.33 -14.01,0 -25.33,-11.321 -25.33,-25.33 0,-14.009 11.321,-25.359 25.33,-25.359 z" /><path
             style="fill:#f4f4f4"
             inkscape:connector-curvature="0"
             id="circle29"
             d="m 489.919,169.126 c -19.762,0 -35.807,16.046 -35.807,35.807 0,19.761 16.045,35.807 35.807,35.807 19.76,0 35.807,-16.046 35.807,-35.807 0,-19.761 -16.047,-35.807 -35.807,-35.807 l 0,0 z m 0,1.905 c 18.73,0 33.901,15.17 33.901,33.902 0,18.732 -15.171,33.902 -33.901,33.902 -18.731,0 -33.902,-15.171 -33.902,-33.902 0,-18.731 15.171,-33.902 33.902,-33.902 l 0,0 z" /><path
             style="fill:#f4f4f4"
             inkscape:connector-curvature="0"
             id="circle31"
             d="m 489.919,177.669 c -15.039,0 -27.234,12.227 -27.234,27.265 0,15.038 12.195,27.234 27.234,27.234 15.036,0 27.234,-12.196 27.234,-27.234 0,-15.038 -12.196,-27.265 -27.234,-27.265 z m 0,1.905 c 14.008,0 25.329,11.351 25.329,25.359 0,14.008 -11.321,25.33 -25.329,25.33 -14.01,0 -25.33,-11.321 -25.33,-25.33 0,-14.009 11.32,-25.359 25.33,-25.359 z" /><path
             style="fill:#f4f4f4"
             inkscape:connector-curvature="0"
             id="path33"
             d="m 39.406,68.432 c -4.766,0 -8.662,3.896 -8.662,8.662 l 0,203.084 c 0,4.766 3.897,8.661 8.662,8.661 l 518.646,0 c 4.429,0 7.956,-3.411 8.453,-7.709 l 0.179,0 0,-0.952 0,-203.085 c 0,-4.762 -3.868,-8.658 -8.64,-8.658 l -518.645,0 0.007,-0.003 z m 0,1.904 518.646,0 c 3.737,0 6.727,3.021 6.727,6.757 l 0,202.131 0,0.953 c 0,3.736 -2.989,6.756 -6.727,6.756 l -518.646,0 c -3.732,0.01 -6.753,-3.019 -6.753,-6.753 l 0,-203.083 c 0,-3.736 3.02,-6.756 6.756,-6.756 l -0.003,-0.005 z" /><path
             style="fill:#f4f4f4"
             inkscape:connector-curvature="0"
             id="rect35"
             d="m 359.021,163.559 0,0.953 0,81.465 0,0.952 0.953,0 81.465,0 0.953,0 0,-0.952 0,-81.465 0,-0.953 -0.953,0 -81.465,0 -0.953,0 z m 1.906,1.905 79.561,0 0,79.56 -79.561,0 0,-79.56 z" /><path
             style="fill:#f4f4f4"
             inkscape:connector-curvature="0"
             id="rect37"
             d="m 448.248,163.559 0,0.953 0,81.465 0,0.952 0.953,0 81.436,0 0.952,0 0,-0.952 0,-81.465 0,-0.953 -0.952,0 -81.436,0 -0.953,0 z m 1.905,1.905 79.531,0 0,79.56 -79.531,0 0,-79.56 z" /><path
             style="fill:#f4f4f4"
             inkscape:connector-curvature="0"
             id="polyline39"
             d="m 83.934,94.177 0,2.292 0,159.061 0,2.322 1.607,-1.638 25.33,-25.299 -1.369,-1.369 -23.663,23.692 0,-154.45 23.663,23.658 1.369,-1.34 -25.33,-25.299 -1.607,-1.637 0,0.007 z" /><path
             style="fill:#f4f4f4"
             inkscape:connector-curvature="0"
             id="polyline41"
             d="m 222.305,232.551 -1.37,1.339 23.693,23.692 -154.452,0 23.574,-23.573 -1.369,-1.339 -25.181,25.182 -1.637,1.637 2.292,0 159.062,0 2.292,0 -1.607,-1.637 -25.299,-25.3 0.002,-0.001 z" /><path
             style="fill:#f4f4f4"
             inkscape:connector-curvature="0"
             id="polyline43"
             d="m 250.878,94.177 -1.637,1.637 -25.211,25.182 1.369,1.369 23.574,-23.603 0,154.509 -23.633,-23.663 -1.339,1.34 25.24,25.27 1.637,1.638 0,-2.322 0,-159.063 0,-2.292 0,-0.002 z" /><path
             style="fill:#f4f4f4"
             inkscape:connector-curvature="0"
             id="polyline45"
             d="m 85.57,92.54 1.638,1.608 25.21,25.24 1.339,-1.34 -23.572,-23.602 154.452,0 -23.669,23.662 1.333,1.339 25.307,-25.3 1.607,-1.607 -2.292,0 -159.062,0 -2.291,0 0,0 z" /><path
             style="fill:#f4f4f4"
             inkscape:connector-curvature="0"
             id="line47"
             d="m 58.961,69.533 0,218.057 1.905,0 0,-218.057 -1.905,0 z" /><path
             style="fill:#f4f4f4"
             inkscape:connector-curvature="0"
             id="rect49"
             d="m 359.021,145.819 0,0.953 0,13.244 0,0.953 0.953,0 81.465,0 0.953,0 0,-0.953 0,-13.244 0,-0.953 -0.953,0 -81.465,0 -0.953,0 z m 1.906,1.905 79.561,0 0,11.339 -79.561,0 0,-11.339 z" /><path
             style="fill:#f4f4f4"
             inkscape:connector-curvature="0"
             id="rect51"
             d="m 448.248,145.819 0,0.953 0,13.244 0,0.953 0.953,0 81.436,0 0.952,0 0,-0.953 0,-13.244 0,-0.953 -0.952,0 -81.436,0 -0.953,0 z m 1.905,1.905 79.531,0 0,11.339 -79.531,0 0,-11.339 z" /><path
             style="fill:#f4f4f4"
             inkscape:connector-curvature="0"
             id="path53"
             d="m 276.804,73.134 c -0.987,0 -1.815,0.828 -1.815,1.816 l 0,53.01 c 0,0.988 0.829,1.815 1.815,1.815 l 282.855,0 c 0.985,0 1.785,-0.831 1.785,-1.815 l 0,-50.033 c 0,-2.641 -2.152,-4.792 -4.792,-4.792 l -279.844,0 -0.004,0 z m 0.09,1.906 279.756,0 c 1.613,0 2.888,1.275 2.888,2.887 l 0,49.945 -282.643,0 0,-52.832 -10e-4,0 z" /><path
             style="fill:#f4f4f4"
             inkscape:connector-curvature="0"
             id="path55"
             d="m 276.804,260.41 c -0.987,0 -1.815,0.829 -1.815,1.815 l 0,20.091 c 0,0.987 0.829,1.816 1.815,1.816 l 279.844,0 c 2.64,0 4.792,-2.183 4.792,-4.822 l 0,-17.085 c 0,-0.985 -0.8,-1.815 -1.785,-1.815 l -282.855,0 0.004,0 z m 0.09,1.905 282.645,0 0,16.995 c 0,1.611 -1.276,2.917 -2.888,2.917 l -279.758,0 0.001,-19.912 0,0 z" /><path
             style="fill:#f4f4f4"
             inkscape:connector-curvature="0"
             id="line57"
             d="m 274.461,129.271 -6.28,6.28 1.369,1.339 6.251,-6.25 -1.34,-1.369 z" /><path
             style="fill:#f4f4f4"
             inkscape:connector-curvature="0"
             id="line59"
             d="m 269.546,253.866 -1.369,1.34 6.281,6.28 1.339,-1.369 -6.251,-6.251 z" /></g></g></g></g><g
     inkscape:groupmode="layer"
     id="layer4"
     inkscape:label="Controller"><g
       id="g4997"
       transform="matrix(0.49877954,-0.34424132,-0.28436913,0.6950418,171.13916,173.17997)"><path
         id="path4893"
         d="M 74.188,73.341"
         inkscape:connector-curvature="0"
         style="fill:#f4f4f4" /><path
         d="m 211.423,83.913 c -0.312,0.022 -0.585,0.214 -0.71,0.5 -0.508,1.122 -1.285,2.126 -2.263,2.894 -0.365,0.289 -0.426,0.818 -0.137,1.183 0.289,0.364 0.818,0.426 1.183,0.137 0.002,-10e-4 0.005,-0.003 0.006,-0.005 1.185,-0.928 2.138,-2.119 2.762,-3.499 0.206,-0.417 0.035,-0.921 -0.382,-1.127 -0.143,-0.071 -0.301,-0.1 -0.459,-0.083 l 0,0 z"
         id="path5-9"
         inkscape:connector-curvature="0"
         style="fill:#f4f4f4" /><path
         d="m 74.186,74.389 c -3.877,0 -7.049,3.146 -7.049,7.023 0,3.877 3.172,7.05 7.049,7.05 l 129.955,0 c 3.878,0 7.05,-3.172 7.05,-7.05 0,-3.878 -3.171,-7.023 -7.05,-7.023 l -129.955,0 z m 0,1.684 129.955,0 c 2.968,0 5.367,2.372 5.367,5.34 0,2.968 -2.398,5.367 -5.367,5.367 l -129.955,0 c -2.968,0 -5.367,-2.399 -5.367,-5.367 0,-2.969 2.399,-5.34 5.367,-5.34 z"
         id="path7-1"
         inkscape:connector-curvature="0"
         style="fill:#f4f4f4" /><path
         d="m 211.347,83.965 c -0.465,0.041 -0.809,0.451 -0.768,0.917 0.042,0.466 0.452,0.809 0.917,0.768 0.003,0 0.006,0 0.009,-0.001 l 48.244,0 73.498,0 138.575,0 c 0.464,0.006 0.847,-0.365 0.854,-0.83 0.006,-0.464 -0.366,-0.847 -0.831,-0.854 -0.007,0 -0.015,0 -0.022,0 l -138.576,0 -73.498,0 -48.244,0 c -0.052,-0.005 -0.106,-0.005 -0.158,0 l 0,0 z"
         id="polyline9"
         inkscape:connector-curvature="0"
         style="fill:#f4f4f4" /><path
         d="m 212.004,82.176 c -0.465,0.021 -0.826,0.415 -0.805,0.879 0.021,0.464 0.414,0.825 0.88,0.804 0.001,0 0.002,0 0.003,0 l 47.666,0 73.498,0 138.003,0 c 0.464,0.007 0.846,-0.365 0.854,-0.83 0.006,-0.464 -0.366,-0.847 -0.83,-0.854 -0.009,0 -0.016,0 -0.023,0 l -138.004,0 -73.498,0 -47.666,0 c -0.026,-10e-4 -0.052,-10e-4 -0.078,0.001 z"
         id="polyline11"
         inkscape:connector-curvature="0"
         style="fill:#f4f4f4" /><path
         d="m 37.542,91.121 c -0.393,0.088 -0.667,0.44 -0.658,0.841 l 0,1.763 c 0,0.465 0.376,0.842 0.842,0.842 l 222.021,0 145.232,0 150.31,0 c 0.465,0 0.842,-0.377 0.842,-0.842 l 0,-1.763 c 0,-0.465 -0.377,-0.841 -0.842,-0.841 l -150.31,0 -145.232,0 -222.021,0 c -0.061,-0.007 -0.123,-0.007 -0.184,0 l 0,0 z m 1.026,1.684 221.179,0 145.232,0 149.468,0 0,0.079 -149.468,0 -145.232,0 -221.179,0 0,-0.079 z"
         id="polygon13-0"
         inkscape:connector-curvature="0"
         style="fill:#f4f4f4" /><path
         id="path4900"
         d="M 500.223,73.341"
         inkscape:connector-curvature="0"
         style="fill:#f4f4f4" /><path
         d="m 74.107,88.989 c -0.465,0.021 -0.825,0.415 -0.804,0.88 0.021,0.465 0.415,0.825 0.879,0.804 0.001,0 0.002,0 0.003,0 l 129.955,0 c 0.009,0 0.018,0 0.026,0 l 0.5,0 0.026,0 55.058,0 73.498,0 145.394,0 0.026,0 0.499,0 c 0.009,0 0.019,0 0.026,0 l 21.045,0 c 0.464,0.006 0.848,-0.365 0.854,-0.83 0.007,-0.465 -0.364,-0.847 -0.829,-0.854 -0.01,0 -0.017,0 -0.024,0 l -21.02,0 -0.026,0 -0.499,0 c -0.008,0 -0.018,0 -0.026,0 l -145.419,0 -73.498,0 -55.084,0 -0.526,0 -0.026,0 -129.922,0 c -0.026,-0.001 -0.053,-0.001 -0.079,0 l -0.007,0 z"
         id="polyline17"
         inkscape:connector-curvature="0"
         style="fill:#f4f4f4" /><path
         d="m 208.821,87.174 c -0.465,0.042 -0.809,0.451 -0.768,0.917 0.041,0.465 0.451,0.808 0.917,0.768 0.003,0 0.006,0 0.009,-10e-4 l 50.77,0 73.498,0 141.1,0 c 0.465,0.007 0.847,-0.365 0.854,-0.83 0.006,-0.465 -0.365,-0.847 -0.829,-0.854 -0.009,0 -0.017,0 -0.024,0 l -141.1,0 -73.498,0 -50.77,0 c -0.053,-0.005 -0.105,-0.005 -0.159,0 z"
         id="polyline19"
         inkscape:connector-curvature="0"
         style="fill:#f4f4f4" /><path
         d="m 471.796,83.913 c -0.466,0.011 -0.834,0.397 -0.822,0.862 0.003,0.121 0.031,0.24 0.085,0.348 0.624,1.378 1.577,2.57 2.763,3.499 0.361,0.292 0.893,0.236 1.184,-0.125 0.292,-0.362 0.236,-0.893 -0.126,-1.185 -0.002,-0.002 -0.004,-0.003 -0.006,-0.005 -0.978,-0.767 -1.754,-1.771 -2.263,-2.894 -0.14,-0.317 -0.462,-0.516 -0.809,-0.5 l -0.006,0 z"
         id="path21-4"
         inkscape:connector-curvature="0"
         style="fill:#f4f4f4" /><path
         d="m 212.004,79.151 -0.079,0.026 c -0.447,0.093 -0.738,0.524 -0.657,0.973 0.072,0.412 0.104,0.828 0.104,1.263 0,0.493 -0.039,0.982 -0.131,1.447 -0.129,0.447 0.128,0.916 0.576,1.045 0.447,0.13 0.915,-0.128 1.045,-0.575 0.014,-0.05 0.024,-0.102 0.03,-0.153 0.114,-0.572 0.157,-1.158 0.157,-1.763 0,-0.199 -0.04,-0.382 -0.053,-0.579 l 46.746,0 73.498,0 137.075,0 c -0.012,0.196 -0.052,0.379 -0.052,0.579 0,0.605 0.068,1.216 0.184,1.789 0.03,0.464 0.431,0.816 0.894,0.787 0.464,-0.03 0.816,-0.43 0.787,-0.894 -0.005,-0.081 -0.021,-0.16 -0.05,-0.236 -0.092,-0.464 -0.135,-0.954 -0.135,-1.447 0,-0.434 0.033,-0.849 0.105,-1.262 0.08,-0.451 -0.216,-0.884 -0.665,-0.973 l -0.075,-0.026 c -0.063,-0.007 -0.123,-0.007 -0.186,0 l -137.892,0 -73.498,0 -47.561,0 c -0.062,-0.007 -0.123,-0.007 -0.184,0 l 0.017,0 z"
         id="path23"
         inkscape:connector-curvature="0"
         style="fill:#f4f4f4" /><path
         d="m 209.184,74.312 c -0.464,-0.022 -0.859,0.336 -0.881,0.8 -0.016,0.342 0.176,0.66 0.487,0.804 0.009,0 0.018,0 0.026,0 0.849,0.721 1.53,1.619 1.973,2.657 0.171,0.41 0.632,0.618 1.053,0.473 l 47.902,0 73.498,0 138.263,0 c 0.412,0.129 0.856,-0.075 1.026,-0.473 0.445,-1.044 1.145,-1.935 1.999,-2.657 0.422,-0.196 0.604,-0.696 0.409,-1.118 -0.145,-0.311 -0.462,-0.503 -0.805,-0.486 l -140.898,0 -73.497,0 -50.56,0 0.005,0 z m 1.999,1.683 48.561,0 73.499,0 138.894,0 c -0.326,0.424 -0.596,0.888 -0.842,1.368 l -138.053,0 -73.499,0 -47.719,0 c -0.247,-0.48 -0.514,-0.944 -0.841,-1.368 l 0,0 z"
         id="path25"
         inkscape:connector-curvature="0"
         style="fill:#f4f4f4" /><path
         d="m 37.62,72.549 c -0.423,0.053 -0.739,0.415 -0.736,0.841 l 0,1.763 c 0,0.465 0.376,0.842 0.842,0.842 l 29.383,0 c -0.321,0.419 -0.571,0.895 -0.815,1.368 l -28.568,0 c -0.465,0 -0.842,0.377 -0.842,0.842 l 0,1.789 c 0,0.465 0.376,0.842 0.842,0.842 l 27.594,0 c -0.013,0.196 -0.053,0.38 -0.053,0.578 0,0.259 0.057,0.51 0.079,0.764 l -27.62,0 c -0.465,0 -0.841,0.376 -0.842,0.841 l 0,1.789 c 0,0.465 0.376,0.842 0.842,0.842 l 28.646,0 c 0.29,0.541 0.611,1.055 1,1.526 l -29.647,0 c -0.465,0 -0.842,0.376 -0.842,0.841 0,0.009 0,0.019 0,0.027 l 0.052,1.815 c 0.015,0.455 0.387,0.816 0.842,0.816 l 36.513,0 c 0.465,0.006 0.847,-0.365 0.854,-0.83 0.007,-0.465 -0.365,-0.847 -0.83,-0.854 -0.008,0 -0.016,0 -0.024,0 l -35.696,0 0,-0.132 30.777,0 0.053,0 c 0.293,-0.006 0.563,-0.166 0.71,-0.421 0.222,-0.368 0.131,-0.844 -0.21,-1.105 -0.01,-0.007 -0.016,-0.019 -0.026,-0.026 -0.96,-0.748 -1.749,-1.698 -2.263,-2.789 -0.008,-0.018 -0.017,-0.036 -0.026,-0.053 -0.003,-0.007 0.003,-0.02 0,-0.026 -0.008,-0.009 -0.016,-0.018 -0.025,-0.026 -0.007,-0.027 -0.016,-0.054 -0.026,-0.08 l -0.027,-0.025 c -0.208,-0.323 -0.609,-0.463 -0.973,-0.342 l -27.99,0 0,-0.105 27.489,0 c 0.265,0.075 0.55,0.017 0.764,-0.158 l 0.025,-0.026 c 0.271,-0.223 0.375,-0.589 0.263,-0.921 -0.008,-0.009 -0.017,-0.018 -0.026,-0.025 -0.077,-0.424 -0.131,-0.868 -0.131,-1.316 0,-0.441 0.03,-0.871 0.105,-1.289 0.073,-0.46 -0.241,-0.891 -0.7,-0.963 -0.038,-0.006 -0.077,-0.009 -0.115,-0.01 l -0.184,0 -27.49,0 0,-0.106 28.015,0 0.185,0 c 0.33,-0.002 0.628,-0.197 0.762,-0.5 0.458,-1.059 1.174,-1.984 2.052,-2.709 0.358,-0.296 0.408,-0.827 0.111,-1.185 -0.123,-0.148 -0.292,-0.249 -0.48,-0.288 L 69.135,74.339 C 69.074,74.323 69.012,74.314 68.95,74.313 l -30.382,0 0,-0.079 34.434,0 132.059,0 54.69,0 73.498,0 145.022,0 23.123,0 53.059,0 0,0.079 -48.983,0 c -0.062,10e-4 -0.124,0.011 -0.185,0.026 l -0.104,0.026 c -0.453,0.104 -0.736,0.556 -0.631,1.01 0.042,0.182 0.144,0.345 0.288,0.463 0.879,0.725 1.568,1.65 2.025,2.709 0.139,0.311 0.45,0.508 0.79,0.5 0.009,0 0.018,0 0.025,0 l 0.079,0 46.693,0 0,0.106 -46.114,0 -0.157,0 c -0.465,0.008 -0.835,0.391 -0.826,0.856 0,0.04 0.004,0.079 0.009,0.117 l -0.026,0 c 0.075,0.419 0.132,0.848 0.132,1.289 0,0.448 -0.055,0.892 -0.132,1.316 -0.003,0.018 -0.022,0.035 -0.026,0.052 0,0.009 0,0.018 0,0.026 -0.088,0.316 0.015,0.654 0.264,0.868 l 0.026,0.026 c 0.22,0.183 0.516,0.243 0.788,0.158 l 46.063,0 0,0.105 -46.615,0 c -0.355,-0.108 -0.741,0.031 -0.946,0.342 l -0.026,0.026 c -0.019,0.025 -0.036,0.052 -0.053,0.08 -0.009,0.017 -0.019,0.035 -0.026,0.053 -0.514,1.112 -1.285,2.082 -2.263,2.841 -0.008,0.008 -0.017,0.017 -0.026,0.026 -0.374,0.274 -0.457,0.8 -0.183,1.176 0.008,0.011 0.017,0.022 0.026,0.034 0.158,0.2 0.401,0.316 0.657,0.316 l 0.105,0 49.323,0 0,0.131 -54.296,0 c -0.465,-0.006 -0.847,0.365 -0.854,0.83 -0.006,0.465 0.365,0.847 0.83,0.854 0.009,0 0.016,0 0.023,0 l 55.11,0 c 0.456,0 0.829,-0.361 0.843,-0.815 l 0.052,-1.815 c 0.015,-0.465 -0.35,-0.853 -0.814,-0.868 -0.009,0 -0.018,0 -0.027,0 l -48.243,0 c 0.388,-0.471 0.709,-0.985 1,-1.526 l 47.245,0 c 0.464,0 0.841,-0.377 0.841,-0.842 l 0,-1.789 c 0,-0.464 -0.377,-0.842 -0.841,-0.842 l -46.22,0 c 0.021,-0.253 0.079,-0.504 0.079,-0.763 0,-0.198 -0.041,-0.383 -0.053,-0.578 l 46.193,0 c 0.464,0 0.841,-0.377 0.841,-0.842 l 0,-1.789 c 0,-0.465 -0.377,-0.842 -0.841,-0.842 l -47.166,0 c -0.244,-0.473 -0.495,-0.949 -0.816,-1.368 l 47.982,0 c 0.465,0 0.841,-0.377 0.841,-0.842 l 0,-1.763 c 0,-0.464 -0.376,-0.841 -0.841,-0.841 l -53.9,0 -23.122,0 -145.023,0 -73.497,0 -54.69,0 -132.059,0 -35.276,0 C 37.69,72.545 37.655,72.545 37.62,72.549 l 0,0 z"
         id="path27"
         inkscape:connector-curvature="0"
         style="fill:#f4f4f4" /><path
         d="m 479.187,74.389 c -3.879,0 -7.025,3.146 -7.025,7.023 0,3.877 3.146,7.05 7.025,7.05 l 21.044,0 c 3.878,0 7.023,-3.172 7.023,-7.05 0,-3.878 -3.146,-7.023 -7.023,-7.023 l -21.044,0 z m 0,1.684 21.044,0 c 2.968,0 5.34,2.372 5.34,5.34 0,2.968 -2.372,5.367 -5.34,5.367 l -21.044,0 c -2.968,0 -5.341,-2.399 -5.341,-5.367 0,-2.969 2.373,-5.34 5.341,-5.34 z"
         id="path29"
         inkscape:connector-curvature="0"
         style="fill:#f4f4f4" /><path
         d="m 40.672,55.739 c -2.06,0 -3.735,1.676 -3.735,3.735 l 0,11.575 c 0,0.465 0.377,0.842 0.842,0.842 l 517.724,0 c 0.464,0 0.841,-0.377 0.841,-0.842 l 0,-11.575 c 0,-2.06 -1.677,-3.735 -3.735,-3.735 l -511.941,0 0.004,0 z m 0,1.683 511.94,0 c 1.149,0 2.052,0.902 2.052,2.052 l 0,10.733 -516.039,0 0,-10.733 c 0,-1.149 0.902,-2.052 2.052,-2.052 l -0.005,0 z"
         id="path31"
         inkscape:connector-curvature="0"
         style="fill:#f4f4f4" /><path
         d="m 37.594,95.803 c -0.392,0.087 -0.667,0.44 -0.658,0.842 l 0,210.816 c 0,2.06 1.676,3.735 3.735,3.735 l 511.94,0 c 2.059,0 3.735,-1.676 3.735,-3.735 l -0.01,-210.816 c 0,-0.465 -0.377,-0.842 -0.841,-0.842 l -517.721,0 c -0.061,-0.007 -0.123,-0.007 -0.184,0 l 0.004,0 z m 1.026,1.684 516.039,0 0,209.974 c 0,1.149 -0.902,2.053 -2.052,2.053 l -511.939,0 c -1.151,0 -2.052,-0.903 -2.052,-2.053 l 0.004,-209.974 0,0 z"
         id="path33-5"
         inkscape:connector-curvature="0"
         style="fill:#f4f4f4" /><path
         d="m 61.506,144.491 c -1.555,0 -2.815,1.285 -2.815,2.841 l 0,17.494 c 0,1.555 1.259,2.84 2.815,2.84 l 17.493,0 c 1.555,0 2.841,-1.285 2.841,-2.84 l 0,-17.494 c 0,-1.556 -1.286,-2.841 -2.841,-2.841 l -17.493,0 z m 0,1.684 17.493,0 c 0.646,0 1.157,0.511 1.157,1.158 l 0,17.494 c 0,0.645 -0.512,1.157 -1.157,1.157 l -17.493,0 c -0.646,0 -1.132,-0.514 -1.132,-1.157 l 0,-17.494 c 10e-4,-0.647 0.486,-1.158 1.132,-1.158 z"
         id="path35"
         inkscape:connector-curvature="0"
         style="fill:#f4f4f4" /><path
         d="m 86.208,144.491 c -1.555,0 -2.841,1.285 -2.841,2.841 l 0,17.494 c 0,1.554 1.285,2.84 2.841,2.84 l 17.466,0 c 1.555,0 2.841,-1.285 2.841,-2.84 l 0,-17.494 c 0,-1.556 -1.287,-2.841 -2.841,-2.841 l -17.466,0 z m 0,1.684 17.466,0 c 0.646,0 1.158,0.511 1.158,1.158 l 0,17.494 c 0,0.645 -0.512,1.157 -1.158,1.157 l -17.466,0 c -0.647,0 -1.158,-0.513 -1.158,-1.157 l 0,-17.494 c 0,-0.647 0.512,-1.158 1.158,-1.158 z"
         id="path37"
         inkscape:connector-curvature="0"
         style="fill:#f4f4f4" /><path
         d="m 110.882,144.491 c -1.555,0 -2.842,1.285 -2.842,2.841 l 0,17.494 c 0,1.555 1.286,2.84 2.842,2.84 l 17.493,0 c 1.424,0 2.546,-1.097 2.736,-2.472 0.009,-0.018 0.018,-0.035 0.027,-0.053 0,-0.009 -0.001,-0.018 0,-0.026 0.009,-0.025 0.019,-0.052 0.025,-0.079 0.014,-0.051 0.022,-0.104 0.027,-0.157 0.009,-0.018 0.018,-0.036 0.026,-0.053 l 0,-17.494 c 0,-1.556 -1.286,-2.841 -2.841,-2.841 l -17.493,0 0,0 z m 0,1.684 17.493,0 c 0.646,0 1.158,0.511 1.158,1.158 l 0,17.335 c -0.002,0.036 -0.002,0.07 0,0.105 -0.01,0.018 -0.019,0.035 -0.026,0.053 0,0.645 -0.486,1.157 -1.131,1.157 l -17.493,0 c -0.645,0 -1.158,-0.513 -1.158,-1.157 l 0,-17.494 c 0,-0.645 0.511,-1.157 1.157,-1.157 l 0,0 z"
         id="path39"
         inkscape:connector-curvature="0"
         style="fill:#f4f4f4" /><path
         d="m 135.553,144.491 c -1.555,0 -2.815,1.285 -2.815,2.841 l 0,17.494 c 0,1.555 1.26,2.84 2.815,2.84 l 17.493,0 c 1.555,0 2.841,-1.285 2.841,-2.84 l 0,-17.494 c 0,-1.556 -1.287,-2.841 -2.841,-2.841 l -17.493,0 z m 0,1.684 17.493,0 c 0.646,0 1.158,0.511 1.158,1.158 l 0,17.494 c 0,0.645 -0.512,1.157 -1.158,1.157 l -17.493,0 c -0.645,0 -1.131,-0.514 -1.131,-1.157 l 0,-17.494 c 0,-0.647 0.485,-1.158 1.131,-1.158 z"
         id="path41"
         inkscape:connector-curvature="0"
         style="fill:#f4f4f4" /><path
         d="m 160.259,144.491 c -1.555,0 -2.841,1.285 -2.841,2.841 l 0,17.494 c 0,1.555 1.286,2.84 2.841,2.84 l 17.467,0 c 1.555,0 2.84,-1.285 2.84,-2.84 l 0,-17.494 c 0,-1.556 -1.286,-2.841 -2.84,-2.841 l -17.467,0 z m 0,1.684 17.467,0 c 0.645,0 1.157,0.511 1.157,1.158 l 0,17.494 c 0,0.645 -0.512,1.157 -1.157,1.157 l -17.467,0 c -0.645,0 -1.158,-0.514 -1.158,-1.157 l 0,-17.494 c 0.001,-0.647 0.512,-1.158 1.158,-1.158 z"
         id="path43"
         inkscape:connector-curvature="0"
         style="fill:#f4f4f4" /><path
         d="m 184.932,144.491 c -1.555,0 -2.842,1.285 -2.842,2.841 l 0,17.494 c 0,1.555 1.287,2.84 2.842,2.84 l 17.493,0 c 1.555,0 2.814,-1.285 2.814,-2.84 l 0,-17.494 c 0,-1.556 -1.26,-2.841 -2.814,-2.841 l -17.493,0 z m 0,1.684 17.493,0 c 0.645,0 1.13,0.511 1.13,1.158 l 0,17.494 c 0,0.645 -0.485,1.157 -1.13,1.157 l -17.493,0 c -0.645,0 -1.158,-0.514 -1.158,-1.157 l 0,-17.494 c 0,-0.647 0.513,-1.158 1.158,-1.158 z"
         id="path45"
         inkscape:connector-curvature="0"
         style="fill:#f4f4f4" /><path
         d="m 209.604,144.491 c -1.555,0 -2.814,1.285 -2.814,2.841 l 0,17.494 c 0,1.555 1.259,2.84 2.814,2.84 l 17.494,0 c 1.554,0 2.84,-1.285 2.84,-2.84 l 0,-17.494 c 0,-1.556 -1.286,-2.841 -2.84,-2.841 l -17.494,0 z m 0,1.684 17.494,0 c 0.645,0 1.157,0.511 1.157,1.158 l 0,17.494 c 0,0.645 -0.512,1.157 -1.157,1.157 l -17.494,0 c -0.646,0 -1.131,-0.514 -1.131,-1.157 l 0,-17.494 c 10e-4,-0.647 0.486,-1.158 1.131,-1.158 z"
         id="path47"
         inkscape:connector-curvature="0"
         style="fill:#f4f4f4" /><path
         d="m 234.311,144.491 c -1.555,0 -2.841,1.285 -2.841,2.841 l 0,17.494 c 0,1.555 1.286,2.84 2.841,2.84 l 17.467,0 c 1.554,0 2.84,-1.285 2.84,-2.84 l 0,-17.494 c 0,-1.556 -1.286,-2.841 -2.84,-2.841 l -17.467,0 z m 0,1.684 17.467,0 c 0.645,0 1.157,0.511 1.157,1.158 l 0,17.494 c 0,0.645 -0.513,1.157 -1.157,1.157 l -17.467,0 c -0.645,0 -1.158,-0.514 -1.158,-1.157 l 0,-17.494 c 0,-0.647 0.513,-1.158 1.158,-1.158 z"
         id="path49"
         inkscape:connector-curvature="0"
         style="fill:#f4f4f4" /><path
         d="m 258.983,144.491 c -1.555,0 -2.841,1.285 -2.841,2.841 l 0,17.494 c 0,1.555 1.285,2.84 2.841,2.84 l 17.493,0 c 1.555,0 2.815,-1.285 2.815,-2.84 l 0,-17.494 c 0,-1.556 -1.26,-2.841 -2.815,-2.841 l -17.493,0 z m 0,1.684 17.493,0 c 0.646,0 1.132,0.511 1.132,1.158 l 0,17.494 c 0,0.645 -0.487,1.157 -1.132,1.157 l -17.493,0 c -0.645,0 -1.157,-0.514 -1.157,-1.157 l 0,-17.494 c 0,-0.647 0.512,-1.158 1.157,-1.158 z"
         id="path51"
         inkscape:connector-curvature="0"
         style="fill:#f4f4f4" /><path
         d="m 283.656,144.491 c -1.555,0 -2.841,1.285 -2.841,2.841 l 0,17.494 c 0,1.554 1.285,2.84 2.841,2.84 l 17.493,0 c 1.555,0 2.841,-1.285 2.841,-2.84 l 0,-17.494 c 0,-1.556 -1.285,-2.841 -2.841,-2.841 l -17.493,0 z m 0,1.684 17.493,0 c 0.645,0 1.157,0.511 1.157,1.158 l 0,17.494 c 0,0.645 -0.513,1.157 -1.157,1.157 l -17.493,0 c -0.646,0 -1.157,-0.513 -1.157,-1.157 l 0,-17.494 c 0,-0.647 0.512,-1.158 1.157,-1.158 z"
         id="path53-5"
         inkscape:connector-curvature="0"
         style="fill:#f4f4f4" /><path
         d="m 308.363,144.491 c -1.557,0 -2.842,1.285 -2.842,2.841 l 0,17.494 c 0,1.554 1.285,2.84 2.842,2.84 l 17.466,0 c 1.555,0 2.841,-1.284 2.841,-2.84 l 0,-17.494 c 0,-1.556 -1.285,-2.841 -2.841,-2.841 l -17.466,0 z m 0,1.684 17.466,0 c 0.646,0 1.158,0.511 1.158,1.158 l 0,17.494 c 0,0.644 -0.514,1.157 -1.158,1.157 l -17.466,0 c -0.647,0 -1.157,-0.513 -1.157,-1.157 l 0,-17.494 c 0,-0.647 0.511,-1.158 1.157,-1.158 z"
         id="path55-8"
         inkscape:connector-curvature="0"
         style="fill:#f4f4f4" /><path
         d="m 333.035,144.491 c -1.555,0 -2.841,1.285 -2.841,2.841 l 0,17.494 c 0,1.554 1.285,2.84 2.841,2.84 l 17.494,0 c 1.554,0 2.813,-1.285 2.813,-2.84 l 0,-17.494 c 0,-1.556 -1.259,-2.841 -2.813,-2.841 l -17.494,0 z m 0,1.684 17.494,0 c 0.644,0 1.131,0.511 1.131,1.158 l 0,17.494 c 0,0.645 -0.487,1.157 -1.131,1.157 l -17.494,0 c -0.646,0 -1.157,-0.513 -1.157,-1.157 l 0,-17.494 c 0,-0.647 0.514,-1.158 1.157,-1.158 z"
         id="path57"
         inkscape:connector-curvature="0"
         style="fill:#f4f4f4" /><path
         d="m 357.708,144.491 c -1.555,0 -2.814,1.285 -2.814,2.841 l 0,17.494 c 0,1.554 1.259,2.84 2.814,2.84 l 17.494,0 c 1.554,0 2.839,-1.284 2.839,-2.84 l 0,-17.494 c 0,-1.556 -1.284,-2.841 -2.839,-2.841 l -17.494,0 z m 0,1.684 17.494,0 c 0.644,0 1.156,0.511 1.156,1.158 l 0,17.494 c 0,0.644 -0.513,1.157 -1.156,1.157 l -17.494,0 c -0.645,0 -1.132,-0.513 -1.132,-1.157 l 0,-17.494 c 0,-0.647 0.487,-1.158 1.132,-1.158 z"
         id="path59"
         inkscape:connector-curvature="0"
         style="fill:#f4f4f4" /><path
         d="m 382.415,144.491 c -1.555,0 -2.842,1.285 -2.842,2.841 l 0,17.492 c 0,1.554 1.286,2.841 2.842,2.841 l 17.466,0 c 1.555,0 2.842,-1.286 2.842,-2.841 10e-4,-0.026 10e-4,-0.053 0,-0.079 l 0,-17.415 c 0,-1.556 -1.286,-2.841 -2.842,-2.841 l -17.466,0.002 0,0 z m 0,1.684 17.466,0 c 0.647,0 1.157,0.511 1.157,1.158 l 0,17.492 c 0,0.646 -0.511,1.157 -1.157,1.157 l -17.466,0 c -0.646,0 -1.158,-0.513 -1.158,-1.157 l 0,-17.493 c 0,-0.647 0.514,-1.158 1.158,-1.157 l 0,0 z"
         id="path61"
         inkscape:connector-curvature="0"
         style="fill:#f4f4f4" /><path
         d="m 99.15,168.903 c -1.555,0 -2.841,1.285 -2.841,2.841 l 0,17.492 c 0,1.555 1.286,2.815 2.841,2.815 l 17.493,0 c 1.422,0 2.542,-1.075 2.736,-2.446 0.01,-0.019 0.018,-0.034 0.026,-0.053 0.001,-0.009 -0.001,-0.019 0,-0.026 0.01,-0.025 0.019,-0.051 0.027,-0.076 0.014,-0.052 0.022,-0.105 0.026,-0.161 0.009,-0.015 0.019,-0.032 0.026,-0.05 l 0,-17.493 c 0,-1.554 -1.286,-2.84 -2.841,-2.84 l -17.493,0 0,-0.003 z m 0,1.683 17.493,0 c 0.646,0 1.158,0.514 1.158,1.158 l 0,17.335 c -0.001,0.025 -0.001,0.052 0,0.077 -0.011,0.028 -0.019,0.057 -0.026,0.086 0,0.645 -0.486,1.131 -1.131,1.131 l -17.494,0 c -0.646,0 -1.158,-0.487 -1.158,-1.127 l 0,-17.495 c 0,-0.645 0.512,-1.157 1.158,-1.157 l 0,-0.008 z"
         id="path63"
         inkscape:connector-curvature="0"
         style="fill:#f4f4f4" /><path
         d="m 61.506,168.903 c -1.555,0 -2.815,1.285 -2.815,2.841 l 0,17.492 c 0,1.557 1.259,2.815 2.815,2.815 l 30.12,0 c 1.555,0 2.841,-1.259 2.841,-2.815 l 0,-17.492 c 0,-1.555 -1.285,-2.841 -2.841,-2.841 l -30.12,0 z m 0,1.683 30.12,0 c 0.646,0 1.157,0.514 1.157,1.158 l 0,17.492 c 0,0.646 -0.512,1.133 -1.157,1.133 l -30.12,0 c -0.646,0 -1.132,-0.488 -1.132,-1.133 l 0,-17.492 c 10e-4,-0.645 0.486,-1.158 1.132,-1.158 z"
         id="path65"
         inkscape:connector-curvature="0"
         style="fill:#f4f4f4" /><path
         d="m 123.827,168.903 c -1.555,0 -2.84,1.285 -2.84,2.841 l 0,17.492 c 0,1.557 1.285,2.815 2.84,2.815 l 17.494,0 c 1.555,0 2.841,-1.259 2.841,-2.815 l 0,-17.492 c 0,-1.555 -1.286,-2.841 -2.841,-2.841 l -17.494,0 z m 0,1.683 17.494,0 c 0.645,0 1.157,0.514 1.157,1.158 l 0,17.492 c 0,0.646 -0.512,1.133 -1.157,1.133 l -17.494,0 c -0.645,0 -1.157,-0.488 -1.157,-1.133 l 0,-17.492 c 0,-0.645 0.511,-1.158 1.157,-1.158 z"
         id="path67"
         inkscape:connector-curvature="0"
         style="fill:#f4f4f4" /><path
         d="m 148.524,168.903 c -1.555,0 -2.84,1.285 -2.84,2.841 l 0,17.492 c 0,1.557 1.286,2.815 2.84,2.815 l 17.468,0 c 1.555,0 2.841,-1.259 2.841,-2.815 l 0,-17.492 c 0,-1.555 -1.286,-2.841 -2.841,-2.841 l -17.468,0 z m 0,1.683 17.468,0 c 0.645,0 1.157,0.514 1.157,1.158 l 0,17.492 c 0,0.646 -0.512,1.133 -1.157,1.133 l -17.468,0 c -0.645,0 -1.157,-0.488 -1.157,-1.133 l 0,-17.492 c 0,-0.645 0.512,-1.158 1.157,-1.158 z"
         id="path69"
         inkscape:connector-curvature="0"
         style="fill:#f4f4f4" /><path
         d="m 173.197,168.903 c -1.554,0 -2.84,1.285 -2.84,2.841 l 0,17.492 c 0,1.557 1.286,2.815 2.84,2.815 l 17.494,0 c 1.555,0 2.814,-1.259 2.814,-2.815 l 0,-17.492 c 0,-1.555 -1.259,-2.841 -2.814,-2.841 l -17.494,0 z m 0,1.683 17.494,0 c 0.646,0 1.131,0.514 1.131,1.158 l 0,17.492 c 0,0.646 -0.485,1.133 -1.131,1.133 l -17.494,0 c -0.645,0 -1.157,-0.488 -1.157,-1.133 l 0,-17.492 c 0,-0.645 0.512,-1.158 1.157,-1.158 z"
         id="path71"
         inkscape:connector-curvature="0"
         style="fill:#f4f4f4" /><path
         d="m 197.878,168.903 c -1.555,0 -2.815,1.285 -2.815,2.841 l 0,17.492 c 0,1.556 1.259,2.815 2.815,2.815 l 17.494,0 c 1.555,0 2.841,-1.259 2.841,-2.815 l 0,-17.492 c 0,-1.555 -1.286,-2.841 -2.841,-2.841 l -17.494,0 z m 0,1.683 17.494,0 c 0.645,0 1.157,0.514 1.157,1.158 l 0,17.492 c 0,0.646 -0.512,1.133 -1.157,1.133 l -17.494,0 c -0.646,0 -1.131,-0.488 -1.131,-1.133 l 0,-17.492 c 0,-0.645 0.486,-1.158 1.131,-1.158 z"
         id="path73"
         inkscape:connector-curvature="0"
         style="fill:#f4f4f4" /><path
         d="m 222.576,168.903 c -1.555,0 -2.841,1.285 -2.841,2.841 l 0,17.492 c 0,1.557 1.285,2.815 2.841,2.815 l 17.468,0 c 1.554,0 2.841,-1.259 2.841,-2.815 l 0,-17.492 c 0,-1.555 -1.286,-2.841 -2.841,-2.841 l -17.468,0 z m 0,1.683 17.468,0 c 0.645,0 1.157,0.514 1.157,1.158 l 0,17.492 c 0,0.646 -0.514,1.133 -1.157,1.133 l -17.468,0 c -0.645,0 -1.158,-0.488 -1.158,-1.133 l 0,-17.492 c 0,-0.645 0.513,-1.158 1.158,-1.158 z"
         id="path75"
         inkscape:connector-curvature="0"
         style="fill:#f4f4f4" /><path
         d="m 247.249,168.903 c -1.555,0 -2.841,1.285 -2.841,2.841 l 0,17.492 c 0,1.557 1.286,2.815 2.841,2.815 l 17.493,0 c 1.555,0 2.815,-1.259 2.815,-2.815 l 0,-17.492 c 0,-1.555 -1.259,-2.841 -2.815,-2.841 l -17.493,0 z m 0,1.683 17.493,0 c 0.645,0 1.131,0.514 1.131,1.158 l 0,17.492 c 0,0.646 -0.486,1.133 -1.131,1.133 l -17.493,0 c -0.645,0 -1.158,-0.488 -1.158,-1.133 l 0,-17.492 c 0,-0.645 0.513,-1.158 1.158,-1.158 z"
         id="path77"
         inkscape:connector-curvature="0"
         style="fill:#f4f4f4" /><path
         d="m 271.922,168.903 c -1.555,0 -2.841,1.285 -2.841,2.841 l 0,17.492 c 0,1.557 1.286,2.815 2.841,2.815 l 17.494,0 c 1.554,0 2.841,-1.259 2.841,-2.815 l 0,-17.492 c 0,-1.555 -1.286,-2.841 -2.841,-2.841 l -17.494,0 z m 0,1.683 17.494,0 c 0.645,0 1.157,0.514 1.157,1.158 l 0,17.492 c 0,0.646 -0.512,1.133 -1.157,1.133 l -17.494,0 c -0.646,0 -1.158,-0.488 -1.158,-1.133 l 0,-17.492 c 0,-0.645 0.512,-1.158 1.158,-1.158 z"
         id="path79"
         inkscape:connector-curvature="0"
         style="fill:#f4f4f4" /><path
         d="m 296.628,168.903 c -1.555,0 -2.842,1.285 -2.842,2.841 l 0,17.492 c 0,1.557 1.286,2.815 2.842,2.815 l 17.466,0 c 1.555,0 2.842,-1.258 2.842,-2.815 l 0,-17.492 c 0,-1.555 -1.286,-2.841 -2.842,-2.841 l -17.466,0 z m 0,1.683 17.466,0 c 0.646,0 1.159,0.514 1.159,1.158 l 0,17.492 c 0,0.645 -0.515,1.133 -1.159,1.133 l -17.466,0 c -0.645,0 -1.158,-0.488 -1.158,-1.133 l 0,-17.492 c 10e-4,-0.645 0.513,-1.158 1.158,-1.158 z"
         id="path81"
         inkscape:connector-curvature="0"
         style="fill:#f4f4f4" /><path
         d="m 321.301,168.903 c -1.555,0 -2.842,1.285 -2.842,2.841 l 0,17.492 c 0,1.556 1.286,2.815 2.842,2.815 l 17.493,0 c 1.555,0 2.814,-1.259 2.814,-2.815 l 0,-17.492 c 0,-1.555 -1.258,-2.841 -2.814,-2.841 l -17.493,0 z m 0,1.683 17.493,0 c 0.646,0 1.131,0.514 1.131,1.158 l 0,17.492 c 0,0.646 -0.486,1.133 -1.131,1.133 l -17.493,0 c -0.646,0 -1.157,-0.488 -1.157,-1.133 l 0,-17.492 c 0,-0.645 0.511,-1.158 1.157,-1.158 z"
         id="path83"
         inkscape:connector-curvature="0"
         style="fill:#f4f4f4" /><path
         d="m 345.974,168.903 c -1.554,0 -2.842,1.285 -2.842,2.841 l 0,17.492 c 0,1.557 1.286,2.815 2.842,2.815 l 17.493,0 c 1.556,0 2.841,-1.258 2.841,-2.815 l 0,-17.492 c 0,-1.555 -1.285,-2.841 -2.841,-2.841 l -17.493,0 z m 0,1.683 17.493,0 c 0.645,0 1.158,0.514 1.158,1.158 l 0,17.492 c 0,0.645 -0.514,1.133 -1.158,1.133 l -17.493,0 c -0.645,0 -1.158,-0.488 -1.158,-1.133 l 0,-17.492 c -10e-4,-0.645 0.514,-1.158 1.158,-1.158 z"
         id="path85"
         inkscape:connector-curvature="0"
         style="fill:#f4f4f4" /><path
         d="m 370.68,168.903 c -1.554,0 -2.842,1.285 -2.842,2.841 l 0,17.492 c 0,1.556 1.287,2.815 2.842,2.815 l 17.468,0 c 1.554,0 2.84,-1.259 2.84,-2.815 l 0,-17.492 c 0,-1.555 -1.285,-2.841 -2.84,-2.841 l -17.468,0 z m 0,1.683 17.468,0 c 0.645,0 1.157,0.514 1.157,1.158 l 0,17.492 c 0,0.646 -0.514,1.133 -1.157,1.133 l -17.468,0 c -0.646,0 -1.157,-0.488 -1.157,-1.133 l 0,-17.492 c -0.001,-0.645 0.511,-1.158 1.157,-1.158 z"
         id="path87"
         inkscape:connector-curvature="0"
         style="fill:#f4f4f4" /><path
         d="m 395.352,168.903 c -1.554,0 -2.839,1.285 -2.839,2.841 l 0,17.492 c 0,1.556 1.284,2.815 2.839,2.815 l 17.495,0 c 1.554,0 2.813,-1.258 2.813,-2.815 l 0,-17.492 c 0,-1.555 -1.259,-2.841 -2.813,-2.841 l -17.495,0 z m 0,1.683 17.495,0 c 0.644,0 1.131,0.514 1.131,1.158 l 0,17.492 c 0,0.645 -0.487,1.133 -1.131,1.133 l -17.495,0 c -0.646,0 -1.155,-0.488 -1.155,-1.133 l 0,-17.492 c -10e-4,-0.645 0.509,-1.158 1.155,-1.158 z"
         id="path89"
         inkscape:connector-curvature="0"
         style="fill:#f4f4f4" /><path
         d="m 482.638,168.903 c -1.555,0 -2.842,1.285 -2.842,2.841 l 0,17.492 c 0,1.556 1.286,2.815 2.842,2.815 l 31.75,0 c 1.555,0 2.842,-1.258 2.842,-2.815 l 0,-17.492 c 0,-1.555 -1.286,-2.841 -2.842,-2.841 l -31.75,0 z m 0,1.683 31.75,0 c 0.646,0 1.158,0.514 1.158,1.158 l 0,17.492 c 0,0.645 -0.514,1.133 -1.158,1.133 l -31.75,0 c -0.647,0 -1.157,-0.488 -1.157,-1.133 l 0,-17.492 c -10e-4,-0.645 0.51,-1.158 1.157,-1.158 z"
         id="path91"
         inkscape:connector-curvature="0"
         style="fill:#f4f4f4" /><path
         d="m 419.814,168.903 c -1.553,0 -2.842,1.285 -2.842,2.841 l 0,17.492 c 0,1.557 1.286,2.815 2.842,2.815 l 29.437,0 c 1.555,0 2.842,-1.259 2.842,-2.815 l 0,-17.492 c 0,-1.555 -1.286,-2.841 -2.842,-2.841 l -29.437,0 z m 0,1.683 29.437,0 c 0.646,0 1.157,0.514 1.157,1.158 l 0,17.492 c 0,0.646 -0.511,1.133 -1.157,1.133 l -29.437,0 c -0.645,0 -1.157,-0.488 -1.157,-1.133 l 0,-17.492 c 0,-0.645 0.514,-1.158 1.157,-1.158 z"
         id="path93"
         inkscape:connector-curvature="0"
         style="fill:#f4f4f4" /><path
         d="m 407.087,144.491 c -1.556,0 -2.841,1.285 -2.841,2.841 l 0,17.494 c 0,1.554 1.285,2.84 2.841,2.84 l 17.493,0 c 1.554,0 2.815,-1.284 2.815,-2.84 l 0,-17.494 c 0,-1.556 -1.261,-2.841 -2.815,-2.841 l -17.493,0 z m 0,1.684 17.493,0 c 0.646,0 1.131,0.511 1.131,1.158 l 0,17.494 c 0,0.644 -0.486,1.157 -1.131,1.157 l -17.493,0 c -0.646,0 -1.157,-0.513 -1.157,-1.157 l 0,-17.494 c 0,-0.647 0.512,-1.158 1.157,-1.158 z"
         id="path95"
         inkscape:connector-curvature="0"
         style="fill:#f4f4f4" /><path
         d="m 54.877,193.314 c -1.555,0 -2.841,1.285 -2.841,2.842 l 0,17.467 c 0,1.555 1.286,2.841 2.841,2.841 l 17.493,0 c 1.555,0 2.815,-1.286 2.815,-2.841 l 0,-17.467 c 0,-1.557 -1.26,-2.842 -2.815,-2.842 l -17.493,0 z m 0,1.684 17.493,0 c 0.646,0 1.131,0.514 1.131,1.158 l 0,17.467 c 0,0.646 -0.485,1.157 -1.131,1.157 l -17.493,0 c -0.646,0 -1.158,-0.512 -1.158,-1.157 l 0,-17.467 c 10e-4,-0.646 0.512,-1.158 1.158,-1.158 z"
         id="path97"
         inkscape:connector-curvature="0"
         style="fill:#f4f4f4" /><path
         d="m 79.553,193.314 c -1.555,0 -2.841,1.285 -2.841,2.842 l 0,17.467 c 0,1.555 1.286,2.841 2.841,2.841 l 17.492,0 c 1.556,0 2.841,-1.286 2.841,-2.841 l 0,-17.467 c 0,-1.557 -1.286,-2.842 -2.841,-2.842 l -17.492,0 z m 0,1.684 17.492,0 c 0.646,0 1.158,0.514 1.158,1.158 l 0,17.467 c 0,0.646 -0.512,1.157 -1.158,1.157 l -17.492,0 c -0.646,0 -1.158,-0.512 -1.158,-1.157 l 0,-17.467 c 0,-0.646 0.511,-1.158 1.158,-1.158 z"
         id="path99"
         inkscape:connector-curvature="0"
         style="fill:#f4f4f4" /><path
         d="m 104.227,193.314 c -1.555,0 -2.815,1.285 -2.815,2.842 l 0,17.467 c 0,1.555 1.26,2.841 2.815,2.841 l 17.493,0 c 1.417,0 2.562,-1.082 2.762,-2.446 0.01,-0.026 0.019,-0.052 0.026,-0.079 0.038,-0.101 0.055,-0.208 0.052,-0.315 l 0,-17.467 c 0,-1.557 -1.286,-2.842 -2.841,-2.842 l -17.492,0 0,-0.001 z m 0,1.684 17.493,0 c 0.646,0 1.157,0.514 1.157,1.158 l 0,17.335 c -10e-4,0.027 -10e-4,0.054 0,0.08 l 0,0.052 c 0,0.646 -0.512,1.157 -1.157,1.157 l -17.493,0 c -0.646,0 -1.131,-0.512 -1.131,-1.157 l 0,-17.467 c 0,-0.646 0.485,-1.158 1.131,-1.158 l 0,0 z"
         id="path101"
         inkscape:connector-curvature="0"
         style="fill:#f4f4f4" /><path
         d="m 128.928,193.314 c -1.554,0 -2.84,1.285 -2.84,2.842 l 0,17.467 c 0,1.555 1.285,2.841 2.84,2.841 l 17.493,0 c 1.555,0 2.814,-1.286 2.814,-2.841 l 0,-17.467 c 0,-1.557 -1.26,-2.842 -2.814,-2.842 l -17.493,0 0,0 z m 0,1.684 17.493,0 c 0.646,0 1.131,0.514 1.131,1.158 l 0,17.467 c 0,0.646 -0.485,1.157 -1.131,1.157 l -17.493,0 c -0.645,0 -1.158,-0.512 -1.158,-1.157 l 0,-17.467 c 0.001,-0.646 0.512,-1.158 1.158,-1.158 l 0,0 z"
         id="path103"
         inkscape:connector-curvature="0"
         style="fill:#f4f4f4" /><path
         d="m 153.601,193.314 c -1.554,0 -2.84,1.285 -2.84,2.842 l 0,17.467 c 0,1.555 1.285,2.841 2.84,2.841 l 17.493,0 c 1.555,0 2.841,-1.286 2.841,-2.841 l 0,-17.467 c 0,-1.557 -1.286,-2.842 -2.841,-2.842 l -17.493,0 z m 0,1.684 17.493,0 c 0.646,0 1.157,0.514 1.157,1.158 l 0,17.467 c 0,0.646 -0.512,1.157 -1.157,1.157 l -17.493,0 c -0.645,0 -1.157,-0.512 -1.157,-1.157 l 0,-17.467 c 0,-0.646 0.511,-1.158 1.157,-1.158 z"
         id="path105"
         inkscape:connector-curvature="0"
         style="fill:#f4f4f4" /><path
         d="m 178.282,193.314 c -1.555,0 -2.815,1.285 -2.815,2.842 l 0,17.467 c 0,1.555 1.259,2.841 2.815,2.841 l 17.493,0 c 1.555,0 2.842,-1.286 2.842,-2.841 l 0,-17.467 c 0,-1.557 -1.287,-2.842 -2.842,-2.842 l -17.493,0 z m 0,1.684 17.493,0 c 0.646,0 1.158,0.514 1.158,1.158 l 0,17.467 c 0,0.646 -0.513,1.157 -1.158,1.157 l -17.493,0 c -0.646,0 -1.131,-0.512 -1.131,-1.157 l 0,-17.467 c -0.001,-0.646 0.485,-1.158 1.131,-1.158 z"
         id="path107"
         inkscape:connector-curvature="0"
         style="fill:#f4f4f4" /><path
         d="m 202.98,193.314 c -1.554,0 -2.841,1.285 -2.841,2.842 l 0,17.467 c 0,1.555 1.286,2.841 2.841,2.841 l 17.493,0 c 1.555,0 2.815,-1.286 2.815,-2.841 l 0,-17.467 c 0,-1.557 -1.26,-2.842 -2.815,-2.842 l -17.493,0 z m 0,1.684 17.493,0 c 0.646,0 1.131,0.514 1.131,1.158 l 0,17.467 c 0,0.646 -0.486,1.157 -1.131,1.157 l -17.493,0 c -0.646,0 -1.158,-0.512 -1.158,-1.157 l 0,-17.467 c 0,-0.646 0.513,-1.158 1.158,-1.158 z"
         id="path109"
         inkscape:connector-curvature="0"
         style="fill:#f4f4f4" /><path
         d="m 227.653,193.314 c -1.555,0 -2.842,1.285 -2.842,2.842 l 0,17.467 c 0,1.555 1.285,2.841 2.842,2.841 l 17.493,0 c 1.555,0 2.84,-1.286 2.84,-2.841 l 0,-17.467 c 0,-1.557 -1.285,-2.842 -2.84,-2.842 l -17.493,0 z m 0,1.684 17.493,0 c 0.646,0 1.157,0.514 1.157,1.158 l 0,17.467 c 0,0.646 -0.512,1.157 -1.157,1.157 l -17.493,0 c -0.647,0 -1.158,-0.512 -1.158,-1.157 l 0,-17.467 c 0,-0.646 0.51,-1.158 1.158,-1.158 z"
         id="path111"
         inkscape:connector-curvature="0"
         style="fill:#f4f4f4" /><path
         d="m 252.325,193.314 c -1.554,0 -2.814,1.285 -2.814,2.842 l 0,17.467 c 0,1.555 1.259,2.841 2.814,2.841 l 17.493,0 c 1.555,0 2.841,-1.286 2.841,-2.841 l 0,-17.467 c 0,-1.557 -1.286,-2.842 -2.841,-2.842 l -17.493,0 z m 0,1.684 17.493,0 c 0.645,0 1.157,0.514 1.157,1.158 l 0,17.467 c 0,0.646 -0.512,1.157 -1.157,1.157 l -17.493,0 c -0.646,0 -1.131,-0.512 -1.131,-1.157 l 0,-17.467 c 0,-0.646 0.486,-1.158 1.131,-1.158 z"
         id="path113"
         inkscape:connector-curvature="0"
         style="fill:#f4f4f4" /><path
         d="m 277.032,193.314 c -1.555,0 -2.842,1.285 -2.842,2.842 l 0,17.467 c 0,1.555 1.287,2.841 2.842,2.841 l 17.493,0 c 1.554,0 2.814,-1.286 2.814,-2.841 l 0,-17.467 c 0,-1.556 -1.26,-2.842 -2.814,-2.842 l -17.493,0 z m 0,1.684 17.493,0 c 0.645,0 1.131,0.513 1.131,1.158 l 0,17.467 c 0,0.646 -0.487,1.157 -1.131,1.157 l -17.493,0 c -0.646,0 -1.158,-0.512 -1.158,-1.157 l 0,-17.467 c 0,-0.646 0.511,-1.158 1.158,-1.158 z"
         id="path115"
         inkscape:connector-curvature="0"
         style="fill:#f4f4f4" /><path
         d="m 301.704,193.314 c -1.554,0 -2.841,1.285 -2.841,2.842 l 0,17.467 c 0,1.555 1.286,2.841 2.841,2.841 l 17.493,0 c 1.554,0 2.841,-1.286 2.841,-2.841 l 0,-17.467 c 0,-1.557 -1.286,-2.842 -2.841,-2.842 l -17.493,0 z m 0,1.684 17.493,0 c 0.646,0 1.157,0.514 1.157,1.158 l 0,17.467 c 0,0.646 -0.514,1.157 -1.157,1.157 l -17.493,0 c -0.646,0 -1.157,-0.512 -1.157,-1.157 l 0,-17.467 c 0,-0.646 0.511,-1.158 1.157,-1.158 z"
         id="path117"
         inkscape:connector-curvature="0"
         style="fill:#f4f4f4" /><path
         d="m 326.376,193.314 c -1.553,0 -2.813,1.285 -2.813,2.842 l 0,17.467 c 0,1.555 1.259,2.841 2.813,2.841 l 17.494,0 c 1.554,0 2.842,-1.286 2.842,-2.841 l 0,-17.467 c 0,-1.557 -1.287,-2.842 -2.842,-2.842 l -17.494,0 z m 0,1.684 17.494,0 c 0.646,0 1.157,0.514 1.157,1.158 l 0,17.467 c 0,0.646 -0.514,1.157 -1.157,1.157 l -17.494,0 c -0.645,0 -1.13,-0.512 -1.13,-1.157 l 0,-17.467 c 0,-0.646 0.486,-1.158 1.13,-1.158 z"
         id="path119"
         inkscape:connector-curvature="0"
         style="fill:#f4f4f4" /><path
         d="m 351.084,193.314 c -1.556,0 -2.842,1.285 -2.842,2.842 l 0,17.467 c 0,1.555 1.284,2.841 2.842,2.841 l 17.493,0 c 1.554,0 2.814,-1.286 2.814,-2.841 l 0,-17.467 c 0,-1.557 -1.26,-2.842 -2.814,-2.842 l -17.493,0 z m 0,1.684 17.493,0 c 0.645,0 1.13,0.514 1.13,1.158 l 0,17.467 c 0,0.646 -0.486,1.157 -1.13,1.157 l -17.493,0 c -0.646,0 -1.159,-0.512 -1.159,-1.157 l 0,-17.467 c 0,-0.646 0.513,-1.158 1.159,-1.158 z"
         id="path121"
         inkscape:connector-curvature="0"
         style="fill:#f4f4f4" /><path
         d="m 375.756,193.314 c -1.554,0 -2.841,1.285 -2.841,2.842 l 0,17.467 c 0,1.555 1.285,2.841 2.841,2.841 l 17.492,0 c 1.555,0 2.842,-1.286 2.842,-2.841 l 0,-17.467 c 0,-1.556 -1.286,-2.842 -2.842,-2.842 l -17.492,0 z m 0,1.684 17.492,0 c 0.646,0 1.157,0.513 1.157,1.158 l 0,17.467 c 0,0.646 -0.512,1.157 -1.157,1.157 l -17.492,0 c -0.646,0 -1.158,-0.512 -1.158,-1.157 l 0,-17.467 c 0,-0.646 0.513,-1.158 1.158,-1.158 z"
         id="path123"
         inkscape:connector-curvature="0"
         style="fill:#f4f4f4" /><path
         d="m 482.638,193.314 c -1.555,0 -2.842,1.285 -2.842,2.842 l 0,17.467 c 0,1.555 1.286,2.841 2.842,2.841 l 31.75,0 c 1.555,0 2.842,-1.286 2.842,-2.841 l 0,-17.467 c 0,-1.557 -1.286,-2.842 -2.842,-2.842 l -31.75,0 z m 0,1.684 31.75,0 c 0.646,0 1.158,0.514 1.158,1.158 l 0,17.467 c 0,0.646 -0.514,1.157 -1.158,1.157 l -31.75,0 c -0.647,0 -1.157,-0.512 -1.157,-1.157 l 0,-17.467 c -10e-4,-0.646 0.51,-1.158 1.157,-1.158 z"
         id="path125"
         inkscape:connector-curvature="0"
         style="fill:#f4f4f4" /><path
         d="m 401.11,193.314 c -1.555,0 -2.841,1.285 -2.841,2.842 l 0,17.467 c 0,1.555 1.285,2.841 2.841,2.841 l 41.063,0 c 1.554,0 2.814,-1.286 2.814,-2.841 l 0,-17.467 c 0,-1.557 -1.261,-2.842 -2.814,-2.842 l -41.063,0 z m 0,1.684 41.063,0 c 0.646,0 1.132,0.514 1.132,1.158 l 0,17.467 c 0,0.646 -0.488,1.157 -1.132,1.157 l -41.063,0 c -0.646,0 -1.157,-0.512 -1.157,-1.157 l 0,-17.467 c 0,-0.646 0.512,-1.158 1.157,-1.158 z"
         id="path127"
         inkscape:connector-curvature="0"
         style="fill:#f4f4f4" /><path
         d="m 54.877,217.727 c -1.555,0 -2.841,1.26 -2.841,2.814 l 0,17.494 c 0,1.555 1.286,2.84 2.841,2.84 l 17.493,0 c 1.555,0 2.815,-1.284 2.815,-2.84 l 0,-17.494 c 0,-1.555 -1.26,-2.814 -2.815,-2.814 l -17.493,0 z m 0,1.683 17.493,0 c 0.646,0 1.131,0.486 1.131,1.131 l 0,17.494 c 0,0.645 -0.485,1.157 -1.131,1.157 l -17.493,0 c -0.646,0 -1.158,-0.514 -1.158,-1.157 l 0,-17.494 c 10e-4,-0.646 0.512,-1.131 1.158,-1.131 z"
         id="path129"
         inkscape:connector-curvature="0"
         style="fill:#f4f4f4" /><path
         d="m 79.553,217.727 c -1.555,0 -2.841,1.26 -2.841,2.814 l 0,17.494 c 0,1.555 1.286,2.84 2.841,2.84 l 29.436,0 c 1.416,0 2.561,-1.083 2.762,-2.445 0,-0.009 0,-0.019 0,-0.026 0.003,-0.02 0.024,-0.034 0.026,-0.053 0.032,-0.084 0.049,-0.173 0.053,-0.263 0,-0.019 0,-0.036 0,-0.053 l 0,-17.494 c 0,-1.555 -1.286,-2.814 -2.841,-2.814 l -29.436,0 0,0 z m 0,1.683 29.436,0 c 0.645,0 1.158,0.486 1.158,1.131 l 0,17.441 0,0.053 c 0,0.645 -0.513,1.157 -1.158,1.157 l -29.436,0 c -0.646,0 -1.158,-0.513 -1.158,-1.157 l 0,-17.494 c 0,-0.646 0.511,-1.131 1.158,-1.131 l 0,0 z"
         id="path131"
         inkscape:connector-curvature="0"
         style="fill:#f4f4f4" /><path
         d="m 116.196,217.727 c -1.555,0 -2.841,1.26 -2.841,2.814 l 0,17.494 c 0,1.555 1.286,2.84 2.841,2.84 l 17.493,0 c 1.555,0 2.814,-1.284 2.814,-2.84 l 0,-17.494 c 0,-1.555 -1.259,-2.814 -2.814,-2.814 l -17.493,0 z m 0,1.683 17.493,0 c 0.645,0 1.131,0.486 1.131,1.131 l 0,17.494 c 0,0.645 -0.486,1.157 -1.131,1.157 l -17.493,0 c -0.646,0 -1.158,-0.514 -1.158,-1.157 l 0,-17.494 c 0.001,-0.646 0.512,-1.131 1.158,-1.131 z"
         id="path133"
         inkscape:connector-curvature="0"
         style="fill:#f4f4f4" /><path
         d="m 140.873,217.727 c -1.555,0 -2.841,1.26 -2.841,2.814 l 0,17.494 c 0,1.555 1.286,2.84 2.841,2.84 l 17.493,0 c 1.555,0 2.841,-1.284 2.841,-2.84 l 0,-17.494 c 0,-1.555 -1.286,-2.814 -2.841,-2.814 l -17.493,0 z m 0,1.683 17.493,0 c 0.646,0 1.158,0.486 1.158,1.131 l 0,17.494 c 0,0.645 -0.512,1.157 -1.158,1.157 l -17.493,0 c -0.645,0 -1.158,-0.514 -1.158,-1.157 l 0,-17.494 c 0,-0.646 0.512,-1.131 1.158,-1.131 z"
         id="path135"
         inkscape:connector-curvature="0"
         style="fill:#f4f4f4" /><path
         d="m 165.571,217.727 c -1.555,0 -2.841,1.26 -2.841,2.814 l 0,17.494 c 0,1.555 1.286,2.84 2.841,2.84 l 17.467,0 c 1.555,0 2.841,-1.284 2.841,-2.84 l 0,-17.494 c 0,-1.555 -1.286,-2.814 -2.841,-2.814 l -17.467,0 z m 0,1.683 17.467,0 c 0.646,0 1.158,0.485 1.158,1.131 l 0,17.494 c 0,0.645 -0.512,1.157 -1.158,1.157 l -17.467,0 c -0.646,0 -1.158,-0.514 -1.158,-1.157 l 0,-17.494 c 0,-0.646 0.512,-1.131 1.158,-1.131 z"
         id="path137"
         inkscape:connector-curvature="0"
         style="fill:#f4f4f4" /><path
         d="m 122.404,242.113 c -1.554,0 -2.841,1.284 -2.841,2.841 l 0,17.493 c 0,1.555 1.286,2.842 2.841,2.842 l 217.702,0 c 1.555,0 2.841,-1.286 2.841,-2.842 l 0,-17.493 c 0,-1.555 -1.286,-2.841 -2.841,-2.841 l -217.702,0 z m 0,1.684 217.702,0 c 0.646,0 1.157,0.512 1.157,1.157 l 0,17.493 c 0,0.646 -0.513,1.157 -1.157,1.157 l -217.702,0 c -0.645,0 -1.157,-0.512 -1.157,-1.157 l 0,-17.493 c 0,-0.646 0.511,-1.157 1.157,-1.157 z"
         id="path139"
         inkscape:connector-curvature="0"
         style="fill:#f4f4f4" /><path
         d="m 190.244,217.727 c -1.555,0 -2.841,1.26 -2.841,2.814 l 0,17.494 c 0,1.554 1.285,2.84 2.841,2.84 l 17.493,0 c 1.555,0 2.815,-1.284 2.815,-2.84 l 0,-17.494 c 0,-1.555 -1.26,-2.814 -2.815,-2.814 l -17.493,0 z m 0,1.683 17.493,0 c 0.646,0 1.132,0.486 1.132,1.131 l 0,17.494 c 0,0.645 -0.486,1.157 -1.132,1.157 l -17.493,0 c -0.646,0 -1.158,-0.513 -1.158,-1.157 l 0,-17.494 c 0,-0.646 0.511,-1.131 1.158,-1.131 z"
         id="path141"
         inkscape:connector-curvature="0"
         style="fill:#f4f4f4" /><path
         d="m 214.925,217.727 c -1.555,0 -2.841,1.26 -2.841,2.814 l 0,17.494 c 0,1.555 1.286,2.84 2.841,2.84 l 17.493,0 c 1.555,0 2.841,-1.284 2.841,-2.84 l 0,-17.494 c 0,-1.555 -1.285,-2.814 -2.841,-2.814 l -17.493,0 z m 0,1.683 17.493,0 c 0.647,0 1.158,0.485 1.158,1.131 l 0,17.494 c 0,0.645 -0.512,1.157 -1.158,1.157 l -17.493,0 c -0.646,0 -1.158,-0.514 -1.158,-1.157 l 0,-17.494 c 0,-0.646 0.512,-1.131 1.158,-1.131 z"
         id="path143"
         inkscape:connector-curvature="0"
         style="fill:#f4f4f4" /><path
         d="m 239.623,217.727 c -1.554,0 -2.841,1.26 -2.841,2.814 l 0,17.494 c 0,1.554 1.286,2.84 2.841,2.84 l 17.466,0 c 1.555,0 2.841,-1.284 2.841,-2.84 l 0,-17.494 c 0,-1.555 -1.286,-2.814 -2.841,-2.814 l -17.466,0 z m 0,1.683 17.466,0 c 0.646,0 1.158,0.486 1.158,1.131 l 0,17.494 c 0,0.645 -0.512,1.157 -1.158,1.157 l -17.466,0 c -0.646,0 -1.158,-0.513 -1.158,-1.157 l 0,-17.494 c 0,-0.646 0.513,-1.131 1.158,-1.131 z"
         id="path145"
         inkscape:connector-curvature="0"
         style="fill:#f4f4f4" /><path
         d="m 264.295,217.727 c -1.555,0 -2.841,1.26 -2.841,2.814 l 0,17.494 c 0,1.555 1.286,2.84 2.841,2.84 l 17.493,0 c 1.555,0 2.815,-1.284 2.815,-2.84 l 0,-17.494 c 0,-1.555 -1.26,-2.814 -2.815,-2.814 l -17.493,0 z m 0,1.683 17.493,0 c 0.646,0 1.131,0.485 1.131,1.131 l 0,17.494 c 0,0.645 -0.485,1.157 -1.131,1.157 l -17.493,0 c -0.645,0 -1.158,-0.514 -1.158,-1.157 l 0,-17.494 c 10e-4,-0.646 0.512,-1.131 1.158,-1.131 z"
         id="path147"
         inkscape:connector-curvature="0"
         style="fill:#f4f4f4" /><path
         d="m 288.976,217.727 c -1.553,0 -2.84,1.26 -2.84,2.814 l 0,17.494 c 0,1.554 1.286,2.84 2.84,2.84 l 17.494,0 c 1.555,0 2.841,-1.284 2.841,-2.84 l 0,-17.494 c 0,-1.555 -1.286,-2.814 -2.841,-2.814 l -17.494,0 z m 0,1.683 17.494,0 c 0.646,0 1.157,0.486 1.157,1.131 l 0,17.494 c 0,0.645 -0.513,1.157 -1.157,1.157 l -17.494,0 c -0.645,0 -1.157,-0.513 -1.157,-1.157 l 0,-17.494 c 0,-0.646 0.513,-1.131 1.157,-1.131 z"
         id="path149"
         inkscape:connector-curvature="0"
         style="fill:#f4f4f4" /><path
         d="m 313.674,217.727 c -1.554,0 -2.841,1.259 -2.841,2.814 l 0,17.494 c 0,1.555 1.286,2.84 2.841,2.84 l 17.468,0 c 1.555,0 2.841,-1.284 2.841,-2.84 l 0,-17.494 c 0,-1.555 -1.286,-2.814 -2.841,-2.814 l -17.468,0 z m 0,1.683 17.468,0 c 0.646,0 1.157,0.486 1.157,1.131 l 0,17.494 c 0,0.645 -0.513,1.157 -1.157,1.157 l -17.468,0 c -0.646,0 -1.156,-0.514 -1.156,-1.157 l 0,-17.494 c 0,-0.646 0.511,-1.131 1.156,-1.131 z"
         id="path151"
         inkscape:connector-curvature="0"
         style="fill:#f4f4f4" /><path
         d="m 338.347,217.727 c -1.554,0 -2.842,1.259 -2.842,2.814 l 0,17.494 c 0,1.555 1.287,2.84 2.842,2.84 l 17.493,0 c 1.555,0 2.813,-1.284 2.813,-2.84 l 0,-17.494 c 0,-1.555 -1.258,-2.814 -2.813,-2.814 l -17.493,0 z m 0,1.683 17.493,0 c 0.646,0 1.132,0.486 1.132,1.131 l 0,17.494 c 0,0.645 -0.487,1.157 -1.132,1.157 l -17.493,0 c -0.646,0 -1.157,-0.514 -1.157,-1.157 l 0,-17.494 c -10e-4,-0.646 0.512,-1.131 1.157,-1.131 z"
         id="path153"
         inkscape:connector-curvature="0"
         style="fill:#f4f4f4" /><path
         d="m 363.02,217.727 c -1.554,0 -2.842,1.259 -2.842,2.814 l 0,17.494 c 0,1.555 1.286,2.84 2.842,2.84 l 30.436,0 c 1.556,0 2.841,-1.284 2.841,-2.84 l 0,-17.494 c 0,-1.555 -1.285,-2.814 -2.841,-2.814 l -30.436,0 z m 0,1.683 30.436,0 c 0.646,0 1.157,0.486 1.157,1.131 l 0,17.494 c 0,0.645 -0.513,1.157 -1.157,1.157 l -30.436,0 c -0.646,0 -1.157,-0.514 -1.157,-1.157 l 0,-17.494 c -10e-4,-0.646 0.512,-1.131 1.157,-1.131 z"
         id="path155"
         inkscape:connector-curvature="0"
         style="fill:#f4f4f4" /><path
         d="m 400.008,217.727 c -1.554,0 -2.842,1.26 -2.842,2.814 l 0,17.494 c 0,1.554 1.287,2.84 2.842,2.84 l 17.467,0 c 1.554,0 2.841,-1.284 2.841,-2.84 l 0,-17.494 c 0,-1.555 -1.286,-2.814 -2.841,-2.814 l -17.467,0 z m 0,1.683 17.467,0 c 0.646,0 1.157,0.485 1.157,1.131 l 0,17.494 c 0,0.645 -0.512,1.157 -1.157,1.157 l -17.467,0 c -0.646,0 -1.157,-0.513 -1.157,-1.157 l 0,-17.494 c 0,-0.646 0.512,-1.131 1.157,-1.131 z"
         id="path157"
         inkscape:connector-curvature="0"
         style="fill:#f4f4f4" /><path
         d="m 482.638,217.727 c -1.555,0 -2.842,1.26 -2.842,2.814 l 0,17.494 c 0,1.554 1.286,2.84 2.842,2.84 l 31.75,0 c 1.555,0 2.842,-1.284 2.842,-2.84 l 0,-17.494 c 0,-1.555 -1.286,-2.814 -2.842,-2.814 l -31.75,0 z m 0,1.683 31.75,0 c 0.646,0 1.158,0.486 1.158,1.131 l 0,17.494 c 0,0.645 -0.514,1.157 -1.158,1.157 l -31.75,0 c -0.647,0 -1.157,-0.513 -1.157,-1.157 l 0,-17.494 c -10e-4,-0.646 0.51,-1.131 1.157,-1.131 z"
         id="path159"
         inkscape:connector-curvature="0"
         style="fill:#f4f4f4" /><path
         d="m 424.681,217.727 c -1.554,0 -2.842,1.26 -2.842,2.814 l 0,17.494 c 0,1.554 1.285,2.84 2.842,2.84 l 17.493,0 c 1.554,0 2.814,-1.284 2.814,-2.84 l 0,-17.494 c 0,-1.555 -1.261,-2.814 -2.814,-2.814 l -17.493,0 z m 0,1.683 17.493,0 c 0.646,0 1.132,0.486 1.132,1.131 l 0,17.494 c 0,0.645 -0.488,1.157 -1.132,1.157 l -17.493,0 c -0.646,0 -1.158,-0.513 -1.158,-1.157 l 0,-17.494 c -0.001,-0.646 0.511,-1.131 1.158,-1.131 z"
         id="path161"
         inkscape:connector-curvature="0"
         style="fill:#f4f4f4" /><path
         d="m 431.76,144.491 c -1.555,0 -2.841,1.285 -2.841,2.841 l 0,17.494 c 0,1.555 1.285,2.84 2.841,2.84 l 17.493,0 c 1.555,0 2.842,-1.285 2.842,-2.84 l 0,-17.494 c 0,-1.556 -1.287,-2.841 -2.842,-2.841 l -17.493,0 z m 0,1.684 17.493,0 c 0.647,0 1.157,0.511 1.157,1.158 l 0,17.494 c 0,0.645 -0.511,1.157 -1.157,1.157 l -17.493,0 c -0.646,0 -1.157,-0.514 -1.157,-1.157 l 0,-17.494 c 0,-0.646 0.512,-1.158 1.157,-1.158 z"
         id="path163"
         inkscape:connector-curvature="0"
         style="fill:#f4f4f4" /><path
         d="m 482.638,144.491 c -1.555,0 -2.842,1.285 -2.842,2.841 l 0,17.494 c 0,1.554 1.286,2.84 2.842,2.84 l 31.75,0 c 1.555,0 2.842,-1.284 2.842,-2.84 l 0,-17.494 c 0,-1.556 -1.286,-2.841 -2.842,-2.841 l -31.75,0 z m 0,1.684 31.75,0 c 0.646,0 1.158,0.511 1.158,1.158 l 0,17.494 c 0,0.644 -0.514,1.157 -1.158,1.157 l -31.75,0 c -0.647,0 -1.157,-0.513 -1.157,-1.157 l 0,-17.494 c -10e-4,-0.647 0.51,-1.158 1.157,-1.158 z"
         id="path165"
         inkscape:connector-curvature="0"
         style="fill:#f4f4f4" /><path
         d="m 56.666,141.73 c -0.434,0.041 -0.764,0.406 -0.763,0.841 l 0,47.982 -5.787,0 c -0.465,0 -0.842,0.377 -0.842,0.843 l 0,52.11 c 0,0.465 0.376,0.841 0.842,0.841 l 66.238,0 0,23.07 c 0,0.466 0.377,0.843 0.842,0.843 l 227.466,0 c 0.465,0 0.843,-0.377 0.843,-0.843 l 0,-23.385 101.435,0 c 0.466,0 0.842,-0.377 0.842,-0.842 l 0,-47.98 6.444,0 c 0.466,0 0.843,-0.377 0.843,-0.842 l 0,-51.796 c 0,-0.465 -0.377,-0.841 -0.843,-0.841 l -397.482,0 c -0.026,-0.002 -0.053,-0.002 -0.078,-0.001 l 0,0 z m 0.92,1.684 395.799,0 0,50.112 -6.446,0 c -0.463,0 -0.841,0.376 -0.841,0.842 l 0,47.98 -101.435,0 c -0.465,0 -0.841,0.378 -0.841,0.843 l 0,23.386 -225.784,0 0,-23.07 c 0,-0.465 -0.377,-0.842 -0.842,-0.842 l -66.238,0 0,-50.427 5.788,0 c 0.465,0 0.841,-0.378 0.841,-0.842 l -0.001,-47.982 0,0 z"
         id="polygon167"
         inkscape:connector-curvature="0"
         style="fill:#f4f4f4" /><path
         d="m 478.219,142.235 c -0.424,0.054 -0.741,0.416 -0.737,0.842 l 0,99.617 c 0,0.465 0.377,0.842 0.842,0.842 l 40.168,0 c 0.466,0 0.843,-0.377 0.843,-0.842 l 0,-99.617 c 0,-0.465 -0.377,-0.842 -0.843,-0.842 l -40.168,0 c -0.036,-0.002 -0.072,-0.002 -0.105,0 z m 0.946,1.684 38.485,0 0,97.934 -38.485,0 0,-97.934 z"
         id="rect169"
         inkscape:connector-curvature="0"
         style="fill:#f4f4f4" /><path
         d="m 45.802,133 c -2.105,0 -3.84,1.709 -3.84,3.814 l 0,137.472 c 0,2.106 1.734,3.841 3.84,3.841 l 502.411,0 c 2.104,0 3.813,-1.734 3.813,-3.841 l 0,-137.473 c 0,-2.105 -1.709,-3.813 -3.813,-3.813 l -502.411,0 0,0 z m 0,1.683 502.411,0 c 1.195,0 2.13,0.935 2.13,2.13 l 0,137.472 c 0,1.196 -0.935,2.158 -2.13,2.158 l -502.411,0 c -1.196,0 -2.157,-0.962 -2.157,-2.158 l 0,-137.472 c 0,-1.196 0.96,-2.13 2.157,-2.13 l 0,0 z"
         id="path171"
         inkscape:connector-curvature="0"
         style="fill:#f4f4f4" /><path
         d="m 554.29,92.857 c -0.465,0 -0.842,0.376 -0.842,0.841 0,0.009 0,0.018 0,0.027 l 0,2.92 c -0.008,0.465 0.364,0.847 0.83,0.854 0.463,0.006 0.847,-0.366 0.853,-0.83 0,-0.008 0,-0.016 0,-0.024 l 0,-2.92 c 0.016,-0.465 -0.351,-0.854 -0.814,-0.867 -0.009,-0.001 -0.018,-0.001 -0.027,-0.001 z"
         id="line173"
         inkscape:connector-curvature="0"
         style="fill:#f4f4f4" /><path
         d="m 554.29,88.91 c -0.465,0 -0.842,0.377 -0.842,0.841 0,0.009 0,0.018 0,0.027 l 0,2.105 c -0.008,0.465 0.364,0.846 0.83,0.853 0.463,0.007 0.847,-0.365 0.853,-0.83 0,-0.008 0,-0.016 0,-0.023 l 0,-2.105 c 0.016,-0.465 -0.351,-0.854 -0.814,-0.868 -0.009,0 -0.018,0 -0.027,0 z"
         id="line175"
         inkscape:connector-curvature="0"
         style="fill:#f4f4f4" /><path
         d="m 554.188,83.859 c -0.423,0.054 -0.737,0.415 -0.735,0.842 l 0,3.288 c -0.006,0.465 0.364,0.847 0.83,0.854 0.465,0.006 0.848,-0.365 0.854,-0.83 0,-0.008 0,-0.016 0,-0.024 l 0,-3.288 c 0.004,-0.465 -0.37,-0.845 -0.835,-0.848 -0.038,0 -0.076,0.001 -0.114,0.006 z"
         id="line177"
         inkscape:connector-curvature="0"
         style="fill:#f4f4f4" /><path
         d="m 554.29,78.993 c -0.465,0 -0.842,0.377 -0.842,0.842 0,0.009 0,0.017 0,0.026 l 0,3.156 c -0.008,0.465 0.364,0.848 0.83,0.854 0.463,0.007 0.847,-0.365 0.853,-0.83 0,-0.008 0,-0.016 0,-0.024 l 0,-3.156 c 0.016,-0.465 -0.351,-0.854 -0.814,-0.868 -0.009,0 -0.018,0 -0.027,0 z"
         id="line179"
         inkscape:connector-curvature="0"
         style="fill:#f4f4f4" /><path
         d="m 554.188,74.389 c -0.432,0.055 -0.752,0.432 -0.735,0.868 l 0,2.946 c -0.006,0.465 0.364,0.848 0.83,0.854 0.465,0.007 0.848,-0.365 0.854,-0.83 0,-0.008 0,-0.016 0,-0.024 l 0,-2.946 c 0.019,-0.464 -0.344,-0.855 -0.808,-0.874 -0.048,-10e-4 -0.095,0 -0.141,0.006 z"
         id="line181"
         inkscape:connector-curvature="0"
         style="fill:#f4f4f4" /><path
         d="m 554.29,70.208 c -0.465,0 -0.842,0.376 -0.842,0.841 0,0.009 0,0.018 0,0.026 l 0,2.315 c -0.008,0.465 0.364,0.848 0.83,0.854 0.463,0.007 0.847,-0.365 0.853,-0.83 0,-0.009 0,-0.016 0,-0.024 l 0,-2.315 c 0.016,-0.465 -0.351,-0.853 -0.814,-0.867 -0.009,0 -0.018,0 -0.027,0 z"
         id="line183"
         inkscape:connector-curvature="0"
         style="fill:#f4f4f4" /><path
         d="m 38.2,70.208 c -0.424,0.053 -0.74,0.415 -0.737,0.841 l 0,2.368 c -0.007,0.465 0.365,0.847 0.83,0.854 0.465,0.006 0.847,-0.365 0.854,-0.83 0,-0.008 0,-0.016 0,-0.024 l 0,-2.368 C 39.15,70.584 38.776,70.205 38.312,70.201 38.274,70.2 38.236,70.203 38.2,70.208 Z"
         id="line185"
         inkscape:connector-curvature="0"
         style="fill:#f4f4f4" /><path
         d="m 38.12,74.363 c -0.391,0.087 -0.667,0.44 -0.657,0.842 l 0,2.999 c -0.007,0.465 0.365,0.847 0.83,0.854 0.465,0.007 0.847,-0.365 0.854,-0.83 0,-0.009 0,-0.016 0,-0.024 l 0,-2.999 c 0.012,-0.465 -0.356,-0.852 -0.821,-0.862 -0.07,-0.002 -0.138,0.005 -0.206,0.02 l 0,0 z"
         id="line187"
         inkscape:connector-curvature="0"
         style="fill:#f4f4f4" /><path
         d="m 38.12,79.388 c -0.391,0.088 -0.667,0.44 -0.657,0.842 l 0,2.736 c -0.007,0.465 0.365,0.847 0.83,0.854 0.465,0.007 0.847,-0.365 0.854,-0.829 0,-0.008 0,-0.017 0,-0.024 l 0,-2.736 c 0.012,-0.465 -0.356,-0.85 -0.821,-0.862 -0.07,-0.003 -0.138,0.005 -0.206,0.019 l 0,0 z"
         id="line189"
         inkscape:connector-curvature="0"
         style="fill:#f4f4f4" /><path
         d="m 38.12,83.913 c -0.391,0.088 -0.667,0.44 -0.657,0.841 l 0,3.078 c -0.007,0.465 0.365,0.848 0.83,0.854 0.465,0.007 0.847,-0.365 0.854,-0.83 0,-0.008 0,-0.016 0,-0.024 l 0,-3.078 c 0.012,-0.464 -0.356,-0.851 -0.821,-0.861 -0.07,-0.002 -0.138,0.004 -0.206,0.02 l 0,0 z"
         id="line191"
         inkscape:connector-curvature="0"
         style="fill:#f4f4f4" /><path
         d="m 38.12,89.016 c -0.391,0.088 -0.667,0.44 -0.657,0.842 l 0,2.131 c -0.007,0.465 0.365,0.847 0.83,0.854 0.465,0.006 0.847,-0.366 0.854,-0.83 0,-0.008 0,-0.016 0,-0.024 l 0,-2.131 c 0.012,-0.465 -0.356,-0.851 -0.821,-0.862 -0.07,-10e-4 -0.138,0.005 -0.206,0.02 l 0,0 z"
         id="line193"
         inkscape:connector-curvature="0"
         style="fill:#f4f4f4" /><path
         d="m 38.2,93.119 c -0.424,0.054 -0.74,0.415 -0.737,0.842 l 0,2.5 c -0.007,0.465 0.365,0.846 0.83,0.854 0.465,0.006 0.847,-0.365 0.854,-0.831 0,-0.008 0,-0.016 0,-0.023 l 0,-2.5 c 0.003,-0.464 -0.371,-0.846 -0.835,-0.849 -0.038,0 -0.076,0.002 -0.112,0.007 z"
         id="line195"
         inkscape:connector-curvature="0"
         style="fill:#f4f4f4" /><path
         d="m 499.337,76.6 c -2.715,0 -4.944,2.203 -4.944,4.919 0,2.716 2.229,4.945 4.944,4.945 2.719,0 4.946,-2.229 4.946,-4.945 0,-2.717 -2.227,-4.919 -4.946,-4.919 z m 0,1.683 c 1.808,0 3.262,1.429 3.262,3.236 0,1.807 -1.454,3.262 -3.262,3.262 -1.806,0 -3.261,-1.455 -3.261,-3.262 0,-1.807 1.455,-3.236 3.261,-3.236 z"
         id="circle197"
         inkscape:connector-curvature="0"
         style="fill:#f4f4f4" /></g></g></svg>