<?xml version="1.0" encoding="UTF-8" standalone="no"?>
<!-- Generator: Adobe Illustrator 13.0.0, SVG Export Plug-In . SVG Version: 6.00 Build 14948)  -->

<svg
   xmlns:dc="http://purl.org/dc/elements/1.1/"
   xmlns:cc="http://creativecommons.org/ns#"
   xmlns:rdf="http://www.w3.org/1999/02/22-rdf-syntax-ns#"
   xmlns:svg="http://www.w3.org/2000/svg"
   xmlns="http://www.w3.org/2000/svg"
   xmlns:sodipodi="http://sodipodi.sourceforge.net/DTD/sodipodi-0.dtd"
   xmlns:inkscape="http://www.inkscape.org/namespaces/inkscape"
   version="1.1"
   id="Layer_2"
   x="0px"
   y="0px"
   width="550"
   height="550"
   viewBox="0 0 549.99995 549.99999"
   enable-background="new 0 0 598.189 350.26"
   xml:space="preserve"
   inkscape:version="0.91 r13725"
   sodipodi:docname="controller_gg.svg"><metadata
     id="metadata3083"><rdf:RDF><cc:Work
         rdf:about=""><dc:format>image/svg+xml</dc:format><dc:type
           rdf:resource="http://purl.org/dc/dcmitype/StillImage" /><dc:title></dc:title></cc:Work></rdf:RDF></metadata><defs
     id="defs3081" /><sodipodi:namedview
     pagecolor="#ffffff"
     bordercolor="#666666"
     borderopacity="1"
     objecttolerance="10"
     gridtolerance="10"
     guidetolerance="10"
     inkscape:pageopacity="0"
     inkscape:pageshadow="2"
     inkscape:window-width="1920"
     inkscape:window-height="1001"
     id="namedview3079"
     showgrid="false"
     inkscape:zoom="1.0799262"
     inkscape:cx="318.36098"
     inkscape:cy="317.24155"
     inkscape:window-x="-9"
     inkscape:window-y="-9"
     inkscape:window-maximized="1"
     inkscape:current-layer="layer4"
     showguides="true"
     inkscape:guide-bbox="true" /><g
     inkscape:groupmode="layer"
     id="layer2"
     inkscape:label="Screen_Rect"
     style="display:none"
     transform="translate(0,199.73999)"
     sodipodi:insensitive="true"><path
       style="fill:#ffffff;stroke:#000000;stroke-width:1px;stroke-linecap:butt;stroke-linejoin:miter;stroke-opacity:1"
       d="M 5.0135033,547.22203 136.4109,114.39023 653.54628,-189.09358 406.482,260.92121 Z"
       id="path3021"
       inkscape:connector-curvature="0"
       transform="translate(-2e-5,-199.73999)"
       sodipodi:nodetypes="ccccc" /><rect
       style="opacity:0.60100002;fill:#d8201f;fill-opacity:1;stroke:#ff8080;stroke-width:2.45114732;stroke-linecap:round;stroke-linejoin:round;stroke-miterlimit:4;stroke-dasharray:none;stroke-opacity:1"
       id="rect4230"
       width="444.2457"
       height="9.9567661"
       x="145.95099"
       y="-211.30678" /></g><g
     inkscape:groupmode="layer"
     id="layer1"
     inkscape:label="Controller_Vorlage"
     style="display:none"
     sodipodi:insensitive="true"><g
       id="g4929"
       transform="translate(-0.929149,0.5695451)"><g
         transform="translate(0,199.73999)"
         style="display:none"
         inkscape:label="Layer2"
         id="layer2-9"><path
           sodipodi:nodetypes="ccccc"
           transform="translate(-2e-5,-199.73999)"
           inkscape:connector-curvature="0"
           id="path3021-0"
           d="M 5.0135033,547.22203 136.4109,114.39023 653.54628,-189.09358 406.482,260.92121 Z"
           style="fill:#ffffff;stroke:#000000;stroke-width:1px;stroke-linecap:butt;stroke-linejoin:miter;stroke-opacity:1" /></g><g
         inkscape:label="Layer"
         id="layer1-2"><g
           transform="matrix(0.55322035,-0.3970343,-0.34863416,0.85569517,173.63773,166.52161)"
           id="g3100"><path
             style="fill:#f4f4f4"
             inkscape:connector-curvature="0"
             id="path3"
             d="m 148.05,114.447 c -23.656,0 -42.861,19.204 -42.861,42.861 l 0,37.414 c 0,23.658 19.205,42.86 42.861,42.86 l 38.694,0 c 23.656,0 42.861,-19.202 42.861,-42.86 l 0,-37.414 c 0,-23.657 -19.205,-42.861 -42.861,-42.861 l -38.694,0 z m 0,1.905 38.694,0 c 22.627,0 40.956,18.328 40.956,40.956 l 0,37.414 c 0,22.629 -18.329,40.956 -40.956,40.956 l -38.694,0 c -22.628,0 -40.956,-18.327 -40.956,-40.956 l 0,-37.414 c 0,-22.629 18.328,-40.956 40.956,-40.956 z" /><path
             style="fill:#f4f4f4"
             inkscape:connector-curvature="0"
             id="path5"
             d="m 167.395,123.168 c -3.23,0 -5.863,2.633 -5.863,5.864 l 0,13.037 c 0,3.23 2.632,5.863 5.863,5.863 3.23,0 5.863,-2.633 5.863,-5.863 l 0,-13.037 c 0,-3.23 -2.633,-5.864 -5.863,-5.864 z m 0,1.906 c 2.201,0 3.958,1.758 3.958,3.958 l 0,13.037 c 0,2.2 -1.758,3.958 -3.958,3.958 -2.202,0 -3.958,-1.758 -3.958,-3.958 l 0,-13.037 c -0.001,-2.2 1.757,-3.958 3.958,-3.958 z" /><path
             style="fill:#f4f4f4"
             inkscape:connector-curvature="0"
             id="path7"
             d="m 120.425,170.135 c -3.23,0 -5.864,2.633 -5.864,5.864 0,3.231 2.632,5.894 5.864,5.894 l 13.037,0 c 3.229,0 5.864,-2.662 5.864,-5.894 0,-3.229 -2.633,-5.864 -5.864,-5.864 l -13.037,0 z m 0,1.905 13.037,0 c 2.201,0 3.959,1.759 3.959,3.959 0,2.201 -1.759,3.988 -3.959,3.988 l -13.037,0 c -2.198,-0.01 -3.955,-1.791 -3.955,-3.99 0,-2.201 1.758,-3.959 3.958,-3.959 l -0.003,0.002 z" /><path
             style="fill:#f4f4f4"
             inkscape:connector-curvature="0"
             id="path9"
             d="m 167.395,204.071 c -3.23,0 -5.863,2.663 -5.863,5.894 l 0,13.038 c 0,3.229 2.632,5.863 5.863,5.863 3.23,0 5.863,-2.633 5.863,-5.863 l 0,-13.038 c 0,-3.23 -2.633,-5.894 -5.863,-5.894 z m 0,1.906 c 2.201,0 3.958,1.789 3.958,3.988 l 0,13.038 c 0,2.2 -1.757,3.958 -3.958,3.958 -2.202,0 -3.958,-1.759 -3.958,-3.958 l 0,-13.038 c -0.001,-2.2 1.757,-3.988 3.958,-3.988 z" /><path
             style="fill:#f4f4f4"
             inkscape:connector-curvature="0"
             id="path11"
             d="m 201.321,170.135 c -3.229,0 -5.863,2.633 -5.863,5.864 0,3.231 2.633,5.894 5.863,5.894 l 13.067,0 c 3.229,0 5.863,-2.662 5.863,-5.894 0,-3.229 -2.633,-5.864 -5.863,-5.864 l -13.067,0 z m 0,1.905 13.067,0 c 2.2,0 3.958,1.76 3.958,3.959 0,2.201 -1.758,3.988 -3.958,3.988 l -13.067,0 c -2.2,0 -3.958,-1.788 -3.958,-3.988 0,-2.2 1.759,-3.959 3.958,-3.959 z" /><path
             style="fill:#f4f4f4"
             inkscape:connector-curvature="0"
             id="polygon13"
             d="m 133.878,141.176 -1.31,1.31 8.155,12.025 0.655,0.952 0.804,-0.803 3.869,-3.87 0.804,-0.804 -0.953,-0.655 -12.024,-8.155 z" /><path
             style="fill:#f4f4f4"
             inkscape:connector-curvature="0"
             id="polygon15"
             d="m 141.383,196.566 -0.654,0.952 -8.156,12.024 1.31,1.31 12.025,-8.155 0.953,-0.654 -0.804,-0.804 -3.87,-3.869 -0.804,-0.804 z" /><path
             style="fill:#f4f4f4"
             inkscape:connector-curvature="0"
             id="polygon17"
             d="m 193.435,196.566 -0.804,0.804 -3.869,3.869 -0.833,0.804 0.953,0.654 12.025,8.155 1.339,-1.31 -8.156,-12.024 -0.655,-0.952 0,0 z" /><path
             style="fill:#f4f4f4"
             inkscape:connector-curvature="0"
             id="polygon19"
             d="m 200.912,141.176 -12.025,8.155 -0.953,0.655 0.833,0.804 3.87,3.87 0.804,0.803 0.655,-0.952 8.155,-12.025 -1.339,-1.31 z" /><path
             style="fill:#f4f4f4"
             inkscape:connector-curvature="0"
             id="path21"
             d="m 146.354,104.833 c -27.67,0 -50.123,22.453 -50.123,50.124 l 0,42.117 c 0,27.671 22.453,50.123 50.123,50.123 l 42.117,0 c 27.671,0 50.124,-22.452 50.124,-50.123 l 0,-42.117 c 0,-27.67 -22.452,-50.124 -50.124,-50.124 l -42.117,0 z m 0,1.906 42.117,0 c 26.644,0 48.219,21.577 48.219,48.218 l 0,42.117 c 0,26.644 -21.577,48.218 -48.219,48.218 l -42.117,0 c -26.642,0 -48.218,-21.574 -48.218,-48.218 l 0,-42.117 c 0,-26.642 21.577,-48.218 48.218,-48.218 z" /><path
             style="fill:#f4f4f4"
             inkscape:connector-curvature="0"
             id="polygon23"
             d="m 69.499,75.694 0,0.952 0,202.961 0,0.952 0.953,0 196.122,0 0.952,0 0,-0.952 0,-26.401 289.521,0 0.952,0 0,-0.952 0,-113.458 0,-0.953 -0.952,0 -289.522,0 0,-61.196 0,-0.952 -0.952,0 -196.122,0 -0.952,-10e-4 0,0 z m 1.904,1.905 194.217,0 0,61.196 0,0.953 0.953,0 0.714,0 288.807,0 0,111.552 -289.226,0 -0.297,0 -0.953,0 0,0.953 0,26.4 -194.217,0 0,-201.055 0.002,0.001 z" /><path
             style="fill:#f4f4f4"
             inkscape:connector-curvature="0"
             id="circle25"
             d="m 400.692,169.126 c -19.762,0 -35.777,16.046 -35.777,35.807 0,19.761 16.018,35.807 35.777,35.807 19.759,0 35.807,-16.046 35.807,-35.807 0,-19.761 -16.047,-35.807 -35.807,-35.807 l 0,0 z m 0,1.905 c 18.73,0 33.901,15.17 33.901,33.902 0,18.732 -15.171,33.902 -33.901,33.902 -18.731,0 -33.872,-15.171 -33.872,-33.902 0,-18.731 15.141,-33.902 33.872,-33.902 l 0,0 z" /><path
             style="fill:#f4f4f4"
             inkscape:connector-curvature="0"
             id="circle27"
             d="m 400.692,177.669 c -15.039,0 -27.234,12.227 -27.234,27.265 0,15.038 12.195,27.234 27.234,27.234 15.036,0 27.264,-12.196 27.264,-27.234 0,-15.038 -12.227,-27.265 -27.264,-27.265 z m 0,1.905 c 14.008,0 25.359,11.351 25.359,25.359 0,14.008 -11.352,25.33 -25.359,25.33 -14.01,0 -25.33,-11.321 -25.33,-25.33 0,-14.009 11.321,-25.359 25.33,-25.359 z" /><path
             style="fill:#f4f4f4"
             inkscape:connector-curvature="0"
             id="circle29"
             d="m 489.919,169.126 c -19.762,0 -35.807,16.046 -35.807,35.807 0,19.761 16.045,35.807 35.807,35.807 19.76,0 35.807,-16.046 35.807,-35.807 0,-19.761 -16.047,-35.807 -35.807,-35.807 l 0,0 z m 0,1.905 c 18.73,0 33.901,15.17 33.901,33.902 0,18.732 -15.171,33.902 -33.901,33.902 -18.731,0 -33.902,-15.171 -33.902,-33.902 0,-18.731 15.171,-33.902 33.902,-33.902 l 0,0 z" /><path
             style="fill:#f4f4f4"
             inkscape:connector-curvature="0"
             id="circle31"
             d="m 489.919,177.669 c -15.039,0 -27.234,12.227 -27.234,27.265 0,15.038 12.195,27.234 27.234,27.234 15.036,0 27.234,-12.196 27.234,-27.234 0,-15.038 -12.196,-27.265 -27.234,-27.265 z m 0,1.905 c 14.008,0 25.329,11.351 25.329,25.359 0,14.008 -11.321,25.33 -25.329,25.33 -14.01,0 -25.33,-11.321 -25.33,-25.33 0,-14.009 11.32,-25.359 25.33,-25.359 z" /><path
             style="fill:#f4f4f4"
             inkscape:connector-curvature="0"
             id="path33"
             d="m 39.406,68.432 c -4.766,0 -8.662,3.896 -8.662,8.662 l 0,203.084 c 0,4.766 3.897,8.661 8.662,8.661 l 518.646,0 c 4.429,0 7.956,-3.411 8.453,-7.709 l 0.179,0 0,-0.952 0,-203.085 c 0,-4.762 -3.868,-8.658 -8.64,-8.658 l -518.645,0 0.007,-0.003 z m 0,1.904 518.646,0 c 3.737,0 6.727,3.021 6.727,6.757 l 0,202.131 0,0.953 c 0,3.736 -2.989,6.756 -6.727,6.756 l -518.646,0 c -3.732,0.01 -6.753,-3.019 -6.753,-6.753 l 0,-203.083 c 0,-3.736 3.02,-6.756 6.756,-6.756 l -0.003,-0.005 z" /><path
             style="fill:#f4f4f4"
             inkscape:connector-curvature="0"
             id="rect35"
             d="m 359.021,163.559 0,0.953 0,81.465 0,0.952 0.953,0 81.465,0 0.953,0 0,-0.952 0,-81.465 0,-0.953 -0.953,0 -81.465,0 -0.953,0 z m 1.906,1.905 79.561,0 0,79.56 -79.561,0 0,-79.56 z" /><path
             style="fill:#f4f4f4"
             inkscape:connector-curvature="0"
             id="rect37"
             d="m 448.248,163.559 0,0.953 0,81.465 0,0.952 0.953,0 81.436,0 0.952,0 0,-0.952 0,-81.465 0,-0.953 -0.952,0 -81.436,0 -0.953,0 z m 1.905,1.905 79.531,0 0,79.56 -79.531,0 0,-79.56 z" /><path
             style="fill:#f4f4f4"
             inkscape:connector-curvature="0"
             id="polyline39"
             d="m 83.934,94.177 0,2.292 0,159.061 0,2.322 1.607,-1.638 25.33,-25.299 -1.369,-1.369 -23.663,23.692 0,-154.45 23.663,23.658 1.369,-1.34 -25.33,-25.299 -1.607,-1.637 0,0.007 z" /><path
             style="fill:#f4f4f4"
             inkscape:connector-curvature="0"
             id="polyline41"
             d="m 222.305,232.551 -1.37,1.339 23.693,23.692 -154.452,0 23.574,-23.573 -1.369,-1.339 -25.181,25.182 -1.637,1.637 2.292,0 159.062,0 2.292,0 -1.607,-1.637 -25.299,-25.3 0.002,-0.001 z" /><path
             style="fill:#f4f4f4"
             inkscape:connector-curvature="0"
             id="polyline43"
             d="m 250.878,94.177 -1.637,1.637 -25.211,25.182 1.369,1.369 23.574,-23.603 0,154.509 -23.633,-23.663 -1.339,1.34 25.24,25.27 1.637,1.638 0,-2.322 0,-159.063 0,-2.292 0,-0.002 z" /><path
             style="fill:#f4f4f4"
             inkscape:connector-curvature="0"
             id="polyline45"
             d="m 85.57,92.54 1.638,1.608 25.21,25.24 1.339,-1.34 -23.572,-23.602 154.452,0 -23.669,23.662 1.333,1.339 25.307,-25.3 1.607,-1.607 -2.292,0 -159.062,0 -2.291,0 0,0 z" /><path
             style="fill:#f4f4f4"
             inkscape:connector-curvature="0"
             id="line47"
             d="m 58.961,69.533 0,218.057 1.905,0 0,-218.057 -1.905,0 z" /><path
             style="fill:#f4f4f4"
             inkscape:connector-curvature="0"
             id="rect49"
             d="m 359.021,145.819 0,0.953 0,13.244 0,0.953 0.953,0 81.465,0 0.953,0 0,-0.953 0,-13.244 0,-0.953 -0.953,0 -81.465,0 -0.953,0 z m 1.906,1.905 79.561,0 0,11.339 -79.561,0 0,-11.339 z" /><path
             style="fill:#f4f4f4"
             inkscape:connector-curvature="0"
             id="rect51"
             d="m 448.248,145.819 0,0.953 0,13.244 0,0.953 0.953,0 81.436,0 0.952,0 0,-0.953 0,-13.244 0,-0.953 -0.952,0 -81.436,0 -0.953,0 z m 1.905,1.905 79.531,0 0,11.339 -79.531,0 0,-11.339 z" /><path
             style="fill:#f4f4f4"
             inkscape:connector-curvature="0"
             id="path53"
             d="m 276.804,73.134 c -0.987,0 -1.815,0.828 -1.815,1.816 l 0,53.01 c 0,0.988 0.829,1.815 1.815,1.815 l 282.855,0 c 0.985,0 1.785,-0.831 1.785,-1.815 l 0,-50.033 c 0,-2.641 -2.152,-4.792 -4.792,-4.792 l -279.844,0 -0.004,0 z m 0.09,1.906 279.756,0 c 1.613,0 2.888,1.275 2.888,2.887 l 0,49.945 -282.643,0 0,-52.832 -10e-4,0 z" /><path
             style="fill:#f4f4f4"
             inkscape:connector-curvature="0"
             id="path55"
             d="m 276.804,260.41 c -0.987,0 -1.815,0.829 -1.815,1.815 l 0,20.091 c 0,0.987 0.829,1.816 1.815,1.816 l 279.844,0 c 2.64,0 4.792,-2.183 4.792,-4.822 l 0,-17.085 c 0,-0.985 -0.8,-1.815 -1.785,-1.815 l -282.855,0 0.004,0 z m 0.09,1.905 282.645,0 0,16.995 c 0,1.611 -1.276,2.917 -2.888,2.917 l -279.758,0 0.001,-19.912 0,0 z" /><path
             style="fill:#f4f4f4"
             inkscape:connector-curvature="0"
             id="line57"
             d="m 274.461,129.271 -6.28,6.28 1.369,1.339 6.251,-6.25 -1.34,-1.369 z" /><path
             style="fill:#f4f4f4"
             inkscape:connector-curvature="0"
             id="line59"
             d="m 269.546,253.866 -1.369,1.34 6.281,6.28 1.339,-1.369 -6.251,-6.251 z" /></g></g></g></g><g
     inkscape:groupmode="layer"
     id="layer4"
     inkscape:label="Controller"
     style="display:inline"><g
       id="g5578"
       transform="matrix(0.57503971,-0.39714814,-0.37446359,0.83366104,172.75962,172.20817)"><path
         d="m 145.241,66.026 c -1.594,-0.039 -3.974,0.002 -8.311,0.079 -8.635,0.151 -51.506,0.314 -52.49,0.314 -0.692,0 -1.526,0.268 -2.229,0.97 -0.703,0.702 -1.338,1.785 -2.045,3.513 -0.23,0.562 -0.615,1.825 -1.206,3.933 -0.591,2.108 -1.373,4.966 -2.255,8.441 -1.762,6.952 -3.978,16.347 -6.158,26.928 -4.362,21.162 -8.548,47.105 -8.548,67.988 l 0,5.217 c 0,20.885 4.186,46.826 8.548,67.986 2.181,10.582 4.396,19.949 6.161,26.9 0.883,3.477 1.664,6.361 2.255,8.469 0.591,2.108 0.977,3.371 1.206,3.934 0.707,1.727 1.343,2.811 2.045,3.514 0.702,0.703 1.535,0.969 2.229,0.969 0.986,0 43.854,0.164 52.49,0.316 4.337,0.074 6.717,0.09 8.312,0.051 1.595,-0.039 2.417,-0.158 3.435,-0.393 0.59,-0.137 2.312,-0.623 4.693,-1.311 2.382,-0.689 5.385,-1.555 8.311,-2.412 5.854,-1.719 11.458,-3.383 11.458,-3.383 l -0.472,-1.625 c 0,0 -5.606,1.664 -11.458,3.383 -2.925,0.857 -5.908,1.75 -8.285,2.438 -2.378,0.688 -4.216,1.191 -4.615,1.285 -0.961,0.221 -1.568,0.328 -3.094,0.367 -1.525,0.037 -3.922,-0.004 -8.259,-0.08 l -0.026,0 c -8.74,-0.158 -51.344,-0.326 -52.488,-0.326 -0.373,0 -0.61,-0.033 -1.049,-0.473 -0.439,-0.44 -1.015,-1.344 -1.678,-2.963 -0.113,-0.275 -0.541,-1.684 -1.127,-3.775 -0.586,-2.09 -1.375,-4.926 -2.255,-8.391 -1.759,-6.928 -3.96,-16.295 -6.135,-26.848 C 67.851,229.939 63.68,204.057 63.68,183.4 l 0,-5.217 c 0,-20.66 4.171,-46.542 8.521,-67.646 2.175,-10.552 4.376,-19.92 6.135,-26.848 0.879,-3.464 1.668,-6.326 2.255,-8.416 0.587,-2.09 1.015,-3.474 1.127,-3.75 0.663,-1.62 1.239,-2.524 1.678,-2.962 0.439,-0.439 0.676,-0.472 1.049,-0.472 1.145,0 43.749,-0.162 52.49,-0.314 l 0.026,0 c 4.338,-0.078 6.737,-0.118 8.264,-0.081 1.525,0.037 2.132,0.146 3.094,0.367 l 0.176,0.052 c 0.49,0.12 2.148,0.574 4.431,1.232 2.378,0.687 5.36,1.553 8.285,2.412 5.851,1.718 11.458,3.382 11.458,3.382 l 0.472,-1.6 c 0,0 -5.604,-1.664 -11.458,-3.382 -2.926,-0.859 -5.929,-1.725 -8.311,-2.413 -2.374,-0.688 -4.094,-1.174 -4.69,-1.311 -1.015,-0.234 -1.837,-0.38 -3.432,-0.419 l -0.009,0.012 z"
         id="path3-6"
         inkscape:connector-curvature="0"
         style="fill:#f4f4f4" /><path
         d="m 145.551,62.696 c -1.594,-0.039 -4,-0.023 -8.338,0.053 -8.618,0.15 -66.502,0.314 -67.488,0.314 -1.053,0 -2.155,0.191 -3.12,0.892 -0.965,0.7 -1.745,1.832 -2.438,3.592 -0.215,0.546 -0.599,1.816 -1.18,3.906 -0.581,2.091 -1.333,4.933 -2.203,8.39 -1.738,6.916 -3.93,16.292 -6.083,26.927 -4.299,21.27 -8.437,47.62 -8.437,69.745 l 0,8.573 c 0,22.118 4.138,48.474 8.442,69.743 2.152,10.635 4.344,19.986 6.083,26.9 0.869,3.457 1.622,6.326 2.202,8.416 0.58,2.09 0.965,3.359 1.18,3.906 0.693,1.76 1.473,2.893 2.438,3.592 0.964,0.701 2.067,0.893 3.12,0.893 0.985,0 58.87,0.137 67.488,0.287 4.337,0.076 6.743,0.117 8.338,0.08 1.594,-0.039 2.418,-0.16 3.435,-0.395 0.608,-0.141 2.416,-0.668 4.956,-1.416 2.539,-0.746 5.726,-1.709 8.861,-2.646 6.272,-1.879 12.296,-3.697 12.296,-3.697 l -0.478,-1.586 c 0,0 -6.027,1.82 -12.297,3.695 -3.134,0.939 -6.327,1.904 -8.861,2.648 -2.535,0.746 -4.469,1.275 -4.851,1.363 l 0,0.027 c -0.961,0.221 -1.595,0.303 -3.12,0.34 -1.525,0.039 -3.923,-0.002 -8.259,-0.078 -8.728,-0.152 -66.368,-0.289 -67.514,-0.289 -0.876,0 -1.516,-0.135 -2.124,-0.576 -0.607,-0.441 -1.236,-1.27 -1.861,-2.857 -0.115,-0.291 -0.551,-1.678 -1.128,-3.75 -0.576,-2.072 -1.336,-4.893 -2.202,-8.338 -1.732,-6.891 -3.91,-16.242 -6.057,-26.848 -4.294,-21.227 -8.417,-47.504 -8.417,-69.412 l 0,-8.574 c 0,-21.906 4.123,-48.219 8.416,-69.429 2.146,-10.606 4.325,-19.932 6.057,-26.822 0.867,-3.446 1.626,-6.291 2.203,-8.364 0.576,-2.073 1.013,-3.433 1.127,-3.723 0.625,-1.587 1.253,-2.417 1.862,-2.858 0.607,-0.441 1.248,-0.577 2.124,-0.577 1.145,0 58.785,-0.162 67.514,-0.314 4.336,-0.076 6.734,-0.09 8.259,-0.053 1.525,0.038 2.159,0.119 3.12,0.341 0.383,0.088 2.316,0.644 4.851,1.39 2.535,0.746 5.728,1.71 8.862,2.648 6.276,1.876 12.3,3.697 12.3,3.697 l 0.472,-1.626 c 0,0 -6.025,-1.819 -12.296,-3.697 -3.136,-0.938 -6.323,-1.875 -8.862,-2.622 -2.533,-0.748 -4.346,-1.275 -4.95,-1.416 -1.015,-0.234 -1.846,-0.354 -3.44,-0.393 l -0.002,-0.002 z"
         id="path5-6"
         inkscape:connector-curvature="0"
         style="fill:#f4f4f4" /><path
         d="m 173.507,286.87 -1.443,0.863 c 1.595,2.658 3.411,3.986 5.401,3.986 l 52.543,0 131.146,0 52.569,0 c 1.989,0 3.779,-1.328 5.375,-3.986 l -1.442,-0.865 c -1.452,2.408 -2.685,3.172 -3.936,3.172 l -52.572,0 -131.146,0 -52.542,0 c -1.257,0 -2.512,-0.762 -3.959,-3.174 l 0.006,0.004 z"
         id="path7-5"
         inkscape:connector-curvature="0"
         style="fill:#f4f4f4" /><path
         d="m 445.916,66.026 c -1.595,0.039 -2.418,0.185 -3.435,0.419 -0.591,0.136 -2.311,0.623 -4.693,1.311 -2.382,0.688 -5.358,1.553 -8.285,2.412 -5.854,1.718 -11.458,3.382 -11.458,3.382 l 0.473,1.599 c 0,0 5.607,-1.665 11.457,-3.382 2.926,-0.859 5.908,-1.726 8.285,-2.412 2.378,-0.687 4.19,-1.193 4.589,-1.285 0.961,-0.222 1.595,-0.33 3.12,-0.367 1.525,-0.037 3.923,0.003 8.259,0.079 8.713,0.152 51.372,0.314 52.517,0.314 0.373,0 0.584,0.033 1.022,0.472 0.439,0.439 1.042,1.343 1.704,2.963 0.113,0.275 0.542,1.659 1.128,3.75 0.587,2.09 1.35,4.952 2.229,8.416 1.759,6.929 3.987,16.296 6.161,26.849 4.351,21.104 8.521,46.986 8.521,67.645 l 0,5.218 c 0,20.657 -4.172,46.542 -8.521,67.646 -2.174,10.551 -4.402,19.92 -6.161,26.848 -0.879,3.465 -1.642,6.299 -2.229,8.391 -0.586,2.09 -1.015,3.5 -1.128,3.775 -0.662,1.619 -1.265,2.523 -1.704,2.963 -0.438,0.439 -0.648,0.471 -1.022,0.471 -1.145,0 -43.804,0.164 -52.517,0.316 -4.336,0.074 -6.733,0.113 -8.259,0.078 -1.525,-0.037 -2.159,-0.146 -3.12,-0.367 -0.399,-0.092 -2.211,-0.598 -4.589,-1.285 -2.377,-0.686 -5.359,-1.58 -8.285,-2.438 -5.851,-1.719 -11.457,-3.383 -11.457,-3.383 l -0.473,1.625 c 0,0 5.604,1.664 11.458,3.383 2.927,0.859 5.903,1.725 8.285,2.412 2.382,0.687 4.104,1.174 4.693,1.311 1.017,0.234 1.84,0.354 3.435,0.395 1.595,0.037 4,0.021 8.338,-0.053 8.635,-0.152 51.504,-0.314 52.49,-0.314 0.692,0 1.525,-0.27 2.229,-0.971 0.702,-0.703 1.338,-1.787 2.045,-3.514 0.229,-0.563 0.615,-1.826 1.206,-3.934 0.591,-2.108 1.347,-4.992 2.229,-8.469 1.764,-6.951 3.979,-16.32 6.161,-26.9 4.361,-21.16 8.573,-47.102 8.573,-67.985 l 0,-5.218 c 0,-20.883 -4.212,-46.824 -8.573,-67.985 -2.183,-10.575 -4.405,-19.969 -6.167,-26.921 -0.881,-3.475 -1.637,-6.335 -2.224,-8.442 -0.596,-2.107 -0.981,-3.371 -1.208,-3.933 -0.713,-1.728 -1.342,-2.811 -2.048,-3.513 -0.702,-0.703 -1.536,-0.97 -2.229,-0.97 -0.984,0 -43.854,-0.164 -52.489,-0.315 -4.338,-0.076 -6.746,-0.117 -8.341,-0.079 l 0.008,-0.008 z"
         id="path9-7"
         inkscape:connector-curvature="0"
         style="fill:#f4f4f4" /><path
         d="m 445.631,62.696 c -1.594,0.039 -2.444,0.159 -3.461,0.394 -0.606,0.14 -2.416,0.668 -4.955,1.416 -2.539,0.747 -5.726,1.683 -8.862,2.622 -6.275,1.877 -12.299,3.697 -12.299,3.697 l 0.498,1.626 c 0,0 6.001,-1.821 12.271,-3.697 3.135,-0.938 6.327,-1.902 8.861,-2.648 2.535,-0.746 4.494,-1.301 4.877,-1.39 0.961,-0.222 1.568,-0.304 3.094,-0.341 1.526,-0.037 3.922,-0.023 8.259,0.052 8.729,0.154 66.396,0.315 67.54,0.315 0.877,0 1.517,0.135 2.124,0.577 0.607,0.442 1.235,1.27 1.861,2.858 0.114,0.291 0.525,1.65 1.101,3.723 0.576,2.073 1.337,4.918 2.203,8.364 1.732,6.892 3.936,16.216 6.083,26.822 4.293,21.211 8.416,47.52 8.416,69.428 l 0,8.574 c 0,21.908 -4.123,48.191 -8.416,69.402 -2.147,10.604 -4.351,19.957 -6.083,26.848 -0.866,3.445 -1.627,6.264 -2.203,8.338 -0.575,2.072 -0.986,3.459 -1.101,3.75 -0.625,1.586 -1.254,2.416 -1.861,2.857 -0.607,0.441 -1.247,0.576 -2.124,0.576 -1.146,0 -58.811,0.135 -67.54,0.289 -4.337,0.076 -6.734,0.115 -8.259,0.078 -1.525,-0.037 -2.133,-0.119 -3.094,-0.34 l 0,-0.027 c -0.382,-0.088 -2.342,-0.617 -4.877,-1.363 -2.534,-0.746 -5.728,-1.709 -8.861,-2.648 -6.27,-1.875 -12.271,-3.695 -12.271,-3.695 l -0.498,1.598 c 0,0 6.024,1.82 12.296,3.697 3.137,0.939 6.322,1.9 8.861,2.648 2.54,0.746 4.348,1.275 4.956,1.416 1.017,0.234 1.866,0.354 3.461,0.393 1.595,0.039 3.973,-0.002 8.312,-0.078 8.617,-0.152 66.528,-0.289 67.514,-0.289 1.053,0 2.129,-0.189 3.094,-0.891 0.965,-0.702 1.745,-1.832 2.438,-3.592 0.216,-0.547 0.599,-1.816 1.18,-3.906 0.581,-2.092 1.333,-4.961 2.202,-8.418 1.739,-6.914 3.931,-16.266 6.083,-26.898 4.305,-21.271 8.469,-47.625 8.469,-69.743 l 0,-8.573 c 0,-22.12 -4.164,-48.474 -8.469,-69.743 -2.152,-10.636 -4.344,-20.012 -6.083,-26.927 -0.869,-3.458 -1.621,-6.3 -2.202,-8.39 -0.581,-2.09 -0.964,-3.36 -1.18,-3.907 -0.694,-1.76 -1.474,-2.892 -2.438,-3.592 -0.964,-0.7 -2.041,-0.892 -3.094,-0.892 -0.986,0 -58.896,-0.163 -67.514,-0.314 -4.346,-0.086 -6.729,-0.102 -8.323,-0.063 l 0.014,0.007 z"
         id="path11-8"
         inkscape:connector-curvature="0"
         style="fill:#f4f4f4" /><path
         d="m 176.15,72.187 c -0.829,0 -1.673,0.022 -2.491,0.472 -0.817,0.451 -1.511,1.242 -2.307,2.569 l 0,0.053 -0.026,0.026 c -13.206,26.729 -19.448,72.691 -19.448,103.643 l 0,3.697 c 0,30.953 6.245,76.918 19.455,103.643 l 0.026,0.025 0,0.027 c 0.796,1.326 1.49,2.119 2.308,2.568 0.817,0.451 1.662,0.473 2.491,0.473 l 52.542,0 133.797,0 52.543,0 c 0.83,0 1.646,-0.021 2.465,-0.473 0.816,-0.449 1.51,-1.242 2.307,-2.568 l 0.026,-0.027 0,-0.025 c 13.197,-26.723 19.474,-72.691 19.474,-103.643 l 0,-3.697 c 0,-30.955 -6.272,-76.917 -19.48,-103.643 l 0,-0.026 -0.026,-0.053 c -0.797,-1.327 -1.49,-2.119 -2.308,-2.569 -0.817,-0.45 -1.635,-0.472 -2.465,-0.472 l -52.542,0 -133.799,0 -52.542,0 0,0 z m 0,1.678 52.543,0 133.796,0 52.543,0 c 0.795,0 1.226,0.028 1.652,0.262 0.416,0.229 0.95,0.761 1.651,1.914 0.016,0.026 0.01,0.026 0.026,0.052 12.945,26.235 19.271,72.151 19.271,102.854 l 0,3.696 c 0,30.698 -6.333,76.593 -19.271,102.829 -0.726,1.209 -1.253,1.732 -1.678,1.967 -0.426,0.234 -0.857,0.262 -1.652,0.262 l -52.543,0 -133.795,0 -52.543,0 c -0.793,0 -1.252,-0.027 -1.678,-0.262 -0.41,-0.227 -0.941,-0.77 -1.625,-1.889 -0.005,-0.01 -0.021,-0.016 -0.026,-0.025 -12.954,-26.227 -19.272,-72.162 -19.272,-102.879 l 0,-3.697 c 0,-30.725 6.334,-76.682 19.297,-102.913 0.693,-1.137 1.212,-1.687 1.625,-1.914 0.425,-0.234 0.884,-0.262 1.678,-0.262 l 0.001,0.005 z"
         id="path13"
         inkscape:connector-curvature="0"
         style="fill:#f4f4f4" /><path
         d="m 177.467,69.854 c -1.991,0 -3.807,1.352 -5.401,4.011 l 1.442,0.865 c 1.448,-2.413 2.703,-3.199 3.959,-3.199 l 52.542,0 131.146,0 52.568,0 c 1.255,0 2.485,0.786 3.933,3.199 l 1.443,-0.864 c -1.603,-2.66 -3.39,-4.012 -5.378,-4.012 l -52.569,0 -131.144,0 -52.543,0 0.002,0 z"
         id="path15"
         inkscape:connector-curvature="0"
         style="fill:#f4f4f4" /><g
         id="g17"><path
           d="m 453.166,177.22 c -0.043,-14.803 -1.193,-29.6 -3.442,-44.23 -0.111,-0.727 0.445,-1.419 1.247,-1.547 0.804,-0.127 1.548,0.366 1.66,1.099 2.28,14.808 3.438,29.789 3.476,44.771 10e-4,0.558 10e-4,0.836 0,1.393 -0.037,14.982 -1.194,29.961 -3.476,44.768 -0.113,0.736 -0.856,1.227 -1.66,1.1 -0.802,-0.127 -1.358,-0.816 -1.247,-1.543 2.248,-14.633 3.399,-29.428 3.442,-44.23 l 0,-1.578 0,-0.003 z"
           id="path19"
           inkscape:connector-curvature="0"
           style="fill:#f4f4f4" /></g><g
         id="g21"><path
           d="m 459.777,177.294 c -0.044,-15.282 -1.23,-30.562 -3.555,-45.667 -0.115,-0.75 0.462,-1.465 1.29,-1.595 0.829,-0.131 1.597,0.375 1.714,1.133 2.354,15.288 3.552,30.759 3.588,46.227 0.002,0.576 0.002,0.862 0,1.437 -0.036,15.471 -1.234,30.939 -3.588,46.229 -0.117,0.758 -0.885,1.266 -1.714,1.133 -0.828,-0.131 -1.404,-0.844 -1.288,-1.596 2.32,-15.104 3.51,-30.385 3.553,-45.666 0.008,-0.654 0.008,-0.982 0.008,-1.637 l -0.008,0.002 z"
           id="path23"
           inkscape:connector-curvature="0"
           style="fill:#f4f4f4" /></g><g
         id="g25"><path
           d="m 144.998,177.22 c 0.037,-14.802 1.191,-29.6 3.441,-44.23 0.111,-0.727 -0.446,-1.419 -1.249,-1.546 -0.802,-0.126 -1.547,0.365 -1.661,1.098 -2.278,14.806 -3.441,29.79 -3.475,44.771 -0.001,0.558 -0.001,0.836 0,1.393 0.035,14.982 1.194,29.961 3.475,44.768 0.114,0.736 0.857,1.229 1.661,1.102 0.803,-0.125 1.36,-0.818 1.249,-1.545 -2.25,-14.631 -3.404,-29.43 -3.441,-44.23 l 0,-1.578 0,-0.003 z"
           id="path27"
           inkscape:connector-curvature="0"
           style="fill:#f4f4f4" /></g><g
         id="g29"><path
           d="m 138.386,177.294 c 0.043,-15.282 1.232,-30.56 3.552,-45.667 0.115,-0.75 -0.459,-1.464 -1.288,-1.595 -0.829,-0.131 -1.598,0.375 -1.714,1.133 -2.35,15.29 -3.554,30.758 -3.586,46.227 -0.001,0.576 -0.001,0.862 0,1.437 0.035,15.471 1.236,30.939 3.586,46.229 0.117,0.758 0.885,1.266 1.714,1.133 0.829,-0.133 1.403,-0.844 1.288,-1.596 -2.322,-15.105 -3.51,-30.385 -3.552,-45.666 -0.017,-0.654 -0.017,-0.982 -0.008,-1.637 l 0.008,0.002 z"
           id="path31"
           inkscape:connector-curvature="0"
           style="fill:#f4f4f4" /></g><g
         id="g33"><path
           d="m 467.538,177.664 c -0.047,-15.872 -1.4,-31.745 -4.057,-47.394 -0.132,-0.776 0.452,-1.529 1.31,-1.679 0.856,-0.149 1.666,0.367 1.799,1.152 2.685,15.858 4.05,31.935 4.103,48.021 0.002,0.599 0.002,0.897 0,1.496 -0.053,16.087 -1.418,32.161 -4.103,48.021 -0.133,0.787 -0.942,1.303 -1.799,1.152 -0.857,-0.148 -1.443,-0.902 -1.312,-1.68 2.656,-15.643 4.011,-31.521 4.059,-47.393 0,-0.672 0,-1.015 -0.009,-1.693 l 0.009,-0.003 z"
           id="path35"
           inkscape:connector-curvature="0"
           style="fill:#f4f4f4" /></g><g
         id="g37"><path
           d="m 476.33,177.53 c -0.043,-16.548 -1.467,-33.093 -4.229,-49.409 -0.138,-0.81 0.473,-1.593 1.366,-1.749 0.896,-0.157 1.735,0.382 1.873,1.2 2.801,16.531 4.235,33.295 4.275,50.063 0.002,0.622 0.002,0.934 0,1.559 -0.04,16.766 -1.476,33.529 -4.274,50.061 -0.139,0.822 -0.979,1.357 -1.874,1.201 -0.894,-0.156 -1.505,-0.938 -1.367,-1.752 2.765,-16.313 4.187,-32.859 4.229,-49.406 -0.008,-0.705 -0.008,-1.057 -0.008,-1.763 l 0.009,-0.005 z"
           id="path39"
           inkscape:connector-curvature="0"
           style="fill:#f4f4f4" /></g><g
         id="g41"><path
           d="m 487.565,177.697 c -0.055,-17.239 -1.667,-34.47 -4.804,-51.422 -0.156,-0.843 0.464,-1.667 1.393,-1.845 0.928,-0.177 1.811,0.37 1.969,1.223 3.187,17.186 4.811,34.67 4.863,52.154 0.002,0.648 0.002,0.975 0,1.625 -0.053,17.482 -1.673,34.961 -4.863,52.152 -0.157,0.852 -1.041,1.4 -1.969,1.223 -0.93,-0.176 -1.548,-1.002 -1.393,-1.846 3.137,-16.949 4.748,-34.184 4.804,-51.422 0.008,-0.738 0.008,-1.107 0,-1.846 l 0,0.004 z"
           id="path43"
           inkscape:connector-curvature="0"
           style="fill:#f4f4f4" /></g><g
         id="g45"><path
           d="m 500.259,177.538 c -0.053,-18.236 -1.766,-36.464 -5.081,-54.396 -0.165,-0.891 0.492,-1.765 1.474,-1.951 0.98,-0.187 1.917,0.391 2.084,1.293 3.364,18.185 5.091,36.674 5.143,55.169 0.002,0.688 0.002,1.032 0,1.719 -0.052,18.494 -1.777,36.98 -5.144,55.168 -0.167,0.902 -1.103,1.482 -2.083,1.295 -0.981,-0.189 -1.639,-1.061 -1.474,-1.953 3.32,-17.93 5.027,-36.162 5.081,-54.395 0.009,-0.771 0.009,-1.167 0,-1.947 l 0,-0.002 z"
           id="path47"
           inkscape:connector-curvature="0"
           style="fill:#f4f4f4" /></g><g
         id="g49"><path
           d="m 514.287,177.128 c -0.063,-19.234 -1.859,-38.458 -5.358,-57.371 -0.174,-0.941 0.435,-1.844 1.365,-2.021 0.932,-0.177 1.833,0.447 2.01,1.397 3.546,19.156 5.36,38.634 5.417,58.12 10e-4,0.724 10e-4,1.085 0,1.808 -0.057,19.482 -1.865,38.963 -5.419,58.117 -0.176,0.951 -1.075,1.578 -2.008,1.4 -0.931,-0.18 -1.539,-1.084 -1.365,-2.023 3.501,-18.912 5.295,-38.137 5.358,-57.371 -0.008,-0.839 -0.008,-1.25 -0.008,-2.063 l 0.008,0.007 z"
           id="path51"
           inkscape:connector-curvature="0"
           style="fill:#f4f4f4" /></g><path
         d="m 465.087,80.787 c -0.495,-0.093 -1.024,-0.089 -1.547,0.026 l -26.454,5.847 c -2.084,0.458 -3.396,2.529 -2.937,4.615 l 0,0.052 0.026,0.052 8.338,24.122 0.026,0.105 0.025,0 c 0.51,2.017 2.543,3.31 4.589,2.858 l 26.454,-5.847 c 2.085,-0.459 3.397,-2.53 2.937,-4.615 l 0,-0.052 -0.026,-0.053 -8.338,-24.122 c -0.005,-0.028 -0.019,-0.051 -0.026,-0.079 -0.37,-1.519 -1.606,-2.636 -3.067,-2.909 l 0,0 z m -1.179,1.678 c 1.198,-0.265 2.357,0.479 2.622,1.678 l 0.025,0.053 0,0.052 8.364,24.122 c 0.265,1.198 -0.479,2.357 -1.678,2.622 l -26.455,5.821 c -1.199,0.265 -2.358,-0.479 -2.622,-1.678 l -0.026,-0.026 0,-0.053 -8.363,-24.121 c -0.002,-0.009 0.001,-0.018 0,-0.026 -0.248,-1.19 0.49,-2.36 1.678,-2.622 l 26.455,-5.822 z"
         id="path53-2"
         inkscape:connector-curvature="0"
         style="fill:#f4f4f4" /><path
         d="m 455.33,86.162 c -7.43,0 -13.45,6.046 -13.45,13.476 0,7.429 6.021,13.476 13.45,13.476 7.429,0 13.477,-6.047 13.477,-13.476 0,-7.43 -6.041,-13.476 -13.475,-13.476 l -0.002,0 z m 0,1.678 c 6.522,0 11.798,5.276 11.798,11.798 0,6.522 -5.275,11.798 -11.798,11.798 -6.523,0 -11.771,-5.276 -11.771,-11.798 0,-6.523 5.249,-11.798 11.771,-11.798 z"
         id="circle55"
         inkscape:connector-curvature="0"
         style="fill:#f4f4f4" /><path
         d="m 501.45,72.974 c -0.495,-0.093 -1.025,-0.089 -1.547,0.026 l -26.454,5.821 c -2.083,0.459 -3.396,2.529 -2.937,4.614 l 0,0.053 0.026,0.052 8.338,24.122 0.026,0.105 0.026,0 c 0.509,2.017 2.543,3.308 4.588,2.858 l 26.455,-5.821 c 2.082,-0.459 3.394,-2.556 2.937,-4.641 l 0,-0.053 -0.026,-0.026 -8.338,-24.147 c -0.006,-0.028 -0.02,-0.051 -0.026,-0.079 -0.37,-1.52 -1.607,-2.61 -3.068,-2.884 l 0,0 z m -1.182,1.651 c 1.199,-0.264 2.357,0.479 2.621,1.678 l 0.026,0.052 0,0.053 8.364,24.121 c 0.263,1.199 -0.48,2.358 -1.678,2.622 l -26.455,5.821 c -1.197,0.264 -2.357,-0.479 -2.622,-1.678 l -0.026,-0.026 0,-0.052 -8.363,-24.122 c -0.002,-0.009 0.001,-0.017 0,-0.026 -0.248,-1.189 0.489,-2.36 1.678,-2.622 l 26.462,-5.819 -0.007,-0.002 z"
         id="path57"
         inkscape:connector-curvature="0"
         style="fill:#f4f4f4" /><path
         d="m 491.726,78.349 c -7.428,0 -13.476,6.021 -13.476,13.45 0,7.429 6.048,13.476 13.476,13.476 7.43,0 13.45,-6.048 13.45,-13.476 0,-7.429 -6.022,-13.45 -13.45,-13.45 z m 0,1.678 c 6.522,0 11.772,5.25 11.772,11.772 0,6.522 -5.25,11.798 -11.772,11.798 -6.521,0 -11.798,-5.276 -11.798,-11.798 0,-6.522 5.276,-11.772 11.798,-11.772 z"
         id="circle59"
         inkscape:connector-curvature="0"
         style="fill:#f4f4f4" /><path
         d="m 481.969,248.796 c -1.449,0.271 -2.661,1.381 -3.041,2.883 l -0.026,0 -0.026,0.105 -8.338,24.121 -0.025,0.027 0,0.051 c -0.461,2.086 0.853,4.184 2.936,4.643 l 26.455,5.82 c 2.045,0.451 4.078,-0.842 4.589,-2.859 l 0.025,0 0.026,-0.104 8.337,-24.121 0.026,-0.053 0,-0.027 c 0.458,-2.084 -0.853,-4.182 -2.937,-4.641 l -26.454,-5.82 c -0.521,-0.115 -1.052,-0.119 -1.547,-0.025 l 0,0 z m 1.179,1.65 26.454,5.848 c 1.188,0.262 1.925,1.406 1.679,2.596 -0.002,0.01 10e-4,0.018 0,0.025 l -8.364,24.123 0,0.051 -0.026,0.053 c -0.264,1.199 -1.423,1.943 -2.622,1.678 l -26.454,-5.846 c -1.188,-0.262 -1.925,-1.406 -1.679,-2.596 0.003,-0.01 -0.001,-0.018 0,-0.027 l 8.365,-24.121 0.025,-0.053 0,-0.051 c 0.265,-1.201 1.425,-1.943 2.622,-1.68 z"
         id="path61"
         inkscape:connector-curvature="0"
         style="fill:#f4f4f4" /><path
         d="m 491.726,254.173 c -7.428,0 -13.476,6.021 -13.476,13.451 0,7.428 6.048,13.475 13.476,13.475 7.43,0 13.45,-6.047 13.45,-13.475 0,-7.43 -6.022,-13.451 -13.45,-13.451 z m 0,1.678 c 6.522,0 11.772,5.252 11.772,11.773 0,6.521 -5.25,11.797 -11.772,11.797 -6.521,0 -11.798,-5.275 -11.798,-11.797 0,-6.522 5.276,-11.773 11.798,-11.773 z"
         id="circle63"
         inkscape:connector-curvature="0"
         style="fill:#f4f4f4" /><path
         d="m 445.605,240.96 c -1.449,0.27 -2.661,1.381 -3.041,2.883 l -0.026,0 -0.026,0.105 -8.338,24.121 -0.025,0.053 0,0.025 c -0.46,2.086 0.853,4.184 2.937,4.641 l 26.454,5.822 c 2.057,0.451 4.119,-0.824 4.615,-2.859 0.006,-0.027 0.021,-0.051 0.025,-0.078 l 8.338,-24.148 0.026,-0.025 0,-0.053 c 0.461,-2.084 -0.852,-4.182 -2.937,-4.641 l -26.455,-5.82 c -0.52,-0.116 -1.05,-0.12 -1.547,-0.026 l 0,0 z m 1.18,1.65 26.455,5.848 c 1.189,0.262 1.926,1.408 1.678,2.596 -0.001,0.008 0.002,0.018 0,0.025 l -8.363,24.121 0,0.053 -0.026,0.053 c -0.264,1.197 -1.423,1.941 -2.622,1.678 l -26.454,-5.84 c -1.19,-0.262 -1.925,-1.406 -1.678,-2.596 0.001,-0.008 -0.002,-0.016 0,-0.025 l 8.364,-24.121 0,-0.053 0.025,-0.053 c 0.264,-1.199 1.424,-1.941 2.622,-1.678 l -10e-4,-0.008 z"
         id="path65"
         inkscape:connector-curvature="0"
         style="fill:#f4f4f4" /><path
         d="m 455.33,246.337 c -7.43,0 -13.45,6.047 -13.45,13.477 0,7.43 6.021,13.449 13.45,13.449 7.429,0 13.477,-6.021 13.477,-13.449 0,-7.43 -6.048,-13.477 -13.477,-13.477 z m 0,1.678 c 6.522,0 11.798,5.275 11.798,11.799 0,6.521 -5.275,11.771 -11.798,11.771 -6.523,0 -11.771,-5.25 -11.771,-11.771 0,-6.524 5.249,-11.799 11.771,-11.799 z"
         id="circle67"
         inkscape:connector-curvature="0"
         style="fill:#f4f4f4" /><path
         d="m 89.236,143.163 c -2.273,0 -4.143,1.869 -4.143,4.143 l 0,9.622 c 0,2.3 -1.816,4.326 -4.3,4.326 l -9.623,0 c -2.274,0 -4.143,1.842 -4.143,4.117 l 0,20.398 c 0,2.273 1.869,4.143 4.143,4.143 l 9.623,0 c 1.055,0 2.13,0.344 2.937,1.049 0.807,0.703 1.363,1.748 1.363,3.277 l 0,9.596 c 0,2.275 1.869,4.143 4.143,4.143 l 20.398,0 c 2.274,0 4.143,-1.867 4.143,-4.143 l 0,-9.596 c 0,-1.563 0.435,-2.598 1.154,-3.277 0.719,-0.681 1.767,-1.049 3.146,-1.049 l 9.622,0 c 2.274,0 4.143,-1.869 4.143,-4.143 l 0,-20.399 c 0,-2.291 -1.868,-4.128 -4.143,-4.128 l -9.623,0 c -1.688,0 -2.689,-0.439 -3.33,-1.127 -0.64,-0.688 -0.97,-1.738 -0.97,-3.199 l 0,-9.623 c 0,-2.274 -1.869,-4.143 -4.143,-4.143 l -20.397,0 0,0.013 z m 0,1.677 20.398,0 c 1.367,0 2.465,1.098 2.465,2.465 l 0,9.622 c 0,1.722 0.395,3.23 1.416,4.326 1.021,1.097 2.573,1.678 4.563,1.678 l 9.622,0 c 1.368,0 2.465,1.07 2.465,2.438 l 0,20.398 c 0,1.366 -1.097,2.464 -2.465,2.464 l -9.622,0 c -1.689,0 -3.206,0.459 -4.3,1.495 -1.095,1.035 -1.678,2.609 -1.678,4.51 l 0,9.596 c 0,1.367 -1.098,2.465 -2.465,2.465 l -20.399,0 c -1.367,0 -2.464,-1.098 -2.464,-2.465 l 0,-9.596 c 0,-1.959 -0.762,-3.531 -1.914,-4.537 -1.152,-1.004 -2.633,-1.468 -4.064,-1.468 l -9.623,0 c -1.367,0 -2.464,-1.098 -2.464,-2.464 l 0,-20.397 c 0,-1.369 1.098,-2.438 2.464,-2.438 l 9.623,0 c 3.4,0 5.978,-2.802 5.978,-6.004 l 0,-9.622 c -0.001,-1.368 1.097,-2.466 2.464,-2.466 z"
         id="path69"
         inkscape:connector-curvature="0"
         style="fill:#f4f4f4" /><g
         id="g71"><path
           id="path5562"
           d="m 214.576,253.787 0,-0.84 0,-0.84 171.275,0 c 6.782,0.034 13.987,-5.523 15.46,-12.22 l 0,0 c 4.438,-21.566 6.657,-42.906 6.657,-64.246 l 0,0 c 0,-21.331 -2.219,-42.662 -6.653,-64.204 l 0,0 c -1.477,-6.711 -8.682,-12.266 -15.464,-12.232 l 0,0 c -38.064,0 -76.124,0 -114.184,0 l 0,0 c -19.031,0 -38.06,0 -57.091,0 l 0,0 c -6.784,-0.034 -13.985,5.521 -15.458,12.218 l 0,0 c -4.442,21.552 -6.663,42.885 -6.663,64.218 l 0,0 c 0,21.342 2.219,42.684 6.661,64.231 l 0,0 c 1.477,6.711 8.678,12.269 15.46,12.234 l 0,0 0,0.84 0,0.841 c -7.649,-0.033 -15.352,-5.961 -17.1,-13.56 l 0,0 c -4.467,-21.669 -6.699,-43.129 -6.699,-64.586 l 0,0 c 0,-21.45 2.233,-42.899 6.701,-64.573 l 0,0 c 1.746,-7.584 9.449,-13.509 17.098,-13.543 l 0,0 c 19.031,0.002 38.06,0 57.091,0 l 0,0 c 38.06,0 76.12,0 114.184,0 l 0,0 c 7.648,0.034 15.355,5.959 17.104,13.558 l 0,0 c 4.459,21.663 6.692,43.111 6.692,64.558 l 0,0 c 0,21.457 -2.231,42.911 -6.694,64.599 l 0,0 c -1.746,7.586 -9.453,13.514 -17.102,13.547 l 0,0 -171.275,0 0,0 z"
           inkscape:connector-curvature="0"
           style="fill:#f4f4f4" /></g><path
         d="m 219.359,122.475 c -1.742,0 -3.172,1.431 -3.172,3.172 l 0,101.025 c 0,1.742 1.431,3.172 3.172,3.172 l 159.671,0 c 1.743,0 3.173,-1.432 3.173,-3.172 l 0,-101.025 c 0,-1.741 -1.43,-3.172 -3.173,-3.172 l -159.671,0 z m 0,1.678 159.671,0 c 0.836,0 1.495,0.66 1.495,1.495 l 0,101.025 c 0,0.834 -0.659,1.494 -1.495,1.494 l -159.671,0 c -0.833,0 -1.495,-0.66 -1.495,-1.494 l 0,-101.026 c 0,-0.833 0.661,-1.494 1.495,-1.494 z"
         id="path75"
         inkscape:connector-curvature="0"
         style="fill:#f4f4f4" /><path
         d="m 189.834,82.491 c -1.574,0 -2.858,1.284 -2.858,2.858 0,1.574 1.284,2.884 2.858,2.884 1.574,0 2.858,-1.311 2.858,-2.884 0,-1.573 -1.284,-2.858 -2.858,-2.858 z m 0,1.678 c 0.667,0 1.18,0.513 1.18,1.18 0,0.667 -0.513,1.206 -1.18,1.206 -0.667,0 -1.18,-0.539 -1.18,-1.206 0,-0.667 0.513,-1.18 1.18,-1.18 z"
         id="circle77"
         inkscape:connector-curvature="0"
         style="fill:#f4f4f4" /><path
         d="m 99.435,144.998 c -7.008,0 -12.716,5.682 -12.716,12.69 0,2.105 -0.458,3.327 -1.258,4.064 -0.8,0.737 -2.107,1.127 -4.09,1.127 -7.008,0 -12.69,5.681 -12.69,12.69 0,7.008 5.682,12.716 12.69,12.716 3.348,0 5.349,2.362 5.349,5.532 0,7.008 5.708,12.689 12.716,12.689 7.009,0 12.716,-5.682 12.716,-12.689 0,-2.031 0.51,-3.367 1.389,-4.221 0.88,-0.855 2.22,-1.312 4.064,-1.312 7.008,0 12.69,-5.708 12.69,-12.716 0,-7.009 -5.683,-12.69 -12.69,-12.69 -1.854,0 -3.221,-0.274 -4.064,-0.944 -0.843,-0.67 -1.389,-1.846 -1.389,-4.248 -0.001,-7.007 -5.709,-12.688 -12.717,-12.688 l 0,0 z m 0,1.677 c 6.101,0 11.039,4.911 11.039,11.012 0,2.671 0.677,4.491 2.018,5.559 1.342,1.067 3.124,1.311 5.113,1.311 6.101,0 11.012,4.911 11.012,11.012 0,6.102 -4.911,11.038 -11.012,11.038 -2.126,0 -3.945,0.545 -5.218,1.783 -1.273,1.237 -1.914,3.098 -1.914,5.428 0,6.102 -4.937,11.012 -11.039,11.012 -6.102,0 -11.038,-4.91 -11.038,-11.012 0,-3.934 -2.843,-7.211 -7.027,-7.211 -6.102,0 -11.012,-4.936 -11.012,-11.038 0,-6.102 4.91,-11.012 11.012,-11.012 2.19,0 3.993,-0.42 5.244,-1.573 1.251,-1.153 1.783,-2.938 1.783,-5.296 0.001,-6.102 4.937,-11.013 11.039,-11.013 z"
         id="path79"
         inkscape:connector-curvature="0"
         style="fill:#f4f4f4" /><path
         d="m 173.138,125.045 c -1.166,-0.196 -2.296,0.616 -2.491,1.783 l -3.516,21.001 c -0.194,1.165 0.618,2.294 1.783,2.491 l 7.499,1.259 c 1.166,0.194 2.296,-0.618 2.491,-1.783 l 3.513,-21.001 c 0.195,-1.166 -0.617,-2.296 -1.783,-2.491 l -7.499,-1.258 0.003,0 z m -0.263,1.652 7.499,1.258 c 0.272,0.045 0.439,0.28 0.394,0.551 l -3.514,21.027 c -0.045,0.271 -0.278,0.439 -0.55,0.394 l -7.499,-1.259 c -0.271,-0.045 -0.465,-0.281 -0.42,-0.55 l 3.541,-20.999 0,-0.026 c 0.045,-0.271 0.28,-0.438 0.551,-0.393 l -0.002,-0.003 z"
         id="path81"
         inkscape:connector-curvature="0"
         style="fill:#f4f4f4" /><path
         d="m 175.496,195.368 -7.499,1.258 c -1.164,0.197 -1.953,1.299 -1.757,2.465 l 3.513,21.027 c 0.195,1.166 1.299,1.951 2.464,1.756 l 7.525,-1.258 c 1.166,-0.195 1.952,-1.299 1.757,-2.465 l -3.516,-21.025 c -0.195,-1.166 -1.324,-1.955 -2.491,-1.758 l 0.004,0 z m 0.288,1.651 c 0.269,-0.045 0.505,0.121 0.551,0.395 l 3.513,21 c 0.044,0.27 -0.124,0.506 -0.393,0.551 l -7.499,1.26 c -0.271,0.043 -0.506,-0.125 -0.55,-0.395 l -3.514,-21 c -0.046,-0.273 0.119,-0.506 0.394,-0.551 l 7.498,-1.26 z"
         id="path83"
         inkscape:connector-curvature="0"
         style="fill:#f4f4f4" /><path
         d="m 167.215,160.548 c -1.182,0 -2.15,0.994 -2.15,2.176 l 0,21.291 c 0,1.182 0.969,2.176 2.15,2.176 l 7.604,0 c 1.181,0 2.176,-0.994 2.176,-2.176 l 0,-21.29 c 0,-1.182 -0.994,-2.176 -2.176,-2.176 l -7.604,0 0,-0.001 z m 0,1.678 7.604,0 c 0.274,0 0.498,0.224 0.498,0.498 l 0,21.291 c 0,0.277 -0.223,0.498 -0.498,0.498 l -7.604,0 c -0.275,0 -0.472,-0.221 -0.472,-0.498 l 0,-21.291 c 0,-0.274 0.197,-0.498 0.472,-0.498 z"
         id="path85"
         inkscape:connector-curvature="0"
         style="fill:#f4f4f4" /><path
         d="m 171.829,121.479 c -0.831,-0.139 -1.634,0.083 -2.307,0.472 -0.673,0.389 -1.274,0.963 -1.416,1.81 l -4.379,26.142 c -0.142,0.846 0.25,1.589 0.76,2.176 0.51,0.587 1.188,1.067 2.019,1.206 l 11.222,1.862 c 0.832,0.139 1.634,-0.083 2.308,-0.472 0.673,-0.389 1.274,-0.963 1.416,-1.809 l 4.379,-26.14 c 0.142,-0.846 -0.25,-1.563 -0.761,-2.15 -0.51,-0.587 -1.188,-1.066 -2.019,-1.206 l -11.222,-1.888 0,-0.003 z m -0.262,1.652 11.196,1.888 c 0.312,0.052 0.757,0.32 1.049,0.656 0.292,0.336 0.379,0.717 0.367,0.786 l -4.378,26.141 c -0.012,0.071 -0.218,0.38 -0.603,0.603 -0.385,0.222 -0.867,0.34 -1.18,0.289 l -11.222,-1.888 c -0.312,-0.052 -0.757,-0.293 -1.048,-0.629 -0.292,-0.335 -0.379,-0.716 -0.367,-0.787 l 4.38,-26.165 c 0.012,-0.071 0.217,-0.381 0.603,-0.603 0.385,-0.223 0.894,-0.341 1.206,-0.289 l -0.003,-0.002 z"
         id="path87"
         inkscape:connector-curvature="0"
         style="fill:#f4f4f4" /><path
         d="m 422.323,125.045 -7.499,1.258 c -1.166,0.195 -1.977,1.325 -1.782,2.491 l 3.513,21.001 c 0.197,1.164 1.326,1.977 2.491,1.783 l 7.499,-1.259 c 1.165,-0.196 1.98,-1.324 1.782,-2.491 l -3.513,-21.001 c -0.194,-1.165 -1.324,-1.978 -2.491,-1.782 z m 0.288,1.652 c 0.272,-0.046 0.506,0.122 0.551,0.393 l 0,0.026 3.514,21.001 c 0.046,0.268 -0.121,0.504 -0.394,0.55 -0.272,0.045 -0.53,-0.12 -0.577,-0.393 l -3.513,-21.027 c -0.046,-0.271 0.121,-0.505 0.393,-0.551 l 7.525,-1.258 -7.499,1.259 z"
         id="path89"
         inkscape:connector-curvature="0"
         style="fill:#f4f4f4" /><path
         d="m 419.966,195.368 c -1.167,-0.199 -2.294,0.592 -2.491,1.756 l -3.513,21.027 c -0.192,1.164 0.617,2.27 1.782,2.465 l 7.499,1.258 c 1.166,0.195 2.296,-0.59 2.491,-1.756 l 3.513,-21.027 c 0.198,-1.166 -0.62,-2.268 -1.782,-2.465 l -7.499,-1.258 z m -0.288,1.651 7.498,1.26 c 0.272,0.045 0.466,0.279 0.42,0.551 l -3.54,21 c -0.045,0.27 -0.281,0.438 -0.55,0.395 l -7.499,-1.26 c -0.269,-0.045 -0.438,-0.279 -0.394,-0.551 l 3.514,-21 c 0.046,-0.274 0.281,-0.44 0.551,-0.395 l 0,0 z"
         id="path91"
         inkscape:connector-curvature="0"
         style="fill:#f4f4f4" /><path
         d="m 420.326,160.548 c -1.182,0 -2.149,0.995 -2.149,2.176 l 0,21.291 c 0,1.182 0.968,2.176 2.149,2.176 l 7.604,0 c 1.182,0 2.177,-0.994 2.177,-2.176 l 0,-21.29 c 0,-1.181 -0.994,-2.176 -2.177,-2.176 l -7.604,0 0,-0.001 z m 0,1.678 7.604,0 c 0.276,0 0.498,0.224 0.498,0.498 l 0,21.291 c 0,0.277 -0.221,0.498 -0.498,0.498 l -7.604,0 c -0.276,0 -0.472,-0.221 -0.472,-0.498 l 0,-21.291 c 0,-0.274 0.197,-0.498 0.472,-0.498 z"
         id="path93"
         inkscape:connector-curvature="0"
         style="fill:#f4f4f4" /></g></g></svg>