<?xml version="1.0" encoding="UTF-8" standalone="no"?>
<!-- Generator: Adobe Illustrator 13.0.0, SVG Export Plug-In . SVG Version: 6.00 Build 14948)  -->

<svg
   xmlns:dc="http://purl.org/dc/elements/1.1/"
   xmlns:cc="http://creativecommons.org/ns#"
   xmlns:rdf="http://www.w3.org/1999/02/22-rdf-syntax-ns#"
   xmlns:svg="http://www.w3.org/2000/svg"
   xmlns="http://www.w3.org/2000/svg"
   xmlns:sodipodi="http://sodipodi.sourceforge.net/DTD/sodipodi-0.dtd"
   xmlns:inkscape="http://www.inkscape.org/namespaces/inkscape"
   version="1.1"
   id="Layer_2"
   x="0px"
   y="0px"
   width="550"
   height="550"
   viewBox="0 0 549.99995 549.99999"
   enable-background="new 0 0 598.189 350.26"
   xml:space="preserve"
   inkscape:version="0.91 r13725"
   sodipodi:docname="controller_gg.svg"><metadata
     id="metadata3083"><rdf:RDF><cc:Work
         rdf:about=""><dc:format>image/svg+xml</dc:format><dc:type
           rdf:resource="http://purl.org/dc/dcmitype/StillImage" /><dc:title></dc:title></cc:Work></rdf:RDF></metadata><defs
     id="defs3081" /><sodipodi:namedview
     pagecolor="#ffffff"
     bordercolor="#666666"
     borderopacity="1"
     objecttolerance="10"
     gridtolerance="10"
     guidetolerance="10"
     inkscape:pageopacity="0"
     inkscape:pageshadow="2"
     inkscape:window-width="1920"
     inkscape:window-height="1001"
     id="namedview3079"
     showgrid="false"
     inkscape:zoom="1.0799262"
     inkscape:cx="286.73678"
     inkscape:cy="382.70167"
     inkscape:window-x="-9"
     inkscape:window-y="-9"
     inkscape:window-maximized="1"
     inkscape:current-layer="layer4"
     showguides="true"
     inkscape:guide-bbox="true" /><g
     inkscape:groupmode="layer"
     id="layer2"
     inkscape:label="Screen_Rect"
     style="display:none"
     transform="translate(0,199.73999)"
     sodipodi:insensitive="true"><path
       style="fill:#ffffff;stroke:#000000;stroke-width:1px;stroke-linecap:butt;stroke-linejoin:miter;stroke-opacity:1"
       d="M 5.0135033,547.22203 136.4109,114.39023 653.54628,-189.09358 406.482,260.92121 Z"
       id="path3021"
       inkscape:connector-curvature="0"
       transform="translate(-2e-5,-199.73999)"
       sodipodi:nodetypes="ccccc" /><rect
       style="opacity:0.60100002;fill:#d8201f;fill-opacity:1;stroke:#ff8080;stroke-width:2.45114732;stroke-linecap:round;stroke-linejoin:round;stroke-miterlimit:4;stroke-dasharray:none;stroke-opacity:1"
       id="rect4230"
       width="444.2457"
       height="9.9567661"
       x="145.95099"
       y="-211.30678" /></g><g
     inkscape:groupmode="layer"
     id="layer1"
     inkscape:label="Controller_Vorlage"
     style="display:none"
     sodipodi:insensitive="true"><g
       id="g4929"
       transform="translate(-0.929149,0.5695451)"><g
         transform="translate(0,199.73999)"
         style="display:none"
         inkscape:label="Layer2"
         id="layer2-9"><path
           sodipodi:nodetypes="ccccc"
           transform="translate(-2e-5,-199.73999)"
           inkscape:connector-curvature="0"
           id="path3021-0"
           d="M 5.0135033,547.22203 136.4109,114.39023 653.54628,-189.09358 406.482,260.92121 Z"
           style="fill:#ffffff;stroke:#000000;stroke-width:1px;stroke-linecap:butt;stroke-linejoin:miter;stroke-opacity:1" /></g><g
         inkscape:label="Layer"
         id="layer1-2"><g
           transform="matrix(0.55322035,-0.3970343,-0.34863416,0.85569517,173.63773,166.52161)"
           id="g3100"><path
             style="fill:#f4f4f4"
             inkscape:connector-curvature="0"
             id="path3"
             d="m 148.05,114.447 c -23.656,0 -42.861,19.204 -42.861,42.861 l 0,37.414 c 0,23.658 19.205,42.86 42.861,42.86 l 38.694,0 c 23.656,0 42.861,-19.202 42.861,-42.86 l 0,-37.414 c 0,-23.657 -19.205,-42.861 -42.861,-42.861 l -38.694,0 z m 0,1.905 38.694,0 c 22.627,0 40.956,18.328 40.956,40.956 l 0,37.414 c 0,22.629 -18.329,40.956 -40.956,40.956 l -38.694,0 c -22.628,0 -40.956,-18.327 -40.956,-40.956 l 0,-37.414 c 0,-22.629 18.328,-40.956 40.956,-40.956 z" /><path
             style="fill:#f4f4f4"
             inkscape:connector-curvature="0"
             id="path5"
             d="m 167.395,123.168 c -3.23,0 -5.863,2.633 -5.863,5.864 l 0,13.037 c 0,3.23 2.632,5.863 5.863,5.863 3.23,0 5.863,-2.633 5.863,-5.863 l 0,-13.037 c 0,-3.23 -2.633,-5.864 -5.863,-5.864 z m 0,1.906 c 2.201,0 3.958,1.758 3.958,3.958 l 0,13.037 c 0,2.2 -1.758,3.958 -3.958,3.958 -2.202,0 -3.958,-1.758 -3.958,-3.958 l 0,-13.037 c -0.001,-2.2 1.757,-3.958 3.958,-3.958 z" /><path
             style="fill:#f4f4f4"
             inkscape:connector-curvature="0"
             id="path7"
             d="m 120.425,170.135 c -3.23,0 -5.864,2.633 -5.864,5.864 0,3.231 2.632,5.894 5.864,5.894 l 13.037,0 c 3.229,0 5.864,-2.662 5.864,-5.894 0,-3.229 -2.633,-5.864 -5.864,-5.864 l -13.037,0 z m 0,1.905 13.037,0 c 2.201,0 3.959,1.759 3.959,3.959 0,2.201 -1.759,3.988 -3.959,3.988 l -13.037,0 c -2.198,-0.01 -3.955,-1.791 -3.955,-3.99 0,-2.201 1.758,-3.959 3.958,-3.959 l -0.003,0.002 z" /><path
             style="fill:#f4f4f4"
             inkscape:connector-curvature="0"
             id="path9"
             d="m 167.395,204.071 c -3.23,0 -5.863,2.663 -5.863,5.894 l 0,13.038 c 0,3.229 2.632,5.863 5.863,5.863 3.23,0 5.863,-2.633 5.863,-5.863 l 0,-13.038 c 0,-3.23 -2.633,-5.894 -5.863,-5.894 z m 0,1.906 c 2.201,0 3.958,1.789 3.958,3.988 l 0,13.038 c 0,2.2 -1.757,3.958 -3.958,3.958 -2.202,0 -3.958,-1.759 -3.958,-3.958 l 0,-13.038 c -0.001,-2.2 1.757,-3.988 3.958,-3.988 z" /><path
             style="fill:#f4f4f4"
             inkscape:connector-curvature="0"
             id="path11"
             d="m 201.321,170.135 c -3.229,0 -5.863,2.633 -5.863,5.864 0,3.231 2.633,5.894 5.863,5.894 l 13.067,0 c 3.229,0 5.863,-2.662 5.863,-5.894 0,-3.229 -2.633,-5.864 -5.863,-5.864 l -13.067,0 z m 0,1.905 13.067,0 c 2.2,0 3.958,1.76 3.958,3.959 0,2.201 -1.758,3.988 -3.958,3.988 l -13.067,0 c -2.2,0 -3.958,-1.788 -3.958,-3.988 0,-2.2 1.759,-3.959 3.958,-3.959 z" /><path
             style="fill:#f4f4f4"
             inkscape:connector-curvature="0"
             id="polygon13"
             d="m 133.878,141.176 -1.31,1.31 8.155,12.025 0.655,0.952 0.804,-0.803 3.869,-3.87 0.804,-0.804 -0.953,-0.655 -12.024,-8.155 z" /><path
             style="fill:#f4f4f4"
             inkscape:connector-curvature="0"
             id="polygon15"
             d="m 141.383,196.566 -0.654,0.952 -8.156,12.024 1.31,1.31 12.025,-8.155 0.953,-0.654 -0.804,-0.804 -3.87,-3.869 -0.804,-0.804 z" /><path
             style="fill:#f4f4f4"
             inkscape:connector-curvature="0"
             id="polygon17"
             d="m 193.435,196.566 -0.804,0.804 -3.869,3.869 -0.833,0.804 0.953,0.654 12.025,8.155 1.339,-1.31 -8.156,-12.024 -0.655,-0.952 0,0 z" /><path
             style="fill:#f4f4f4"
             inkscape:connector-curvature="0"
             id="polygon19"
             d="m 200.912,141.176 -12.025,8.155 -0.953,0.655 0.833,0.804 3.87,3.87 0.804,0.803 0.655,-0.952 8.155,-12.025 -1.339,-1.31 z" /><path
             style="fill:#f4f4f4"
             inkscape:connector-curvature="0"
             id="path21"
             d="m 146.354,104.833 c -27.67,0 -50.123,22.453 -50.123,50.124 l 0,42.117 c 0,27.671 22.453,50.123 50.123,50.123 l 42.117,0 c 27.671,0 50.124,-22.452 50.124,-50.123 l 0,-42.117 c 0,-27.67 -22.452,-50.124 -50.124,-50.124 l -42.117,0 z m 0,1.906 42.117,0 c 26.644,0 48.219,21.577 48.219,48.218 l 0,42.117 c 0,26.644 -21.577,48.218 -48.219,48.218 l -42.117,0 c -26.642,0 -48.218,-21.574 -48.218,-48.218 l 0,-42.117 c 0,-26.642 21.577,-48.218 48.218,-48.218 z" /><path
             style="fill:#f4f4f4"
             inkscape:connector-curvature="0"
             id="polygon23"
             d="m 69.499,75.694 0,0.952 0,202.961 0,0.952 0.953,0 196.122,0 0.952,0 0,-0.952 0,-26.401 289.521,0 0.952,0 0,-0.952 0,-113.458 0,-0.953 -0.952,0 -289.522,0 0,-61.196 0,-0.952 -0.952,0 -196.122,0 -0.952,-10e-4 0,0 z m 1.904,1.905 194.217,0 0,61.196 0,0.953 0.953,0 0.714,0 288.807,0 0,111.552 -289.226,0 -0.297,0 -0.953,0 0,0.953 0,26.4 -194.217,0 0,-201.055 0.002,0.001 z" /><path
             style="fill:#f4f4f4"
             inkscape:connector-curvature="0"
             id="circle25"
             d="m 400.692,169.126 c -19.762,0 -35.777,16.046 -35.777,35.807 0,19.761 16.018,35.807 35.777,35.807 19.759,0 35.807,-16.046 35.807,-35.807 0,-19.761 -16.047,-35.807 -35.807,-35.807 l 0,0 z m 0,1.905 c 18.73,0 33.901,15.17 33.901,33.902 0,18.732 -15.171,33.902 -33.901,33.902 -18.731,0 -33.872,-15.171 -33.872,-33.902 0,-18.731 15.141,-33.902 33.872,-33.902 l 0,0 z" /><path
             style="fill:#f4f4f4"
             inkscape:connector-curvature="0"
             id="circle27"
             d="m 400.692,177.669 c -15.039,0 -27.234,12.227 -27.234,27.265 0,15.038 12.195,27.234 27.234,27.234 15.036,0 27.264,-12.196 27.264,-27.234 0,-15.038 -12.227,-27.265 -27.264,-27.265 z m 0,1.905 c 14.008,0 25.359,11.351 25.359,25.359 0,14.008 -11.352,25.33 -25.359,25.33 -14.01,0 -25.33,-11.321 -25.33,-25.33 0,-14.009 11.321,-25.359 25.33,-25.359 z" /><path
             style="fill:#f4f4f4"
             inkscape:connector-curvature="0"
             id="circle29"
             d="m 489.919,169.126 c -19.762,0 -35.807,16.046 -35.807,35.807 0,19.761 16.045,35.807 35.807,35.807 19.76,0 35.807,-16.046 35.807,-35.807 0,-19.761 -16.047,-35.807 -35.807,-35.807 l 0,0 z m 0,1.905 c 18.73,0 33.901,15.17 33.901,33.902 0,18.732 -15.171,33.902 -33.901,33.902 -18.731,0 -33.902,-15.171 -33.902,-33.902 0,-18.731 15.171,-33.902 33.902,-33.902 l 0,0 z" /><path
             style="fill:#f4f4f4"
             inkscape:connector-curvature="0"
             id="circle31"
             d="m 489.919,177.669 c -15.039,0 -27.234,12.227 -27.234,27.265 0,15.038 12.195,27.234 27.234,27.234 15.036,0 27.234,-12.196 27.234,-27.234 0,-15.038 -12.196,-27.265 -27.234,-27.265 z m 0,1.905 c 14.008,0 25.329,11.351 25.329,25.359 0,14.008 -11.321,25.33 -25.329,25.33 -14.01,0 -25.33,-11.321 -25.33,-25.33 0,-14.009 11.32,-25.359 25.33,-25.359 z" /><path
             style="fill:#f4f4f4"
             inkscape:connector-curvature="0"
             id="path33"
             d="m 39.406,68.432 c -4.766,0 -8.662,3.896 -8.662,8.662 l 0,203.084 c 0,4.766 3.897,8.661 8.662,8.661 l 518.646,0 c 4.429,0 7.956,-3.411 8.453,-7.709 l 0.179,0 0,-0.952 0,-203.085 c 0,-4.762 -3.868,-8.658 -8.64,-8.658 l -518.645,0 0.007,-0.003 z m 0,1.904 518.646,0 c 3.737,0 6.727,3.021 6.727,6.757 l 0,202.131 0,0.953 c 0,3.736 -2.989,6.756 -6.727,6.756 l -518.646,0 c -3.732,0.01 -6.753,-3.019 -6.753,-6.753 l 0,-203.083 c 0,-3.736 3.02,-6.756 6.756,-6.756 l -0.003,-0.005 z" /><path
             style="fill:#f4f4f4"
             inkscape:connector-curvature="0"
             id="rect35"
             d="m 359.021,163.559 0,0.953 0,81.465 0,0.952 0.953,0 81.465,0 0.953,0 0,-0.952 0,-81.465 0,-0.953 -0.953,0 -81.465,0 -0.953,0 z m 1.906,1.905 79.561,0 0,79.56 -79.561,0 0,-79.56 z" /><path
             style="fill:#f4f4f4"
             inkscape:connector-curvature="0"
             id="rect37"
             d="m 448.248,163.559 0,0.953 0,81.465 0,0.952 0.953,0 81.436,0 0.952,0 0,-0.952 0,-81.465 0,-0.953 -0.952,0 -81.436,0 -0.953,0 z m 1.905,1.905 79.531,0 0,79.56 -79.531,0 0,-79.56 z" /><path
             style="fill:#f4f4f4"
             inkscape:connector-curvature="0"
             id="polyline39"
             d="m 83.934,94.177 0,2.292 0,159.061 0,2.322 1.607,-1.638 25.33,-25.299 -1.369,-1.369 -23.663,23.692 0,-154.45 23.663,23.658 1.369,-1.34 -25.33,-25.299 -1.607,-1.637 0,0.007 z" /><path
             style="fill:#f4f4f4"
             inkscape:connector-curvature="0"
             id="polyline41"
             d="m 222.305,232.551 -1.37,1.339 23.693,23.692 -154.452,0 23.574,-23.573 -1.369,-1.339 -25.181,25.182 -1.637,1.637 2.292,0 159.062,0 2.292,0 -1.607,-1.637 -25.299,-25.3 0.002,-0.001 z" /><path
             style="fill:#f4f4f4"
             inkscape:connector-curvature="0"
             id="polyline43"
             d="m 250.878,94.177 -1.637,1.637 -25.211,25.182 1.369,1.369 23.574,-23.603 0,154.509 -23.633,-23.663 -1.339,1.34 25.24,25.27 1.637,1.638 0,-2.322 0,-159.063 0,-2.292 0,-0.002 z" /><path
             style="fill:#f4f4f4"
             inkscape:connector-curvature="0"
             id="polyline45"
             d="m 85.57,92.54 1.638,1.608 25.21,25.24 1.339,-1.34 -23.572,-23.602 154.452,0 -23.669,23.662 1.333,1.339 25.307,-25.3 1.607,-1.607 -2.292,0 -159.062,0 -2.291,0 0,0 z" /><path
             style="fill:#f4f4f4"
             inkscape:connector-curvature="0"
             id="line47"
             d="m 58.961,69.533 0,218.057 1.905,0 0,-218.057 -1.905,0 z" /><path
             style="fill:#f4f4f4"
             inkscape:connector-curvature="0"
             id="rect49"
             d="m 359.021,145.819 0,0.953 0,13.244 0,0.953 0.953,0 81.465,0 0.953,0 0,-0.953 0,-13.244 0,-0.953 -0.953,0 -81.465,0 -0.953,0 z m 1.906,1.905 79.561,0 0,11.339 -79.561,0 0,-11.339 z" /><path
             style="fill:#f4f4f4"
             inkscape:connector-curvature="0"
             id="rect51"
             d="m 448.248,145.819 0,0.953 0,13.244 0,0.953 0.953,0 81.436,0 0.952,0 0,-0.953 0,-13.244 0,-0.953 -0.952,0 -81.436,0 -0.953,0 z m 1.905,1.905 79.531,0 0,11.339 -79.531,0 0,-11.339 z" /><path
             style="fill:#f4f4f4"
             inkscape:connector-curvature="0"
             id="path53"
             d="m 276.804,73.134 c -0.987,0 -1.815,0.828 -1.815,1.816 l 0,53.01 c 0,0.988 0.829,1.815 1.815,1.815 l 282.855,0 c 0.985,0 1.785,-0.831 1.785,-1.815 l 0,-50.033 c 0,-2.641 -2.152,-4.792 -4.792,-4.792 l -279.844,0 -0.004,0 z m 0.09,1.906 279.756,0 c 1.613,0 2.888,1.275 2.888,2.887 l 0,49.945 -282.643,0 0,-52.832 -10e-4,0 z" /><path
             style="fill:#f4f4f4"
             inkscape:connector-curvature="0"
             id="path55"
             d="m 276.804,260.41 c -0.987,0 -1.815,0.829 -1.815,1.815 l 0,20.091 c 0,0.987 0.829,1.816 1.815,1.816 l 279.844,0 c 2.64,0 4.792,-2.183 4.792,-4.822 l 0,-17.085 c 0,-0.985 -0.8,-1.815 -1.785,-1.815 l -282.855,0 0.004,0 z m 0.09,1.905 282.645,0 0,16.995 c 0,1.611 -1.276,2.917 -2.888,2.917 l -279.758,0 0.001,-19.912 0,0 z" /><path
             style="fill:#f4f4f4"
             inkscape:connector-curvature="0"
             id="line57"
             d="m 274.461,129.271 -6.28,6.28 1.369,1.339 6.251,-6.25 -1.34,-1.369 z" /><path
             style="fill:#f4f4f4"
             inkscape:connector-curvature="0"
             id="line59"
             d="m 269.546,253.866 -1.369,1.34 6.281,6.28 1.339,-1.369 -6.251,-6.251 z" /></g></g></g></g><g
     inkscape:groupmode="layer"
     id="layer4"
     inkscape:label="Controller"><g
       id="g5214"
       transform="matrix(0.56420814,-0.39661269,-0.40759278,0.85072734,197.23822,135.14649)"><polygon
         id="polygon5098"
         points="177.298,261.984 175.298,261.984 175.298,261.984 175.298,162.098 177.298,162.098 "
         style="fill:#efefef" /><polygon
         id="polygon5100"
         points="187.063,261.984 185.064,261.984 185.064,261.984 185.064,161.096 187.063,161.096 "
         style="fill:#efefef" /><polygon
         id="polygon5102"
         points="194.877,261.148 192.876,261.148 192.876,261.148 192.876,163.096 194.877,163.096 "
         style="fill:#efefef" /><polygon
         id="polygon5104"
         points="204.643,262.822 202.642,262.822 202.642,262.822 202.642,161.097 204.643,161.097 "
         style="fill:#efefef" /><polygon
         id="polygon5106"
         points="210.781,262.402 208.78,262.402 208.78,262.402 208.78,161.098 210.781,161.098 "
         style="fill:#efefef" /><polygon
         id="polygon5108"
         points="220.546,261.566 218.545,261.566 218.545,261.566 218.545,162.097 220.546,162.097 "
         style="fill:#efefef" /><polygon
         id="polygon5110"
         points="228.357,261.984 226.359,261.984 226.359,261.984 226.359,162.098 228.357,162.098 "
         style="fill:#efefef" /><polygon
         id="polygon5112"
         points="238.123,262.402 236.125,262.402 236.125,262.402 236.125,161.098 238.123,161.098 "
         style="fill:#efefef" /><polygon
         id="polygon5114"
         points="244.541,262.402 242.542,262.402 242.542,262.402 242.542,161.098 244.541,161.098 "
         style="fill:#efefef" /><polygon
         id="polygon5116"
         points="254.307,261.148 252.307,261.148 252.307,261.148 252.307,162.097 254.307,162.097 "
         style="fill:#efefef" /><polygon
         id="polygon5118"
         points="262.121,261.984 260.12,261.984 260.12,261.984 260.12,162.098 262.121,162.098 "
         style="fill:#efefef" /><polygon
         id="polygon5120"
         points="271.885,261.984 269.884,261.984 269.884,261.984 269.884,162.098 271.885,162.098 "
         style="fill:#efefef" /><polygon
         id="polygon5122"
         points="278.859,261.984 276.861,261.984 276.861,261.984 276.861,161.096 278.859,161.096 "
         style="fill:#efefef" /><polygon
         id="polygon5124"
         points="288.624,261.984 286.625,261.984 286.625,261.984 286.625,162.098 288.624,162.098 "
         style="fill:#efefef" /><polygon
         id="polygon5126"
         points="296.439,261.566 294.438,261.566 294.438,261.566 294.438,162.097 296.439,162.097 "
         style="fill:#efefef" /><polygon
         id="polygon5128"
         points="306.203,262.402 304.204,262.402 304.204,262.402 304.204,161.098 306.203,161.098 "
         style="fill:#efefef" /><polygon
         id="polygon5130"
         points="312.341,262.822 310.342,262.822 310.342,262.822 310.342,161.097 312.341,161.097 "
         style="fill:#efefef" /><polygon
         id="polygon5132"
         points="322.106,261.148 320.105,261.148 320.105,261.148 320.105,163.096 322.106,163.096 "
         style="fill:#efefef" /><polygon
         id="polygon5134"
         points="329.918,261.984 327.918,261.984 327.918,261.984 327.918,162.098 329.918,162.098 "
         style="fill:#efefef" /><polygon
         id="polygon5136"
         points="339.685,261.984 337.687,261.984 337.687,261.984 337.687,162.098 339.685,162.098 "
         style="fill:#efefef" /><polygon
         id="polygon5138"
         points="347.103,262.239 345.103,262.239 345.103,262.239 345.103,162.097 347.103,162.097 "
         style="fill:#efefef" /><polygon
         id="polygon5140"
         points="355.867,260.73 353.867,260.73 353.867,260.73 353.867,163.097 355.867,163.097 "
         style="fill:#efefef" /><polygon
         id="polygon5142"
         points="363.681,262.402 361.68,262.402 361.68,262.402 361.68,161.098 363.681,161.098 "
         style="fill:#efefef" /><polygon
         id="polygon5144"
         points="373.444,261.566 371.444,261.566 371.444,261.566 371.444,162.097 373.444,162.097 "
         style="fill:#efefef" /><polygon
         id="polygon5146"
         points="381.258,261.984 379.259,261.984 379.259,261.984 379.259,162.098 381.258,162.098 "
         style="fill:#efefef" /><polygon
         id="polygon5148"
         points="391.023,262.402 389.021,262.402 389.021,262.402 389.021,161.097 391.023,161.097 "
         style="fill:#efefef" /><polygon
         id="polygon5150"
         points="398.837,260.309 396.836,260.309 396.836,260.309 396.836,163.097 398.837,163.097 "
         style="fill:#efefef" /><polygon
         id="polygon5152"
         points="407.603,263.241 405.602,263.241 405.602,263.241 405.602,162.098 407.603,162.098 "
         style="fill:#efefef" /><polygon
         id="polygon5154"
         points="414.739,262.403 412.739,262.403 412.739,262.403 412.739,162.097 414.739,162.097 "
         style="fill:#efefef" /><polygon
         id="polygon5156"
         points="424.506,261.985 422.506,261.985 422.506,261.985 422.506,162.097 424.506,162.097 "
         style="fill:#efefef" /><polygon
         id="polygon5158"
         points="432.319,261.565 430.317,261.565 430.317,261.565 430.317,162.098 432.319,162.098 "
         style="fill:#efefef" /><polygon
         id="polygon5160"
         points="442.084,262.403 440.083,262.403 440.083,262.403 440.083,161.097 442.084,161.097 "
         style="fill:#efefef" /><polygon
         id="polygon5162"
         points="448.502,262.402 446.501,262.402 446.501,262.402 446.501,161.098 448.502,161.098 "
         style="fill:#efefef" /><polygon
         id="polygon5164"
         points="458.267,261.566 456.267,261.566 456.267,261.566 456.267,162.096 458.267,162.096 "
         style="fill:#efefef" /><polygon
         id="polygon5166"
         points="466.079,261.565 464.078,261.565 464.078,261.565 464.078,161.679 466.079,161.679 "
         style="fill:#efefef" /><polygon
         id="polygon5168"
         points="475.845,261.985 473.844,261.985 473.844,261.985 473.844,162.098 475.845,162.098 "
         style="fill:#efefef" /><polygon
         id="polygon5170"
         points="482.821,261.984 480.82,261.984 480.82,261.984 480.82,161.261 482.821,161.261 "
         style="fill:#efefef" /><polygon
         id="polygon5172"
         points="492.585,261.565 490.584,261.565 490.584,261.565 490.584,161.259 492.585,161.259 "
         style="fill:#efefef" /><polygon
         id="polygon5174"
         points="500.119,261.428 498.118,261.428 498.118,261.428 498.118,161.539 500.119,161.539 "
         style="fill:#efefef" /><polygon
         id="polygon5176"
         points="509.885,262.265 507.884,262.265 507.884,262.265 507.884,161.541 509.885,161.541 "
         style="fill:#efefef" /><polygon
         id="polygon5178"
         points="517.14,261.985 515.14,261.985 515.14,261.985 515.14,162.097 517.14,162.097 "
         style="fill:#efefef" /><polygon
         id="polygon5180"
         points="526.903,262.403 524.905,262.403 524.905,262.403 524.905,161.097 526.903,161.097 "
         style="fill:#efefef" /><polygon
         id="polygon5182"
         points="533.88,261.984 531.88,261.984 531.88,261.984 531.88,162.096 533.88,162.096 "
         style="fill:#efefef" /><polygon
         id="polygon5184"
         points="543.646,261.984 541.646,261.984 541.646,261.984 541.646,162.097 543.646,162.097 "
         style="fill:#efefef" /><path
         id="path5186"
         d="m 571.012,176.815 c 0.013,-5.042 2.472,-10.376 5.907,-14.527 l 0,0 c 1.751,-2.097 3.756,-3.909 5.877,-5.189 l 0,0 c -47.975,0 -338.665,0 -414.959,0 l 0,0 c -10.96,0 -17.479,0 -18.248,0 l 0,0 c -0.024,0.003 -0.066,0.01 -0.137,0.023 l 0,0 c -0.13,0.028 -0.328,0.074 -0.566,0.155 l 0,0 c -0.481,0.164 -1.13,0.46 -1.78,0.986 l 0,0 c -1.191,0.983 -2.458,2.722 -2.64,6.234 l 0,0 c 9.781,2.031 16.127,3.812 18.439,3.785 l 0,0 0.17,1.986 c -2.648,0.456 -5.653,0.647 -8.793,0.647 l 0,0 c -5.843,0 -12.157,-0.665 -17.427,-1.578 l 0,0 c -5.296,-0.934 -9.432,-2.028 -11.313,-3.187 l 0,0 1.066,-1.69 c 1.251,0.819 5.449,2.031 10.59,2.906 l 0,0 c 5.166,0.896 11.39,1.549 17.084,1.547 l 0,0 c 0.284,0 0.567,-0.002 0.848,-0.005 l 0,0 c -3.148,-0.718 -7.088,-1.649 -11.887,-2.624 l 0,0 -0.8,-0.164 0,-0.815 c -0.015,-4.521 1.652,-7.197 3.406,-8.598 l 0,0 c 1.746,-1.409 3.451,-1.59 3.561,-1.605 l 0,0 0.056,-0.004 0.046,0 c 0,0 425.847,0 439.661,0 l 0,0 0,1.999 c -0.03,0 -0.063,0 -0.099,0 l 0,0 c -3.359,0.021 -7.455,2.63 -10.616,6.467 l 0,0 c -3.21,3.851 -5.458,8.876 -5.447,13.25 l 0,0 0.002,0 -2.001,0 0,0.001 z"
         inkscape:connector-curvature="0"
         style="fill:#efefef" /><path
         id="path5188"
         d="m 154.372,137.579 c 0.002,-5.811 4.711,-10.52 10.522,-10.522 l 0,0 c 5.811,0.002 10.52,4.711 10.521,10.522 l 0,0 c -0.002,5.811 -4.71,10.52 -10.521,10.521 l 0,0 c -5.811,-0.002 -10.52,-4.71 -10.522,-10.521 l 0,0 z m 2,0 c 0.008,4.707 3.815,8.511 8.522,8.521 l 0,0 c 4.707,-0.01 8.511,-3.815 8.521,-8.521 l 0,0 c -0.01,-4.707 -3.817,-8.514 -8.521,-8.522 l 0,0 c -4.707,0.008 -8.514,3.815 -8.522,8.522 l 0,0 z"
         inkscape:connector-curvature="0"
         style="fill:#efefef" /><path
         id="path5190"
         d="m 562.431,137.578 c 0,-5.811 4.71,-10.521 10.523,-10.521 l 0,0 c 5.809,0 10.521,4.709 10.521,10.521 l 0,0 c 0,5.814 -4.712,10.521 -10.521,10.521 l 0,0 c -5.811,0 -10.523,-4.707 -10.523,-10.521 l 0,0 z m 1.999,0 c 0.009,4.708 3.816,8.513 8.524,8.521 l 0,0 c 4.705,-0.008 8.513,-3.814 8.521,-8.521 l 0,0 c -0.009,-4.705 -3.816,-8.513 -8.521,-8.521 l 0,0 c -4.706,0.008 -8.516,3.816 -8.524,8.521 l 0,0 z"
         inkscape:connector-curvature="0"
         style="fill:#efefef" /><path
         id="path5192"
         d="m 529.29,265.426 c -2.041,0.011 -3.37,-1.282 -4.247,-2.535 l 0,0 c -0.903,-1.275 -1.601,-2.637 -2.417,-3.389 l 0,0 c -0.547,-0.503 -1.045,-0.764 -1.833,-0.773 l 0,0 c -1.148,0.01 -1.81,0.602 -2.624,1.703 l 0,0 c -0.79,1.079 -1.487,2.544 -2.664,3.674 l 0,0 c -0.778,0.754 -1.874,1.331 -3.207,1.32 l 0,0 c -2.041,0.011 -3.372,-1.282 -4.249,-2.535 l 0,0 c -0.903,-1.275 -1.601,-2.637 -2.417,-3.389 l 0,0 c -0.547,-0.503 -1.045,-0.764 -1.833,-0.773 l 0,0 c -1.146,0.01 -1.808,0.602 -2.622,1.703 l 0,0 c -0.79,1.079 -1.487,2.544 -2.664,3.674 l 0,0 c -0.78,0.754 -1.876,1.331 -3.209,1.32 l 0,0 c -2.039,0.011 -3.367,-1.282 -4.247,-2.535 l 0,0 c -0.901,-1.275 -1.599,-2.637 -2.412,-3.389 l 0,0 c -0.549,-0.503 -1.047,-0.764 -1.836,-0.773 l 0,0 c -1.146,0.01 -1.808,0.602 -2.623,1.703 l 0,0 c -0.789,1.079 -1.486,2.544 -2.662,3.674 l 0,0 c -0.778,0.754 -1.876,1.331 -3.209,1.32 l 0,0 c -2.039,0.011 -3.37,-1.282 -4.246,-2.535 l 0,0 c -0.904,-1.275 -1.6,-2.637 -2.416,-3.389 l 0,0 c -0.547,-0.503 -1.045,-0.764 -1.835,-0.773 l 0,0 c -1.147,0.01 -1.807,0.602 -2.622,1.703 l 0,0 c -0.789,1.079 -1.486,2.544 -2.662,3.674 l 0,0 c -0.778,0.754 -1.876,1.331 -3.209,1.32 l 0,0 c -2.039,0.011 -3.37,-1.282 -4.247,-2.535 l 0,0 c -0.901,-1.275 -1.599,-2.637 -2.412,-3.389 l 0,0 c -0.549,-0.503 -1.045,-0.764 -1.834,-0.773 l 0,0 c -1.146,0.01 -1.808,0.602 -2.621,1.703 l 0,0 c -0.791,1.079 -1.488,2.544 -2.665,3.674 l 0,0 c -0.779,0.754 -1.875,1.331 -3.209,1.32 l 0,0 c -2.038,0.011 -3.369,-1.282 -4.247,-2.535 l 0,0 c -0.903,-1.275 -1.598,-2.637 -2.414,-3.389 l 0,0 c -0.549,-0.503 -1.045,-0.764 -1.836,-0.773 l 0,0 c -1.146,0.01 -1.808,0.602 -2.623,1.703 l 0,0 c -0.789,1.079 -1.486,2.544 -2.662,3.674 l 0,0 c -0.778,0.754 -1.874,1.331 -3.207,1.32 l 0,0 c -2.041,0.011 -3.372,-1.282 -4.25,-2.535 l 0,0 c -0.902,-1.275 -1.598,-2.637 -2.412,-3.389 l 0,0 c -0.549,-0.503 -1.045,-0.764 -1.833,-0.773 l 0,0 c -1.148,0.01 -1.811,0.602 -2.626,1.703 l 0,0 c -0.788,1.079 -1.486,2.544 -2.662,3.674 l 0,0 c -0.78,0.754 -1.876,1.331 -3.209,1.32 l 0,0 c -2.039,0.011 -3.37,-1.282 -4.247,-2.535 l 0,0 c -0.901,-1.275 -1.599,-2.637 -2.412,-3.389 l 0,0 c -0.549,-0.503 -1.045,-0.764 -1.834,-0.773 l 0,0 c -1.146,0.01 -1.808,0.602 -2.624,1.703 l 0,0 c -0.788,1.079 -1.487,2.544 -2.662,3.674 l 0,0 c -0.779,0.754 -1.878,1.331 -3.209,1.32 l 0,0 c -2.041,0.011 -3.369,-1.282 -4.247,-2.535 l 0,0 c -0.903,-1.275 -1.601,-2.637 -2.414,-3.389 l 0,0 c -0.549,-0.503 -1.045,-0.764 -1.836,-0.773 l 0,0 c -1.145,0.01 -1.806,0.602 -2.619,1.703 l 0,0 c -0.791,1.079 -1.488,2.544 -2.664,3.674 l 0,0 c -0.778,0.754 -1.876,1.331 -3.209,1.32 l 0,0 c -2.039,0.011 -3.368,-1.282 -4.245,-2.535 l 0,0 c -0.903,-1.275 -1.601,-2.637 -2.414,-3.389 l 0,0 c -0.547,-0.503 -1.045,-0.764 -1.834,-0.773 l 0,0 c -1.148,0.01 -1.81,0.602 -2.624,1.703 l 0,0 c -0.79,1.079 -1.487,2.544 -2.664,3.674 l 0,0 c -0.777,0.754 -1.874,1.331 -3.207,1.32 l 0,0 c -2.041,0.011 -3.37,-1.282 -4.247,-2.535 l 0,0 c -0.903,-1.275 -1.599,-2.637 -2.414,-3.389 l 0,0 c -0.547,-0.503 -1.043,-0.764 -1.833,-0.773 l 0,0 c -1.147,0.01 -1.809,0.602 -2.622,1.703 l 0,0 c -0.791,1.079 -1.488,2.544 -2.664,3.674 l 0,0 c -0.78,0.754 -1.876,1.331 -3.209,1.32 l 0,0 c -2.039,0.011 -3.368,-1.282 -4.246,-2.535 l 0,0 c -0.902,-1.275 -1.598,-2.637 -2.411,-3.389 l 0,0 c -0.55,-0.503 -1.045,-0.764 -1.836,-0.773 l 0,0 c -1.146,0.01 -1.808,0.602 -2.622,1.703 l 0,0 c -0.79,1.079 -1.487,2.544 -2.664,3.674 l 0,0 c -0.777,0.754 -1.873,1.331 -3.207,1.32 l 0,0 c -2.039,0.011 -3.37,-1.282 -4.247,-2.535 l 0,0 c -0.9,-1.275 -1.599,-2.637 -2.414,-3.389 l 0,0 c -0.547,-0.503 -1.045,-0.764 -1.833,-0.773 l 0,0 c -1.147,0.01 -1.809,0.602 -2.624,1.703 l 0,0 c -0.789,1.079 -1.486,2.544 -2.662,3.674 l 0,0 c -0.778,0.754 -1.874,1.331 -3.207,1.32 l 0,0 c -2.041,0.011 -3.37,-1.282 -4.248,-2.535 l 0,0 c -0.902,-1.275 -1.598,-2.637 -2.411,-3.389 l 0,0 c -0.55,-0.503 -1.048,-0.764 -1.836,-0.773 l 0,0 c -1.146,0.01 -1.808,0.602 -2.622,1.703 l 0,0 c -0.791,1.079 -1.488,2.544 -2.662,3.674 l 0,0 c -0.78,0.754 -1.875,1.331 -3.209,1.32 l 0,0 c -2.039,0.011 -3.37,-1.282 -4.248,-2.535 l 0,0 c -0.9,-1.275 -1.598,-2.637 -2.412,-3.389 l 0,0 c -0.549,-0.503 -1.045,-0.764 -1.835,-0.773 l 0,0 c -1.145,0.01 -1.806,0.602 -2.622,1.703 l 0,0 c -0.789,1.079 -1.486,2.544 -2.662,3.674 l 0,0 c -0.78,0.754 -1.875,1.331 -3.209,1.32 l 0,0 c -2.039,0.011 -3.368,-1.282 -4.245,-2.535 l 0,0 c -0.903,-1.275 -1.598,-2.637 -2.414,-3.389 l 0,0 c -0.547,-0.503 -1.043,-0.764 -1.833,-0.773 l 0,0 c -1.146,0.01 -1.806,0.602 -2.622,1.703 l 0,0 c -0.788,1.079 -1.485,2.544 -2.662,3.674 l 0,0 c -0.78,0.754 -1.876,1.331 -3.209,1.32 l 0,0 c -2.039,0.011 -3.368,-1.282 -4.246,-2.535 l 0,0 c -0.903,-1.275 -1.598,-2.637 -2.414,-3.389 l 0,0 c -0.547,-0.503 -1.043,-0.764 -1.833,-0.773 l 0,0 c -1.145,0.01 -1.806,0.602 -2.622,1.703 l 0,0 c -0.789,1.079 -1.486,2.544 -2.662,3.674 l 0,0 c -0.78,0.754 -1.876,1.331 -3.209,1.32 l 0,0 c -2.039,0.011 -3.368,-1.282 -4.245,-2.535 l 0,0 c -0.903,-1.275 -1.598,-2.637 -2.415,-3.389 l 0,0 c -0.546,-0.503 -1.042,-0.764 -1.833,-0.773 l 0,0 c -1.145,0.01 -1.806,0.602 -2.622,1.703 l 0,0 c -0.789,1.079 -1.486,2.544 -2.662,3.674 l 0,0 c -0.778,0.754 -1.874,1.331 -3.207,1.32 l 0,0 c -2.039,0.011 -3.37,-1.282 -4.246,-2.535 l 0,0 c -0.903,-1.275 -1.6,-2.637 -2.414,-3.389 l 0,0 c -0.549,-0.503 -1.045,-0.764 -1.835,-0.773 l 0,0 c -1.145,0.01 -1.806,0.602 -2.622,1.703 l 0,0 c -0.789,1.079 -1.486,2.544 -2.662,3.674 l 0,0 c -0.78,0.754 -1.876,1.331 -3.209,1.32 l 0,0 c -2.039,0.011 -3.37,-1.282 -4.248,-2.535 l 0,0 c -0.901,-1.275 -1.598,-2.637 -2.412,-3.389 l 0,0 c -0.549,-0.503 -1.045,-0.764 -1.835,-0.773 l 0,0 c -1.146,0.01 -1.806,0.602 -2.622,1.703 l 0,0 c -0.791,1.079 -1.488,2.544 -2.662,3.674 l 0,0 c -0.78,0.754 -1.876,1.331 -3.209,1.32 l 0,0 c -2.041,0.011 -3.37,-1.282 -4.248,-2.535 l 0,0 c -0.903,-1.275 -1.598,-2.637 -2.414,-3.389 l 0,0 c -0.547,-0.503 -1.043,-0.764 -1.833,-0.773 l 0,0 c -1.146,0.01 -1.808,0.602 -2.622,1.703 l 0,0 c -0.791,1.079 -1.488,2.544 -2.665,3.674 l 0,0 c -0.778,0.754 -1.874,1.331 -3.207,1.32 l 0,0 c -1.117,0.002 -2.647,-0.143 -3.883,-1.314 l 0,0 c -1.228,-1.178 -1.931,-3.147 -1.931,-6.312 l 0,0 c 0,-6.07 0,-36.621 0,-36.621 l 0,0 0,-18.624 c 0,-0.002 0,-30.552 0,-36.622 l 0,0 c 0,-3.165 0.704,-5.134 1.931,-6.312 l 0,0 c 1.235,-1.172 2.766,-1.314 3.883,-1.314 l 0,0 c 2.039,-0.011 3.368,1.282 4.245,2.535 l 0,0 c 0.903,1.274 1.598,2.637 2.412,3.389 l 0,0 c 0.549,0.502 1.045,0.761 1.835,0.771 l 0,0 c 1.146,-0.011 1.808,-0.6 2.622,-1.702 l 0,0 c 0.791,-1.079 1.488,-2.543 2.664,-3.673 l 0,0 c 0.778,-0.752 1.874,-1.331 3.209,-1.32 l 0,0 c 2.039,-0.011 3.368,1.282 4.245,2.535 l 0,0 c 0.903,1.274 1.598,2.635 2.414,3.389 l 0,0 c 0.547,0.502 1.045,0.761 1.833,0.771 l 0,0 c 1.146,-0.011 1.808,-0.6 2.622,-1.702 l 0,0 c 0.791,-1.079 1.488,-2.543 2.664,-3.673 l 0,0 c 0.78,-0.752 1.875,-1.331 3.209,-1.32 l 0,0 c 2.039,-0.011 3.368,1.282 4.245,2.535 l 0,0 c 0.903,1.274 1.598,2.637 2.414,3.389 l 0,0 c 0.547,0.502 1.045,0.761 1.833,0.771 l 0,0 c 1.146,-0.011 1.808,-0.6 2.622,-1.702 l 0,0 c 0.791,-1.079 1.488,-2.543 2.664,-3.673 l 0,0 c 0.778,-0.752 1.874,-1.331 3.209,-1.32 l 0,0 c 2.039,-0.011 3.368,1.282 4.243,2.535 l 0,0 c 0.903,1.274 1.6,2.637 2.414,3.389 l 0,0 c 0.547,0.502 1.045,0.761 1.833,0.771 l 0,0 c 1.146,-0.011 1.808,-0.6 2.622,-1.702 l 0,0 c 0.791,-1.079 1.488,-2.543 2.662,-3.673 l 0,0 c 0.78,-0.752 1.876,-1.331 3.209,-1.32 l 0,0 c 2.039,-0.011 3.368,1.282 4.246,2.535 l 0,0 c 0.903,1.274 1.598,2.637 2.414,3.389 l 0,0 c 0.547,0.502 1.045,0.761 1.833,0.771 l 0,0 c 1.147,-0.011 1.806,-0.6 2.622,-1.702 l 0,0 c 0.789,-1.079 1.486,-2.543 2.662,-3.673 l 0,0 c 0.78,-0.752 1.875,-1.331 3.209,-1.32 l 0,0 c 2.039,-0.011 3.368,1.282 4.245,2.535 l 0,0 c 0.903,1.274 1.598,2.637 2.414,3.389 l 0,0 c 0.547,0.502 1.045,0.761 1.833,0.771 l 0,0 c 1.146,-0.011 1.808,-0.6 2.622,-1.702 l 0,0 c 0.791,-1.079 1.488,-2.543 2.662,-3.673 l 0,0 c 0.78,-0.752 1.876,-1.331 3.209,-1.32 l 0,0 c 2.039,-0.011 3.368,1.282 4.246,2.535 l 0,0 c 0.903,1.274 1.598,2.637 2.414,3.389 l 0,0 c 0.547,0.502 1.043,0.761 1.833,0.771 l 0,0 c 1.146,-0.011 1.808,-0.6 2.624,-1.702 l 0,0 c 0.789,-1.079 1.486,-2.543 2.662,-3.673 l 0,0 c 0.78,-0.752 1.876,-1.331 3.209,-1.32 l 0,0 c 2.039,-0.011 3.368,1.282 4.246,2.535 l 0,0 c 0.903,1.274 1.598,2.637 2.412,3.389 l 0,0 c 0.549,0.502 1.044,0.761 1.835,0.771 l 0,0 c 1.146,-0.011 1.808,-0.6 2.622,-1.702 l 0,0 c 0.79,-1.079 1.487,-2.543 2.664,-3.673 l 0,0 c 0.777,-0.752 1.874,-1.331 3.209,-1.32 l 0,0 c 2.037,-0.011 3.365,1.282 4.243,2.535 l 0,0 c 0.903,1.274 1.601,2.635 2.414,3.389 l 0,0 c 0.549,0.502 1.045,0.761 1.836,0.771 l 0,0 c 1.145,-0.011 1.806,-0.6 2.621,-1.702 l 0,0 c 0.791,-1.079 1.488,-2.543 2.664,-3.673 l 0,0 c 0.778,-0.752 1.876,-1.331 3.209,-1.32 l 0,0 c 2.039,-0.011 3.368,1.282 4.243,2.535 l 0,0 c 0.903,1.274 1.601,2.635 2.414,3.389 l 0,0 c 0.55,0.502 1.045,0.761 1.836,0.771 l 0,0 c 1.146,-0.011 1.808,-0.6 2.622,-1.702 l 0,0 c 0.79,-1.079 1.487,-2.543 2.662,-3.673 l 0,0 c 0.779,-0.752 1.876,-1.331 3.209,-1.32 l 0,0 c 2.039,-0.011 3.37,1.282 4.245,2.535 l 0,0 c 0.902,1.274 1.601,2.635 2.414,3.389 l 0,0 c 0.549,0.502 1.045,0.761 1.836,0.771 l 0,0 c 1.146,-0.011 1.806,-0.6 2.621,-1.702 l 0,0 c 0.789,-1.079 1.486,-2.543 2.664,-3.673 l 0,0 c 0.778,-0.752 1.874,-1.331 3.209,-1.32 l 0,0 c 2.037,-0.011 3.368,1.282 4.246,2.535 l 0,0 c 0.902,1.274 1.598,2.635 2.411,3.389 l 0,0 c 0.55,0.502 1.045,0.761 1.838,0.771 l 0,0 c 1.145,-0.011 1.806,-0.6 2.622,-1.702 l 0,0 c 0.788,-1.079 1.485,-2.543 2.662,-3.673 l 0,0 c 0.78,-0.752 1.876,-1.331 3.209,-1.32 l 0,0 c 2.039,-0.011 3.37,1.282 4.247,2.535 l 0,0 c 0.901,1.274 1.599,2.637 2.412,3.389 l 0,0 c 0.549,0.502 1.045,0.761 1.833,0.771 l 0,0 c 1.147,-0.011 1.809,-0.6 2.624,-1.702 l 0,0 c 0.789,-1.079 1.486,-2.543 2.665,-3.673 l 0,0 c 0.777,-0.752 1.873,-1.331 3.208,-1.32 l 0,0 c 2.039,-0.011 3.368,1.282 4.246,2.535 l 0,0 c 0.902,1.274 1.598,2.635 2.414,3.389 l 0,0 c 0.547,0.502 1.045,0.761 1.835,0.771 l 0,0 c 1.145,-0.011 1.806,-0.6 2.622,-1.702 l 0,0 c 0.788,-1.079 1.485,-2.543 2.662,-3.673 l 0,0 c 0.778,-0.752 1.874,-1.331 3.209,-1.32 l 0,0 c 2.037,-0.011 3.368,1.282 4.245,2.535 l 0,0 c 0.903,1.274 1.599,2.635 2.414,3.389 l 0,0 c 0.549,0.502 1.047,0.761 1.838,0.771 l 0,0 c 1.145,-0.011 1.806,-0.6 2.62,-1.702 l 0,0 c 0.79,-1.079 1.487,-2.543 2.664,-3.673 l 0,0 c 0.779,-0.752 1.875,-1.331 3.211,-1.32 l 0,0 c 2.037,-0.011 3.368,1.282 4.243,2.535 l 0,0 c 0.902,1.274 1.6,2.635 2.414,3.389 l 0,0 c 0.549,0.502 1.045,0.761 1.835,0.771 l 0,0 c 1.147,-0.011 1.809,-0.6 2.624,-1.702 l 0,0 c 0.789,-1.079 1.488,-2.543 2.665,-3.673 l 0,0 c 0.777,-0.752 1.875,-1.331 3.208,-1.32 l 0,0 c 2.039,-0.011 3.37,1.282 4.246,2.535 l 0,0 c 0.902,1.274 1.6,2.635 2.414,3.389 l 0,0 c 0.549,0.502 1.045,0.761 1.835,0.771 l 0,0 c 1.145,-0.011 1.806,-0.6 2.62,-1.702 l 0,0 c 0.79,-1.079 1.487,-2.543 2.664,-3.673 l 0,0 c 0.778,-0.752 1.876,-1.331 3.209,-1.32 l 0,0 c 2.039,-0.011 3.368,1.282 4.245,2.535 l 0,0 c 0.903,1.274 1.599,2.637 2.414,3.389 l 0,0 c 0.549,0.502 1.045,0.761 1.834,0.771 l 0,0 c 1.146,-0.011 1.808,-0.6 2.624,-1.702 l 0,0 c 0.79,-1.079 1.487,-2.543 2.664,-3.673 l 0,0 c 0.779,-0.752 1.875,-1.331 3.209,-1.32 l 0,0 c 2.038,-0.011 3.369,1.282 4.247,2.535 l 0,0 c 0.9,1.274 1.598,2.635 2.412,3.389 l 0,0 c 0.549,0.502 1.045,0.761 1.835,0.771 l 0,0 c 1.147,-0.011 1.809,-0.6 2.622,-1.702 l 0,0 c 0.791,-1.079 1.488,-2.543 2.664,-3.673 l 0,0 c 0.78,-0.752 1.876,-1.331 3.209,-1.32 l 0,0 c 2.039,-0.011 3.37,1.282 4.245,2.535 l 0,0 c 0.903,1.274 1.601,2.635 2.415,3.389 l 0,0 c 0.549,0.502 1.045,0.761 1.835,0.771 l 0,0 c 1.146,-0.011 1.808,-0.6 2.622,-1.702 l 0,0 c 0.79,-1.079 1.487,-2.543 2.666,-3.673 l 0,0 c 0.778,-0.752 1.876,-1.331 3.211,-1.32 l 0,0 c 2.037,-0.011 3.368,1.282 4.245,2.535 l 0,0 c 0.903,1.274 1.599,2.635 2.415,3.389 l 0,0 c 0.547,0.502 1.045,0.761 1.835,0.771 l 0,0 c 1.146,-0.011 1.808,-0.6 2.622,-1.702 l 0,0 c 0.79,-1.079 1.487,-2.543 2.664,-3.673 l 0,0 c 0.78,-0.752 1.876,-1.331 3.211,-1.32 l 0,0 c 2.039,-0.011 3.368,1.282 4.247,2.535 l 0,0 c 0.901,1.274 1.599,2.635 2.415,3.389 l 0,0 c 0.546,0.502 1.045,0.761 1.833,0.771 l 0,0 c 1.148,-0.011 1.81,-0.6 2.624,-1.702 l 0,0 c 0.793,-1.079 1.487,-2.543 2.666,-3.673 l 0,0 c 0.78,-0.752 1.876,-1.331 3.211,-1.32 l 0,0 c 1.905,-0.009 3.652,0.731 4.835,2.155 l 0,0 c 1.185,1.42 1.799,3.427 1.799,5.89 l 0,0 c 0,4.604 0,42.898 0,42.898 l 0,0 0,5.231 c 0,0.042 0,38.297 0,42.898 l 0,0 c 0,2.463 -0.614,4.47 -1.799,5.891 l 0,0 c -1.183,1.426 -2.93,2.166 -4.835,2.155 l 0,0 c -2.041,0.011 -3.372,-1.282 -4.249,-2.535 l 0,0 c -0.903,-1.275 -1.601,-2.637 -2.417,-3.389 l 0,0 c -0.547,-0.503 -1.045,-0.764 -1.835,-0.773 l 0,0 c -1.146,0.01 -1.808,0.602 -2.622,1.703 l 0,0 c -0.79,1.079 -1.487,2.544 -2.664,3.674 l 0,0 c -0.772,0.747 -1.855,1.32 -3.173,1.32 l 0,0 c -0.007,10e-4 -0.019,10e-4 -0.031,10e-4 l 0,0 z m -4.25,-6.161 c 0.901,1.273 1.599,2.637 2.415,3.389 l 0,0 c 0.546,0.502 1.045,0.763 1.835,0.773 l 0,0 c 1.146,-0.011 1.808,-0.602 2.622,-1.704 l 0,0 c 0.79,-1.078 1.487,-2.543 2.664,-3.675 l 0,0 c 0.778,-0.753 1.876,-1.329 3.209,-1.318 l 0,0 c 2.039,-0.011 3.37,1.28 4.249,2.535 l 0,0 c 0.901,1.273 1.599,2.637 2.415,3.389 l 0,0 c 0.549,0.502 1.045,0.763 1.837,0.771 l 0,0 c 2.76,-0.065 4.538,-1.746 4.634,-6.045 l 0,0 c 0,-4.604 0,-42.898 0,-42.898 l 0,0 0,-5.231 c 0,0 0,-38.294 0,-42.898 l 0,0 c -0.096,-4.298 -1.874,-5.979 -4.634,-6.045 l 0,0 c -1.148,0.011 -1.81,0.602 -2.626,1.702 l 0,0 c -0.79,1.081 -1.487,2.543 -2.664,3.673 l 0,0 c -0.78,0.755 -1.876,1.331 -3.211,1.321 l 0,0 c -2.039,0.01 -3.368,-1.283 -4.248,-2.535 l 0,0 c -0.9,-1.274 -1.598,-2.634 -2.414,-3.387 l 0,0 c -0.547,-0.504 -1.045,-0.763 -1.833,-0.774 l 0,0 c -1.148,0.011 -1.81,0.602 -2.624,1.702 l 0,0 c -0.79,1.081 -1.487,2.543 -2.664,3.673 l 0,0 c -0.78,0.755 -1.876,1.331 -3.209,1.321 l 0,0 c -2.041,0.01 -3.37,-1.283 -4.247,-2.535 l 0,0 c -0.903,-1.274 -1.599,-2.634 -2.414,-3.387 l 0,0 c -0.55,-0.504 -1.045,-0.763 -1.834,-0.774 l 0,0 c -1.148,0.011 -1.812,0.602 -2.626,1.702 l 0,0 c -0.79,1.081 -1.487,2.543 -2.664,3.673 l 0,0 c -0.78,0.752 -1.876,1.331 -3.209,1.321 l 0,0 c -2.039,0.01 -3.368,-1.283 -4.247,-2.535 l 0,0 c -0.901,-1.274 -1.599,-2.634 -2.412,-3.387 l 0,0 c -0.549,-0.504 -1.045,-0.763 -1.836,-0.774 l 0,0 c -1.146,0.011 -1.808,0.602 -2.621,1.702 l 0,0 c -0.791,1.081 -1.488,2.543 -2.665,3.673 l 0,0 c -0.779,0.752 -1.875,1.331 -3.209,1.321 l 0,0 c -2.038,0.01 -3.369,-1.283 -4.247,-2.535 l 0,0 c -0.903,-1.274 -1.598,-2.634 -2.412,-3.387 l 0,0 c -0.549,-0.504 -1.045,-0.763 -1.835,-0.774 l 0,0 c -1.147,0.011 -1.809,0.602 -2.624,1.702 l 0,0 c -0.789,1.081 -1.486,2.543 -2.664,3.673 l 0,0 c -0.778,0.755 -1.874,1.331 -3.209,1.321 l 0,0 c -2.039,0.01 -3.368,-1.283 -4.246,-2.535 l 0,0 c -0.902,-1.274 -1.598,-2.634 -2.412,-3.387 l 0,0 c -0.549,-0.504 -1.045,-0.763 -1.835,-0.774 l 0,0 c -1.146,0.011 -1.808,0.602 -2.622,1.702 l 0,0 c -0.79,1.081 -1.487,2.543 -2.664,3.673 l 0,0 c -0.777,0.752 -1.874,1.331 -3.207,1.321 l 0,0 c -2.039,0.01 -3.367,-1.283 -4.247,-2.535 l 0,0 c -0.901,-1.274 -1.599,-2.634 -2.412,-3.387 l 0,0 c -0.549,-0.504 -1.045,-0.763 -1.836,-0.774 l 0,0 c -1.146,0.011 -1.808,0.602 -2.623,1.702 l 0,0 c -0.789,1.081 -1.488,2.543 -2.662,3.673 l 0,0 c -0.78,0.752 -1.878,1.331 -3.212,1.321 l 0,0 c -2.038,0.01 -3.369,-1.283 -4.247,-2.535 l 0,0 c -0.903,-1.274 -1.598,-2.634 -2.412,-3.387 l 0,0 c -0.549,-0.504 -1.045,-0.763 -1.833,-0.774 l 0,0 c -1.149,0.011 -1.811,0.602 -2.626,1.702 l 0,0 c -0.789,1.081 -1.486,2.543 -2.662,3.673 l 0,0 c -0.778,0.752 -1.874,1.331 -3.207,1.321 l 0,0 c -2.041,0.01 -3.372,-1.283 -4.25,-2.535 l 0,0 c -0.902,-1.274 -1.598,-2.634 -2.414,-3.387 l 0,0 c -0.547,-0.504 -1.045,-0.763 -1.833,-0.774 l 0,0 c -1.146,0.011 -1.808,0.6 -2.622,1.702 l 0,0 c -0.79,1.081 -1.487,2.543 -2.664,3.673 l 0,0 c -0.777,0.752 -1.874,1.331 -3.207,1.321 l 0,0 c -2.039,0.01 -3.37,-1.283 -4.247,-2.535 l 0,0 c -0.903,-1.274 -1.599,-2.634 -2.414,-3.387 l 0,0 c -0.549,-0.504 -1.045,-0.763 -1.834,-0.774 l 0,0 c -1.146,0.011 -1.808,0.602 -2.623,1.702 l 0,0 c -0.791,1.081 -1.488,2.543 -2.665,3.673 l 0,0 c -0.777,0.752 -1.875,1.331 -3.209,1.321 l 0,0 c -2.038,0.01 -3.367,-1.283 -4.243,-2.535 l 0,0 c -0.902,-1.274 -1.6,-2.634 -2.414,-3.387 l 0,0 c -0.549,-0.504 -1.045,-0.763 -1.835,-0.774 l 0,0 c -1.146,0.011 -1.808,0.602 -2.622,1.702 l 0,0 c -0.79,1.081 -1.488,2.543 -2.664,3.673 l 0,0 c -0.778,0.752 -1.874,1.331 -3.207,1.321 l 0,0 c -2.041,0.01 -3.37,-1.283 -4.247,-2.535 l 0,0 c -0.903,-1.274 -1.599,-2.634 -2.414,-3.387 l 0,0 c -0.549,-0.504 -1.045,-0.763 -1.834,-0.774 l 0,0 c -1.146,0.011 -1.808,0.602 -2.624,1.702 l 0,0 c -0.788,1.081 -1.485,2.543 -2.662,3.673 l 0,0 c -0.779,0.752 -1.875,1.331 -3.208,1.321 l 0,0 c -2.039,0.01 -3.37,-1.283 -4.246,-2.535 l 0,0 c -0.904,-1.274 -1.6,-2.634 -2.414,-3.387 l 0,0 c -0.549,-0.504 -1.045,-0.763 -1.835,-0.774 l 0,0 c -1.146,0.011 -1.806,0.6 -2.622,1.702 l 0,0 c -0.788,1.079 -1.485,2.543 -2.662,3.673 l 0,0 c -0.78,0.752 -1.876,1.331 -3.209,1.321 l 0,0 c -2.039,0.01 -3.37,-1.283 -4.247,-2.535 l 0,0 c -0.901,-1.274 -1.599,-2.634 -2.412,-3.387 l 0,0 c -0.549,-0.504 -1.045,-0.763 -1.834,-0.774 l 0,0 c -1.146,0.011 -1.808,0.602 -2.624,1.702 l 0,0 c -0.788,1.081 -1.485,2.543 -2.662,3.673 l 0,0 c -0.779,0.752 -1.875,1.331 -3.208,1.321 l 0,0 c -2.042,0.01 -3.37,-1.283 -4.248,-2.535 l 0,0 c -0.902,-1.274 -1.598,-2.634 -2.412,-3.387 l 0,0 c -0.549,-0.504 -1.045,-0.763 -1.833,-0.774 l 0,0 c -1.146,0.011 -1.808,0.602 -2.624,1.702 l 0,0 c -0.788,1.081 -1.485,2.543 -2.662,3.673 l 0,0 c -0.78,0.752 -1.876,1.331 -3.209,1.321 l 0,0 c -2.039,0.01 -3.37,-1.283 -4.245,-2.535 l 0,0 c -0.903,-1.274 -1.598,-2.634 -2.414,-3.387 l 0,0 c -0.547,-0.504 -1.045,-0.763 -1.833,-0.774 l 0,0 c -1.146,0.011 -1.808,0.602 -2.622,1.702 l 0,0 c -0.791,1.081 -1.488,2.543 -2.665,3.673 l 0,0 c -0.778,0.752 -1.875,1.331 -3.208,1.321 l 0,0 c -2.039,0.01 -3.368,-1.283 -4.246,-2.535 l 0,0 c -0.903,-1.274 -1.598,-2.634 -2.414,-3.387 l 0,0 c -0.547,-0.504 -1.043,-0.763 -1.833,-0.774 l 0,0 c -1.145,0.011 -1.806,0.6 -2.622,1.702 l 0,0 c -0.789,1.081 -1.486,2.543 -2.662,3.673 l 0,0 c -0.78,0.752 -1.876,1.331 -3.209,1.321 l 0,0 c -2.039,0.01 -3.368,-1.283 -4.246,-2.535 l 0,0 c -0.903,-1.274 -1.598,-2.634 -2.414,-3.387 l 0,0 c -0.547,-0.504 -1.045,-0.763 -1.833,-0.774 l 0,0 c -1.147,0.011 -1.806,0.6 -2.622,1.702 l 0,0 c -0.789,1.079 -1.486,2.543 -2.662,3.673 l 0,0 c -0.78,0.752 -1.875,1.331 -3.209,1.321 l 0,0 c -2.039,0.01 -3.368,-1.283 -4.245,-2.535 l 0,0 c -0.903,-1.274 -1.598,-2.634 -2.412,-3.387 l 0,0 c -0.549,-0.504 -1.045,-0.763 -1.835,-0.774 l 0,0 c -1.146,0.011 -1.806,0.6 -2.622,1.702 l 0,0 c -0.789,1.079 -1.486,2.543 -2.662,3.673 l 0,0 c -0.778,0.752 -1.874,1.331 -3.209,1.321 l 0,0 c -2.039,0.01 -3.368,-1.283 -4.246,-2.535 l 0,0 c -0.901,-1.274 -1.598,-2.634 -2.412,-3.387 l 0,0 c -0.549,-0.504 -1.045,-0.763 -1.833,-0.774 l 0,0 c -1.147,0.011 -1.808,0.6 -2.622,1.702 l 0,0 c -0.791,1.081 -1.488,2.543 -2.664,3.673 l 0,0 c -0.778,0.752 -1.876,1.331 -3.209,1.321 l 0,0 c -2.039,0.01 -3.368,-1.283 -4.245,-2.535 l 0,0 c -0.903,-1.274 -1.598,-2.634 -2.415,-3.387 l 0,0 c -0.546,-0.504 -1.044,-0.763 -1.833,-0.774 l 0,0 c -1.147,0.011 -1.808,0.602 -2.622,1.702 l 0,0 c -0.791,1.081 -1.488,2.543 -2.664,3.673 l 0,0 c -0.78,0.752 -1.876,1.331 -3.209,1.321 l 0,0 c -2.039,0.01 -3.368,-1.283 -4.245,-2.535 l 0,0 c -0.903,-1.274 -1.601,-2.634 -2.414,-3.387 l 0,0 c -0.547,-0.504 -1.045,-0.763 -1.833,-0.774 l 0,0 c -1.147,0.011 -1.808,0.602 -2.624,1.702 l 0,0 c -0.789,1.081 -1.486,2.543 -2.662,3.673 l 0,0 c -0.78,0.752 -1.876,1.331 -3.209,1.321 l 0,0 c -2.039,0.01 -3.37,-1.283 -4.245,-2.535 l 0,0 c -0.903,-1.274 -1.601,-2.634 -2.414,-3.387 l 0,0 c -0.547,-0.504 -1.045,-0.763 -1.833,-0.774 l 0,0 c -0.977,0.002 -1.854,0.138 -2.503,0.761 l 0,0 c -0.655,0.617 -1.31,1.96 -1.31,4.864 l 0,0 c -0.002,6.07 -0.002,36.62 0,36.622 l 0,0 0,18.624 c -0.002,0.036 -0.002,30.553 0,36.621 l 0,0 c 0,2.903 0.655,4.247 1.31,4.864 l 0,0 c 0.651,0.625 1.526,0.761 2.503,0.761 l 0,0 c 1.145,-0.009 1.806,-0.6 2.622,-1.702 l 0,0 c 0.789,-1.078 1.486,-2.543 2.662,-3.675 l 0,0 c 0.78,-0.753 1.876,-1.329 3.209,-1.32 l 0,0 c 2.039,-0.009 3.368,1.284 4.246,2.537 l 0,0 c 0.903,1.273 1.6,2.637 2.414,3.389 l 0,0 c 0.549,0.502 1.045,0.763 1.835,0.771 l 0,0 c 1.145,-0.009 1.806,-0.6 2.622,-1.702 l 0,0 c 0.789,-1.078 1.486,-2.543 2.662,-3.675 l 0,0 c 0.78,-0.753 1.876,-1.329 3.209,-1.32 l 0,0 c 2.039,-0.009 3.37,1.284 4.248,2.537 l 0,0 c 0.901,1.273 1.598,2.637 2.412,3.389 l 0,0 c 0.549,0.502 1.045,0.763 1.835,0.771 l 0,0 c 1.146,-0.009 1.806,-0.6 2.622,-1.702 l 0,0 c 0.791,-1.078 1.488,-2.543 2.662,-3.675 l 0,0 c 0.78,-0.753 1.876,-1.329 3.209,-1.32 l 0,0 c 2.039,-0.009 3.37,1.284 4.248,2.537 l 0,0 c 0.901,1.273 1.598,2.637 2.412,3.389 l 0,0 c 0.549,0.502 1.045,0.763 1.835,0.771 l 0,0 c 1.145,-0.009 1.806,-0.6 2.62,-1.702 l 0,0 c 0.791,-1.078 1.488,-2.543 2.662,-3.675 l 0,0 c 0.78,-0.753 1.875,-1.329 3.209,-1.318 l 0,0 c 2.039,-0.011 3.37,1.282 4.245,2.535 l 0,0 c 0.903,1.273 1.6,2.637 2.414,3.389 l 0,0 c 0.547,0.502 1.045,0.763 1.833,0.771 l 0,0 c 1.146,-0.009 1.806,-0.6 2.622,-1.702 l 0,0 c 0.791,-1.078 1.488,-2.543 2.662,-3.675 l 0,0 c 0.78,-0.753 1.876,-1.329 3.209,-1.318 l 0,0 c 2.039,-0.011 3.368,1.282 4.246,2.535 l 0,0 c 0.903,1.273 1.598,2.637 2.414,3.389 l 0,0 c 0.547,0.502 1.043,0.763 1.833,0.771 l 0,0 c 1.146,-0.009 1.806,-0.6 2.622,-1.702 l 0,0 c 0.791,-1.078 1.488,-2.543 2.662,-3.675 l 0,0 c 0.78,-0.753 1.876,-1.329 3.209,-1.32 l 0,0 c 2.039,-0.009 3.368,1.284 4.245,2.537 l 0,0 c 0.903,1.273 1.598,2.637 2.415,3.389 l 0,0 c 0.546,0.502 1.045,0.763 1.833,0.773 l 0,0 c 1.147,-0.011 1.806,-0.602 2.622,-1.704 l 0,0 c 0.789,-1.078 1.486,-2.543 2.662,-3.675 l 0,0 c 0.78,-0.753 1.875,-1.329 3.209,-1.32 l 0,0 c 2.039,-0.009 3.37,1.284 4.247,2.537 l 0,0 c 0.903,1.273 1.598,2.637 2.415,3.389 l 0,0 c 0.546,0.502 1.042,0.763 1.833,0.773 l 0,0 c 1.147,-0.011 1.806,-0.602 2.622,-1.704 l 0,0 c 0.789,-1.078 1.486,-2.543 2.662,-3.675 l 0,0 c 0.778,-0.753 1.874,-1.329 3.208,-1.32 l 0,0 c 2.039,-0.009 3.368,1.282 4.245,2.537 l 0,0 c 0.903,1.273 1.601,2.637 2.414,3.389 l 0,0 c 0.549,0.502 1.045,0.763 1.836,0.771 l 0,0 c 1.145,-0.009 1.806,-0.6 2.619,-1.702 l 0,0 c 0.791,-1.078 1.488,-2.543 2.662,-3.675 l 0,0 c 0.78,-0.753 1.876,-1.329 3.212,-1.32 l 0,0 c 2.038,-0.009 3.367,1.284 4.245,2.537 l 0,0 c 0.902,1.273 1.6,2.637 2.414,3.389 l 0,0 c 0.549,0.502 1.045,0.763 1.835,0.771 l 0,0 c 1.145,-0.009 1.807,-0.6 2.62,-1.702 l 0,0 c 0.79,-1.078 1.488,-2.543 2.664,-3.675 l 0,0 c 0.778,-0.753 1.874,-1.329 3.209,-1.32 l 0,0 c 2.039,-0.009 3.368,1.284 4.247,2.537 l 0,0 c 0.901,1.273 1.597,2.637 2.412,3.389 l 0,0 c 0.547,0.502 1.043,0.763 1.834,0.771 l 0,0 c 1.146,-0.009 1.808,-0.6 2.621,-1.702 l 0,0 c 0.791,-1.078 1.488,-2.543 2.665,-3.675 l 0,0 c 0.779,-0.753 1.875,-1.329 3.209,-1.318 l 0,0 c 2.038,-0.011 3.369,1.282 4.245,2.535 l 0,0 c 0.902,1.273 1.6,2.637 2.414,3.389 l 0,0 c 0.547,0.502 1.045,0.763 1.835,0.771 l 0,0 c 1.145,-0.009 1.806,-0.6 2.622,-1.702 l 0,0 c 0.788,-1.078 1.486,-2.543 2.662,-3.675 l 0,0 c 0.78,-0.753 1.876,-1.329 3.211,-1.32 l 0,0 c 2.039,-0.009 3.368,1.284 4.245,2.537 l 0,0 c 0.903,1.273 1.599,2.637 2.414,3.389 l 0,0 c 0.547,0.502 1.045,0.763 1.834,0.771 l 0,0 c 1.146,-0.009 1.808,-0.6 2.622,-1.702 l 0,0 c 0.79,-1.078 1.487,-2.543 2.664,-3.675 l 0,0 c 0.777,-0.753 1.873,-1.329 3.206,-1.32 l 0,0 c 2.042,-0.009 3.37,1.282 4.248,2.537 l 0,0 c 0.902,1.273 1.601,2.637 2.414,3.389 l 0,0 c 0.547,0.502 1.045,0.763 1.835,0.771 l 0,0 c 1.145,-0.009 1.807,-0.6 2.622,-1.702 l 0,0 c 0.789,-1.078 1.486,-2.543 2.664,-3.675 l 0,0 c 0.778,-0.753 1.874,-1.329 3.209,-1.32 l 0,0 c 2.039,-0.009 3.368,1.284 4.246,2.537 l 0,0 c 0.902,1.273 1.598,2.637 2.411,3.389 l 0,0 c 0.55,0.502 1.045,0.763 1.836,0.771 l 0,0 c 1.145,-0.009 1.806,-0.6 2.622,-1.702 l 0,0 c 0.79,-1.078 1.487,-2.543 2.664,-3.675 l 0,0 c 0.78,-0.753 1.876,-1.329 3.211,-1.32 l 0,0 c 2.037,-0.009 3.366,1.284 4.243,2.537 l 0,0 c 0.903,1.273 1.598,2.637 2.414,3.389 l 0,0 c 0.549,0.502 1.047,0.763 1.838,0.771 l 0,0 c 1.145,-0.009 1.806,-0.6 2.619,-1.702 l 0,0 c 0.791,-1.078 1.488,-2.543 2.665,-3.675 l 0,0 c 0.779,-0.753 1.875,-1.329 3.208,-1.32 l 0,0 c 2.042,-0.009 3.37,1.282 4.248,2.537 l 0,0 c 0.902,1.273 1.6,2.637 2.414,3.389 l 0,0 c 0.549,0.502 1.045,0.763 1.835,0.771 l 0,0 c 1.147,-0.009 1.809,-0.6 2.622,-1.702 l 0,0 c 0.791,-1.078 1.488,-2.543 2.664,-3.675 l 0,0 c 0.778,-0.753 1.876,-1.329 3.209,-1.32 l 0,0 c 2.039,-0.009 3.368,1.284 4.246,2.537 l 0,0 c 0.9,1.273 1.598,2.637 2.411,3.389 l 0,0 c 0.55,0.502 1.045,0.763 1.836,0.771 l 0,0 c 1.146,-0.009 1.808,-0.6 2.622,-1.702 l 0,0 c 0.79,-1.078 1.487,-2.543 2.662,-3.675 l 0,0 c 0.779,-0.753 1.875,-1.329 3.209,-1.318 l 0,0 c 2.038,-0.011 3.369,1.28 4.247,2.535 l 0,0 c 0.903,1.273 1.601,2.637 2.414,3.389 l 0,0 c 0.549,0.502 1.047,0.763 1.836,0.771 l 0,0 c 1.146,-0.009 1.808,-0.6 2.624,-1.702 l 0,0 c 0.788,-1.078 1.485,-2.543 2.661,-3.675 l 0,0 c 0.778,-0.753 1.876,-1.329 3.209,-1.32 l 0,0 c 2.039,-0.009 3.37,1.282 4.246,2.537 l 0,0 c 0.902,1.273 1.6,2.637 2.414,3.389 l 0,0 c 0.549,0.502 1.045,0.763 1.835,0.771 l 0,0 c 1.146,-0.009 1.809,-0.6 2.622,-1.702 l 0,0 c 0.791,-1.078 1.488,-2.543 2.664,-3.675 l 0,0 c 0.778,-0.753 1.876,-1.329 3.209,-1.32 l 0,0 c 2.039,-0.009 3.368,1.284 4.247,2.537 l 0,0 c 0.901,1.273 1.599,2.637 2.415,3.389 l 0,0 c 0.547,0.502 1.045,0.763 1.837,0.771 l 0,0 c 1.145,-0.009 1.806,-0.6 2.622,-1.702 l 0,0 c 0.788,-1.078 1.485,-2.543 2.662,-3.675 l 0,0 c 0.78,-0.753 1.876,-1.329 3.211,-1.318 l 0,0 c 0.009,0 0.017,0 0.025,0 l 0,0 c 2.023,-0.001 3.344,1.285 4.22,2.535 l 0,0 z"
         inkscape:connector-curvature="0"
         style="fill:#efefef" /><path
         id="path5194"
         d="m 546.69,265.494 0,-1.999 c 1.432,0 2.894,0.025 4.351,0.023 l 0,0 c 5.176,0.011 10.245,-0.356 13.901,-3.051 l 0,0 c 3.648,-2.675 6.266,-7.784 6.276,-18.049 l 0,0 c 0,-23.729 0,-23.729 0.002,-23.753 l 0,0 0,-13.602 c -0.002,0 -0.002,0 0,-23.749 l 0,0 c -0.013,-10.265 -2.63,-15.379 -6.278,-18.052 l 0,0 c -3.654,-2.696 -8.726,-3.062 -13.903,-3.053 l 0,0 c -1.457,0 -2.917,0.027 -4.349,0.027 l 0,0 0,-2.001 c 1.406,0 2.868,-0.026 4.349,-0.026 l 0,0 c 5.235,0.009 10.755,0.287 15.085,3.438 l 0,0 c 4.343,3.176 7.108,9.114 7.096,19.667 l 0,0 c 0,23.749 0,23.749 0,23.749 l 0,0 0,13.602 c 0,0.023 0,0.023 0,23.753 l 0,0 c 0.013,10.549 -2.753,16.487 -7.096,19.661 l 0,0 c -4.33,3.151 -9.85,3.43 -15.083,3.439 l 0,0 c -1.48,0.002 -2.94,-0.024 -4.351,-0.024 l 0,0 z m 0,0 0,0.003 0,-0.003 0,0 z"
         inkscape:connector-curvature="0"
         style="fill:#efefef" /><path
         id="path5196"
         d="m 167.837,268.635 c -11.671,-0.002 -18.306,-0.002 -18.325,0 l 0,0 -0.044,0 -0.058,-0.007 c -0.11,-0.015 -1.815,-0.195 -3.561,-1.603 l 0,0 c -1.754,-1.402 -3.42,-4.078 -3.404,-8.598 l 0,0 0,-0.817 0.798,-0.163 c 4.804,-0.977 8.748,-1.908 11.899,-2.626 l 0,0 c -0.285,-0.004 -0.57,-0.006 -0.858,-0.006 l 0,0 c -5.694,0 -11.92,0.651 -17.086,1.548 l 0,0 c -5.141,0.875 -9.338,2.088 -10.588,2.91 l 0,0 -1.071,-1.69 c 1.884,-1.16 6.02,-2.254 11.316,-3.19 l 0,0 c 5.272,-0.913 11.583,-1.577 17.429,-1.577 l 0,0 c 3.14,0 6.143,0.193 8.791,0.648 l 0,0 -0.17,1.986 c -2.311,-0.027 -8.656,1.753 -18.436,3.786 l 0,0 c 0.352,6.277 4.085,7.106 4.982,7.374 l 0,0 c 0.056,0.012 0.094,0.02 0.12,0.023 l 0,0 c 5.409,0 378.33,0 433.223,0 l 0,0 c -2.12,-1.28 -4.125,-3.092 -5.876,-5.188 l 0,0 c -3.436,-4.152 -5.895,-9.487 -5.907,-14.529 l 0,0 2.001,0 c -0.013,4.374 2.235,9.399 5.445,13.252 l 0,0 c 3.162,3.835 7.258,6.444 10.618,6.465 l 0,0 c 0.034,0 0.066,0 0.097,0 l 0,0 0,2.001 c -12.087,-0.001 -339.635,-0.001 -421.335,10e-4 l 0,0 z"
         inkscape:connector-curvature="0"
         style="fill:#efefef" /><path
         id="path5198"
         d="m 175.671,304.419 c -6.471,-0.011 -13.758,0.042 -19.782,-4.55 l 0,0 C 149.98,295.34 145.644,286.556 144.395,269.68 l 0,0 c -5.404,0 -14.345,0 -14.345,0 l 0,0 -0.349,0 -0.272,-0.217 c -0.398,-0.355 -8.527,-7.158 -8.538,-47.03 l 0,0 0,-21.133 c 0.01,-39.872 8.139,-46.674 8.538,-47.03 l 0,0 0.272,-0.217 0.349,0 c 0.014,0 8.942,0 14.345,0 l 0,0 c 1.249,-16.875 5.585,-25.66 11.494,-30.191 l 0,0 c 6.023,-4.59 13.311,-4.539 19.782,-4.548 l 0,0 c 12.973,0 362.44,0 384.204,0 l 0,0 c 11.022,0 18.076,2.491 22.501,6.113 l 0,0 c 4.426,3.62 6.102,8.31 6.534,12.357 l 0,0 c 0.843,7.825 2.306,35.215 2.306,58.91 l 0,0 0.002,30.344 c -0.002,23.695 -1.465,51.086 -2.308,58.91 l 0,0 c -0.433,4.048 -2.108,8.738 -6.534,12.357 l 0,0 c -4.425,3.62 -11.479,6.113 -22.501,6.113 l 0,0 c -21.764,-0.001 -371.231,-0.001 -384.204,10e-4 l 0,0 z m -30.344,-36.738 0.935,0 0.064,0.935 c 1.144,17.25 5.444,25.595 10.778,29.667 l 0,0 c 5.329,4.093 12.063,4.146 18.568,4.135 l 0,0 c 12.973,0 362.44,0 384.204,0 l 0,0 c 10.739,0 17.286,-2.425 21.233,-5.656 l 0,0 c 3.943,-3.236 5.406,-7.333 5.813,-11.029 l 0,0 c 0.828,-7.66 2.298,-35.096 2.296,-58.693 l 0,0 0,-30.344 c 0.002,-23.597 -1.468,-51.032 -2.296,-58.695 l 0,0 c -0.406,-3.694 -1.869,-7.79 -5.813,-11.024 l 0,0 c -3.947,-3.234 -10.494,-5.659 -21.233,-5.659 l 0,0 c -21.764,-0.002 -371.231,-0.002 -384.204,0 l 0,0 c -6.504,-0.011 -13.239,0.042 -18.568,4.135 l 0,0 c -5.333,4.071 -9.634,12.417 -10.778,29.669 l 0,0 -0.062,0.932 -0.937,0 c -4.598,0 -12.915,0 -14.861,0 l 0,0 c -0.004,0.005 -0.009,0.01 -0.013,0.015 l 0,0 c -0.185,0.213 -0.473,0.577 -0.828,1.15 l 0,0 c -0.711,1.143 -1.699,3.117 -2.7,6.345 l 0,0 c -1.999,6.455 -4.035,17.927 -4.035,37.738 l 0,0 0,21.133 c -0.012,34.761 6.287,43.796 7.57,45.248 l 0,0 c 1.936,-0.002 10.262,-0.002 14.867,-0.002 l 0,0 z"
         inkscape:connector-curvature="0"
         style="fill:#efefef" /><path
         id="path5200"
         d="m 154.373,286.154 c 0,-5.813 4.71,-10.521 10.521,-10.521 l 0,0 c 5.811,0 10.521,4.711 10.521,10.521 l 0,0 c 0,5.811 -4.71,10.52 -10.521,10.52 l 0,0 c -5.811,0 -10.521,-4.709 -10.521,-10.52 l 0,0 z m 1.998,0 c 0.01,4.707 3.816,8.512 8.522,8.521 l 0,0 c 4.707,-0.009 8.512,-3.813 8.521,-8.521 l 0,0 c -0.008,-4.707 -3.814,-8.515 -8.521,-8.522 l 0,0 c -4.706,0.008 -8.512,3.817 -8.522,8.522 l 0,0 z"
         inkscape:connector-curvature="0"
         style="fill:#efefef" /><path
         id="path5202"
         d="m 562.431,286.154 c 0,-5.812 4.712,-10.521 10.523,-10.521 l 0,0 c 5.809,0 10.521,4.709 10.521,10.521 l 0,0 c 0,5.812 -4.712,10.521 -10.521,10.521 l 0,0 c -5.811,0 -10.523,-4.709 -10.523,-10.521 l 0,0 z m 1.999,0 c 0.009,4.707 3.816,8.513 8.524,8.521 l 0,0 c 4.705,-0.009 8.513,-3.816 8.521,-8.521 l 0,0 c -0.009,-4.705 -3.816,-8.513 -8.521,-8.521 l 0,0 c -4.708,0.009 -8.516,3.816 -8.524,8.521 l 0,0 z"
         inkscape:connector-curvature="0"
         style="fill:#efefef" /><path
         id="path5204"
         d="m 46.779,280.01 -0.046,-0.09 -0.025,-0.092 c -4.262,-15.49 -5.752,-35.305 -5.754,-55.569 l 0,0 c 0.006,-45.367 7.493,-92.894 8.668,-98.5 l 0,0 c 0.733,-3.475 1.436,-5.689 2.148,-7.126 l 0,0 c 0.696,-1.391 1.5,-2.262 2.672,-2.3 l 0,0 c 0.293,0 0.565,0.069 0.8,0.168 l 0,0 c 8.359,1.756 11.882,4.431 13.67,9.617 l 0,0 c 1.81,5.116 2.335,12.468 5.945,24.533 l 0,0 c 7.108,23.809 26.533,31.17 31.974,32.81 l 0,0 c 2.739,0.823 6.162,1.592 9.147,2.515 l 0,0 c 2.981,0.964 5.554,1.901 6.768,3.789 l 0,0 0.002,0.002 -1.716,1.027 c -0.46,-0.902 -2.769,-2.059 -5.647,-2.908 l 0,0 c -2.875,-0.892 -6.289,-1.658 -9.128,-2.509 l 0,0 c -5.718,-1.706 -25.915,-9.411 -33.316,-34.152 l 0,0 c -3.644,-12.208 -4.235,-19.784 -5.912,-24.434 l 0,0 c -1.693,-4.556 -4.008,-6.485 -12.313,-8.357 l 0,0 -0.125,-0.027 -0.112,-0.056 c -0.036,-0.021 -0.036,-0.015 -0.036,-0.017 l 0,0 -0.008,0.006 c -0.021,0.01 -0.077,0.04 -0.158,0.115 l 0,0 c -0.165,0.147 -0.427,0.487 -0.714,1.07 l 0,0 c -0.583,1.163 -1.273,3.265 -1.981,6.647 l 0,0 c -1.137,5.385 -8.63,52.964 -8.626,98.087 l 0,0 c -0.002,20.121 1.492,39.77 5.657,54.944 l 0,0 c 0.704,1.313 2.773,2.923 6.533,2.923 l 0,0 c 3.525,0.005 8.556,-1.438 15.124,-5.901 l 0,0 c 6.626,-4.495 8.177,-11.067 11.005,-18.103 l 0,0 c 2.796,-6.999 7.058,-14.295 19.076,-19.123 l 0,0 c 2.341,-0.796 6.757,-0.669 11.143,-1.167 l 0,0 c 4.383,-0.445 8.391,-1.612 9.514,-3.935 l 0,0 1.771,0.929 c -1.948,3.535 -6.589,4.462 -11.066,4.993 l 0,0 c -4.473,0.478 -9.124,0.467 -10.651,1.05 l 0,0 C 89.603,245.542 85.914,252.058 83.13,258.87 l 0,0 c -2.754,6.778 -4.412,14.016 -11.734,19.007 l 0,0 c -6.791,4.614 -12.178,6.247 -16.249,6.251 l 0,0 c -4.431,0 -7.283,-1.958 -8.368,-4.118 l 0,0 z"
         inkscape:connector-curvature="0"
         style="fill:#efefef" /><path
         id="path5206"
         d="M 20.89,268.243 C 10.56,257.544 1.879,241.372 1.883,219.683 l 0,0 c 0,-4.673 0.404,-9.602 1.277,-14.785 l 0,0 C 7.783,177.433 16.478,157.087 24.698,143.14 l 0,0 c 8.243,-13.961 15.913,-21.463 18.782,-23.442 l 0,0 c 2.106,-1.425 3.569,-2.156 4.973,-2.181 l 0,0 c 1.148,-0.031 2.11,0.685 2.608,1.552 l 0,0 c 0.531,0.867 0.848,1.915 1.2,3.133 l 0,0 0,0.002 -1.923,0.548 c -0.333,-1.183 -0.652,-2.117 -0.977,-2.629 l 0,0 c -0.36,-0.515 -0.477,-0.577 -0.908,-0.606 l 0,0 c -0.575,-0.025 -1.873,0.462 -3.843,1.833 l 0,0 c -2.433,1.647 -10.108,9.074 -18.188,22.805 l 0,0 C 18.32,157.902 9.717,178.012 5.132,205.232 l 0,0 c -0.854,5.076 -1.248,9.893 -1.248,14.451 l 0,0 c 0.004,21.144 8.424,36.776 18.447,47.174 l 0,0 c 9.991,10.396 21.726,15.47 27.76,15.434 l 0,0 c 0.492,0 0.94,-0.031 1.344,-0.092 l 0,0 0.29,1.979 c -0.514,0.075 -1.06,0.11 -1.633,0.112 l 0,0 c -6.974,-0.039 -18.84,-5.35 -29.202,-16.047 l 0,0 z"
         inkscape:connector-curvature="0"
         style="fill:#efefef" /></g></g></svg>